M48
; DRILL file {KiCad (6.0.0-rc1-dev-1413-ga48e89956)} date Friday, October 25, 2019 at 11:37:19 AM
; FORMAT={-:-/ absolute / inch / decimal}
; #@! TF.CreationDate,2019-10-25T11:37:19-06:00
; #@! TF.GenerationSoftware,Kicad,Pcbnew,(6.0.0-rc1-dev-1413-ga48e89956)
; #@! TF.FileFunction,Plated,1,2,PTH
FMAT,2
INCH
T1C0.0157
T2C0.0197
T3C0.0217
T4C0.0256
T5C0.0276
T6C0.0315
T7C0.0346
T8C0.0394
T9C0.0394
T10C0.0591
T11C0.0906
T12C0.1181
%
G90
G05
T1
X5.154Y-3.5
X5.195Y-3.815
X5.249Y-2.784
X5.2982Y-3.0206
X5.306Y-3.565
X5.312Y-3.778
X5.3124Y-3.18
X5.3231Y-2.9943
X5.348Y-2.966
X5.35Y-4.228
X5.3558Y-4.9358
X5.361Y-3.2392
X5.362Y-4.692
X5.373Y-3.131
X5.3739Y-3.2696
X5.413Y-3.127
X5.422Y-2.778
X5.422Y-3.022
X5.452Y-3.468
X5.453Y-2.806
X5.454Y-3.04
X5.4723Y-3.2343
X5.4723Y-3.2781
X5.4723Y-3.3219
X5.4723Y-3.3657
X5.482Y-2.856
X5.484Y-2.642
X5.4986Y-3.504
X5.512Y-3.1
X5.5138Y-3.368
X5.5161Y-3.2343
X5.5161Y-3.2781
X5.5161Y-3.318
X5.538Y-3.564
X5.556Y-3.2343
X5.5599Y-3.2781
X5.5599Y-3.3219
X5.5599Y-3.3657
X5.5697Y-3.4692
X5.5975Y-3.0375
X5.598Y-3.2343
X5.6Y-3.3657
X5.6037Y-3.278
X5.6037Y-3.318
X5.604Y-3.1
X5.617Y-3.73
X5.642Y-2.78
X5.659Y-3.5327
X5.666Y-2.87
X5.666Y-2.944
X5.6816Y-3.118
X5.7013Y-3.2342
X5.724Y-5.23
X5.732Y-3.274
X5.76Y-2.731
X5.7607Y-3.204
X5.765Y-3.139
X5.786Y-4.832
X5.816Y-4.458
X5.843Y-3.045
X5.86Y-2.755
X5.868Y-3.2458
X5.883Y-3.791
X5.89Y-5.136
X5.898Y-2.7788
X5.907Y-3.063
X5.907Y-3.877
X5.973Y-3.142
X5.973Y-3.352
X5.99Y-3.194
X6.01Y-2.958
X6.034Y-3.37
X6.056Y-3.398
X6.11Y-2.678
X6.111Y-3.193
X6.148Y-3.138
X6.154Y-3.264
X6.156Y-2.7032
X6.205Y-2.755
X6.339Y-2.677
X6.362Y-3.2266
X6.394Y-2.87
X6.434Y-3.303
X6.482Y-2.683
X6.546Y-2.538
X6.73Y-2.808
X6.768Y-4.652
X6.771Y-2.677
X6.7852Y-2.7788
X6.82Y-4.652
X6.825Y-2.535
X6.842Y-3.044
X6.898Y-3.23
X6.915Y-2.649
X6.916Y-3.388
X6.9506Y-4.5203
X6.952Y-5.239
X7.018Y-4.517
X7.021Y-2.536
X7.124Y-3.044
X7.194Y-3.61
X7.217Y-3.937
X7.278Y-4.413
T4
X7.2Y-2.6308
X7.2Y-2.68
T5
X5.201Y-4.595
X7.075Y-2.61
X5.47Y-5.205
X6.074Y-3.129
X7.089Y-4.216
X6.797Y-3.357
T6
X5.186Y-3.0073
X5.186Y-3.086
X5.186Y-3.1647
T7
X5.9529Y-4.6231
X5.9529Y-4.7019
X5.9529Y-4.7806
X5.9529Y-4.8594
X5.9529Y-4.9381
X5.9529Y-5.0169
X6.0316Y-4.6231
X6.0316Y-4.7019
X6.0316Y-4.7806
X6.0316Y-4.8594
X6.0316Y-4.9381
X6.0316Y-5.0169
T8
X7.178Y-4.3166
X7.178Y-4.4166
X7.178Y-4.5166
X7.178Y-4.6166
X7.178Y-4.7166
X7.178Y-4.8166
X7.178Y-4.9166
X7.178Y-5.0166
X7.078Y-4.6166
X7.078Y-4.7166
X7.078Y-4.8166
X7.078Y-4.9166
X7.078Y-5.0166
X5.698Y-4.6166
X5.698Y-4.7166
X5.698Y-4.8166
X5.698Y-4.9166
X5.698Y-5.0166
X5.646Y-2.623
X5.746Y-2.623
X5.846Y-2.623
X5.946Y-2.623
T9
X5.543Y-4.046
X5.543Y-4.146
X5.543Y-4.226
X5.543Y-4.326
T10
X5.186Y-2.9246
X5.186Y-3.2474
T11
X5.438Y-3.906
X5.438Y-4.446
T12
X5.272Y-2.6226
X7.186Y-5.168
X5.272Y-5.168
T2
G00X5.1552Y-4.7486
M15
G01X5.1808Y-4.7486
M16
G05
G00X5.1552Y-5.0242
M15
G01X5.1808Y-5.0242
M16
G05
T3
G00X5.2743Y-4.782
M15
G01X5.2743Y-4.7939
M16
G05
G00X5.2743Y-4.9789
M15
G01X5.2743Y-4.9907
M16
G05
T0
M30
