G04 #@! TF.GenerationSoftware,KiCad,Pcbnew,(5.99.0-10509-g065f85b504)*
G04 #@! TF.CreationDate,2021-07-11T16:30:22-06:00*
G04 #@! TF.ProjectId,HAT_ver_7,4841545f-7665-4725-9f37-2e6b69636164,7.0.6*
G04 #@! TF.SameCoordinates,Original*
G04 #@! TF.FileFunction,Copper,L2,Bot*
G04 #@! TF.FilePolarity,Positive*
%FSLAX46Y46*%
G04 Gerber Fmt 4.6, Leading zero omitted, Abs format (unit mm)*
G04 Created by KiCad (PCBNEW (5.99.0-10509-g065f85b504)) date 2021-07-11 16:30:22*
%MOMM*%
%LPD*%
G01*
G04 APERTURE LIST*
G04 Aperture macros list*
%AMRoundRect*
0 Rectangle with rounded corners*
0 $1 Rounding radius*
0 $2 $3 $4 $5 $6 $7 $8 $9 X,Y pos of 4 corners*
0 Add a 4 corners polygon primitive as box body*
4,1,4,$2,$3,$4,$5,$6,$7,$8,$9,$2,$3,0*
0 Add four circle primitives for the rounded corners*
1,1,$1+$1,$2,$3*
1,1,$1+$1,$4,$5*
1,1,$1+$1,$6,$7*
1,1,$1+$1,$8,$9*
0 Add four rect primitives between the rounded corners*
20,1,$1+$1,$2,$3,$4,$5,0*
20,1,$1+$1,$4,$5,$6,$7,0*
20,1,$1+$1,$6,$7,$8,$9,0*
20,1,$1+$1,$8,$9,$2,$3,0*%
%AMRotRect*
0 Rectangle, with rotation*
0 The origin of the aperture is its center*
0 $1 length*
0 $2 width*
0 $3 Rotation angle, in degrees counterclockwise*
0 Add horizontal line*
21,1,$1,$2,0,0,$3*%
G04 Aperture macros list end*
G04 #@! TA.AperFunction,EtchedComponent*
%ADD10C,0.120000*%
G04 #@! TD*
G04 #@! TA.AperFunction,ComponentPad*
%ADD11C,1.501140*%
G04 #@! TD*
G04 #@! TA.AperFunction,ComponentPad*
%ADD12C,2.999740*%
G04 #@! TD*
G04 #@! TA.AperFunction,ComponentPad*
%ADD13R,1.700000X1.700000*%
G04 #@! TD*
G04 #@! TA.AperFunction,ComponentPad*
%ADD14O,1.700000X1.700000*%
G04 #@! TD*
G04 #@! TA.AperFunction,ComponentPad*
%ADD15RoundRect,0.200000X-0.450000X0.200000X-0.450000X-0.200000X0.450000X-0.200000X0.450000X0.200000X0*%
G04 #@! TD*
G04 #@! TA.AperFunction,ComponentPad*
%ADD16O,1.300000X0.800000*%
G04 #@! TD*
G04 #@! TA.AperFunction,ComponentPad*
%ADD17C,1.500000*%
G04 #@! TD*
G04 #@! TA.AperFunction,ComponentPad*
%ADD18O,2.200000X1.200000*%
G04 #@! TD*
G04 #@! TA.AperFunction,ComponentPad*
%ADD19R,6.400000X6.400000*%
G04 #@! TD*
G04 #@! TA.AperFunction,ComponentPad*
%ADD20RotRect,1.800000X1.800000X315.000000*%
G04 #@! TD*
G04 #@! TA.AperFunction,SMDPad,CuDef*
%ADD21R,0.400000X1.500000*%
G04 #@! TD*
G04 #@! TA.AperFunction,ComponentPad*
%ADD22O,7.500000X3.000000*%
G04 #@! TD*
G04 #@! TA.AperFunction,ComponentPad*
%ADD23C,1.524000*%
G04 #@! TD*
G04 #@! TA.AperFunction,ComponentPad*
%ADD24O,2.100000X1.000000*%
G04 #@! TD*
G04 #@! TA.AperFunction,ComponentPad*
%ADD25O,1.800000X1.000000*%
G04 #@! TD*
G04 #@! TA.AperFunction,SMDPad,CuDef*
%ADD26R,3.800000X0.700000*%
G04 #@! TD*
G04 #@! TA.AperFunction,SMDPad,CuDef*
%ADD27R,2.000000X0.600000*%
G04 #@! TD*
G04 #@! TA.AperFunction,ViaPad*
%ADD28C,0.600000*%
G04 #@! TD*
G04 #@! TA.AperFunction,Conductor*
%ADD29C,0.500000*%
G04 #@! TD*
G04 #@! TA.AperFunction,Conductor*
%ADD30C,0.250000*%
G04 #@! TD*
G04 #@! TA.AperFunction,Conductor*
%ADD31C,0.200000*%
G04 #@! TD*
G04 #@! TA.AperFunction,Conductor*
%ADD32C,0.508000*%
G04 #@! TD*
G04 #@! TA.AperFunction,Conductor*
%ADD33C,0.400000*%
G04 #@! TD*
G04 #@! TA.AperFunction,Conductor*
%ADD34C,0.254000*%
G04 #@! TD*
G04 APERTURE END LIST*
D10*
X180925000Y-115260000D02*
X181175000Y-115260000D01*
X181175000Y-115260000D02*
X181175000Y-114260000D01*
X181175000Y-114260000D02*
X180925000Y-114260000D01*
X180925000Y-114260000D02*
X180925000Y-115260000D01*
G36*
X180925000Y-115260000D02*
G01*
X181175000Y-115260000D01*
X181175000Y-114260000D01*
X180925000Y-114260000D01*
X180925000Y-115260000D01*
G37*
D11*
X140790080Y-102767540D03*
X140790080Y-105267540D03*
X140790080Y-107267540D03*
X140790080Y-109767540D03*
D12*
X138080080Y-99697540D03*
X138080080Y-112837540D03*
D13*
X182321200Y-127422000D03*
D14*
X182321200Y-124882000D03*
X182321200Y-122342000D03*
X182321200Y-119802000D03*
X182321200Y-117262000D03*
X182321200Y-114722000D03*
X182321200Y-112182000D03*
X182321200Y-109642000D03*
D15*
X181810000Y-67490000D03*
D16*
X181810000Y-66240000D03*
D17*
X132105400Y-116713000D03*
X175770000Y-69620000D03*
X136321800Y-133121400D03*
X132590000Y-70380000D03*
X185210000Y-123880000D03*
D13*
X143408400Y-66624400D03*
D14*
X145948400Y-66624400D03*
X148488400Y-66624400D03*
X151028400Y-66624400D03*
D17*
X184770000Y-76680000D03*
D18*
X149010000Y-125130000D03*
X149010000Y-123130000D03*
X149010000Y-121130000D03*
X149010000Y-119130000D03*
X149010000Y-117130000D03*
X149010000Y-115130000D03*
X176010000Y-114480000D03*
X176010000Y-117480000D03*
X176010000Y-122780000D03*
X176010000Y-125780000D03*
D19*
X158510000Y-117830000D03*
D20*
X168060000Y-116430000D03*
X166310000Y-124330000D03*
D21*
X181050000Y-115760000D03*
X181050000Y-113760000D03*
D22*
X131673600Y-131267200D03*
D23*
X153939600Y-116158000D03*
X153939600Y-118158000D03*
X153939600Y-120158000D03*
X153939600Y-122158000D03*
X153939600Y-124158000D03*
X153939600Y-126158000D03*
X151939600Y-116158000D03*
X151939600Y-118158000D03*
X151939600Y-120158000D03*
X151939600Y-122158000D03*
X151939600Y-124158000D03*
X151939600Y-126158000D03*
D13*
X144729200Y-127422000D03*
D14*
X144729200Y-124882000D03*
X144729200Y-122342000D03*
X144729200Y-119802000D03*
X144729200Y-117262000D03*
D13*
X179781200Y-127422000D03*
D14*
X179781200Y-124882000D03*
X179781200Y-122342000D03*
X179781200Y-119802000D03*
X179781200Y-117262000D03*
X179781200Y-114722000D03*
X179781200Y-112182000D03*
X179781200Y-109642000D03*
X179781200Y-107102000D03*
X179781200Y-104562000D03*
X179781200Y-102022000D03*
X179781200Y-99482000D03*
D22*
X131673600Y-66598800D03*
D24*
X134362500Y-119800000D03*
D25*
X130182500Y-119800000D03*
D24*
X134362500Y-128440000D03*
D25*
X130182500Y-128440000D03*
D26*
X184210000Y-106580000D03*
X184210000Y-99580000D03*
D27*
X182310000Y-100580000D03*
X182310000Y-101580000D03*
X182310000Y-102580000D03*
X182310000Y-103580000D03*
X182310000Y-104580000D03*
X182310000Y-105580000D03*
D28*
X158350000Y-73230000D03*
X138420000Y-74940000D03*
X149428200Y-96291400D03*
X161080000Y-76730000D03*
X171037553Y-113504500D03*
X171100000Y-119300000D03*
X184498000Y-103580000D03*
X171974693Y-67987093D03*
X156413200Y-68961000D03*
X162700000Y-71650000D03*
X143916400Y-72898000D03*
X171780000Y-120630000D03*
X133814500Y-75955260D03*
X172414500Y-119934500D03*
X136169400Y-82276199D03*
X136474200Y-79527400D03*
X134419000Y-75352595D03*
X138480800Y-88087200D03*
X144811990Y-82148200D03*
X140004800Y-78740000D03*
X148770000Y-69150000D03*
X139050000Y-69286100D03*
X169450000Y-69010000D03*
X157520000Y-69694020D03*
X141469720Y-88117000D03*
X142341602Y-78740000D03*
X149970000Y-68545500D03*
X185820000Y-109240000D03*
X154910000Y-68230000D03*
X161010600Y-67995800D03*
X142671800Y-111048200D03*
X146470000Y-127430000D03*
X142671800Y-94742000D03*
X136610000Y-121290000D03*
X145592810Y-83159600D03*
X136580000Y-126560000D03*
X179790000Y-77720000D03*
X133200000Y-76570000D03*
X143000000Y-90340000D03*
X143420000Y-70590000D03*
X172974000Y-70840600D03*
X172220000Y-77690000D03*
X185067500Y-104357500D03*
X134772400Y-90551000D03*
X149330000Y-92180000D03*
X139293600Y-67106800D03*
X142330715Y-76960715D03*
X143849500Y-77160000D03*
X136680000Y-76770000D03*
X165030000Y-82950000D03*
X167820000Y-75920000D03*
X177898800Y-74361200D03*
X150670000Y-75590000D03*
X150037800Y-98475800D03*
X173020000Y-114190000D03*
X173020000Y-111795500D03*
X142000000Y-114580000D03*
X140050500Y-85547200D03*
X142189200Y-82151250D03*
X142240000Y-85488750D03*
X140108950Y-82151250D03*
X180713900Y-90260000D03*
X146820000Y-70910000D03*
X140108950Y-84277200D03*
X141221450Y-83263750D03*
X137970053Y-117869947D03*
X182510000Y-80120000D03*
X138996450Y-83263750D03*
X144211000Y-132445800D03*
X175666400Y-86055200D03*
X140108950Y-83263750D03*
X138996450Y-84376250D03*
X139665200Y-89001600D03*
X141122400Y-82151250D03*
X136790000Y-128490000D03*
X148380000Y-81440000D03*
X185850000Y-97930000D03*
X149240000Y-70894500D03*
X138996450Y-82151250D03*
X141221450Y-85488750D03*
X141221450Y-84376250D03*
X148619500Y-74710000D03*
X142333950Y-83261200D03*
X136520000Y-71410000D03*
X142333950Y-84277200D03*
X179960000Y-80490000D03*
X138996450Y-85488750D03*
X143880000Y-73940000D03*
X140560000Y-89731100D03*
X140560000Y-91770000D03*
X149874500Y-81220000D03*
X149960000Y-75190000D03*
X140400000Y-115200000D03*
X161560000Y-74940980D03*
X145750000Y-70140000D03*
X175641000Y-67284600D03*
X166268400Y-64465200D03*
X178333400Y-64414400D03*
X152900000Y-67730000D03*
X173355000Y-64389000D03*
X151090000Y-98760000D03*
X178319989Y-116500000D03*
X164642800Y-68148200D03*
X184290000Y-105470000D03*
X139674600Y-125907800D03*
X164450000Y-114870000D03*
X139700000Y-122910600D03*
X164410000Y-128560000D03*
X177060000Y-115920000D03*
X141960000Y-128670000D03*
X166141400Y-129413000D03*
X146888200Y-129438400D03*
D29*
X158299520Y-73280480D02*
X148939520Y-73280480D01*
X148939520Y-73280480D02*
X147280000Y-74940000D01*
X158350000Y-73230000D02*
X158299520Y-73280480D01*
X147280000Y-74940000D02*
X138420000Y-74940000D01*
D30*
X170963053Y-113430000D02*
X171037553Y-113504500D01*
X179235261Y-121050000D02*
X181073200Y-121050000D01*
X149428200Y-112218200D02*
X150640000Y-113430000D01*
D31*
X151660000Y-76730000D02*
X150580000Y-77810000D01*
D30*
X171100000Y-119300000D02*
X177485261Y-119300000D01*
X177485261Y-119300000D02*
X179235261Y-121050000D01*
X150640000Y-113430000D02*
X170963053Y-113430000D01*
X181073200Y-121050000D02*
X182321200Y-119802000D01*
D31*
X149428200Y-96161800D02*
X149428200Y-96291400D01*
X150580000Y-95010000D02*
X149428200Y-96161800D01*
X150580000Y-77810000D02*
X150580000Y-95010000D01*
D30*
X149428200Y-96291400D02*
X149428200Y-112218200D01*
D31*
X161080000Y-76730000D02*
X151660000Y-76730000D01*
X182310000Y-103580000D02*
X184498000Y-103580000D01*
X184500000Y-103580000D02*
X184498000Y-103580000D01*
D30*
X165695677Y-67990000D02*
X171971786Y-67990000D01*
X156413200Y-68961000D02*
X164724677Y-68961000D01*
X164724677Y-68961000D02*
X165695677Y-67990000D01*
X171971786Y-67990000D02*
X171974693Y-67987093D01*
D29*
X162674011Y-71624011D02*
X147072633Y-71624011D01*
X147072633Y-71624011D02*
X145798644Y-72898000D01*
X162700000Y-71650000D02*
X162674011Y-71624011D01*
X145798644Y-72898000D02*
X143916400Y-72898000D01*
D30*
X133814500Y-75955260D02*
X133814500Y-71671500D01*
X142729002Y-64820800D02*
X149783800Y-64820800D01*
X171780000Y-120630000D02*
X177310000Y-120630000D01*
X133814500Y-71671500D02*
X137723399Y-67762601D01*
X178380000Y-123550000D02*
X179740000Y-124910000D01*
X137723399Y-67762601D02*
X139787201Y-67762601D01*
X177310000Y-120630000D02*
X178380000Y-121700000D01*
X149783800Y-64820800D02*
X151028400Y-66065400D01*
X178380000Y-121700000D02*
X178380000Y-123550000D01*
X139787201Y-67762601D02*
X142729002Y-64820800D01*
X136474200Y-81971399D02*
X136469399Y-81976200D01*
X136474200Y-79527400D02*
X136474200Y-81971399D01*
X172439000Y-119910000D02*
X177330000Y-119910000D01*
X177330000Y-119910000D02*
X179730000Y-122310000D01*
X172414500Y-119934500D02*
X172439000Y-119910000D01*
X134400000Y-75333595D02*
X134400000Y-71898800D01*
X134400000Y-71898800D02*
X137617200Y-68681600D01*
X136469399Y-81976200D02*
X136169400Y-82276199D01*
X147142200Y-68681600D02*
X148488400Y-67335400D01*
X137617200Y-68681600D02*
X147142200Y-68681600D01*
X134419000Y-75352595D02*
X134400000Y-75333595D01*
X144830800Y-82167010D02*
X144811990Y-82148200D01*
X144811990Y-80956390D02*
X142544800Y-78689200D01*
D32*
X139050000Y-69286100D02*
X148633900Y-69286100D01*
X148770000Y-69150000D02*
X148910000Y-69290000D01*
D30*
X141469720Y-88117000D02*
X143378600Y-88117000D01*
X144811990Y-86683610D02*
X144811990Y-80956390D01*
D32*
X157520000Y-69694020D02*
X157474020Y-69740000D01*
X156129689Y-69740000D02*
X168720000Y-69740000D01*
X142290802Y-78689200D02*
X140226821Y-78689200D01*
X169450000Y-69010000D02*
X168720000Y-69740000D01*
X148910000Y-69290000D02*
X155679689Y-69290000D01*
D30*
X138480800Y-88087200D02*
X141439920Y-88087200D01*
X143378600Y-88117000D02*
X144811990Y-86683610D01*
X141439920Y-88087200D02*
X141469720Y-88117000D01*
X140226810Y-78689200D02*
X140157203Y-78758807D01*
D32*
X142341602Y-78740000D02*
X142290802Y-78689200D01*
X155679689Y-69290000D02*
X156129689Y-69740000D01*
X148633900Y-69286100D02*
X148770000Y-69150000D01*
D30*
X144830800Y-82346800D02*
X144830800Y-82167010D01*
D31*
X142322795Y-78758807D02*
X142341602Y-78740000D01*
D30*
X142671800Y-102768400D02*
X142671800Y-94742000D01*
X161010600Y-67995800D02*
X155144200Y-67995800D01*
D29*
X185820000Y-109240000D02*
X185780000Y-109280000D01*
D30*
X149970000Y-68545500D02*
X154594500Y-68545500D01*
X140792200Y-102768400D02*
X142671800Y-102768400D01*
D29*
X184480000Y-122870000D02*
X185350000Y-123740000D01*
X146470000Y-127430000D02*
X146462000Y-127422000D01*
X146462000Y-127422000D02*
X144729200Y-127422000D01*
D32*
X178360000Y-129730000D02*
X179970000Y-129730000D01*
D29*
X182321200Y-127422000D02*
X182321200Y-124968800D01*
X184480000Y-122870000D02*
X182321200Y-125028800D01*
D32*
X176060000Y-127430000D02*
X178360000Y-129730000D01*
D30*
X160985200Y-68021200D02*
X161010600Y-67995800D01*
X146470000Y-127430000D02*
X146470000Y-127490000D01*
D29*
X185780000Y-121570000D02*
X184480000Y-122870000D01*
D30*
X142671800Y-102768400D02*
X142671800Y-111048200D01*
X155144200Y-67995800D02*
X154910000Y-68230000D01*
X154594500Y-68545500D02*
X154910000Y-68230000D01*
D32*
X179970000Y-129730000D02*
X182300000Y-127400000D01*
X146470000Y-127430000D02*
X176060000Y-127430000D01*
D29*
X185780000Y-109280000D02*
X185780000Y-121570000D01*
D30*
X146470000Y-127490000D02*
X146420000Y-127540000D01*
D29*
X145592810Y-80478118D02*
X142874203Y-77759511D01*
D33*
X136610000Y-126530000D02*
X136580000Y-126560000D01*
D29*
X142874203Y-77759511D02*
X138108334Y-77759511D01*
X138108334Y-77759511D02*
X137868823Y-77520000D01*
X137868823Y-77520000D02*
X135611400Y-77520000D01*
X130911600Y-82219800D02*
X130911600Y-115551600D01*
X135611400Y-77520000D02*
X130911600Y-82219800D01*
X130911600Y-115551600D02*
X132070000Y-116710000D01*
D33*
X136610000Y-121290000D02*
X136610000Y-126530000D01*
D29*
X145592810Y-83159600D02*
X145592810Y-80478118D01*
D31*
X185067500Y-104357500D02*
X185110000Y-104315000D01*
D29*
X156295600Y-120158000D02*
X156794200Y-119659400D01*
D31*
X146960000Y-92180000D02*
X149330000Y-92180000D01*
D30*
X143574511Y-70744511D02*
X146040166Y-70744511D01*
X146040166Y-70744511D02*
X146494677Y-70290000D01*
X143420000Y-70590000D02*
X143574511Y-70744511D01*
D29*
X158990000Y-124330000D02*
X158320000Y-123660000D01*
D34*
X138080080Y-112837540D02*
X140740000Y-110177620D01*
D30*
X146494677Y-70290000D02*
X155282389Y-70290000D01*
X172220000Y-77690000D02*
X179760000Y-77690000D01*
X134923400Y-90400000D02*
X134772400Y-90551000D01*
D31*
X184950000Y-100610000D02*
X182760000Y-100610000D01*
X143000000Y-90340000D02*
X145120000Y-90340000D01*
D29*
X153939600Y-120158000D02*
X156295600Y-120158000D01*
X150850200Y-117068600D02*
X149021800Y-117068600D01*
D30*
X155832989Y-70840600D02*
X172974000Y-70840600D01*
X137751736Y-67106800D02*
X139293600Y-67106800D01*
X133200000Y-76570000D02*
X133210000Y-76560000D01*
D29*
X153939600Y-120158000D02*
X151993200Y-118211600D01*
D30*
X155282389Y-70290000D02*
X155832989Y-70840600D01*
D29*
X181150000Y-116470000D02*
X181150000Y-116300000D01*
X151939600Y-118158000D02*
X150850200Y-117068600D01*
D31*
X185110000Y-104315000D02*
X185110000Y-100770000D01*
D30*
X142940000Y-90400000D02*
X134923400Y-90400000D01*
D31*
X145120000Y-90340000D02*
X146960000Y-92180000D01*
D29*
X158320000Y-123660000D02*
X158320000Y-119110000D01*
X151993200Y-118211600D02*
X151968200Y-118211600D01*
X180358000Y-117262000D02*
X181150000Y-116470000D01*
D30*
X179760000Y-77690000D02*
X179790000Y-77720000D01*
D31*
X185110000Y-100770000D02*
X184950000Y-100610000D01*
D30*
X133210000Y-71648536D02*
X137751736Y-67106800D01*
X143000000Y-90340000D02*
X142940000Y-90400000D01*
D29*
X166310000Y-124330000D02*
X158990000Y-124330000D01*
D30*
X133210000Y-76560000D02*
X133210000Y-71648536D01*
D32*
X170002086Y-124110480D02*
X167925366Y-126187200D01*
X167925366Y-126187200D02*
X154152600Y-126187200D01*
X177057914Y-124110480D02*
X179781200Y-126833766D01*
X154152600Y-126187200D02*
X154025600Y-126060200D01*
X170002098Y-124110471D02*
X177057914Y-124110471D01*
D30*
X143650215Y-76960715D02*
X143849500Y-77160000D01*
X142330715Y-76960715D02*
X143650215Y-76960715D01*
D31*
X182310000Y-101580000D02*
X180240000Y-101580000D01*
X165030000Y-75980000D02*
X165060000Y-75950000D01*
X165030000Y-82950000D02*
X165030000Y-75980000D01*
X167790000Y-75950000D02*
X167820000Y-75920000D01*
X161002323Y-75950000D02*
X165060000Y-75950000D01*
X139540000Y-76770000D02*
X140090000Y-76220000D01*
X140090000Y-76220000D02*
X160732323Y-76220000D01*
X165060000Y-75950000D02*
X167790000Y-75950000D01*
X160732323Y-76220000D02*
X161002323Y-75950000D01*
X136680000Y-76770000D02*
X139540000Y-76770000D01*
D30*
X163998800Y-74361200D02*
X177898800Y-74361200D01*
X150670000Y-75590000D02*
X150714520Y-75545480D01*
X162814520Y-75545480D02*
X163998800Y-74361200D01*
X150037800Y-98475800D02*
X150037800Y-111990074D01*
X177715489Y-114035489D02*
X177715489Y-117635489D01*
X181050000Y-118540000D02*
X182320000Y-117270000D01*
X150037800Y-111990074D02*
X150947726Y-112900000D01*
X150947726Y-112900000D02*
X176580000Y-112900000D01*
X177715489Y-117635489D02*
X178620000Y-118540000D01*
X178620000Y-118540000D02*
X181050000Y-118540000D01*
X150714520Y-75545480D02*
X162814520Y-75545480D01*
X176580000Y-112900000D02*
X177715489Y-114035489D01*
D31*
X181400000Y-102580000D02*
X179870000Y-104110000D01*
X182310000Y-102580000D02*
X181400000Y-102580000D01*
D30*
X178459023Y-111795500D02*
X179374523Y-110880000D01*
X142400000Y-114180000D02*
X142000000Y-114580000D01*
X181150000Y-110880000D02*
X182150000Y-109880000D01*
X173010000Y-114180000D02*
X142400000Y-114180000D01*
X173020000Y-111795500D02*
X178459023Y-111795500D01*
X173020000Y-114190000D02*
X173010000Y-114180000D01*
X179374523Y-110880000D02*
X181150000Y-110880000D01*
D34*
X144211000Y-131765000D02*
X143597200Y-131151200D01*
D30*
X136575500Y-71354500D02*
X136520000Y-71410000D01*
D29*
X145366510Y-84453490D02*
X148380000Y-81440000D01*
X182956200Y-112242600D02*
X183870600Y-113157000D01*
X180713900Y-86136100D02*
X180794800Y-86055200D01*
X184073800Y-69291200D02*
X182510000Y-70855000D01*
X183896000Y-111252000D02*
X182966000Y-112182000D01*
D32*
X137970053Y-117869947D02*
X137970053Y-118569947D01*
D29*
X184073800Y-69291200D02*
X184073800Y-66923800D01*
X146835500Y-70894500D02*
X149240000Y-70894500D01*
X182510000Y-80120000D02*
X182510000Y-84340000D01*
X182510000Y-84340000D02*
X180794800Y-86055200D01*
X183270000Y-90260000D02*
X185850000Y-92840000D01*
X134162800Y-89001600D02*
X139665200Y-89001600D01*
X136790000Y-128490000D02*
X129950000Y-128490000D01*
D30*
X132943600Y-111861600D02*
X132943600Y-109829600D01*
D29*
X129950000Y-128490000D02*
X129920000Y-128520000D01*
D32*
X137970053Y-118569947D02*
X136750000Y-119790000D01*
D34*
X144211000Y-132445800D02*
X144211000Y-131765000D01*
D29*
X181889123Y-69291200D02*
X184073800Y-69291200D01*
X183870600Y-113157000D02*
X183870600Y-120853200D01*
X183946800Y-111252000D02*
X183007000Y-112191800D01*
X182510000Y-70855000D02*
X182510000Y-80120000D01*
X149189500Y-74140000D02*
X162655791Y-74140000D01*
D34*
X136790000Y-131151200D02*
X136790000Y-132653200D01*
D32*
X146375507Y-71354493D02*
X136575495Y-71354493D01*
D29*
X183007000Y-112191800D02*
X182956200Y-112242600D01*
X162655791Y-74140000D02*
X162989111Y-73806680D01*
X145366510Y-86913300D02*
X145366510Y-84453490D01*
X132943600Y-111861600D02*
X132943600Y-90220800D01*
X129920000Y-119850000D02*
X129979993Y-119790007D01*
X181110000Y-112990000D02*
X181110000Y-113390000D01*
X183946800Y-109766800D02*
X183946800Y-111252000D01*
X182321200Y-122342000D02*
X183810000Y-120853200D01*
X179945200Y-86055200D02*
X178035200Y-86055200D01*
X177373643Y-73806680D02*
X181889123Y-69291200D01*
X184073800Y-66923800D02*
X183340000Y-66190000D01*
D32*
X146820000Y-70910000D02*
X146375507Y-71354493D01*
D29*
X132943600Y-112573600D02*
X132943600Y-111861600D01*
X181918000Y-112182000D02*
X181110000Y-112990000D01*
X136790000Y-128490000D02*
X136790000Y-128527500D01*
X185850000Y-92840000D02*
X185850000Y-97930000D01*
X146835500Y-70894500D02*
X146820000Y-70910000D01*
X143278210Y-89001600D02*
X145366510Y-86913300D01*
D30*
X183896000Y-111252000D02*
X183946800Y-111252000D01*
D29*
X182966000Y-112182000D02*
X182321200Y-112182000D01*
X129979993Y-119790007D02*
X132369992Y-119790007D01*
X139665200Y-89001600D02*
X143278210Y-89001600D01*
D30*
X132943600Y-109829600D02*
X133045200Y-109931200D01*
D29*
X137970053Y-117600053D02*
X132943600Y-112573600D01*
D34*
X136790000Y-132653200D02*
X136271000Y-133172200D01*
D29*
X132943600Y-90220800D02*
X134162800Y-89001600D01*
X183340000Y-66190000D02*
X181780000Y-66190000D01*
X180713900Y-90260000D02*
X183270000Y-90260000D01*
X148619500Y-74710000D02*
X149189500Y-74140000D01*
X162989111Y-73806680D02*
X177373643Y-73806680D01*
X178035200Y-86055200D02*
X175666400Y-86055200D01*
D34*
X136790000Y-128490000D02*
X136790000Y-131151200D01*
D29*
X180794800Y-86055200D02*
X179945200Y-86055200D01*
X183870600Y-120853200D02*
X183810000Y-120853200D01*
X180713900Y-90260000D02*
X180713900Y-86136100D01*
X129920000Y-128520000D02*
X129920000Y-119850000D01*
D34*
X143597200Y-131151200D02*
X136790000Y-131151200D01*
D32*
X136749993Y-119790007D02*
X132369992Y-119790007D01*
D29*
X137970053Y-117869947D02*
X137970053Y-117600053D01*
X185850000Y-97930000D02*
X185850000Y-107863600D01*
X185850000Y-107863600D02*
X183946800Y-109766800D01*
X177085100Y-70895100D02*
X180450200Y-67530000D01*
D34*
X175770000Y-69620000D02*
X177045100Y-70895100D01*
D29*
X175500200Y-72480000D02*
X148660000Y-72480000D01*
X180450200Y-67530000D02*
X181910000Y-67530000D01*
D34*
X177045100Y-70895100D02*
X177085100Y-70895100D01*
D29*
X148660000Y-72480000D02*
X147200000Y-73940000D01*
X175500200Y-72480000D02*
X177085100Y-70895100D01*
X147200000Y-73940000D02*
X143880000Y-73940000D01*
D30*
X143276311Y-93446311D02*
X143276311Y-112323689D01*
X140560000Y-91770000D02*
X141600000Y-91770000D01*
X149840000Y-81220000D02*
X149874500Y-81220000D01*
X143738900Y-89731100D02*
X143738900Y-89721100D01*
X143738900Y-89721100D02*
X146290000Y-87170000D01*
X150960166Y-74985489D02*
X150984677Y-75010000D01*
X143276311Y-112323689D02*
X140400000Y-115200000D01*
X150984677Y-75010000D02*
X161490980Y-75010000D01*
X149960000Y-75190000D02*
X150164511Y-74985489D01*
X150164511Y-74985489D02*
X150960166Y-74985489D01*
X161490980Y-75010000D02*
X161560000Y-74940980D01*
X141600000Y-91770000D02*
X143276311Y-93446311D01*
X140560000Y-89731100D02*
X143738900Y-89731100D01*
X146290000Y-87170000D02*
X146290000Y-84770000D01*
X146290000Y-84770000D02*
X149840000Y-81220000D01*
X146041480Y-69848520D02*
X155448343Y-69848520D01*
X172627080Y-70298520D02*
X175641000Y-67284600D01*
X155448343Y-69848520D02*
X155898343Y-70298520D01*
X155898343Y-70298520D02*
X172627080Y-70298520D01*
X145750000Y-70140000D02*
X146041480Y-69848520D01*
X166977494Y-63756106D02*
X177675106Y-63756106D01*
X177675106Y-63756106D02*
X178333400Y-64414400D01*
X166268400Y-64465200D02*
X166977494Y-63756106D01*
X152900000Y-67730000D02*
X153238711Y-67391289D01*
X151090000Y-111510000D02*
X151090000Y-98760000D01*
X168402000Y-64389000D02*
X173355000Y-64389000D01*
X151980000Y-112400000D02*
X151090000Y-111510000D01*
X178319989Y-116500000D02*
X178319989Y-113799989D01*
X176920000Y-112400000D02*
X151980000Y-112400000D01*
X153238711Y-67391289D02*
X163885889Y-67391289D01*
X163885889Y-67391289D02*
X164642800Y-68148200D01*
X178319989Y-113799989D02*
X176920000Y-112400000D01*
X164642800Y-68148200D02*
X168402000Y-64389000D01*
D34*
X145550000Y-121120000D02*
X147540000Y-119130000D01*
X143855000Y-121120000D02*
X145550000Y-121120000D01*
X143792000Y-124882000D02*
X142860000Y-123950000D01*
X147540000Y-119130000D02*
X149170000Y-119130000D01*
X144729200Y-124882000D02*
X143792000Y-124882000D01*
D29*
X150882200Y-119100600D02*
X149148800Y-119100600D01*
X151939600Y-120158000D02*
X150882200Y-119100600D01*
D34*
X142860000Y-122115000D02*
X143855000Y-121120000D01*
X142860000Y-123950000D02*
X142860000Y-122115000D01*
X145878000Y-122342000D02*
X146990000Y-121230000D01*
X146990000Y-121230000D02*
X149020000Y-121230000D01*
X144729200Y-122342000D02*
X145878000Y-122342000D01*
D29*
X150939600Y-121158000D02*
X149148800Y-121158000D01*
X151939600Y-122158000D02*
X150939600Y-121158000D01*
D30*
X134442200Y-109550200D02*
X136652000Y-107340400D01*
X140792200Y-107340400D02*
X136652000Y-107340400D01*
X134442200Y-113032200D02*
X134442200Y-109550200D01*
X141171000Y-119761000D02*
X134442200Y-113032200D01*
X144729200Y-119761000D02*
X141171000Y-119761000D01*
D31*
X179781200Y-107102000D02*
X180838000Y-107102000D01*
X181740000Y-106200000D02*
X181740000Y-105660000D01*
X180838000Y-107102000D02*
X181740000Y-106200000D01*
X183400000Y-104580000D02*
X184290000Y-105470000D01*
X182310000Y-104580000D02*
X183400000Y-104580000D01*
D34*
X139674600Y-122936000D02*
X139674600Y-125907800D01*
X164300000Y-128670000D02*
X164410000Y-128560000D01*
D31*
X165810000Y-114860000D02*
X166000000Y-114670000D01*
X171700000Y-115920000D02*
X177060000Y-115920000D01*
X166000000Y-114670000D02*
X170450000Y-114670000D01*
D34*
X139674600Y-126384600D02*
X141960000Y-128670000D01*
X139700000Y-122910600D02*
X139674600Y-122936000D01*
X139674600Y-125907800D02*
X139674600Y-126384600D01*
X141960000Y-128670000D02*
X164300000Y-128670000D01*
D31*
X170450000Y-114670000D02*
X171700000Y-115920000D01*
X164460000Y-114860000D02*
X165810000Y-114860000D01*
X164450000Y-114870000D02*
X164460000Y-114860000D01*
D34*
X166116000Y-129438400D02*
X166141400Y-129413000D01*
X146888200Y-129438400D02*
X166116000Y-129438400D01*
G04 #@! TA.AperFunction,Conductor*
G36*
X143373531Y-80436402D02*
G01*
X143394505Y-80453305D01*
X143930295Y-80989095D01*
X143964321Y-81051407D01*
X143967200Y-81078190D01*
X143967200Y-86815810D01*
X143947198Y-86883931D01*
X143930295Y-86904905D01*
X143648505Y-87186695D01*
X143586193Y-87220721D01*
X143559410Y-87223600D01*
X138226800Y-87223600D01*
X137922000Y-87528400D01*
X137922000Y-87842487D01*
X137912409Y-87890705D01*
X137899092Y-87922856D01*
X137895932Y-87930485D01*
X137875300Y-88087200D01*
X137895932Y-88243915D01*
X137899092Y-88251544D01*
X137912409Y-88283695D01*
X137922000Y-88331913D01*
X137922000Y-88544400D01*
X138113305Y-88735705D01*
X138147331Y-88798017D01*
X138142266Y-88868832D01*
X138099719Y-88925668D01*
X138033199Y-88950479D01*
X138024210Y-88950800D01*
X134165506Y-88950800D01*
X134097385Y-88930798D01*
X134050892Y-88877142D01*
X134040788Y-88806868D01*
X134070282Y-88742288D01*
X134077093Y-88735027D01*
X137197892Y-85661512D01*
X137210800Y-85648800D01*
X137210800Y-80542400D01*
X137230802Y-80474279D01*
X137284458Y-80427786D01*
X137336800Y-80416400D01*
X143305410Y-80416400D01*
X143373531Y-80436402D01*
G37*
G04 #@! TD.AperFunction*
G04 #@! TA.AperFunction,Conductor*
G36*
X184867186Y-78579975D02*
G01*
X184873152Y-78584047D01*
X186155139Y-79513939D01*
X186198537Y-79570128D01*
X186207158Y-79615921D01*
X186208855Y-98025088D01*
X186188859Y-98093211D01*
X186135208Y-98139709D01*
X186083785Y-98151096D01*
X182455538Y-98177803D01*
X179494281Y-98199600D01*
X179426015Y-98180099D01*
X179402422Y-98160823D01*
X179272227Y-98025088D01*
X178542897Y-97264723D01*
X178510178Y-97201717D01*
X178507830Y-97177524D01*
X178506447Y-88335591D01*
X178506408Y-88086573D01*
X178506890Y-88076712D01*
X178509944Y-88066163D01*
X178506867Y-88030635D01*
X178506397Y-88019782D01*
X178506397Y-88015308D01*
X178506396Y-88009506D01*
X178504988Y-88001951D01*
X178503326Y-87989744D01*
X178501311Y-87966481D01*
X178501311Y-87966480D01*
X178500307Y-87954892D01*
X178495198Y-87944441D01*
X178494288Y-87941159D01*
X178493065Y-87937991D01*
X178490934Y-87926556D01*
X178487760Y-87921409D01*
X178480341Y-87881819D01*
X178480038Y-87738116D01*
X178480000Y-87720000D01*
X173583589Y-87720000D01*
X173515468Y-87699998D01*
X173492829Y-87681399D01*
X172784612Y-86945943D01*
X172751768Y-86883000D01*
X172749382Y-86860104D01*
X172670724Y-80508490D01*
X172689881Y-80440127D01*
X172714209Y-80411699D01*
X174804539Y-78600722D01*
X174869123Y-78571234D01*
X174886917Y-78569953D01*
X181286874Y-78563553D01*
X184799045Y-78560041D01*
X184867186Y-78579975D01*
G37*
G04 #@! TD.AperFunction*
M02*
