%TF.GenerationSoftware,KiCad,Pcbnew,(5.99.0-10509-g065f85b504)*%
%TF.CreationDate,2021-07-11T19:01:29-06:00*%
%TF.ProjectId,OTG_Flex,4f54475f-466c-4657-982e-6b696361645f,1.1*%
%TF.SameCoordinates,Original*%
%TF.FileFunction,Profile,NP*%
%FSLAX46Y46*%
G04 Gerber Fmt 4.6, Leading zero omitted, Abs format (unit mm)*
G04 Created by KiCad (PCBNEW (5.99.0-10509-g065f85b504)) date 2021-07-11 19:01:29*
%MOMM*%
%LPD*%
G01*
G04 APERTURE LIST*
%TA.AperFunction,Profile*%
%ADD10C,0.100000*%
%TD*%
%TA.AperFunction,Profile*%
%ADD11C,0.120000*%
%TD*%
G04 APERTURE END LIST*
D10*
X163525200Y-94386400D02*
X189087237Y-94376747D01*
X189087237Y-94376747D02*
G75*
G02*
X190144636Y-95447430I-141J-1057621D01*
G01*
X194141400Y-90855800D02*
G75*
G02*
X198180000Y-94894400I0J-4038600D01*
G01*
X198180000Y-104555000D02*
X198180000Y-94894400D01*
X161161639Y-91220103D02*
G75*
G02*
X161953425Y-90871600I766386J-667497D01*
G01*
X162737800Y-94691200D02*
G75*
G02*
X163525200Y-94386400I714226J-675625D01*
G01*
X150239775Y-97853786D02*
X159178775Y-97850400D01*
X158546800Y-93776799D02*
G75*
G02*
X157755014Y-94125302I-766386J667497D01*
G01*
X159970561Y-97501898D02*
X162737800Y-94691200D01*
X158546800Y-93776800D02*
X161161639Y-91220102D01*
X194141400Y-90855800D02*
X161953425Y-90871600D01*
X146206200Y-93395659D02*
X146202400Y-93840659D01*
X190180000Y-104555000D02*
X190144636Y-95447430D01*
X159970561Y-97501897D02*
G75*
G02*
X159178775Y-97850400I-766386J667497D01*
G01*
X153227693Y-94099719D02*
G75*
G02*
X152206200Y-93395659I-8806J1080276D01*
G01*
X150239775Y-97853785D02*
G75*
G02*
X146202400Y-93840659I-24177J4013125D01*
G01*
X153227693Y-94099720D02*
X157755014Y-94125302D01*
D11*
%TO.C,J2*%
X152206200Y-87795659D02*
X152206200Y-90395659D01*
X146606200Y-87295659D02*
X151806200Y-87295659D01*
X146206200Y-87795659D02*
X146206200Y-90395659D01*
X152206200Y-90395659D02*
X152206200Y-93395659D01*
X146206200Y-90395659D02*
X146206200Y-93395659D01*
X152206199Y-87795658D02*
G75*
G03*
X151806200Y-87295659I-449999J50000D01*
G01*
X146206199Y-87795658D02*
G75*
G02*
X146606200Y-87295659I450000J49999D01*
G01*
%TO.C,J1*%
X198180000Y-110655000D02*
X198180000Y-104555000D01*
X190180000Y-110655000D02*
X190180000Y-104555000D01*
X190180000Y-110655000D02*
X198180000Y-110655000D01*
%TD*%
M02*
