G04 #@! TF.GenerationSoftware,KiCad,Pcbnew,(6.0.0-rc1-dev-1413-ga48e89956)*
G04 #@! TF.CreationDate,2019-11-22T20:47:01-07:00
G04 #@! TF.ProjectId,HAT_ver_6.0,4841545f-7665-4725-9f36-2e302e6b6963,6.0.4*
G04 #@! TF.SameCoordinates,Original*
G04 #@! TF.FileFunction,Soldermask,Bot*
G04 #@! TF.FilePolarity,Negative*
%FSLAX46Y46*%
G04 Gerber Fmt 4.6, Leading zero omitted, Abs format (unit mm)*
G04 Created by KiCad (PCBNEW (6.0.0-rc1-dev-1413-ga48e89956)) date Friday, November 22, 2019 at 08:47:01 PM*
%MOMM*%
%LPD*%
G04 APERTURE LIST*
%ADD10C,0.100000*%
G04 APERTURE END LIST*
D10*
G36*
X139084318Y-131471411D02*
G01*
X139156767Y-131485822D01*
X139213303Y-131509240D01*
X139293257Y-131542358D01*
X139416100Y-131624439D01*
X139520561Y-131728900D01*
X139602642Y-131851743D01*
X139659178Y-131988234D01*
X139688000Y-132133130D01*
X139688000Y-132280870D01*
X139659178Y-132425766D01*
X139602642Y-132562257D01*
X139520561Y-132685100D01*
X139416100Y-132789561D01*
X139293257Y-132871642D01*
X139213303Y-132904760D01*
X139156767Y-132928178D01*
X139084318Y-132942589D01*
X139011870Y-132957000D01*
X138864130Y-132957000D01*
X138791682Y-132942589D01*
X138719233Y-132928178D01*
X138662697Y-132904760D01*
X138582743Y-132871642D01*
X138459900Y-132789561D01*
X138355439Y-132685100D01*
X138273358Y-132562257D01*
X138216822Y-132425766D01*
X138188000Y-132280870D01*
X138188000Y-132133130D01*
X138216822Y-131988234D01*
X138273358Y-131851743D01*
X138355439Y-131728900D01*
X138459900Y-131624439D01*
X138582743Y-131542358D01*
X138662697Y-131509240D01*
X138719233Y-131485822D01*
X138791682Y-131471411D01*
X138864130Y-131457000D01*
X139011870Y-131457000D01*
X139084318Y-131471411D01*
X139084318Y-131471411D01*
G37*
G36*
X134217648Y-129788904D02*
G01*
X134217651Y-129788905D01*
X134500402Y-129874676D01*
X134500404Y-129874677D01*
X134760989Y-130013963D01*
X134989392Y-130201408D01*
X135176837Y-130429811D01*
X135316123Y-130690396D01*
X135401896Y-130973152D01*
X135430857Y-131267200D01*
X135401896Y-131561248D01*
X135401895Y-131561251D01*
X135351039Y-131728903D01*
X135316123Y-131844004D01*
X135176837Y-132104589D01*
X134989392Y-132332992D01*
X134760989Y-132520437D01*
X134682748Y-132562258D01*
X134500402Y-132659724D01*
X134270285Y-132729529D01*
X134217648Y-132745496D01*
X133997284Y-132767200D01*
X129349916Y-132767200D01*
X129129552Y-132745496D01*
X129076915Y-132729529D01*
X128846798Y-132659724D01*
X128664452Y-132562258D01*
X128586211Y-132520437D01*
X128357808Y-132332992D01*
X128170363Y-132104589D01*
X128031077Y-131844004D01*
X127996162Y-131728903D01*
X127945305Y-131561251D01*
X127945304Y-131561248D01*
X127916343Y-131267200D01*
X127945304Y-130973152D01*
X128031077Y-130690396D01*
X128170363Y-130429811D01*
X128357808Y-130201408D01*
X128586211Y-130013963D01*
X128846796Y-129874677D01*
X128846798Y-129874676D01*
X129129549Y-129788905D01*
X129129552Y-129788904D01*
X129349916Y-129767200D01*
X133997284Y-129767200D01*
X134217648Y-129788904D01*
X134217648Y-129788904D01*
G37*
G36*
X176169621Y-127537482D02*
G01*
X176282721Y-127571790D01*
X176386955Y-127627504D01*
X176478317Y-127702483D01*
X176553296Y-127793845D01*
X176609010Y-127898079D01*
X176643318Y-128011179D01*
X176654903Y-128128800D01*
X176643318Y-128246421D01*
X176609010Y-128359521D01*
X176553296Y-128463755D01*
X176478317Y-128555117D01*
X176386955Y-128630096D01*
X176282721Y-128685810D01*
X176169621Y-128720118D01*
X176081474Y-128728800D01*
X175022526Y-128728800D01*
X174934379Y-128720118D01*
X174821279Y-128685810D01*
X174717045Y-128630096D01*
X174625683Y-128555117D01*
X174550704Y-128463755D01*
X174494990Y-128359521D01*
X174460682Y-128246421D01*
X174449097Y-128128800D01*
X174460682Y-128011179D01*
X174494990Y-127898079D01*
X174550704Y-127793845D01*
X174625683Y-127702483D01*
X174717045Y-127627504D01*
X174821279Y-127571790D01*
X174934379Y-127537482D01*
X175022526Y-127528800D01*
X176081474Y-127528800D01*
X176169621Y-127537482D01*
X176169621Y-127537482D01*
G37*
G36*
X183171200Y-128272000D02*
G01*
X181471200Y-128272000D01*
X181471200Y-126572000D01*
X183171200Y-126572000D01*
X183171200Y-128272000D01*
X183171200Y-128272000D01*
G37*
G36*
X180631200Y-128272000D02*
G01*
X178931200Y-128272000D01*
X178931200Y-126572000D01*
X180631200Y-126572000D01*
X180631200Y-128272000D01*
X180631200Y-128272000D01*
G37*
G36*
X145579200Y-128272000D02*
G01*
X143879200Y-128272000D01*
X143879200Y-126572000D01*
X145579200Y-126572000D01*
X145579200Y-128272000D01*
X145579200Y-128272000D01*
G37*
G36*
X131780486Y-126470638D02*
G01*
X131841342Y-126489098D01*
X131897426Y-126519076D01*
X131946582Y-126559418D01*
X131986924Y-126608574D01*
X132016902Y-126664658D01*
X132035362Y-126725514D01*
X132042200Y-126794941D01*
X132042200Y-127782659D01*
X132035362Y-127852086D01*
X132016902Y-127912942D01*
X131986924Y-127969026D01*
X131946582Y-128018182D01*
X131897426Y-128058524D01*
X131841342Y-128088502D01*
X131780486Y-128106962D01*
X131711059Y-128113800D01*
X130823341Y-128113800D01*
X130753914Y-128106962D01*
X130693058Y-128088502D01*
X130636974Y-128058524D01*
X130587818Y-128018182D01*
X130547476Y-127969026D01*
X130517498Y-127912942D01*
X130499038Y-127852086D01*
X130492200Y-127782659D01*
X130492200Y-126794941D01*
X130499038Y-126725514D01*
X130517498Y-126664658D01*
X130547476Y-126608574D01*
X130587818Y-126559418D01*
X130636974Y-126519076D01*
X130693058Y-126489098D01*
X130753914Y-126470638D01*
X130823341Y-126463800D01*
X131711059Y-126463800D01*
X131780486Y-126470638D01*
X131780486Y-126470638D01*
G37*
G36*
X149169621Y-126887482D02*
G01*
X149282721Y-126921790D01*
X149386955Y-126977504D01*
X149478317Y-127052483D01*
X149553296Y-127143845D01*
X149609010Y-127248079D01*
X149643318Y-127361179D01*
X149654903Y-127478800D01*
X149643318Y-127596421D01*
X149609010Y-127709521D01*
X149553296Y-127813755D01*
X149478317Y-127905117D01*
X149386955Y-127980096D01*
X149282721Y-128035810D01*
X149169621Y-128070118D01*
X149081474Y-128078800D01*
X148022526Y-128078800D01*
X147934379Y-128070118D01*
X147821279Y-128035810D01*
X147717045Y-127980096D01*
X147625683Y-127905117D01*
X147550704Y-127813755D01*
X147494990Y-127709521D01*
X147460682Y-127596421D01*
X147449097Y-127478800D01*
X147460682Y-127361179D01*
X147494990Y-127248079D01*
X147550704Y-127143845D01*
X147625683Y-127052483D01*
X147717045Y-126977504D01*
X147821279Y-126921790D01*
X147934379Y-126887482D01*
X148022526Y-126878800D01*
X149081474Y-126878800D01*
X149169621Y-126887482D01*
X149169621Y-126887482D01*
G37*
G36*
X167124793Y-126678800D02*
G01*
X165852000Y-127951593D01*
X164579207Y-126678800D01*
X165852000Y-125406007D01*
X167124793Y-126678800D01*
X167124793Y-126678800D01*
G37*
G36*
X153434306Y-126198627D02*
G01*
X153485867Y-126208883D01*
X153624542Y-126266324D01*
X153749350Y-126349718D01*
X153855482Y-126455850D01*
X153855484Y-126455853D01*
X153938876Y-126580658D01*
X153989556Y-126703010D01*
X153996317Y-126719334D01*
X154025600Y-126866548D01*
X154025600Y-127016652D01*
X154018472Y-127052484D01*
X153996317Y-127163867D01*
X153964327Y-127241098D01*
X153938876Y-127302542D01*
X153855482Y-127427350D01*
X153749350Y-127533482D01*
X153655158Y-127596419D01*
X153624542Y-127616876D01*
X153485867Y-127674317D01*
X153436795Y-127684078D01*
X153338652Y-127703600D01*
X153188548Y-127703600D01*
X153090405Y-127684078D01*
X153041333Y-127674317D01*
X152902658Y-127616876D01*
X152872042Y-127596419D01*
X152777850Y-127533482D01*
X152671718Y-127427350D01*
X152588324Y-127302542D01*
X152562873Y-127241098D01*
X152530883Y-127163867D01*
X152508728Y-127052484D01*
X152501600Y-127016652D01*
X152501600Y-126866548D01*
X152530883Y-126719334D01*
X152537645Y-126703010D01*
X152588324Y-126580658D01*
X152671716Y-126455853D01*
X152671718Y-126455850D01*
X152777850Y-126349718D01*
X152902658Y-126266324D01*
X153041333Y-126208883D01*
X153092894Y-126198627D01*
X153188548Y-126179600D01*
X153338652Y-126179600D01*
X153434306Y-126198627D01*
X153434306Y-126198627D01*
G37*
G36*
X151434306Y-126198627D02*
G01*
X151485867Y-126208883D01*
X151624542Y-126266324D01*
X151749350Y-126349718D01*
X151855482Y-126455850D01*
X151855484Y-126455853D01*
X151938876Y-126580658D01*
X151989556Y-126703010D01*
X151996317Y-126719334D01*
X152025600Y-126866548D01*
X152025600Y-127016652D01*
X152018472Y-127052484D01*
X151996317Y-127163867D01*
X151964327Y-127241098D01*
X151938876Y-127302542D01*
X151855482Y-127427350D01*
X151749350Y-127533482D01*
X151655158Y-127596419D01*
X151624542Y-127616876D01*
X151485867Y-127674317D01*
X151436795Y-127684078D01*
X151338652Y-127703600D01*
X151188548Y-127703600D01*
X151090405Y-127684078D01*
X151041333Y-127674317D01*
X150902658Y-127616876D01*
X150872042Y-127596419D01*
X150777850Y-127533482D01*
X150671718Y-127427350D01*
X150588324Y-127302542D01*
X150562873Y-127241098D01*
X150530883Y-127163867D01*
X150508728Y-127052484D01*
X150501600Y-127016652D01*
X150501600Y-126866548D01*
X150530883Y-126719334D01*
X150537645Y-126703010D01*
X150588324Y-126580658D01*
X150671716Y-126455853D01*
X150671718Y-126455850D01*
X150777850Y-126349718D01*
X150902658Y-126266324D01*
X151041333Y-126208883D01*
X151092894Y-126198627D01*
X151188548Y-126179600D01*
X151338652Y-126179600D01*
X151434306Y-126198627D01*
X151434306Y-126198627D01*
G37*
G36*
X134060315Y-125995673D02*
G01*
X134112880Y-126011618D01*
X134149857Y-126022835D01*
X134232368Y-126066938D01*
X134232369Y-126066939D01*
X134232373Y-126066941D01*
X134304701Y-126126299D01*
X134304702Y-126126301D01*
X134304704Y-126126302D01*
X134364060Y-126198627D01*
X134408165Y-126281142D01*
X134419382Y-126318119D01*
X134435327Y-126370684D01*
X134442200Y-126440468D01*
X134442200Y-126787132D01*
X134435327Y-126856916D01*
X134426055Y-126887482D01*
X134408165Y-126946458D01*
X134364060Y-127028973D01*
X134304701Y-127101301D01*
X134232373Y-127160660D01*
X134149858Y-127204765D01*
X134112881Y-127215982D01*
X134060316Y-127231927D01*
X133967200Y-127241098D01*
X133874085Y-127231927D01*
X133821520Y-127215982D01*
X133784543Y-127204765D01*
X133702028Y-127160660D01*
X133629700Y-127101301D01*
X133570342Y-127028974D01*
X133526234Y-126946455D01*
X133499073Y-126856915D01*
X133492200Y-126787133D01*
X133492200Y-126440468D01*
X133499073Y-126370686D01*
X133499074Y-126370684D01*
X133526234Y-126281147D01*
X133526235Y-126281143D01*
X133570338Y-126198632D01*
X133570339Y-126198631D01*
X133570341Y-126198627D01*
X133629699Y-126126299D01*
X133629701Y-126126298D01*
X133629702Y-126126296D01*
X133702027Y-126066940D01*
X133784542Y-126022835D01*
X133821519Y-126011618D01*
X133874084Y-125995673D01*
X133967200Y-125986502D01*
X134060315Y-125995673D01*
X134060315Y-125995673D01*
G37*
G36*
X149169621Y-124887482D02*
G01*
X149282721Y-124921790D01*
X149386955Y-124977504D01*
X149478317Y-125052483D01*
X149553296Y-125143845D01*
X149609010Y-125248079D01*
X149643318Y-125361179D01*
X149654903Y-125478800D01*
X149643318Y-125596421D01*
X149609010Y-125709521D01*
X149553296Y-125813755D01*
X149478317Y-125905117D01*
X149386955Y-125980096D01*
X149282721Y-126035810D01*
X149169621Y-126070118D01*
X149081474Y-126078800D01*
X148022526Y-126078800D01*
X147934379Y-126070118D01*
X147821279Y-126035810D01*
X147717045Y-125980096D01*
X147625683Y-125905117D01*
X147550704Y-125813755D01*
X147494990Y-125709521D01*
X147460682Y-125596421D01*
X147449097Y-125478800D01*
X147460682Y-125361179D01*
X147494990Y-125248079D01*
X147550704Y-125143845D01*
X147625683Y-125052483D01*
X147717045Y-124977504D01*
X147821279Y-124921790D01*
X147934379Y-124887482D01*
X148022526Y-124878800D01*
X149081474Y-124878800D01*
X149169621Y-124887482D01*
X149169621Y-124887482D01*
G37*
G36*
X182487830Y-124044299D02*
G01*
X182648055Y-124092903D01*
X182795720Y-124171831D01*
X182925149Y-124278051D01*
X183031369Y-124407480D01*
X183110297Y-124555145D01*
X183158901Y-124715370D01*
X183175312Y-124882000D01*
X183158901Y-125048630D01*
X183110297Y-125208855D01*
X183031369Y-125356520D01*
X182925149Y-125485949D01*
X182795720Y-125592169D01*
X182648055Y-125671097D01*
X182487830Y-125719701D01*
X182362952Y-125732000D01*
X182279448Y-125732000D01*
X182154570Y-125719701D01*
X181994345Y-125671097D01*
X181846680Y-125592169D01*
X181717251Y-125485949D01*
X181611031Y-125356520D01*
X181532103Y-125208855D01*
X181483499Y-125048630D01*
X181467088Y-124882000D01*
X181483499Y-124715370D01*
X181532103Y-124555145D01*
X181611031Y-124407480D01*
X181717251Y-124278051D01*
X181846680Y-124171831D01*
X181994345Y-124092903D01*
X182154570Y-124044299D01*
X182279448Y-124032000D01*
X182362952Y-124032000D01*
X182487830Y-124044299D01*
X182487830Y-124044299D01*
G37*
G36*
X144895830Y-124044299D02*
G01*
X145056055Y-124092903D01*
X145203720Y-124171831D01*
X145333149Y-124278051D01*
X145439369Y-124407480D01*
X145518297Y-124555145D01*
X145566901Y-124715370D01*
X145583312Y-124882000D01*
X145566901Y-125048630D01*
X145518297Y-125208855D01*
X145439369Y-125356520D01*
X145333149Y-125485949D01*
X145203720Y-125592169D01*
X145056055Y-125671097D01*
X144895830Y-125719701D01*
X144770952Y-125732000D01*
X144687448Y-125732000D01*
X144562570Y-125719701D01*
X144402345Y-125671097D01*
X144254680Y-125592169D01*
X144125251Y-125485949D01*
X144019031Y-125356520D01*
X143940103Y-125208855D01*
X143891499Y-125048630D01*
X143875088Y-124882000D01*
X143891499Y-124715370D01*
X143940103Y-124555145D01*
X144019031Y-124407480D01*
X144125251Y-124278051D01*
X144254680Y-124171831D01*
X144402345Y-124092903D01*
X144562570Y-124044299D01*
X144687448Y-124032000D01*
X144770952Y-124032000D01*
X144895830Y-124044299D01*
X144895830Y-124044299D01*
G37*
G36*
X179947830Y-124044299D02*
G01*
X180108055Y-124092903D01*
X180255720Y-124171831D01*
X180385149Y-124278051D01*
X180491369Y-124407480D01*
X180570297Y-124555145D01*
X180618901Y-124715370D01*
X180635312Y-124882000D01*
X180618901Y-125048630D01*
X180570297Y-125208855D01*
X180491369Y-125356520D01*
X180385149Y-125485949D01*
X180255720Y-125592169D01*
X180108055Y-125671097D01*
X179947830Y-125719701D01*
X179822952Y-125732000D01*
X179739448Y-125732000D01*
X179614570Y-125719701D01*
X179454345Y-125671097D01*
X179306680Y-125592169D01*
X179177251Y-125485949D01*
X179071031Y-125356520D01*
X178992103Y-125208855D01*
X178943499Y-125048630D01*
X178927088Y-124882000D01*
X178943499Y-124715370D01*
X178992103Y-124555145D01*
X179071031Y-124407480D01*
X179177251Y-124278051D01*
X179306680Y-124171831D01*
X179454345Y-124092903D01*
X179614570Y-124044299D01*
X179739448Y-124032000D01*
X179822952Y-124032000D01*
X179947830Y-124044299D01*
X179947830Y-124044299D01*
G37*
G36*
X176169621Y-124537482D02*
G01*
X176282721Y-124571790D01*
X176386955Y-124627504D01*
X176478317Y-124702483D01*
X176553296Y-124793845D01*
X176609010Y-124898079D01*
X176643318Y-125011179D01*
X176654903Y-125128800D01*
X176643318Y-125246421D01*
X176609010Y-125359521D01*
X176553296Y-125463755D01*
X176478317Y-125555117D01*
X176386955Y-125630096D01*
X176282721Y-125685810D01*
X176169621Y-125720118D01*
X176081474Y-125728800D01*
X175022526Y-125728800D01*
X174934379Y-125720118D01*
X174821279Y-125685810D01*
X174717045Y-125630096D01*
X174625683Y-125555117D01*
X174550704Y-125463755D01*
X174494990Y-125359521D01*
X174460682Y-125246421D01*
X174449097Y-125128800D01*
X174460682Y-125011179D01*
X174494990Y-124898079D01*
X174550704Y-124793845D01*
X174625683Y-124702483D01*
X174717045Y-124627504D01*
X174821279Y-124571790D01*
X174934379Y-124537482D01*
X175022526Y-124528800D01*
X176081474Y-124528800D01*
X176169621Y-124537482D01*
X176169621Y-124537482D01*
G37*
G36*
X151436795Y-124199122D02*
G01*
X151485867Y-124208883D01*
X151624542Y-124266324D01*
X151749350Y-124349718D01*
X151855482Y-124455850D01*
X151855484Y-124455853D01*
X151938876Y-124580658D01*
X151994676Y-124715371D01*
X151996317Y-124719334D01*
X152025600Y-124866548D01*
X152025600Y-125016652D01*
X152018472Y-125052484D01*
X152000300Y-125143845D01*
X151996317Y-125163866D01*
X151938876Y-125302542D01*
X151855482Y-125427350D01*
X151749350Y-125533482D01*
X151749347Y-125533484D01*
X151624542Y-125616876D01*
X151485867Y-125674317D01*
X151436795Y-125684078D01*
X151338652Y-125703600D01*
X151188548Y-125703600D01*
X151090405Y-125684078D01*
X151041333Y-125674317D01*
X150902658Y-125616876D01*
X150777853Y-125533484D01*
X150777850Y-125533482D01*
X150671718Y-125427350D01*
X150588324Y-125302542D01*
X150530883Y-125163866D01*
X150526901Y-125143845D01*
X150508728Y-125052484D01*
X150501600Y-125016652D01*
X150501600Y-124866548D01*
X150530883Y-124719334D01*
X150532525Y-124715371D01*
X150588324Y-124580658D01*
X150671716Y-124455853D01*
X150671718Y-124455850D01*
X150777850Y-124349718D01*
X150902658Y-124266324D01*
X151041333Y-124208883D01*
X151090405Y-124199122D01*
X151188548Y-124179600D01*
X151338652Y-124179600D01*
X151436795Y-124199122D01*
X151436795Y-124199122D01*
G37*
G36*
X153436795Y-124199122D02*
G01*
X153485867Y-124208883D01*
X153624542Y-124266324D01*
X153749350Y-124349718D01*
X153855482Y-124455850D01*
X153855484Y-124455853D01*
X153938876Y-124580658D01*
X153994676Y-124715371D01*
X153996317Y-124719334D01*
X154025600Y-124866548D01*
X154025600Y-125016652D01*
X154018472Y-125052484D01*
X154000300Y-125143845D01*
X153996317Y-125163866D01*
X153938876Y-125302542D01*
X153855482Y-125427350D01*
X153749350Y-125533482D01*
X153749347Y-125533484D01*
X153624542Y-125616876D01*
X153485867Y-125674317D01*
X153436795Y-125684078D01*
X153338652Y-125703600D01*
X153188548Y-125703600D01*
X153090405Y-125684078D01*
X153041333Y-125674317D01*
X152902658Y-125616876D01*
X152777853Y-125533484D01*
X152777850Y-125533482D01*
X152671718Y-125427350D01*
X152588324Y-125302542D01*
X152530883Y-125163866D01*
X152526901Y-125143845D01*
X152508728Y-125052484D01*
X152501600Y-125016652D01*
X152501600Y-124866548D01*
X152530883Y-124719334D01*
X152532525Y-124715371D01*
X152588324Y-124580658D01*
X152671716Y-124455853D01*
X152671718Y-124455850D01*
X152777850Y-124349718D01*
X152902658Y-124266324D01*
X153041333Y-124208883D01*
X153090405Y-124199122D01*
X153188548Y-124179600D01*
X153338652Y-124179600D01*
X153436795Y-124199122D01*
X153436795Y-124199122D01*
G37*
G36*
X149169621Y-122887482D02*
G01*
X149282721Y-122921790D01*
X149386955Y-122977504D01*
X149478317Y-123052483D01*
X149553296Y-123143845D01*
X149609010Y-123248079D01*
X149643318Y-123361179D01*
X149654903Y-123478800D01*
X149643318Y-123596421D01*
X149609010Y-123709521D01*
X149553296Y-123813755D01*
X149478317Y-123905117D01*
X149386955Y-123980096D01*
X149282721Y-124035810D01*
X149169621Y-124070118D01*
X149081474Y-124078800D01*
X148022526Y-124078800D01*
X147934379Y-124070118D01*
X147821279Y-124035810D01*
X147717045Y-123980096D01*
X147625683Y-123905117D01*
X147550704Y-123813755D01*
X147494990Y-123709521D01*
X147460682Y-123596421D01*
X147449097Y-123478800D01*
X147460682Y-123361179D01*
X147494990Y-123248079D01*
X147550704Y-123143845D01*
X147625683Y-123052483D01*
X147717045Y-122977504D01*
X147821279Y-122921790D01*
X147934379Y-122887482D01*
X148022526Y-122878800D01*
X149081474Y-122878800D01*
X149169621Y-122887482D01*
X149169621Y-122887482D01*
G37*
G36*
X151436795Y-122199122D02*
G01*
X151485867Y-122208883D01*
X151541500Y-122231927D01*
X151624542Y-122266324D01*
X151749350Y-122349718D01*
X151855482Y-122455850D01*
X151938876Y-122580658D01*
X151996317Y-122719334D01*
X152025600Y-122866548D01*
X152025600Y-123016652D01*
X152018472Y-123052484D01*
X151996317Y-123163867D01*
X151989758Y-123179701D01*
X151938876Y-123302542D01*
X151855482Y-123427350D01*
X151749350Y-123533482D01*
X151749347Y-123533484D01*
X151624542Y-123616876D01*
X151485867Y-123674317D01*
X151436795Y-123684078D01*
X151338652Y-123703600D01*
X151188548Y-123703600D01*
X151090405Y-123684078D01*
X151041333Y-123674317D01*
X150902658Y-123616876D01*
X150777853Y-123533484D01*
X150777850Y-123533482D01*
X150671718Y-123427350D01*
X150588324Y-123302542D01*
X150537442Y-123179701D01*
X150530883Y-123163867D01*
X150508728Y-123052484D01*
X150501600Y-123016652D01*
X150501600Y-122866548D01*
X150530883Y-122719334D01*
X150588324Y-122580658D01*
X150671718Y-122455850D01*
X150777850Y-122349718D01*
X150902658Y-122266324D01*
X150985700Y-122231927D01*
X151041333Y-122208883D01*
X151090405Y-122199122D01*
X151188548Y-122179600D01*
X151338652Y-122179600D01*
X151436795Y-122199122D01*
X151436795Y-122199122D01*
G37*
G36*
X153436795Y-122199122D02*
G01*
X153485867Y-122208883D01*
X153541500Y-122231927D01*
X153624542Y-122266324D01*
X153749350Y-122349718D01*
X153855482Y-122455850D01*
X153938876Y-122580658D01*
X153996317Y-122719334D01*
X154025600Y-122866548D01*
X154025600Y-123016652D01*
X154018472Y-123052484D01*
X153996317Y-123163867D01*
X153989758Y-123179701D01*
X153938876Y-123302542D01*
X153855482Y-123427350D01*
X153749350Y-123533482D01*
X153749347Y-123533484D01*
X153624542Y-123616876D01*
X153485867Y-123674317D01*
X153436795Y-123684078D01*
X153338652Y-123703600D01*
X153188548Y-123703600D01*
X153090405Y-123684078D01*
X153041333Y-123674317D01*
X152902658Y-123616876D01*
X152777853Y-123533484D01*
X152777850Y-123533482D01*
X152671718Y-123427350D01*
X152588324Y-123302542D01*
X152537442Y-123179701D01*
X152530883Y-123163867D01*
X152508728Y-123052484D01*
X152501600Y-123016652D01*
X152501600Y-122866548D01*
X152530883Y-122719334D01*
X152588324Y-122580658D01*
X152671718Y-122455850D01*
X152777850Y-122349718D01*
X152902658Y-122266324D01*
X152985700Y-122231927D01*
X153041333Y-122208883D01*
X153090405Y-122199122D01*
X153188548Y-122179600D01*
X153338652Y-122179600D01*
X153436795Y-122199122D01*
X153436795Y-122199122D01*
G37*
G36*
X161252000Y-123378800D02*
G01*
X154852000Y-123378800D01*
X154852000Y-116978800D01*
X161252000Y-116978800D01*
X161252000Y-123378800D01*
X161252000Y-123378800D01*
G37*
G36*
X182487830Y-121504299D02*
G01*
X182648055Y-121552903D01*
X182795720Y-121631831D01*
X182925149Y-121738051D01*
X183031369Y-121867480D01*
X183110297Y-122015145D01*
X183158901Y-122175370D01*
X183175312Y-122342000D01*
X183158901Y-122508630D01*
X183110297Y-122668855D01*
X183031369Y-122816520D01*
X182925149Y-122945949D01*
X182795720Y-123052169D01*
X182648055Y-123131097D01*
X182487830Y-123179701D01*
X182362952Y-123192000D01*
X182279448Y-123192000D01*
X182154570Y-123179701D01*
X181994345Y-123131097D01*
X181846680Y-123052169D01*
X181717251Y-122945949D01*
X181611031Y-122816520D01*
X181532103Y-122668855D01*
X181483499Y-122508630D01*
X181467088Y-122342000D01*
X181483499Y-122175370D01*
X181532103Y-122015145D01*
X181611031Y-121867480D01*
X181717251Y-121738051D01*
X181846680Y-121631831D01*
X181994345Y-121552903D01*
X182154570Y-121504299D01*
X182279448Y-121492000D01*
X182362952Y-121492000D01*
X182487830Y-121504299D01*
X182487830Y-121504299D01*
G37*
G36*
X179947830Y-121504299D02*
G01*
X180108055Y-121552903D01*
X180255720Y-121631831D01*
X180385149Y-121738051D01*
X180491369Y-121867480D01*
X180570297Y-122015145D01*
X180618901Y-122175370D01*
X180635312Y-122342000D01*
X180618901Y-122508630D01*
X180570297Y-122668855D01*
X180491369Y-122816520D01*
X180385149Y-122945949D01*
X180255720Y-123052169D01*
X180108055Y-123131097D01*
X179947830Y-123179701D01*
X179822952Y-123192000D01*
X179739448Y-123192000D01*
X179614570Y-123179701D01*
X179454345Y-123131097D01*
X179306680Y-123052169D01*
X179177251Y-122945949D01*
X179071031Y-122816520D01*
X178992103Y-122668855D01*
X178943499Y-122508630D01*
X178927088Y-122342000D01*
X178943499Y-122175370D01*
X178992103Y-122015145D01*
X179071031Y-121867480D01*
X179177251Y-121738051D01*
X179306680Y-121631831D01*
X179454345Y-121552903D01*
X179614570Y-121504299D01*
X179739448Y-121492000D01*
X179822952Y-121492000D01*
X179947830Y-121504299D01*
X179947830Y-121504299D01*
G37*
G36*
X144895830Y-121504299D02*
G01*
X145056055Y-121552903D01*
X145203720Y-121631831D01*
X145333149Y-121738051D01*
X145439369Y-121867480D01*
X145518297Y-122015145D01*
X145566901Y-122175370D01*
X145583312Y-122342000D01*
X145566901Y-122508630D01*
X145518297Y-122668855D01*
X145439369Y-122816520D01*
X145333149Y-122945949D01*
X145203720Y-123052169D01*
X145056055Y-123131097D01*
X144895830Y-123179701D01*
X144770952Y-123192000D01*
X144687448Y-123192000D01*
X144562570Y-123179701D01*
X144402345Y-123131097D01*
X144254680Y-123052169D01*
X144125251Y-122945949D01*
X144019031Y-122816520D01*
X143940103Y-122668855D01*
X143891499Y-122508630D01*
X143875088Y-122342000D01*
X143891499Y-122175370D01*
X143940103Y-122015145D01*
X144019031Y-121867480D01*
X144125251Y-121738051D01*
X144254680Y-121631831D01*
X144402345Y-121552903D01*
X144562570Y-121504299D01*
X144687448Y-121492000D01*
X144770952Y-121492000D01*
X144895830Y-121504299D01*
X144895830Y-121504299D01*
G37*
G36*
X134060315Y-120995673D02*
G01*
X134112880Y-121011618D01*
X134149857Y-121022835D01*
X134232368Y-121066938D01*
X134232369Y-121066939D01*
X134232373Y-121066941D01*
X134304701Y-121126299D01*
X134304702Y-121126301D01*
X134304704Y-121126302D01*
X134364060Y-121198627D01*
X134408165Y-121281142D01*
X134414656Y-121302542D01*
X134432444Y-121361179D01*
X134435327Y-121370685D01*
X134442200Y-121440467D01*
X134442200Y-121787132D01*
X134435327Y-121856915D01*
X134408165Y-121946458D01*
X134364060Y-122028973D01*
X134304701Y-122101301D01*
X134232373Y-122160660D01*
X134149858Y-122204765D01*
X134136282Y-122208883D01*
X134060316Y-122231927D01*
X133967200Y-122241098D01*
X133874085Y-122231927D01*
X133798119Y-122208883D01*
X133784543Y-122204765D01*
X133702028Y-122160660D01*
X133629700Y-122101301D01*
X133570342Y-122028974D01*
X133526234Y-121946455D01*
X133499073Y-121856915D01*
X133492200Y-121787133D01*
X133492200Y-121440468D01*
X133499073Y-121370686D01*
X133499074Y-121370684D01*
X133526234Y-121281147D01*
X133526235Y-121281143D01*
X133570338Y-121198632D01*
X133570339Y-121198631D01*
X133570341Y-121198627D01*
X133629699Y-121126299D01*
X133629701Y-121126298D01*
X133629702Y-121126296D01*
X133702027Y-121066940D01*
X133784542Y-121022835D01*
X133821519Y-121011618D01*
X133874084Y-120995673D01*
X133967200Y-120986502D01*
X134060315Y-120995673D01*
X134060315Y-120995673D01*
G37*
G36*
X149169621Y-120887482D02*
G01*
X149282721Y-120921790D01*
X149386955Y-120977504D01*
X149478317Y-121052483D01*
X149553296Y-121143845D01*
X149609010Y-121248079D01*
X149643318Y-121361179D01*
X149654903Y-121478800D01*
X149643318Y-121596421D01*
X149609010Y-121709521D01*
X149553296Y-121813755D01*
X149478317Y-121905117D01*
X149386955Y-121980096D01*
X149282721Y-122035810D01*
X149169621Y-122070118D01*
X149081474Y-122078800D01*
X148022526Y-122078800D01*
X147934379Y-122070118D01*
X147821279Y-122035810D01*
X147717045Y-121980096D01*
X147625683Y-121905117D01*
X147550704Y-121813755D01*
X147494990Y-121709521D01*
X147460682Y-121596421D01*
X147449097Y-121478800D01*
X147460682Y-121361179D01*
X147494990Y-121248079D01*
X147550704Y-121143845D01*
X147625683Y-121052483D01*
X147717045Y-120977504D01*
X147821279Y-120921790D01*
X147934379Y-120887482D01*
X148022526Y-120878800D01*
X149081474Y-120878800D01*
X149169621Y-120887482D01*
X149169621Y-120887482D01*
G37*
G36*
X131780486Y-120120638D02*
G01*
X131841342Y-120139098D01*
X131897426Y-120169076D01*
X131946582Y-120209418D01*
X131986924Y-120258574D01*
X132016902Y-120314658D01*
X132035362Y-120375514D01*
X132042200Y-120444941D01*
X132042200Y-121432659D01*
X132035362Y-121502086D01*
X132016902Y-121562942D01*
X131986924Y-121619026D01*
X131946582Y-121668182D01*
X131897426Y-121708524D01*
X131841342Y-121738502D01*
X131780486Y-121756962D01*
X131711059Y-121763800D01*
X130823341Y-121763800D01*
X130753914Y-121756962D01*
X130693058Y-121738502D01*
X130636974Y-121708524D01*
X130587818Y-121668182D01*
X130547476Y-121619026D01*
X130517498Y-121562942D01*
X130499038Y-121502086D01*
X130492200Y-121432659D01*
X130492200Y-120444941D01*
X130499038Y-120375514D01*
X130517498Y-120314658D01*
X130547476Y-120258574D01*
X130587818Y-120209418D01*
X130636974Y-120169076D01*
X130693058Y-120139098D01*
X130753914Y-120120638D01*
X130823341Y-120113800D01*
X131711059Y-120113800D01*
X131780486Y-120120638D01*
X131780486Y-120120638D01*
G37*
G36*
X153436795Y-120199122D02*
G01*
X153485867Y-120208883D01*
X153597483Y-120255116D01*
X153624542Y-120266324D01*
X153749350Y-120349718D01*
X153855482Y-120455850D01*
X153938876Y-120580658D01*
X153996317Y-120719334D01*
X154025600Y-120866548D01*
X154025600Y-121016652D01*
X154018472Y-121052484D01*
X153996317Y-121163867D01*
X153947738Y-121281147D01*
X153938876Y-121302542D01*
X153855482Y-121427350D01*
X153749350Y-121533482D01*
X153749347Y-121533484D01*
X153624542Y-121616876D01*
X153485867Y-121674317D01*
X153436795Y-121684078D01*
X153338652Y-121703600D01*
X153188548Y-121703600D01*
X153090405Y-121684078D01*
X153041333Y-121674317D01*
X152902658Y-121616876D01*
X152777853Y-121533484D01*
X152777850Y-121533482D01*
X152671718Y-121427350D01*
X152588324Y-121302542D01*
X152579462Y-121281147D01*
X152530883Y-121163867D01*
X152508728Y-121052484D01*
X152501600Y-121016652D01*
X152501600Y-120866548D01*
X152530883Y-120719334D01*
X152588324Y-120580658D01*
X152671718Y-120455850D01*
X152777850Y-120349718D01*
X152902658Y-120266324D01*
X152929717Y-120255116D01*
X153041333Y-120208883D01*
X153090405Y-120199122D01*
X153188548Y-120179600D01*
X153338652Y-120179600D01*
X153436795Y-120199122D01*
X153436795Y-120199122D01*
G37*
G36*
X151436795Y-120199122D02*
G01*
X151485867Y-120208883D01*
X151597483Y-120255116D01*
X151624542Y-120266324D01*
X151749350Y-120349718D01*
X151855482Y-120455850D01*
X151938876Y-120580658D01*
X151996317Y-120719334D01*
X152025600Y-120866548D01*
X152025600Y-121016652D01*
X152018472Y-121052484D01*
X151996317Y-121163867D01*
X151947738Y-121281147D01*
X151938876Y-121302542D01*
X151855482Y-121427350D01*
X151749350Y-121533482D01*
X151749347Y-121533484D01*
X151624542Y-121616876D01*
X151485867Y-121674317D01*
X151436795Y-121684078D01*
X151338652Y-121703600D01*
X151188548Y-121703600D01*
X151090405Y-121684078D01*
X151041333Y-121674317D01*
X150902658Y-121616876D01*
X150777853Y-121533484D01*
X150777850Y-121533482D01*
X150671718Y-121427350D01*
X150588324Y-121302542D01*
X150579462Y-121281147D01*
X150530883Y-121163867D01*
X150508728Y-121052484D01*
X150501600Y-121016652D01*
X150501600Y-120866548D01*
X150530883Y-120719334D01*
X150588324Y-120580658D01*
X150671718Y-120455850D01*
X150777850Y-120349718D01*
X150902658Y-120266324D01*
X150929717Y-120255116D01*
X151041333Y-120208883D01*
X151090405Y-120199122D01*
X151188548Y-120179600D01*
X151338652Y-120179600D01*
X151436795Y-120199122D01*
X151436795Y-120199122D01*
G37*
G36*
X182487830Y-118964299D02*
G01*
X182648055Y-119012903D01*
X182795720Y-119091831D01*
X182925149Y-119198051D01*
X183031369Y-119327480D01*
X183110297Y-119475145D01*
X183158901Y-119635370D01*
X183175312Y-119802000D01*
X183158901Y-119968630D01*
X183110297Y-120128855D01*
X183031369Y-120276520D01*
X182925149Y-120405949D01*
X182795720Y-120512169D01*
X182648055Y-120591097D01*
X182487830Y-120639701D01*
X182362952Y-120652000D01*
X182279448Y-120652000D01*
X182154570Y-120639701D01*
X181994345Y-120591097D01*
X181846680Y-120512169D01*
X181717251Y-120405949D01*
X181611031Y-120276520D01*
X181532103Y-120128855D01*
X181483499Y-119968630D01*
X181467088Y-119802000D01*
X181483499Y-119635370D01*
X181532103Y-119475145D01*
X181611031Y-119327480D01*
X181717251Y-119198051D01*
X181846680Y-119091831D01*
X181994345Y-119012903D01*
X182154570Y-118964299D01*
X182279448Y-118952000D01*
X182362952Y-118952000D01*
X182487830Y-118964299D01*
X182487830Y-118964299D01*
G37*
G36*
X179947830Y-118964299D02*
G01*
X180108055Y-119012903D01*
X180255720Y-119091831D01*
X180385149Y-119198051D01*
X180491369Y-119327480D01*
X180570297Y-119475145D01*
X180618901Y-119635370D01*
X180635312Y-119802000D01*
X180618901Y-119968630D01*
X180570297Y-120128855D01*
X180491369Y-120276520D01*
X180385149Y-120405949D01*
X180255720Y-120512169D01*
X180108055Y-120591097D01*
X179947830Y-120639701D01*
X179822952Y-120652000D01*
X179739448Y-120652000D01*
X179614570Y-120639701D01*
X179454345Y-120591097D01*
X179306680Y-120512169D01*
X179177251Y-120405949D01*
X179071031Y-120276520D01*
X178992103Y-120128855D01*
X178943499Y-119968630D01*
X178927088Y-119802000D01*
X178943499Y-119635370D01*
X178992103Y-119475145D01*
X179071031Y-119327480D01*
X179177251Y-119198051D01*
X179306680Y-119091831D01*
X179454345Y-119012903D01*
X179614570Y-118964299D01*
X179739448Y-118952000D01*
X179822952Y-118952000D01*
X179947830Y-118964299D01*
X179947830Y-118964299D01*
G37*
G36*
X144895830Y-118964299D02*
G01*
X145056055Y-119012903D01*
X145203720Y-119091831D01*
X145333149Y-119198051D01*
X145439369Y-119327480D01*
X145518297Y-119475145D01*
X145566901Y-119635370D01*
X145583312Y-119802000D01*
X145566901Y-119968630D01*
X145518297Y-120128855D01*
X145439369Y-120276520D01*
X145333149Y-120405949D01*
X145203720Y-120512169D01*
X145056055Y-120591097D01*
X144895830Y-120639701D01*
X144770952Y-120652000D01*
X144687448Y-120652000D01*
X144562570Y-120639701D01*
X144402345Y-120591097D01*
X144254680Y-120512169D01*
X144125251Y-120405949D01*
X144019031Y-120276520D01*
X143940103Y-120128855D01*
X143891499Y-119968630D01*
X143875088Y-119802000D01*
X143891499Y-119635370D01*
X143940103Y-119475145D01*
X144019031Y-119327480D01*
X144125251Y-119198051D01*
X144254680Y-119091831D01*
X144402345Y-119012903D01*
X144562570Y-118964299D01*
X144687448Y-118952000D01*
X144770952Y-118952000D01*
X144895830Y-118964299D01*
X144895830Y-118964299D01*
G37*
G36*
X176169621Y-119237482D02*
G01*
X176282721Y-119271790D01*
X176386955Y-119327504D01*
X176478317Y-119402483D01*
X176553296Y-119493845D01*
X176609010Y-119598079D01*
X176643318Y-119711179D01*
X176654903Y-119828800D01*
X176643318Y-119946421D01*
X176609010Y-120059521D01*
X176553296Y-120163755D01*
X176478317Y-120255117D01*
X176386955Y-120330096D01*
X176282721Y-120385810D01*
X176169621Y-120420118D01*
X176081474Y-120428800D01*
X175022526Y-120428800D01*
X174934379Y-120420118D01*
X174821279Y-120385810D01*
X174717045Y-120330096D01*
X174625683Y-120255117D01*
X174550704Y-120163755D01*
X174494990Y-120059521D01*
X174460682Y-119946421D01*
X174449097Y-119828800D01*
X174460682Y-119711179D01*
X174494990Y-119598079D01*
X174550704Y-119493845D01*
X174625683Y-119402483D01*
X174717045Y-119327504D01*
X174821279Y-119271790D01*
X174934379Y-119237482D01*
X175022526Y-119228800D01*
X176081474Y-119228800D01*
X176169621Y-119237482D01*
X176169621Y-119237482D01*
G37*
G36*
X149169621Y-118887482D02*
G01*
X149282721Y-118921790D01*
X149386955Y-118977504D01*
X149478317Y-119052483D01*
X149553296Y-119143845D01*
X149609010Y-119248079D01*
X149643318Y-119361179D01*
X149654903Y-119478800D01*
X149643318Y-119596421D01*
X149609010Y-119709521D01*
X149553296Y-119813755D01*
X149478317Y-119905117D01*
X149386955Y-119980096D01*
X149282721Y-120035810D01*
X149169621Y-120070118D01*
X149081474Y-120078800D01*
X148022526Y-120078800D01*
X147934379Y-120070118D01*
X147821279Y-120035810D01*
X147717045Y-119980096D01*
X147625683Y-119905117D01*
X147550704Y-119813755D01*
X147494990Y-119709521D01*
X147460682Y-119596421D01*
X147449097Y-119478800D01*
X147460682Y-119361179D01*
X147494990Y-119248079D01*
X147550704Y-119143845D01*
X147625683Y-119052483D01*
X147717045Y-118977504D01*
X147821279Y-118921790D01*
X147934379Y-118887482D01*
X148022526Y-118878800D01*
X149081474Y-118878800D01*
X149169621Y-118887482D01*
X149169621Y-118887482D01*
G37*
G36*
X168874793Y-118778800D02*
G01*
X167602000Y-120051593D01*
X166329207Y-118778800D01*
X167602000Y-117506007D01*
X168874793Y-118778800D01*
X168874793Y-118778800D01*
G37*
G36*
X153436795Y-118199122D02*
G01*
X153485867Y-118208883D01*
X153624542Y-118266324D01*
X153749350Y-118349718D01*
X153855482Y-118455850D01*
X153938876Y-118580658D01*
X153996317Y-118719334D01*
X154025600Y-118866548D01*
X154025600Y-119016652D01*
X154018472Y-119052484D01*
X153996317Y-119163867D01*
X153982157Y-119198052D01*
X153938876Y-119302542D01*
X153855482Y-119427350D01*
X153749350Y-119533482D01*
X153749347Y-119533484D01*
X153624542Y-119616876D01*
X153485867Y-119674317D01*
X153436795Y-119684078D01*
X153338652Y-119703600D01*
X153188548Y-119703600D01*
X153090405Y-119684078D01*
X153041333Y-119674317D01*
X152902658Y-119616876D01*
X152777853Y-119533484D01*
X152777850Y-119533482D01*
X152671718Y-119427350D01*
X152588324Y-119302542D01*
X152545043Y-119198052D01*
X152530883Y-119163867D01*
X152508728Y-119052484D01*
X152501600Y-119016652D01*
X152501600Y-118866548D01*
X152530883Y-118719334D01*
X152588324Y-118580658D01*
X152671718Y-118455850D01*
X152777850Y-118349718D01*
X152902658Y-118266324D01*
X153041333Y-118208883D01*
X153090405Y-118199122D01*
X153188548Y-118179600D01*
X153338652Y-118179600D01*
X153436795Y-118199122D01*
X153436795Y-118199122D01*
G37*
G36*
X151436795Y-118199122D02*
G01*
X151485867Y-118208883D01*
X151624542Y-118266324D01*
X151749350Y-118349718D01*
X151855482Y-118455850D01*
X151938876Y-118580658D01*
X151996317Y-118719334D01*
X152025600Y-118866548D01*
X152025600Y-119016652D01*
X152018472Y-119052484D01*
X151996317Y-119163867D01*
X151982157Y-119198052D01*
X151938876Y-119302542D01*
X151855482Y-119427350D01*
X151749350Y-119533482D01*
X151749347Y-119533484D01*
X151624542Y-119616876D01*
X151485867Y-119674317D01*
X151436795Y-119684078D01*
X151338652Y-119703600D01*
X151188548Y-119703600D01*
X151090405Y-119684078D01*
X151041333Y-119674317D01*
X150902658Y-119616876D01*
X150777853Y-119533484D01*
X150777850Y-119533482D01*
X150671718Y-119427350D01*
X150588324Y-119302542D01*
X150545043Y-119198052D01*
X150530883Y-119163867D01*
X150508728Y-119052484D01*
X150501600Y-119016652D01*
X150501600Y-118866548D01*
X150530883Y-118719334D01*
X150588324Y-118580658D01*
X150671718Y-118455850D01*
X150777850Y-118349718D01*
X150902658Y-118266324D01*
X151041333Y-118208883D01*
X151090405Y-118199122D01*
X151188548Y-118179600D01*
X151338652Y-118179600D01*
X151436795Y-118199122D01*
X151436795Y-118199122D01*
G37*
G36*
X179947830Y-116424299D02*
G01*
X180108055Y-116472903D01*
X180255720Y-116551831D01*
X180385149Y-116658051D01*
X180491369Y-116787480D01*
X180570297Y-116935145D01*
X180618901Y-117095370D01*
X180635312Y-117262000D01*
X180618901Y-117428630D01*
X180570297Y-117588855D01*
X180491369Y-117736520D01*
X180385149Y-117865949D01*
X180255720Y-117972169D01*
X180108055Y-118051097D01*
X179947830Y-118099701D01*
X179822952Y-118112000D01*
X179739448Y-118112000D01*
X179614570Y-118099701D01*
X179454345Y-118051097D01*
X179306680Y-117972169D01*
X179177251Y-117865949D01*
X179071031Y-117736520D01*
X178992103Y-117588855D01*
X178943499Y-117428630D01*
X178927088Y-117262000D01*
X178943499Y-117095370D01*
X178992103Y-116935145D01*
X179071031Y-116787480D01*
X179177251Y-116658051D01*
X179306680Y-116551831D01*
X179454345Y-116472903D01*
X179614570Y-116424299D01*
X179739448Y-116412000D01*
X179822952Y-116412000D01*
X179947830Y-116424299D01*
X179947830Y-116424299D01*
G37*
G36*
X144895830Y-116424299D02*
G01*
X145056055Y-116472903D01*
X145203720Y-116551831D01*
X145333149Y-116658051D01*
X145439369Y-116787480D01*
X145518297Y-116935145D01*
X145566901Y-117095370D01*
X145583312Y-117262000D01*
X145566901Y-117428630D01*
X145518297Y-117588855D01*
X145439369Y-117736520D01*
X145333149Y-117865949D01*
X145203720Y-117972169D01*
X145056055Y-118051097D01*
X144895830Y-118099701D01*
X144770952Y-118112000D01*
X144687448Y-118112000D01*
X144562570Y-118099701D01*
X144402345Y-118051097D01*
X144254680Y-117972169D01*
X144125251Y-117865949D01*
X144019031Y-117736520D01*
X143940103Y-117588855D01*
X143891499Y-117428630D01*
X143875088Y-117262000D01*
X143891499Y-117095370D01*
X143940103Y-116935145D01*
X144019031Y-116787480D01*
X144125251Y-116658051D01*
X144254680Y-116551831D01*
X144402345Y-116472903D01*
X144562570Y-116424299D01*
X144687448Y-116412000D01*
X144770952Y-116412000D01*
X144895830Y-116424299D01*
X144895830Y-116424299D01*
G37*
G36*
X182487830Y-116424299D02*
G01*
X182648055Y-116472903D01*
X182795720Y-116551831D01*
X182925149Y-116658051D01*
X183031369Y-116787480D01*
X183110297Y-116935145D01*
X183158901Y-117095370D01*
X183175312Y-117262000D01*
X183158901Y-117428630D01*
X183110297Y-117588855D01*
X183031369Y-117736520D01*
X182925149Y-117865949D01*
X182795720Y-117972169D01*
X182648055Y-118051097D01*
X182487830Y-118099701D01*
X182362952Y-118112000D01*
X182279448Y-118112000D01*
X182154570Y-118099701D01*
X181994345Y-118051097D01*
X181846680Y-117972169D01*
X181717251Y-117865949D01*
X181611031Y-117736520D01*
X181532103Y-117588855D01*
X181483499Y-117428630D01*
X181467088Y-117262000D01*
X181483499Y-117095370D01*
X181532103Y-116935145D01*
X181611031Y-116787480D01*
X181717251Y-116658051D01*
X181846680Y-116551831D01*
X181994345Y-116472903D01*
X182154570Y-116424299D01*
X182279448Y-116412000D01*
X182362952Y-116412000D01*
X182487830Y-116424299D01*
X182487830Y-116424299D01*
G37*
G36*
X149169621Y-116887482D02*
G01*
X149282721Y-116921790D01*
X149386955Y-116977504D01*
X149478317Y-117052483D01*
X149553296Y-117143845D01*
X149609010Y-117248079D01*
X149643318Y-117361179D01*
X149654903Y-117478800D01*
X149643318Y-117596421D01*
X149609010Y-117709521D01*
X149553296Y-117813755D01*
X149478317Y-117905117D01*
X149386955Y-117980096D01*
X149282721Y-118035810D01*
X149169621Y-118070118D01*
X149081474Y-118078800D01*
X148022526Y-118078800D01*
X147934379Y-118070118D01*
X147821279Y-118035810D01*
X147717045Y-117980096D01*
X147625683Y-117905117D01*
X147550704Y-117813755D01*
X147494990Y-117709521D01*
X147460682Y-117596421D01*
X147449097Y-117478800D01*
X147460682Y-117361179D01*
X147494990Y-117248079D01*
X147550704Y-117143845D01*
X147625683Y-117052483D01*
X147717045Y-116977504D01*
X147821279Y-116921790D01*
X147934379Y-116887482D01*
X148022526Y-116878800D01*
X149081474Y-116878800D01*
X149169621Y-116887482D01*
X149169621Y-116887482D01*
G37*
G36*
X153436795Y-116199122D02*
G01*
X153485867Y-116208883D01*
X153554911Y-116237482D01*
X153624542Y-116266324D01*
X153749350Y-116349718D01*
X153855482Y-116455850D01*
X153855484Y-116455853D01*
X153938876Y-116580658D01*
X153992940Y-116711179D01*
X153996317Y-116719334D01*
X154025600Y-116866548D01*
X154025600Y-117016652D01*
X154015335Y-117068257D01*
X153996317Y-117163867D01*
X153961436Y-117248078D01*
X153938876Y-117302542D01*
X153855482Y-117427350D01*
X153749350Y-117533482D01*
X153749347Y-117533484D01*
X153624542Y-117616876D01*
X153485867Y-117674317D01*
X153436795Y-117684078D01*
X153338652Y-117703600D01*
X153188548Y-117703600D01*
X153090405Y-117684078D01*
X153041333Y-117674317D01*
X152902658Y-117616876D01*
X152777853Y-117533484D01*
X152777850Y-117533482D01*
X152671718Y-117427350D01*
X152588324Y-117302542D01*
X152565764Y-117248078D01*
X152530883Y-117163867D01*
X152511865Y-117068257D01*
X152501600Y-117016652D01*
X152501600Y-116866548D01*
X152530883Y-116719334D01*
X152534261Y-116711179D01*
X152588324Y-116580658D01*
X152671716Y-116455853D01*
X152671718Y-116455850D01*
X152777850Y-116349718D01*
X152902658Y-116266324D01*
X152972289Y-116237482D01*
X153041333Y-116208883D01*
X153090405Y-116199122D01*
X153188548Y-116179600D01*
X153338652Y-116179600D01*
X153436795Y-116199122D01*
X153436795Y-116199122D01*
G37*
G36*
X151436795Y-116199122D02*
G01*
X151485867Y-116208883D01*
X151554911Y-116237482D01*
X151624542Y-116266324D01*
X151749350Y-116349718D01*
X151855482Y-116455850D01*
X151855484Y-116455853D01*
X151938876Y-116580658D01*
X151992940Y-116711179D01*
X151996317Y-116719334D01*
X152025600Y-116866548D01*
X152025600Y-117016652D01*
X152015335Y-117068257D01*
X151996317Y-117163867D01*
X151961436Y-117248078D01*
X151938876Y-117302542D01*
X151855482Y-117427350D01*
X151749350Y-117533482D01*
X151749347Y-117533484D01*
X151624542Y-117616876D01*
X151485867Y-117674317D01*
X151436795Y-117684078D01*
X151338652Y-117703600D01*
X151188548Y-117703600D01*
X151090405Y-117684078D01*
X151041333Y-117674317D01*
X150902658Y-117616876D01*
X150777853Y-117533484D01*
X150777850Y-117533482D01*
X150671718Y-117427350D01*
X150588324Y-117302542D01*
X150565764Y-117248078D01*
X150530883Y-117163867D01*
X150511865Y-117068257D01*
X150501600Y-117016652D01*
X150501600Y-116866548D01*
X150530883Y-116719334D01*
X150534261Y-116711179D01*
X150588324Y-116580658D01*
X150671716Y-116455853D01*
X150671718Y-116455850D01*
X150777850Y-116349718D01*
X150902658Y-116266324D01*
X150972289Y-116237482D01*
X151041333Y-116208883D01*
X151090405Y-116199122D01*
X151188548Y-116179600D01*
X151338652Y-116179600D01*
X151436795Y-116199122D01*
X151436795Y-116199122D01*
G37*
G36*
X132251718Y-115977411D02*
G01*
X132324167Y-115991822D01*
X132380703Y-116015240D01*
X132460657Y-116048358D01*
X132583500Y-116130439D01*
X132687961Y-116234900D01*
X132770042Y-116357743D01*
X132788574Y-116402483D01*
X132826417Y-116493844D01*
X132826578Y-116494234D01*
X132855400Y-116639130D01*
X132855400Y-116786870D01*
X132855278Y-116787481D01*
X132826578Y-116931767D01*
X132820509Y-116946419D01*
X132770042Y-117068257D01*
X132687961Y-117191100D01*
X132583500Y-117295561D01*
X132460657Y-117377642D01*
X132380703Y-117410760D01*
X132324167Y-117434178D01*
X132251718Y-117448589D01*
X132179270Y-117463000D01*
X132031530Y-117463000D01*
X131959082Y-117448589D01*
X131886633Y-117434178D01*
X131830097Y-117410760D01*
X131750143Y-117377642D01*
X131627300Y-117295561D01*
X131522839Y-117191100D01*
X131440758Y-117068257D01*
X131390291Y-116946419D01*
X131384222Y-116931767D01*
X131355522Y-116787481D01*
X131355400Y-116786870D01*
X131355400Y-116639130D01*
X131384222Y-116494234D01*
X131384384Y-116493844D01*
X131422226Y-116402483D01*
X131440758Y-116357743D01*
X131522839Y-116234900D01*
X131627300Y-116130439D01*
X131750143Y-116048358D01*
X131830097Y-116015240D01*
X131886633Y-115991822D01*
X131959082Y-115977411D01*
X132031530Y-115963000D01*
X132179270Y-115963000D01*
X132251718Y-115977411D01*
X132251718Y-115977411D01*
G37*
G36*
X176169621Y-116237482D02*
G01*
X176282721Y-116271790D01*
X176386955Y-116327504D01*
X176478317Y-116402483D01*
X176553296Y-116493845D01*
X176609010Y-116598079D01*
X176643318Y-116711179D01*
X176654903Y-116828800D01*
X176643318Y-116946421D01*
X176609010Y-117059521D01*
X176553296Y-117163755D01*
X176478317Y-117255117D01*
X176386955Y-117330096D01*
X176282721Y-117385810D01*
X176169621Y-117420118D01*
X176081474Y-117428800D01*
X175022526Y-117428800D01*
X174934379Y-117420118D01*
X174821279Y-117385810D01*
X174717045Y-117330096D01*
X174625683Y-117255117D01*
X174550704Y-117163755D01*
X174494990Y-117059521D01*
X174460682Y-116946421D01*
X174449097Y-116828800D01*
X174460682Y-116711179D01*
X174494990Y-116598079D01*
X174550704Y-116493845D01*
X174625683Y-116402483D01*
X174717045Y-116327504D01*
X174821279Y-116271790D01*
X174934379Y-116237482D01*
X175022526Y-116228800D01*
X176081474Y-116228800D01*
X176169621Y-116237482D01*
X176169621Y-116237482D01*
G37*
G36*
X182487830Y-113884299D02*
G01*
X182648055Y-113932903D01*
X182795720Y-114011831D01*
X182925149Y-114118051D01*
X183031369Y-114247480D01*
X183110297Y-114395145D01*
X183158901Y-114555370D01*
X183175312Y-114722000D01*
X183158901Y-114888630D01*
X183110297Y-115048855D01*
X183031369Y-115196520D01*
X182925149Y-115325949D01*
X182795720Y-115432169D01*
X182648055Y-115511097D01*
X182487830Y-115559701D01*
X182362952Y-115572000D01*
X182279448Y-115572000D01*
X182154570Y-115559701D01*
X181994345Y-115511097D01*
X181846680Y-115432169D01*
X181717251Y-115325949D01*
X181611031Y-115196520D01*
X181532103Y-115048855D01*
X181483499Y-114888630D01*
X181467088Y-114722000D01*
X181483499Y-114555370D01*
X181532103Y-114395145D01*
X181611031Y-114247480D01*
X181717251Y-114118051D01*
X181846680Y-114011831D01*
X181994345Y-113932903D01*
X182154570Y-113884299D01*
X182279448Y-113872000D01*
X182362952Y-113872000D01*
X182487830Y-113884299D01*
X182487830Y-113884299D01*
G37*
G36*
X179955800Y-115558000D02*
G01*
X179555800Y-115558000D01*
X179555800Y-114058000D01*
X179955800Y-114058000D01*
X179955800Y-115558000D01*
X179955800Y-115558000D01*
G37*
G36*
X138466105Y-111466956D02*
G01*
X138562696Y-111486169D01*
X138675759Y-111533002D01*
X138835654Y-111599232D01*
X139081314Y-111763377D01*
X139290223Y-111972286D01*
X139454368Y-112217946D01*
X139508499Y-112348630D01*
X139567431Y-112490904D01*
X139586644Y-112587495D01*
X139625070Y-112780674D01*
X139625070Y-113076126D01*
X139567431Y-113365895D01*
X139454368Y-113638854D01*
X139290223Y-113884514D01*
X139081314Y-114093423D01*
X138835654Y-114257568D01*
X138675759Y-114323798D01*
X138562696Y-114370631D01*
X138466105Y-114389844D01*
X138272926Y-114428270D01*
X137977474Y-114428270D01*
X137784295Y-114389844D01*
X137687704Y-114370631D01*
X137574641Y-114323798D01*
X137414746Y-114257568D01*
X137169086Y-114093423D01*
X136960177Y-113884514D01*
X136796032Y-113638854D01*
X136682969Y-113365895D01*
X136625330Y-113076126D01*
X136625330Y-112780674D01*
X136663756Y-112587495D01*
X136682969Y-112490904D01*
X136741901Y-112348630D01*
X136796032Y-112217946D01*
X136960177Y-111972286D01*
X137169086Y-111763377D01*
X137414746Y-111599232D01*
X137574641Y-111533002D01*
X137687704Y-111486169D01*
X137784295Y-111466956D01*
X137977474Y-111428530D01*
X138272926Y-111428530D01*
X138466105Y-111466956D01*
X138466105Y-111466956D01*
G37*
G36*
X179955800Y-113558000D02*
G01*
X179555800Y-113558000D01*
X179555800Y-112058000D01*
X179955800Y-112058000D01*
X179955800Y-113558000D01*
X179955800Y-113558000D01*
G37*
G36*
X182487830Y-111344299D02*
G01*
X182648055Y-111392903D01*
X182795720Y-111471831D01*
X182925149Y-111578051D01*
X183031369Y-111707480D01*
X183110297Y-111855145D01*
X183158901Y-112015370D01*
X183175312Y-112182000D01*
X183158901Y-112348630D01*
X183110297Y-112508855D01*
X183031369Y-112656520D01*
X182925149Y-112785949D01*
X182795720Y-112892169D01*
X182648055Y-112971097D01*
X182487830Y-113019701D01*
X182362952Y-113032000D01*
X182279448Y-113032000D01*
X182154570Y-113019701D01*
X181994345Y-112971097D01*
X181846680Y-112892169D01*
X181717251Y-112785949D01*
X181611031Y-112656520D01*
X181532103Y-112508855D01*
X181483499Y-112348630D01*
X181467088Y-112182000D01*
X181483499Y-112015370D01*
X181532103Y-111855145D01*
X181611031Y-111707480D01*
X181717251Y-111578051D01*
X181846680Y-111471831D01*
X181994345Y-111392903D01*
X182154570Y-111344299D01*
X182279448Y-111332000D01*
X182362952Y-111332000D01*
X182487830Y-111344299D01*
X182487830Y-111344299D01*
G37*
G36*
X141011133Y-109158673D02*
G01*
X141147727Y-109215252D01*
X141270664Y-109297396D01*
X141375204Y-109401936D01*
X141457348Y-109524873D01*
X141513927Y-109661467D01*
X141542770Y-109806474D01*
X141542770Y-109954326D01*
X141513927Y-110099333D01*
X141457348Y-110235927D01*
X141375204Y-110358864D01*
X141270664Y-110463404D01*
X141147727Y-110545548D01*
X141011133Y-110602127D01*
X140866126Y-110630970D01*
X140718274Y-110630970D01*
X140573267Y-110602127D01*
X140436673Y-110545548D01*
X140313736Y-110463404D01*
X140209196Y-110358864D01*
X140127052Y-110235927D01*
X140070473Y-110099333D01*
X140041630Y-109954326D01*
X140041630Y-109806474D01*
X140070473Y-109661467D01*
X140127052Y-109524873D01*
X140209196Y-109401936D01*
X140313736Y-109297396D01*
X140436673Y-109215252D01*
X140573267Y-109158673D01*
X140718274Y-109129830D01*
X140866126Y-109129830D01*
X141011133Y-109158673D01*
X141011133Y-109158673D01*
G37*
G36*
X182487830Y-108804299D02*
G01*
X182648055Y-108852903D01*
X182795720Y-108931831D01*
X182925149Y-109038051D01*
X183031369Y-109167480D01*
X183110297Y-109315145D01*
X183158901Y-109475370D01*
X183175312Y-109642000D01*
X183158901Y-109808630D01*
X183110297Y-109968855D01*
X183031369Y-110116520D01*
X182925149Y-110245949D01*
X182795720Y-110352169D01*
X182648055Y-110431097D01*
X182487830Y-110479701D01*
X182362952Y-110492000D01*
X182279448Y-110492000D01*
X182154570Y-110479701D01*
X181994345Y-110431097D01*
X181846680Y-110352169D01*
X181717251Y-110245949D01*
X181611031Y-110116520D01*
X181532103Y-109968855D01*
X181483499Y-109808630D01*
X181467088Y-109642000D01*
X181483499Y-109475370D01*
X181532103Y-109315145D01*
X181611031Y-109167480D01*
X181717251Y-109038051D01*
X181846680Y-108931831D01*
X181994345Y-108852903D01*
X182154570Y-108804299D01*
X182279448Y-108792000D01*
X182362952Y-108792000D01*
X182487830Y-108804299D01*
X182487830Y-108804299D01*
G37*
G36*
X141011133Y-106618673D02*
G01*
X141147727Y-106675252D01*
X141270664Y-106757396D01*
X141375204Y-106861936D01*
X141457348Y-106984873D01*
X141513927Y-107121467D01*
X141542770Y-107266474D01*
X141542770Y-107414326D01*
X141513927Y-107559333D01*
X141457348Y-107695927D01*
X141375204Y-107818864D01*
X141270664Y-107923404D01*
X141147727Y-108005548D01*
X141011133Y-108062127D01*
X140866126Y-108090970D01*
X140718274Y-108090970D01*
X140573267Y-108062127D01*
X140436673Y-108005548D01*
X140313736Y-107923404D01*
X140209196Y-107818864D01*
X140127052Y-107695927D01*
X140070473Y-107559333D01*
X140041630Y-107414326D01*
X140041630Y-107266474D01*
X140070473Y-107121467D01*
X140127052Y-106984873D01*
X140209196Y-106861936D01*
X140313736Y-106757396D01*
X140436673Y-106675252D01*
X140573267Y-106618673D01*
X140718274Y-106589830D01*
X140866126Y-106589830D01*
X141011133Y-106618673D01*
X141011133Y-106618673D01*
G37*
G36*
X180206918Y-106350811D02*
G01*
X180279367Y-106365222D01*
X180335903Y-106388640D01*
X180415857Y-106421758D01*
X180538700Y-106503839D01*
X180643161Y-106608300D01*
X180725242Y-106731143D01*
X180781778Y-106867634D01*
X180805099Y-106984873D01*
X180810600Y-107012531D01*
X180810600Y-107160269D01*
X180789475Y-107266474D01*
X180781778Y-107305166D01*
X180725242Y-107441657D01*
X180643161Y-107564500D01*
X180538700Y-107668961D01*
X180415857Y-107751042D01*
X180335903Y-107784160D01*
X180279367Y-107807578D01*
X180222628Y-107818864D01*
X180134470Y-107836400D01*
X179986730Y-107836400D01*
X179898572Y-107818864D01*
X179841833Y-107807578D01*
X179785297Y-107784160D01*
X179705343Y-107751042D01*
X179582500Y-107668961D01*
X179478039Y-107564500D01*
X179395958Y-107441657D01*
X179339422Y-107305166D01*
X179331726Y-107266474D01*
X179310600Y-107160269D01*
X179310600Y-107012531D01*
X179316102Y-106984873D01*
X179339422Y-106867634D01*
X179395958Y-106731143D01*
X179478039Y-106608300D01*
X179582500Y-106503839D01*
X179705343Y-106421758D01*
X179785297Y-106388640D01*
X179841833Y-106365222D01*
X179914282Y-106350811D01*
X179986730Y-106336400D01*
X180134470Y-106336400D01*
X180206918Y-106350811D01*
X180206918Y-106350811D01*
G37*
G36*
X141011133Y-104586673D02*
G01*
X141147727Y-104643252D01*
X141270664Y-104725396D01*
X141375204Y-104829936D01*
X141457348Y-104952873D01*
X141513927Y-105089467D01*
X141542770Y-105234474D01*
X141542770Y-105382326D01*
X141513927Y-105527333D01*
X141457348Y-105663927D01*
X141375204Y-105786864D01*
X141270664Y-105891404D01*
X141147727Y-105973548D01*
X141011133Y-106030127D01*
X140866126Y-106058970D01*
X140718274Y-106058970D01*
X140573267Y-106030127D01*
X140436673Y-105973548D01*
X140313736Y-105891404D01*
X140209196Y-105786864D01*
X140127052Y-105663927D01*
X140070473Y-105527333D01*
X140041630Y-105382326D01*
X140041630Y-105234474D01*
X140070473Y-105089467D01*
X140127052Y-104952873D01*
X140209196Y-104829936D01*
X140313736Y-104725396D01*
X140436673Y-104643252D01*
X140573267Y-104586673D01*
X140718274Y-104557830D01*
X140866126Y-104557830D01*
X141011133Y-104586673D01*
X141011133Y-104586673D01*
G37*
G36*
X141011133Y-102046673D02*
G01*
X141147727Y-102103252D01*
X141270664Y-102185396D01*
X141375204Y-102289936D01*
X141457348Y-102412873D01*
X141513927Y-102549467D01*
X141542770Y-102694474D01*
X141542770Y-102842326D01*
X141513927Y-102987333D01*
X141457348Y-103123927D01*
X141375204Y-103246864D01*
X141270664Y-103351404D01*
X141147727Y-103433548D01*
X141011133Y-103490127D01*
X140866126Y-103518970D01*
X140718274Y-103518970D01*
X140573267Y-103490127D01*
X140436673Y-103433548D01*
X140313736Y-103351404D01*
X140209196Y-103246864D01*
X140127052Y-103123927D01*
X140070473Y-102987333D01*
X140041630Y-102842326D01*
X140041630Y-102694474D01*
X140070473Y-102549467D01*
X140127052Y-102412873D01*
X140209196Y-102289936D01*
X140313736Y-102185396D01*
X140436673Y-102103252D01*
X140573267Y-102046673D01*
X140718274Y-102017830D01*
X140866126Y-102017830D01*
X141011133Y-102046673D01*
X141011133Y-102046673D01*
G37*
G36*
X138466105Y-97750956D02*
G01*
X138562696Y-97770169D01*
X138675759Y-97817002D01*
X138835654Y-97883232D01*
X139081314Y-98047377D01*
X139290223Y-98256286D01*
X139454368Y-98501946D01*
X139567431Y-98774905D01*
X139625070Y-99064674D01*
X139625070Y-99360126D01*
X139567431Y-99649895D01*
X139454368Y-99922854D01*
X139290223Y-100168514D01*
X139081314Y-100377423D01*
X138835654Y-100541568D01*
X138675759Y-100607798D01*
X138562696Y-100654631D01*
X138466105Y-100673844D01*
X138272926Y-100712270D01*
X137977474Y-100712270D01*
X137784295Y-100673844D01*
X137687704Y-100654631D01*
X137574641Y-100607798D01*
X137414746Y-100541568D01*
X137169086Y-100377423D01*
X136960177Y-100168514D01*
X136796032Y-99922854D01*
X136682969Y-99649895D01*
X136625330Y-99360126D01*
X136625330Y-99064674D01*
X136682969Y-98774905D01*
X136796032Y-98501946D01*
X136960177Y-98256286D01*
X137169086Y-98047377D01*
X137414746Y-97883232D01*
X137574641Y-97817002D01*
X137687704Y-97770169D01*
X137784295Y-97750956D01*
X137977474Y-97712530D01*
X138272926Y-97712530D01*
X138466105Y-97750956D01*
X138466105Y-97750956D01*
G37*
G36*
X171672518Y-84024211D02*
G01*
X171744967Y-84038622D01*
X171801503Y-84062040D01*
X171881457Y-84095158D01*
X172004300Y-84177239D01*
X172108761Y-84281700D01*
X172190842Y-84404543D01*
X172247378Y-84541034D01*
X172276200Y-84685930D01*
X172276200Y-84833670D01*
X172247378Y-84978566D01*
X172190842Y-85115057D01*
X172108761Y-85237900D01*
X172004300Y-85342361D01*
X171881457Y-85424442D01*
X171801503Y-85457560D01*
X171744967Y-85480978D01*
X171672518Y-85495389D01*
X171600070Y-85509800D01*
X171452330Y-85509800D01*
X171379882Y-85495389D01*
X171307433Y-85480978D01*
X171250897Y-85457560D01*
X171170943Y-85424442D01*
X171048100Y-85342361D01*
X170943639Y-85237900D01*
X170861558Y-85115057D01*
X170805022Y-84978566D01*
X170776200Y-84833670D01*
X170776200Y-84685930D01*
X170805022Y-84541034D01*
X170861558Y-84404543D01*
X170943639Y-84281700D01*
X171048100Y-84177239D01*
X171170943Y-84095158D01*
X171250897Y-84062040D01*
X171307433Y-84038622D01*
X171379882Y-84024211D01*
X171452330Y-84009800D01*
X171600070Y-84009800D01*
X171672518Y-84024211D01*
X171672518Y-84024211D01*
G37*
G36*
X131900170Y-81499772D02*
G01*
X132016089Y-81522829D01*
X132198078Y-81598211D01*
X132361863Y-81707649D01*
X132501151Y-81846937D01*
X132610589Y-82010722D01*
X132685971Y-82192711D01*
X132724400Y-82385909D01*
X132724400Y-82582891D01*
X132685971Y-82776089D01*
X132610589Y-82958078D01*
X132501151Y-83121863D01*
X132361863Y-83261151D01*
X132198078Y-83370589D01*
X132016089Y-83445971D01*
X131900170Y-83469028D01*
X131822893Y-83484400D01*
X131625907Y-83484400D01*
X131548630Y-83469028D01*
X131432711Y-83445971D01*
X131250722Y-83370589D01*
X131086937Y-83261151D01*
X130947649Y-83121863D01*
X130838211Y-82958078D01*
X130762829Y-82776089D01*
X130724400Y-82582891D01*
X130724400Y-82385909D01*
X130762829Y-82192711D01*
X130838211Y-82010722D01*
X130947649Y-81846937D01*
X131086937Y-81707649D01*
X131250722Y-81598211D01*
X131432711Y-81522829D01*
X131548630Y-81499772D01*
X131625907Y-81484400D01*
X131822893Y-81484400D01*
X131900170Y-81499772D01*
X131900170Y-81499772D01*
G37*
G36*
X131870718Y-79648811D02*
G01*
X131943167Y-79663222D01*
X131999703Y-79686640D01*
X132079657Y-79719758D01*
X132202500Y-79801839D01*
X132306961Y-79906300D01*
X132389042Y-80029143D01*
X132445578Y-80165634D01*
X132474400Y-80310530D01*
X132474400Y-80458270D01*
X132445578Y-80603166D01*
X132389042Y-80739657D01*
X132306961Y-80862500D01*
X132202500Y-80966961D01*
X132079657Y-81049042D01*
X131999703Y-81082160D01*
X131943167Y-81105578D01*
X131870718Y-81119989D01*
X131798270Y-81134400D01*
X131650530Y-81134400D01*
X131578082Y-81119989D01*
X131505633Y-81105578D01*
X131449097Y-81082160D01*
X131369143Y-81049042D01*
X131246300Y-80966961D01*
X131141839Y-80862500D01*
X131059758Y-80739657D01*
X131003222Y-80603166D01*
X130974400Y-80458270D01*
X130974400Y-80310530D01*
X131003222Y-80165634D01*
X131059758Y-80029143D01*
X131141839Y-79906300D01*
X131246300Y-79801839D01*
X131369143Y-79719758D01*
X131449097Y-79686640D01*
X131505633Y-79663222D01*
X131578082Y-79648811D01*
X131650530Y-79634400D01*
X131798270Y-79634400D01*
X131870718Y-79648811D01*
X131870718Y-79648811D01*
G37*
G36*
X154419111Y-78739657D02*
G01*
X154498367Y-78755422D01*
X154554903Y-78778840D01*
X154634857Y-78811958D01*
X154757700Y-78894039D01*
X154862161Y-78998500D01*
X154944242Y-79121343D01*
X155000778Y-79257834D01*
X155029600Y-79402730D01*
X155029600Y-79550470D01*
X155000778Y-79695366D01*
X154944242Y-79831857D01*
X154862161Y-79954700D01*
X154757700Y-80059161D01*
X154634857Y-80141242D01*
X154575971Y-80165633D01*
X154498367Y-80197778D01*
X154425918Y-80212189D01*
X154353470Y-80226600D01*
X154205730Y-80226600D01*
X154133282Y-80212189D01*
X154060833Y-80197778D01*
X153983229Y-80165633D01*
X153924343Y-80141242D01*
X153801500Y-80059161D01*
X153697039Y-79954700D01*
X153614958Y-79831857D01*
X153558422Y-79695366D01*
X153529600Y-79550470D01*
X153529600Y-79402730D01*
X153558422Y-79257834D01*
X153614958Y-79121343D01*
X153697039Y-78998500D01*
X153801500Y-78894039D01*
X153924343Y-78811958D01*
X154004297Y-78778840D01*
X154060833Y-78755422D01*
X154140089Y-78739657D01*
X154205730Y-78726600D01*
X154353470Y-78726600D01*
X154419111Y-78739657D01*
X154419111Y-78739657D01*
G37*
G36*
X131870718Y-77648811D02*
G01*
X131943167Y-77663222D01*
X131999703Y-77686640D01*
X132079657Y-77719758D01*
X132202500Y-77801839D01*
X132306961Y-77906300D01*
X132389042Y-78029143D01*
X132445578Y-78165634D01*
X132474400Y-78310530D01*
X132474400Y-78458270D01*
X132445578Y-78603166D01*
X132389042Y-78739657D01*
X132306961Y-78862500D01*
X132202500Y-78966961D01*
X132079657Y-79049042D01*
X131999703Y-79082160D01*
X131943167Y-79105578D01*
X131870718Y-79119989D01*
X131798270Y-79134400D01*
X131650530Y-79134400D01*
X131578082Y-79119989D01*
X131505633Y-79105578D01*
X131449097Y-79082160D01*
X131369143Y-79049042D01*
X131246300Y-78966961D01*
X131141839Y-78862500D01*
X131059758Y-78739657D01*
X131003222Y-78603166D01*
X130974400Y-78458270D01*
X130974400Y-78310530D01*
X131003222Y-78165634D01*
X131059758Y-78029143D01*
X131141839Y-77906300D01*
X131246300Y-77801839D01*
X131369143Y-77719758D01*
X131449097Y-77686640D01*
X131505633Y-77663222D01*
X131578082Y-77648811D01*
X131650530Y-77634400D01*
X131798270Y-77634400D01*
X131870718Y-77648811D01*
X131870718Y-77648811D01*
G37*
G36*
X131870718Y-75648811D02*
G01*
X131943167Y-75663222D01*
X131999703Y-75686640D01*
X132079657Y-75719758D01*
X132202500Y-75801839D01*
X132306961Y-75906300D01*
X132389042Y-76029143D01*
X132445578Y-76165634D01*
X132474400Y-76310530D01*
X132474400Y-76458270D01*
X132445578Y-76603166D01*
X132389042Y-76739657D01*
X132306961Y-76862500D01*
X132202500Y-76966961D01*
X132079657Y-77049042D01*
X131999703Y-77082160D01*
X131943167Y-77105578D01*
X131870718Y-77119989D01*
X131798270Y-77134400D01*
X131650530Y-77134400D01*
X131578082Y-77119989D01*
X131505633Y-77105578D01*
X131449097Y-77082160D01*
X131369143Y-77049042D01*
X131246300Y-76966961D01*
X131141839Y-76862500D01*
X131059758Y-76739657D01*
X131003222Y-76603166D01*
X130974400Y-76458270D01*
X130974400Y-76310530D01*
X131003222Y-76165634D01*
X131059758Y-76029143D01*
X131141839Y-75906300D01*
X131246300Y-75801839D01*
X131369143Y-75719758D01*
X131449097Y-75686640D01*
X131505633Y-75663222D01*
X131578082Y-75648811D01*
X131650530Y-75634400D01*
X131798270Y-75634400D01*
X131870718Y-75648811D01*
X131870718Y-75648811D01*
G37*
G36*
X131900170Y-73299772D02*
G01*
X132016089Y-73322829D01*
X132198078Y-73398211D01*
X132361863Y-73507649D01*
X132501151Y-73646937D01*
X132610589Y-73810722D01*
X132685971Y-73992711D01*
X132724400Y-74185909D01*
X132724400Y-74382891D01*
X132685971Y-74576089D01*
X132610589Y-74758078D01*
X132501151Y-74921863D01*
X132361863Y-75061151D01*
X132198078Y-75170589D01*
X132016089Y-75245971D01*
X131900170Y-75269028D01*
X131822893Y-75284400D01*
X131625907Y-75284400D01*
X131548630Y-75269028D01*
X131432711Y-75245971D01*
X131250722Y-75170589D01*
X131086937Y-75061151D01*
X130947649Y-74921863D01*
X130838211Y-74758078D01*
X130762829Y-74576089D01*
X130724400Y-74382891D01*
X130724400Y-74185909D01*
X130762829Y-73992711D01*
X130838211Y-73810722D01*
X130947649Y-73646937D01*
X131086937Y-73507649D01*
X131250722Y-73398211D01*
X131432711Y-73322829D01*
X131548630Y-73299772D01*
X131625907Y-73284400D01*
X131822893Y-73284400D01*
X131900170Y-73299772D01*
X131900170Y-73299772D01*
G37*
G36*
X183509144Y-67650475D02*
G01*
X183537172Y-67658977D01*
X183562998Y-67672782D01*
X183585638Y-67691362D01*
X183604218Y-67714002D01*
X183618023Y-67739828D01*
X183626525Y-67767856D01*
X183630000Y-67803140D01*
X183630000Y-68340860D01*
X183626525Y-68376144D01*
X183618023Y-68404172D01*
X183604218Y-68429998D01*
X183585638Y-68452638D01*
X183562998Y-68471218D01*
X183537172Y-68485023D01*
X183509144Y-68493525D01*
X183473860Y-68497000D01*
X182286140Y-68497000D01*
X182250856Y-68493525D01*
X182222828Y-68485023D01*
X182197002Y-68471218D01*
X182174362Y-68452638D01*
X182155782Y-68429998D01*
X182141977Y-68404172D01*
X182133475Y-68376144D01*
X182130000Y-68340860D01*
X182130000Y-67803140D01*
X182133475Y-67767856D01*
X182141977Y-67739828D01*
X182155782Y-67714002D01*
X182174362Y-67691362D01*
X182197002Y-67672782D01*
X182222828Y-67658977D01*
X182250856Y-67650475D01*
X182286140Y-67647000D01*
X183473860Y-67647000D01*
X183509144Y-67650475D01*
X183509144Y-67650475D01*
G37*
G36*
X134217648Y-65120504D02*
G01*
X134217651Y-65120505D01*
X134500402Y-65206276D01*
X134500404Y-65206277D01*
X134760989Y-65345563D01*
X134989392Y-65533008D01*
X135176837Y-65761411D01*
X135176838Y-65761413D01*
X135316124Y-66021998D01*
X135376226Y-66220130D01*
X135401896Y-66304752D01*
X135430857Y-66598800D01*
X135401896Y-66892848D01*
X135401895Y-66892851D01*
X135351417Y-67059257D01*
X135316123Y-67175604D01*
X135176837Y-67436189D01*
X134989392Y-67664592D01*
X134760989Y-67852037D01*
X134760987Y-67852038D01*
X134500402Y-67991324D01*
X134270285Y-68061129D01*
X134217648Y-68077096D01*
X133997284Y-68098800D01*
X129349916Y-68098800D01*
X129129552Y-68077096D01*
X129076915Y-68061129D01*
X128846798Y-67991324D01*
X128586213Y-67852038D01*
X128586211Y-67852037D01*
X128357808Y-67664592D01*
X128170363Y-67436189D01*
X128031077Y-67175604D01*
X127995784Y-67059257D01*
X127945305Y-66892851D01*
X127945304Y-66892848D01*
X127916343Y-66598800D01*
X127945304Y-66304752D01*
X127970974Y-66220130D01*
X128031076Y-66021998D01*
X128170362Y-65761413D01*
X128170363Y-65761411D01*
X128357808Y-65533008D01*
X128586211Y-65345563D01*
X128846796Y-65206277D01*
X128846798Y-65206276D01*
X129129549Y-65120505D01*
X129129552Y-65120504D01*
X129349916Y-65098800D01*
X133997284Y-65098800D01*
X134217648Y-65120504D01*
X134217648Y-65120504D01*
G37*
G36*
X151195030Y-65786699D02*
G01*
X151355255Y-65835303D01*
X151502920Y-65914231D01*
X151632349Y-66020451D01*
X151738569Y-66149880D01*
X151817497Y-66297545D01*
X151866101Y-66457770D01*
X151882512Y-66624400D01*
X151866101Y-66791030D01*
X151817497Y-66951255D01*
X151738569Y-67098920D01*
X151632349Y-67228349D01*
X151502920Y-67334569D01*
X151355255Y-67413497D01*
X151195030Y-67462101D01*
X151070152Y-67474400D01*
X150986648Y-67474400D01*
X150861770Y-67462101D01*
X150701545Y-67413497D01*
X150553880Y-67334569D01*
X150424451Y-67228349D01*
X150318231Y-67098920D01*
X150239303Y-66951255D01*
X150190699Y-66791030D01*
X150174288Y-66624400D01*
X150190699Y-66457770D01*
X150239303Y-66297545D01*
X150318231Y-66149880D01*
X150424451Y-66020451D01*
X150553880Y-65914231D01*
X150701545Y-65835303D01*
X150861770Y-65786699D01*
X150986648Y-65774400D01*
X151070152Y-65774400D01*
X151195030Y-65786699D01*
X151195030Y-65786699D01*
G37*
G36*
X146115030Y-65786699D02*
G01*
X146275255Y-65835303D01*
X146422920Y-65914231D01*
X146552349Y-66020451D01*
X146658569Y-66149880D01*
X146737497Y-66297545D01*
X146786101Y-66457770D01*
X146802512Y-66624400D01*
X146786101Y-66791030D01*
X146737497Y-66951255D01*
X146658569Y-67098920D01*
X146552349Y-67228349D01*
X146422920Y-67334569D01*
X146275255Y-67413497D01*
X146115030Y-67462101D01*
X145990152Y-67474400D01*
X145906648Y-67474400D01*
X145781770Y-67462101D01*
X145621545Y-67413497D01*
X145473880Y-67334569D01*
X145344451Y-67228349D01*
X145238231Y-67098920D01*
X145159303Y-66951255D01*
X145110699Y-66791030D01*
X145094288Y-66624400D01*
X145110699Y-66457770D01*
X145159303Y-66297545D01*
X145238231Y-66149880D01*
X145344451Y-66020451D01*
X145473880Y-65914231D01*
X145621545Y-65835303D01*
X145781770Y-65786699D01*
X145906648Y-65774400D01*
X145990152Y-65774400D01*
X146115030Y-65786699D01*
X146115030Y-65786699D01*
G37*
G36*
X144258400Y-67474400D02*
G01*
X142558400Y-67474400D01*
X142558400Y-65774400D01*
X144258400Y-65774400D01*
X144258400Y-67474400D01*
X144258400Y-67474400D01*
G37*
G36*
X148655030Y-65786699D02*
G01*
X148815255Y-65835303D01*
X148962920Y-65914231D01*
X149092349Y-66020451D01*
X149198569Y-66149880D01*
X149277497Y-66297545D01*
X149326101Y-66457770D01*
X149342512Y-66624400D01*
X149326101Y-66791030D01*
X149277497Y-66951255D01*
X149198569Y-67098920D01*
X149092349Y-67228349D01*
X148962920Y-67334569D01*
X148815255Y-67413497D01*
X148655030Y-67462101D01*
X148530152Y-67474400D01*
X148446648Y-67474400D01*
X148321770Y-67462101D01*
X148161545Y-67413497D01*
X148013880Y-67334569D01*
X147884451Y-67228349D01*
X147778231Y-67098920D01*
X147699303Y-66951255D01*
X147650699Y-66791030D01*
X147634288Y-66624400D01*
X147650699Y-66457770D01*
X147699303Y-66297545D01*
X147778231Y-66149880D01*
X147884451Y-66020451D01*
X148013880Y-65914231D01*
X148161545Y-65835303D01*
X148321770Y-65786699D01*
X148446648Y-65774400D01*
X148530152Y-65774400D01*
X148655030Y-65786699D01*
X148655030Y-65786699D01*
G37*
G36*
X183288316Y-66403149D02*
G01*
X183368427Y-66427451D01*
X183442257Y-66466914D01*
X183442258Y-66466915D01*
X183442260Y-66466916D01*
X183498128Y-66512766D01*
X183506974Y-66520026D01*
X183560086Y-66584743D01*
X183599549Y-66658573D01*
X183623851Y-66738684D01*
X183632056Y-66822000D01*
X183623851Y-66905316D01*
X183599549Y-66985427D01*
X183568241Y-67044000D01*
X183560084Y-67059260D01*
X183506974Y-67123974D01*
X183442260Y-67177084D01*
X183442258Y-67177085D01*
X183442257Y-67177086D01*
X183368427Y-67216549D01*
X183288316Y-67240851D01*
X183225878Y-67247000D01*
X182534122Y-67247000D01*
X182471684Y-67240851D01*
X182391573Y-67216549D01*
X182317743Y-67177086D01*
X182317742Y-67177085D01*
X182317740Y-67177084D01*
X182253026Y-67123974D01*
X182199916Y-67059260D01*
X182191759Y-67044000D01*
X182160451Y-66985427D01*
X182136149Y-66905316D01*
X182127944Y-66822000D01*
X182136149Y-66738684D01*
X182160451Y-66658573D01*
X182199914Y-66584743D01*
X182253026Y-66520026D01*
X182261872Y-66512766D01*
X182317740Y-66466916D01*
X182317742Y-66466915D01*
X182317743Y-66466914D01*
X182391573Y-66427451D01*
X182471684Y-66403149D01*
X182534122Y-66397000D01*
X183225878Y-66397000D01*
X183288316Y-66403149D01*
X183288316Y-66403149D01*
G37*
G36*
X179851318Y-65558411D02*
G01*
X179923767Y-65572822D01*
X179980303Y-65596240D01*
X180060257Y-65629358D01*
X180183100Y-65711439D01*
X180287561Y-65815900D01*
X180369642Y-65938743D01*
X180426178Y-66075234D01*
X180455000Y-66220130D01*
X180455000Y-66367870D01*
X180426178Y-66512766D01*
X180369642Y-66649257D01*
X180287561Y-66772100D01*
X180183100Y-66876561D01*
X180060257Y-66958642D01*
X179995592Y-66985427D01*
X179923767Y-67015178D01*
X179851318Y-67029589D01*
X179778870Y-67044000D01*
X179631130Y-67044000D01*
X179558682Y-67029589D01*
X179486233Y-67015178D01*
X179414408Y-66985427D01*
X179349743Y-66958642D01*
X179226900Y-66876561D01*
X179122439Y-66772100D01*
X179040358Y-66649257D01*
X178983822Y-66512766D01*
X178955000Y-66367870D01*
X178955000Y-66220130D01*
X178983822Y-66075234D01*
X179040358Y-65938743D01*
X179122439Y-65815900D01*
X179226900Y-65711439D01*
X179349743Y-65629358D01*
X179429697Y-65596240D01*
X179486233Y-65572822D01*
X179558682Y-65558411D01*
X179631130Y-65544000D01*
X179778870Y-65544000D01*
X179851318Y-65558411D01*
X179851318Y-65558411D01*
G37*
M02*
