<?xml version="1.0" standalone="no"?>
 <!DOCTYPE svg PUBLIC "-//W3C//DTD SVG 1.1//EN" 
 "http://www.w3.org/Graphics/SVG/1.1/DTD/svg11.dtd"> 
<svg
  xmlns:svg="http://www.w3.org/2000/svg"
  xmlns="http://www.w3.org/2000/svg"
  xmlns:xlink="http://www.w3.org/1999/xlink"
  version="1.1"
  width="41.6560mm" height="79.2988mm" viewBox="0.0000 0.0000 41.6560 79.2988">
<title>SVG Image created as HATA_ver_8.3.1-Edge_Cuts.svg date 2025/02/22 09:11:28 </title>
  <desc>Image generated by PCBNEW </desc>
<g style="fill:#000000; fill-opacity:1.0000;stroke:#000000; stroke-opacity:1.0000;
stroke-linecap:round; stroke-linejoin:round;"
 transform="translate(0 0) scale(1 1)">
</g>
<g style="fill:#000000; fill-opacity:0.0; 
stroke:#000000; stroke-width:0.0000; stroke-opacity:1; 
stroke-linecap:round; stroke-linejoin:round;">
</g>
<g style="fill:#000000; fill-opacity:0.0; 
stroke:#000000; stroke-width:0.1000; stroke-opacity:1; 
stroke-linecap:round; stroke-linejoin:round;">
<path d="M0.0500 79.2500
L0.0500 77.3900
" />
<path d="M4.1799 4.9200 A1.5000 1.5000 0.0 0 0 4.1700 1.9200" />
<path d="M18.2700 42.4600
L18.2700 67.9600
" />
<circle cx="39.3000" cy="75.8800" r="1.5000" /> 
<path d="M0.0500 42.4600
L18.2700 42.4600
" />
<path d="M4.1700 77.3800 A1.5000 1.5000 0.0 1 0 4.1600 74.3800" />
<path d="M4.1700 74.3800
L0.0500 74.3800
" />
<path d="M4.1800 1.9200
L0.0500 1.9200
" />
<path d="M4.1799 4.9200
L0.0500 4.9200
" />
<path d="M41.6300 0.0500
L41.6300 79.2500
" />
<path d="M41.6300 0.0500
L0.0500 0.0500
" />
<path d="M4.1700 77.3800
L0.0500 77.3900
" />
<path d="M0.0500 79.2500
L41.6300 79.2500
" />
<path d="M18.2700 67.9600
L0.0500 67.9600
" />
<path d="M0.0500 4.9200
L0.0500 42.4600
" />
<path d="M0.0500 67.9600
L0.0500 74.3800
" />
<path d="M0.0500 0.0500
L0.0500 1.9200
" />
<g >
</g>
<g >
</g>
<g >
</g>
<g >
</g>
<g >
</g>
<g >
</g>
<g >
</g>
<g >
</g>
<g >
</g>
<g >
</g>
<g >
</g>
<g >
</g>
<g >
</g>
<g >
</g>
<g >
</g>
<g >
</g>
<g >
</g>
<g >
</g>
<g >
</g>
<g >
</g>
<g >
</g>
<g >
</g>
<g >
</g>
<g >
</g>
<g >
</g>
<g >
</g>
<g >
</g>
<g >
</g>
<g >
</g>
<g >
</g>
<g >
</g>
<g >
</g>
<g >
</g>
<g >
</g>
<g >
</g>
<g >
</g>
<g >
</g>
<g >
</g>
<g >
</g>
<g >
</g>
<g >
</g>
<g >
</g>
<g >
</g>
<g >
</g>
<g >
</g>
<g >
</g>
<g >
</g>
<g >
</g>
<g >
</g>
<g >
</g>
<g >
</g>
<g >
</g>
<g >
</g>
<g >
</g>
<g >
</g>
<g >
</g>
<g >
</g>
</g> 
</svg>
