G04 #@! TF.GenerationSoftware,KiCad,Pcbnew,(6.0.0-rc1-dev-1413-ga48e89956)*
G04 #@! TF.CreationDate,2019-10-25T09:50:34-06:00
G04 #@! TF.ProjectId,HAT_ver_5.1,4841545f-7665-4725-9f35-2e312e6b6963,5.1.1*
G04 #@! TF.SameCoordinates,Original*
G04 #@! TF.FileFunction,Legend,Top*
G04 #@! TF.FilePolarity,Positive*
%FSLAX46Y46*%
G04 Gerber Fmt 4.6, Leading zero omitted, Abs format (unit mm)*
G04 Created by KiCad (PCBNEW (6.0.0-rc1-dev-1413-ga48e89956)) date Friday, October 25, 2019 at 09:50:34 AM*
%MOMM*%
%LPD*%
G04 APERTURE LIST*
%ADD10C,0.150000*%
%ADD11C,0.120000*%
%ADD12C,0.100000*%
%ADD13C,0.254000*%
G04 APERTURE END LIST*
D10*
X166857657Y-86736180D02*
X166857657Y-85736180D01*
X167333847Y-86736180D02*
X167333847Y-85736180D01*
X167714800Y-85736180D01*
X167810038Y-85783800D01*
X167857657Y-85831419D01*
X167905276Y-85926657D01*
X167905276Y-86069514D01*
X167857657Y-86164752D01*
X167810038Y-86212371D01*
X167714800Y-86259990D01*
X167333847Y-86259990D01*
X168286228Y-86688561D02*
X168429085Y-86736180D01*
X168667180Y-86736180D01*
X168762419Y-86688561D01*
X168810038Y-86640942D01*
X168857657Y-86545704D01*
X168857657Y-86450466D01*
X168810038Y-86355228D01*
X168762419Y-86307609D01*
X168667180Y-86259990D01*
X168476704Y-86212371D01*
X168381466Y-86164752D01*
X168333847Y-86117133D01*
X168286228Y-86021895D01*
X168286228Y-85926657D01*
X168333847Y-85831419D01*
X168381466Y-85783800D01*
X168476704Y-85736180D01*
X168714800Y-85736180D01*
X168857657Y-85783800D01*
X169048133Y-86831419D02*
X169810038Y-86831419D01*
X170000514Y-86688561D02*
X170143371Y-86736180D01*
X170381466Y-86736180D01*
X170476704Y-86688561D01*
X170524323Y-86640942D01*
X170571942Y-86545704D01*
X170571942Y-86450466D01*
X170524323Y-86355228D01*
X170476704Y-86307609D01*
X170381466Y-86259990D01*
X170190990Y-86212371D01*
X170095752Y-86164752D01*
X170048133Y-86117133D01*
X170000514Y-86021895D01*
X170000514Y-85926657D01*
X170048133Y-85831419D01*
X170095752Y-85783800D01*
X170190990Y-85736180D01*
X170429085Y-85736180D01*
X170571942Y-85783800D01*
X170905276Y-86069514D02*
X171095752Y-86736180D01*
X171286228Y-86259990D01*
X171476704Y-86736180D01*
X171667180Y-86069514D01*
X180162200Y-132334000D02*
X180086000Y-128955800D01*
X151347609Y-78430380D02*
X151347609Y-77430380D01*
X151823800Y-78430380D02*
X151823800Y-77430380D01*
X152204752Y-77430380D01*
X152299990Y-77478000D01*
X152347609Y-77525619D01*
X152395228Y-77620857D01*
X152395228Y-77763714D01*
X152347609Y-77858952D01*
X152299990Y-77906571D01*
X152204752Y-77954190D01*
X151823800Y-77954190D01*
X152776180Y-78382761D02*
X152919038Y-78430380D01*
X153157133Y-78430380D01*
X153252371Y-78382761D01*
X153299990Y-78335142D01*
X153347609Y-78239904D01*
X153347609Y-78144666D01*
X153299990Y-78049428D01*
X153252371Y-78001809D01*
X153157133Y-77954190D01*
X152966657Y-77906571D01*
X152871419Y-77858952D01*
X152823800Y-77811333D01*
X152776180Y-77716095D01*
X152776180Y-77620857D01*
X152823800Y-77525619D01*
X152871419Y-77478000D01*
X152966657Y-77430380D01*
X153204752Y-77430380D01*
X153347609Y-77478000D01*
X135890095Y-132773800D02*
X135794857Y-132726180D01*
X135652000Y-132726180D01*
X135509142Y-132773800D01*
X135413904Y-132869038D01*
X135366285Y-132964276D01*
X135318666Y-133154752D01*
X135318666Y-133297609D01*
X135366285Y-133488085D01*
X135413904Y-133583323D01*
X135509142Y-133678561D01*
X135652000Y-133726180D01*
X135747238Y-133726180D01*
X135890095Y-133678561D01*
X135937714Y-133630942D01*
X135937714Y-133297609D01*
X135747238Y-133297609D01*
X136366285Y-133726180D02*
X136366285Y-132726180D01*
X136937714Y-133726180D01*
X136937714Y-132726180D01*
X137413904Y-133726180D02*
X137413904Y-132726180D01*
X137652000Y-132726180D01*
X137794857Y-132773800D01*
X137890095Y-132869038D01*
X137937714Y-132964276D01*
X137985333Y-133154752D01*
X137985333Y-133297609D01*
X137937714Y-133488085D01*
X137890095Y-133583323D01*
X137794857Y-133678561D01*
X137652000Y-133726180D01*
X137413904Y-133726180D01*
X177839857Y-68356171D02*
X177982714Y-68403790D01*
X178030333Y-68451409D01*
X178077952Y-68546647D01*
X178077952Y-68689504D01*
X178030333Y-68784742D01*
X177982714Y-68832361D01*
X177887476Y-68879980D01*
X177506523Y-68879980D01*
X177506523Y-67879980D01*
X177839857Y-67879980D01*
X177935095Y-67927600D01*
X177982714Y-67975219D01*
X178030333Y-68070457D01*
X178030333Y-68165695D01*
X177982714Y-68260933D01*
X177935095Y-68308552D01*
X177839857Y-68356171D01*
X177506523Y-68356171D01*
X178458904Y-68594266D02*
X178935095Y-68594266D01*
X178363666Y-68879980D02*
X178697000Y-67879980D01*
X179030333Y-68879980D01*
X179220809Y-67879980D02*
X179792238Y-67879980D01*
X179506523Y-68879980D02*
X179506523Y-67879980D01*
X180125571Y-68499028D02*
X180887476Y-68499028D01*
X180506523Y-68879980D02*
X180506523Y-68118076D01*
X132611904Y-118302066D02*
X133088095Y-118302066D01*
X132516666Y-118587780D02*
X132850000Y-117587780D01*
X133183333Y-118587780D01*
X134088095Y-118492542D02*
X134040476Y-118540161D01*
X133897619Y-118587780D01*
X133802380Y-118587780D01*
X133659523Y-118540161D01*
X133564285Y-118444923D01*
X133516666Y-118349685D01*
X133469047Y-118159209D01*
X133469047Y-118016352D01*
X133516666Y-117825876D01*
X133564285Y-117730638D01*
X133659523Y-117635400D01*
X133802380Y-117587780D01*
X133897619Y-117587780D01*
X134040476Y-117635400D01*
X134088095Y-117683019D01*
X181902123Y-106233980D02*
X181425933Y-106233980D01*
X181378314Y-106710171D01*
X181425933Y-106662552D01*
X181521171Y-106614933D01*
X181759266Y-106614933D01*
X181854504Y-106662552D01*
X181902123Y-106710171D01*
X181949742Y-106805409D01*
X181949742Y-107043504D01*
X181902123Y-107138742D01*
X181854504Y-107186361D01*
X181759266Y-107233980D01*
X181521171Y-107233980D01*
X181425933Y-107186361D01*
X181378314Y-107138742D01*
X182235457Y-106233980D02*
X182568790Y-107233980D01*
X182902123Y-106233980D01*
X177203000Y-132428000D02*
X177203000Y-112428000D01*
X150203000Y-132428000D02*
X177203000Y-132428000D01*
X150203000Y-112428000D02*
X150203000Y-132428000D01*
X177203000Y-112428000D02*
X150203000Y-112428000D01*
X175703000Y-129928000D02*
G75*
G03X175703000Y-129928000I-1000000J0D01*
G01*
X175703000Y-114928000D02*
G75*
G03X175703000Y-114928000I-1000000J0D01*
G01*
D11*
X159110178Y-78995200D02*
X158593022Y-78995200D01*
X159110178Y-80415200D02*
X158593022Y-80415200D01*
X166038600Y-79504278D02*
X166038600Y-78987122D01*
X164618600Y-79504278D02*
X164618600Y-78987122D01*
D10*
X174602800Y-129478800D02*
G75*
G03X174602800Y-129478800I-1000000J0D01*
G01*
X174602800Y-115478800D02*
G75*
G03X174602800Y-115478800I-1000000J0D01*
G01*
X162302800Y-113578800D02*
X175602800Y-113578800D01*
X175602800Y-113578800D02*
X175602800Y-131378800D01*
X175602800Y-131378800D02*
X148602800Y-131378800D01*
X148602800Y-131378800D02*
X148602800Y-113578800D01*
X148602800Y-113578800D02*
X162302800Y-113578800D01*
D11*
X183651200Y-108312000D02*
X180991200Y-108312000D01*
X183651200Y-126152000D02*
X183651200Y-108312000D01*
X180991200Y-126152000D02*
X180991200Y-108312000D01*
X183651200Y-126152000D02*
X180991200Y-126152000D01*
X183651200Y-127422000D02*
X183651200Y-128752000D01*
X183651200Y-128752000D02*
X182321200Y-128752000D01*
D10*
X129424400Y-76384400D02*
X128724400Y-76384400D01*
X128724400Y-76384400D02*
X128724400Y-78384400D01*
X128724400Y-78384400D02*
X129324400Y-78384400D01*
X129424400Y-82384400D02*
X129424400Y-82484400D01*
X129424400Y-82484400D02*
X130324400Y-82484400D01*
X130224400Y-74284400D02*
X129424400Y-74284400D01*
X129424400Y-74284400D02*
X129424400Y-82384400D01*
X133124400Y-74284400D02*
X134024400Y-74284400D01*
X134024400Y-74284400D02*
X133924400Y-82384400D01*
X133924400Y-82384400D02*
X133124400Y-82384400D01*
X171239576Y-76454000D02*
G75*
G03X171239576Y-76454000I-1802776J0D01*
G01*
X166936800Y-78954000D02*
X166936800Y-73954000D01*
X166936800Y-73954000D02*
X171936800Y-73954000D01*
X171936800Y-73954000D02*
X171936800Y-78954000D01*
X171936800Y-78954000D02*
X166936800Y-78954000D01*
X181127600Y-89794000D02*
X180627600Y-90394000D01*
X180627600Y-89794000D02*
X184827600Y-89794000D01*
X184827600Y-89794000D02*
X184827600Y-93594000D01*
X184827600Y-93594000D02*
X180627600Y-93594000D01*
X180627600Y-93594000D02*
X180627600Y-89794000D01*
X157302400Y-81005600D02*
X156802400Y-81605600D01*
X156802400Y-81005600D02*
X161002400Y-81005600D01*
X161002400Y-81005600D02*
X161002400Y-84805600D01*
X161002400Y-84805600D02*
X156802400Y-84805600D01*
X156802400Y-84805600D02*
X156802400Y-81005600D01*
X160187200Y-74676000D02*
G75*
G03X160187200Y-74676000I-2250000J0D01*
G01*
X180682800Y-99858400D02*
X180682800Y-100258400D01*
X180682800Y-100258400D02*
X179082800Y-100258400D01*
X179082800Y-100258400D02*
X179082800Y-99858400D01*
X180682800Y-99958400D02*
X179082800Y-99958400D01*
X180682800Y-95158400D02*
X180682800Y-99858400D01*
X179082800Y-99858400D02*
X179082800Y-95158400D01*
X179082800Y-95158400D02*
X180682800Y-95158400D01*
X143790200Y-80695000D02*
X143790200Y-81295000D01*
X137540200Y-86945000D02*
X137540200Y-86345000D01*
X143790200Y-86945000D02*
X143790200Y-86345000D01*
X137540200Y-80695000D02*
X138140200Y-80695000D01*
X137540200Y-86945000D02*
X138140200Y-86945000D01*
X143790200Y-86945000D02*
X143190200Y-86945000D01*
X143790200Y-80695000D02*
X143190200Y-80695000D01*
X141935200Y-113817400D02*
X127838200Y-113817400D01*
X127838200Y-98831400D02*
X141935200Y-98831400D01*
X141935200Y-113817400D02*
X141935200Y-98831400D01*
X127838200Y-113817400D02*
X127838200Y-98831400D01*
D11*
X181111200Y-115932000D02*
X178451200Y-115932000D01*
X181111200Y-126152000D02*
X181111200Y-115932000D01*
X178451200Y-126152000D02*
X178451200Y-115932000D01*
X181111200Y-126152000D02*
X178451200Y-126152000D01*
X181111200Y-127422000D02*
X181111200Y-128752000D01*
X181111200Y-128752000D02*
X179781200Y-128752000D01*
X146059200Y-115932000D02*
X143399200Y-115932000D01*
X146059200Y-126152000D02*
X146059200Y-115932000D01*
X143399200Y-126152000D02*
X143399200Y-115932000D01*
X146059200Y-126152000D02*
X143399200Y-126152000D01*
X146059200Y-127422000D02*
X146059200Y-128752000D01*
X146059200Y-128752000D02*
X144729200Y-128752000D01*
X185040000Y-65212000D02*
X181620000Y-65212000D01*
X181620000Y-65212000D02*
X181620000Y-69682000D01*
X181620000Y-69682000D02*
X185040000Y-69682000D01*
X185040000Y-69682000D02*
X185040000Y-65212000D01*
X182130000Y-67447000D02*
X182130000Y-65722000D01*
X182130000Y-65722000D02*
X182880000Y-65722000D01*
X182880000Y-65722000D02*
X182880000Y-65522000D01*
X182880000Y-65522000D02*
X183680000Y-65522000D01*
X183680000Y-65522000D02*
X183680000Y-65722000D01*
X183680000Y-65722000D02*
X184530000Y-65722000D01*
X184530000Y-65722000D02*
X184530000Y-67447000D01*
X182130000Y-67447000D02*
X182130000Y-69172000D01*
X182130000Y-69172000D02*
X182880000Y-69172000D01*
X182880000Y-69172000D02*
X182880000Y-69372000D01*
X182880000Y-69372000D02*
X183680000Y-69372000D01*
X183680000Y-69372000D02*
X183680000Y-69172000D01*
X183680000Y-69172000D02*
X184530000Y-69172000D01*
X184530000Y-69172000D02*
X184530000Y-67447000D01*
X181330000Y-64922000D02*
X182330000Y-64922000D01*
X181330000Y-64922000D02*
X181330000Y-65922000D01*
X144347000Y-131336522D02*
X144347000Y-131853678D01*
X142927000Y-131336522D02*
X142927000Y-131853678D01*
X163879600Y-79478878D02*
X163879600Y-78961722D01*
X162459600Y-79478878D02*
X162459600Y-78961722D01*
X155004800Y-85196800D02*
X155004800Y-84266800D01*
X155004800Y-82036800D02*
X155004800Y-82966800D01*
X155004800Y-82036800D02*
X152844800Y-82036800D01*
X155004800Y-85196800D02*
X153544800Y-85196800D01*
X133055400Y-116713000D02*
G75*
G03X133055400Y-116713000I-950000J0D01*
G01*
X180655000Y-66294000D02*
G75*
G03X180655000Y-66294000I-950000J0D01*
G01*
X139888000Y-132207000D02*
G75*
G03X139888000Y-132207000I-950000J0D01*
G01*
X155229600Y-79476600D02*
G75*
G03X155229600Y-79476600I-950000J0D01*
G01*
X181010600Y-107086400D02*
G75*
G03X181010600Y-107086400I-950000J0D01*
G01*
X184227400Y-117123978D02*
X184227400Y-116606822D01*
X185647400Y-117123978D02*
X185647400Y-116606822D01*
X146020022Y-74067600D02*
X146537178Y-74067600D01*
X146020022Y-75487600D02*
X146537178Y-75487600D01*
X146020022Y-72188000D02*
X146537178Y-72188000D01*
X146020022Y-73608000D02*
X146537178Y-73608000D01*
X138428800Y-74366622D02*
X138428800Y-74883778D01*
X137008800Y-74366622D02*
X137008800Y-74883778D01*
X176632800Y-84745822D02*
X176632800Y-85262978D01*
X178052800Y-84745822D02*
X178052800Y-85262978D01*
X148629378Y-90120400D02*
X148112222Y-90120400D01*
X148629378Y-91540400D02*
X148112222Y-91540400D01*
X148543778Y-83160800D02*
X148026622Y-83160800D01*
X148543778Y-84580800D02*
X148026622Y-84580800D01*
X181351422Y-104850000D02*
X181868578Y-104850000D01*
X181351422Y-103430000D02*
X181868578Y-103430000D01*
X181351422Y-101144000D02*
X181868578Y-101144000D01*
X181351422Y-102564000D02*
X181868578Y-102564000D01*
X148680178Y-86663600D02*
X148163022Y-86663600D01*
X148680178Y-85243600D02*
X148163022Y-85243600D01*
X146156178Y-111304000D02*
X145639022Y-111304000D01*
X146156178Y-112724000D02*
X145639022Y-112724000D01*
X138764778Y-91794400D02*
X138247622Y-91794400D01*
X138764778Y-90374400D02*
X138247622Y-90374400D01*
X138875778Y-92914400D02*
X138358622Y-92914400D01*
X138875778Y-94334400D02*
X138358622Y-94334400D01*
X148680178Y-79754800D02*
X148163022Y-79754800D01*
X148680178Y-78334800D02*
X148163022Y-78334800D01*
X146406800Y-130297422D02*
X146406800Y-130814578D01*
X147826800Y-130297422D02*
X147826800Y-130814578D01*
X143511200Y-105973378D02*
X143511200Y-105456222D01*
X144931200Y-105973378D02*
X144931200Y-105456222D01*
X141431778Y-74878000D02*
X140914622Y-74878000D01*
X141431778Y-73458000D02*
X140914622Y-73458000D01*
X135275822Y-69800400D02*
X135792978Y-69800400D01*
X135275822Y-71220400D02*
X135792978Y-71220400D01*
X158444000Y-66425578D02*
X158444000Y-65908422D01*
X157024000Y-66425578D02*
X157024000Y-65908422D01*
X148062222Y-80468400D02*
X148579378Y-80468400D01*
X148062222Y-81888400D02*
X148579378Y-81888400D01*
X142352222Y-90272800D02*
X142869378Y-90272800D01*
X142352222Y-91692800D02*
X142869378Y-91692800D01*
X165302000Y-65883022D02*
X165302000Y-66400178D01*
X163882000Y-65883022D02*
X163882000Y-66400178D01*
X163016000Y-66400178D02*
X163016000Y-65883022D01*
X161596000Y-66400178D02*
X161596000Y-65883022D01*
X146841978Y-97026800D02*
X146324822Y-97026800D01*
X146841978Y-95606800D02*
X146324822Y-95606800D01*
X146816578Y-97867400D02*
X146299422Y-97867400D01*
X146816578Y-99287400D02*
X146299422Y-99287400D01*
X147781778Y-106376400D02*
X147264622Y-106376400D01*
X147781778Y-107796400D02*
X147264622Y-107796400D01*
X147781778Y-105205600D02*
X147264622Y-105205600D01*
X147781778Y-103785600D02*
X147264622Y-103785600D01*
X148731778Y-87732800D02*
X148214622Y-87732800D01*
X148731778Y-89152800D02*
X148214622Y-89152800D01*
X155777000Y-66400178D02*
X155777000Y-65883022D01*
X154357000Y-66400178D02*
X154357000Y-65883022D01*
X183027822Y-95454400D02*
X183544978Y-95454400D01*
X183027822Y-96874400D02*
X183544978Y-96874400D01*
X183544978Y-98248400D02*
X183027822Y-98248400D01*
X183544978Y-99668400D02*
X183027822Y-99668400D01*
X178817200Y-112983778D02*
X178817200Y-112466622D01*
X180237200Y-112983778D02*
X180237200Y-112466622D01*
D10*
X184481800Y-85877400D02*
G75*
G03X184481800Y-85877400I-2250000J0D01*
G01*
X181201576Y-76498000D02*
G75*
G03X181201576Y-76498000I-1802776J0D01*
G01*
X176898800Y-78998000D02*
X176898800Y-73998000D01*
X176898800Y-73998000D02*
X181898800Y-73998000D01*
X181898800Y-73998000D02*
X181898800Y-78998000D01*
X181898800Y-78998000D02*
X176898800Y-78998000D01*
D11*
X178029800Y-131601978D02*
X178029800Y-131084822D01*
X179449800Y-131601978D02*
X179449800Y-131084822D01*
X152358400Y-67954400D02*
X152358400Y-65294400D01*
X144678400Y-67954400D02*
X152358400Y-67954400D01*
X144678400Y-65294400D02*
X152358400Y-65294400D01*
X144678400Y-67954400D02*
X144678400Y-65294400D01*
X143408400Y-67954400D02*
X142078400Y-67954400D01*
X142078400Y-67954400D02*
X142078400Y-66624400D01*
X173593800Y-85267800D02*
G75*
G03X173593800Y-85267800I-950000J0D01*
G01*
X134357200Y-128053800D02*
X134357200Y-127543800D01*
X130167200Y-128053800D02*
X129907200Y-128053800D01*
X134357200Y-128053800D02*
X132447200Y-128053800D01*
X134357200Y-120173800D02*
X134357200Y-120683800D01*
X132447200Y-120173800D02*
X134357200Y-120173800D01*
X129907200Y-120173800D02*
X130167200Y-120173800D01*
X177618600Y-66789200D02*
X177618600Y-64504200D01*
X177618600Y-64504200D02*
X176148600Y-64504200D01*
X176148600Y-64504200D02*
X176148600Y-66789200D01*
X173710200Y-64504200D02*
X173710200Y-66789200D01*
X175180200Y-64504200D02*
X173710200Y-64504200D01*
X175180200Y-66789200D02*
X175180200Y-64504200D01*
X172741800Y-66789200D02*
X172741800Y-64504200D01*
X172741800Y-64504200D02*
X171271800Y-64504200D01*
X171271800Y-64504200D02*
X171271800Y-66789200D01*
X146463278Y-71398200D02*
X145946122Y-71398200D01*
X146463278Y-69978200D02*
X145946122Y-69978200D01*
X133016300Y-87659978D02*
X133016300Y-87142822D01*
X131596300Y-87659978D02*
X131596300Y-87142822D01*
X140048722Y-71118800D02*
X140565878Y-71118800D01*
X140048722Y-69698800D02*
X140565878Y-69698800D01*
X146098522Y-76125000D02*
X146615678Y-76125000D01*
X146098522Y-77545000D02*
X146615678Y-77545000D01*
X132640000Y-94434922D02*
X132640000Y-94952078D01*
X134060000Y-94434922D02*
X134060000Y-94952078D01*
X131951800Y-94430322D02*
X131951800Y-94947478D01*
X130531800Y-94430322D02*
X130531800Y-94947478D01*
X169196278Y-70179000D02*
X168679122Y-70179000D01*
X169196278Y-68759000D02*
X168679122Y-68759000D01*
X175516278Y-68886000D02*
X174999122Y-68886000D01*
X175516278Y-70306000D02*
X174999122Y-70306000D01*
D10*
X150155380Y-110689904D02*
X150964904Y-110689904D01*
X151060142Y-110642285D01*
X151107761Y-110594666D01*
X151155380Y-110499428D01*
X151155380Y-110308952D01*
X151107761Y-110213714D01*
X151060142Y-110166095D01*
X150964904Y-110118476D01*
X150155380Y-110118476D01*
X150155380Y-109166095D02*
X150155380Y-109642285D01*
X150631571Y-109689904D01*
X150583952Y-109642285D01*
X150536333Y-109547047D01*
X150536333Y-109308952D01*
X150583952Y-109213714D01*
X150631571Y-109166095D01*
X150726809Y-109118476D01*
X150964904Y-109118476D01*
X151060142Y-109166095D01*
X151107761Y-109213714D01*
X151155380Y-109308952D01*
X151155380Y-109547047D01*
X151107761Y-109642285D01*
X151060142Y-109689904D01*
D12*
X157100600Y-78681228D02*
X156900600Y-78395514D01*
X156757742Y-78681228D02*
X156757742Y-78081228D01*
X156986314Y-78081228D01*
X157043457Y-78109800D01*
X157072028Y-78138371D01*
X157100600Y-78195514D01*
X157100600Y-78281228D01*
X157072028Y-78338371D01*
X157043457Y-78366942D01*
X156986314Y-78395514D01*
X156757742Y-78395514D01*
X157672028Y-78681228D02*
X157329171Y-78681228D01*
X157500600Y-78681228D02*
X157500600Y-78081228D01*
X157443457Y-78166942D01*
X157386314Y-78224085D01*
X157329171Y-78252657D01*
X164841285Y-81748285D02*
X164812714Y-81776857D01*
X164727000Y-81805428D01*
X164669857Y-81805428D01*
X164584142Y-81776857D01*
X164527000Y-81719714D01*
X164498428Y-81662571D01*
X164469857Y-81548285D01*
X164469857Y-81462571D01*
X164498428Y-81348285D01*
X164527000Y-81291142D01*
X164584142Y-81234000D01*
X164669857Y-81205428D01*
X164727000Y-81205428D01*
X164812714Y-81234000D01*
X164841285Y-81262571D01*
X165412714Y-81805428D02*
X165069857Y-81805428D01*
X165241285Y-81805428D02*
X165241285Y-81205428D01*
X165184142Y-81291142D01*
X165127000Y-81348285D01*
X165069857Y-81376857D01*
X165612714Y-81205428D02*
X166012714Y-81205428D01*
X165755571Y-81805428D01*
X149047257Y-132107028D02*
X149047257Y-132592742D01*
X149075828Y-132649885D01*
X149104400Y-132678457D01*
X149161542Y-132707028D01*
X149275828Y-132707028D01*
X149332971Y-132678457D01*
X149361542Y-132649885D01*
X149390114Y-132592742D01*
X149390114Y-132107028D01*
X149932971Y-132307028D02*
X149932971Y-132707028D01*
X149790114Y-132078457D02*
X149647257Y-132507028D01*
X150018685Y-132507028D01*
D10*
X184250104Y-128163580D02*
X184250104Y-127163580D01*
X184631057Y-127163580D01*
X184726295Y-127211200D01*
X184773914Y-127258819D01*
X184821533Y-127354057D01*
X184821533Y-127496914D01*
X184773914Y-127592152D01*
X184726295Y-127639771D01*
X184631057Y-127687390D01*
X184250104Y-127687390D01*
X185773914Y-128163580D02*
X185202485Y-128163580D01*
X185488200Y-128163580D02*
X185488200Y-127163580D01*
X185392961Y-127306438D01*
X185297723Y-127401676D01*
X185202485Y-127449295D01*
X130391066Y-85545561D02*
X130533923Y-85593180D01*
X130772019Y-85593180D01*
X130867257Y-85545561D01*
X130914876Y-85497942D01*
X130962495Y-85402704D01*
X130962495Y-85307466D01*
X130914876Y-85212228D01*
X130867257Y-85164609D01*
X130772019Y-85116990D01*
X130581542Y-85069371D01*
X130486304Y-85021752D01*
X130438685Y-84974133D01*
X130391066Y-84878895D01*
X130391066Y-84783657D01*
X130438685Y-84688419D01*
X130486304Y-84640800D01*
X130581542Y-84593180D01*
X130819638Y-84593180D01*
X130962495Y-84640800D01*
X131295828Y-84593180D02*
X131533923Y-85593180D01*
X131724400Y-84878895D01*
X131914876Y-85593180D01*
X132152971Y-84593180D01*
X133057733Y-85593180D02*
X132486304Y-85593180D01*
X132772019Y-85593180D02*
X132772019Y-84593180D01*
X132676780Y-84736038D01*
X132581542Y-84831276D01*
X132486304Y-84878895D01*
D12*
X165137942Y-76649228D02*
X165137942Y-76049228D01*
X165366514Y-76049228D01*
X165423657Y-76077800D01*
X165452228Y-76106371D01*
X165480800Y-76163514D01*
X165480800Y-76249228D01*
X165452228Y-76306371D01*
X165423657Y-76334942D01*
X165366514Y-76363514D01*
X165137942Y-76363514D01*
X165937942Y-76334942D02*
X166023657Y-76363514D01*
X166052228Y-76392085D01*
X166080800Y-76449228D01*
X166080800Y-76534942D01*
X166052228Y-76592085D01*
X166023657Y-76620657D01*
X165966514Y-76649228D01*
X165737942Y-76649228D01*
X165737942Y-76049228D01*
X165937942Y-76049228D01*
X165995085Y-76077800D01*
X166023657Y-76106371D01*
X166052228Y-76163514D01*
X166052228Y-76220657D01*
X166023657Y-76277800D01*
X165995085Y-76306371D01*
X165937942Y-76334942D01*
X165737942Y-76334942D01*
X166652228Y-76649228D02*
X166309371Y-76649228D01*
X166480800Y-76649228D02*
X166480800Y-76049228D01*
X166423657Y-76134942D01*
X166366514Y-76192085D01*
X166309371Y-76220657D01*
X179070057Y-89638228D02*
X179070057Y-90123942D01*
X179098628Y-90181085D01*
X179127200Y-90209657D01*
X179184342Y-90238228D01*
X179298628Y-90238228D01*
X179355771Y-90209657D01*
X179384342Y-90181085D01*
X179412914Y-90123942D01*
X179412914Y-89638228D01*
X179670057Y-89695371D02*
X179698628Y-89666800D01*
X179755771Y-89638228D01*
X179898628Y-89638228D01*
X179955771Y-89666800D01*
X179984342Y-89695371D01*
X180012914Y-89752514D01*
X180012914Y-89809657D01*
X179984342Y-89895371D01*
X179641485Y-90238228D01*
X180012914Y-90238228D01*
X158877057Y-85244028D02*
X158877057Y-85729742D01*
X158905628Y-85786885D01*
X158934200Y-85815457D01*
X158991342Y-85844028D01*
X159105628Y-85844028D01*
X159162771Y-85815457D01*
X159191342Y-85786885D01*
X159219914Y-85729742D01*
X159219914Y-85244028D01*
X159448485Y-85244028D02*
X159819914Y-85244028D01*
X159619914Y-85472600D01*
X159705628Y-85472600D01*
X159762771Y-85501171D01*
X159791342Y-85529742D01*
X159819914Y-85586885D01*
X159819914Y-85729742D01*
X159791342Y-85786885D01*
X159762771Y-85815457D01*
X159705628Y-85844028D01*
X159534200Y-85844028D01*
X159477057Y-85815457D01*
X159448485Y-85786885D01*
X153468400Y-76369828D02*
X153182685Y-76369828D01*
X153182685Y-75769828D01*
X153982685Y-76369828D02*
X153639828Y-76369828D01*
X153811257Y-76369828D02*
X153811257Y-75769828D01*
X153754114Y-75855542D01*
X153696971Y-75912685D01*
X153639828Y-75941257D01*
X180608342Y-94861028D02*
X180608342Y-94261028D01*
X180751200Y-94261028D01*
X180836914Y-94289600D01*
X180894057Y-94346742D01*
X180922628Y-94403885D01*
X180951200Y-94518171D01*
X180951200Y-94603885D01*
X180922628Y-94718171D01*
X180894057Y-94775314D01*
X180836914Y-94832457D01*
X180751200Y-94861028D01*
X180608342Y-94861028D01*
X181522628Y-94861028D02*
X181179771Y-94861028D01*
X181351200Y-94861028D02*
X181351200Y-94261028D01*
X181294057Y-94346742D01*
X181236914Y-94403885D01*
X181179771Y-94432457D01*
X136423457Y-79960828D02*
X136423457Y-80446542D01*
X136452028Y-80503685D01*
X136480600Y-80532257D01*
X136537742Y-80560828D01*
X136652028Y-80560828D01*
X136709171Y-80532257D01*
X136737742Y-80503685D01*
X136766314Y-80446542D01*
X136766314Y-79960828D01*
X137366314Y-80560828D02*
X137023457Y-80560828D01*
X137194885Y-80560828D02*
X137194885Y-79960828D01*
X137137742Y-80046542D01*
X137080600Y-80103685D01*
X137023457Y-80132257D01*
D10*
X139673104Y-115260380D02*
X139673104Y-114260380D01*
X140054057Y-114260380D01*
X140149295Y-114308000D01*
X140196914Y-114355619D01*
X140244533Y-114450857D01*
X140244533Y-114593714D01*
X140196914Y-114688952D01*
X140149295Y-114736571D01*
X140054057Y-114784190D01*
X139673104Y-114784190D01*
X140577866Y-114260380D02*
X141196914Y-114260380D01*
X140863580Y-114641333D01*
X141006438Y-114641333D01*
X141101676Y-114688952D01*
X141149295Y-114736571D01*
X141196914Y-114831809D01*
X141196914Y-115069904D01*
X141149295Y-115165142D01*
X141101676Y-115212761D01*
X141006438Y-115260380D01*
X140720723Y-115260380D01*
X140625485Y-115212761D01*
X140577866Y-115165142D01*
X179906704Y-133827780D02*
X179906704Y-132827780D01*
X180287657Y-132827780D01*
X180382895Y-132875400D01*
X180430514Y-132923019D01*
X180478133Y-133018257D01*
X180478133Y-133161114D01*
X180430514Y-133256352D01*
X180382895Y-133303971D01*
X180287657Y-133351590D01*
X179906704Y-133351590D01*
X181335276Y-132827780D02*
X181144800Y-132827780D01*
X181049561Y-132875400D01*
X181001942Y-132923019D01*
X180906704Y-133065876D01*
X180859085Y-133256352D01*
X180859085Y-133637304D01*
X180906704Y-133732542D01*
X180954323Y-133780161D01*
X181049561Y-133827780D01*
X181240038Y-133827780D01*
X181335276Y-133780161D01*
X181382895Y-133732542D01*
X181430514Y-133637304D01*
X181430514Y-133399209D01*
X181382895Y-133303971D01*
X181335276Y-133256352D01*
X181240038Y-133208733D01*
X181049561Y-133208733D01*
X180954323Y-133256352D01*
X180906704Y-133303971D01*
X180859085Y-133399209D01*
X141603504Y-118943380D02*
X141603504Y-117943380D01*
X141984457Y-117943380D01*
X142079695Y-117991000D01*
X142127314Y-118038619D01*
X142174933Y-118133857D01*
X142174933Y-118276714D01*
X142127314Y-118371952D01*
X142079695Y-118419571D01*
X141984457Y-118467190D01*
X141603504Y-118467190D01*
X142555885Y-118038619D02*
X142603504Y-117991000D01*
X142698742Y-117943380D01*
X142936838Y-117943380D01*
X143032076Y-117991000D01*
X143079695Y-118038619D01*
X143127314Y-118133857D01*
X143127314Y-118229095D01*
X143079695Y-118371952D01*
X142508266Y-118943380D01*
X143127314Y-118943380D01*
D12*
X182710228Y-70619942D02*
X182795942Y-70648514D01*
X182824514Y-70677085D01*
X182853085Y-70734228D01*
X182853085Y-70819942D01*
X182824514Y-70877085D01*
X182795942Y-70905657D01*
X182738800Y-70934228D01*
X182510228Y-70934228D01*
X182510228Y-70334228D01*
X182710228Y-70334228D01*
X182767371Y-70362800D01*
X182795942Y-70391371D01*
X182824514Y-70448514D01*
X182824514Y-70505657D01*
X182795942Y-70562800D01*
X182767371Y-70591371D01*
X182710228Y-70619942D01*
X182510228Y-70619942D01*
X183081657Y-70762800D02*
X183367371Y-70762800D01*
X183024514Y-70934228D02*
X183224514Y-70334228D01*
X183424514Y-70934228D01*
X183538800Y-70334228D02*
X183881657Y-70334228D01*
X183710228Y-70934228D02*
X183710228Y-70334228D01*
X184395942Y-70934228D02*
X184053085Y-70934228D01*
X184224514Y-70934228D02*
X184224514Y-70334228D01*
X184167371Y-70419942D01*
X184110228Y-70477085D01*
X184053085Y-70505657D01*
X141606600Y-132757828D02*
X141406600Y-132472114D01*
X141263742Y-132757828D02*
X141263742Y-132157828D01*
X141492314Y-132157828D01*
X141549457Y-132186400D01*
X141578028Y-132214971D01*
X141606600Y-132272114D01*
X141606600Y-132357828D01*
X141578028Y-132414971D01*
X141549457Y-132443542D01*
X141492314Y-132472114D01*
X141263742Y-132472114D01*
X142149457Y-132157828D02*
X141863742Y-132157828D01*
X141835171Y-132443542D01*
X141863742Y-132414971D01*
X141920885Y-132386400D01*
X142063742Y-132386400D01*
X142120885Y-132414971D01*
X142149457Y-132443542D01*
X142178028Y-132500685D01*
X142178028Y-132643542D01*
X142149457Y-132700685D01*
X142120885Y-132729257D01*
X142063742Y-132757828D01*
X141920885Y-132757828D01*
X141863742Y-132729257D01*
X141835171Y-132700685D01*
X162993400Y-77081028D02*
X162793400Y-76795314D01*
X162650542Y-77081028D02*
X162650542Y-76481028D01*
X162879114Y-76481028D01*
X162936257Y-76509600D01*
X162964828Y-76538171D01*
X162993400Y-76595314D01*
X162993400Y-76681028D01*
X162964828Y-76738171D01*
X162936257Y-76766742D01*
X162879114Y-76795314D01*
X162650542Y-76795314D01*
X163507685Y-76481028D02*
X163393400Y-76481028D01*
X163336257Y-76509600D01*
X163307685Y-76538171D01*
X163250542Y-76623885D01*
X163221971Y-76738171D01*
X163221971Y-76966742D01*
X163250542Y-77023885D01*
X163279114Y-77052457D01*
X163336257Y-77081028D01*
X163450542Y-77081028D01*
X163507685Y-77052457D01*
X163536257Y-77023885D01*
X163564828Y-76966742D01*
X163564828Y-76823885D01*
X163536257Y-76766742D01*
X163507685Y-76738171D01*
X163450542Y-76709600D01*
X163336257Y-76709600D01*
X163279114Y-76738171D01*
X163250542Y-76766742D01*
X163221971Y-76823885D01*
X155284542Y-85158228D02*
X155284542Y-84558228D01*
X155427400Y-84558228D01*
X155513114Y-84586800D01*
X155570257Y-84643942D01*
X155598828Y-84701085D01*
X155627400Y-84815371D01*
X155627400Y-84901085D01*
X155598828Y-85015371D01*
X155570257Y-85072514D01*
X155513114Y-85129657D01*
X155427400Y-85158228D01*
X155284542Y-85158228D01*
X155855971Y-84615371D02*
X155884542Y-84586800D01*
X155941685Y-84558228D01*
X156084542Y-84558228D01*
X156141685Y-84586800D01*
X156170257Y-84615371D01*
X156198828Y-84672514D01*
X156198828Y-84729657D01*
X156170257Y-84815371D01*
X155827400Y-85158228D01*
X156198828Y-85158228D01*
X131348257Y-114736428D02*
X131691114Y-114736428D01*
X131519685Y-115336428D02*
X131519685Y-114736428D01*
X131891114Y-115336428D02*
X131891114Y-114736428D01*
X132119685Y-114736428D01*
X132176828Y-114765000D01*
X132205400Y-114793571D01*
X132233971Y-114850714D01*
X132233971Y-114936428D01*
X132205400Y-114993571D01*
X132176828Y-115022142D01*
X132119685Y-115050714D01*
X131891114Y-115050714D01*
X132805400Y-115336428D02*
X132462542Y-115336428D01*
X132633971Y-115336428D02*
X132633971Y-114736428D01*
X132576828Y-114822142D01*
X132519685Y-114879285D01*
X132462542Y-114907857D01*
X178922457Y-64339828D02*
X179265314Y-64339828D01*
X179093885Y-64939828D02*
X179093885Y-64339828D01*
X179465314Y-64939828D02*
X179465314Y-64339828D01*
X179693885Y-64339828D01*
X179751028Y-64368400D01*
X179779600Y-64396971D01*
X179808171Y-64454114D01*
X179808171Y-64539828D01*
X179779600Y-64596971D01*
X179751028Y-64625542D01*
X179693885Y-64654114D01*
X179465314Y-64654114D01*
X180036742Y-64396971D02*
X180065314Y-64368400D01*
X180122457Y-64339828D01*
X180265314Y-64339828D01*
X180322457Y-64368400D01*
X180351028Y-64396971D01*
X180379600Y-64454114D01*
X180379600Y-64511257D01*
X180351028Y-64596971D01*
X180008171Y-64939828D01*
X180379600Y-64939828D01*
X138180857Y-130230428D02*
X138523714Y-130230428D01*
X138352285Y-130830428D02*
X138352285Y-130230428D01*
X138723714Y-130830428D02*
X138723714Y-130230428D01*
X138952285Y-130230428D01*
X139009428Y-130259000D01*
X139038000Y-130287571D01*
X139066571Y-130344714D01*
X139066571Y-130430428D01*
X139038000Y-130487571D01*
X139009428Y-130516142D01*
X138952285Y-130544714D01*
X138723714Y-130544714D01*
X139266571Y-130230428D02*
X139638000Y-130230428D01*
X139438000Y-130459000D01*
X139523714Y-130459000D01*
X139580857Y-130487571D01*
X139609428Y-130516142D01*
X139638000Y-130573285D01*
X139638000Y-130716142D01*
X139609428Y-130773285D01*
X139580857Y-130801857D01*
X139523714Y-130830428D01*
X139352285Y-130830428D01*
X139295142Y-130801857D01*
X139266571Y-130773285D01*
X153370057Y-80722828D02*
X153712914Y-80722828D01*
X153541485Y-81322828D02*
X153541485Y-80722828D01*
X153912914Y-81322828D02*
X153912914Y-80722828D01*
X154141485Y-80722828D01*
X154198628Y-80751400D01*
X154227200Y-80779971D01*
X154255771Y-80837114D01*
X154255771Y-80922828D01*
X154227200Y-80979971D01*
X154198628Y-81008542D01*
X154141485Y-81037114D01*
X153912914Y-81037114D01*
X154770057Y-80922828D02*
X154770057Y-81322828D01*
X154627200Y-80694257D02*
X154484342Y-81122828D01*
X154855771Y-81122828D01*
X178770057Y-105335428D02*
X179112914Y-105335428D01*
X178941485Y-105935428D02*
X178941485Y-105335428D01*
X179312914Y-105935428D02*
X179312914Y-105335428D01*
X179541485Y-105335428D01*
X179598628Y-105364000D01*
X179627200Y-105392571D01*
X179655771Y-105449714D01*
X179655771Y-105535428D01*
X179627200Y-105592571D01*
X179598628Y-105621142D01*
X179541485Y-105649714D01*
X179312914Y-105649714D01*
X180198628Y-105335428D02*
X179912914Y-105335428D01*
X179884342Y-105621142D01*
X179912914Y-105592571D01*
X179970057Y-105564000D01*
X180112914Y-105564000D01*
X180170057Y-105592571D01*
X180198628Y-105621142D01*
X180227200Y-105678285D01*
X180227200Y-105821142D01*
X180198628Y-105878285D01*
X180170057Y-105906857D01*
X180112914Y-105935428D01*
X179970057Y-105935428D01*
X179912914Y-105906857D01*
X179884342Y-105878285D01*
X184399285Y-114546028D02*
X184199285Y-114260314D01*
X184056428Y-114546028D02*
X184056428Y-113946028D01*
X184285000Y-113946028D01*
X184342142Y-113974600D01*
X184370714Y-114003171D01*
X184399285Y-114060314D01*
X184399285Y-114146028D01*
X184370714Y-114203171D01*
X184342142Y-114231742D01*
X184285000Y-114260314D01*
X184056428Y-114260314D01*
X184970714Y-114546028D02*
X184627857Y-114546028D01*
X184799285Y-114546028D02*
X184799285Y-113946028D01*
X184742142Y-114031742D01*
X184685000Y-114088885D01*
X184627857Y-114117457D01*
X185199285Y-114003171D02*
X185227857Y-113974600D01*
X185285000Y-113946028D01*
X185427857Y-113946028D01*
X185485000Y-113974600D01*
X185513571Y-114003171D01*
X185542142Y-114060314D01*
X185542142Y-114117457D01*
X185513571Y-114203171D01*
X185170714Y-114546028D01*
X185542142Y-114546028D01*
X148718600Y-74763285D02*
X148690028Y-74791857D01*
X148604314Y-74820428D01*
X148547171Y-74820428D01*
X148461457Y-74791857D01*
X148404314Y-74734714D01*
X148375742Y-74677571D01*
X148347171Y-74563285D01*
X148347171Y-74477571D01*
X148375742Y-74363285D01*
X148404314Y-74306142D01*
X148461457Y-74249000D01*
X148547171Y-74220428D01*
X148604314Y-74220428D01*
X148690028Y-74249000D01*
X148718600Y-74277571D01*
X149290028Y-74820428D02*
X148947171Y-74820428D01*
X149118600Y-74820428D02*
X149118600Y-74220428D01*
X149061457Y-74306142D01*
X149004314Y-74363285D01*
X148947171Y-74391857D01*
X148642400Y-73163085D02*
X148613828Y-73191657D01*
X148528114Y-73220228D01*
X148470971Y-73220228D01*
X148385257Y-73191657D01*
X148328114Y-73134514D01*
X148299542Y-73077371D01*
X148270971Y-72963085D01*
X148270971Y-72877371D01*
X148299542Y-72763085D01*
X148328114Y-72705942D01*
X148385257Y-72648800D01*
X148470971Y-72620228D01*
X148528114Y-72620228D01*
X148613828Y-72648800D01*
X148642400Y-72677371D01*
X148870971Y-72677371D02*
X148899542Y-72648800D01*
X148956685Y-72620228D01*
X149099542Y-72620228D01*
X149156685Y-72648800D01*
X149185257Y-72677371D01*
X149213828Y-72734514D01*
X149213828Y-72791657D01*
X149185257Y-72877371D01*
X148842400Y-73220228D01*
X149213828Y-73220228D01*
X137593400Y-72680485D02*
X137564828Y-72709057D01*
X137479114Y-72737628D01*
X137421971Y-72737628D01*
X137336257Y-72709057D01*
X137279114Y-72651914D01*
X137250542Y-72594771D01*
X137221971Y-72480485D01*
X137221971Y-72394771D01*
X137250542Y-72280485D01*
X137279114Y-72223342D01*
X137336257Y-72166200D01*
X137421971Y-72137628D01*
X137479114Y-72137628D01*
X137564828Y-72166200D01*
X137593400Y-72194771D01*
X137793400Y-72137628D02*
X138164828Y-72137628D01*
X137964828Y-72366200D01*
X138050542Y-72366200D01*
X138107685Y-72394771D01*
X138136257Y-72423342D01*
X138164828Y-72480485D01*
X138164828Y-72623342D01*
X138136257Y-72680485D01*
X138107685Y-72709057D01*
X138050542Y-72737628D01*
X137879114Y-72737628D01*
X137821971Y-72709057D01*
X137793400Y-72680485D01*
X174982200Y-85075685D02*
X174953628Y-85104257D01*
X174867914Y-85132828D01*
X174810771Y-85132828D01*
X174725057Y-85104257D01*
X174667914Y-85047114D01*
X174639342Y-84989971D01*
X174610771Y-84875685D01*
X174610771Y-84789971D01*
X174639342Y-84675685D01*
X174667914Y-84618542D01*
X174725057Y-84561400D01*
X174810771Y-84532828D01*
X174867914Y-84532828D01*
X174953628Y-84561400D01*
X174982200Y-84589971D01*
X175496485Y-84732828D02*
X175496485Y-85132828D01*
X175353628Y-84504257D02*
X175210771Y-84932828D01*
X175582200Y-84932828D01*
X150801400Y-90866885D02*
X150772828Y-90895457D01*
X150687114Y-90924028D01*
X150629971Y-90924028D01*
X150544257Y-90895457D01*
X150487114Y-90838314D01*
X150458542Y-90781171D01*
X150429971Y-90666885D01*
X150429971Y-90581171D01*
X150458542Y-90466885D01*
X150487114Y-90409742D01*
X150544257Y-90352600D01*
X150629971Y-90324028D01*
X150687114Y-90324028D01*
X150772828Y-90352600D01*
X150801400Y-90381171D01*
X151344257Y-90324028D02*
X151058542Y-90324028D01*
X151029971Y-90609742D01*
X151058542Y-90581171D01*
X151115685Y-90552600D01*
X151258542Y-90552600D01*
X151315685Y-90581171D01*
X151344257Y-90609742D01*
X151372828Y-90666885D01*
X151372828Y-90809742D01*
X151344257Y-90866885D01*
X151315685Y-90895457D01*
X151258542Y-90924028D01*
X151115685Y-90924028D01*
X151058542Y-90895457D01*
X151029971Y-90866885D01*
X150623600Y-84110485D02*
X150595028Y-84139057D01*
X150509314Y-84167628D01*
X150452171Y-84167628D01*
X150366457Y-84139057D01*
X150309314Y-84081914D01*
X150280742Y-84024771D01*
X150252171Y-83910485D01*
X150252171Y-83824771D01*
X150280742Y-83710485D01*
X150309314Y-83653342D01*
X150366457Y-83596200D01*
X150452171Y-83567628D01*
X150509314Y-83567628D01*
X150595028Y-83596200D01*
X150623600Y-83624771D01*
X151137885Y-83567628D02*
X151023600Y-83567628D01*
X150966457Y-83596200D01*
X150937885Y-83624771D01*
X150880742Y-83710485D01*
X150852171Y-83824771D01*
X150852171Y-84053342D01*
X150880742Y-84110485D01*
X150909314Y-84139057D01*
X150966457Y-84167628D01*
X151080742Y-84167628D01*
X151137885Y-84139057D01*
X151166457Y-84110485D01*
X151195028Y-84053342D01*
X151195028Y-83910485D01*
X151166457Y-83853342D01*
X151137885Y-83824771D01*
X151080742Y-83796200D01*
X150966457Y-83796200D01*
X150909314Y-83824771D01*
X150880742Y-83853342D01*
X150852171Y-83910485D01*
X184583400Y-104557485D02*
X184554828Y-104586057D01*
X184469114Y-104614628D01*
X184411971Y-104614628D01*
X184326257Y-104586057D01*
X184269114Y-104528914D01*
X184240542Y-104471771D01*
X184211971Y-104357485D01*
X184211971Y-104271771D01*
X184240542Y-104157485D01*
X184269114Y-104100342D01*
X184326257Y-104043200D01*
X184411971Y-104014628D01*
X184469114Y-104014628D01*
X184554828Y-104043200D01*
X184583400Y-104071771D01*
X184783400Y-104014628D02*
X185183400Y-104014628D01*
X184926257Y-104614628D01*
X184888200Y-102169885D02*
X184859628Y-102198457D01*
X184773914Y-102227028D01*
X184716771Y-102227028D01*
X184631057Y-102198457D01*
X184573914Y-102141314D01*
X184545342Y-102084171D01*
X184516771Y-101969885D01*
X184516771Y-101884171D01*
X184545342Y-101769885D01*
X184573914Y-101712742D01*
X184631057Y-101655600D01*
X184716771Y-101627028D01*
X184773914Y-101627028D01*
X184859628Y-101655600D01*
X184888200Y-101684171D01*
X185231057Y-101884171D02*
X185173914Y-101855600D01*
X185145342Y-101827028D01*
X185116771Y-101769885D01*
X185116771Y-101741314D01*
X185145342Y-101684171D01*
X185173914Y-101655600D01*
X185231057Y-101627028D01*
X185345342Y-101627028D01*
X185402485Y-101655600D01*
X185431057Y-101684171D01*
X185459628Y-101741314D01*
X185459628Y-101769885D01*
X185431057Y-101827028D01*
X185402485Y-101855600D01*
X185345342Y-101884171D01*
X185231057Y-101884171D01*
X185173914Y-101912742D01*
X185145342Y-101941314D01*
X185116771Y-101998457D01*
X185116771Y-102112742D01*
X185145342Y-102169885D01*
X185173914Y-102198457D01*
X185231057Y-102227028D01*
X185345342Y-102227028D01*
X185402485Y-102198457D01*
X185431057Y-102169885D01*
X185459628Y-102112742D01*
X185459628Y-101998457D01*
X185431057Y-101941314D01*
X185402485Y-101912742D01*
X185345342Y-101884171D01*
X150598200Y-86167885D02*
X150569628Y-86196457D01*
X150483914Y-86225028D01*
X150426771Y-86225028D01*
X150341057Y-86196457D01*
X150283914Y-86139314D01*
X150255342Y-86082171D01*
X150226771Y-85967885D01*
X150226771Y-85882171D01*
X150255342Y-85767885D01*
X150283914Y-85710742D01*
X150341057Y-85653600D01*
X150426771Y-85625028D01*
X150483914Y-85625028D01*
X150569628Y-85653600D01*
X150598200Y-85682171D01*
X150883914Y-86225028D02*
X150998200Y-86225028D01*
X151055342Y-86196457D01*
X151083914Y-86167885D01*
X151141057Y-86082171D01*
X151169628Y-85967885D01*
X151169628Y-85739314D01*
X151141057Y-85682171D01*
X151112485Y-85653600D01*
X151055342Y-85625028D01*
X150941057Y-85625028D01*
X150883914Y-85653600D01*
X150855342Y-85682171D01*
X150826771Y-85739314D01*
X150826771Y-85882171D01*
X150855342Y-85939314D01*
X150883914Y-85967885D01*
X150941057Y-85996457D01*
X151055342Y-85996457D01*
X151112485Y-85967885D01*
X151141057Y-85939314D01*
X151169628Y-85882171D01*
X145511885Y-110678885D02*
X145483314Y-110707457D01*
X145397600Y-110736028D01*
X145340457Y-110736028D01*
X145254742Y-110707457D01*
X145197600Y-110650314D01*
X145169028Y-110593171D01*
X145140457Y-110478885D01*
X145140457Y-110393171D01*
X145169028Y-110278885D01*
X145197600Y-110221742D01*
X145254742Y-110164600D01*
X145340457Y-110136028D01*
X145397600Y-110136028D01*
X145483314Y-110164600D01*
X145511885Y-110193171D01*
X146083314Y-110736028D02*
X145740457Y-110736028D01*
X145911885Y-110736028D02*
X145911885Y-110136028D01*
X145854742Y-110221742D01*
X145797600Y-110278885D01*
X145740457Y-110307457D01*
X146454742Y-110136028D02*
X146511885Y-110136028D01*
X146569028Y-110164600D01*
X146597600Y-110193171D01*
X146626171Y-110250314D01*
X146654742Y-110364600D01*
X146654742Y-110507457D01*
X146626171Y-110621742D01*
X146597600Y-110678885D01*
X146569028Y-110707457D01*
X146511885Y-110736028D01*
X146454742Y-110736028D01*
X146397600Y-110707457D01*
X146369028Y-110678885D01*
X146340457Y-110621742D01*
X146311885Y-110507457D01*
X146311885Y-110364600D01*
X146340457Y-110250314D01*
X146369028Y-110193171D01*
X146397600Y-110164600D01*
X146454742Y-110136028D01*
X137993485Y-89952485D02*
X137964914Y-89981057D01*
X137879200Y-90009628D01*
X137822057Y-90009628D01*
X137736342Y-89981057D01*
X137679200Y-89923914D01*
X137650628Y-89866771D01*
X137622057Y-89752485D01*
X137622057Y-89666771D01*
X137650628Y-89552485D01*
X137679200Y-89495342D01*
X137736342Y-89438200D01*
X137822057Y-89409628D01*
X137879200Y-89409628D01*
X137964914Y-89438200D01*
X137993485Y-89466771D01*
X138564914Y-90009628D02*
X138222057Y-90009628D01*
X138393485Y-90009628D02*
X138393485Y-89409628D01*
X138336342Y-89495342D01*
X138279200Y-89552485D01*
X138222057Y-89581057D01*
X139136342Y-90009628D02*
X138793485Y-90009628D01*
X138964914Y-90009628D02*
X138964914Y-89409628D01*
X138907771Y-89495342D01*
X138850628Y-89552485D01*
X138793485Y-89581057D01*
X138231485Y-95488685D02*
X138202914Y-95517257D01*
X138117200Y-95545828D01*
X138060057Y-95545828D01*
X137974342Y-95517257D01*
X137917200Y-95460114D01*
X137888628Y-95402971D01*
X137860057Y-95288685D01*
X137860057Y-95202971D01*
X137888628Y-95088685D01*
X137917200Y-95031542D01*
X137974342Y-94974400D01*
X138060057Y-94945828D01*
X138117200Y-94945828D01*
X138202914Y-94974400D01*
X138231485Y-95002971D01*
X138802914Y-95545828D02*
X138460057Y-95545828D01*
X138631485Y-95545828D02*
X138631485Y-94945828D01*
X138574342Y-95031542D01*
X138517200Y-95088685D01*
X138460057Y-95117257D01*
X139031485Y-95002971D02*
X139060057Y-94974400D01*
X139117200Y-94945828D01*
X139260057Y-94945828D01*
X139317200Y-94974400D01*
X139345771Y-95002971D01*
X139374342Y-95060114D01*
X139374342Y-95117257D01*
X139345771Y-95202971D01*
X139002914Y-95545828D01*
X139374342Y-95545828D01*
X145105485Y-79386085D02*
X145076914Y-79414657D01*
X144991200Y-79443228D01*
X144934057Y-79443228D01*
X144848342Y-79414657D01*
X144791200Y-79357514D01*
X144762628Y-79300371D01*
X144734057Y-79186085D01*
X144734057Y-79100371D01*
X144762628Y-78986085D01*
X144791200Y-78928942D01*
X144848342Y-78871800D01*
X144934057Y-78843228D01*
X144991200Y-78843228D01*
X145076914Y-78871800D01*
X145105485Y-78900371D01*
X145676914Y-79443228D02*
X145334057Y-79443228D01*
X145505485Y-79443228D02*
X145505485Y-78843228D01*
X145448342Y-78928942D01*
X145391200Y-78986085D01*
X145334057Y-79014657D01*
X145876914Y-78843228D02*
X146248342Y-78843228D01*
X146048342Y-79071800D01*
X146134057Y-79071800D01*
X146191200Y-79100371D01*
X146219771Y-79128942D01*
X146248342Y-79186085D01*
X146248342Y-79328942D01*
X146219771Y-79386085D01*
X146191200Y-79414657D01*
X146134057Y-79443228D01*
X145962628Y-79443228D01*
X145905485Y-79414657D01*
X145876914Y-79386085D01*
X146781885Y-133056285D02*
X146753314Y-133084857D01*
X146667600Y-133113428D01*
X146610457Y-133113428D01*
X146524742Y-133084857D01*
X146467600Y-133027714D01*
X146439028Y-132970571D01*
X146410457Y-132856285D01*
X146410457Y-132770571D01*
X146439028Y-132656285D01*
X146467600Y-132599142D01*
X146524742Y-132542000D01*
X146610457Y-132513428D01*
X146667600Y-132513428D01*
X146753314Y-132542000D01*
X146781885Y-132570571D01*
X147353314Y-133113428D02*
X147010457Y-133113428D01*
X147181885Y-133113428D02*
X147181885Y-132513428D01*
X147124742Y-132599142D01*
X147067600Y-132656285D01*
X147010457Y-132684857D01*
X147867600Y-132713428D02*
X147867600Y-133113428D01*
X147724742Y-132484857D02*
X147581885Y-132913428D01*
X147953314Y-132913428D01*
X143657685Y-103744685D02*
X143629114Y-103773257D01*
X143543400Y-103801828D01*
X143486257Y-103801828D01*
X143400542Y-103773257D01*
X143343400Y-103716114D01*
X143314828Y-103658971D01*
X143286257Y-103544685D01*
X143286257Y-103458971D01*
X143314828Y-103344685D01*
X143343400Y-103287542D01*
X143400542Y-103230400D01*
X143486257Y-103201828D01*
X143543400Y-103201828D01*
X143629114Y-103230400D01*
X143657685Y-103258971D01*
X144229114Y-103801828D02*
X143886257Y-103801828D01*
X144057685Y-103801828D02*
X144057685Y-103201828D01*
X144000542Y-103287542D01*
X143943400Y-103344685D01*
X143886257Y-103373257D01*
X144771971Y-103201828D02*
X144486257Y-103201828D01*
X144457685Y-103487542D01*
X144486257Y-103458971D01*
X144543400Y-103430400D01*
X144686257Y-103430400D01*
X144743400Y-103458971D01*
X144771971Y-103487542D01*
X144800542Y-103544685D01*
X144800542Y-103687542D01*
X144771971Y-103744685D01*
X144743400Y-103773257D01*
X144686257Y-103801828D01*
X144543400Y-103801828D01*
X144486257Y-103773257D01*
X144457685Y-103744685D01*
X141073200Y-72788428D02*
X140873200Y-72502714D01*
X140730342Y-72788428D02*
X140730342Y-72188428D01*
X140958914Y-72188428D01*
X141016057Y-72217000D01*
X141044628Y-72245571D01*
X141073200Y-72302714D01*
X141073200Y-72388428D01*
X141044628Y-72445571D01*
X141016057Y-72474142D01*
X140958914Y-72502714D01*
X140730342Y-72502714D01*
X141301771Y-72245571D02*
X141330342Y-72217000D01*
X141387485Y-72188428D01*
X141530342Y-72188428D01*
X141587485Y-72217000D01*
X141616057Y-72245571D01*
X141644628Y-72302714D01*
X141644628Y-72359857D01*
X141616057Y-72445571D01*
X141273200Y-72788428D01*
X141644628Y-72788428D01*
X135434400Y-69131828D02*
X135234400Y-68846114D01*
X135091542Y-69131828D02*
X135091542Y-68531828D01*
X135320114Y-68531828D01*
X135377257Y-68560400D01*
X135405828Y-68588971D01*
X135434400Y-68646114D01*
X135434400Y-68731828D01*
X135405828Y-68788971D01*
X135377257Y-68817542D01*
X135320114Y-68846114D01*
X135091542Y-68846114D01*
X135634400Y-68531828D02*
X136005828Y-68531828D01*
X135805828Y-68760400D01*
X135891542Y-68760400D01*
X135948685Y-68788971D01*
X135977257Y-68817542D01*
X136005828Y-68874685D01*
X136005828Y-69017542D01*
X135977257Y-69074685D01*
X135948685Y-69103257D01*
X135891542Y-69131828D01*
X135720114Y-69131828D01*
X135662971Y-69103257D01*
X135634400Y-69074685D01*
X158243600Y-68902228D02*
X158043600Y-68616514D01*
X157900742Y-68902228D02*
X157900742Y-68302228D01*
X158129314Y-68302228D01*
X158186457Y-68330800D01*
X158215028Y-68359371D01*
X158243600Y-68416514D01*
X158243600Y-68502228D01*
X158215028Y-68559371D01*
X158186457Y-68587942D01*
X158129314Y-68616514D01*
X157900742Y-68616514D01*
X158757885Y-68502228D02*
X158757885Y-68902228D01*
X158615028Y-68273657D02*
X158472171Y-68702228D01*
X158843600Y-68702228D01*
X150699800Y-81373628D02*
X150499800Y-81087914D01*
X150356942Y-81373628D02*
X150356942Y-80773628D01*
X150585514Y-80773628D01*
X150642657Y-80802200D01*
X150671228Y-80830771D01*
X150699800Y-80887914D01*
X150699800Y-80973628D01*
X150671228Y-81030771D01*
X150642657Y-81059342D01*
X150585514Y-81087914D01*
X150356942Y-81087914D01*
X150899800Y-80773628D02*
X151299800Y-80773628D01*
X151042657Y-81373628D01*
X142419400Y-89933428D02*
X142219400Y-89647714D01*
X142076542Y-89933428D02*
X142076542Y-89333428D01*
X142305114Y-89333428D01*
X142362257Y-89362000D01*
X142390828Y-89390571D01*
X142419400Y-89447714D01*
X142419400Y-89533428D01*
X142390828Y-89590571D01*
X142362257Y-89619142D01*
X142305114Y-89647714D01*
X142076542Y-89647714D01*
X142762257Y-89590571D02*
X142705114Y-89562000D01*
X142676542Y-89533428D01*
X142647971Y-89476285D01*
X142647971Y-89447714D01*
X142676542Y-89390571D01*
X142705114Y-89362000D01*
X142762257Y-89333428D01*
X142876542Y-89333428D01*
X142933685Y-89362000D01*
X142962257Y-89390571D01*
X142990828Y-89447714D01*
X142990828Y-89476285D01*
X142962257Y-89533428D01*
X142933685Y-89562000D01*
X142876542Y-89590571D01*
X142762257Y-89590571D01*
X142705114Y-89619142D01*
X142676542Y-89647714D01*
X142647971Y-89704857D01*
X142647971Y-89819142D01*
X142676542Y-89876285D01*
X142705114Y-89904857D01*
X142762257Y-89933428D01*
X142876542Y-89933428D01*
X142933685Y-89904857D01*
X142962257Y-89876285D01*
X142990828Y-89819142D01*
X142990828Y-89704857D01*
X142962257Y-89647714D01*
X142933685Y-89619142D01*
X142876542Y-89590571D01*
X166162085Y-66794028D02*
X165962085Y-66508314D01*
X165819228Y-66794028D02*
X165819228Y-66194028D01*
X166047800Y-66194028D01*
X166104942Y-66222600D01*
X166133514Y-66251171D01*
X166162085Y-66308314D01*
X166162085Y-66394028D01*
X166133514Y-66451171D01*
X166104942Y-66479742D01*
X166047800Y-66508314D01*
X165819228Y-66508314D01*
X166733514Y-66794028D02*
X166390657Y-66794028D01*
X166562085Y-66794028D02*
X166562085Y-66194028D01*
X166504942Y-66279742D01*
X166447800Y-66336885D01*
X166390657Y-66365457D01*
X167104942Y-66194028D02*
X167162085Y-66194028D01*
X167219228Y-66222600D01*
X167247800Y-66251171D01*
X167276371Y-66308314D01*
X167304942Y-66422600D01*
X167304942Y-66565457D01*
X167276371Y-66679742D01*
X167247800Y-66736885D01*
X167219228Y-66765457D01*
X167162085Y-66794028D01*
X167104942Y-66794028D01*
X167047800Y-66765457D01*
X167019228Y-66736885D01*
X166990657Y-66679742D01*
X166962085Y-66565457D01*
X166962085Y-66422600D01*
X166990657Y-66308314D01*
X167019228Y-66251171D01*
X167047800Y-66222600D01*
X167104942Y-66194028D01*
X162021885Y-69130828D02*
X161821885Y-68845114D01*
X161679028Y-69130828D02*
X161679028Y-68530828D01*
X161907600Y-68530828D01*
X161964742Y-68559400D01*
X161993314Y-68587971D01*
X162021885Y-68645114D01*
X162021885Y-68730828D01*
X161993314Y-68787971D01*
X161964742Y-68816542D01*
X161907600Y-68845114D01*
X161679028Y-68845114D01*
X162593314Y-69130828D02*
X162250457Y-69130828D01*
X162421885Y-69130828D02*
X162421885Y-68530828D01*
X162364742Y-68616542D01*
X162307600Y-68673685D01*
X162250457Y-68702257D01*
X163164742Y-69130828D02*
X162821885Y-69130828D01*
X162993314Y-69130828D02*
X162993314Y-68530828D01*
X162936171Y-68616542D01*
X162879028Y-68673685D01*
X162821885Y-68702257D01*
X143479885Y-96740628D02*
X143279885Y-96454914D01*
X143137028Y-96740628D02*
X143137028Y-96140628D01*
X143365600Y-96140628D01*
X143422742Y-96169200D01*
X143451314Y-96197771D01*
X143479885Y-96254914D01*
X143479885Y-96340628D01*
X143451314Y-96397771D01*
X143422742Y-96426342D01*
X143365600Y-96454914D01*
X143137028Y-96454914D01*
X144051314Y-96740628D02*
X143708457Y-96740628D01*
X143879885Y-96740628D02*
X143879885Y-96140628D01*
X143822742Y-96226342D01*
X143765600Y-96283485D01*
X143708457Y-96312057D01*
X144565600Y-96140628D02*
X144451314Y-96140628D01*
X144394171Y-96169200D01*
X144365600Y-96197771D01*
X144308457Y-96283485D01*
X144279885Y-96397771D01*
X144279885Y-96626342D01*
X144308457Y-96683485D01*
X144337028Y-96712057D01*
X144394171Y-96740628D01*
X144508457Y-96740628D01*
X144565600Y-96712057D01*
X144594171Y-96683485D01*
X144622742Y-96626342D01*
X144622742Y-96483485D01*
X144594171Y-96426342D01*
X144565600Y-96397771D01*
X144508457Y-96369200D01*
X144394171Y-96369200D01*
X144337028Y-96397771D01*
X144308457Y-96426342D01*
X144279885Y-96483485D01*
X143479885Y-98975828D02*
X143279885Y-98690114D01*
X143137028Y-98975828D02*
X143137028Y-98375828D01*
X143365600Y-98375828D01*
X143422742Y-98404400D01*
X143451314Y-98432971D01*
X143479885Y-98490114D01*
X143479885Y-98575828D01*
X143451314Y-98632971D01*
X143422742Y-98661542D01*
X143365600Y-98690114D01*
X143137028Y-98690114D01*
X144051314Y-98975828D02*
X143708457Y-98975828D01*
X143879885Y-98975828D02*
X143879885Y-98375828D01*
X143822742Y-98461542D01*
X143765600Y-98518685D01*
X143708457Y-98547257D01*
X144251314Y-98375828D02*
X144651314Y-98375828D01*
X144394171Y-98975828D01*
X149880685Y-107332428D02*
X149680685Y-107046714D01*
X149537828Y-107332428D02*
X149537828Y-106732428D01*
X149766400Y-106732428D01*
X149823542Y-106761000D01*
X149852114Y-106789571D01*
X149880685Y-106846714D01*
X149880685Y-106932428D01*
X149852114Y-106989571D01*
X149823542Y-107018142D01*
X149766400Y-107046714D01*
X149537828Y-107046714D01*
X150452114Y-107332428D02*
X150109257Y-107332428D01*
X150280685Y-107332428D02*
X150280685Y-106732428D01*
X150223542Y-106818142D01*
X150166400Y-106875285D01*
X150109257Y-106903857D01*
X150794971Y-106989571D02*
X150737828Y-106961000D01*
X150709257Y-106932428D01*
X150680685Y-106875285D01*
X150680685Y-106846714D01*
X150709257Y-106789571D01*
X150737828Y-106761000D01*
X150794971Y-106732428D01*
X150909257Y-106732428D01*
X150966400Y-106761000D01*
X150994971Y-106789571D01*
X151023542Y-106846714D01*
X151023542Y-106875285D01*
X150994971Y-106932428D01*
X150966400Y-106961000D01*
X150909257Y-106989571D01*
X150794971Y-106989571D01*
X150737828Y-107018142D01*
X150709257Y-107046714D01*
X150680685Y-107103857D01*
X150680685Y-107218142D01*
X150709257Y-107275285D01*
X150737828Y-107303857D01*
X150794971Y-107332428D01*
X150909257Y-107332428D01*
X150966400Y-107303857D01*
X150994971Y-107275285D01*
X151023542Y-107218142D01*
X151023542Y-107103857D01*
X150994971Y-107046714D01*
X150966400Y-107018142D01*
X150909257Y-106989571D01*
X150007685Y-104716228D02*
X149807685Y-104430514D01*
X149664828Y-104716228D02*
X149664828Y-104116228D01*
X149893400Y-104116228D01*
X149950542Y-104144800D01*
X149979114Y-104173371D01*
X150007685Y-104230514D01*
X150007685Y-104316228D01*
X149979114Y-104373371D01*
X149950542Y-104401942D01*
X149893400Y-104430514D01*
X149664828Y-104430514D01*
X150579114Y-104716228D02*
X150236257Y-104716228D01*
X150407685Y-104716228D02*
X150407685Y-104116228D01*
X150350542Y-104201942D01*
X150293400Y-104259085D01*
X150236257Y-104287657D01*
X150864828Y-104716228D02*
X150979114Y-104716228D01*
X151036257Y-104687657D01*
X151064828Y-104659085D01*
X151121971Y-104573371D01*
X151150542Y-104459085D01*
X151150542Y-104230514D01*
X151121971Y-104173371D01*
X151093400Y-104144800D01*
X151036257Y-104116228D01*
X150921971Y-104116228D01*
X150864828Y-104144800D01*
X150836257Y-104173371D01*
X150807685Y-104230514D01*
X150807685Y-104373371D01*
X150836257Y-104430514D01*
X150864828Y-104459085D01*
X150921971Y-104487657D01*
X151036257Y-104487657D01*
X151093400Y-104459085D01*
X151121971Y-104430514D01*
X151150542Y-104373371D01*
X150718885Y-88688828D02*
X150518885Y-88403114D01*
X150376028Y-88688828D02*
X150376028Y-88088828D01*
X150604600Y-88088828D01*
X150661742Y-88117400D01*
X150690314Y-88145971D01*
X150718885Y-88203114D01*
X150718885Y-88288828D01*
X150690314Y-88345971D01*
X150661742Y-88374542D01*
X150604600Y-88403114D01*
X150376028Y-88403114D01*
X150947457Y-88145971D02*
X150976028Y-88117400D01*
X151033171Y-88088828D01*
X151176028Y-88088828D01*
X151233171Y-88117400D01*
X151261742Y-88145971D01*
X151290314Y-88203114D01*
X151290314Y-88260257D01*
X151261742Y-88345971D01*
X150918885Y-88688828D01*
X151290314Y-88688828D01*
X151661742Y-88088828D02*
X151718885Y-88088828D01*
X151776028Y-88117400D01*
X151804600Y-88145971D01*
X151833171Y-88203114D01*
X151861742Y-88317400D01*
X151861742Y-88460257D01*
X151833171Y-88574542D01*
X151804600Y-88631685D01*
X151776028Y-88660257D01*
X151718885Y-88688828D01*
X151661742Y-88688828D01*
X151604600Y-88660257D01*
X151576028Y-88631685D01*
X151547457Y-88574542D01*
X151518885Y-88460257D01*
X151518885Y-88317400D01*
X151547457Y-88203114D01*
X151576028Y-88145971D01*
X151604600Y-88117400D01*
X151661742Y-88088828D01*
X154757485Y-69384828D02*
X154557485Y-69099114D01*
X154414628Y-69384828D02*
X154414628Y-68784828D01*
X154643200Y-68784828D01*
X154700342Y-68813400D01*
X154728914Y-68841971D01*
X154757485Y-68899114D01*
X154757485Y-68984828D01*
X154728914Y-69041971D01*
X154700342Y-69070542D01*
X154643200Y-69099114D01*
X154414628Y-69099114D01*
X154986057Y-68841971D02*
X155014628Y-68813400D01*
X155071771Y-68784828D01*
X155214628Y-68784828D01*
X155271771Y-68813400D01*
X155300342Y-68841971D01*
X155328914Y-68899114D01*
X155328914Y-68956257D01*
X155300342Y-69041971D01*
X154957485Y-69384828D01*
X155328914Y-69384828D01*
X155557485Y-68841971D02*
X155586057Y-68813400D01*
X155643200Y-68784828D01*
X155786057Y-68784828D01*
X155843200Y-68813400D01*
X155871771Y-68841971D01*
X155900342Y-68899114D01*
X155900342Y-68956257D01*
X155871771Y-69041971D01*
X155528914Y-69384828D01*
X155900342Y-69384828D01*
X182900685Y-94785828D02*
X182700685Y-94500114D01*
X182557828Y-94785828D02*
X182557828Y-94185828D01*
X182786400Y-94185828D01*
X182843542Y-94214400D01*
X182872114Y-94242971D01*
X182900685Y-94300114D01*
X182900685Y-94385828D01*
X182872114Y-94442971D01*
X182843542Y-94471542D01*
X182786400Y-94500114D01*
X182557828Y-94500114D01*
X183129257Y-94242971D02*
X183157828Y-94214400D01*
X183214971Y-94185828D01*
X183357828Y-94185828D01*
X183414971Y-94214400D01*
X183443542Y-94242971D01*
X183472114Y-94300114D01*
X183472114Y-94357257D01*
X183443542Y-94442971D01*
X183100685Y-94785828D01*
X183472114Y-94785828D01*
X183986400Y-94185828D02*
X183872114Y-94185828D01*
X183814971Y-94214400D01*
X183786400Y-94242971D01*
X183729257Y-94328685D01*
X183700685Y-94442971D01*
X183700685Y-94671542D01*
X183729257Y-94728685D01*
X183757828Y-94757257D01*
X183814971Y-94785828D01*
X183929257Y-94785828D01*
X183986400Y-94757257D01*
X184014971Y-94728685D01*
X184043542Y-94671542D01*
X184043542Y-94528685D01*
X184014971Y-94471542D01*
X183986400Y-94442971D01*
X183929257Y-94414400D01*
X183814971Y-94414400D01*
X183757828Y-94442971D01*
X183729257Y-94471542D01*
X183700685Y-94528685D01*
X184856485Y-100703028D02*
X184656485Y-100417314D01*
X184513628Y-100703028D02*
X184513628Y-100103028D01*
X184742200Y-100103028D01*
X184799342Y-100131600D01*
X184827914Y-100160171D01*
X184856485Y-100217314D01*
X184856485Y-100303028D01*
X184827914Y-100360171D01*
X184799342Y-100388742D01*
X184742200Y-100417314D01*
X184513628Y-100417314D01*
X185085057Y-100160171D02*
X185113628Y-100131600D01*
X185170771Y-100103028D01*
X185313628Y-100103028D01*
X185370771Y-100131600D01*
X185399342Y-100160171D01*
X185427914Y-100217314D01*
X185427914Y-100274457D01*
X185399342Y-100360171D01*
X185056485Y-100703028D01*
X185427914Y-100703028D01*
X185627914Y-100103028D02*
X186027914Y-100103028D01*
X185770771Y-100703028D01*
X177211085Y-112152085D02*
X177182514Y-112180657D01*
X177096800Y-112209228D01*
X177039657Y-112209228D01*
X176953942Y-112180657D01*
X176896800Y-112123514D01*
X176868228Y-112066371D01*
X176839657Y-111952085D01*
X176839657Y-111866371D01*
X176868228Y-111752085D01*
X176896800Y-111694942D01*
X176953942Y-111637800D01*
X177039657Y-111609228D01*
X177096800Y-111609228D01*
X177182514Y-111637800D01*
X177211085Y-111666371D01*
X177782514Y-112209228D02*
X177439657Y-112209228D01*
X177611085Y-112209228D02*
X177611085Y-111609228D01*
X177553942Y-111694942D01*
X177496800Y-111752085D01*
X177439657Y-111780657D01*
X178296800Y-111609228D02*
X178182514Y-111609228D01*
X178125371Y-111637800D01*
X178096800Y-111666371D01*
X178039657Y-111752085D01*
X178011085Y-111866371D01*
X178011085Y-112094942D01*
X178039657Y-112152085D01*
X178068228Y-112180657D01*
X178125371Y-112209228D01*
X178239657Y-112209228D01*
X178296800Y-112180657D01*
X178325371Y-112152085D01*
X178353942Y-112094942D01*
X178353942Y-111952085D01*
X178325371Y-111894942D01*
X178296800Y-111866371D01*
X178239657Y-111837800D01*
X178125371Y-111837800D01*
X178068228Y-111866371D01*
X178039657Y-111894942D01*
X178011085Y-111952085D01*
X183923000Y-81348228D02*
X183637285Y-81348228D01*
X183637285Y-80748228D01*
X184094428Y-80805371D02*
X184123000Y-80776800D01*
X184180142Y-80748228D01*
X184323000Y-80748228D01*
X184380142Y-80776800D01*
X184408714Y-80805371D01*
X184437285Y-80862514D01*
X184437285Y-80919657D01*
X184408714Y-81005371D01*
X184065857Y-81348228D01*
X184437285Y-81348228D01*
X174974342Y-76801628D02*
X174974342Y-76201628D01*
X175202914Y-76201628D01*
X175260057Y-76230200D01*
X175288628Y-76258771D01*
X175317200Y-76315914D01*
X175317200Y-76401628D01*
X175288628Y-76458771D01*
X175260057Y-76487342D01*
X175202914Y-76515914D01*
X174974342Y-76515914D01*
X175774342Y-76487342D02*
X175860057Y-76515914D01*
X175888628Y-76544485D01*
X175917200Y-76601628D01*
X175917200Y-76687342D01*
X175888628Y-76744485D01*
X175860057Y-76773057D01*
X175802914Y-76801628D01*
X175574342Y-76801628D01*
X175574342Y-76201628D01*
X175774342Y-76201628D01*
X175831485Y-76230200D01*
X175860057Y-76258771D01*
X175888628Y-76315914D01*
X175888628Y-76373057D01*
X175860057Y-76430200D01*
X175831485Y-76458771D01*
X175774342Y-76487342D01*
X175574342Y-76487342D01*
X176145771Y-76258771D02*
X176174342Y-76230200D01*
X176231485Y-76201628D01*
X176374342Y-76201628D01*
X176431485Y-76230200D01*
X176460057Y-76258771D01*
X176488628Y-76315914D01*
X176488628Y-76373057D01*
X176460057Y-76458771D01*
X176117200Y-76801628D01*
X176488628Y-76801628D01*
X178030200Y-133824628D02*
X177830200Y-133538914D01*
X177687342Y-133824628D02*
X177687342Y-133224628D01*
X177915914Y-133224628D01*
X177973057Y-133253200D01*
X178001628Y-133281771D01*
X178030200Y-133338914D01*
X178030200Y-133424628D01*
X178001628Y-133481771D01*
X177973057Y-133510342D01*
X177915914Y-133538914D01*
X177687342Y-133538914D01*
X178315914Y-133824628D02*
X178430200Y-133824628D01*
X178487342Y-133796057D01*
X178515914Y-133767485D01*
X178573057Y-133681771D01*
X178601628Y-133567485D01*
X178601628Y-133338914D01*
X178573057Y-133281771D01*
X178544485Y-133253200D01*
X178487342Y-133224628D01*
X178373057Y-133224628D01*
X178315914Y-133253200D01*
X178287342Y-133281771D01*
X178258771Y-133338914D01*
X178258771Y-133481771D01*
X178287342Y-133538914D01*
X178315914Y-133567485D01*
X178373057Y-133596057D01*
X178487342Y-133596057D01*
X178544485Y-133567485D01*
X178573057Y-133538914D01*
X178601628Y-133481771D01*
D10*
X139723904Y-65781180D02*
X139723904Y-64781180D01*
X140104857Y-64781180D01*
X140200095Y-64828800D01*
X140247714Y-64876419D01*
X140295333Y-64971657D01*
X140295333Y-65114514D01*
X140247714Y-65209752D01*
X140200095Y-65257371D01*
X140104857Y-65304990D01*
X139723904Y-65304990D01*
X140628666Y-64781180D02*
X141295333Y-64781180D01*
X140866761Y-65781180D01*
D12*
X171886657Y-83291228D02*
X172229514Y-83291228D01*
X172058085Y-83891228D02*
X172058085Y-83291228D01*
X172429514Y-83891228D02*
X172429514Y-83291228D01*
X172658085Y-83291228D01*
X172715228Y-83319800D01*
X172743800Y-83348371D01*
X172772371Y-83405514D01*
X172772371Y-83491228D01*
X172743800Y-83548371D01*
X172715228Y-83576942D01*
X172658085Y-83605514D01*
X172429514Y-83605514D01*
X173286657Y-83291228D02*
X173172371Y-83291228D01*
X173115228Y-83319800D01*
X173086657Y-83348371D01*
X173029514Y-83434085D01*
X173000942Y-83548371D01*
X173000942Y-83776942D01*
X173029514Y-83834085D01*
X173058085Y-83862657D01*
X173115228Y-83891228D01*
X173229514Y-83891228D01*
X173286657Y-83862657D01*
X173315228Y-83834085D01*
X173343800Y-83776942D01*
X173343800Y-83634085D01*
X173315228Y-83576942D01*
X173286657Y-83548371D01*
X173229514Y-83519800D01*
X173115228Y-83519800D01*
X173058085Y-83548371D01*
X173029514Y-83576942D01*
X173000942Y-83634085D01*
D10*
X130579904Y-130246380D02*
X130579904Y-129246380D01*
X130960857Y-129246380D01*
X131056095Y-129294000D01*
X131103714Y-129341619D01*
X131151333Y-129436857D01*
X131151333Y-129579714D01*
X131103714Y-129674952D01*
X131056095Y-129722571D01*
X130960857Y-129770190D01*
X130579904Y-129770190D01*
X132008476Y-129579714D02*
X132008476Y-130246380D01*
X131770380Y-129198761D02*
X131532285Y-129913047D01*
X132151333Y-129913047D01*
D12*
X176290371Y-63949228D02*
X176004657Y-63949228D01*
X176004657Y-63349228D01*
X176490371Y-63634942D02*
X176690371Y-63634942D01*
X176776085Y-63949228D02*
X176490371Y-63949228D01*
X176490371Y-63349228D01*
X176776085Y-63349228D01*
X177033228Y-63949228D02*
X177033228Y-63349228D01*
X177176085Y-63349228D01*
X177261800Y-63377800D01*
X177318942Y-63434942D01*
X177347514Y-63492085D01*
X177376085Y-63606371D01*
X177376085Y-63692085D01*
X177347514Y-63806371D01*
X177318942Y-63863514D01*
X177261800Y-63920657D01*
X177176085Y-63949228D01*
X177033228Y-63949228D01*
X177947514Y-63949228D02*
X177604657Y-63949228D01*
X177776085Y-63949228D02*
X177776085Y-63349228D01*
X177718942Y-63434942D01*
X177661800Y-63492085D01*
X177604657Y-63520657D01*
X173750371Y-63949228D02*
X173464657Y-63949228D01*
X173464657Y-63349228D01*
X173950371Y-63634942D02*
X174150371Y-63634942D01*
X174236085Y-63949228D02*
X173950371Y-63949228D01*
X173950371Y-63349228D01*
X174236085Y-63349228D01*
X174493228Y-63949228D02*
X174493228Y-63349228D01*
X174636085Y-63349228D01*
X174721800Y-63377800D01*
X174778942Y-63434942D01*
X174807514Y-63492085D01*
X174836085Y-63606371D01*
X174836085Y-63692085D01*
X174807514Y-63806371D01*
X174778942Y-63863514D01*
X174721800Y-63920657D01*
X174636085Y-63949228D01*
X174493228Y-63949228D01*
X175064657Y-63406371D02*
X175093228Y-63377800D01*
X175150371Y-63349228D01*
X175293228Y-63349228D01*
X175350371Y-63377800D01*
X175378942Y-63406371D01*
X175407514Y-63463514D01*
X175407514Y-63520657D01*
X175378942Y-63606371D01*
X175036085Y-63949228D01*
X175407514Y-63949228D01*
X171057971Y-63949228D02*
X170772257Y-63949228D01*
X170772257Y-63349228D01*
X171257971Y-63634942D02*
X171457971Y-63634942D01*
X171543685Y-63949228D02*
X171257971Y-63949228D01*
X171257971Y-63349228D01*
X171543685Y-63349228D01*
X171800828Y-63949228D02*
X171800828Y-63349228D01*
X171943685Y-63349228D01*
X172029400Y-63377800D01*
X172086542Y-63434942D01*
X172115114Y-63492085D01*
X172143685Y-63606371D01*
X172143685Y-63692085D01*
X172115114Y-63806371D01*
X172086542Y-63863514D01*
X172029400Y-63920657D01*
X171943685Y-63949228D01*
X171800828Y-63949228D01*
X172343685Y-63349228D02*
X172715114Y-63349228D01*
X172515114Y-63577800D01*
X172600828Y-63577800D01*
X172657971Y-63606371D01*
X172686542Y-63634942D01*
X172715114Y-63692085D01*
X172715114Y-63834942D01*
X172686542Y-63892085D01*
X172657971Y-63920657D01*
X172600828Y-63949228D01*
X172429400Y-63949228D01*
X172372257Y-63920657D01*
X172343685Y-63892085D01*
X144038685Y-69588028D02*
X143838685Y-69302314D01*
X143695828Y-69588028D02*
X143695828Y-68988028D01*
X143924400Y-68988028D01*
X143981542Y-69016600D01*
X144010114Y-69045171D01*
X144038685Y-69102314D01*
X144038685Y-69188028D01*
X144010114Y-69245171D01*
X143981542Y-69273742D01*
X143924400Y-69302314D01*
X143695828Y-69302314D01*
X144610114Y-69588028D02*
X144267257Y-69588028D01*
X144438685Y-69588028D02*
X144438685Y-68988028D01*
X144381542Y-69073742D01*
X144324400Y-69130885D01*
X144267257Y-69159457D01*
X144810114Y-68988028D02*
X145181542Y-68988028D01*
X144981542Y-69216600D01*
X145067257Y-69216600D01*
X145124400Y-69245171D01*
X145152971Y-69273742D01*
X145181542Y-69330885D01*
X145181542Y-69473742D01*
X145152971Y-69530885D01*
X145124400Y-69559457D01*
X145067257Y-69588028D01*
X144895828Y-69588028D01*
X144838685Y-69559457D01*
X144810114Y-69530885D01*
X132024485Y-90035028D02*
X131824485Y-89749314D01*
X131681628Y-90035028D02*
X131681628Y-89435028D01*
X131910200Y-89435028D01*
X131967342Y-89463600D01*
X131995914Y-89492171D01*
X132024485Y-89549314D01*
X132024485Y-89635028D01*
X131995914Y-89692171D01*
X131967342Y-89720742D01*
X131910200Y-89749314D01*
X131681628Y-89749314D01*
X132224485Y-89435028D02*
X132595914Y-89435028D01*
X132395914Y-89663600D01*
X132481628Y-89663600D01*
X132538771Y-89692171D01*
X132567342Y-89720742D01*
X132595914Y-89777885D01*
X132595914Y-89920742D01*
X132567342Y-89977885D01*
X132538771Y-90006457D01*
X132481628Y-90035028D01*
X132310200Y-90035028D01*
X132253057Y-90006457D01*
X132224485Y-89977885D01*
X132967342Y-89435028D02*
X133024485Y-89435028D01*
X133081628Y-89463600D01*
X133110200Y-89492171D01*
X133138771Y-89549314D01*
X133167342Y-89663600D01*
X133167342Y-89806457D01*
X133138771Y-89920742D01*
X133110200Y-89977885D01*
X133081628Y-90006457D01*
X133024485Y-90035028D01*
X132967342Y-90035028D01*
X132910200Y-90006457D01*
X132881628Y-89977885D01*
X132853057Y-89920742D01*
X132824485Y-89806457D01*
X132824485Y-89663600D01*
X132853057Y-89549314D01*
X132881628Y-89492171D01*
X132910200Y-89463600D01*
X132967342Y-89435028D01*
X139921585Y-69030228D02*
X139721585Y-68744514D01*
X139578728Y-69030228D02*
X139578728Y-68430228D01*
X139807300Y-68430228D01*
X139864442Y-68458800D01*
X139893014Y-68487371D01*
X139921585Y-68544514D01*
X139921585Y-68630228D01*
X139893014Y-68687371D01*
X139864442Y-68715942D01*
X139807300Y-68744514D01*
X139578728Y-68744514D01*
X140121585Y-68430228D02*
X140493014Y-68430228D01*
X140293014Y-68658800D01*
X140378728Y-68658800D01*
X140435871Y-68687371D01*
X140464442Y-68715942D01*
X140493014Y-68773085D01*
X140493014Y-68915942D01*
X140464442Y-68973085D01*
X140435871Y-69001657D01*
X140378728Y-69030228D01*
X140207300Y-69030228D01*
X140150157Y-69001657D01*
X140121585Y-68973085D01*
X141064442Y-69030228D02*
X140721585Y-69030228D01*
X140893014Y-69030228D02*
X140893014Y-68430228D01*
X140835871Y-68515942D01*
X140778728Y-68573085D01*
X140721585Y-68601657D01*
X143251285Y-76319028D02*
X143051285Y-76033314D01*
X142908428Y-76319028D02*
X142908428Y-75719028D01*
X143137000Y-75719028D01*
X143194142Y-75747600D01*
X143222714Y-75776171D01*
X143251285Y-75833314D01*
X143251285Y-75919028D01*
X143222714Y-75976171D01*
X143194142Y-76004742D01*
X143137000Y-76033314D01*
X142908428Y-76033314D01*
X143451285Y-75719028D02*
X143822714Y-75719028D01*
X143622714Y-75947600D01*
X143708428Y-75947600D01*
X143765571Y-75976171D01*
X143794142Y-76004742D01*
X143822714Y-76061885D01*
X143822714Y-76204742D01*
X143794142Y-76261885D01*
X143765571Y-76290457D01*
X143708428Y-76319028D01*
X143537000Y-76319028D01*
X143479857Y-76290457D01*
X143451285Y-76261885D01*
X144051285Y-75776171D02*
X144079857Y-75747600D01*
X144137000Y-75719028D01*
X144279857Y-75719028D01*
X144337000Y-75747600D01*
X144365571Y-75776171D01*
X144394142Y-75833314D01*
X144394142Y-75890457D01*
X144365571Y-75976171D01*
X144022714Y-76319028D01*
X144394142Y-76319028D01*
X133319885Y-97655028D02*
X133119885Y-97369314D01*
X132977028Y-97655028D02*
X132977028Y-97055028D01*
X133205600Y-97055028D01*
X133262742Y-97083600D01*
X133291314Y-97112171D01*
X133319885Y-97169314D01*
X133319885Y-97255028D01*
X133291314Y-97312171D01*
X133262742Y-97340742D01*
X133205600Y-97369314D01*
X132977028Y-97369314D01*
X133519885Y-97055028D02*
X133891314Y-97055028D01*
X133691314Y-97283600D01*
X133777028Y-97283600D01*
X133834171Y-97312171D01*
X133862742Y-97340742D01*
X133891314Y-97397885D01*
X133891314Y-97540742D01*
X133862742Y-97597885D01*
X133834171Y-97626457D01*
X133777028Y-97655028D01*
X133605600Y-97655028D01*
X133548457Y-97626457D01*
X133519885Y-97597885D01*
X134091314Y-97055028D02*
X134462742Y-97055028D01*
X134262742Y-97283600D01*
X134348457Y-97283600D01*
X134405600Y-97312171D01*
X134434171Y-97340742D01*
X134462742Y-97397885D01*
X134462742Y-97540742D01*
X134434171Y-97597885D01*
X134405600Y-97626457D01*
X134348457Y-97655028D01*
X134177028Y-97655028D01*
X134119885Y-97626457D01*
X134091314Y-97597885D01*
X131008485Y-97528028D02*
X130808485Y-97242314D01*
X130665628Y-97528028D02*
X130665628Y-96928028D01*
X130894200Y-96928028D01*
X130951342Y-96956600D01*
X130979914Y-96985171D01*
X131008485Y-97042314D01*
X131008485Y-97128028D01*
X130979914Y-97185171D01*
X130951342Y-97213742D01*
X130894200Y-97242314D01*
X130665628Y-97242314D01*
X131208485Y-96928028D02*
X131579914Y-96928028D01*
X131379914Y-97156600D01*
X131465628Y-97156600D01*
X131522771Y-97185171D01*
X131551342Y-97213742D01*
X131579914Y-97270885D01*
X131579914Y-97413742D01*
X131551342Y-97470885D01*
X131522771Y-97499457D01*
X131465628Y-97528028D01*
X131294200Y-97528028D01*
X131237057Y-97499457D01*
X131208485Y-97470885D01*
X132094200Y-97128028D02*
X132094200Y-97528028D01*
X131951342Y-96899457D02*
X131808485Y-97328028D01*
X132179914Y-97328028D01*
X168498885Y-68394228D02*
X168298885Y-68108514D01*
X168156028Y-68394228D02*
X168156028Y-67794228D01*
X168384600Y-67794228D01*
X168441742Y-67822800D01*
X168470314Y-67851371D01*
X168498885Y-67908514D01*
X168498885Y-67994228D01*
X168470314Y-68051371D01*
X168441742Y-68079942D01*
X168384600Y-68108514D01*
X168156028Y-68108514D01*
X168698885Y-67794228D02*
X169070314Y-67794228D01*
X168870314Y-68022800D01*
X168956028Y-68022800D01*
X169013171Y-68051371D01*
X169041742Y-68079942D01*
X169070314Y-68137085D01*
X169070314Y-68279942D01*
X169041742Y-68337085D01*
X169013171Y-68365657D01*
X168956028Y-68394228D01*
X168784600Y-68394228D01*
X168727457Y-68365657D01*
X168698885Y-68337085D01*
X169613171Y-67794228D02*
X169327457Y-67794228D01*
X169298885Y-68079942D01*
X169327457Y-68051371D01*
X169384600Y-68022800D01*
X169527457Y-68022800D01*
X169584600Y-68051371D01*
X169613171Y-68079942D01*
X169641742Y-68137085D01*
X169641742Y-68279942D01*
X169613171Y-68337085D01*
X169584600Y-68365657D01*
X169527457Y-68394228D01*
X169384600Y-68394228D01*
X169327457Y-68365657D01*
X169298885Y-68337085D01*
X174848885Y-71467628D02*
X174648885Y-71181914D01*
X174506028Y-71467628D02*
X174506028Y-70867628D01*
X174734600Y-70867628D01*
X174791742Y-70896200D01*
X174820314Y-70924771D01*
X174848885Y-70981914D01*
X174848885Y-71067628D01*
X174820314Y-71124771D01*
X174791742Y-71153342D01*
X174734600Y-71181914D01*
X174506028Y-71181914D01*
X175048885Y-70867628D02*
X175420314Y-70867628D01*
X175220314Y-71096200D01*
X175306028Y-71096200D01*
X175363171Y-71124771D01*
X175391742Y-71153342D01*
X175420314Y-71210485D01*
X175420314Y-71353342D01*
X175391742Y-71410485D01*
X175363171Y-71439057D01*
X175306028Y-71467628D01*
X175134600Y-71467628D01*
X175077457Y-71439057D01*
X175048885Y-71410485D01*
X175934600Y-70867628D02*
X175820314Y-70867628D01*
X175763171Y-70896200D01*
X175734600Y-70924771D01*
X175677457Y-71010485D01*
X175648885Y-71124771D01*
X175648885Y-71353342D01*
X175677457Y-71410485D01*
X175706028Y-71439057D01*
X175763171Y-71467628D01*
X175877457Y-71467628D01*
X175934600Y-71439057D01*
X175963171Y-71410485D01*
X175991742Y-71353342D01*
X175991742Y-71210485D01*
X175963171Y-71153342D01*
X175934600Y-71124771D01*
X175877457Y-71096200D01*
X175763171Y-71096200D01*
X175706028Y-71124771D01*
X175677457Y-71153342D01*
X175648885Y-71210485D01*
D13*
G36*
X142591305Y-129275795D02*
G01*
X137105633Y-129275795D01*
X137154981Y-120639795D01*
X142591305Y-120639795D01*
X142591305Y-129275795D01*
X142591305Y-129275795D01*
G37*
X142591305Y-129275795D02*
X137105633Y-129275795D01*
X137154981Y-120639795D01*
X142591305Y-120639795D01*
X142591305Y-129275795D01*
M02*
