G04 #@! TF.GenerationSoftware,KiCad,Pcbnew,(6.0.0-rc1-dev-1413-ga48e89956)*
G04 #@! TF.CreationDate,2019-10-25T09:50:34-06:00
G04 #@! TF.ProjectId,HAT_ver_5.1,4841545f-7665-4725-9f35-2e312e6b6963,5.1.1*
G04 #@! TF.SameCoordinates,Original*
G04 #@! TF.FileFunction,Paste,Top*
G04 #@! TF.FilePolarity,Positive*
%FSLAX46Y46*%
G04 Gerber Fmt 4.6, Leading zero omitted, Abs format (unit mm)*
G04 Created by KiCad (PCBNEW (6.0.0-rc1-dev-1413-ga48e89956)) date Friday, October 25, 2019 at 09:50:34 AM*
%MOMM*%
%LPD*%
G04 APERTURE LIST*
%ADD10C,0.100000*%
%ADD11C,0.975000*%
%ADD12O,2.000000X1.000000*%
%ADD13R,6.400000X6.400000*%
%ADD14C,1.800000*%
%ADD15R,1.400000X1.600000*%
%ADD16R,1.200000X0.600000*%
%ADD17R,1.800000X5.700000*%
%ADD18R,1.220000X1.250000*%
%ADD19R,0.610000X0.190000*%
%ADD20R,0.190000X0.610000*%
%ADD21R,0.194000X0.626000*%
%ADD22R,0.600750X0.600750*%
%ADD23R,0.900000X0.800000*%
%ADD24R,1.380000X0.450000*%
%ADD25R,1.550000X1.500000*%
%ADD26C,0.875000*%
G04 APERTURE END LIST*
D10*
G36*
X158181742Y-79006374D02*
G01*
X158205403Y-79009884D01*
X158228607Y-79015696D01*
X158251129Y-79023754D01*
X158272753Y-79033982D01*
X158293270Y-79046279D01*
X158312483Y-79060529D01*
X158330207Y-79076593D01*
X158346271Y-79094317D01*
X158360521Y-79113530D01*
X158372818Y-79134047D01*
X158383046Y-79155671D01*
X158391104Y-79178193D01*
X158396916Y-79201397D01*
X158400426Y-79225058D01*
X158401600Y-79248950D01*
X158401600Y-80161450D01*
X158400426Y-80185342D01*
X158396916Y-80209003D01*
X158391104Y-80232207D01*
X158383046Y-80254729D01*
X158372818Y-80276353D01*
X158360521Y-80296870D01*
X158346271Y-80316083D01*
X158330207Y-80333807D01*
X158312483Y-80349871D01*
X158293270Y-80364121D01*
X158272753Y-80376418D01*
X158251129Y-80386646D01*
X158228607Y-80394704D01*
X158205403Y-80400516D01*
X158181742Y-80404026D01*
X158157850Y-80405200D01*
X157670350Y-80405200D01*
X157646458Y-80404026D01*
X157622797Y-80400516D01*
X157599593Y-80394704D01*
X157577071Y-80386646D01*
X157555447Y-80376418D01*
X157534930Y-80364121D01*
X157515717Y-80349871D01*
X157497993Y-80333807D01*
X157481929Y-80316083D01*
X157467679Y-80296870D01*
X157455382Y-80276353D01*
X157445154Y-80254729D01*
X157437096Y-80232207D01*
X157431284Y-80209003D01*
X157427774Y-80185342D01*
X157426600Y-80161450D01*
X157426600Y-79248950D01*
X157427774Y-79225058D01*
X157431284Y-79201397D01*
X157437096Y-79178193D01*
X157445154Y-79155671D01*
X157455382Y-79134047D01*
X157467679Y-79113530D01*
X157481929Y-79094317D01*
X157497993Y-79076593D01*
X157515717Y-79060529D01*
X157534930Y-79046279D01*
X157555447Y-79033982D01*
X157577071Y-79023754D01*
X157599593Y-79015696D01*
X157622797Y-79009884D01*
X157646458Y-79006374D01*
X157670350Y-79005200D01*
X158157850Y-79005200D01*
X158181742Y-79006374D01*
X158181742Y-79006374D01*
G37*
D11*
X157914100Y-79705200D03*
D10*
G36*
X160056742Y-79006374D02*
G01*
X160080403Y-79009884D01*
X160103607Y-79015696D01*
X160126129Y-79023754D01*
X160147753Y-79033982D01*
X160168270Y-79046279D01*
X160187483Y-79060529D01*
X160205207Y-79076593D01*
X160221271Y-79094317D01*
X160235521Y-79113530D01*
X160247818Y-79134047D01*
X160258046Y-79155671D01*
X160266104Y-79178193D01*
X160271916Y-79201397D01*
X160275426Y-79225058D01*
X160276600Y-79248950D01*
X160276600Y-80161450D01*
X160275426Y-80185342D01*
X160271916Y-80209003D01*
X160266104Y-80232207D01*
X160258046Y-80254729D01*
X160247818Y-80276353D01*
X160235521Y-80296870D01*
X160221271Y-80316083D01*
X160205207Y-80333807D01*
X160187483Y-80349871D01*
X160168270Y-80364121D01*
X160147753Y-80376418D01*
X160126129Y-80386646D01*
X160103607Y-80394704D01*
X160080403Y-80400516D01*
X160056742Y-80404026D01*
X160032850Y-80405200D01*
X159545350Y-80405200D01*
X159521458Y-80404026D01*
X159497797Y-80400516D01*
X159474593Y-80394704D01*
X159452071Y-80386646D01*
X159430447Y-80376418D01*
X159409930Y-80364121D01*
X159390717Y-80349871D01*
X159372993Y-80333807D01*
X159356929Y-80316083D01*
X159342679Y-80296870D01*
X159330382Y-80276353D01*
X159320154Y-80254729D01*
X159312096Y-80232207D01*
X159306284Y-80209003D01*
X159302774Y-80185342D01*
X159301600Y-80161450D01*
X159301600Y-79248950D01*
X159302774Y-79225058D01*
X159306284Y-79201397D01*
X159312096Y-79178193D01*
X159320154Y-79155671D01*
X159330382Y-79134047D01*
X159342679Y-79113530D01*
X159356929Y-79094317D01*
X159372993Y-79076593D01*
X159390717Y-79060529D01*
X159409930Y-79046279D01*
X159430447Y-79033982D01*
X159452071Y-79023754D01*
X159474593Y-79015696D01*
X159497797Y-79009884D01*
X159521458Y-79006374D01*
X159545350Y-79005200D01*
X160032850Y-79005200D01*
X160056742Y-79006374D01*
X160056742Y-79006374D01*
G37*
D11*
X159789100Y-79705200D03*
D10*
G36*
X165808742Y-77821874D02*
G01*
X165832403Y-77825384D01*
X165855607Y-77831196D01*
X165878129Y-77839254D01*
X165899753Y-77849482D01*
X165920270Y-77861779D01*
X165939483Y-77876029D01*
X165957207Y-77892093D01*
X165973271Y-77909817D01*
X165987521Y-77929030D01*
X165999818Y-77949547D01*
X166010046Y-77971171D01*
X166018104Y-77993693D01*
X166023916Y-78016897D01*
X166027426Y-78040558D01*
X166028600Y-78064450D01*
X166028600Y-78551950D01*
X166027426Y-78575842D01*
X166023916Y-78599503D01*
X166018104Y-78622707D01*
X166010046Y-78645229D01*
X165999818Y-78666853D01*
X165987521Y-78687370D01*
X165973271Y-78706583D01*
X165957207Y-78724307D01*
X165939483Y-78740371D01*
X165920270Y-78754621D01*
X165899753Y-78766918D01*
X165878129Y-78777146D01*
X165855607Y-78785204D01*
X165832403Y-78791016D01*
X165808742Y-78794526D01*
X165784850Y-78795700D01*
X164872350Y-78795700D01*
X164848458Y-78794526D01*
X164824797Y-78791016D01*
X164801593Y-78785204D01*
X164779071Y-78777146D01*
X164757447Y-78766918D01*
X164736930Y-78754621D01*
X164717717Y-78740371D01*
X164699993Y-78724307D01*
X164683929Y-78706583D01*
X164669679Y-78687370D01*
X164657382Y-78666853D01*
X164647154Y-78645229D01*
X164639096Y-78622707D01*
X164633284Y-78599503D01*
X164629774Y-78575842D01*
X164628600Y-78551950D01*
X164628600Y-78064450D01*
X164629774Y-78040558D01*
X164633284Y-78016897D01*
X164639096Y-77993693D01*
X164647154Y-77971171D01*
X164657382Y-77949547D01*
X164669679Y-77929030D01*
X164683929Y-77909817D01*
X164699993Y-77892093D01*
X164717717Y-77876029D01*
X164736930Y-77861779D01*
X164757447Y-77849482D01*
X164779071Y-77839254D01*
X164801593Y-77831196D01*
X164824797Y-77825384D01*
X164848458Y-77821874D01*
X164872350Y-77820700D01*
X165784850Y-77820700D01*
X165808742Y-77821874D01*
X165808742Y-77821874D01*
G37*
D11*
X165328600Y-78308200D03*
D10*
G36*
X165808742Y-79696874D02*
G01*
X165832403Y-79700384D01*
X165855607Y-79706196D01*
X165878129Y-79714254D01*
X165899753Y-79724482D01*
X165920270Y-79736779D01*
X165939483Y-79751029D01*
X165957207Y-79767093D01*
X165973271Y-79784817D01*
X165987521Y-79804030D01*
X165999818Y-79824547D01*
X166010046Y-79846171D01*
X166018104Y-79868693D01*
X166023916Y-79891897D01*
X166027426Y-79915558D01*
X166028600Y-79939450D01*
X166028600Y-80426950D01*
X166027426Y-80450842D01*
X166023916Y-80474503D01*
X166018104Y-80497707D01*
X166010046Y-80520229D01*
X165999818Y-80541853D01*
X165987521Y-80562370D01*
X165973271Y-80581583D01*
X165957207Y-80599307D01*
X165939483Y-80615371D01*
X165920270Y-80629621D01*
X165899753Y-80641918D01*
X165878129Y-80652146D01*
X165855607Y-80660204D01*
X165832403Y-80666016D01*
X165808742Y-80669526D01*
X165784850Y-80670700D01*
X164872350Y-80670700D01*
X164848458Y-80669526D01*
X164824797Y-80666016D01*
X164801593Y-80660204D01*
X164779071Y-80652146D01*
X164757447Y-80641918D01*
X164736930Y-80629621D01*
X164717717Y-80615371D01*
X164699993Y-80599307D01*
X164683929Y-80581583D01*
X164669679Y-80562370D01*
X164657382Y-80541853D01*
X164647154Y-80520229D01*
X164639096Y-80497707D01*
X164633284Y-80474503D01*
X164629774Y-80450842D01*
X164628600Y-80426950D01*
X164628600Y-79939450D01*
X164629774Y-79915558D01*
X164633284Y-79891897D01*
X164639096Y-79868693D01*
X164647154Y-79846171D01*
X164657382Y-79824547D01*
X164669679Y-79804030D01*
X164683929Y-79784817D01*
X164699993Y-79767093D01*
X164717717Y-79751029D01*
X164736930Y-79736779D01*
X164757447Y-79724482D01*
X164779071Y-79714254D01*
X164801593Y-79706196D01*
X164824797Y-79700384D01*
X164848458Y-79696874D01*
X164872350Y-79695700D01*
X165784850Y-79695700D01*
X165808742Y-79696874D01*
X165808742Y-79696874D01*
G37*
D11*
X165328600Y-80183200D03*
D12*
X148602800Y-117478800D03*
X148602800Y-119478800D03*
X148602800Y-121478800D03*
X148602800Y-123478800D03*
X148602800Y-125478800D03*
X148602800Y-127478800D03*
X175602800Y-128128800D03*
X175602800Y-116828800D03*
X175602800Y-118328800D03*
X175602800Y-119828800D03*
X175602800Y-125128800D03*
X175602800Y-126628800D03*
D13*
X158102800Y-120178800D03*
D14*
X167652800Y-118778800D03*
D10*
G36*
X166380008Y-118778800D02*
G01*
X167652800Y-117506008D01*
X168925592Y-118778800D01*
X167652800Y-120051592D01*
X166380008Y-118778800D01*
X166380008Y-118778800D01*
G37*
D14*
X165902800Y-126678800D03*
D10*
G36*
X164630008Y-126678800D02*
G01*
X165902800Y-125406008D01*
X167175592Y-126678800D01*
X165902800Y-127951592D01*
X164630008Y-126678800D01*
X164630008Y-126678800D01*
G37*
D15*
X167936800Y-80054000D03*
X170936800Y-80054000D03*
X167936800Y-72854000D03*
X170936800Y-72854000D03*
D16*
X181427600Y-90744000D03*
X181427600Y-91694000D03*
X181427600Y-92644000D03*
X184027600Y-92644000D03*
X184027600Y-90744000D03*
X184027600Y-91694000D03*
X157602400Y-81955600D03*
X157602400Y-82905600D03*
X157602400Y-83855600D03*
X160202400Y-83855600D03*
X160202400Y-81955600D03*
X160202400Y-82905600D03*
D17*
X160287200Y-74676000D03*
X155587200Y-74676000D03*
D18*
X179882800Y-98958400D03*
X179882800Y-95958400D03*
D19*
X137665200Y-81620000D03*
X137665200Y-82020000D03*
X137665200Y-82420000D03*
X137665200Y-82820000D03*
X137665200Y-83220000D03*
X137665200Y-83620000D03*
X137665200Y-84020000D03*
X137665200Y-84420000D03*
X137665200Y-84820000D03*
X137665200Y-85220000D03*
X137665200Y-85620000D03*
X137665200Y-86020000D03*
D20*
X138465200Y-86820000D03*
X138865200Y-86820000D03*
X139265200Y-86820000D03*
X139665200Y-86820000D03*
X140065200Y-86820000D03*
X140465200Y-86820000D03*
X140865200Y-86820000D03*
X141265200Y-86820000D03*
X141665200Y-86820000D03*
X142065200Y-86820000D03*
X142465200Y-86820000D03*
X142865200Y-86820000D03*
D19*
X143665200Y-86020000D03*
X143665200Y-85620000D03*
X143665200Y-85220000D03*
X143665200Y-84820000D03*
X143665200Y-84420000D03*
X143665200Y-84020000D03*
X143665200Y-83620000D03*
X143665200Y-83220000D03*
X143665200Y-82820000D03*
X143665200Y-82420000D03*
X143665200Y-82020000D03*
X143665200Y-81620000D03*
D20*
X142865200Y-80820000D03*
D21*
X142465200Y-80820000D03*
D20*
X142065200Y-80820000D03*
X141665200Y-80820000D03*
X141265200Y-80820000D03*
X140865200Y-80820000D03*
X140465200Y-80820000D03*
X140065200Y-80820000D03*
X139665200Y-80820000D03*
X139265200Y-80820000D03*
X138865200Y-80820000D03*
X138465200Y-80820000D03*
D22*
X142333950Y-85488750D03*
X142333950Y-84376250D03*
X142333950Y-83263750D03*
X142333950Y-82151250D03*
X141221450Y-85488750D03*
X141221450Y-84376250D03*
X141221450Y-83263750D03*
X141221450Y-82151250D03*
X140108950Y-85488750D03*
X140108950Y-84376250D03*
X140108950Y-83263750D03*
X140108950Y-82151250D03*
X138996450Y-85488750D03*
X138996450Y-84376250D03*
X138996450Y-83263750D03*
X138996450Y-82151250D03*
D10*
G36*
X144117142Y-130171274D02*
G01*
X144140803Y-130174784D01*
X144164007Y-130180596D01*
X144186529Y-130188654D01*
X144208153Y-130198882D01*
X144228670Y-130211179D01*
X144247883Y-130225429D01*
X144265607Y-130241493D01*
X144281671Y-130259217D01*
X144295921Y-130278430D01*
X144308218Y-130298947D01*
X144318446Y-130320571D01*
X144326504Y-130343093D01*
X144332316Y-130366297D01*
X144335826Y-130389958D01*
X144337000Y-130413850D01*
X144337000Y-130901350D01*
X144335826Y-130925242D01*
X144332316Y-130948903D01*
X144326504Y-130972107D01*
X144318446Y-130994629D01*
X144308218Y-131016253D01*
X144295921Y-131036770D01*
X144281671Y-131055983D01*
X144265607Y-131073707D01*
X144247883Y-131089771D01*
X144228670Y-131104021D01*
X144208153Y-131116318D01*
X144186529Y-131126546D01*
X144164007Y-131134604D01*
X144140803Y-131140416D01*
X144117142Y-131143926D01*
X144093250Y-131145100D01*
X143180750Y-131145100D01*
X143156858Y-131143926D01*
X143133197Y-131140416D01*
X143109993Y-131134604D01*
X143087471Y-131126546D01*
X143065847Y-131116318D01*
X143045330Y-131104021D01*
X143026117Y-131089771D01*
X143008393Y-131073707D01*
X142992329Y-131055983D01*
X142978079Y-131036770D01*
X142965782Y-131016253D01*
X142955554Y-130994629D01*
X142947496Y-130972107D01*
X142941684Y-130948903D01*
X142938174Y-130925242D01*
X142937000Y-130901350D01*
X142937000Y-130413850D01*
X142938174Y-130389958D01*
X142941684Y-130366297D01*
X142947496Y-130343093D01*
X142955554Y-130320571D01*
X142965782Y-130298947D01*
X142978079Y-130278430D01*
X142992329Y-130259217D01*
X143008393Y-130241493D01*
X143026117Y-130225429D01*
X143045330Y-130211179D01*
X143065847Y-130198882D01*
X143087471Y-130188654D01*
X143109993Y-130180596D01*
X143133197Y-130174784D01*
X143156858Y-130171274D01*
X143180750Y-130170100D01*
X144093250Y-130170100D01*
X144117142Y-130171274D01*
X144117142Y-130171274D01*
G37*
D11*
X143637000Y-130657600D03*
D10*
G36*
X144117142Y-132046274D02*
G01*
X144140803Y-132049784D01*
X144164007Y-132055596D01*
X144186529Y-132063654D01*
X144208153Y-132073882D01*
X144228670Y-132086179D01*
X144247883Y-132100429D01*
X144265607Y-132116493D01*
X144281671Y-132134217D01*
X144295921Y-132153430D01*
X144308218Y-132173947D01*
X144318446Y-132195571D01*
X144326504Y-132218093D01*
X144332316Y-132241297D01*
X144335826Y-132264958D01*
X144337000Y-132288850D01*
X144337000Y-132776350D01*
X144335826Y-132800242D01*
X144332316Y-132823903D01*
X144326504Y-132847107D01*
X144318446Y-132869629D01*
X144308218Y-132891253D01*
X144295921Y-132911770D01*
X144281671Y-132930983D01*
X144265607Y-132948707D01*
X144247883Y-132964771D01*
X144228670Y-132979021D01*
X144208153Y-132991318D01*
X144186529Y-133001546D01*
X144164007Y-133009604D01*
X144140803Y-133015416D01*
X144117142Y-133018926D01*
X144093250Y-133020100D01*
X143180750Y-133020100D01*
X143156858Y-133018926D01*
X143133197Y-133015416D01*
X143109993Y-133009604D01*
X143087471Y-133001546D01*
X143065847Y-132991318D01*
X143045330Y-132979021D01*
X143026117Y-132964771D01*
X143008393Y-132948707D01*
X142992329Y-132930983D01*
X142978079Y-132911770D01*
X142965782Y-132891253D01*
X142955554Y-132869629D01*
X142947496Y-132847107D01*
X142941684Y-132823903D01*
X142938174Y-132800242D01*
X142937000Y-132776350D01*
X142937000Y-132288850D01*
X142938174Y-132264958D01*
X142941684Y-132241297D01*
X142947496Y-132218093D01*
X142955554Y-132195571D01*
X142965782Y-132173947D01*
X142978079Y-132153430D01*
X142992329Y-132134217D01*
X143008393Y-132116493D01*
X143026117Y-132100429D01*
X143045330Y-132086179D01*
X143065847Y-132073882D01*
X143087471Y-132063654D01*
X143109993Y-132055596D01*
X143133197Y-132049784D01*
X143156858Y-132046274D01*
X143180750Y-132045100D01*
X144093250Y-132045100D01*
X144117142Y-132046274D01*
X144117142Y-132046274D01*
G37*
D11*
X143637000Y-132532600D03*
D10*
G36*
X163649742Y-77796474D02*
G01*
X163673403Y-77799984D01*
X163696607Y-77805796D01*
X163719129Y-77813854D01*
X163740753Y-77824082D01*
X163761270Y-77836379D01*
X163780483Y-77850629D01*
X163798207Y-77866693D01*
X163814271Y-77884417D01*
X163828521Y-77903630D01*
X163840818Y-77924147D01*
X163851046Y-77945771D01*
X163859104Y-77968293D01*
X163864916Y-77991497D01*
X163868426Y-78015158D01*
X163869600Y-78039050D01*
X163869600Y-78526550D01*
X163868426Y-78550442D01*
X163864916Y-78574103D01*
X163859104Y-78597307D01*
X163851046Y-78619829D01*
X163840818Y-78641453D01*
X163828521Y-78661970D01*
X163814271Y-78681183D01*
X163798207Y-78698907D01*
X163780483Y-78714971D01*
X163761270Y-78729221D01*
X163740753Y-78741518D01*
X163719129Y-78751746D01*
X163696607Y-78759804D01*
X163673403Y-78765616D01*
X163649742Y-78769126D01*
X163625850Y-78770300D01*
X162713350Y-78770300D01*
X162689458Y-78769126D01*
X162665797Y-78765616D01*
X162642593Y-78759804D01*
X162620071Y-78751746D01*
X162598447Y-78741518D01*
X162577930Y-78729221D01*
X162558717Y-78714971D01*
X162540993Y-78698907D01*
X162524929Y-78681183D01*
X162510679Y-78661970D01*
X162498382Y-78641453D01*
X162488154Y-78619829D01*
X162480096Y-78597307D01*
X162474284Y-78574103D01*
X162470774Y-78550442D01*
X162469600Y-78526550D01*
X162469600Y-78039050D01*
X162470774Y-78015158D01*
X162474284Y-77991497D01*
X162480096Y-77968293D01*
X162488154Y-77945771D01*
X162498382Y-77924147D01*
X162510679Y-77903630D01*
X162524929Y-77884417D01*
X162540993Y-77866693D01*
X162558717Y-77850629D01*
X162577930Y-77836379D01*
X162598447Y-77824082D01*
X162620071Y-77813854D01*
X162642593Y-77805796D01*
X162665797Y-77799984D01*
X162689458Y-77796474D01*
X162713350Y-77795300D01*
X163625850Y-77795300D01*
X163649742Y-77796474D01*
X163649742Y-77796474D01*
G37*
D11*
X163169600Y-78282800D03*
D10*
G36*
X163649742Y-79671474D02*
G01*
X163673403Y-79674984D01*
X163696607Y-79680796D01*
X163719129Y-79688854D01*
X163740753Y-79699082D01*
X163761270Y-79711379D01*
X163780483Y-79725629D01*
X163798207Y-79741693D01*
X163814271Y-79759417D01*
X163828521Y-79778630D01*
X163840818Y-79799147D01*
X163851046Y-79820771D01*
X163859104Y-79843293D01*
X163864916Y-79866497D01*
X163868426Y-79890158D01*
X163869600Y-79914050D01*
X163869600Y-80401550D01*
X163868426Y-80425442D01*
X163864916Y-80449103D01*
X163859104Y-80472307D01*
X163851046Y-80494829D01*
X163840818Y-80516453D01*
X163828521Y-80536970D01*
X163814271Y-80556183D01*
X163798207Y-80573907D01*
X163780483Y-80589971D01*
X163761270Y-80604221D01*
X163740753Y-80616518D01*
X163719129Y-80626746D01*
X163696607Y-80634804D01*
X163673403Y-80640616D01*
X163649742Y-80644126D01*
X163625850Y-80645300D01*
X162713350Y-80645300D01*
X162689458Y-80644126D01*
X162665797Y-80640616D01*
X162642593Y-80634804D01*
X162620071Y-80626746D01*
X162598447Y-80616518D01*
X162577930Y-80604221D01*
X162558717Y-80589971D01*
X162540993Y-80573907D01*
X162524929Y-80556183D01*
X162510679Y-80536970D01*
X162498382Y-80516453D01*
X162488154Y-80494829D01*
X162480096Y-80472307D01*
X162474284Y-80449103D01*
X162470774Y-80425442D01*
X162469600Y-80401550D01*
X162469600Y-79914050D01*
X162470774Y-79890158D01*
X162474284Y-79866497D01*
X162480096Y-79843293D01*
X162488154Y-79820771D01*
X162498382Y-79799147D01*
X162510679Y-79778630D01*
X162524929Y-79759417D01*
X162540993Y-79741693D01*
X162558717Y-79725629D01*
X162577930Y-79711379D01*
X162598447Y-79699082D01*
X162620071Y-79688854D01*
X162642593Y-79680796D01*
X162665797Y-79674984D01*
X162689458Y-79671474D01*
X162713350Y-79670300D01*
X163625850Y-79670300D01*
X163649742Y-79671474D01*
X163649742Y-79671474D01*
G37*
D11*
X163169600Y-80157800D03*
D23*
X153244800Y-82666800D03*
X153244800Y-84566800D03*
X155244800Y-83616800D03*
D10*
G36*
X185417542Y-117316574D02*
G01*
X185441203Y-117320084D01*
X185464407Y-117325896D01*
X185486929Y-117333954D01*
X185508553Y-117344182D01*
X185529070Y-117356479D01*
X185548283Y-117370729D01*
X185566007Y-117386793D01*
X185582071Y-117404517D01*
X185596321Y-117423730D01*
X185608618Y-117444247D01*
X185618846Y-117465871D01*
X185626904Y-117488393D01*
X185632716Y-117511597D01*
X185636226Y-117535258D01*
X185637400Y-117559150D01*
X185637400Y-118046650D01*
X185636226Y-118070542D01*
X185632716Y-118094203D01*
X185626904Y-118117407D01*
X185618846Y-118139929D01*
X185608618Y-118161553D01*
X185596321Y-118182070D01*
X185582071Y-118201283D01*
X185566007Y-118219007D01*
X185548283Y-118235071D01*
X185529070Y-118249321D01*
X185508553Y-118261618D01*
X185486929Y-118271846D01*
X185464407Y-118279904D01*
X185441203Y-118285716D01*
X185417542Y-118289226D01*
X185393650Y-118290400D01*
X184481150Y-118290400D01*
X184457258Y-118289226D01*
X184433597Y-118285716D01*
X184410393Y-118279904D01*
X184387871Y-118271846D01*
X184366247Y-118261618D01*
X184345730Y-118249321D01*
X184326517Y-118235071D01*
X184308793Y-118219007D01*
X184292729Y-118201283D01*
X184278479Y-118182070D01*
X184266182Y-118161553D01*
X184255954Y-118139929D01*
X184247896Y-118117407D01*
X184242084Y-118094203D01*
X184238574Y-118070542D01*
X184237400Y-118046650D01*
X184237400Y-117559150D01*
X184238574Y-117535258D01*
X184242084Y-117511597D01*
X184247896Y-117488393D01*
X184255954Y-117465871D01*
X184266182Y-117444247D01*
X184278479Y-117423730D01*
X184292729Y-117404517D01*
X184308793Y-117386793D01*
X184326517Y-117370729D01*
X184345730Y-117356479D01*
X184366247Y-117344182D01*
X184387871Y-117333954D01*
X184410393Y-117325896D01*
X184433597Y-117320084D01*
X184457258Y-117316574D01*
X184481150Y-117315400D01*
X185393650Y-117315400D01*
X185417542Y-117316574D01*
X185417542Y-117316574D01*
G37*
D11*
X184937400Y-117802900D03*
D10*
G36*
X185417542Y-115441574D02*
G01*
X185441203Y-115445084D01*
X185464407Y-115450896D01*
X185486929Y-115458954D01*
X185508553Y-115469182D01*
X185529070Y-115481479D01*
X185548283Y-115495729D01*
X185566007Y-115511793D01*
X185582071Y-115529517D01*
X185596321Y-115548730D01*
X185608618Y-115569247D01*
X185618846Y-115590871D01*
X185626904Y-115613393D01*
X185632716Y-115636597D01*
X185636226Y-115660258D01*
X185637400Y-115684150D01*
X185637400Y-116171650D01*
X185636226Y-116195542D01*
X185632716Y-116219203D01*
X185626904Y-116242407D01*
X185618846Y-116264929D01*
X185608618Y-116286553D01*
X185596321Y-116307070D01*
X185582071Y-116326283D01*
X185566007Y-116344007D01*
X185548283Y-116360071D01*
X185529070Y-116374321D01*
X185508553Y-116386618D01*
X185486929Y-116396846D01*
X185464407Y-116404904D01*
X185441203Y-116410716D01*
X185417542Y-116414226D01*
X185393650Y-116415400D01*
X184481150Y-116415400D01*
X184457258Y-116414226D01*
X184433597Y-116410716D01*
X184410393Y-116404904D01*
X184387871Y-116396846D01*
X184366247Y-116386618D01*
X184345730Y-116374321D01*
X184326517Y-116360071D01*
X184308793Y-116344007D01*
X184292729Y-116326283D01*
X184278479Y-116307070D01*
X184266182Y-116286553D01*
X184255954Y-116264929D01*
X184247896Y-116242407D01*
X184242084Y-116219203D01*
X184238574Y-116195542D01*
X184237400Y-116171650D01*
X184237400Y-115684150D01*
X184238574Y-115660258D01*
X184242084Y-115636597D01*
X184247896Y-115613393D01*
X184255954Y-115590871D01*
X184266182Y-115569247D01*
X184278479Y-115548730D01*
X184292729Y-115529517D01*
X184308793Y-115511793D01*
X184326517Y-115495729D01*
X184345730Y-115481479D01*
X184366247Y-115469182D01*
X184387871Y-115458954D01*
X184410393Y-115450896D01*
X184433597Y-115445084D01*
X184457258Y-115441574D01*
X184481150Y-115440400D01*
X185393650Y-115440400D01*
X185417542Y-115441574D01*
X185417542Y-115441574D01*
G37*
D11*
X184937400Y-115927900D03*
D10*
G36*
X145608742Y-74078774D02*
G01*
X145632403Y-74082284D01*
X145655607Y-74088096D01*
X145678129Y-74096154D01*
X145699753Y-74106382D01*
X145720270Y-74118679D01*
X145739483Y-74132929D01*
X145757207Y-74148993D01*
X145773271Y-74166717D01*
X145787521Y-74185930D01*
X145799818Y-74206447D01*
X145810046Y-74228071D01*
X145818104Y-74250593D01*
X145823916Y-74273797D01*
X145827426Y-74297458D01*
X145828600Y-74321350D01*
X145828600Y-75233850D01*
X145827426Y-75257742D01*
X145823916Y-75281403D01*
X145818104Y-75304607D01*
X145810046Y-75327129D01*
X145799818Y-75348753D01*
X145787521Y-75369270D01*
X145773271Y-75388483D01*
X145757207Y-75406207D01*
X145739483Y-75422271D01*
X145720270Y-75436521D01*
X145699753Y-75448818D01*
X145678129Y-75459046D01*
X145655607Y-75467104D01*
X145632403Y-75472916D01*
X145608742Y-75476426D01*
X145584850Y-75477600D01*
X145097350Y-75477600D01*
X145073458Y-75476426D01*
X145049797Y-75472916D01*
X145026593Y-75467104D01*
X145004071Y-75459046D01*
X144982447Y-75448818D01*
X144961930Y-75436521D01*
X144942717Y-75422271D01*
X144924993Y-75406207D01*
X144908929Y-75388483D01*
X144894679Y-75369270D01*
X144882382Y-75348753D01*
X144872154Y-75327129D01*
X144864096Y-75304607D01*
X144858284Y-75281403D01*
X144854774Y-75257742D01*
X144853600Y-75233850D01*
X144853600Y-74321350D01*
X144854774Y-74297458D01*
X144858284Y-74273797D01*
X144864096Y-74250593D01*
X144872154Y-74228071D01*
X144882382Y-74206447D01*
X144894679Y-74185930D01*
X144908929Y-74166717D01*
X144924993Y-74148993D01*
X144942717Y-74132929D01*
X144961930Y-74118679D01*
X144982447Y-74106382D01*
X145004071Y-74096154D01*
X145026593Y-74088096D01*
X145049797Y-74082284D01*
X145073458Y-74078774D01*
X145097350Y-74077600D01*
X145584850Y-74077600D01*
X145608742Y-74078774D01*
X145608742Y-74078774D01*
G37*
D11*
X145341100Y-74777600D03*
D10*
G36*
X147483742Y-74078774D02*
G01*
X147507403Y-74082284D01*
X147530607Y-74088096D01*
X147553129Y-74096154D01*
X147574753Y-74106382D01*
X147595270Y-74118679D01*
X147614483Y-74132929D01*
X147632207Y-74148993D01*
X147648271Y-74166717D01*
X147662521Y-74185930D01*
X147674818Y-74206447D01*
X147685046Y-74228071D01*
X147693104Y-74250593D01*
X147698916Y-74273797D01*
X147702426Y-74297458D01*
X147703600Y-74321350D01*
X147703600Y-75233850D01*
X147702426Y-75257742D01*
X147698916Y-75281403D01*
X147693104Y-75304607D01*
X147685046Y-75327129D01*
X147674818Y-75348753D01*
X147662521Y-75369270D01*
X147648271Y-75388483D01*
X147632207Y-75406207D01*
X147614483Y-75422271D01*
X147595270Y-75436521D01*
X147574753Y-75448818D01*
X147553129Y-75459046D01*
X147530607Y-75467104D01*
X147507403Y-75472916D01*
X147483742Y-75476426D01*
X147459850Y-75477600D01*
X146972350Y-75477600D01*
X146948458Y-75476426D01*
X146924797Y-75472916D01*
X146901593Y-75467104D01*
X146879071Y-75459046D01*
X146857447Y-75448818D01*
X146836930Y-75436521D01*
X146817717Y-75422271D01*
X146799993Y-75406207D01*
X146783929Y-75388483D01*
X146769679Y-75369270D01*
X146757382Y-75348753D01*
X146747154Y-75327129D01*
X146739096Y-75304607D01*
X146733284Y-75281403D01*
X146729774Y-75257742D01*
X146728600Y-75233850D01*
X146728600Y-74321350D01*
X146729774Y-74297458D01*
X146733284Y-74273797D01*
X146739096Y-74250593D01*
X146747154Y-74228071D01*
X146757382Y-74206447D01*
X146769679Y-74185930D01*
X146783929Y-74166717D01*
X146799993Y-74148993D01*
X146817717Y-74132929D01*
X146836930Y-74118679D01*
X146857447Y-74106382D01*
X146879071Y-74096154D01*
X146901593Y-74088096D01*
X146924797Y-74082284D01*
X146948458Y-74078774D01*
X146972350Y-74077600D01*
X147459850Y-74077600D01*
X147483742Y-74078774D01*
X147483742Y-74078774D01*
G37*
D11*
X147216100Y-74777600D03*
D10*
G36*
X145608742Y-72199174D02*
G01*
X145632403Y-72202684D01*
X145655607Y-72208496D01*
X145678129Y-72216554D01*
X145699753Y-72226782D01*
X145720270Y-72239079D01*
X145739483Y-72253329D01*
X145757207Y-72269393D01*
X145773271Y-72287117D01*
X145787521Y-72306330D01*
X145799818Y-72326847D01*
X145810046Y-72348471D01*
X145818104Y-72370993D01*
X145823916Y-72394197D01*
X145827426Y-72417858D01*
X145828600Y-72441750D01*
X145828600Y-73354250D01*
X145827426Y-73378142D01*
X145823916Y-73401803D01*
X145818104Y-73425007D01*
X145810046Y-73447529D01*
X145799818Y-73469153D01*
X145787521Y-73489670D01*
X145773271Y-73508883D01*
X145757207Y-73526607D01*
X145739483Y-73542671D01*
X145720270Y-73556921D01*
X145699753Y-73569218D01*
X145678129Y-73579446D01*
X145655607Y-73587504D01*
X145632403Y-73593316D01*
X145608742Y-73596826D01*
X145584850Y-73598000D01*
X145097350Y-73598000D01*
X145073458Y-73596826D01*
X145049797Y-73593316D01*
X145026593Y-73587504D01*
X145004071Y-73579446D01*
X144982447Y-73569218D01*
X144961930Y-73556921D01*
X144942717Y-73542671D01*
X144924993Y-73526607D01*
X144908929Y-73508883D01*
X144894679Y-73489670D01*
X144882382Y-73469153D01*
X144872154Y-73447529D01*
X144864096Y-73425007D01*
X144858284Y-73401803D01*
X144854774Y-73378142D01*
X144853600Y-73354250D01*
X144853600Y-72441750D01*
X144854774Y-72417858D01*
X144858284Y-72394197D01*
X144864096Y-72370993D01*
X144872154Y-72348471D01*
X144882382Y-72326847D01*
X144894679Y-72306330D01*
X144908929Y-72287117D01*
X144924993Y-72269393D01*
X144942717Y-72253329D01*
X144961930Y-72239079D01*
X144982447Y-72226782D01*
X145004071Y-72216554D01*
X145026593Y-72208496D01*
X145049797Y-72202684D01*
X145073458Y-72199174D01*
X145097350Y-72198000D01*
X145584850Y-72198000D01*
X145608742Y-72199174D01*
X145608742Y-72199174D01*
G37*
D11*
X145341100Y-72898000D03*
D10*
G36*
X147483742Y-72199174D02*
G01*
X147507403Y-72202684D01*
X147530607Y-72208496D01*
X147553129Y-72216554D01*
X147574753Y-72226782D01*
X147595270Y-72239079D01*
X147614483Y-72253329D01*
X147632207Y-72269393D01*
X147648271Y-72287117D01*
X147662521Y-72306330D01*
X147674818Y-72326847D01*
X147685046Y-72348471D01*
X147693104Y-72370993D01*
X147698916Y-72394197D01*
X147702426Y-72417858D01*
X147703600Y-72441750D01*
X147703600Y-73354250D01*
X147702426Y-73378142D01*
X147698916Y-73401803D01*
X147693104Y-73425007D01*
X147685046Y-73447529D01*
X147674818Y-73469153D01*
X147662521Y-73489670D01*
X147648271Y-73508883D01*
X147632207Y-73526607D01*
X147614483Y-73542671D01*
X147595270Y-73556921D01*
X147574753Y-73569218D01*
X147553129Y-73579446D01*
X147530607Y-73587504D01*
X147507403Y-73593316D01*
X147483742Y-73596826D01*
X147459850Y-73598000D01*
X146972350Y-73598000D01*
X146948458Y-73596826D01*
X146924797Y-73593316D01*
X146901593Y-73587504D01*
X146879071Y-73579446D01*
X146857447Y-73569218D01*
X146836930Y-73556921D01*
X146817717Y-73542671D01*
X146799993Y-73526607D01*
X146783929Y-73508883D01*
X146769679Y-73489670D01*
X146757382Y-73469153D01*
X146747154Y-73447529D01*
X146739096Y-73425007D01*
X146733284Y-73401803D01*
X146729774Y-73378142D01*
X146728600Y-73354250D01*
X146728600Y-72441750D01*
X146729774Y-72417858D01*
X146733284Y-72394197D01*
X146739096Y-72370993D01*
X146747154Y-72348471D01*
X146757382Y-72326847D01*
X146769679Y-72306330D01*
X146783929Y-72287117D01*
X146799993Y-72269393D01*
X146817717Y-72253329D01*
X146836930Y-72239079D01*
X146857447Y-72226782D01*
X146879071Y-72216554D01*
X146901593Y-72208496D01*
X146924797Y-72202684D01*
X146948458Y-72199174D01*
X146972350Y-72198000D01*
X147459850Y-72198000D01*
X147483742Y-72199174D01*
X147483742Y-72199174D01*
G37*
D11*
X147216100Y-72898000D03*
D10*
G36*
X138198942Y-73201374D02*
G01*
X138222603Y-73204884D01*
X138245807Y-73210696D01*
X138268329Y-73218754D01*
X138289953Y-73228982D01*
X138310470Y-73241279D01*
X138329683Y-73255529D01*
X138347407Y-73271593D01*
X138363471Y-73289317D01*
X138377721Y-73308530D01*
X138390018Y-73329047D01*
X138400246Y-73350671D01*
X138408304Y-73373193D01*
X138414116Y-73396397D01*
X138417626Y-73420058D01*
X138418800Y-73443950D01*
X138418800Y-73931450D01*
X138417626Y-73955342D01*
X138414116Y-73979003D01*
X138408304Y-74002207D01*
X138400246Y-74024729D01*
X138390018Y-74046353D01*
X138377721Y-74066870D01*
X138363471Y-74086083D01*
X138347407Y-74103807D01*
X138329683Y-74119871D01*
X138310470Y-74134121D01*
X138289953Y-74146418D01*
X138268329Y-74156646D01*
X138245807Y-74164704D01*
X138222603Y-74170516D01*
X138198942Y-74174026D01*
X138175050Y-74175200D01*
X137262550Y-74175200D01*
X137238658Y-74174026D01*
X137214997Y-74170516D01*
X137191793Y-74164704D01*
X137169271Y-74156646D01*
X137147647Y-74146418D01*
X137127130Y-74134121D01*
X137107917Y-74119871D01*
X137090193Y-74103807D01*
X137074129Y-74086083D01*
X137059879Y-74066870D01*
X137047582Y-74046353D01*
X137037354Y-74024729D01*
X137029296Y-74002207D01*
X137023484Y-73979003D01*
X137019974Y-73955342D01*
X137018800Y-73931450D01*
X137018800Y-73443950D01*
X137019974Y-73420058D01*
X137023484Y-73396397D01*
X137029296Y-73373193D01*
X137037354Y-73350671D01*
X137047582Y-73329047D01*
X137059879Y-73308530D01*
X137074129Y-73289317D01*
X137090193Y-73271593D01*
X137107917Y-73255529D01*
X137127130Y-73241279D01*
X137147647Y-73228982D01*
X137169271Y-73218754D01*
X137191793Y-73210696D01*
X137214997Y-73204884D01*
X137238658Y-73201374D01*
X137262550Y-73200200D01*
X138175050Y-73200200D01*
X138198942Y-73201374D01*
X138198942Y-73201374D01*
G37*
D11*
X137718800Y-73687700D03*
D10*
G36*
X138198942Y-75076374D02*
G01*
X138222603Y-75079884D01*
X138245807Y-75085696D01*
X138268329Y-75093754D01*
X138289953Y-75103982D01*
X138310470Y-75116279D01*
X138329683Y-75130529D01*
X138347407Y-75146593D01*
X138363471Y-75164317D01*
X138377721Y-75183530D01*
X138390018Y-75204047D01*
X138400246Y-75225671D01*
X138408304Y-75248193D01*
X138414116Y-75271397D01*
X138417626Y-75295058D01*
X138418800Y-75318950D01*
X138418800Y-75806450D01*
X138417626Y-75830342D01*
X138414116Y-75854003D01*
X138408304Y-75877207D01*
X138400246Y-75899729D01*
X138390018Y-75921353D01*
X138377721Y-75941870D01*
X138363471Y-75961083D01*
X138347407Y-75978807D01*
X138329683Y-75994871D01*
X138310470Y-76009121D01*
X138289953Y-76021418D01*
X138268329Y-76031646D01*
X138245807Y-76039704D01*
X138222603Y-76045516D01*
X138198942Y-76049026D01*
X138175050Y-76050200D01*
X137262550Y-76050200D01*
X137238658Y-76049026D01*
X137214997Y-76045516D01*
X137191793Y-76039704D01*
X137169271Y-76031646D01*
X137147647Y-76021418D01*
X137127130Y-76009121D01*
X137107917Y-75994871D01*
X137090193Y-75978807D01*
X137074129Y-75961083D01*
X137059879Y-75941870D01*
X137047582Y-75921353D01*
X137037354Y-75899729D01*
X137029296Y-75877207D01*
X137023484Y-75854003D01*
X137019974Y-75830342D01*
X137018800Y-75806450D01*
X137018800Y-75318950D01*
X137019974Y-75295058D01*
X137023484Y-75271397D01*
X137029296Y-75248193D01*
X137037354Y-75225671D01*
X137047582Y-75204047D01*
X137059879Y-75183530D01*
X137074129Y-75164317D01*
X137090193Y-75146593D01*
X137107917Y-75130529D01*
X137127130Y-75116279D01*
X137147647Y-75103982D01*
X137169271Y-75093754D01*
X137191793Y-75085696D01*
X137214997Y-75079884D01*
X137238658Y-75076374D01*
X137262550Y-75075200D01*
X138175050Y-75075200D01*
X138198942Y-75076374D01*
X138198942Y-75076374D01*
G37*
D11*
X137718800Y-75562700D03*
D10*
G36*
X177822942Y-85455574D02*
G01*
X177846603Y-85459084D01*
X177869807Y-85464896D01*
X177892329Y-85472954D01*
X177913953Y-85483182D01*
X177934470Y-85495479D01*
X177953683Y-85509729D01*
X177971407Y-85525793D01*
X177987471Y-85543517D01*
X178001721Y-85562730D01*
X178014018Y-85583247D01*
X178024246Y-85604871D01*
X178032304Y-85627393D01*
X178038116Y-85650597D01*
X178041626Y-85674258D01*
X178042800Y-85698150D01*
X178042800Y-86185650D01*
X178041626Y-86209542D01*
X178038116Y-86233203D01*
X178032304Y-86256407D01*
X178024246Y-86278929D01*
X178014018Y-86300553D01*
X178001721Y-86321070D01*
X177987471Y-86340283D01*
X177971407Y-86358007D01*
X177953683Y-86374071D01*
X177934470Y-86388321D01*
X177913953Y-86400618D01*
X177892329Y-86410846D01*
X177869807Y-86418904D01*
X177846603Y-86424716D01*
X177822942Y-86428226D01*
X177799050Y-86429400D01*
X176886550Y-86429400D01*
X176862658Y-86428226D01*
X176838997Y-86424716D01*
X176815793Y-86418904D01*
X176793271Y-86410846D01*
X176771647Y-86400618D01*
X176751130Y-86388321D01*
X176731917Y-86374071D01*
X176714193Y-86358007D01*
X176698129Y-86340283D01*
X176683879Y-86321070D01*
X176671582Y-86300553D01*
X176661354Y-86278929D01*
X176653296Y-86256407D01*
X176647484Y-86233203D01*
X176643974Y-86209542D01*
X176642800Y-86185650D01*
X176642800Y-85698150D01*
X176643974Y-85674258D01*
X176647484Y-85650597D01*
X176653296Y-85627393D01*
X176661354Y-85604871D01*
X176671582Y-85583247D01*
X176683879Y-85562730D01*
X176698129Y-85543517D01*
X176714193Y-85525793D01*
X176731917Y-85509729D01*
X176751130Y-85495479D01*
X176771647Y-85483182D01*
X176793271Y-85472954D01*
X176815793Y-85464896D01*
X176838997Y-85459084D01*
X176862658Y-85455574D01*
X176886550Y-85454400D01*
X177799050Y-85454400D01*
X177822942Y-85455574D01*
X177822942Y-85455574D01*
G37*
D11*
X177342800Y-85941900D03*
D10*
G36*
X177822942Y-83580574D02*
G01*
X177846603Y-83584084D01*
X177869807Y-83589896D01*
X177892329Y-83597954D01*
X177913953Y-83608182D01*
X177934470Y-83620479D01*
X177953683Y-83634729D01*
X177971407Y-83650793D01*
X177987471Y-83668517D01*
X178001721Y-83687730D01*
X178014018Y-83708247D01*
X178024246Y-83729871D01*
X178032304Y-83752393D01*
X178038116Y-83775597D01*
X178041626Y-83799258D01*
X178042800Y-83823150D01*
X178042800Y-84310650D01*
X178041626Y-84334542D01*
X178038116Y-84358203D01*
X178032304Y-84381407D01*
X178024246Y-84403929D01*
X178014018Y-84425553D01*
X178001721Y-84446070D01*
X177987471Y-84465283D01*
X177971407Y-84483007D01*
X177953683Y-84499071D01*
X177934470Y-84513321D01*
X177913953Y-84525618D01*
X177892329Y-84535846D01*
X177869807Y-84543904D01*
X177846603Y-84549716D01*
X177822942Y-84553226D01*
X177799050Y-84554400D01*
X176886550Y-84554400D01*
X176862658Y-84553226D01*
X176838997Y-84549716D01*
X176815793Y-84543904D01*
X176793271Y-84535846D01*
X176771647Y-84525618D01*
X176751130Y-84513321D01*
X176731917Y-84499071D01*
X176714193Y-84483007D01*
X176698129Y-84465283D01*
X176683879Y-84446070D01*
X176671582Y-84425553D01*
X176661354Y-84403929D01*
X176653296Y-84381407D01*
X176647484Y-84358203D01*
X176643974Y-84334542D01*
X176642800Y-84310650D01*
X176642800Y-83823150D01*
X176643974Y-83799258D01*
X176647484Y-83775597D01*
X176653296Y-83752393D01*
X176661354Y-83729871D01*
X176671582Y-83708247D01*
X176683879Y-83687730D01*
X176698129Y-83668517D01*
X176714193Y-83650793D01*
X176731917Y-83634729D01*
X176751130Y-83620479D01*
X176771647Y-83608182D01*
X176793271Y-83597954D01*
X176815793Y-83589896D01*
X176838997Y-83584084D01*
X176862658Y-83580574D01*
X176886550Y-83579400D01*
X177799050Y-83579400D01*
X177822942Y-83580574D01*
X177822942Y-83580574D01*
G37*
D11*
X177342800Y-84066900D03*
D10*
G36*
X147700942Y-90131574D02*
G01*
X147724603Y-90135084D01*
X147747807Y-90140896D01*
X147770329Y-90148954D01*
X147791953Y-90159182D01*
X147812470Y-90171479D01*
X147831683Y-90185729D01*
X147849407Y-90201793D01*
X147865471Y-90219517D01*
X147879721Y-90238730D01*
X147892018Y-90259247D01*
X147902246Y-90280871D01*
X147910304Y-90303393D01*
X147916116Y-90326597D01*
X147919626Y-90350258D01*
X147920800Y-90374150D01*
X147920800Y-91286650D01*
X147919626Y-91310542D01*
X147916116Y-91334203D01*
X147910304Y-91357407D01*
X147902246Y-91379929D01*
X147892018Y-91401553D01*
X147879721Y-91422070D01*
X147865471Y-91441283D01*
X147849407Y-91459007D01*
X147831683Y-91475071D01*
X147812470Y-91489321D01*
X147791953Y-91501618D01*
X147770329Y-91511846D01*
X147747807Y-91519904D01*
X147724603Y-91525716D01*
X147700942Y-91529226D01*
X147677050Y-91530400D01*
X147189550Y-91530400D01*
X147165658Y-91529226D01*
X147141997Y-91525716D01*
X147118793Y-91519904D01*
X147096271Y-91511846D01*
X147074647Y-91501618D01*
X147054130Y-91489321D01*
X147034917Y-91475071D01*
X147017193Y-91459007D01*
X147001129Y-91441283D01*
X146986879Y-91422070D01*
X146974582Y-91401553D01*
X146964354Y-91379929D01*
X146956296Y-91357407D01*
X146950484Y-91334203D01*
X146946974Y-91310542D01*
X146945800Y-91286650D01*
X146945800Y-90374150D01*
X146946974Y-90350258D01*
X146950484Y-90326597D01*
X146956296Y-90303393D01*
X146964354Y-90280871D01*
X146974582Y-90259247D01*
X146986879Y-90238730D01*
X147001129Y-90219517D01*
X147017193Y-90201793D01*
X147034917Y-90185729D01*
X147054130Y-90171479D01*
X147074647Y-90159182D01*
X147096271Y-90148954D01*
X147118793Y-90140896D01*
X147141997Y-90135084D01*
X147165658Y-90131574D01*
X147189550Y-90130400D01*
X147677050Y-90130400D01*
X147700942Y-90131574D01*
X147700942Y-90131574D01*
G37*
D11*
X147433300Y-90830400D03*
D10*
G36*
X149575942Y-90131574D02*
G01*
X149599603Y-90135084D01*
X149622807Y-90140896D01*
X149645329Y-90148954D01*
X149666953Y-90159182D01*
X149687470Y-90171479D01*
X149706683Y-90185729D01*
X149724407Y-90201793D01*
X149740471Y-90219517D01*
X149754721Y-90238730D01*
X149767018Y-90259247D01*
X149777246Y-90280871D01*
X149785304Y-90303393D01*
X149791116Y-90326597D01*
X149794626Y-90350258D01*
X149795800Y-90374150D01*
X149795800Y-91286650D01*
X149794626Y-91310542D01*
X149791116Y-91334203D01*
X149785304Y-91357407D01*
X149777246Y-91379929D01*
X149767018Y-91401553D01*
X149754721Y-91422070D01*
X149740471Y-91441283D01*
X149724407Y-91459007D01*
X149706683Y-91475071D01*
X149687470Y-91489321D01*
X149666953Y-91501618D01*
X149645329Y-91511846D01*
X149622807Y-91519904D01*
X149599603Y-91525716D01*
X149575942Y-91529226D01*
X149552050Y-91530400D01*
X149064550Y-91530400D01*
X149040658Y-91529226D01*
X149016997Y-91525716D01*
X148993793Y-91519904D01*
X148971271Y-91511846D01*
X148949647Y-91501618D01*
X148929130Y-91489321D01*
X148909917Y-91475071D01*
X148892193Y-91459007D01*
X148876129Y-91441283D01*
X148861879Y-91422070D01*
X148849582Y-91401553D01*
X148839354Y-91379929D01*
X148831296Y-91357407D01*
X148825484Y-91334203D01*
X148821974Y-91310542D01*
X148820800Y-91286650D01*
X148820800Y-90374150D01*
X148821974Y-90350258D01*
X148825484Y-90326597D01*
X148831296Y-90303393D01*
X148839354Y-90280871D01*
X148849582Y-90259247D01*
X148861879Y-90238730D01*
X148876129Y-90219517D01*
X148892193Y-90201793D01*
X148909917Y-90185729D01*
X148929130Y-90171479D01*
X148949647Y-90159182D01*
X148971271Y-90148954D01*
X148993793Y-90140896D01*
X149016997Y-90135084D01*
X149040658Y-90131574D01*
X149064550Y-90130400D01*
X149552050Y-90130400D01*
X149575942Y-90131574D01*
X149575942Y-90131574D01*
G37*
D11*
X149308300Y-90830400D03*
D10*
G36*
X147615342Y-83171974D02*
G01*
X147639003Y-83175484D01*
X147662207Y-83181296D01*
X147684729Y-83189354D01*
X147706353Y-83199582D01*
X147726870Y-83211879D01*
X147746083Y-83226129D01*
X147763807Y-83242193D01*
X147779871Y-83259917D01*
X147794121Y-83279130D01*
X147806418Y-83299647D01*
X147816646Y-83321271D01*
X147824704Y-83343793D01*
X147830516Y-83366997D01*
X147834026Y-83390658D01*
X147835200Y-83414550D01*
X147835200Y-84327050D01*
X147834026Y-84350942D01*
X147830516Y-84374603D01*
X147824704Y-84397807D01*
X147816646Y-84420329D01*
X147806418Y-84441953D01*
X147794121Y-84462470D01*
X147779871Y-84481683D01*
X147763807Y-84499407D01*
X147746083Y-84515471D01*
X147726870Y-84529721D01*
X147706353Y-84542018D01*
X147684729Y-84552246D01*
X147662207Y-84560304D01*
X147639003Y-84566116D01*
X147615342Y-84569626D01*
X147591450Y-84570800D01*
X147103950Y-84570800D01*
X147080058Y-84569626D01*
X147056397Y-84566116D01*
X147033193Y-84560304D01*
X147010671Y-84552246D01*
X146989047Y-84542018D01*
X146968530Y-84529721D01*
X146949317Y-84515471D01*
X146931593Y-84499407D01*
X146915529Y-84481683D01*
X146901279Y-84462470D01*
X146888982Y-84441953D01*
X146878754Y-84420329D01*
X146870696Y-84397807D01*
X146864884Y-84374603D01*
X146861374Y-84350942D01*
X146860200Y-84327050D01*
X146860200Y-83414550D01*
X146861374Y-83390658D01*
X146864884Y-83366997D01*
X146870696Y-83343793D01*
X146878754Y-83321271D01*
X146888982Y-83299647D01*
X146901279Y-83279130D01*
X146915529Y-83259917D01*
X146931593Y-83242193D01*
X146949317Y-83226129D01*
X146968530Y-83211879D01*
X146989047Y-83199582D01*
X147010671Y-83189354D01*
X147033193Y-83181296D01*
X147056397Y-83175484D01*
X147080058Y-83171974D01*
X147103950Y-83170800D01*
X147591450Y-83170800D01*
X147615342Y-83171974D01*
X147615342Y-83171974D01*
G37*
D11*
X147347700Y-83870800D03*
D10*
G36*
X149490342Y-83171974D02*
G01*
X149514003Y-83175484D01*
X149537207Y-83181296D01*
X149559729Y-83189354D01*
X149581353Y-83199582D01*
X149601870Y-83211879D01*
X149621083Y-83226129D01*
X149638807Y-83242193D01*
X149654871Y-83259917D01*
X149669121Y-83279130D01*
X149681418Y-83299647D01*
X149691646Y-83321271D01*
X149699704Y-83343793D01*
X149705516Y-83366997D01*
X149709026Y-83390658D01*
X149710200Y-83414550D01*
X149710200Y-84327050D01*
X149709026Y-84350942D01*
X149705516Y-84374603D01*
X149699704Y-84397807D01*
X149691646Y-84420329D01*
X149681418Y-84441953D01*
X149669121Y-84462470D01*
X149654871Y-84481683D01*
X149638807Y-84499407D01*
X149621083Y-84515471D01*
X149601870Y-84529721D01*
X149581353Y-84542018D01*
X149559729Y-84552246D01*
X149537207Y-84560304D01*
X149514003Y-84566116D01*
X149490342Y-84569626D01*
X149466450Y-84570800D01*
X148978950Y-84570800D01*
X148955058Y-84569626D01*
X148931397Y-84566116D01*
X148908193Y-84560304D01*
X148885671Y-84552246D01*
X148864047Y-84542018D01*
X148843530Y-84529721D01*
X148824317Y-84515471D01*
X148806593Y-84499407D01*
X148790529Y-84481683D01*
X148776279Y-84462470D01*
X148763982Y-84441953D01*
X148753754Y-84420329D01*
X148745696Y-84397807D01*
X148739884Y-84374603D01*
X148736374Y-84350942D01*
X148735200Y-84327050D01*
X148735200Y-83414550D01*
X148736374Y-83390658D01*
X148739884Y-83366997D01*
X148745696Y-83343793D01*
X148753754Y-83321271D01*
X148763982Y-83299647D01*
X148776279Y-83279130D01*
X148790529Y-83259917D01*
X148806593Y-83242193D01*
X148824317Y-83226129D01*
X148843530Y-83211879D01*
X148864047Y-83199582D01*
X148885671Y-83189354D01*
X148908193Y-83181296D01*
X148931397Y-83175484D01*
X148955058Y-83171974D01*
X148978950Y-83170800D01*
X149466450Y-83170800D01*
X149490342Y-83171974D01*
X149490342Y-83171974D01*
G37*
D11*
X149222700Y-83870800D03*
D10*
G36*
X182815142Y-103441174D02*
G01*
X182838803Y-103444684D01*
X182862007Y-103450496D01*
X182884529Y-103458554D01*
X182906153Y-103468782D01*
X182926670Y-103481079D01*
X182945883Y-103495329D01*
X182963607Y-103511393D01*
X182979671Y-103529117D01*
X182993921Y-103548330D01*
X183006218Y-103568847D01*
X183016446Y-103590471D01*
X183024504Y-103612993D01*
X183030316Y-103636197D01*
X183033826Y-103659858D01*
X183035000Y-103683750D01*
X183035000Y-104596250D01*
X183033826Y-104620142D01*
X183030316Y-104643803D01*
X183024504Y-104667007D01*
X183016446Y-104689529D01*
X183006218Y-104711153D01*
X182993921Y-104731670D01*
X182979671Y-104750883D01*
X182963607Y-104768607D01*
X182945883Y-104784671D01*
X182926670Y-104798921D01*
X182906153Y-104811218D01*
X182884529Y-104821446D01*
X182862007Y-104829504D01*
X182838803Y-104835316D01*
X182815142Y-104838826D01*
X182791250Y-104840000D01*
X182303750Y-104840000D01*
X182279858Y-104838826D01*
X182256197Y-104835316D01*
X182232993Y-104829504D01*
X182210471Y-104821446D01*
X182188847Y-104811218D01*
X182168330Y-104798921D01*
X182149117Y-104784671D01*
X182131393Y-104768607D01*
X182115329Y-104750883D01*
X182101079Y-104731670D01*
X182088782Y-104711153D01*
X182078554Y-104689529D01*
X182070496Y-104667007D01*
X182064684Y-104643803D01*
X182061174Y-104620142D01*
X182060000Y-104596250D01*
X182060000Y-103683750D01*
X182061174Y-103659858D01*
X182064684Y-103636197D01*
X182070496Y-103612993D01*
X182078554Y-103590471D01*
X182088782Y-103568847D01*
X182101079Y-103548330D01*
X182115329Y-103529117D01*
X182131393Y-103511393D01*
X182149117Y-103495329D01*
X182168330Y-103481079D01*
X182188847Y-103468782D01*
X182210471Y-103458554D01*
X182232993Y-103450496D01*
X182256197Y-103444684D01*
X182279858Y-103441174D01*
X182303750Y-103440000D01*
X182791250Y-103440000D01*
X182815142Y-103441174D01*
X182815142Y-103441174D01*
G37*
D11*
X182547500Y-104140000D03*
D10*
G36*
X180940142Y-103441174D02*
G01*
X180963803Y-103444684D01*
X180987007Y-103450496D01*
X181009529Y-103458554D01*
X181031153Y-103468782D01*
X181051670Y-103481079D01*
X181070883Y-103495329D01*
X181088607Y-103511393D01*
X181104671Y-103529117D01*
X181118921Y-103548330D01*
X181131218Y-103568847D01*
X181141446Y-103590471D01*
X181149504Y-103612993D01*
X181155316Y-103636197D01*
X181158826Y-103659858D01*
X181160000Y-103683750D01*
X181160000Y-104596250D01*
X181158826Y-104620142D01*
X181155316Y-104643803D01*
X181149504Y-104667007D01*
X181141446Y-104689529D01*
X181131218Y-104711153D01*
X181118921Y-104731670D01*
X181104671Y-104750883D01*
X181088607Y-104768607D01*
X181070883Y-104784671D01*
X181051670Y-104798921D01*
X181031153Y-104811218D01*
X181009529Y-104821446D01*
X180987007Y-104829504D01*
X180963803Y-104835316D01*
X180940142Y-104838826D01*
X180916250Y-104840000D01*
X180428750Y-104840000D01*
X180404858Y-104838826D01*
X180381197Y-104835316D01*
X180357993Y-104829504D01*
X180335471Y-104821446D01*
X180313847Y-104811218D01*
X180293330Y-104798921D01*
X180274117Y-104784671D01*
X180256393Y-104768607D01*
X180240329Y-104750883D01*
X180226079Y-104731670D01*
X180213782Y-104711153D01*
X180203554Y-104689529D01*
X180195496Y-104667007D01*
X180189684Y-104643803D01*
X180186174Y-104620142D01*
X180185000Y-104596250D01*
X180185000Y-103683750D01*
X180186174Y-103659858D01*
X180189684Y-103636197D01*
X180195496Y-103612993D01*
X180203554Y-103590471D01*
X180213782Y-103568847D01*
X180226079Y-103548330D01*
X180240329Y-103529117D01*
X180256393Y-103511393D01*
X180274117Y-103495329D01*
X180293330Y-103481079D01*
X180313847Y-103468782D01*
X180335471Y-103458554D01*
X180357993Y-103450496D01*
X180381197Y-103444684D01*
X180404858Y-103441174D01*
X180428750Y-103440000D01*
X180916250Y-103440000D01*
X180940142Y-103441174D01*
X180940142Y-103441174D01*
G37*
D11*
X180672500Y-104140000D03*
D10*
G36*
X180940142Y-101155174D02*
G01*
X180963803Y-101158684D01*
X180987007Y-101164496D01*
X181009529Y-101172554D01*
X181031153Y-101182782D01*
X181051670Y-101195079D01*
X181070883Y-101209329D01*
X181088607Y-101225393D01*
X181104671Y-101243117D01*
X181118921Y-101262330D01*
X181131218Y-101282847D01*
X181141446Y-101304471D01*
X181149504Y-101326993D01*
X181155316Y-101350197D01*
X181158826Y-101373858D01*
X181160000Y-101397750D01*
X181160000Y-102310250D01*
X181158826Y-102334142D01*
X181155316Y-102357803D01*
X181149504Y-102381007D01*
X181141446Y-102403529D01*
X181131218Y-102425153D01*
X181118921Y-102445670D01*
X181104671Y-102464883D01*
X181088607Y-102482607D01*
X181070883Y-102498671D01*
X181051670Y-102512921D01*
X181031153Y-102525218D01*
X181009529Y-102535446D01*
X180987007Y-102543504D01*
X180963803Y-102549316D01*
X180940142Y-102552826D01*
X180916250Y-102554000D01*
X180428750Y-102554000D01*
X180404858Y-102552826D01*
X180381197Y-102549316D01*
X180357993Y-102543504D01*
X180335471Y-102535446D01*
X180313847Y-102525218D01*
X180293330Y-102512921D01*
X180274117Y-102498671D01*
X180256393Y-102482607D01*
X180240329Y-102464883D01*
X180226079Y-102445670D01*
X180213782Y-102425153D01*
X180203554Y-102403529D01*
X180195496Y-102381007D01*
X180189684Y-102357803D01*
X180186174Y-102334142D01*
X180185000Y-102310250D01*
X180185000Y-101397750D01*
X180186174Y-101373858D01*
X180189684Y-101350197D01*
X180195496Y-101326993D01*
X180203554Y-101304471D01*
X180213782Y-101282847D01*
X180226079Y-101262330D01*
X180240329Y-101243117D01*
X180256393Y-101225393D01*
X180274117Y-101209329D01*
X180293330Y-101195079D01*
X180313847Y-101182782D01*
X180335471Y-101172554D01*
X180357993Y-101164496D01*
X180381197Y-101158684D01*
X180404858Y-101155174D01*
X180428750Y-101154000D01*
X180916250Y-101154000D01*
X180940142Y-101155174D01*
X180940142Y-101155174D01*
G37*
D11*
X180672500Y-101854000D03*
D10*
G36*
X182815142Y-101155174D02*
G01*
X182838803Y-101158684D01*
X182862007Y-101164496D01*
X182884529Y-101172554D01*
X182906153Y-101182782D01*
X182926670Y-101195079D01*
X182945883Y-101209329D01*
X182963607Y-101225393D01*
X182979671Y-101243117D01*
X182993921Y-101262330D01*
X183006218Y-101282847D01*
X183016446Y-101304471D01*
X183024504Y-101326993D01*
X183030316Y-101350197D01*
X183033826Y-101373858D01*
X183035000Y-101397750D01*
X183035000Y-102310250D01*
X183033826Y-102334142D01*
X183030316Y-102357803D01*
X183024504Y-102381007D01*
X183016446Y-102403529D01*
X183006218Y-102425153D01*
X182993921Y-102445670D01*
X182979671Y-102464883D01*
X182963607Y-102482607D01*
X182945883Y-102498671D01*
X182926670Y-102512921D01*
X182906153Y-102525218D01*
X182884529Y-102535446D01*
X182862007Y-102543504D01*
X182838803Y-102549316D01*
X182815142Y-102552826D01*
X182791250Y-102554000D01*
X182303750Y-102554000D01*
X182279858Y-102552826D01*
X182256197Y-102549316D01*
X182232993Y-102543504D01*
X182210471Y-102535446D01*
X182188847Y-102525218D01*
X182168330Y-102512921D01*
X182149117Y-102498671D01*
X182131393Y-102482607D01*
X182115329Y-102464883D01*
X182101079Y-102445670D01*
X182088782Y-102425153D01*
X182078554Y-102403529D01*
X182070496Y-102381007D01*
X182064684Y-102357803D01*
X182061174Y-102334142D01*
X182060000Y-102310250D01*
X182060000Y-101397750D01*
X182061174Y-101373858D01*
X182064684Y-101350197D01*
X182070496Y-101326993D01*
X182078554Y-101304471D01*
X182088782Y-101282847D01*
X182101079Y-101262330D01*
X182115329Y-101243117D01*
X182131393Y-101225393D01*
X182149117Y-101209329D01*
X182168330Y-101195079D01*
X182188847Y-101182782D01*
X182210471Y-101172554D01*
X182232993Y-101164496D01*
X182256197Y-101158684D01*
X182279858Y-101155174D01*
X182303750Y-101154000D01*
X182791250Y-101154000D01*
X182815142Y-101155174D01*
X182815142Y-101155174D01*
G37*
D11*
X182547500Y-101854000D03*
D10*
G36*
X149626742Y-85254774D02*
G01*
X149650403Y-85258284D01*
X149673607Y-85264096D01*
X149696129Y-85272154D01*
X149717753Y-85282382D01*
X149738270Y-85294679D01*
X149757483Y-85308929D01*
X149775207Y-85324993D01*
X149791271Y-85342717D01*
X149805521Y-85361930D01*
X149817818Y-85382447D01*
X149828046Y-85404071D01*
X149836104Y-85426593D01*
X149841916Y-85449797D01*
X149845426Y-85473458D01*
X149846600Y-85497350D01*
X149846600Y-86409850D01*
X149845426Y-86433742D01*
X149841916Y-86457403D01*
X149836104Y-86480607D01*
X149828046Y-86503129D01*
X149817818Y-86524753D01*
X149805521Y-86545270D01*
X149791271Y-86564483D01*
X149775207Y-86582207D01*
X149757483Y-86598271D01*
X149738270Y-86612521D01*
X149717753Y-86624818D01*
X149696129Y-86635046D01*
X149673607Y-86643104D01*
X149650403Y-86648916D01*
X149626742Y-86652426D01*
X149602850Y-86653600D01*
X149115350Y-86653600D01*
X149091458Y-86652426D01*
X149067797Y-86648916D01*
X149044593Y-86643104D01*
X149022071Y-86635046D01*
X149000447Y-86624818D01*
X148979930Y-86612521D01*
X148960717Y-86598271D01*
X148942993Y-86582207D01*
X148926929Y-86564483D01*
X148912679Y-86545270D01*
X148900382Y-86524753D01*
X148890154Y-86503129D01*
X148882096Y-86480607D01*
X148876284Y-86457403D01*
X148872774Y-86433742D01*
X148871600Y-86409850D01*
X148871600Y-85497350D01*
X148872774Y-85473458D01*
X148876284Y-85449797D01*
X148882096Y-85426593D01*
X148890154Y-85404071D01*
X148900382Y-85382447D01*
X148912679Y-85361930D01*
X148926929Y-85342717D01*
X148942993Y-85324993D01*
X148960717Y-85308929D01*
X148979930Y-85294679D01*
X149000447Y-85282382D01*
X149022071Y-85272154D01*
X149044593Y-85264096D01*
X149067797Y-85258284D01*
X149091458Y-85254774D01*
X149115350Y-85253600D01*
X149602850Y-85253600D01*
X149626742Y-85254774D01*
X149626742Y-85254774D01*
G37*
D11*
X149359100Y-85953600D03*
D10*
G36*
X147751742Y-85254774D02*
G01*
X147775403Y-85258284D01*
X147798607Y-85264096D01*
X147821129Y-85272154D01*
X147842753Y-85282382D01*
X147863270Y-85294679D01*
X147882483Y-85308929D01*
X147900207Y-85324993D01*
X147916271Y-85342717D01*
X147930521Y-85361930D01*
X147942818Y-85382447D01*
X147953046Y-85404071D01*
X147961104Y-85426593D01*
X147966916Y-85449797D01*
X147970426Y-85473458D01*
X147971600Y-85497350D01*
X147971600Y-86409850D01*
X147970426Y-86433742D01*
X147966916Y-86457403D01*
X147961104Y-86480607D01*
X147953046Y-86503129D01*
X147942818Y-86524753D01*
X147930521Y-86545270D01*
X147916271Y-86564483D01*
X147900207Y-86582207D01*
X147882483Y-86598271D01*
X147863270Y-86612521D01*
X147842753Y-86624818D01*
X147821129Y-86635046D01*
X147798607Y-86643104D01*
X147775403Y-86648916D01*
X147751742Y-86652426D01*
X147727850Y-86653600D01*
X147240350Y-86653600D01*
X147216458Y-86652426D01*
X147192797Y-86648916D01*
X147169593Y-86643104D01*
X147147071Y-86635046D01*
X147125447Y-86624818D01*
X147104930Y-86612521D01*
X147085717Y-86598271D01*
X147067993Y-86582207D01*
X147051929Y-86564483D01*
X147037679Y-86545270D01*
X147025382Y-86524753D01*
X147015154Y-86503129D01*
X147007096Y-86480607D01*
X147001284Y-86457403D01*
X146997774Y-86433742D01*
X146996600Y-86409850D01*
X146996600Y-85497350D01*
X146997774Y-85473458D01*
X147001284Y-85449797D01*
X147007096Y-85426593D01*
X147015154Y-85404071D01*
X147025382Y-85382447D01*
X147037679Y-85361930D01*
X147051929Y-85342717D01*
X147067993Y-85324993D01*
X147085717Y-85308929D01*
X147104930Y-85294679D01*
X147125447Y-85282382D01*
X147147071Y-85272154D01*
X147169593Y-85264096D01*
X147192797Y-85258284D01*
X147216458Y-85254774D01*
X147240350Y-85253600D01*
X147727850Y-85253600D01*
X147751742Y-85254774D01*
X147751742Y-85254774D01*
G37*
D11*
X147484100Y-85953600D03*
D10*
G36*
X145227742Y-111315174D02*
G01*
X145251403Y-111318684D01*
X145274607Y-111324496D01*
X145297129Y-111332554D01*
X145318753Y-111342782D01*
X145339270Y-111355079D01*
X145358483Y-111369329D01*
X145376207Y-111385393D01*
X145392271Y-111403117D01*
X145406521Y-111422330D01*
X145418818Y-111442847D01*
X145429046Y-111464471D01*
X145437104Y-111486993D01*
X145442916Y-111510197D01*
X145446426Y-111533858D01*
X145447600Y-111557750D01*
X145447600Y-112470250D01*
X145446426Y-112494142D01*
X145442916Y-112517803D01*
X145437104Y-112541007D01*
X145429046Y-112563529D01*
X145418818Y-112585153D01*
X145406521Y-112605670D01*
X145392271Y-112624883D01*
X145376207Y-112642607D01*
X145358483Y-112658671D01*
X145339270Y-112672921D01*
X145318753Y-112685218D01*
X145297129Y-112695446D01*
X145274607Y-112703504D01*
X145251403Y-112709316D01*
X145227742Y-112712826D01*
X145203850Y-112714000D01*
X144716350Y-112714000D01*
X144692458Y-112712826D01*
X144668797Y-112709316D01*
X144645593Y-112703504D01*
X144623071Y-112695446D01*
X144601447Y-112685218D01*
X144580930Y-112672921D01*
X144561717Y-112658671D01*
X144543993Y-112642607D01*
X144527929Y-112624883D01*
X144513679Y-112605670D01*
X144501382Y-112585153D01*
X144491154Y-112563529D01*
X144483096Y-112541007D01*
X144477284Y-112517803D01*
X144473774Y-112494142D01*
X144472600Y-112470250D01*
X144472600Y-111557750D01*
X144473774Y-111533858D01*
X144477284Y-111510197D01*
X144483096Y-111486993D01*
X144491154Y-111464471D01*
X144501382Y-111442847D01*
X144513679Y-111422330D01*
X144527929Y-111403117D01*
X144543993Y-111385393D01*
X144561717Y-111369329D01*
X144580930Y-111355079D01*
X144601447Y-111342782D01*
X144623071Y-111332554D01*
X144645593Y-111324496D01*
X144668797Y-111318684D01*
X144692458Y-111315174D01*
X144716350Y-111314000D01*
X145203850Y-111314000D01*
X145227742Y-111315174D01*
X145227742Y-111315174D01*
G37*
D11*
X144960100Y-112014000D03*
D10*
G36*
X147102742Y-111315174D02*
G01*
X147126403Y-111318684D01*
X147149607Y-111324496D01*
X147172129Y-111332554D01*
X147193753Y-111342782D01*
X147214270Y-111355079D01*
X147233483Y-111369329D01*
X147251207Y-111385393D01*
X147267271Y-111403117D01*
X147281521Y-111422330D01*
X147293818Y-111442847D01*
X147304046Y-111464471D01*
X147312104Y-111486993D01*
X147317916Y-111510197D01*
X147321426Y-111533858D01*
X147322600Y-111557750D01*
X147322600Y-112470250D01*
X147321426Y-112494142D01*
X147317916Y-112517803D01*
X147312104Y-112541007D01*
X147304046Y-112563529D01*
X147293818Y-112585153D01*
X147281521Y-112605670D01*
X147267271Y-112624883D01*
X147251207Y-112642607D01*
X147233483Y-112658671D01*
X147214270Y-112672921D01*
X147193753Y-112685218D01*
X147172129Y-112695446D01*
X147149607Y-112703504D01*
X147126403Y-112709316D01*
X147102742Y-112712826D01*
X147078850Y-112714000D01*
X146591350Y-112714000D01*
X146567458Y-112712826D01*
X146543797Y-112709316D01*
X146520593Y-112703504D01*
X146498071Y-112695446D01*
X146476447Y-112685218D01*
X146455930Y-112672921D01*
X146436717Y-112658671D01*
X146418993Y-112642607D01*
X146402929Y-112624883D01*
X146388679Y-112605670D01*
X146376382Y-112585153D01*
X146366154Y-112563529D01*
X146358096Y-112541007D01*
X146352284Y-112517803D01*
X146348774Y-112494142D01*
X146347600Y-112470250D01*
X146347600Y-111557750D01*
X146348774Y-111533858D01*
X146352284Y-111510197D01*
X146358096Y-111486993D01*
X146366154Y-111464471D01*
X146376382Y-111442847D01*
X146388679Y-111422330D01*
X146402929Y-111403117D01*
X146418993Y-111385393D01*
X146436717Y-111369329D01*
X146455930Y-111355079D01*
X146476447Y-111342782D01*
X146498071Y-111332554D01*
X146520593Y-111324496D01*
X146543797Y-111318684D01*
X146567458Y-111315174D01*
X146591350Y-111314000D01*
X147078850Y-111314000D01*
X147102742Y-111315174D01*
X147102742Y-111315174D01*
G37*
D11*
X146835100Y-112014000D03*
D10*
G36*
X139711342Y-90385574D02*
G01*
X139735003Y-90389084D01*
X139758207Y-90394896D01*
X139780729Y-90402954D01*
X139802353Y-90413182D01*
X139822870Y-90425479D01*
X139842083Y-90439729D01*
X139859807Y-90455793D01*
X139875871Y-90473517D01*
X139890121Y-90492730D01*
X139902418Y-90513247D01*
X139912646Y-90534871D01*
X139920704Y-90557393D01*
X139926516Y-90580597D01*
X139930026Y-90604258D01*
X139931200Y-90628150D01*
X139931200Y-91540650D01*
X139930026Y-91564542D01*
X139926516Y-91588203D01*
X139920704Y-91611407D01*
X139912646Y-91633929D01*
X139902418Y-91655553D01*
X139890121Y-91676070D01*
X139875871Y-91695283D01*
X139859807Y-91713007D01*
X139842083Y-91729071D01*
X139822870Y-91743321D01*
X139802353Y-91755618D01*
X139780729Y-91765846D01*
X139758207Y-91773904D01*
X139735003Y-91779716D01*
X139711342Y-91783226D01*
X139687450Y-91784400D01*
X139199950Y-91784400D01*
X139176058Y-91783226D01*
X139152397Y-91779716D01*
X139129193Y-91773904D01*
X139106671Y-91765846D01*
X139085047Y-91755618D01*
X139064530Y-91743321D01*
X139045317Y-91729071D01*
X139027593Y-91713007D01*
X139011529Y-91695283D01*
X138997279Y-91676070D01*
X138984982Y-91655553D01*
X138974754Y-91633929D01*
X138966696Y-91611407D01*
X138960884Y-91588203D01*
X138957374Y-91564542D01*
X138956200Y-91540650D01*
X138956200Y-90628150D01*
X138957374Y-90604258D01*
X138960884Y-90580597D01*
X138966696Y-90557393D01*
X138974754Y-90534871D01*
X138984982Y-90513247D01*
X138997279Y-90492730D01*
X139011529Y-90473517D01*
X139027593Y-90455793D01*
X139045317Y-90439729D01*
X139064530Y-90425479D01*
X139085047Y-90413182D01*
X139106671Y-90402954D01*
X139129193Y-90394896D01*
X139152397Y-90389084D01*
X139176058Y-90385574D01*
X139199950Y-90384400D01*
X139687450Y-90384400D01*
X139711342Y-90385574D01*
X139711342Y-90385574D01*
G37*
D11*
X139443700Y-91084400D03*
D10*
G36*
X137836342Y-90385574D02*
G01*
X137860003Y-90389084D01*
X137883207Y-90394896D01*
X137905729Y-90402954D01*
X137927353Y-90413182D01*
X137947870Y-90425479D01*
X137967083Y-90439729D01*
X137984807Y-90455793D01*
X138000871Y-90473517D01*
X138015121Y-90492730D01*
X138027418Y-90513247D01*
X138037646Y-90534871D01*
X138045704Y-90557393D01*
X138051516Y-90580597D01*
X138055026Y-90604258D01*
X138056200Y-90628150D01*
X138056200Y-91540650D01*
X138055026Y-91564542D01*
X138051516Y-91588203D01*
X138045704Y-91611407D01*
X138037646Y-91633929D01*
X138027418Y-91655553D01*
X138015121Y-91676070D01*
X138000871Y-91695283D01*
X137984807Y-91713007D01*
X137967083Y-91729071D01*
X137947870Y-91743321D01*
X137927353Y-91755618D01*
X137905729Y-91765846D01*
X137883207Y-91773904D01*
X137860003Y-91779716D01*
X137836342Y-91783226D01*
X137812450Y-91784400D01*
X137324950Y-91784400D01*
X137301058Y-91783226D01*
X137277397Y-91779716D01*
X137254193Y-91773904D01*
X137231671Y-91765846D01*
X137210047Y-91755618D01*
X137189530Y-91743321D01*
X137170317Y-91729071D01*
X137152593Y-91713007D01*
X137136529Y-91695283D01*
X137122279Y-91676070D01*
X137109982Y-91655553D01*
X137099754Y-91633929D01*
X137091696Y-91611407D01*
X137085884Y-91588203D01*
X137082374Y-91564542D01*
X137081200Y-91540650D01*
X137081200Y-90628150D01*
X137082374Y-90604258D01*
X137085884Y-90580597D01*
X137091696Y-90557393D01*
X137099754Y-90534871D01*
X137109982Y-90513247D01*
X137122279Y-90492730D01*
X137136529Y-90473517D01*
X137152593Y-90455793D01*
X137170317Y-90439729D01*
X137189530Y-90425479D01*
X137210047Y-90413182D01*
X137231671Y-90402954D01*
X137254193Y-90394896D01*
X137277397Y-90389084D01*
X137301058Y-90385574D01*
X137324950Y-90384400D01*
X137812450Y-90384400D01*
X137836342Y-90385574D01*
X137836342Y-90385574D01*
G37*
D11*
X137568700Y-91084400D03*
D10*
G36*
X137947342Y-92925574D02*
G01*
X137971003Y-92929084D01*
X137994207Y-92934896D01*
X138016729Y-92942954D01*
X138038353Y-92953182D01*
X138058870Y-92965479D01*
X138078083Y-92979729D01*
X138095807Y-92995793D01*
X138111871Y-93013517D01*
X138126121Y-93032730D01*
X138138418Y-93053247D01*
X138148646Y-93074871D01*
X138156704Y-93097393D01*
X138162516Y-93120597D01*
X138166026Y-93144258D01*
X138167200Y-93168150D01*
X138167200Y-94080650D01*
X138166026Y-94104542D01*
X138162516Y-94128203D01*
X138156704Y-94151407D01*
X138148646Y-94173929D01*
X138138418Y-94195553D01*
X138126121Y-94216070D01*
X138111871Y-94235283D01*
X138095807Y-94253007D01*
X138078083Y-94269071D01*
X138058870Y-94283321D01*
X138038353Y-94295618D01*
X138016729Y-94305846D01*
X137994207Y-94313904D01*
X137971003Y-94319716D01*
X137947342Y-94323226D01*
X137923450Y-94324400D01*
X137435950Y-94324400D01*
X137412058Y-94323226D01*
X137388397Y-94319716D01*
X137365193Y-94313904D01*
X137342671Y-94305846D01*
X137321047Y-94295618D01*
X137300530Y-94283321D01*
X137281317Y-94269071D01*
X137263593Y-94253007D01*
X137247529Y-94235283D01*
X137233279Y-94216070D01*
X137220982Y-94195553D01*
X137210754Y-94173929D01*
X137202696Y-94151407D01*
X137196884Y-94128203D01*
X137193374Y-94104542D01*
X137192200Y-94080650D01*
X137192200Y-93168150D01*
X137193374Y-93144258D01*
X137196884Y-93120597D01*
X137202696Y-93097393D01*
X137210754Y-93074871D01*
X137220982Y-93053247D01*
X137233279Y-93032730D01*
X137247529Y-93013517D01*
X137263593Y-92995793D01*
X137281317Y-92979729D01*
X137300530Y-92965479D01*
X137321047Y-92953182D01*
X137342671Y-92942954D01*
X137365193Y-92934896D01*
X137388397Y-92929084D01*
X137412058Y-92925574D01*
X137435950Y-92924400D01*
X137923450Y-92924400D01*
X137947342Y-92925574D01*
X137947342Y-92925574D01*
G37*
D11*
X137679700Y-93624400D03*
D10*
G36*
X139822342Y-92925574D02*
G01*
X139846003Y-92929084D01*
X139869207Y-92934896D01*
X139891729Y-92942954D01*
X139913353Y-92953182D01*
X139933870Y-92965479D01*
X139953083Y-92979729D01*
X139970807Y-92995793D01*
X139986871Y-93013517D01*
X140001121Y-93032730D01*
X140013418Y-93053247D01*
X140023646Y-93074871D01*
X140031704Y-93097393D01*
X140037516Y-93120597D01*
X140041026Y-93144258D01*
X140042200Y-93168150D01*
X140042200Y-94080650D01*
X140041026Y-94104542D01*
X140037516Y-94128203D01*
X140031704Y-94151407D01*
X140023646Y-94173929D01*
X140013418Y-94195553D01*
X140001121Y-94216070D01*
X139986871Y-94235283D01*
X139970807Y-94253007D01*
X139953083Y-94269071D01*
X139933870Y-94283321D01*
X139913353Y-94295618D01*
X139891729Y-94305846D01*
X139869207Y-94313904D01*
X139846003Y-94319716D01*
X139822342Y-94323226D01*
X139798450Y-94324400D01*
X139310950Y-94324400D01*
X139287058Y-94323226D01*
X139263397Y-94319716D01*
X139240193Y-94313904D01*
X139217671Y-94305846D01*
X139196047Y-94295618D01*
X139175530Y-94283321D01*
X139156317Y-94269071D01*
X139138593Y-94253007D01*
X139122529Y-94235283D01*
X139108279Y-94216070D01*
X139095982Y-94195553D01*
X139085754Y-94173929D01*
X139077696Y-94151407D01*
X139071884Y-94128203D01*
X139068374Y-94104542D01*
X139067200Y-94080650D01*
X139067200Y-93168150D01*
X139068374Y-93144258D01*
X139071884Y-93120597D01*
X139077696Y-93097393D01*
X139085754Y-93074871D01*
X139095982Y-93053247D01*
X139108279Y-93032730D01*
X139122529Y-93013517D01*
X139138593Y-92995793D01*
X139156317Y-92979729D01*
X139175530Y-92965479D01*
X139196047Y-92953182D01*
X139217671Y-92942954D01*
X139240193Y-92934896D01*
X139263397Y-92929084D01*
X139287058Y-92925574D01*
X139310950Y-92924400D01*
X139798450Y-92924400D01*
X139822342Y-92925574D01*
X139822342Y-92925574D01*
G37*
D11*
X139554700Y-93624400D03*
D10*
G36*
X149626742Y-78345974D02*
G01*
X149650403Y-78349484D01*
X149673607Y-78355296D01*
X149696129Y-78363354D01*
X149717753Y-78373582D01*
X149738270Y-78385879D01*
X149757483Y-78400129D01*
X149775207Y-78416193D01*
X149791271Y-78433917D01*
X149805521Y-78453130D01*
X149817818Y-78473647D01*
X149828046Y-78495271D01*
X149836104Y-78517793D01*
X149841916Y-78540997D01*
X149845426Y-78564658D01*
X149846600Y-78588550D01*
X149846600Y-79501050D01*
X149845426Y-79524942D01*
X149841916Y-79548603D01*
X149836104Y-79571807D01*
X149828046Y-79594329D01*
X149817818Y-79615953D01*
X149805521Y-79636470D01*
X149791271Y-79655683D01*
X149775207Y-79673407D01*
X149757483Y-79689471D01*
X149738270Y-79703721D01*
X149717753Y-79716018D01*
X149696129Y-79726246D01*
X149673607Y-79734304D01*
X149650403Y-79740116D01*
X149626742Y-79743626D01*
X149602850Y-79744800D01*
X149115350Y-79744800D01*
X149091458Y-79743626D01*
X149067797Y-79740116D01*
X149044593Y-79734304D01*
X149022071Y-79726246D01*
X149000447Y-79716018D01*
X148979930Y-79703721D01*
X148960717Y-79689471D01*
X148942993Y-79673407D01*
X148926929Y-79655683D01*
X148912679Y-79636470D01*
X148900382Y-79615953D01*
X148890154Y-79594329D01*
X148882096Y-79571807D01*
X148876284Y-79548603D01*
X148872774Y-79524942D01*
X148871600Y-79501050D01*
X148871600Y-78588550D01*
X148872774Y-78564658D01*
X148876284Y-78540997D01*
X148882096Y-78517793D01*
X148890154Y-78495271D01*
X148900382Y-78473647D01*
X148912679Y-78453130D01*
X148926929Y-78433917D01*
X148942993Y-78416193D01*
X148960717Y-78400129D01*
X148979930Y-78385879D01*
X149000447Y-78373582D01*
X149022071Y-78363354D01*
X149044593Y-78355296D01*
X149067797Y-78349484D01*
X149091458Y-78345974D01*
X149115350Y-78344800D01*
X149602850Y-78344800D01*
X149626742Y-78345974D01*
X149626742Y-78345974D01*
G37*
D11*
X149359100Y-79044800D03*
D10*
G36*
X147751742Y-78345974D02*
G01*
X147775403Y-78349484D01*
X147798607Y-78355296D01*
X147821129Y-78363354D01*
X147842753Y-78373582D01*
X147863270Y-78385879D01*
X147882483Y-78400129D01*
X147900207Y-78416193D01*
X147916271Y-78433917D01*
X147930521Y-78453130D01*
X147942818Y-78473647D01*
X147953046Y-78495271D01*
X147961104Y-78517793D01*
X147966916Y-78540997D01*
X147970426Y-78564658D01*
X147971600Y-78588550D01*
X147971600Y-79501050D01*
X147970426Y-79524942D01*
X147966916Y-79548603D01*
X147961104Y-79571807D01*
X147953046Y-79594329D01*
X147942818Y-79615953D01*
X147930521Y-79636470D01*
X147916271Y-79655683D01*
X147900207Y-79673407D01*
X147882483Y-79689471D01*
X147863270Y-79703721D01*
X147842753Y-79716018D01*
X147821129Y-79726246D01*
X147798607Y-79734304D01*
X147775403Y-79740116D01*
X147751742Y-79743626D01*
X147727850Y-79744800D01*
X147240350Y-79744800D01*
X147216458Y-79743626D01*
X147192797Y-79740116D01*
X147169593Y-79734304D01*
X147147071Y-79726246D01*
X147125447Y-79716018D01*
X147104930Y-79703721D01*
X147085717Y-79689471D01*
X147067993Y-79673407D01*
X147051929Y-79655683D01*
X147037679Y-79636470D01*
X147025382Y-79615953D01*
X147015154Y-79594329D01*
X147007096Y-79571807D01*
X147001284Y-79548603D01*
X146997774Y-79524942D01*
X146996600Y-79501050D01*
X146996600Y-78588550D01*
X146997774Y-78564658D01*
X147001284Y-78540997D01*
X147007096Y-78517793D01*
X147015154Y-78495271D01*
X147025382Y-78473647D01*
X147037679Y-78453130D01*
X147051929Y-78433917D01*
X147067993Y-78416193D01*
X147085717Y-78400129D01*
X147104930Y-78385879D01*
X147125447Y-78373582D01*
X147147071Y-78363354D01*
X147169593Y-78355296D01*
X147192797Y-78349484D01*
X147216458Y-78345974D01*
X147240350Y-78344800D01*
X147727850Y-78344800D01*
X147751742Y-78345974D01*
X147751742Y-78345974D01*
G37*
D11*
X147484100Y-79044800D03*
D10*
G36*
X147596942Y-131007174D02*
G01*
X147620603Y-131010684D01*
X147643807Y-131016496D01*
X147666329Y-131024554D01*
X147687953Y-131034782D01*
X147708470Y-131047079D01*
X147727683Y-131061329D01*
X147745407Y-131077393D01*
X147761471Y-131095117D01*
X147775721Y-131114330D01*
X147788018Y-131134847D01*
X147798246Y-131156471D01*
X147806304Y-131178993D01*
X147812116Y-131202197D01*
X147815626Y-131225858D01*
X147816800Y-131249750D01*
X147816800Y-131737250D01*
X147815626Y-131761142D01*
X147812116Y-131784803D01*
X147806304Y-131808007D01*
X147798246Y-131830529D01*
X147788018Y-131852153D01*
X147775721Y-131872670D01*
X147761471Y-131891883D01*
X147745407Y-131909607D01*
X147727683Y-131925671D01*
X147708470Y-131939921D01*
X147687953Y-131952218D01*
X147666329Y-131962446D01*
X147643807Y-131970504D01*
X147620603Y-131976316D01*
X147596942Y-131979826D01*
X147573050Y-131981000D01*
X146660550Y-131981000D01*
X146636658Y-131979826D01*
X146612997Y-131976316D01*
X146589793Y-131970504D01*
X146567271Y-131962446D01*
X146545647Y-131952218D01*
X146525130Y-131939921D01*
X146505917Y-131925671D01*
X146488193Y-131909607D01*
X146472129Y-131891883D01*
X146457879Y-131872670D01*
X146445582Y-131852153D01*
X146435354Y-131830529D01*
X146427296Y-131808007D01*
X146421484Y-131784803D01*
X146417974Y-131761142D01*
X146416800Y-131737250D01*
X146416800Y-131249750D01*
X146417974Y-131225858D01*
X146421484Y-131202197D01*
X146427296Y-131178993D01*
X146435354Y-131156471D01*
X146445582Y-131134847D01*
X146457879Y-131114330D01*
X146472129Y-131095117D01*
X146488193Y-131077393D01*
X146505917Y-131061329D01*
X146525130Y-131047079D01*
X146545647Y-131034782D01*
X146567271Y-131024554D01*
X146589793Y-131016496D01*
X146612997Y-131010684D01*
X146636658Y-131007174D01*
X146660550Y-131006000D01*
X147573050Y-131006000D01*
X147596942Y-131007174D01*
X147596942Y-131007174D01*
G37*
D11*
X147116800Y-131493500D03*
D10*
G36*
X147596942Y-129132174D02*
G01*
X147620603Y-129135684D01*
X147643807Y-129141496D01*
X147666329Y-129149554D01*
X147687953Y-129159782D01*
X147708470Y-129172079D01*
X147727683Y-129186329D01*
X147745407Y-129202393D01*
X147761471Y-129220117D01*
X147775721Y-129239330D01*
X147788018Y-129259847D01*
X147798246Y-129281471D01*
X147806304Y-129303993D01*
X147812116Y-129327197D01*
X147815626Y-129350858D01*
X147816800Y-129374750D01*
X147816800Y-129862250D01*
X147815626Y-129886142D01*
X147812116Y-129909803D01*
X147806304Y-129933007D01*
X147798246Y-129955529D01*
X147788018Y-129977153D01*
X147775721Y-129997670D01*
X147761471Y-130016883D01*
X147745407Y-130034607D01*
X147727683Y-130050671D01*
X147708470Y-130064921D01*
X147687953Y-130077218D01*
X147666329Y-130087446D01*
X147643807Y-130095504D01*
X147620603Y-130101316D01*
X147596942Y-130104826D01*
X147573050Y-130106000D01*
X146660550Y-130106000D01*
X146636658Y-130104826D01*
X146612997Y-130101316D01*
X146589793Y-130095504D01*
X146567271Y-130087446D01*
X146545647Y-130077218D01*
X146525130Y-130064921D01*
X146505917Y-130050671D01*
X146488193Y-130034607D01*
X146472129Y-130016883D01*
X146457879Y-129997670D01*
X146445582Y-129977153D01*
X146435354Y-129955529D01*
X146427296Y-129933007D01*
X146421484Y-129909803D01*
X146417974Y-129886142D01*
X146416800Y-129862250D01*
X146416800Y-129374750D01*
X146417974Y-129350858D01*
X146421484Y-129327197D01*
X146427296Y-129303993D01*
X146435354Y-129281471D01*
X146445582Y-129259847D01*
X146457879Y-129239330D01*
X146472129Y-129220117D01*
X146488193Y-129202393D01*
X146505917Y-129186329D01*
X146525130Y-129172079D01*
X146545647Y-129159782D01*
X146567271Y-129149554D01*
X146589793Y-129141496D01*
X146612997Y-129135684D01*
X146636658Y-129132174D01*
X146660550Y-129131000D01*
X147573050Y-129131000D01*
X147596942Y-129132174D01*
X147596942Y-129132174D01*
G37*
D11*
X147116800Y-129618500D03*
D10*
G36*
X144701342Y-106165974D02*
G01*
X144725003Y-106169484D01*
X144748207Y-106175296D01*
X144770729Y-106183354D01*
X144792353Y-106193582D01*
X144812870Y-106205879D01*
X144832083Y-106220129D01*
X144849807Y-106236193D01*
X144865871Y-106253917D01*
X144880121Y-106273130D01*
X144892418Y-106293647D01*
X144902646Y-106315271D01*
X144910704Y-106337793D01*
X144916516Y-106360997D01*
X144920026Y-106384658D01*
X144921200Y-106408550D01*
X144921200Y-106896050D01*
X144920026Y-106919942D01*
X144916516Y-106943603D01*
X144910704Y-106966807D01*
X144902646Y-106989329D01*
X144892418Y-107010953D01*
X144880121Y-107031470D01*
X144865871Y-107050683D01*
X144849807Y-107068407D01*
X144832083Y-107084471D01*
X144812870Y-107098721D01*
X144792353Y-107111018D01*
X144770729Y-107121246D01*
X144748207Y-107129304D01*
X144725003Y-107135116D01*
X144701342Y-107138626D01*
X144677450Y-107139800D01*
X143764950Y-107139800D01*
X143741058Y-107138626D01*
X143717397Y-107135116D01*
X143694193Y-107129304D01*
X143671671Y-107121246D01*
X143650047Y-107111018D01*
X143629530Y-107098721D01*
X143610317Y-107084471D01*
X143592593Y-107068407D01*
X143576529Y-107050683D01*
X143562279Y-107031470D01*
X143549982Y-107010953D01*
X143539754Y-106989329D01*
X143531696Y-106966807D01*
X143525884Y-106943603D01*
X143522374Y-106919942D01*
X143521200Y-106896050D01*
X143521200Y-106408550D01*
X143522374Y-106384658D01*
X143525884Y-106360997D01*
X143531696Y-106337793D01*
X143539754Y-106315271D01*
X143549982Y-106293647D01*
X143562279Y-106273130D01*
X143576529Y-106253917D01*
X143592593Y-106236193D01*
X143610317Y-106220129D01*
X143629530Y-106205879D01*
X143650047Y-106193582D01*
X143671671Y-106183354D01*
X143694193Y-106175296D01*
X143717397Y-106169484D01*
X143741058Y-106165974D01*
X143764950Y-106164800D01*
X144677450Y-106164800D01*
X144701342Y-106165974D01*
X144701342Y-106165974D01*
G37*
D11*
X144221200Y-106652300D03*
D10*
G36*
X144701342Y-104290974D02*
G01*
X144725003Y-104294484D01*
X144748207Y-104300296D01*
X144770729Y-104308354D01*
X144792353Y-104318582D01*
X144812870Y-104330879D01*
X144832083Y-104345129D01*
X144849807Y-104361193D01*
X144865871Y-104378917D01*
X144880121Y-104398130D01*
X144892418Y-104418647D01*
X144902646Y-104440271D01*
X144910704Y-104462793D01*
X144916516Y-104485997D01*
X144920026Y-104509658D01*
X144921200Y-104533550D01*
X144921200Y-105021050D01*
X144920026Y-105044942D01*
X144916516Y-105068603D01*
X144910704Y-105091807D01*
X144902646Y-105114329D01*
X144892418Y-105135953D01*
X144880121Y-105156470D01*
X144865871Y-105175683D01*
X144849807Y-105193407D01*
X144832083Y-105209471D01*
X144812870Y-105223721D01*
X144792353Y-105236018D01*
X144770729Y-105246246D01*
X144748207Y-105254304D01*
X144725003Y-105260116D01*
X144701342Y-105263626D01*
X144677450Y-105264800D01*
X143764950Y-105264800D01*
X143741058Y-105263626D01*
X143717397Y-105260116D01*
X143694193Y-105254304D01*
X143671671Y-105246246D01*
X143650047Y-105236018D01*
X143629530Y-105223721D01*
X143610317Y-105209471D01*
X143592593Y-105193407D01*
X143576529Y-105175683D01*
X143562279Y-105156470D01*
X143549982Y-105135953D01*
X143539754Y-105114329D01*
X143531696Y-105091807D01*
X143525884Y-105068603D01*
X143522374Y-105044942D01*
X143521200Y-105021050D01*
X143521200Y-104533550D01*
X143522374Y-104509658D01*
X143525884Y-104485997D01*
X143531696Y-104462793D01*
X143539754Y-104440271D01*
X143549982Y-104418647D01*
X143562279Y-104398130D01*
X143576529Y-104378917D01*
X143592593Y-104361193D01*
X143610317Y-104345129D01*
X143629530Y-104330879D01*
X143650047Y-104318582D01*
X143671671Y-104308354D01*
X143694193Y-104300296D01*
X143717397Y-104294484D01*
X143741058Y-104290974D01*
X143764950Y-104289800D01*
X144677450Y-104289800D01*
X144701342Y-104290974D01*
X144701342Y-104290974D01*
G37*
D11*
X144221200Y-104777300D03*
D10*
G36*
X142378342Y-73469174D02*
G01*
X142402003Y-73472684D01*
X142425207Y-73478496D01*
X142447729Y-73486554D01*
X142469353Y-73496782D01*
X142489870Y-73509079D01*
X142509083Y-73523329D01*
X142526807Y-73539393D01*
X142542871Y-73557117D01*
X142557121Y-73576330D01*
X142569418Y-73596847D01*
X142579646Y-73618471D01*
X142587704Y-73640993D01*
X142593516Y-73664197D01*
X142597026Y-73687858D01*
X142598200Y-73711750D01*
X142598200Y-74624250D01*
X142597026Y-74648142D01*
X142593516Y-74671803D01*
X142587704Y-74695007D01*
X142579646Y-74717529D01*
X142569418Y-74739153D01*
X142557121Y-74759670D01*
X142542871Y-74778883D01*
X142526807Y-74796607D01*
X142509083Y-74812671D01*
X142489870Y-74826921D01*
X142469353Y-74839218D01*
X142447729Y-74849446D01*
X142425207Y-74857504D01*
X142402003Y-74863316D01*
X142378342Y-74866826D01*
X142354450Y-74868000D01*
X141866950Y-74868000D01*
X141843058Y-74866826D01*
X141819397Y-74863316D01*
X141796193Y-74857504D01*
X141773671Y-74849446D01*
X141752047Y-74839218D01*
X141731530Y-74826921D01*
X141712317Y-74812671D01*
X141694593Y-74796607D01*
X141678529Y-74778883D01*
X141664279Y-74759670D01*
X141651982Y-74739153D01*
X141641754Y-74717529D01*
X141633696Y-74695007D01*
X141627884Y-74671803D01*
X141624374Y-74648142D01*
X141623200Y-74624250D01*
X141623200Y-73711750D01*
X141624374Y-73687858D01*
X141627884Y-73664197D01*
X141633696Y-73640993D01*
X141641754Y-73618471D01*
X141651982Y-73596847D01*
X141664279Y-73576330D01*
X141678529Y-73557117D01*
X141694593Y-73539393D01*
X141712317Y-73523329D01*
X141731530Y-73509079D01*
X141752047Y-73496782D01*
X141773671Y-73486554D01*
X141796193Y-73478496D01*
X141819397Y-73472684D01*
X141843058Y-73469174D01*
X141866950Y-73468000D01*
X142354450Y-73468000D01*
X142378342Y-73469174D01*
X142378342Y-73469174D01*
G37*
D11*
X142110700Y-74168000D03*
D10*
G36*
X140503342Y-73469174D02*
G01*
X140527003Y-73472684D01*
X140550207Y-73478496D01*
X140572729Y-73486554D01*
X140594353Y-73496782D01*
X140614870Y-73509079D01*
X140634083Y-73523329D01*
X140651807Y-73539393D01*
X140667871Y-73557117D01*
X140682121Y-73576330D01*
X140694418Y-73596847D01*
X140704646Y-73618471D01*
X140712704Y-73640993D01*
X140718516Y-73664197D01*
X140722026Y-73687858D01*
X140723200Y-73711750D01*
X140723200Y-74624250D01*
X140722026Y-74648142D01*
X140718516Y-74671803D01*
X140712704Y-74695007D01*
X140704646Y-74717529D01*
X140694418Y-74739153D01*
X140682121Y-74759670D01*
X140667871Y-74778883D01*
X140651807Y-74796607D01*
X140634083Y-74812671D01*
X140614870Y-74826921D01*
X140594353Y-74839218D01*
X140572729Y-74849446D01*
X140550207Y-74857504D01*
X140527003Y-74863316D01*
X140503342Y-74866826D01*
X140479450Y-74868000D01*
X139991950Y-74868000D01*
X139968058Y-74866826D01*
X139944397Y-74863316D01*
X139921193Y-74857504D01*
X139898671Y-74849446D01*
X139877047Y-74839218D01*
X139856530Y-74826921D01*
X139837317Y-74812671D01*
X139819593Y-74796607D01*
X139803529Y-74778883D01*
X139789279Y-74759670D01*
X139776982Y-74739153D01*
X139766754Y-74717529D01*
X139758696Y-74695007D01*
X139752884Y-74671803D01*
X139749374Y-74648142D01*
X139748200Y-74624250D01*
X139748200Y-73711750D01*
X139749374Y-73687858D01*
X139752884Y-73664197D01*
X139758696Y-73640993D01*
X139766754Y-73618471D01*
X139776982Y-73596847D01*
X139789279Y-73576330D01*
X139803529Y-73557117D01*
X139819593Y-73539393D01*
X139837317Y-73523329D01*
X139856530Y-73509079D01*
X139877047Y-73496782D01*
X139898671Y-73486554D01*
X139921193Y-73478496D01*
X139944397Y-73472684D01*
X139968058Y-73469174D01*
X139991950Y-73468000D01*
X140479450Y-73468000D01*
X140503342Y-73469174D01*
X140503342Y-73469174D01*
G37*
D11*
X140235700Y-74168000D03*
D10*
G36*
X134864542Y-69811574D02*
G01*
X134888203Y-69815084D01*
X134911407Y-69820896D01*
X134933929Y-69828954D01*
X134955553Y-69839182D01*
X134976070Y-69851479D01*
X134995283Y-69865729D01*
X135013007Y-69881793D01*
X135029071Y-69899517D01*
X135043321Y-69918730D01*
X135055618Y-69939247D01*
X135065846Y-69960871D01*
X135073904Y-69983393D01*
X135079716Y-70006597D01*
X135083226Y-70030258D01*
X135084400Y-70054150D01*
X135084400Y-70966650D01*
X135083226Y-70990542D01*
X135079716Y-71014203D01*
X135073904Y-71037407D01*
X135065846Y-71059929D01*
X135055618Y-71081553D01*
X135043321Y-71102070D01*
X135029071Y-71121283D01*
X135013007Y-71139007D01*
X134995283Y-71155071D01*
X134976070Y-71169321D01*
X134955553Y-71181618D01*
X134933929Y-71191846D01*
X134911407Y-71199904D01*
X134888203Y-71205716D01*
X134864542Y-71209226D01*
X134840650Y-71210400D01*
X134353150Y-71210400D01*
X134329258Y-71209226D01*
X134305597Y-71205716D01*
X134282393Y-71199904D01*
X134259871Y-71191846D01*
X134238247Y-71181618D01*
X134217730Y-71169321D01*
X134198517Y-71155071D01*
X134180793Y-71139007D01*
X134164729Y-71121283D01*
X134150479Y-71102070D01*
X134138182Y-71081553D01*
X134127954Y-71059929D01*
X134119896Y-71037407D01*
X134114084Y-71014203D01*
X134110574Y-70990542D01*
X134109400Y-70966650D01*
X134109400Y-70054150D01*
X134110574Y-70030258D01*
X134114084Y-70006597D01*
X134119896Y-69983393D01*
X134127954Y-69960871D01*
X134138182Y-69939247D01*
X134150479Y-69918730D01*
X134164729Y-69899517D01*
X134180793Y-69881793D01*
X134198517Y-69865729D01*
X134217730Y-69851479D01*
X134238247Y-69839182D01*
X134259871Y-69828954D01*
X134282393Y-69820896D01*
X134305597Y-69815084D01*
X134329258Y-69811574D01*
X134353150Y-69810400D01*
X134840650Y-69810400D01*
X134864542Y-69811574D01*
X134864542Y-69811574D01*
G37*
D11*
X134596900Y-70510400D03*
D10*
G36*
X136739542Y-69811574D02*
G01*
X136763203Y-69815084D01*
X136786407Y-69820896D01*
X136808929Y-69828954D01*
X136830553Y-69839182D01*
X136851070Y-69851479D01*
X136870283Y-69865729D01*
X136888007Y-69881793D01*
X136904071Y-69899517D01*
X136918321Y-69918730D01*
X136930618Y-69939247D01*
X136940846Y-69960871D01*
X136948904Y-69983393D01*
X136954716Y-70006597D01*
X136958226Y-70030258D01*
X136959400Y-70054150D01*
X136959400Y-70966650D01*
X136958226Y-70990542D01*
X136954716Y-71014203D01*
X136948904Y-71037407D01*
X136940846Y-71059929D01*
X136930618Y-71081553D01*
X136918321Y-71102070D01*
X136904071Y-71121283D01*
X136888007Y-71139007D01*
X136870283Y-71155071D01*
X136851070Y-71169321D01*
X136830553Y-71181618D01*
X136808929Y-71191846D01*
X136786407Y-71199904D01*
X136763203Y-71205716D01*
X136739542Y-71209226D01*
X136715650Y-71210400D01*
X136228150Y-71210400D01*
X136204258Y-71209226D01*
X136180597Y-71205716D01*
X136157393Y-71199904D01*
X136134871Y-71191846D01*
X136113247Y-71181618D01*
X136092730Y-71169321D01*
X136073517Y-71155071D01*
X136055793Y-71139007D01*
X136039729Y-71121283D01*
X136025479Y-71102070D01*
X136013182Y-71081553D01*
X136002954Y-71059929D01*
X135994896Y-71037407D01*
X135989084Y-71014203D01*
X135985574Y-70990542D01*
X135984400Y-70966650D01*
X135984400Y-70054150D01*
X135985574Y-70030258D01*
X135989084Y-70006597D01*
X135994896Y-69983393D01*
X136002954Y-69960871D01*
X136013182Y-69939247D01*
X136025479Y-69918730D01*
X136039729Y-69899517D01*
X136055793Y-69881793D01*
X136073517Y-69865729D01*
X136092730Y-69851479D01*
X136113247Y-69839182D01*
X136134871Y-69828954D01*
X136157393Y-69820896D01*
X136180597Y-69815084D01*
X136204258Y-69811574D01*
X136228150Y-69810400D01*
X136715650Y-69810400D01*
X136739542Y-69811574D01*
X136739542Y-69811574D01*
G37*
D11*
X136471900Y-70510400D03*
D10*
G36*
X158214142Y-64743174D02*
G01*
X158237803Y-64746684D01*
X158261007Y-64752496D01*
X158283529Y-64760554D01*
X158305153Y-64770782D01*
X158325670Y-64783079D01*
X158344883Y-64797329D01*
X158362607Y-64813393D01*
X158378671Y-64831117D01*
X158392921Y-64850330D01*
X158405218Y-64870847D01*
X158415446Y-64892471D01*
X158423504Y-64914993D01*
X158429316Y-64938197D01*
X158432826Y-64961858D01*
X158434000Y-64985750D01*
X158434000Y-65473250D01*
X158432826Y-65497142D01*
X158429316Y-65520803D01*
X158423504Y-65544007D01*
X158415446Y-65566529D01*
X158405218Y-65588153D01*
X158392921Y-65608670D01*
X158378671Y-65627883D01*
X158362607Y-65645607D01*
X158344883Y-65661671D01*
X158325670Y-65675921D01*
X158305153Y-65688218D01*
X158283529Y-65698446D01*
X158261007Y-65706504D01*
X158237803Y-65712316D01*
X158214142Y-65715826D01*
X158190250Y-65717000D01*
X157277750Y-65717000D01*
X157253858Y-65715826D01*
X157230197Y-65712316D01*
X157206993Y-65706504D01*
X157184471Y-65698446D01*
X157162847Y-65688218D01*
X157142330Y-65675921D01*
X157123117Y-65661671D01*
X157105393Y-65645607D01*
X157089329Y-65627883D01*
X157075079Y-65608670D01*
X157062782Y-65588153D01*
X157052554Y-65566529D01*
X157044496Y-65544007D01*
X157038684Y-65520803D01*
X157035174Y-65497142D01*
X157034000Y-65473250D01*
X157034000Y-64985750D01*
X157035174Y-64961858D01*
X157038684Y-64938197D01*
X157044496Y-64914993D01*
X157052554Y-64892471D01*
X157062782Y-64870847D01*
X157075079Y-64850330D01*
X157089329Y-64831117D01*
X157105393Y-64813393D01*
X157123117Y-64797329D01*
X157142330Y-64783079D01*
X157162847Y-64770782D01*
X157184471Y-64760554D01*
X157206993Y-64752496D01*
X157230197Y-64746684D01*
X157253858Y-64743174D01*
X157277750Y-64742000D01*
X158190250Y-64742000D01*
X158214142Y-64743174D01*
X158214142Y-64743174D01*
G37*
D11*
X157734000Y-65229500D03*
D10*
G36*
X158214142Y-66618174D02*
G01*
X158237803Y-66621684D01*
X158261007Y-66627496D01*
X158283529Y-66635554D01*
X158305153Y-66645782D01*
X158325670Y-66658079D01*
X158344883Y-66672329D01*
X158362607Y-66688393D01*
X158378671Y-66706117D01*
X158392921Y-66725330D01*
X158405218Y-66745847D01*
X158415446Y-66767471D01*
X158423504Y-66789993D01*
X158429316Y-66813197D01*
X158432826Y-66836858D01*
X158434000Y-66860750D01*
X158434000Y-67348250D01*
X158432826Y-67372142D01*
X158429316Y-67395803D01*
X158423504Y-67419007D01*
X158415446Y-67441529D01*
X158405218Y-67463153D01*
X158392921Y-67483670D01*
X158378671Y-67502883D01*
X158362607Y-67520607D01*
X158344883Y-67536671D01*
X158325670Y-67550921D01*
X158305153Y-67563218D01*
X158283529Y-67573446D01*
X158261007Y-67581504D01*
X158237803Y-67587316D01*
X158214142Y-67590826D01*
X158190250Y-67592000D01*
X157277750Y-67592000D01*
X157253858Y-67590826D01*
X157230197Y-67587316D01*
X157206993Y-67581504D01*
X157184471Y-67573446D01*
X157162847Y-67563218D01*
X157142330Y-67550921D01*
X157123117Y-67536671D01*
X157105393Y-67520607D01*
X157089329Y-67502883D01*
X157075079Y-67483670D01*
X157062782Y-67463153D01*
X157052554Y-67441529D01*
X157044496Y-67419007D01*
X157038684Y-67395803D01*
X157035174Y-67372142D01*
X157034000Y-67348250D01*
X157034000Y-66860750D01*
X157035174Y-66836858D01*
X157038684Y-66813197D01*
X157044496Y-66789993D01*
X157052554Y-66767471D01*
X157062782Y-66745847D01*
X157075079Y-66725330D01*
X157089329Y-66706117D01*
X157105393Y-66688393D01*
X157123117Y-66672329D01*
X157142330Y-66658079D01*
X157162847Y-66645782D01*
X157184471Y-66635554D01*
X157206993Y-66627496D01*
X157230197Y-66621684D01*
X157253858Y-66618174D01*
X157277750Y-66617000D01*
X158190250Y-66617000D01*
X158214142Y-66618174D01*
X158214142Y-66618174D01*
G37*
D11*
X157734000Y-67104500D03*
D10*
G36*
X147650942Y-80479574D02*
G01*
X147674603Y-80483084D01*
X147697807Y-80488896D01*
X147720329Y-80496954D01*
X147741953Y-80507182D01*
X147762470Y-80519479D01*
X147781683Y-80533729D01*
X147799407Y-80549793D01*
X147815471Y-80567517D01*
X147829721Y-80586730D01*
X147842018Y-80607247D01*
X147852246Y-80628871D01*
X147860304Y-80651393D01*
X147866116Y-80674597D01*
X147869626Y-80698258D01*
X147870800Y-80722150D01*
X147870800Y-81634650D01*
X147869626Y-81658542D01*
X147866116Y-81682203D01*
X147860304Y-81705407D01*
X147852246Y-81727929D01*
X147842018Y-81749553D01*
X147829721Y-81770070D01*
X147815471Y-81789283D01*
X147799407Y-81807007D01*
X147781683Y-81823071D01*
X147762470Y-81837321D01*
X147741953Y-81849618D01*
X147720329Y-81859846D01*
X147697807Y-81867904D01*
X147674603Y-81873716D01*
X147650942Y-81877226D01*
X147627050Y-81878400D01*
X147139550Y-81878400D01*
X147115658Y-81877226D01*
X147091997Y-81873716D01*
X147068793Y-81867904D01*
X147046271Y-81859846D01*
X147024647Y-81849618D01*
X147004130Y-81837321D01*
X146984917Y-81823071D01*
X146967193Y-81807007D01*
X146951129Y-81789283D01*
X146936879Y-81770070D01*
X146924582Y-81749553D01*
X146914354Y-81727929D01*
X146906296Y-81705407D01*
X146900484Y-81682203D01*
X146896974Y-81658542D01*
X146895800Y-81634650D01*
X146895800Y-80722150D01*
X146896974Y-80698258D01*
X146900484Y-80674597D01*
X146906296Y-80651393D01*
X146914354Y-80628871D01*
X146924582Y-80607247D01*
X146936879Y-80586730D01*
X146951129Y-80567517D01*
X146967193Y-80549793D01*
X146984917Y-80533729D01*
X147004130Y-80519479D01*
X147024647Y-80507182D01*
X147046271Y-80496954D01*
X147068793Y-80488896D01*
X147091997Y-80483084D01*
X147115658Y-80479574D01*
X147139550Y-80478400D01*
X147627050Y-80478400D01*
X147650942Y-80479574D01*
X147650942Y-80479574D01*
G37*
D11*
X147383300Y-81178400D03*
D10*
G36*
X149525942Y-80479574D02*
G01*
X149549603Y-80483084D01*
X149572807Y-80488896D01*
X149595329Y-80496954D01*
X149616953Y-80507182D01*
X149637470Y-80519479D01*
X149656683Y-80533729D01*
X149674407Y-80549793D01*
X149690471Y-80567517D01*
X149704721Y-80586730D01*
X149717018Y-80607247D01*
X149727246Y-80628871D01*
X149735304Y-80651393D01*
X149741116Y-80674597D01*
X149744626Y-80698258D01*
X149745800Y-80722150D01*
X149745800Y-81634650D01*
X149744626Y-81658542D01*
X149741116Y-81682203D01*
X149735304Y-81705407D01*
X149727246Y-81727929D01*
X149717018Y-81749553D01*
X149704721Y-81770070D01*
X149690471Y-81789283D01*
X149674407Y-81807007D01*
X149656683Y-81823071D01*
X149637470Y-81837321D01*
X149616953Y-81849618D01*
X149595329Y-81859846D01*
X149572807Y-81867904D01*
X149549603Y-81873716D01*
X149525942Y-81877226D01*
X149502050Y-81878400D01*
X149014550Y-81878400D01*
X148990658Y-81877226D01*
X148966997Y-81873716D01*
X148943793Y-81867904D01*
X148921271Y-81859846D01*
X148899647Y-81849618D01*
X148879130Y-81837321D01*
X148859917Y-81823071D01*
X148842193Y-81807007D01*
X148826129Y-81789283D01*
X148811879Y-81770070D01*
X148799582Y-81749553D01*
X148789354Y-81727929D01*
X148781296Y-81705407D01*
X148775484Y-81682203D01*
X148771974Y-81658542D01*
X148770800Y-81634650D01*
X148770800Y-80722150D01*
X148771974Y-80698258D01*
X148775484Y-80674597D01*
X148781296Y-80651393D01*
X148789354Y-80628871D01*
X148799582Y-80607247D01*
X148811879Y-80586730D01*
X148826129Y-80567517D01*
X148842193Y-80549793D01*
X148859917Y-80533729D01*
X148879130Y-80519479D01*
X148899647Y-80507182D01*
X148921271Y-80496954D01*
X148943793Y-80488896D01*
X148966997Y-80483084D01*
X148990658Y-80479574D01*
X149014550Y-80478400D01*
X149502050Y-80478400D01*
X149525942Y-80479574D01*
X149525942Y-80479574D01*
G37*
D11*
X149258300Y-81178400D03*
D10*
G36*
X141940942Y-90283974D02*
G01*
X141964603Y-90287484D01*
X141987807Y-90293296D01*
X142010329Y-90301354D01*
X142031953Y-90311582D01*
X142052470Y-90323879D01*
X142071683Y-90338129D01*
X142089407Y-90354193D01*
X142105471Y-90371917D01*
X142119721Y-90391130D01*
X142132018Y-90411647D01*
X142142246Y-90433271D01*
X142150304Y-90455793D01*
X142156116Y-90478997D01*
X142159626Y-90502658D01*
X142160800Y-90526550D01*
X142160800Y-91439050D01*
X142159626Y-91462942D01*
X142156116Y-91486603D01*
X142150304Y-91509807D01*
X142142246Y-91532329D01*
X142132018Y-91553953D01*
X142119721Y-91574470D01*
X142105471Y-91593683D01*
X142089407Y-91611407D01*
X142071683Y-91627471D01*
X142052470Y-91641721D01*
X142031953Y-91654018D01*
X142010329Y-91664246D01*
X141987807Y-91672304D01*
X141964603Y-91678116D01*
X141940942Y-91681626D01*
X141917050Y-91682800D01*
X141429550Y-91682800D01*
X141405658Y-91681626D01*
X141381997Y-91678116D01*
X141358793Y-91672304D01*
X141336271Y-91664246D01*
X141314647Y-91654018D01*
X141294130Y-91641721D01*
X141274917Y-91627471D01*
X141257193Y-91611407D01*
X141241129Y-91593683D01*
X141226879Y-91574470D01*
X141214582Y-91553953D01*
X141204354Y-91532329D01*
X141196296Y-91509807D01*
X141190484Y-91486603D01*
X141186974Y-91462942D01*
X141185800Y-91439050D01*
X141185800Y-90526550D01*
X141186974Y-90502658D01*
X141190484Y-90478997D01*
X141196296Y-90455793D01*
X141204354Y-90433271D01*
X141214582Y-90411647D01*
X141226879Y-90391130D01*
X141241129Y-90371917D01*
X141257193Y-90354193D01*
X141274917Y-90338129D01*
X141294130Y-90323879D01*
X141314647Y-90311582D01*
X141336271Y-90301354D01*
X141358793Y-90293296D01*
X141381997Y-90287484D01*
X141405658Y-90283974D01*
X141429550Y-90282800D01*
X141917050Y-90282800D01*
X141940942Y-90283974D01*
X141940942Y-90283974D01*
G37*
D11*
X141673300Y-90982800D03*
D10*
G36*
X143815942Y-90283974D02*
G01*
X143839603Y-90287484D01*
X143862807Y-90293296D01*
X143885329Y-90301354D01*
X143906953Y-90311582D01*
X143927470Y-90323879D01*
X143946683Y-90338129D01*
X143964407Y-90354193D01*
X143980471Y-90371917D01*
X143994721Y-90391130D01*
X144007018Y-90411647D01*
X144017246Y-90433271D01*
X144025304Y-90455793D01*
X144031116Y-90478997D01*
X144034626Y-90502658D01*
X144035800Y-90526550D01*
X144035800Y-91439050D01*
X144034626Y-91462942D01*
X144031116Y-91486603D01*
X144025304Y-91509807D01*
X144017246Y-91532329D01*
X144007018Y-91553953D01*
X143994721Y-91574470D01*
X143980471Y-91593683D01*
X143964407Y-91611407D01*
X143946683Y-91627471D01*
X143927470Y-91641721D01*
X143906953Y-91654018D01*
X143885329Y-91664246D01*
X143862807Y-91672304D01*
X143839603Y-91678116D01*
X143815942Y-91681626D01*
X143792050Y-91682800D01*
X143304550Y-91682800D01*
X143280658Y-91681626D01*
X143256997Y-91678116D01*
X143233793Y-91672304D01*
X143211271Y-91664246D01*
X143189647Y-91654018D01*
X143169130Y-91641721D01*
X143149917Y-91627471D01*
X143132193Y-91611407D01*
X143116129Y-91593683D01*
X143101879Y-91574470D01*
X143089582Y-91553953D01*
X143079354Y-91532329D01*
X143071296Y-91509807D01*
X143065484Y-91486603D01*
X143061974Y-91462942D01*
X143060800Y-91439050D01*
X143060800Y-90526550D01*
X143061974Y-90502658D01*
X143065484Y-90478997D01*
X143071296Y-90455793D01*
X143079354Y-90433271D01*
X143089582Y-90411647D01*
X143101879Y-90391130D01*
X143116129Y-90371917D01*
X143132193Y-90354193D01*
X143149917Y-90338129D01*
X143169130Y-90323879D01*
X143189647Y-90311582D01*
X143211271Y-90301354D01*
X143233793Y-90293296D01*
X143256997Y-90287484D01*
X143280658Y-90283974D01*
X143304550Y-90282800D01*
X143792050Y-90282800D01*
X143815942Y-90283974D01*
X143815942Y-90283974D01*
G37*
D11*
X143548300Y-90982800D03*
D10*
G36*
X165072142Y-64717774D02*
G01*
X165095803Y-64721284D01*
X165119007Y-64727096D01*
X165141529Y-64735154D01*
X165163153Y-64745382D01*
X165183670Y-64757679D01*
X165202883Y-64771929D01*
X165220607Y-64787993D01*
X165236671Y-64805717D01*
X165250921Y-64824930D01*
X165263218Y-64845447D01*
X165273446Y-64867071D01*
X165281504Y-64889593D01*
X165287316Y-64912797D01*
X165290826Y-64936458D01*
X165292000Y-64960350D01*
X165292000Y-65447850D01*
X165290826Y-65471742D01*
X165287316Y-65495403D01*
X165281504Y-65518607D01*
X165273446Y-65541129D01*
X165263218Y-65562753D01*
X165250921Y-65583270D01*
X165236671Y-65602483D01*
X165220607Y-65620207D01*
X165202883Y-65636271D01*
X165183670Y-65650521D01*
X165163153Y-65662818D01*
X165141529Y-65673046D01*
X165119007Y-65681104D01*
X165095803Y-65686916D01*
X165072142Y-65690426D01*
X165048250Y-65691600D01*
X164135750Y-65691600D01*
X164111858Y-65690426D01*
X164088197Y-65686916D01*
X164064993Y-65681104D01*
X164042471Y-65673046D01*
X164020847Y-65662818D01*
X164000330Y-65650521D01*
X163981117Y-65636271D01*
X163963393Y-65620207D01*
X163947329Y-65602483D01*
X163933079Y-65583270D01*
X163920782Y-65562753D01*
X163910554Y-65541129D01*
X163902496Y-65518607D01*
X163896684Y-65495403D01*
X163893174Y-65471742D01*
X163892000Y-65447850D01*
X163892000Y-64960350D01*
X163893174Y-64936458D01*
X163896684Y-64912797D01*
X163902496Y-64889593D01*
X163910554Y-64867071D01*
X163920782Y-64845447D01*
X163933079Y-64824930D01*
X163947329Y-64805717D01*
X163963393Y-64787993D01*
X163981117Y-64771929D01*
X164000330Y-64757679D01*
X164020847Y-64745382D01*
X164042471Y-64735154D01*
X164064993Y-64727096D01*
X164088197Y-64721284D01*
X164111858Y-64717774D01*
X164135750Y-64716600D01*
X165048250Y-64716600D01*
X165072142Y-64717774D01*
X165072142Y-64717774D01*
G37*
D11*
X164592000Y-65204100D03*
D10*
G36*
X165072142Y-66592774D02*
G01*
X165095803Y-66596284D01*
X165119007Y-66602096D01*
X165141529Y-66610154D01*
X165163153Y-66620382D01*
X165183670Y-66632679D01*
X165202883Y-66646929D01*
X165220607Y-66662993D01*
X165236671Y-66680717D01*
X165250921Y-66699930D01*
X165263218Y-66720447D01*
X165273446Y-66742071D01*
X165281504Y-66764593D01*
X165287316Y-66787797D01*
X165290826Y-66811458D01*
X165292000Y-66835350D01*
X165292000Y-67322850D01*
X165290826Y-67346742D01*
X165287316Y-67370403D01*
X165281504Y-67393607D01*
X165273446Y-67416129D01*
X165263218Y-67437753D01*
X165250921Y-67458270D01*
X165236671Y-67477483D01*
X165220607Y-67495207D01*
X165202883Y-67511271D01*
X165183670Y-67525521D01*
X165163153Y-67537818D01*
X165141529Y-67548046D01*
X165119007Y-67556104D01*
X165095803Y-67561916D01*
X165072142Y-67565426D01*
X165048250Y-67566600D01*
X164135750Y-67566600D01*
X164111858Y-67565426D01*
X164088197Y-67561916D01*
X164064993Y-67556104D01*
X164042471Y-67548046D01*
X164020847Y-67537818D01*
X164000330Y-67525521D01*
X163981117Y-67511271D01*
X163963393Y-67495207D01*
X163947329Y-67477483D01*
X163933079Y-67458270D01*
X163920782Y-67437753D01*
X163910554Y-67416129D01*
X163902496Y-67393607D01*
X163896684Y-67370403D01*
X163893174Y-67346742D01*
X163892000Y-67322850D01*
X163892000Y-66835350D01*
X163893174Y-66811458D01*
X163896684Y-66787797D01*
X163902496Y-66764593D01*
X163910554Y-66742071D01*
X163920782Y-66720447D01*
X163933079Y-66699930D01*
X163947329Y-66680717D01*
X163963393Y-66662993D01*
X163981117Y-66646929D01*
X164000330Y-66632679D01*
X164020847Y-66620382D01*
X164042471Y-66610154D01*
X164064993Y-66602096D01*
X164088197Y-66596284D01*
X164111858Y-66592774D01*
X164135750Y-66591600D01*
X165048250Y-66591600D01*
X165072142Y-66592774D01*
X165072142Y-66592774D01*
G37*
D11*
X164592000Y-67079100D03*
D10*
G36*
X162786142Y-64717774D02*
G01*
X162809803Y-64721284D01*
X162833007Y-64727096D01*
X162855529Y-64735154D01*
X162877153Y-64745382D01*
X162897670Y-64757679D01*
X162916883Y-64771929D01*
X162934607Y-64787993D01*
X162950671Y-64805717D01*
X162964921Y-64824930D01*
X162977218Y-64845447D01*
X162987446Y-64867071D01*
X162995504Y-64889593D01*
X163001316Y-64912797D01*
X163004826Y-64936458D01*
X163006000Y-64960350D01*
X163006000Y-65447850D01*
X163004826Y-65471742D01*
X163001316Y-65495403D01*
X162995504Y-65518607D01*
X162987446Y-65541129D01*
X162977218Y-65562753D01*
X162964921Y-65583270D01*
X162950671Y-65602483D01*
X162934607Y-65620207D01*
X162916883Y-65636271D01*
X162897670Y-65650521D01*
X162877153Y-65662818D01*
X162855529Y-65673046D01*
X162833007Y-65681104D01*
X162809803Y-65686916D01*
X162786142Y-65690426D01*
X162762250Y-65691600D01*
X161849750Y-65691600D01*
X161825858Y-65690426D01*
X161802197Y-65686916D01*
X161778993Y-65681104D01*
X161756471Y-65673046D01*
X161734847Y-65662818D01*
X161714330Y-65650521D01*
X161695117Y-65636271D01*
X161677393Y-65620207D01*
X161661329Y-65602483D01*
X161647079Y-65583270D01*
X161634782Y-65562753D01*
X161624554Y-65541129D01*
X161616496Y-65518607D01*
X161610684Y-65495403D01*
X161607174Y-65471742D01*
X161606000Y-65447850D01*
X161606000Y-64960350D01*
X161607174Y-64936458D01*
X161610684Y-64912797D01*
X161616496Y-64889593D01*
X161624554Y-64867071D01*
X161634782Y-64845447D01*
X161647079Y-64824930D01*
X161661329Y-64805717D01*
X161677393Y-64787993D01*
X161695117Y-64771929D01*
X161714330Y-64757679D01*
X161734847Y-64745382D01*
X161756471Y-64735154D01*
X161778993Y-64727096D01*
X161802197Y-64721284D01*
X161825858Y-64717774D01*
X161849750Y-64716600D01*
X162762250Y-64716600D01*
X162786142Y-64717774D01*
X162786142Y-64717774D01*
G37*
D11*
X162306000Y-65204100D03*
D10*
G36*
X162786142Y-66592774D02*
G01*
X162809803Y-66596284D01*
X162833007Y-66602096D01*
X162855529Y-66610154D01*
X162877153Y-66620382D01*
X162897670Y-66632679D01*
X162916883Y-66646929D01*
X162934607Y-66662993D01*
X162950671Y-66680717D01*
X162964921Y-66699930D01*
X162977218Y-66720447D01*
X162987446Y-66742071D01*
X162995504Y-66764593D01*
X163001316Y-66787797D01*
X163004826Y-66811458D01*
X163006000Y-66835350D01*
X163006000Y-67322850D01*
X163004826Y-67346742D01*
X163001316Y-67370403D01*
X162995504Y-67393607D01*
X162987446Y-67416129D01*
X162977218Y-67437753D01*
X162964921Y-67458270D01*
X162950671Y-67477483D01*
X162934607Y-67495207D01*
X162916883Y-67511271D01*
X162897670Y-67525521D01*
X162877153Y-67537818D01*
X162855529Y-67548046D01*
X162833007Y-67556104D01*
X162809803Y-67561916D01*
X162786142Y-67565426D01*
X162762250Y-67566600D01*
X161849750Y-67566600D01*
X161825858Y-67565426D01*
X161802197Y-67561916D01*
X161778993Y-67556104D01*
X161756471Y-67548046D01*
X161734847Y-67537818D01*
X161714330Y-67525521D01*
X161695117Y-67511271D01*
X161677393Y-67495207D01*
X161661329Y-67477483D01*
X161647079Y-67458270D01*
X161634782Y-67437753D01*
X161624554Y-67416129D01*
X161616496Y-67393607D01*
X161610684Y-67370403D01*
X161607174Y-67346742D01*
X161606000Y-67322850D01*
X161606000Y-66835350D01*
X161607174Y-66811458D01*
X161610684Y-66787797D01*
X161616496Y-66764593D01*
X161624554Y-66742071D01*
X161634782Y-66720447D01*
X161647079Y-66699930D01*
X161661329Y-66680717D01*
X161677393Y-66662993D01*
X161695117Y-66646929D01*
X161714330Y-66632679D01*
X161734847Y-66620382D01*
X161756471Y-66610154D01*
X161778993Y-66602096D01*
X161802197Y-66596284D01*
X161825858Y-66592774D01*
X161849750Y-66591600D01*
X162762250Y-66591600D01*
X162786142Y-66592774D01*
X162786142Y-66592774D01*
G37*
D11*
X162306000Y-67079100D03*
D10*
G36*
X147788542Y-95617974D02*
G01*
X147812203Y-95621484D01*
X147835407Y-95627296D01*
X147857929Y-95635354D01*
X147879553Y-95645582D01*
X147900070Y-95657879D01*
X147919283Y-95672129D01*
X147937007Y-95688193D01*
X147953071Y-95705917D01*
X147967321Y-95725130D01*
X147979618Y-95745647D01*
X147989846Y-95767271D01*
X147997904Y-95789793D01*
X148003716Y-95812997D01*
X148007226Y-95836658D01*
X148008400Y-95860550D01*
X148008400Y-96773050D01*
X148007226Y-96796942D01*
X148003716Y-96820603D01*
X147997904Y-96843807D01*
X147989846Y-96866329D01*
X147979618Y-96887953D01*
X147967321Y-96908470D01*
X147953071Y-96927683D01*
X147937007Y-96945407D01*
X147919283Y-96961471D01*
X147900070Y-96975721D01*
X147879553Y-96988018D01*
X147857929Y-96998246D01*
X147835407Y-97006304D01*
X147812203Y-97012116D01*
X147788542Y-97015626D01*
X147764650Y-97016800D01*
X147277150Y-97016800D01*
X147253258Y-97015626D01*
X147229597Y-97012116D01*
X147206393Y-97006304D01*
X147183871Y-96998246D01*
X147162247Y-96988018D01*
X147141730Y-96975721D01*
X147122517Y-96961471D01*
X147104793Y-96945407D01*
X147088729Y-96927683D01*
X147074479Y-96908470D01*
X147062182Y-96887953D01*
X147051954Y-96866329D01*
X147043896Y-96843807D01*
X147038084Y-96820603D01*
X147034574Y-96796942D01*
X147033400Y-96773050D01*
X147033400Y-95860550D01*
X147034574Y-95836658D01*
X147038084Y-95812997D01*
X147043896Y-95789793D01*
X147051954Y-95767271D01*
X147062182Y-95745647D01*
X147074479Y-95725130D01*
X147088729Y-95705917D01*
X147104793Y-95688193D01*
X147122517Y-95672129D01*
X147141730Y-95657879D01*
X147162247Y-95645582D01*
X147183871Y-95635354D01*
X147206393Y-95627296D01*
X147229597Y-95621484D01*
X147253258Y-95617974D01*
X147277150Y-95616800D01*
X147764650Y-95616800D01*
X147788542Y-95617974D01*
X147788542Y-95617974D01*
G37*
D11*
X147520900Y-96316800D03*
D10*
G36*
X145913542Y-95617974D02*
G01*
X145937203Y-95621484D01*
X145960407Y-95627296D01*
X145982929Y-95635354D01*
X146004553Y-95645582D01*
X146025070Y-95657879D01*
X146044283Y-95672129D01*
X146062007Y-95688193D01*
X146078071Y-95705917D01*
X146092321Y-95725130D01*
X146104618Y-95745647D01*
X146114846Y-95767271D01*
X146122904Y-95789793D01*
X146128716Y-95812997D01*
X146132226Y-95836658D01*
X146133400Y-95860550D01*
X146133400Y-96773050D01*
X146132226Y-96796942D01*
X146128716Y-96820603D01*
X146122904Y-96843807D01*
X146114846Y-96866329D01*
X146104618Y-96887953D01*
X146092321Y-96908470D01*
X146078071Y-96927683D01*
X146062007Y-96945407D01*
X146044283Y-96961471D01*
X146025070Y-96975721D01*
X146004553Y-96988018D01*
X145982929Y-96998246D01*
X145960407Y-97006304D01*
X145937203Y-97012116D01*
X145913542Y-97015626D01*
X145889650Y-97016800D01*
X145402150Y-97016800D01*
X145378258Y-97015626D01*
X145354597Y-97012116D01*
X145331393Y-97006304D01*
X145308871Y-96998246D01*
X145287247Y-96988018D01*
X145266730Y-96975721D01*
X145247517Y-96961471D01*
X145229793Y-96945407D01*
X145213729Y-96927683D01*
X145199479Y-96908470D01*
X145187182Y-96887953D01*
X145176954Y-96866329D01*
X145168896Y-96843807D01*
X145163084Y-96820603D01*
X145159574Y-96796942D01*
X145158400Y-96773050D01*
X145158400Y-95860550D01*
X145159574Y-95836658D01*
X145163084Y-95812997D01*
X145168896Y-95789793D01*
X145176954Y-95767271D01*
X145187182Y-95745647D01*
X145199479Y-95725130D01*
X145213729Y-95705917D01*
X145229793Y-95688193D01*
X145247517Y-95672129D01*
X145266730Y-95657879D01*
X145287247Y-95645582D01*
X145308871Y-95635354D01*
X145331393Y-95627296D01*
X145354597Y-95621484D01*
X145378258Y-95617974D01*
X145402150Y-95616800D01*
X145889650Y-95616800D01*
X145913542Y-95617974D01*
X145913542Y-95617974D01*
G37*
D11*
X145645900Y-96316800D03*
D10*
G36*
X145888142Y-97878574D02*
G01*
X145911803Y-97882084D01*
X145935007Y-97887896D01*
X145957529Y-97895954D01*
X145979153Y-97906182D01*
X145999670Y-97918479D01*
X146018883Y-97932729D01*
X146036607Y-97948793D01*
X146052671Y-97966517D01*
X146066921Y-97985730D01*
X146079218Y-98006247D01*
X146089446Y-98027871D01*
X146097504Y-98050393D01*
X146103316Y-98073597D01*
X146106826Y-98097258D01*
X146108000Y-98121150D01*
X146108000Y-99033650D01*
X146106826Y-99057542D01*
X146103316Y-99081203D01*
X146097504Y-99104407D01*
X146089446Y-99126929D01*
X146079218Y-99148553D01*
X146066921Y-99169070D01*
X146052671Y-99188283D01*
X146036607Y-99206007D01*
X146018883Y-99222071D01*
X145999670Y-99236321D01*
X145979153Y-99248618D01*
X145957529Y-99258846D01*
X145935007Y-99266904D01*
X145911803Y-99272716D01*
X145888142Y-99276226D01*
X145864250Y-99277400D01*
X145376750Y-99277400D01*
X145352858Y-99276226D01*
X145329197Y-99272716D01*
X145305993Y-99266904D01*
X145283471Y-99258846D01*
X145261847Y-99248618D01*
X145241330Y-99236321D01*
X145222117Y-99222071D01*
X145204393Y-99206007D01*
X145188329Y-99188283D01*
X145174079Y-99169070D01*
X145161782Y-99148553D01*
X145151554Y-99126929D01*
X145143496Y-99104407D01*
X145137684Y-99081203D01*
X145134174Y-99057542D01*
X145133000Y-99033650D01*
X145133000Y-98121150D01*
X145134174Y-98097258D01*
X145137684Y-98073597D01*
X145143496Y-98050393D01*
X145151554Y-98027871D01*
X145161782Y-98006247D01*
X145174079Y-97985730D01*
X145188329Y-97966517D01*
X145204393Y-97948793D01*
X145222117Y-97932729D01*
X145241330Y-97918479D01*
X145261847Y-97906182D01*
X145283471Y-97895954D01*
X145305993Y-97887896D01*
X145329197Y-97882084D01*
X145352858Y-97878574D01*
X145376750Y-97877400D01*
X145864250Y-97877400D01*
X145888142Y-97878574D01*
X145888142Y-97878574D01*
G37*
D11*
X145620500Y-98577400D03*
D10*
G36*
X147763142Y-97878574D02*
G01*
X147786803Y-97882084D01*
X147810007Y-97887896D01*
X147832529Y-97895954D01*
X147854153Y-97906182D01*
X147874670Y-97918479D01*
X147893883Y-97932729D01*
X147911607Y-97948793D01*
X147927671Y-97966517D01*
X147941921Y-97985730D01*
X147954218Y-98006247D01*
X147964446Y-98027871D01*
X147972504Y-98050393D01*
X147978316Y-98073597D01*
X147981826Y-98097258D01*
X147983000Y-98121150D01*
X147983000Y-99033650D01*
X147981826Y-99057542D01*
X147978316Y-99081203D01*
X147972504Y-99104407D01*
X147964446Y-99126929D01*
X147954218Y-99148553D01*
X147941921Y-99169070D01*
X147927671Y-99188283D01*
X147911607Y-99206007D01*
X147893883Y-99222071D01*
X147874670Y-99236321D01*
X147854153Y-99248618D01*
X147832529Y-99258846D01*
X147810007Y-99266904D01*
X147786803Y-99272716D01*
X147763142Y-99276226D01*
X147739250Y-99277400D01*
X147251750Y-99277400D01*
X147227858Y-99276226D01*
X147204197Y-99272716D01*
X147180993Y-99266904D01*
X147158471Y-99258846D01*
X147136847Y-99248618D01*
X147116330Y-99236321D01*
X147097117Y-99222071D01*
X147079393Y-99206007D01*
X147063329Y-99188283D01*
X147049079Y-99169070D01*
X147036782Y-99148553D01*
X147026554Y-99126929D01*
X147018496Y-99104407D01*
X147012684Y-99081203D01*
X147009174Y-99057542D01*
X147008000Y-99033650D01*
X147008000Y-98121150D01*
X147009174Y-98097258D01*
X147012684Y-98073597D01*
X147018496Y-98050393D01*
X147026554Y-98027871D01*
X147036782Y-98006247D01*
X147049079Y-97985730D01*
X147063329Y-97966517D01*
X147079393Y-97948793D01*
X147097117Y-97932729D01*
X147116330Y-97918479D01*
X147136847Y-97906182D01*
X147158471Y-97895954D01*
X147180993Y-97887896D01*
X147204197Y-97882084D01*
X147227858Y-97878574D01*
X147251750Y-97877400D01*
X147739250Y-97877400D01*
X147763142Y-97878574D01*
X147763142Y-97878574D01*
G37*
D11*
X147495500Y-98577400D03*
D10*
G36*
X146853342Y-106387574D02*
G01*
X146877003Y-106391084D01*
X146900207Y-106396896D01*
X146922729Y-106404954D01*
X146944353Y-106415182D01*
X146964870Y-106427479D01*
X146984083Y-106441729D01*
X147001807Y-106457793D01*
X147017871Y-106475517D01*
X147032121Y-106494730D01*
X147044418Y-106515247D01*
X147054646Y-106536871D01*
X147062704Y-106559393D01*
X147068516Y-106582597D01*
X147072026Y-106606258D01*
X147073200Y-106630150D01*
X147073200Y-107542650D01*
X147072026Y-107566542D01*
X147068516Y-107590203D01*
X147062704Y-107613407D01*
X147054646Y-107635929D01*
X147044418Y-107657553D01*
X147032121Y-107678070D01*
X147017871Y-107697283D01*
X147001807Y-107715007D01*
X146984083Y-107731071D01*
X146964870Y-107745321D01*
X146944353Y-107757618D01*
X146922729Y-107767846D01*
X146900207Y-107775904D01*
X146877003Y-107781716D01*
X146853342Y-107785226D01*
X146829450Y-107786400D01*
X146341950Y-107786400D01*
X146318058Y-107785226D01*
X146294397Y-107781716D01*
X146271193Y-107775904D01*
X146248671Y-107767846D01*
X146227047Y-107757618D01*
X146206530Y-107745321D01*
X146187317Y-107731071D01*
X146169593Y-107715007D01*
X146153529Y-107697283D01*
X146139279Y-107678070D01*
X146126982Y-107657553D01*
X146116754Y-107635929D01*
X146108696Y-107613407D01*
X146102884Y-107590203D01*
X146099374Y-107566542D01*
X146098200Y-107542650D01*
X146098200Y-106630150D01*
X146099374Y-106606258D01*
X146102884Y-106582597D01*
X146108696Y-106559393D01*
X146116754Y-106536871D01*
X146126982Y-106515247D01*
X146139279Y-106494730D01*
X146153529Y-106475517D01*
X146169593Y-106457793D01*
X146187317Y-106441729D01*
X146206530Y-106427479D01*
X146227047Y-106415182D01*
X146248671Y-106404954D01*
X146271193Y-106396896D01*
X146294397Y-106391084D01*
X146318058Y-106387574D01*
X146341950Y-106386400D01*
X146829450Y-106386400D01*
X146853342Y-106387574D01*
X146853342Y-106387574D01*
G37*
D11*
X146585700Y-107086400D03*
D10*
G36*
X148728342Y-106387574D02*
G01*
X148752003Y-106391084D01*
X148775207Y-106396896D01*
X148797729Y-106404954D01*
X148819353Y-106415182D01*
X148839870Y-106427479D01*
X148859083Y-106441729D01*
X148876807Y-106457793D01*
X148892871Y-106475517D01*
X148907121Y-106494730D01*
X148919418Y-106515247D01*
X148929646Y-106536871D01*
X148937704Y-106559393D01*
X148943516Y-106582597D01*
X148947026Y-106606258D01*
X148948200Y-106630150D01*
X148948200Y-107542650D01*
X148947026Y-107566542D01*
X148943516Y-107590203D01*
X148937704Y-107613407D01*
X148929646Y-107635929D01*
X148919418Y-107657553D01*
X148907121Y-107678070D01*
X148892871Y-107697283D01*
X148876807Y-107715007D01*
X148859083Y-107731071D01*
X148839870Y-107745321D01*
X148819353Y-107757618D01*
X148797729Y-107767846D01*
X148775207Y-107775904D01*
X148752003Y-107781716D01*
X148728342Y-107785226D01*
X148704450Y-107786400D01*
X148216950Y-107786400D01*
X148193058Y-107785226D01*
X148169397Y-107781716D01*
X148146193Y-107775904D01*
X148123671Y-107767846D01*
X148102047Y-107757618D01*
X148081530Y-107745321D01*
X148062317Y-107731071D01*
X148044593Y-107715007D01*
X148028529Y-107697283D01*
X148014279Y-107678070D01*
X148001982Y-107657553D01*
X147991754Y-107635929D01*
X147983696Y-107613407D01*
X147977884Y-107590203D01*
X147974374Y-107566542D01*
X147973200Y-107542650D01*
X147973200Y-106630150D01*
X147974374Y-106606258D01*
X147977884Y-106582597D01*
X147983696Y-106559393D01*
X147991754Y-106536871D01*
X148001982Y-106515247D01*
X148014279Y-106494730D01*
X148028529Y-106475517D01*
X148044593Y-106457793D01*
X148062317Y-106441729D01*
X148081530Y-106427479D01*
X148102047Y-106415182D01*
X148123671Y-106404954D01*
X148146193Y-106396896D01*
X148169397Y-106391084D01*
X148193058Y-106387574D01*
X148216950Y-106386400D01*
X148704450Y-106386400D01*
X148728342Y-106387574D01*
X148728342Y-106387574D01*
G37*
D11*
X148460700Y-107086400D03*
D10*
G36*
X148728342Y-103796774D02*
G01*
X148752003Y-103800284D01*
X148775207Y-103806096D01*
X148797729Y-103814154D01*
X148819353Y-103824382D01*
X148839870Y-103836679D01*
X148859083Y-103850929D01*
X148876807Y-103866993D01*
X148892871Y-103884717D01*
X148907121Y-103903930D01*
X148919418Y-103924447D01*
X148929646Y-103946071D01*
X148937704Y-103968593D01*
X148943516Y-103991797D01*
X148947026Y-104015458D01*
X148948200Y-104039350D01*
X148948200Y-104951850D01*
X148947026Y-104975742D01*
X148943516Y-104999403D01*
X148937704Y-105022607D01*
X148929646Y-105045129D01*
X148919418Y-105066753D01*
X148907121Y-105087270D01*
X148892871Y-105106483D01*
X148876807Y-105124207D01*
X148859083Y-105140271D01*
X148839870Y-105154521D01*
X148819353Y-105166818D01*
X148797729Y-105177046D01*
X148775207Y-105185104D01*
X148752003Y-105190916D01*
X148728342Y-105194426D01*
X148704450Y-105195600D01*
X148216950Y-105195600D01*
X148193058Y-105194426D01*
X148169397Y-105190916D01*
X148146193Y-105185104D01*
X148123671Y-105177046D01*
X148102047Y-105166818D01*
X148081530Y-105154521D01*
X148062317Y-105140271D01*
X148044593Y-105124207D01*
X148028529Y-105106483D01*
X148014279Y-105087270D01*
X148001982Y-105066753D01*
X147991754Y-105045129D01*
X147983696Y-105022607D01*
X147977884Y-104999403D01*
X147974374Y-104975742D01*
X147973200Y-104951850D01*
X147973200Y-104039350D01*
X147974374Y-104015458D01*
X147977884Y-103991797D01*
X147983696Y-103968593D01*
X147991754Y-103946071D01*
X148001982Y-103924447D01*
X148014279Y-103903930D01*
X148028529Y-103884717D01*
X148044593Y-103866993D01*
X148062317Y-103850929D01*
X148081530Y-103836679D01*
X148102047Y-103824382D01*
X148123671Y-103814154D01*
X148146193Y-103806096D01*
X148169397Y-103800284D01*
X148193058Y-103796774D01*
X148216950Y-103795600D01*
X148704450Y-103795600D01*
X148728342Y-103796774D01*
X148728342Y-103796774D01*
G37*
D11*
X148460700Y-104495600D03*
D10*
G36*
X146853342Y-103796774D02*
G01*
X146877003Y-103800284D01*
X146900207Y-103806096D01*
X146922729Y-103814154D01*
X146944353Y-103824382D01*
X146964870Y-103836679D01*
X146984083Y-103850929D01*
X147001807Y-103866993D01*
X147017871Y-103884717D01*
X147032121Y-103903930D01*
X147044418Y-103924447D01*
X147054646Y-103946071D01*
X147062704Y-103968593D01*
X147068516Y-103991797D01*
X147072026Y-104015458D01*
X147073200Y-104039350D01*
X147073200Y-104951850D01*
X147072026Y-104975742D01*
X147068516Y-104999403D01*
X147062704Y-105022607D01*
X147054646Y-105045129D01*
X147044418Y-105066753D01*
X147032121Y-105087270D01*
X147017871Y-105106483D01*
X147001807Y-105124207D01*
X146984083Y-105140271D01*
X146964870Y-105154521D01*
X146944353Y-105166818D01*
X146922729Y-105177046D01*
X146900207Y-105185104D01*
X146877003Y-105190916D01*
X146853342Y-105194426D01*
X146829450Y-105195600D01*
X146341950Y-105195600D01*
X146318058Y-105194426D01*
X146294397Y-105190916D01*
X146271193Y-105185104D01*
X146248671Y-105177046D01*
X146227047Y-105166818D01*
X146206530Y-105154521D01*
X146187317Y-105140271D01*
X146169593Y-105124207D01*
X146153529Y-105106483D01*
X146139279Y-105087270D01*
X146126982Y-105066753D01*
X146116754Y-105045129D01*
X146108696Y-105022607D01*
X146102884Y-104999403D01*
X146099374Y-104975742D01*
X146098200Y-104951850D01*
X146098200Y-104039350D01*
X146099374Y-104015458D01*
X146102884Y-103991797D01*
X146108696Y-103968593D01*
X146116754Y-103946071D01*
X146126982Y-103924447D01*
X146139279Y-103903930D01*
X146153529Y-103884717D01*
X146169593Y-103866993D01*
X146187317Y-103850929D01*
X146206530Y-103836679D01*
X146227047Y-103824382D01*
X146248671Y-103814154D01*
X146271193Y-103806096D01*
X146294397Y-103800284D01*
X146318058Y-103796774D01*
X146341950Y-103795600D01*
X146829450Y-103795600D01*
X146853342Y-103796774D01*
X146853342Y-103796774D01*
G37*
D11*
X146585700Y-104495600D03*
D10*
G36*
X147803342Y-87743974D02*
G01*
X147827003Y-87747484D01*
X147850207Y-87753296D01*
X147872729Y-87761354D01*
X147894353Y-87771582D01*
X147914870Y-87783879D01*
X147934083Y-87798129D01*
X147951807Y-87814193D01*
X147967871Y-87831917D01*
X147982121Y-87851130D01*
X147994418Y-87871647D01*
X148004646Y-87893271D01*
X148012704Y-87915793D01*
X148018516Y-87938997D01*
X148022026Y-87962658D01*
X148023200Y-87986550D01*
X148023200Y-88899050D01*
X148022026Y-88922942D01*
X148018516Y-88946603D01*
X148012704Y-88969807D01*
X148004646Y-88992329D01*
X147994418Y-89013953D01*
X147982121Y-89034470D01*
X147967871Y-89053683D01*
X147951807Y-89071407D01*
X147934083Y-89087471D01*
X147914870Y-89101721D01*
X147894353Y-89114018D01*
X147872729Y-89124246D01*
X147850207Y-89132304D01*
X147827003Y-89138116D01*
X147803342Y-89141626D01*
X147779450Y-89142800D01*
X147291950Y-89142800D01*
X147268058Y-89141626D01*
X147244397Y-89138116D01*
X147221193Y-89132304D01*
X147198671Y-89124246D01*
X147177047Y-89114018D01*
X147156530Y-89101721D01*
X147137317Y-89087471D01*
X147119593Y-89071407D01*
X147103529Y-89053683D01*
X147089279Y-89034470D01*
X147076982Y-89013953D01*
X147066754Y-88992329D01*
X147058696Y-88969807D01*
X147052884Y-88946603D01*
X147049374Y-88922942D01*
X147048200Y-88899050D01*
X147048200Y-87986550D01*
X147049374Y-87962658D01*
X147052884Y-87938997D01*
X147058696Y-87915793D01*
X147066754Y-87893271D01*
X147076982Y-87871647D01*
X147089279Y-87851130D01*
X147103529Y-87831917D01*
X147119593Y-87814193D01*
X147137317Y-87798129D01*
X147156530Y-87783879D01*
X147177047Y-87771582D01*
X147198671Y-87761354D01*
X147221193Y-87753296D01*
X147244397Y-87747484D01*
X147268058Y-87743974D01*
X147291950Y-87742800D01*
X147779450Y-87742800D01*
X147803342Y-87743974D01*
X147803342Y-87743974D01*
G37*
D11*
X147535700Y-88442800D03*
D10*
G36*
X149678342Y-87743974D02*
G01*
X149702003Y-87747484D01*
X149725207Y-87753296D01*
X149747729Y-87761354D01*
X149769353Y-87771582D01*
X149789870Y-87783879D01*
X149809083Y-87798129D01*
X149826807Y-87814193D01*
X149842871Y-87831917D01*
X149857121Y-87851130D01*
X149869418Y-87871647D01*
X149879646Y-87893271D01*
X149887704Y-87915793D01*
X149893516Y-87938997D01*
X149897026Y-87962658D01*
X149898200Y-87986550D01*
X149898200Y-88899050D01*
X149897026Y-88922942D01*
X149893516Y-88946603D01*
X149887704Y-88969807D01*
X149879646Y-88992329D01*
X149869418Y-89013953D01*
X149857121Y-89034470D01*
X149842871Y-89053683D01*
X149826807Y-89071407D01*
X149809083Y-89087471D01*
X149789870Y-89101721D01*
X149769353Y-89114018D01*
X149747729Y-89124246D01*
X149725207Y-89132304D01*
X149702003Y-89138116D01*
X149678342Y-89141626D01*
X149654450Y-89142800D01*
X149166950Y-89142800D01*
X149143058Y-89141626D01*
X149119397Y-89138116D01*
X149096193Y-89132304D01*
X149073671Y-89124246D01*
X149052047Y-89114018D01*
X149031530Y-89101721D01*
X149012317Y-89087471D01*
X148994593Y-89071407D01*
X148978529Y-89053683D01*
X148964279Y-89034470D01*
X148951982Y-89013953D01*
X148941754Y-88992329D01*
X148933696Y-88969807D01*
X148927884Y-88946603D01*
X148924374Y-88922942D01*
X148923200Y-88899050D01*
X148923200Y-87986550D01*
X148924374Y-87962658D01*
X148927884Y-87938997D01*
X148933696Y-87915793D01*
X148941754Y-87893271D01*
X148951982Y-87871647D01*
X148964279Y-87851130D01*
X148978529Y-87831917D01*
X148994593Y-87814193D01*
X149012317Y-87798129D01*
X149031530Y-87783879D01*
X149052047Y-87771582D01*
X149073671Y-87761354D01*
X149096193Y-87753296D01*
X149119397Y-87747484D01*
X149143058Y-87743974D01*
X149166950Y-87742800D01*
X149654450Y-87742800D01*
X149678342Y-87743974D01*
X149678342Y-87743974D01*
G37*
D11*
X149410700Y-88442800D03*
D10*
G36*
X155547142Y-64717774D02*
G01*
X155570803Y-64721284D01*
X155594007Y-64727096D01*
X155616529Y-64735154D01*
X155638153Y-64745382D01*
X155658670Y-64757679D01*
X155677883Y-64771929D01*
X155695607Y-64787993D01*
X155711671Y-64805717D01*
X155725921Y-64824930D01*
X155738218Y-64845447D01*
X155748446Y-64867071D01*
X155756504Y-64889593D01*
X155762316Y-64912797D01*
X155765826Y-64936458D01*
X155767000Y-64960350D01*
X155767000Y-65447850D01*
X155765826Y-65471742D01*
X155762316Y-65495403D01*
X155756504Y-65518607D01*
X155748446Y-65541129D01*
X155738218Y-65562753D01*
X155725921Y-65583270D01*
X155711671Y-65602483D01*
X155695607Y-65620207D01*
X155677883Y-65636271D01*
X155658670Y-65650521D01*
X155638153Y-65662818D01*
X155616529Y-65673046D01*
X155594007Y-65681104D01*
X155570803Y-65686916D01*
X155547142Y-65690426D01*
X155523250Y-65691600D01*
X154610750Y-65691600D01*
X154586858Y-65690426D01*
X154563197Y-65686916D01*
X154539993Y-65681104D01*
X154517471Y-65673046D01*
X154495847Y-65662818D01*
X154475330Y-65650521D01*
X154456117Y-65636271D01*
X154438393Y-65620207D01*
X154422329Y-65602483D01*
X154408079Y-65583270D01*
X154395782Y-65562753D01*
X154385554Y-65541129D01*
X154377496Y-65518607D01*
X154371684Y-65495403D01*
X154368174Y-65471742D01*
X154367000Y-65447850D01*
X154367000Y-64960350D01*
X154368174Y-64936458D01*
X154371684Y-64912797D01*
X154377496Y-64889593D01*
X154385554Y-64867071D01*
X154395782Y-64845447D01*
X154408079Y-64824930D01*
X154422329Y-64805717D01*
X154438393Y-64787993D01*
X154456117Y-64771929D01*
X154475330Y-64757679D01*
X154495847Y-64745382D01*
X154517471Y-64735154D01*
X154539993Y-64727096D01*
X154563197Y-64721284D01*
X154586858Y-64717774D01*
X154610750Y-64716600D01*
X155523250Y-64716600D01*
X155547142Y-64717774D01*
X155547142Y-64717774D01*
G37*
D11*
X155067000Y-65204100D03*
D10*
G36*
X155547142Y-66592774D02*
G01*
X155570803Y-66596284D01*
X155594007Y-66602096D01*
X155616529Y-66610154D01*
X155638153Y-66620382D01*
X155658670Y-66632679D01*
X155677883Y-66646929D01*
X155695607Y-66662993D01*
X155711671Y-66680717D01*
X155725921Y-66699930D01*
X155738218Y-66720447D01*
X155748446Y-66742071D01*
X155756504Y-66764593D01*
X155762316Y-66787797D01*
X155765826Y-66811458D01*
X155767000Y-66835350D01*
X155767000Y-67322850D01*
X155765826Y-67346742D01*
X155762316Y-67370403D01*
X155756504Y-67393607D01*
X155748446Y-67416129D01*
X155738218Y-67437753D01*
X155725921Y-67458270D01*
X155711671Y-67477483D01*
X155695607Y-67495207D01*
X155677883Y-67511271D01*
X155658670Y-67525521D01*
X155638153Y-67537818D01*
X155616529Y-67548046D01*
X155594007Y-67556104D01*
X155570803Y-67561916D01*
X155547142Y-67565426D01*
X155523250Y-67566600D01*
X154610750Y-67566600D01*
X154586858Y-67565426D01*
X154563197Y-67561916D01*
X154539993Y-67556104D01*
X154517471Y-67548046D01*
X154495847Y-67537818D01*
X154475330Y-67525521D01*
X154456117Y-67511271D01*
X154438393Y-67495207D01*
X154422329Y-67477483D01*
X154408079Y-67458270D01*
X154395782Y-67437753D01*
X154385554Y-67416129D01*
X154377496Y-67393607D01*
X154371684Y-67370403D01*
X154368174Y-67346742D01*
X154367000Y-67322850D01*
X154367000Y-66835350D01*
X154368174Y-66811458D01*
X154371684Y-66787797D01*
X154377496Y-66764593D01*
X154385554Y-66742071D01*
X154395782Y-66720447D01*
X154408079Y-66699930D01*
X154422329Y-66680717D01*
X154438393Y-66662993D01*
X154456117Y-66646929D01*
X154475330Y-66632679D01*
X154495847Y-66620382D01*
X154517471Y-66610154D01*
X154539993Y-66602096D01*
X154563197Y-66596284D01*
X154586858Y-66592774D01*
X154610750Y-66591600D01*
X155523250Y-66591600D01*
X155547142Y-66592774D01*
X155547142Y-66592774D01*
G37*
D11*
X155067000Y-67079100D03*
D10*
G36*
X182616542Y-95465574D02*
G01*
X182640203Y-95469084D01*
X182663407Y-95474896D01*
X182685929Y-95482954D01*
X182707553Y-95493182D01*
X182728070Y-95505479D01*
X182747283Y-95519729D01*
X182765007Y-95535793D01*
X182781071Y-95553517D01*
X182795321Y-95572730D01*
X182807618Y-95593247D01*
X182817846Y-95614871D01*
X182825904Y-95637393D01*
X182831716Y-95660597D01*
X182835226Y-95684258D01*
X182836400Y-95708150D01*
X182836400Y-96620650D01*
X182835226Y-96644542D01*
X182831716Y-96668203D01*
X182825904Y-96691407D01*
X182817846Y-96713929D01*
X182807618Y-96735553D01*
X182795321Y-96756070D01*
X182781071Y-96775283D01*
X182765007Y-96793007D01*
X182747283Y-96809071D01*
X182728070Y-96823321D01*
X182707553Y-96835618D01*
X182685929Y-96845846D01*
X182663407Y-96853904D01*
X182640203Y-96859716D01*
X182616542Y-96863226D01*
X182592650Y-96864400D01*
X182105150Y-96864400D01*
X182081258Y-96863226D01*
X182057597Y-96859716D01*
X182034393Y-96853904D01*
X182011871Y-96845846D01*
X181990247Y-96835618D01*
X181969730Y-96823321D01*
X181950517Y-96809071D01*
X181932793Y-96793007D01*
X181916729Y-96775283D01*
X181902479Y-96756070D01*
X181890182Y-96735553D01*
X181879954Y-96713929D01*
X181871896Y-96691407D01*
X181866084Y-96668203D01*
X181862574Y-96644542D01*
X181861400Y-96620650D01*
X181861400Y-95708150D01*
X181862574Y-95684258D01*
X181866084Y-95660597D01*
X181871896Y-95637393D01*
X181879954Y-95614871D01*
X181890182Y-95593247D01*
X181902479Y-95572730D01*
X181916729Y-95553517D01*
X181932793Y-95535793D01*
X181950517Y-95519729D01*
X181969730Y-95505479D01*
X181990247Y-95493182D01*
X182011871Y-95482954D01*
X182034393Y-95474896D01*
X182057597Y-95469084D01*
X182081258Y-95465574D01*
X182105150Y-95464400D01*
X182592650Y-95464400D01*
X182616542Y-95465574D01*
X182616542Y-95465574D01*
G37*
D11*
X182348900Y-96164400D03*
D10*
G36*
X184491542Y-95465574D02*
G01*
X184515203Y-95469084D01*
X184538407Y-95474896D01*
X184560929Y-95482954D01*
X184582553Y-95493182D01*
X184603070Y-95505479D01*
X184622283Y-95519729D01*
X184640007Y-95535793D01*
X184656071Y-95553517D01*
X184670321Y-95572730D01*
X184682618Y-95593247D01*
X184692846Y-95614871D01*
X184700904Y-95637393D01*
X184706716Y-95660597D01*
X184710226Y-95684258D01*
X184711400Y-95708150D01*
X184711400Y-96620650D01*
X184710226Y-96644542D01*
X184706716Y-96668203D01*
X184700904Y-96691407D01*
X184692846Y-96713929D01*
X184682618Y-96735553D01*
X184670321Y-96756070D01*
X184656071Y-96775283D01*
X184640007Y-96793007D01*
X184622283Y-96809071D01*
X184603070Y-96823321D01*
X184582553Y-96835618D01*
X184560929Y-96845846D01*
X184538407Y-96853904D01*
X184515203Y-96859716D01*
X184491542Y-96863226D01*
X184467650Y-96864400D01*
X183980150Y-96864400D01*
X183956258Y-96863226D01*
X183932597Y-96859716D01*
X183909393Y-96853904D01*
X183886871Y-96845846D01*
X183865247Y-96835618D01*
X183844730Y-96823321D01*
X183825517Y-96809071D01*
X183807793Y-96793007D01*
X183791729Y-96775283D01*
X183777479Y-96756070D01*
X183765182Y-96735553D01*
X183754954Y-96713929D01*
X183746896Y-96691407D01*
X183741084Y-96668203D01*
X183737574Y-96644542D01*
X183736400Y-96620650D01*
X183736400Y-95708150D01*
X183737574Y-95684258D01*
X183741084Y-95660597D01*
X183746896Y-95637393D01*
X183754954Y-95614871D01*
X183765182Y-95593247D01*
X183777479Y-95572730D01*
X183791729Y-95553517D01*
X183807793Y-95535793D01*
X183825517Y-95519729D01*
X183844730Y-95505479D01*
X183865247Y-95493182D01*
X183886871Y-95482954D01*
X183909393Y-95474896D01*
X183932597Y-95469084D01*
X183956258Y-95465574D01*
X183980150Y-95464400D01*
X184467650Y-95464400D01*
X184491542Y-95465574D01*
X184491542Y-95465574D01*
G37*
D11*
X184223900Y-96164400D03*
D10*
G36*
X182616542Y-98259574D02*
G01*
X182640203Y-98263084D01*
X182663407Y-98268896D01*
X182685929Y-98276954D01*
X182707553Y-98287182D01*
X182728070Y-98299479D01*
X182747283Y-98313729D01*
X182765007Y-98329793D01*
X182781071Y-98347517D01*
X182795321Y-98366730D01*
X182807618Y-98387247D01*
X182817846Y-98408871D01*
X182825904Y-98431393D01*
X182831716Y-98454597D01*
X182835226Y-98478258D01*
X182836400Y-98502150D01*
X182836400Y-99414650D01*
X182835226Y-99438542D01*
X182831716Y-99462203D01*
X182825904Y-99485407D01*
X182817846Y-99507929D01*
X182807618Y-99529553D01*
X182795321Y-99550070D01*
X182781071Y-99569283D01*
X182765007Y-99587007D01*
X182747283Y-99603071D01*
X182728070Y-99617321D01*
X182707553Y-99629618D01*
X182685929Y-99639846D01*
X182663407Y-99647904D01*
X182640203Y-99653716D01*
X182616542Y-99657226D01*
X182592650Y-99658400D01*
X182105150Y-99658400D01*
X182081258Y-99657226D01*
X182057597Y-99653716D01*
X182034393Y-99647904D01*
X182011871Y-99639846D01*
X181990247Y-99629618D01*
X181969730Y-99617321D01*
X181950517Y-99603071D01*
X181932793Y-99587007D01*
X181916729Y-99569283D01*
X181902479Y-99550070D01*
X181890182Y-99529553D01*
X181879954Y-99507929D01*
X181871896Y-99485407D01*
X181866084Y-99462203D01*
X181862574Y-99438542D01*
X181861400Y-99414650D01*
X181861400Y-98502150D01*
X181862574Y-98478258D01*
X181866084Y-98454597D01*
X181871896Y-98431393D01*
X181879954Y-98408871D01*
X181890182Y-98387247D01*
X181902479Y-98366730D01*
X181916729Y-98347517D01*
X181932793Y-98329793D01*
X181950517Y-98313729D01*
X181969730Y-98299479D01*
X181990247Y-98287182D01*
X182011871Y-98276954D01*
X182034393Y-98268896D01*
X182057597Y-98263084D01*
X182081258Y-98259574D01*
X182105150Y-98258400D01*
X182592650Y-98258400D01*
X182616542Y-98259574D01*
X182616542Y-98259574D01*
G37*
D11*
X182348900Y-98958400D03*
D10*
G36*
X184491542Y-98259574D02*
G01*
X184515203Y-98263084D01*
X184538407Y-98268896D01*
X184560929Y-98276954D01*
X184582553Y-98287182D01*
X184603070Y-98299479D01*
X184622283Y-98313729D01*
X184640007Y-98329793D01*
X184656071Y-98347517D01*
X184670321Y-98366730D01*
X184682618Y-98387247D01*
X184692846Y-98408871D01*
X184700904Y-98431393D01*
X184706716Y-98454597D01*
X184710226Y-98478258D01*
X184711400Y-98502150D01*
X184711400Y-99414650D01*
X184710226Y-99438542D01*
X184706716Y-99462203D01*
X184700904Y-99485407D01*
X184692846Y-99507929D01*
X184682618Y-99529553D01*
X184670321Y-99550070D01*
X184656071Y-99569283D01*
X184640007Y-99587007D01*
X184622283Y-99603071D01*
X184603070Y-99617321D01*
X184582553Y-99629618D01*
X184560929Y-99639846D01*
X184538407Y-99647904D01*
X184515203Y-99653716D01*
X184491542Y-99657226D01*
X184467650Y-99658400D01*
X183980150Y-99658400D01*
X183956258Y-99657226D01*
X183932597Y-99653716D01*
X183909393Y-99647904D01*
X183886871Y-99639846D01*
X183865247Y-99629618D01*
X183844730Y-99617321D01*
X183825517Y-99603071D01*
X183807793Y-99587007D01*
X183791729Y-99569283D01*
X183777479Y-99550070D01*
X183765182Y-99529553D01*
X183754954Y-99507929D01*
X183746896Y-99485407D01*
X183741084Y-99462203D01*
X183737574Y-99438542D01*
X183736400Y-99414650D01*
X183736400Y-98502150D01*
X183737574Y-98478258D01*
X183741084Y-98454597D01*
X183746896Y-98431393D01*
X183754954Y-98408871D01*
X183765182Y-98387247D01*
X183777479Y-98366730D01*
X183791729Y-98347517D01*
X183807793Y-98329793D01*
X183825517Y-98313729D01*
X183844730Y-98299479D01*
X183865247Y-98287182D01*
X183886871Y-98276954D01*
X183909393Y-98268896D01*
X183932597Y-98263084D01*
X183956258Y-98259574D01*
X183980150Y-98258400D01*
X184467650Y-98258400D01*
X184491542Y-98259574D01*
X184491542Y-98259574D01*
G37*
D11*
X184223900Y-98958400D03*
D10*
G36*
X180007342Y-113176374D02*
G01*
X180031003Y-113179884D01*
X180054207Y-113185696D01*
X180076729Y-113193754D01*
X180098353Y-113203982D01*
X180118870Y-113216279D01*
X180138083Y-113230529D01*
X180155807Y-113246593D01*
X180171871Y-113264317D01*
X180186121Y-113283530D01*
X180198418Y-113304047D01*
X180208646Y-113325671D01*
X180216704Y-113348193D01*
X180222516Y-113371397D01*
X180226026Y-113395058D01*
X180227200Y-113418950D01*
X180227200Y-113906450D01*
X180226026Y-113930342D01*
X180222516Y-113954003D01*
X180216704Y-113977207D01*
X180208646Y-113999729D01*
X180198418Y-114021353D01*
X180186121Y-114041870D01*
X180171871Y-114061083D01*
X180155807Y-114078807D01*
X180138083Y-114094871D01*
X180118870Y-114109121D01*
X180098353Y-114121418D01*
X180076729Y-114131646D01*
X180054207Y-114139704D01*
X180031003Y-114145516D01*
X180007342Y-114149026D01*
X179983450Y-114150200D01*
X179070950Y-114150200D01*
X179047058Y-114149026D01*
X179023397Y-114145516D01*
X179000193Y-114139704D01*
X178977671Y-114131646D01*
X178956047Y-114121418D01*
X178935530Y-114109121D01*
X178916317Y-114094871D01*
X178898593Y-114078807D01*
X178882529Y-114061083D01*
X178868279Y-114041870D01*
X178855982Y-114021353D01*
X178845754Y-113999729D01*
X178837696Y-113977207D01*
X178831884Y-113954003D01*
X178828374Y-113930342D01*
X178827200Y-113906450D01*
X178827200Y-113418950D01*
X178828374Y-113395058D01*
X178831884Y-113371397D01*
X178837696Y-113348193D01*
X178845754Y-113325671D01*
X178855982Y-113304047D01*
X178868279Y-113283530D01*
X178882529Y-113264317D01*
X178898593Y-113246593D01*
X178916317Y-113230529D01*
X178935530Y-113216279D01*
X178956047Y-113203982D01*
X178977671Y-113193754D01*
X179000193Y-113185696D01*
X179023397Y-113179884D01*
X179047058Y-113176374D01*
X179070950Y-113175200D01*
X179983450Y-113175200D01*
X180007342Y-113176374D01*
X180007342Y-113176374D01*
G37*
D11*
X179527200Y-113662700D03*
D10*
G36*
X180007342Y-111301374D02*
G01*
X180031003Y-111304884D01*
X180054207Y-111310696D01*
X180076729Y-111318754D01*
X180098353Y-111328982D01*
X180118870Y-111341279D01*
X180138083Y-111355529D01*
X180155807Y-111371593D01*
X180171871Y-111389317D01*
X180186121Y-111408530D01*
X180198418Y-111429047D01*
X180208646Y-111450671D01*
X180216704Y-111473193D01*
X180222516Y-111496397D01*
X180226026Y-111520058D01*
X180227200Y-111543950D01*
X180227200Y-112031450D01*
X180226026Y-112055342D01*
X180222516Y-112079003D01*
X180216704Y-112102207D01*
X180208646Y-112124729D01*
X180198418Y-112146353D01*
X180186121Y-112166870D01*
X180171871Y-112186083D01*
X180155807Y-112203807D01*
X180138083Y-112219871D01*
X180118870Y-112234121D01*
X180098353Y-112246418D01*
X180076729Y-112256646D01*
X180054207Y-112264704D01*
X180031003Y-112270516D01*
X180007342Y-112274026D01*
X179983450Y-112275200D01*
X179070950Y-112275200D01*
X179047058Y-112274026D01*
X179023397Y-112270516D01*
X179000193Y-112264704D01*
X178977671Y-112256646D01*
X178956047Y-112246418D01*
X178935530Y-112234121D01*
X178916317Y-112219871D01*
X178898593Y-112203807D01*
X178882529Y-112186083D01*
X178868279Y-112166870D01*
X178855982Y-112146353D01*
X178845754Y-112124729D01*
X178837696Y-112102207D01*
X178831884Y-112079003D01*
X178828374Y-112055342D01*
X178827200Y-112031450D01*
X178827200Y-111543950D01*
X178828374Y-111520058D01*
X178831884Y-111496397D01*
X178837696Y-111473193D01*
X178845754Y-111450671D01*
X178855982Y-111429047D01*
X178868279Y-111408530D01*
X178882529Y-111389317D01*
X178898593Y-111371593D01*
X178916317Y-111355529D01*
X178935530Y-111341279D01*
X178956047Y-111328982D01*
X178977671Y-111318754D01*
X179000193Y-111310696D01*
X179023397Y-111304884D01*
X179047058Y-111301374D01*
X179070950Y-111300200D01*
X179983450Y-111300200D01*
X180007342Y-111301374D01*
X180007342Y-111301374D01*
G37*
D11*
X179527200Y-111787700D03*
D17*
X184581800Y-85877400D03*
X179881800Y-85877400D03*
D15*
X177898800Y-80098000D03*
X180898800Y-80098000D03*
X177898800Y-72898000D03*
X180898800Y-72898000D03*
D10*
G36*
X179219942Y-131794574D02*
G01*
X179243603Y-131798084D01*
X179266807Y-131803896D01*
X179289329Y-131811954D01*
X179310953Y-131822182D01*
X179331470Y-131834479D01*
X179350683Y-131848729D01*
X179368407Y-131864793D01*
X179384471Y-131882517D01*
X179398721Y-131901730D01*
X179411018Y-131922247D01*
X179421246Y-131943871D01*
X179429304Y-131966393D01*
X179435116Y-131989597D01*
X179438626Y-132013258D01*
X179439800Y-132037150D01*
X179439800Y-132524650D01*
X179438626Y-132548542D01*
X179435116Y-132572203D01*
X179429304Y-132595407D01*
X179421246Y-132617929D01*
X179411018Y-132639553D01*
X179398721Y-132660070D01*
X179384471Y-132679283D01*
X179368407Y-132697007D01*
X179350683Y-132713071D01*
X179331470Y-132727321D01*
X179310953Y-132739618D01*
X179289329Y-132749846D01*
X179266807Y-132757904D01*
X179243603Y-132763716D01*
X179219942Y-132767226D01*
X179196050Y-132768400D01*
X178283550Y-132768400D01*
X178259658Y-132767226D01*
X178235997Y-132763716D01*
X178212793Y-132757904D01*
X178190271Y-132749846D01*
X178168647Y-132739618D01*
X178148130Y-132727321D01*
X178128917Y-132713071D01*
X178111193Y-132697007D01*
X178095129Y-132679283D01*
X178080879Y-132660070D01*
X178068582Y-132639553D01*
X178058354Y-132617929D01*
X178050296Y-132595407D01*
X178044484Y-132572203D01*
X178040974Y-132548542D01*
X178039800Y-132524650D01*
X178039800Y-132037150D01*
X178040974Y-132013258D01*
X178044484Y-131989597D01*
X178050296Y-131966393D01*
X178058354Y-131943871D01*
X178068582Y-131922247D01*
X178080879Y-131901730D01*
X178095129Y-131882517D01*
X178111193Y-131864793D01*
X178128917Y-131848729D01*
X178148130Y-131834479D01*
X178168647Y-131822182D01*
X178190271Y-131811954D01*
X178212793Y-131803896D01*
X178235997Y-131798084D01*
X178259658Y-131794574D01*
X178283550Y-131793400D01*
X179196050Y-131793400D01*
X179219942Y-131794574D01*
X179219942Y-131794574D01*
G37*
D11*
X178739800Y-132280900D03*
D10*
G36*
X179219942Y-129919574D02*
G01*
X179243603Y-129923084D01*
X179266807Y-129928896D01*
X179289329Y-129936954D01*
X179310953Y-129947182D01*
X179331470Y-129959479D01*
X179350683Y-129973729D01*
X179368407Y-129989793D01*
X179384471Y-130007517D01*
X179398721Y-130026730D01*
X179411018Y-130047247D01*
X179421246Y-130068871D01*
X179429304Y-130091393D01*
X179435116Y-130114597D01*
X179438626Y-130138258D01*
X179439800Y-130162150D01*
X179439800Y-130649650D01*
X179438626Y-130673542D01*
X179435116Y-130697203D01*
X179429304Y-130720407D01*
X179421246Y-130742929D01*
X179411018Y-130764553D01*
X179398721Y-130785070D01*
X179384471Y-130804283D01*
X179368407Y-130822007D01*
X179350683Y-130838071D01*
X179331470Y-130852321D01*
X179310953Y-130864618D01*
X179289329Y-130874846D01*
X179266807Y-130882904D01*
X179243603Y-130888716D01*
X179219942Y-130892226D01*
X179196050Y-130893400D01*
X178283550Y-130893400D01*
X178259658Y-130892226D01*
X178235997Y-130888716D01*
X178212793Y-130882904D01*
X178190271Y-130874846D01*
X178168647Y-130864618D01*
X178148130Y-130852321D01*
X178128917Y-130838071D01*
X178111193Y-130822007D01*
X178095129Y-130804283D01*
X178080879Y-130785070D01*
X178068582Y-130764553D01*
X178058354Y-130742929D01*
X178050296Y-130720407D01*
X178044484Y-130697203D01*
X178040974Y-130673542D01*
X178039800Y-130649650D01*
X178039800Y-130162150D01*
X178040974Y-130138258D01*
X178044484Y-130114597D01*
X178050296Y-130091393D01*
X178058354Y-130068871D01*
X178068582Y-130047247D01*
X178080879Y-130026730D01*
X178095129Y-130007517D01*
X178111193Y-129989793D01*
X178128917Y-129973729D01*
X178148130Y-129959479D01*
X178168647Y-129947182D01*
X178190271Y-129936954D01*
X178212793Y-129928896D01*
X178235997Y-129923084D01*
X178259658Y-129919574D01*
X178283550Y-129918400D01*
X179196050Y-129918400D01*
X179219942Y-129919574D01*
X179219942Y-129919574D01*
G37*
D11*
X178739800Y-130405900D03*
D24*
X133967200Y-122813800D03*
X133967200Y-123463800D03*
X133967200Y-124113800D03*
X133967200Y-124763800D03*
X133967200Y-125413800D03*
D25*
X131267200Y-123113800D03*
X131267200Y-125113800D03*
D10*
G36*
X177161291Y-64765253D02*
G01*
X177182526Y-64768403D01*
X177203350Y-64773619D01*
X177223562Y-64780851D01*
X177242968Y-64790030D01*
X177261381Y-64801066D01*
X177278624Y-64813854D01*
X177294530Y-64828270D01*
X177308946Y-64844176D01*
X177321734Y-64861419D01*
X177332770Y-64879832D01*
X177341949Y-64899238D01*
X177349181Y-64919450D01*
X177354397Y-64940274D01*
X177357547Y-64961509D01*
X177358600Y-64982950D01*
X177358600Y-65420450D01*
X177357547Y-65441891D01*
X177354397Y-65463126D01*
X177349181Y-65483950D01*
X177341949Y-65504162D01*
X177332770Y-65523568D01*
X177321734Y-65541981D01*
X177308946Y-65559224D01*
X177294530Y-65575130D01*
X177278624Y-65589546D01*
X177261381Y-65602334D01*
X177242968Y-65613370D01*
X177223562Y-65622549D01*
X177203350Y-65629781D01*
X177182526Y-65634997D01*
X177161291Y-65638147D01*
X177139850Y-65639200D01*
X176627350Y-65639200D01*
X176605909Y-65638147D01*
X176584674Y-65634997D01*
X176563850Y-65629781D01*
X176543638Y-65622549D01*
X176524232Y-65613370D01*
X176505819Y-65602334D01*
X176488576Y-65589546D01*
X176472670Y-65575130D01*
X176458254Y-65559224D01*
X176445466Y-65541981D01*
X176434430Y-65523568D01*
X176425251Y-65504162D01*
X176418019Y-65483950D01*
X176412803Y-65463126D01*
X176409653Y-65441891D01*
X176408600Y-65420450D01*
X176408600Y-64982950D01*
X176409653Y-64961509D01*
X176412803Y-64940274D01*
X176418019Y-64919450D01*
X176425251Y-64899238D01*
X176434430Y-64879832D01*
X176445466Y-64861419D01*
X176458254Y-64844176D01*
X176472670Y-64828270D01*
X176488576Y-64813854D01*
X176505819Y-64801066D01*
X176524232Y-64790030D01*
X176543638Y-64780851D01*
X176563850Y-64773619D01*
X176584674Y-64768403D01*
X176605909Y-64765253D01*
X176627350Y-64764200D01*
X177139850Y-64764200D01*
X177161291Y-64765253D01*
X177161291Y-64765253D01*
G37*
D26*
X176883600Y-65201700D03*
D10*
G36*
X177161291Y-66340253D02*
G01*
X177182526Y-66343403D01*
X177203350Y-66348619D01*
X177223562Y-66355851D01*
X177242968Y-66365030D01*
X177261381Y-66376066D01*
X177278624Y-66388854D01*
X177294530Y-66403270D01*
X177308946Y-66419176D01*
X177321734Y-66436419D01*
X177332770Y-66454832D01*
X177341949Y-66474238D01*
X177349181Y-66494450D01*
X177354397Y-66515274D01*
X177357547Y-66536509D01*
X177358600Y-66557950D01*
X177358600Y-66995450D01*
X177357547Y-67016891D01*
X177354397Y-67038126D01*
X177349181Y-67058950D01*
X177341949Y-67079162D01*
X177332770Y-67098568D01*
X177321734Y-67116981D01*
X177308946Y-67134224D01*
X177294530Y-67150130D01*
X177278624Y-67164546D01*
X177261381Y-67177334D01*
X177242968Y-67188370D01*
X177223562Y-67197549D01*
X177203350Y-67204781D01*
X177182526Y-67209997D01*
X177161291Y-67213147D01*
X177139850Y-67214200D01*
X176627350Y-67214200D01*
X176605909Y-67213147D01*
X176584674Y-67209997D01*
X176563850Y-67204781D01*
X176543638Y-67197549D01*
X176524232Y-67188370D01*
X176505819Y-67177334D01*
X176488576Y-67164546D01*
X176472670Y-67150130D01*
X176458254Y-67134224D01*
X176445466Y-67116981D01*
X176434430Y-67098568D01*
X176425251Y-67079162D01*
X176418019Y-67058950D01*
X176412803Y-67038126D01*
X176409653Y-67016891D01*
X176408600Y-66995450D01*
X176408600Y-66557950D01*
X176409653Y-66536509D01*
X176412803Y-66515274D01*
X176418019Y-66494450D01*
X176425251Y-66474238D01*
X176434430Y-66454832D01*
X176445466Y-66436419D01*
X176458254Y-66419176D01*
X176472670Y-66403270D01*
X176488576Y-66388854D01*
X176505819Y-66376066D01*
X176524232Y-66365030D01*
X176543638Y-66355851D01*
X176563850Y-66348619D01*
X176584674Y-66343403D01*
X176605909Y-66340253D01*
X176627350Y-66339200D01*
X177139850Y-66339200D01*
X177161291Y-66340253D01*
X177161291Y-66340253D01*
G37*
D26*
X176883600Y-66776700D03*
D10*
G36*
X174722891Y-66340253D02*
G01*
X174744126Y-66343403D01*
X174764950Y-66348619D01*
X174785162Y-66355851D01*
X174804568Y-66365030D01*
X174822981Y-66376066D01*
X174840224Y-66388854D01*
X174856130Y-66403270D01*
X174870546Y-66419176D01*
X174883334Y-66436419D01*
X174894370Y-66454832D01*
X174903549Y-66474238D01*
X174910781Y-66494450D01*
X174915997Y-66515274D01*
X174919147Y-66536509D01*
X174920200Y-66557950D01*
X174920200Y-66995450D01*
X174919147Y-67016891D01*
X174915997Y-67038126D01*
X174910781Y-67058950D01*
X174903549Y-67079162D01*
X174894370Y-67098568D01*
X174883334Y-67116981D01*
X174870546Y-67134224D01*
X174856130Y-67150130D01*
X174840224Y-67164546D01*
X174822981Y-67177334D01*
X174804568Y-67188370D01*
X174785162Y-67197549D01*
X174764950Y-67204781D01*
X174744126Y-67209997D01*
X174722891Y-67213147D01*
X174701450Y-67214200D01*
X174188950Y-67214200D01*
X174167509Y-67213147D01*
X174146274Y-67209997D01*
X174125450Y-67204781D01*
X174105238Y-67197549D01*
X174085832Y-67188370D01*
X174067419Y-67177334D01*
X174050176Y-67164546D01*
X174034270Y-67150130D01*
X174019854Y-67134224D01*
X174007066Y-67116981D01*
X173996030Y-67098568D01*
X173986851Y-67079162D01*
X173979619Y-67058950D01*
X173974403Y-67038126D01*
X173971253Y-67016891D01*
X173970200Y-66995450D01*
X173970200Y-66557950D01*
X173971253Y-66536509D01*
X173974403Y-66515274D01*
X173979619Y-66494450D01*
X173986851Y-66474238D01*
X173996030Y-66454832D01*
X174007066Y-66436419D01*
X174019854Y-66419176D01*
X174034270Y-66403270D01*
X174050176Y-66388854D01*
X174067419Y-66376066D01*
X174085832Y-66365030D01*
X174105238Y-66355851D01*
X174125450Y-66348619D01*
X174146274Y-66343403D01*
X174167509Y-66340253D01*
X174188950Y-66339200D01*
X174701450Y-66339200D01*
X174722891Y-66340253D01*
X174722891Y-66340253D01*
G37*
D26*
X174445200Y-66776700D03*
D10*
G36*
X174722891Y-64765253D02*
G01*
X174744126Y-64768403D01*
X174764950Y-64773619D01*
X174785162Y-64780851D01*
X174804568Y-64790030D01*
X174822981Y-64801066D01*
X174840224Y-64813854D01*
X174856130Y-64828270D01*
X174870546Y-64844176D01*
X174883334Y-64861419D01*
X174894370Y-64879832D01*
X174903549Y-64899238D01*
X174910781Y-64919450D01*
X174915997Y-64940274D01*
X174919147Y-64961509D01*
X174920200Y-64982950D01*
X174920200Y-65420450D01*
X174919147Y-65441891D01*
X174915997Y-65463126D01*
X174910781Y-65483950D01*
X174903549Y-65504162D01*
X174894370Y-65523568D01*
X174883334Y-65541981D01*
X174870546Y-65559224D01*
X174856130Y-65575130D01*
X174840224Y-65589546D01*
X174822981Y-65602334D01*
X174804568Y-65613370D01*
X174785162Y-65622549D01*
X174764950Y-65629781D01*
X174744126Y-65634997D01*
X174722891Y-65638147D01*
X174701450Y-65639200D01*
X174188950Y-65639200D01*
X174167509Y-65638147D01*
X174146274Y-65634997D01*
X174125450Y-65629781D01*
X174105238Y-65622549D01*
X174085832Y-65613370D01*
X174067419Y-65602334D01*
X174050176Y-65589546D01*
X174034270Y-65575130D01*
X174019854Y-65559224D01*
X174007066Y-65541981D01*
X173996030Y-65523568D01*
X173986851Y-65504162D01*
X173979619Y-65483950D01*
X173974403Y-65463126D01*
X173971253Y-65441891D01*
X173970200Y-65420450D01*
X173970200Y-64982950D01*
X173971253Y-64961509D01*
X173974403Y-64940274D01*
X173979619Y-64919450D01*
X173986851Y-64899238D01*
X173996030Y-64879832D01*
X174007066Y-64861419D01*
X174019854Y-64844176D01*
X174034270Y-64828270D01*
X174050176Y-64813854D01*
X174067419Y-64801066D01*
X174085832Y-64790030D01*
X174105238Y-64780851D01*
X174125450Y-64773619D01*
X174146274Y-64768403D01*
X174167509Y-64765253D01*
X174188950Y-64764200D01*
X174701450Y-64764200D01*
X174722891Y-64765253D01*
X174722891Y-64765253D01*
G37*
D26*
X174445200Y-65201700D03*
D10*
G36*
X172284491Y-64765253D02*
G01*
X172305726Y-64768403D01*
X172326550Y-64773619D01*
X172346762Y-64780851D01*
X172366168Y-64790030D01*
X172384581Y-64801066D01*
X172401824Y-64813854D01*
X172417730Y-64828270D01*
X172432146Y-64844176D01*
X172444934Y-64861419D01*
X172455970Y-64879832D01*
X172465149Y-64899238D01*
X172472381Y-64919450D01*
X172477597Y-64940274D01*
X172480747Y-64961509D01*
X172481800Y-64982950D01*
X172481800Y-65420450D01*
X172480747Y-65441891D01*
X172477597Y-65463126D01*
X172472381Y-65483950D01*
X172465149Y-65504162D01*
X172455970Y-65523568D01*
X172444934Y-65541981D01*
X172432146Y-65559224D01*
X172417730Y-65575130D01*
X172401824Y-65589546D01*
X172384581Y-65602334D01*
X172366168Y-65613370D01*
X172346762Y-65622549D01*
X172326550Y-65629781D01*
X172305726Y-65634997D01*
X172284491Y-65638147D01*
X172263050Y-65639200D01*
X171750550Y-65639200D01*
X171729109Y-65638147D01*
X171707874Y-65634997D01*
X171687050Y-65629781D01*
X171666838Y-65622549D01*
X171647432Y-65613370D01*
X171629019Y-65602334D01*
X171611776Y-65589546D01*
X171595870Y-65575130D01*
X171581454Y-65559224D01*
X171568666Y-65541981D01*
X171557630Y-65523568D01*
X171548451Y-65504162D01*
X171541219Y-65483950D01*
X171536003Y-65463126D01*
X171532853Y-65441891D01*
X171531800Y-65420450D01*
X171531800Y-64982950D01*
X171532853Y-64961509D01*
X171536003Y-64940274D01*
X171541219Y-64919450D01*
X171548451Y-64899238D01*
X171557630Y-64879832D01*
X171568666Y-64861419D01*
X171581454Y-64844176D01*
X171595870Y-64828270D01*
X171611776Y-64813854D01*
X171629019Y-64801066D01*
X171647432Y-64790030D01*
X171666838Y-64780851D01*
X171687050Y-64773619D01*
X171707874Y-64768403D01*
X171729109Y-64765253D01*
X171750550Y-64764200D01*
X172263050Y-64764200D01*
X172284491Y-64765253D01*
X172284491Y-64765253D01*
G37*
D26*
X172006800Y-65201700D03*
D10*
G36*
X172284491Y-66340253D02*
G01*
X172305726Y-66343403D01*
X172326550Y-66348619D01*
X172346762Y-66355851D01*
X172366168Y-66365030D01*
X172384581Y-66376066D01*
X172401824Y-66388854D01*
X172417730Y-66403270D01*
X172432146Y-66419176D01*
X172444934Y-66436419D01*
X172455970Y-66454832D01*
X172465149Y-66474238D01*
X172472381Y-66494450D01*
X172477597Y-66515274D01*
X172480747Y-66536509D01*
X172481800Y-66557950D01*
X172481800Y-66995450D01*
X172480747Y-67016891D01*
X172477597Y-67038126D01*
X172472381Y-67058950D01*
X172465149Y-67079162D01*
X172455970Y-67098568D01*
X172444934Y-67116981D01*
X172432146Y-67134224D01*
X172417730Y-67150130D01*
X172401824Y-67164546D01*
X172384581Y-67177334D01*
X172366168Y-67188370D01*
X172346762Y-67197549D01*
X172326550Y-67204781D01*
X172305726Y-67209997D01*
X172284491Y-67213147D01*
X172263050Y-67214200D01*
X171750550Y-67214200D01*
X171729109Y-67213147D01*
X171707874Y-67209997D01*
X171687050Y-67204781D01*
X171666838Y-67197549D01*
X171647432Y-67188370D01*
X171629019Y-67177334D01*
X171611776Y-67164546D01*
X171595870Y-67150130D01*
X171581454Y-67134224D01*
X171568666Y-67116981D01*
X171557630Y-67098568D01*
X171548451Y-67079162D01*
X171541219Y-67058950D01*
X171536003Y-67038126D01*
X171532853Y-67016891D01*
X171531800Y-66995450D01*
X171531800Y-66557950D01*
X171532853Y-66536509D01*
X171536003Y-66515274D01*
X171541219Y-66494450D01*
X171548451Y-66474238D01*
X171557630Y-66454832D01*
X171568666Y-66436419D01*
X171581454Y-66419176D01*
X171595870Y-66403270D01*
X171611776Y-66388854D01*
X171629019Y-66376066D01*
X171647432Y-66365030D01*
X171666838Y-66355851D01*
X171687050Y-66348619D01*
X171707874Y-66343403D01*
X171729109Y-66340253D01*
X171750550Y-66339200D01*
X172263050Y-66339200D01*
X172284491Y-66340253D01*
X172284491Y-66340253D01*
G37*
D26*
X172006800Y-66776700D03*
D10*
G36*
X147409842Y-69989374D02*
G01*
X147433503Y-69992884D01*
X147456707Y-69998696D01*
X147479229Y-70006754D01*
X147500853Y-70016982D01*
X147521370Y-70029279D01*
X147540583Y-70043529D01*
X147558307Y-70059593D01*
X147574371Y-70077317D01*
X147588621Y-70096530D01*
X147600918Y-70117047D01*
X147611146Y-70138671D01*
X147619204Y-70161193D01*
X147625016Y-70184397D01*
X147628526Y-70208058D01*
X147629700Y-70231950D01*
X147629700Y-71144450D01*
X147628526Y-71168342D01*
X147625016Y-71192003D01*
X147619204Y-71215207D01*
X147611146Y-71237729D01*
X147600918Y-71259353D01*
X147588621Y-71279870D01*
X147574371Y-71299083D01*
X147558307Y-71316807D01*
X147540583Y-71332871D01*
X147521370Y-71347121D01*
X147500853Y-71359418D01*
X147479229Y-71369646D01*
X147456707Y-71377704D01*
X147433503Y-71383516D01*
X147409842Y-71387026D01*
X147385950Y-71388200D01*
X146898450Y-71388200D01*
X146874558Y-71387026D01*
X146850897Y-71383516D01*
X146827693Y-71377704D01*
X146805171Y-71369646D01*
X146783547Y-71359418D01*
X146763030Y-71347121D01*
X146743817Y-71332871D01*
X146726093Y-71316807D01*
X146710029Y-71299083D01*
X146695779Y-71279870D01*
X146683482Y-71259353D01*
X146673254Y-71237729D01*
X146665196Y-71215207D01*
X146659384Y-71192003D01*
X146655874Y-71168342D01*
X146654700Y-71144450D01*
X146654700Y-70231950D01*
X146655874Y-70208058D01*
X146659384Y-70184397D01*
X146665196Y-70161193D01*
X146673254Y-70138671D01*
X146683482Y-70117047D01*
X146695779Y-70096530D01*
X146710029Y-70077317D01*
X146726093Y-70059593D01*
X146743817Y-70043529D01*
X146763030Y-70029279D01*
X146783547Y-70016982D01*
X146805171Y-70006754D01*
X146827693Y-69998696D01*
X146850897Y-69992884D01*
X146874558Y-69989374D01*
X146898450Y-69988200D01*
X147385950Y-69988200D01*
X147409842Y-69989374D01*
X147409842Y-69989374D01*
G37*
D11*
X147142200Y-70688200D03*
D10*
G36*
X145534842Y-69989374D02*
G01*
X145558503Y-69992884D01*
X145581707Y-69998696D01*
X145604229Y-70006754D01*
X145625853Y-70016982D01*
X145646370Y-70029279D01*
X145665583Y-70043529D01*
X145683307Y-70059593D01*
X145699371Y-70077317D01*
X145713621Y-70096530D01*
X145725918Y-70117047D01*
X145736146Y-70138671D01*
X145744204Y-70161193D01*
X145750016Y-70184397D01*
X145753526Y-70208058D01*
X145754700Y-70231950D01*
X145754700Y-71144450D01*
X145753526Y-71168342D01*
X145750016Y-71192003D01*
X145744204Y-71215207D01*
X145736146Y-71237729D01*
X145725918Y-71259353D01*
X145713621Y-71279870D01*
X145699371Y-71299083D01*
X145683307Y-71316807D01*
X145665583Y-71332871D01*
X145646370Y-71347121D01*
X145625853Y-71359418D01*
X145604229Y-71369646D01*
X145581707Y-71377704D01*
X145558503Y-71383516D01*
X145534842Y-71387026D01*
X145510950Y-71388200D01*
X145023450Y-71388200D01*
X144999558Y-71387026D01*
X144975897Y-71383516D01*
X144952693Y-71377704D01*
X144930171Y-71369646D01*
X144908547Y-71359418D01*
X144888030Y-71347121D01*
X144868817Y-71332871D01*
X144851093Y-71316807D01*
X144835029Y-71299083D01*
X144820779Y-71279870D01*
X144808482Y-71259353D01*
X144798254Y-71237729D01*
X144790196Y-71215207D01*
X144784384Y-71192003D01*
X144780874Y-71168342D01*
X144779700Y-71144450D01*
X144779700Y-70231950D01*
X144780874Y-70208058D01*
X144784384Y-70184397D01*
X144790196Y-70161193D01*
X144798254Y-70138671D01*
X144808482Y-70117047D01*
X144820779Y-70096530D01*
X144835029Y-70077317D01*
X144851093Y-70059593D01*
X144868817Y-70043529D01*
X144888030Y-70029279D01*
X144908547Y-70016982D01*
X144930171Y-70006754D01*
X144952693Y-69998696D01*
X144975897Y-69992884D01*
X144999558Y-69989374D01*
X145023450Y-69988200D01*
X145510950Y-69988200D01*
X145534842Y-69989374D01*
X145534842Y-69989374D01*
G37*
D11*
X145267200Y-70688200D03*
D10*
G36*
X132786442Y-85977574D02*
G01*
X132810103Y-85981084D01*
X132833307Y-85986896D01*
X132855829Y-85994954D01*
X132877453Y-86005182D01*
X132897970Y-86017479D01*
X132917183Y-86031729D01*
X132934907Y-86047793D01*
X132950971Y-86065517D01*
X132965221Y-86084730D01*
X132977518Y-86105247D01*
X132987746Y-86126871D01*
X132995804Y-86149393D01*
X133001616Y-86172597D01*
X133005126Y-86196258D01*
X133006300Y-86220150D01*
X133006300Y-86707650D01*
X133005126Y-86731542D01*
X133001616Y-86755203D01*
X132995804Y-86778407D01*
X132987746Y-86800929D01*
X132977518Y-86822553D01*
X132965221Y-86843070D01*
X132950971Y-86862283D01*
X132934907Y-86880007D01*
X132917183Y-86896071D01*
X132897970Y-86910321D01*
X132877453Y-86922618D01*
X132855829Y-86932846D01*
X132833307Y-86940904D01*
X132810103Y-86946716D01*
X132786442Y-86950226D01*
X132762550Y-86951400D01*
X131850050Y-86951400D01*
X131826158Y-86950226D01*
X131802497Y-86946716D01*
X131779293Y-86940904D01*
X131756771Y-86932846D01*
X131735147Y-86922618D01*
X131714630Y-86910321D01*
X131695417Y-86896071D01*
X131677693Y-86880007D01*
X131661629Y-86862283D01*
X131647379Y-86843070D01*
X131635082Y-86822553D01*
X131624854Y-86800929D01*
X131616796Y-86778407D01*
X131610984Y-86755203D01*
X131607474Y-86731542D01*
X131606300Y-86707650D01*
X131606300Y-86220150D01*
X131607474Y-86196258D01*
X131610984Y-86172597D01*
X131616796Y-86149393D01*
X131624854Y-86126871D01*
X131635082Y-86105247D01*
X131647379Y-86084730D01*
X131661629Y-86065517D01*
X131677693Y-86047793D01*
X131695417Y-86031729D01*
X131714630Y-86017479D01*
X131735147Y-86005182D01*
X131756771Y-85994954D01*
X131779293Y-85986896D01*
X131802497Y-85981084D01*
X131826158Y-85977574D01*
X131850050Y-85976400D01*
X132762550Y-85976400D01*
X132786442Y-85977574D01*
X132786442Y-85977574D01*
G37*
D11*
X132306300Y-86463900D03*
D10*
G36*
X132786442Y-87852574D02*
G01*
X132810103Y-87856084D01*
X132833307Y-87861896D01*
X132855829Y-87869954D01*
X132877453Y-87880182D01*
X132897970Y-87892479D01*
X132917183Y-87906729D01*
X132934907Y-87922793D01*
X132950971Y-87940517D01*
X132965221Y-87959730D01*
X132977518Y-87980247D01*
X132987746Y-88001871D01*
X132995804Y-88024393D01*
X133001616Y-88047597D01*
X133005126Y-88071258D01*
X133006300Y-88095150D01*
X133006300Y-88582650D01*
X133005126Y-88606542D01*
X133001616Y-88630203D01*
X132995804Y-88653407D01*
X132987746Y-88675929D01*
X132977518Y-88697553D01*
X132965221Y-88718070D01*
X132950971Y-88737283D01*
X132934907Y-88755007D01*
X132917183Y-88771071D01*
X132897970Y-88785321D01*
X132877453Y-88797618D01*
X132855829Y-88807846D01*
X132833307Y-88815904D01*
X132810103Y-88821716D01*
X132786442Y-88825226D01*
X132762550Y-88826400D01*
X131850050Y-88826400D01*
X131826158Y-88825226D01*
X131802497Y-88821716D01*
X131779293Y-88815904D01*
X131756771Y-88807846D01*
X131735147Y-88797618D01*
X131714630Y-88785321D01*
X131695417Y-88771071D01*
X131677693Y-88755007D01*
X131661629Y-88737283D01*
X131647379Y-88718070D01*
X131635082Y-88697553D01*
X131624854Y-88675929D01*
X131616796Y-88653407D01*
X131610984Y-88630203D01*
X131607474Y-88606542D01*
X131606300Y-88582650D01*
X131606300Y-88095150D01*
X131607474Y-88071258D01*
X131610984Y-88047597D01*
X131616796Y-88024393D01*
X131624854Y-88001871D01*
X131635082Y-87980247D01*
X131647379Y-87959730D01*
X131661629Y-87940517D01*
X131677693Y-87922793D01*
X131695417Y-87906729D01*
X131714630Y-87892479D01*
X131735147Y-87880182D01*
X131756771Y-87869954D01*
X131779293Y-87861896D01*
X131802497Y-87856084D01*
X131826158Y-87852574D01*
X131850050Y-87851400D01*
X132762550Y-87851400D01*
X132786442Y-87852574D01*
X132786442Y-87852574D01*
G37*
D11*
X132306300Y-88338900D03*
D10*
G36*
X141512442Y-69709974D02*
G01*
X141536103Y-69713484D01*
X141559307Y-69719296D01*
X141581829Y-69727354D01*
X141603453Y-69737582D01*
X141623970Y-69749879D01*
X141643183Y-69764129D01*
X141660907Y-69780193D01*
X141676971Y-69797917D01*
X141691221Y-69817130D01*
X141703518Y-69837647D01*
X141713746Y-69859271D01*
X141721804Y-69881793D01*
X141727616Y-69904997D01*
X141731126Y-69928658D01*
X141732300Y-69952550D01*
X141732300Y-70865050D01*
X141731126Y-70888942D01*
X141727616Y-70912603D01*
X141721804Y-70935807D01*
X141713746Y-70958329D01*
X141703518Y-70979953D01*
X141691221Y-71000470D01*
X141676971Y-71019683D01*
X141660907Y-71037407D01*
X141643183Y-71053471D01*
X141623970Y-71067721D01*
X141603453Y-71080018D01*
X141581829Y-71090246D01*
X141559307Y-71098304D01*
X141536103Y-71104116D01*
X141512442Y-71107626D01*
X141488550Y-71108800D01*
X141001050Y-71108800D01*
X140977158Y-71107626D01*
X140953497Y-71104116D01*
X140930293Y-71098304D01*
X140907771Y-71090246D01*
X140886147Y-71080018D01*
X140865630Y-71067721D01*
X140846417Y-71053471D01*
X140828693Y-71037407D01*
X140812629Y-71019683D01*
X140798379Y-71000470D01*
X140786082Y-70979953D01*
X140775854Y-70958329D01*
X140767796Y-70935807D01*
X140761984Y-70912603D01*
X140758474Y-70888942D01*
X140757300Y-70865050D01*
X140757300Y-69952550D01*
X140758474Y-69928658D01*
X140761984Y-69904997D01*
X140767796Y-69881793D01*
X140775854Y-69859271D01*
X140786082Y-69837647D01*
X140798379Y-69817130D01*
X140812629Y-69797917D01*
X140828693Y-69780193D01*
X140846417Y-69764129D01*
X140865630Y-69749879D01*
X140886147Y-69737582D01*
X140907771Y-69727354D01*
X140930293Y-69719296D01*
X140953497Y-69713484D01*
X140977158Y-69709974D01*
X141001050Y-69708800D01*
X141488550Y-69708800D01*
X141512442Y-69709974D01*
X141512442Y-69709974D01*
G37*
D11*
X141244800Y-70408800D03*
D10*
G36*
X139637442Y-69709974D02*
G01*
X139661103Y-69713484D01*
X139684307Y-69719296D01*
X139706829Y-69727354D01*
X139728453Y-69737582D01*
X139748970Y-69749879D01*
X139768183Y-69764129D01*
X139785907Y-69780193D01*
X139801971Y-69797917D01*
X139816221Y-69817130D01*
X139828518Y-69837647D01*
X139838746Y-69859271D01*
X139846804Y-69881793D01*
X139852616Y-69904997D01*
X139856126Y-69928658D01*
X139857300Y-69952550D01*
X139857300Y-70865050D01*
X139856126Y-70888942D01*
X139852616Y-70912603D01*
X139846804Y-70935807D01*
X139838746Y-70958329D01*
X139828518Y-70979953D01*
X139816221Y-71000470D01*
X139801971Y-71019683D01*
X139785907Y-71037407D01*
X139768183Y-71053471D01*
X139748970Y-71067721D01*
X139728453Y-71080018D01*
X139706829Y-71090246D01*
X139684307Y-71098304D01*
X139661103Y-71104116D01*
X139637442Y-71107626D01*
X139613550Y-71108800D01*
X139126050Y-71108800D01*
X139102158Y-71107626D01*
X139078497Y-71104116D01*
X139055293Y-71098304D01*
X139032771Y-71090246D01*
X139011147Y-71080018D01*
X138990630Y-71067721D01*
X138971417Y-71053471D01*
X138953693Y-71037407D01*
X138937629Y-71019683D01*
X138923379Y-71000470D01*
X138911082Y-70979953D01*
X138900854Y-70958329D01*
X138892796Y-70935807D01*
X138886984Y-70912603D01*
X138883474Y-70888942D01*
X138882300Y-70865050D01*
X138882300Y-69952550D01*
X138883474Y-69928658D01*
X138886984Y-69904997D01*
X138892796Y-69881793D01*
X138900854Y-69859271D01*
X138911082Y-69837647D01*
X138923379Y-69817130D01*
X138937629Y-69797917D01*
X138953693Y-69780193D01*
X138971417Y-69764129D01*
X138990630Y-69749879D01*
X139011147Y-69737582D01*
X139032771Y-69727354D01*
X139055293Y-69719296D01*
X139078497Y-69713484D01*
X139102158Y-69709974D01*
X139126050Y-69708800D01*
X139613550Y-69708800D01*
X139637442Y-69709974D01*
X139637442Y-69709974D01*
G37*
D11*
X139369800Y-70408800D03*
D10*
G36*
X145687242Y-76136174D02*
G01*
X145710903Y-76139684D01*
X145734107Y-76145496D01*
X145756629Y-76153554D01*
X145778253Y-76163782D01*
X145798770Y-76176079D01*
X145817983Y-76190329D01*
X145835707Y-76206393D01*
X145851771Y-76224117D01*
X145866021Y-76243330D01*
X145878318Y-76263847D01*
X145888546Y-76285471D01*
X145896604Y-76307993D01*
X145902416Y-76331197D01*
X145905926Y-76354858D01*
X145907100Y-76378750D01*
X145907100Y-77291250D01*
X145905926Y-77315142D01*
X145902416Y-77338803D01*
X145896604Y-77362007D01*
X145888546Y-77384529D01*
X145878318Y-77406153D01*
X145866021Y-77426670D01*
X145851771Y-77445883D01*
X145835707Y-77463607D01*
X145817983Y-77479671D01*
X145798770Y-77493921D01*
X145778253Y-77506218D01*
X145756629Y-77516446D01*
X145734107Y-77524504D01*
X145710903Y-77530316D01*
X145687242Y-77533826D01*
X145663350Y-77535000D01*
X145175850Y-77535000D01*
X145151958Y-77533826D01*
X145128297Y-77530316D01*
X145105093Y-77524504D01*
X145082571Y-77516446D01*
X145060947Y-77506218D01*
X145040430Y-77493921D01*
X145021217Y-77479671D01*
X145003493Y-77463607D01*
X144987429Y-77445883D01*
X144973179Y-77426670D01*
X144960882Y-77406153D01*
X144950654Y-77384529D01*
X144942596Y-77362007D01*
X144936784Y-77338803D01*
X144933274Y-77315142D01*
X144932100Y-77291250D01*
X144932100Y-76378750D01*
X144933274Y-76354858D01*
X144936784Y-76331197D01*
X144942596Y-76307993D01*
X144950654Y-76285471D01*
X144960882Y-76263847D01*
X144973179Y-76243330D01*
X144987429Y-76224117D01*
X145003493Y-76206393D01*
X145021217Y-76190329D01*
X145040430Y-76176079D01*
X145060947Y-76163782D01*
X145082571Y-76153554D01*
X145105093Y-76145496D01*
X145128297Y-76139684D01*
X145151958Y-76136174D01*
X145175850Y-76135000D01*
X145663350Y-76135000D01*
X145687242Y-76136174D01*
X145687242Y-76136174D01*
G37*
D11*
X145419600Y-76835000D03*
D10*
G36*
X147562242Y-76136174D02*
G01*
X147585903Y-76139684D01*
X147609107Y-76145496D01*
X147631629Y-76153554D01*
X147653253Y-76163782D01*
X147673770Y-76176079D01*
X147692983Y-76190329D01*
X147710707Y-76206393D01*
X147726771Y-76224117D01*
X147741021Y-76243330D01*
X147753318Y-76263847D01*
X147763546Y-76285471D01*
X147771604Y-76307993D01*
X147777416Y-76331197D01*
X147780926Y-76354858D01*
X147782100Y-76378750D01*
X147782100Y-77291250D01*
X147780926Y-77315142D01*
X147777416Y-77338803D01*
X147771604Y-77362007D01*
X147763546Y-77384529D01*
X147753318Y-77406153D01*
X147741021Y-77426670D01*
X147726771Y-77445883D01*
X147710707Y-77463607D01*
X147692983Y-77479671D01*
X147673770Y-77493921D01*
X147653253Y-77506218D01*
X147631629Y-77516446D01*
X147609107Y-77524504D01*
X147585903Y-77530316D01*
X147562242Y-77533826D01*
X147538350Y-77535000D01*
X147050850Y-77535000D01*
X147026958Y-77533826D01*
X147003297Y-77530316D01*
X146980093Y-77524504D01*
X146957571Y-77516446D01*
X146935947Y-77506218D01*
X146915430Y-77493921D01*
X146896217Y-77479671D01*
X146878493Y-77463607D01*
X146862429Y-77445883D01*
X146848179Y-77426670D01*
X146835882Y-77406153D01*
X146825654Y-77384529D01*
X146817596Y-77362007D01*
X146811784Y-77338803D01*
X146808274Y-77315142D01*
X146807100Y-77291250D01*
X146807100Y-76378750D01*
X146808274Y-76354858D01*
X146811784Y-76331197D01*
X146817596Y-76307993D01*
X146825654Y-76285471D01*
X146835882Y-76263847D01*
X146848179Y-76243330D01*
X146862429Y-76224117D01*
X146878493Y-76206393D01*
X146896217Y-76190329D01*
X146915430Y-76176079D01*
X146935947Y-76163782D01*
X146957571Y-76153554D01*
X146980093Y-76145496D01*
X147003297Y-76139684D01*
X147026958Y-76136174D01*
X147050850Y-76135000D01*
X147538350Y-76135000D01*
X147562242Y-76136174D01*
X147562242Y-76136174D01*
G37*
D11*
X147294600Y-76835000D03*
D10*
G36*
X133830142Y-95144674D02*
G01*
X133853803Y-95148184D01*
X133877007Y-95153996D01*
X133899529Y-95162054D01*
X133921153Y-95172282D01*
X133941670Y-95184579D01*
X133960883Y-95198829D01*
X133978607Y-95214893D01*
X133994671Y-95232617D01*
X134008921Y-95251830D01*
X134021218Y-95272347D01*
X134031446Y-95293971D01*
X134039504Y-95316493D01*
X134045316Y-95339697D01*
X134048826Y-95363358D01*
X134050000Y-95387250D01*
X134050000Y-95874750D01*
X134048826Y-95898642D01*
X134045316Y-95922303D01*
X134039504Y-95945507D01*
X134031446Y-95968029D01*
X134021218Y-95989653D01*
X134008921Y-96010170D01*
X133994671Y-96029383D01*
X133978607Y-96047107D01*
X133960883Y-96063171D01*
X133941670Y-96077421D01*
X133921153Y-96089718D01*
X133899529Y-96099946D01*
X133877007Y-96108004D01*
X133853803Y-96113816D01*
X133830142Y-96117326D01*
X133806250Y-96118500D01*
X132893750Y-96118500D01*
X132869858Y-96117326D01*
X132846197Y-96113816D01*
X132822993Y-96108004D01*
X132800471Y-96099946D01*
X132778847Y-96089718D01*
X132758330Y-96077421D01*
X132739117Y-96063171D01*
X132721393Y-96047107D01*
X132705329Y-96029383D01*
X132691079Y-96010170D01*
X132678782Y-95989653D01*
X132668554Y-95968029D01*
X132660496Y-95945507D01*
X132654684Y-95922303D01*
X132651174Y-95898642D01*
X132650000Y-95874750D01*
X132650000Y-95387250D01*
X132651174Y-95363358D01*
X132654684Y-95339697D01*
X132660496Y-95316493D01*
X132668554Y-95293971D01*
X132678782Y-95272347D01*
X132691079Y-95251830D01*
X132705329Y-95232617D01*
X132721393Y-95214893D01*
X132739117Y-95198829D01*
X132758330Y-95184579D01*
X132778847Y-95172282D01*
X132800471Y-95162054D01*
X132822993Y-95153996D01*
X132846197Y-95148184D01*
X132869858Y-95144674D01*
X132893750Y-95143500D01*
X133806250Y-95143500D01*
X133830142Y-95144674D01*
X133830142Y-95144674D01*
G37*
D11*
X133350000Y-95631000D03*
D10*
G36*
X133830142Y-93269674D02*
G01*
X133853803Y-93273184D01*
X133877007Y-93278996D01*
X133899529Y-93287054D01*
X133921153Y-93297282D01*
X133941670Y-93309579D01*
X133960883Y-93323829D01*
X133978607Y-93339893D01*
X133994671Y-93357617D01*
X134008921Y-93376830D01*
X134021218Y-93397347D01*
X134031446Y-93418971D01*
X134039504Y-93441493D01*
X134045316Y-93464697D01*
X134048826Y-93488358D01*
X134050000Y-93512250D01*
X134050000Y-93999750D01*
X134048826Y-94023642D01*
X134045316Y-94047303D01*
X134039504Y-94070507D01*
X134031446Y-94093029D01*
X134021218Y-94114653D01*
X134008921Y-94135170D01*
X133994671Y-94154383D01*
X133978607Y-94172107D01*
X133960883Y-94188171D01*
X133941670Y-94202421D01*
X133921153Y-94214718D01*
X133899529Y-94224946D01*
X133877007Y-94233004D01*
X133853803Y-94238816D01*
X133830142Y-94242326D01*
X133806250Y-94243500D01*
X132893750Y-94243500D01*
X132869858Y-94242326D01*
X132846197Y-94238816D01*
X132822993Y-94233004D01*
X132800471Y-94224946D01*
X132778847Y-94214718D01*
X132758330Y-94202421D01*
X132739117Y-94188171D01*
X132721393Y-94172107D01*
X132705329Y-94154383D01*
X132691079Y-94135170D01*
X132678782Y-94114653D01*
X132668554Y-94093029D01*
X132660496Y-94070507D01*
X132654684Y-94047303D01*
X132651174Y-94023642D01*
X132650000Y-93999750D01*
X132650000Y-93512250D01*
X132651174Y-93488358D01*
X132654684Y-93464697D01*
X132660496Y-93441493D01*
X132668554Y-93418971D01*
X132678782Y-93397347D01*
X132691079Y-93376830D01*
X132705329Y-93357617D01*
X132721393Y-93339893D01*
X132739117Y-93323829D01*
X132758330Y-93309579D01*
X132778847Y-93297282D01*
X132800471Y-93287054D01*
X132822993Y-93278996D01*
X132846197Y-93273184D01*
X132869858Y-93269674D01*
X132893750Y-93268500D01*
X133806250Y-93268500D01*
X133830142Y-93269674D01*
X133830142Y-93269674D01*
G37*
D11*
X133350000Y-93756000D03*
D10*
G36*
X131721942Y-93265074D02*
G01*
X131745603Y-93268584D01*
X131768807Y-93274396D01*
X131791329Y-93282454D01*
X131812953Y-93292682D01*
X131833470Y-93304979D01*
X131852683Y-93319229D01*
X131870407Y-93335293D01*
X131886471Y-93353017D01*
X131900721Y-93372230D01*
X131913018Y-93392747D01*
X131923246Y-93414371D01*
X131931304Y-93436893D01*
X131937116Y-93460097D01*
X131940626Y-93483758D01*
X131941800Y-93507650D01*
X131941800Y-93995150D01*
X131940626Y-94019042D01*
X131937116Y-94042703D01*
X131931304Y-94065907D01*
X131923246Y-94088429D01*
X131913018Y-94110053D01*
X131900721Y-94130570D01*
X131886471Y-94149783D01*
X131870407Y-94167507D01*
X131852683Y-94183571D01*
X131833470Y-94197821D01*
X131812953Y-94210118D01*
X131791329Y-94220346D01*
X131768807Y-94228404D01*
X131745603Y-94234216D01*
X131721942Y-94237726D01*
X131698050Y-94238900D01*
X130785550Y-94238900D01*
X130761658Y-94237726D01*
X130737997Y-94234216D01*
X130714793Y-94228404D01*
X130692271Y-94220346D01*
X130670647Y-94210118D01*
X130650130Y-94197821D01*
X130630917Y-94183571D01*
X130613193Y-94167507D01*
X130597129Y-94149783D01*
X130582879Y-94130570D01*
X130570582Y-94110053D01*
X130560354Y-94088429D01*
X130552296Y-94065907D01*
X130546484Y-94042703D01*
X130542974Y-94019042D01*
X130541800Y-93995150D01*
X130541800Y-93507650D01*
X130542974Y-93483758D01*
X130546484Y-93460097D01*
X130552296Y-93436893D01*
X130560354Y-93414371D01*
X130570582Y-93392747D01*
X130582879Y-93372230D01*
X130597129Y-93353017D01*
X130613193Y-93335293D01*
X130630917Y-93319229D01*
X130650130Y-93304979D01*
X130670647Y-93292682D01*
X130692271Y-93282454D01*
X130714793Y-93274396D01*
X130737997Y-93268584D01*
X130761658Y-93265074D01*
X130785550Y-93263900D01*
X131698050Y-93263900D01*
X131721942Y-93265074D01*
X131721942Y-93265074D01*
G37*
D11*
X131241800Y-93751400D03*
D10*
G36*
X131721942Y-95140074D02*
G01*
X131745603Y-95143584D01*
X131768807Y-95149396D01*
X131791329Y-95157454D01*
X131812953Y-95167682D01*
X131833470Y-95179979D01*
X131852683Y-95194229D01*
X131870407Y-95210293D01*
X131886471Y-95228017D01*
X131900721Y-95247230D01*
X131913018Y-95267747D01*
X131923246Y-95289371D01*
X131931304Y-95311893D01*
X131937116Y-95335097D01*
X131940626Y-95358758D01*
X131941800Y-95382650D01*
X131941800Y-95870150D01*
X131940626Y-95894042D01*
X131937116Y-95917703D01*
X131931304Y-95940907D01*
X131923246Y-95963429D01*
X131913018Y-95985053D01*
X131900721Y-96005570D01*
X131886471Y-96024783D01*
X131870407Y-96042507D01*
X131852683Y-96058571D01*
X131833470Y-96072821D01*
X131812953Y-96085118D01*
X131791329Y-96095346D01*
X131768807Y-96103404D01*
X131745603Y-96109216D01*
X131721942Y-96112726D01*
X131698050Y-96113900D01*
X130785550Y-96113900D01*
X130761658Y-96112726D01*
X130737997Y-96109216D01*
X130714793Y-96103404D01*
X130692271Y-96095346D01*
X130670647Y-96085118D01*
X130650130Y-96072821D01*
X130630917Y-96058571D01*
X130613193Y-96042507D01*
X130597129Y-96024783D01*
X130582879Y-96005570D01*
X130570582Y-95985053D01*
X130560354Y-95963429D01*
X130552296Y-95940907D01*
X130546484Y-95917703D01*
X130542974Y-95894042D01*
X130541800Y-95870150D01*
X130541800Y-95382650D01*
X130542974Y-95358758D01*
X130546484Y-95335097D01*
X130552296Y-95311893D01*
X130560354Y-95289371D01*
X130570582Y-95267747D01*
X130582879Y-95247230D01*
X130597129Y-95228017D01*
X130613193Y-95210293D01*
X130630917Y-95194229D01*
X130650130Y-95179979D01*
X130670647Y-95167682D01*
X130692271Y-95157454D01*
X130714793Y-95149396D01*
X130737997Y-95143584D01*
X130761658Y-95140074D01*
X130785550Y-95138900D01*
X131698050Y-95138900D01*
X131721942Y-95140074D01*
X131721942Y-95140074D01*
G37*
D11*
X131241800Y-95626400D03*
D10*
G36*
X170142842Y-68770174D02*
G01*
X170166503Y-68773684D01*
X170189707Y-68779496D01*
X170212229Y-68787554D01*
X170233853Y-68797782D01*
X170254370Y-68810079D01*
X170273583Y-68824329D01*
X170291307Y-68840393D01*
X170307371Y-68858117D01*
X170321621Y-68877330D01*
X170333918Y-68897847D01*
X170344146Y-68919471D01*
X170352204Y-68941993D01*
X170358016Y-68965197D01*
X170361526Y-68988858D01*
X170362700Y-69012750D01*
X170362700Y-69925250D01*
X170361526Y-69949142D01*
X170358016Y-69972803D01*
X170352204Y-69996007D01*
X170344146Y-70018529D01*
X170333918Y-70040153D01*
X170321621Y-70060670D01*
X170307371Y-70079883D01*
X170291307Y-70097607D01*
X170273583Y-70113671D01*
X170254370Y-70127921D01*
X170233853Y-70140218D01*
X170212229Y-70150446D01*
X170189707Y-70158504D01*
X170166503Y-70164316D01*
X170142842Y-70167826D01*
X170118950Y-70169000D01*
X169631450Y-70169000D01*
X169607558Y-70167826D01*
X169583897Y-70164316D01*
X169560693Y-70158504D01*
X169538171Y-70150446D01*
X169516547Y-70140218D01*
X169496030Y-70127921D01*
X169476817Y-70113671D01*
X169459093Y-70097607D01*
X169443029Y-70079883D01*
X169428779Y-70060670D01*
X169416482Y-70040153D01*
X169406254Y-70018529D01*
X169398196Y-69996007D01*
X169392384Y-69972803D01*
X169388874Y-69949142D01*
X169387700Y-69925250D01*
X169387700Y-69012750D01*
X169388874Y-68988858D01*
X169392384Y-68965197D01*
X169398196Y-68941993D01*
X169406254Y-68919471D01*
X169416482Y-68897847D01*
X169428779Y-68877330D01*
X169443029Y-68858117D01*
X169459093Y-68840393D01*
X169476817Y-68824329D01*
X169496030Y-68810079D01*
X169516547Y-68797782D01*
X169538171Y-68787554D01*
X169560693Y-68779496D01*
X169583897Y-68773684D01*
X169607558Y-68770174D01*
X169631450Y-68769000D01*
X170118950Y-68769000D01*
X170142842Y-68770174D01*
X170142842Y-68770174D01*
G37*
D11*
X169875200Y-69469000D03*
D10*
G36*
X168267842Y-68770174D02*
G01*
X168291503Y-68773684D01*
X168314707Y-68779496D01*
X168337229Y-68787554D01*
X168358853Y-68797782D01*
X168379370Y-68810079D01*
X168398583Y-68824329D01*
X168416307Y-68840393D01*
X168432371Y-68858117D01*
X168446621Y-68877330D01*
X168458918Y-68897847D01*
X168469146Y-68919471D01*
X168477204Y-68941993D01*
X168483016Y-68965197D01*
X168486526Y-68988858D01*
X168487700Y-69012750D01*
X168487700Y-69925250D01*
X168486526Y-69949142D01*
X168483016Y-69972803D01*
X168477204Y-69996007D01*
X168469146Y-70018529D01*
X168458918Y-70040153D01*
X168446621Y-70060670D01*
X168432371Y-70079883D01*
X168416307Y-70097607D01*
X168398583Y-70113671D01*
X168379370Y-70127921D01*
X168358853Y-70140218D01*
X168337229Y-70150446D01*
X168314707Y-70158504D01*
X168291503Y-70164316D01*
X168267842Y-70167826D01*
X168243950Y-70169000D01*
X167756450Y-70169000D01*
X167732558Y-70167826D01*
X167708897Y-70164316D01*
X167685693Y-70158504D01*
X167663171Y-70150446D01*
X167641547Y-70140218D01*
X167621030Y-70127921D01*
X167601817Y-70113671D01*
X167584093Y-70097607D01*
X167568029Y-70079883D01*
X167553779Y-70060670D01*
X167541482Y-70040153D01*
X167531254Y-70018529D01*
X167523196Y-69996007D01*
X167517384Y-69972803D01*
X167513874Y-69949142D01*
X167512700Y-69925250D01*
X167512700Y-69012750D01*
X167513874Y-68988858D01*
X167517384Y-68965197D01*
X167523196Y-68941993D01*
X167531254Y-68919471D01*
X167541482Y-68897847D01*
X167553779Y-68877330D01*
X167568029Y-68858117D01*
X167584093Y-68840393D01*
X167601817Y-68824329D01*
X167621030Y-68810079D01*
X167641547Y-68797782D01*
X167663171Y-68787554D01*
X167685693Y-68779496D01*
X167708897Y-68773684D01*
X167732558Y-68770174D01*
X167756450Y-68769000D01*
X168243950Y-68769000D01*
X168267842Y-68770174D01*
X168267842Y-68770174D01*
G37*
D11*
X168000200Y-69469000D03*
D10*
G36*
X174587842Y-68897174D02*
G01*
X174611503Y-68900684D01*
X174634707Y-68906496D01*
X174657229Y-68914554D01*
X174678853Y-68924782D01*
X174699370Y-68937079D01*
X174718583Y-68951329D01*
X174736307Y-68967393D01*
X174752371Y-68985117D01*
X174766621Y-69004330D01*
X174778918Y-69024847D01*
X174789146Y-69046471D01*
X174797204Y-69068993D01*
X174803016Y-69092197D01*
X174806526Y-69115858D01*
X174807700Y-69139750D01*
X174807700Y-70052250D01*
X174806526Y-70076142D01*
X174803016Y-70099803D01*
X174797204Y-70123007D01*
X174789146Y-70145529D01*
X174778918Y-70167153D01*
X174766621Y-70187670D01*
X174752371Y-70206883D01*
X174736307Y-70224607D01*
X174718583Y-70240671D01*
X174699370Y-70254921D01*
X174678853Y-70267218D01*
X174657229Y-70277446D01*
X174634707Y-70285504D01*
X174611503Y-70291316D01*
X174587842Y-70294826D01*
X174563950Y-70296000D01*
X174076450Y-70296000D01*
X174052558Y-70294826D01*
X174028897Y-70291316D01*
X174005693Y-70285504D01*
X173983171Y-70277446D01*
X173961547Y-70267218D01*
X173941030Y-70254921D01*
X173921817Y-70240671D01*
X173904093Y-70224607D01*
X173888029Y-70206883D01*
X173873779Y-70187670D01*
X173861482Y-70167153D01*
X173851254Y-70145529D01*
X173843196Y-70123007D01*
X173837384Y-70099803D01*
X173833874Y-70076142D01*
X173832700Y-70052250D01*
X173832700Y-69139750D01*
X173833874Y-69115858D01*
X173837384Y-69092197D01*
X173843196Y-69068993D01*
X173851254Y-69046471D01*
X173861482Y-69024847D01*
X173873779Y-69004330D01*
X173888029Y-68985117D01*
X173904093Y-68967393D01*
X173921817Y-68951329D01*
X173941030Y-68937079D01*
X173961547Y-68924782D01*
X173983171Y-68914554D01*
X174005693Y-68906496D01*
X174028897Y-68900684D01*
X174052558Y-68897174D01*
X174076450Y-68896000D01*
X174563950Y-68896000D01*
X174587842Y-68897174D01*
X174587842Y-68897174D01*
G37*
D11*
X174320200Y-69596000D03*
D10*
G36*
X176462842Y-68897174D02*
G01*
X176486503Y-68900684D01*
X176509707Y-68906496D01*
X176532229Y-68914554D01*
X176553853Y-68924782D01*
X176574370Y-68937079D01*
X176593583Y-68951329D01*
X176611307Y-68967393D01*
X176627371Y-68985117D01*
X176641621Y-69004330D01*
X176653918Y-69024847D01*
X176664146Y-69046471D01*
X176672204Y-69068993D01*
X176678016Y-69092197D01*
X176681526Y-69115858D01*
X176682700Y-69139750D01*
X176682700Y-70052250D01*
X176681526Y-70076142D01*
X176678016Y-70099803D01*
X176672204Y-70123007D01*
X176664146Y-70145529D01*
X176653918Y-70167153D01*
X176641621Y-70187670D01*
X176627371Y-70206883D01*
X176611307Y-70224607D01*
X176593583Y-70240671D01*
X176574370Y-70254921D01*
X176553853Y-70267218D01*
X176532229Y-70277446D01*
X176509707Y-70285504D01*
X176486503Y-70291316D01*
X176462842Y-70294826D01*
X176438950Y-70296000D01*
X175951450Y-70296000D01*
X175927558Y-70294826D01*
X175903897Y-70291316D01*
X175880693Y-70285504D01*
X175858171Y-70277446D01*
X175836547Y-70267218D01*
X175816030Y-70254921D01*
X175796817Y-70240671D01*
X175779093Y-70224607D01*
X175763029Y-70206883D01*
X175748779Y-70187670D01*
X175736482Y-70167153D01*
X175726254Y-70145529D01*
X175718196Y-70123007D01*
X175712384Y-70099803D01*
X175708874Y-70076142D01*
X175707700Y-70052250D01*
X175707700Y-69139750D01*
X175708874Y-69115858D01*
X175712384Y-69092197D01*
X175718196Y-69068993D01*
X175726254Y-69046471D01*
X175736482Y-69024847D01*
X175748779Y-69004330D01*
X175763029Y-68985117D01*
X175779093Y-68967393D01*
X175796817Y-68951329D01*
X175816030Y-68937079D01*
X175836547Y-68924782D01*
X175858171Y-68914554D01*
X175880693Y-68906496D01*
X175903897Y-68900684D01*
X175927558Y-68897174D01*
X175951450Y-68896000D01*
X176438950Y-68896000D01*
X176462842Y-68897174D01*
X176462842Y-68897174D01*
G37*
D11*
X176195200Y-69596000D03*
M02*
