G04 #@! TF.GenerationSoftware,KiCad,Pcbnew,(6.0.0-rc1-dev-1413-ga48e89956)*
G04 #@! TF.CreationDate,2019-10-25T09:50:34-06:00
G04 #@! TF.ProjectId,HAT_ver_5.1,4841545f-7665-4725-9f35-2e312e6b6963,5.1.1*
G04 #@! TF.SameCoordinates,Original*
G04 #@! TF.FileFunction,Soldermask,Top*
G04 #@! TF.FilePolarity,Negative*
%FSLAX46Y46*%
G04 Gerber Fmt 4.6, Leading zero omitted, Abs format (unit mm)*
G04 Created by KiCad (PCBNEW (6.0.0-rc1-dev-1413-ga48e89956)) date Friday, October 25, 2019 at 09:50:34 AM*
%MOMM*%
%LPD*%
G04 APERTURE LIST*
%ADD10C,0.100000*%
G04 APERTURE END LIST*
D10*
G36*
X144190992Y-132049176D02*
G01*
X144224883Y-132059457D01*
X144256111Y-132076148D01*
X144283485Y-132098615D01*
X144305952Y-132125989D01*
X144322643Y-132157217D01*
X144332924Y-132191108D01*
X144337000Y-132232491D01*
X144337000Y-132832709D01*
X144332924Y-132874092D01*
X144322643Y-132907983D01*
X144305952Y-132939211D01*
X144283485Y-132966585D01*
X144256111Y-132989052D01*
X144224883Y-133005743D01*
X144190992Y-133016024D01*
X144149609Y-133020100D01*
X143124391Y-133020100D01*
X143083008Y-133016024D01*
X143049117Y-133005743D01*
X143017889Y-132989052D01*
X142990515Y-132966585D01*
X142968048Y-132939211D01*
X142951357Y-132907983D01*
X142941076Y-132874092D01*
X142937000Y-132832709D01*
X142937000Y-132232491D01*
X142941076Y-132191108D01*
X142951357Y-132157217D01*
X142968048Y-132125989D01*
X142990515Y-132098615D01*
X143017889Y-132076148D01*
X143049117Y-132059457D01*
X143083008Y-132049176D01*
X143124391Y-132045100D01*
X144149609Y-132045100D01*
X144190992Y-132049176D01*
X144190992Y-132049176D01*
G37*
G36*
X139084318Y-131471411D02*
G01*
X139156767Y-131485822D01*
X139213303Y-131509240D01*
X139293257Y-131542358D01*
X139416100Y-131624439D01*
X139520561Y-131728900D01*
X139602642Y-131851743D01*
X139623347Y-131901730D01*
X139654494Y-131976924D01*
X139659178Y-131988234D01*
X139688000Y-132133130D01*
X139688000Y-132280870D01*
X139659178Y-132425766D01*
X139602642Y-132562257D01*
X139520561Y-132685100D01*
X139416100Y-132789561D01*
X139293257Y-132871642D01*
X139213303Y-132904760D01*
X139156767Y-132928178D01*
X139101300Y-132939211D01*
X139011870Y-132957000D01*
X138864130Y-132957000D01*
X138774700Y-132939211D01*
X138719233Y-132928178D01*
X138662697Y-132904760D01*
X138582743Y-132871642D01*
X138459900Y-132789561D01*
X138355439Y-132685100D01*
X138273358Y-132562257D01*
X138216822Y-132425766D01*
X138188000Y-132280870D01*
X138188000Y-132133130D01*
X138216822Y-131988234D01*
X138221507Y-131976924D01*
X138252653Y-131901730D01*
X138273358Y-131851743D01*
X138355439Y-131728900D01*
X138459900Y-131624439D01*
X138582743Y-131542358D01*
X138662697Y-131509240D01*
X138719233Y-131485822D01*
X138791682Y-131471411D01*
X138864130Y-131457000D01*
X139011870Y-131457000D01*
X139084318Y-131471411D01*
X139084318Y-131471411D01*
G37*
G36*
X179293792Y-131797476D02*
G01*
X179327683Y-131807757D01*
X179358911Y-131824448D01*
X179386285Y-131846915D01*
X179408752Y-131874289D01*
X179425443Y-131905517D01*
X179435724Y-131939408D01*
X179439800Y-131980791D01*
X179439800Y-132581009D01*
X179435724Y-132622392D01*
X179425443Y-132656283D01*
X179408752Y-132687511D01*
X179386285Y-132714885D01*
X179358911Y-132737352D01*
X179327683Y-132754043D01*
X179293792Y-132764324D01*
X179252409Y-132768400D01*
X178227191Y-132768400D01*
X178185808Y-132764324D01*
X178151917Y-132754043D01*
X178120689Y-132737352D01*
X178093315Y-132714885D01*
X178070848Y-132687511D01*
X178054157Y-132656283D01*
X178043876Y-132622392D01*
X178039800Y-132581009D01*
X178039800Y-131980791D01*
X178043876Y-131939408D01*
X178054157Y-131905517D01*
X178070848Y-131874289D01*
X178093315Y-131846915D01*
X178120689Y-131824448D01*
X178151917Y-131807757D01*
X178185808Y-131797476D01*
X178227191Y-131793400D01*
X179252409Y-131793400D01*
X179293792Y-131797476D01*
X179293792Y-131797476D01*
G37*
G36*
X182865335Y-129805629D02*
G01*
X182961934Y-129824844D01*
X183052240Y-129862250D01*
X183232593Y-129936954D01*
X183234917Y-129937917D01*
X183324343Y-129997670D01*
X183480597Y-130102076D01*
X183689524Y-130311003D01*
X183689526Y-130311006D01*
X183853683Y-130556683D01*
X183966756Y-130829666D01*
X183975743Y-130874846D01*
X184024400Y-131119461D01*
X184024400Y-131414939D01*
X183999054Y-131542359D01*
X183966756Y-131704734D01*
X183898763Y-131868883D01*
X183854012Y-131976924D01*
X183853683Y-131977717D01*
X183772901Y-132098615D01*
X183689524Y-132223397D01*
X183480597Y-132432324D01*
X183480594Y-132432326D01*
X183234917Y-132596483D01*
X182961934Y-132709556D01*
X182872623Y-132727321D01*
X182672139Y-132767200D01*
X182376661Y-132767200D01*
X182176177Y-132727321D01*
X182086866Y-132709556D01*
X181813883Y-132596483D01*
X181568206Y-132432326D01*
X181568203Y-132432324D01*
X181359276Y-132223397D01*
X181275899Y-132098615D01*
X181195117Y-131977717D01*
X181194789Y-131976924D01*
X181150037Y-131868883D01*
X181082044Y-131704734D01*
X181049746Y-131542359D01*
X181024400Y-131414939D01*
X181024400Y-131119461D01*
X181073057Y-130874846D01*
X181082044Y-130829666D01*
X181195117Y-130556683D01*
X181359274Y-130311006D01*
X181359276Y-130311003D01*
X181568203Y-130102076D01*
X181724457Y-129997670D01*
X181813883Y-129937917D01*
X181816208Y-129936954D01*
X181996560Y-129862250D01*
X182086866Y-129824844D01*
X182183465Y-129805629D01*
X182376661Y-129767200D01*
X182672139Y-129767200D01*
X182865335Y-129805629D01*
X182865335Y-129805629D01*
G37*
G36*
X147670792Y-131010076D02*
G01*
X147704683Y-131020357D01*
X147735911Y-131037048D01*
X147763285Y-131059515D01*
X147785752Y-131086889D01*
X147802443Y-131118117D01*
X147812724Y-131152008D01*
X147816800Y-131193391D01*
X147816800Y-131793609D01*
X147812724Y-131834992D01*
X147802443Y-131868883D01*
X147785752Y-131900111D01*
X147763285Y-131927485D01*
X147735911Y-131949952D01*
X147704683Y-131966643D01*
X147670792Y-131976924D01*
X147629409Y-131981000D01*
X146604191Y-131981000D01*
X146562808Y-131976924D01*
X146528917Y-131966643D01*
X146497689Y-131949952D01*
X146470315Y-131927485D01*
X146447848Y-131900111D01*
X146431157Y-131868883D01*
X146420876Y-131834992D01*
X146416800Y-131793609D01*
X146416800Y-131193391D01*
X146420876Y-131152008D01*
X146431157Y-131118117D01*
X146447848Y-131086889D01*
X146470315Y-131059515D01*
X146497689Y-131037048D01*
X146528917Y-131020357D01*
X146562808Y-131010076D01*
X146604191Y-131006000D01*
X147629409Y-131006000D01*
X147670792Y-131010076D01*
X147670792Y-131010076D01*
G37*
G36*
X144190992Y-130174176D02*
G01*
X144224883Y-130184457D01*
X144256111Y-130201148D01*
X144283485Y-130223615D01*
X144305952Y-130250989D01*
X144322643Y-130282217D01*
X144332924Y-130316108D01*
X144337000Y-130357491D01*
X144337000Y-130957709D01*
X144332924Y-130999092D01*
X144322643Y-131032983D01*
X144305952Y-131064211D01*
X144283485Y-131091585D01*
X144256111Y-131114052D01*
X144224883Y-131130743D01*
X144190992Y-131141024D01*
X144149609Y-131145100D01*
X143124391Y-131145100D01*
X143083008Y-131141024D01*
X143049117Y-131130743D01*
X143017889Y-131114052D01*
X142990515Y-131091585D01*
X142968048Y-131064211D01*
X142951357Y-131032983D01*
X142941076Y-130999092D01*
X142937000Y-130957709D01*
X142937000Y-130357491D01*
X142941076Y-130316108D01*
X142951357Y-130282217D01*
X142968048Y-130250989D01*
X142990515Y-130223615D01*
X143017889Y-130201148D01*
X143049117Y-130184457D01*
X143083008Y-130174176D01*
X143124391Y-130170100D01*
X144149609Y-130170100D01*
X144190992Y-130174176D01*
X144190992Y-130174176D01*
G37*
G36*
X179293792Y-129922476D02*
G01*
X179327683Y-129932757D01*
X179358911Y-129949448D01*
X179386285Y-129971915D01*
X179408752Y-129999289D01*
X179425443Y-130030517D01*
X179435724Y-130064408D01*
X179439800Y-130105791D01*
X179439800Y-130706009D01*
X179435724Y-130747392D01*
X179425443Y-130781283D01*
X179408752Y-130812511D01*
X179386285Y-130839885D01*
X179358911Y-130862352D01*
X179327683Y-130879043D01*
X179293792Y-130889324D01*
X179252409Y-130893400D01*
X178227191Y-130893400D01*
X178185808Y-130889324D01*
X178151917Y-130879043D01*
X178120689Y-130862352D01*
X178093315Y-130839885D01*
X178070848Y-130812511D01*
X178054157Y-130781283D01*
X178043876Y-130747392D01*
X178039800Y-130706009D01*
X178039800Y-130105791D01*
X178043876Y-130064408D01*
X178054157Y-130030517D01*
X178070848Y-129999289D01*
X178093315Y-129971915D01*
X178120689Y-129949448D01*
X178151917Y-129932757D01*
X178185808Y-129922476D01*
X178227191Y-129918400D01*
X179252409Y-129918400D01*
X179293792Y-129922476D01*
X179293792Y-129922476D01*
G37*
G36*
X147670792Y-129135076D02*
G01*
X147704683Y-129145357D01*
X147735911Y-129162048D01*
X147763285Y-129184515D01*
X147785752Y-129211889D01*
X147802443Y-129243117D01*
X147812724Y-129277008D01*
X147816800Y-129318391D01*
X147816800Y-129918609D01*
X147812724Y-129959992D01*
X147802443Y-129993883D01*
X147785752Y-130025111D01*
X147763285Y-130052485D01*
X147735911Y-130074952D01*
X147704683Y-130091643D01*
X147670792Y-130101924D01*
X147629409Y-130106000D01*
X146604191Y-130106000D01*
X146562808Y-130101924D01*
X146528917Y-130091643D01*
X146497689Y-130074952D01*
X146470315Y-130052485D01*
X146447848Y-130025111D01*
X146431157Y-129993883D01*
X146420876Y-129959992D01*
X146416800Y-129918609D01*
X146416800Y-129318391D01*
X146420876Y-129277008D01*
X146431157Y-129243117D01*
X146447848Y-129211889D01*
X146470315Y-129184515D01*
X146497689Y-129162048D01*
X146528917Y-129145357D01*
X146562808Y-129135076D01*
X146604191Y-129131000D01*
X147629409Y-129131000D01*
X147670792Y-129135076D01*
X147670792Y-129135076D01*
G37*
G36*
X176200815Y-127636034D02*
G01*
X176295068Y-127664625D01*
X176341497Y-127689443D01*
X176381929Y-127711054D01*
X176458064Y-127773536D01*
X176520546Y-127849671D01*
X176542157Y-127890103D01*
X176566975Y-127936532D01*
X176595566Y-128030785D01*
X176605219Y-128128800D01*
X176595566Y-128226815D01*
X176566975Y-128321068D01*
X176542157Y-128367497D01*
X176520546Y-128407929D01*
X176458064Y-128484064D01*
X176381929Y-128546546D01*
X176341497Y-128568157D01*
X176295068Y-128592975D01*
X176200815Y-128621566D01*
X176127364Y-128628800D01*
X175078236Y-128628800D01*
X175004785Y-128621566D01*
X174910532Y-128592975D01*
X174864103Y-128568157D01*
X174823671Y-128546546D01*
X174747536Y-128484064D01*
X174685054Y-128407929D01*
X174663443Y-128367497D01*
X174638625Y-128321068D01*
X174610034Y-128226815D01*
X174600381Y-128128800D01*
X174610034Y-128030785D01*
X174638625Y-127936532D01*
X174663443Y-127890103D01*
X174685054Y-127849671D01*
X174747536Y-127773536D01*
X174823671Y-127711054D01*
X174864103Y-127689443D01*
X174910532Y-127664625D01*
X175004785Y-127636034D01*
X175078236Y-127628800D01*
X176127364Y-127628800D01*
X176200815Y-127636034D01*
X176200815Y-127636034D01*
G37*
G36*
X183171200Y-128272000D02*
G01*
X181471200Y-128272000D01*
X181471200Y-126572000D01*
X183171200Y-126572000D01*
X183171200Y-128272000D01*
X183171200Y-128272000D01*
G37*
G36*
X180631200Y-128272000D02*
G01*
X178931200Y-128272000D01*
X178931200Y-126572000D01*
X180631200Y-126572000D01*
X180631200Y-128272000D01*
X180631200Y-128272000D01*
G37*
G36*
X145579200Y-128272000D02*
G01*
X143879200Y-128272000D01*
X143879200Y-126572000D01*
X145579200Y-126572000D01*
X145579200Y-128272000D01*
X145579200Y-128272000D01*
G37*
G36*
X153342401Y-126678800D02*
G01*
X153425267Y-126695283D01*
X153563942Y-126752724D01*
X153688750Y-126836118D01*
X153794882Y-126942250D01*
X153794884Y-126942253D01*
X153878276Y-127067058D01*
X153935717Y-127205733D01*
X153965000Y-127352950D01*
X153965000Y-127503050D01*
X153935717Y-127650267D01*
X153878276Y-127788942D01*
X153794882Y-127913750D01*
X153688750Y-128019882D01*
X153688747Y-128019884D01*
X153563942Y-128103276D01*
X153425267Y-128160717D01*
X153376195Y-128170478D01*
X153278052Y-128190000D01*
X153127948Y-128190000D01*
X153029805Y-128170478D01*
X152980733Y-128160717D01*
X152842058Y-128103276D01*
X152717253Y-128019884D01*
X152717250Y-128019882D01*
X152611118Y-127913750D01*
X152527724Y-127788942D01*
X152470283Y-127650267D01*
X152441000Y-127503050D01*
X152441000Y-127352950D01*
X152470283Y-127205733D01*
X152527724Y-127067058D01*
X152611116Y-126942253D01*
X152611118Y-126942250D01*
X152717250Y-126836118D01*
X152842058Y-126752724D01*
X152980733Y-126695283D01*
X153063599Y-126678800D01*
X153127948Y-126666000D01*
X153278052Y-126666000D01*
X153342401Y-126678800D01*
X153342401Y-126678800D01*
G37*
G36*
X151342401Y-126678800D02*
G01*
X151425267Y-126695283D01*
X151563942Y-126752724D01*
X151688750Y-126836118D01*
X151794882Y-126942250D01*
X151794884Y-126942253D01*
X151878276Y-127067058D01*
X151935717Y-127205733D01*
X151965000Y-127352950D01*
X151965000Y-127503050D01*
X151935717Y-127650267D01*
X151878276Y-127788942D01*
X151794882Y-127913750D01*
X151688750Y-128019882D01*
X151688747Y-128019884D01*
X151563942Y-128103276D01*
X151425267Y-128160717D01*
X151376195Y-128170478D01*
X151278052Y-128190000D01*
X151127948Y-128190000D01*
X151029805Y-128170478D01*
X150980733Y-128160717D01*
X150842058Y-128103276D01*
X150717253Y-128019884D01*
X150717250Y-128019882D01*
X150611118Y-127913750D01*
X150527724Y-127788942D01*
X150470283Y-127650267D01*
X150441000Y-127503050D01*
X150441000Y-127352950D01*
X150470283Y-127205733D01*
X150527724Y-127067058D01*
X150611116Y-126942253D01*
X150611118Y-126942250D01*
X150717250Y-126836118D01*
X150842058Y-126752724D01*
X150980733Y-126695283D01*
X151063599Y-126678800D01*
X151127948Y-126666000D01*
X151278052Y-126666000D01*
X151342401Y-126678800D01*
X151342401Y-126678800D01*
G37*
G36*
X131780486Y-126470638D02*
G01*
X131841342Y-126489098D01*
X131897426Y-126519076D01*
X131946582Y-126559418D01*
X131986924Y-126608574D01*
X132016902Y-126664658D01*
X132035362Y-126725514D01*
X132042200Y-126794941D01*
X132042200Y-127782659D01*
X132035362Y-127852086D01*
X132016902Y-127912942D01*
X131986924Y-127969026D01*
X131946582Y-128018182D01*
X131897426Y-128058524D01*
X131841342Y-128088502D01*
X131780486Y-128106962D01*
X131711059Y-128113800D01*
X130823341Y-128113800D01*
X130753914Y-128106962D01*
X130693058Y-128088502D01*
X130636974Y-128058524D01*
X130587818Y-128018182D01*
X130547476Y-127969026D01*
X130517498Y-127912942D01*
X130499038Y-127852086D01*
X130492200Y-127782659D01*
X130492200Y-126794941D01*
X130499038Y-126725514D01*
X130517498Y-126664658D01*
X130547476Y-126608574D01*
X130587818Y-126559418D01*
X130636974Y-126519076D01*
X130693058Y-126489098D01*
X130753914Y-126470638D01*
X130823341Y-126463800D01*
X131711059Y-126463800D01*
X131780486Y-126470638D01*
X131780486Y-126470638D01*
G37*
G36*
X149200815Y-126986034D02*
G01*
X149295068Y-127014625D01*
X149321910Y-127028973D01*
X149381929Y-127061054D01*
X149458064Y-127123536D01*
X149520546Y-127199671D01*
X149537787Y-127231927D01*
X149566975Y-127286532D01*
X149595566Y-127380785D01*
X149605219Y-127478800D01*
X149595566Y-127576815D01*
X149566975Y-127671068D01*
X149545601Y-127711054D01*
X149520546Y-127757929D01*
X149458064Y-127834064D01*
X149381929Y-127896546D01*
X149351254Y-127912942D01*
X149295068Y-127942975D01*
X149200815Y-127971566D01*
X149127364Y-127978800D01*
X148078236Y-127978800D01*
X148004785Y-127971566D01*
X147910532Y-127942975D01*
X147854346Y-127912942D01*
X147823671Y-127896546D01*
X147747536Y-127834064D01*
X147685054Y-127757929D01*
X147659999Y-127711054D01*
X147638625Y-127671068D01*
X147610034Y-127576815D01*
X147600381Y-127478800D01*
X147610034Y-127380785D01*
X147638625Y-127286532D01*
X147667813Y-127231927D01*
X147685054Y-127199671D01*
X147747536Y-127123536D01*
X147823671Y-127061054D01*
X147883690Y-127028973D01*
X147910532Y-127014625D01*
X148004785Y-126986034D01*
X148078236Y-126978800D01*
X149127364Y-126978800D01*
X149200815Y-126986034D01*
X149200815Y-126986034D01*
G37*
G36*
X167175593Y-126678800D02*
G01*
X165902800Y-127951593D01*
X164630007Y-126678800D01*
X165902800Y-125406007D01*
X167175593Y-126678800D01*
X167175593Y-126678800D01*
G37*
G36*
X134060315Y-125995673D02*
G01*
X134112880Y-126011618D01*
X134149857Y-126022835D01*
X134232368Y-126066938D01*
X134232369Y-126066939D01*
X134232373Y-126066941D01*
X134304701Y-126126299D01*
X134304702Y-126126301D01*
X134304704Y-126126302D01*
X134364060Y-126198627D01*
X134408165Y-126281142D01*
X134435327Y-126370685D01*
X134442200Y-126440467D01*
X134442200Y-126787132D01*
X134435327Y-126856915D01*
X134408165Y-126946458D01*
X134364060Y-127028973D01*
X134304701Y-127101301D01*
X134232373Y-127160660D01*
X134149858Y-127204765D01*
X134112881Y-127215982D01*
X134060316Y-127231927D01*
X133967200Y-127241098D01*
X133874085Y-127231927D01*
X133821520Y-127215982D01*
X133784543Y-127204765D01*
X133702028Y-127160660D01*
X133629700Y-127101301D01*
X133570342Y-127028974D01*
X133526234Y-126946455D01*
X133499073Y-126856915D01*
X133492200Y-126787133D01*
X133492200Y-126440468D01*
X133499073Y-126370686D01*
X133499074Y-126370684D01*
X133526234Y-126281147D01*
X133526235Y-126281143D01*
X133570338Y-126198632D01*
X133570339Y-126198631D01*
X133570341Y-126198627D01*
X133629699Y-126126299D01*
X133629701Y-126126298D01*
X133629702Y-126126296D01*
X133702027Y-126066940D01*
X133784542Y-126022835D01*
X133821519Y-126011618D01*
X133874084Y-125995673D01*
X133967200Y-125986502D01*
X134060315Y-125995673D01*
X134060315Y-125995673D01*
G37*
G36*
X176200815Y-126136034D02*
G01*
X176295068Y-126164625D01*
X176341497Y-126189443D01*
X176381929Y-126211054D01*
X176381931Y-126211055D01*
X176381930Y-126211055D01*
X176458064Y-126273536D01*
X176520545Y-126349670D01*
X176566975Y-126436532D01*
X176595566Y-126530785D01*
X176605219Y-126628800D01*
X176595566Y-126726815D01*
X176566975Y-126821068D01*
X176558931Y-126836116D01*
X176520546Y-126907929D01*
X176458064Y-126984064D01*
X176381929Y-127046546D01*
X176343554Y-127067058D01*
X176295068Y-127092975D01*
X176200815Y-127121566D01*
X176127364Y-127128800D01*
X175078236Y-127128800D01*
X175004785Y-127121566D01*
X174910532Y-127092975D01*
X174862046Y-127067058D01*
X174823671Y-127046546D01*
X174747536Y-126984064D01*
X174685054Y-126907929D01*
X174646669Y-126836116D01*
X174638625Y-126821068D01*
X174610034Y-126726815D01*
X174600381Y-126628800D01*
X174610034Y-126530785D01*
X174638625Y-126436532D01*
X174685055Y-126349670D01*
X174747536Y-126273536D01*
X174823670Y-126211055D01*
X174823669Y-126211055D01*
X174823671Y-126211054D01*
X174864103Y-126189443D01*
X174910532Y-126164625D01*
X175004785Y-126136034D01*
X175078236Y-126128800D01*
X176127364Y-126128800D01*
X176200815Y-126136034D01*
X176200815Y-126136034D01*
G37*
G36*
X151376195Y-124685522D02*
G01*
X151425267Y-124695283D01*
X151563942Y-124752724D01*
X151688750Y-124836118D01*
X151794882Y-124942250D01*
X151794884Y-124942253D01*
X151878276Y-125067058D01*
X151933206Y-125199670D01*
X151935717Y-125205734D01*
X151965000Y-125352948D01*
X151965000Y-125503052D01*
X151947273Y-125592169D01*
X151935717Y-125650267D01*
X151878276Y-125788942D01*
X151794882Y-125913750D01*
X151688750Y-126019882D01*
X151688747Y-126019884D01*
X151563942Y-126103276D01*
X151425267Y-126160717D01*
X151376195Y-126170478D01*
X151278052Y-126190000D01*
X151127948Y-126190000D01*
X151029805Y-126170478D01*
X150980733Y-126160717D01*
X150842058Y-126103276D01*
X150717253Y-126019884D01*
X150717250Y-126019882D01*
X150611118Y-125913750D01*
X150527724Y-125788942D01*
X150470283Y-125650267D01*
X150458727Y-125592169D01*
X150441000Y-125503052D01*
X150441000Y-125352948D01*
X150470283Y-125205734D01*
X150472795Y-125199670D01*
X150527724Y-125067058D01*
X150611116Y-124942253D01*
X150611118Y-124942250D01*
X150717250Y-124836118D01*
X150842058Y-124752724D01*
X150980733Y-124695283D01*
X151029805Y-124685522D01*
X151127948Y-124666000D01*
X151278052Y-124666000D01*
X151376195Y-124685522D01*
X151376195Y-124685522D01*
G37*
G36*
X153376195Y-124685522D02*
G01*
X153425267Y-124695283D01*
X153563942Y-124752724D01*
X153688750Y-124836118D01*
X153794882Y-124942250D01*
X153794884Y-124942253D01*
X153878276Y-125067058D01*
X153933206Y-125199670D01*
X153935717Y-125205734D01*
X153965000Y-125352948D01*
X153965000Y-125503052D01*
X153947273Y-125592169D01*
X153935717Y-125650267D01*
X153878276Y-125788942D01*
X153794882Y-125913750D01*
X153688750Y-126019882D01*
X153688747Y-126019884D01*
X153563942Y-126103276D01*
X153425267Y-126160717D01*
X153376195Y-126170478D01*
X153278052Y-126190000D01*
X153127948Y-126190000D01*
X153029805Y-126170478D01*
X152980733Y-126160717D01*
X152842058Y-126103276D01*
X152717253Y-126019884D01*
X152717250Y-126019882D01*
X152611118Y-125913750D01*
X152527724Y-125788942D01*
X152470283Y-125650267D01*
X152458727Y-125592169D01*
X152441000Y-125503052D01*
X152441000Y-125352948D01*
X152470283Y-125205734D01*
X152472795Y-125199670D01*
X152527724Y-125067058D01*
X152611116Y-124942253D01*
X152611118Y-124942250D01*
X152717250Y-124836118D01*
X152842058Y-124752724D01*
X152980733Y-124695283D01*
X153029805Y-124685522D01*
X153127948Y-124666000D01*
X153278052Y-124666000D01*
X153376195Y-124685522D01*
X153376195Y-124685522D01*
G37*
G36*
X149200815Y-124986034D02*
G01*
X149295068Y-125014625D01*
X149325300Y-125030785D01*
X149381929Y-125061054D01*
X149458064Y-125123536D01*
X149520546Y-125199671D01*
X149525455Y-125208855D01*
X149566975Y-125286532D01*
X149595566Y-125380785D01*
X149605219Y-125478800D01*
X149595566Y-125576815D01*
X149566975Y-125671068D01*
X149566959Y-125671097D01*
X149520546Y-125757929D01*
X149458064Y-125834064D01*
X149381929Y-125896546D01*
X149349748Y-125913747D01*
X149295068Y-125942975D01*
X149200815Y-125971566D01*
X149127364Y-125978800D01*
X148078236Y-125978800D01*
X148004785Y-125971566D01*
X147910532Y-125942975D01*
X147855852Y-125913747D01*
X147823671Y-125896546D01*
X147747536Y-125834064D01*
X147685054Y-125757929D01*
X147638641Y-125671097D01*
X147638625Y-125671068D01*
X147610034Y-125576815D01*
X147600381Y-125478800D01*
X147610034Y-125380785D01*
X147638625Y-125286532D01*
X147680145Y-125208855D01*
X147685054Y-125199671D01*
X147747536Y-125123536D01*
X147823671Y-125061054D01*
X147880300Y-125030785D01*
X147910532Y-125014625D01*
X148004785Y-124986034D01*
X148078236Y-124978800D01*
X149127364Y-124978800D01*
X149200815Y-124986034D01*
X149200815Y-124986034D01*
G37*
G36*
X132042200Y-125863800D02*
G01*
X130492200Y-125863800D01*
X130492200Y-124363800D01*
X132042200Y-124363800D01*
X132042200Y-125863800D01*
X132042200Y-125863800D01*
G37*
G36*
X182487830Y-124044299D02*
G01*
X182648055Y-124092903D01*
X182795720Y-124171831D01*
X182925149Y-124278051D01*
X183031369Y-124407480D01*
X183110297Y-124555145D01*
X183158901Y-124715370D01*
X183175312Y-124882000D01*
X183158901Y-125048630D01*
X183110297Y-125208855D01*
X183031369Y-125356520D01*
X182925149Y-125485949D01*
X182795720Y-125592169D01*
X182648055Y-125671097D01*
X182487830Y-125719701D01*
X182362952Y-125732000D01*
X182279448Y-125732000D01*
X182154570Y-125719701D01*
X181994345Y-125671097D01*
X181846680Y-125592169D01*
X181717251Y-125485949D01*
X181611031Y-125356520D01*
X181532103Y-125208855D01*
X181483499Y-125048630D01*
X181467088Y-124882000D01*
X181483499Y-124715370D01*
X181532103Y-124555145D01*
X181611031Y-124407480D01*
X181717251Y-124278051D01*
X181846680Y-124171831D01*
X181994345Y-124092903D01*
X182154570Y-124044299D01*
X182279448Y-124032000D01*
X182362952Y-124032000D01*
X182487830Y-124044299D01*
X182487830Y-124044299D01*
G37*
G36*
X179947830Y-124044299D02*
G01*
X180108055Y-124092903D01*
X180255720Y-124171831D01*
X180385149Y-124278051D01*
X180491369Y-124407480D01*
X180570297Y-124555145D01*
X180618901Y-124715370D01*
X180635312Y-124882000D01*
X180618901Y-125048630D01*
X180570297Y-125208855D01*
X180491369Y-125356520D01*
X180385149Y-125485949D01*
X180255720Y-125592169D01*
X180108055Y-125671097D01*
X179947830Y-125719701D01*
X179822952Y-125732000D01*
X179739448Y-125732000D01*
X179614570Y-125719701D01*
X179454345Y-125671097D01*
X179306680Y-125592169D01*
X179177251Y-125485949D01*
X179071031Y-125356520D01*
X178992103Y-125208855D01*
X178943499Y-125048630D01*
X178927088Y-124882000D01*
X178943499Y-124715370D01*
X178992103Y-124555145D01*
X179071031Y-124407480D01*
X179177251Y-124278051D01*
X179306680Y-124171831D01*
X179454345Y-124092903D01*
X179614570Y-124044299D01*
X179739448Y-124032000D01*
X179822952Y-124032000D01*
X179947830Y-124044299D01*
X179947830Y-124044299D01*
G37*
G36*
X144895830Y-124044299D02*
G01*
X145056055Y-124092903D01*
X145203720Y-124171831D01*
X145333149Y-124278051D01*
X145439369Y-124407480D01*
X145518297Y-124555145D01*
X145566901Y-124715370D01*
X145583312Y-124882000D01*
X145566901Y-125048630D01*
X145518297Y-125208855D01*
X145439369Y-125356520D01*
X145333149Y-125485949D01*
X145203720Y-125592169D01*
X145056055Y-125671097D01*
X144895830Y-125719701D01*
X144770952Y-125732000D01*
X144687448Y-125732000D01*
X144562570Y-125719701D01*
X144402345Y-125671097D01*
X144254680Y-125592169D01*
X144125251Y-125485949D01*
X144019031Y-125356520D01*
X143940103Y-125208855D01*
X143891499Y-125048630D01*
X143875088Y-124882000D01*
X143891499Y-124715370D01*
X143940103Y-124555145D01*
X144019031Y-124407480D01*
X144125251Y-124278051D01*
X144254680Y-124171831D01*
X144402345Y-124092903D01*
X144562570Y-124044299D01*
X144687448Y-124032000D01*
X144770952Y-124032000D01*
X144895830Y-124044299D01*
X144895830Y-124044299D01*
G37*
G36*
X134657200Y-125638800D02*
G01*
X133277200Y-125638800D01*
X133277200Y-122588800D01*
X134657200Y-122588800D01*
X134657200Y-125638800D01*
X134657200Y-125638800D01*
G37*
G36*
X176200815Y-124636034D02*
G01*
X176295068Y-124664625D01*
X176341497Y-124689443D01*
X176381929Y-124711054D01*
X176381931Y-124711055D01*
X176381930Y-124711055D01*
X176458064Y-124773536D01*
X176520545Y-124849670D01*
X176566975Y-124936532D01*
X176595566Y-125030785D01*
X176605219Y-125128800D01*
X176595566Y-125226815D01*
X176566975Y-125321068D01*
X176548025Y-125356520D01*
X176520546Y-125407929D01*
X176458064Y-125484064D01*
X176381929Y-125546546D01*
X176341497Y-125568157D01*
X176295068Y-125592975D01*
X176200815Y-125621566D01*
X176127364Y-125628800D01*
X175078236Y-125628800D01*
X175004785Y-125621566D01*
X174910532Y-125592975D01*
X174864103Y-125568157D01*
X174823671Y-125546546D01*
X174747536Y-125484064D01*
X174685054Y-125407929D01*
X174657575Y-125356520D01*
X174638625Y-125321068D01*
X174610034Y-125226815D01*
X174600381Y-125128800D01*
X174610034Y-125030785D01*
X174638625Y-124936532D01*
X174685055Y-124849670D01*
X174747536Y-124773536D01*
X174823670Y-124711055D01*
X174823669Y-124711055D01*
X174823671Y-124711054D01*
X174864103Y-124689443D01*
X174910532Y-124664625D01*
X175004785Y-124636034D01*
X175078236Y-124628800D01*
X176127364Y-124628800D01*
X176200815Y-124636034D01*
X176200815Y-124636034D01*
G37*
G36*
X153376195Y-122685522D02*
G01*
X153425267Y-122695283D01*
X153563942Y-122752724D01*
X153688750Y-122836118D01*
X153794882Y-122942250D01*
X153794884Y-122942253D01*
X153878276Y-123067058D01*
X153935717Y-123205733D01*
X153965000Y-123352950D01*
X153965000Y-123503050D01*
X153935717Y-123650267D01*
X153878276Y-123788942D01*
X153794882Y-123913750D01*
X153688750Y-124019882D01*
X153688747Y-124019884D01*
X153563942Y-124103276D01*
X153425267Y-124160717D01*
X153376195Y-124170478D01*
X153278052Y-124190000D01*
X153127948Y-124190000D01*
X153029805Y-124170478D01*
X152980733Y-124160717D01*
X152842058Y-124103276D01*
X152717253Y-124019884D01*
X152717250Y-124019882D01*
X152611118Y-123913750D01*
X152527724Y-123788942D01*
X152470283Y-123650267D01*
X152441000Y-123503050D01*
X152441000Y-123352950D01*
X152470283Y-123205733D01*
X152527724Y-123067058D01*
X152611116Y-122942253D01*
X152611118Y-122942250D01*
X152717250Y-122836118D01*
X152842058Y-122752724D01*
X152980733Y-122695283D01*
X153029805Y-122685522D01*
X153127948Y-122666000D01*
X153278052Y-122666000D01*
X153376195Y-122685522D01*
X153376195Y-122685522D01*
G37*
G36*
X151376195Y-122685522D02*
G01*
X151425267Y-122695283D01*
X151563942Y-122752724D01*
X151688750Y-122836118D01*
X151794882Y-122942250D01*
X151794884Y-122942253D01*
X151878276Y-123067058D01*
X151935717Y-123205733D01*
X151965000Y-123352950D01*
X151965000Y-123503050D01*
X151935717Y-123650267D01*
X151878276Y-123788942D01*
X151794882Y-123913750D01*
X151688750Y-124019882D01*
X151688747Y-124019884D01*
X151563942Y-124103276D01*
X151425267Y-124160717D01*
X151376195Y-124170478D01*
X151278052Y-124190000D01*
X151127948Y-124190000D01*
X151029805Y-124170478D01*
X150980733Y-124160717D01*
X150842058Y-124103276D01*
X150717253Y-124019884D01*
X150717250Y-124019882D01*
X150611118Y-123913750D01*
X150527724Y-123788942D01*
X150470283Y-123650267D01*
X150441000Y-123503050D01*
X150441000Y-123352950D01*
X150470283Y-123205733D01*
X150527724Y-123067058D01*
X150611116Y-122942253D01*
X150611118Y-122942250D01*
X150717250Y-122836118D01*
X150842058Y-122752724D01*
X150980733Y-122695283D01*
X151029805Y-122685522D01*
X151127948Y-122666000D01*
X151278052Y-122666000D01*
X151376195Y-122685522D01*
X151376195Y-122685522D01*
G37*
G36*
X149200815Y-122986034D02*
G01*
X149295068Y-123014625D01*
X149340295Y-123038800D01*
X149381929Y-123061054D01*
X149458064Y-123123536D01*
X149520546Y-123199671D01*
X149541461Y-123238800D01*
X149566975Y-123286532D01*
X149595566Y-123380785D01*
X149605219Y-123478800D01*
X149595566Y-123576815D01*
X149566975Y-123671068D01*
X149542157Y-123717497D01*
X149520546Y-123757929D01*
X149458064Y-123834064D01*
X149381929Y-123896546D01*
X149349748Y-123913747D01*
X149295068Y-123942975D01*
X149200815Y-123971566D01*
X149127364Y-123978800D01*
X148078236Y-123978800D01*
X148004785Y-123971566D01*
X147910532Y-123942975D01*
X147855852Y-123913747D01*
X147823671Y-123896546D01*
X147747536Y-123834064D01*
X147685054Y-123757929D01*
X147663443Y-123717497D01*
X147638625Y-123671068D01*
X147610034Y-123576815D01*
X147600381Y-123478800D01*
X147610034Y-123380785D01*
X147638625Y-123286532D01*
X147664139Y-123238800D01*
X147685054Y-123199671D01*
X147747536Y-123123536D01*
X147823671Y-123061054D01*
X147865305Y-123038800D01*
X147910532Y-123014625D01*
X148004785Y-122986034D01*
X148078236Y-122978800D01*
X149127364Y-122978800D01*
X149200815Y-122986034D01*
X149200815Y-122986034D01*
G37*
G36*
X132042200Y-123863800D02*
G01*
X130492200Y-123863800D01*
X130492200Y-122363800D01*
X132042200Y-122363800D01*
X132042200Y-123863800D01*
X132042200Y-123863800D01*
G37*
G36*
X161302800Y-123378800D02*
G01*
X154902800Y-123378800D01*
X154902800Y-116978800D01*
X161302800Y-116978800D01*
X161302800Y-123378800D01*
X161302800Y-123378800D01*
G37*
G36*
X179947830Y-121504299D02*
G01*
X180108055Y-121552903D01*
X180255720Y-121631831D01*
X180385149Y-121738051D01*
X180491369Y-121867480D01*
X180570297Y-122015145D01*
X180618901Y-122175370D01*
X180635312Y-122342000D01*
X180618901Y-122508630D01*
X180570297Y-122668855D01*
X180491369Y-122816520D01*
X180385149Y-122945949D01*
X180255720Y-123052169D01*
X180108055Y-123131097D01*
X179947830Y-123179701D01*
X179822952Y-123192000D01*
X179739448Y-123192000D01*
X179614570Y-123179701D01*
X179454345Y-123131097D01*
X179306680Y-123052169D01*
X179177251Y-122945949D01*
X179071031Y-122816520D01*
X178992103Y-122668855D01*
X178943499Y-122508630D01*
X178927088Y-122342000D01*
X178943499Y-122175370D01*
X178992103Y-122015145D01*
X179071031Y-121867480D01*
X179177251Y-121738051D01*
X179306680Y-121631831D01*
X179454345Y-121552903D01*
X179614570Y-121504299D01*
X179739448Y-121492000D01*
X179822952Y-121492000D01*
X179947830Y-121504299D01*
X179947830Y-121504299D01*
G37*
G36*
X182487830Y-121504299D02*
G01*
X182648055Y-121552903D01*
X182795720Y-121631831D01*
X182925149Y-121738051D01*
X183031369Y-121867480D01*
X183110297Y-122015145D01*
X183158901Y-122175370D01*
X183175312Y-122342000D01*
X183158901Y-122508630D01*
X183110297Y-122668855D01*
X183031369Y-122816520D01*
X182925149Y-122945949D01*
X182795720Y-123052169D01*
X182648055Y-123131097D01*
X182487830Y-123179701D01*
X182362952Y-123192000D01*
X182279448Y-123192000D01*
X182154570Y-123179701D01*
X181994345Y-123131097D01*
X181846680Y-123052169D01*
X181717251Y-122945949D01*
X181611031Y-122816520D01*
X181532103Y-122668855D01*
X181483499Y-122508630D01*
X181467088Y-122342000D01*
X181483499Y-122175370D01*
X181532103Y-122015145D01*
X181611031Y-121867480D01*
X181717251Y-121738051D01*
X181846680Y-121631831D01*
X181994345Y-121552903D01*
X182154570Y-121504299D01*
X182279448Y-121492000D01*
X182362952Y-121492000D01*
X182487830Y-121504299D01*
X182487830Y-121504299D01*
G37*
G36*
X144895830Y-121504299D02*
G01*
X145056055Y-121552903D01*
X145203720Y-121631831D01*
X145333149Y-121738051D01*
X145439369Y-121867480D01*
X145518297Y-122015145D01*
X145566901Y-122175370D01*
X145583312Y-122342000D01*
X145566901Y-122508630D01*
X145518297Y-122668855D01*
X145439369Y-122816520D01*
X145333149Y-122945949D01*
X145203720Y-123052169D01*
X145056055Y-123131097D01*
X144895830Y-123179701D01*
X144770952Y-123192000D01*
X144687448Y-123192000D01*
X144562570Y-123179701D01*
X144402345Y-123131097D01*
X144254680Y-123052169D01*
X144125251Y-122945949D01*
X144019031Y-122816520D01*
X143940103Y-122668855D01*
X143891499Y-122508630D01*
X143875088Y-122342000D01*
X143891499Y-122175370D01*
X143940103Y-122015145D01*
X144019031Y-121867480D01*
X144125251Y-121738051D01*
X144254680Y-121631831D01*
X144402345Y-121552903D01*
X144562570Y-121504299D01*
X144687448Y-121492000D01*
X144770952Y-121492000D01*
X144895830Y-121504299D01*
X144895830Y-121504299D01*
G37*
G36*
X134060315Y-120995673D02*
G01*
X134112880Y-121011618D01*
X134149857Y-121022835D01*
X134232368Y-121066938D01*
X134232369Y-121066939D01*
X134232373Y-121066941D01*
X134304701Y-121126299D01*
X134304702Y-121126301D01*
X134304704Y-121126302D01*
X134364060Y-121198627D01*
X134408165Y-121281142D01*
X134435327Y-121370685D01*
X134442200Y-121440467D01*
X134442200Y-121787132D01*
X134435327Y-121856915D01*
X134408165Y-121946458D01*
X134364060Y-122028973D01*
X134304701Y-122101301D01*
X134232373Y-122160660D01*
X134149858Y-122204765D01*
X134112881Y-122215982D01*
X134060316Y-122231927D01*
X133967200Y-122241098D01*
X133874085Y-122231927D01*
X133821520Y-122215982D01*
X133784543Y-122204765D01*
X133702028Y-122160660D01*
X133629700Y-122101301D01*
X133570342Y-122028974D01*
X133526234Y-121946455D01*
X133499073Y-121856915D01*
X133492200Y-121787133D01*
X133492200Y-121440468D01*
X133498078Y-121380785D01*
X133499073Y-121370685D01*
X133526234Y-121281147D01*
X133526235Y-121281143D01*
X133570338Y-121198632D01*
X133570339Y-121198631D01*
X133570341Y-121198627D01*
X133629699Y-121126299D01*
X133629701Y-121126298D01*
X133629702Y-121126296D01*
X133702027Y-121066940D01*
X133784542Y-121022835D01*
X133821519Y-121011618D01*
X133874084Y-120995673D01*
X133967200Y-120986502D01*
X134060315Y-120995673D01*
X134060315Y-120995673D01*
G37*
G36*
X153376195Y-120685522D02*
G01*
X153425267Y-120695283D01*
X153563942Y-120752724D01*
X153688750Y-120836118D01*
X153794882Y-120942250D01*
X153794884Y-120942253D01*
X153878276Y-121067058D01*
X153933206Y-121199670D01*
X153935717Y-121205734D01*
X153965000Y-121352948D01*
X153965000Y-121503052D01*
X153955084Y-121552903D01*
X153935717Y-121650267D01*
X153888690Y-121763800D01*
X153878276Y-121788942D01*
X153794882Y-121913750D01*
X153688750Y-122019882D01*
X153688747Y-122019884D01*
X153563942Y-122103276D01*
X153425267Y-122160717D01*
X153376195Y-122170478D01*
X153278052Y-122190000D01*
X153127948Y-122190000D01*
X153029805Y-122170478D01*
X152980733Y-122160717D01*
X152842058Y-122103276D01*
X152717253Y-122019884D01*
X152717250Y-122019882D01*
X152611118Y-121913750D01*
X152527724Y-121788942D01*
X152517310Y-121763800D01*
X152470283Y-121650267D01*
X152450916Y-121552903D01*
X152441000Y-121503052D01*
X152441000Y-121352948D01*
X152470283Y-121205734D01*
X152472795Y-121199670D01*
X152527724Y-121067058D01*
X152611116Y-120942253D01*
X152611118Y-120942250D01*
X152717250Y-120836118D01*
X152842058Y-120752724D01*
X152980733Y-120695283D01*
X153029805Y-120685522D01*
X153127948Y-120666000D01*
X153278052Y-120666000D01*
X153376195Y-120685522D01*
X153376195Y-120685522D01*
G37*
G36*
X151376195Y-120685522D02*
G01*
X151425267Y-120695283D01*
X151563942Y-120752724D01*
X151688750Y-120836118D01*
X151794882Y-120942250D01*
X151794884Y-120942253D01*
X151878276Y-121067058D01*
X151933206Y-121199670D01*
X151935717Y-121205734D01*
X151965000Y-121352948D01*
X151965000Y-121503052D01*
X151955084Y-121552903D01*
X151935717Y-121650267D01*
X151888690Y-121763800D01*
X151878276Y-121788942D01*
X151794882Y-121913750D01*
X151688750Y-122019882D01*
X151688747Y-122019884D01*
X151563942Y-122103276D01*
X151425267Y-122160717D01*
X151376195Y-122170478D01*
X151278052Y-122190000D01*
X151127948Y-122190000D01*
X151029805Y-122170478D01*
X150980733Y-122160717D01*
X150842058Y-122103276D01*
X150717253Y-122019884D01*
X150717250Y-122019882D01*
X150611118Y-121913750D01*
X150527724Y-121788942D01*
X150517310Y-121763800D01*
X150470283Y-121650267D01*
X150450916Y-121552903D01*
X150441000Y-121503052D01*
X150441000Y-121352948D01*
X150470283Y-121205734D01*
X150472795Y-121199670D01*
X150527724Y-121067058D01*
X150611116Y-120942253D01*
X150611118Y-120942250D01*
X150717250Y-120836118D01*
X150842058Y-120752724D01*
X150980733Y-120695283D01*
X151029805Y-120685522D01*
X151127948Y-120666000D01*
X151278052Y-120666000D01*
X151376195Y-120685522D01*
X151376195Y-120685522D01*
G37*
G36*
X149200815Y-120986034D02*
G01*
X149295068Y-121014625D01*
X149310427Y-121022835D01*
X149381929Y-121061054D01*
X149458064Y-121123536D01*
X149520546Y-121199671D01*
X149542157Y-121240103D01*
X149566975Y-121286532D01*
X149595566Y-121380785D01*
X149605219Y-121478800D01*
X149595566Y-121576815D01*
X149566975Y-121671068D01*
X149552315Y-121698494D01*
X149520546Y-121757929D01*
X149458064Y-121834064D01*
X149381929Y-121896546D01*
X149349748Y-121913747D01*
X149295068Y-121942975D01*
X149200815Y-121971566D01*
X149127364Y-121978800D01*
X148078236Y-121978800D01*
X148004785Y-121971566D01*
X147910532Y-121942975D01*
X147855852Y-121913747D01*
X147823671Y-121896546D01*
X147747536Y-121834064D01*
X147685054Y-121757929D01*
X147653285Y-121698494D01*
X147638625Y-121671068D01*
X147610034Y-121576815D01*
X147600381Y-121478800D01*
X147610034Y-121380785D01*
X147638625Y-121286532D01*
X147663443Y-121240103D01*
X147685054Y-121199671D01*
X147747536Y-121123536D01*
X147823671Y-121061054D01*
X147895173Y-121022835D01*
X147910532Y-121014625D01*
X148004785Y-120986034D01*
X148078236Y-120978800D01*
X149127364Y-120978800D01*
X149200815Y-120986034D01*
X149200815Y-120986034D01*
G37*
G36*
X131780486Y-120120638D02*
G01*
X131841342Y-120139098D01*
X131897426Y-120169076D01*
X131946582Y-120209418D01*
X131986924Y-120258574D01*
X132016902Y-120314658D01*
X132035362Y-120375514D01*
X132042200Y-120444941D01*
X132042200Y-121432659D01*
X132035362Y-121502086D01*
X132016902Y-121562942D01*
X131986924Y-121619026D01*
X131946582Y-121668182D01*
X131897426Y-121708524D01*
X131841342Y-121738502D01*
X131780486Y-121756962D01*
X131711059Y-121763800D01*
X130823341Y-121763800D01*
X130753914Y-121756962D01*
X130693058Y-121738502D01*
X130636974Y-121708524D01*
X130587818Y-121668182D01*
X130547476Y-121619026D01*
X130517498Y-121562942D01*
X130499038Y-121502086D01*
X130492200Y-121432659D01*
X130492200Y-120444941D01*
X130499038Y-120375514D01*
X130517498Y-120314658D01*
X130547476Y-120258574D01*
X130587818Y-120209418D01*
X130636974Y-120169076D01*
X130693058Y-120139098D01*
X130753914Y-120120638D01*
X130823341Y-120113800D01*
X131711059Y-120113800D01*
X131780486Y-120120638D01*
X131780486Y-120120638D01*
G37*
G36*
X179947830Y-118964299D02*
G01*
X180108055Y-119012903D01*
X180255720Y-119091831D01*
X180385149Y-119198051D01*
X180491369Y-119327480D01*
X180570297Y-119475145D01*
X180618901Y-119635370D01*
X180635312Y-119802000D01*
X180618901Y-119968630D01*
X180570297Y-120128855D01*
X180491369Y-120276520D01*
X180385149Y-120405949D01*
X180255720Y-120512169D01*
X180108055Y-120591097D01*
X179947830Y-120639701D01*
X179822952Y-120652000D01*
X179739448Y-120652000D01*
X179614570Y-120639701D01*
X179454345Y-120591097D01*
X179306680Y-120512169D01*
X179177251Y-120405949D01*
X179071031Y-120276520D01*
X178992103Y-120128855D01*
X178943499Y-119968630D01*
X178927088Y-119802000D01*
X178943499Y-119635370D01*
X178992103Y-119475145D01*
X179071031Y-119327480D01*
X179177251Y-119198051D01*
X179306680Y-119091831D01*
X179454345Y-119012903D01*
X179614570Y-118964299D01*
X179739448Y-118952000D01*
X179822952Y-118952000D01*
X179947830Y-118964299D01*
X179947830Y-118964299D01*
G37*
G36*
X182487830Y-118964299D02*
G01*
X182648055Y-119012903D01*
X182795720Y-119091831D01*
X182925149Y-119198051D01*
X183031369Y-119327480D01*
X183110297Y-119475145D01*
X183158901Y-119635370D01*
X183175312Y-119802000D01*
X183158901Y-119968630D01*
X183110297Y-120128855D01*
X183031369Y-120276520D01*
X182925149Y-120405949D01*
X182795720Y-120512169D01*
X182648055Y-120591097D01*
X182487830Y-120639701D01*
X182362952Y-120652000D01*
X182279448Y-120652000D01*
X182154570Y-120639701D01*
X181994345Y-120591097D01*
X181846680Y-120512169D01*
X181717251Y-120405949D01*
X181611031Y-120276520D01*
X181532103Y-120128855D01*
X181483499Y-119968630D01*
X181467088Y-119802000D01*
X181483499Y-119635370D01*
X181532103Y-119475145D01*
X181611031Y-119327480D01*
X181717251Y-119198051D01*
X181846680Y-119091831D01*
X181994345Y-119012903D01*
X182154570Y-118964299D01*
X182279448Y-118952000D01*
X182362952Y-118952000D01*
X182487830Y-118964299D01*
X182487830Y-118964299D01*
G37*
G36*
X144895830Y-118964299D02*
G01*
X145056055Y-119012903D01*
X145203720Y-119091831D01*
X145333149Y-119198051D01*
X145439369Y-119327480D01*
X145518297Y-119475145D01*
X145566901Y-119635370D01*
X145583312Y-119802000D01*
X145566901Y-119968630D01*
X145518297Y-120128855D01*
X145439369Y-120276520D01*
X145333149Y-120405949D01*
X145203720Y-120512169D01*
X145056055Y-120591097D01*
X144895830Y-120639701D01*
X144770952Y-120652000D01*
X144687448Y-120652000D01*
X144562570Y-120639701D01*
X144402345Y-120591097D01*
X144254680Y-120512169D01*
X144125251Y-120405949D01*
X144019031Y-120276520D01*
X143940103Y-120128855D01*
X143891499Y-119968630D01*
X143875088Y-119802000D01*
X143891499Y-119635370D01*
X143940103Y-119475145D01*
X144019031Y-119327480D01*
X144125251Y-119198051D01*
X144254680Y-119091831D01*
X144402345Y-119012903D01*
X144562570Y-118964299D01*
X144687448Y-118952000D01*
X144770952Y-118952000D01*
X144895830Y-118964299D01*
X144895830Y-118964299D01*
G37*
G36*
X176200815Y-119336034D02*
G01*
X176295068Y-119364625D01*
X176325300Y-119380785D01*
X176381929Y-119411054D01*
X176381931Y-119411055D01*
X176381930Y-119411055D01*
X176458064Y-119473536D01*
X176520545Y-119549670D01*
X176566975Y-119636532D01*
X176595566Y-119730785D01*
X176605219Y-119828800D01*
X176595566Y-119926815D01*
X176566975Y-120021068D01*
X176542157Y-120067497D01*
X176520546Y-120107929D01*
X176458064Y-120184064D01*
X176381929Y-120246546D01*
X176359426Y-120258574D01*
X176295068Y-120292975D01*
X176200815Y-120321566D01*
X176127364Y-120328800D01*
X175078236Y-120328800D01*
X175004785Y-120321566D01*
X174910532Y-120292975D01*
X174846174Y-120258574D01*
X174823671Y-120246546D01*
X174747536Y-120184064D01*
X174685054Y-120107929D01*
X174663443Y-120067497D01*
X174638625Y-120021068D01*
X174610034Y-119926815D01*
X174600381Y-119828800D01*
X174610034Y-119730785D01*
X174638625Y-119636532D01*
X174685055Y-119549670D01*
X174747536Y-119473536D01*
X174823670Y-119411055D01*
X174823669Y-119411055D01*
X174823671Y-119411054D01*
X174880300Y-119380785D01*
X174910532Y-119364625D01*
X175004785Y-119336034D01*
X175078236Y-119328800D01*
X176127364Y-119328800D01*
X176200815Y-119336034D01*
X176200815Y-119336034D01*
G37*
G36*
X153368865Y-118684064D02*
G01*
X153425267Y-118695283D01*
X153549027Y-118746546D01*
X153563942Y-118752724D01*
X153688750Y-118836118D01*
X153794882Y-118942250D01*
X153794884Y-118942253D01*
X153878276Y-119067058D01*
X153933206Y-119199670D01*
X153935717Y-119205734D01*
X153961636Y-119336035D01*
X153965000Y-119352950D01*
X153965000Y-119503050D01*
X153935717Y-119650267D01*
X153878276Y-119788942D01*
X153794882Y-119913750D01*
X153688750Y-120019882D01*
X153688747Y-120019884D01*
X153563942Y-120103276D01*
X153425267Y-120160717D01*
X153383243Y-120169076D01*
X153278052Y-120190000D01*
X153127948Y-120190000D01*
X153022757Y-120169076D01*
X152980733Y-120160717D01*
X152842058Y-120103276D01*
X152717253Y-120019884D01*
X152717250Y-120019882D01*
X152611118Y-119913750D01*
X152527724Y-119788942D01*
X152470283Y-119650267D01*
X152441000Y-119503050D01*
X152441000Y-119352950D01*
X152444365Y-119336035D01*
X152470283Y-119205734D01*
X152472795Y-119199670D01*
X152527724Y-119067058D01*
X152611116Y-118942253D01*
X152611118Y-118942250D01*
X152717250Y-118836118D01*
X152842058Y-118752724D01*
X152856973Y-118746546D01*
X152980733Y-118695283D01*
X153037135Y-118684064D01*
X153127948Y-118666000D01*
X153278052Y-118666000D01*
X153368865Y-118684064D01*
X153368865Y-118684064D01*
G37*
G36*
X151368865Y-118684064D02*
G01*
X151425267Y-118695283D01*
X151549027Y-118746546D01*
X151563942Y-118752724D01*
X151688750Y-118836118D01*
X151794882Y-118942250D01*
X151794884Y-118942253D01*
X151878276Y-119067058D01*
X151933206Y-119199670D01*
X151935717Y-119205734D01*
X151961636Y-119336035D01*
X151965000Y-119352950D01*
X151965000Y-119503050D01*
X151935717Y-119650267D01*
X151878276Y-119788942D01*
X151794882Y-119913750D01*
X151688750Y-120019882D01*
X151688747Y-120019884D01*
X151563942Y-120103276D01*
X151425267Y-120160717D01*
X151383243Y-120169076D01*
X151278052Y-120190000D01*
X151127948Y-120190000D01*
X151022757Y-120169076D01*
X150980733Y-120160717D01*
X150842058Y-120103276D01*
X150717253Y-120019884D01*
X150717250Y-120019882D01*
X150611118Y-119913750D01*
X150527724Y-119788942D01*
X150470283Y-119650267D01*
X150441000Y-119503050D01*
X150441000Y-119352950D01*
X150444365Y-119336035D01*
X150470283Y-119205734D01*
X150472795Y-119199670D01*
X150527724Y-119067058D01*
X150611116Y-118942253D01*
X150611118Y-118942250D01*
X150717250Y-118836118D01*
X150842058Y-118752724D01*
X150856973Y-118746546D01*
X150980733Y-118695283D01*
X151037135Y-118684064D01*
X151127948Y-118666000D01*
X151278052Y-118666000D01*
X151368865Y-118684064D01*
X151368865Y-118684064D01*
G37*
G36*
X168925593Y-118778800D02*
G01*
X167652800Y-120051593D01*
X166380007Y-118778800D01*
X167652800Y-117506007D01*
X168925593Y-118778800D01*
X168925593Y-118778800D01*
G37*
G36*
X149200815Y-118986034D02*
G01*
X149295068Y-119014625D01*
X149341497Y-119039443D01*
X149381929Y-119061054D01*
X149458064Y-119123536D01*
X149520546Y-119199671D01*
X149542157Y-119240103D01*
X149566975Y-119286532D01*
X149595566Y-119380785D01*
X149605219Y-119478800D01*
X149595566Y-119576815D01*
X149566975Y-119671068D01*
X149542157Y-119717497D01*
X149520546Y-119757929D01*
X149458064Y-119834064D01*
X149381929Y-119896546D01*
X149349748Y-119913747D01*
X149295068Y-119942975D01*
X149200815Y-119971566D01*
X149127364Y-119978800D01*
X148078236Y-119978800D01*
X148004785Y-119971566D01*
X147910532Y-119942975D01*
X147855852Y-119913747D01*
X147823671Y-119896546D01*
X147747536Y-119834064D01*
X147685054Y-119757929D01*
X147663443Y-119717497D01*
X147638625Y-119671068D01*
X147610034Y-119576815D01*
X147600381Y-119478800D01*
X147610034Y-119380785D01*
X147638625Y-119286532D01*
X147663443Y-119240103D01*
X147685054Y-119199671D01*
X147747536Y-119123536D01*
X147823671Y-119061054D01*
X147864103Y-119039443D01*
X147910532Y-119014625D01*
X148004785Y-118986034D01*
X148078236Y-118978800D01*
X149127364Y-118978800D01*
X149200815Y-118986034D01*
X149200815Y-118986034D01*
G37*
G36*
X176200815Y-117836034D02*
G01*
X176295068Y-117864625D01*
X176341497Y-117889443D01*
X176381929Y-117911054D01*
X176458064Y-117973536D01*
X176496101Y-118019884D01*
X176520545Y-118049670D01*
X176566975Y-118136532D01*
X176595566Y-118230785D01*
X176605219Y-118328800D01*
X176595566Y-118426815D01*
X176566975Y-118521068D01*
X176542157Y-118567497D01*
X176520546Y-118607929D01*
X176458064Y-118684064D01*
X176381929Y-118746546D01*
X176341497Y-118768157D01*
X176295068Y-118792975D01*
X176200815Y-118821566D01*
X176127364Y-118828800D01*
X175078236Y-118828800D01*
X175004785Y-118821566D01*
X174910532Y-118792975D01*
X174864103Y-118768157D01*
X174823671Y-118746546D01*
X174747536Y-118684064D01*
X174685054Y-118607929D01*
X174663443Y-118567497D01*
X174638625Y-118521068D01*
X174610034Y-118426815D01*
X174600381Y-118328800D01*
X174610034Y-118230785D01*
X174638625Y-118136532D01*
X174685055Y-118049670D01*
X174709500Y-118019884D01*
X174747536Y-117973536D01*
X174823671Y-117911054D01*
X174864103Y-117889443D01*
X174910532Y-117864625D01*
X175004785Y-117836034D01*
X175078236Y-117828800D01*
X176127364Y-117828800D01*
X176200815Y-117836034D01*
X176200815Y-117836034D01*
G37*
G36*
X185491392Y-117319476D02*
G01*
X185525283Y-117329757D01*
X185556511Y-117346448D01*
X185583885Y-117368915D01*
X185606352Y-117396289D01*
X185623043Y-117427517D01*
X185633324Y-117461408D01*
X185637400Y-117502791D01*
X185637400Y-118103009D01*
X185633324Y-118144392D01*
X185623043Y-118178283D01*
X185606352Y-118209511D01*
X185583885Y-118236885D01*
X185556511Y-118259352D01*
X185525283Y-118276043D01*
X185491392Y-118286324D01*
X185450009Y-118290400D01*
X184424791Y-118290400D01*
X184383408Y-118286324D01*
X184349517Y-118276043D01*
X184318289Y-118259352D01*
X184290915Y-118236885D01*
X184268448Y-118209511D01*
X184251757Y-118178283D01*
X184241476Y-118144392D01*
X184237400Y-118103009D01*
X184237400Y-117502791D01*
X184241476Y-117461408D01*
X184251757Y-117427517D01*
X184268448Y-117396289D01*
X184290915Y-117368915D01*
X184318289Y-117346448D01*
X184349517Y-117329757D01*
X184383408Y-117319476D01*
X184424791Y-117315400D01*
X185450009Y-117315400D01*
X185491392Y-117319476D01*
X185491392Y-117319476D01*
G37*
G36*
X153376195Y-116685522D02*
G01*
X153425267Y-116695283D01*
X153563942Y-116752724D01*
X153688750Y-116836118D01*
X153794882Y-116942250D01*
X153794884Y-116942253D01*
X153878276Y-117067058D01*
X153933206Y-117199670D01*
X153935717Y-117205734D01*
X153965000Y-117352948D01*
X153965000Y-117503052D01*
X153945478Y-117601195D01*
X153935717Y-117650267D01*
X153878276Y-117788942D01*
X153794882Y-117913750D01*
X153688750Y-118019882D01*
X153688747Y-118019884D01*
X153563942Y-118103276D01*
X153425267Y-118160717D01*
X153376195Y-118170478D01*
X153278052Y-118190000D01*
X153127948Y-118190000D01*
X153029805Y-118170478D01*
X152980733Y-118160717D01*
X152842058Y-118103276D01*
X152717253Y-118019884D01*
X152717250Y-118019882D01*
X152611118Y-117913750D01*
X152527724Y-117788942D01*
X152470283Y-117650267D01*
X152460522Y-117601195D01*
X152441000Y-117503052D01*
X152441000Y-117352948D01*
X152470283Y-117205734D01*
X152472795Y-117199670D01*
X152527724Y-117067058D01*
X152611116Y-116942253D01*
X152611118Y-116942250D01*
X152717250Y-116836118D01*
X152842058Y-116752724D01*
X152980733Y-116695283D01*
X153029805Y-116685522D01*
X153127948Y-116666000D01*
X153278052Y-116666000D01*
X153376195Y-116685522D01*
X153376195Y-116685522D01*
G37*
G36*
X151376195Y-116685522D02*
G01*
X151425267Y-116695283D01*
X151563942Y-116752724D01*
X151688750Y-116836118D01*
X151794882Y-116942250D01*
X151794884Y-116942253D01*
X151878276Y-117067058D01*
X151933206Y-117199670D01*
X151935717Y-117205734D01*
X151965000Y-117352948D01*
X151965000Y-117503052D01*
X151945478Y-117601195D01*
X151935717Y-117650267D01*
X151878276Y-117788942D01*
X151794882Y-117913750D01*
X151688750Y-118019882D01*
X151688747Y-118019884D01*
X151563942Y-118103276D01*
X151425267Y-118160717D01*
X151376195Y-118170478D01*
X151278052Y-118190000D01*
X151127948Y-118190000D01*
X151029805Y-118170478D01*
X150980733Y-118160717D01*
X150842058Y-118103276D01*
X150717253Y-118019884D01*
X150717250Y-118019882D01*
X150611118Y-117913750D01*
X150527724Y-117788942D01*
X150470283Y-117650267D01*
X150460522Y-117601195D01*
X150441000Y-117503052D01*
X150441000Y-117352948D01*
X150470283Y-117205734D01*
X150472795Y-117199670D01*
X150527724Y-117067058D01*
X150611116Y-116942253D01*
X150611118Y-116942250D01*
X150717250Y-116836118D01*
X150842058Y-116752724D01*
X150980733Y-116695283D01*
X151029805Y-116685522D01*
X151127948Y-116666000D01*
X151278052Y-116666000D01*
X151376195Y-116685522D01*
X151376195Y-116685522D01*
G37*
G36*
X179947830Y-116424299D02*
G01*
X180108055Y-116472903D01*
X180255720Y-116551831D01*
X180385149Y-116658051D01*
X180491369Y-116787480D01*
X180570297Y-116935145D01*
X180618901Y-117095370D01*
X180635312Y-117262000D01*
X180618901Y-117428630D01*
X180570297Y-117588855D01*
X180491369Y-117736520D01*
X180385149Y-117865949D01*
X180255720Y-117972169D01*
X180108055Y-118051097D01*
X179947830Y-118099701D01*
X179822952Y-118112000D01*
X179739448Y-118112000D01*
X179614570Y-118099701D01*
X179454345Y-118051097D01*
X179306680Y-117972169D01*
X179177251Y-117865949D01*
X179071031Y-117736520D01*
X178992103Y-117588855D01*
X178943499Y-117428630D01*
X178927088Y-117262000D01*
X178943499Y-117095370D01*
X178992103Y-116935145D01*
X179071031Y-116787480D01*
X179177251Y-116658051D01*
X179306680Y-116551831D01*
X179454345Y-116472903D01*
X179614570Y-116424299D01*
X179739448Y-116412000D01*
X179822952Y-116412000D01*
X179947830Y-116424299D01*
X179947830Y-116424299D01*
G37*
G36*
X144895830Y-116424299D02*
G01*
X145056055Y-116472903D01*
X145203720Y-116551831D01*
X145333149Y-116658051D01*
X145439369Y-116787480D01*
X145518297Y-116935145D01*
X145566901Y-117095370D01*
X145583312Y-117262000D01*
X145566901Y-117428630D01*
X145518297Y-117588855D01*
X145439369Y-117736520D01*
X145333149Y-117865949D01*
X145203720Y-117972169D01*
X145056055Y-118051097D01*
X144895830Y-118099701D01*
X144770952Y-118112000D01*
X144687448Y-118112000D01*
X144562570Y-118099701D01*
X144402345Y-118051097D01*
X144254680Y-117972169D01*
X144125251Y-117865949D01*
X144019031Y-117736520D01*
X143940103Y-117588855D01*
X143891499Y-117428630D01*
X143875088Y-117262000D01*
X143891499Y-117095370D01*
X143940103Y-116935145D01*
X144019031Y-116787480D01*
X144125251Y-116658051D01*
X144254680Y-116551831D01*
X144402345Y-116472903D01*
X144562570Y-116424299D01*
X144687448Y-116412000D01*
X144770952Y-116412000D01*
X144895830Y-116424299D01*
X144895830Y-116424299D01*
G37*
G36*
X182487830Y-116424299D02*
G01*
X182648055Y-116472903D01*
X182795720Y-116551831D01*
X182925149Y-116658051D01*
X183031369Y-116787480D01*
X183110297Y-116935145D01*
X183158901Y-117095370D01*
X183175312Y-117262000D01*
X183158901Y-117428630D01*
X183110297Y-117588855D01*
X183031369Y-117736520D01*
X182925149Y-117865949D01*
X182795720Y-117972169D01*
X182648055Y-118051097D01*
X182487830Y-118099701D01*
X182362952Y-118112000D01*
X182279448Y-118112000D01*
X182154570Y-118099701D01*
X181994345Y-118051097D01*
X181846680Y-117972169D01*
X181717251Y-117865949D01*
X181611031Y-117736520D01*
X181532103Y-117588855D01*
X181483499Y-117428630D01*
X181467088Y-117262000D01*
X181483499Y-117095370D01*
X181532103Y-116935145D01*
X181611031Y-116787480D01*
X181717251Y-116658051D01*
X181846680Y-116551831D01*
X181994345Y-116472903D01*
X182154570Y-116424299D01*
X182279448Y-116412000D01*
X182362952Y-116412000D01*
X182487830Y-116424299D01*
X182487830Y-116424299D01*
G37*
G36*
X149200815Y-116986034D02*
G01*
X149295068Y-117014625D01*
X149341497Y-117039443D01*
X149381929Y-117061054D01*
X149458064Y-117123536D01*
X149520546Y-117199671D01*
X149542157Y-117240103D01*
X149566975Y-117286532D01*
X149595566Y-117380785D01*
X149605219Y-117478800D01*
X149595566Y-117576815D01*
X149566975Y-117671068D01*
X149542157Y-117717497D01*
X149520546Y-117757929D01*
X149458064Y-117834064D01*
X149381929Y-117896546D01*
X149349748Y-117913747D01*
X149295068Y-117942975D01*
X149200815Y-117971566D01*
X149127364Y-117978800D01*
X148078236Y-117978800D01*
X148004785Y-117971566D01*
X147910532Y-117942975D01*
X147855852Y-117913747D01*
X147823671Y-117896546D01*
X147747536Y-117834064D01*
X147685054Y-117757929D01*
X147663443Y-117717497D01*
X147638625Y-117671068D01*
X147610034Y-117576815D01*
X147600381Y-117478800D01*
X147610034Y-117380785D01*
X147638625Y-117286532D01*
X147663443Y-117240103D01*
X147685054Y-117199671D01*
X147747536Y-117123536D01*
X147823671Y-117061054D01*
X147864103Y-117039443D01*
X147910532Y-117014625D01*
X148004785Y-116986034D01*
X148078236Y-116978800D01*
X149127364Y-116978800D01*
X149200815Y-116986034D01*
X149200815Y-116986034D01*
G37*
G36*
X132251718Y-115977411D02*
G01*
X132324167Y-115991822D01*
X132380703Y-116015240D01*
X132460657Y-116048358D01*
X132583500Y-116130439D01*
X132687961Y-116234900D01*
X132770042Y-116357743D01*
X132786239Y-116396846D01*
X132817743Y-116472903D01*
X132826578Y-116494234D01*
X132855400Y-116639130D01*
X132855400Y-116786870D01*
X132855278Y-116787481D01*
X132826578Y-116931767D01*
X132807096Y-116978800D01*
X132770042Y-117068257D01*
X132687961Y-117191100D01*
X132583500Y-117295561D01*
X132460657Y-117377642D01*
X132380703Y-117410760D01*
X132324167Y-117434178D01*
X132251718Y-117448589D01*
X132179270Y-117463000D01*
X132031530Y-117463000D01*
X131959082Y-117448589D01*
X131886633Y-117434178D01*
X131830097Y-117410760D01*
X131750143Y-117377642D01*
X131627300Y-117295561D01*
X131522839Y-117191100D01*
X131440758Y-117068257D01*
X131403704Y-116978800D01*
X131384222Y-116931767D01*
X131355522Y-116787481D01*
X131355400Y-116786870D01*
X131355400Y-116639130D01*
X131384222Y-116494234D01*
X131393058Y-116472903D01*
X131424561Y-116396846D01*
X131440758Y-116357743D01*
X131522839Y-116234900D01*
X131627300Y-116130439D01*
X131750143Y-116048358D01*
X131830097Y-116015240D01*
X131886633Y-115991822D01*
X131959082Y-115977411D01*
X132031530Y-115963000D01*
X132179270Y-115963000D01*
X132251718Y-115977411D01*
X132251718Y-115977411D01*
G37*
G36*
X176200815Y-116336034D02*
G01*
X176295068Y-116364625D01*
X176341497Y-116389443D01*
X176381929Y-116411054D01*
X176458064Y-116473536D01*
X176520546Y-116549671D01*
X176521701Y-116551832D01*
X176566975Y-116636532D01*
X176595566Y-116730785D01*
X176605219Y-116828800D01*
X176595566Y-116926815D01*
X176566975Y-117021068D01*
X176545601Y-117061054D01*
X176520546Y-117107929D01*
X176458064Y-117184064D01*
X176381929Y-117246546D01*
X176353017Y-117262000D01*
X176295068Y-117292975D01*
X176200815Y-117321566D01*
X176127364Y-117328800D01*
X175078236Y-117328800D01*
X175004785Y-117321566D01*
X174910532Y-117292975D01*
X174852583Y-117262000D01*
X174823671Y-117246546D01*
X174747536Y-117184064D01*
X174685054Y-117107929D01*
X174659999Y-117061054D01*
X174638625Y-117021068D01*
X174610034Y-116926815D01*
X174600381Y-116828800D01*
X174610034Y-116730785D01*
X174638625Y-116636532D01*
X174683899Y-116551832D01*
X174685054Y-116549671D01*
X174747536Y-116473536D01*
X174823671Y-116411054D01*
X174864103Y-116389443D01*
X174910532Y-116364625D01*
X175004785Y-116336034D01*
X175078236Y-116328800D01*
X176127364Y-116328800D01*
X176200815Y-116336034D01*
X176200815Y-116336034D01*
G37*
G36*
X185491392Y-115444476D02*
G01*
X185525283Y-115454757D01*
X185556511Y-115471448D01*
X185583885Y-115493915D01*
X185606352Y-115521289D01*
X185623043Y-115552517D01*
X185633324Y-115586408D01*
X185637400Y-115627791D01*
X185637400Y-116228009D01*
X185633324Y-116269392D01*
X185623043Y-116303283D01*
X185606352Y-116334511D01*
X185583885Y-116361885D01*
X185556511Y-116384352D01*
X185525283Y-116401043D01*
X185491392Y-116411324D01*
X185450009Y-116415400D01*
X184424791Y-116415400D01*
X184383408Y-116411324D01*
X184349517Y-116401043D01*
X184318289Y-116384352D01*
X184290915Y-116361885D01*
X184268448Y-116334511D01*
X184251757Y-116303283D01*
X184241476Y-116269392D01*
X184237400Y-116228009D01*
X184237400Y-115627791D01*
X184241476Y-115586408D01*
X184251757Y-115552517D01*
X184268448Y-115521289D01*
X184290915Y-115493915D01*
X184318289Y-115471448D01*
X184349517Y-115454757D01*
X184383408Y-115444476D01*
X184424791Y-115440400D01*
X185450009Y-115440400D01*
X185491392Y-115444476D01*
X185491392Y-115444476D01*
G37*
G36*
X182487830Y-113884299D02*
G01*
X182648055Y-113932903D01*
X182795720Y-114011831D01*
X182925149Y-114118051D01*
X183031369Y-114247480D01*
X183110297Y-114395145D01*
X183158901Y-114555370D01*
X183175312Y-114722000D01*
X183158901Y-114888630D01*
X183110297Y-115048855D01*
X183031369Y-115196520D01*
X182925149Y-115325949D01*
X182795720Y-115432169D01*
X182648055Y-115511097D01*
X182487830Y-115559701D01*
X182362952Y-115572000D01*
X182279448Y-115572000D01*
X182154570Y-115559701D01*
X181994345Y-115511097D01*
X181846680Y-115432169D01*
X181717251Y-115325949D01*
X181611031Y-115196520D01*
X181532103Y-115048855D01*
X181483499Y-114888630D01*
X181467088Y-114722000D01*
X181483499Y-114555370D01*
X181532103Y-114395145D01*
X181611031Y-114247480D01*
X181717251Y-114118051D01*
X181846680Y-114011831D01*
X181994345Y-113932903D01*
X182154570Y-113884299D01*
X182279448Y-113872000D01*
X182362952Y-113872000D01*
X182487830Y-113884299D01*
X182487830Y-113884299D01*
G37*
G36*
X138453612Y-111464471D02*
G01*
X138562696Y-111486169D01*
X138620704Y-111510197D01*
X138835654Y-111599232D01*
X139081314Y-111763377D01*
X139290223Y-111972286D01*
X139454368Y-112217946D01*
X139508499Y-112348630D01*
X139567431Y-112490904D01*
X139574533Y-112526609D01*
X139625070Y-112780674D01*
X139625070Y-113076126D01*
X139567431Y-113365895D01*
X139454368Y-113638854D01*
X139290223Y-113884514D01*
X139081314Y-114093423D01*
X138835654Y-114257568D01*
X138675759Y-114323798D01*
X138562696Y-114370631D01*
X138466105Y-114389844D01*
X138272926Y-114428270D01*
X137977474Y-114428270D01*
X137784295Y-114389844D01*
X137687704Y-114370631D01*
X137574641Y-114323798D01*
X137414746Y-114257568D01*
X137169086Y-114093423D01*
X136960177Y-113884514D01*
X136796032Y-113638854D01*
X136682969Y-113365895D01*
X136625330Y-113076126D01*
X136625330Y-112780674D01*
X136675867Y-112526609D01*
X136682969Y-112490904D01*
X136741901Y-112348630D01*
X136796032Y-112217946D01*
X136960177Y-111972286D01*
X137169086Y-111763377D01*
X137414746Y-111599232D01*
X137629696Y-111510197D01*
X137687704Y-111486169D01*
X137796788Y-111464471D01*
X137977474Y-111428530D01*
X138272926Y-111428530D01*
X138453612Y-111464471D01*
X138453612Y-111464471D01*
G37*
G36*
X180081192Y-113179276D02*
G01*
X180115083Y-113189557D01*
X180146311Y-113206248D01*
X180173685Y-113228715D01*
X180196152Y-113256089D01*
X180212843Y-113287317D01*
X180223124Y-113321208D01*
X180227200Y-113362591D01*
X180227200Y-113962809D01*
X180223124Y-114004192D01*
X180212843Y-114038083D01*
X180196152Y-114069311D01*
X180173685Y-114096685D01*
X180146311Y-114119152D01*
X180115083Y-114135843D01*
X180081192Y-114146124D01*
X180039809Y-114150200D01*
X179014591Y-114150200D01*
X178973208Y-114146124D01*
X178939317Y-114135843D01*
X178908089Y-114119152D01*
X178880715Y-114096685D01*
X178858248Y-114069311D01*
X178841557Y-114038083D01*
X178831276Y-114004192D01*
X178827200Y-113962809D01*
X178827200Y-113362591D01*
X178831276Y-113321208D01*
X178841557Y-113287317D01*
X178858248Y-113256089D01*
X178880715Y-113228715D01*
X178908089Y-113206248D01*
X178939317Y-113189557D01*
X178973208Y-113179276D01*
X179014591Y-113175200D01*
X180039809Y-113175200D01*
X180081192Y-113179276D01*
X180081192Y-113179276D01*
G37*
G36*
X182487830Y-111344299D02*
G01*
X182648055Y-111392903D01*
X182795720Y-111471831D01*
X182925149Y-111578051D01*
X183031369Y-111707480D01*
X183110297Y-111855145D01*
X183158901Y-112015370D01*
X183175312Y-112182000D01*
X183158901Y-112348630D01*
X183110297Y-112508855D01*
X183031369Y-112656520D01*
X182925149Y-112785949D01*
X182795720Y-112892169D01*
X182648055Y-112971097D01*
X182487830Y-113019701D01*
X182362952Y-113032000D01*
X182279448Y-113032000D01*
X182154570Y-113019701D01*
X181994345Y-112971097D01*
X181846680Y-112892169D01*
X181717251Y-112785949D01*
X181611031Y-112656520D01*
X181532103Y-112508855D01*
X181483499Y-112348630D01*
X181467088Y-112182000D01*
X181483499Y-112015370D01*
X181532103Y-111855145D01*
X181611031Y-111707480D01*
X181717251Y-111578051D01*
X181846680Y-111471831D01*
X181994345Y-111392903D01*
X182154570Y-111344299D01*
X182279448Y-111332000D01*
X182362952Y-111332000D01*
X182487830Y-111344299D01*
X182487830Y-111344299D01*
G37*
G36*
X147176592Y-111318076D02*
G01*
X147210483Y-111328357D01*
X147241711Y-111345048D01*
X147269085Y-111367515D01*
X147291552Y-111394889D01*
X147308243Y-111426117D01*
X147318524Y-111460008D01*
X147322600Y-111501391D01*
X147322600Y-112526609D01*
X147318524Y-112567992D01*
X147308243Y-112601883D01*
X147291552Y-112633111D01*
X147269085Y-112660485D01*
X147241711Y-112682952D01*
X147210483Y-112699643D01*
X147176592Y-112709924D01*
X147135209Y-112714000D01*
X146534991Y-112714000D01*
X146493608Y-112709924D01*
X146459717Y-112699643D01*
X146428489Y-112682952D01*
X146401115Y-112660485D01*
X146378648Y-112633111D01*
X146361957Y-112601883D01*
X146351676Y-112567992D01*
X146347600Y-112526609D01*
X146347600Y-111501391D01*
X146351676Y-111460008D01*
X146361957Y-111426117D01*
X146378648Y-111394889D01*
X146401115Y-111367515D01*
X146428489Y-111345048D01*
X146459717Y-111328357D01*
X146493608Y-111318076D01*
X146534991Y-111314000D01*
X147135209Y-111314000D01*
X147176592Y-111318076D01*
X147176592Y-111318076D01*
G37*
G36*
X145301592Y-111318076D02*
G01*
X145335483Y-111328357D01*
X145366711Y-111345048D01*
X145394085Y-111367515D01*
X145416552Y-111394889D01*
X145433243Y-111426117D01*
X145443524Y-111460008D01*
X145447600Y-111501391D01*
X145447600Y-112526609D01*
X145443524Y-112567992D01*
X145433243Y-112601883D01*
X145416552Y-112633111D01*
X145394085Y-112660485D01*
X145366711Y-112682952D01*
X145335483Y-112699643D01*
X145301592Y-112709924D01*
X145260209Y-112714000D01*
X144659991Y-112714000D01*
X144618608Y-112709924D01*
X144584717Y-112699643D01*
X144553489Y-112682952D01*
X144526115Y-112660485D01*
X144503648Y-112633111D01*
X144486957Y-112601883D01*
X144476676Y-112567992D01*
X144472600Y-112526609D01*
X144472600Y-111501391D01*
X144476676Y-111460008D01*
X144486957Y-111426117D01*
X144503648Y-111394889D01*
X144526115Y-111367515D01*
X144553489Y-111345048D01*
X144584717Y-111328357D01*
X144618608Y-111318076D01*
X144659991Y-111314000D01*
X145260209Y-111314000D01*
X145301592Y-111318076D01*
X145301592Y-111318076D01*
G37*
G36*
X180081192Y-111304276D02*
G01*
X180115083Y-111314557D01*
X180146311Y-111331248D01*
X180173685Y-111353715D01*
X180196152Y-111381089D01*
X180212843Y-111412317D01*
X180223124Y-111446208D01*
X180227200Y-111487591D01*
X180227200Y-112087809D01*
X180223124Y-112129192D01*
X180212843Y-112163083D01*
X180196152Y-112194311D01*
X180173685Y-112221685D01*
X180146311Y-112244152D01*
X180115083Y-112260843D01*
X180081192Y-112271124D01*
X180039809Y-112275200D01*
X179014591Y-112275200D01*
X178973208Y-112271124D01*
X178939317Y-112260843D01*
X178908089Y-112244152D01*
X178880715Y-112221685D01*
X178858248Y-112194311D01*
X178841557Y-112163083D01*
X178831276Y-112129192D01*
X178827200Y-112087809D01*
X178827200Y-111487591D01*
X178831276Y-111446208D01*
X178841557Y-111412317D01*
X178858248Y-111381089D01*
X178880715Y-111353715D01*
X178908089Y-111331248D01*
X178939317Y-111314557D01*
X178973208Y-111304276D01*
X179014591Y-111300200D01*
X180039809Y-111300200D01*
X180081192Y-111304276D01*
X180081192Y-111304276D01*
G37*
G36*
X141011133Y-109158673D02*
G01*
X141147727Y-109215252D01*
X141270664Y-109297396D01*
X141375204Y-109401936D01*
X141457348Y-109524873D01*
X141513927Y-109661467D01*
X141542770Y-109806474D01*
X141542770Y-109954326D01*
X141513927Y-110099333D01*
X141457348Y-110235927D01*
X141375204Y-110358864D01*
X141270664Y-110463404D01*
X141147727Y-110545548D01*
X141011133Y-110602127D01*
X140866126Y-110630970D01*
X140718274Y-110630970D01*
X140573267Y-110602127D01*
X140436673Y-110545548D01*
X140313736Y-110463404D01*
X140209196Y-110358864D01*
X140127052Y-110235927D01*
X140070473Y-110099333D01*
X140041630Y-109954326D01*
X140041630Y-109806474D01*
X140070473Y-109661467D01*
X140127052Y-109524873D01*
X140209196Y-109401936D01*
X140313736Y-109297396D01*
X140436673Y-109215252D01*
X140573267Y-109158673D01*
X140718274Y-109129830D01*
X140866126Y-109129830D01*
X141011133Y-109158673D01*
X141011133Y-109158673D01*
G37*
G36*
X182487830Y-108804299D02*
G01*
X182648055Y-108852903D01*
X182795720Y-108931831D01*
X182925149Y-109038051D01*
X183031369Y-109167480D01*
X183110297Y-109315145D01*
X183158901Y-109475370D01*
X183175312Y-109642000D01*
X183158901Y-109808630D01*
X183110297Y-109968855D01*
X183031369Y-110116520D01*
X182925149Y-110245949D01*
X182795720Y-110352169D01*
X182648055Y-110431097D01*
X182487830Y-110479701D01*
X182362952Y-110492000D01*
X182279448Y-110492000D01*
X182154570Y-110479701D01*
X181994345Y-110431097D01*
X181846680Y-110352169D01*
X181717251Y-110245949D01*
X181611031Y-110116520D01*
X181532103Y-109968855D01*
X181483499Y-109808630D01*
X181467088Y-109642000D01*
X181483499Y-109475370D01*
X181532103Y-109315145D01*
X181611031Y-109167480D01*
X181717251Y-109038051D01*
X181846680Y-108931831D01*
X181994345Y-108852903D01*
X182154570Y-108804299D01*
X182279448Y-108792000D01*
X182362952Y-108792000D01*
X182487830Y-108804299D01*
X182487830Y-108804299D01*
G37*
G36*
X141011133Y-106618673D02*
G01*
X141147727Y-106675252D01*
X141270664Y-106757396D01*
X141375204Y-106861936D01*
X141457348Y-106984873D01*
X141513927Y-107121467D01*
X141542770Y-107266474D01*
X141542770Y-107414326D01*
X141513927Y-107559333D01*
X141457348Y-107695927D01*
X141375204Y-107818864D01*
X141270664Y-107923404D01*
X141147727Y-108005548D01*
X141011133Y-108062127D01*
X140866126Y-108090970D01*
X140718274Y-108090970D01*
X140573267Y-108062127D01*
X140436673Y-108005548D01*
X140313736Y-107923404D01*
X140209196Y-107818864D01*
X140127052Y-107695927D01*
X140070473Y-107559333D01*
X140041630Y-107414326D01*
X140041630Y-107266474D01*
X140070473Y-107121467D01*
X140127052Y-106984873D01*
X140209196Y-106861936D01*
X140313736Y-106757396D01*
X140436673Y-106675252D01*
X140573267Y-106618673D01*
X140718274Y-106589830D01*
X140866126Y-106589830D01*
X141011133Y-106618673D01*
X141011133Y-106618673D01*
G37*
G36*
X180206918Y-106350811D02*
G01*
X180279367Y-106365222D01*
X180330495Y-106386400D01*
X180415857Y-106421758D01*
X180538700Y-106503839D01*
X180643161Y-106608300D01*
X180725242Y-106731143D01*
X180781778Y-106867634D01*
X180805099Y-106984873D01*
X180810600Y-107012531D01*
X180810600Y-107160269D01*
X180789475Y-107266474D01*
X180781778Y-107305166D01*
X180725242Y-107441657D01*
X180643161Y-107564500D01*
X180538700Y-107668961D01*
X180415857Y-107751042D01*
X180341803Y-107781716D01*
X180279367Y-107807578D01*
X180222628Y-107818864D01*
X180134470Y-107836400D01*
X179986730Y-107836400D01*
X179898572Y-107818864D01*
X179841833Y-107807578D01*
X179779397Y-107781716D01*
X179705343Y-107751042D01*
X179582500Y-107668961D01*
X179478039Y-107564500D01*
X179395958Y-107441657D01*
X179339422Y-107305166D01*
X179331726Y-107266474D01*
X179310600Y-107160269D01*
X179310600Y-107012531D01*
X179316102Y-106984873D01*
X179339422Y-106867634D01*
X179395958Y-106731143D01*
X179478039Y-106608300D01*
X179582500Y-106503839D01*
X179705343Y-106421758D01*
X179790705Y-106386400D01*
X179841833Y-106365222D01*
X179914282Y-106350811D01*
X179986730Y-106336400D01*
X180134470Y-106336400D01*
X180206918Y-106350811D01*
X180206918Y-106350811D01*
G37*
G36*
X146927192Y-106390476D02*
G01*
X146961083Y-106400757D01*
X146992311Y-106417448D01*
X147019685Y-106439915D01*
X147042152Y-106467289D01*
X147058843Y-106498517D01*
X147069124Y-106532408D01*
X147073200Y-106573791D01*
X147073200Y-107599009D01*
X147069124Y-107640392D01*
X147058843Y-107674283D01*
X147042152Y-107705511D01*
X147019685Y-107732885D01*
X146992311Y-107755352D01*
X146961083Y-107772043D01*
X146927192Y-107782324D01*
X146885809Y-107786400D01*
X146285591Y-107786400D01*
X146244208Y-107782324D01*
X146210317Y-107772043D01*
X146179089Y-107755352D01*
X146151715Y-107732885D01*
X146129248Y-107705511D01*
X146112557Y-107674283D01*
X146102276Y-107640392D01*
X146098200Y-107599009D01*
X146098200Y-106573791D01*
X146102276Y-106532408D01*
X146112557Y-106498517D01*
X146129248Y-106467289D01*
X146151715Y-106439915D01*
X146179089Y-106417448D01*
X146210317Y-106400757D01*
X146244208Y-106390476D01*
X146285591Y-106386400D01*
X146885809Y-106386400D01*
X146927192Y-106390476D01*
X146927192Y-106390476D01*
G37*
G36*
X148802192Y-106390476D02*
G01*
X148836083Y-106400757D01*
X148867311Y-106417448D01*
X148894685Y-106439915D01*
X148917152Y-106467289D01*
X148933843Y-106498517D01*
X148944124Y-106532408D01*
X148948200Y-106573791D01*
X148948200Y-107599009D01*
X148944124Y-107640392D01*
X148933843Y-107674283D01*
X148917152Y-107705511D01*
X148894685Y-107732885D01*
X148867311Y-107755352D01*
X148836083Y-107772043D01*
X148802192Y-107782324D01*
X148760809Y-107786400D01*
X148160591Y-107786400D01*
X148119208Y-107782324D01*
X148085317Y-107772043D01*
X148054089Y-107755352D01*
X148026715Y-107732885D01*
X148004248Y-107705511D01*
X147987557Y-107674283D01*
X147977276Y-107640392D01*
X147973200Y-107599009D01*
X147973200Y-106573791D01*
X147977276Y-106532408D01*
X147987557Y-106498517D01*
X148004248Y-106467289D01*
X148026715Y-106439915D01*
X148054089Y-106417448D01*
X148085317Y-106400757D01*
X148119208Y-106390476D01*
X148160591Y-106386400D01*
X148760809Y-106386400D01*
X148802192Y-106390476D01*
X148802192Y-106390476D01*
G37*
G36*
X144775192Y-106168876D02*
G01*
X144809083Y-106179157D01*
X144840311Y-106195848D01*
X144867685Y-106218315D01*
X144890152Y-106245689D01*
X144906843Y-106276917D01*
X144917124Y-106310808D01*
X144921200Y-106352191D01*
X144921200Y-106952409D01*
X144917124Y-106993792D01*
X144906843Y-107027683D01*
X144890152Y-107058911D01*
X144867685Y-107086285D01*
X144840311Y-107108752D01*
X144809083Y-107125443D01*
X144775192Y-107135724D01*
X144733809Y-107139800D01*
X143708591Y-107139800D01*
X143667208Y-107135724D01*
X143633317Y-107125443D01*
X143602089Y-107108752D01*
X143574715Y-107086285D01*
X143552248Y-107058911D01*
X143535557Y-107027683D01*
X143525276Y-106993792D01*
X143521200Y-106952409D01*
X143521200Y-106352191D01*
X143525276Y-106310808D01*
X143535557Y-106276917D01*
X143552248Y-106245689D01*
X143574715Y-106218315D01*
X143602089Y-106195848D01*
X143633317Y-106179157D01*
X143667208Y-106168876D01*
X143708591Y-106164800D01*
X144733809Y-106164800D01*
X144775192Y-106168876D01*
X144775192Y-106168876D01*
G37*
G36*
X141011133Y-104586673D02*
G01*
X141147727Y-104643252D01*
X141270664Y-104725396D01*
X141375204Y-104829936D01*
X141457348Y-104952873D01*
X141513927Y-105089467D01*
X141542770Y-105234474D01*
X141542770Y-105382326D01*
X141513927Y-105527333D01*
X141457348Y-105663927D01*
X141375204Y-105786864D01*
X141270664Y-105891404D01*
X141147727Y-105973548D01*
X141011133Y-106030127D01*
X140866126Y-106058970D01*
X140718274Y-106058970D01*
X140573267Y-106030127D01*
X140436673Y-105973548D01*
X140313736Y-105891404D01*
X140209196Y-105786864D01*
X140127052Y-105663927D01*
X140070473Y-105527333D01*
X140041630Y-105382326D01*
X140041630Y-105234474D01*
X140070473Y-105089467D01*
X140127052Y-104952873D01*
X140209196Y-104829936D01*
X140313736Y-104725396D01*
X140436673Y-104643252D01*
X140573267Y-104586673D01*
X140718274Y-104557830D01*
X140866126Y-104557830D01*
X141011133Y-104586673D01*
X141011133Y-104586673D01*
G37*
G36*
X144775192Y-104293876D02*
G01*
X144809083Y-104304157D01*
X144840311Y-104320848D01*
X144867685Y-104343315D01*
X144890152Y-104370689D01*
X144906843Y-104401917D01*
X144917124Y-104435808D01*
X144921200Y-104477191D01*
X144921200Y-105077409D01*
X144917124Y-105118792D01*
X144906843Y-105152683D01*
X144890152Y-105183911D01*
X144867685Y-105211285D01*
X144840311Y-105233752D01*
X144809083Y-105250443D01*
X144775192Y-105260724D01*
X144733809Y-105264800D01*
X143708591Y-105264800D01*
X143667208Y-105260724D01*
X143633317Y-105250443D01*
X143602089Y-105233752D01*
X143574715Y-105211285D01*
X143552248Y-105183911D01*
X143535557Y-105152683D01*
X143525276Y-105118792D01*
X143521200Y-105077409D01*
X143521200Y-104477191D01*
X143525276Y-104435808D01*
X143535557Y-104401917D01*
X143552248Y-104370689D01*
X143574715Y-104343315D01*
X143602089Y-104320848D01*
X143633317Y-104304157D01*
X143667208Y-104293876D01*
X143708591Y-104289800D01*
X144733809Y-104289800D01*
X144775192Y-104293876D01*
X144775192Y-104293876D01*
G37*
G36*
X148802192Y-103799676D02*
G01*
X148836083Y-103809957D01*
X148867311Y-103826648D01*
X148894685Y-103849115D01*
X148917152Y-103876489D01*
X148933843Y-103907717D01*
X148944124Y-103941608D01*
X148948200Y-103982991D01*
X148948200Y-105008209D01*
X148944124Y-105049592D01*
X148933843Y-105083483D01*
X148917152Y-105114711D01*
X148894685Y-105142085D01*
X148867311Y-105164552D01*
X148836083Y-105181243D01*
X148802192Y-105191524D01*
X148760809Y-105195600D01*
X148160591Y-105195600D01*
X148119208Y-105191524D01*
X148085317Y-105181243D01*
X148054089Y-105164552D01*
X148026715Y-105142085D01*
X148004248Y-105114711D01*
X147987557Y-105083483D01*
X147977276Y-105049592D01*
X147973200Y-105008209D01*
X147973200Y-103982991D01*
X147977276Y-103941608D01*
X147987557Y-103907717D01*
X148004248Y-103876489D01*
X148026715Y-103849115D01*
X148054089Y-103826648D01*
X148085317Y-103809957D01*
X148119208Y-103799676D01*
X148160591Y-103795600D01*
X148760809Y-103795600D01*
X148802192Y-103799676D01*
X148802192Y-103799676D01*
G37*
G36*
X146927192Y-103799676D02*
G01*
X146961083Y-103809957D01*
X146992311Y-103826648D01*
X147019685Y-103849115D01*
X147042152Y-103876489D01*
X147058843Y-103907717D01*
X147069124Y-103941608D01*
X147073200Y-103982991D01*
X147073200Y-105008209D01*
X147069124Y-105049592D01*
X147058843Y-105083483D01*
X147042152Y-105114711D01*
X147019685Y-105142085D01*
X146992311Y-105164552D01*
X146961083Y-105181243D01*
X146927192Y-105191524D01*
X146885809Y-105195600D01*
X146285591Y-105195600D01*
X146244208Y-105191524D01*
X146210317Y-105181243D01*
X146179089Y-105164552D01*
X146151715Y-105142085D01*
X146129248Y-105114711D01*
X146112557Y-105083483D01*
X146102276Y-105049592D01*
X146098200Y-105008209D01*
X146098200Y-103982991D01*
X146102276Y-103941608D01*
X146112557Y-103907717D01*
X146129248Y-103876489D01*
X146151715Y-103849115D01*
X146179089Y-103826648D01*
X146210317Y-103809957D01*
X146244208Y-103799676D01*
X146285591Y-103795600D01*
X146885809Y-103795600D01*
X146927192Y-103799676D01*
X146927192Y-103799676D01*
G37*
G36*
X181013992Y-103444076D02*
G01*
X181047883Y-103454357D01*
X181079111Y-103471048D01*
X181106485Y-103493515D01*
X181128952Y-103520889D01*
X181145643Y-103552117D01*
X181155924Y-103586008D01*
X181160000Y-103627391D01*
X181160000Y-104652609D01*
X181155924Y-104693992D01*
X181145643Y-104727883D01*
X181128952Y-104759111D01*
X181106485Y-104786485D01*
X181079111Y-104808952D01*
X181047883Y-104825643D01*
X181013992Y-104835924D01*
X180972609Y-104840000D01*
X180372391Y-104840000D01*
X180331008Y-104835924D01*
X180297117Y-104825643D01*
X180265889Y-104808952D01*
X180238515Y-104786485D01*
X180216048Y-104759111D01*
X180199357Y-104727883D01*
X180189076Y-104693992D01*
X180185000Y-104652609D01*
X180185000Y-103627391D01*
X180189076Y-103586008D01*
X180199357Y-103552117D01*
X180216048Y-103520889D01*
X180238515Y-103493515D01*
X180265889Y-103471048D01*
X180297117Y-103454357D01*
X180331008Y-103444076D01*
X180372391Y-103440000D01*
X180972609Y-103440000D01*
X181013992Y-103444076D01*
X181013992Y-103444076D01*
G37*
G36*
X182888992Y-103444076D02*
G01*
X182922883Y-103454357D01*
X182954111Y-103471048D01*
X182981485Y-103493515D01*
X183003952Y-103520889D01*
X183020643Y-103552117D01*
X183030924Y-103586008D01*
X183035000Y-103627391D01*
X183035000Y-104652609D01*
X183030924Y-104693992D01*
X183020643Y-104727883D01*
X183003952Y-104759111D01*
X182981485Y-104786485D01*
X182954111Y-104808952D01*
X182922883Y-104825643D01*
X182888992Y-104835924D01*
X182847609Y-104840000D01*
X182247391Y-104840000D01*
X182206008Y-104835924D01*
X182172117Y-104825643D01*
X182140889Y-104808952D01*
X182113515Y-104786485D01*
X182091048Y-104759111D01*
X182074357Y-104727883D01*
X182064076Y-104693992D01*
X182060000Y-104652609D01*
X182060000Y-103627391D01*
X182064076Y-103586008D01*
X182074357Y-103552117D01*
X182091048Y-103520889D01*
X182113515Y-103493515D01*
X182140889Y-103471048D01*
X182172117Y-103454357D01*
X182206008Y-103444076D01*
X182247391Y-103440000D01*
X182847609Y-103440000D01*
X182888992Y-103444076D01*
X182888992Y-103444076D01*
G37*
G36*
X141011133Y-102046673D02*
G01*
X141147727Y-102103252D01*
X141270664Y-102185396D01*
X141375204Y-102289936D01*
X141457348Y-102412873D01*
X141513927Y-102549467D01*
X141542770Y-102694474D01*
X141542770Y-102842326D01*
X141513927Y-102987333D01*
X141457348Y-103123927D01*
X141375204Y-103246864D01*
X141270664Y-103351404D01*
X141147727Y-103433548D01*
X141011133Y-103490127D01*
X140866126Y-103518970D01*
X140718274Y-103518970D01*
X140573267Y-103490127D01*
X140436673Y-103433548D01*
X140313736Y-103351404D01*
X140209196Y-103246864D01*
X140127052Y-103123927D01*
X140070473Y-102987333D01*
X140041630Y-102842326D01*
X140041630Y-102694474D01*
X140070473Y-102549467D01*
X140127052Y-102412873D01*
X140209196Y-102289936D01*
X140313736Y-102185396D01*
X140436673Y-102103252D01*
X140573267Y-102046673D01*
X140718274Y-102017830D01*
X140866126Y-102017830D01*
X141011133Y-102046673D01*
X141011133Y-102046673D01*
G37*
G36*
X181013992Y-101158076D02*
G01*
X181047883Y-101168357D01*
X181079111Y-101185048D01*
X181106485Y-101207515D01*
X181128952Y-101234889D01*
X181145643Y-101266117D01*
X181155924Y-101300008D01*
X181160000Y-101341391D01*
X181160000Y-102366609D01*
X181155924Y-102407992D01*
X181145643Y-102441883D01*
X181128952Y-102473111D01*
X181106485Y-102500485D01*
X181079111Y-102522952D01*
X181047883Y-102539643D01*
X181013992Y-102549924D01*
X180972609Y-102554000D01*
X180372391Y-102554000D01*
X180331008Y-102549924D01*
X180297117Y-102539643D01*
X180265889Y-102522952D01*
X180238515Y-102500485D01*
X180216048Y-102473111D01*
X180199357Y-102441883D01*
X180189076Y-102407992D01*
X180185000Y-102366609D01*
X180185000Y-101341391D01*
X180189076Y-101300008D01*
X180199357Y-101266117D01*
X180216048Y-101234889D01*
X180238515Y-101207515D01*
X180265889Y-101185048D01*
X180297117Y-101168357D01*
X180331008Y-101158076D01*
X180372391Y-101154000D01*
X180972609Y-101154000D01*
X181013992Y-101158076D01*
X181013992Y-101158076D01*
G37*
G36*
X182888992Y-101158076D02*
G01*
X182922883Y-101168357D01*
X182954111Y-101185048D01*
X182981485Y-101207515D01*
X183003952Y-101234889D01*
X183020643Y-101266117D01*
X183030924Y-101300008D01*
X183035000Y-101341391D01*
X183035000Y-102366609D01*
X183030924Y-102407992D01*
X183020643Y-102441883D01*
X183003952Y-102473111D01*
X182981485Y-102500485D01*
X182954111Y-102522952D01*
X182922883Y-102539643D01*
X182888992Y-102549924D01*
X182847609Y-102554000D01*
X182247391Y-102554000D01*
X182206008Y-102549924D01*
X182172117Y-102539643D01*
X182140889Y-102522952D01*
X182113515Y-102500485D01*
X182091048Y-102473111D01*
X182074357Y-102441883D01*
X182064076Y-102407992D01*
X182060000Y-102366609D01*
X182060000Y-101341391D01*
X182064076Y-101300008D01*
X182074357Y-101266117D01*
X182091048Y-101234889D01*
X182113515Y-101207515D01*
X182140889Y-101185048D01*
X182172117Y-101168357D01*
X182206008Y-101158076D01*
X182247391Y-101154000D01*
X182847609Y-101154000D01*
X182888992Y-101158076D01*
X182888992Y-101158076D01*
G37*
G36*
X138466105Y-97750956D02*
G01*
X138562696Y-97770169D01*
X138675759Y-97817002D01*
X138835654Y-97883232D01*
X139081314Y-98047377D01*
X139290223Y-98256286D01*
X139454368Y-98501946D01*
X139454452Y-98502150D01*
X139567431Y-98774904D01*
X139625070Y-99064676D01*
X139625070Y-99360124D01*
X139567431Y-99649896D01*
X139520598Y-99762959D01*
X139454368Y-99922854D01*
X139290223Y-100168514D01*
X139081314Y-100377423D01*
X138835654Y-100541568D01*
X138675759Y-100607798D01*
X138562696Y-100654631D01*
X138466105Y-100673844D01*
X138272926Y-100712270D01*
X137977474Y-100712270D01*
X137784295Y-100673844D01*
X137687704Y-100654631D01*
X137574641Y-100607798D01*
X137414746Y-100541568D01*
X137169086Y-100377423D01*
X136960177Y-100168514D01*
X136796032Y-99922854D01*
X136729802Y-99762959D01*
X136682969Y-99649896D01*
X136625330Y-99360124D01*
X136625330Y-99064676D01*
X136682969Y-98774904D01*
X136795948Y-98502150D01*
X136796032Y-98501946D01*
X136960177Y-98256286D01*
X137169086Y-98047377D01*
X137414746Y-97883232D01*
X137574641Y-97817002D01*
X137687704Y-97770169D01*
X137784295Y-97750956D01*
X137977474Y-97712530D01*
X138272926Y-97712530D01*
X138466105Y-97750956D01*
X138466105Y-97750956D01*
G37*
G36*
X184565392Y-98262476D02*
G01*
X184599283Y-98272757D01*
X184630511Y-98289448D01*
X184657885Y-98311915D01*
X184680352Y-98339289D01*
X184697043Y-98370517D01*
X184707324Y-98404408D01*
X184711400Y-98445791D01*
X184711400Y-99471009D01*
X184707324Y-99512392D01*
X184697043Y-99546283D01*
X184680352Y-99577511D01*
X184657885Y-99604885D01*
X184630511Y-99627352D01*
X184599283Y-99644043D01*
X184565392Y-99654324D01*
X184524009Y-99658400D01*
X183923791Y-99658400D01*
X183882408Y-99654324D01*
X183848517Y-99644043D01*
X183817289Y-99627352D01*
X183789915Y-99604885D01*
X183767448Y-99577511D01*
X183750757Y-99546283D01*
X183740476Y-99512392D01*
X183736400Y-99471009D01*
X183736400Y-98445791D01*
X183740476Y-98404408D01*
X183750757Y-98370517D01*
X183767448Y-98339289D01*
X183789915Y-98311915D01*
X183817289Y-98289448D01*
X183848517Y-98272757D01*
X183882408Y-98262476D01*
X183923791Y-98258400D01*
X184524009Y-98258400D01*
X184565392Y-98262476D01*
X184565392Y-98262476D01*
G37*
G36*
X182690392Y-98262476D02*
G01*
X182724283Y-98272757D01*
X182755511Y-98289448D01*
X182782885Y-98311915D01*
X182805352Y-98339289D01*
X182822043Y-98370517D01*
X182832324Y-98404408D01*
X182836400Y-98445791D01*
X182836400Y-99471009D01*
X182832324Y-99512392D01*
X182822043Y-99546283D01*
X182805352Y-99577511D01*
X182782885Y-99604885D01*
X182755511Y-99627352D01*
X182724283Y-99644043D01*
X182690392Y-99654324D01*
X182649009Y-99658400D01*
X182048791Y-99658400D01*
X182007408Y-99654324D01*
X181973517Y-99644043D01*
X181942289Y-99627352D01*
X181914915Y-99604885D01*
X181892448Y-99577511D01*
X181875757Y-99546283D01*
X181865476Y-99512392D01*
X181861400Y-99471009D01*
X181861400Y-98445791D01*
X181865476Y-98404408D01*
X181875757Y-98370517D01*
X181892448Y-98339289D01*
X181914915Y-98311915D01*
X181942289Y-98289448D01*
X181973517Y-98272757D01*
X182007408Y-98262476D01*
X182048791Y-98258400D01*
X182649009Y-98258400D01*
X182690392Y-98262476D01*
X182690392Y-98262476D01*
G37*
G36*
X180492800Y-99583400D02*
G01*
X179272800Y-99583400D01*
X179272800Y-98333400D01*
X180492800Y-98333400D01*
X180492800Y-99583400D01*
X180492800Y-99583400D01*
G37*
G36*
X147836992Y-97881476D02*
G01*
X147870883Y-97891757D01*
X147902111Y-97908448D01*
X147929485Y-97930915D01*
X147951952Y-97958289D01*
X147968643Y-97989517D01*
X147978924Y-98023408D01*
X147983000Y-98064791D01*
X147983000Y-99090009D01*
X147978924Y-99131392D01*
X147968643Y-99165283D01*
X147951952Y-99196511D01*
X147929485Y-99223885D01*
X147902111Y-99246352D01*
X147870883Y-99263043D01*
X147836992Y-99273324D01*
X147795609Y-99277400D01*
X147195391Y-99277400D01*
X147154008Y-99273324D01*
X147120117Y-99263043D01*
X147088889Y-99246352D01*
X147061515Y-99223885D01*
X147039048Y-99196511D01*
X147022357Y-99165283D01*
X147012076Y-99131392D01*
X147008000Y-99090009D01*
X147008000Y-98064791D01*
X147012076Y-98023408D01*
X147022357Y-97989517D01*
X147039048Y-97958289D01*
X147061515Y-97930915D01*
X147088889Y-97908448D01*
X147120117Y-97891757D01*
X147154008Y-97881476D01*
X147195391Y-97877400D01*
X147795609Y-97877400D01*
X147836992Y-97881476D01*
X147836992Y-97881476D01*
G37*
G36*
X145961992Y-97881476D02*
G01*
X145995883Y-97891757D01*
X146027111Y-97908448D01*
X146054485Y-97930915D01*
X146076952Y-97958289D01*
X146093643Y-97989517D01*
X146103924Y-98023408D01*
X146108000Y-98064791D01*
X146108000Y-99090009D01*
X146103924Y-99131392D01*
X146093643Y-99165283D01*
X146076952Y-99196511D01*
X146054485Y-99223885D01*
X146027111Y-99246352D01*
X145995883Y-99263043D01*
X145961992Y-99273324D01*
X145920609Y-99277400D01*
X145320391Y-99277400D01*
X145279008Y-99273324D01*
X145245117Y-99263043D01*
X145213889Y-99246352D01*
X145186515Y-99223885D01*
X145164048Y-99196511D01*
X145147357Y-99165283D01*
X145137076Y-99131392D01*
X145133000Y-99090009D01*
X145133000Y-98064791D01*
X145137076Y-98023408D01*
X145147357Y-97989517D01*
X145164048Y-97958289D01*
X145186515Y-97930915D01*
X145213889Y-97908448D01*
X145245117Y-97891757D01*
X145279008Y-97881476D01*
X145320391Y-97877400D01*
X145920609Y-97877400D01*
X145961992Y-97881476D01*
X145961992Y-97881476D01*
G37*
G36*
X145987392Y-95620876D02*
G01*
X146021283Y-95631157D01*
X146052511Y-95647848D01*
X146079885Y-95670315D01*
X146102352Y-95697689D01*
X146119043Y-95728917D01*
X146129324Y-95762808D01*
X146133400Y-95804191D01*
X146133400Y-96829409D01*
X146129324Y-96870792D01*
X146119043Y-96904683D01*
X146102352Y-96935911D01*
X146079885Y-96963285D01*
X146052511Y-96985752D01*
X146021283Y-97002443D01*
X145987392Y-97012724D01*
X145946009Y-97016800D01*
X145345791Y-97016800D01*
X145304408Y-97012724D01*
X145270517Y-97002443D01*
X145239289Y-96985752D01*
X145211915Y-96963285D01*
X145189448Y-96935911D01*
X145172757Y-96904683D01*
X145162476Y-96870792D01*
X145158400Y-96829409D01*
X145158400Y-95804191D01*
X145162476Y-95762808D01*
X145172757Y-95728917D01*
X145189448Y-95697689D01*
X145211915Y-95670315D01*
X145239289Y-95647848D01*
X145270517Y-95631157D01*
X145304408Y-95620876D01*
X145345791Y-95616800D01*
X145946009Y-95616800D01*
X145987392Y-95620876D01*
X145987392Y-95620876D01*
G37*
G36*
X147862392Y-95620876D02*
G01*
X147896283Y-95631157D01*
X147927511Y-95647848D01*
X147954885Y-95670315D01*
X147977352Y-95697689D01*
X147994043Y-95728917D01*
X148004324Y-95762808D01*
X148008400Y-95804191D01*
X148008400Y-96829409D01*
X148004324Y-96870792D01*
X147994043Y-96904683D01*
X147977352Y-96935911D01*
X147954885Y-96963285D01*
X147927511Y-96985752D01*
X147896283Y-97002443D01*
X147862392Y-97012724D01*
X147821009Y-97016800D01*
X147220791Y-97016800D01*
X147179408Y-97012724D01*
X147145517Y-97002443D01*
X147114289Y-96985752D01*
X147086915Y-96963285D01*
X147064448Y-96935911D01*
X147047757Y-96904683D01*
X147037476Y-96870792D01*
X147033400Y-96829409D01*
X147033400Y-95804191D01*
X147037476Y-95762808D01*
X147047757Y-95728917D01*
X147064448Y-95697689D01*
X147086915Y-95670315D01*
X147114289Y-95647848D01*
X147145517Y-95631157D01*
X147179408Y-95620876D01*
X147220791Y-95616800D01*
X147821009Y-95616800D01*
X147862392Y-95620876D01*
X147862392Y-95620876D01*
G37*
G36*
X182690392Y-95468476D02*
G01*
X182724283Y-95478757D01*
X182755511Y-95495448D01*
X182782885Y-95517915D01*
X182805352Y-95545289D01*
X182822043Y-95576517D01*
X182832324Y-95610408D01*
X182836400Y-95651791D01*
X182836400Y-96677009D01*
X182832324Y-96718392D01*
X182822043Y-96752283D01*
X182805352Y-96783511D01*
X182782885Y-96810885D01*
X182755511Y-96833352D01*
X182724283Y-96850043D01*
X182690392Y-96860324D01*
X182649009Y-96864400D01*
X182048791Y-96864400D01*
X182007408Y-96860324D01*
X181973517Y-96850043D01*
X181942289Y-96833352D01*
X181914915Y-96810885D01*
X181892448Y-96783511D01*
X181875757Y-96752283D01*
X181865476Y-96718392D01*
X181861400Y-96677009D01*
X181861400Y-95651791D01*
X181865476Y-95610408D01*
X181875757Y-95576517D01*
X181892448Y-95545289D01*
X181914915Y-95517915D01*
X181942289Y-95495448D01*
X181973517Y-95478757D01*
X182007408Y-95468476D01*
X182048791Y-95464400D01*
X182649009Y-95464400D01*
X182690392Y-95468476D01*
X182690392Y-95468476D01*
G37*
G36*
X184565392Y-95468476D02*
G01*
X184599283Y-95478757D01*
X184630511Y-95495448D01*
X184657885Y-95517915D01*
X184680352Y-95545289D01*
X184697043Y-95576517D01*
X184707324Y-95610408D01*
X184711400Y-95651791D01*
X184711400Y-96677009D01*
X184707324Y-96718392D01*
X184697043Y-96752283D01*
X184680352Y-96783511D01*
X184657885Y-96810885D01*
X184630511Y-96833352D01*
X184599283Y-96850043D01*
X184565392Y-96860324D01*
X184524009Y-96864400D01*
X183923791Y-96864400D01*
X183882408Y-96860324D01*
X183848517Y-96850043D01*
X183817289Y-96833352D01*
X183789915Y-96810885D01*
X183767448Y-96783511D01*
X183750757Y-96752283D01*
X183740476Y-96718392D01*
X183736400Y-96677009D01*
X183736400Y-95651791D01*
X183740476Y-95610408D01*
X183750757Y-95576517D01*
X183767448Y-95545289D01*
X183789915Y-95517915D01*
X183817289Y-95495448D01*
X183848517Y-95478757D01*
X183882408Y-95468476D01*
X183923791Y-95464400D01*
X184524009Y-95464400D01*
X184565392Y-95468476D01*
X184565392Y-95468476D01*
G37*
G36*
X180492800Y-96583400D02*
G01*
X179272800Y-96583400D01*
X179272800Y-95333400D01*
X180492800Y-95333400D01*
X180492800Y-96583400D01*
X180492800Y-96583400D01*
G37*
G36*
X133903992Y-95147576D02*
G01*
X133937883Y-95157857D01*
X133969111Y-95174548D01*
X133996485Y-95197015D01*
X134018952Y-95224389D01*
X134035643Y-95255617D01*
X134045924Y-95289508D01*
X134050000Y-95330891D01*
X134050000Y-95931109D01*
X134045924Y-95972492D01*
X134035643Y-96006383D01*
X134018952Y-96037611D01*
X133996485Y-96064985D01*
X133969111Y-96087452D01*
X133937883Y-96104143D01*
X133903992Y-96114424D01*
X133862609Y-96118500D01*
X132837391Y-96118500D01*
X132796008Y-96114424D01*
X132762117Y-96104143D01*
X132730889Y-96087452D01*
X132703515Y-96064985D01*
X132681048Y-96037611D01*
X132664357Y-96006383D01*
X132654076Y-95972492D01*
X132650000Y-95931109D01*
X132650000Y-95330891D01*
X132654076Y-95289508D01*
X132664357Y-95255617D01*
X132681048Y-95224389D01*
X132703515Y-95197015D01*
X132730889Y-95174548D01*
X132762117Y-95157857D01*
X132796008Y-95147576D01*
X132837391Y-95143500D01*
X133862609Y-95143500D01*
X133903992Y-95147576D01*
X133903992Y-95147576D01*
G37*
G36*
X131795792Y-95142976D02*
G01*
X131829683Y-95153257D01*
X131860911Y-95169948D01*
X131888285Y-95192415D01*
X131910752Y-95219789D01*
X131927443Y-95251017D01*
X131937724Y-95284908D01*
X131941800Y-95326291D01*
X131941800Y-95926509D01*
X131937724Y-95967892D01*
X131927443Y-96001783D01*
X131910752Y-96033011D01*
X131888285Y-96060385D01*
X131860911Y-96082852D01*
X131829683Y-96099543D01*
X131795792Y-96109824D01*
X131754409Y-96113900D01*
X130729191Y-96113900D01*
X130687808Y-96109824D01*
X130653917Y-96099543D01*
X130622689Y-96082852D01*
X130595315Y-96060385D01*
X130572848Y-96033011D01*
X130556157Y-96001783D01*
X130545876Y-95967892D01*
X130541800Y-95926509D01*
X130541800Y-95326291D01*
X130545876Y-95284908D01*
X130556157Y-95251017D01*
X130572848Y-95219789D01*
X130595315Y-95192415D01*
X130622689Y-95169948D01*
X130653917Y-95153257D01*
X130687808Y-95142976D01*
X130729191Y-95138900D01*
X131754409Y-95138900D01*
X131795792Y-95142976D01*
X131795792Y-95142976D01*
G37*
G36*
X138021192Y-92928476D02*
G01*
X138055083Y-92938757D01*
X138086311Y-92955448D01*
X138113685Y-92977915D01*
X138136152Y-93005289D01*
X138152843Y-93036517D01*
X138163124Y-93070408D01*
X138167200Y-93111791D01*
X138167200Y-94137009D01*
X138163124Y-94178392D01*
X138152843Y-94212283D01*
X138136152Y-94243511D01*
X138113685Y-94270885D01*
X138086311Y-94293352D01*
X138055083Y-94310043D01*
X138021192Y-94320324D01*
X137979809Y-94324400D01*
X137379591Y-94324400D01*
X137338208Y-94320324D01*
X137304317Y-94310043D01*
X137273089Y-94293352D01*
X137245715Y-94270885D01*
X137223248Y-94243511D01*
X137206557Y-94212283D01*
X137196276Y-94178392D01*
X137192200Y-94137009D01*
X137192200Y-93111791D01*
X137196276Y-93070408D01*
X137206557Y-93036517D01*
X137223248Y-93005289D01*
X137245715Y-92977915D01*
X137273089Y-92955448D01*
X137304317Y-92938757D01*
X137338208Y-92928476D01*
X137379591Y-92924400D01*
X137979809Y-92924400D01*
X138021192Y-92928476D01*
X138021192Y-92928476D01*
G37*
G36*
X139896192Y-92928476D02*
G01*
X139930083Y-92938757D01*
X139961311Y-92955448D01*
X139988685Y-92977915D01*
X140011152Y-93005289D01*
X140027843Y-93036517D01*
X140038124Y-93070408D01*
X140042200Y-93111791D01*
X140042200Y-94137009D01*
X140038124Y-94178392D01*
X140027843Y-94212283D01*
X140011152Y-94243511D01*
X139988685Y-94270885D01*
X139961311Y-94293352D01*
X139930083Y-94310043D01*
X139896192Y-94320324D01*
X139854809Y-94324400D01*
X139254591Y-94324400D01*
X139213208Y-94320324D01*
X139179317Y-94310043D01*
X139148089Y-94293352D01*
X139120715Y-94270885D01*
X139098248Y-94243511D01*
X139081557Y-94212283D01*
X139071276Y-94178392D01*
X139067200Y-94137009D01*
X139067200Y-93111791D01*
X139071276Y-93070408D01*
X139081557Y-93036517D01*
X139098248Y-93005289D01*
X139120715Y-92977915D01*
X139148089Y-92955448D01*
X139179317Y-92938757D01*
X139213208Y-92928476D01*
X139254591Y-92924400D01*
X139854809Y-92924400D01*
X139896192Y-92928476D01*
X139896192Y-92928476D01*
G37*
G36*
X133903992Y-93272576D02*
G01*
X133937883Y-93282857D01*
X133969111Y-93299548D01*
X133996485Y-93322015D01*
X134018952Y-93349389D01*
X134035643Y-93380617D01*
X134045924Y-93414508D01*
X134050000Y-93455891D01*
X134050000Y-94056109D01*
X134045924Y-94097492D01*
X134035643Y-94131383D01*
X134018952Y-94162611D01*
X133996485Y-94189985D01*
X133969111Y-94212452D01*
X133937883Y-94229143D01*
X133903992Y-94239424D01*
X133862609Y-94243500D01*
X132837391Y-94243500D01*
X132796008Y-94239424D01*
X132762117Y-94229143D01*
X132730889Y-94212452D01*
X132703515Y-94189985D01*
X132681048Y-94162611D01*
X132664357Y-94131383D01*
X132654076Y-94097492D01*
X132650000Y-94056109D01*
X132650000Y-93455891D01*
X132654076Y-93414508D01*
X132664357Y-93380617D01*
X132681048Y-93349389D01*
X132703515Y-93322015D01*
X132730889Y-93299548D01*
X132762117Y-93282857D01*
X132796008Y-93272576D01*
X132837391Y-93268500D01*
X133862609Y-93268500D01*
X133903992Y-93272576D01*
X133903992Y-93272576D01*
G37*
G36*
X131795792Y-93267976D02*
G01*
X131829683Y-93278257D01*
X131860911Y-93294948D01*
X131888285Y-93317415D01*
X131910752Y-93344789D01*
X131927443Y-93376017D01*
X131937724Y-93409908D01*
X131941800Y-93451291D01*
X131941800Y-94051509D01*
X131937724Y-94092892D01*
X131927443Y-94126783D01*
X131910752Y-94158011D01*
X131888285Y-94185385D01*
X131860911Y-94207852D01*
X131829683Y-94224543D01*
X131795792Y-94234824D01*
X131754409Y-94238900D01*
X130729191Y-94238900D01*
X130687808Y-94234824D01*
X130653917Y-94224543D01*
X130622689Y-94207852D01*
X130595315Y-94185385D01*
X130572848Y-94158011D01*
X130556157Y-94126783D01*
X130545876Y-94092892D01*
X130541800Y-94051509D01*
X130541800Y-93451291D01*
X130545876Y-93409908D01*
X130556157Y-93376017D01*
X130572848Y-93344789D01*
X130595315Y-93317415D01*
X130622689Y-93294948D01*
X130653917Y-93278257D01*
X130687808Y-93267976D01*
X130729191Y-93263900D01*
X131754409Y-93263900D01*
X131795792Y-93267976D01*
X131795792Y-93267976D01*
G37*
G36*
X184627600Y-92944000D02*
G01*
X183427600Y-92944000D01*
X183427600Y-92344000D01*
X184627600Y-92344000D01*
X184627600Y-92944000D01*
X184627600Y-92944000D01*
G37*
G36*
X182027600Y-92944000D02*
G01*
X180827600Y-92944000D01*
X180827600Y-92344000D01*
X182027600Y-92344000D01*
X182027600Y-92944000D01*
X182027600Y-92944000D01*
G37*
G36*
X184627600Y-91994000D02*
G01*
X183427600Y-91994000D01*
X183427600Y-91394000D01*
X184627600Y-91394000D01*
X184627600Y-91994000D01*
X184627600Y-91994000D01*
G37*
G36*
X182027600Y-91994000D02*
G01*
X180827600Y-91994000D01*
X180827600Y-91394000D01*
X182027600Y-91394000D01*
X182027600Y-91994000D01*
X182027600Y-91994000D01*
G37*
G36*
X139785192Y-90388476D02*
G01*
X139819083Y-90398757D01*
X139850311Y-90415448D01*
X139877685Y-90437915D01*
X139900152Y-90465289D01*
X139916843Y-90496517D01*
X139927124Y-90530408D01*
X139931200Y-90571791D01*
X139931200Y-91597009D01*
X139927124Y-91638392D01*
X139916843Y-91672283D01*
X139900152Y-91703511D01*
X139877685Y-91730885D01*
X139850311Y-91753352D01*
X139819083Y-91770043D01*
X139785192Y-91780324D01*
X139743809Y-91784400D01*
X139143591Y-91784400D01*
X139102208Y-91780324D01*
X139068317Y-91770043D01*
X139037089Y-91753352D01*
X139009715Y-91730885D01*
X138987248Y-91703511D01*
X138970557Y-91672283D01*
X138960276Y-91638392D01*
X138956200Y-91597009D01*
X138956200Y-90571791D01*
X138960276Y-90530408D01*
X138970557Y-90496517D01*
X138987248Y-90465289D01*
X139009715Y-90437915D01*
X139037089Y-90415448D01*
X139068317Y-90398757D01*
X139102208Y-90388476D01*
X139143591Y-90384400D01*
X139743809Y-90384400D01*
X139785192Y-90388476D01*
X139785192Y-90388476D01*
G37*
G36*
X137910192Y-90388476D02*
G01*
X137944083Y-90398757D01*
X137975311Y-90415448D01*
X138002685Y-90437915D01*
X138025152Y-90465289D01*
X138041843Y-90496517D01*
X138052124Y-90530408D01*
X138056200Y-90571791D01*
X138056200Y-91597009D01*
X138052124Y-91638392D01*
X138041843Y-91672283D01*
X138025152Y-91703511D01*
X138002685Y-91730885D01*
X137975311Y-91753352D01*
X137944083Y-91770043D01*
X137910192Y-91780324D01*
X137868809Y-91784400D01*
X137268591Y-91784400D01*
X137227208Y-91780324D01*
X137193317Y-91770043D01*
X137162089Y-91753352D01*
X137134715Y-91730885D01*
X137112248Y-91703511D01*
X137095557Y-91672283D01*
X137085276Y-91638392D01*
X137081200Y-91597009D01*
X137081200Y-90571791D01*
X137085276Y-90530408D01*
X137095557Y-90496517D01*
X137112248Y-90465289D01*
X137134715Y-90437915D01*
X137162089Y-90415448D01*
X137193317Y-90398757D01*
X137227208Y-90388476D01*
X137268591Y-90384400D01*
X137868809Y-90384400D01*
X137910192Y-90388476D01*
X137910192Y-90388476D01*
G37*
G36*
X142014792Y-90286876D02*
G01*
X142048683Y-90297157D01*
X142079911Y-90313848D01*
X142107285Y-90336315D01*
X142129752Y-90363689D01*
X142146443Y-90394917D01*
X142156724Y-90428808D01*
X142160800Y-90470191D01*
X142160800Y-91495409D01*
X142156724Y-91536792D01*
X142146443Y-91570683D01*
X142129752Y-91601911D01*
X142107285Y-91629285D01*
X142079911Y-91651752D01*
X142048683Y-91668443D01*
X142014792Y-91678724D01*
X141973409Y-91682800D01*
X141373191Y-91682800D01*
X141331808Y-91678724D01*
X141297917Y-91668443D01*
X141266689Y-91651752D01*
X141239315Y-91629285D01*
X141216848Y-91601911D01*
X141200157Y-91570683D01*
X141189876Y-91536792D01*
X141185800Y-91495409D01*
X141185800Y-90470191D01*
X141189876Y-90428808D01*
X141200157Y-90394917D01*
X141216848Y-90363689D01*
X141239315Y-90336315D01*
X141266689Y-90313848D01*
X141297917Y-90297157D01*
X141331808Y-90286876D01*
X141373191Y-90282800D01*
X141973409Y-90282800D01*
X142014792Y-90286876D01*
X142014792Y-90286876D01*
G37*
G36*
X143889792Y-90286876D02*
G01*
X143923683Y-90297157D01*
X143954911Y-90313848D01*
X143982285Y-90336315D01*
X144004752Y-90363689D01*
X144021443Y-90394917D01*
X144031724Y-90428808D01*
X144035800Y-90470191D01*
X144035800Y-91495409D01*
X144031724Y-91536792D01*
X144021443Y-91570683D01*
X144004752Y-91601911D01*
X143982285Y-91629285D01*
X143954911Y-91651752D01*
X143923683Y-91668443D01*
X143889792Y-91678724D01*
X143848409Y-91682800D01*
X143248191Y-91682800D01*
X143206808Y-91678724D01*
X143172917Y-91668443D01*
X143141689Y-91651752D01*
X143114315Y-91629285D01*
X143091848Y-91601911D01*
X143075157Y-91570683D01*
X143064876Y-91536792D01*
X143060800Y-91495409D01*
X143060800Y-90470191D01*
X143064876Y-90428808D01*
X143075157Y-90394917D01*
X143091848Y-90363689D01*
X143114315Y-90336315D01*
X143141689Y-90313848D01*
X143172917Y-90297157D01*
X143206808Y-90286876D01*
X143248191Y-90282800D01*
X143848409Y-90282800D01*
X143889792Y-90286876D01*
X143889792Y-90286876D01*
G37*
G36*
X149649792Y-90134476D02*
G01*
X149683683Y-90144757D01*
X149714911Y-90161448D01*
X149742285Y-90183915D01*
X149764752Y-90211289D01*
X149781443Y-90242517D01*
X149791724Y-90276408D01*
X149795800Y-90317791D01*
X149795800Y-91343009D01*
X149791724Y-91384392D01*
X149781443Y-91418283D01*
X149764752Y-91449511D01*
X149742285Y-91476885D01*
X149714911Y-91499352D01*
X149683683Y-91516043D01*
X149649792Y-91526324D01*
X149608409Y-91530400D01*
X149008191Y-91530400D01*
X148966808Y-91526324D01*
X148932917Y-91516043D01*
X148901689Y-91499352D01*
X148874315Y-91476885D01*
X148851848Y-91449511D01*
X148835157Y-91418283D01*
X148824876Y-91384392D01*
X148820800Y-91343009D01*
X148820800Y-90317791D01*
X148824876Y-90276408D01*
X148835157Y-90242517D01*
X148851848Y-90211289D01*
X148874315Y-90183915D01*
X148901689Y-90161448D01*
X148932917Y-90144757D01*
X148966808Y-90134476D01*
X149008191Y-90130400D01*
X149608409Y-90130400D01*
X149649792Y-90134476D01*
X149649792Y-90134476D01*
G37*
G36*
X147774792Y-90134476D02*
G01*
X147808683Y-90144757D01*
X147839911Y-90161448D01*
X147867285Y-90183915D01*
X147889752Y-90211289D01*
X147906443Y-90242517D01*
X147916724Y-90276408D01*
X147920800Y-90317791D01*
X147920800Y-91343009D01*
X147916724Y-91384392D01*
X147906443Y-91418283D01*
X147889752Y-91449511D01*
X147867285Y-91476885D01*
X147839911Y-91499352D01*
X147808683Y-91516043D01*
X147774792Y-91526324D01*
X147733409Y-91530400D01*
X147133191Y-91530400D01*
X147091808Y-91526324D01*
X147057917Y-91516043D01*
X147026689Y-91499352D01*
X146999315Y-91476885D01*
X146976848Y-91449511D01*
X146960157Y-91418283D01*
X146949876Y-91384392D01*
X146945800Y-91343009D01*
X146945800Y-90317791D01*
X146949876Y-90276408D01*
X146960157Y-90242517D01*
X146976848Y-90211289D01*
X146999315Y-90183915D01*
X147026689Y-90161448D01*
X147057917Y-90144757D01*
X147091808Y-90134476D01*
X147133191Y-90130400D01*
X147733409Y-90130400D01*
X147774792Y-90134476D01*
X147774792Y-90134476D01*
G37*
G36*
X182027600Y-91044000D02*
G01*
X180827600Y-91044000D01*
X180827600Y-90444000D01*
X182027600Y-90444000D01*
X182027600Y-91044000D01*
X182027600Y-91044000D01*
G37*
G36*
X184627600Y-91044000D02*
G01*
X183427600Y-91044000D01*
X183427600Y-90444000D01*
X184627600Y-90444000D01*
X184627600Y-91044000D01*
X184627600Y-91044000D01*
G37*
G36*
X147877192Y-87746876D02*
G01*
X147911083Y-87757157D01*
X147942311Y-87773848D01*
X147969685Y-87796315D01*
X147992152Y-87823689D01*
X148008843Y-87854917D01*
X148019124Y-87888808D01*
X148023200Y-87930191D01*
X148023200Y-88955409D01*
X148019124Y-88996792D01*
X148008843Y-89030683D01*
X147992152Y-89061911D01*
X147969685Y-89089285D01*
X147942311Y-89111752D01*
X147911083Y-89128443D01*
X147877192Y-89138724D01*
X147835809Y-89142800D01*
X147235591Y-89142800D01*
X147194208Y-89138724D01*
X147160317Y-89128443D01*
X147129089Y-89111752D01*
X147101715Y-89089285D01*
X147079248Y-89061911D01*
X147062557Y-89030683D01*
X147052276Y-88996792D01*
X147048200Y-88955409D01*
X147048200Y-87930191D01*
X147052276Y-87888808D01*
X147062557Y-87854917D01*
X147079248Y-87823689D01*
X147101715Y-87796315D01*
X147129089Y-87773848D01*
X147160317Y-87757157D01*
X147194208Y-87746876D01*
X147235591Y-87742800D01*
X147835809Y-87742800D01*
X147877192Y-87746876D01*
X147877192Y-87746876D01*
G37*
G36*
X149752192Y-87746876D02*
G01*
X149786083Y-87757157D01*
X149817311Y-87773848D01*
X149844685Y-87796315D01*
X149867152Y-87823689D01*
X149883843Y-87854917D01*
X149894124Y-87888808D01*
X149898200Y-87930191D01*
X149898200Y-88955409D01*
X149894124Y-88996792D01*
X149883843Y-89030683D01*
X149867152Y-89061911D01*
X149844685Y-89089285D01*
X149817311Y-89111752D01*
X149786083Y-89128443D01*
X149752192Y-89138724D01*
X149710809Y-89142800D01*
X149110591Y-89142800D01*
X149069208Y-89138724D01*
X149035317Y-89128443D01*
X149004089Y-89111752D01*
X148976715Y-89089285D01*
X148954248Y-89061911D01*
X148937557Y-89030683D01*
X148927276Y-88996792D01*
X148923200Y-88955409D01*
X148923200Y-87930191D01*
X148927276Y-87888808D01*
X148937557Y-87854917D01*
X148954248Y-87823689D01*
X148976715Y-87796315D01*
X149004089Y-87773848D01*
X149035317Y-87757157D01*
X149069208Y-87746876D01*
X149110591Y-87742800D01*
X149710809Y-87742800D01*
X149752192Y-87746876D01*
X149752192Y-87746876D01*
G37*
G36*
X132860292Y-87855476D02*
G01*
X132894183Y-87865757D01*
X132925411Y-87882448D01*
X132952785Y-87904915D01*
X132975252Y-87932289D01*
X132991943Y-87963517D01*
X133002224Y-87997408D01*
X133006300Y-88038791D01*
X133006300Y-88639009D01*
X133002224Y-88680392D01*
X132991943Y-88714283D01*
X132975252Y-88745511D01*
X132952785Y-88772885D01*
X132925411Y-88795352D01*
X132894183Y-88812043D01*
X132860292Y-88822324D01*
X132818909Y-88826400D01*
X131793691Y-88826400D01*
X131752308Y-88822324D01*
X131718417Y-88812043D01*
X131687189Y-88795352D01*
X131659815Y-88772885D01*
X131637348Y-88745511D01*
X131620657Y-88714283D01*
X131610376Y-88680392D01*
X131606300Y-88639009D01*
X131606300Y-88038791D01*
X131610376Y-87997408D01*
X131620657Y-87963517D01*
X131637348Y-87932289D01*
X131659815Y-87904915D01*
X131687189Y-87882448D01*
X131718417Y-87865757D01*
X131752308Y-87855476D01*
X131793691Y-87851400D01*
X132818909Y-87851400D01*
X132860292Y-87855476D01*
X132860292Y-87855476D01*
G37*
G36*
X185481800Y-88727400D02*
G01*
X183681800Y-88727400D01*
X183681800Y-83027400D01*
X185481800Y-83027400D01*
X185481800Y-88727400D01*
X185481800Y-88727400D01*
G37*
G36*
X180781800Y-88727400D02*
G01*
X178981800Y-88727400D01*
X178981800Y-83027400D01*
X180781800Y-83027400D01*
X180781800Y-88727400D01*
X180781800Y-88727400D01*
G37*
G36*
X142965200Y-87220000D02*
G01*
X138365200Y-87220000D01*
X138365200Y-86420000D01*
X142965200Y-86420000D01*
X142965200Y-87220000D01*
X142965200Y-87220000D01*
G37*
G36*
X132860292Y-85980476D02*
G01*
X132894183Y-85990757D01*
X132925411Y-86007448D01*
X132952785Y-86029915D01*
X132975252Y-86057289D01*
X132991943Y-86088517D01*
X133002224Y-86122408D01*
X133006300Y-86163791D01*
X133006300Y-86764009D01*
X133002224Y-86805392D01*
X132991943Y-86839283D01*
X132975252Y-86870511D01*
X132952785Y-86897885D01*
X132925411Y-86920352D01*
X132894183Y-86937043D01*
X132860292Y-86947324D01*
X132818909Y-86951400D01*
X131793691Y-86951400D01*
X131752308Y-86947324D01*
X131718417Y-86937043D01*
X131687189Y-86920352D01*
X131659815Y-86897885D01*
X131637348Y-86870511D01*
X131620657Y-86839283D01*
X131610376Y-86805392D01*
X131606300Y-86764009D01*
X131606300Y-86163791D01*
X131610376Y-86122408D01*
X131620657Y-86088517D01*
X131637348Y-86057289D01*
X131659815Y-86029915D01*
X131687189Y-86007448D01*
X131718417Y-85990757D01*
X131752308Y-85980476D01*
X131793691Y-85976400D01*
X132818909Y-85976400D01*
X132860292Y-85980476D01*
X132860292Y-85980476D01*
G37*
G36*
X149700592Y-85257676D02*
G01*
X149734483Y-85267957D01*
X149765711Y-85284648D01*
X149793085Y-85307115D01*
X149815552Y-85334489D01*
X149832243Y-85365717D01*
X149842524Y-85399608D01*
X149846600Y-85440991D01*
X149846600Y-86466209D01*
X149842524Y-86507592D01*
X149832243Y-86541483D01*
X149815552Y-86572711D01*
X149793085Y-86600085D01*
X149765711Y-86622552D01*
X149734483Y-86639243D01*
X149700592Y-86649524D01*
X149659209Y-86653600D01*
X149058991Y-86653600D01*
X149017608Y-86649524D01*
X148983717Y-86639243D01*
X148952489Y-86622552D01*
X148925115Y-86600085D01*
X148902648Y-86572711D01*
X148885957Y-86541483D01*
X148875676Y-86507592D01*
X148871600Y-86466209D01*
X148871600Y-85440991D01*
X148875676Y-85399608D01*
X148885957Y-85365717D01*
X148902648Y-85334489D01*
X148925115Y-85307115D01*
X148952489Y-85284648D01*
X148983717Y-85267957D01*
X149017608Y-85257676D01*
X149058991Y-85253600D01*
X149659209Y-85253600D01*
X149700592Y-85257676D01*
X149700592Y-85257676D01*
G37*
G36*
X147825592Y-85257676D02*
G01*
X147859483Y-85267957D01*
X147890711Y-85284648D01*
X147918085Y-85307115D01*
X147940552Y-85334489D01*
X147957243Y-85365717D01*
X147967524Y-85399608D01*
X147971600Y-85440991D01*
X147971600Y-86466209D01*
X147967524Y-86507592D01*
X147957243Y-86541483D01*
X147940552Y-86572711D01*
X147918085Y-86600085D01*
X147890711Y-86622552D01*
X147859483Y-86639243D01*
X147825592Y-86649524D01*
X147784209Y-86653600D01*
X147183991Y-86653600D01*
X147142608Y-86649524D01*
X147108717Y-86639243D01*
X147077489Y-86622552D01*
X147050115Y-86600085D01*
X147027648Y-86572711D01*
X147010957Y-86541483D01*
X147000676Y-86507592D01*
X146996600Y-86466209D01*
X146996600Y-85440991D01*
X147000676Y-85399608D01*
X147010957Y-85365717D01*
X147027648Y-85334489D01*
X147050115Y-85307115D01*
X147077489Y-85284648D01*
X147108717Y-85267957D01*
X147142608Y-85257676D01*
X147183991Y-85253600D01*
X147784209Y-85253600D01*
X147825592Y-85257676D01*
X147825592Y-85257676D01*
G37*
G36*
X177896792Y-85458476D02*
G01*
X177930683Y-85468757D01*
X177961911Y-85485448D01*
X177989285Y-85507915D01*
X178011752Y-85535289D01*
X178028443Y-85566517D01*
X178038724Y-85600408D01*
X178042800Y-85641791D01*
X178042800Y-86242009D01*
X178038724Y-86283392D01*
X178028443Y-86317283D01*
X178011752Y-86348511D01*
X177989285Y-86375885D01*
X177961911Y-86398352D01*
X177930683Y-86415043D01*
X177896792Y-86425324D01*
X177855409Y-86429400D01*
X176830191Y-86429400D01*
X176788808Y-86425324D01*
X176754917Y-86415043D01*
X176723689Y-86398352D01*
X176696315Y-86375885D01*
X176673848Y-86348511D01*
X176657157Y-86317283D01*
X176646876Y-86283392D01*
X176642800Y-86242009D01*
X176642800Y-85641791D01*
X176646876Y-85600408D01*
X176657157Y-85566517D01*
X176673848Y-85535289D01*
X176696315Y-85507915D01*
X176723689Y-85485448D01*
X176754917Y-85468757D01*
X176788808Y-85458476D01*
X176830191Y-85454400D01*
X177855409Y-85454400D01*
X177896792Y-85458476D01*
X177896792Y-85458476D01*
G37*
G36*
X138065200Y-86120000D02*
G01*
X137265200Y-86120000D01*
X137265200Y-81520000D01*
X138065200Y-81520000D01*
X138065200Y-86120000D01*
X138065200Y-86120000D01*
G37*
G36*
X144065200Y-86120000D02*
G01*
X143265200Y-86120000D01*
X143265200Y-81520000D01*
X144065200Y-81520000D01*
X144065200Y-86120000D01*
X144065200Y-86120000D01*
G37*
G36*
X142890200Y-86045000D02*
G01*
X138440200Y-86045000D01*
X138440200Y-81595000D01*
X142890200Y-81595000D01*
X142890200Y-86045000D01*
X142890200Y-86045000D01*
G37*
G36*
X172745581Y-84523352D02*
G01*
X172862567Y-84546622D01*
X172909629Y-84566116D01*
X172999057Y-84603158D01*
X173121900Y-84685239D01*
X173226361Y-84789700D01*
X173308442Y-84912543D01*
X173316708Y-84932500D01*
X173364978Y-85049033D01*
X173393800Y-85193931D01*
X173393800Y-85341669D01*
X173365201Y-85485448D01*
X173364978Y-85486566D01*
X173308442Y-85623057D01*
X173226361Y-85745900D01*
X173121900Y-85850361D01*
X172999057Y-85932442D01*
X172919103Y-85965560D01*
X172862567Y-85988978D01*
X172790118Y-86003389D01*
X172717670Y-86017800D01*
X172569930Y-86017800D01*
X172497482Y-86003389D01*
X172425033Y-85988978D01*
X172368497Y-85965560D01*
X172288543Y-85932442D01*
X172165700Y-85850361D01*
X172061239Y-85745900D01*
X171979158Y-85623057D01*
X171922622Y-85486566D01*
X171922400Y-85485448D01*
X171893800Y-85341669D01*
X171893800Y-85193931D01*
X171922622Y-85049033D01*
X171970892Y-84932500D01*
X171979158Y-84912543D01*
X172061239Y-84789700D01*
X172165700Y-84685239D01*
X172288543Y-84603158D01*
X172377971Y-84566116D01*
X172425033Y-84546622D01*
X172542019Y-84523352D01*
X172569930Y-84517800D01*
X172717670Y-84517800D01*
X172745581Y-84523352D01*
X172745581Y-84523352D01*
G37*
G36*
X153694800Y-84966800D02*
G01*
X152794800Y-84966800D01*
X152794800Y-84166800D01*
X153694800Y-84166800D01*
X153694800Y-84966800D01*
X153694800Y-84966800D01*
G37*
G36*
X147689192Y-83174876D02*
G01*
X147723083Y-83185157D01*
X147754311Y-83201848D01*
X147781685Y-83224315D01*
X147804152Y-83251689D01*
X147820843Y-83282917D01*
X147831124Y-83316808D01*
X147835200Y-83358191D01*
X147835200Y-84383409D01*
X147831124Y-84424792D01*
X147820843Y-84458683D01*
X147804152Y-84489911D01*
X147781685Y-84517285D01*
X147754311Y-84539752D01*
X147723083Y-84556443D01*
X147689192Y-84566724D01*
X147647809Y-84570800D01*
X147047591Y-84570800D01*
X147006208Y-84566724D01*
X146972317Y-84556443D01*
X146941089Y-84539752D01*
X146913715Y-84517285D01*
X146891248Y-84489911D01*
X146874557Y-84458683D01*
X146864276Y-84424792D01*
X146860200Y-84383409D01*
X146860200Y-83358191D01*
X146864276Y-83316808D01*
X146874557Y-83282917D01*
X146891248Y-83251689D01*
X146913715Y-83224315D01*
X146941089Y-83201848D01*
X146972317Y-83185157D01*
X147006208Y-83174876D01*
X147047591Y-83170800D01*
X147647809Y-83170800D01*
X147689192Y-83174876D01*
X147689192Y-83174876D01*
G37*
G36*
X149564192Y-83174876D02*
G01*
X149598083Y-83185157D01*
X149629311Y-83201848D01*
X149656685Y-83224315D01*
X149679152Y-83251689D01*
X149695843Y-83282917D01*
X149706124Y-83316808D01*
X149710200Y-83358191D01*
X149710200Y-84383409D01*
X149706124Y-84424792D01*
X149695843Y-84458683D01*
X149679152Y-84489911D01*
X149656685Y-84517285D01*
X149629311Y-84539752D01*
X149598083Y-84556443D01*
X149564192Y-84566724D01*
X149522809Y-84570800D01*
X148922591Y-84570800D01*
X148881208Y-84566724D01*
X148847317Y-84556443D01*
X148816089Y-84539752D01*
X148788715Y-84517285D01*
X148766248Y-84489911D01*
X148749557Y-84458683D01*
X148739276Y-84424792D01*
X148735200Y-84383409D01*
X148735200Y-83358191D01*
X148739276Y-83316808D01*
X148749557Y-83282917D01*
X148766248Y-83251689D01*
X148788715Y-83224315D01*
X148816089Y-83201848D01*
X148847317Y-83185157D01*
X148881208Y-83174876D01*
X148922591Y-83170800D01*
X149522809Y-83170800D01*
X149564192Y-83174876D01*
X149564192Y-83174876D01*
G37*
G36*
X177896792Y-83583476D02*
G01*
X177930683Y-83593757D01*
X177961911Y-83610448D01*
X177989285Y-83632915D01*
X178011752Y-83660289D01*
X178028443Y-83691517D01*
X178038724Y-83725408D01*
X178042800Y-83766791D01*
X178042800Y-84367009D01*
X178038724Y-84408392D01*
X178028443Y-84442283D01*
X178011752Y-84473511D01*
X177989285Y-84500885D01*
X177961911Y-84523352D01*
X177930683Y-84540043D01*
X177896792Y-84550324D01*
X177855409Y-84554400D01*
X176830191Y-84554400D01*
X176788808Y-84550324D01*
X176754917Y-84540043D01*
X176723689Y-84523352D01*
X176696315Y-84500885D01*
X176673848Y-84473511D01*
X176657157Y-84442283D01*
X176646876Y-84408392D01*
X176642800Y-84367009D01*
X176642800Y-83766791D01*
X176646876Y-83725408D01*
X176657157Y-83691517D01*
X176673848Y-83660289D01*
X176696315Y-83632915D01*
X176723689Y-83610448D01*
X176754917Y-83593757D01*
X176788808Y-83583476D01*
X176830191Y-83579400D01*
X177855409Y-83579400D01*
X177896792Y-83583476D01*
X177896792Y-83583476D01*
G37*
G36*
X158202400Y-84155600D02*
G01*
X157002400Y-84155600D01*
X157002400Y-83555600D01*
X158202400Y-83555600D01*
X158202400Y-84155600D01*
X158202400Y-84155600D01*
G37*
G36*
X160802400Y-84155600D02*
G01*
X159602400Y-84155600D01*
X159602400Y-83555600D01*
X160802400Y-83555600D01*
X160802400Y-84155600D01*
X160802400Y-84155600D01*
G37*
G36*
X155694800Y-84016800D02*
G01*
X154794800Y-84016800D01*
X154794800Y-83216800D01*
X155694800Y-83216800D01*
X155694800Y-84016800D01*
X155694800Y-84016800D01*
G37*
G36*
X131900170Y-81499772D02*
G01*
X132016089Y-81522829D01*
X132198078Y-81598211D01*
X132361863Y-81707649D01*
X132501151Y-81846937D01*
X132610589Y-82010722D01*
X132685971Y-82192711D01*
X132724400Y-82385909D01*
X132724400Y-82582891D01*
X132685971Y-82776089D01*
X132610589Y-82958078D01*
X132501151Y-83121863D01*
X132361863Y-83261151D01*
X132198078Y-83370589D01*
X132016089Y-83445971D01*
X131900170Y-83469028D01*
X131822893Y-83484400D01*
X131625907Y-83484400D01*
X131548630Y-83469028D01*
X131432711Y-83445971D01*
X131250722Y-83370589D01*
X131086937Y-83261151D01*
X130947649Y-83121863D01*
X130838211Y-82958078D01*
X130762829Y-82776089D01*
X130724400Y-82582891D01*
X130724400Y-82385909D01*
X130762829Y-82192711D01*
X130838211Y-82010722D01*
X130947649Y-81846937D01*
X131086937Y-81707649D01*
X131250722Y-81598211D01*
X131432711Y-81522829D01*
X131548630Y-81499772D01*
X131625907Y-81484400D01*
X131822893Y-81484400D01*
X131900170Y-81499772D01*
X131900170Y-81499772D01*
G37*
G36*
X158202400Y-83205600D02*
G01*
X157002400Y-83205600D01*
X157002400Y-82605600D01*
X158202400Y-82605600D01*
X158202400Y-83205600D01*
X158202400Y-83205600D01*
G37*
G36*
X160802400Y-83205600D02*
G01*
X159602400Y-83205600D01*
X159602400Y-82605600D01*
X160802400Y-82605600D01*
X160802400Y-83205600D01*
X160802400Y-83205600D01*
G37*
G36*
X153694800Y-83066800D02*
G01*
X152794800Y-83066800D01*
X152794800Y-82266800D01*
X153694800Y-82266800D01*
X153694800Y-83066800D01*
X153694800Y-83066800D01*
G37*
G36*
X158202400Y-82255600D02*
G01*
X157002400Y-82255600D01*
X157002400Y-81655600D01*
X158202400Y-81655600D01*
X158202400Y-82255600D01*
X158202400Y-82255600D01*
G37*
G36*
X160802400Y-82255600D02*
G01*
X159602400Y-82255600D01*
X159602400Y-81655600D01*
X160802400Y-81655600D01*
X160802400Y-82255600D01*
X160802400Y-82255600D01*
G37*
G36*
X149599792Y-80482476D02*
G01*
X149633683Y-80492757D01*
X149664911Y-80509448D01*
X149692285Y-80531915D01*
X149714752Y-80559289D01*
X149731443Y-80590517D01*
X149741724Y-80624408D01*
X149745800Y-80665791D01*
X149745800Y-81691009D01*
X149741724Y-81732392D01*
X149731443Y-81766283D01*
X149714752Y-81797511D01*
X149692285Y-81824885D01*
X149664911Y-81847352D01*
X149633683Y-81864043D01*
X149599792Y-81874324D01*
X149558409Y-81878400D01*
X148958191Y-81878400D01*
X148916808Y-81874324D01*
X148882917Y-81864043D01*
X148851689Y-81847352D01*
X148824315Y-81824885D01*
X148801848Y-81797511D01*
X148785157Y-81766283D01*
X148774876Y-81732392D01*
X148770800Y-81691009D01*
X148770800Y-80665791D01*
X148774876Y-80624408D01*
X148785157Y-80590517D01*
X148801848Y-80559289D01*
X148824315Y-80531915D01*
X148851689Y-80509448D01*
X148882917Y-80492757D01*
X148916808Y-80482476D01*
X148958191Y-80478400D01*
X149558409Y-80478400D01*
X149599792Y-80482476D01*
X149599792Y-80482476D01*
G37*
G36*
X147724792Y-80482476D02*
G01*
X147758683Y-80492757D01*
X147789911Y-80509448D01*
X147817285Y-80531915D01*
X147839752Y-80559289D01*
X147856443Y-80590517D01*
X147866724Y-80624408D01*
X147870800Y-80665791D01*
X147870800Y-81691009D01*
X147866724Y-81732392D01*
X147856443Y-81766283D01*
X147839752Y-81797511D01*
X147817285Y-81824885D01*
X147789911Y-81847352D01*
X147758683Y-81864043D01*
X147724792Y-81874324D01*
X147683409Y-81878400D01*
X147083191Y-81878400D01*
X147041808Y-81874324D01*
X147007917Y-81864043D01*
X146976689Y-81847352D01*
X146949315Y-81824885D01*
X146926848Y-81797511D01*
X146910157Y-81766283D01*
X146899876Y-81732392D01*
X146895800Y-81691009D01*
X146895800Y-80665791D01*
X146899876Y-80624408D01*
X146910157Y-80590517D01*
X146926848Y-80559289D01*
X146949315Y-80531915D01*
X146976689Y-80509448D01*
X147007917Y-80492757D01*
X147041808Y-80482476D01*
X147083191Y-80478400D01*
X147683409Y-80478400D01*
X147724792Y-80482476D01*
X147724792Y-80482476D01*
G37*
G36*
X142965200Y-81220000D02*
G01*
X138365200Y-81220000D01*
X138365200Y-80420000D01*
X142965200Y-80420000D01*
X142965200Y-81220000D01*
X142965200Y-81220000D01*
G37*
G36*
X131808676Y-79636470D02*
G01*
X131943167Y-79663222D01*
X131994915Y-79684657D01*
X132079657Y-79719758D01*
X132202500Y-79801839D01*
X132306961Y-79906300D01*
X132389042Y-80029143D01*
X132445578Y-80165634D01*
X132470930Y-80293083D01*
X132474400Y-80310531D01*
X132474400Y-80458269D01*
X132445578Y-80603167D01*
X132430465Y-80639652D01*
X132389042Y-80739657D01*
X132306961Y-80862500D01*
X132202500Y-80966961D01*
X132079657Y-81049042D01*
X131999703Y-81082160D01*
X131943167Y-81105578D01*
X131870718Y-81119989D01*
X131798270Y-81134400D01*
X131650530Y-81134400D01*
X131578082Y-81119989D01*
X131505633Y-81105578D01*
X131449097Y-81082160D01*
X131369143Y-81049042D01*
X131246300Y-80966961D01*
X131141839Y-80862500D01*
X131059758Y-80739657D01*
X131018335Y-80639652D01*
X131003222Y-80603167D01*
X130974400Y-80458269D01*
X130974400Y-80310531D01*
X130977871Y-80293083D01*
X131003222Y-80165634D01*
X131059758Y-80029143D01*
X131141839Y-79906300D01*
X131246300Y-79801839D01*
X131369143Y-79719758D01*
X131453885Y-79684657D01*
X131505633Y-79663222D01*
X131640124Y-79636470D01*
X131650530Y-79634400D01*
X131798270Y-79634400D01*
X131808676Y-79636470D01*
X131808676Y-79636470D01*
G37*
G36*
X178598800Y-80898000D02*
G01*
X177198800Y-80898000D01*
X177198800Y-79298000D01*
X178598800Y-79298000D01*
X178598800Y-80898000D01*
X178598800Y-80898000D01*
G37*
G36*
X181598800Y-80898000D02*
G01*
X180198800Y-80898000D01*
X180198800Y-79298000D01*
X181598800Y-79298000D01*
X181598800Y-80898000D01*
X181598800Y-80898000D01*
G37*
G36*
X168636800Y-80854000D02*
G01*
X167236800Y-80854000D01*
X167236800Y-79254000D01*
X168636800Y-79254000D01*
X168636800Y-80854000D01*
X168636800Y-80854000D01*
G37*
G36*
X171636800Y-80854000D02*
G01*
X170236800Y-80854000D01*
X170236800Y-79254000D01*
X171636800Y-79254000D01*
X171636800Y-80854000D01*
X171636800Y-80854000D01*
G37*
G36*
X165882592Y-79699776D02*
G01*
X165916483Y-79710057D01*
X165947711Y-79726748D01*
X165975085Y-79749215D01*
X165997552Y-79776589D01*
X166014243Y-79807817D01*
X166024524Y-79841708D01*
X166028600Y-79883091D01*
X166028600Y-80483309D01*
X166024524Y-80524692D01*
X166014243Y-80558583D01*
X165997552Y-80589811D01*
X165975085Y-80617185D01*
X165947711Y-80639652D01*
X165916483Y-80656343D01*
X165882592Y-80666624D01*
X165841209Y-80670700D01*
X164815991Y-80670700D01*
X164774608Y-80666624D01*
X164740717Y-80656343D01*
X164709489Y-80639652D01*
X164682115Y-80617185D01*
X164659648Y-80589811D01*
X164642957Y-80558583D01*
X164632676Y-80524692D01*
X164628600Y-80483309D01*
X164628600Y-79883091D01*
X164632676Y-79841708D01*
X164642957Y-79807817D01*
X164659648Y-79776589D01*
X164682115Y-79749215D01*
X164709489Y-79726748D01*
X164740717Y-79710057D01*
X164774608Y-79699776D01*
X164815991Y-79695700D01*
X165841209Y-79695700D01*
X165882592Y-79699776D01*
X165882592Y-79699776D01*
G37*
G36*
X163723592Y-79674376D02*
G01*
X163757483Y-79684657D01*
X163788711Y-79701348D01*
X163816085Y-79723815D01*
X163838552Y-79751189D01*
X163855243Y-79782417D01*
X163865524Y-79816308D01*
X163869600Y-79857691D01*
X163869600Y-80457909D01*
X163865524Y-80499292D01*
X163855243Y-80533183D01*
X163838552Y-80564411D01*
X163816085Y-80591785D01*
X163788711Y-80614252D01*
X163757483Y-80630943D01*
X163723592Y-80641224D01*
X163682209Y-80645300D01*
X162656991Y-80645300D01*
X162615608Y-80641224D01*
X162581717Y-80630943D01*
X162550489Y-80614252D01*
X162523115Y-80591785D01*
X162500648Y-80564411D01*
X162483957Y-80533183D01*
X162473676Y-80499292D01*
X162469600Y-80457909D01*
X162469600Y-79857691D01*
X162473676Y-79816308D01*
X162483957Y-79782417D01*
X162500648Y-79751189D01*
X162523115Y-79723815D01*
X162550489Y-79701348D01*
X162581717Y-79684657D01*
X162615608Y-79674376D01*
X162656991Y-79670300D01*
X163682209Y-79670300D01*
X163723592Y-79674376D01*
X163723592Y-79674376D01*
G37*
G36*
X160130592Y-79009276D02*
G01*
X160164483Y-79019557D01*
X160195711Y-79036248D01*
X160223085Y-79058715D01*
X160245552Y-79086089D01*
X160262243Y-79117317D01*
X160272524Y-79151208D01*
X160276600Y-79192591D01*
X160276600Y-80217809D01*
X160272524Y-80259192D01*
X160262243Y-80293083D01*
X160245552Y-80324311D01*
X160223085Y-80351685D01*
X160195711Y-80374152D01*
X160164483Y-80390843D01*
X160130592Y-80401124D01*
X160089209Y-80405200D01*
X159488991Y-80405200D01*
X159447608Y-80401124D01*
X159413717Y-80390843D01*
X159382489Y-80374152D01*
X159355115Y-80351685D01*
X159332648Y-80324311D01*
X159315957Y-80293083D01*
X159305676Y-80259192D01*
X159301600Y-80217809D01*
X159301600Y-79192591D01*
X159305676Y-79151208D01*
X159315957Y-79117317D01*
X159332648Y-79086089D01*
X159355115Y-79058715D01*
X159382489Y-79036248D01*
X159413717Y-79019557D01*
X159447608Y-79009276D01*
X159488991Y-79005200D01*
X160089209Y-79005200D01*
X160130592Y-79009276D01*
X160130592Y-79009276D01*
G37*
G36*
X158255592Y-79009276D02*
G01*
X158289483Y-79019557D01*
X158320711Y-79036248D01*
X158348085Y-79058715D01*
X158370552Y-79086089D01*
X158387243Y-79117317D01*
X158397524Y-79151208D01*
X158401600Y-79192591D01*
X158401600Y-80217809D01*
X158397524Y-80259192D01*
X158387243Y-80293083D01*
X158370552Y-80324311D01*
X158348085Y-80351685D01*
X158320711Y-80374152D01*
X158289483Y-80390843D01*
X158255592Y-80401124D01*
X158214209Y-80405200D01*
X157613991Y-80405200D01*
X157572608Y-80401124D01*
X157538717Y-80390843D01*
X157507489Y-80374152D01*
X157480115Y-80351685D01*
X157457648Y-80324311D01*
X157440957Y-80293083D01*
X157430676Y-80259192D01*
X157426600Y-80217809D01*
X157426600Y-79192591D01*
X157430676Y-79151208D01*
X157440957Y-79117317D01*
X157457648Y-79086089D01*
X157480115Y-79058715D01*
X157507489Y-79036248D01*
X157538717Y-79019557D01*
X157572608Y-79009276D01*
X157613991Y-79005200D01*
X158214209Y-79005200D01*
X158255592Y-79009276D01*
X158255592Y-79009276D01*
G37*
G36*
X154366646Y-78729221D02*
G01*
X154498367Y-78755422D01*
X154522977Y-78765616D01*
X154634857Y-78811958D01*
X154757700Y-78894039D01*
X154862161Y-78998500D01*
X154944242Y-79121343D01*
X154949650Y-79134400D01*
X155000778Y-79257833D01*
X155029600Y-79402731D01*
X155029600Y-79550469D01*
X155000778Y-79695367D01*
X154990675Y-79719758D01*
X154944242Y-79831857D01*
X154862161Y-79954700D01*
X154757700Y-80059161D01*
X154634857Y-80141242D01*
X154586070Y-80161450D01*
X154498367Y-80197778D01*
X154441935Y-80209003D01*
X154353470Y-80226600D01*
X154205730Y-80226600D01*
X154117265Y-80209003D01*
X154060833Y-80197778D01*
X153973130Y-80161450D01*
X153924343Y-80141242D01*
X153801500Y-80059161D01*
X153697039Y-79954700D01*
X153614958Y-79831857D01*
X153568525Y-79719758D01*
X153558422Y-79695367D01*
X153529600Y-79550469D01*
X153529600Y-79402731D01*
X153558422Y-79257833D01*
X153609550Y-79134400D01*
X153614958Y-79121343D01*
X153697039Y-78998500D01*
X153801500Y-78894039D01*
X153924343Y-78811958D01*
X154036223Y-78765616D01*
X154060833Y-78755422D01*
X154192554Y-78729221D01*
X154205730Y-78726600D01*
X154353470Y-78726600D01*
X154366646Y-78729221D01*
X154366646Y-78729221D01*
G37*
G36*
X149700592Y-78348876D02*
G01*
X149734483Y-78359157D01*
X149765711Y-78375848D01*
X149793085Y-78398315D01*
X149815552Y-78425689D01*
X149832243Y-78456917D01*
X149842524Y-78490808D01*
X149846600Y-78532191D01*
X149846600Y-79557409D01*
X149842524Y-79598792D01*
X149832243Y-79632683D01*
X149815552Y-79663911D01*
X149793085Y-79691285D01*
X149765711Y-79713752D01*
X149734483Y-79730443D01*
X149700592Y-79740724D01*
X149659209Y-79744800D01*
X149058991Y-79744800D01*
X149017608Y-79740724D01*
X148983717Y-79730443D01*
X148952489Y-79713752D01*
X148925115Y-79691285D01*
X148902648Y-79663911D01*
X148885957Y-79632683D01*
X148875676Y-79598792D01*
X148871600Y-79557409D01*
X148871600Y-78532191D01*
X148875676Y-78490808D01*
X148885957Y-78456917D01*
X148902648Y-78425689D01*
X148925115Y-78398315D01*
X148952489Y-78375848D01*
X148983717Y-78359157D01*
X149017608Y-78348876D01*
X149058991Y-78344800D01*
X149659209Y-78344800D01*
X149700592Y-78348876D01*
X149700592Y-78348876D01*
G37*
G36*
X147825592Y-78348876D02*
G01*
X147859483Y-78359157D01*
X147890711Y-78375848D01*
X147918085Y-78398315D01*
X147940552Y-78425689D01*
X147957243Y-78456917D01*
X147967524Y-78490808D01*
X147971600Y-78532191D01*
X147971600Y-79557409D01*
X147967524Y-79598792D01*
X147957243Y-79632683D01*
X147940552Y-79663911D01*
X147918085Y-79691285D01*
X147890711Y-79713752D01*
X147859483Y-79730443D01*
X147825592Y-79740724D01*
X147784209Y-79744800D01*
X147183991Y-79744800D01*
X147142608Y-79740724D01*
X147108717Y-79730443D01*
X147077489Y-79713752D01*
X147050115Y-79691285D01*
X147027648Y-79663911D01*
X147010957Y-79632683D01*
X147000676Y-79598792D01*
X146996600Y-79557409D01*
X146996600Y-78532191D01*
X147000676Y-78490808D01*
X147010957Y-78456917D01*
X147027648Y-78425689D01*
X147050115Y-78398315D01*
X147077489Y-78375848D01*
X147108717Y-78359157D01*
X147142608Y-78348876D01*
X147183991Y-78344800D01*
X147784209Y-78344800D01*
X147825592Y-78348876D01*
X147825592Y-78348876D01*
G37*
G36*
X131870718Y-77648811D02*
G01*
X131943167Y-77663222D01*
X131999703Y-77686640D01*
X132079657Y-77719758D01*
X132202500Y-77801839D01*
X132306961Y-77906300D01*
X132389042Y-78029143D01*
X132422160Y-78109097D01*
X132445578Y-78165633D01*
X132474400Y-78310531D01*
X132474400Y-78458269D01*
X132445578Y-78603167D01*
X132422789Y-78658183D01*
X132389042Y-78739657D01*
X132306961Y-78862500D01*
X132202500Y-78966961D01*
X132079657Y-79049042D01*
X131999703Y-79082160D01*
X131943167Y-79105578D01*
X131884151Y-79117317D01*
X131798270Y-79134400D01*
X131650530Y-79134400D01*
X131564649Y-79117317D01*
X131505633Y-79105578D01*
X131449097Y-79082160D01*
X131369143Y-79049042D01*
X131246300Y-78966961D01*
X131141839Y-78862500D01*
X131059758Y-78739657D01*
X131026011Y-78658183D01*
X131003222Y-78603167D01*
X130974400Y-78458269D01*
X130974400Y-78310531D01*
X131003222Y-78165633D01*
X131026640Y-78109097D01*
X131059758Y-78029143D01*
X131141839Y-77906300D01*
X131246300Y-77801839D01*
X131369143Y-77719758D01*
X131449097Y-77686640D01*
X131505633Y-77663222D01*
X131578082Y-77648811D01*
X131650530Y-77634400D01*
X131798270Y-77634400D01*
X131870718Y-77648811D01*
X131870718Y-77648811D01*
G37*
G36*
X165882592Y-77824776D02*
G01*
X165916483Y-77835057D01*
X165947711Y-77851748D01*
X165975085Y-77874215D01*
X165997552Y-77901589D01*
X166014243Y-77932817D01*
X166024524Y-77966708D01*
X166028600Y-78008091D01*
X166028600Y-78608309D01*
X166024524Y-78649692D01*
X166014243Y-78683583D01*
X165997552Y-78714811D01*
X165975085Y-78742185D01*
X165947711Y-78764652D01*
X165916483Y-78781343D01*
X165882592Y-78791624D01*
X165841209Y-78795700D01*
X164815991Y-78795700D01*
X164774608Y-78791624D01*
X164740717Y-78781343D01*
X164709489Y-78764652D01*
X164682115Y-78742185D01*
X164659648Y-78714811D01*
X164642957Y-78683583D01*
X164632676Y-78649692D01*
X164628600Y-78608309D01*
X164628600Y-78008091D01*
X164632676Y-77966708D01*
X164642957Y-77932817D01*
X164659648Y-77901589D01*
X164682115Y-77874215D01*
X164709489Y-77851748D01*
X164740717Y-77835057D01*
X164774608Y-77824776D01*
X164815991Y-77820700D01*
X165841209Y-77820700D01*
X165882592Y-77824776D01*
X165882592Y-77824776D01*
G37*
G36*
X163723592Y-77799376D02*
G01*
X163757483Y-77809657D01*
X163788711Y-77826348D01*
X163816085Y-77848815D01*
X163838552Y-77876189D01*
X163855243Y-77907417D01*
X163865524Y-77941308D01*
X163869600Y-77982691D01*
X163869600Y-78582909D01*
X163865524Y-78624292D01*
X163855243Y-78658183D01*
X163838552Y-78689411D01*
X163816085Y-78716785D01*
X163788711Y-78739252D01*
X163757483Y-78755943D01*
X163723592Y-78766224D01*
X163682209Y-78770300D01*
X162656991Y-78770300D01*
X162615608Y-78766224D01*
X162581717Y-78755943D01*
X162550489Y-78739252D01*
X162523115Y-78716785D01*
X162500648Y-78689411D01*
X162483957Y-78658183D01*
X162473676Y-78624292D01*
X162469600Y-78582909D01*
X162469600Y-77982691D01*
X162473676Y-77941308D01*
X162483957Y-77907417D01*
X162500648Y-77876189D01*
X162523115Y-77848815D01*
X162550489Y-77826348D01*
X162581717Y-77809657D01*
X162615608Y-77799376D01*
X162656991Y-77795300D01*
X163682209Y-77795300D01*
X163723592Y-77799376D01*
X163723592Y-77799376D01*
G37*
G36*
X145761092Y-76139076D02*
G01*
X145794983Y-76149357D01*
X145826211Y-76166048D01*
X145853585Y-76188515D01*
X145876052Y-76215889D01*
X145892743Y-76247117D01*
X145903024Y-76281008D01*
X145907100Y-76322391D01*
X145907100Y-77347609D01*
X145903024Y-77388992D01*
X145892743Y-77422883D01*
X145876052Y-77454111D01*
X145853585Y-77481485D01*
X145826211Y-77503952D01*
X145794983Y-77520643D01*
X145761092Y-77530924D01*
X145719709Y-77535000D01*
X145119491Y-77535000D01*
X145078108Y-77530924D01*
X145044217Y-77520643D01*
X145012989Y-77503952D01*
X144985615Y-77481485D01*
X144963148Y-77454111D01*
X144946457Y-77422883D01*
X144936176Y-77388992D01*
X144932100Y-77347609D01*
X144932100Y-76322391D01*
X144936176Y-76281008D01*
X144946457Y-76247117D01*
X144963148Y-76215889D01*
X144985615Y-76188515D01*
X145012989Y-76166048D01*
X145044217Y-76149357D01*
X145078108Y-76139076D01*
X145119491Y-76135000D01*
X145719709Y-76135000D01*
X145761092Y-76139076D01*
X145761092Y-76139076D01*
G37*
G36*
X147636092Y-76139076D02*
G01*
X147669983Y-76149357D01*
X147701211Y-76166048D01*
X147728585Y-76188515D01*
X147751052Y-76215889D01*
X147767743Y-76247117D01*
X147778024Y-76281008D01*
X147782100Y-76322391D01*
X147782100Y-77347609D01*
X147778024Y-77388992D01*
X147767743Y-77422883D01*
X147751052Y-77454111D01*
X147728585Y-77481485D01*
X147701211Y-77503952D01*
X147669983Y-77520643D01*
X147636092Y-77530924D01*
X147594709Y-77535000D01*
X146994491Y-77535000D01*
X146953108Y-77530924D01*
X146919217Y-77520643D01*
X146887989Y-77503952D01*
X146860615Y-77481485D01*
X146838148Y-77454111D01*
X146821457Y-77422883D01*
X146811176Y-77388992D01*
X146807100Y-77347609D01*
X146807100Y-76322391D01*
X146811176Y-76281008D01*
X146821457Y-76247117D01*
X146838148Y-76215889D01*
X146860615Y-76188515D01*
X146887989Y-76166048D01*
X146919217Y-76149357D01*
X146953108Y-76139076D01*
X146994491Y-76135000D01*
X147594709Y-76135000D01*
X147636092Y-76139076D01*
X147636092Y-76139076D01*
G37*
G36*
X156487200Y-77526000D02*
G01*
X154687200Y-77526000D01*
X154687200Y-71826000D01*
X156487200Y-71826000D01*
X156487200Y-77526000D01*
X156487200Y-77526000D01*
G37*
G36*
X161187200Y-77526000D02*
G01*
X159387200Y-77526000D01*
X159387200Y-71826000D01*
X161187200Y-71826000D01*
X161187200Y-77526000D01*
X161187200Y-77526000D01*
G37*
G36*
X131870718Y-75648811D02*
G01*
X131943167Y-75663222D01*
X131999703Y-75686640D01*
X132079657Y-75719758D01*
X132202500Y-75801839D01*
X132306961Y-75906300D01*
X132389042Y-76029143D01*
X132397764Y-76050200D01*
X132445578Y-76165633D01*
X132459989Y-76238082D01*
X132474400Y-76310530D01*
X132474400Y-76458270D01*
X132445578Y-76603166D01*
X132389042Y-76739657D01*
X132306961Y-76862500D01*
X132202500Y-76966961D01*
X132079657Y-77049042D01*
X131999703Y-77082160D01*
X131943167Y-77105578D01*
X131870718Y-77119989D01*
X131798270Y-77134400D01*
X131650530Y-77134400D01*
X131578082Y-77119989D01*
X131505633Y-77105578D01*
X131449097Y-77082160D01*
X131369143Y-77049042D01*
X131246300Y-76966961D01*
X131141839Y-76862500D01*
X131059758Y-76739657D01*
X131003222Y-76603166D01*
X130974400Y-76458270D01*
X130974400Y-76310530D01*
X130988811Y-76238082D01*
X131003222Y-76165633D01*
X131051036Y-76050200D01*
X131059758Y-76029143D01*
X131141839Y-75906300D01*
X131246300Y-75801839D01*
X131369143Y-75719758D01*
X131449097Y-75686640D01*
X131505633Y-75663222D01*
X131578082Y-75648811D01*
X131650530Y-75634400D01*
X131798270Y-75634400D01*
X131870718Y-75648811D01*
X131870718Y-75648811D01*
G37*
G36*
X138272792Y-75079276D02*
G01*
X138306683Y-75089557D01*
X138337911Y-75106248D01*
X138365285Y-75128715D01*
X138387752Y-75156089D01*
X138404443Y-75187317D01*
X138414724Y-75221208D01*
X138418800Y-75262591D01*
X138418800Y-75862809D01*
X138414724Y-75904192D01*
X138404443Y-75938083D01*
X138387752Y-75969311D01*
X138365285Y-75996685D01*
X138337911Y-76019152D01*
X138306683Y-76035843D01*
X138272792Y-76046124D01*
X138231409Y-76050200D01*
X137206191Y-76050200D01*
X137164808Y-76046124D01*
X137130917Y-76035843D01*
X137099689Y-76019152D01*
X137072315Y-75996685D01*
X137049848Y-75969311D01*
X137033157Y-75938083D01*
X137022876Y-75904192D01*
X137018800Y-75862809D01*
X137018800Y-75262591D01*
X137022876Y-75221208D01*
X137033157Y-75187317D01*
X137049848Y-75156089D01*
X137072315Y-75128715D01*
X137099689Y-75106248D01*
X137130917Y-75089557D01*
X137164808Y-75079276D01*
X137206191Y-75075200D01*
X138231409Y-75075200D01*
X138272792Y-75079276D01*
X138272792Y-75079276D01*
G37*
G36*
X147557592Y-74081676D02*
G01*
X147591483Y-74091957D01*
X147622711Y-74108648D01*
X147650085Y-74131115D01*
X147672552Y-74158489D01*
X147689243Y-74189717D01*
X147699524Y-74223608D01*
X147703600Y-74264991D01*
X147703600Y-75290209D01*
X147699524Y-75331592D01*
X147689243Y-75365483D01*
X147672552Y-75396711D01*
X147650085Y-75424085D01*
X147622711Y-75446552D01*
X147591483Y-75463243D01*
X147557592Y-75473524D01*
X147516209Y-75477600D01*
X146915991Y-75477600D01*
X146874608Y-75473524D01*
X146840717Y-75463243D01*
X146809489Y-75446552D01*
X146782115Y-75424085D01*
X146759648Y-75396711D01*
X146742957Y-75365483D01*
X146732676Y-75331592D01*
X146728600Y-75290209D01*
X146728600Y-74264991D01*
X146732676Y-74223608D01*
X146742957Y-74189717D01*
X146759648Y-74158489D01*
X146782115Y-74131115D01*
X146809489Y-74108648D01*
X146840717Y-74091957D01*
X146874608Y-74081676D01*
X146915991Y-74077600D01*
X147516209Y-74077600D01*
X147557592Y-74081676D01*
X147557592Y-74081676D01*
G37*
G36*
X145682592Y-74081676D02*
G01*
X145716483Y-74091957D01*
X145747711Y-74108648D01*
X145775085Y-74131115D01*
X145797552Y-74158489D01*
X145814243Y-74189717D01*
X145824524Y-74223608D01*
X145828600Y-74264991D01*
X145828600Y-75290209D01*
X145824524Y-75331592D01*
X145814243Y-75365483D01*
X145797552Y-75396711D01*
X145775085Y-75424085D01*
X145747711Y-75446552D01*
X145716483Y-75463243D01*
X145682592Y-75473524D01*
X145641209Y-75477600D01*
X145040991Y-75477600D01*
X144999608Y-75473524D01*
X144965717Y-75463243D01*
X144934489Y-75446552D01*
X144907115Y-75424085D01*
X144884648Y-75396711D01*
X144867957Y-75365483D01*
X144857676Y-75331592D01*
X144853600Y-75290209D01*
X144853600Y-74264991D01*
X144857676Y-74223608D01*
X144867957Y-74189717D01*
X144884648Y-74158489D01*
X144907115Y-74131115D01*
X144934489Y-74108648D01*
X144965717Y-74091957D01*
X144999608Y-74081676D01*
X145040991Y-74077600D01*
X145641209Y-74077600D01*
X145682592Y-74081676D01*
X145682592Y-74081676D01*
G37*
G36*
X131900170Y-73299772D02*
G01*
X132016089Y-73322829D01*
X132198078Y-73398211D01*
X132361863Y-73507649D01*
X132501151Y-73646937D01*
X132610589Y-73810722D01*
X132685971Y-73992711D01*
X132700722Y-74066870D01*
X132718580Y-74156646D01*
X132724400Y-74185909D01*
X132724400Y-74382891D01*
X132685971Y-74576089D01*
X132610589Y-74758078D01*
X132501151Y-74921863D01*
X132361863Y-75061151D01*
X132198078Y-75170589D01*
X132016089Y-75245971D01*
X131900170Y-75269028D01*
X131822893Y-75284400D01*
X131625907Y-75284400D01*
X131548630Y-75269028D01*
X131432711Y-75245971D01*
X131250722Y-75170589D01*
X131086937Y-75061151D01*
X130947649Y-74921863D01*
X130838211Y-74758078D01*
X130762829Y-74576089D01*
X130724400Y-74382891D01*
X130724400Y-74185909D01*
X130730221Y-74156646D01*
X130748078Y-74066870D01*
X130762829Y-73992711D01*
X130838211Y-73810722D01*
X130947649Y-73646937D01*
X131086937Y-73507649D01*
X131250722Y-73398211D01*
X131432711Y-73322829D01*
X131548630Y-73299772D01*
X131625907Y-73284400D01*
X131822893Y-73284400D01*
X131900170Y-73299772D01*
X131900170Y-73299772D01*
G37*
G36*
X140577192Y-73472076D02*
G01*
X140611083Y-73482357D01*
X140642311Y-73499048D01*
X140669685Y-73521515D01*
X140692152Y-73548889D01*
X140708843Y-73580117D01*
X140719124Y-73614008D01*
X140723200Y-73655391D01*
X140723200Y-74680609D01*
X140719124Y-74721992D01*
X140708843Y-74755883D01*
X140692152Y-74787111D01*
X140669685Y-74814485D01*
X140642311Y-74836952D01*
X140611083Y-74853643D01*
X140577192Y-74863924D01*
X140535809Y-74868000D01*
X139935591Y-74868000D01*
X139894208Y-74863924D01*
X139860317Y-74853643D01*
X139829089Y-74836952D01*
X139801715Y-74814485D01*
X139779248Y-74787111D01*
X139762557Y-74755883D01*
X139752276Y-74721992D01*
X139748200Y-74680609D01*
X139748200Y-73655391D01*
X139752276Y-73614008D01*
X139762557Y-73580117D01*
X139779248Y-73548889D01*
X139801715Y-73521515D01*
X139829089Y-73499048D01*
X139860317Y-73482357D01*
X139894208Y-73472076D01*
X139935591Y-73468000D01*
X140535809Y-73468000D01*
X140577192Y-73472076D01*
X140577192Y-73472076D01*
G37*
G36*
X142452192Y-73472076D02*
G01*
X142486083Y-73482357D01*
X142517311Y-73499048D01*
X142544685Y-73521515D01*
X142567152Y-73548889D01*
X142583843Y-73580117D01*
X142594124Y-73614008D01*
X142598200Y-73655391D01*
X142598200Y-74680609D01*
X142594124Y-74721992D01*
X142583843Y-74755883D01*
X142567152Y-74787111D01*
X142544685Y-74814485D01*
X142517311Y-74836952D01*
X142486083Y-74853643D01*
X142452192Y-74863924D01*
X142410809Y-74868000D01*
X141810591Y-74868000D01*
X141769208Y-74863924D01*
X141735317Y-74853643D01*
X141704089Y-74836952D01*
X141676715Y-74814485D01*
X141654248Y-74787111D01*
X141637557Y-74755883D01*
X141627276Y-74721992D01*
X141623200Y-74680609D01*
X141623200Y-73655391D01*
X141627276Y-73614008D01*
X141637557Y-73580117D01*
X141654248Y-73548889D01*
X141676715Y-73521515D01*
X141704089Y-73499048D01*
X141735317Y-73482357D01*
X141769208Y-73472076D01*
X141810591Y-73468000D01*
X142410809Y-73468000D01*
X142452192Y-73472076D01*
X142452192Y-73472076D01*
G37*
G36*
X138272792Y-73204276D02*
G01*
X138306683Y-73214557D01*
X138337911Y-73231248D01*
X138365285Y-73253715D01*
X138387752Y-73281089D01*
X138404443Y-73312317D01*
X138414724Y-73346208D01*
X138418800Y-73387591D01*
X138418800Y-73987809D01*
X138414724Y-74029192D01*
X138404443Y-74063083D01*
X138387752Y-74094311D01*
X138365285Y-74121685D01*
X138337911Y-74144152D01*
X138306683Y-74160843D01*
X138272792Y-74171124D01*
X138231409Y-74175200D01*
X137206191Y-74175200D01*
X137164808Y-74171124D01*
X137130917Y-74160843D01*
X137099689Y-74144152D01*
X137072315Y-74121685D01*
X137049848Y-74094311D01*
X137033157Y-74063083D01*
X137022876Y-74029192D01*
X137018800Y-73987809D01*
X137018800Y-73387591D01*
X137022876Y-73346208D01*
X137033157Y-73312317D01*
X137049848Y-73281089D01*
X137072315Y-73253715D01*
X137099689Y-73231248D01*
X137130917Y-73214557D01*
X137164808Y-73204276D01*
X137206191Y-73200200D01*
X138231409Y-73200200D01*
X138272792Y-73204276D01*
X138272792Y-73204276D01*
G37*
G36*
X178598800Y-73698000D02*
G01*
X177198800Y-73698000D01*
X177198800Y-72098000D01*
X178598800Y-72098000D01*
X178598800Y-73698000D01*
X178598800Y-73698000D01*
G37*
G36*
X181598800Y-73698000D02*
G01*
X180198800Y-73698000D01*
X180198800Y-72098000D01*
X181598800Y-72098000D01*
X181598800Y-73698000D01*
X181598800Y-73698000D01*
G37*
G36*
X171636800Y-73654000D02*
G01*
X170236800Y-73654000D01*
X170236800Y-72054000D01*
X171636800Y-72054000D01*
X171636800Y-73654000D01*
X171636800Y-73654000D01*
G37*
G36*
X168636800Y-73654000D02*
G01*
X167236800Y-73654000D01*
X167236800Y-72054000D01*
X168636800Y-72054000D01*
X168636800Y-73654000D01*
X168636800Y-73654000D01*
G37*
G36*
X147557592Y-72202076D02*
G01*
X147591483Y-72212357D01*
X147622711Y-72229048D01*
X147650085Y-72251515D01*
X147672552Y-72278889D01*
X147689243Y-72310117D01*
X147699524Y-72344008D01*
X147703600Y-72385391D01*
X147703600Y-73410609D01*
X147699524Y-73451992D01*
X147689243Y-73485883D01*
X147672552Y-73517111D01*
X147650085Y-73544485D01*
X147622711Y-73566952D01*
X147591483Y-73583643D01*
X147557592Y-73593924D01*
X147516209Y-73598000D01*
X146915991Y-73598000D01*
X146874608Y-73593924D01*
X146840717Y-73583643D01*
X146809489Y-73566952D01*
X146782115Y-73544485D01*
X146759648Y-73517111D01*
X146742957Y-73485883D01*
X146732676Y-73451992D01*
X146728600Y-73410609D01*
X146728600Y-72385391D01*
X146732676Y-72344008D01*
X146742957Y-72310117D01*
X146759648Y-72278889D01*
X146782115Y-72251515D01*
X146809489Y-72229048D01*
X146840717Y-72212357D01*
X146874608Y-72202076D01*
X146915991Y-72198000D01*
X147516209Y-72198000D01*
X147557592Y-72202076D01*
X147557592Y-72202076D01*
G37*
G36*
X145682592Y-72202076D02*
G01*
X145716483Y-72212357D01*
X145747711Y-72229048D01*
X145775085Y-72251515D01*
X145797552Y-72278889D01*
X145814243Y-72310117D01*
X145824524Y-72344008D01*
X145828600Y-72385391D01*
X145828600Y-73410609D01*
X145824524Y-73451992D01*
X145814243Y-73485883D01*
X145797552Y-73517111D01*
X145775085Y-73544485D01*
X145747711Y-73566952D01*
X145716483Y-73583643D01*
X145682592Y-73593924D01*
X145641209Y-73598000D01*
X145040991Y-73598000D01*
X144999608Y-73593924D01*
X144965717Y-73583643D01*
X144934489Y-73566952D01*
X144907115Y-73544485D01*
X144884648Y-73517111D01*
X144867957Y-73485883D01*
X144857676Y-73451992D01*
X144853600Y-73410609D01*
X144853600Y-72385391D01*
X144857676Y-72344008D01*
X144867957Y-72310117D01*
X144884648Y-72278889D01*
X144907115Y-72251515D01*
X144934489Y-72229048D01*
X144965717Y-72212357D01*
X144999608Y-72202076D01*
X145040991Y-72198000D01*
X145641209Y-72198000D01*
X145682592Y-72202076D01*
X145682592Y-72202076D01*
G37*
G36*
X147483692Y-69992276D02*
G01*
X147517583Y-70002557D01*
X147548811Y-70019248D01*
X147576185Y-70041715D01*
X147598652Y-70069089D01*
X147615343Y-70100317D01*
X147625624Y-70134208D01*
X147629700Y-70175591D01*
X147629700Y-71200809D01*
X147625624Y-71242192D01*
X147615343Y-71276083D01*
X147598652Y-71307311D01*
X147576185Y-71334685D01*
X147548811Y-71357152D01*
X147517583Y-71373843D01*
X147483692Y-71384124D01*
X147442309Y-71388200D01*
X146842091Y-71388200D01*
X146800708Y-71384124D01*
X146766817Y-71373843D01*
X146735589Y-71357152D01*
X146708215Y-71334685D01*
X146685748Y-71307311D01*
X146669057Y-71276083D01*
X146658776Y-71242192D01*
X146654700Y-71200809D01*
X146654700Y-70175591D01*
X146658776Y-70134208D01*
X146669057Y-70100317D01*
X146685748Y-70069089D01*
X146708215Y-70041715D01*
X146735589Y-70019248D01*
X146766817Y-70002557D01*
X146800708Y-69992276D01*
X146842091Y-69988200D01*
X147442309Y-69988200D01*
X147483692Y-69992276D01*
X147483692Y-69992276D01*
G37*
G36*
X145608692Y-69992276D02*
G01*
X145642583Y-70002557D01*
X145673811Y-70019248D01*
X145701185Y-70041715D01*
X145723652Y-70069089D01*
X145740343Y-70100317D01*
X145750624Y-70134208D01*
X145754700Y-70175591D01*
X145754700Y-71200809D01*
X145750624Y-71242192D01*
X145740343Y-71276083D01*
X145723652Y-71307311D01*
X145701185Y-71334685D01*
X145673811Y-71357152D01*
X145642583Y-71373843D01*
X145608692Y-71384124D01*
X145567309Y-71388200D01*
X144967091Y-71388200D01*
X144925708Y-71384124D01*
X144891817Y-71373843D01*
X144860589Y-71357152D01*
X144833215Y-71334685D01*
X144810748Y-71307311D01*
X144794057Y-71276083D01*
X144783776Y-71242192D01*
X144779700Y-71200809D01*
X144779700Y-70175591D01*
X144783776Y-70134208D01*
X144794057Y-70100317D01*
X144810748Y-70069089D01*
X144833215Y-70041715D01*
X144860589Y-70019248D01*
X144891817Y-70002557D01*
X144925708Y-69992276D01*
X144967091Y-69988200D01*
X145567309Y-69988200D01*
X145608692Y-69992276D01*
X145608692Y-69992276D01*
G37*
G36*
X136813392Y-69814476D02*
G01*
X136847283Y-69824757D01*
X136878511Y-69841448D01*
X136905885Y-69863915D01*
X136928352Y-69891289D01*
X136945043Y-69922517D01*
X136955324Y-69956408D01*
X136959400Y-69997791D01*
X136959400Y-71023009D01*
X136955324Y-71064392D01*
X136945043Y-71098283D01*
X136928352Y-71129511D01*
X136905885Y-71156885D01*
X136878511Y-71179352D01*
X136847283Y-71196043D01*
X136813392Y-71206324D01*
X136772009Y-71210400D01*
X136171791Y-71210400D01*
X136130408Y-71206324D01*
X136096517Y-71196043D01*
X136065289Y-71179352D01*
X136037915Y-71156885D01*
X136015448Y-71129511D01*
X135998757Y-71098283D01*
X135988476Y-71064392D01*
X135984400Y-71023009D01*
X135984400Y-69997791D01*
X135988476Y-69956408D01*
X135998757Y-69922517D01*
X136015448Y-69891289D01*
X136037915Y-69863915D01*
X136065289Y-69841448D01*
X136096517Y-69824757D01*
X136130408Y-69814476D01*
X136171791Y-69810400D01*
X136772009Y-69810400D01*
X136813392Y-69814476D01*
X136813392Y-69814476D01*
G37*
G36*
X134938392Y-69814476D02*
G01*
X134972283Y-69824757D01*
X135003511Y-69841448D01*
X135030885Y-69863915D01*
X135053352Y-69891289D01*
X135070043Y-69922517D01*
X135080324Y-69956408D01*
X135084400Y-69997791D01*
X135084400Y-71023009D01*
X135080324Y-71064392D01*
X135070043Y-71098283D01*
X135053352Y-71129511D01*
X135030885Y-71156885D01*
X135003511Y-71179352D01*
X134972283Y-71196043D01*
X134938392Y-71206324D01*
X134897009Y-71210400D01*
X134296791Y-71210400D01*
X134255408Y-71206324D01*
X134221517Y-71196043D01*
X134190289Y-71179352D01*
X134162915Y-71156885D01*
X134140448Y-71129511D01*
X134123757Y-71098283D01*
X134113476Y-71064392D01*
X134109400Y-71023009D01*
X134109400Y-69997791D01*
X134113476Y-69956408D01*
X134123757Y-69922517D01*
X134140448Y-69891289D01*
X134162915Y-69863915D01*
X134190289Y-69841448D01*
X134221517Y-69824757D01*
X134255408Y-69814476D01*
X134296791Y-69810400D01*
X134897009Y-69810400D01*
X134938392Y-69814476D01*
X134938392Y-69814476D01*
G37*
G36*
X139711292Y-69712876D02*
G01*
X139745183Y-69723157D01*
X139776411Y-69739848D01*
X139803785Y-69762315D01*
X139826252Y-69789689D01*
X139842943Y-69820917D01*
X139853224Y-69854808D01*
X139857300Y-69896191D01*
X139857300Y-70921409D01*
X139853224Y-70962792D01*
X139842943Y-70996683D01*
X139826252Y-71027911D01*
X139803785Y-71055285D01*
X139776411Y-71077752D01*
X139745183Y-71094443D01*
X139711292Y-71104724D01*
X139669909Y-71108800D01*
X139069691Y-71108800D01*
X139028308Y-71104724D01*
X138994417Y-71094443D01*
X138963189Y-71077752D01*
X138935815Y-71055285D01*
X138913348Y-71027911D01*
X138896657Y-70996683D01*
X138886376Y-70962792D01*
X138882300Y-70921409D01*
X138882300Y-69896191D01*
X138886376Y-69854808D01*
X138896657Y-69820917D01*
X138913348Y-69789689D01*
X138935815Y-69762315D01*
X138963189Y-69739848D01*
X138994417Y-69723157D01*
X139028308Y-69712876D01*
X139069691Y-69708800D01*
X139669909Y-69708800D01*
X139711292Y-69712876D01*
X139711292Y-69712876D01*
G37*
G36*
X141586292Y-69712876D02*
G01*
X141620183Y-69723157D01*
X141651411Y-69739848D01*
X141678785Y-69762315D01*
X141701252Y-69789689D01*
X141717943Y-69820917D01*
X141728224Y-69854808D01*
X141732300Y-69896191D01*
X141732300Y-70921409D01*
X141728224Y-70962792D01*
X141717943Y-70996683D01*
X141701252Y-71027911D01*
X141678785Y-71055285D01*
X141651411Y-71077752D01*
X141620183Y-71094443D01*
X141586292Y-71104724D01*
X141544909Y-71108800D01*
X140944691Y-71108800D01*
X140903308Y-71104724D01*
X140869417Y-71094443D01*
X140838189Y-71077752D01*
X140810815Y-71055285D01*
X140788348Y-71027911D01*
X140771657Y-70996683D01*
X140761376Y-70962792D01*
X140757300Y-70921409D01*
X140757300Y-69896191D01*
X140761376Y-69854808D01*
X140771657Y-69820917D01*
X140788348Y-69789689D01*
X140810815Y-69762315D01*
X140838189Y-69739848D01*
X140869417Y-69723157D01*
X140903308Y-69712876D01*
X140944691Y-69708800D01*
X141544909Y-69708800D01*
X141586292Y-69712876D01*
X141586292Y-69712876D01*
G37*
G36*
X176536692Y-68900076D02*
G01*
X176570583Y-68910357D01*
X176601811Y-68927048D01*
X176629185Y-68949515D01*
X176651652Y-68976889D01*
X176668343Y-69008117D01*
X176678624Y-69042008D01*
X176682700Y-69083391D01*
X176682700Y-70108609D01*
X176678624Y-70149992D01*
X176668343Y-70183883D01*
X176651652Y-70215111D01*
X176629185Y-70242485D01*
X176601811Y-70264952D01*
X176570583Y-70281643D01*
X176536692Y-70291924D01*
X176495309Y-70296000D01*
X175895091Y-70296000D01*
X175853708Y-70291924D01*
X175819817Y-70281643D01*
X175788589Y-70264952D01*
X175761215Y-70242485D01*
X175738748Y-70215111D01*
X175722057Y-70183883D01*
X175711776Y-70149992D01*
X175707700Y-70108609D01*
X175707700Y-69083391D01*
X175711776Y-69042008D01*
X175722057Y-69008117D01*
X175738748Y-68976889D01*
X175761215Y-68949515D01*
X175788589Y-68927048D01*
X175819817Y-68910357D01*
X175853708Y-68900076D01*
X175895091Y-68896000D01*
X176495309Y-68896000D01*
X176536692Y-68900076D01*
X176536692Y-68900076D01*
G37*
G36*
X174661692Y-68900076D02*
G01*
X174695583Y-68910357D01*
X174726811Y-68927048D01*
X174754185Y-68949515D01*
X174776652Y-68976889D01*
X174793343Y-69008117D01*
X174803624Y-69042008D01*
X174807700Y-69083391D01*
X174807700Y-70108609D01*
X174803624Y-70149992D01*
X174793343Y-70183883D01*
X174776652Y-70215111D01*
X174754185Y-70242485D01*
X174726811Y-70264952D01*
X174695583Y-70281643D01*
X174661692Y-70291924D01*
X174620309Y-70296000D01*
X174020091Y-70296000D01*
X173978708Y-70291924D01*
X173944817Y-70281643D01*
X173913589Y-70264952D01*
X173886215Y-70242485D01*
X173863748Y-70215111D01*
X173847057Y-70183883D01*
X173836776Y-70149992D01*
X173832700Y-70108609D01*
X173832700Y-69083391D01*
X173836776Y-69042008D01*
X173847057Y-69008117D01*
X173863748Y-68976889D01*
X173886215Y-68949515D01*
X173913589Y-68927048D01*
X173944817Y-68910357D01*
X173978708Y-68900076D01*
X174020091Y-68896000D01*
X174620309Y-68896000D01*
X174661692Y-68900076D01*
X174661692Y-68900076D01*
G37*
G36*
X170216692Y-68773076D02*
G01*
X170250583Y-68783357D01*
X170281811Y-68800048D01*
X170309185Y-68822515D01*
X170331652Y-68849889D01*
X170348343Y-68881117D01*
X170358624Y-68915008D01*
X170362700Y-68956391D01*
X170362700Y-69981609D01*
X170358624Y-70022992D01*
X170348343Y-70056883D01*
X170331652Y-70088111D01*
X170309185Y-70115485D01*
X170281811Y-70137952D01*
X170250583Y-70154643D01*
X170216692Y-70164924D01*
X170175309Y-70169000D01*
X169575091Y-70169000D01*
X169533708Y-70164924D01*
X169499817Y-70154643D01*
X169468589Y-70137952D01*
X169441215Y-70115485D01*
X169418748Y-70088111D01*
X169402057Y-70056883D01*
X169391776Y-70022992D01*
X169387700Y-69981609D01*
X169387700Y-68956391D01*
X169391776Y-68915008D01*
X169402057Y-68881117D01*
X169418748Y-68849889D01*
X169441215Y-68822515D01*
X169468589Y-68800048D01*
X169499817Y-68783357D01*
X169533708Y-68773076D01*
X169575091Y-68769000D01*
X170175309Y-68769000D01*
X170216692Y-68773076D01*
X170216692Y-68773076D01*
G37*
G36*
X168341692Y-68773076D02*
G01*
X168375583Y-68783357D01*
X168406811Y-68800048D01*
X168434185Y-68822515D01*
X168456652Y-68849889D01*
X168473343Y-68881117D01*
X168483624Y-68915008D01*
X168487700Y-68956391D01*
X168487700Y-69981609D01*
X168483624Y-70022992D01*
X168473343Y-70056883D01*
X168456652Y-70088111D01*
X168434185Y-70115485D01*
X168406811Y-70137952D01*
X168375583Y-70154643D01*
X168341692Y-70164924D01*
X168300309Y-70169000D01*
X167700091Y-70169000D01*
X167658708Y-70164924D01*
X167624817Y-70154643D01*
X167593589Y-70137952D01*
X167566215Y-70115485D01*
X167543748Y-70088111D01*
X167527057Y-70056883D01*
X167516776Y-70022992D01*
X167512700Y-69981609D01*
X167512700Y-68956391D01*
X167516776Y-68915008D01*
X167527057Y-68881117D01*
X167543748Y-68849889D01*
X167566215Y-68822515D01*
X167593589Y-68800048D01*
X167624817Y-68783357D01*
X167658708Y-68773076D01*
X167700091Y-68769000D01*
X168300309Y-68769000D01*
X168341692Y-68773076D01*
X168341692Y-68773076D01*
G37*
G36*
X183509144Y-67650475D02*
G01*
X183537172Y-67658977D01*
X183562998Y-67672782D01*
X183585638Y-67691362D01*
X183604218Y-67714002D01*
X183618023Y-67739828D01*
X183626525Y-67767856D01*
X183630000Y-67803140D01*
X183630000Y-68340860D01*
X183626525Y-68376144D01*
X183618023Y-68404172D01*
X183604218Y-68429998D01*
X183585638Y-68452638D01*
X183562998Y-68471218D01*
X183537172Y-68485023D01*
X183509144Y-68493525D01*
X183473860Y-68497000D01*
X182286140Y-68497000D01*
X182250856Y-68493525D01*
X182222828Y-68485023D01*
X182197002Y-68471218D01*
X182174362Y-68452638D01*
X182155782Y-68429998D01*
X182141977Y-68404172D01*
X182133475Y-68376144D01*
X182130000Y-68340860D01*
X182130000Y-67803140D01*
X182133475Y-67767856D01*
X182141977Y-67739828D01*
X182155782Y-67714002D01*
X182174362Y-67691362D01*
X182197002Y-67672782D01*
X182222828Y-67658977D01*
X182250856Y-67650475D01*
X182286140Y-67647000D01*
X183473860Y-67647000D01*
X183509144Y-67650475D01*
X183509144Y-67650475D01*
G37*
G36*
X134249735Y-65152829D02*
G01*
X134346334Y-65172044D01*
X134619317Y-65285117D01*
X134821856Y-65420450D01*
X134864997Y-65449276D01*
X135073924Y-65658203D01*
X135073926Y-65658206D01*
X135093110Y-65686916D01*
X135238084Y-65903885D01*
X135351156Y-66176867D01*
X135408800Y-66466661D01*
X135408800Y-66762139D01*
X135380320Y-66905316D01*
X135351156Y-67051934D01*
X135238083Y-67324917D01*
X135160165Y-67441529D01*
X135073924Y-67570597D01*
X134864997Y-67779524D01*
X134864994Y-67779526D01*
X134619317Y-67943683D01*
X134346334Y-68056756D01*
X134249735Y-68075971D01*
X134056539Y-68114400D01*
X133761061Y-68114400D01*
X133567865Y-68075971D01*
X133471266Y-68056756D01*
X133198283Y-67943683D01*
X132952606Y-67779526D01*
X132952603Y-67779524D01*
X132743676Y-67570597D01*
X132657435Y-67441529D01*
X132579517Y-67324917D01*
X132466444Y-67051934D01*
X132437280Y-66905316D01*
X132408800Y-66762139D01*
X132408800Y-66466661D01*
X132466444Y-66176867D01*
X132579516Y-65903885D01*
X132724491Y-65686916D01*
X132743674Y-65658206D01*
X132743676Y-65658203D01*
X132952603Y-65449276D01*
X132995744Y-65420450D01*
X133198283Y-65285117D01*
X133471266Y-65172044D01*
X133567865Y-65152829D01*
X133761061Y-65114400D01*
X134056539Y-65114400D01*
X134249735Y-65152829D01*
X134249735Y-65152829D01*
G37*
G36*
X158287992Y-66621076D02*
G01*
X158321883Y-66631357D01*
X158353111Y-66648048D01*
X158380485Y-66670515D01*
X158402952Y-66697889D01*
X158419643Y-66729117D01*
X158429924Y-66763008D01*
X158434000Y-66804391D01*
X158434000Y-67404609D01*
X158429924Y-67445992D01*
X158419643Y-67479883D01*
X158402952Y-67511111D01*
X158380485Y-67538485D01*
X158353111Y-67560952D01*
X158321883Y-67577643D01*
X158287992Y-67587924D01*
X158246609Y-67592000D01*
X157221391Y-67592000D01*
X157180008Y-67587924D01*
X157146117Y-67577643D01*
X157114889Y-67560952D01*
X157087515Y-67538485D01*
X157065048Y-67511111D01*
X157048357Y-67479883D01*
X157038076Y-67445992D01*
X157034000Y-67404609D01*
X157034000Y-66804391D01*
X157038076Y-66763008D01*
X157048357Y-66729117D01*
X157065048Y-66697889D01*
X157087515Y-66670515D01*
X157114889Y-66648048D01*
X157146117Y-66631357D01*
X157180008Y-66621076D01*
X157221391Y-66617000D01*
X158246609Y-66617000D01*
X158287992Y-66621076D01*
X158287992Y-66621076D01*
G37*
G36*
X155620992Y-66595676D02*
G01*
X155654883Y-66605957D01*
X155686111Y-66622648D01*
X155713485Y-66645115D01*
X155735952Y-66672489D01*
X155752643Y-66703717D01*
X155762924Y-66737608D01*
X155767000Y-66778991D01*
X155767000Y-67379209D01*
X155762924Y-67420592D01*
X155752643Y-67454483D01*
X155735952Y-67485711D01*
X155713485Y-67513085D01*
X155686111Y-67535552D01*
X155654883Y-67552243D01*
X155620992Y-67562524D01*
X155579609Y-67566600D01*
X154554391Y-67566600D01*
X154513008Y-67562524D01*
X154479117Y-67552243D01*
X154447889Y-67535552D01*
X154420515Y-67513085D01*
X154398048Y-67485711D01*
X154381357Y-67454483D01*
X154371076Y-67420592D01*
X154367000Y-67379209D01*
X154367000Y-66778991D01*
X154371076Y-66737608D01*
X154381357Y-66703717D01*
X154398048Y-66672489D01*
X154420515Y-66645115D01*
X154447889Y-66622648D01*
X154479117Y-66605957D01*
X154513008Y-66595676D01*
X154554391Y-66591600D01*
X155579609Y-66591600D01*
X155620992Y-66595676D01*
X155620992Y-66595676D01*
G37*
G36*
X162859992Y-66595676D02*
G01*
X162893883Y-66605957D01*
X162925111Y-66622648D01*
X162952485Y-66645115D01*
X162974952Y-66672489D01*
X162991643Y-66703717D01*
X163001924Y-66737608D01*
X163006000Y-66778991D01*
X163006000Y-67379209D01*
X163001924Y-67420592D01*
X162991643Y-67454483D01*
X162974952Y-67485711D01*
X162952485Y-67513085D01*
X162925111Y-67535552D01*
X162893883Y-67552243D01*
X162859992Y-67562524D01*
X162818609Y-67566600D01*
X161793391Y-67566600D01*
X161752008Y-67562524D01*
X161718117Y-67552243D01*
X161686889Y-67535552D01*
X161659515Y-67513085D01*
X161637048Y-67485711D01*
X161620357Y-67454483D01*
X161610076Y-67420592D01*
X161606000Y-67379209D01*
X161606000Y-66778991D01*
X161610076Y-66737608D01*
X161620357Y-66703717D01*
X161637048Y-66672489D01*
X161659515Y-66645115D01*
X161686889Y-66622648D01*
X161718117Y-66605957D01*
X161752008Y-66595676D01*
X161793391Y-66591600D01*
X162818609Y-66591600D01*
X162859992Y-66595676D01*
X162859992Y-66595676D01*
G37*
G36*
X165145992Y-66595676D02*
G01*
X165179883Y-66605957D01*
X165211111Y-66622648D01*
X165238485Y-66645115D01*
X165260952Y-66672489D01*
X165277643Y-66703717D01*
X165287924Y-66737608D01*
X165292000Y-66778991D01*
X165292000Y-67379209D01*
X165287924Y-67420592D01*
X165277643Y-67454483D01*
X165260952Y-67485711D01*
X165238485Y-67513085D01*
X165211111Y-67535552D01*
X165179883Y-67552243D01*
X165145992Y-67562524D01*
X165104609Y-67566600D01*
X164079391Y-67566600D01*
X164038008Y-67562524D01*
X164004117Y-67552243D01*
X163972889Y-67535552D01*
X163945515Y-67513085D01*
X163923048Y-67485711D01*
X163906357Y-67454483D01*
X163896076Y-67420592D01*
X163892000Y-67379209D01*
X163892000Y-66778991D01*
X163896076Y-66737608D01*
X163906357Y-66703717D01*
X163923048Y-66672489D01*
X163945515Y-66645115D01*
X163972889Y-66622648D01*
X164004117Y-66605957D01*
X164038008Y-66595676D01*
X164079391Y-66591600D01*
X165104609Y-66591600D01*
X165145992Y-66595676D01*
X165145992Y-66595676D01*
G37*
G36*
X151195030Y-65786699D02*
G01*
X151355255Y-65835303D01*
X151502920Y-65914231D01*
X151632349Y-66020451D01*
X151738569Y-66149880D01*
X151817497Y-66297545D01*
X151866101Y-66457770D01*
X151882512Y-66624400D01*
X151866101Y-66791030D01*
X151817497Y-66951255D01*
X151738569Y-67098920D01*
X151632349Y-67228349D01*
X151502920Y-67334569D01*
X151355255Y-67413497D01*
X151195030Y-67462101D01*
X151070152Y-67474400D01*
X150986648Y-67474400D01*
X150861770Y-67462101D01*
X150701545Y-67413497D01*
X150553880Y-67334569D01*
X150424451Y-67228349D01*
X150318231Y-67098920D01*
X150239303Y-66951255D01*
X150190699Y-66791030D01*
X150174288Y-66624400D01*
X150190699Y-66457770D01*
X150239303Y-66297545D01*
X150318231Y-66149880D01*
X150424451Y-66020451D01*
X150553880Y-65914231D01*
X150701545Y-65835303D01*
X150861770Y-65786699D01*
X150986648Y-65774400D01*
X151070152Y-65774400D01*
X151195030Y-65786699D01*
X151195030Y-65786699D01*
G37*
G36*
X148655030Y-65786699D02*
G01*
X148815255Y-65835303D01*
X148962920Y-65914231D01*
X149092349Y-66020451D01*
X149198569Y-66149880D01*
X149277497Y-66297545D01*
X149326101Y-66457770D01*
X149342512Y-66624400D01*
X149326101Y-66791030D01*
X149277497Y-66951255D01*
X149198569Y-67098920D01*
X149092349Y-67228349D01*
X148962920Y-67334569D01*
X148815255Y-67413497D01*
X148655030Y-67462101D01*
X148530152Y-67474400D01*
X148446648Y-67474400D01*
X148321770Y-67462101D01*
X148161545Y-67413497D01*
X148013880Y-67334569D01*
X147884451Y-67228349D01*
X147778231Y-67098920D01*
X147699303Y-66951255D01*
X147650699Y-66791030D01*
X147634288Y-66624400D01*
X147650699Y-66457770D01*
X147699303Y-66297545D01*
X147778231Y-66149880D01*
X147884451Y-66020451D01*
X148013880Y-65914231D01*
X148161545Y-65835303D01*
X148321770Y-65786699D01*
X148446648Y-65774400D01*
X148530152Y-65774400D01*
X148655030Y-65786699D01*
X148655030Y-65786699D01*
G37*
G36*
X146115030Y-65786699D02*
G01*
X146275255Y-65835303D01*
X146422920Y-65914231D01*
X146552349Y-66020451D01*
X146658569Y-66149880D01*
X146737497Y-66297545D01*
X146786101Y-66457770D01*
X146802512Y-66624400D01*
X146786101Y-66791030D01*
X146737497Y-66951255D01*
X146658569Y-67098920D01*
X146552349Y-67228349D01*
X146422920Y-67334569D01*
X146275255Y-67413497D01*
X146115030Y-67462101D01*
X145990152Y-67474400D01*
X145906648Y-67474400D01*
X145781770Y-67462101D01*
X145621545Y-67413497D01*
X145473880Y-67334569D01*
X145344451Y-67228349D01*
X145238231Y-67098920D01*
X145159303Y-66951255D01*
X145110699Y-66791030D01*
X145094288Y-66624400D01*
X145110699Y-66457770D01*
X145159303Y-66297545D01*
X145238231Y-66149880D01*
X145344451Y-66020451D01*
X145473880Y-65914231D01*
X145621545Y-65835303D01*
X145781770Y-65786699D01*
X145906648Y-65774400D01*
X145990152Y-65774400D01*
X146115030Y-65786699D01*
X146115030Y-65786699D01*
G37*
G36*
X144258400Y-67474400D02*
G01*
X142558400Y-67474400D01*
X142558400Y-65774400D01*
X144258400Y-65774400D01*
X144258400Y-67474400D01*
X144258400Y-67474400D01*
G37*
G36*
X183288316Y-66403149D02*
G01*
X183368427Y-66427451D01*
X183442257Y-66466914D01*
X183442258Y-66466915D01*
X183442260Y-66466916D01*
X183506974Y-66520026D01*
X183538098Y-66557950D01*
X183560086Y-66584743D01*
X183599549Y-66658573D01*
X183623851Y-66738684D01*
X183632056Y-66822000D01*
X183623851Y-66905316D01*
X183599549Y-66985427D01*
X183564000Y-67051934D01*
X183560084Y-67059260D01*
X183506974Y-67123974D01*
X183442260Y-67177084D01*
X183442258Y-67177085D01*
X183442257Y-67177086D01*
X183368427Y-67216549D01*
X183288316Y-67240851D01*
X183225878Y-67247000D01*
X182534122Y-67247000D01*
X182471684Y-67240851D01*
X182391573Y-67216549D01*
X182317743Y-67177086D01*
X182317742Y-67177085D01*
X182317740Y-67177084D01*
X182253026Y-67123974D01*
X182199916Y-67059260D01*
X182196000Y-67051934D01*
X182160451Y-66985427D01*
X182136149Y-66905316D01*
X182127944Y-66822000D01*
X182136149Y-66738684D01*
X182160451Y-66658573D01*
X182199914Y-66584743D01*
X182221903Y-66557950D01*
X182253026Y-66520026D01*
X182317740Y-66466916D01*
X182317742Y-66466915D01*
X182317743Y-66466914D01*
X182391573Y-66427451D01*
X182471684Y-66403149D01*
X182534122Y-66397000D01*
X183225878Y-66397000D01*
X183288316Y-66403149D01*
X183288316Y-66403149D01*
G37*
G36*
X174794316Y-66342795D02*
G01*
X174823513Y-66351652D01*
X174850418Y-66366033D01*
X174874008Y-66385392D01*
X174893367Y-66408982D01*
X174907748Y-66435887D01*
X174916605Y-66465084D01*
X174920200Y-66501590D01*
X174920200Y-67051810D01*
X174916605Y-67088316D01*
X174907748Y-67117513D01*
X174893367Y-67144418D01*
X174874008Y-67168008D01*
X174850418Y-67187367D01*
X174823513Y-67201748D01*
X174794316Y-67210605D01*
X174757810Y-67214200D01*
X174132590Y-67214200D01*
X174096084Y-67210605D01*
X174066887Y-67201748D01*
X174039982Y-67187367D01*
X174016392Y-67168008D01*
X173997033Y-67144418D01*
X173982652Y-67117513D01*
X173973795Y-67088316D01*
X173970200Y-67051810D01*
X173970200Y-66501590D01*
X173973795Y-66465084D01*
X173982652Y-66435887D01*
X173997033Y-66408982D01*
X174016392Y-66385392D01*
X174039982Y-66366033D01*
X174066887Y-66351652D01*
X174096084Y-66342795D01*
X174132590Y-66339200D01*
X174757810Y-66339200D01*
X174794316Y-66342795D01*
X174794316Y-66342795D01*
G37*
G36*
X177232716Y-66342795D02*
G01*
X177261913Y-66351652D01*
X177288818Y-66366033D01*
X177312408Y-66385392D01*
X177331767Y-66408982D01*
X177346148Y-66435887D01*
X177355005Y-66465084D01*
X177358600Y-66501590D01*
X177358600Y-67051810D01*
X177355005Y-67088316D01*
X177346148Y-67117513D01*
X177331767Y-67144418D01*
X177312408Y-67168008D01*
X177288818Y-67187367D01*
X177261913Y-67201748D01*
X177232716Y-67210605D01*
X177196210Y-67214200D01*
X176570990Y-67214200D01*
X176534484Y-67210605D01*
X176505287Y-67201748D01*
X176478382Y-67187367D01*
X176454792Y-67168008D01*
X176435433Y-67144418D01*
X176421052Y-67117513D01*
X176412195Y-67088316D01*
X176408600Y-67051810D01*
X176408600Y-66501590D01*
X176412195Y-66465084D01*
X176421052Y-66435887D01*
X176435433Y-66408982D01*
X176454792Y-66385392D01*
X176478382Y-66366033D01*
X176505287Y-66351652D01*
X176534484Y-66342795D01*
X176570990Y-66339200D01*
X177196210Y-66339200D01*
X177232716Y-66342795D01*
X177232716Y-66342795D01*
G37*
G36*
X172355916Y-66342795D02*
G01*
X172385113Y-66351652D01*
X172412018Y-66366033D01*
X172435608Y-66385392D01*
X172454967Y-66408982D01*
X172469348Y-66435887D01*
X172478205Y-66465084D01*
X172481800Y-66501590D01*
X172481800Y-67051810D01*
X172478205Y-67088316D01*
X172469348Y-67117513D01*
X172454967Y-67144418D01*
X172435608Y-67168008D01*
X172412018Y-67187367D01*
X172385113Y-67201748D01*
X172355916Y-67210605D01*
X172319410Y-67214200D01*
X171694190Y-67214200D01*
X171657684Y-67210605D01*
X171628487Y-67201748D01*
X171601582Y-67187367D01*
X171577992Y-67168008D01*
X171558633Y-67144418D01*
X171544252Y-67117513D01*
X171535395Y-67088316D01*
X171531800Y-67051810D01*
X171531800Y-66501590D01*
X171535395Y-66465084D01*
X171544252Y-66435887D01*
X171558633Y-66408982D01*
X171577992Y-66385392D01*
X171601582Y-66366033D01*
X171628487Y-66351652D01*
X171657684Y-66342795D01*
X171694190Y-66339200D01*
X172319410Y-66339200D01*
X172355916Y-66342795D01*
X172355916Y-66342795D01*
G37*
G36*
X179786873Y-65545592D02*
G01*
X179923767Y-65572822D01*
X179948990Y-65583270D01*
X180060257Y-65629358D01*
X180183100Y-65711439D01*
X180287561Y-65815900D01*
X180369642Y-65938743D01*
X180426178Y-66075234D01*
X180455000Y-66220130D01*
X180455000Y-66367870D01*
X180447982Y-66403149D01*
X180426178Y-66512767D01*
X180423171Y-66520026D01*
X180369642Y-66649257D01*
X180287561Y-66772100D01*
X180183100Y-66876561D01*
X180060257Y-66958642D01*
X179995592Y-66985427D01*
X179923767Y-67015178D01*
X179851318Y-67029589D01*
X179778870Y-67044000D01*
X179631130Y-67044000D01*
X179558682Y-67029589D01*
X179486233Y-67015178D01*
X179414408Y-66985427D01*
X179349743Y-66958642D01*
X179226900Y-66876561D01*
X179122439Y-66772100D01*
X179040358Y-66649257D01*
X178986829Y-66520026D01*
X178983822Y-66512767D01*
X178962018Y-66403149D01*
X178955000Y-66367870D01*
X178955000Y-66220130D01*
X178983822Y-66075234D01*
X179040358Y-65938743D01*
X179122439Y-65815900D01*
X179226900Y-65711439D01*
X179349743Y-65629358D01*
X179461010Y-65583270D01*
X179486233Y-65572822D01*
X179623127Y-65545592D01*
X179631130Y-65544000D01*
X179778870Y-65544000D01*
X179786873Y-65545592D01*
X179786873Y-65545592D01*
G37*
G36*
X158287992Y-64746076D02*
G01*
X158321883Y-64756357D01*
X158353111Y-64773048D01*
X158380485Y-64795515D01*
X158402952Y-64822889D01*
X158419643Y-64854117D01*
X158429924Y-64888008D01*
X158434000Y-64929391D01*
X158434000Y-65529609D01*
X158429924Y-65570992D01*
X158419643Y-65604883D01*
X158402952Y-65636111D01*
X158380485Y-65663485D01*
X158353111Y-65685952D01*
X158321883Y-65702643D01*
X158287992Y-65712924D01*
X158246609Y-65717000D01*
X157221391Y-65717000D01*
X157180008Y-65712924D01*
X157146117Y-65702643D01*
X157114889Y-65685952D01*
X157087515Y-65663485D01*
X157065048Y-65636111D01*
X157048357Y-65604883D01*
X157038076Y-65570992D01*
X157034000Y-65529609D01*
X157034000Y-64929391D01*
X157038076Y-64888008D01*
X157048357Y-64854117D01*
X157065048Y-64822889D01*
X157087515Y-64795515D01*
X157114889Y-64773048D01*
X157146117Y-64756357D01*
X157180008Y-64746076D01*
X157221391Y-64742000D01*
X158246609Y-64742000D01*
X158287992Y-64746076D01*
X158287992Y-64746076D01*
G37*
G36*
X165145992Y-64720676D02*
G01*
X165179883Y-64730957D01*
X165211111Y-64747648D01*
X165238485Y-64770115D01*
X165260952Y-64797489D01*
X165277643Y-64828717D01*
X165287924Y-64862608D01*
X165292000Y-64903991D01*
X165292000Y-65504209D01*
X165287924Y-65545592D01*
X165277643Y-65579483D01*
X165260952Y-65610711D01*
X165238485Y-65638085D01*
X165211111Y-65660552D01*
X165179883Y-65677243D01*
X165145992Y-65687524D01*
X165104609Y-65691600D01*
X164079391Y-65691600D01*
X164038008Y-65687524D01*
X164004117Y-65677243D01*
X163972889Y-65660552D01*
X163945515Y-65638085D01*
X163923048Y-65610711D01*
X163906357Y-65579483D01*
X163896076Y-65545592D01*
X163892000Y-65504209D01*
X163892000Y-64903991D01*
X163896076Y-64862608D01*
X163906357Y-64828717D01*
X163923048Y-64797489D01*
X163945515Y-64770115D01*
X163972889Y-64747648D01*
X164004117Y-64730957D01*
X164038008Y-64720676D01*
X164079391Y-64716600D01*
X165104609Y-64716600D01*
X165145992Y-64720676D01*
X165145992Y-64720676D01*
G37*
G36*
X162859992Y-64720676D02*
G01*
X162893883Y-64730957D01*
X162925111Y-64747648D01*
X162952485Y-64770115D01*
X162974952Y-64797489D01*
X162991643Y-64828717D01*
X163001924Y-64862608D01*
X163006000Y-64903991D01*
X163006000Y-65504209D01*
X163001924Y-65545592D01*
X162991643Y-65579483D01*
X162974952Y-65610711D01*
X162952485Y-65638085D01*
X162925111Y-65660552D01*
X162893883Y-65677243D01*
X162859992Y-65687524D01*
X162818609Y-65691600D01*
X161793391Y-65691600D01*
X161752008Y-65687524D01*
X161718117Y-65677243D01*
X161686889Y-65660552D01*
X161659515Y-65638085D01*
X161637048Y-65610711D01*
X161620357Y-65579483D01*
X161610076Y-65545592D01*
X161606000Y-65504209D01*
X161606000Y-64903991D01*
X161610076Y-64862608D01*
X161620357Y-64828717D01*
X161637048Y-64797489D01*
X161659515Y-64770115D01*
X161686889Y-64747648D01*
X161718117Y-64730957D01*
X161752008Y-64720676D01*
X161793391Y-64716600D01*
X162818609Y-64716600D01*
X162859992Y-64720676D01*
X162859992Y-64720676D01*
G37*
G36*
X155620992Y-64720676D02*
G01*
X155654883Y-64730957D01*
X155686111Y-64747648D01*
X155713485Y-64770115D01*
X155735952Y-64797489D01*
X155752643Y-64828717D01*
X155762924Y-64862608D01*
X155767000Y-64903991D01*
X155767000Y-65504209D01*
X155762924Y-65545592D01*
X155752643Y-65579483D01*
X155735952Y-65610711D01*
X155713485Y-65638085D01*
X155686111Y-65660552D01*
X155654883Y-65677243D01*
X155620992Y-65687524D01*
X155579609Y-65691600D01*
X154554391Y-65691600D01*
X154513008Y-65687524D01*
X154479117Y-65677243D01*
X154447889Y-65660552D01*
X154420515Y-65638085D01*
X154398048Y-65610711D01*
X154381357Y-65579483D01*
X154371076Y-65545592D01*
X154367000Y-65504209D01*
X154367000Y-64903991D01*
X154371076Y-64862608D01*
X154381357Y-64828717D01*
X154398048Y-64797489D01*
X154420515Y-64770115D01*
X154447889Y-64747648D01*
X154479117Y-64730957D01*
X154513008Y-64720676D01*
X154554391Y-64716600D01*
X155579609Y-64716600D01*
X155620992Y-64720676D01*
X155620992Y-64720676D01*
G37*
G36*
X174794316Y-64767795D02*
G01*
X174823513Y-64776652D01*
X174850418Y-64791033D01*
X174874008Y-64810392D01*
X174893367Y-64833982D01*
X174907748Y-64860887D01*
X174916605Y-64890084D01*
X174920200Y-64926590D01*
X174920200Y-65476810D01*
X174916605Y-65513316D01*
X174907748Y-65542513D01*
X174893367Y-65569418D01*
X174874008Y-65593008D01*
X174850418Y-65612367D01*
X174823513Y-65626748D01*
X174794316Y-65635605D01*
X174757810Y-65639200D01*
X174132590Y-65639200D01*
X174096084Y-65635605D01*
X174066887Y-65626748D01*
X174039982Y-65612367D01*
X174016392Y-65593008D01*
X173997033Y-65569418D01*
X173982652Y-65542513D01*
X173973795Y-65513316D01*
X173970200Y-65476810D01*
X173970200Y-64926590D01*
X173973795Y-64890084D01*
X173982652Y-64860887D01*
X173997033Y-64833982D01*
X174016392Y-64810392D01*
X174039982Y-64791033D01*
X174066887Y-64776652D01*
X174096084Y-64767795D01*
X174132590Y-64764200D01*
X174757810Y-64764200D01*
X174794316Y-64767795D01*
X174794316Y-64767795D01*
G37*
G36*
X172355916Y-64767795D02*
G01*
X172385113Y-64776652D01*
X172412018Y-64791033D01*
X172435608Y-64810392D01*
X172454967Y-64833982D01*
X172469348Y-64860887D01*
X172478205Y-64890084D01*
X172481800Y-64926590D01*
X172481800Y-65476810D01*
X172478205Y-65513316D01*
X172469348Y-65542513D01*
X172454967Y-65569418D01*
X172435608Y-65593008D01*
X172412018Y-65612367D01*
X172385113Y-65626748D01*
X172355916Y-65635605D01*
X172319410Y-65639200D01*
X171694190Y-65639200D01*
X171657684Y-65635605D01*
X171628487Y-65626748D01*
X171601582Y-65612367D01*
X171577992Y-65593008D01*
X171558633Y-65569418D01*
X171544252Y-65542513D01*
X171535395Y-65513316D01*
X171531800Y-65476810D01*
X171531800Y-64926590D01*
X171535395Y-64890084D01*
X171544252Y-64860887D01*
X171558633Y-64833982D01*
X171577992Y-64810392D01*
X171601582Y-64791033D01*
X171628487Y-64776652D01*
X171657684Y-64767795D01*
X171694190Y-64764200D01*
X172319410Y-64764200D01*
X172355916Y-64767795D01*
X172355916Y-64767795D01*
G37*
G36*
X177232716Y-64767795D02*
G01*
X177261913Y-64776652D01*
X177288818Y-64791033D01*
X177312408Y-64810392D01*
X177331767Y-64833982D01*
X177346148Y-64860887D01*
X177355005Y-64890084D01*
X177358600Y-64926590D01*
X177358600Y-65476810D01*
X177355005Y-65513316D01*
X177346148Y-65542513D01*
X177331767Y-65569418D01*
X177312408Y-65593008D01*
X177288818Y-65612367D01*
X177261913Y-65626748D01*
X177232716Y-65635605D01*
X177196210Y-65639200D01*
X176570990Y-65639200D01*
X176534484Y-65635605D01*
X176505287Y-65626748D01*
X176478382Y-65612367D01*
X176454792Y-65593008D01*
X176435433Y-65569418D01*
X176421052Y-65542513D01*
X176412195Y-65513316D01*
X176408600Y-65476810D01*
X176408600Y-64926590D01*
X176412195Y-64890084D01*
X176421052Y-64860887D01*
X176435433Y-64833982D01*
X176454792Y-64810392D01*
X176478382Y-64791033D01*
X176505287Y-64776652D01*
X176534484Y-64767795D01*
X176570990Y-64764200D01*
X177196210Y-64764200D01*
X177232716Y-64767795D01*
X177232716Y-64767795D01*
G37*
M02*
