G04 #@! TF.GenerationSoftware,KiCad,Pcbnew,(6.0.0-rc1-dev-1413-ga48e89956)*
G04 #@! TF.CreationDate,2019-10-25T09:50:35-06:00
G04 #@! TF.ProjectId,HAT_ver_5.1,4841545f-7665-4725-9f35-2e312e6b6963,5.1.1*
G04 #@! TF.SameCoordinates,Original*
G04 #@! TF.FileFunction,Other,Fab,Top*
%FSLAX46Y46*%
G04 Gerber Fmt 4.6, Leading zero omitted, Abs format (unit mm)*
G04 Created by KiCad (PCBNEW (6.0.0-rc1-dev-1413-ga48e89956)) date Friday, October 25, 2019 at 09:50:35 AM*
%MOMM*%
%LPD*%
G04 APERTURE LIST*
%ADD10C,0.100000*%
%ADD11C,0.150000*%
%ADD12C,0.025000*%
%ADD13C,0.600000*%
%ADD14C,0.080000*%
%ADD15C,0.060000*%
G04 APERTURE END LIST*
D10*
X157851600Y-79105200D02*
X159851600Y-79105200D01*
X157851600Y-80305200D02*
X157851600Y-79105200D01*
X159851600Y-80305200D02*
X157851600Y-80305200D01*
X159851600Y-79105200D02*
X159851600Y-80305200D01*
X165928600Y-78245700D02*
X165928600Y-80245700D01*
X164728600Y-78245700D02*
X165928600Y-78245700D01*
X164728600Y-80245700D02*
X164728600Y-78245700D01*
X165928600Y-80245700D02*
X164728600Y-80245700D01*
X182956200Y-128692000D02*
X181051200Y-128692000D01*
X181051200Y-128692000D02*
X181051200Y-108372000D01*
X181051200Y-108372000D02*
X183591200Y-108372000D01*
X183591200Y-108372000D02*
X183591200Y-128057000D01*
X183591200Y-128057000D02*
X182956200Y-128692000D01*
D11*
X183627600Y-90144000D02*
X181827600Y-90144000D01*
X181827600Y-90144000D02*
X181827600Y-93244000D01*
X183627600Y-93244000D02*
X181827600Y-93244000D01*
X183627600Y-90144000D02*
X183627600Y-93244000D01*
X159802400Y-81355600D02*
X158002400Y-81355600D01*
X158002400Y-81355600D02*
X158002400Y-84455600D01*
X159802400Y-84455600D02*
X158002400Y-84455600D01*
X159802400Y-81355600D02*
X159802400Y-84455600D01*
X138665200Y-80820000D02*
X143665200Y-80820000D01*
X143665200Y-80820000D02*
X143665200Y-86820000D01*
X143665200Y-86820000D02*
X137665200Y-86820000D01*
X137665200Y-86820000D02*
X137665200Y-81820000D01*
X137665200Y-81820000D02*
X138665200Y-80820000D01*
D10*
X180416200Y-128692000D02*
X178511200Y-128692000D01*
X178511200Y-128692000D02*
X178511200Y-115992000D01*
X178511200Y-115992000D02*
X181051200Y-115992000D01*
X181051200Y-115992000D02*
X181051200Y-128057000D01*
X181051200Y-128057000D02*
X180416200Y-128692000D01*
X145364200Y-128692000D02*
X143459200Y-128692000D01*
X143459200Y-128692000D02*
X143459200Y-115992000D01*
X143459200Y-115992000D02*
X145999200Y-115992000D01*
X145999200Y-115992000D02*
X145999200Y-128057000D01*
X145999200Y-128057000D02*
X145364200Y-128692000D01*
X184930000Y-65322000D02*
X181730000Y-65322000D01*
X181730000Y-65322000D02*
X181730000Y-69572000D01*
X181730000Y-69572000D02*
X184930000Y-69572000D01*
X184930000Y-69572000D02*
X184930000Y-65322000D01*
X181730000Y-67572000D02*
X182437107Y-68072000D01*
X182437107Y-68072000D02*
X181730000Y-68572000D01*
X143037000Y-130595100D02*
X144237000Y-130595100D01*
X144237000Y-130595100D02*
X144237000Y-132595100D01*
X144237000Y-132595100D02*
X143037000Y-132595100D01*
X143037000Y-132595100D02*
X143037000Y-130595100D01*
X163769600Y-78220300D02*
X163769600Y-80220300D01*
X162569600Y-78220300D02*
X163769600Y-78220300D01*
X162569600Y-80220300D02*
X162569600Y-78220300D01*
X163769600Y-80220300D02*
X162569600Y-80220300D01*
X154094800Y-83166800D02*
X153844800Y-83166800D01*
X154094800Y-83366800D02*
X154394800Y-83166800D01*
X154094800Y-82966800D02*
X154094800Y-83366800D01*
X154394800Y-83166800D02*
X154094800Y-82966800D01*
X154394800Y-83166800D02*
X154644800Y-83166800D01*
X154394800Y-82966800D02*
X154394800Y-83366800D01*
X154944800Y-82096800D02*
X154944800Y-85136800D01*
X153544800Y-85136800D02*
X154944800Y-85136800D01*
X153544800Y-82096800D02*
X154944800Y-82096800D01*
X153544800Y-82096800D02*
X153544800Y-85136800D01*
X185537400Y-117865400D02*
X184337400Y-117865400D01*
X184337400Y-117865400D02*
X184337400Y-115865400D01*
X184337400Y-115865400D02*
X185537400Y-115865400D01*
X185537400Y-115865400D02*
X185537400Y-117865400D01*
X145278600Y-75377600D02*
X145278600Y-74177600D01*
X145278600Y-74177600D02*
X147278600Y-74177600D01*
X147278600Y-74177600D02*
X147278600Y-75377600D01*
X147278600Y-75377600D02*
X145278600Y-75377600D01*
X145278600Y-73498000D02*
X145278600Y-72298000D01*
X145278600Y-72298000D02*
X147278600Y-72298000D01*
X147278600Y-72298000D02*
X147278600Y-73498000D01*
X147278600Y-73498000D02*
X145278600Y-73498000D01*
X137118800Y-73625200D02*
X138318800Y-73625200D01*
X138318800Y-73625200D02*
X138318800Y-75625200D01*
X138318800Y-75625200D02*
X137118800Y-75625200D01*
X137118800Y-75625200D02*
X137118800Y-73625200D01*
X176742800Y-86004400D02*
X176742800Y-84004400D01*
X177942800Y-86004400D02*
X176742800Y-86004400D01*
X177942800Y-84004400D02*
X177942800Y-86004400D01*
X176742800Y-84004400D02*
X177942800Y-84004400D01*
X147370800Y-90230400D02*
X149370800Y-90230400D01*
X147370800Y-91430400D02*
X147370800Y-90230400D01*
X149370800Y-91430400D02*
X147370800Y-91430400D01*
X149370800Y-90230400D02*
X149370800Y-91430400D01*
X147285200Y-83270800D02*
X149285200Y-83270800D01*
X147285200Y-84470800D02*
X147285200Y-83270800D01*
X149285200Y-84470800D02*
X147285200Y-84470800D01*
X149285200Y-83270800D02*
X149285200Y-84470800D01*
X182610000Y-104740000D02*
X180610000Y-104740000D01*
X182610000Y-103540000D02*
X182610000Y-104740000D01*
X180610000Y-103540000D02*
X182610000Y-103540000D01*
X180610000Y-104740000D02*
X180610000Y-103540000D01*
X180610000Y-102454000D02*
X180610000Y-101254000D01*
X180610000Y-101254000D02*
X182610000Y-101254000D01*
X182610000Y-101254000D02*
X182610000Y-102454000D01*
X182610000Y-102454000D02*
X180610000Y-102454000D01*
X149421600Y-85353600D02*
X149421600Y-86553600D01*
X149421600Y-86553600D02*
X147421600Y-86553600D01*
X147421600Y-86553600D02*
X147421600Y-85353600D01*
X147421600Y-85353600D02*
X149421600Y-85353600D01*
X144897600Y-111414000D02*
X146897600Y-111414000D01*
X144897600Y-112614000D02*
X144897600Y-111414000D01*
X146897600Y-112614000D02*
X144897600Y-112614000D01*
X146897600Y-111414000D02*
X146897600Y-112614000D01*
X139506200Y-90484400D02*
X139506200Y-91684400D01*
X139506200Y-91684400D02*
X137506200Y-91684400D01*
X137506200Y-91684400D02*
X137506200Y-90484400D01*
X137506200Y-90484400D02*
X139506200Y-90484400D01*
X137617200Y-93024400D02*
X139617200Y-93024400D01*
X137617200Y-94224400D02*
X137617200Y-93024400D01*
X139617200Y-94224400D02*
X137617200Y-94224400D01*
X139617200Y-93024400D02*
X139617200Y-94224400D01*
X149421600Y-78444800D02*
X149421600Y-79644800D01*
X149421600Y-79644800D02*
X147421600Y-79644800D01*
X147421600Y-79644800D02*
X147421600Y-78444800D01*
X147421600Y-78444800D02*
X149421600Y-78444800D01*
X146516800Y-131556000D02*
X146516800Y-129556000D01*
X147716800Y-131556000D02*
X146516800Y-131556000D01*
X147716800Y-129556000D02*
X147716800Y-131556000D01*
X146516800Y-129556000D02*
X147716800Y-129556000D01*
X144821200Y-106714800D02*
X143621200Y-106714800D01*
X143621200Y-106714800D02*
X143621200Y-104714800D01*
X143621200Y-104714800D02*
X144821200Y-104714800D01*
X144821200Y-104714800D02*
X144821200Y-106714800D01*
X142173200Y-73568000D02*
X142173200Y-74768000D01*
X142173200Y-74768000D02*
X140173200Y-74768000D01*
X140173200Y-74768000D02*
X140173200Y-73568000D01*
X140173200Y-73568000D02*
X142173200Y-73568000D01*
X134534400Y-71110400D02*
X134534400Y-69910400D01*
X134534400Y-69910400D02*
X136534400Y-69910400D01*
X136534400Y-69910400D02*
X136534400Y-71110400D01*
X136534400Y-71110400D02*
X134534400Y-71110400D01*
X158334000Y-65167000D02*
X158334000Y-67167000D01*
X157134000Y-65167000D02*
X158334000Y-65167000D01*
X157134000Y-67167000D02*
X157134000Y-65167000D01*
X158334000Y-67167000D02*
X157134000Y-67167000D01*
X147320800Y-81778400D02*
X147320800Y-80578400D01*
X147320800Y-80578400D02*
X149320800Y-80578400D01*
X149320800Y-80578400D02*
X149320800Y-81778400D01*
X149320800Y-81778400D02*
X147320800Y-81778400D01*
X141610800Y-91582800D02*
X141610800Y-90382800D01*
X141610800Y-90382800D02*
X143610800Y-90382800D01*
X143610800Y-90382800D02*
X143610800Y-91582800D01*
X143610800Y-91582800D02*
X141610800Y-91582800D01*
X163992000Y-65141600D02*
X165192000Y-65141600D01*
X165192000Y-65141600D02*
X165192000Y-67141600D01*
X165192000Y-67141600D02*
X163992000Y-67141600D01*
X163992000Y-67141600D02*
X163992000Y-65141600D01*
X162906000Y-65141600D02*
X162906000Y-67141600D01*
X161706000Y-65141600D02*
X162906000Y-65141600D01*
X161706000Y-67141600D02*
X161706000Y-65141600D01*
X162906000Y-67141600D02*
X161706000Y-67141600D01*
X147583400Y-95716800D02*
X147583400Y-96916800D01*
X147583400Y-96916800D02*
X145583400Y-96916800D01*
X145583400Y-96916800D02*
X145583400Y-95716800D01*
X145583400Y-95716800D02*
X147583400Y-95716800D01*
X145558000Y-97977400D02*
X147558000Y-97977400D01*
X145558000Y-99177400D02*
X145558000Y-97977400D01*
X147558000Y-99177400D02*
X145558000Y-99177400D01*
X147558000Y-97977400D02*
X147558000Y-99177400D01*
X146523200Y-106486400D02*
X148523200Y-106486400D01*
X146523200Y-107686400D02*
X146523200Y-106486400D01*
X148523200Y-107686400D02*
X146523200Y-107686400D01*
X148523200Y-106486400D02*
X148523200Y-107686400D01*
X148523200Y-103895600D02*
X148523200Y-105095600D01*
X148523200Y-105095600D02*
X146523200Y-105095600D01*
X146523200Y-105095600D02*
X146523200Y-103895600D01*
X146523200Y-103895600D02*
X148523200Y-103895600D01*
X147473200Y-87842800D02*
X149473200Y-87842800D01*
X147473200Y-89042800D02*
X147473200Y-87842800D01*
X149473200Y-89042800D02*
X147473200Y-89042800D01*
X149473200Y-87842800D02*
X149473200Y-89042800D01*
X155667000Y-65141600D02*
X155667000Y-67141600D01*
X154467000Y-65141600D02*
X155667000Y-65141600D01*
X154467000Y-67141600D02*
X154467000Y-65141600D01*
X155667000Y-67141600D02*
X154467000Y-67141600D01*
X182286400Y-96764400D02*
X182286400Y-95564400D01*
X182286400Y-95564400D02*
X184286400Y-95564400D01*
X184286400Y-95564400D02*
X184286400Y-96764400D01*
X184286400Y-96764400D02*
X182286400Y-96764400D01*
X182286400Y-98358400D02*
X184286400Y-98358400D01*
X182286400Y-99558400D02*
X182286400Y-98358400D01*
X184286400Y-99558400D02*
X182286400Y-99558400D01*
X184286400Y-98358400D02*
X184286400Y-99558400D01*
X180127200Y-113725200D02*
X178927200Y-113725200D01*
X178927200Y-113725200D02*
X178927200Y-111725200D01*
X178927200Y-111725200D02*
X180127200Y-111725200D01*
X180127200Y-111725200D02*
X180127200Y-113725200D01*
X179339800Y-132343400D02*
X178139800Y-132343400D01*
X178139800Y-132343400D02*
X178139800Y-130343400D01*
X178139800Y-130343400D02*
X179339800Y-130343400D01*
X179339800Y-130343400D02*
X179339800Y-132343400D01*
X142138400Y-67259400D02*
X142138400Y-65354400D01*
X142138400Y-65354400D02*
X152298400Y-65354400D01*
X152298400Y-65354400D02*
X152298400Y-67894400D01*
X152298400Y-67894400D02*
X142773400Y-67894400D01*
X142773400Y-67894400D02*
X142138400Y-67259400D01*
X129157200Y-127863800D02*
X129157200Y-120363800D01*
X134157200Y-127863800D02*
X129157200Y-127863800D01*
X134157200Y-120363800D02*
X134157200Y-127863800D01*
X129157200Y-120363800D02*
X134157200Y-120363800D01*
X177283600Y-66789200D02*
X177283600Y-65489200D01*
X177283600Y-65489200D02*
X176983600Y-65189200D01*
X176983600Y-65189200D02*
X176483600Y-65189200D01*
X176483600Y-65189200D02*
X176483600Y-66789200D01*
X176483600Y-66789200D02*
X177283600Y-66789200D01*
X174045200Y-66789200D02*
X174845200Y-66789200D01*
X174045200Y-65189200D02*
X174045200Y-66789200D01*
X174545200Y-65189200D02*
X174045200Y-65189200D01*
X174845200Y-65489200D02*
X174545200Y-65189200D01*
X174845200Y-66789200D02*
X174845200Y-65489200D01*
X172406800Y-66789200D02*
X172406800Y-65489200D01*
X172406800Y-65489200D02*
X172106800Y-65189200D01*
X172106800Y-65189200D02*
X171606800Y-65189200D01*
X171606800Y-65189200D02*
X171606800Y-66789200D01*
X171606800Y-66789200D02*
X172406800Y-66789200D01*
X147204700Y-70088200D02*
X147204700Y-71288200D01*
X147204700Y-71288200D02*
X145204700Y-71288200D01*
X145204700Y-71288200D02*
X145204700Y-70088200D01*
X145204700Y-70088200D02*
X147204700Y-70088200D01*
X132906300Y-86401400D02*
X132906300Y-88401400D01*
X131706300Y-86401400D02*
X132906300Y-86401400D01*
X131706300Y-88401400D02*
X131706300Y-86401400D01*
X132906300Y-88401400D02*
X131706300Y-88401400D01*
X141307300Y-71008800D02*
X139307300Y-71008800D01*
X141307300Y-69808800D02*
X141307300Y-71008800D01*
X139307300Y-69808800D02*
X141307300Y-69808800D01*
X139307300Y-71008800D02*
X139307300Y-69808800D01*
X145357100Y-77435000D02*
X145357100Y-76235000D01*
X145357100Y-76235000D02*
X147357100Y-76235000D01*
X147357100Y-76235000D02*
X147357100Y-77435000D01*
X147357100Y-77435000D02*
X145357100Y-77435000D01*
X132750000Y-95693500D02*
X132750000Y-93693500D01*
X133950000Y-95693500D02*
X132750000Y-95693500D01*
X133950000Y-93693500D02*
X133950000Y-95693500D01*
X132750000Y-93693500D02*
X133950000Y-93693500D01*
X130641800Y-93688900D02*
X131841800Y-93688900D01*
X131841800Y-93688900D02*
X131841800Y-95688900D01*
X131841800Y-95688900D02*
X130641800Y-95688900D01*
X130641800Y-95688900D02*
X130641800Y-93688900D01*
X169937700Y-68869000D02*
X169937700Y-70069000D01*
X169937700Y-70069000D02*
X167937700Y-70069000D01*
X167937700Y-70069000D02*
X167937700Y-68869000D01*
X167937700Y-68869000D02*
X169937700Y-68869000D01*
X174257700Y-68996000D02*
X176257700Y-68996000D01*
X174257700Y-70196000D02*
X174257700Y-68996000D01*
X176257700Y-70196000D02*
X174257700Y-70196000D01*
X176257700Y-68996000D02*
X176257700Y-70196000D01*
D11*
X171131571Y-127856571D02*
X171131571Y-128189904D01*
X171655380Y-128189904D02*
X170655380Y-128189904D01*
X170655380Y-127713714D01*
X171655380Y-126808952D02*
X171655380Y-127380380D01*
X171655380Y-127094666D02*
X170655380Y-127094666D01*
X170798238Y-127189904D01*
X170893476Y-127285142D01*
X170941095Y-127380380D01*
X170750619Y-126428000D02*
X170703000Y-126380380D01*
X170655380Y-126285142D01*
X170655380Y-126047047D01*
X170703000Y-125951809D01*
X170750619Y-125904190D01*
X170845857Y-125856571D01*
X170941095Y-125856571D01*
X171083952Y-125904190D01*
X171655380Y-126475619D01*
X171655380Y-125856571D01*
X171369666Y-125475619D02*
X171369666Y-124999428D01*
X171655380Y-125570857D02*
X170655380Y-125237523D01*
X171655380Y-124904190D01*
X171607761Y-124618476D02*
X171655380Y-124475619D01*
X171655380Y-124237523D01*
X171607761Y-124142285D01*
X171560142Y-124094666D01*
X171464904Y-124047047D01*
X171369666Y-124047047D01*
X171274428Y-124094666D01*
X171226809Y-124142285D01*
X171179190Y-124237523D01*
X171131571Y-124428000D01*
X171083952Y-124523238D01*
X171036333Y-124570857D01*
X170941095Y-124618476D01*
X170845857Y-124618476D01*
X170750619Y-124570857D01*
X170703000Y-124523238D01*
X170655380Y-124428000D01*
X170655380Y-124189904D01*
X170703000Y-124047047D01*
X170655380Y-123618476D02*
X171464904Y-123618476D01*
X171560142Y-123570857D01*
X171607761Y-123523238D01*
X171655380Y-123428000D01*
X171655380Y-123237523D01*
X171607761Y-123142285D01*
X171560142Y-123094666D01*
X171464904Y-123047047D01*
X170655380Y-123047047D01*
X171655380Y-122570857D02*
X170655380Y-122570857D01*
X171369666Y-122237523D01*
X170655380Y-121904190D01*
X171655380Y-121904190D01*
X171655380Y-120904190D02*
X171655380Y-121475619D01*
X171655380Y-121189904D02*
X170655380Y-121189904D01*
X170798238Y-121285142D01*
X170893476Y-121380380D01*
X170941095Y-121475619D01*
X170655380Y-120570857D02*
X170655380Y-119951809D01*
X171036333Y-120285142D01*
X171036333Y-120142285D01*
X171083952Y-120047047D01*
X171131571Y-119999428D01*
X171226809Y-119951809D01*
X171464904Y-119951809D01*
X171560142Y-119999428D01*
X171607761Y-120047047D01*
X171655380Y-120142285D01*
X171655380Y-120428000D01*
X171607761Y-120523238D01*
X171560142Y-120570857D01*
X171274428Y-119523238D02*
X171274428Y-118761333D01*
X170655380Y-118380380D02*
X171655380Y-118142285D01*
X170941095Y-117951809D01*
X171655380Y-117761333D01*
X170655380Y-117523238D01*
X170750619Y-117189904D02*
X170703000Y-117142285D01*
X170655380Y-117047047D01*
X170655380Y-116808952D01*
X170703000Y-116713714D01*
X170750619Y-116666095D01*
X170845857Y-116618476D01*
X170941095Y-116618476D01*
X171083952Y-116666095D01*
X171655380Y-117237523D01*
X171655380Y-116618476D01*
X126831009Y-71508380D02*
X126831009Y-70508380D01*
X127164342Y-71222666D01*
X127497676Y-70508380D01*
X127497676Y-71508380D01*
X128116723Y-71508380D02*
X128021485Y-71460761D01*
X127973866Y-71413142D01*
X127926247Y-71317904D01*
X127926247Y-71032190D01*
X127973866Y-70936952D01*
X128021485Y-70889333D01*
X128116723Y-70841714D01*
X128259580Y-70841714D01*
X128354819Y-70889333D01*
X128402438Y-70936952D01*
X128450057Y-71032190D01*
X128450057Y-71317904D01*
X128402438Y-71413142D01*
X128354819Y-71460761D01*
X128259580Y-71508380D01*
X128116723Y-71508380D01*
X129307200Y-70841714D02*
X129307200Y-71508380D01*
X128878628Y-70841714D02*
X128878628Y-71365523D01*
X128926247Y-71460761D01*
X129021485Y-71508380D01*
X129164342Y-71508380D01*
X129259580Y-71460761D01*
X129307200Y-71413142D01*
X129783390Y-70841714D02*
X129783390Y-71508380D01*
X129783390Y-70936952D02*
X129831009Y-70889333D01*
X129926247Y-70841714D01*
X130069104Y-70841714D01*
X130164342Y-70889333D01*
X130211961Y-70984571D01*
X130211961Y-71508380D01*
X130545295Y-70841714D02*
X130926247Y-70841714D01*
X130688152Y-70508380D02*
X130688152Y-71365523D01*
X130735771Y-71460761D01*
X130831009Y-71508380D01*
X130926247Y-71508380D01*
X131259580Y-71508380D02*
X131259580Y-70841714D01*
X131259580Y-70508380D02*
X131211961Y-70556000D01*
X131259580Y-70603619D01*
X131307200Y-70556000D01*
X131259580Y-70508380D01*
X131259580Y-70603619D01*
X131735771Y-70841714D02*
X131735771Y-71508380D01*
X131735771Y-70936952D02*
X131783390Y-70889333D01*
X131878628Y-70841714D01*
X132021485Y-70841714D01*
X132116723Y-70889333D01*
X132164342Y-70984571D01*
X132164342Y-71508380D01*
X133069104Y-70841714D02*
X133069104Y-71651238D01*
X133021485Y-71746476D01*
X132973866Y-71794095D01*
X132878628Y-71841714D01*
X132735771Y-71841714D01*
X132640533Y-71794095D01*
X133069104Y-71460761D02*
X132973866Y-71508380D01*
X132783390Y-71508380D01*
X132688152Y-71460761D01*
X132640533Y-71413142D01*
X132592914Y-71317904D01*
X132592914Y-71032190D01*
X132640533Y-70936952D01*
X132688152Y-70889333D01*
X132783390Y-70841714D01*
X132973866Y-70841714D01*
X133069104Y-70889333D01*
X133545295Y-71508380D02*
X133545295Y-70508380D01*
X133545295Y-70984571D02*
X134116723Y-70984571D01*
X134116723Y-71508380D02*
X134116723Y-70508380D01*
X134735771Y-71508380D02*
X134640533Y-71460761D01*
X134592914Y-71413142D01*
X134545295Y-71317904D01*
X134545295Y-71032190D01*
X134592914Y-70936952D01*
X134640533Y-70889333D01*
X134735771Y-70841714D01*
X134878628Y-70841714D01*
X134973866Y-70889333D01*
X135021485Y-70936952D01*
X135069104Y-71032190D01*
X135069104Y-71317904D01*
X135021485Y-71413142D01*
X134973866Y-71460761D01*
X134878628Y-71508380D01*
X134735771Y-71508380D01*
X135640533Y-71508380D02*
X135545295Y-71460761D01*
X135497676Y-71365523D01*
X135497676Y-70508380D01*
X136402438Y-71460761D02*
X136307200Y-71508380D01*
X136116723Y-71508380D01*
X136021485Y-71460761D01*
X135973866Y-71365523D01*
X135973866Y-70984571D01*
X136021485Y-70889333D01*
X136116723Y-70841714D01*
X136307200Y-70841714D01*
X136402438Y-70889333D01*
X136450057Y-70984571D01*
X136450057Y-71079809D01*
X135973866Y-71175047D01*
X136640533Y-71603619D02*
X137402438Y-71603619D01*
X137545295Y-70508380D02*
X138164342Y-70508380D01*
X137831009Y-70889333D01*
X137973866Y-70889333D01*
X138069104Y-70936952D01*
X138116723Y-70984571D01*
X138164342Y-71079809D01*
X138164342Y-71317904D01*
X138116723Y-71413142D01*
X138069104Y-71460761D01*
X137973866Y-71508380D01*
X137688152Y-71508380D01*
X137592914Y-71460761D01*
X137545295Y-71413142D01*
X138592914Y-71508380D02*
X138592914Y-70841714D01*
X138592914Y-70936952D02*
X138640533Y-70889333D01*
X138735771Y-70841714D01*
X138878628Y-70841714D01*
X138973866Y-70889333D01*
X139021485Y-70984571D01*
X139021485Y-71508380D01*
X139021485Y-70984571D02*
X139069104Y-70889333D01*
X139164342Y-70841714D01*
X139307200Y-70841714D01*
X139402438Y-70889333D01*
X139450057Y-70984571D01*
X139450057Y-71508380D01*
X139926247Y-71508380D02*
X139926247Y-70841714D01*
X139926247Y-70936952D02*
X139973866Y-70889333D01*
X140069104Y-70841714D01*
X140211961Y-70841714D01*
X140307200Y-70889333D01*
X140354819Y-70984571D01*
X140354819Y-71508380D01*
X140354819Y-70984571D02*
X140402438Y-70889333D01*
X140497676Y-70841714D01*
X140640533Y-70841714D01*
X140735771Y-70889333D01*
X140783390Y-70984571D01*
X140783390Y-71508380D01*
X132773866Y-67508380D02*
X132440533Y-67032190D01*
X132202438Y-67508380D02*
X132202438Y-66508380D01*
X132583390Y-66508380D01*
X132678628Y-66556000D01*
X132726247Y-66603619D01*
X132773866Y-66698857D01*
X132773866Y-66841714D01*
X132726247Y-66936952D01*
X132678628Y-66984571D01*
X132583390Y-67032190D01*
X132202438Y-67032190D01*
X133202438Y-66984571D02*
X133535771Y-66984571D01*
X133678628Y-67508380D02*
X133202438Y-67508380D01*
X133202438Y-66508380D01*
X133678628Y-66508380D01*
X134440533Y-66984571D02*
X134107200Y-66984571D01*
X134107200Y-67508380D02*
X134107200Y-66508380D01*
X134583390Y-66508380D01*
X135107200Y-66508380D02*
X135107200Y-66746476D01*
X134869104Y-66651238D02*
X135107200Y-66746476D01*
X135345295Y-66651238D01*
X134964342Y-66936952D02*
X135107200Y-66746476D01*
X135250057Y-66936952D01*
X135869104Y-66508380D02*
X135869104Y-66746476D01*
X135631009Y-66651238D02*
X135869104Y-66746476D01*
X136107200Y-66651238D01*
X135726247Y-66936952D02*
X135869104Y-66746476D01*
X136011961Y-66936952D01*
D12*
X158784933Y-77876628D02*
X158727790Y-77876628D01*
X158756361Y-77876628D02*
X158756361Y-77276628D01*
X158746838Y-77362342D01*
X158737314Y-77419485D01*
X158727790Y-77448057D01*
X158870647Y-77276628D02*
X158851600Y-77276628D01*
X158842076Y-77305200D01*
X158837314Y-77333771D01*
X158827790Y-77419485D01*
X158823028Y-77533771D01*
X158823028Y-77762342D01*
X158827790Y-77819485D01*
X158832552Y-77848057D01*
X158842076Y-77876628D01*
X158861123Y-77876628D01*
X158870647Y-77848057D01*
X158875409Y-77819485D01*
X158880171Y-77762342D01*
X158880171Y-77619485D01*
X158875409Y-77562342D01*
X158870647Y-77533771D01*
X158861123Y-77505200D01*
X158842076Y-77505200D01*
X158832552Y-77533771D01*
X158827790Y-77562342D01*
X158823028Y-77619485D01*
X158918266Y-77333771D02*
X158923028Y-77305200D01*
X158932552Y-77276628D01*
X158956361Y-77276628D01*
X158965885Y-77305200D01*
X158970647Y-77333771D01*
X158975409Y-77390914D01*
X158975409Y-77448057D01*
X158970647Y-77533771D01*
X158913504Y-77876628D01*
X158975409Y-77876628D01*
D13*
D14*
X158768266Y-79931390D02*
X158601600Y-79693295D01*
X158482552Y-79931390D02*
X158482552Y-79431390D01*
X158673028Y-79431390D01*
X158720647Y-79455200D01*
X158744457Y-79479009D01*
X158768266Y-79526628D01*
X158768266Y-79598057D01*
X158744457Y-79645676D01*
X158720647Y-79669485D01*
X158673028Y-79693295D01*
X158482552Y-79693295D01*
X159244457Y-79931390D02*
X158958742Y-79931390D01*
X159101600Y-79931390D02*
X159101600Y-79431390D01*
X159053980Y-79502819D01*
X159006361Y-79550438D01*
X158958742Y-79574247D01*
D12*
X166707171Y-79409985D02*
X166678600Y-79405223D01*
X166650028Y-79395700D01*
X166650028Y-79371890D01*
X166678600Y-79362366D01*
X166707171Y-79357604D01*
X166764314Y-79352842D01*
X166821457Y-79352842D01*
X166907171Y-79357604D01*
X167250028Y-79414747D01*
X167250028Y-79352842D01*
X166707171Y-79314747D02*
X166678600Y-79309985D01*
X166650028Y-79300461D01*
X166650028Y-79276652D01*
X166678600Y-79267128D01*
X166707171Y-79262366D01*
X166764314Y-79257604D01*
X166821457Y-79257604D01*
X166907171Y-79262366D01*
X167250028Y-79319509D01*
X167250028Y-79257604D01*
X166850028Y-79171890D02*
X167250028Y-79171890D01*
X166850028Y-79214747D02*
X167164314Y-79214747D01*
X167221457Y-79209985D01*
X167250028Y-79200461D01*
X167250028Y-79186176D01*
X167221457Y-79176652D01*
X167192885Y-79171890D01*
X166935742Y-79090938D02*
X166935742Y-79124271D01*
X167250028Y-79124271D02*
X166650028Y-79124271D01*
X166650028Y-79076652D01*
D13*
D11*
X165685742Y-79888557D02*
X165733361Y-79936176D01*
X165780980Y-80079033D01*
X165780980Y-80174271D01*
X165733361Y-80317128D01*
X165638123Y-80412366D01*
X165542885Y-80459985D01*
X165352409Y-80507604D01*
X165209552Y-80507604D01*
X165019076Y-80459985D01*
X164923838Y-80412366D01*
X164828600Y-80317128D01*
X164780980Y-80174271D01*
X164780980Y-80079033D01*
X164828600Y-79936176D01*
X164876219Y-79888557D01*
X165780980Y-78936176D02*
X165780980Y-79507604D01*
X165780980Y-79221890D02*
X164780980Y-79221890D01*
X164923838Y-79317128D01*
X165019076Y-79412366D01*
X165066695Y-79507604D01*
X164780980Y-78602842D02*
X164780980Y-77936176D01*
X165780980Y-78364747D01*
D12*
X163624228Y-107593085D02*
X163024228Y-107593085D01*
X163309942Y-107593085D02*
X163309942Y-107535942D01*
X163624228Y-107535942D02*
X163024228Y-107535942D01*
X163567085Y-107431180D02*
X163595657Y-107435942D01*
X163624228Y-107450228D01*
X163624228Y-107459752D01*
X163595657Y-107474038D01*
X163538514Y-107483561D01*
X163481371Y-107488323D01*
X163367085Y-107493085D01*
X163281371Y-107493085D01*
X163167085Y-107488323D01*
X163109942Y-107483561D01*
X163052800Y-107474038D01*
X163024228Y-107459752D01*
X163024228Y-107450228D01*
X163052800Y-107435942D01*
X163081371Y-107431180D01*
X163395657Y-107388323D02*
X163395657Y-107312133D01*
X163624228Y-107207371D02*
X163338514Y-107240704D01*
X163624228Y-107264514D02*
X163024228Y-107264514D01*
X163024228Y-107226419D01*
X163052800Y-107216895D01*
X163081371Y-107212133D01*
X163138514Y-107207371D01*
X163224228Y-107207371D01*
X163281371Y-107212133D01*
X163309942Y-107216895D01*
X163338514Y-107226419D01*
X163338514Y-107264514D01*
X163281371Y-107150228D02*
X163252800Y-107159752D01*
X163224228Y-107164514D01*
X163167085Y-107169276D01*
X163138514Y-107169276D01*
X163081371Y-107164514D01*
X163052800Y-107159752D01*
X163024228Y-107150228D01*
X163024228Y-107131180D01*
X163052800Y-107121657D01*
X163081371Y-107116895D01*
X163138514Y-107112133D01*
X163167085Y-107112133D01*
X163224228Y-107116895D01*
X163252800Y-107121657D01*
X163281371Y-107131180D01*
X163281371Y-107150228D01*
X163309942Y-107159752D01*
X163338514Y-107164514D01*
X163395657Y-107169276D01*
X163509942Y-107169276D01*
X163567085Y-107164514D01*
X163595657Y-107159752D01*
X163624228Y-107150228D01*
X163624228Y-107131180D01*
X163595657Y-107121657D01*
X163567085Y-107116895D01*
X163509942Y-107112133D01*
X163395657Y-107112133D01*
X163338514Y-107116895D01*
X163309942Y-107121657D01*
X163281371Y-107131180D01*
X163281371Y-107054990D02*
X163252800Y-107064514D01*
X163224228Y-107069276D01*
X163167085Y-107074038D01*
X163138514Y-107074038D01*
X163081371Y-107069276D01*
X163052800Y-107064514D01*
X163024228Y-107054990D01*
X163024228Y-107035942D01*
X163052800Y-107026419D01*
X163081371Y-107021657D01*
X163138514Y-107016895D01*
X163167085Y-107016895D01*
X163224228Y-107021657D01*
X163252800Y-107026419D01*
X163281371Y-107035942D01*
X163281371Y-107054990D01*
X163309942Y-107064514D01*
X163338514Y-107069276D01*
X163395657Y-107074038D01*
X163509942Y-107074038D01*
X163567085Y-107069276D01*
X163595657Y-107064514D01*
X163624228Y-107054990D01*
X163624228Y-107035942D01*
X163595657Y-107026419D01*
X163567085Y-107021657D01*
X163509942Y-107016895D01*
X163395657Y-107016895D01*
X163338514Y-107021657D01*
X163309942Y-107026419D01*
X163281371Y-107035942D01*
X163624228Y-106921657D02*
X163624228Y-106978800D01*
X163624228Y-106950228D02*
X163024228Y-106950228D01*
X163109942Y-106959752D01*
X163167085Y-106969276D01*
X163195657Y-106978800D01*
X163081371Y-106883561D02*
X163052800Y-106878800D01*
X163024228Y-106869276D01*
X163024228Y-106845466D01*
X163052800Y-106835942D01*
X163081371Y-106831180D01*
X163138514Y-106826419D01*
X163195657Y-106826419D01*
X163281371Y-106831180D01*
X163624228Y-106888323D01*
X163624228Y-106826419D01*
X163452800Y-106788323D02*
X163452800Y-106740704D01*
X163624228Y-106797847D02*
X163024228Y-106764514D01*
X163624228Y-106731180D01*
X163309942Y-106664514D02*
X163309942Y-106697847D01*
X163624228Y-106697847D02*
X163024228Y-106697847D01*
X163024228Y-106650228D01*
X163624228Y-106559752D02*
X163624228Y-106616895D01*
X163624228Y-106588323D02*
X163024228Y-106588323D01*
X163109942Y-106597847D01*
X163167085Y-106607371D01*
X163195657Y-106616895D01*
D13*
D12*
X181947390Y-107526285D02*
X181942628Y-107554857D01*
X181928342Y-107583428D01*
X181918819Y-107583428D01*
X181904533Y-107554857D01*
X181895009Y-107497714D01*
X181890247Y-107440571D01*
X181885485Y-107326285D01*
X181885485Y-107240571D01*
X181890247Y-107126285D01*
X181895009Y-107069142D01*
X181904533Y-107012000D01*
X181918819Y-106983428D01*
X181928342Y-106983428D01*
X181942628Y-107012000D01*
X181947390Y-107040571D01*
X182004533Y-107583428D02*
X181995009Y-107554857D01*
X181990247Y-107526285D01*
X181985485Y-107469142D01*
X181985485Y-107297714D01*
X181990247Y-107240571D01*
X181995009Y-107212000D01*
X182004533Y-107183428D01*
X182018819Y-107183428D01*
X182028342Y-107212000D01*
X182033104Y-107240571D01*
X182037866Y-107297714D01*
X182037866Y-107469142D01*
X182033104Y-107526285D01*
X182028342Y-107554857D01*
X182018819Y-107583428D01*
X182004533Y-107583428D01*
X182080723Y-107183428D02*
X182080723Y-107583428D01*
X182080723Y-107240571D02*
X182085485Y-107212000D01*
X182095009Y-107183428D01*
X182109295Y-107183428D01*
X182118819Y-107212000D01*
X182123580Y-107269142D01*
X182123580Y-107583428D01*
X182171200Y-107183428D02*
X182171200Y-107583428D01*
X182171200Y-107240571D02*
X182175961Y-107212000D01*
X182185485Y-107183428D01*
X182199771Y-107183428D01*
X182209295Y-107212000D01*
X182214057Y-107269142D01*
X182214057Y-107583428D01*
X182237866Y-107640571D02*
X182314057Y-107640571D01*
X182356914Y-106983428D02*
X182366438Y-106983428D01*
X182375961Y-107012000D01*
X182380723Y-107040571D01*
X182385485Y-107097714D01*
X182390247Y-107212000D01*
X182390247Y-107354857D01*
X182385485Y-107469142D01*
X182380723Y-107526285D01*
X182375961Y-107554857D01*
X182366438Y-107583428D01*
X182356914Y-107583428D01*
X182347390Y-107554857D01*
X182342628Y-107526285D01*
X182337866Y-107469142D01*
X182333104Y-107354857D01*
X182333104Y-107212000D01*
X182337866Y-107097714D01*
X182342628Y-107040571D01*
X182347390Y-107012000D01*
X182356914Y-106983428D01*
X182485485Y-107583428D02*
X182428342Y-107583428D01*
X182456914Y-107583428D02*
X182456914Y-106983428D01*
X182447390Y-107069142D01*
X182437866Y-107126285D01*
X182428342Y-107154857D01*
X182518819Y-107583428D02*
X182571200Y-107183428D01*
X182518819Y-107183428D02*
X182571200Y-107583428D01*
X182628342Y-106983428D02*
X182637866Y-106983428D01*
X182647390Y-107012000D01*
X182652152Y-107040571D01*
X182656914Y-107097714D01*
X182661676Y-107212000D01*
X182661676Y-107354857D01*
X182656914Y-107469142D01*
X182652152Y-107526285D01*
X182647390Y-107554857D01*
X182637866Y-107583428D01*
X182628342Y-107583428D01*
X182618819Y-107554857D01*
X182614057Y-107526285D01*
X182609295Y-107469142D01*
X182604533Y-107354857D01*
X182604533Y-107212000D01*
X182609295Y-107097714D01*
X182614057Y-107040571D01*
X182618819Y-107012000D01*
X182628342Y-106983428D01*
X182718819Y-107240571D02*
X182709295Y-107212000D01*
X182704533Y-107183428D01*
X182699771Y-107126285D01*
X182699771Y-107097714D01*
X182704533Y-107040571D01*
X182709295Y-107012000D01*
X182718819Y-106983428D01*
X182737866Y-106983428D01*
X182747390Y-107012000D01*
X182752152Y-107040571D01*
X182756914Y-107097714D01*
X182756914Y-107126285D01*
X182752152Y-107183428D01*
X182747390Y-107212000D01*
X182737866Y-107240571D01*
X182718819Y-107240571D01*
X182709295Y-107269142D01*
X182704533Y-107297714D01*
X182699771Y-107354857D01*
X182699771Y-107469142D01*
X182704533Y-107526285D01*
X182709295Y-107554857D01*
X182718819Y-107583428D01*
X182737866Y-107583428D01*
X182747390Y-107554857D01*
X182752152Y-107526285D01*
X182756914Y-107469142D01*
X182756914Y-107354857D01*
X182752152Y-107297714D01*
X182747390Y-107269142D01*
X182737866Y-107240571D01*
D13*
D11*
X182773580Y-119270095D02*
X181773580Y-119270095D01*
X181773580Y-118889142D01*
X181821200Y-118793904D01*
X181868819Y-118746285D01*
X181964057Y-118698666D01*
X182106914Y-118698666D01*
X182202152Y-118746285D01*
X182249771Y-118793904D01*
X182297390Y-118889142D01*
X182297390Y-119270095D01*
X182773580Y-117746285D02*
X182773580Y-118317714D01*
X182773580Y-118032000D02*
X181773580Y-118032000D01*
X181916438Y-118127238D01*
X182011676Y-118222476D01*
X182059295Y-118317714D01*
D12*
X137767257Y-79110590D02*
X137795828Y-79096304D01*
X137795828Y-79072495D01*
X137767257Y-79062971D01*
X137738685Y-79058209D01*
X137681542Y-79053447D01*
X137624400Y-79053447D01*
X137567257Y-79058209D01*
X137538685Y-79062971D01*
X137510114Y-79072495D01*
X137481542Y-79091542D01*
X137452971Y-79101066D01*
X137424400Y-79105828D01*
X137367257Y-79110590D01*
X137310114Y-79110590D01*
X137252971Y-79105828D01*
X137224400Y-79101066D01*
X137195828Y-79091542D01*
X137195828Y-79067733D01*
X137224400Y-79053447D01*
X137795828Y-79010590D02*
X137195828Y-79010590D01*
X137195828Y-78972495D01*
X137224400Y-78962971D01*
X137252971Y-78958209D01*
X137310114Y-78953447D01*
X137395828Y-78953447D01*
X137452971Y-78958209D01*
X137481542Y-78962971D01*
X137510114Y-78972495D01*
X137510114Y-79010590D01*
X137795828Y-78910590D02*
X137195828Y-78910590D01*
X137195828Y-78886780D01*
X137224400Y-78872495D01*
X137281542Y-78862971D01*
X137338685Y-78858209D01*
X137452971Y-78853447D01*
X137538685Y-78853447D01*
X137652971Y-78858209D01*
X137710114Y-78862971D01*
X137767257Y-78872495D01*
X137795828Y-78886780D01*
X137795828Y-78910590D01*
X137195828Y-78824876D02*
X137195828Y-78767733D01*
X137795828Y-78796304D02*
X137195828Y-78796304D01*
X137567257Y-78734400D02*
X137567257Y-78658209D01*
X137252971Y-78615352D02*
X137224400Y-78610590D01*
X137195828Y-78601066D01*
X137195828Y-78577257D01*
X137224400Y-78567733D01*
X137252971Y-78562971D01*
X137310114Y-78558209D01*
X137367257Y-78558209D01*
X137452971Y-78562971D01*
X137795828Y-78620114D01*
X137795828Y-78558209D01*
X137738685Y-78458209D02*
X137767257Y-78462971D01*
X137795828Y-78477257D01*
X137795828Y-78486780D01*
X137767257Y-78501066D01*
X137710114Y-78510590D01*
X137652971Y-78515352D01*
X137538685Y-78520114D01*
X137452971Y-78520114D01*
X137338685Y-78515352D01*
X137281542Y-78510590D01*
X137224400Y-78501066D01*
X137195828Y-78486780D01*
X137195828Y-78477257D01*
X137224400Y-78462971D01*
X137252971Y-78458209D01*
D13*
D12*
X174179657Y-76882571D02*
X174208228Y-76868285D01*
X174208228Y-76844476D01*
X174179657Y-76834952D01*
X174151085Y-76830190D01*
X174093942Y-76825428D01*
X174036800Y-76825428D01*
X173979657Y-76830190D01*
X173951085Y-76834952D01*
X173922514Y-76844476D01*
X173893942Y-76863523D01*
X173865371Y-76873047D01*
X173836800Y-76877809D01*
X173779657Y-76882571D01*
X173722514Y-76882571D01*
X173665371Y-76877809D01*
X173636800Y-76873047D01*
X173608228Y-76863523D01*
X173608228Y-76839714D01*
X173636800Y-76825428D01*
X174208228Y-76782571D02*
X173608228Y-76782571D01*
X173608228Y-76744476D01*
X173636800Y-76734952D01*
X173665371Y-76730190D01*
X173722514Y-76725428D01*
X173808228Y-76725428D01*
X173865371Y-76730190D01*
X173893942Y-76734952D01*
X173922514Y-76744476D01*
X173922514Y-76782571D01*
X174179657Y-76687333D02*
X174208228Y-76673047D01*
X174208228Y-76649238D01*
X174179657Y-76639714D01*
X174151085Y-76634952D01*
X174093942Y-76630190D01*
X174036800Y-76630190D01*
X173979657Y-76634952D01*
X173951085Y-76639714D01*
X173922514Y-76649238D01*
X173893942Y-76668285D01*
X173865371Y-76677809D01*
X173836800Y-76682571D01*
X173779657Y-76687333D01*
X173722514Y-76687333D01*
X173665371Y-76682571D01*
X173636800Y-76677809D01*
X173608228Y-76668285D01*
X173608228Y-76644476D01*
X173636800Y-76630190D01*
X173608228Y-76601619D02*
X173608228Y-76544476D01*
X174208228Y-76573047D02*
X173608228Y-76573047D01*
X173979657Y-76511142D02*
X173979657Y-76434952D01*
X174208228Y-76387333D02*
X173608228Y-76387333D01*
X173608228Y-76349238D01*
X173636800Y-76339714D01*
X173665371Y-76334952D01*
X173722514Y-76330190D01*
X173808228Y-76330190D01*
X173865371Y-76334952D01*
X173893942Y-76339714D01*
X173922514Y-76349238D01*
X173922514Y-76387333D01*
X173608228Y-76287333D02*
X174093942Y-76287333D01*
X174151085Y-76282571D01*
X174179657Y-76277809D01*
X174208228Y-76268285D01*
X174208228Y-76249238D01*
X174179657Y-76239714D01*
X174151085Y-76234952D01*
X174093942Y-76230190D01*
X173608228Y-76230190D01*
X174179657Y-76187333D02*
X174208228Y-76173047D01*
X174208228Y-76149238D01*
X174179657Y-76139714D01*
X174151085Y-76134952D01*
X174093942Y-76130190D01*
X174036800Y-76130190D01*
X173979657Y-76134952D01*
X173951085Y-76139714D01*
X173922514Y-76149238D01*
X173893942Y-76168285D01*
X173865371Y-76177809D01*
X173836800Y-76182571D01*
X173779657Y-76187333D01*
X173722514Y-76187333D01*
X173665371Y-76182571D01*
X173636800Y-76177809D01*
X173608228Y-76168285D01*
X173608228Y-76144476D01*
X173636800Y-76130190D01*
X174208228Y-76087333D02*
X173608228Y-76087333D01*
X173893942Y-76087333D02*
X173893942Y-76030190D01*
X174208228Y-76030190D02*
X173608228Y-76030190D01*
D13*
D12*
X182465695Y-94865428D02*
X182465695Y-94265428D01*
X182499028Y-94694000D01*
X182532361Y-94265428D01*
X182532361Y-94865428D01*
X182565695Y-94265428D02*
X182622838Y-94265428D01*
X182594266Y-94865428D02*
X182594266Y-94265428D01*
X182646647Y-94265428D02*
X182708552Y-94265428D01*
X182675219Y-94494000D01*
X182689504Y-94494000D01*
X182699028Y-94522571D01*
X182703790Y-94551142D01*
X182708552Y-94608285D01*
X182708552Y-94751142D01*
X182703790Y-94808285D01*
X182699028Y-94836857D01*
X182689504Y-94865428D01*
X182660933Y-94865428D01*
X182651409Y-94836857D01*
X182646647Y-94808285D01*
X182794266Y-94265428D02*
X182775219Y-94265428D01*
X182765695Y-94294000D01*
X182760933Y-94322571D01*
X182751409Y-94408285D01*
X182746647Y-94522571D01*
X182746647Y-94751142D01*
X182751409Y-94808285D01*
X182756171Y-94836857D01*
X182765695Y-94865428D01*
X182784742Y-94865428D01*
X182794266Y-94836857D01*
X182799028Y-94808285D01*
X182803790Y-94751142D01*
X182803790Y-94608285D01*
X182799028Y-94551142D01*
X182794266Y-94522571D01*
X182784742Y-94494000D01*
X182765695Y-94494000D01*
X182756171Y-94522571D01*
X182751409Y-94551142D01*
X182746647Y-94608285D01*
X182865695Y-94265428D02*
X182875219Y-94265428D01*
X182884742Y-94294000D01*
X182889504Y-94322571D01*
X182894266Y-94379714D01*
X182899028Y-94494000D01*
X182899028Y-94636857D01*
X182894266Y-94751142D01*
X182889504Y-94808285D01*
X182884742Y-94836857D01*
X182875219Y-94865428D01*
X182865695Y-94865428D01*
X182856171Y-94836857D01*
X182851409Y-94808285D01*
X182846647Y-94751142D01*
X182841885Y-94636857D01*
X182841885Y-94494000D01*
X182846647Y-94379714D01*
X182851409Y-94322571D01*
X182856171Y-94294000D01*
X182865695Y-94265428D01*
X182956171Y-94522571D02*
X182946647Y-94494000D01*
X182941885Y-94465428D01*
X182937123Y-94408285D01*
X182937123Y-94379714D01*
X182941885Y-94322571D01*
X182946647Y-94294000D01*
X182956171Y-94265428D01*
X182975219Y-94265428D01*
X182984742Y-94294000D01*
X182989504Y-94322571D01*
X182994266Y-94379714D01*
X182994266Y-94408285D01*
X182989504Y-94465428D01*
X182984742Y-94494000D01*
X182975219Y-94522571D01*
X182956171Y-94522571D01*
X182946647Y-94551142D01*
X182941885Y-94579714D01*
X182937123Y-94636857D01*
X182937123Y-94751142D01*
X182941885Y-94808285D01*
X182946647Y-94836857D01*
X182956171Y-94865428D01*
X182975219Y-94865428D01*
X182984742Y-94836857D01*
X182989504Y-94808285D01*
X182994266Y-94751142D01*
X182994266Y-94636857D01*
X182989504Y-94579714D01*
X182984742Y-94551142D01*
X182975219Y-94522571D01*
D13*
D12*
X158604780Y-86077028D02*
X158604780Y-85477028D01*
X158638114Y-85905600D01*
X158671447Y-85477028D01*
X158671447Y-86077028D01*
X158719066Y-86077028D02*
X158719066Y-85477028D01*
X158823828Y-86019885D02*
X158819066Y-86048457D01*
X158804780Y-86077028D01*
X158795257Y-86077028D01*
X158780971Y-86048457D01*
X158771447Y-85991314D01*
X158766685Y-85934171D01*
X158761923Y-85819885D01*
X158761923Y-85734171D01*
X158766685Y-85619885D01*
X158771447Y-85562742D01*
X158780971Y-85505600D01*
X158795257Y-85477028D01*
X158804780Y-85477028D01*
X158819066Y-85505600D01*
X158823828Y-85534171D01*
X158861923Y-85534171D02*
X158866685Y-85505600D01*
X158876209Y-85477028D01*
X158900019Y-85477028D01*
X158909542Y-85505600D01*
X158914304Y-85534171D01*
X158919066Y-85591314D01*
X158919066Y-85648457D01*
X158914304Y-85734171D01*
X158857161Y-86077028D01*
X158919066Y-86077028D01*
X158980971Y-85477028D02*
X158990495Y-85477028D01*
X159000019Y-85505600D01*
X159004780Y-85534171D01*
X159009542Y-85591314D01*
X159014304Y-85705600D01*
X159014304Y-85848457D01*
X159009542Y-85962742D01*
X159004780Y-86019885D01*
X159000019Y-86048457D01*
X158990495Y-86077028D01*
X158980971Y-86077028D01*
X158971447Y-86048457D01*
X158966685Y-86019885D01*
X158961923Y-85962742D01*
X158957161Y-85848457D01*
X158957161Y-85705600D01*
X158961923Y-85591314D01*
X158966685Y-85534171D01*
X158971447Y-85505600D01*
X158980971Y-85477028D01*
X159109542Y-86077028D02*
X159052400Y-86077028D01*
X159080971Y-86077028D02*
X159080971Y-85477028D01*
X159071447Y-85562742D01*
X159061923Y-85619885D01*
X159052400Y-85648457D01*
X159157161Y-86077028D02*
X159176209Y-86077028D01*
X159185733Y-86048457D01*
X159190495Y-86019885D01*
X159200019Y-85934171D01*
X159204780Y-85819885D01*
X159204780Y-85591314D01*
X159200019Y-85534171D01*
X159195257Y-85505600D01*
X159185733Y-85477028D01*
X159166685Y-85477028D01*
X159157161Y-85505600D01*
X159152400Y-85534171D01*
X159147638Y-85591314D01*
X159147638Y-85734171D01*
X159152400Y-85791314D01*
X159157161Y-85819885D01*
X159166685Y-85848457D01*
X159185733Y-85848457D01*
X159195257Y-85819885D01*
X159200019Y-85791314D01*
X159204780Y-85734171D01*
D13*
D12*
X162008628Y-74864095D02*
X162408628Y-74864095D01*
X161780057Y-74887904D02*
X162208628Y-74911714D01*
X162208628Y-74849809D01*
X162351485Y-74811714D02*
X162380057Y-74806952D01*
X162408628Y-74811714D01*
X162380057Y-74816476D01*
X162351485Y-74811714D01*
X162408628Y-74811714D01*
X161808628Y-74773619D02*
X161808628Y-74706952D01*
X162408628Y-74749809D01*
X162008628Y-74549809D02*
X162408628Y-74549809D01*
X162008628Y-74592666D02*
X162322914Y-74592666D01*
X162380057Y-74587904D01*
X162408628Y-74578380D01*
X162408628Y-74564095D01*
X162380057Y-74554571D01*
X162351485Y-74549809D01*
X162408628Y-74502190D02*
X161808628Y-74502190D01*
X162094342Y-74502190D02*
X162094342Y-74445047D01*
X162408628Y-74445047D02*
X161808628Y-74445047D01*
D13*
D12*
X178154228Y-98079828D02*
X177554228Y-98079828D01*
X178154228Y-98022685D01*
X177554228Y-98022685D01*
X178154228Y-97917923D02*
X177868514Y-97951257D01*
X178154228Y-97975066D02*
X177554228Y-97975066D01*
X177554228Y-97936971D01*
X177582800Y-97927447D01*
X177611371Y-97922685D01*
X177668514Y-97917923D01*
X177754228Y-97917923D01*
X177811371Y-97922685D01*
X177839942Y-97927447D01*
X177868514Y-97936971D01*
X177868514Y-97975066D01*
X177554228Y-97889352D02*
X178154228Y-97856019D01*
X177554228Y-97822685D01*
X177554228Y-97803638D02*
X177554228Y-97746495D01*
X178154228Y-97775066D02*
X177554228Y-97775066D01*
X178125657Y-97717923D02*
X178154228Y-97703638D01*
X178154228Y-97679828D01*
X178125657Y-97670304D01*
X178097085Y-97665542D01*
X178039942Y-97660780D01*
X177982800Y-97660780D01*
X177925657Y-97665542D01*
X177897085Y-97670304D01*
X177868514Y-97679828D01*
X177839942Y-97698876D01*
X177811371Y-97708400D01*
X177782800Y-97713161D01*
X177725657Y-97717923D01*
X177668514Y-97717923D01*
X177611371Y-97713161D01*
X177582800Y-97708400D01*
X177554228Y-97698876D01*
X177554228Y-97675066D01*
X177582800Y-97660780D01*
X177611371Y-97622685D02*
X177582800Y-97617923D01*
X177554228Y-97608400D01*
X177554228Y-97584590D01*
X177582800Y-97575066D01*
X177611371Y-97570304D01*
X177668514Y-97565542D01*
X177725657Y-97565542D01*
X177811371Y-97570304D01*
X178154228Y-97627447D01*
X178154228Y-97565542D01*
X177554228Y-97479828D02*
X177554228Y-97498876D01*
X177582800Y-97508400D01*
X177611371Y-97513161D01*
X177697085Y-97522685D01*
X177811371Y-97527447D01*
X178039942Y-97527447D01*
X178097085Y-97522685D01*
X178125657Y-97517923D01*
X178154228Y-97508400D01*
X178154228Y-97489352D01*
X178125657Y-97479828D01*
X178097085Y-97475066D01*
X178039942Y-97470304D01*
X177897085Y-97470304D01*
X177839942Y-97475066D01*
X177811371Y-97479828D01*
X177782800Y-97489352D01*
X177782800Y-97508400D01*
X177811371Y-97517923D01*
X177839942Y-97522685D01*
X177897085Y-97527447D01*
X177554228Y-97408400D02*
X177554228Y-97398876D01*
X177582800Y-97389352D01*
X177611371Y-97384590D01*
X177668514Y-97379828D01*
X177782800Y-97375066D01*
X177925657Y-97375066D01*
X178039942Y-97379828D01*
X178097085Y-97384590D01*
X178125657Y-97389352D01*
X178154228Y-97398876D01*
X178154228Y-97408400D01*
X178125657Y-97417923D01*
X178097085Y-97422685D01*
X178039942Y-97427447D01*
X177925657Y-97432209D01*
X177782800Y-97432209D01*
X177668514Y-97427447D01*
X177611371Y-97422685D01*
X177582800Y-97417923D01*
X177554228Y-97408400D01*
X177839942Y-97332209D02*
X177839942Y-97298876D01*
X178154228Y-97284590D02*
X178154228Y-97332209D01*
X177554228Y-97332209D01*
X177554228Y-97284590D01*
X178125657Y-97246495D02*
X178154228Y-97232209D01*
X178154228Y-97208400D01*
X178125657Y-97198876D01*
X178097085Y-97194114D01*
X178039942Y-97189352D01*
X177982800Y-97189352D01*
X177925657Y-97194114D01*
X177897085Y-97198876D01*
X177868514Y-97208400D01*
X177839942Y-97227447D01*
X177811371Y-97236971D01*
X177782800Y-97241733D01*
X177725657Y-97246495D01*
X177668514Y-97246495D01*
X177611371Y-97241733D01*
X177582800Y-97236971D01*
X177554228Y-97227447D01*
X177554228Y-97203638D01*
X177582800Y-97189352D01*
X177839942Y-97113161D02*
X177839942Y-97146495D01*
X178154228Y-97146495D02*
X177554228Y-97146495D01*
X177554228Y-97098876D01*
X177554228Y-97075066D02*
X177554228Y-97017923D01*
X178154228Y-97046495D02*
X177554228Y-97046495D01*
X178154228Y-96932209D02*
X178154228Y-96989352D01*
X178154228Y-96960780D02*
X177554228Y-96960780D01*
X177639942Y-96970304D01*
X177697085Y-96979828D01*
X177725657Y-96989352D01*
X177582800Y-96836971D02*
X177554228Y-96846495D01*
X177554228Y-96860780D01*
X177582800Y-96875066D01*
X177639942Y-96884590D01*
X177697085Y-96889352D01*
X177811371Y-96894114D01*
X177897085Y-96894114D01*
X178011371Y-96889352D01*
X178068514Y-96884590D01*
X178125657Y-96875066D01*
X178154228Y-96860780D01*
X178154228Y-96851257D01*
X178125657Y-96836971D01*
X178097085Y-96832209D01*
X177897085Y-96832209D01*
X177897085Y-96851257D01*
D13*
D12*
X140150914Y-88670000D02*
X140198533Y-88670000D01*
X140141390Y-88841428D02*
X140174723Y-88241428D01*
X140208057Y-88841428D01*
X140231866Y-88241428D02*
X140298533Y-88841428D01*
X140298533Y-88241428D02*
X140231866Y-88841428D01*
X140336628Y-88841428D02*
X140336628Y-88241428D01*
X140374723Y-88241428D01*
X140384247Y-88270000D01*
X140389009Y-88298571D01*
X140393771Y-88355714D01*
X140393771Y-88441428D01*
X140389009Y-88498571D01*
X140384247Y-88527142D01*
X140374723Y-88555714D01*
X140336628Y-88555714D01*
X140431866Y-88298571D02*
X140436628Y-88270000D01*
X140446152Y-88241428D01*
X140469961Y-88241428D01*
X140479485Y-88270000D01*
X140484247Y-88298571D01*
X140489009Y-88355714D01*
X140489009Y-88412857D01*
X140484247Y-88498571D01*
X140427104Y-88841428D01*
X140489009Y-88841428D01*
X140550914Y-88241428D02*
X140560438Y-88241428D01*
X140569961Y-88270000D01*
X140574723Y-88298571D01*
X140579485Y-88355714D01*
X140584247Y-88470000D01*
X140584247Y-88612857D01*
X140579485Y-88727142D01*
X140574723Y-88784285D01*
X140569961Y-88812857D01*
X140560438Y-88841428D01*
X140550914Y-88841428D01*
X140541390Y-88812857D01*
X140536628Y-88784285D01*
X140531866Y-88727142D01*
X140527104Y-88612857D01*
X140527104Y-88470000D01*
X140531866Y-88355714D01*
X140536628Y-88298571D01*
X140541390Y-88270000D01*
X140550914Y-88241428D01*
X140631866Y-88841428D02*
X140650914Y-88841428D01*
X140660438Y-88812857D01*
X140665200Y-88784285D01*
X140674723Y-88698571D01*
X140679485Y-88584285D01*
X140679485Y-88355714D01*
X140674723Y-88298571D01*
X140669961Y-88270000D01*
X140660438Y-88241428D01*
X140641390Y-88241428D01*
X140631866Y-88270000D01*
X140627104Y-88298571D01*
X140622342Y-88355714D01*
X140622342Y-88498571D01*
X140627104Y-88555714D01*
X140631866Y-88584285D01*
X140641390Y-88612857D01*
X140660438Y-88612857D01*
X140669961Y-88584285D01*
X140674723Y-88555714D01*
X140679485Y-88498571D01*
D13*
D12*
X133026928Y-106898337D02*
X133512642Y-106898337D01*
X133569785Y-106893575D01*
X133598357Y-106888813D01*
X133626928Y-106879289D01*
X133626928Y-106860241D01*
X133598357Y-106850718D01*
X133569785Y-106845956D01*
X133512642Y-106841194D01*
X133026928Y-106841194D01*
X133598357Y-106798337D02*
X133626928Y-106784051D01*
X133626928Y-106760241D01*
X133598357Y-106750718D01*
X133569785Y-106745956D01*
X133512642Y-106741194D01*
X133455500Y-106741194D01*
X133398357Y-106745956D01*
X133369785Y-106750718D01*
X133341214Y-106760241D01*
X133312642Y-106779289D01*
X133284071Y-106788813D01*
X133255500Y-106793575D01*
X133198357Y-106798337D01*
X133141214Y-106798337D01*
X133084071Y-106793575D01*
X133055500Y-106788813D01*
X133026928Y-106779289D01*
X133026928Y-106755480D01*
X133055500Y-106741194D01*
X133312642Y-106665003D02*
X133341214Y-106650718D01*
X133369785Y-106645956D01*
X133426928Y-106641194D01*
X133512642Y-106641194D01*
X133569785Y-106645956D01*
X133598357Y-106650718D01*
X133626928Y-106660241D01*
X133626928Y-106698337D01*
X133026928Y-106698337D01*
X133026928Y-106665003D01*
X133055500Y-106655480D01*
X133084071Y-106650718D01*
X133141214Y-106645956D01*
X133198357Y-106645956D01*
X133255500Y-106650718D01*
X133284071Y-106655480D01*
X133312642Y-106665003D01*
X133312642Y-106698337D01*
X133684071Y-106622146D02*
X133684071Y-106545956D01*
X133455500Y-106526908D02*
X133455500Y-106479289D01*
X133626928Y-106536432D02*
X133026928Y-106503099D01*
X133626928Y-106469765D01*
X133684071Y-106460241D02*
X133684071Y-106384051D01*
X133626928Y-106307860D02*
X133626928Y-106365003D01*
X133626928Y-106336432D02*
X133026928Y-106336432D01*
X133112642Y-106345956D01*
X133169785Y-106355480D01*
X133198357Y-106365003D01*
D13*
D12*
X179407390Y-115146285D02*
X179402628Y-115174857D01*
X179388342Y-115203428D01*
X179378819Y-115203428D01*
X179364533Y-115174857D01*
X179355009Y-115117714D01*
X179350247Y-115060571D01*
X179345485Y-114946285D01*
X179345485Y-114860571D01*
X179350247Y-114746285D01*
X179355009Y-114689142D01*
X179364533Y-114632000D01*
X179378819Y-114603428D01*
X179388342Y-114603428D01*
X179402628Y-114632000D01*
X179407390Y-114660571D01*
X179464533Y-115203428D02*
X179455009Y-115174857D01*
X179450247Y-115146285D01*
X179445485Y-115089142D01*
X179445485Y-114917714D01*
X179450247Y-114860571D01*
X179455009Y-114832000D01*
X179464533Y-114803428D01*
X179478819Y-114803428D01*
X179488342Y-114832000D01*
X179493104Y-114860571D01*
X179497866Y-114917714D01*
X179497866Y-115089142D01*
X179493104Y-115146285D01*
X179488342Y-115174857D01*
X179478819Y-115203428D01*
X179464533Y-115203428D01*
X179540723Y-114803428D02*
X179540723Y-115203428D01*
X179540723Y-114860571D02*
X179545485Y-114832000D01*
X179555009Y-114803428D01*
X179569295Y-114803428D01*
X179578819Y-114832000D01*
X179583580Y-114889142D01*
X179583580Y-115203428D01*
X179631200Y-114803428D02*
X179631200Y-115203428D01*
X179631200Y-114860571D02*
X179635961Y-114832000D01*
X179645485Y-114803428D01*
X179659771Y-114803428D01*
X179669295Y-114832000D01*
X179674057Y-114889142D01*
X179674057Y-115203428D01*
X179697866Y-115260571D02*
X179774057Y-115260571D01*
X179816914Y-114603428D02*
X179826438Y-114603428D01*
X179835961Y-114632000D01*
X179840723Y-114660571D01*
X179845485Y-114717714D01*
X179850247Y-114832000D01*
X179850247Y-114974857D01*
X179845485Y-115089142D01*
X179840723Y-115146285D01*
X179835961Y-115174857D01*
X179826438Y-115203428D01*
X179816914Y-115203428D01*
X179807390Y-115174857D01*
X179802628Y-115146285D01*
X179797866Y-115089142D01*
X179793104Y-114974857D01*
X179793104Y-114832000D01*
X179797866Y-114717714D01*
X179802628Y-114660571D01*
X179807390Y-114632000D01*
X179816914Y-114603428D01*
X179945485Y-115203428D02*
X179888342Y-115203428D01*
X179916914Y-115203428D02*
X179916914Y-114603428D01*
X179907390Y-114689142D01*
X179897866Y-114746285D01*
X179888342Y-114774857D01*
X179978819Y-115203428D02*
X180031200Y-114803428D01*
X179978819Y-114803428D02*
X180031200Y-115203428D01*
X180088342Y-114603428D02*
X180097866Y-114603428D01*
X180107390Y-114632000D01*
X180112152Y-114660571D01*
X180116914Y-114717714D01*
X180121676Y-114832000D01*
X180121676Y-114974857D01*
X180116914Y-115089142D01*
X180112152Y-115146285D01*
X180107390Y-115174857D01*
X180097866Y-115203428D01*
X180088342Y-115203428D01*
X180078819Y-115174857D01*
X180074057Y-115146285D01*
X180069295Y-115089142D01*
X180064533Y-114974857D01*
X180064533Y-114832000D01*
X180069295Y-114717714D01*
X180074057Y-114660571D01*
X180078819Y-114632000D01*
X180088342Y-114603428D01*
X180212152Y-114603428D02*
X180164533Y-114603428D01*
X180159771Y-114889142D01*
X180164533Y-114860571D01*
X180174057Y-114832000D01*
X180197866Y-114832000D01*
X180207390Y-114860571D01*
X180212152Y-114889142D01*
X180216914Y-114946285D01*
X180216914Y-115089142D01*
X180212152Y-115146285D01*
X180207390Y-115174857D01*
X180197866Y-115203428D01*
X180174057Y-115203428D01*
X180164533Y-115174857D01*
X180159771Y-115146285D01*
D13*
D11*
X180233580Y-123080095D02*
X179233580Y-123080095D01*
X179233580Y-122699142D01*
X179281200Y-122603904D01*
X179328819Y-122556285D01*
X179424057Y-122508666D01*
X179566914Y-122508666D01*
X179662152Y-122556285D01*
X179709771Y-122603904D01*
X179757390Y-122699142D01*
X179757390Y-123080095D01*
X179233580Y-121651523D02*
X179233580Y-121842000D01*
X179281200Y-121937238D01*
X179328819Y-121984857D01*
X179471676Y-122080095D01*
X179662152Y-122127714D01*
X180043104Y-122127714D01*
X180138342Y-122080095D01*
X180185961Y-122032476D01*
X180233580Y-121937238D01*
X180233580Y-121746761D01*
X180185961Y-121651523D01*
X180138342Y-121603904D01*
X180043104Y-121556285D01*
X179805009Y-121556285D01*
X179709771Y-121603904D01*
X179662152Y-121651523D01*
X179614533Y-121746761D01*
X179614533Y-121937238D01*
X179662152Y-122032476D01*
X179709771Y-122080095D01*
X179805009Y-122127714D01*
D12*
X144355390Y-115146285D02*
X144350628Y-115174857D01*
X144336342Y-115203428D01*
X144326819Y-115203428D01*
X144312533Y-115174857D01*
X144303009Y-115117714D01*
X144298247Y-115060571D01*
X144293485Y-114946285D01*
X144293485Y-114860571D01*
X144298247Y-114746285D01*
X144303009Y-114689142D01*
X144312533Y-114632000D01*
X144326819Y-114603428D01*
X144336342Y-114603428D01*
X144350628Y-114632000D01*
X144355390Y-114660571D01*
X144412533Y-115203428D02*
X144403009Y-115174857D01*
X144398247Y-115146285D01*
X144393485Y-115089142D01*
X144393485Y-114917714D01*
X144398247Y-114860571D01*
X144403009Y-114832000D01*
X144412533Y-114803428D01*
X144426819Y-114803428D01*
X144436342Y-114832000D01*
X144441104Y-114860571D01*
X144445866Y-114917714D01*
X144445866Y-115089142D01*
X144441104Y-115146285D01*
X144436342Y-115174857D01*
X144426819Y-115203428D01*
X144412533Y-115203428D01*
X144488723Y-114803428D02*
X144488723Y-115203428D01*
X144488723Y-114860571D02*
X144493485Y-114832000D01*
X144503009Y-114803428D01*
X144517295Y-114803428D01*
X144526819Y-114832000D01*
X144531580Y-114889142D01*
X144531580Y-115203428D01*
X144579200Y-114803428D02*
X144579200Y-115203428D01*
X144579200Y-114860571D02*
X144583961Y-114832000D01*
X144593485Y-114803428D01*
X144607771Y-114803428D01*
X144617295Y-114832000D01*
X144622057Y-114889142D01*
X144622057Y-115203428D01*
X144645866Y-115260571D02*
X144722057Y-115260571D01*
X144764914Y-114603428D02*
X144774438Y-114603428D01*
X144783961Y-114632000D01*
X144788723Y-114660571D01*
X144793485Y-114717714D01*
X144798247Y-114832000D01*
X144798247Y-114974857D01*
X144793485Y-115089142D01*
X144788723Y-115146285D01*
X144783961Y-115174857D01*
X144774438Y-115203428D01*
X144764914Y-115203428D01*
X144755390Y-115174857D01*
X144750628Y-115146285D01*
X144745866Y-115089142D01*
X144741104Y-114974857D01*
X144741104Y-114832000D01*
X144745866Y-114717714D01*
X144750628Y-114660571D01*
X144755390Y-114632000D01*
X144764914Y-114603428D01*
X144893485Y-115203428D02*
X144836342Y-115203428D01*
X144864914Y-115203428D02*
X144864914Y-114603428D01*
X144855390Y-114689142D01*
X144845866Y-114746285D01*
X144836342Y-114774857D01*
X144926819Y-115203428D02*
X144979200Y-114803428D01*
X144926819Y-114803428D02*
X144979200Y-115203428D01*
X145036342Y-114603428D02*
X145045866Y-114603428D01*
X145055390Y-114632000D01*
X145060152Y-114660571D01*
X145064914Y-114717714D01*
X145069676Y-114832000D01*
X145069676Y-114974857D01*
X145064914Y-115089142D01*
X145060152Y-115146285D01*
X145055390Y-115174857D01*
X145045866Y-115203428D01*
X145036342Y-115203428D01*
X145026819Y-115174857D01*
X145022057Y-115146285D01*
X145017295Y-115089142D01*
X145012533Y-114974857D01*
X145012533Y-114832000D01*
X145017295Y-114717714D01*
X145022057Y-114660571D01*
X145026819Y-114632000D01*
X145036342Y-114603428D01*
X145160152Y-114603428D02*
X145112533Y-114603428D01*
X145107771Y-114889142D01*
X145112533Y-114860571D01*
X145122057Y-114832000D01*
X145145866Y-114832000D01*
X145155390Y-114860571D01*
X145160152Y-114889142D01*
X145164914Y-114946285D01*
X145164914Y-115089142D01*
X145160152Y-115146285D01*
X145155390Y-115174857D01*
X145145866Y-115203428D01*
X145122057Y-115203428D01*
X145112533Y-115174857D01*
X145107771Y-115146285D01*
D13*
D11*
X145181580Y-123080095D02*
X144181580Y-123080095D01*
X144181580Y-122699142D01*
X144229200Y-122603904D01*
X144276819Y-122556285D01*
X144372057Y-122508666D01*
X144514914Y-122508666D01*
X144610152Y-122556285D01*
X144657771Y-122603904D01*
X144705390Y-122699142D01*
X144705390Y-123080095D01*
X144276819Y-122127714D02*
X144229200Y-122080095D01*
X144181580Y-121984857D01*
X144181580Y-121746761D01*
X144229200Y-121651523D01*
X144276819Y-121603904D01*
X144372057Y-121556285D01*
X144467295Y-121556285D01*
X144610152Y-121603904D01*
X145181580Y-122175333D01*
X145181580Y-121556285D01*
D12*
X179651428Y-69948190D02*
X179051428Y-69948190D01*
X179480000Y-69914857D01*
X179051428Y-69881523D01*
X179651428Y-69881523D01*
X179651428Y-69819619D02*
X179622857Y-69829142D01*
X179594285Y-69833904D01*
X179537142Y-69838666D01*
X179365714Y-69838666D01*
X179308571Y-69833904D01*
X179280000Y-69829142D01*
X179251428Y-69819619D01*
X179251428Y-69805333D01*
X179280000Y-69795809D01*
X179308571Y-69791047D01*
X179365714Y-69786285D01*
X179537142Y-69786285D01*
X179594285Y-69791047D01*
X179622857Y-69795809D01*
X179651428Y-69805333D01*
X179651428Y-69819619D01*
X179651428Y-69729142D02*
X179622857Y-69738666D01*
X179565714Y-69743428D01*
X179051428Y-69743428D01*
X179622857Y-69652952D02*
X179651428Y-69662476D01*
X179651428Y-69681523D01*
X179622857Y-69691047D01*
X179565714Y-69695809D01*
X179337142Y-69695809D01*
X179280000Y-69691047D01*
X179251428Y-69681523D01*
X179251428Y-69662476D01*
X179280000Y-69652952D01*
X179337142Y-69648190D01*
X179394285Y-69648190D01*
X179451428Y-69695809D01*
X179651428Y-69614857D02*
X179251428Y-69562476D01*
X179251428Y-69614857D02*
X179651428Y-69562476D01*
X179651428Y-69448190D02*
X179051428Y-69448190D01*
X179051428Y-69410095D01*
X179080000Y-69400571D01*
X179108571Y-69395809D01*
X179165714Y-69391047D01*
X179251428Y-69391047D01*
X179308571Y-69395809D01*
X179337142Y-69400571D01*
X179365714Y-69410095D01*
X179365714Y-69448190D01*
X179651428Y-69348190D02*
X179251428Y-69348190D01*
X179051428Y-69348190D02*
X179080000Y-69352952D01*
X179108571Y-69348190D01*
X179080000Y-69343428D01*
X179051428Y-69348190D01*
X179108571Y-69348190D01*
X179622857Y-69257714D02*
X179651428Y-69267238D01*
X179651428Y-69286285D01*
X179622857Y-69295809D01*
X179594285Y-69300571D01*
X179537142Y-69305333D01*
X179365714Y-69305333D01*
X179308571Y-69300571D01*
X179280000Y-69295809D01*
X179251428Y-69286285D01*
X179251428Y-69267238D01*
X179280000Y-69257714D01*
X179651428Y-69200571D02*
X179622857Y-69210095D01*
X179594285Y-69214857D01*
X179537142Y-69219619D01*
X179365714Y-69219619D01*
X179308571Y-69214857D01*
X179280000Y-69210095D01*
X179251428Y-69200571D01*
X179251428Y-69186285D01*
X179280000Y-69176761D01*
X179308571Y-69172000D01*
X179365714Y-69167238D01*
X179537142Y-69167238D01*
X179594285Y-69172000D01*
X179622857Y-69176761D01*
X179651428Y-69186285D01*
X179651428Y-69200571D01*
X179337142Y-69091047D02*
X179365714Y-69076761D01*
X179394285Y-69072000D01*
X179451428Y-69067238D01*
X179537142Y-69067238D01*
X179594285Y-69072000D01*
X179622857Y-69076761D01*
X179651428Y-69086285D01*
X179651428Y-69124380D01*
X179051428Y-69124380D01*
X179051428Y-69091047D01*
X179080000Y-69081523D01*
X179108571Y-69076761D01*
X179165714Y-69072000D01*
X179222857Y-69072000D01*
X179280000Y-69076761D01*
X179308571Y-69081523D01*
X179337142Y-69091047D01*
X179337142Y-69124380D01*
X179651428Y-69010095D02*
X179622857Y-69019619D01*
X179565714Y-69024380D01*
X179051428Y-69024380D01*
X179651428Y-68929142D02*
X179337142Y-68929142D01*
X179280000Y-68933904D01*
X179251428Y-68943428D01*
X179251428Y-68962476D01*
X179280000Y-68972000D01*
X179622857Y-68929142D02*
X179651428Y-68938666D01*
X179651428Y-68962476D01*
X179622857Y-68972000D01*
X179565714Y-68976761D01*
X179508571Y-68976761D01*
X179451428Y-68972000D01*
X179422857Y-68962476D01*
X179422857Y-68938666D01*
X179394285Y-68929142D01*
X179651428Y-68838666D02*
X179051428Y-68838666D01*
X179622857Y-68838666D02*
X179651428Y-68848190D01*
X179651428Y-68867238D01*
X179622857Y-68876761D01*
X179594285Y-68881523D01*
X179537142Y-68886285D01*
X179365714Y-68886285D01*
X179308571Y-68881523D01*
X179280000Y-68876761D01*
X179251428Y-68867238D01*
X179251428Y-68848190D01*
X179280000Y-68838666D01*
X179622857Y-68752952D02*
X179651428Y-68762476D01*
X179651428Y-68781523D01*
X179622857Y-68791047D01*
X179565714Y-68795809D01*
X179337142Y-68795809D01*
X179280000Y-68791047D01*
X179251428Y-68781523D01*
X179251428Y-68762476D01*
X179280000Y-68752952D01*
X179337142Y-68748190D01*
X179394285Y-68748190D01*
X179451428Y-68795809D01*
X179051428Y-68581523D02*
X179051428Y-68629142D01*
X179337142Y-68633904D01*
X179308571Y-68629142D01*
X179280000Y-68619619D01*
X179280000Y-68595809D01*
X179308571Y-68586285D01*
X179337142Y-68581523D01*
X179394285Y-68576761D01*
X179537142Y-68576761D01*
X179594285Y-68581523D01*
X179622857Y-68586285D01*
X179651428Y-68595809D01*
X179651428Y-68619619D01*
X179622857Y-68629142D01*
X179594285Y-68633904D01*
X179051428Y-68543428D02*
X179051428Y-68481523D01*
X179280000Y-68514857D01*
X179280000Y-68500571D01*
X179308571Y-68491047D01*
X179337142Y-68486285D01*
X179394285Y-68481523D01*
X179537142Y-68481523D01*
X179594285Y-68486285D01*
X179622857Y-68491047D01*
X179651428Y-68500571D01*
X179651428Y-68529142D01*
X179622857Y-68538666D01*
X179594285Y-68543428D01*
X179051428Y-68419619D02*
X179051428Y-68410095D01*
X179080000Y-68400571D01*
X179108571Y-68395809D01*
X179165714Y-68391047D01*
X179280000Y-68386285D01*
X179422857Y-68386285D01*
X179537142Y-68391047D01*
X179594285Y-68395809D01*
X179622857Y-68400571D01*
X179651428Y-68410095D01*
X179651428Y-68419619D01*
X179622857Y-68429142D01*
X179594285Y-68433904D01*
X179537142Y-68438666D01*
X179422857Y-68443428D01*
X179280000Y-68443428D01*
X179165714Y-68438666D01*
X179108571Y-68433904D01*
X179080000Y-68429142D01*
X179051428Y-68419619D01*
X179251428Y-68300571D02*
X179651428Y-68300571D01*
X179022857Y-68324380D02*
X179451428Y-68348190D01*
X179451428Y-68286285D01*
X179051428Y-68257714D02*
X179051428Y-68191047D01*
X179651428Y-68233904D01*
X179422857Y-68152952D02*
X179422857Y-68076761D01*
X179051428Y-68010095D02*
X179051428Y-68000571D01*
X179080000Y-67991047D01*
X179108571Y-67986285D01*
X179165714Y-67981523D01*
X179280000Y-67976761D01*
X179422857Y-67976761D01*
X179537142Y-67981523D01*
X179594285Y-67986285D01*
X179622857Y-67991047D01*
X179651428Y-68000571D01*
X179651428Y-68010095D01*
X179622857Y-68019619D01*
X179594285Y-68024380D01*
X179537142Y-68029142D01*
X179422857Y-68033904D01*
X179280000Y-68033904D01*
X179165714Y-68029142D01*
X179108571Y-68024380D01*
X179080000Y-68019619D01*
X179051428Y-68010095D01*
X179108571Y-67938666D02*
X179080000Y-67933904D01*
X179051428Y-67924380D01*
X179051428Y-67900571D01*
X179080000Y-67891047D01*
X179108571Y-67886285D01*
X179165714Y-67881523D01*
X179222857Y-67881523D01*
X179308571Y-67886285D01*
X179651428Y-67943428D01*
X179651428Y-67881523D01*
X179651428Y-67786285D02*
X179651428Y-67843428D01*
X179651428Y-67814857D02*
X179051428Y-67814857D01*
X179137142Y-67824380D01*
X179194285Y-67833904D01*
X179222857Y-67843428D01*
X179051428Y-67724380D02*
X179051428Y-67714857D01*
X179080000Y-67705333D01*
X179108571Y-67700571D01*
X179165714Y-67695809D01*
X179280000Y-67691047D01*
X179422857Y-67691047D01*
X179537142Y-67695809D01*
X179594285Y-67700571D01*
X179622857Y-67705333D01*
X179651428Y-67714857D01*
X179651428Y-67724380D01*
X179622857Y-67733904D01*
X179594285Y-67738666D01*
X179537142Y-67743428D01*
X179422857Y-67748190D01*
X179280000Y-67748190D01*
X179165714Y-67743428D01*
X179108571Y-67738666D01*
X179080000Y-67733904D01*
X179051428Y-67724380D01*
D13*
D11*
X184158571Y-68656285D02*
X184206190Y-68513428D01*
X184253809Y-68465809D01*
X184349047Y-68418190D01*
X184491904Y-68418190D01*
X184587142Y-68465809D01*
X184634761Y-68513428D01*
X184682380Y-68608666D01*
X184682380Y-68989619D01*
X183682380Y-68989619D01*
X183682380Y-68656285D01*
X183730000Y-68561047D01*
X183777619Y-68513428D01*
X183872857Y-68465809D01*
X183968095Y-68465809D01*
X184063333Y-68513428D01*
X184110952Y-68561047D01*
X184158571Y-68656285D01*
X184158571Y-68989619D01*
X184396666Y-68037238D02*
X184396666Y-67561047D01*
X184682380Y-68132476D02*
X183682380Y-67799142D01*
X184682380Y-67465809D01*
X183682380Y-67275333D02*
X183682380Y-66703904D01*
X184682380Y-66989619D02*
X183682380Y-66989619D01*
X184682380Y-65846761D02*
X184682380Y-66418190D01*
X184682380Y-66132476D02*
X183682380Y-66132476D01*
X183825238Y-66227714D01*
X183920476Y-66322952D01*
X183968095Y-66418190D01*
D12*
X141658428Y-131668909D02*
X141658428Y-131716528D01*
X141944142Y-131721290D01*
X141915571Y-131716528D01*
X141887000Y-131707004D01*
X141887000Y-131683195D01*
X141915571Y-131673671D01*
X141944142Y-131668909D01*
X142001285Y-131664147D01*
X142144142Y-131664147D01*
X142201285Y-131668909D01*
X142229857Y-131673671D01*
X142258428Y-131683195D01*
X142258428Y-131707004D01*
X142229857Y-131716528D01*
X142201285Y-131721290D01*
X142258428Y-131568909D02*
X142258428Y-131626052D01*
X142258428Y-131597480D02*
X141658428Y-131597480D01*
X141744142Y-131607004D01*
X141801285Y-131616528D01*
X141829857Y-131626052D01*
X142258428Y-131526052D02*
X141658428Y-131526052D01*
X142258428Y-131468909D02*
X141915571Y-131511766D01*
X141658428Y-131468909D02*
X142001285Y-131526052D01*
D13*
D11*
X144089380Y-131761766D02*
X143613190Y-132095100D01*
X144089380Y-132333195D02*
X143089380Y-132333195D01*
X143089380Y-131952242D01*
X143137000Y-131857004D01*
X143184619Y-131809385D01*
X143279857Y-131761766D01*
X143422714Y-131761766D01*
X143517952Y-131809385D01*
X143565571Y-131857004D01*
X143613190Y-131952242D01*
X143613190Y-132333195D01*
X143089380Y-130857004D02*
X143089380Y-131333195D01*
X143565571Y-131380814D01*
X143517952Y-131333195D01*
X143470333Y-131237957D01*
X143470333Y-130999861D01*
X143517952Y-130904623D01*
X143565571Y-130857004D01*
X143660809Y-130809385D01*
X143898904Y-130809385D01*
X143994142Y-130857004D01*
X144041761Y-130904623D01*
X144089380Y-130999861D01*
X144089380Y-131237957D01*
X144041761Y-131333195D01*
X143994142Y-131380814D01*
D12*
X164548171Y-79394109D02*
X164519600Y-79389347D01*
X164491028Y-79379823D01*
X164491028Y-79356014D01*
X164519600Y-79346490D01*
X164548171Y-79341728D01*
X164605314Y-79336966D01*
X164662457Y-79336966D01*
X164748171Y-79341728D01*
X165091028Y-79398871D01*
X165091028Y-79336966D01*
X164548171Y-79298871D02*
X164519600Y-79294109D01*
X164491028Y-79284585D01*
X164491028Y-79260776D01*
X164519600Y-79251252D01*
X164548171Y-79246490D01*
X164605314Y-79241728D01*
X164662457Y-79241728D01*
X164748171Y-79246490D01*
X165091028Y-79303633D01*
X165091028Y-79241728D01*
X164491028Y-79179823D02*
X164491028Y-79170300D01*
X164519600Y-79160776D01*
X164548171Y-79156014D01*
X164605314Y-79151252D01*
X164719600Y-79146490D01*
X164862457Y-79146490D01*
X164976742Y-79151252D01*
X165033885Y-79156014D01*
X165062457Y-79160776D01*
X165091028Y-79170300D01*
X165091028Y-79179823D01*
X165062457Y-79189347D01*
X165033885Y-79194109D01*
X164976742Y-79198871D01*
X164862457Y-79203633D01*
X164719600Y-79203633D01*
X164605314Y-79198871D01*
X164548171Y-79194109D01*
X164519600Y-79189347D01*
X164491028Y-79179823D01*
X165091028Y-79103633D02*
X164491028Y-79103633D01*
X165091028Y-79046490D02*
X164748171Y-79089347D01*
X164491028Y-79046490D02*
X164833885Y-79103633D01*
D13*
D11*
X163621980Y-79386966D02*
X163145790Y-79720300D01*
X163621980Y-79958395D02*
X162621980Y-79958395D01*
X162621980Y-79577442D01*
X162669600Y-79482204D01*
X162717219Y-79434585D01*
X162812457Y-79386966D01*
X162955314Y-79386966D01*
X163050552Y-79434585D01*
X163098171Y-79482204D01*
X163145790Y-79577442D01*
X163145790Y-79958395D01*
X162621980Y-78529823D02*
X162621980Y-78720300D01*
X162669600Y-78815538D01*
X162717219Y-78863157D01*
X162860076Y-78958395D01*
X163050552Y-79006014D01*
X163431504Y-79006014D01*
X163526742Y-78958395D01*
X163574361Y-78910776D01*
X163621980Y-78815538D01*
X163621980Y-78625061D01*
X163574361Y-78529823D01*
X163526742Y-78482204D01*
X163431504Y-78434585D01*
X163193409Y-78434585D01*
X163098171Y-78482204D01*
X163050552Y-78529823D01*
X163002933Y-78625061D01*
X163002933Y-78815538D01*
X163050552Y-78910776D01*
X163098171Y-78958395D01*
X163193409Y-79006014D01*
D12*
X153911466Y-86388228D02*
X153911466Y-85788228D01*
X153944800Y-86216800D01*
X153978133Y-85788228D01*
X153978133Y-86388228D01*
X154025752Y-86388228D02*
X154025752Y-85788228D01*
X154059085Y-86216800D01*
X154092419Y-85788228D01*
X154092419Y-86388228D01*
X154173371Y-86073942D02*
X154187657Y-86102514D01*
X154192419Y-86131085D01*
X154197180Y-86188228D01*
X154197180Y-86273942D01*
X154192419Y-86331085D01*
X154187657Y-86359657D01*
X154178133Y-86388228D01*
X154140038Y-86388228D01*
X154140038Y-85788228D01*
X154173371Y-85788228D01*
X154182895Y-85816800D01*
X154187657Y-85845371D01*
X154192419Y-85902514D01*
X154192419Y-85959657D01*
X154187657Y-86016800D01*
X154182895Y-86045371D01*
X154173371Y-86073942D01*
X154140038Y-86073942D01*
X154240038Y-86388228D02*
X154240038Y-85788228D01*
X154263847Y-85788228D01*
X154278133Y-85816800D01*
X154287657Y-85873942D01*
X154292419Y-85931085D01*
X154297180Y-86045371D01*
X154297180Y-86131085D01*
X154292419Y-86245371D01*
X154287657Y-86302514D01*
X154278133Y-86359657D01*
X154263847Y-86388228D01*
X154240038Y-86388228D01*
X154344800Y-86388228D02*
X154363847Y-86388228D01*
X154373371Y-86359657D01*
X154378133Y-86331085D01*
X154387657Y-86245371D01*
X154392419Y-86131085D01*
X154392419Y-85902514D01*
X154387657Y-85845371D01*
X154382895Y-85816800D01*
X154373371Y-85788228D01*
X154354323Y-85788228D01*
X154344800Y-85816800D01*
X154340038Y-85845371D01*
X154335276Y-85902514D01*
X154335276Y-86045371D01*
X154340038Y-86102514D01*
X154344800Y-86131085D01*
X154354323Y-86159657D01*
X154373371Y-86159657D01*
X154382895Y-86131085D01*
X154387657Y-86102514D01*
X154392419Y-86045371D01*
X154487657Y-86388228D02*
X154430514Y-86388228D01*
X154459085Y-86388228D02*
X154459085Y-85788228D01*
X154449561Y-85873942D01*
X154440038Y-85931085D01*
X154430514Y-85959657D01*
X154573371Y-85988228D02*
X154573371Y-86388228D01*
X154549561Y-85759657D02*
X154525752Y-86188228D01*
X154587657Y-86188228D01*
D13*
D11*
X153506704Y-81569180D02*
X153506704Y-80569180D01*
X153744800Y-80569180D01*
X153887657Y-80616800D01*
X153982895Y-80712038D01*
X154030514Y-80807276D01*
X154078133Y-80997752D01*
X154078133Y-81140609D01*
X154030514Y-81331085D01*
X153982895Y-81426323D01*
X153887657Y-81521561D01*
X153744800Y-81569180D01*
X153506704Y-81569180D01*
X154459085Y-80664419D02*
X154506704Y-80616800D01*
X154601942Y-80569180D01*
X154840038Y-80569180D01*
X154935276Y-80616800D01*
X154982895Y-80664419D01*
X155030514Y-80759657D01*
X155030514Y-80854895D01*
X154982895Y-80997752D01*
X154411466Y-81569180D01*
X155030514Y-81569180D01*
D12*
X131917304Y-118563000D02*
X131964923Y-118563000D01*
X131907780Y-118734428D02*
X131941114Y-118134428D01*
X131974447Y-118734428D01*
X132064923Y-118677285D02*
X132060161Y-118705857D01*
X132045876Y-118734428D01*
X132036352Y-118734428D01*
X132022066Y-118705857D01*
X132012542Y-118648714D01*
X132007780Y-118591571D01*
X132003019Y-118477285D01*
X132003019Y-118391571D01*
X132007780Y-118277285D01*
X132012542Y-118220142D01*
X132022066Y-118163000D01*
X132036352Y-118134428D01*
X132045876Y-118134428D01*
X132060161Y-118163000D01*
X132064923Y-118191571D01*
X132083971Y-118791571D02*
X132160161Y-118791571D01*
X132183971Y-118734428D02*
X132183971Y-118134428D01*
X132231590Y-118734428D02*
X132231590Y-118134428D01*
X132288733Y-118734428D01*
X132288733Y-118134428D01*
D13*
D11*
X130843495Y-114515380D02*
X131414923Y-114515380D01*
X131129209Y-115515380D02*
X131129209Y-114515380D01*
X131748257Y-115515380D02*
X131748257Y-114515380D01*
X132129209Y-114515380D01*
X132224447Y-114563000D01*
X132272066Y-114610619D01*
X132319685Y-114705857D01*
X132319685Y-114848714D01*
X132272066Y-114943952D01*
X132224447Y-114991571D01*
X132129209Y-115039190D01*
X131748257Y-115039190D01*
X133272066Y-115515380D02*
X132700638Y-115515380D01*
X132986352Y-115515380D02*
X132986352Y-114515380D01*
X132891114Y-114658238D01*
X132795876Y-114753476D01*
X132700638Y-114801095D01*
D12*
X179576428Y-68001142D02*
X179590714Y-68029714D01*
X179595476Y-68058285D01*
X179600238Y-68115428D01*
X179600238Y-68201142D01*
X179595476Y-68258285D01*
X179590714Y-68286857D01*
X179581190Y-68315428D01*
X179543095Y-68315428D01*
X179543095Y-67715428D01*
X179576428Y-67715428D01*
X179585952Y-67744000D01*
X179590714Y-67772571D01*
X179595476Y-67829714D01*
X179595476Y-67886857D01*
X179590714Y-67944000D01*
X179585952Y-67972571D01*
X179576428Y-68001142D01*
X179543095Y-68001142D01*
X179685952Y-68315428D02*
X179685952Y-68001142D01*
X179681190Y-67944000D01*
X179671666Y-67915428D01*
X179652619Y-67915428D01*
X179643095Y-67944000D01*
X179685952Y-68286857D02*
X179676428Y-68315428D01*
X179652619Y-68315428D01*
X179643095Y-68286857D01*
X179638333Y-68229714D01*
X179638333Y-68172571D01*
X179643095Y-68115428D01*
X179652619Y-68086857D01*
X179676428Y-68086857D01*
X179685952Y-68058285D01*
X179719285Y-67915428D02*
X179757380Y-67915428D01*
X179733571Y-67715428D02*
X179733571Y-68229714D01*
X179738333Y-68286857D01*
X179747857Y-68315428D01*
X179757380Y-68315428D01*
X179790714Y-68086857D02*
X179866904Y-68086857D01*
X179828809Y-68315428D02*
X179828809Y-67858285D01*
D13*
D11*
X178443095Y-64096380D02*
X179014523Y-64096380D01*
X178728809Y-65096380D02*
X178728809Y-64096380D01*
X179347857Y-65096380D02*
X179347857Y-64096380D01*
X179728809Y-64096380D01*
X179824047Y-64144000D01*
X179871666Y-64191619D01*
X179919285Y-64286857D01*
X179919285Y-64429714D01*
X179871666Y-64524952D01*
X179824047Y-64572571D01*
X179728809Y-64620190D01*
X179347857Y-64620190D01*
X180300238Y-64191619D02*
X180347857Y-64144000D01*
X180443095Y-64096380D01*
X180681190Y-64096380D01*
X180776428Y-64144000D01*
X180824047Y-64191619D01*
X180871666Y-64286857D01*
X180871666Y-64382095D01*
X180824047Y-64524952D01*
X180252619Y-65096380D01*
X180871666Y-65096380D01*
D12*
X138873714Y-133657000D02*
X138864190Y-133628428D01*
X138849904Y-133628428D01*
X138835619Y-133657000D01*
X138826095Y-133714142D01*
X138821333Y-133771285D01*
X138816571Y-133885571D01*
X138816571Y-133971285D01*
X138821333Y-134085571D01*
X138826095Y-134142714D01*
X138835619Y-134199857D01*
X138849904Y-134228428D01*
X138859428Y-134228428D01*
X138873714Y-134199857D01*
X138878476Y-134171285D01*
X138878476Y-133971285D01*
X138859428Y-133971285D01*
X138921333Y-133828428D02*
X138921333Y-134228428D01*
X138921333Y-133885571D02*
X138926095Y-133857000D01*
X138935619Y-133828428D01*
X138949904Y-133828428D01*
X138959428Y-133857000D01*
X138964190Y-133914142D01*
X138964190Y-134228428D01*
X139054666Y-134228428D02*
X139054666Y-133628428D01*
X139054666Y-134199857D02*
X139045142Y-134228428D01*
X139026095Y-134228428D01*
X139016571Y-134199857D01*
X139011809Y-134171285D01*
X139007047Y-134114142D01*
X139007047Y-133942714D01*
X139011809Y-133885571D01*
X139016571Y-133857000D01*
X139026095Y-133828428D01*
X139045142Y-133828428D01*
X139054666Y-133857000D01*
D13*
D11*
X137676095Y-130009380D02*
X138247523Y-130009380D01*
X137961809Y-131009380D02*
X137961809Y-130009380D01*
X138580857Y-131009380D02*
X138580857Y-130009380D01*
X138961809Y-130009380D01*
X139057047Y-130057000D01*
X139104666Y-130104619D01*
X139152285Y-130199857D01*
X139152285Y-130342714D01*
X139104666Y-130437952D01*
X139057047Y-130485571D01*
X138961809Y-130533190D01*
X138580857Y-130533190D01*
X139485619Y-130009380D02*
X140104666Y-130009380D01*
X139771333Y-130390333D01*
X139914190Y-130390333D01*
X140009428Y-130437952D01*
X140057047Y-130485571D01*
X140104666Y-130580809D01*
X140104666Y-130818904D01*
X140057047Y-130914142D01*
X140009428Y-130961761D01*
X139914190Y-131009380D01*
X139628476Y-131009380D01*
X139533238Y-130961761D01*
X139485619Y-130914142D01*
D12*
X154181980Y-81498028D02*
X154181980Y-80898028D01*
X154229600Y-81498028D02*
X154229600Y-80898028D01*
X154267695Y-80898028D01*
X154277219Y-80926600D01*
X154281980Y-80955171D01*
X154286742Y-81012314D01*
X154286742Y-81098028D01*
X154281980Y-81155171D01*
X154277219Y-81183742D01*
X154267695Y-81212314D01*
X154229600Y-81212314D01*
X154324838Y-81469457D02*
X154339123Y-81498028D01*
X154362933Y-81498028D01*
X154372457Y-81469457D01*
X154377219Y-81440885D01*
X154381980Y-81383742D01*
X154381980Y-81326600D01*
X154377219Y-81269457D01*
X154372457Y-81240885D01*
X154362933Y-81212314D01*
X154343885Y-81183742D01*
X154334361Y-81155171D01*
X154329600Y-81126600D01*
X154324838Y-81069457D01*
X154324838Y-81012314D01*
X154329600Y-80955171D01*
X154334361Y-80926600D01*
X154343885Y-80898028D01*
X154367695Y-80898028D01*
X154381980Y-80926600D01*
D13*
D11*
X153017695Y-77278980D02*
X153589123Y-77278980D01*
X153303409Y-78278980D02*
X153303409Y-77278980D01*
X153922457Y-78278980D02*
X153922457Y-77278980D01*
X154303409Y-77278980D01*
X154398647Y-77326600D01*
X154446266Y-77374219D01*
X154493885Y-77469457D01*
X154493885Y-77612314D01*
X154446266Y-77707552D01*
X154398647Y-77755171D01*
X154303409Y-77802790D01*
X153922457Y-77802790D01*
X155351028Y-77612314D02*
X155351028Y-78278980D01*
X155112933Y-77231361D02*
X154874838Y-77945647D01*
X155493885Y-77945647D01*
D12*
X180041552Y-108507828D02*
X179993933Y-108507828D01*
X179989171Y-108793542D01*
X179993933Y-108764971D01*
X180003457Y-108736400D01*
X180027266Y-108736400D01*
X180036790Y-108764971D01*
X180041552Y-108793542D01*
X180046314Y-108850685D01*
X180046314Y-108993542D01*
X180041552Y-109050685D01*
X180036790Y-109079257D01*
X180027266Y-109107828D01*
X180003457Y-109107828D01*
X179993933Y-109079257D01*
X179989171Y-109050685D01*
X180074885Y-108507828D02*
X180108219Y-109107828D01*
X180141552Y-108507828D01*
D13*
D11*
X178798695Y-104888780D02*
X179370123Y-104888780D01*
X179084409Y-105888780D02*
X179084409Y-104888780D01*
X179703457Y-105888780D02*
X179703457Y-104888780D01*
X180084409Y-104888780D01*
X180179647Y-104936400D01*
X180227266Y-104984019D01*
X180274885Y-105079257D01*
X180274885Y-105222114D01*
X180227266Y-105317352D01*
X180179647Y-105364971D01*
X180084409Y-105412590D01*
X179703457Y-105412590D01*
X181179647Y-104888780D02*
X180703457Y-104888780D01*
X180655838Y-105364971D01*
X180703457Y-105317352D01*
X180798695Y-105269733D01*
X181036790Y-105269733D01*
X181132028Y-105317352D01*
X181179647Y-105364971D01*
X181227266Y-105460209D01*
X181227266Y-105698304D01*
X181179647Y-105793542D01*
X181132028Y-105841161D01*
X181036790Y-105888780D01*
X180798695Y-105888780D01*
X180703457Y-105841161D01*
X180655838Y-105793542D01*
D12*
X186315971Y-117015400D02*
X186287400Y-117010638D01*
X186258828Y-117001114D01*
X186258828Y-116977304D01*
X186287400Y-116967780D01*
X186315971Y-116963019D01*
X186373114Y-116958257D01*
X186430257Y-116958257D01*
X186515971Y-116963019D01*
X186858828Y-117020161D01*
X186858828Y-116958257D01*
X186801685Y-116915400D02*
X186830257Y-116910638D01*
X186858828Y-116915400D01*
X186830257Y-116920161D01*
X186801685Y-116915400D01*
X186858828Y-116915400D01*
X186315971Y-116872542D02*
X186287400Y-116867780D01*
X186258828Y-116858257D01*
X186258828Y-116834447D01*
X186287400Y-116824923D01*
X186315971Y-116820161D01*
X186373114Y-116815400D01*
X186430257Y-116815400D01*
X186515971Y-116820161D01*
X186858828Y-116877304D01*
X186858828Y-116815400D01*
X186858828Y-116772542D02*
X186258828Y-116772542D01*
X186858828Y-116715400D02*
X186515971Y-116758257D01*
X186258828Y-116715400D02*
X186601685Y-116772542D01*
D13*
D14*
X185163590Y-117186828D02*
X184925495Y-117353495D01*
X185163590Y-117472542D02*
X184663590Y-117472542D01*
X184663590Y-117282066D01*
X184687400Y-117234447D01*
X184711209Y-117210638D01*
X184758828Y-117186828D01*
X184830257Y-117186828D01*
X184877876Y-117210638D01*
X184901685Y-117234447D01*
X184925495Y-117282066D01*
X184925495Y-117472542D01*
X185163590Y-116710638D02*
X185163590Y-116996352D01*
X185163590Y-116853495D02*
X184663590Y-116853495D01*
X184735019Y-116901114D01*
X184782638Y-116948733D01*
X184806447Y-116996352D01*
X184711209Y-116520161D02*
X184687400Y-116496352D01*
X184663590Y-116448733D01*
X184663590Y-116329685D01*
X184687400Y-116282066D01*
X184711209Y-116258257D01*
X184758828Y-116234447D01*
X184806447Y-116234447D01*
X184877876Y-116258257D01*
X185163590Y-116543971D01*
X185163590Y-116234447D01*
D12*
X146171457Y-76699028D02*
X146114314Y-76699028D01*
X146142885Y-76699028D02*
X146142885Y-76099028D01*
X146133361Y-76184742D01*
X146123838Y-76241885D01*
X146114314Y-76270457D01*
X146233361Y-76099028D02*
X146242885Y-76099028D01*
X146252409Y-76127600D01*
X146257171Y-76156171D01*
X146261933Y-76213314D01*
X146266695Y-76327600D01*
X146266695Y-76470457D01*
X146261933Y-76584742D01*
X146257171Y-76641885D01*
X146252409Y-76670457D01*
X146242885Y-76699028D01*
X146233361Y-76699028D01*
X146223838Y-76670457D01*
X146219076Y-76641885D01*
X146214314Y-76584742D01*
X146209552Y-76470457D01*
X146209552Y-76327600D01*
X146214314Y-76213314D01*
X146219076Y-76156171D01*
X146223838Y-76127600D01*
X146233361Y-76099028D01*
X146352409Y-76299028D02*
X146352409Y-76699028D01*
X146309552Y-76299028D02*
X146309552Y-76613314D01*
X146314314Y-76670457D01*
X146323838Y-76699028D01*
X146338123Y-76699028D01*
X146347647Y-76670457D01*
X146352409Y-76641885D01*
X146433361Y-76384742D02*
X146400028Y-76384742D01*
X146400028Y-76699028D02*
X146400028Y-76099028D01*
X146447647Y-76099028D01*
D13*
D14*
X146195266Y-74956171D02*
X146171457Y-74979980D01*
X146100028Y-75003790D01*
X146052409Y-75003790D01*
X145980980Y-74979980D01*
X145933361Y-74932361D01*
X145909552Y-74884742D01*
X145885742Y-74789504D01*
X145885742Y-74718076D01*
X145909552Y-74622838D01*
X145933361Y-74575219D01*
X145980980Y-74527600D01*
X146052409Y-74503790D01*
X146100028Y-74503790D01*
X146171457Y-74527600D01*
X146195266Y-74551409D01*
X146671457Y-75003790D02*
X146385742Y-75003790D01*
X146528600Y-75003790D02*
X146528600Y-74503790D01*
X146480980Y-74575219D01*
X146433361Y-74622838D01*
X146385742Y-74646647D01*
D12*
X146171457Y-74819428D02*
X146114314Y-74819428D01*
X146142885Y-74819428D02*
X146142885Y-74219428D01*
X146133361Y-74305142D01*
X146123838Y-74362285D01*
X146114314Y-74390857D01*
X146233361Y-74219428D02*
X146242885Y-74219428D01*
X146252409Y-74248000D01*
X146257171Y-74276571D01*
X146261933Y-74333714D01*
X146266695Y-74448000D01*
X146266695Y-74590857D01*
X146261933Y-74705142D01*
X146257171Y-74762285D01*
X146252409Y-74790857D01*
X146242885Y-74819428D01*
X146233361Y-74819428D01*
X146223838Y-74790857D01*
X146219076Y-74762285D01*
X146214314Y-74705142D01*
X146209552Y-74590857D01*
X146209552Y-74448000D01*
X146214314Y-74333714D01*
X146219076Y-74276571D01*
X146223838Y-74248000D01*
X146233361Y-74219428D01*
X146352409Y-74419428D02*
X146352409Y-74819428D01*
X146309552Y-74419428D02*
X146309552Y-74733714D01*
X146314314Y-74790857D01*
X146323838Y-74819428D01*
X146338123Y-74819428D01*
X146347647Y-74790857D01*
X146352409Y-74762285D01*
X146433361Y-74505142D02*
X146400028Y-74505142D01*
X146400028Y-74819428D02*
X146400028Y-74219428D01*
X146447647Y-74219428D01*
D13*
D14*
X146195266Y-73076571D02*
X146171457Y-73100380D01*
X146100028Y-73124190D01*
X146052409Y-73124190D01*
X145980980Y-73100380D01*
X145933361Y-73052761D01*
X145909552Y-73005142D01*
X145885742Y-72909904D01*
X145885742Y-72838476D01*
X145909552Y-72743238D01*
X145933361Y-72695619D01*
X145980980Y-72648000D01*
X146052409Y-72624190D01*
X146100028Y-72624190D01*
X146171457Y-72648000D01*
X146195266Y-72671809D01*
X146385742Y-72671809D02*
X146409552Y-72648000D01*
X146457171Y-72624190D01*
X146576219Y-72624190D01*
X146623838Y-72648000D01*
X146647647Y-72671809D01*
X146671457Y-72719428D01*
X146671457Y-72767047D01*
X146647647Y-72838476D01*
X146361933Y-73124190D01*
X146671457Y-73124190D01*
D12*
X136340228Y-74732342D02*
X136340228Y-74789485D01*
X136340228Y-74760914D02*
X135740228Y-74760914D01*
X135825942Y-74770438D01*
X135883085Y-74779961D01*
X135911657Y-74789485D01*
X135740228Y-74670438D02*
X135740228Y-74660914D01*
X135768800Y-74651390D01*
X135797371Y-74646628D01*
X135854514Y-74641866D01*
X135968800Y-74637104D01*
X136111657Y-74637104D01*
X136225942Y-74641866D01*
X136283085Y-74646628D01*
X136311657Y-74651390D01*
X136340228Y-74660914D01*
X136340228Y-74670438D01*
X136311657Y-74679961D01*
X136283085Y-74684723D01*
X136225942Y-74689485D01*
X136111657Y-74694247D01*
X135968800Y-74694247D01*
X135854514Y-74689485D01*
X135797371Y-74684723D01*
X135768800Y-74679961D01*
X135740228Y-74670438D01*
X135940228Y-74551390D02*
X136340228Y-74551390D01*
X135940228Y-74594247D02*
X136254514Y-74594247D01*
X136311657Y-74589485D01*
X136340228Y-74579961D01*
X136340228Y-74565676D01*
X136311657Y-74556152D01*
X136283085Y-74551390D01*
X136025942Y-74470438D02*
X136025942Y-74503771D01*
X136340228Y-74503771D02*
X135740228Y-74503771D01*
X135740228Y-74456152D01*
D13*
D14*
X137897371Y-74708533D02*
X137921180Y-74732342D01*
X137944990Y-74803771D01*
X137944990Y-74851390D01*
X137921180Y-74922819D01*
X137873561Y-74970438D01*
X137825942Y-74994247D01*
X137730704Y-75018057D01*
X137659276Y-75018057D01*
X137564038Y-74994247D01*
X137516419Y-74970438D01*
X137468800Y-74922819D01*
X137444990Y-74851390D01*
X137444990Y-74803771D01*
X137468800Y-74732342D01*
X137492609Y-74708533D01*
X137444990Y-74541866D02*
X137444990Y-74232342D01*
X137635466Y-74399009D01*
X137635466Y-74327580D01*
X137659276Y-74279961D01*
X137683085Y-74256152D01*
X137730704Y-74232342D01*
X137849752Y-74232342D01*
X137897371Y-74256152D01*
X137921180Y-74279961D01*
X137944990Y-74327580D01*
X137944990Y-74470438D01*
X137921180Y-74518057D01*
X137897371Y-74541866D01*
D12*
X175964228Y-85111542D02*
X175964228Y-85168685D01*
X175964228Y-85140114D02*
X175364228Y-85140114D01*
X175449942Y-85149638D01*
X175507085Y-85159161D01*
X175535657Y-85168685D01*
X175364228Y-85049638D02*
X175364228Y-85040114D01*
X175392800Y-85030590D01*
X175421371Y-85025828D01*
X175478514Y-85021066D01*
X175592800Y-85016304D01*
X175735657Y-85016304D01*
X175849942Y-85021066D01*
X175907085Y-85025828D01*
X175935657Y-85030590D01*
X175964228Y-85040114D01*
X175964228Y-85049638D01*
X175935657Y-85059161D01*
X175907085Y-85063923D01*
X175849942Y-85068685D01*
X175735657Y-85073447D01*
X175592800Y-85073447D01*
X175478514Y-85068685D01*
X175421371Y-85063923D01*
X175392800Y-85059161D01*
X175364228Y-85049638D01*
X175564228Y-84930590D02*
X175964228Y-84930590D01*
X175564228Y-84973447D02*
X175878514Y-84973447D01*
X175935657Y-84968685D01*
X175964228Y-84959161D01*
X175964228Y-84944876D01*
X175935657Y-84935352D01*
X175907085Y-84930590D01*
X175649942Y-84849638D02*
X175649942Y-84882971D01*
X175964228Y-84882971D02*
X175364228Y-84882971D01*
X175364228Y-84835352D01*
D13*
D14*
X177521371Y-85087733D02*
X177545180Y-85111542D01*
X177568990Y-85182971D01*
X177568990Y-85230590D01*
X177545180Y-85302019D01*
X177497561Y-85349638D01*
X177449942Y-85373447D01*
X177354704Y-85397257D01*
X177283276Y-85397257D01*
X177188038Y-85373447D01*
X177140419Y-85349638D01*
X177092800Y-85302019D01*
X177068990Y-85230590D01*
X177068990Y-85182971D01*
X177092800Y-85111542D01*
X177116609Y-85087733D01*
X177235657Y-84659161D02*
X177568990Y-84659161D01*
X177045180Y-84778209D02*
X177402323Y-84897257D01*
X177402323Y-84587733D01*
D12*
X148263657Y-89451828D02*
X148206514Y-89451828D01*
X148235085Y-89451828D02*
X148235085Y-88851828D01*
X148225561Y-88937542D01*
X148216038Y-88994685D01*
X148206514Y-89023257D01*
X148325561Y-88851828D02*
X148335085Y-88851828D01*
X148344609Y-88880400D01*
X148349371Y-88908971D01*
X148354133Y-88966114D01*
X148358895Y-89080400D01*
X148358895Y-89223257D01*
X148354133Y-89337542D01*
X148349371Y-89394685D01*
X148344609Y-89423257D01*
X148335085Y-89451828D01*
X148325561Y-89451828D01*
X148316038Y-89423257D01*
X148311276Y-89394685D01*
X148306514Y-89337542D01*
X148301752Y-89223257D01*
X148301752Y-89080400D01*
X148306514Y-88966114D01*
X148311276Y-88908971D01*
X148316038Y-88880400D01*
X148325561Y-88851828D01*
X148444609Y-89051828D02*
X148444609Y-89451828D01*
X148401752Y-89051828D02*
X148401752Y-89366114D01*
X148406514Y-89423257D01*
X148416038Y-89451828D01*
X148430323Y-89451828D01*
X148439847Y-89423257D01*
X148444609Y-89394685D01*
X148525561Y-89137542D02*
X148492228Y-89137542D01*
X148492228Y-89451828D02*
X148492228Y-88851828D01*
X148539847Y-88851828D01*
D13*
D14*
X148287466Y-91008971D02*
X148263657Y-91032780D01*
X148192228Y-91056590D01*
X148144609Y-91056590D01*
X148073180Y-91032780D01*
X148025561Y-90985161D01*
X148001752Y-90937542D01*
X147977942Y-90842304D01*
X147977942Y-90770876D01*
X148001752Y-90675638D01*
X148025561Y-90628019D01*
X148073180Y-90580400D01*
X148144609Y-90556590D01*
X148192228Y-90556590D01*
X148263657Y-90580400D01*
X148287466Y-90604209D01*
X148739847Y-90556590D02*
X148501752Y-90556590D01*
X148477942Y-90794685D01*
X148501752Y-90770876D01*
X148549371Y-90747066D01*
X148668419Y-90747066D01*
X148716038Y-90770876D01*
X148739847Y-90794685D01*
X148763657Y-90842304D01*
X148763657Y-90961352D01*
X148739847Y-91008971D01*
X148716038Y-91032780D01*
X148668419Y-91056590D01*
X148549371Y-91056590D01*
X148501752Y-91032780D01*
X148477942Y-91008971D01*
D12*
X148225676Y-82492228D02*
X148168533Y-82492228D01*
X148197104Y-82492228D02*
X148197104Y-81892228D01*
X148187580Y-81977942D01*
X148178057Y-82035085D01*
X148168533Y-82063657D01*
X148311390Y-82092228D02*
X148311390Y-82492228D01*
X148268533Y-82092228D02*
X148268533Y-82406514D01*
X148273295Y-82463657D01*
X148282819Y-82492228D01*
X148297104Y-82492228D01*
X148306628Y-82463657D01*
X148311390Y-82435085D01*
X148392342Y-82177942D02*
X148359009Y-82177942D01*
X148359009Y-82492228D02*
X148359009Y-81892228D01*
X148406628Y-81892228D01*
D13*
D14*
X148201866Y-84049371D02*
X148178057Y-84073180D01*
X148106628Y-84096990D01*
X148059009Y-84096990D01*
X147987580Y-84073180D01*
X147939961Y-84025561D01*
X147916152Y-83977942D01*
X147892342Y-83882704D01*
X147892342Y-83811276D01*
X147916152Y-83716038D01*
X147939961Y-83668419D01*
X147987580Y-83620800D01*
X148059009Y-83596990D01*
X148106628Y-83596990D01*
X148178057Y-83620800D01*
X148201866Y-83644609D01*
X148630438Y-83596990D02*
X148535200Y-83596990D01*
X148487580Y-83620800D01*
X148463771Y-83644609D01*
X148416152Y-83716038D01*
X148392342Y-83811276D01*
X148392342Y-84001752D01*
X148416152Y-84049371D01*
X148439961Y-84073180D01*
X148487580Y-84096990D01*
X148582819Y-84096990D01*
X148630438Y-84073180D01*
X148654247Y-84049371D01*
X148678057Y-84001752D01*
X148678057Y-83882704D01*
X148654247Y-83835085D01*
X148630438Y-83811276D01*
X148582819Y-83787466D01*
X148487580Y-83787466D01*
X148439961Y-83811276D01*
X148416152Y-83835085D01*
X148392342Y-83882704D01*
D12*
X181445714Y-105518571D02*
X181450476Y-105490000D01*
X181460000Y-105461428D01*
X181483809Y-105461428D01*
X181493333Y-105490000D01*
X181498095Y-105518571D01*
X181502857Y-105575714D01*
X181502857Y-105632857D01*
X181498095Y-105718571D01*
X181440952Y-106061428D01*
X181502857Y-106061428D01*
X181540952Y-105518571D02*
X181545714Y-105490000D01*
X181555238Y-105461428D01*
X181579047Y-105461428D01*
X181588571Y-105490000D01*
X181593333Y-105518571D01*
X181598095Y-105575714D01*
X181598095Y-105632857D01*
X181593333Y-105718571D01*
X181536190Y-106061428D01*
X181598095Y-106061428D01*
X181683809Y-105661428D02*
X181683809Y-106061428D01*
X181640952Y-105661428D02*
X181640952Y-105975714D01*
X181645714Y-106032857D01*
X181655238Y-106061428D01*
X181669523Y-106061428D01*
X181679047Y-106032857D01*
X181683809Y-106004285D01*
X181764761Y-105747142D02*
X181731428Y-105747142D01*
X181731428Y-106061428D02*
X181731428Y-105461428D01*
X181779047Y-105461428D01*
D13*
D14*
X181526666Y-104318571D02*
X181502857Y-104342380D01*
X181431428Y-104366190D01*
X181383809Y-104366190D01*
X181312380Y-104342380D01*
X181264761Y-104294761D01*
X181240952Y-104247142D01*
X181217142Y-104151904D01*
X181217142Y-104080476D01*
X181240952Y-103985238D01*
X181264761Y-103937619D01*
X181312380Y-103890000D01*
X181383809Y-103866190D01*
X181431428Y-103866190D01*
X181502857Y-103890000D01*
X181526666Y-103913809D01*
X181693333Y-103866190D02*
X182026666Y-103866190D01*
X181812380Y-104366190D01*
D12*
X181445714Y-103232571D02*
X181450476Y-103204000D01*
X181460000Y-103175428D01*
X181483809Y-103175428D01*
X181493333Y-103204000D01*
X181498095Y-103232571D01*
X181502857Y-103289714D01*
X181502857Y-103346857D01*
X181498095Y-103432571D01*
X181440952Y-103775428D01*
X181502857Y-103775428D01*
X181540952Y-103232571D02*
X181545714Y-103204000D01*
X181555238Y-103175428D01*
X181579047Y-103175428D01*
X181588571Y-103204000D01*
X181593333Y-103232571D01*
X181598095Y-103289714D01*
X181598095Y-103346857D01*
X181593333Y-103432571D01*
X181536190Y-103775428D01*
X181598095Y-103775428D01*
X181683809Y-103375428D02*
X181683809Y-103775428D01*
X181640952Y-103375428D02*
X181640952Y-103689714D01*
X181645714Y-103746857D01*
X181655238Y-103775428D01*
X181669523Y-103775428D01*
X181679047Y-103746857D01*
X181683809Y-103718285D01*
X181764761Y-103461142D02*
X181731428Y-103461142D01*
X181731428Y-103775428D02*
X181731428Y-103175428D01*
X181779047Y-103175428D01*
D13*
D14*
X181526666Y-102032571D02*
X181502857Y-102056380D01*
X181431428Y-102080190D01*
X181383809Y-102080190D01*
X181312380Y-102056380D01*
X181264761Y-102008761D01*
X181240952Y-101961142D01*
X181217142Y-101865904D01*
X181217142Y-101794476D01*
X181240952Y-101699238D01*
X181264761Y-101651619D01*
X181312380Y-101604000D01*
X181383809Y-101580190D01*
X181431428Y-101580190D01*
X181502857Y-101604000D01*
X181526666Y-101627809D01*
X181812380Y-101794476D02*
X181764761Y-101770666D01*
X181740952Y-101746857D01*
X181717142Y-101699238D01*
X181717142Y-101675428D01*
X181740952Y-101627809D01*
X181764761Y-101604000D01*
X181812380Y-101580190D01*
X181907619Y-101580190D01*
X181955238Y-101604000D01*
X181979047Y-101627809D01*
X182002857Y-101675428D01*
X182002857Y-101699238D01*
X181979047Y-101746857D01*
X181955238Y-101770666D01*
X181907619Y-101794476D01*
X181812380Y-101794476D01*
X181764761Y-101818285D01*
X181740952Y-101842095D01*
X181717142Y-101889714D01*
X181717142Y-101984952D01*
X181740952Y-102032571D01*
X181764761Y-102056380D01*
X181812380Y-102080190D01*
X181907619Y-102080190D01*
X181955238Y-102056380D01*
X181979047Y-102032571D01*
X182002857Y-101984952D01*
X182002857Y-101889714D01*
X181979047Y-101842095D01*
X181955238Y-101818285D01*
X181907619Y-101794476D01*
D12*
X148362076Y-84575028D02*
X148304933Y-84575028D01*
X148333504Y-84575028D02*
X148333504Y-83975028D01*
X148323980Y-84060742D01*
X148314457Y-84117885D01*
X148304933Y-84146457D01*
X148447790Y-84175028D02*
X148447790Y-84575028D01*
X148404933Y-84175028D02*
X148404933Y-84489314D01*
X148409695Y-84546457D01*
X148419219Y-84575028D01*
X148433504Y-84575028D01*
X148443028Y-84546457D01*
X148447790Y-84517885D01*
X148528742Y-84260742D02*
X148495409Y-84260742D01*
X148495409Y-84575028D02*
X148495409Y-83975028D01*
X148543028Y-83975028D01*
D13*
D14*
X148338266Y-86132171D02*
X148314457Y-86155980D01*
X148243028Y-86179790D01*
X148195409Y-86179790D01*
X148123980Y-86155980D01*
X148076361Y-86108361D01*
X148052552Y-86060742D01*
X148028742Y-85965504D01*
X148028742Y-85894076D01*
X148052552Y-85798838D01*
X148076361Y-85751219D01*
X148123980Y-85703600D01*
X148195409Y-85679790D01*
X148243028Y-85679790D01*
X148314457Y-85703600D01*
X148338266Y-85727409D01*
X148576361Y-86179790D02*
X148671600Y-86179790D01*
X148719219Y-86155980D01*
X148743028Y-86132171D01*
X148790647Y-86060742D01*
X148814457Y-85965504D01*
X148814457Y-85775028D01*
X148790647Y-85727409D01*
X148766838Y-85703600D01*
X148719219Y-85679790D01*
X148623980Y-85679790D01*
X148576361Y-85703600D01*
X148552552Y-85727409D01*
X148528742Y-85775028D01*
X148528742Y-85894076D01*
X148552552Y-85941695D01*
X148576361Y-85965504D01*
X148623980Y-85989314D01*
X148719219Y-85989314D01*
X148766838Y-85965504D01*
X148790647Y-85941695D01*
X148814457Y-85894076D01*
D12*
X145838076Y-110635428D02*
X145780933Y-110635428D01*
X145809504Y-110635428D02*
X145809504Y-110035428D01*
X145799980Y-110121142D01*
X145790457Y-110178285D01*
X145780933Y-110206857D01*
X145923790Y-110235428D02*
X145923790Y-110635428D01*
X145880933Y-110235428D02*
X145880933Y-110549714D01*
X145885695Y-110606857D01*
X145895219Y-110635428D01*
X145909504Y-110635428D01*
X145919028Y-110606857D01*
X145923790Y-110578285D01*
X146004742Y-110321142D02*
X145971409Y-110321142D01*
X145971409Y-110635428D02*
X145971409Y-110035428D01*
X146019028Y-110035428D01*
D13*
D14*
X145576171Y-112192571D02*
X145552361Y-112216380D01*
X145480933Y-112240190D01*
X145433314Y-112240190D01*
X145361885Y-112216380D01*
X145314266Y-112168761D01*
X145290457Y-112121142D01*
X145266647Y-112025904D01*
X145266647Y-111954476D01*
X145290457Y-111859238D01*
X145314266Y-111811619D01*
X145361885Y-111764000D01*
X145433314Y-111740190D01*
X145480933Y-111740190D01*
X145552361Y-111764000D01*
X145576171Y-111787809D01*
X146052361Y-112240190D02*
X145766647Y-112240190D01*
X145909504Y-112240190D02*
X145909504Y-111740190D01*
X145861885Y-111811619D01*
X145814266Y-111859238D01*
X145766647Y-111883047D01*
X146361885Y-111740190D02*
X146409504Y-111740190D01*
X146457123Y-111764000D01*
X146480933Y-111787809D01*
X146504742Y-111835428D01*
X146528552Y-111930666D01*
X146528552Y-112049714D01*
X146504742Y-112144952D01*
X146480933Y-112192571D01*
X146457123Y-112216380D01*
X146409504Y-112240190D01*
X146361885Y-112240190D01*
X146314266Y-112216380D01*
X146290457Y-112192571D01*
X146266647Y-112144952D01*
X146242838Y-112049714D01*
X146242838Y-111930666D01*
X146266647Y-111835428D01*
X146290457Y-111787809D01*
X146314266Y-111764000D01*
X146361885Y-111740190D01*
D12*
X138365723Y-89305828D02*
X138365723Y-89705828D01*
X138341914Y-89077257D02*
X138318104Y-89505828D01*
X138380009Y-89505828D01*
X138418104Y-89648685D02*
X138422866Y-89677257D01*
X138418104Y-89705828D01*
X138413342Y-89677257D01*
X138418104Y-89648685D01*
X138418104Y-89705828D01*
X138456200Y-89105828D02*
X138522866Y-89105828D01*
X138480009Y-89705828D01*
X138603819Y-89305828D02*
X138603819Y-89705828D01*
X138560961Y-89305828D02*
X138560961Y-89620114D01*
X138565723Y-89677257D01*
X138575247Y-89705828D01*
X138589533Y-89705828D01*
X138599057Y-89677257D01*
X138603819Y-89648685D01*
X138684771Y-89391542D02*
X138651438Y-89391542D01*
X138651438Y-89705828D02*
X138651438Y-89105828D01*
X138699057Y-89105828D01*
D13*
D14*
X138184771Y-91262971D02*
X138160961Y-91286780D01*
X138089533Y-91310590D01*
X138041914Y-91310590D01*
X137970485Y-91286780D01*
X137922866Y-91239161D01*
X137899057Y-91191542D01*
X137875247Y-91096304D01*
X137875247Y-91024876D01*
X137899057Y-90929638D01*
X137922866Y-90882019D01*
X137970485Y-90834400D01*
X138041914Y-90810590D01*
X138089533Y-90810590D01*
X138160961Y-90834400D01*
X138184771Y-90858209D01*
X138660961Y-91310590D02*
X138375247Y-91310590D01*
X138518104Y-91310590D02*
X138518104Y-90810590D01*
X138470485Y-90882019D01*
X138422866Y-90929638D01*
X138375247Y-90953447D01*
X139137152Y-91310590D02*
X138851438Y-91310590D01*
X138994295Y-91310590D02*
X138994295Y-90810590D01*
X138946676Y-90882019D01*
X138899057Y-90929638D01*
X138851438Y-90953447D01*
D12*
X138476723Y-91845828D02*
X138476723Y-92245828D01*
X138452914Y-91617257D02*
X138429104Y-92045828D01*
X138491009Y-92045828D01*
X138529104Y-92188685D02*
X138533866Y-92217257D01*
X138529104Y-92245828D01*
X138524342Y-92217257D01*
X138529104Y-92188685D01*
X138529104Y-92245828D01*
X138567200Y-91645828D02*
X138633866Y-91645828D01*
X138591009Y-92245828D01*
X138714819Y-91845828D02*
X138714819Y-92245828D01*
X138671961Y-91845828D02*
X138671961Y-92160114D01*
X138676723Y-92217257D01*
X138686247Y-92245828D01*
X138700533Y-92245828D01*
X138710057Y-92217257D01*
X138714819Y-92188685D01*
X138795771Y-91931542D02*
X138762438Y-91931542D01*
X138762438Y-92245828D02*
X138762438Y-91645828D01*
X138810057Y-91645828D01*
D13*
D14*
X138295771Y-93802971D02*
X138271961Y-93826780D01*
X138200533Y-93850590D01*
X138152914Y-93850590D01*
X138081485Y-93826780D01*
X138033866Y-93779161D01*
X138010057Y-93731542D01*
X137986247Y-93636304D01*
X137986247Y-93564876D01*
X138010057Y-93469638D01*
X138033866Y-93422019D01*
X138081485Y-93374400D01*
X138152914Y-93350590D01*
X138200533Y-93350590D01*
X138271961Y-93374400D01*
X138295771Y-93398209D01*
X138771961Y-93850590D02*
X138486247Y-93850590D01*
X138629104Y-93850590D02*
X138629104Y-93350590D01*
X138581485Y-93422019D01*
X138533866Y-93469638D01*
X138486247Y-93493447D01*
X138962438Y-93398209D02*
X138986247Y-93374400D01*
X139033866Y-93350590D01*
X139152914Y-93350590D01*
X139200533Y-93374400D01*
X139224342Y-93398209D01*
X139248152Y-93445828D01*
X139248152Y-93493447D01*
X139224342Y-93564876D01*
X138938628Y-93850590D01*
X139248152Y-93850590D01*
D12*
X148281123Y-77266228D02*
X148281123Y-77666228D01*
X148257314Y-77037657D02*
X148233504Y-77466228D01*
X148295409Y-77466228D01*
X148333504Y-77609085D02*
X148338266Y-77637657D01*
X148333504Y-77666228D01*
X148328742Y-77637657D01*
X148333504Y-77609085D01*
X148333504Y-77666228D01*
X148371600Y-77066228D02*
X148438266Y-77066228D01*
X148395409Y-77666228D01*
X148519219Y-77266228D02*
X148519219Y-77666228D01*
X148476361Y-77266228D02*
X148476361Y-77580514D01*
X148481123Y-77637657D01*
X148490647Y-77666228D01*
X148504933Y-77666228D01*
X148514457Y-77637657D01*
X148519219Y-77609085D01*
X148600171Y-77351942D02*
X148566838Y-77351942D01*
X148566838Y-77666228D02*
X148566838Y-77066228D01*
X148614457Y-77066228D01*
D13*
D14*
X148100171Y-79223371D02*
X148076361Y-79247180D01*
X148004933Y-79270990D01*
X147957314Y-79270990D01*
X147885885Y-79247180D01*
X147838266Y-79199561D01*
X147814457Y-79151942D01*
X147790647Y-79056704D01*
X147790647Y-78985276D01*
X147814457Y-78890038D01*
X147838266Y-78842419D01*
X147885885Y-78794800D01*
X147957314Y-78770990D01*
X148004933Y-78770990D01*
X148076361Y-78794800D01*
X148100171Y-78818609D01*
X148576361Y-79270990D02*
X148290647Y-79270990D01*
X148433504Y-79270990D02*
X148433504Y-78770990D01*
X148385885Y-78842419D01*
X148338266Y-78890038D01*
X148290647Y-78913847D01*
X148743028Y-78770990D02*
X149052552Y-78770990D01*
X148885885Y-78961466D01*
X148957314Y-78961466D01*
X149004933Y-78985276D01*
X149028742Y-79009085D01*
X149052552Y-79056704D01*
X149052552Y-79175752D01*
X149028742Y-79223371D01*
X149004933Y-79247180D01*
X148957314Y-79270990D01*
X148814457Y-79270990D01*
X148766838Y-79247180D01*
X148743028Y-79223371D01*
D12*
X145195371Y-130720285D02*
X145166800Y-130715523D01*
X145138228Y-130706000D01*
X145138228Y-130682190D01*
X145166800Y-130672666D01*
X145195371Y-130667904D01*
X145252514Y-130663142D01*
X145309657Y-130663142D01*
X145395371Y-130667904D01*
X145738228Y-130725047D01*
X145738228Y-130663142D01*
X145195371Y-130625047D02*
X145166800Y-130620285D01*
X145138228Y-130610761D01*
X145138228Y-130586952D01*
X145166800Y-130577428D01*
X145195371Y-130572666D01*
X145252514Y-130567904D01*
X145309657Y-130567904D01*
X145395371Y-130572666D01*
X145738228Y-130629809D01*
X145738228Y-130567904D01*
X145338228Y-130482190D02*
X145738228Y-130482190D01*
X145338228Y-130525047D02*
X145652514Y-130525047D01*
X145709657Y-130520285D01*
X145738228Y-130510761D01*
X145738228Y-130496476D01*
X145709657Y-130486952D01*
X145681085Y-130482190D01*
X145423942Y-130401238D02*
X145423942Y-130434571D01*
X145738228Y-130434571D02*
X145138228Y-130434571D01*
X145138228Y-130386952D01*
D13*
D14*
X147295371Y-130877428D02*
X147319180Y-130901238D01*
X147342990Y-130972666D01*
X147342990Y-131020285D01*
X147319180Y-131091714D01*
X147271561Y-131139333D01*
X147223942Y-131163142D01*
X147128704Y-131186952D01*
X147057276Y-131186952D01*
X146962038Y-131163142D01*
X146914419Y-131139333D01*
X146866800Y-131091714D01*
X146842990Y-131020285D01*
X146842990Y-130972666D01*
X146866800Y-130901238D01*
X146890609Y-130877428D01*
X147342990Y-130401238D02*
X147342990Y-130686952D01*
X147342990Y-130544095D02*
X146842990Y-130544095D01*
X146914419Y-130591714D01*
X146962038Y-130639333D01*
X146985847Y-130686952D01*
X147009657Y-129972666D02*
X147342990Y-129972666D01*
X146819180Y-130091714D02*
X147176323Y-130210761D01*
X147176323Y-129901238D01*
D12*
X145599771Y-105879085D02*
X145571200Y-105874323D01*
X145542628Y-105864800D01*
X145542628Y-105840990D01*
X145571200Y-105831466D01*
X145599771Y-105826704D01*
X145656914Y-105821942D01*
X145714057Y-105821942D01*
X145799771Y-105826704D01*
X146142628Y-105883847D01*
X146142628Y-105821942D01*
X145599771Y-105783847D02*
X145571200Y-105779085D01*
X145542628Y-105769561D01*
X145542628Y-105745752D01*
X145571200Y-105736228D01*
X145599771Y-105731466D01*
X145656914Y-105726704D01*
X145714057Y-105726704D01*
X145799771Y-105731466D01*
X146142628Y-105788609D01*
X146142628Y-105726704D01*
X145742628Y-105640990D02*
X146142628Y-105640990D01*
X145742628Y-105683847D02*
X146056914Y-105683847D01*
X146114057Y-105679085D01*
X146142628Y-105669561D01*
X146142628Y-105655276D01*
X146114057Y-105645752D01*
X146085485Y-105640990D01*
X145828342Y-105560038D02*
X145828342Y-105593371D01*
X146142628Y-105593371D02*
X145542628Y-105593371D01*
X145542628Y-105545752D01*
D13*
D14*
X144399771Y-106036228D02*
X144423580Y-106060038D01*
X144447390Y-106131466D01*
X144447390Y-106179085D01*
X144423580Y-106250514D01*
X144375961Y-106298133D01*
X144328342Y-106321942D01*
X144233104Y-106345752D01*
X144161676Y-106345752D01*
X144066438Y-106321942D01*
X144018819Y-106298133D01*
X143971200Y-106250514D01*
X143947390Y-106179085D01*
X143947390Y-106131466D01*
X143971200Y-106060038D01*
X143995009Y-106036228D01*
X144447390Y-105560038D02*
X144447390Y-105845752D01*
X144447390Y-105702895D02*
X143947390Y-105702895D01*
X144018819Y-105750514D01*
X144066438Y-105798133D01*
X144090247Y-105845752D01*
X143947390Y-105107657D02*
X143947390Y-105345752D01*
X144185485Y-105369561D01*
X144161676Y-105345752D01*
X144137866Y-105298133D01*
X144137866Y-105179085D01*
X144161676Y-105131466D01*
X144185485Y-105107657D01*
X144233104Y-105083847D01*
X144352152Y-105083847D01*
X144399771Y-105107657D01*
X144423580Y-105131466D01*
X144447390Y-105179085D01*
X144447390Y-105298133D01*
X144423580Y-105345752D01*
X144399771Y-105369561D01*
D12*
X140854152Y-72189428D02*
X140863676Y-72189428D01*
X140873200Y-72218000D01*
X140877961Y-72246571D01*
X140882723Y-72303714D01*
X140887485Y-72418000D01*
X140887485Y-72560857D01*
X140882723Y-72675142D01*
X140877961Y-72732285D01*
X140873200Y-72760857D01*
X140863676Y-72789428D01*
X140854152Y-72789428D01*
X140844628Y-72760857D01*
X140839866Y-72732285D01*
X140835104Y-72675142D01*
X140830342Y-72560857D01*
X140830342Y-72418000D01*
X140835104Y-72303714D01*
X140839866Y-72246571D01*
X140844628Y-72218000D01*
X140854152Y-72189428D01*
X140930342Y-72732285D02*
X140935104Y-72760857D01*
X140930342Y-72789428D01*
X140925580Y-72760857D01*
X140930342Y-72732285D01*
X140930342Y-72789428D01*
X140997009Y-72189428D02*
X141006533Y-72189428D01*
X141016057Y-72218000D01*
X141020819Y-72246571D01*
X141025580Y-72303714D01*
X141030342Y-72418000D01*
X141030342Y-72560857D01*
X141025580Y-72675142D01*
X141020819Y-72732285D01*
X141016057Y-72760857D01*
X141006533Y-72789428D01*
X140997009Y-72789428D01*
X140987485Y-72760857D01*
X140982723Y-72732285D01*
X140977961Y-72675142D01*
X140973200Y-72560857D01*
X140973200Y-72418000D01*
X140977961Y-72303714D01*
X140982723Y-72246571D01*
X140987485Y-72218000D01*
X140997009Y-72189428D01*
X141063676Y-72189428D02*
X141125580Y-72189428D01*
X141092247Y-72418000D01*
X141106533Y-72418000D01*
X141116057Y-72446571D01*
X141120819Y-72475142D01*
X141125580Y-72532285D01*
X141125580Y-72675142D01*
X141120819Y-72732285D01*
X141116057Y-72760857D01*
X141106533Y-72789428D01*
X141077961Y-72789428D01*
X141068438Y-72760857D01*
X141063676Y-72732285D01*
X141258914Y-72789428D02*
X141249390Y-72760857D01*
X141244628Y-72732285D01*
X141239866Y-72675142D01*
X141239866Y-72503714D01*
X141244628Y-72446571D01*
X141249390Y-72418000D01*
X141258914Y-72389428D01*
X141273200Y-72389428D01*
X141282723Y-72418000D01*
X141287485Y-72446571D01*
X141292247Y-72503714D01*
X141292247Y-72675142D01*
X141287485Y-72732285D01*
X141282723Y-72760857D01*
X141273200Y-72789428D01*
X141258914Y-72789428D01*
X141335104Y-72789428D02*
X141335104Y-72189428D01*
X141377961Y-72789428D02*
X141377961Y-72475142D01*
X141373200Y-72418000D01*
X141363676Y-72389428D01*
X141349390Y-72389428D01*
X141339866Y-72418000D01*
X141335104Y-72446571D01*
X141425580Y-72789428D02*
X141425580Y-72389428D01*
X141425580Y-72446571D02*
X141430342Y-72418000D01*
X141439866Y-72389428D01*
X141454152Y-72389428D01*
X141463676Y-72418000D01*
X141468438Y-72475142D01*
X141468438Y-72789428D01*
X141468438Y-72475142D02*
X141473200Y-72418000D01*
X141482723Y-72389428D01*
X141497009Y-72389428D01*
X141506533Y-72418000D01*
X141511295Y-72475142D01*
X141511295Y-72789428D01*
D13*
D14*
X141089866Y-74394190D02*
X140923200Y-74156095D01*
X140804152Y-74394190D02*
X140804152Y-73894190D01*
X140994628Y-73894190D01*
X141042247Y-73918000D01*
X141066057Y-73941809D01*
X141089866Y-73989428D01*
X141089866Y-74060857D01*
X141066057Y-74108476D01*
X141042247Y-74132285D01*
X140994628Y-74156095D01*
X140804152Y-74156095D01*
X141280342Y-73941809D02*
X141304152Y-73918000D01*
X141351771Y-73894190D01*
X141470819Y-73894190D01*
X141518438Y-73918000D01*
X141542247Y-73941809D01*
X141566057Y-73989428D01*
X141566057Y-74037047D01*
X141542247Y-74108476D01*
X141256533Y-74394190D01*
X141566057Y-74394190D01*
D12*
X135512971Y-72431828D02*
X135455828Y-72431828D01*
X135484400Y-72431828D02*
X135484400Y-71831828D01*
X135474876Y-71917542D01*
X135465352Y-71974685D01*
X135455828Y-72003257D01*
X135555828Y-72431828D02*
X135555828Y-71831828D01*
X135612971Y-72431828D02*
X135570114Y-72088971D01*
X135612971Y-71831828D02*
X135555828Y-72174685D01*
D13*
D14*
X135451066Y-70736590D02*
X135284400Y-70498495D01*
X135165352Y-70736590D02*
X135165352Y-70236590D01*
X135355828Y-70236590D01*
X135403447Y-70260400D01*
X135427257Y-70284209D01*
X135451066Y-70331828D01*
X135451066Y-70403257D01*
X135427257Y-70450876D01*
X135403447Y-70474685D01*
X135355828Y-70498495D01*
X135165352Y-70498495D01*
X135617733Y-70236590D02*
X135927257Y-70236590D01*
X135760590Y-70427066D01*
X135832019Y-70427066D01*
X135879638Y-70450876D01*
X135903447Y-70474685D01*
X135927257Y-70522304D01*
X135927257Y-70641352D01*
X135903447Y-70688971D01*
X135879638Y-70712780D01*
X135832019Y-70736590D01*
X135689161Y-70736590D01*
X135641542Y-70712780D01*
X135617733Y-70688971D01*
D12*
X159655428Y-66259857D02*
X159655428Y-66317000D01*
X159655428Y-66288428D02*
X159055428Y-66288428D01*
X159141142Y-66297952D01*
X159198285Y-66307476D01*
X159226857Y-66317000D01*
X159598285Y-66217000D02*
X159626857Y-66212238D01*
X159655428Y-66217000D01*
X159626857Y-66221761D01*
X159598285Y-66217000D01*
X159655428Y-66217000D01*
X159312571Y-66155095D02*
X159284000Y-66164619D01*
X159255428Y-66169380D01*
X159198285Y-66174142D01*
X159169714Y-66174142D01*
X159112571Y-66169380D01*
X159084000Y-66164619D01*
X159055428Y-66155095D01*
X159055428Y-66136047D01*
X159084000Y-66126523D01*
X159112571Y-66121761D01*
X159169714Y-66117000D01*
X159198285Y-66117000D01*
X159255428Y-66121761D01*
X159284000Y-66126523D01*
X159312571Y-66136047D01*
X159312571Y-66155095D01*
X159341142Y-66164619D01*
X159369714Y-66169380D01*
X159426857Y-66174142D01*
X159541142Y-66174142D01*
X159598285Y-66169380D01*
X159626857Y-66164619D01*
X159655428Y-66155095D01*
X159655428Y-66136047D01*
X159626857Y-66126523D01*
X159598285Y-66121761D01*
X159541142Y-66117000D01*
X159426857Y-66117000D01*
X159369714Y-66121761D01*
X159341142Y-66126523D01*
X159312571Y-66136047D01*
X159655428Y-66074142D02*
X159055428Y-66074142D01*
X159655428Y-66017000D02*
X159312571Y-66059857D01*
X159055428Y-66017000D02*
X159398285Y-66074142D01*
D13*
D14*
X157960190Y-66250333D02*
X157722095Y-66417000D01*
X157960190Y-66536047D02*
X157460190Y-66536047D01*
X157460190Y-66345571D01*
X157484000Y-66297952D01*
X157507809Y-66274142D01*
X157555428Y-66250333D01*
X157626857Y-66250333D01*
X157674476Y-66274142D01*
X157698285Y-66297952D01*
X157722095Y-66345571D01*
X157722095Y-66536047D01*
X157626857Y-65821761D02*
X157960190Y-65821761D01*
X157436380Y-65940809D02*
X157793523Y-66059857D01*
X157793523Y-65750333D01*
D12*
X148254133Y-83099828D02*
X148196990Y-83099828D01*
X148225561Y-83099828D02*
X148225561Y-82499828D01*
X148216038Y-82585542D01*
X148206514Y-82642685D01*
X148196990Y-82671257D01*
X148316038Y-82499828D02*
X148325561Y-82499828D01*
X148335085Y-82528400D01*
X148339847Y-82556971D01*
X148344609Y-82614114D01*
X148349371Y-82728400D01*
X148349371Y-82871257D01*
X148344609Y-82985542D01*
X148339847Y-83042685D01*
X148335085Y-83071257D01*
X148325561Y-83099828D01*
X148316038Y-83099828D01*
X148306514Y-83071257D01*
X148301752Y-83042685D01*
X148296990Y-82985542D01*
X148292228Y-82871257D01*
X148292228Y-82728400D01*
X148296990Y-82614114D01*
X148301752Y-82556971D01*
X148306514Y-82528400D01*
X148316038Y-82499828D01*
X148411276Y-82499828D02*
X148420800Y-82499828D01*
X148430323Y-82528400D01*
X148435085Y-82556971D01*
X148439847Y-82614114D01*
X148444609Y-82728400D01*
X148444609Y-82871257D01*
X148439847Y-82985542D01*
X148435085Y-83042685D01*
X148430323Y-83071257D01*
X148420800Y-83099828D01*
X148411276Y-83099828D01*
X148401752Y-83071257D01*
X148396990Y-83042685D01*
X148392228Y-82985542D01*
X148387466Y-82871257D01*
X148387466Y-82728400D01*
X148392228Y-82614114D01*
X148396990Y-82556971D01*
X148401752Y-82528400D01*
X148411276Y-82499828D01*
D13*
D14*
X148237466Y-81404590D02*
X148070800Y-81166495D01*
X147951752Y-81404590D02*
X147951752Y-80904590D01*
X148142228Y-80904590D01*
X148189847Y-80928400D01*
X148213657Y-80952209D01*
X148237466Y-80999828D01*
X148237466Y-81071257D01*
X148213657Y-81118876D01*
X148189847Y-81142685D01*
X148142228Y-81166495D01*
X147951752Y-81166495D01*
X148404133Y-80904590D02*
X148737466Y-80904590D01*
X148523180Y-81404590D01*
D12*
X142541752Y-92904228D02*
X142484609Y-92904228D01*
X142513180Y-92904228D02*
X142513180Y-92304228D01*
X142503657Y-92389942D01*
X142494133Y-92447085D01*
X142484609Y-92475657D01*
X142603657Y-92304228D02*
X142613180Y-92304228D01*
X142622704Y-92332800D01*
X142627466Y-92361371D01*
X142632228Y-92418514D01*
X142636990Y-92532800D01*
X142636990Y-92675657D01*
X142632228Y-92789942D01*
X142627466Y-92847085D01*
X142622704Y-92875657D01*
X142613180Y-92904228D01*
X142603657Y-92904228D01*
X142594133Y-92875657D01*
X142589371Y-92847085D01*
X142584609Y-92789942D01*
X142579847Y-92675657D01*
X142579847Y-92532800D01*
X142584609Y-92418514D01*
X142589371Y-92361371D01*
X142594133Y-92332800D01*
X142603657Y-92304228D01*
X142679847Y-92904228D02*
X142679847Y-92304228D01*
X142736990Y-92904228D02*
X142694133Y-92561371D01*
X142736990Y-92304228D02*
X142679847Y-92647085D01*
D13*
D14*
X142527466Y-91208990D02*
X142360800Y-90970895D01*
X142241752Y-91208990D02*
X142241752Y-90708990D01*
X142432228Y-90708990D01*
X142479847Y-90732800D01*
X142503657Y-90756609D01*
X142527466Y-90804228D01*
X142527466Y-90875657D01*
X142503657Y-90923276D01*
X142479847Y-90947085D01*
X142432228Y-90970895D01*
X142241752Y-90970895D01*
X142813180Y-90923276D02*
X142765561Y-90899466D01*
X142741752Y-90875657D01*
X142717942Y-90828038D01*
X142717942Y-90804228D01*
X142741752Y-90756609D01*
X142765561Y-90732800D01*
X142813180Y-90708990D01*
X142908419Y-90708990D01*
X142956038Y-90732800D01*
X142979847Y-90756609D01*
X143003657Y-90804228D01*
X143003657Y-90828038D01*
X142979847Y-90875657D01*
X142956038Y-90899466D01*
X142908419Y-90923276D01*
X142813180Y-90923276D01*
X142765561Y-90947085D01*
X142741752Y-90970895D01*
X142717942Y-91018514D01*
X142717942Y-91113752D01*
X142741752Y-91161371D01*
X142765561Y-91185180D01*
X142813180Y-91208990D01*
X142908419Y-91208990D01*
X142956038Y-91185180D01*
X142979847Y-91161371D01*
X143003657Y-91113752D01*
X143003657Y-91018514D01*
X142979847Y-90970895D01*
X142956038Y-90947085D01*
X142908419Y-90923276D01*
D12*
X163213428Y-66163028D02*
X163213428Y-66220171D01*
X163213428Y-66191600D02*
X162613428Y-66191600D01*
X162699142Y-66201123D01*
X162756285Y-66210647D01*
X162784857Y-66220171D01*
X163213428Y-66120171D02*
X162613428Y-66120171D01*
X163213428Y-66063028D02*
X162870571Y-66105885D01*
X162613428Y-66063028D02*
X162956285Y-66120171D01*
D13*
D14*
X164818190Y-66463028D02*
X164580095Y-66629695D01*
X164818190Y-66748742D02*
X164318190Y-66748742D01*
X164318190Y-66558266D01*
X164342000Y-66510647D01*
X164365809Y-66486838D01*
X164413428Y-66463028D01*
X164484857Y-66463028D01*
X164532476Y-66486838D01*
X164556285Y-66510647D01*
X164580095Y-66558266D01*
X164580095Y-66748742D01*
X164818190Y-65986838D02*
X164818190Y-66272552D01*
X164818190Y-66129695D02*
X164318190Y-66129695D01*
X164389619Y-66177314D01*
X164437238Y-66224933D01*
X164461047Y-66272552D01*
X164318190Y-65677314D02*
X164318190Y-65629695D01*
X164342000Y-65582076D01*
X164365809Y-65558266D01*
X164413428Y-65534457D01*
X164508666Y-65510647D01*
X164627714Y-65510647D01*
X164722952Y-65534457D01*
X164770571Y-65558266D01*
X164794380Y-65582076D01*
X164818190Y-65629695D01*
X164818190Y-65677314D01*
X164794380Y-65724933D01*
X164770571Y-65748742D01*
X164722952Y-65772552D01*
X164627714Y-65796361D01*
X164508666Y-65796361D01*
X164413428Y-65772552D01*
X164365809Y-65748742D01*
X164342000Y-65724933D01*
X164318190Y-65677314D01*
D12*
X164227428Y-66163028D02*
X164227428Y-66220171D01*
X164227428Y-66191600D02*
X163627428Y-66191600D01*
X163713142Y-66201123D01*
X163770285Y-66210647D01*
X163798857Y-66220171D01*
X164227428Y-66120171D02*
X163627428Y-66120171D01*
X164227428Y-66063028D02*
X163884571Y-66105885D01*
X163627428Y-66063028D02*
X163970285Y-66120171D01*
D13*
D14*
X162532190Y-66463028D02*
X162294095Y-66629695D01*
X162532190Y-66748742D02*
X162032190Y-66748742D01*
X162032190Y-66558266D01*
X162056000Y-66510647D01*
X162079809Y-66486838D01*
X162127428Y-66463028D01*
X162198857Y-66463028D01*
X162246476Y-66486838D01*
X162270285Y-66510647D01*
X162294095Y-66558266D01*
X162294095Y-66748742D01*
X162532190Y-65986838D02*
X162532190Y-66272552D01*
X162532190Y-66129695D02*
X162032190Y-66129695D01*
X162103619Y-66177314D01*
X162151238Y-66224933D01*
X162175047Y-66272552D01*
X162532190Y-65510647D02*
X162532190Y-65796361D01*
X162532190Y-65653504D02*
X162032190Y-65653504D01*
X162103619Y-65701123D01*
X162151238Y-65748742D01*
X162175047Y-65796361D01*
D12*
X146514352Y-94938228D02*
X146457209Y-94938228D01*
X146485780Y-94938228D02*
X146485780Y-94338228D01*
X146476257Y-94423942D01*
X146466733Y-94481085D01*
X146457209Y-94509657D01*
X146576257Y-94338228D02*
X146585780Y-94338228D01*
X146595304Y-94366800D01*
X146600066Y-94395371D01*
X146604828Y-94452514D01*
X146609590Y-94566800D01*
X146609590Y-94709657D01*
X146604828Y-94823942D01*
X146600066Y-94881085D01*
X146595304Y-94909657D01*
X146585780Y-94938228D01*
X146576257Y-94938228D01*
X146566733Y-94909657D01*
X146561971Y-94881085D01*
X146557209Y-94823942D01*
X146552447Y-94709657D01*
X146552447Y-94566800D01*
X146557209Y-94452514D01*
X146561971Y-94395371D01*
X146566733Y-94366800D01*
X146576257Y-94338228D01*
X146652447Y-94938228D02*
X146652447Y-94338228D01*
X146709590Y-94938228D02*
X146666733Y-94595371D01*
X146709590Y-94338228D02*
X146652447Y-94681085D01*
D13*
D14*
X146261971Y-96542990D02*
X146095304Y-96304895D01*
X145976257Y-96542990D02*
X145976257Y-96042990D01*
X146166733Y-96042990D01*
X146214352Y-96066800D01*
X146238161Y-96090609D01*
X146261971Y-96138228D01*
X146261971Y-96209657D01*
X146238161Y-96257276D01*
X146214352Y-96281085D01*
X146166733Y-96304895D01*
X145976257Y-96304895D01*
X146738161Y-96542990D02*
X146452447Y-96542990D01*
X146595304Y-96542990D02*
X146595304Y-96042990D01*
X146547685Y-96114419D01*
X146500066Y-96162038D01*
X146452447Y-96185847D01*
X147166733Y-96042990D02*
X147071495Y-96042990D01*
X147023876Y-96066800D01*
X147000066Y-96090609D01*
X146952447Y-96162038D01*
X146928638Y-96257276D01*
X146928638Y-96447752D01*
X146952447Y-96495371D01*
X146976257Y-96519180D01*
X147023876Y-96542990D01*
X147119114Y-96542990D01*
X147166733Y-96519180D01*
X147190542Y-96495371D01*
X147214352Y-96447752D01*
X147214352Y-96328704D01*
X147190542Y-96281085D01*
X147166733Y-96257276D01*
X147119114Y-96233466D01*
X147023876Y-96233466D01*
X146976257Y-96257276D01*
X146952447Y-96281085D01*
X146928638Y-96328704D01*
D12*
X146488952Y-97198828D02*
X146431809Y-97198828D01*
X146460380Y-97198828D02*
X146460380Y-96598828D01*
X146450857Y-96684542D01*
X146441333Y-96741685D01*
X146431809Y-96770257D01*
X146550857Y-96598828D02*
X146560380Y-96598828D01*
X146569904Y-96627400D01*
X146574666Y-96655971D01*
X146579428Y-96713114D01*
X146584190Y-96827400D01*
X146584190Y-96970257D01*
X146579428Y-97084542D01*
X146574666Y-97141685D01*
X146569904Y-97170257D01*
X146560380Y-97198828D01*
X146550857Y-97198828D01*
X146541333Y-97170257D01*
X146536571Y-97141685D01*
X146531809Y-97084542D01*
X146527047Y-96970257D01*
X146527047Y-96827400D01*
X146531809Y-96713114D01*
X146536571Y-96655971D01*
X146541333Y-96627400D01*
X146550857Y-96598828D01*
X146627047Y-97198828D02*
X146627047Y-96598828D01*
X146684190Y-97198828D02*
X146641333Y-96855971D01*
X146684190Y-96598828D02*
X146627047Y-96941685D01*
D13*
D14*
X146236571Y-98803590D02*
X146069904Y-98565495D01*
X145950857Y-98803590D02*
X145950857Y-98303590D01*
X146141333Y-98303590D01*
X146188952Y-98327400D01*
X146212761Y-98351209D01*
X146236571Y-98398828D01*
X146236571Y-98470257D01*
X146212761Y-98517876D01*
X146188952Y-98541685D01*
X146141333Y-98565495D01*
X145950857Y-98565495D01*
X146712761Y-98803590D02*
X146427047Y-98803590D01*
X146569904Y-98803590D02*
X146569904Y-98303590D01*
X146522285Y-98375019D01*
X146474666Y-98422638D01*
X146427047Y-98446447D01*
X146879428Y-98303590D02*
X147212761Y-98303590D01*
X146998476Y-98803590D01*
D12*
X147373200Y-105164971D02*
X147377961Y-105136400D01*
X147387485Y-105107828D01*
X147411295Y-105107828D01*
X147420819Y-105136400D01*
X147425580Y-105164971D01*
X147430342Y-105222114D01*
X147430342Y-105279257D01*
X147425580Y-105364971D01*
X147368438Y-105707828D01*
X147430342Y-105707828D01*
X147473200Y-105650685D02*
X147477961Y-105679257D01*
X147473200Y-105707828D01*
X147468438Y-105679257D01*
X147473200Y-105650685D01*
X147473200Y-105707828D01*
X147516057Y-105164971D02*
X147520819Y-105136400D01*
X147530342Y-105107828D01*
X147554152Y-105107828D01*
X147563676Y-105136400D01*
X147568438Y-105164971D01*
X147573200Y-105222114D01*
X147573200Y-105279257D01*
X147568438Y-105364971D01*
X147511295Y-105707828D01*
X147573200Y-105707828D01*
X147616057Y-105707828D02*
X147616057Y-105107828D01*
X147673200Y-105707828D02*
X147630342Y-105364971D01*
X147673200Y-105107828D02*
X147616057Y-105450685D01*
D13*
D14*
X147201771Y-107312590D02*
X147035104Y-107074495D01*
X146916057Y-107312590D02*
X146916057Y-106812590D01*
X147106533Y-106812590D01*
X147154152Y-106836400D01*
X147177961Y-106860209D01*
X147201771Y-106907828D01*
X147201771Y-106979257D01*
X147177961Y-107026876D01*
X147154152Y-107050685D01*
X147106533Y-107074495D01*
X146916057Y-107074495D01*
X147677961Y-107312590D02*
X147392247Y-107312590D01*
X147535104Y-107312590D02*
X147535104Y-106812590D01*
X147487485Y-106884019D01*
X147439866Y-106931638D01*
X147392247Y-106955447D01*
X147963676Y-107026876D02*
X147916057Y-107003066D01*
X147892247Y-106979257D01*
X147868438Y-106931638D01*
X147868438Y-106907828D01*
X147892247Y-106860209D01*
X147916057Y-106836400D01*
X147963676Y-106812590D01*
X148058914Y-106812590D01*
X148106533Y-106836400D01*
X148130342Y-106860209D01*
X148154152Y-106907828D01*
X148154152Y-106931638D01*
X148130342Y-106979257D01*
X148106533Y-107003066D01*
X148058914Y-107026876D01*
X147963676Y-107026876D01*
X147916057Y-107050685D01*
X147892247Y-107074495D01*
X147868438Y-107122114D01*
X147868438Y-107217352D01*
X147892247Y-107264971D01*
X147916057Y-107288780D01*
X147963676Y-107312590D01*
X148058914Y-107312590D01*
X148106533Y-107288780D01*
X148130342Y-107264971D01*
X148154152Y-107217352D01*
X148154152Y-107122114D01*
X148130342Y-107074495D01*
X148106533Y-107050685D01*
X148058914Y-107026876D01*
D12*
X147373200Y-102574171D02*
X147377961Y-102545600D01*
X147387485Y-102517028D01*
X147411295Y-102517028D01*
X147420819Y-102545600D01*
X147425580Y-102574171D01*
X147430342Y-102631314D01*
X147430342Y-102688457D01*
X147425580Y-102774171D01*
X147368438Y-103117028D01*
X147430342Y-103117028D01*
X147473200Y-103059885D02*
X147477961Y-103088457D01*
X147473200Y-103117028D01*
X147468438Y-103088457D01*
X147473200Y-103059885D01*
X147473200Y-103117028D01*
X147516057Y-102574171D02*
X147520819Y-102545600D01*
X147530342Y-102517028D01*
X147554152Y-102517028D01*
X147563676Y-102545600D01*
X147568438Y-102574171D01*
X147573200Y-102631314D01*
X147573200Y-102688457D01*
X147568438Y-102774171D01*
X147511295Y-103117028D01*
X147573200Y-103117028D01*
X147616057Y-103117028D02*
X147616057Y-102517028D01*
X147673200Y-103117028D02*
X147630342Y-102774171D01*
X147673200Y-102517028D02*
X147616057Y-102859885D01*
D13*
D14*
X147201771Y-104721790D02*
X147035104Y-104483695D01*
X146916057Y-104721790D02*
X146916057Y-104221790D01*
X147106533Y-104221790D01*
X147154152Y-104245600D01*
X147177961Y-104269409D01*
X147201771Y-104317028D01*
X147201771Y-104388457D01*
X147177961Y-104436076D01*
X147154152Y-104459885D01*
X147106533Y-104483695D01*
X146916057Y-104483695D01*
X147677961Y-104721790D02*
X147392247Y-104721790D01*
X147535104Y-104721790D02*
X147535104Y-104221790D01*
X147487485Y-104293219D01*
X147439866Y-104340838D01*
X147392247Y-104364647D01*
X147916057Y-104721790D02*
X148011295Y-104721790D01*
X148058914Y-104697980D01*
X148082723Y-104674171D01*
X148130342Y-104602742D01*
X148154152Y-104507504D01*
X148154152Y-104317028D01*
X148130342Y-104269409D01*
X148106533Y-104245600D01*
X148058914Y-104221790D01*
X147963676Y-104221790D01*
X147916057Y-104245600D01*
X147892247Y-104269409D01*
X147868438Y-104317028D01*
X147868438Y-104436076D01*
X147892247Y-104483695D01*
X147916057Y-104507504D01*
X147963676Y-104531314D01*
X148058914Y-104531314D01*
X148106533Y-104507504D01*
X148130342Y-104483695D01*
X148154152Y-104436076D01*
D12*
X148299390Y-86521371D02*
X148304152Y-86492800D01*
X148313676Y-86464228D01*
X148337485Y-86464228D01*
X148347009Y-86492800D01*
X148351771Y-86521371D01*
X148356533Y-86578514D01*
X148356533Y-86635657D01*
X148351771Y-86721371D01*
X148294628Y-87064228D01*
X148356533Y-87064228D01*
X148418438Y-86464228D02*
X148427961Y-86464228D01*
X148437485Y-86492800D01*
X148442247Y-86521371D01*
X148447009Y-86578514D01*
X148451771Y-86692800D01*
X148451771Y-86835657D01*
X148447009Y-86949942D01*
X148442247Y-87007085D01*
X148437485Y-87035657D01*
X148427961Y-87064228D01*
X148418438Y-87064228D01*
X148408914Y-87035657D01*
X148404152Y-87007085D01*
X148399390Y-86949942D01*
X148394628Y-86835657D01*
X148394628Y-86692800D01*
X148399390Y-86578514D01*
X148404152Y-86521371D01*
X148408914Y-86492800D01*
X148418438Y-86464228D01*
X148513676Y-86464228D02*
X148523200Y-86464228D01*
X148532723Y-86492800D01*
X148537485Y-86521371D01*
X148542247Y-86578514D01*
X148547009Y-86692800D01*
X148547009Y-86835657D01*
X148542247Y-86949942D01*
X148537485Y-87007085D01*
X148532723Y-87035657D01*
X148523200Y-87064228D01*
X148513676Y-87064228D01*
X148504152Y-87035657D01*
X148499390Y-87007085D01*
X148494628Y-86949942D01*
X148489866Y-86835657D01*
X148489866Y-86692800D01*
X148494628Y-86578514D01*
X148499390Y-86521371D01*
X148504152Y-86492800D01*
X148513676Y-86464228D01*
X148589866Y-87064228D02*
X148589866Y-86464228D01*
X148647009Y-87064228D02*
X148604152Y-86721371D01*
X148647009Y-86464228D02*
X148589866Y-86807085D01*
D13*
D14*
X148151771Y-88668990D02*
X147985104Y-88430895D01*
X147866057Y-88668990D02*
X147866057Y-88168990D01*
X148056533Y-88168990D01*
X148104152Y-88192800D01*
X148127961Y-88216609D01*
X148151771Y-88264228D01*
X148151771Y-88335657D01*
X148127961Y-88383276D01*
X148104152Y-88407085D01*
X148056533Y-88430895D01*
X147866057Y-88430895D01*
X148342247Y-88216609D02*
X148366057Y-88192800D01*
X148413676Y-88168990D01*
X148532723Y-88168990D01*
X148580342Y-88192800D01*
X148604152Y-88216609D01*
X148627961Y-88264228D01*
X148627961Y-88311847D01*
X148604152Y-88383276D01*
X148318438Y-88668990D01*
X148627961Y-88668990D01*
X148937485Y-88168990D02*
X148985104Y-88168990D01*
X149032723Y-88192800D01*
X149056533Y-88216609D01*
X149080342Y-88264228D01*
X149104152Y-88359466D01*
X149104152Y-88478514D01*
X149080342Y-88573752D01*
X149056533Y-88621371D01*
X149032723Y-88645180D01*
X148985104Y-88668990D01*
X148937485Y-88668990D01*
X148889866Y-88645180D01*
X148866057Y-88621371D01*
X148842247Y-88573752D01*
X148818438Y-88478514D01*
X148818438Y-88359466D01*
X148842247Y-88264228D01*
X148866057Y-88216609D01*
X148889866Y-88192800D01*
X148937485Y-88168990D01*
D12*
X156988428Y-66163028D02*
X156988428Y-66220171D01*
X156988428Y-66191600D02*
X156388428Y-66191600D01*
X156474142Y-66201123D01*
X156531285Y-66210647D01*
X156559857Y-66220171D01*
X156988428Y-66120171D02*
X156388428Y-66120171D01*
X156988428Y-66063028D02*
X156645571Y-66105885D01*
X156388428Y-66063028D02*
X156731285Y-66120171D01*
D13*
D14*
X155293190Y-66463028D02*
X155055095Y-66629695D01*
X155293190Y-66748742D02*
X154793190Y-66748742D01*
X154793190Y-66558266D01*
X154817000Y-66510647D01*
X154840809Y-66486838D01*
X154888428Y-66463028D01*
X154959857Y-66463028D01*
X155007476Y-66486838D01*
X155031285Y-66510647D01*
X155055095Y-66558266D01*
X155055095Y-66748742D01*
X154840809Y-66272552D02*
X154817000Y-66248742D01*
X154793190Y-66201123D01*
X154793190Y-66082076D01*
X154817000Y-66034457D01*
X154840809Y-66010647D01*
X154888428Y-65986838D01*
X154936047Y-65986838D01*
X155007476Y-66010647D01*
X155293190Y-66296361D01*
X155293190Y-65986838D01*
X154840809Y-65796361D02*
X154817000Y-65772552D01*
X154793190Y-65724933D01*
X154793190Y-65605885D01*
X154817000Y-65558266D01*
X154840809Y-65534457D01*
X154888428Y-65510647D01*
X154936047Y-65510647D01*
X155007476Y-65534457D01*
X155293190Y-65820171D01*
X155293190Y-65510647D01*
D12*
X183112590Y-97542971D02*
X183117352Y-97514400D01*
X183126876Y-97485828D01*
X183150685Y-97485828D01*
X183160209Y-97514400D01*
X183164971Y-97542971D01*
X183169733Y-97600114D01*
X183169733Y-97657257D01*
X183164971Y-97742971D01*
X183107828Y-98085828D01*
X183169733Y-98085828D01*
X183231638Y-97485828D02*
X183241161Y-97485828D01*
X183250685Y-97514400D01*
X183255447Y-97542971D01*
X183260209Y-97600114D01*
X183264971Y-97714400D01*
X183264971Y-97857257D01*
X183260209Y-97971542D01*
X183255447Y-98028685D01*
X183250685Y-98057257D01*
X183241161Y-98085828D01*
X183231638Y-98085828D01*
X183222114Y-98057257D01*
X183217352Y-98028685D01*
X183212590Y-97971542D01*
X183207828Y-97857257D01*
X183207828Y-97714400D01*
X183212590Y-97600114D01*
X183217352Y-97542971D01*
X183222114Y-97514400D01*
X183231638Y-97485828D01*
X183326876Y-97485828D02*
X183336400Y-97485828D01*
X183345923Y-97514400D01*
X183350685Y-97542971D01*
X183355447Y-97600114D01*
X183360209Y-97714400D01*
X183360209Y-97857257D01*
X183355447Y-97971542D01*
X183350685Y-98028685D01*
X183345923Y-98057257D01*
X183336400Y-98085828D01*
X183326876Y-98085828D01*
X183317352Y-98057257D01*
X183312590Y-98028685D01*
X183307828Y-97971542D01*
X183303066Y-97857257D01*
X183303066Y-97714400D01*
X183307828Y-97600114D01*
X183312590Y-97542971D01*
X183317352Y-97514400D01*
X183326876Y-97485828D01*
X183403066Y-98085828D02*
X183403066Y-97485828D01*
X183460209Y-98085828D02*
X183417352Y-97742971D01*
X183460209Y-97485828D02*
X183403066Y-97828685D01*
D13*
D14*
X182964971Y-96390590D02*
X182798304Y-96152495D01*
X182679257Y-96390590D02*
X182679257Y-95890590D01*
X182869733Y-95890590D01*
X182917352Y-95914400D01*
X182941161Y-95938209D01*
X182964971Y-95985828D01*
X182964971Y-96057257D01*
X182941161Y-96104876D01*
X182917352Y-96128685D01*
X182869733Y-96152495D01*
X182679257Y-96152495D01*
X183155447Y-95938209D02*
X183179257Y-95914400D01*
X183226876Y-95890590D01*
X183345923Y-95890590D01*
X183393542Y-95914400D01*
X183417352Y-95938209D01*
X183441161Y-95985828D01*
X183441161Y-96033447D01*
X183417352Y-96104876D01*
X183131638Y-96390590D01*
X183441161Y-96390590D01*
X183869733Y-95890590D02*
X183774495Y-95890590D01*
X183726876Y-95914400D01*
X183703066Y-95938209D01*
X183655447Y-96009638D01*
X183631638Y-96104876D01*
X183631638Y-96295352D01*
X183655447Y-96342971D01*
X183679257Y-96366780D01*
X183726876Y-96390590D01*
X183822114Y-96390590D01*
X183869733Y-96366780D01*
X183893542Y-96342971D01*
X183917352Y-96295352D01*
X183917352Y-96176304D01*
X183893542Y-96128685D01*
X183869733Y-96104876D01*
X183822114Y-96081066D01*
X183726876Y-96081066D01*
X183679257Y-96104876D01*
X183655447Y-96128685D01*
X183631638Y-96176304D01*
D12*
X183088780Y-97036971D02*
X183093542Y-97008400D01*
X183103066Y-96979828D01*
X183126876Y-96979828D01*
X183136400Y-97008400D01*
X183141161Y-97036971D01*
X183145923Y-97094114D01*
X183145923Y-97151257D01*
X183141161Y-97236971D01*
X183084019Y-97579828D01*
X183145923Y-97579828D01*
X183179257Y-96979828D02*
X183245923Y-96979828D01*
X183203066Y-97579828D01*
X183284019Y-97522685D02*
X183288780Y-97551257D01*
X183284019Y-97579828D01*
X183279257Y-97551257D01*
X183284019Y-97522685D01*
X183284019Y-97579828D01*
X183350685Y-96979828D02*
X183360209Y-96979828D01*
X183369733Y-97008400D01*
X183374495Y-97036971D01*
X183379257Y-97094114D01*
X183384019Y-97208400D01*
X183384019Y-97351257D01*
X183379257Y-97465542D01*
X183374495Y-97522685D01*
X183369733Y-97551257D01*
X183360209Y-97579828D01*
X183350685Y-97579828D01*
X183341161Y-97551257D01*
X183336400Y-97522685D01*
X183331638Y-97465542D01*
X183326876Y-97351257D01*
X183326876Y-97208400D01*
X183331638Y-97094114D01*
X183336400Y-97036971D01*
X183341161Y-97008400D01*
X183350685Y-96979828D01*
X183426876Y-97579828D02*
X183426876Y-96979828D01*
X183484019Y-97579828D02*
X183441161Y-97236971D01*
X183484019Y-96979828D02*
X183426876Y-97322685D01*
D13*
D14*
X182964971Y-99184590D02*
X182798304Y-98946495D01*
X182679257Y-99184590D02*
X182679257Y-98684590D01*
X182869733Y-98684590D01*
X182917352Y-98708400D01*
X182941161Y-98732209D01*
X182964971Y-98779828D01*
X182964971Y-98851257D01*
X182941161Y-98898876D01*
X182917352Y-98922685D01*
X182869733Y-98946495D01*
X182679257Y-98946495D01*
X183155447Y-98732209D02*
X183179257Y-98708400D01*
X183226876Y-98684590D01*
X183345923Y-98684590D01*
X183393542Y-98708400D01*
X183417352Y-98732209D01*
X183441161Y-98779828D01*
X183441161Y-98827447D01*
X183417352Y-98898876D01*
X183131638Y-99184590D01*
X183441161Y-99184590D01*
X183607828Y-98684590D02*
X183941161Y-98684590D01*
X183726876Y-99184590D01*
D11*
X181629580Y-113796628D02*
X181629580Y-114368057D01*
X181629580Y-114082342D02*
X180629580Y-114082342D01*
X180772438Y-114177580D01*
X180867676Y-114272819D01*
X180915295Y-114368057D01*
X180629580Y-113177580D02*
X180629580Y-113082342D01*
X180677200Y-112987104D01*
X180724819Y-112939485D01*
X180820057Y-112891866D01*
X181010533Y-112844247D01*
X181248628Y-112844247D01*
X181439104Y-112891866D01*
X181534342Y-112939485D01*
X181581961Y-112987104D01*
X181629580Y-113082342D01*
X181629580Y-113177580D01*
X181581961Y-113272819D01*
X181534342Y-113320438D01*
X181439104Y-113368057D01*
X181248628Y-113415676D01*
X181010533Y-113415676D01*
X180820057Y-113368057D01*
X180724819Y-113320438D01*
X180677200Y-113272819D01*
X180629580Y-113177580D01*
X180962914Y-111987104D02*
X181629580Y-111987104D01*
X180962914Y-112415676D02*
X181486723Y-112415676D01*
X181581961Y-112368057D01*
X181629580Y-112272819D01*
X181629580Y-112129961D01*
X181581961Y-112034723D01*
X181534342Y-111987104D01*
X181105771Y-111177580D02*
X181105771Y-111510914D01*
X181629580Y-111510914D02*
X180629580Y-111510914D01*
X180629580Y-111034723D01*
D14*
X179705771Y-113046628D02*
X179729580Y-113070438D01*
X179753390Y-113141866D01*
X179753390Y-113189485D01*
X179729580Y-113260914D01*
X179681961Y-113308533D01*
X179634342Y-113332342D01*
X179539104Y-113356152D01*
X179467676Y-113356152D01*
X179372438Y-113332342D01*
X179324819Y-113308533D01*
X179277200Y-113260914D01*
X179253390Y-113189485D01*
X179253390Y-113141866D01*
X179277200Y-113070438D01*
X179301009Y-113046628D01*
X179753390Y-112570438D02*
X179753390Y-112856152D01*
X179753390Y-112713295D02*
X179253390Y-112713295D01*
X179324819Y-112760914D01*
X179372438Y-112808533D01*
X179396247Y-112856152D01*
X179253390Y-112141866D02*
X179253390Y-112237104D01*
X179277200Y-112284723D01*
X179301009Y-112308533D01*
X179372438Y-112356152D01*
X179467676Y-112379961D01*
X179658152Y-112379961D01*
X179705771Y-112356152D01*
X179729580Y-112332342D01*
X179753390Y-112284723D01*
X179753390Y-112189485D01*
X179729580Y-112141866D01*
X179705771Y-112118057D01*
X179658152Y-112094247D01*
X179539104Y-112094247D01*
X179491485Y-112118057D01*
X179467676Y-112141866D01*
X179443866Y-112189485D01*
X179443866Y-112284723D01*
X179467676Y-112332342D01*
X179491485Y-112356152D01*
X179539104Y-112379961D01*
D10*
X186303228Y-87005971D02*
X186703228Y-87005971D01*
X186074657Y-87148828D02*
X186503228Y-87291685D01*
X186503228Y-86920257D01*
X186646085Y-86691685D02*
X186674657Y-86663114D01*
X186703228Y-86691685D01*
X186674657Y-86720257D01*
X186646085Y-86691685D01*
X186703228Y-86691685D01*
X186103228Y-86463114D02*
X186103228Y-86063114D01*
X186703228Y-86320257D01*
X186303228Y-85120257D02*
X186703228Y-85120257D01*
X186303228Y-85377400D02*
X186617514Y-85377400D01*
X186674657Y-85348828D01*
X186703228Y-85291685D01*
X186703228Y-85205971D01*
X186674657Y-85148828D01*
X186646085Y-85120257D01*
X186703228Y-84834542D02*
X186103228Y-84834542D01*
X186388942Y-84834542D02*
X186388942Y-84491685D01*
X186703228Y-84491685D02*
X186103228Y-84491685D01*
D11*
X184303561Y-80783714D02*
X184351180Y-80640857D01*
X184351180Y-80402761D01*
X184303561Y-80307523D01*
X184255942Y-80259904D01*
X184160704Y-80212285D01*
X184065466Y-80212285D01*
X183970228Y-80259904D01*
X183922609Y-80307523D01*
X183874990Y-80402761D01*
X183827371Y-80593238D01*
X183779752Y-80688476D01*
X183732133Y-80736095D01*
X183636895Y-80783714D01*
X183541657Y-80783714D01*
X183446419Y-80736095D01*
X183398800Y-80688476D01*
X183351180Y-80593238D01*
X183351180Y-80355142D01*
X183398800Y-80212285D01*
X184351180Y-79783714D02*
X183351180Y-79783714D01*
X183351180Y-79402761D01*
X183398800Y-79307523D01*
X183446419Y-79259904D01*
X183541657Y-79212285D01*
X183684514Y-79212285D01*
X183779752Y-79259904D01*
X183827371Y-79307523D01*
X183874990Y-79402761D01*
X183874990Y-79783714D01*
X184303561Y-78831333D02*
X184351180Y-78688476D01*
X184351180Y-78450380D01*
X184303561Y-78355142D01*
X184255942Y-78307523D01*
X184160704Y-78259904D01*
X184065466Y-78259904D01*
X183970228Y-78307523D01*
X183922609Y-78355142D01*
X183874990Y-78450380D01*
X183827371Y-78640857D01*
X183779752Y-78736095D01*
X183732133Y-78783714D01*
X183636895Y-78831333D01*
X183541657Y-78831333D01*
X183446419Y-78783714D01*
X183398800Y-78736095D01*
X183351180Y-78640857D01*
X183351180Y-78402761D01*
X183398800Y-78259904D01*
X183351180Y-77974190D02*
X183351180Y-77402761D01*
X184351180Y-77688476D02*
X183351180Y-77688476D01*
X183970228Y-77069428D02*
X183970228Y-76307523D01*
X184351180Y-75831333D02*
X183351180Y-75831333D01*
X183351180Y-75450380D01*
X183398800Y-75355142D01*
X183446419Y-75307523D01*
X183541657Y-75259904D01*
X183684514Y-75259904D01*
X183779752Y-75307523D01*
X183827371Y-75355142D01*
X183874990Y-75450380D01*
X183874990Y-75831333D01*
X183351180Y-74831333D02*
X184160704Y-74831333D01*
X184255942Y-74783714D01*
X184303561Y-74736095D01*
X184351180Y-74640857D01*
X184351180Y-74450380D01*
X184303561Y-74355142D01*
X184255942Y-74307523D01*
X184160704Y-74259904D01*
X183351180Y-74259904D01*
X184303561Y-73831333D02*
X184351180Y-73688476D01*
X184351180Y-73450380D01*
X184303561Y-73355142D01*
X184255942Y-73307523D01*
X184160704Y-73259904D01*
X184065466Y-73259904D01*
X183970228Y-73307523D01*
X183922609Y-73355142D01*
X183874990Y-73450380D01*
X183827371Y-73640857D01*
X183779752Y-73736095D01*
X183732133Y-73783714D01*
X183636895Y-73831333D01*
X183541657Y-73831333D01*
X183446419Y-73783714D01*
X183398800Y-73736095D01*
X183351180Y-73640857D01*
X183351180Y-73402761D01*
X183398800Y-73259904D01*
X184351180Y-72831333D02*
X183351180Y-72831333D01*
X183827371Y-72831333D02*
X183827371Y-72259904D01*
X184351180Y-72259904D02*
X183351180Y-72259904D01*
X180842180Y-131557685D02*
X180842180Y-132129114D01*
X180842180Y-131843400D02*
X179842180Y-131843400D01*
X179985038Y-131938638D01*
X180080276Y-132033876D01*
X180127895Y-132129114D01*
X180842180Y-131129114D02*
X179842180Y-131129114D01*
X180842180Y-130557685D02*
X180270752Y-130986257D01*
X179842180Y-130557685D02*
X180413609Y-131129114D01*
D14*
X178965990Y-131426733D02*
X178727895Y-131593400D01*
X178965990Y-131712447D02*
X178465990Y-131712447D01*
X178465990Y-131521971D01*
X178489800Y-131474352D01*
X178513609Y-131450542D01*
X178561228Y-131426733D01*
X178632657Y-131426733D01*
X178680276Y-131450542D01*
X178704085Y-131474352D01*
X178727895Y-131521971D01*
X178727895Y-131712447D01*
X178965990Y-131188638D02*
X178965990Y-131093400D01*
X178942180Y-131045780D01*
X178918371Y-131021971D01*
X178846942Y-130974352D01*
X178751704Y-130950542D01*
X178561228Y-130950542D01*
X178513609Y-130974352D01*
X178489800Y-130998161D01*
X178465990Y-131045780D01*
X178465990Y-131141019D01*
X178489800Y-131188638D01*
X178513609Y-131212447D01*
X178561228Y-131236257D01*
X178680276Y-131236257D01*
X178727895Y-131212447D01*
X178751704Y-131188638D01*
X178775514Y-131141019D01*
X178775514Y-131045780D01*
X178751704Y-130998161D01*
X178727895Y-130974352D01*
X178680276Y-130950542D01*
D11*
X153715542Y-70362495D02*
X153763161Y-70410114D01*
X153810780Y-70552971D01*
X153810780Y-70648209D01*
X153763161Y-70791066D01*
X153667923Y-70886304D01*
X153572685Y-70933923D01*
X153382209Y-70981542D01*
X153239352Y-70981542D01*
X153048876Y-70933923D01*
X152953638Y-70886304D01*
X152858400Y-70791066D01*
X152810780Y-70648209D01*
X152810780Y-70552971D01*
X152858400Y-70410114D01*
X152906019Y-70362495D01*
X153810780Y-69791066D02*
X153763161Y-69886304D01*
X153715542Y-69933923D01*
X153620304Y-69981542D01*
X153334590Y-69981542D01*
X153239352Y-69933923D01*
X153191733Y-69886304D01*
X153144114Y-69791066D01*
X153144114Y-69648209D01*
X153191733Y-69552971D01*
X153239352Y-69505352D01*
X153334590Y-69457733D01*
X153620304Y-69457733D01*
X153715542Y-69505352D01*
X153763161Y-69552971D01*
X153810780Y-69648209D01*
X153810780Y-69791066D01*
X153144114Y-69029161D02*
X153810780Y-69029161D01*
X153239352Y-69029161D02*
X153191733Y-68981542D01*
X153144114Y-68886304D01*
X153144114Y-68743447D01*
X153191733Y-68648209D01*
X153286971Y-68600590D01*
X153810780Y-68600590D01*
X153144114Y-68124400D02*
X153810780Y-68124400D01*
X153239352Y-68124400D02*
X153191733Y-68076780D01*
X153144114Y-67981542D01*
X153144114Y-67838685D01*
X153191733Y-67743447D01*
X153286971Y-67695828D01*
X153810780Y-67695828D01*
X153906019Y-67457733D02*
X153906019Y-66695828D01*
X152810780Y-66267257D02*
X152810780Y-66172019D01*
X152858400Y-66076780D01*
X152906019Y-66029161D01*
X153001257Y-65981542D01*
X153191733Y-65933923D01*
X153429828Y-65933923D01*
X153620304Y-65981542D01*
X153715542Y-66029161D01*
X153763161Y-66076780D01*
X153810780Y-66172019D01*
X153810780Y-66267257D01*
X153763161Y-66362495D01*
X153715542Y-66410114D01*
X153620304Y-66457733D01*
X153429828Y-66505352D01*
X153191733Y-66505352D01*
X153001257Y-66457733D01*
X152906019Y-66410114D01*
X152858400Y-66362495D01*
X152810780Y-66267257D01*
X153810780Y-64981542D02*
X153810780Y-65552971D01*
X153810780Y-65267257D02*
X152810780Y-65267257D01*
X152953638Y-65362495D01*
X153048876Y-65457733D01*
X153096495Y-65552971D01*
X153810780Y-64648209D02*
X153144114Y-64124400D01*
X153144114Y-64648209D02*
X153810780Y-64124400D01*
X152810780Y-63552971D02*
X152810780Y-63457733D01*
X152858400Y-63362495D01*
X152906019Y-63314876D01*
X153001257Y-63267257D01*
X153191733Y-63219638D01*
X153429828Y-63219638D01*
X153620304Y-63267257D01*
X153715542Y-63314876D01*
X153763161Y-63362495D01*
X153810780Y-63457733D01*
X153810780Y-63552971D01*
X153763161Y-63648209D01*
X153715542Y-63695828D01*
X153620304Y-63743447D01*
X153429828Y-63791066D01*
X153191733Y-63791066D01*
X153001257Y-63743447D01*
X152906019Y-63695828D01*
X152858400Y-63648209D01*
X152810780Y-63552971D01*
X153144114Y-62362495D02*
X153810780Y-62362495D01*
X152763161Y-62600590D02*
X153477447Y-62838685D01*
X153477447Y-62219638D01*
X146480304Y-67076780D02*
X146480304Y-66076780D01*
X146861257Y-66076780D01*
X146956495Y-66124400D01*
X147004114Y-66172019D01*
X147051733Y-66267257D01*
X147051733Y-66410114D01*
X147004114Y-66505352D01*
X146956495Y-66552971D01*
X146861257Y-66600590D01*
X146480304Y-66600590D01*
X147385066Y-66076780D02*
X148051733Y-66076780D01*
X147623161Y-67076780D01*
X176894409Y-135897380D02*
X176894409Y-134897380D01*
X177227742Y-135611666D01*
X177561076Y-134897380D01*
X177561076Y-135897380D01*
X178180123Y-135897380D02*
X178084885Y-135849761D01*
X178037266Y-135802142D01*
X177989647Y-135706904D01*
X177989647Y-135421190D01*
X178037266Y-135325952D01*
X178084885Y-135278333D01*
X178180123Y-135230714D01*
X178322980Y-135230714D01*
X178418219Y-135278333D01*
X178465838Y-135325952D01*
X178513457Y-135421190D01*
X178513457Y-135706904D01*
X178465838Y-135802142D01*
X178418219Y-135849761D01*
X178322980Y-135897380D01*
X178180123Y-135897380D01*
X179370600Y-135230714D02*
X179370600Y-135897380D01*
X178942028Y-135230714D02*
X178942028Y-135754523D01*
X178989647Y-135849761D01*
X179084885Y-135897380D01*
X179227742Y-135897380D01*
X179322980Y-135849761D01*
X179370600Y-135802142D01*
X179846790Y-135230714D02*
X179846790Y-135897380D01*
X179846790Y-135325952D02*
X179894409Y-135278333D01*
X179989647Y-135230714D01*
X180132504Y-135230714D01*
X180227742Y-135278333D01*
X180275361Y-135373571D01*
X180275361Y-135897380D01*
X180608695Y-135230714D02*
X180989647Y-135230714D01*
X180751552Y-134897380D02*
X180751552Y-135754523D01*
X180799171Y-135849761D01*
X180894409Y-135897380D01*
X180989647Y-135897380D01*
X181322980Y-135897380D02*
X181322980Y-135230714D01*
X181322980Y-134897380D02*
X181275361Y-134945000D01*
X181322980Y-134992619D01*
X181370600Y-134945000D01*
X181322980Y-134897380D01*
X181322980Y-134992619D01*
X181799171Y-135230714D02*
X181799171Y-135897380D01*
X181799171Y-135325952D02*
X181846790Y-135278333D01*
X181942028Y-135230714D01*
X182084885Y-135230714D01*
X182180123Y-135278333D01*
X182227742Y-135373571D01*
X182227742Y-135897380D01*
X183132504Y-135230714D02*
X183132504Y-136040238D01*
X183084885Y-136135476D01*
X183037266Y-136183095D01*
X182942028Y-136230714D01*
X182799171Y-136230714D01*
X182703933Y-136183095D01*
X183132504Y-135849761D02*
X183037266Y-135897380D01*
X182846790Y-135897380D01*
X182751552Y-135849761D01*
X182703933Y-135802142D01*
X182656314Y-135706904D01*
X182656314Y-135421190D01*
X182703933Y-135325952D01*
X182751552Y-135278333D01*
X182846790Y-135230714D01*
X183037266Y-135230714D01*
X183132504Y-135278333D01*
X183608695Y-135897380D02*
X183608695Y-134897380D01*
X183608695Y-135373571D02*
X184180123Y-135373571D01*
X184180123Y-135897380D02*
X184180123Y-134897380D01*
X184799171Y-135897380D02*
X184703933Y-135849761D01*
X184656314Y-135802142D01*
X184608695Y-135706904D01*
X184608695Y-135421190D01*
X184656314Y-135325952D01*
X184703933Y-135278333D01*
X184799171Y-135230714D01*
X184942028Y-135230714D01*
X185037266Y-135278333D01*
X185084885Y-135325952D01*
X185132504Y-135421190D01*
X185132504Y-135706904D01*
X185084885Y-135802142D01*
X185037266Y-135849761D01*
X184942028Y-135897380D01*
X184799171Y-135897380D01*
X185703933Y-135897380D02*
X185608695Y-135849761D01*
X185561076Y-135754523D01*
X185561076Y-134897380D01*
X186465838Y-135849761D02*
X186370600Y-135897380D01*
X186180123Y-135897380D01*
X186084885Y-135849761D01*
X186037266Y-135754523D01*
X186037266Y-135373571D01*
X186084885Y-135278333D01*
X186180123Y-135230714D01*
X186370600Y-135230714D01*
X186465838Y-135278333D01*
X186513457Y-135373571D01*
X186513457Y-135468809D01*
X186037266Y-135564047D01*
X186703933Y-135992619D02*
X187465838Y-135992619D01*
X187608695Y-134897380D02*
X188227742Y-134897380D01*
X187894409Y-135278333D01*
X188037266Y-135278333D01*
X188132504Y-135325952D01*
X188180123Y-135373571D01*
X188227742Y-135468809D01*
X188227742Y-135706904D01*
X188180123Y-135802142D01*
X188132504Y-135849761D01*
X188037266Y-135897380D01*
X187751552Y-135897380D01*
X187656314Y-135849761D01*
X187608695Y-135802142D01*
X188656314Y-135897380D02*
X188656314Y-135230714D01*
X188656314Y-135325952D02*
X188703933Y-135278333D01*
X188799171Y-135230714D01*
X188942028Y-135230714D01*
X189037266Y-135278333D01*
X189084885Y-135373571D01*
X189084885Y-135897380D01*
X189084885Y-135373571D02*
X189132504Y-135278333D01*
X189227742Y-135230714D01*
X189370600Y-135230714D01*
X189465838Y-135278333D01*
X189513457Y-135373571D01*
X189513457Y-135897380D01*
X189989647Y-135897380D02*
X189989647Y-135230714D01*
X189989647Y-135325952D02*
X190037266Y-135278333D01*
X190132504Y-135230714D01*
X190275361Y-135230714D01*
X190370600Y-135278333D01*
X190418219Y-135373571D01*
X190418219Y-135897380D01*
X190418219Y-135373571D02*
X190465838Y-135278333D01*
X190561076Y-135230714D01*
X190703933Y-135230714D01*
X190799171Y-135278333D01*
X190846790Y-135373571D01*
X190846790Y-135897380D01*
X182837266Y-131897380D02*
X182503933Y-131421190D01*
X182265838Y-131897380D02*
X182265838Y-130897380D01*
X182646790Y-130897380D01*
X182742028Y-130945000D01*
X182789647Y-130992619D01*
X182837266Y-131087857D01*
X182837266Y-131230714D01*
X182789647Y-131325952D01*
X182742028Y-131373571D01*
X182646790Y-131421190D01*
X182265838Y-131421190D01*
X183265838Y-131373571D02*
X183599171Y-131373571D01*
X183742028Y-131897380D02*
X183265838Y-131897380D01*
X183265838Y-130897380D01*
X183742028Y-130897380D01*
X184503933Y-131373571D02*
X184170600Y-131373571D01*
X184170600Y-131897380D02*
X184170600Y-130897380D01*
X184646790Y-130897380D01*
X185170600Y-130897380D02*
X185170600Y-131135476D01*
X184932504Y-131040238D02*
X185170600Y-131135476D01*
X185408695Y-131040238D01*
X185027742Y-131325952D02*
X185170600Y-131135476D01*
X185313457Y-131325952D01*
X185932504Y-130897380D02*
X185932504Y-131135476D01*
X185694409Y-131040238D02*
X185932504Y-131135476D01*
X186170600Y-131040238D01*
X185789647Y-131325952D02*
X185932504Y-131135476D01*
X186075361Y-131325952D01*
X126424609Y-136202180D02*
X126424609Y-135202180D01*
X126757942Y-135916466D01*
X127091276Y-135202180D01*
X127091276Y-136202180D01*
X127710323Y-136202180D02*
X127615085Y-136154561D01*
X127567466Y-136106942D01*
X127519847Y-136011704D01*
X127519847Y-135725990D01*
X127567466Y-135630752D01*
X127615085Y-135583133D01*
X127710323Y-135535514D01*
X127853180Y-135535514D01*
X127948419Y-135583133D01*
X127996038Y-135630752D01*
X128043657Y-135725990D01*
X128043657Y-136011704D01*
X127996038Y-136106942D01*
X127948419Y-136154561D01*
X127853180Y-136202180D01*
X127710323Y-136202180D01*
X128900800Y-135535514D02*
X128900800Y-136202180D01*
X128472228Y-135535514D02*
X128472228Y-136059323D01*
X128519847Y-136154561D01*
X128615085Y-136202180D01*
X128757942Y-136202180D01*
X128853180Y-136154561D01*
X128900800Y-136106942D01*
X129376990Y-135535514D02*
X129376990Y-136202180D01*
X129376990Y-135630752D02*
X129424609Y-135583133D01*
X129519847Y-135535514D01*
X129662704Y-135535514D01*
X129757942Y-135583133D01*
X129805561Y-135678371D01*
X129805561Y-136202180D01*
X130138895Y-135535514D02*
X130519847Y-135535514D01*
X130281752Y-135202180D02*
X130281752Y-136059323D01*
X130329371Y-136154561D01*
X130424609Y-136202180D01*
X130519847Y-136202180D01*
X130853180Y-136202180D02*
X130853180Y-135535514D01*
X130853180Y-135202180D02*
X130805561Y-135249800D01*
X130853180Y-135297419D01*
X130900800Y-135249800D01*
X130853180Y-135202180D01*
X130853180Y-135297419D01*
X131329371Y-135535514D02*
X131329371Y-136202180D01*
X131329371Y-135630752D02*
X131376990Y-135583133D01*
X131472228Y-135535514D01*
X131615085Y-135535514D01*
X131710323Y-135583133D01*
X131757942Y-135678371D01*
X131757942Y-136202180D01*
X132662704Y-135535514D02*
X132662704Y-136345038D01*
X132615085Y-136440276D01*
X132567466Y-136487895D01*
X132472228Y-136535514D01*
X132329371Y-136535514D01*
X132234133Y-136487895D01*
X132662704Y-136154561D02*
X132567466Y-136202180D01*
X132376990Y-136202180D01*
X132281752Y-136154561D01*
X132234133Y-136106942D01*
X132186514Y-136011704D01*
X132186514Y-135725990D01*
X132234133Y-135630752D01*
X132281752Y-135583133D01*
X132376990Y-135535514D01*
X132567466Y-135535514D01*
X132662704Y-135583133D01*
X133138895Y-136202180D02*
X133138895Y-135202180D01*
X133138895Y-135678371D02*
X133710323Y-135678371D01*
X133710323Y-136202180D02*
X133710323Y-135202180D01*
X134329371Y-136202180D02*
X134234133Y-136154561D01*
X134186514Y-136106942D01*
X134138895Y-136011704D01*
X134138895Y-135725990D01*
X134186514Y-135630752D01*
X134234133Y-135583133D01*
X134329371Y-135535514D01*
X134472228Y-135535514D01*
X134567466Y-135583133D01*
X134615085Y-135630752D01*
X134662704Y-135725990D01*
X134662704Y-136011704D01*
X134615085Y-136106942D01*
X134567466Y-136154561D01*
X134472228Y-136202180D01*
X134329371Y-136202180D01*
X135234133Y-136202180D02*
X135138895Y-136154561D01*
X135091276Y-136059323D01*
X135091276Y-135202180D01*
X135996038Y-136154561D02*
X135900800Y-136202180D01*
X135710323Y-136202180D01*
X135615085Y-136154561D01*
X135567466Y-136059323D01*
X135567466Y-135678371D01*
X135615085Y-135583133D01*
X135710323Y-135535514D01*
X135900800Y-135535514D01*
X135996038Y-135583133D01*
X136043657Y-135678371D01*
X136043657Y-135773609D01*
X135567466Y-135868847D01*
X136234133Y-136297419D02*
X136996038Y-136297419D01*
X137138895Y-135202180D02*
X137757942Y-135202180D01*
X137424609Y-135583133D01*
X137567466Y-135583133D01*
X137662704Y-135630752D01*
X137710323Y-135678371D01*
X137757942Y-135773609D01*
X137757942Y-136011704D01*
X137710323Y-136106942D01*
X137662704Y-136154561D01*
X137567466Y-136202180D01*
X137281752Y-136202180D01*
X137186514Y-136154561D01*
X137138895Y-136106942D01*
X138186514Y-136202180D02*
X138186514Y-135535514D01*
X138186514Y-135630752D02*
X138234133Y-135583133D01*
X138329371Y-135535514D01*
X138472228Y-135535514D01*
X138567466Y-135583133D01*
X138615085Y-135678371D01*
X138615085Y-136202180D01*
X138615085Y-135678371D02*
X138662704Y-135583133D01*
X138757942Y-135535514D01*
X138900800Y-135535514D01*
X138996038Y-135583133D01*
X139043657Y-135678371D01*
X139043657Y-136202180D01*
X139519847Y-136202180D02*
X139519847Y-135535514D01*
X139519847Y-135630752D02*
X139567466Y-135583133D01*
X139662704Y-135535514D01*
X139805561Y-135535514D01*
X139900800Y-135583133D01*
X139948419Y-135678371D01*
X139948419Y-136202180D01*
X139948419Y-135678371D02*
X139996038Y-135583133D01*
X140091276Y-135535514D01*
X140234133Y-135535514D01*
X140329371Y-135583133D01*
X140376990Y-135678371D01*
X140376990Y-136202180D01*
X132367466Y-132202180D02*
X132034133Y-131725990D01*
X131796038Y-132202180D02*
X131796038Y-131202180D01*
X132176990Y-131202180D01*
X132272228Y-131249800D01*
X132319847Y-131297419D01*
X132367466Y-131392657D01*
X132367466Y-131535514D01*
X132319847Y-131630752D01*
X132272228Y-131678371D01*
X132176990Y-131725990D01*
X131796038Y-131725990D01*
X132796038Y-131678371D02*
X133129371Y-131678371D01*
X133272228Y-132202180D02*
X132796038Y-132202180D01*
X132796038Y-131202180D01*
X133272228Y-131202180D01*
X134034133Y-131678371D02*
X133700800Y-131678371D01*
X133700800Y-132202180D02*
X133700800Y-131202180D01*
X134176990Y-131202180D01*
X134700800Y-131202180D02*
X134700800Y-131440276D01*
X134462704Y-131345038D02*
X134700800Y-131440276D01*
X134938895Y-131345038D01*
X134557942Y-131630752D02*
X134700800Y-131440276D01*
X134843657Y-131630752D01*
X135462704Y-131202180D02*
X135462704Y-131440276D01*
X135224609Y-131345038D02*
X135462704Y-131440276D01*
X135700800Y-131345038D01*
X135319847Y-131630752D02*
X135462704Y-131440276D01*
X135605561Y-131630752D01*
X170286657Y-87470180D02*
X170286657Y-86470180D01*
X170762847Y-87470180D02*
X170762847Y-86470180D01*
X171143800Y-86470180D01*
X171239038Y-86517800D01*
X171286657Y-86565419D01*
X171334276Y-86660657D01*
X171334276Y-86803514D01*
X171286657Y-86898752D01*
X171239038Y-86946371D01*
X171143800Y-86993990D01*
X170762847Y-86993990D01*
X171715228Y-87422561D02*
X171858085Y-87470180D01*
X172096180Y-87470180D01*
X172191419Y-87422561D01*
X172239038Y-87374942D01*
X172286657Y-87279704D01*
X172286657Y-87184466D01*
X172239038Y-87089228D01*
X172191419Y-87041609D01*
X172096180Y-86993990D01*
X171905704Y-86946371D01*
X171810466Y-86898752D01*
X171762847Y-86851133D01*
X171715228Y-86755895D01*
X171715228Y-86660657D01*
X171762847Y-86565419D01*
X171810466Y-86517800D01*
X171905704Y-86470180D01*
X172143800Y-86470180D01*
X172286657Y-86517800D01*
X172477133Y-87565419D02*
X173239038Y-87565419D01*
X173429514Y-87422561D02*
X173572371Y-87470180D01*
X173810466Y-87470180D01*
X173905704Y-87422561D01*
X173953323Y-87374942D01*
X174000942Y-87279704D01*
X174000942Y-87184466D01*
X173953323Y-87089228D01*
X173905704Y-87041609D01*
X173810466Y-86993990D01*
X173619990Y-86946371D01*
X173524752Y-86898752D01*
X173477133Y-86851133D01*
X173429514Y-86755895D01*
X173429514Y-86660657D01*
X173477133Y-86565419D01*
X173524752Y-86517800D01*
X173619990Y-86470180D01*
X173858085Y-86470180D01*
X174000942Y-86517800D01*
X174334276Y-86803514D02*
X174524752Y-87470180D01*
X174715228Y-86993990D01*
X174905704Y-87470180D01*
X175096180Y-86803514D01*
X171381895Y-83070180D02*
X171953323Y-83070180D01*
X171667609Y-84070180D02*
X171667609Y-83070180D01*
X172286657Y-84070180D02*
X172286657Y-83070180D01*
X172667609Y-83070180D01*
X172762847Y-83117800D01*
X172810466Y-83165419D01*
X172858085Y-83260657D01*
X172858085Y-83403514D01*
X172810466Y-83498752D01*
X172762847Y-83546371D01*
X172667609Y-83593990D01*
X172286657Y-83593990D01*
X173715228Y-83070180D02*
X173524752Y-83070180D01*
X173429514Y-83117800D01*
X173381895Y-83165419D01*
X173286657Y-83308276D01*
X173239038Y-83498752D01*
X173239038Y-83879704D01*
X173286657Y-83974942D01*
X173334276Y-84022561D01*
X173429514Y-84070180D01*
X173619990Y-84070180D01*
X173715228Y-84022561D01*
X173762847Y-83974942D01*
X173810466Y-83879704D01*
X173810466Y-83641609D01*
X173762847Y-83546371D01*
X173715228Y-83498752D01*
X173619990Y-83451133D01*
X173429514Y-83451133D01*
X173334276Y-83498752D01*
X173286657Y-83546371D01*
X173239038Y-83641609D01*
X175905980Y-66560628D02*
X175429790Y-66893961D01*
X175905980Y-67132057D02*
X174905980Y-67132057D01*
X174905980Y-66751104D01*
X174953600Y-66655866D01*
X175001219Y-66608247D01*
X175096457Y-66560628D01*
X175239314Y-66560628D01*
X175334552Y-66608247D01*
X175382171Y-66655866D01*
X175429790Y-66751104D01*
X175429790Y-67132057D01*
X175858361Y-65751104D02*
X175905980Y-65846342D01*
X175905980Y-66036819D01*
X175858361Y-66132057D01*
X175763123Y-66179676D01*
X175382171Y-66179676D01*
X175286933Y-66132057D01*
X175239314Y-66036819D01*
X175239314Y-65846342D01*
X175286933Y-65751104D01*
X175382171Y-65703485D01*
X175477409Y-65703485D01*
X175572647Y-66179676D01*
X175905980Y-64846342D02*
X174905980Y-64846342D01*
X175858361Y-64846342D02*
X175905980Y-64941580D01*
X175905980Y-65132057D01*
X175858361Y-65227295D01*
X175810742Y-65274914D01*
X175715504Y-65322533D01*
X175429790Y-65322533D01*
X175334552Y-65274914D01*
X175286933Y-65227295D01*
X175239314Y-65132057D01*
X175239314Y-64941580D01*
X175286933Y-64846342D01*
D15*
X177064552Y-66436819D02*
X177064552Y-66627295D01*
X176664552Y-66627295D01*
X176855028Y-66303485D02*
X176855028Y-66170152D01*
X177064552Y-66113009D02*
X177064552Y-66303485D01*
X176664552Y-66303485D01*
X176664552Y-66113009D01*
X177064552Y-65941580D02*
X176664552Y-65941580D01*
X176664552Y-65846342D01*
X176683600Y-65789200D01*
X176721695Y-65751104D01*
X176759790Y-65732057D01*
X176835980Y-65713009D01*
X176893123Y-65713009D01*
X176969314Y-65732057D01*
X177007409Y-65751104D01*
X177045504Y-65789200D01*
X177064552Y-65846342D01*
X177064552Y-65941580D01*
X177064552Y-65332057D02*
X177064552Y-65560628D01*
X177064552Y-65446342D02*
X176664552Y-65446342D01*
X176721695Y-65484438D01*
X176759790Y-65522533D01*
X176778838Y-65560628D01*
D11*
X173181866Y-68084438D02*
X173181866Y-67608247D01*
X173467580Y-68179676D02*
X172467580Y-67846342D01*
X173467580Y-67513009D01*
X173467580Y-67179676D02*
X172800914Y-67179676D01*
X172896152Y-67179676D02*
X172848533Y-67132057D01*
X172800914Y-67036819D01*
X172800914Y-66893961D01*
X172848533Y-66798723D01*
X172943771Y-66751104D01*
X173467580Y-66751104D01*
X172943771Y-66751104D02*
X172848533Y-66703485D01*
X172800914Y-66608247D01*
X172800914Y-66465390D01*
X172848533Y-66370152D01*
X172943771Y-66322533D01*
X173467580Y-66322533D01*
X173467580Y-65846342D02*
X172467580Y-65846342D01*
X172848533Y-65846342D02*
X172800914Y-65751104D01*
X172800914Y-65560628D01*
X172848533Y-65465390D01*
X172896152Y-65417771D01*
X172991390Y-65370152D01*
X173277104Y-65370152D01*
X173372342Y-65417771D01*
X173419961Y-65465390D01*
X173467580Y-65560628D01*
X173467580Y-65751104D01*
X173419961Y-65846342D01*
X173419961Y-64560628D02*
X173467580Y-64655866D01*
X173467580Y-64846342D01*
X173419961Y-64941580D01*
X173324723Y-64989200D01*
X172943771Y-64989200D01*
X172848533Y-64941580D01*
X172800914Y-64846342D01*
X172800914Y-64655866D01*
X172848533Y-64560628D01*
X172943771Y-64513009D01*
X173039009Y-64513009D01*
X173134247Y-64989200D01*
X173467580Y-64084438D02*
X172800914Y-64084438D01*
X172991390Y-64084438D02*
X172896152Y-64036819D01*
X172848533Y-63989200D01*
X172800914Y-63893961D01*
X172800914Y-63798723D01*
D15*
X174626152Y-66436819D02*
X174626152Y-66627295D01*
X174226152Y-66627295D01*
X174416628Y-66303485D02*
X174416628Y-66170152D01*
X174626152Y-66113009D02*
X174626152Y-66303485D01*
X174226152Y-66303485D01*
X174226152Y-66113009D01*
X174626152Y-65941580D02*
X174226152Y-65941580D01*
X174226152Y-65846342D01*
X174245200Y-65789200D01*
X174283295Y-65751104D01*
X174321390Y-65732057D01*
X174397580Y-65713009D01*
X174454723Y-65713009D01*
X174530914Y-65732057D01*
X174569009Y-65751104D01*
X174607104Y-65789200D01*
X174626152Y-65846342D01*
X174626152Y-65941580D01*
X174264247Y-65560628D02*
X174245200Y-65541580D01*
X174226152Y-65503485D01*
X174226152Y-65408247D01*
X174245200Y-65370152D01*
X174264247Y-65351104D01*
X174302342Y-65332057D01*
X174340438Y-65332057D01*
X174397580Y-65351104D01*
X174626152Y-65579676D01*
X174626152Y-65332057D01*
D11*
X170076800Y-67346342D02*
X170029180Y-67441580D01*
X170029180Y-67584438D01*
X170076800Y-67727295D01*
X170172038Y-67822533D01*
X170267276Y-67870152D01*
X170457752Y-67917771D01*
X170600609Y-67917771D01*
X170791085Y-67870152D01*
X170886323Y-67822533D01*
X170981561Y-67727295D01*
X171029180Y-67584438D01*
X171029180Y-67489200D01*
X170981561Y-67346342D01*
X170933942Y-67298723D01*
X170600609Y-67298723D01*
X170600609Y-67489200D01*
X171029180Y-66870152D02*
X170362514Y-66870152D01*
X170552990Y-66870152D02*
X170457752Y-66822533D01*
X170410133Y-66774914D01*
X170362514Y-66679676D01*
X170362514Y-66584438D01*
X170981561Y-65870152D02*
X171029180Y-65965390D01*
X171029180Y-66155866D01*
X170981561Y-66251104D01*
X170886323Y-66298723D01*
X170505371Y-66298723D01*
X170410133Y-66251104D01*
X170362514Y-66155866D01*
X170362514Y-65965390D01*
X170410133Y-65870152D01*
X170505371Y-65822533D01*
X170600609Y-65822533D01*
X170695847Y-66298723D01*
X170981561Y-65013009D02*
X171029180Y-65108247D01*
X171029180Y-65298723D01*
X170981561Y-65393961D01*
X170886323Y-65441580D01*
X170505371Y-65441580D01*
X170410133Y-65393961D01*
X170362514Y-65298723D01*
X170362514Y-65108247D01*
X170410133Y-65013009D01*
X170505371Y-64965390D01*
X170600609Y-64965390D01*
X170695847Y-65441580D01*
X170362514Y-64536819D02*
X171029180Y-64536819D01*
X170457752Y-64536819D02*
X170410133Y-64489200D01*
X170362514Y-64393961D01*
X170362514Y-64251104D01*
X170410133Y-64155866D01*
X170505371Y-64108247D01*
X171029180Y-64108247D01*
D15*
X172187752Y-66436819D02*
X172187752Y-66627295D01*
X171787752Y-66627295D01*
X171978228Y-66303485D02*
X171978228Y-66170152D01*
X172187752Y-66113009D02*
X172187752Y-66303485D01*
X171787752Y-66303485D01*
X171787752Y-66113009D01*
X172187752Y-65941580D02*
X171787752Y-65941580D01*
X171787752Y-65846342D01*
X171806800Y-65789200D01*
X171844895Y-65751104D01*
X171882990Y-65732057D01*
X171959180Y-65713009D01*
X172016323Y-65713009D01*
X172092514Y-65732057D01*
X172130609Y-65751104D01*
X172168704Y-65789200D01*
X172187752Y-65846342D01*
X172187752Y-65941580D01*
X171787752Y-65579676D02*
X171787752Y-65332057D01*
X171940133Y-65465390D01*
X171940133Y-65408247D01*
X171959180Y-65370152D01*
X171978228Y-65351104D01*
X172016323Y-65332057D01*
X172111561Y-65332057D01*
X172149657Y-65351104D01*
X172168704Y-65370152D01*
X172187752Y-65408247D01*
X172187752Y-65522533D01*
X172168704Y-65560628D01*
X172149657Y-65579676D01*
D11*
X145990414Y-69490580D02*
X145418985Y-69490580D01*
X145704700Y-69490580D02*
X145704700Y-68490580D01*
X145609461Y-68633438D01*
X145514223Y-68728676D01*
X145418985Y-68776295D01*
X146418985Y-69490580D02*
X146418985Y-68490580D01*
X146990414Y-69490580D02*
X146561842Y-68919152D01*
X146990414Y-68490580D02*
X146418985Y-69062009D01*
D14*
X145883271Y-70914390D02*
X145716604Y-70676295D01*
X145597557Y-70914390D02*
X145597557Y-70414390D01*
X145788033Y-70414390D01*
X145835652Y-70438200D01*
X145859461Y-70462009D01*
X145883271Y-70509628D01*
X145883271Y-70581057D01*
X145859461Y-70628676D01*
X145835652Y-70652485D01*
X145788033Y-70676295D01*
X145597557Y-70676295D01*
X146359461Y-70914390D02*
X146073747Y-70914390D01*
X146216604Y-70914390D02*
X146216604Y-70414390D01*
X146168985Y-70485819D01*
X146121366Y-70533438D01*
X146073747Y-70557247D01*
X146526128Y-70414390D02*
X146835652Y-70414390D01*
X146668985Y-70604866D01*
X146740414Y-70604866D01*
X146788033Y-70628676D01*
X146811842Y-70652485D01*
X146835652Y-70700104D01*
X146835652Y-70819152D01*
X146811842Y-70866771D01*
X146788033Y-70890580D01*
X146740414Y-70914390D01*
X146597557Y-70914390D01*
X146549938Y-70890580D01*
X146526128Y-70866771D01*
D11*
X134408680Y-87615685D02*
X134408680Y-88187114D01*
X134408680Y-87901400D02*
X133408680Y-87901400D01*
X133551538Y-87996638D01*
X133646776Y-88091876D01*
X133694395Y-88187114D01*
X134408680Y-87187114D02*
X133408680Y-87187114D01*
X134408680Y-86615685D02*
X133837252Y-87044257D01*
X133408680Y-86615685D02*
X133980109Y-87187114D01*
D14*
X132532490Y-87722828D02*
X132294395Y-87889495D01*
X132532490Y-88008542D02*
X132032490Y-88008542D01*
X132032490Y-87818066D01*
X132056300Y-87770447D01*
X132080109Y-87746638D01*
X132127728Y-87722828D01*
X132199157Y-87722828D01*
X132246776Y-87746638D01*
X132270585Y-87770447D01*
X132294395Y-87818066D01*
X132294395Y-88008542D01*
X132032490Y-87556161D02*
X132032490Y-87246638D01*
X132222966Y-87413304D01*
X132222966Y-87341876D01*
X132246776Y-87294257D01*
X132270585Y-87270447D01*
X132318204Y-87246638D01*
X132437252Y-87246638D01*
X132484871Y-87270447D01*
X132508680Y-87294257D01*
X132532490Y-87341876D01*
X132532490Y-87484733D01*
X132508680Y-87532352D01*
X132484871Y-87556161D01*
X132032490Y-86937114D02*
X132032490Y-86889495D01*
X132056300Y-86841876D01*
X132080109Y-86818066D01*
X132127728Y-86794257D01*
X132222966Y-86770447D01*
X132342014Y-86770447D01*
X132437252Y-86794257D01*
X132484871Y-86818066D01*
X132508680Y-86841876D01*
X132532490Y-86889495D01*
X132532490Y-86937114D01*
X132508680Y-86984733D01*
X132484871Y-87008542D01*
X132437252Y-87032352D01*
X132342014Y-87056161D01*
X132222966Y-87056161D01*
X132127728Y-87032352D01*
X132080109Y-87008542D01*
X132056300Y-86984733D01*
X132032490Y-86937114D01*
D11*
X139640633Y-72511180D02*
X139069204Y-72511180D01*
X139354919Y-72511180D02*
X139354919Y-71511180D01*
X139259680Y-71654038D01*
X139164442Y-71749276D01*
X139069204Y-71796895D01*
X140259680Y-71511180D02*
X140354919Y-71511180D01*
X140450157Y-71558800D01*
X140497776Y-71606419D01*
X140545395Y-71701657D01*
X140593014Y-71892133D01*
X140593014Y-72130228D01*
X140545395Y-72320704D01*
X140497776Y-72415942D01*
X140450157Y-72463561D01*
X140354919Y-72511180D01*
X140259680Y-72511180D01*
X140164442Y-72463561D01*
X140116823Y-72415942D01*
X140069204Y-72320704D01*
X140021585Y-72130228D01*
X140021585Y-71892133D01*
X140069204Y-71701657D01*
X140116823Y-71606419D01*
X140164442Y-71558800D01*
X140259680Y-71511180D01*
X141212061Y-71511180D02*
X141307300Y-71511180D01*
X141402538Y-71558800D01*
X141450157Y-71606419D01*
X141497776Y-71701657D01*
X141545395Y-71892133D01*
X141545395Y-72130228D01*
X141497776Y-72320704D01*
X141450157Y-72415942D01*
X141402538Y-72463561D01*
X141307300Y-72511180D01*
X141212061Y-72511180D01*
X141116823Y-72463561D01*
X141069204Y-72415942D01*
X141021585Y-72320704D01*
X140973966Y-72130228D01*
X140973966Y-71892133D01*
X141021585Y-71701657D01*
X141069204Y-71606419D01*
X141116823Y-71558800D01*
X141212061Y-71511180D01*
D14*
X139985871Y-70634990D02*
X139819204Y-70396895D01*
X139700157Y-70634990D02*
X139700157Y-70134990D01*
X139890633Y-70134990D01*
X139938252Y-70158800D01*
X139962061Y-70182609D01*
X139985871Y-70230228D01*
X139985871Y-70301657D01*
X139962061Y-70349276D01*
X139938252Y-70373085D01*
X139890633Y-70396895D01*
X139700157Y-70396895D01*
X140152538Y-70134990D02*
X140462061Y-70134990D01*
X140295395Y-70325466D01*
X140366823Y-70325466D01*
X140414442Y-70349276D01*
X140438252Y-70373085D01*
X140462061Y-70420704D01*
X140462061Y-70539752D01*
X140438252Y-70587371D01*
X140414442Y-70611180D01*
X140366823Y-70634990D01*
X140223966Y-70634990D01*
X140176347Y-70611180D01*
X140152538Y-70587371D01*
X140938252Y-70634990D02*
X140652538Y-70634990D01*
X140795395Y-70634990D02*
X140795395Y-70134990D01*
X140747776Y-70206419D01*
X140700157Y-70254038D01*
X140652538Y-70277847D01*
D11*
X146309480Y-77937380D02*
X146404719Y-77937380D01*
X146499957Y-77985000D01*
X146547576Y-78032619D01*
X146595195Y-78127857D01*
X146642814Y-78318333D01*
X146642814Y-78556428D01*
X146595195Y-78746904D01*
X146547576Y-78842142D01*
X146499957Y-78889761D01*
X146404719Y-78937380D01*
X146309480Y-78937380D01*
X146214242Y-78889761D01*
X146166623Y-78842142D01*
X146119004Y-78746904D01*
X146071385Y-78556428D01*
X146071385Y-78318333D01*
X146119004Y-78127857D01*
X146166623Y-78032619D01*
X146214242Y-77985000D01*
X146309480Y-77937380D01*
D14*
X146035671Y-77061190D02*
X145869004Y-76823095D01*
X145749957Y-77061190D02*
X145749957Y-76561190D01*
X145940433Y-76561190D01*
X145988052Y-76585000D01*
X146011861Y-76608809D01*
X146035671Y-76656428D01*
X146035671Y-76727857D01*
X146011861Y-76775476D01*
X145988052Y-76799285D01*
X145940433Y-76823095D01*
X145749957Y-76823095D01*
X146202338Y-76561190D02*
X146511861Y-76561190D01*
X146345195Y-76751666D01*
X146416623Y-76751666D01*
X146464242Y-76775476D01*
X146488052Y-76799285D01*
X146511861Y-76846904D01*
X146511861Y-76965952D01*
X146488052Y-77013571D01*
X146464242Y-77037380D01*
X146416623Y-77061190D01*
X146273766Y-77061190D01*
X146226147Y-77037380D01*
X146202338Y-77013571D01*
X146702338Y-76608809D02*
X146726147Y-76585000D01*
X146773766Y-76561190D01*
X146892814Y-76561190D01*
X146940433Y-76585000D01*
X146964242Y-76608809D01*
X146988052Y-76656428D01*
X146988052Y-76704047D01*
X146964242Y-76775476D01*
X146678528Y-77061190D01*
X146988052Y-77061190D01*
D11*
X132152380Y-95360166D02*
X132152380Y-95931595D01*
X132152380Y-95645880D02*
X131152380Y-95645880D01*
X131295238Y-95741119D01*
X131390476Y-95836357D01*
X131438095Y-95931595D01*
X131152380Y-94741119D02*
X131152380Y-94645880D01*
X131200000Y-94550642D01*
X131247619Y-94503023D01*
X131342857Y-94455404D01*
X131533333Y-94407785D01*
X131771428Y-94407785D01*
X131961904Y-94455404D01*
X132057142Y-94503023D01*
X132104761Y-94550642D01*
X132152380Y-94645880D01*
X132152380Y-94741119D01*
X132104761Y-94836357D01*
X132057142Y-94883976D01*
X131961904Y-94931595D01*
X131771428Y-94979214D01*
X131533333Y-94979214D01*
X131342857Y-94931595D01*
X131247619Y-94883976D01*
X131200000Y-94836357D01*
X131152380Y-94741119D01*
X131152380Y-93788738D02*
X131152380Y-93693500D01*
X131200000Y-93598261D01*
X131247619Y-93550642D01*
X131342857Y-93503023D01*
X131533333Y-93455404D01*
X131771428Y-93455404D01*
X131961904Y-93503023D01*
X132057142Y-93550642D01*
X132104761Y-93598261D01*
X132152380Y-93693500D01*
X132152380Y-93788738D01*
X132104761Y-93883976D01*
X132057142Y-93931595D01*
X131961904Y-93979214D01*
X131771428Y-94026833D01*
X131533333Y-94026833D01*
X131342857Y-93979214D01*
X131247619Y-93931595D01*
X131200000Y-93883976D01*
X131152380Y-93788738D01*
D14*
X133576190Y-95014928D02*
X133338095Y-95181595D01*
X133576190Y-95300642D02*
X133076190Y-95300642D01*
X133076190Y-95110166D01*
X133100000Y-95062547D01*
X133123809Y-95038738D01*
X133171428Y-95014928D01*
X133242857Y-95014928D01*
X133290476Y-95038738D01*
X133314285Y-95062547D01*
X133338095Y-95110166D01*
X133338095Y-95300642D01*
X133076190Y-94848261D02*
X133076190Y-94538738D01*
X133266666Y-94705404D01*
X133266666Y-94633976D01*
X133290476Y-94586357D01*
X133314285Y-94562547D01*
X133361904Y-94538738D01*
X133480952Y-94538738D01*
X133528571Y-94562547D01*
X133552380Y-94586357D01*
X133576190Y-94633976D01*
X133576190Y-94776833D01*
X133552380Y-94824452D01*
X133528571Y-94848261D01*
X133076190Y-94372071D02*
X133076190Y-94062547D01*
X133266666Y-94229214D01*
X133266666Y-94157785D01*
X133290476Y-94110166D01*
X133314285Y-94086357D01*
X133361904Y-94062547D01*
X133480952Y-94062547D01*
X133528571Y-94086357D01*
X133552380Y-94110166D01*
X133576190Y-94157785D01*
X133576190Y-94300642D01*
X133552380Y-94348261D01*
X133528571Y-94372071D01*
D11*
X130044180Y-95355566D02*
X130044180Y-95926995D01*
X130044180Y-95641280D02*
X129044180Y-95641280D01*
X129187038Y-95736519D01*
X129282276Y-95831757D01*
X129329895Y-95926995D01*
X129044180Y-94736519D02*
X129044180Y-94641280D01*
X129091800Y-94546042D01*
X129139419Y-94498423D01*
X129234657Y-94450804D01*
X129425133Y-94403185D01*
X129663228Y-94403185D01*
X129853704Y-94450804D01*
X129948942Y-94498423D01*
X129996561Y-94546042D01*
X130044180Y-94641280D01*
X130044180Y-94736519D01*
X129996561Y-94831757D01*
X129948942Y-94879376D01*
X129853704Y-94926995D01*
X129663228Y-94974614D01*
X129425133Y-94974614D01*
X129234657Y-94926995D01*
X129139419Y-94879376D01*
X129091800Y-94831757D01*
X129044180Y-94736519D01*
X129044180Y-93784138D02*
X129044180Y-93688900D01*
X129091800Y-93593661D01*
X129139419Y-93546042D01*
X129234657Y-93498423D01*
X129425133Y-93450804D01*
X129663228Y-93450804D01*
X129853704Y-93498423D01*
X129948942Y-93546042D01*
X129996561Y-93593661D01*
X130044180Y-93688900D01*
X130044180Y-93784138D01*
X129996561Y-93879376D01*
X129948942Y-93926995D01*
X129853704Y-93974614D01*
X129663228Y-94022233D01*
X129425133Y-94022233D01*
X129234657Y-93974614D01*
X129139419Y-93926995D01*
X129091800Y-93879376D01*
X129044180Y-93784138D01*
D14*
X131467990Y-95010328D02*
X131229895Y-95176995D01*
X131467990Y-95296042D02*
X130967990Y-95296042D01*
X130967990Y-95105566D01*
X130991800Y-95057947D01*
X131015609Y-95034138D01*
X131063228Y-95010328D01*
X131134657Y-95010328D01*
X131182276Y-95034138D01*
X131206085Y-95057947D01*
X131229895Y-95105566D01*
X131229895Y-95296042D01*
X130967990Y-94843661D02*
X130967990Y-94534138D01*
X131158466Y-94700804D01*
X131158466Y-94629376D01*
X131182276Y-94581757D01*
X131206085Y-94557947D01*
X131253704Y-94534138D01*
X131372752Y-94534138D01*
X131420371Y-94557947D01*
X131444180Y-94581757D01*
X131467990Y-94629376D01*
X131467990Y-94772233D01*
X131444180Y-94819852D01*
X131420371Y-94843661D01*
X131134657Y-94105566D02*
X131467990Y-94105566D01*
X130944180Y-94224614D02*
X131301323Y-94343661D01*
X131301323Y-94034138D01*
D11*
X168890080Y-67271380D02*
X168985319Y-67271380D01*
X169080557Y-67319000D01*
X169128176Y-67366619D01*
X169175795Y-67461857D01*
X169223414Y-67652333D01*
X169223414Y-67890428D01*
X169175795Y-68080904D01*
X169128176Y-68176142D01*
X169080557Y-68223761D01*
X168985319Y-68271380D01*
X168890080Y-68271380D01*
X168794842Y-68223761D01*
X168747223Y-68176142D01*
X168699604Y-68080904D01*
X168651985Y-67890428D01*
X168651985Y-67652333D01*
X168699604Y-67461857D01*
X168747223Y-67366619D01*
X168794842Y-67319000D01*
X168890080Y-67271380D01*
D14*
X168616271Y-69695190D02*
X168449604Y-69457095D01*
X168330557Y-69695190D02*
X168330557Y-69195190D01*
X168521033Y-69195190D01*
X168568652Y-69219000D01*
X168592461Y-69242809D01*
X168616271Y-69290428D01*
X168616271Y-69361857D01*
X168592461Y-69409476D01*
X168568652Y-69433285D01*
X168521033Y-69457095D01*
X168330557Y-69457095D01*
X168782938Y-69195190D02*
X169092461Y-69195190D01*
X168925795Y-69385666D01*
X168997223Y-69385666D01*
X169044842Y-69409476D01*
X169068652Y-69433285D01*
X169092461Y-69480904D01*
X169092461Y-69599952D01*
X169068652Y-69647571D01*
X169044842Y-69671380D01*
X168997223Y-69695190D01*
X168854366Y-69695190D01*
X168806747Y-69671380D01*
X168782938Y-69647571D01*
X169544842Y-69195190D02*
X169306747Y-69195190D01*
X169282938Y-69433285D01*
X169306747Y-69409476D01*
X169354366Y-69385666D01*
X169473414Y-69385666D01*
X169521033Y-69409476D01*
X169544842Y-69433285D01*
X169568652Y-69480904D01*
X169568652Y-69599952D01*
X169544842Y-69647571D01*
X169521033Y-69671380D01*
X169473414Y-69695190D01*
X169354366Y-69695190D01*
X169306747Y-69671380D01*
X169282938Y-69647571D01*
D11*
X175210080Y-67398380D02*
X175305319Y-67398380D01*
X175400557Y-67446000D01*
X175448176Y-67493619D01*
X175495795Y-67588857D01*
X175543414Y-67779333D01*
X175543414Y-68017428D01*
X175495795Y-68207904D01*
X175448176Y-68303142D01*
X175400557Y-68350761D01*
X175305319Y-68398380D01*
X175210080Y-68398380D01*
X175114842Y-68350761D01*
X175067223Y-68303142D01*
X175019604Y-68207904D01*
X174971985Y-68017428D01*
X174971985Y-67779333D01*
X175019604Y-67588857D01*
X175067223Y-67493619D01*
X175114842Y-67446000D01*
X175210080Y-67398380D01*
D14*
X174936271Y-69822190D02*
X174769604Y-69584095D01*
X174650557Y-69822190D02*
X174650557Y-69322190D01*
X174841033Y-69322190D01*
X174888652Y-69346000D01*
X174912461Y-69369809D01*
X174936271Y-69417428D01*
X174936271Y-69488857D01*
X174912461Y-69536476D01*
X174888652Y-69560285D01*
X174841033Y-69584095D01*
X174650557Y-69584095D01*
X175102938Y-69322190D02*
X175412461Y-69322190D01*
X175245795Y-69512666D01*
X175317223Y-69512666D01*
X175364842Y-69536476D01*
X175388652Y-69560285D01*
X175412461Y-69607904D01*
X175412461Y-69726952D01*
X175388652Y-69774571D01*
X175364842Y-69798380D01*
X175317223Y-69822190D01*
X175174366Y-69822190D01*
X175126747Y-69798380D01*
X175102938Y-69774571D01*
X175841033Y-69322190D02*
X175745795Y-69322190D01*
X175698176Y-69346000D01*
X175674366Y-69369809D01*
X175626747Y-69441238D01*
X175602938Y-69536476D01*
X175602938Y-69726952D01*
X175626747Y-69774571D01*
X175650557Y-69798380D01*
X175698176Y-69822190D01*
X175793414Y-69822190D01*
X175841033Y-69798380D01*
X175864842Y-69774571D01*
X175888652Y-69726952D01*
X175888652Y-69607904D01*
X175864842Y-69560285D01*
X175841033Y-69536476D01*
X175793414Y-69512666D01*
X175698176Y-69512666D01*
X175650557Y-69536476D01*
X175626747Y-69560285D01*
X175602938Y-69607904D01*
M02*
