G04 #@! TF.GenerationSoftware,KiCad,Pcbnew,(6.0.0-rc1-dev-1413-ga48e89956)*
G04 #@! TF.CreationDate,2019-10-25T09:50:34-06:00
G04 #@! TF.ProjectId,HAT_ver_5.1,4841545f-7665-4725-9f35-2e312e6b6963,5.1.1*
G04 #@! TF.SameCoordinates,Original*
G04 #@! TF.FileFunction,Copper,L2,Bot*
G04 #@! TF.FilePolarity,Positive*
%FSLAX46Y46*%
G04 Gerber Fmt 4.6, Leading zero omitted, Abs format (unit mm)*
G04 Created by KiCad (PCBNEW (6.0.0-rc1-dev-1413-ga48e89956)) date Friday, October 25, 2019 at 09:50:34 AM*
%MOMM*%
%LPD*%
G04 APERTURE LIST*
%ADD10C,0.350000*%
%ADD11C,1.524000*%
%ADD12C,3.000000*%
%ADD13R,0.400000X1.500000*%
%ADD14R,1.700000X1.700000*%
%ADD15O,1.700000X1.700000*%
%ADD16C,1.500000*%
%ADD17C,2.000000*%
%ADD18C,1.501140*%
%ADD19C,2.999740*%
%ADD20O,1.500000X0.850000*%
%ADD21C,0.100000*%
%ADD22C,0.850000*%
%ADD23O,0.950000X1.250000*%
%ADD24C,1.550000*%
%ADD25C,0.600000*%
%ADD26C,0.500000*%
%ADD27C,0.250000*%
%ADD28C,0.200000*%
%ADD29C,0.400000*%
%ADD30C,0.180000*%
%ADD31C,0.254000*%
G04 APERTURE END LIST*
D10*
X179755800Y-114308000D02*
X179755800Y-113308000D01*
D11*
X153203000Y-127428000D03*
X153203000Y-125428000D03*
X153203000Y-123428000D03*
X153203000Y-121428000D03*
X153203000Y-119428000D03*
X153203000Y-117428000D03*
X151203000Y-117428000D03*
X151203000Y-127428000D03*
X151203000Y-125428000D03*
X151203000Y-123428000D03*
X151203000Y-121428000D03*
X151203000Y-119428000D03*
D12*
X133908800Y-66614400D03*
D13*
X179755800Y-112808000D03*
X179755800Y-114808000D03*
D14*
X182321200Y-127422000D03*
D15*
X182321200Y-124882000D03*
X182321200Y-122342000D03*
X182321200Y-119802000D03*
X182321200Y-117262000D03*
X182321200Y-114722000D03*
X182321200Y-112182000D03*
X182321200Y-109642000D03*
D16*
X131724400Y-76384400D03*
X131724400Y-78384400D03*
X131724400Y-80384400D03*
D17*
X131724400Y-74284400D03*
X131724400Y-82484400D03*
D18*
X140792200Y-109880400D03*
X140792200Y-107340400D03*
X140792200Y-105308400D03*
X140792200Y-102768400D03*
D19*
X138125200Y-112928400D03*
X138125200Y-99212400D03*
D14*
X179781200Y-127422000D03*
D15*
X179781200Y-124882000D03*
X179781200Y-122342000D03*
X179781200Y-119802000D03*
X179781200Y-117262000D03*
D14*
X144729200Y-127422000D03*
D15*
X144729200Y-124882000D03*
X144729200Y-122342000D03*
X144729200Y-119802000D03*
X144729200Y-117262000D03*
D20*
X182880000Y-66822000D03*
D21*
G36*
X183438329Y-67648023D02*
G01*
X183458957Y-67651083D01*
X183479185Y-67656150D01*
X183498820Y-67663176D01*
X183517672Y-67672092D01*
X183535559Y-67682813D01*
X183552309Y-67695235D01*
X183567760Y-67709240D01*
X183581765Y-67724691D01*
X183594187Y-67741441D01*
X183604908Y-67759328D01*
X183613824Y-67778180D01*
X183620850Y-67797815D01*
X183625917Y-67818043D01*
X183628977Y-67838671D01*
X183630000Y-67859500D01*
X183630000Y-68284500D01*
X183628977Y-68305329D01*
X183625917Y-68325957D01*
X183620850Y-68346185D01*
X183613824Y-68365820D01*
X183604908Y-68384672D01*
X183594187Y-68402559D01*
X183581765Y-68419309D01*
X183567760Y-68434760D01*
X183552309Y-68448765D01*
X183535559Y-68461187D01*
X183517672Y-68471908D01*
X183498820Y-68480824D01*
X183479185Y-68487850D01*
X183458957Y-68492917D01*
X183438329Y-68495977D01*
X183417500Y-68497000D01*
X182342500Y-68497000D01*
X182321671Y-68495977D01*
X182301043Y-68492917D01*
X182280815Y-68487850D01*
X182261180Y-68480824D01*
X182242328Y-68471908D01*
X182224441Y-68461187D01*
X182207691Y-68448765D01*
X182192240Y-68434760D01*
X182178235Y-68419309D01*
X182165813Y-68402559D01*
X182155092Y-68384672D01*
X182146176Y-68365820D01*
X182139150Y-68346185D01*
X182134083Y-68325957D01*
X182131023Y-68305329D01*
X182130000Y-68284500D01*
X182130000Y-67859500D01*
X182131023Y-67838671D01*
X182134083Y-67818043D01*
X182139150Y-67797815D01*
X182146176Y-67778180D01*
X182155092Y-67759328D01*
X182165813Y-67741441D01*
X182178235Y-67724691D01*
X182192240Y-67709240D01*
X182207691Y-67695235D01*
X182224441Y-67682813D01*
X182242328Y-67672092D01*
X182261180Y-67663176D01*
X182280815Y-67656150D01*
X182301043Y-67651083D01*
X182321671Y-67648023D01*
X182342500Y-67647000D01*
X183417500Y-67647000D01*
X183438329Y-67648023D01*
X183438329Y-67648023D01*
G37*
D22*
X182880000Y-68072000D03*
D16*
X132105400Y-116713000D03*
X179705000Y-66294000D03*
X138938000Y-132207000D03*
X154279600Y-79476600D03*
X180060600Y-107086400D03*
D14*
X143408400Y-66624400D03*
D15*
X145948400Y-66624400D03*
X148488400Y-66624400D03*
X151028400Y-66624400D03*
D12*
X182524400Y-131267200D03*
X133908800Y-131267200D03*
D16*
X172643800Y-85267800D03*
D23*
X133967200Y-121613800D03*
X133967200Y-126613800D03*
D21*
G36*
X131692682Y-120115666D02*
G01*
X131730297Y-120121246D01*
X131767185Y-120130486D01*
X131802990Y-120143297D01*
X131837366Y-120159556D01*
X131869983Y-120179106D01*
X131900527Y-120201758D01*
X131928704Y-120227296D01*
X131954242Y-120255473D01*
X131976894Y-120286017D01*
X131996444Y-120318634D01*
X132012703Y-120353010D01*
X132025514Y-120388815D01*
X132034754Y-120425703D01*
X132040334Y-120463318D01*
X132042200Y-120501300D01*
X132042200Y-121376300D01*
X132040334Y-121414282D01*
X132034754Y-121451897D01*
X132025514Y-121488785D01*
X132012703Y-121524590D01*
X131996444Y-121558966D01*
X131976894Y-121591583D01*
X131954242Y-121622127D01*
X131928704Y-121650304D01*
X131900527Y-121675842D01*
X131869983Y-121698494D01*
X131837366Y-121718044D01*
X131802990Y-121734303D01*
X131767185Y-121747114D01*
X131730297Y-121756354D01*
X131692682Y-121761934D01*
X131654700Y-121763800D01*
X130879700Y-121763800D01*
X130841718Y-121761934D01*
X130804103Y-121756354D01*
X130767215Y-121747114D01*
X130731410Y-121734303D01*
X130697034Y-121718044D01*
X130664417Y-121698494D01*
X130633873Y-121675842D01*
X130605696Y-121650304D01*
X130580158Y-121622127D01*
X130557506Y-121591583D01*
X130537956Y-121558966D01*
X130521697Y-121524590D01*
X130508886Y-121488785D01*
X130499646Y-121451897D01*
X130494066Y-121414282D01*
X130492200Y-121376300D01*
X130492200Y-120501300D01*
X130494066Y-120463318D01*
X130499646Y-120425703D01*
X130508886Y-120388815D01*
X130521697Y-120353010D01*
X130537956Y-120318634D01*
X130557506Y-120286017D01*
X130580158Y-120255473D01*
X130605696Y-120227296D01*
X130633873Y-120201758D01*
X130664417Y-120179106D01*
X130697034Y-120159556D01*
X130731410Y-120143297D01*
X130767215Y-120130486D01*
X130804103Y-120121246D01*
X130841718Y-120115666D01*
X130879700Y-120113800D01*
X131654700Y-120113800D01*
X131692682Y-120115666D01*
X131692682Y-120115666D01*
G37*
D24*
X131267200Y-120938800D03*
D21*
G36*
X131692682Y-126465666D02*
G01*
X131730297Y-126471246D01*
X131767185Y-126480486D01*
X131802990Y-126493297D01*
X131837366Y-126509556D01*
X131869983Y-126529106D01*
X131900527Y-126551758D01*
X131928704Y-126577296D01*
X131954242Y-126605473D01*
X131976894Y-126636017D01*
X131996444Y-126668634D01*
X132012703Y-126703010D01*
X132025514Y-126738815D01*
X132034754Y-126775703D01*
X132040334Y-126813318D01*
X132042200Y-126851300D01*
X132042200Y-127726300D01*
X132040334Y-127764282D01*
X132034754Y-127801897D01*
X132025514Y-127838785D01*
X132012703Y-127874590D01*
X131996444Y-127908966D01*
X131976894Y-127941583D01*
X131954242Y-127972127D01*
X131928704Y-128000304D01*
X131900527Y-128025842D01*
X131869983Y-128048494D01*
X131837366Y-128068044D01*
X131802990Y-128084303D01*
X131767185Y-128097114D01*
X131730297Y-128106354D01*
X131692682Y-128111934D01*
X131654700Y-128113800D01*
X130879700Y-128113800D01*
X130841718Y-128111934D01*
X130804103Y-128106354D01*
X130767215Y-128097114D01*
X130731410Y-128084303D01*
X130697034Y-128068044D01*
X130664417Y-128048494D01*
X130633873Y-128025842D01*
X130605696Y-128000304D01*
X130580158Y-127972127D01*
X130557506Y-127941583D01*
X130537956Y-127908966D01*
X130521697Y-127874590D01*
X130508886Y-127838785D01*
X130499646Y-127801897D01*
X130494066Y-127764282D01*
X130492200Y-127726300D01*
X130492200Y-126851300D01*
X130494066Y-126813318D01*
X130499646Y-126775703D01*
X130508886Y-126738815D01*
X130521697Y-126703010D01*
X130537956Y-126668634D01*
X130557506Y-126636017D01*
X130580158Y-126605473D01*
X130605696Y-126577296D01*
X130633873Y-126551758D01*
X130664417Y-126529106D01*
X130697034Y-126509556D01*
X130731410Y-126493297D01*
X130767215Y-126480486D01*
X130804103Y-126471246D01*
X130841718Y-126465666D01*
X130879700Y-126463800D01*
X131654700Y-126463800D01*
X131692682Y-126465666D01*
X131692682Y-126465666D01*
G37*
D24*
X131267200Y-127288800D03*
D25*
X138531600Y-77216000D03*
X152654000Y-75133200D03*
X156362400Y-68661191D03*
X171983400Y-67995800D03*
X143916400Y-72898000D03*
X162407600Y-72898000D03*
X171907200Y-118160800D03*
X135206230Y-76055946D03*
X173228000Y-118160800D03*
X135839200Y-75336400D03*
X136474200Y-79527400D03*
X136169400Y-82276199D03*
X138480800Y-88087200D03*
X141469720Y-88117000D03*
X144811990Y-82148200D03*
X140004800Y-78740000D03*
X142341602Y-78740000D03*
X139242800Y-72542400D03*
X157606998Y-69977000D03*
X152146000Y-81127600D03*
X155219400Y-81102200D03*
X148412200Y-77343000D03*
X149047200Y-82443599D03*
X148844000Y-69977000D03*
X155194000Y-68021200D03*
X161010600Y-67995800D03*
X142671800Y-94742000D03*
X184861200Y-112090200D03*
X136194800Y-119176800D03*
X145592810Y-83159600D03*
X130911600Y-88900000D03*
X144311892Y-79197200D03*
X173786800Y-77317600D03*
X180949600Y-77317602D03*
X134574487Y-76722022D03*
X176546011Y-114816300D03*
X170942000Y-71323200D03*
X143306800Y-70612000D03*
X139293600Y-67106800D03*
X143739444Y-89731600D03*
X134772400Y-90551000D03*
X149606000Y-130454400D03*
X146964400Y-122732800D03*
X147726400Y-113233200D03*
X142177607Y-77153607D03*
X146431002Y-79730600D03*
X175209200Y-82042000D03*
X161594802Y-81955600D03*
X135890000Y-107391190D03*
X153263600Y-85598000D03*
X149428200Y-96291400D03*
X153822400Y-86309200D03*
X150037800Y-98475800D03*
X175666400Y-86055200D03*
X182727600Y-91694000D03*
X137718800Y-76758800D03*
X137718800Y-70561200D03*
X156311600Y-82905600D03*
X139665200Y-89001600D03*
X142189200Y-82151250D03*
X141122400Y-82151250D03*
X140108950Y-82151250D03*
X138996450Y-82151250D03*
X138996450Y-83263750D03*
X140108950Y-83263750D03*
X141221450Y-83263750D03*
X142333950Y-83261200D03*
X142333950Y-84277200D03*
X141221450Y-84376250D03*
X140108950Y-84277200D03*
X138996450Y-84376250D03*
X138996450Y-85488750D03*
X140050500Y-85547200D03*
X141221450Y-85488750D03*
X142240000Y-85488750D03*
X156159199Y-79705201D03*
X151714200Y-79806800D03*
X183311800Y-99999800D03*
X136037202Y-125369200D03*
X143916400Y-74777600D03*
X140665200Y-90525600D03*
X151714200Y-85140800D03*
X134924800Y-95961200D03*
X133324600Y-70713600D03*
X137490200Y-79425800D03*
X145389600Y-132842000D03*
X176580800Y-133070600D03*
X131953000Y-96901000D03*
X138506200Y-71272400D03*
X146304000Y-69367400D03*
X134936010Y-80772129D03*
X136497860Y-83047395D03*
X146322810Y-81381600D03*
X149809200Y-70582010D03*
X150037800Y-77800200D03*
X175641000Y-67284600D03*
X172343590Y-70582010D03*
X166268400Y-64465200D03*
X178333400Y-64414400D03*
X163423600Y-83896200D03*
X164642800Y-68148200D03*
X173355000Y-64389000D03*
X178257200Y-114731800D03*
D26*
X152229736Y-75133200D02*
X152654000Y-75133200D01*
X150760796Y-75133200D02*
X152229736Y-75133200D01*
X150303596Y-75590400D02*
X150760796Y-75133200D01*
X140157200Y-75590400D02*
X150303596Y-75590400D01*
X138531600Y-77216000D02*
X140157200Y-75590400D01*
D27*
X145866000Y-123478800D02*
X144729200Y-122342000D01*
X151279200Y-123478800D02*
X145866000Y-123478800D01*
X156362400Y-68661191D02*
X156662399Y-68961190D01*
X156662399Y-68961190D02*
X171018010Y-68961190D01*
X171018010Y-68961190D02*
X171683401Y-68295799D01*
X171683401Y-68295799D02*
X171983400Y-67995800D01*
D26*
X143916400Y-72898000D02*
X161290000Y-72898000D01*
X162407600Y-72898000D02*
X161290000Y-72898000D01*
D27*
X178562000Y-124815600D02*
X171907200Y-118160800D01*
X179714800Y-124815600D02*
X178562000Y-124815600D01*
X179781200Y-124882000D02*
X179714800Y-124815600D01*
X137723399Y-67762601D02*
X135206230Y-70279770D01*
X135183399Y-76033115D02*
X135206230Y-76055946D01*
X151028400Y-66700400D02*
X151028400Y-66065400D01*
X135206230Y-75175568D02*
X135183399Y-75198399D01*
X142729002Y-64820800D02*
X139787201Y-67762601D01*
X135183399Y-75198399D02*
X135183399Y-76033115D01*
X135206230Y-70279770D02*
X135206230Y-75175568D01*
X139787201Y-67762601D02*
X137723399Y-67762601D01*
X149783800Y-64820800D02*
X142729002Y-64820800D01*
X151028400Y-66065400D02*
X149783800Y-64820800D01*
X179740200Y-122301000D02*
X179781200Y-122342000D01*
X177368200Y-122301000D02*
X179740200Y-122301000D01*
X173228000Y-118160800D02*
X177368200Y-122301000D01*
X135839200Y-74912136D02*
X135839200Y-75336400D01*
X148488400Y-66700400D02*
X148488400Y-67335400D01*
X137617200Y-68681600D02*
X135839200Y-70459600D01*
X148488400Y-67335400D02*
X147142200Y-68681600D01*
X135839200Y-70459600D02*
X135839200Y-74912136D01*
X147142200Y-68681600D02*
X137617200Y-68681600D01*
X136469399Y-81976200D02*
X136169400Y-82276199D01*
X136474200Y-79527400D02*
X136474200Y-81971399D01*
X136474200Y-81971399D02*
X136469399Y-81976200D01*
X138480800Y-88087200D02*
X141439920Y-88087200D01*
X141439920Y-88087200D02*
X141469720Y-88117000D01*
X144830800Y-82346800D02*
X144830800Y-82167010D01*
X144830800Y-82167010D02*
X144811990Y-82148200D01*
X142544800Y-78689200D02*
X140226810Y-78689200D01*
X140226810Y-78689200D02*
X140157203Y-78758807D01*
X144811990Y-80956390D02*
X142544800Y-78689200D01*
X144811990Y-82148200D02*
X144811990Y-80956390D01*
D28*
X142322795Y-78758807D02*
X142341602Y-78740000D01*
D27*
X144811990Y-82572464D02*
X144811990Y-82148200D01*
X144811990Y-86683610D02*
X144811990Y-82572464D01*
X143378600Y-88117000D02*
X144811990Y-86683610D01*
X141469720Y-88117000D02*
X143378600Y-88117000D01*
X157182734Y-69977000D02*
X157606998Y-69977000D01*
X139242800Y-72542400D02*
X141808200Y-69977000D01*
D26*
X152146000Y-81127600D02*
X155194000Y-81127600D01*
X155194000Y-81127600D02*
X155219400Y-81102200D01*
D28*
X155219400Y-80416400D02*
X155219400Y-81102200D01*
X154279600Y-79476600D02*
X155219400Y-80416400D01*
D29*
X149047200Y-80010000D02*
X149047200Y-82443599D01*
X150952200Y-78105000D02*
X149047200Y-80010000D01*
X150952200Y-77317600D02*
X150952200Y-78105000D01*
X150368000Y-76733400D02*
X150952200Y-77317600D01*
X148412200Y-77343000D02*
X149021800Y-76733400D01*
X149021800Y-76733400D02*
X150368000Y-76733400D01*
D27*
X148844000Y-69977000D02*
X157182734Y-69977000D01*
X141808200Y-69977000D02*
X148844000Y-69977000D01*
X160985200Y-68021200D02*
X161010600Y-67995800D01*
X155194000Y-68021200D02*
X160985200Y-68021200D01*
X144729200Y-130962400D02*
X144729200Y-130759200D01*
X144729200Y-130759200D02*
X144729200Y-127422000D01*
X142671800Y-95166264D02*
X142671800Y-94742000D01*
X141853666Y-102768400D02*
X142671800Y-102768400D01*
X140792200Y-102768400D02*
X141853666Y-102768400D01*
X142671800Y-102768400D02*
X142671800Y-95166264D01*
X143205200Y-103301800D02*
X142671800Y-102768400D01*
X143629200Y-127422000D02*
X143205200Y-126998000D01*
X143205200Y-126998000D02*
X143205200Y-103301800D01*
X144729200Y-127422000D02*
X143629200Y-127422000D01*
D26*
X184861200Y-112090200D02*
X184861200Y-122138800D01*
X182458000Y-124882000D02*
X182321200Y-124882000D01*
X182321200Y-124678800D02*
X182321200Y-127422000D01*
X184861200Y-122138800D02*
X182321200Y-124678800D01*
D27*
X145643600Y-132181600D02*
X144729200Y-131267200D01*
X177947802Y-132160798D02*
X177230198Y-132160798D01*
X177209396Y-132181600D02*
X145643600Y-132181600D01*
X177230198Y-132160798D02*
X177209396Y-132181600D01*
X144729200Y-131267200D02*
X144729200Y-130759200D01*
X182321200Y-127787400D02*
X177947802Y-132160798D01*
X182321200Y-127422000D02*
X182321200Y-127787400D01*
D26*
X145592810Y-82735336D02*
X145592810Y-83159600D01*
X145592810Y-80478118D02*
X145592810Y-82735336D01*
X133400800Y-79730600D02*
X135172201Y-77959199D01*
X130911600Y-87477600D02*
X133400800Y-84988400D01*
X135172201Y-77959199D02*
X143073891Y-77959199D01*
X133400800Y-84988400D02*
X133400800Y-79730600D01*
D30*
X132892800Y-115925600D02*
X132943600Y-115925600D01*
X132105400Y-116713000D02*
X132892800Y-115925600D01*
D26*
X132943600Y-115925600D02*
X130911600Y-113893600D01*
X136194800Y-119176800D02*
X132943600Y-115925600D01*
X130911600Y-88900000D02*
X130911600Y-87477600D01*
X130911600Y-113893600D02*
X130911600Y-88900000D01*
X144311892Y-79197200D02*
X145592810Y-80478118D01*
X143073891Y-77959199D02*
X144311892Y-79197200D01*
D27*
X140566580Y-109931200D02*
X140769780Y-109728000D01*
X180949598Y-77317600D02*
X180949600Y-77317602D01*
X173786800Y-77317600D02*
X180949598Y-77317600D01*
X177335500Y-114816300D02*
X176546011Y-114816300D01*
X179781200Y-117262000D02*
X177335500Y-114816300D01*
X170942000Y-71323200D02*
X170630820Y-71012020D01*
X170630820Y-71012020D02*
X150374380Y-71012020D01*
X150374380Y-71012020D02*
X149961600Y-71424800D01*
X149961600Y-71424800D02*
X149402800Y-71424800D01*
X148590000Y-70612000D02*
X143306800Y-70612000D01*
X149402800Y-71424800D02*
X148590000Y-70612000D01*
X134574487Y-70284049D02*
X137751736Y-67106800D01*
X138869336Y-67106800D02*
X139293600Y-67106800D01*
X134574487Y-76722022D02*
X134574487Y-70284049D01*
X137751736Y-67106800D02*
X138869336Y-67106800D01*
X177335500Y-114816300D02*
X177872400Y-115353200D01*
X179755800Y-117236600D02*
X179781200Y-117262000D01*
X179755800Y-114808000D02*
X179755800Y-117236600D01*
X135591800Y-89731600D02*
X135072399Y-90251001D01*
X143739444Y-89731600D02*
X135591800Y-89731600D01*
X135072399Y-90251001D02*
X134772400Y-90551000D01*
X146964400Y-122732800D02*
X146964400Y-113995200D01*
X146964400Y-113995200D02*
X147426401Y-113533199D01*
X147426401Y-113533199D02*
X147726400Y-113233200D01*
X179781200Y-128803400D02*
X179781200Y-127422000D01*
X178130200Y-130454400D02*
X179781200Y-128803400D01*
X149606000Y-130454400D02*
X178130200Y-130454400D01*
X143854009Y-77153607D02*
X146131003Y-79430601D01*
X142177607Y-77153607D02*
X143854009Y-77153607D01*
X146131003Y-79430601D02*
X146431002Y-79730600D01*
X161681202Y-82042000D02*
X161594802Y-81955600D01*
D26*
X175209200Y-82042000D02*
X161681202Y-82042000D01*
D27*
X136314264Y-107391190D02*
X135890000Y-107391190D01*
X140768060Y-107188000D02*
X140564870Y-107391190D01*
X140741410Y-107391190D02*
X140792200Y-107340400D01*
X135890000Y-107391190D02*
X140741410Y-107391190D01*
X182321200Y-119802000D02*
X181016000Y-121107200D01*
X151638000Y-114198400D02*
X149428200Y-111988600D01*
X181016000Y-121107200D02*
X177698400Y-121107200D01*
X177698400Y-121107200D02*
X170789600Y-114198400D01*
X170789600Y-114198400D02*
X151638000Y-114198400D01*
X149428200Y-111988600D02*
X149428200Y-96715664D01*
X149428200Y-96715664D02*
X149428200Y-96291400D01*
X151109401Y-85897999D02*
X149428200Y-87579200D01*
X149428200Y-95867136D02*
X149428200Y-96291400D01*
X149428200Y-87579200D02*
X149428200Y-95867136D01*
X152963601Y-85897999D02*
X151109401Y-85897999D01*
X153263600Y-85598000D02*
X152963601Y-85897999D01*
X151816115Y-113768389D02*
X150037800Y-111990074D01*
X171070789Y-113768389D02*
X151816115Y-113768389D01*
X175844200Y-118541800D02*
X171070789Y-113768389D01*
X180975000Y-118541800D02*
X175844200Y-118541800D01*
X182321200Y-117195600D02*
X180975000Y-118541800D01*
X150037800Y-111990074D02*
X150037800Y-98475800D01*
X153522401Y-86609199D02*
X153822400Y-86309200D01*
X153314400Y-86817200D02*
X153522401Y-86609199D01*
X151079200Y-86817200D02*
X153314400Y-86817200D01*
X150037800Y-87858600D02*
X151079200Y-86817200D01*
X150037800Y-98475800D02*
X150037800Y-87858600D01*
X183896000Y-111252000D02*
X183946800Y-111252000D01*
X137718800Y-76758800D02*
X137718800Y-70561200D01*
D26*
X180797200Y-86055200D02*
X175666400Y-86055200D01*
X182727600Y-87985600D02*
X180797200Y-86055200D01*
X182727600Y-91694000D02*
X182727600Y-87985600D01*
X134162800Y-89001600D02*
X139665200Y-89001600D01*
X132943600Y-90220800D02*
X134162800Y-89001600D01*
X132943600Y-111861600D02*
X132943600Y-90220800D01*
X139665200Y-89001600D02*
X145186400Y-89001600D01*
X145186400Y-89001600D02*
X149910800Y-84277200D01*
X154940000Y-84277200D02*
X156311600Y-82905600D01*
X149910800Y-84277200D02*
X154940000Y-84277200D01*
X174396400Y-82905600D02*
X156311600Y-82905600D01*
X175366401Y-83875601D02*
X174396400Y-82905600D01*
X175366401Y-85755201D02*
X175366401Y-83875601D01*
X175666400Y-86055200D02*
X175366401Y-85755201D01*
D27*
X132943600Y-109829600D02*
X133045200Y-109931200D01*
X132943600Y-111861600D02*
X132943600Y-109829600D01*
D26*
X182966000Y-112182000D02*
X182321200Y-112182000D01*
X183896000Y-111252000D02*
X182966000Y-112182000D01*
D28*
X182321200Y-112182000D02*
X182997200Y-112182000D01*
X182997200Y-112182000D02*
X183007000Y-112191800D01*
D26*
X183946800Y-111252000D02*
X183007000Y-112191800D01*
D27*
X179781200Y-112471200D02*
X179832000Y-112522000D01*
D26*
X132943600Y-111861600D02*
X137998200Y-116916200D01*
D27*
X156311600Y-82905600D02*
X156311600Y-79857602D01*
X156311600Y-79857602D02*
X156159199Y-79705201D01*
X151815799Y-79705201D02*
X151714200Y-79806800D01*
X155295600Y-77825600D02*
X156159199Y-78689199D01*
X153271136Y-77825600D02*
X155295600Y-77825600D01*
X156159199Y-78689199D02*
X156159199Y-79705201D01*
X151714200Y-79382536D02*
X153271136Y-77825600D01*
X151714200Y-79806800D02*
X151714200Y-79382536D01*
X180231799Y-111332001D02*
X181471201Y-111332001D01*
X179755800Y-111808000D02*
X180231799Y-111332001D01*
X181471201Y-111332001D02*
X182321200Y-112182000D01*
X179755800Y-112808000D02*
X179755800Y-111808000D01*
D26*
X183870600Y-113157000D02*
X183870600Y-120853200D01*
X182956200Y-112242600D02*
X183870600Y-113157000D01*
X183007000Y-112191800D02*
X182956200Y-112242600D01*
X183171199Y-121492001D02*
X182321200Y-122342000D01*
X183810000Y-120853200D02*
X183171199Y-121492001D01*
X183870600Y-120853200D02*
X183810000Y-120853200D01*
X182727600Y-99415600D02*
X183011801Y-99699801D01*
X183896000Y-100584000D02*
X183611799Y-100299799D01*
X182727600Y-91694000D02*
X182727600Y-99415600D01*
X183011801Y-99699801D02*
X183311800Y-99999800D01*
X183611799Y-100299799D02*
X183311800Y-99999800D01*
X183896000Y-111252000D02*
X183896000Y-100584000D01*
X137998200Y-116916200D02*
X137998200Y-120853200D01*
X137998200Y-120853200D02*
X137998200Y-121056400D01*
X136037202Y-123017398D02*
X136037202Y-125369200D01*
X137998200Y-121056400D02*
X136037202Y-123017398D01*
X150723600Y-79425800D02*
X150723600Y-81991200D01*
X184030000Y-66822000D02*
X184695800Y-67487800D01*
X174599600Y-74955400D02*
X174599600Y-74980800D01*
X145186400Y-87528400D02*
X145186400Y-89001600D01*
X180263800Y-69291200D02*
X174599600Y-74955400D01*
X155168600Y-74980800D02*
X150723600Y-79425800D01*
X184073800Y-69291200D02*
X180263800Y-69291200D01*
X184695800Y-68669200D02*
X184073800Y-69291200D01*
X174599600Y-74980800D02*
X155168600Y-74980800D01*
X184695800Y-67487800D02*
X184695800Y-68669200D01*
X150723600Y-81991200D02*
X145186400Y-87528400D01*
X182880000Y-66822000D02*
X184030000Y-66822000D01*
X144559986Y-74134014D02*
X143916400Y-74777600D01*
X173846186Y-74134014D02*
X144559986Y-74134014D01*
X179908200Y-68072000D02*
X173846186Y-74134014D01*
D30*
X180454999Y-67043999D02*
X180454999Y-67704399D01*
X179705000Y-66294000D02*
X180454999Y-67043999D01*
D26*
X180822600Y-68072000D02*
X179908200Y-68072000D01*
D30*
X180454999Y-67704399D02*
X180822600Y-68072000D01*
D26*
X182880000Y-68072000D02*
X180822600Y-68072000D01*
D27*
X145491200Y-90525600D02*
X150876000Y-85140800D01*
X140665200Y-90525600D02*
X145491200Y-90525600D01*
X150876000Y-85140800D02*
X151289936Y-85140800D01*
X151289936Y-85140800D02*
X151714200Y-85140800D01*
D30*
X136575800Y-90525600D02*
X140665200Y-90525600D01*
X134899400Y-92202000D02*
X136575800Y-90525600D01*
X134924800Y-92227400D02*
X134924800Y-95961200D01*
X134899400Y-92202000D02*
X134924800Y-92227400D01*
D27*
X132474399Y-79634401D02*
X131724400Y-80384400D01*
X132506399Y-79634401D02*
X132474399Y-79634401D01*
X133858000Y-72186800D02*
X133858000Y-78282800D01*
X133858000Y-78282800D02*
X132506399Y-79634401D01*
X133324600Y-70713600D02*
X133858000Y-72186800D01*
D30*
X176352200Y-132842000D02*
X176580800Y-133070600D01*
X145389600Y-132842000D02*
X176352200Y-132842000D01*
X137490200Y-79425800D02*
X136702800Y-78638400D01*
X135229600Y-128524000D02*
X136779000Y-130073400D01*
X131953000Y-112318800D02*
X136956800Y-117322600D01*
X144170400Y-132842000D02*
X145389600Y-132842000D01*
X136702800Y-78638400D02*
X135971902Y-78638400D01*
X135229600Y-122250200D02*
X135229600Y-128524000D01*
X135971902Y-78638400D02*
X134366000Y-80244302D01*
X136779000Y-130073400D02*
X141401800Y-130073400D01*
X141401800Y-130073400D02*
X144170400Y-132842000D01*
X136956800Y-120523000D02*
X135229600Y-122250200D01*
X134366000Y-87426800D02*
X131953000Y-89839800D01*
X134366000Y-80244302D02*
X134366000Y-87426800D01*
X136956800Y-117322600D02*
X136956800Y-120523000D01*
X131953000Y-98272600D02*
X131953000Y-112318800D01*
D27*
X131953000Y-97256600D02*
X131953000Y-96901000D01*
D30*
X131953000Y-89839800D02*
X131953000Y-97256600D01*
X131953000Y-97256600D02*
X131953000Y-98272600D01*
D27*
X138506200Y-70848136D02*
X139910736Y-69443600D01*
X138506200Y-71272400D02*
X138506200Y-70848136D01*
X146227800Y-69443600D02*
X146304000Y-69367400D01*
X139910736Y-69443600D02*
X146227800Y-69443600D01*
X136487255Y-83058000D02*
X136497860Y-83047395D01*
X134936010Y-82383410D02*
X135610600Y-83058000D01*
X135610600Y-83058000D02*
X136487255Y-83058000D01*
X134936010Y-80772129D02*
X134936010Y-82383410D01*
X146322810Y-81381600D02*
X149904210Y-77800200D01*
X149904210Y-77800200D02*
X150037800Y-77800200D01*
X149809200Y-70582010D02*
X172343590Y-70582010D01*
X172343590Y-70582010D02*
X175341001Y-67584599D01*
X175341001Y-67584599D02*
X175641000Y-67284600D01*
X178033401Y-64114401D02*
X178333400Y-64414400D01*
X166268400Y-64465200D02*
X166977494Y-63756106D01*
X177675106Y-63756106D02*
X178033401Y-64114401D01*
X166977494Y-63756106D02*
X177675106Y-63756106D01*
X172930736Y-64389000D02*
X173355000Y-64389000D01*
X168402000Y-64389000D02*
X172930736Y-64389000D01*
X164642800Y-68148200D02*
X168402000Y-64389000D01*
X163423600Y-83896200D02*
X160072589Y-87247211D01*
X160072589Y-87247211D02*
X151741389Y-87247211D01*
X151741389Y-87247211D02*
X150647400Y-88341200D01*
X150647400Y-88341200D02*
X150647400Y-111991548D01*
X150647400Y-111991548D02*
X151741453Y-113085601D01*
X177957201Y-114431801D02*
X178257200Y-114731800D01*
X151741453Y-113085601D02*
X176611001Y-113085601D01*
X176611001Y-113085601D02*
X177957201Y-114431801D01*
D31*
G36*
X143840200Y-81078606D02*
G01*
X143840200Y-86815394D01*
X143558994Y-87096600D01*
X138226800Y-87096600D01*
X138178199Y-87106267D01*
X138136997Y-87133797D01*
X137832197Y-87438597D01*
X137804667Y-87479799D01*
X137795000Y-87528400D01*
X137795000Y-87843125D01*
X137753800Y-87942591D01*
X137753800Y-88231809D01*
X137795000Y-88331275D01*
X137795000Y-88544400D01*
X137804667Y-88593001D01*
X137832197Y-88634203D01*
X138021794Y-88823800D01*
X134167945Y-88823800D01*
X137299914Y-85739285D01*
X137327758Y-85698295D01*
X137337800Y-85648800D01*
X137337800Y-80543400D01*
X143304994Y-80543400D01*
X143840200Y-81078606D01*
X143840200Y-81078606D01*
G37*
X143840200Y-81078606D02*
X143840200Y-86815394D01*
X143558994Y-87096600D01*
X138226800Y-87096600D01*
X138178199Y-87106267D01*
X138136997Y-87133797D01*
X137832197Y-87438597D01*
X137804667Y-87479799D01*
X137795000Y-87528400D01*
X137795000Y-87843125D01*
X137753800Y-87942591D01*
X137753800Y-88231809D01*
X137795000Y-88331275D01*
X137795000Y-88544400D01*
X137804667Y-88593001D01*
X137832197Y-88634203D01*
X138021794Y-88823800D01*
X134167945Y-88823800D01*
X137299914Y-85739285D01*
X137327758Y-85698295D01*
X137337800Y-85648800D01*
X137337800Y-80543400D01*
X143304994Y-80543400D01*
X143840200Y-81078606D01*
M02*
