G04 #@! TF.GenerationSoftware,KiCad,Pcbnew,(6.0.0-rc1-dev-1413-ga48e89956)*
G04 #@! TF.CreationDate,2019-10-25T09:50:34-06:00
G04 #@! TF.ProjectId,HAT_ver_5.1,4841545f-7665-4725-9f35-2e312e6b6963,5.1.1*
G04 #@! TF.SameCoordinates,Original*
G04 #@! TF.FileFunction,Legend,Bot*
G04 #@! TF.FilePolarity,Positive*
%FSLAX46Y46*%
G04 Gerber Fmt 4.6, Leading zero omitted, Abs format (unit mm)*
G04 Created by KiCad (PCBNEW (6.0.0-rc1-dev-1413-ga48e89956)) date Friday, October 25, 2019 at 09:50:34 AM*
%MOMM*%
%LPD*%
G04 APERTURE LIST*
%ADD10C,0.150000*%
%ADD11C,0.100000*%
G04 APERTURE END LIST*
D10*
X132132295Y-129763780D02*
X132132295Y-128763780D01*
X131751342Y-128763780D01*
X131656104Y-128811400D01*
X131608485Y-128859019D01*
X131560866Y-128954257D01*
X131560866Y-129097114D01*
X131608485Y-129192352D01*
X131656104Y-129239971D01*
X131751342Y-129287590D01*
X132132295Y-129287590D01*
X130703723Y-128763780D02*
X130894200Y-128763780D01*
X130989438Y-128811400D01*
X131037057Y-128859019D01*
X131132295Y-129001876D01*
X131179914Y-129192352D01*
X131179914Y-129573304D01*
X131132295Y-129668542D01*
X131084676Y-129716161D01*
X130989438Y-129763780D01*
X130798961Y-129763780D01*
X130703723Y-129716161D01*
X130656104Y-129668542D01*
X130608485Y-129573304D01*
X130608485Y-129335209D01*
X130656104Y-129239971D01*
X130703723Y-129192352D01*
X130798961Y-129144733D01*
X130989438Y-129144733D01*
X131084676Y-129192352D01*
X131132295Y-129239971D01*
X131179914Y-129335209D01*
X171571942Y-86812380D02*
X171571942Y-85812380D01*
X171095752Y-86812380D02*
X171095752Y-85812380D01*
X170714800Y-85812380D01*
X170619561Y-85860000D01*
X170571942Y-85907619D01*
X170524323Y-86002857D01*
X170524323Y-86145714D01*
X170571942Y-86240952D01*
X170619561Y-86288571D01*
X170714800Y-86336190D01*
X171095752Y-86336190D01*
X170143371Y-86764761D02*
X170000514Y-86812380D01*
X169762419Y-86812380D01*
X169667180Y-86764761D01*
X169619561Y-86717142D01*
X169571942Y-86621904D01*
X169571942Y-86526666D01*
X169619561Y-86431428D01*
X169667180Y-86383809D01*
X169762419Y-86336190D01*
X169952895Y-86288571D01*
X170048133Y-86240952D01*
X170095752Y-86193333D01*
X170143371Y-86098095D01*
X170143371Y-86002857D01*
X170095752Y-85907619D01*
X170048133Y-85860000D01*
X169952895Y-85812380D01*
X169714800Y-85812380D01*
X169571942Y-85860000D01*
X169381466Y-86907619D02*
X168619561Y-86907619D01*
X168429085Y-86764761D02*
X168286228Y-86812380D01*
X168048133Y-86812380D01*
X167952895Y-86764761D01*
X167905276Y-86717142D01*
X167857657Y-86621904D01*
X167857657Y-86526666D01*
X167905276Y-86431428D01*
X167952895Y-86383809D01*
X168048133Y-86336190D01*
X168238609Y-86288571D01*
X168333847Y-86240952D01*
X168381466Y-86193333D01*
X168429085Y-86098095D01*
X168429085Y-86002857D01*
X168381466Y-85907619D01*
X168333847Y-85860000D01*
X168238609Y-85812380D01*
X168000514Y-85812380D01*
X167857657Y-85860000D01*
X167524323Y-86145714D02*
X167333847Y-86812380D01*
X167143371Y-86336190D01*
X166952895Y-86812380D01*
X166762419Y-86145714D01*
X133235533Y-85367761D02*
X133092676Y-85415380D01*
X132854580Y-85415380D01*
X132759342Y-85367761D01*
X132711723Y-85320142D01*
X132664104Y-85224904D01*
X132664104Y-85129666D01*
X132711723Y-85034428D01*
X132759342Y-84986809D01*
X132854580Y-84939190D01*
X133045057Y-84891571D01*
X133140295Y-84843952D01*
X133187914Y-84796333D01*
X133235533Y-84701095D01*
X133235533Y-84605857D01*
X133187914Y-84510619D01*
X133140295Y-84463000D01*
X133045057Y-84415380D01*
X132806961Y-84415380D01*
X132664104Y-84463000D01*
X132330771Y-84415380D02*
X132092676Y-85415380D01*
X131902200Y-84701095D01*
X131711723Y-85415380D01*
X131473628Y-84415380D01*
X130568866Y-85415380D02*
X131140295Y-85415380D01*
X130854580Y-85415380D02*
X130854580Y-84415380D01*
X130949819Y-84558238D01*
X131045057Y-84653476D01*
X131140295Y-84701095D01*
X141428695Y-67355980D02*
X141428695Y-66355980D01*
X141047742Y-66355980D01*
X140952504Y-66403600D01*
X140904885Y-66451219D01*
X140857266Y-66546457D01*
X140857266Y-66689314D01*
X140904885Y-66784552D01*
X140952504Y-66832171D01*
X141047742Y-66879790D01*
X141428695Y-66879790D01*
X140523933Y-66355980D02*
X139857266Y-66355980D01*
X140285838Y-67355980D01*
X143816295Y-106370380D02*
X143816295Y-105370380D01*
X143435342Y-105370380D01*
X143340104Y-105418000D01*
X143292485Y-105465619D01*
X143244866Y-105560857D01*
X143244866Y-105703714D01*
X143292485Y-105798952D01*
X143340104Y-105846571D01*
X143435342Y-105894190D01*
X143816295Y-105894190D01*
X142911533Y-105370380D02*
X142292485Y-105370380D01*
X142625819Y-105751333D01*
X142482961Y-105751333D01*
X142387723Y-105798952D01*
X142340104Y-105846571D01*
X142292485Y-105941809D01*
X142292485Y-106179904D01*
X142340104Y-106275142D01*
X142387723Y-106322761D01*
X142482961Y-106370380D01*
X142768676Y-106370380D01*
X142863914Y-106322761D01*
X142911533Y-106275142D01*
X145391095Y-130043180D02*
X145391095Y-129043180D01*
X145010142Y-129043180D01*
X144914904Y-129090800D01*
X144867285Y-129138419D01*
X144819666Y-129233657D01*
X144819666Y-129376514D01*
X144867285Y-129471752D01*
X144914904Y-129519371D01*
X145010142Y-129566990D01*
X145391095Y-129566990D01*
X144438714Y-129138419D02*
X144391095Y-129090800D01*
X144295857Y-129043180D01*
X144057761Y-129043180D01*
X143962523Y-129090800D01*
X143914904Y-129138419D01*
X143867285Y-129233657D01*
X143867285Y-129328895D01*
X143914904Y-129471752D01*
X144486333Y-130043180D01*
X143867285Y-130043180D01*
X178639695Y-129585980D02*
X178639695Y-128585980D01*
X178258742Y-128585980D01*
X178163504Y-128633600D01*
X178115885Y-128681219D01*
X178068266Y-128776457D01*
X178068266Y-128919314D01*
X178115885Y-129014552D01*
X178163504Y-129062171D01*
X178258742Y-129109790D01*
X178639695Y-129109790D01*
X177211123Y-128585980D02*
X177401600Y-128585980D01*
X177496838Y-128633600D01*
X177544457Y-128681219D01*
X177639695Y-128824076D01*
X177687314Y-129014552D01*
X177687314Y-129395504D01*
X177639695Y-129490742D01*
X177592076Y-129538361D01*
X177496838Y-129585980D01*
X177306361Y-129585980D01*
X177211123Y-129538361D01*
X177163504Y-129490742D01*
X177115885Y-129395504D01*
X177115885Y-129157409D01*
X177163504Y-129062171D01*
X177211123Y-129014552D01*
X177306361Y-128966933D01*
X177496838Y-128966933D01*
X177592076Y-129014552D01*
X177639695Y-129062171D01*
X177687314Y-129157409D01*
X185116695Y-129357380D02*
X185116695Y-128357380D01*
X184735742Y-128357380D01*
X184640504Y-128405000D01*
X184592885Y-128452619D01*
X184545266Y-128547857D01*
X184545266Y-128690714D01*
X184592885Y-128785952D01*
X184640504Y-128833571D01*
X184735742Y-128881190D01*
X185116695Y-128881190D01*
X183592885Y-129357380D02*
X184164314Y-129357380D01*
X183878600Y-129357380D02*
X183878600Y-128357380D01*
X183973838Y-128500238D01*
X184069076Y-128595476D01*
X184164314Y-128643095D01*
X177658495Y-66298771D02*
X177515638Y-66346390D01*
X177468019Y-66394009D01*
X177420400Y-66489247D01*
X177420400Y-66632104D01*
X177468019Y-66727342D01*
X177515638Y-66774961D01*
X177610876Y-66822580D01*
X177991828Y-66822580D01*
X177991828Y-65822580D01*
X177658495Y-65822580D01*
X177563257Y-65870200D01*
X177515638Y-65917819D01*
X177468019Y-66013057D01*
X177468019Y-66108295D01*
X177515638Y-66203533D01*
X177563257Y-66251152D01*
X177658495Y-66298771D01*
X177991828Y-66298771D01*
X177039447Y-66536866D02*
X176563257Y-66536866D01*
X177134685Y-66822580D02*
X176801352Y-65822580D01*
X176468019Y-66822580D01*
X176277542Y-65822580D02*
X175706114Y-65822580D01*
X175991828Y-66822580D02*
X175991828Y-65822580D01*
X175515638Y-65822580D02*
X174944209Y-65822580D01*
X175229923Y-66822580D02*
X175229923Y-65822580D01*
X174610876Y-66441628D02*
X173848971Y-66441628D01*
X174229923Y-66822580D02*
X174229923Y-66060676D01*
X160976914Y-78531980D02*
X160976914Y-77531980D01*
X160500723Y-78531980D02*
X160500723Y-77531980D01*
X160119771Y-77531980D01*
X160024533Y-77579600D01*
X159976914Y-77627219D01*
X159929295Y-77722457D01*
X159929295Y-77865314D01*
X159976914Y-77960552D01*
X160024533Y-78008171D01*
X160119771Y-78055790D01*
X160500723Y-78055790D01*
X159548342Y-78484361D02*
X159405485Y-78531980D01*
X159167390Y-78531980D01*
X159072152Y-78484361D01*
X159024533Y-78436742D01*
X158976914Y-78341504D01*
X158976914Y-78246266D01*
X159024533Y-78151028D01*
X159072152Y-78103409D01*
X159167390Y-78055790D01*
X159357866Y-78008171D01*
X159453104Y-77960552D01*
X159500723Y-77912933D01*
X159548342Y-77817695D01*
X159548342Y-77722457D01*
X159500723Y-77627219D01*
X159453104Y-77579600D01*
X159357866Y-77531980D01*
X159119771Y-77531980D01*
X158976914Y-77579600D01*
X158786438Y-78627219D02*
X158024533Y-78627219D01*
X157595961Y-77531980D02*
X157405485Y-77531980D01*
X157310247Y-77579600D01*
X157215009Y-77674838D01*
X157167390Y-77865314D01*
X157167390Y-78198647D01*
X157215009Y-78389123D01*
X157310247Y-78484361D01*
X157405485Y-78531980D01*
X157595961Y-78531980D01*
X157691200Y-78484361D01*
X157786438Y-78389123D01*
X157834057Y-78198647D01*
X157834057Y-77865314D01*
X157786438Y-77674838D01*
X157691200Y-77579600D01*
X157595961Y-77531980D01*
X156738819Y-77531980D02*
X156738819Y-78341504D01*
X156691200Y-78436742D01*
X156643580Y-78484361D01*
X156548342Y-78531980D01*
X156357866Y-78531980D01*
X156262628Y-78484361D01*
X156215009Y-78436742D01*
X156167390Y-78341504D01*
X156167390Y-77531980D01*
X155834057Y-77531980D02*
X155262628Y-77531980D01*
X155548342Y-78531980D02*
X155548342Y-77531980D01*
X183759314Y-105989428D02*
X182997409Y-105989428D01*
X183378361Y-106370380D02*
X183378361Y-105608476D01*
X182045028Y-105370380D02*
X182521219Y-105370380D01*
X182568838Y-105846571D01*
X182521219Y-105798952D01*
X182425980Y-105751333D01*
X182187885Y-105751333D01*
X182092647Y-105798952D01*
X182045028Y-105846571D01*
X181997409Y-105941809D01*
X181997409Y-106179904D01*
X182045028Y-106275142D01*
X182092647Y-106322761D01*
X182187885Y-106370380D01*
X182425980Y-106370380D01*
X182521219Y-106322761D01*
X182568838Y-106275142D01*
X181711695Y-105370380D02*
X181378361Y-106370380D01*
X181045028Y-105370380D01*
X139547504Y-129751200D02*
X139642742Y-129703580D01*
X139785600Y-129703580D01*
X139928457Y-129751200D01*
X140023695Y-129846438D01*
X140071314Y-129941676D01*
X140118933Y-130132152D01*
X140118933Y-130275009D01*
X140071314Y-130465485D01*
X140023695Y-130560723D01*
X139928457Y-130655961D01*
X139785600Y-130703580D01*
X139690361Y-130703580D01*
X139547504Y-130655961D01*
X139499885Y-130608342D01*
X139499885Y-130275009D01*
X139690361Y-130275009D01*
X139071314Y-130703580D02*
X139071314Y-129703580D01*
X138499885Y-130703580D01*
X138499885Y-129703580D01*
X138023695Y-130703580D02*
X138023695Y-129703580D01*
X137785600Y-129703580D01*
X137642742Y-129751200D01*
X137547504Y-129846438D01*
X137499885Y-129941676D01*
X137452266Y-130132152D01*
X137452266Y-130275009D01*
X137499885Y-130465485D01*
X137547504Y-130560723D01*
X137642742Y-130655961D01*
X137785600Y-130703580D01*
X138023695Y-130703580D01*
X172095561Y-81411771D02*
X171952704Y-81459390D01*
X171905085Y-81507009D01*
X171857466Y-81602247D01*
X171857466Y-81745104D01*
X171905085Y-81840342D01*
X171952704Y-81887961D01*
X172047942Y-81935580D01*
X172428895Y-81935580D01*
X172428895Y-80935580D01*
X172095561Y-80935580D01*
X172000323Y-80983200D01*
X171952704Y-81030819D01*
X171905085Y-81126057D01*
X171905085Y-81221295D01*
X171952704Y-81316533D01*
X172000323Y-81364152D01*
X172095561Y-81411771D01*
X172428895Y-81411771D01*
X171476514Y-81649866D02*
X171000323Y-81649866D01*
X171571752Y-81935580D02*
X171238419Y-80935580D01*
X170905085Y-81935580D01*
X170714609Y-80935580D02*
X170143180Y-80935580D01*
X170428895Y-81935580D02*
X170428895Y-80935580D01*
X169095561Y-81887961D02*
X168952704Y-81935580D01*
X168714609Y-81935580D01*
X168619371Y-81887961D01*
X168571752Y-81840342D01*
X168524133Y-81745104D01*
X168524133Y-81649866D01*
X168571752Y-81554628D01*
X168619371Y-81507009D01*
X168714609Y-81459390D01*
X168905085Y-81411771D01*
X169000323Y-81364152D01*
X169047942Y-81316533D01*
X169095561Y-81221295D01*
X169095561Y-81126057D01*
X169047942Y-81030819D01*
X169000323Y-80983200D01*
X168905085Y-80935580D01*
X168666990Y-80935580D01*
X168524133Y-80983200D01*
X168190800Y-81268914D02*
X168000323Y-81935580D01*
X167809847Y-81459390D01*
X167619371Y-81935580D01*
X167428895Y-81268914D01*
X167047942Y-81935580D02*
X167047942Y-81268914D01*
X167047942Y-80935580D02*
X167095561Y-80983200D01*
X167047942Y-81030819D01*
X167000323Y-80983200D01*
X167047942Y-80935580D01*
X167047942Y-81030819D01*
X166714609Y-81268914D02*
X166333657Y-81268914D01*
X166571752Y-80935580D02*
X166571752Y-81792723D01*
X166524133Y-81887961D01*
X166428895Y-81935580D01*
X166333657Y-81935580D01*
X165571752Y-81887961D02*
X165666990Y-81935580D01*
X165857466Y-81935580D01*
X165952704Y-81887961D01*
X166000323Y-81840342D01*
X166047942Y-81745104D01*
X166047942Y-81459390D01*
X166000323Y-81364152D01*
X165952704Y-81316533D01*
X165857466Y-81268914D01*
X165666990Y-81268914D01*
X165571752Y-81316533D01*
X165143180Y-81935580D02*
X165143180Y-80935580D01*
X164714609Y-81935580D02*
X164714609Y-81411771D01*
X164762228Y-81316533D01*
X164857466Y-81268914D01*
X165000323Y-81268914D01*
X165095561Y-81316533D01*
X165143180Y-81364152D01*
X163857466Y-81887961D02*
X163952704Y-81935580D01*
X164143180Y-81935580D01*
X164238419Y-81887961D01*
X164286038Y-81792723D01*
X164286038Y-81411771D01*
X164238419Y-81316533D01*
X164143180Y-81268914D01*
X163952704Y-81268914D01*
X163857466Y-81316533D01*
X163809847Y-81411771D01*
X163809847Y-81507009D01*
X164286038Y-81602247D01*
X162952704Y-81935580D02*
X162952704Y-80935580D01*
X162952704Y-81887961D02*
X163047942Y-81935580D01*
X163238419Y-81935580D01*
X163333657Y-81887961D01*
X163381276Y-81840342D01*
X163428895Y-81745104D01*
X163428895Y-81459390D01*
X163381276Y-81364152D01*
X163333657Y-81316533D01*
X163238419Y-81268914D01*
X163047942Y-81268914D01*
X162952704Y-81316533D01*
X137313752Y-116905066D02*
X136837561Y-116905066D01*
X137408990Y-117190780D02*
X137075657Y-116190780D01*
X136742323Y-117190780D01*
X135837561Y-117095542D02*
X135885180Y-117143161D01*
X136028038Y-117190780D01*
X136123276Y-117190780D01*
X136266133Y-117143161D01*
X136361371Y-117047923D01*
X136408990Y-116952685D01*
X136456609Y-116762209D01*
X136456609Y-116619352D01*
X136408990Y-116428876D01*
X136361371Y-116333638D01*
X136266133Y-116238400D01*
X136123276Y-116190780D01*
X136028038Y-116190780D01*
X135885180Y-116238400D01*
X135837561Y-116286019D01*
X135647085Y-117286019D02*
X134885180Y-117286019D01*
X134647085Y-117190780D02*
X134647085Y-116190780D01*
X134170895Y-117190780D02*
X134170895Y-116190780D01*
X133599466Y-117190780D01*
X133599466Y-116190780D01*
X168249504Y-82964400D02*
X168344742Y-82916780D01*
X168487600Y-82916780D01*
X168630457Y-82964400D01*
X168725695Y-83059638D01*
X168773314Y-83154876D01*
X168820933Y-83345352D01*
X168820933Y-83488209D01*
X168773314Y-83678685D01*
X168725695Y-83773923D01*
X168630457Y-83869161D01*
X168487600Y-83916780D01*
X168392361Y-83916780D01*
X168249504Y-83869161D01*
X168201885Y-83821542D01*
X168201885Y-83488209D01*
X168392361Y-83488209D01*
X167773314Y-83916780D02*
X167773314Y-82916780D01*
X167201885Y-83916780D01*
X167201885Y-82916780D01*
X166725695Y-83916780D02*
X166725695Y-82916780D01*
X166487600Y-82916780D01*
X166344742Y-82964400D01*
X166249504Y-83059638D01*
X166201885Y-83154876D01*
X166154266Y-83345352D01*
X166154266Y-83488209D01*
X166201885Y-83678685D01*
X166249504Y-83773923D01*
X166344742Y-83869161D01*
X166487600Y-83916780D01*
X166725695Y-83916780D01*
X173823142Y-73283771D02*
X173680285Y-73331390D01*
X173632666Y-73379009D01*
X173585047Y-73474247D01*
X173585047Y-73617104D01*
X173632666Y-73712342D01*
X173680285Y-73759961D01*
X173775523Y-73807580D01*
X174156476Y-73807580D01*
X174156476Y-72807580D01*
X173823142Y-72807580D01*
X173727904Y-72855200D01*
X173680285Y-72902819D01*
X173632666Y-72998057D01*
X173632666Y-73093295D01*
X173680285Y-73188533D01*
X173727904Y-73236152D01*
X173823142Y-73283771D01*
X174156476Y-73283771D01*
X173204095Y-73521866D02*
X172727904Y-73521866D01*
X173299333Y-73807580D02*
X172966000Y-72807580D01*
X172632666Y-73807580D01*
X172442190Y-72807580D02*
X171870761Y-72807580D01*
X172156476Y-73807580D02*
X172156476Y-72807580D01*
X171537428Y-73426628D02*
X170775523Y-73426628D01*
X171156476Y-73807580D02*
X171156476Y-73045676D01*
X173848495Y-75772971D02*
X173705638Y-75820590D01*
X173658019Y-75868209D01*
X173610400Y-75963447D01*
X173610400Y-76106304D01*
X173658019Y-76201542D01*
X173705638Y-76249161D01*
X173800876Y-76296780D01*
X174181828Y-76296780D01*
X174181828Y-75296780D01*
X173848495Y-75296780D01*
X173753257Y-75344400D01*
X173705638Y-75392019D01*
X173658019Y-75487257D01*
X173658019Y-75582495D01*
X173705638Y-75677733D01*
X173753257Y-75725352D01*
X173848495Y-75772971D01*
X174181828Y-75772971D01*
X173229447Y-76011066D02*
X172753257Y-76011066D01*
X173324685Y-76296780D02*
X172991352Y-75296780D01*
X172658019Y-76296780D01*
X172467542Y-75296780D02*
X171896114Y-75296780D01*
X172181828Y-76296780D02*
X172181828Y-75296780D01*
X170800876Y-75915828D02*
X170038971Y-75915828D01*
X174911776Y-123053342D02*
X174959395Y-123100961D01*
X175102252Y-123148580D01*
X175197490Y-123148580D01*
X175340347Y-123100961D01*
X175435585Y-123005723D01*
X175483204Y-122910485D01*
X175530823Y-122720009D01*
X175530823Y-122577152D01*
X175483204Y-122386676D01*
X175435585Y-122291438D01*
X175340347Y-122196200D01*
X175197490Y-122148580D01*
X175102252Y-122148580D01*
X174959395Y-122196200D01*
X174911776Y-122243819D01*
X174340347Y-123148580D02*
X174435585Y-123100961D01*
X174483204Y-123053342D01*
X174530823Y-122958104D01*
X174530823Y-122672390D01*
X174483204Y-122577152D01*
X174435585Y-122529533D01*
X174340347Y-122481914D01*
X174197490Y-122481914D01*
X174102252Y-122529533D01*
X174054633Y-122577152D01*
X174007014Y-122672390D01*
X174007014Y-122958104D01*
X174054633Y-123053342D01*
X174102252Y-123100961D01*
X174197490Y-123148580D01*
X174340347Y-123148580D01*
X173578442Y-122481914D02*
X173578442Y-123148580D01*
X173578442Y-122577152D02*
X173530823Y-122529533D01*
X173435585Y-122481914D01*
X173292728Y-122481914D01*
X173197490Y-122529533D01*
X173149871Y-122624771D01*
X173149871Y-123148580D01*
X172673680Y-122481914D02*
X172673680Y-123148580D01*
X172673680Y-122577152D02*
X172626061Y-122529533D01*
X172530823Y-122481914D01*
X172387966Y-122481914D01*
X172292728Y-122529533D01*
X172245109Y-122624771D01*
X172245109Y-123148580D01*
X171387966Y-123100961D02*
X171483204Y-123148580D01*
X171673680Y-123148580D01*
X171768919Y-123100961D01*
X171816538Y-123005723D01*
X171816538Y-122624771D01*
X171768919Y-122529533D01*
X171673680Y-122481914D01*
X171483204Y-122481914D01*
X171387966Y-122529533D01*
X171340347Y-122624771D01*
X171340347Y-122720009D01*
X171816538Y-122815247D01*
X170483204Y-123100961D02*
X170578442Y-123148580D01*
X170768919Y-123148580D01*
X170864157Y-123100961D01*
X170911776Y-123053342D01*
X170959395Y-122958104D01*
X170959395Y-122672390D01*
X170911776Y-122577152D01*
X170864157Y-122529533D01*
X170768919Y-122481914D01*
X170578442Y-122481914D01*
X170483204Y-122529533D01*
X170197490Y-122481914D02*
X169816538Y-122481914D01*
X170054633Y-122148580D02*
X170054633Y-123005723D01*
X170007014Y-123100961D01*
X169911776Y-123148580D01*
X169816538Y-123148580D01*
X169149871Y-122624771D02*
X169007014Y-122672390D01*
X168959395Y-122720009D01*
X168911776Y-122815247D01*
X168911776Y-122958104D01*
X168959395Y-123053342D01*
X169007014Y-123100961D01*
X169102252Y-123148580D01*
X169483204Y-123148580D01*
X169483204Y-122148580D01*
X169149871Y-122148580D01*
X169054633Y-122196200D01*
X169007014Y-122243819D01*
X168959395Y-122339057D01*
X168959395Y-122434295D01*
X169007014Y-122529533D01*
X169054633Y-122577152D01*
X169149871Y-122624771D01*
X169483204Y-122624771D01*
X168340347Y-123148580D02*
X168435585Y-123100961D01*
X168483204Y-123053342D01*
X168530823Y-122958104D01*
X168530823Y-122672390D01*
X168483204Y-122577152D01*
X168435585Y-122529533D01*
X168340347Y-122481914D01*
X168197490Y-122481914D01*
X168102252Y-122529533D01*
X168054633Y-122577152D01*
X168007014Y-122672390D01*
X168007014Y-122958104D01*
X168054633Y-123053342D01*
X168102252Y-123100961D01*
X168197490Y-123148580D01*
X168340347Y-123148580D01*
X167673680Y-123148580D02*
X167149871Y-122481914D01*
X167673680Y-122481914D02*
X167149871Y-123148580D01*
X166007014Y-123148580D02*
X166007014Y-122148580D01*
X165626061Y-122148580D01*
X165530823Y-122196200D01*
X165483204Y-122243819D01*
X165435585Y-122339057D01*
X165435585Y-122481914D01*
X165483204Y-122577152D01*
X165530823Y-122624771D01*
X165626061Y-122672390D01*
X166007014Y-122672390D01*
X165007014Y-123148580D02*
X165007014Y-122481914D01*
X165007014Y-122672390D02*
X164959395Y-122577152D01*
X164911776Y-122529533D01*
X164816538Y-122481914D01*
X164721300Y-122481914D01*
X164245109Y-123148580D02*
X164340347Y-123100961D01*
X164387966Y-123053342D01*
X164435585Y-122958104D01*
X164435585Y-122672390D01*
X164387966Y-122577152D01*
X164340347Y-122529533D01*
X164245109Y-122481914D01*
X164102252Y-122481914D01*
X164007014Y-122529533D01*
X163959395Y-122577152D01*
X163911776Y-122672390D01*
X163911776Y-122958104D01*
X163959395Y-123053342D01*
X164007014Y-123100961D01*
X164102252Y-123148580D01*
X164245109Y-123148580D01*
X163483204Y-122481914D02*
X163483204Y-123339057D01*
X163530823Y-123434295D01*
X163626061Y-123481914D01*
X163673680Y-123481914D01*
X163483204Y-122148580D02*
X163530823Y-122196200D01*
X163483204Y-122243819D01*
X163435585Y-122196200D01*
X163483204Y-122148580D01*
X163483204Y-122243819D01*
X162626061Y-123100961D02*
X162721300Y-123148580D01*
X162911776Y-123148580D01*
X163007014Y-123100961D01*
X163054633Y-123005723D01*
X163054633Y-122624771D01*
X163007014Y-122529533D01*
X162911776Y-122481914D01*
X162721300Y-122481914D01*
X162626061Y-122529533D01*
X162578442Y-122624771D01*
X162578442Y-122720009D01*
X163054633Y-122815247D01*
X161721300Y-123100961D02*
X161816538Y-123148580D01*
X162007014Y-123148580D01*
X162102252Y-123100961D01*
X162149871Y-123053342D01*
X162197490Y-122958104D01*
X162197490Y-122672390D01*
X162149871Y-122577152D01*
X162102252Y-122529533D01*
X162007014Y-122481914D01*
X161816538Y-122481914D01*
X161721300Y-122529533D01*
X161435585Y-122481914D02*
X161054633Y-122481914D01*
X161292728Y-122148580D02*
X161292728Y-123005723D01*
X161245109Y-123100961D01*
X161149871Y-123148580D01*
X161054633Y-123148580D01*
X174911776Y-124703342D02*
X174959395Y-124750961D01*
X175102252Y-124798580D01*
X175197490Y-124798580D01*
X175340347Y-124750961D01*
X175435585Y-124655723D01*
X175483204Y-124560485D01*
X175530823Y-124370009D01*
X175530823Y-124227152D01*
X175483204Y-124036676D01*
X175435585Y-123941438D01*
X175340347Y-123846200D01*
X175197490Y-123798580D01*
X175102252Y-123798580D01*
X174959395Y-123846200D01*
X174911776Y-123893819D01*
X174340347Y-124798580D02*
X174435585Y-124750961D01*
X174483204Y-124703342D01*
X174530823Y-124608104D01*
X174530823Y-124322390D01*
X174483204Y-124227152D01*
X174435585Y-124179533D01*
X174340347Y-124131914D01*
X174197490Y-124131914D01*
X174102252Y-124179533D01*
X174054633Y-124227152D01*
X174007014Y-124322390D01*
X174007014Y-124608104D01*
X174054633Y-124703342D01*
X174102252Y-124750961D01*
X174197490Y-124798580D01*
X174340347Y-124798580D01*
X173578442Y-124131914D02*
X173578442Y-125131914D01*
X173578442Y-124179533D02*
X173483204Y-124131914D01*
X173292728Y-124131914D01*
X173197490Y-124179533D01*
X173149871Y-124227152D01*
X173102252Y-124322390D01*
X173102252Y-124608104D01*
X173149871Y-124703342D01*
X173197490Y-124750961D01*
X173292728Y-124798580D01*
X173483204Y-124798580D01*
X173578442Y-124750961D01*
X172768919Y-124131914D02*
X172530823Y-124798580D01*
X172292728Y-124131914D02*
X172530823Y-124798580D01*
X172626061Y-125036676D01*
X172673680Y-125084295D01*
X172768919Y-125131914D01*
X171911776Y-124798580D02*
X171911776Y-124131914D01*
X171911776Y-124322390D02*
X171864157Y-124227152D01*
X171816538Y-124179533D01*
X171721300Y-124131914D01*
X171626061Y-124131914D01*
X171292728Y-124798580D02*
X171292728Y-124131914D01*
X171292728Y-123798580D02*
X171340347Y-123846200D01*
X171292728Y-123893819D01*
X171245109Y-123846200D01*
X171292728Y-123798580D01*
X171292728Y-123893819D01*
X170387966Y-124131914D02*
X170387966Y-124941438D01*
X170435585Y-125036676D01*
X170483204Y-125084295D01*
X170578442Y-125131914D01*
X170721300Y-125131914D01*
X170816538Y-125084295D01*
X170387966Y-124750961D02*
X170483204Y-124798580D01*
X170673680Y-124798580D01*
X170768919Y-124750961D01*
X170816538Y-124703342D01*
X170864157Y-124608104D01*
X170864157Y-124322390D01*
X170816538Y-124227152D01*
X170768919Y-124179533D01*
X170673680Y-124131914D01*
X170483204Y-124131914D01*
X170387966Y-124179533D01*
X169911776Y-124798580D02*
X169911776Y-123798580D01*
X169483204Y-124798580D02*
X169483204Y-124274771D01*
X169530823Y-124179533D01*
X169626061Y-124131914D01*
X169768919Y-124131914D01*
X169864157Y-124179533D01*
X169911776Y-124227152D01*
X169149871Y-124131914D02*
X168768919Y-124131914D01*
X169007014Y-123798580D02*
X169007014Y-124655723D01*
X168959395Y-124750961D01*
X168864157Y-124798580D01*
X168768919Y-124798580D01*
X167721300Y-123893819D02*
X167673680Y-123846200D01*
X167578442Y-123798580D01*
X167340347Y-123798580D01*
X167245109Y-123846200D01*
X167197490Y-123893819D01*
X167149871Y-123989057D01*
X167149871Y-124084295D01*
X167197490Y-124227152D01*
X167768919Y-124798580D01*
X167149871Y-124798580D01*
X166530823Y-123798580D02*
X166435585Y-123798580D01*
X166340347Y-123846200D01*
X166292728Y-123893819D01*
X166245109Y-123989057D01*
X166197490Y-124179533D01*
X166197490Y-124417628D01*
X166245109Y-124608104D01*
X166292728Y-124703342D01*
X166340347Y-124750961D01*
X166435585Y-124798580D01*
X166530823Y-124798580D01*
X166626061Y-124750961D01*
X166673680Y-124703342D01*
X166721300Y-124608104D01*
X166768919Y-124417628D01*
X166768919Y-124179533D01*
X166721300Y-123989057D01*
X166673680Y-123893819D01*
X166626061Y-123846200D01*
X166530823Y-123798580D01*
X165245109Y-124798580D02*
X165816538Y-124798580D01*
X165530823Y-124798580D02*
X165530823Y-123798580D01*
X165626061Y-123941438D01*
X165721300Y-124036676D01*
X165816538Y-124084295D01*
X164768919Y-124798580D02*
X164578442Y-124798580D01*
X164483204Y-124750961D01*
X164435585Y-124703342D01*
X164340347Y-124560485D01*
X164292728Y-124370009D01*
X164292728Y-123989057D01*
X164340347Y-123893819D01*
X164387966Y-123846200D01*
X164483204Y-123798580D01*
X164673680Y-123798580D01*
X164768919Y-123846200D01*
X164816538Y-123893819D01*
X164864157Y-123989057D01*
X164864157Y-124227152D01*
X164816538Y-124322390D01*
X164768919Y-124370009D01*
X164673680Y-124417628D01*
X164483204Y-124417628D01*
X164387966Y-124370009D01*
X164340347Y-124322390D01*
X164292728Y-124227152D01*
X175483204Y-126448580D02*
X175483204Y-125448580D01*
X174911776Y-126448580D01*
X174911776Y-125448580D01*
X174435585Y-125924771D02*
X174102252Y-125924771D01*
X173959395Y-126448580D02*
X174435585Y-126448580D01*
X174435585Y-125448580D01*
X173959395Y-125448580D01*
X173340347Y-125448580D02*
X173149871Y-125448580D01*
X173054633Y-125496200D01*
X172959395Y-125591438D01*
X172911776Y-125781914D01*
X172911776Y-126115247D01*
X172959395Y-126305723D01*
X173054633Y-126400961D01*
X173149871Y-126448580D01*
X173340347Y-126448580D01*
X173435585Y-126400961D01*
X173530823Y-126305723D01*
X173578442Y-126115247D01*
X173578442Y-125781914D01*
X173530823Y-125591438D01*
X173435585Y-125496200D01*
X173340347Y-125448580D01*
X171721300Y-125448580D02*
X171721300Y-126258104D01*
X171673680Y-126353342D01*
X171626061Y-126400961D01*
X171530823Y-126448580D01*
X171340347Y-126448580D01*
X171245109Y-126400961D01*
X171197490Y-126353342D01*
X171149871Y-126258104D01*
X171149871Y-125448580D01*
X170721300Y-126400961D02*
X170578442Y-126448580D01*
X170340347Y-126448580D01*
X170245109Y-126400961D01*
X170197490Y-126353342D01*
X170149871Y-126258104D01*
X170149871Y-126162866D01*
X170197490Y-126067628D01*
X170245109Y-126020009D01*
X170340347Y-125972390D01*
X170530823Y-125924771D01*
X170626061Y-125877152D01*
X170673680Y-125829533D01*
X170721300Y-125734295D01*
X170721300Y-125639057D01*
X170673680Y-125543819D01*
X170626061Y-125496200D01*
X170530823Y-125448580D01*
X170292728Y-125448580D01*
X170149871Y-125496200D01*
X169387966Y-125924771D02*
X169245109Y-125972390D01*
X169197490Y-126020009D01*
X169149871Y-126115247D01*
X169149871Y-126258104D01*
X169197490Y-126353342D01*
X169245109Y-126400961D01*
X169340347Y-126448580D01*
X169721300Y-126448580D01*
X169721300Y-125448580D01*
X169387966Y-125448580D01*
X169292728Y-125496200D01*
X169245109Y-125543819D01*
X169197490Y-125639057D01*
X169197490Y-125734295D01*
X169245109Y-125829533D01*
X169292728Y-125877152D01*
X169387966Y-125924771D01*
X169721300Y-125924771D01*
X167959395Y-126448580D02*
X167959395Y-125448580D01*
X167959395Y-125924771D02*
X167387966Y-125924771D01*
X167387966Y-126448580D02*
X167387966Y-125448580D01*
X166959395Y-126162866D02*
X166483204Y-126162866D01*
X167054633Y-126448580D02*
X166721300Y-125448580D01*
X166387966Y-126448580D01*
X166197490Y-125448580D02*
X165626061Y-125448580D01*
X165911776Y-126448580D02*
X165911776Y-125448580D01*
X164673680Y-125448580D02*
X164340347Y-126448580D01*
X164007014Y-125448580D01*
X163292728Y-126400961D02*
X163387966Y-126448580D01*
X163578442Y-126448580D01*
X163673680Y-126400961D01*
X163721300Y-126305723D01*
X163721300Y-125924771D01*
X163673680Y-125829533D01*
X163578442Y-125781914D01*
X163387966Y-125781914D01*
X163292728Y-125829533D01*
X163245109Y-125924771D01*
X163245109Y-126020009D01*
X163721300Y-126115247D01*
X162816538Y-126448580D02*
X162816538Y-125781914D01*
X162816538Y-125972390D02*
X162768919Y-125877152D01*
X162721300Y-125829533D01*
X162626061Y-125781914D01*
X162530823Y-125781914D01*
X162245109Y-126400961D02*
X162149871Y-126448580D01*
X161959395Y-126448580D01*
X161864157Y-126400961D01*
X161816538Y-126305723D01*
X161816538Y-126258104D01*
X161864157Y-126162866D01*
X161959395Y-126115247D01*
X162102252Y-126115247D01*
X162197490Y-126067628D01*
X162245109Y-125972390D01*
X162245109Y-125924771D01*
X162197490Y-125829533D01*
X162102252Y-125781914D01*
X161959395Y-125781914D01*
X161864157Y-125829533D01*
X161387966Y-126448580D02*
X161387966Y-125781914D01*
X161387966Y-125448580D02*
X161435585Y-125496200D01*
X161387966Y-125543819D01*
X161340347Y-125496200D01*
X161387966Y-125448580D01*
X161387966Y-125543819D01*
X160768919Y-126448580D02*
X160864157Y-126400961D01*
X160911776Y-126353342D01*
X160959395Y-126258104D01*
X160959395Y-125972390D01*
X160911776Y-125877152D01*
X160864157Y-125829533D01*
X160768919Y-125781914D01*
X160626061Y-125781914D01*
X160530823Y-125829533D01*
X160483204Y-125877152D01*
X160435585Y-125972390D01*
X160435585Y-126258104D01*
X160483204Y-126353342D01*
X160530823Y-126400961D01*
X160626061Y-126448580D01*
X160768919Y-126448580D01*
X160007014Y-125781914D02*
X160007014Y-126448580D01*
X160007014Y-125877152D02*
X159959395Y-125829533D01*
X159864157Y-125781914D01*
X159721300Y-125781914D01*
X159626061Y-125829533D01*
X159578442Y-125924771D01*
X159578442Y-126448580D01*
X157864157Y-125448580D02*
X158340347Y-125448580D01*
X158387966Y-125924771D01*
X158340347Y-125877152D01*
X158245109Y-125829533D01*
X158007014Y-125829533D01*
X157911776Y-125877152D01*
X157864157Y-125924771D01*
X157816538Y-126020009D01*
X157816538Y-126258104D01*
X157864157Y-126353342D01*
X157911776Y-126400961D01*
X158007014Y-126448580D01*
X158245109Y-126448580D01*
X158340347Y-126400961D01*
X158387966Y-126353342D01*
X157387966Y-126353342D02*
X157340347Y-126400961D01*
X157387966Y-126448580D01*
X157435585Y-126400961D01*
X157387966Y-126353342D01*
X157387966Y-126448580D01*
X156387966Y-126448580D02*
X156959395Y-126448580D01*
X156673680Y-126448580D02*
X156673680Y-125448580D01*
X156768919Y-125591438D01*
X156864157Y-125686676D01*
X156959395Y-125734295D01*
X155959395Y-126353342D02*
X155911776Y-126400961D01*
X155959395Y-126448580D01*
X156007014Y-126400961D01*
X155959395Y-126353342D01*
X155959395Y-126448580D01*
X154959395Y-126448580D02*
X155530823Y-126448580D01*
X155245109Y-126448580D02*
X155245109Y-125448580D01*
X155340347Y-125591438D01*
X155435585Y-125686676D01*
X155530823Y-125734295D01*
X175578442Y-127431914D02*
X175387966Y-128098580D01*
X175197490Y-127622390D01*
X175007014Y-128098580D01*
X174816538Y-127431914D01*
X174530823Y-127431914D02*
X174340347Y-128098580D01*
X174149871Y-127622390D01*
X173959395Y-128098580D01*
X173768919Y-127431914D01*
X173483204Y-127431914D02*
X173292728Y-128098580D01*
X173102252Y-127622390D01*
X172911776Y-128098580D01*
X172721300Y-127431914D01*
X172340347Y-128003342D02*
X172292728Y-128050961D01*
X172340347Y-128098580D01*
X172387966Y-128050961D01*
X172340347Y-128003342D01*
X172340347Y-128098580D01*
X171435585Y-128050961D02*
X171530823Y-128098580D01*
X171721300Y-128098580D01*
X171816538Y-128050961D01*
X171864157Y-128003342D01*
X171911776Y-127908104D01*
X171911776Y-127622390D01*
X171864157Y-127527152D01*
X171816538Y-127479533D01*
X171721300Y-127431914D01*
X171530823Y-127431914D01*
X171435585Y-127479533D01*
X170864157Y-128098580D02*
X170959395Y-128050961D01*
X171007014Y-128003342D01*
X171054633Y-127908104D01*
X171054633Y-127622390D01*
X171007014Y-127527152D01*
X170959395Y-127479533D01*
X170864157Y-127431914D01*
X170721300Y-127431914D01*
X170626061Y-127479533D01*
X170578442Y-127527152D01*
X170530823Y-127622390D01*
X170530823Y-127908104D01*
X170578442Y-128003342D01*
X170626061Y-128050961D01*
X170721300Y-128098580D01*
X170864157Y-128098580D01*
X170102252Y-127431914D02*
X170102252Y-128098580D01*
X170102252Y-127527152D02*
X170054633Y-127479533D01*
X169959395Y-127431914D01*
X169816538Y-127431914D01*
X169721300Y-127479533D01*
X169673680Y-127574771D01*
X169673680Y-128098580D01*
X169197490Y-127431914D02*
X169197490Y-128098580D01*
X169197490Y-127527152D02*
X169149871Y-127479533D01*
X169054633Y-127431914D01*
X168911776Y-127431914D01*
X168816538Y-127479533D01*
X168768919Y-127574771D01*
X168768919Y-128098580D01*
X167911776Y-128050961D02*
X168007014Y-128098580D01*
X168197490Y-128098580D01*
X168292728Y-128050961D01*
X168340347Y-127955723D01*
X168340347Y-127574771D01*
X168292728Y-127479533D01*
X168197490Y-127431914D01*
X168007014Y-127431914D01*
X167911776Y-127479533D01*
X167864157Y-127574771D01*
X167864157Y-127670009D01*
X168340347Y-127765247D01*
X167007014Y-128050961D02*
X167102252Y-128098580D01*
X167292728Y-128098580D01*
X167387966Y-128050961D01*
X167435585Y-128003342D01*
X167483204Y-127908104D01*
X167483204Y-127622390D01*
X167435585Y-127527152D01*
X167387966Y-127479533D01*
X167292728Y-127431914D01*
X167102252Y-127431914D01*
X167007014Y-127479533D01*
X166721300Y-127431914D02*
X166340347Y-127431914D01*
X166578442Y-127098580D02*
X166578442Y-127955723D01*
X166530823Y-128050961D01*
X166435585Y-128098580D01*
X166340347Y-128098580D01*
X166007014Y-128098580D02*
X166007014Y-127098580D01*
X166007014Y-127479533D02*
X165911776Y-127431914D01*
X165721300Y-127431914D01*
X165626061Y-127479533D01*
X165578442Y-127527152D01*
X165530823Y-127622390D01*
X165530823Y-127908104D01*
X165578442Y-128003342D01*
X165626061Y-128050961D01*
X165721300Y-128098580D01*
X165911776Y-128098580D01*
X166007014Y-128050961D01*
X164959395Y-128098580D02*
X165054633Y-128050961D01*
X165102252Y-128003342D01*
X165149871Y-127908104D01*
X165149871Y-127622390D01*
X165102252Y-127527152D01*
X165054633Y-127479533D01*
X164959395Y-127431914D01*
X164816538Y-127431914D01*
X164721300Y-127479533D01*
X164673680Y-127527152D01*
X164626061Y-127622390D01*
X164626061Y-127908104D01*
X164673680Y-128003342D01*
X164721300Y-128050961D01*
X164816538Y-128098580D01*
X164959395Y-128098580D01*
X164292728Y-128098580D02*
X163768919Y-127431914D01*
X164292728Y-127431914D02*
X163768919Y-128098580D01*
X163387966Y-128003342D02*
X163340347Y-128050961D01*
X163387966Y-128098580D01*
X163435585Y-128050961D01*
X163387966Y-128003342D01*
X163387966Y-128098580D01*
X163054633Y-127431914D02*
X162673680Y-127431914D01*
X162911776Y-127098580D02*
X162911776Y-127955723D01*
X162864157Y-128050961D01*
X162768919Y-128098580D01*
X162673680Y-128098580D01*
X161959395Y-128050961D02*
X162054633Y-128098580D01*
X162245109Y-128098580D01*
X162340347Y-128050961D01*
X162387966Y-127955723D01*
X162387966Y-127574771D01*
X162340347Y-127479533D01*
X162245109Y-127431914D01*
X162054633Y-127431914D01*
X161959395Y-127479533D01*
X161911776Y-127574771D01*
X161911776Y-127670009D01*
X162387966Y-127765247D01*
X161054633Y-128050961D02*
X161149871Y-128098580D01*
X161340347Y-128098580D01*
X161435585Y-128050961D01*
X161483204Y-128003342D01*
X161530823Y-127908104D01*
X161530823Y-127622390D01*
X161483204Y-127527152D01*
X161435585Y-127479533D01*
X161340347Y-127431914D01*
X161149871Y-127431914D01*
X161054633Y-127479533D01*
X160626061Y-128098580D02*
X160626061Y-127098580D01*
X160197490Y-128098580D02*
X160197490Y-127574771D01*
X160245109Y-127479533D01*
X160340347Y-127431914D01*
X160483204Y-127431914D01*
X160578442Y-127479533D01*
X160626061Y-127527152D01*
X159721300Y-127431914D02*
X159721300Y-128098580D01*
X159721300Y-127527152D02*
X159673680Y-127479533D01*
X159578442Y-127431914D01*
X159435585Y-127431914D01*
X159340347Y-127479533D01*
X159292728Y-127574771D01*
X159292728Y-128098580D01*
X158673680Y-128098580D02*
X158768919Y-128050961D01*
X158816538Y-128003342D01*
X158864157Y-127908104D01*
X158864157Y-127622390D01*
X158816538Y-127527152D01*
X158768919Y-127479533D01*
X158673680Y-127431914D01*
X158530823Y-127431914D01*
X158435585Y-127479533D01*
X158387966Y-127527152D01*
X158340347Y-127622390D01*
X158340347Y-127908104D01*
X158387966Y-128003342D01*
X158435585Y-128050961D01*
X158530823Y-128098580D01*
X158673680Y-128098580D01*
X157768919Y-128098580D02*
X157864157Y-128050961D01*
X157911776Y-127955723D01*
X157911776Y-127098580D01*
X157245109Y-128098580D02*
X157340347Y-128050961D01*
X157387966Y-128003342D01*
X157435585Y-127908104D01*
X157435585Y-127622390D01*
X157387966Y-127527152D01*
X157340347Y-127479533D01*
X157245109Y-127431914D01*
X157102252Y-127431914D01*
X157007014Y-127479533D01*
X156959395Y-127527152D01*
X156911776Y-127622390D01*
X156911776Y-127908104D01*
X156959395Y-128003342D01*
X157007014Y-128050961D01*
X157102252Y-128098580D01*
X157245109Y-128098580D01*
X156054633Y-127431914D02*
X156054633Y-128241438D01*
X156102252Y-128336676D01*
X156149871Y-128384295D01*
X156245109Y-128431914D01*
X156387966Y-128431914D01*
X156483204Y-128384295D01*
X156054633Y-128050961D02*
X156149871Y-128098580D01*
X156340347Y-128098580D01*
X156435585Y-128050961D01*
X156483204Y-128003342D01*
X156530823Y-127908104D01*
X156530823Y-127622390D01*
X156483204Y-127527152D01*
X156435585Y-127479533D01*
X156340347Y-127431914D01*
X156149871Y-127431914D01*
X156054633Y-127479533D01*
X155673680Y-127431914D02*
X155435585Y-128098580D01*
X155197490Y-127431914D02*
X155435585Y-128098580D01*
X155530823Y-128336676D01*
X155578442Y-128384295D01*
X155673680Y-128431914D01*
X179005800Y-111558000D02*
X180505800Y-111558000D01*
X180505800Y-116058000D02*
X179005800Y-116058000D01*
X180505800Y-111558000D02*
X180505800Y-116058000D01*
X179005800Y-116058000D02*
X179005800Y-111558000D01*
D11*
X178223800Y-113692028D02*
X178223800Y-114120600D01*
X178252371Y-114206314D01*
X178309514Y-114263457D01*
X178395228Y-114292028D01*
X178452371Y-114292028D01*
X177938085Y-114292028D02*
X177938085Y-113692028D01*
X177709514Y-113692028D01*
X177652371Y-113720600D01*
X177623800Y-113749171D01*
X177595228Y-113806314D01*
X177595228Y-113892028D01*
X177623800Y-113949171D01*
X177652371Y-113977742D01*
X177709514Y-114006314D01*
X177938085Y-114006314D01*
X177023800Y-114292028D02*
X177366657Y-114292028D01*
X177195228Y-114292028D02*
X177195228Y-113692028D01*
X177252371Y-113777742D01*
X177309514Y-113834885D01*
X177366657Y-113863457D01*
M02*
