M48
; DRILL file {KiCad (5.99.0-10509-g065f85b504)} date Sun Jul 11 16:30:34 2021
; FORMAT={-:-/ absolute / metric / decimal}
; #@! TF.CreationDate,2021-07-11T16:30:34-06:00
; #@! TF.GenerationSoftware,Kicad,Pcbnew,(5.99.0-10509-g065f85b504)
; #@! TF.FileFunction,Plated,1,2,PTH
FMAT,2
METRIC
; #@! TA.AperFunction,Plated,PTH,ViaDrill
T1C0.400
; #@! TA.AperFunction,Plated,PTH,ComponentDrill
T2C0.500
; #@! TA.AperFunction,Plated,PTH,ComponentDrill
T3C0.600
; #@! TA.AperFunction,Plated,PTH,ComponentDrill
T4C0.700
; #@! TA.AperFunction,Plated,PTH,ComponentDrill
T5C0.880
; #@! TA.AperFunction,Plated,PTH,ComponentDrill
T6C1.000
; #@! TA.AperFunction,Plated,PTH,ComponentDrill
T7C1.001
; #@! TA.AperFunction,Plated,PTH,ComponentDrill
T8C1.300
; #@! TA.AperFunction,Plated,PTH,ComponentDrill
T9C2.301
; #@! TA.AperFunction,Plated,PTH,ComponentDrill
T10C3.000
%
G90
G05
T1
X133.2Y-76.57
X133.814Y-75.955
X134.419Y-75.353
X134.772Y-90.551
X136.169Y-82.276
X136.474Y-79.527
X136.52Y-71.41
X136.58Y-126.56
X136.61Y-121.29
X136.68Y-76.77
X136.79Y-128.49
X137.97Y-117.87
X138.42Y-74.94
X138.481Y-88.087
X138.996Y-82.151
X138.996Y-83.264
X138.996Y-84.376
X138.996Y-85.489
X139.05Y-69.286
X139.294Y-67.107
X139.665Y-89.002
X139.675Y-125.908
X139.7Y-122.911
X140.005Y-78.74
X140.05Y-85.547
X140.109Y-82.151
X140.109Y-83.264
X140.109Y-84.277
X140.4Y-115.2
X140.56Y-89.731
X140.56Y-91.77
X141.122Y-82.151
X141.221Y-83.264
X141.221Y-84.376
X141.221Y-85.489
X141.47Y-88.117
X141.96Y-128.67
X142.0Y-114.58
X142.189Y-82.151
X142.24Y-85.489
X142.331Y-76.961
X142.334Y-83.261
X142.334Y-84.277
X142.342Y-78.74
X142.672Y-94.742
X142.672Y-111.048
X143.0Y-90.34
X143.42Y-70.59
X143.85Y-77.16
X143.88Y-73.94
X143.916Y-72.898
X144.211Y-132.446
X144.812Y-82.148
X145.593Y-83.16
X145.75Y-70.14
X146.47Y-127.43
X146.82Y-70.91
X146.888Y-129.438
X148.38Y-81.44
X148.619Y-74.71
X148.77Y-69.15
X149.24Y-70.894
X149.33Y-92.18
X149.428Y-96.291
X149.874Y-81.22
X149.96Y-75.19
X149.97Y-68.545
X150.038Y-98.476
X150.67Y-75.59
X151.09Y-98.76
X152.9Y-67.73
X154.91Y-68.23
X156.413Y-68.961
X157.52Y-69.694
X158.35Y-73.23
X161.011Y-67.996
X161.08Y-76.73
X161.56Y-74.941
X162.7Y-71.65
X164.41Y-128.56
X164.45Y-114.87
X164.643Y-68.148
X165.03Y-82.95
X166.141Y-129.413
X166.268Y-64.465
X167.82Y-75.92
X169.45Y-69.01
X171.038Y-113.504
X171.1Y-119.3
X171.78Y-120.63
X171.975Y-67.987
X172.22Y-77.69
X172.415Y-119.934
X172.974Y-70.841
X173.02Y-111.795
X173.02Y-114.19
X173.355Y-64.389
X175.641Y-67.285
X175.666Y-86.055
X177.06Y-115.92
X177.899Y-74.361
X178.32Y-116.5
X178.333Y-64.414
X179.79Y-77.72
X179.96Y-80.49
X180.714Y-90.26
X182.51Y-80.12
X184.29Y-105.47
X184.498Y-103.58
X185.067Y-104.358
X185.82Y-109.24
X185.85Y-97.93
T2
X181.81Y-66.24
X181.81Y-67.49
T4
X132.105Y-116.713
X132.59Y-70.38
X136.322Y-133.121
X175.77Y-69.62
X184.77Y-76.68
X185.21Y-123.88
T5
X151.94Y-116.158
X151.94Y-118.158
X151.94Y-120.158
X151.94Y-122.158
X151.94Y-124.158
X151.94Y-126.158
X153.94Y-116.158
X153.94Y-118.158
X153.94Y-120.158
X153.94Y-122.158
X153.94Y-124.158
X153.94Y-126.158
T6
X143.408Y-66.624
X144.729Y-117.262
X144.729Y-119.802
X144.729Y-122.342
X144.729Y-124.882
X144.729Y-127.422
X145.948Y-66.624
X148.488Y-66.624
X149.01Y-115.13
X149.01Y-117.13
X149.01Y-119.13
X149.01Y-121.13
X149.01Y-123.13
X149.01Y-125.13
X151.028Y-66.624
X166.31Y-124.33
X168.06Y-116.43
X176.01Y-114.48
X176.01Y-117.48
X176.01Y-122.78
X176.01Y-125.78
X179.781Y-99.482
X179.781Y-102.022
X179.781Y-104.562
X179.781Y-107.102
X179.781Y-109.642
X179.781Y-112.182
X179.781Y-114.722
X179.781Y-117.262
X179.781Y-119.802
X179.781Y-122.342
X179.781Y-124.882
X179.781Y-127.422
X182.321Y-109.642
X182.321Y-112.182
X182.321Y-114.722
X182.321Y-117.262
X182.321Y-119.802
X182.321Y-122.342
X182.321Y-124.882
X182.321Y-127.422
T7
X140.79Y-102.768
X140.79Y-105.268
X140.79Y-107.268
X140.79Y-109.768
T8
X158.51Y-117.83
T9
X138.08Y-99.698
X138.08Y-112.838
T3
G00X130.582Y-119.8
M15
G01X129.782Y-119.8
M16
G05
G00X130.582Y-128.44
M15
G01X129.782Y-128.44
M16
G05
G00X134.912Y-119.8
M15
G01X133.812Y-119.8
M16
G05
G00X134.912Y-128.44
M15
G01X133.812Y-128.44
M16
G05
T10
G00X129.424Y-66.599
M15
G01X133.924Y-66.599
M16
G05
G00X129.424Y-131.267
M15
G01X133.924Y-131.267
M16
G05
T0
M30
