G04 #@! TF.GenerationSoftware,KiCad,Pcbnew,(5.99.0-10509-g065f85b504)*
G04 #@! TF.CreationDate,2021-07-11T16:30:23-06:00*
G04 #@! TF.ProjectId,HAT_ver_7,4841545f-7665-4725-9f37-2e6b69636164,7.0.6*
G04 #@! TF.SameCoordinates,Original*
G04 #@! TF.FileFunction,Soldermask,Bot*
G04 #@! TF.FilePolarity,Negative*
%FSLAX46Y46*%
G04 Gerber Fmt 4.6, Leading zero omitted, Abs format (unit mm)*
G04 Created by KiCad (PCBNEW (5.99.0-10509-g065f85b504)) date 2021-07-11 16:30:23*
%MOMM*%
%LPD*%
G01*
G04 APERTURE LIST*
G04 Aperture macros list*
%AMRoundRect*
0 Rectangle with rounded corners*
0 $1 Rounding radius*
0 $2 $3 $4 $5 $6 $7 $8 $9 X,Y pos of 4 corners*
0 Add a 4 corners polygon primitive as box body*
4,1,4,$2,$3,$4,$5,$6,$7,$8,$9,$2,$3,0*
0 Add four circle primitives for the rounded corners*
1,1,$1+$1,$2,$3*
1,1,$1+$1,$4,$5*
1,1,$1+$1,$6,$7*
1,1,$1+$1,$8,$9*
0 Add four rect primitives between the rounded corners*
20,1,$1+$1,$2,$3,$4,$5,0*
20,1,$1+$1,$4,$5,$6,$7,0*
20,1,$1+$1,$6,$7,$8,$9,0*
20,1,$1+$1,$8,$9,$2,$3,0*%
%AMRotRect*
0 Rectangle, with rotation*
0 The origin of the aperture is its center*
0 $1 length*
0 $2 width*
0 $3 Rotation angle, in degrees counterclockwise*
0 Add horizontal line*
21,1,$1,$2,0,0,$3*%
G04 Aperture macros list end*
%ADD10C,1.501140*%
%ADD11C,2.999740*%
%ADD12R,1.700000X1.700000*%
%ADD13O,1.700000X1.700000*%
%ADD14RoundRect,0.200000X-0.450000X0.200000X-0.450000X-0.200000X0.450000X-0.200000X0.450000X0.200000X0*%
%ADD15O,1.300000X0.800000*%
%ADD16C,1.500000*%
%ADD17O,2.200000X1.200000*%
%ADD18R,6.400000X6.400000*%
%ADD19RotRect,1.800000X1.800000X315.000000*%
%ADD20R,0.400000X1.500000*%
%ADD21O,7.500000X3.000000*%
%ADD22C,1.524000*%
%ADD23C,2.999999*%
%ADD24C,0.750000*%
%ADD25O,2.100000X1.000000*%
%ADD26O,1.800000X1.000000*%
%ADD27R,3.800000X0.700000*%
%ADD28R,2.000000X0.600000*%
G04 APERTURE END LIST*
D10*
X140790080Y-102767540D03*
X140790080Y-105267540D03*
X140790080Y-107267540D03*
X140790080Y-109767540D03*
D11*
X138080080Y-99697540D03*
X138080080Y-112837540D03*
D12*
X182321200Y-127422000D03*
D13*
X182321200Y-124882000D03*
X182321200Y-122342000D03*
X182321200Y-119802000D03*
X182321200Y-117262000D03*
X182321200Y-114722000D03*
X182321200Y-112182000D03*
X182321200Y-109642000D03*
D14*
X181810000Y-67490000D03*
D15*
X181810000Y-66240000D03*
D16*
X132105400Y-116713000D03*
X175770000Y-69620000D03*
X136321800Y-133121400D03*
X132590000Y-70380000D03*
X185210000Y-123880000D03*
D12*
X143408400Y-66624400D03*
D13*
X145948400Y-66624400D03*
X148488400Y-66624400D03*
X151028400Y-66624400D03*
D16*
X184770000Y-76680000D03*
D17*
X149010000Y-125130000D03*
X149010000Y-123130000D03*
X149010000Y-121130000D03*
X149010000Y-119130000D03*
X149010000Y-117130000D03*
X149010000Y-115130000D03*
X176010000Y-114480000D03*
X176010000Y-117480000D03*
X176010000Y-122780000D03*
X176010000Y-125780000D03*
D18*
X158510000Y-117830000D03*
D19*
X168060000Y-116430000D03*
X166310000Y-124330000D03*
D20*
X181050000Y-115760000D03*
X181050000Y-113760000D03*
D21*
X131673600Y-131267200D03*
D22*
X153939600Y-116158000D03*
X153939600Y-118158000D03*
X153939600Y-120158000D03*
X153939600Y-122158000D03*
X153939600Y-124158000D03*
X153939600Y-126158000D03*
X151939600Y-116158000D03*
X151939600Y-118158000D03*
X151939600Y-120158000D03*
X151939600Y-122158000D03*
X151939600Y-124158000D03*
X151939600Y-126158000D03*
D12*
X144729200Y-127422000D03*
D13*
X144729200Y-124882000D03*
X144729200Y-122342000D03*
X144729200Y-119802000D03*
X144729200Y-117262000D03*
D12*
X179781200Y-127422000D03*
D13*
X179781200Y-124882000D03*
X179781200Y-122342000D03*
X179781200Y-119802000D03*
X179781200Y-117262000D03*
X179781200Y-114722000D03*
X179781200Y-112182000D03*
X179781200Y-109642000D03*
X179781200Y-107102000D03*
X179781200Y-104562000D03*
X179781200Y-102022000D03*
X179781200Y-99482000D03*
D23*
X182524400Y-131267200D03*
D21*
X131673600Y-66598800D03*
D24*
X133862500Y-127010000D03*
X133862500Y-121230000D03*
D25*
X134362500Y-119800000D03*
D26*
X130182500Y-119800000D03*
D25*
X134362500Y-128440000D03*
D26*
X130182500Y-128440000D03*
D27*
X184210000Y-106580000D03*
X184210000Y-99580000D03*
D28*
X182310000Y-100580000D03*
X182310000Y-101580000D03*
X182310000Y-102580000D03*
X182310000Y-103580000D03*
X182310000Y-104580000D03*
X182310000Y-105580000D03*
M02*
