G04 #@! TF.GenerationSoftware,KiCad,Pcbnew,(5.99.0-10509-g065f85b504)*
G04 #@! TF.CreationDate,2021-07-11T16:30:22-06:00*
G04 #@! TF.ProjectId,HAT_ver_7,4841545f-7665-4725-9f37-2e6b69636164,7.0.6*
G04 #@! TF.SameCoordinates,Original*
G04 #@! TF.FileFunction,Copper,L1,Top*
G04 #@! TF.FilePolarity,Positive*
%FSLAX46Y46*%
G04 Gerber Fmt 4.6, Leading zero omitted, Abs format (unit mm)*
G04 Created by KiCad (PCBNEW (5.99.0-10509-g065f85b504)) date 2021-07-11 16:30:22*
%MOMM*%
%LPD*%
G01*
G04 APERTURE LIST*
G04 Aperture macros list*
%AMRoundRect*
0 Rectangle with rounded corners*
0 $1 Rounding radius*
0 $2 $3 $4 $5 $6 $7 $8 $9 X,Y pos of 4 corners*
0 Add a 4 corners polygon primitive as box body*
4,1,4,$2,$3,$4,$5,$6,$7,$8,$9,$2,$3,0*
0 Add four circle primitives for the rounded corners*
1,1,$1+$1,$2,$3*
1,1,$1+$1,$4,$5*
1,1,$1+$1,$6,$7*
1,1,$1+$1,$8,$9*
0 Add four rect primitives between the rounded corners*
20,1,$1+$1,$2,$3,$4,$5,0*
20,1,$1+$1,$4,$5,$6,$7,0*
20,1,$1+$1,$6,$7,$8,$9,0*
20,1,$1+$1,$8,$9,$2,$3,0*%
%AMRotRect*
0 Rectangle, with rotation*
0 The origin of the aperture is its center*
0 $1 length*
0 $2 width*
0 $3 Rotation angle, in degrees counterclockwise*
0 Add horizontal line*
21,1,$1,$2,0,0,$3*%
%AMFreePoly0*
4,1,6,1.000000,0.000000,0.500000,-0.750000,-0.500000,-0.750000,-0.500000,0.750000,0.500000,0.750000,1.000000,0.000000,1.000000,0.000000,$1*%
%AMFreePoly1*
4,1,6,0.500000,-0.750000,-0.650000,-0.750000,-0.150000,0.000000,-0.650000,0.750000,0.500000,0.750000,0.500000,-0.750000,0.500000,-0.750000,$1*%
G04 Aperture macros list end*
G04 #@! TA.AperFunction,SMDPad,CuDef*
%ADD10R,1.400000X1.600000*%
G04 #@! TD*
G04 #@! TA.AperFunction,SMDPad,CuDef*
%ADD11R,1.200000X0.600000*%
G04 #@! TD*
G04 #@! TA.AperFunction,SMDPad,CuDef*
%ADD12RoundRect,0.243750X-0.456250X0.243750X-0.456250X-0.243750X0.456250X-0.243750X0.456250X0.243750X0*%
G04 #@! TD*
G04 #@! TA.AperFunction,SMDPad,CuDef*
%ADD13R,1.800000X5.700000*%
G04 #@! TD*
G04 #@! TA.AperFunction,SMDPad,CuDef*
%ADD14R,1.220000X1.250000*%
G04 #@! TD*
G04 #@! TA.AperFunction,SMDPad,CuDef*
%ADD15R,0.800000X0.200000*%
G04 #@! TD*
G04 #@! TA.AperFunction,SMDPad,CuDef*
%ADD16R,0.200000X0.800000*%
G04 #@! TD*
G04 #@! TA.AperFunction,SMDPad,CuDef*
%ADD17R,1.112500X1.112500*%
G04 #@! TD*
G04 #@! TA.AperFunction,ComponentPad*
%ADD18C,1.501140*%
G04 #@! TD*
G04 #@! TA.AperFunction,ComponentPad*
%ADD19C,2.999740*%
G04 #@! TD*
G04 #@! TA.AperFunction,ComponentPad*
%ADD20R,1.700000X1.700000*%
G04 #@! TD*
G04 #@! TA.AperFunction,ComponentPad*
%ADD21O,1.700000X1.700000*%
G04 #@! TD*
G04 #@! TA.AperFunction,ComponentPad*
%ADD22RoundRect,0.200000X-0.450000X0.200000X-0.450000X-0.200000X0.450000X-0.200000X0.450000X0.200000X0*%
G04 #@! TD*
G04 #@! TA.AperFunction,ComponentPad*
%ADD23O,1.300000X0.800000*%
G04 #@! TD*
G04 #@! TA.AperFunction,SMDPad,CuDef*
%ADD24RoundRect,0.243750X0.243750X0.456250X-0.243750X0.456250X-0.243750X-0.456250X0.243750X-0.456250X0*%
G04 #@! TD*
G04 #@! TA.AperFunction,SMDPad,CuDef*
%ADD25RoundRect,0.243750X0.456250X-0.243750X0.456250X0.243750X-0.456250X0.243750X-0.456250X-0.243750X0*%
G04 #@! TD*
G04 #@! TA.AperFunction,SMDPad,CuDef*
%ADD26R,0.900000X0.800000*%
G04 #@! TD*
G04 #@! TA.AperFunction,ComponentPad*
%ADD27C,1.500000*%
G04 #@! TD*
G04 #@! TA.AperFunction,SMDPad,CuDef*
%ADD28RoundRect,0.243750X-0.243750X-0.456250X0.243750X-0.456250X0.243750X0.456250X-0.243750X0.456250X0*%
G04 #@! TD*
G04 #@! TA.AperFunction,SMDPad,CuDef*
%ADD29RoundRect,0.218750X-0.256250X0.218750X-0.256250X-0.218750X0.256250X-0.218750X0.256250X0.218750X0*%
G04 #@! TD*
G04 #@! TA.AperFunction,ComponentPad*
%ADD30O,2.200000X1.200000*%
G04 #@! TD*
G04 #@! TA.AperFunction,ComponentPad*
%ADD31R,6.400000X6.400000*%
G04 #@! TD*
G04 #@! TA.AperFunction,ComponentPad*
%ADD32RotRect,1.800000X1.800000X315.000000*%
G04 #@! TD*
G04 #@! TA.AperFunction,SMDPad,CuDef*
%ADD33RoundRect,0.250000X-0.262500X-0.450000X0.262500X-0.450000X0.262500X0.450000X-0.262500X0.450000X0*%
G04 #@! TD*
G04 #@! TA.AperFunction,ComponentPad*
%ADD34O,7.500000X3.000000*%
G04 #@! TD*
G04 #@! TA.AperFunction,ComponentPad*
%ADD35C,1.524000*%
G04 #@! TD*
G04 #@! TA.AperFunction,SMDPad,CuDef*
%ADD36RoundRect,0.250000X0.250000X0.475000X-0.250000X0.475000X-0.250000X-0.475000X0.250000X-0.475000X0*%
G04 #@! TD*
G04 #@! TA.AperFunction,SMDPad,CuDef*
%ADD37FreePoly0,180.000000*%
G04 #@! TD*
G04 #@! TA.AperFunction,SMDPad,CuDef*
%ADD38FreePoly1,180.000000*%
G04 #@! TD*
G04 #@! TA.AperFunction,SMDPad,CuDef*
%ADD39R,0.950000X0.600000*%
G04 #@! TD*
G04 #@! TA.AperFunction,ComponentPad*
%ADD40O,2.100000X1.000000*%
G04 #@! TD*
G04 #@! TA.AperFunction,ComponentPad*
%ADD41O,1.800000X1.000000*%
G04 #@! TD*
G04 #@! TA.AperFunction,SMDPad,CuDef*
%ADD42R,1.150000X0.600000*%
G04 #@! TD*
G04 #@! TA.AperFunction,SMDPad,CuDef*
%ADD43R,1.150000X0.300000*%
G04 #@! TD*
G04 #@! TA.AperFunction,SMDPad,CuDef*
%ADD44RoundRect,0.250000X0.450000X-0.262500X0.450000X0.262500X-0.450000X0.262500X-0.450000X-0.262500X0*%
G04 #@! TD*
G04 #@! TA.AperFunction,ViaPad*
%ADD45C,0.600000*%
G04 #@! TD*
G04 #@! TA.AperFunction,Conductor*
%ADD46C,0.250000*%
G04 #@! TD*
G04 #@! TA.AperFunction,Conductor*
%ADD47C,0.200000*%
G04 #@! TD*
G04 #@! TA.AperFunction,Conductor*
%ADD48C,0.500000*%
G04 #@! TD*
G04 #@! TA.AperFunction,Conductor*
%ADD49C,0.254000*%
G04 #@! TD*
G04 #@! TA.AperFunction,Conductor*
%ADD50C,0.508000*%
G04 #@! TD*
G04 #@! TA.AperFunction,Conductor*
%ADD51C,0.400000*%
G04 #@! TD*
G04 APERTURE END LIST*
D10*
X167936800Y-77700000D03*
X167936800Y-70500000D03*
X170936800Y-70500000D03*
X170936800Y-77700000D03*
D11*
X182040000Y-89160000D03*
X182040000Y-90110000D03*
X182040000Y-91060000D03*
X184640000Y-91060000D03*
X184640000Y-90110000D03*
X184640000Y-89160000D03*
D12*
X175700000Y-82872500D03*
X175700000Y-84747500D03*
D11*
X170870000Y-80900000D03*
X170870000Y-81850000D03*
X170870000Y-82800000D03*
X173470000Y-82800000D03*
X173470000Y-81850000D03*
X173470000Y-80900000D03*
D13*
X164630000Y-71670000D03*
X159930000Y-71670000D03*
D14*
X179790000Y-94920000D03*
X179790000Y-91920000D03*
D15*
X137665200Y-81620000D03*
X137665200Y-82020000D03*
X137665200Y-82420000D03*
X137665200Y-82820000D03*
X137665200Y-83220000D03*
X137665200Y-83620000D03*
X137665200Y-84020000D03*
X137665200Y-84420000D03*
X137665200Y-84820000D03*
X137665200Y-85220000D03*
X137665200Y-85620000D03*
X137665200Y-86020000D03*
D16*
X138465200Y-86820000D03*
X138865200Y-86820000D03*
X139265200Y-86820000D03*
X139665200Y-86820000D03*
X140065200Y-86820000D03*
X140465200Y-86820000D03*
X140865200Y-86820000D03*
X141265200Y-86820000D03*
X141665200Y-86820000D03*
X142065200Y-86820000D03*
X142465200Y-86820000D03*
X142865200Y-86820000D03*
D15*
X143665200Y-86020000D03*
X143665200Y-85620000D03*
X143665200Y-85220000D03*
X143665200Y-84820000D03*
X143665200Y-84420000D03*
X143665200Y-84020000D03*
X143665200Y-83620000D03*
X143665200Y-83220000D03*
X143665200Y-82820000D03*
X143665200Y-82420000D03*
X143665200Y-82020000D03*
X143665200Y-81620000D03*
D16*
X142865200Y-80820000D03*
X142465200Y-80820000D03*
X142065200Y-80820000D03*
X141665200Y-80820000D03*
X141265200Y-80820000D03*
X140865200Y-80820000D03*
X140465200Y-80820000D03*
X140065200Y-80820000D03*
X139665200Y-80820000D03*
X139265200Y-80820000D03*
X138865200Y-80820000D03*
X138465200Y-80820000D03*
D17*
X142333950Y-82151250D03*
X140108950Y-85488750D03*
X141221450Y-83263750D03*
X142333950Y-83263750D03*
X141221450Y-82151250D03*
X142333950Y-84376250D03*
X141221450Y-84376250D03*
X141221450Y-85488750D03*
X138996450Y-85488750D03*
X140108950Y-84376250D03*
X138996450Y-83263750D03*
X138996450Y-82151250D03*
X140108950Y-83263750D03*
X142333950Y-85488750D03*
X140108950Y-82151250D03*
X138996450Y-84376250D03*
D18*
X140790080Y-102767540D03*
X140790080Y-105267540D03*
X140790080Y-107267540D03*
X140790080Y-109767540D03*
D19*
X138080080Y-99697540D03*
X138080080Y-112837540D03*
D20*
X182321200Y-127422000D03*
D21*
X182321200Y-124882000D03*
X182321200Y-122342000D03*
X182321200Y-119802000D03*
X182321200Y-117262000D03*
X182321200Y-114722000D03*
X182321200Y-112182000D03*
X182321200Y-109642000D03*
D22*
X181810000Y-67490000D03*
D23*
X181810000Y-66240000D03*
D24*
X141217500Y-118460000D03*
X139342500Y-118460000D03*
D25*
X165570000Y-78927500D03*
X165570000Y-77052500D03*
X163510000Y-78977500D03*
X163510000Y-77102500D03*
D26*
X167000000Y-84740000D03*
X169000000Y-83790000D03*
X167000000Y-82840000D03*
D27*
X132105400Y-116713000D03*
X175770000Y-69620000D03*
X136321800Y-133121400D03*
X132590000Y-70380000D03*
X185210000Y-123880000D03*
D25*
X185090000Y-117877500D03*
X185090000Y-116002500D03*
D28*
X144962500Y-74730000D03*
X146837500Y-74730000D03*
X144972500Y-72550000D03*
X146847500Y-72550000D03*
D12*
X135980000Y-73745000D03*
X135980000Y-75620000D03*
D28*
X177142500Y-80160000D03*
X179017500Y-80160000D03*
D24*
X149308300Y-90830400D03*
X147433300Y-90830400D03*
X149222700Y-83870800D03*
X147347700Y-83870800D03*
D28*
X182792500Y-100080000D03*
X184667500Y-100080000D03*
X182792500Y-97890000D03*
X184667500Y-97890000D03*
D24*
X146907500Y-110580000D03*
X145032500Y-110580000D03*
X139443700Y-91084400D03*
X137568700Y-91084400D03*
X139554700Y-93624400D03*
X137679700Y-93624400D03*
X146927500Y-77010000D03*
X145052500Y-77010000D03*
D12*
X149250400Y-130329700D03*
X149250400Y-132204700D03*
D25*
X144221200Y-106652300D03*
X144221200Y-104777300D03*
D24*
X142110700Y-74168000D03*
X140235700Y-74168000D03*
D25*
X157734000Y-67104500D03*
X157734000Y-65229500D03*
D28*
X144915000Y-78980000D03*
X146790000Y-78980000D03*
X141642500Y-91860000D03*
X143517500Y-91860000D03*
D12*
X164592000Y-65204100D03*
X164592000Y-67079100D03*
D25*
X162306000Y-67079100D03*
X162306000Y-65204100D03*
D24*
X147520900Y-96316800D03*
X145645900Y-96316800D03*
X147495500Y-98577400D03*
X145620500Y-98577400D03*
X148460700Y-107086400D03*
X146585700Y-107086400D03*
X148460700Y-104495600D03*
X146585700Y-104495600D03*
X149410700Y-88442800D03*
X147535700Y-88442800D03*
D25*
X155067000Y-67079100D03*
X155067000Y-65204100D03*
D28*
X182742500Y-95510000D03*
X184617500Y-95510000D03*
D24*
X184567500Y-93460000D03*
X182692500Y-93460000D03*
D25*
X184950000Y-112337500D03*
X184950000Y-110462500D03*
D10*
X177898800Y-70500000D03*
X177898800Y-77700000D03*
X180898800Y-77700000D03*
X180898800Y-70500000D03*
D28*
X139342500Y-116290000D03*
X141217500Y-116290000D03*
D20*
X143408400Y-66624400D03*
D21*
X145948400Y-66624400D03*
X148488400Y-66624400D03*
X151028400Y-66624400D03*
D29*
X176883600Y-65201700D03*
X176883600Y-66776700D03*
X174445200Y-65201700D03*
X174445200Y-66776700D03*
X172006800Y-65201700D03*
X172006800Y-66776700D03*
D28*
X134904000Y-117652800D03*
X136779000Y-117652800D03*
D13*
X182581800Y-84377400D03*
X177881800Y-84377400D03*
D27*
X184770000Y-76680000D03*
D30*
X149010000Y-125130000D03*
X149010000Y-123130000D03*
X149010000Y-121130000D03*
X149010000Y-119130000D03*
X149010000Y-117130000D03*
X149010000Y-115130000D03*
X176010000Y-114480000D03*
X176010000Y-117480000D03*
X176010000Y-122780000D03*
X176010000Y-125780000D03*
D31*
X158510000Y-117830000D03*
D32*
X168060000Y-116430000D03*
X166310000Y-124330000D03*
D33*
X140997300Y-132892800D03*
X142822300Y-132892800D03*
D34*
X131673600Y-131267200D03*
D35*
X153939600Y-116158000D03*
X153939600Y-118158000D03*
X153939600Y-120158000D03*
X153939600Y-122158000D03*
X153939600Y-124158000D03*
X153939600Y-126158000D03*
X151939600Y-116158000D03*
X151939600Y-118158000D03*
X151939600Y-120158000D03*
X151939600Y-122158000D03*
X151939600Y-124158000D03*
X151939600Y-126158000D03*
D20*
X144729200Y-127422000D03*
D21*
X144729200Y-124882000D03*
X144729200Y-122342000D03*
X144729200Y-119802000D03*
X144729200Y-117262000D03*
D36*
X149340000Y-86350000D03*
X147440000Y-86350000D03*
D20*
X179781200Y-127422000D03*
D21*
X179781200Y-124882000D03*
X179781200Y-122342000D03*
X179781200Y-119802000D03*
X179781200Y-117262000D03*
X179781200Y-114722000D03*
X179781200Y-112182000D03*
X179781200Y-109642000D03*
X179781200Y-107102000D03*
X179781200Y-104562000D03*
X179781200Y-102022000D03*
X179781200Y-99482000D03*
D26*
X162940000Y-84870000D03*
X164940000Y-83920000D03*
X162940000Y-82970000D03*
D37*
X166256800Y-132638800D03*
D38*
X164806800Y-132638800D03*
D39*
X141855600Y-127628400D03*
X138255600Y-126628400D03*
X141855600Y-125628400D03*
X138255600Y-124628400D03*
X141855600Y-123628400D03*
D34*
X131673600Y-66598800D03*
D40*
X134362500Y-119800000D03*
D41*
X130182500Y-119800000D03*
D40*
X134362500Y-128440000D03*
D41*
X130182500Y-128440000D03*
D42*
X134937500Y-120920000D03*
X134937500Y-121720000D03*
D43*
X134937500Y-122870000D03*
X134937500Y-123870000D03*
X134937500Y-124370000D03*
X134937500Y-125370000D03*
D42*
X134937500Y-127320000D03*
X134937500Y-126520000D03*
D43*
X134937500Y-125870000D03*
X134937500Y-124870000D03*
X134937500Y-123370000D03*
X134937500Y-122370000D03*
D26*
X145151600Y-130545800D03*
X145151600Y-132445800D03*
X147151600Y-131495800D03*
D44*
X182830000Y-106182500D03*
X182830000Y-104357500D03*
D45*
X158350000Y-73230000D03*
X138420000Y-74940000D03*
X149428200Y-96291400D03*
X161080000Y-76730000D03*
X171037553Y-113504500D03*
X171100000Y-119300000D03*
X184498000Y-103580000D03*
X171974693Y-67987093D03*
X156413200Y-68961000D03*
X162700000Y-71650000D03*
X143916400Y-72898000D03*
X171780000Y-120630000D03*
X133814500Y-75955260D03*
X172414500Y-119934500D03*
X136169400Y-82276199D03*
X136474200Y-79527400D03*
X134419000Y-75352595D03*
X138480800Y-88087200D03*
X144811990Y-82148200D03*
X140004800Y-78740000D03*
X148770000Y-69150000D03*
X139050000Y-69286100D03*
X169450000Y-69010000D03*
X157520000Y-69694020D03*
X141469720Y-88117000D03*
X142341602Y-78740000D03*
X149970000Y-68545500D03*
X185820000Y-109240000D03*
X154910000Y-68230000D03*
X161010600Y-67995800D03*
X142671800Y-111048200D03*
X146470000Y-127430000D03*
X142671800Y-94742000D03*
X136610000Y-121290000D03*
X145592810Y-83159600D03*
X136580000Y-126560000D03*
X179790000Y-77720000D03*
X133200000Y-76570000D03*
X143000000Y-90340000D03*
X143420000Y-70590000D03*
X172974000Y-70840600D03*
X172220000Y-77690000D03*
X185067500Y-104357500D03*
X134772400Y-90551000D03*
X149330000Y-92180000D03*
X139293600Y-67106800D03*
X142330715Y-76960715D03*
X143849500Y-77160000D03*
X136680000Y-76770000D03*
X165030000Y-82950000D03*
X167820000Y-75920000D03*
X177898800Y-74361200D03*
X150670000Y-75590000D03*
X150037800Y-98475800D03*
X173020000Y-114190000D03*
X173020000Y-111795500D03*
X142000000Y-114580000D03*
X140050500Y-85547200D03*
X142189200Y-82151250D03*
X142240000Y-85488750D03*
X140108950Y-82151250D03*
X180713900Y-90260000D03*
X146820000Y-70910000D03*
X140108950Y-84277200D03*
X141221450Y-83263750D03*
X137970053Y-117869947D03*
X182510000Y-80120000D03*
X138996450Y-83263750D03*
X144211000Y-132445800D03*
X175666400Y-86055200D03*
X140108950Y-83263750D03*
X138996450Y-84376250D03*
X139665200Y-89001600D03*
X141122400Y-82151250D03*
X136790000Y-128490000D03*
X148380000Y-81440000D03*
X185850000Y-97930000D03*
X149240000Y-70894500D03*
X138996450Y-82151250D03*
X141221450Y-85488750D03*
X141221450Y-84376250D03*
X148619500Y-74710000D03*
X142333950Y-83261200D03*
X136520000Y-71410000D03*
X142333950Y-84277200D03*
X179960000Y-80490000D03*
X138996450Y-85488750D03*
X143880000Y-73940000D03*
X140560000Y-89731100D03*
X140560000Y-91770000D03*
X149874500Y-81220000D03*
X149960000Y-75190000D03*
X140400000Y-115200000D03*
X161560000Y-74940980D03*
X145750000Y-70140000D03*
X175641000Y-67284600D03*
X166268400Y-64465200D03*
X178333400Y-64414400D03*
X152900000Y-67730000D03*
X173355000Y-64389000D03*
X151090000Y-98760000D03*
X178319989Y-116500000D03*
X164642800Y-68148200D03*
X184290000Y-105470000D03*
X139674600Y-125907800D03*
X164450000Y-114870000D03*
X139700000Y-122910600D03*
X164410000Y-128560000D03*
X177060000Y-115920000D03*
X141960000Y-128670000D03*
X166141400Y-129413000D03*
X146888200Y-129438400D03*
D46*
X138458500Y-78666900D02*
X139406002Y-79614402D01*
D47*
X139665200Y-80820000D02*
X139665200Y-79873600D01*
D48*
X158390000Y-73270000D02*
X159380000Y-73270000D01*
D46*
X138458500Y-74978500D02*
X138458500Y-78666900D01*
D48*
X158350000Y-73230000D02*
X158390000Y-73270000D01*
D46*
X138420000Y-74940000D02*
X138458500Y-74978500D01*
D47*
X139665200Y-79873600D02*
X139406002Y-79614402D01*
X161080000Y-79460000D02*
X162940000Y-81320000D01*
X162940000Y-82970000D02*
X162940000Y-81320000D01*
X161080000Y-79460000D02*
X161080000Y-76730000D01*
D46*
X171037553Y-119237553D02*
X171037553Y-113504500D01*
X171100000Y-119300000D02*
X171037553Y-119237553D01*
X149402800Y-96316800D02*
X149428200Y-96291400D01*
X147533400Y-96316800D02*
X149402800Y-96316800D01*
D47*
X184498000Y-103028000D02*
X182580000Y-101110000D01*
X182580000Y-101110000D02*
X181620000Y-101110000D01*
X184498000Y-103580000D02*
X184498000Y-103028000D01*
X181620000Y-101110000D02*
X179960000Y-99450000D01*
D46*
X156413200Y-66537800D02*
X156413200Y-68961000D01*
X155067000Y-65191600D02*
X156413200Y-66537800D01*
X171974693Y-66770607D02*
X171974693Y-67987093D01*
D47*
X140690723Y-77680723D02*
X140200000Y-77190000D01*
D48*
X140200000Y-77190000D02*
X140200000Y-73261600D01*
X140563600Y-72898000D02*
X143916400Y-72898000D01*
D47*
X140690723Y-78979799D02*
X140690723Y-77680723D01*
X140465200Y-80820000D02*
X140465200Y-79205322D01*
D48*
X140200000Y-73261600D02*
X140563600Y-72898000D01*
D46*
X145278600Y-72898000D02*
X143916400Y-72898000D01*
D47*
X140465200Y-79205322D02*
X140690723Y-78979799D01*
D48*
X162700000Y-71650000D02*
X164610000Y-71650000D01*
D46*
X145113600Y-85620000D02*
X147320000Y-83413600D01*
D47*
X144040400Y-85220000D02*
X144062800Y-85242400D01*
X143665200Y-85220000D02*
X144040400Y-85220000D01*
X144062800Y-85242400D02*
X145491200Y-85242400D01*
X145113600Y-85620000D02*
X143665200Y-85620000D01*
X143285200Y-87240000D02*
X142865200Y-86820000D01*
X147020000Y-87240000D02*
X143285200Y-87240000D01*
X147421600Y-86838400D02*
X147020000Y-87240000D01*
D48*
X179984400Y-85080000D02*
X179984400Y-89224400D01*
X179984400Y-89224400D02*
X179984400Y-91955600D01*
X179984400Y-85080000D02*
X179281800Y-84377400D01*
X179984400Y-89224400D02*
X181974400Y-89224400D01*
X179281800Y-84377400D02*
X177881800Y-84377400D01*
X181974400Y-89224400D02*
X181980000Y-89230000D01*
D46*
X171780000Y-113310000D02*
X170840000Y-112370000D01*
X170840000Y-112370000D02*
X151512566Y-112370000D01*
X149278080Y-110135514D02*
X149278080Y-107978080D01*
X146405600Y-101168200D02*
X143967200Y-101168200D01*
X135377401Y-90260599D02*
X134721600Y-89604798D01*
X151512566Y-112370000D02*
X149278080Y-110135514D01*
X135971023Y-81372452D02*
X135971023Y-80303611D01*
X142062200Y-96520000D02*
X137488725Y-96519999D01*
D47*
X137665200Y-81620000D02*
X135723475Y-81620000D01*
D46*
X134721600Y-82621875D02*
X135971023Y-81372452D01*
X134721600Y-89604798D02*
X134721600Y-82621875D01*
X149278080Y-107978080D02*
X148420000Y-107120000D01*
X137488725Y-96519999D02*
X135377401Y-94408675D01*
X135377401Y-94408675D02*
X135377401Y-90260599D01*
X171780000Y-120630000D02*
X171780000Y-113310000D01*
X133814500Y-78147088D02*
X133814500Y-75955260D01*
X135971023Y-80303611D02*
X133814500Y-78147088D01*
X147624800Y-106804800D02*
X147940000Y-107120000D01*
X147624800Y-102387400D02*
X147624800Y-106804800D01*
X147940000Y-107120000D02*
X148500000Y-107120000D01*
X143967200Y-101168200D02*
X143078200Y-100279200D01*
X143078200Y-97536000D02*
X142062200Y-96520000D01*
X143078200Y-100279200D02*
X143078200Y-97536000D01*
X147624800Y-102387400D02*
X146405600Y-101168200D01*
X143508211Y-100023411D02*
X143508211Y-97357884D01*
D47*
X137665200Y-82020000D02*
X136425599Y-82020000D01*
D46*
X137665052Y-96088200D02*
X135807412Y-94230560D01*
X143508211Y-97357884D02*
X142238527Y-96088200D01*
X134419000Y-76245437D02*
X134400000Y-76264437D01*
X135290800Y-89565871D02*
X135290800Y-83154799D01*
X148473200Y-104495600D02*
X149047200Y-104495600D01*
X148473200Y-104495600D02*
X148473200Y-102627675D01*
X134419000Y-75352595D02*
X134419000Y-76245437D01*
X149707600Y-105730000D02*
X148473200Y-104495600D01*
X135290800Y-83154799D02*
X136169400Y-82276199D01*
X142238527Y-96088200D02*
X137665052Y-96088200D01*
X172380000Y-113302566D02*
X171017914Y-111940480D01*
X144221200Y-100736400D02*
X143508211Y-100023411D01*
X146581925Y-100736400D02*
X144221200Y-100736400D01*
D47*
X136425599Y-82020000D02*
X135890798Y-82554801D01*
D46*
X135807412Y-90082483D02*
X135290800Y-89565871D01*
X135807412Y-94230560D02*
X135807412Y-90082483D01*
X134400000Y-76264437D02*
X134400000Y-77453200D01*
X134400000Y-77453200D02*
X136474200Y-79527400D01*
X149707600Y-109957600D02*
X149707600Y-105730000D01*
X171017914Y-111940480D02*
X151690480Y-111940480D01*
X172380000Y-119900000D02*
X172380000Y-113302566D01*
X151690480Y-111940480D02*
X149707600Y-109957600D01*
X172414500Y-119934500D02*
X172380000Y-119900000D01*
X148473200Y-102627675D02*
X146581925Y-100736400D01*
D47*
X143165200Y-80820000D02*
X142865200Y-80820000D01*
X143572998Y-79987002D02*
X144760000Y-78800000D01*
X143572998Y-80412202D02*
X143572998Y-79987002D01*
X143572998Y-80412202D02*
X143165200Y-80820000D01*
X137065200Y-83620000D02*
X137665200Y-83620000D01*
D46*
X136930556Y-94745578D02*
X136237423Y-94052445D01*
X141660800Y-93949600D02*
X141660800Y-91719200D01*
X136237423Y-89904367D02*
X135737600Y-89404545D01*
X140864822Y-94745578D02*
X136930556Y-94745578D01*
X136237423Y-94052445D02*
X136237423Y-89904367D01*
X135737600Y-89404545D02*
X135737600Y-84947600D01*
X141660800Y-93949600D02*
X140864822Y-94745578D01*
X135737600Y-84947600D02*
X137065200Y-83620000D01*
D47*
X143052800Y-88442800D02*
X142465200Y-87855200D01*
X147523200Y-88442800D02*
X143052800Y-88442800D01*
X142465200Y-87855200D02*
X142465200Y-86820000D01*
D49*
X184567500Y-93460000D02*
X184567500Y-95517500D01*
X182040000Y-91060000D02*
X182780000Y-91060000D01*
X182780000Y-91060000D02*
X184610000Y-92890000D01*
D48*
X146141800Y-82148200D02*
X147890000Y-80400000D01*
D47*
X143406800Y-91136800D02*
X142696800Y-91136800D01*
D46*
X143560800Y-91700000D02*
X146501200Y-91700000D01*
D47*
X144406536Y-82148200D02*
X144278336Y-82020000D01*
D50*
X169450000Y-80130000D02*
X170170000Y-80850000D01*
D46*
X138465200Y-88071600D02*
X138480800Y-88087200D01*
D48*
X144811990Y-82148200D02*
X144387726Y-82148200D01*
D47*
X144387726Y-82148200D02*
X143965200Y-82420000D01*
X144265200Y-82120000D02*
X144387726Y-82148200D01*
X141665200Y-79945611D02*
X142341602Y-79269209D01*
D46*
X157683200Y-69530820D02*
X157520000Y-69694020D01*
D50*
X139192000Y-77927200D02*
X140004800Y-78740000D01*
D47*
X138465200Y-86820000D02*
X138465200Y-88071600D01*
D48*
X144811990Y-82148200D02*
X146141800Y-82148200D01*
D47*
X141469720Y-88117000D02*
X141665200Y-87420000D01*
D46*
X144406536Y-82148200D02*
X144406536Y-82161464D01*
D49*
X132500000Y-72860000D02*
X133420000Y-73780000D01*
X132500000Y-72860000D02*
X132500000Y-70420000D01*
D48*
X147890000Y-80400000D02*
X147890000Y-70030000D01*
D47*
X141665200Y-87420000D02*
X141665200Y-86820000D01*
D49*
X133420000Y-73780000D02*
X136350000Y-73780000D01*
D47*
X140065200Y-80820000D02*
X140065200Y-80220000D01*
D48*
X147890000Y-70030000D02*
X148770000Y-69150000D01*
D50*
X169450000Y-69010000D02*
X169450000Y-80130000D01*
D46*
X146501200Y-91700000D02*
X147218400Y-90982800D01*
D50*
X139192000Y-69428100D02*
X139192000Y-73964800D01*
X139192000Y-73625202D02*
X136374810Y-73625202D01*
X139192000Y-73964800D02*
X139192000Y-77927200D01*
D46*
X140065200Y-78850810D02*
X140157203Y-78758807D01*
X144406536Y-82148200D02*
X144811990Y-82148200D01*
D47*
X142696800Y-91136800D02*
X141469720Y-89909720D01*
D50*
X170170000Y-80850000D02*
X170730000Y-80850000D01*
D49*
X132500000Y-70420000D02*
X132490000Y-70410000D01*
D47*
X142341602Y-79269209D02*
X142341602Y-78740000D01*
D46*
X144406536Y-82161464D02*
X144365072Y-82120000D01*
X144365072Y-82120000D02*
X144265200Y-82120000D01*
D47*
X140070211Y-80214989D02*
X140070211Y-78855821D01*
X141665200Y-80820000D02*
X141665200Y-79945611D01*
D46*
X139192000Y-73964800D02*
X139192000Y-73625200D01*
X139050000Y-69286100D02*
X139192000Y-69428100D01*
D47*
X144278336Y-82020000D02*
X143665200Y-82020000D01*
X140065200Y-80220000D02*
X140070211Y-80214989D01*
D46*
X157683200Y-67167800D02*
X157683200Y-69530820D01*
D47*
X140070211Y-78855821D02*
X140065200Y-78850810D01*
X141469720Y-89909720D02*
X141469720Y-88117000D01*
D46*
X145608598Y-94996000D02*
X148400000Y-92204598D01*
X141400000Y-118610000D02*
X146430000Y-118610000D01*
D48*
X185830000Y-109230000D02*
X185830000Y-102150000D01*
D46*
X149270000Y-73924677D02*
X149970000Y-73224677D01*
X146460000Y-118580000D02*
X146460000Y-127420000D01*
X145920000Y-67370000D02*
X145920000Y-66700000D01*
X140768920Y-102616860D02*
X142866860Y-104714800D01*
X145608598Y-94996000D02*
X143350064Y-94996000D01*
X145633400Y-96316800D02*
X145633400Y-98552000D01*
X149970000Y-73224677D02*
X149970000Y-68680000D01*
X154910000Y-68230000D02*
X154910000Y-67270000D01*
X146800000Y-68250000D02*
X145920000Y-67370000D01*
X142671800Y-113071800D02*
X146460000Y-116860000D01*
X145633400Y-96316800D02*
X145633400Y-95020802D01*
X146460000Y-127420000D02*
X146470000Y-127430000D01*
X145633400Y-95020802D02*
X145608598Y-94996000D01*
X146430000Y-118610000D02*
X146460000Y-118580000D01*
X146460000Y-116860000D02*
X146460000Y-118580000D01*
D48*
X185370000Y-101690000D02*
X184402500Y-101690000D01*
X179790000Y-94920000D02*
X180950000Y-94920000D01*
D46*
X162306000Y-67691600D02*
X162306000Y-67091600D01*
X142671800Y-111048200D02*
X142671800Y-113071800D01*
X142866860Y-104714800D02*
X144221200Y-104714800D01*
D48*
X182742500Y-95510000D02*
X182742500Y-98022500D01*
X185830000Y-102150000D02*
X185370000Y-101690000D01*
X181630000Y-95600000D02*
X182760000Y-95600000D01*
X182792500Y-97890000D02*
X182792500Y-99962500D01*
X180950000Y-94920000D02*
X181630000Y-95600000D01*
D46*
X161010600Y-67995800D02*
X162001800Y-67995800D01*
X149970000Y-68680000D02*
X149540000Y-68250000D01*
X149270000Y-81444677D02*
X149270000Y-73924677D01*
X148400000Y-82314677D02*
X149270000Y-81444677D01*
X143096064Y-94742000D02*
X142671800Y-94742000D01*
X148400000Y-92204598D02*
X148400000Y-82314677D01*
X149540000Y-68250000D02*
X146800000Y-68250000D01*
X162001800Y-67995800D02*
X162306000Y-67691600D01*
D48*
X184402500Y-101690000D02*
X182792500Y-100080000D01*
X185820000Y-109240000D02*
X185830000Y-109230000D01*
D46*
X143350064Y-94996000D02*
X143096064Y-94742000D01*
X149970000Y-68680000D02*
X149970000Y-68545500D01*
D51*
X134904000Y-117652800D02*
X136610000Y-119358800D01*
X135240000Y-126560000D02*
X135210000Y-126530000D01*
D47*
X144020803Y-83214999D02*
X143919203Y-83214999D01*
D46*
X145237210Y-82804000D02*
X145292811Y-82859601D01*
D48*
X133142400Y-117750000D02*
X134800000Y-117750000D01*
X132105400Y-116713000D02*
X133142400Y-117750000D01*
D51*
X136610000Y-119358800D02*
X136610000Y-121290000D01*
D47*
X144431802Y-82804000D02*
X144020803Y-83214999D01*
D46*
X144330202Y-82804000D02*
X144309201Y-82825001D01*
D51*
X136610000Y-121290000D02*
X136150000Y-121750000D01*
X136580000Y-126560000D02*
X135240000Y-126560000D01*
D46*
X145292811Y-82859601D02*
X145592810Y-83159600D01*
D47*
X144309201Y-82825001D02*
X143665200Y-82825001D01*
D51*
X136150000Y-121750000D02*
X135090000Y-121750000D01*
D46*
X144431802Y-82804000D02*
X144330202Y-82804000D01*
X144431802Y-82804000D02*
X145237210Y-82804000D01*
X143919203Y-83214999D02*
X143670201Y-83214999D01*
D47*
X181100000Y-108910000D02*
X181100000Y-112900000D01*
D46*
X145491200Y-102209600D02*
X144932400Y-101650800D01*
D49*
X181217500Y-116002500D02*
X179810000Y-117410000D01*
D48*
X168060000Y-116430000D02*
X168060000Y-122620000D01*
D46*
X144932400Y-101650800D02*
X143611600Y-101650800D01*
X170936800Y-77700000D02*
X172210000Y-77700000D01*
D50*
X143560800Y-110510800D02*
X144990800Y-110510800D01*
X150063200Y-131495800D02*
X149275800Y-132283200D01*
D46*
X149423200Y-88442800D02*
X149423200Y-90778000D01*
X139700000Y-66700400D02*
X143408400Y-66700400D01*
D48*
X176010000Y-114480000D02*
X176010000Y-117470000D01*
D50*
X156794200Y-131495800D02*
X150063200Y-131495800D01*
D47*
X143000000Y-90340000D02*
X142065200Y-89405200D01*
D50*
X157107509Y-131182491D02*
X156794200Y-131495800D01*
X143560800Y-110510800D02*
X143560800Y-112260800D01*
D47*
X184371489Y-108258511D02*
X181751489Y-108258511D01*
D46*
X143420000Y-70590000D02*
X143306800Y-70476800D01*
X139293600Y-67106800D02*
X139700000Y-66700400D01*
X134243801Y-82359742D02*
X134243801Y-90022401D01*
X170936800Y-70500000D02*
X172633400Y-70500000D01*
D49*
X185090000Y-116002500D02*
X181217500Y-116002500D01*
D47*
X185050000Y-104375000D02*
X185050000Y-107580000D01*
D48*
X176010000Y-122780000D02*
X168220000Y-122780000D01*
D46*
X133200000Y-78140715D02*
X135541012Y-80481727D01*
D50*
X144221200Y-109067600D02*
X144221200Y-106714800D01*
D46*
X133200000Y-76570000D02*
X133200000Y-78140715D01*
X143306800Y-70476800D02*
X143306800Y-66802000D01*
X141654010Y-96950010D02*
X137310610Y-96950010D01*
D47*
X142065200Y-89405200D02*
X142065200Y-86820000D01*
D48*
X168220000Y-122780000D02*
X168060000Y-122620000D01*
D49*
X138080080Y-112837540D02*
X138080080Y-99790080D01*
D46*
X143611600Y-101650800D02*
X142443200Y-100482400D01*
D48*
X176010000Y-122780000D02*
X176010000Y-125760000D01*
D50*
X147250000Y-117230000D02*
X149160000Y-117230000D01*
D47*
X182830000Y-104357500D02*
X185067500Y-104357500D01*
D46*
X179790000Y-77720000D02*
X180830000Y-77720000D01*
X170936800Y-77700000D02*
X170936800Y-70633200D01*
X145491200Y-106319800D02*
X145491200Y-102209600D01*
X172633400Y-70500000D02*
X172974000Y-70840600D01*
D47*
X177290000Y-113500000D02*
X176210000Y-114580000D01*
D50*
X143560800Y-109728000D02*
X144221200Y-109067600D01*
D46*
X134772400Y-94411800D02*
X134772400Y-90551000D01*
D47*
X149330000Y-92180000D02*
X149330000Y-90910000D01*
D50*
X143560800Y-109728000D02*
X143560800Y-110510800D01*
D46*
X145096200Y-106714800D02*
X145491200Y-106319800D01*
X172210000Y-77700000D02*
X172220000Y-77690000D01*
D47*
X185050000Y-107580000D02*
X184371489Y-108258511D01*
D46*
X142443200Y-97739200D02*
X141654010Y-96950010D01*
D47*
X181751489Y-108258511D02*
X181100000Y-108910000D01*
D48*
X176010000Y-117480000D02*
X176010000Y-122670000D01*
D47*
X180500000Y-113500000D02*
X177290000Y-113500000D01*
D46*
X149488400Y-83413600D02*
X149488400Y-85886800D01*
D48*
X176010000Y-117480000D02*
X179540000Y-117480000D01*
D46*
X142443200Y-100482400D02*
X142443200Y-97739200D01*
X135541012Y-80481727D02*
X135541012Y-81062531D01*
D48*
X168060000Y-122620000D02*
X166260000Y-124420000D01*
D50*
X143560800Y-112260800D02*
X147250000Y-115950000D01*
D46*
X135541012Y-81062531D02*
X134243801Y-82359742D01*
D50*
X157107509Y-119532502D02*
X157107509Y-131182491D01*
D46*
X134243801Y-90022401D02*
X134772400Y-90551000D01*
D50*
X143560800Y-109728000D02*
X140769780Y-109728000D01*
D46*
X137310610Y-96950010D02*
X134772400Y-94411800D01*
D50*
X147250000Y-115950000D02*
X147250000Y-117230000D01*
D46*
X180920000Y-77630000D02*
X180920000Y-70610000D01*
D47*
X181100000Y-112900000D02*
X180500000Y-113500000D01*
D46*
X149421600Y-85953600D02*
X149421600Y-88441200D01*
X144221200Y-106714800D02*
X145096200Y-106714800D01*
D50*
X149250400Y-130329711D02*
X149250400Y-126593600D01*
X149250400Y-126593600D02*
X149047200Y-126390400D01*
X150545800Y-122859800D02*
X149428200Y-122859800D01*
D49*
X149010000Y-125210200D02*
X149047200Y-125247400D01*
D48*
X151942800Y-124161200D02*
X151942800Y-124079000D01*
D50*
X146573200Y-107936400D02*
X148031200Y-109394400D01*
D48*
X153939600Y-126158000D02*
X151942800Y-124161200D01*
D50*
X150545800Y-113103400D02*
X150545800Y-122859800D01*
X148031200Y-110588800D02*
X150545800Y-113103400D01*
X146573200Y-107086400D02*
X146573200Y-107936400D01*
X148031200Y-109394400D02*
X148031200Y-110628800D01*
D46*
X147982400Y-110580000D02*
X148031200Y-110628800D01*
D50*
X149047200Y-126390400D02*
X149047200Y-125120400D01*
D49*
X149250400Y-125247400D02*
X149275800Y-125222000D01*
D50*
X149428200Y-122859800D02*
X149174200Y-123113800D01*
X146573200Y-107086400D02*
X146573200Y-104495600D01*
X146907500Y-110580000D02*
X147982400Y-110580000D01*
X151917400Y-124231400D02*
X151968200Y-124231400D01*
X150545800Y-122859800D02*
X151917400Y-124231400D01*
X149009989Y-123130005D02*
X149009989Y-125210189D01*
D46*
X137506200Y-89956889D02*
X136652000Y-89102689D01*
X136652000Y-86258400D02*
X136890400Y-86020000D01*
X136652000Y-89102689D02*
X136652000Y-86258400D01*
D47*
X136890400Y-86020000D02*
X137665200Y-86020000D01*
D46*
X137506200Y-91084400D02*
X137506200Y-89956889D01*
D47*
X137060190Y-85614990D02*
X137065200Y-85620000D01*
X136685810Y-85614990D02*
X137060190Y-85614990D01*
D46*
X136194800Y-86106000D02*
X136680800Y-85620000D01*
X136667434Y-89726251D02*
X136194800Y-89253617D01*
X136194800Y-89253617D02*
X136194800Y-86106000D01*
X137617200Y-93624400D02*
X136667434Y-92674634D01*
D47*
X136680800Y-85620000D02*
X136685810Y-85614990D01*
X137065200Y-85620000D02*
X137665200Y-85620000D01*
D46*
X136667434Y-92674634D02*
X136667434Y-89726251D01*
D47*
X141558398Y-79472402D02*
X141265200Y-79765600D01*
X142330715Y-76960715D02*
X141558398Y-77733032D01*
D46*
X143999500Y-77010000D02*
X143849500Y-77160000D01*
D47*
X141558398Y-77733032D02*
X141558398Y-79472402D01*
X141265200Y-79765600D02*
X141265200Y-80820000D01*
D46*
X145052500Y-77010000D02*
X143999500Y-77010000D01*
D48*
X177479520Y-79030480D02*
X177240000Y-79270000D01*
X175060000Y-80440000D02*
X176250000Y-80440000D01*
X183981800Y-84377400D02*
X182581800Y-84377400D01*
X182441089Y-81391800D02*
X182441089Y-82588911D01*
X176580000Y-80110000D02*
X177160000Y-80110000D01*
X175060000Y-80440000D02*
X174610000Y-80890000D01*
X185970000Y-91030000D02*
X184800000Y-91030000D01*
X184684400Y-85080000D02*
X183981800Y-84377400D01*
X180079769Y-79030480D02*
X177479520Y-79030480D01*
X185970000Y-90060000D02*
X185970000Y-91030000D01*
X174610000Y-80890000D02*
X173560000Y-80890000D01*
X184684400Y-85080000D02*
X184690000Y-85080000D01*
D49*
X184770000Y-84994400D02*
X184770000Y-76760000D01*
D48*
X185970000Y-86360000D02*
X185970000Y-90060000D01*
X185970000Y-90060000D02*
X184850000Y-90060000D01*
X184690000Y-85080000D02*
X185970000Y-86360000D01*
X176250000Y-80440000D02*
X176580000Y-80110000D01*
D49*
X184684400Y-85080000D02*
X184770000Y-84994400D01*
D48*
X177240000Y-79270000D02*
X177240000Y-80100000D01*
X182441089Y-81391800D02*
X180079769Y-79030480D01*
D47*
X174770000Y-81850000D02*
X175770000Y-82850000D01*
X173470000Y-81850000D02*
X174770000Y-81850000D01*
X164940000Y-83040000D02*
X165030000Y-82950000D01*
X164940000Y-83920000D02*
X164940000Y-83040000D01*
X136680000Y-78031680D02*
X136680000Y-76770000D01*
X138865200Y-80820000D02*
X138865200Y-80216880D01*
X138865200Y-80216880D02*
X136680000Y-78031680D01*
X167820000Y-75920000D02*
X167820000Y-77880000D01*
X167820000Y-75920000D02*
X167820000Y-70590000D01*
D46*
X150037800Y-98475800D02*
X147609600Y-98475800D01*
X150630000Y-75630000D02*
X150630000Y-97883600D01*
X150670000Y-75590000D02*
X150630000Y-75630000D01*
X150630000Y-97883600D02*
X150037800Y-98475800D01*
X177898800Y-70500000D02*
X177898800Y-77658800D01*
X141217500Y-116290000D02*
X141217500Y-115362500D01*
D49*
X184730000Y-110550000D02*
X183870000Y-109690000D01*
D46*
X141217500Y-115362500D02*
X142000000Y-114580000D01*
D49*
X183870000Y-109690000D02*
X182430000Y-109690000D01*
D46*
X173020000Y-114190000D02*
X173020000Y-111795500D01*
D47*
X165570000Y-78927500D02*
X169370000Y-82727500D01*
X170870000Y-82800000D02*
X169330000Y-82800000D01*
X169150000Y-82800000D02*
X169150000Y-82900000D01*
X168710000Y-84100000D02*
X169170000Y-83640000D01*
X169370000Y-82727500D02*
X169370000Y-82980000D01*
X169330000Y-82800000D02*
X169150000Y-82800000D01*
X169150000Y-82900000D02*
X169150000Y-83620000D01*
X163510000Y-78977500D02*
X165602500Y-78977500D01*
D49*
X184937400Y-117802900D02*
X184076100Y-117802900D01*
X179781200Y-119802000D02*
X181041400Y-118541800D01*
X183337200Y-118541800D02*
X181041400Y-118541800D01*
X184076100Y-117802900D02*
X183337200Y-118541800D01*
D48*
X148569520Y-74759980D02*
X148569520Y-81250480D01*
D49*
X137651600Y-127628400D02*
X136790000Y-128490000D01*
D48*
X180829511Y-90375611D02*
X180829511Y-91559511D01*
X175666400Y-86055200D02*
X173655200Y-86055200D01*
D46*
X142333950Y-84376250D02*
X141221450Y-85488750D01*
D48*
X185850000Y-97930000D02*
X184800000Y-97930000D01*
D46*
X139665200Y-89001600D02*
X139665200Y-87420000D01*
D47*
X166830000Y-78312500D02*
X166830000Y-78980000D01*
D46*
X137640000Y-75750000D02*
X136000000Y-75750000D01*
D47*
X137665200Y-84820000D02*
X138552700Y-84820000D01*
D48*
X134730000Y-127910000D02*
X134252500Y-128387500D01*
D47*
X137665200Y-82820000D02*
X138520000Y-82820000D01*
D46*
X136520000Y-66070400D02*
X136520000Y-71410000D01*
D48*
X179017500Y-80160000D02*
X179630000Y-80160000D01*
X148619500Y-71515000D02*
X148619500Y-74710000D01*
D47*
X165570000Y-77052500D02*
X163322500Y-77052500D01*
D46*
X137640000Y-75750000D02*
X137640000Y-77106177D01*
D49*
X143738600Y-132918200D02*
X142951200Y-132918200D01*
D46*
X139665200Y-90100400D02*
X139665200Y-89001600D01*
D48*
X172190000Y-82000000D02*
X172110000Y-81920000D01*
X180863900Y-90110000D02*
X182040000Y-90110000D01*
X180713900Y-90260000D02*
X180829511Y-90375611D01*
D46*
X138996450Y-85488750D02*
X140108950Y-85488750D01*
X146890000Y-72300000D02*
X146890000Y-78900000D01*
X138996450Y-82151250D02*
X138996450Y-84376250D01*
D49*
X144211000Y-132445800D02*
X143738600Y-132918200D01*
D48*
X148619500Y-74710000D02*
X148569520Y-74759980D01*
X179630000Y-80160000D02*
X179960000Y-80490000D01*
X172190000Y-84590000D02*
X172190000Y-82000000D01*
X148569520Y-81250480D02*
X148380000Y-81440000D01*
D46*
X141221450Y-82151250D02*
X142189200Y-82151250D01*
X139617200Y-93624400D02*
X139617200Y-91195400D01*
D48*
X134770000Y-120860000D02*
X134770000Y-120227500D01*
D46*
X138552700Y-84820000D02*
X138996450Y-84376250D01*
D50*
X175666400Y-86055200D02*
X175666400Y-84773592D01*
D46*
X141221450Y-83263750D02*
X140108950Y-82151250D01*
X142333950Y-82151250D02*
X142333950Y-83261200D01*
D48*
X172110000Y-81920000D02*
X170860000Y-81920000D01*
D46*
X138996450Y-84376250D02*
X138996450Y-85488750D01*
X139665200Y-85932500D02*
X140050500Y-85547200D01*
X139506200Y-90259400D02*
X139665200Y-90100400D01*
D48*
X180713900Y-90260000D02*
X180863900Y-90110000D01*
D46*
X172006800Y-65239900D02*
X170419300Y-63652400D01*
D47*
X169690000Y-81840000D02*
X170810000Y-81840000D01*
X139265200Y-80820000D02*
X139265200Y-80045677D01*
D48*
X149240000Y-70894500D02*
X148619500Y-71515000D01*
D47*
X139665200Y-87420000D02*
X139665200Y-86820000D01*
D46*
X141221450Y-85488750D02*
X141221450Y-84376250D01*
D47*
X139265200Y-80820000D02*
X139265200Y-81882500D01*
D49*
X145151600Y-132445800D02*
X144211000Y-132445800D01*
D46*
X141221450Y-84376250D02*
X141221450Y-83263750D01*
D48*
X134770000Y-120227500D02*
X134472500Y-119930000D01*
D47*
X138050000Y-78830477D02*
X138050000Y-78150000D01*
D48*
X173655200Y-86055200D02*
X172190000Y-84590000D01*
D46*
X138028980Y-77495157D02*
X138028980Y-78363420D01*
D49*
X182470000Y-80160000D02*
X182510000Y-80120000D01*
D48*
X134730000Y-127357500D02*
X134730000Y-127910000D01*
X180829511Y-91559511D02*
X182710000Y-93440000D01*
D47*
X139665200Y-86820000D02*
X139665200Y-85932500D01*
D46*
X141221450Y-85488750D02*
X142240000Y-85488750D01*
X139506200Y-91084400D02*
X139506200Y-90259400D01*
D49*
X141855600Y-127628400D02*
X137651600Y-127628400D01*
X184590000Y-112270000D02*
X182490000Y-112270000D01*
D46*
X137046947Y-117869947D02*
X137970053Y-117869947D01*
X137640000Y-77106177D02*
X138028980Y-77495157D01*
D47*
X165570000Y-77052500D02*
X166830000Y-78312500D01*
D46*
X142333950Y-83263750D02*
X142333950Y-84277200D01*
D47*
X139265200Y-80045677D02*
X138050000Y-78830477D01*
D46*
X140108950Y-83263750D02*
X140108950Y-84277200D01*
X146820000Y-70910000D02*
X146820000Y-72850000D01*
X170419300Y-63652400D02*
X138938000Y-63652400D01*
D48*
X184667500Y-97890000D02*
X184667500Y-99982500D01*
D46*
X138938000Y-63652400D02*
X136520000Y-66070400D01*
D47*
X166830000Y-78980000D02*
X169690000Y-81840000D01*
X138520000Y-82820000D02*
X138950000Y-83250000D01*
D46*
X145278600Y-74777600D02*
X144046800Y-74777600D01*
D48*
X143120000Y-75370800D02*
X143120000Y-79282400D01*
D46*
X143713200Y-74777600D02*
X143713200Y-74106800D01*
D47*
X142065200Y-80820000D02*
X142065200Y-80220000D01*
D46*
X142240000Y-80162400D02*
X142951200Y-79451200D01*
D47*
X142065200Y-80220000D02*
X142122800Y-80162400D01*
D48*
X143880000Y-73940000D02*
X143880000Y-74610800D01*
D46*
X141117212Y-77319325D02*
X141117212Y-79194616D01*
D48*
X143120000Y-79282400D02*
X142951200Y-79451200D01*
D46*
X143120000Y-75370800D02*
X143065737Y-75370800D01*
D48*
X143880000Y-74610800D02*
X143120000Y-75370800D01*
D46*
X144046800Y-74777600D02*
X143880000Y-74610800D01*
D47*
X142407600Y-80162400D02*
X142465200Y-80220000D01*
X141117212Y-79194616D02*
X140865200Y-79446628D01*
X142122800Y-80162400D02*
X142240000Y-80162400D01*
D46*
X143590000Y-74230000D02*
X143880000Y-73940000D01*
D47*
X140865200Y-79446628D02*
X140865200Y-80820000D01*
D46*
X143065737Y-75370800D02*
X141117212Y-77319325D01*
X143590000Y-74230000D02*
X142170000Y-74230000D01*
D47*
X142240000Y-80162400D02*
X142407600Y-80162400D01*
X142465200Y-80220000D02*
X142465200Y-80820000D01*
D46*
X140550000Y-88154198D02*
X140716000Y-87988198D01*
X161810000Y-75190980D02*
X161810000Y-79130000D01*
X161560000Y-74940980D02*
X161810000Y-75190980D01*
X164210000Y-81530000D02*
X165710000Y-81530000D01*
D47*
X141265200Y-87438998D02*
X140716000Y-87988198D01*
D46*
X140400000Y-115200000D02*
X139460000Y-116140000D01*
X140550000Y-88154198D02*
X140550000Y-89721100D01*
D47*
X141265200Y-86820000D02*
X141265200Y-87438998D01*
D46*
X165710000Y-81530000D02*
X166960000Y-82780000D01*
X149874500Y-75275500D02*
X149874500Y-81220000D01*
X161810000Y-79130000D02*
X164210000Y-81530000D01*
X140550000Y-89721100D02*
X140560000Y-89731100D01*
X140560000Y-89731100D02*
X140560000Y-91770000D01*
X149960000Y-75190000D02*
X149874500Y-75275500D01*
X139460000Y-116140000D02*
X139410000Y-116140000D01*
X139342500Y-116290000D02*
X139342500Y-118232500D01*
D47*
X144265200Y-81620000D02*
X144503600Y-81381600D01*
D46*
X145890480Y-71884576D02*
X145890480Y-80912720D01*
D49*
X176174300Y-65201700D02*
X176883600Y-65201700D01*
D46*
X145890480Y-80912720D02*
X145421600Y-81381600D01*
X145750000Y-70140000D02*
X145750000Y-71744096D01*
D47*
X143665200Y-81620000D02*
X144265200Y-81620000D01*
D46*
X145750000Y-71744096D02*
X145890480Y-71884576D01*
X145421600Y-81381600D02*
X144503600Y-81381600D01*
D49*
X175641000Y-67284600D02*
X175641000Y-65684400D01*
X175641000Y-65684400D02*
X176149000Y-65176400D01*
D46*
X158318200Y-64236600D02*
X166039800Y-64236600D01*
X178041300Y-66738500D02*
X178333400Y-66446400D01*
X157734000Y-64820800D02*
X158318200Y-64236600D01*
X157734000Y-65217000D02*
X157734000Y-64820800D01*
X178333400Y-64414400D02*
X178333400Y-66446400D01*
X178041300Y-66738500D02*
X176883600Y-66738500D01*
X166039800Y-64236600D02*
X166268400Y-64465200D01*
X174445200Y-66776700D02*
X174445200Y-67743800D01*
X170764200Y-67792600D02*
X170764200Y-65608200D01*
X170764200Y-65608200D02*
X170347600Y-65191600D01*
X171932600Y-68961000D02*
X170764200Y-67792600D01*
X170347600Y-65191600D02*
X162306000Y-65191600D01*
X174445200Y-67743800D02*
X173228000Y-68961000D01*
X173228000Y-68961000D02*
X171932600Y-68961000D01*
X178320000Y-116500000D02*
X178800000Y-116020000D01*
X178800000Y-116020000D02*
X180380000Y-116020000D01*
X151350000Y-69020000D02*
X152640000Y-67730000D01*
X173355000Y-64389000D02*
X174243080Y-64389000D01*
X151090000Y-98760000D02*
X151090000Y-78509992D01*
X180380000Y-116020000D02*
X181540000Y-114860000D01*
X178319989Y-116500000D02*
X178320000Y-116500000D01*
X174445200Y-64591120D02*
X174445200Y-65239900D01*
X164642800Y-68148200D02*
X164642800Y-67142400D01*
X181540000Y-114860000D02*
X182350000Y-114860000D01*
X151350000Y-78249992D02*
X151350000Y-69020000D01*
X152640000Y-67730000D02*
X152900000Y-67730000D01*
X151090000Y-78509992D02*
X151350000Y-78249992D01*
X174243080Y-64389000D02*
X174445200Y-64591120D01*
X140010000Y-105300000D02*
X140940000Y-105300000D01*
X144719400Y-116199400D02*
X138920000Y-110400000D01*
X138920000Y-106390000D02*
X140010000Y-105300000D01*
X144719400Y-117271800D02*
X144719400Y-116199400D01*
X138920000Y-110400000D02*
X138920000Y-106390000D01*
D47*
X184290000Y-105490000D02*
X183550000Y-106230000D01*
X184290000Y-105470000D02*
X184290000Y-105490000D01*
X183550000Y-106230000D02*
X183120000Y-106230000D01*
X182777500Y-106182500D02*
X179670000Y-109290000D01*
D49*
X133620000Y-124500000D02*
X133620000Y-124130000D01*
X136832889Y-125301289D02*
X141531889Y-125301289D01*
X133871400Y-124751400D02*
X133620000Y-124500000D01*
X133880000Y-123870000D02*
X134660000Y-123870000D01*
X134937500Y-124870000D02*
X136401600Y-124870000D01*
X133620000Y-124130000D02*
X133880000Y-123870000D01*
X133961000Y-124841000D02*
X135102600Y-124841000D01*
X136401600Y-124870000D02*
X136832889Y-125301289D01*
X141531889Y-125301289D02*
X141808200Y-125577600D01*
X133871400Y-124751400D02*
X133961000Y-124841000D01*
X136665800Y-124370000D02*
X136702800Y-124333000D01*
X136425600Y-123370000D02*
X134937500Y-123370000D01*
X136702800Y-124333000D02*
X136702800Y-123647200D01*
X134937500Y-124370000D02*
X136665800Y-124370000D01*
X136702800Y-123647200D02*
X136425600Y-123370000D01*
X136665800Y-124370000D02*
X136677400Y-124358400D01*
X136677400Y-124358400D02*
X136906000Y-124587000D01*
X136906000Y-124587000D02*
X138176000Y-124587000D01*
X135010000Y-122890000D02*
X135000000Y-122900000D01*
D47*
X164430000Y-114890000D02*
X164450000Y-114870000D01*
D49*
X141960600Y-128670600D02*
X141960000Y-128670000D01*
D47*
X164410000Y-128560000D02*
X164430000Y-128540000D01*
D49*
X145151600Y-130545800D02*
X145060200Y-130454400D01*
X164806800Y-128956800D02*
X164410000Y-128560000D01*
X164806800Y-132638800D02*
X164806800Y-128956800D01*
D47*
X164430000Y-128540000D02*
X164430000Y-114890000D01*
D49*
X141960600Y-130429000D02*
X141960600Y-128670600D01*
D47*
X178258000Y-114722000D02*
X177060000Y-115920000D01*
D49*
X141071600Y-131318000D02*
X141071600Y-132918200D01*
X139679400Y-122890000D02*
X135010000Y-122890000D01*
X145060200Y-130454400D02*
X141935200Y-130454400D01*
D47*
X179781200Y-114722000D02*
X178258000Y-114722000D01*
D49*
X139674600Y-125907800D02*
X139616800Y-125850000D01*
X141843800Y-130545800D02*
X141071600Y-131318000D01*
X141843800Y-130545800D02*
X141960600Y-130429000D01*
X139616800Y-125850000D02*
X135130000Y-125850000D01*
X141935200Y-130454400D02*
X141843800Y-130545800D01*
X139700000Y-122910600D02*
X139679400Y-122890000D01*
X142182320Y-126628400D02*
X143357600Y-127803680D01*
X166141400Y-129413000D02*
X166141400Y-132740400D01*
X143357600Y-129133600D02*
X143662400Y-129438400D01*
X138255600Y-126628400D02*
X142182320Y-126628400D01*
X143357600Y-127803680D02*
X143357600Y-129133600D01*
X143662400Y-129438400D02*
X146888200Y-129438400D01*
X166141400Y-132740400D02*
X166090600Y-132791200D01*
X147218400Y-129768600D02*
X147218400Y-131368800D01*
X146888200Y-129438400D02*
X147218400Y-129768600D01*
M02*
