G04 #@! TF.GenerationSoftware,KiCad,Pcbnew,(5.99.0-10509-g065f85b504)*
G04 #@! TF.CreationDate,2021-07-11T16:30:23-06:00*
G04 #@! TF.ProjectId,HAT_ver_7,4841545f-7665-4725-9f37-2e6b69636164,7.0.6*
G04 #@! TF.SameCoordinates,Original*
G04 #@! TF.FileFunction,OtherDrawing,Comment*
%FSLAX46Y46*%
G04 Gerber Fmt 4.6, Leading zero omitted, Abs format (unit mm)*
G04 Created by KiCad (PCBNEW (5.99.0-10509-g065f85b504)) date 2021-07-11 16:30:23*
%MOMM*%
%LPD*%
G01*
G04 APERTURE LIST*
%ADD10C,0.100000*%
%ADD11C,0.150000*%
%ADD12C,0.120000*%
G04 APERTURE END LIST*
D10*
X129910000Y-118670000D02*
X128910000Y-118670000D01*
X128910000Y-118670000D02*
X128910000Y-129730000D01*
X128910000Y-129730000D02*
X129910000Y-129730000D01*
X129910000Y-129730000D02*
X129910000Y-118670000D01*
X129857200Y-124113800D02*
X130490000Y-124110000D01*
D11*
X125752261Y-141395714D02*
X125752261Y-142062380D01*
X125514166Y-141014761D02*
X125276071Y-141729047D01*
X125895119Y-141729047D01*
X126276071Y-141967142D02*
X126323690Y-142014761D01*
X126276071Y-142062380D01*
X126228452Y-142014761D01*
X126276071Y-141967142D01*
X126276071Y-142062380D01*
X126942738Y-141062380D02*
X127037976Y-141062380D01*
X127133214Y-141110000D01*
X127180833Y-141157619D01*
X127228452Y-141252857D01*
X127276071Y-141443333D01*
X127276071Y-141681428D01*
X127228452Y-141871904D01*
X127180833Y-141967142D01*
X127133214Y-142014761D01*
X127037976Y-142062380D01*
X126942738Y-142062380D01*
X126847500Y-142014761D01*
X126799880Y-141967142D01*
X126752261Y-141871904D01*
X126704642Y-141681428D01*
X126704642Y-141443333D01*
X126752261Y-141252857D01*
X126799880Y-141157619D01*
X126847500Y-141110000D01*
X126942738Y-141062380D01*
X128133214Y-141395714D02*
X128133214Y-142062380D01*
X127895119Y-141014761D02*
X127657023Y-141729047D01*
X128276071Y-141729047D01*
X129418928Y-142062380D02*
X129418928Y-141395714D01*
X129418928Y-141490952D02*
X129466547Y-141443333D01*
X129561785Y-141395714D01*
X129704642Y-141395714D01*
X129799880Y-141443333D01*
X129847500Y-141538571D01*
X129847500Y-142062380D01*
X129847500Y-141538571D02*
X129895119Y-141443333D01*
X129990357Y-141395714D01*
X130133214Y-141395714D01*
X130228452Y-141443333D01*
X130276071Y-141538571D01*
X130276071Y-142062380D01*
X130752261Y-142062380D02*
X130752261Y-141395714D01*
X130752261Y-141490952D02*
X130799880Y-141443333D01*
X130895119Y-141395714D01*
X131037976Y-141395714D01*
X131133214Y-141443333D01*
X131180833Y-141538571D01*
X131180833Y-142062380D01*
X131180833Y-141538571D02*
X131228452Y-141443333D01*
X131323690Y-141395714D01*
X131466547Y-141395714D01*
X131561785Y-141443333D01*
X131609404Y-141538571D01*
X131609404Y-142062380D01*
D10*
X129930000Y-132280000D02*
X129930000Y-143346420D01*
X133960000Y-132280000D02*
X133960000Y-143346420D01*
X129930000Y-142760000D02*
X133960000Y-142760000D01*
X129930000Y-142760000D02*
X133960000Y-142760000D01*
X129930000Y-142760000D02*
X131056504Y-143346421D01*
X129930000Y-142760000D02*
X131056504Y-142173579D01*
X133960000Y-142760000D02*
X132833496Y-142173579D01*
X133960000Y-142760000D02*
X132833496Y-143346421D01*
D11*
X152148189Y-143190523D02*
X151671998Y-143190976D01*
X151624832Y-143667212D01*
X151672406Y-143619547D01*
X151767599Y-143571838D01*
X152005694Y-143571611D01*
X152100977Y-143619140D01*
X152148641Y-143666714D01*
X152196351Y-143761906D01*
X152196577Y-144000001D01*
X152149049Y-144095285D01*
X152101475Y-144142949D01*
X152006282Y-144190659D01*
X151768187Y-144190885D01*
X151672904Y-144143357D01*
X151625240Y-144095783D01*
X152576850Y-143285354D02*
X152624424Y-143237690D01*
X152719617Y-143189980D01*
X152957712Y-143189754D01*
X153052995Y-143237282D01*
X153100660Y-143284856D01*
X153148369Y-143380049D01*
X153148460Y-143475287D01*
X153100977Y-143618189D01*
X152530092Y-144190161D01*
X153149139Y-144189572D01*
X153577620Y-144093927D02*
X153625284Y-144141500D01*
X153577710Y-144189165D01*
X153530046Y-144141591D01*
X153577620Y-144093927D01*
X153577710Y-144189165D01*
X154529140Y-143188260D02*
X154052950Y-143188712D01*
X154005783Y-143664948D01*
X154053357Y-143617284D01*
X154148550Y-143569574D01*
X154386645Y-143569348D01*
X154481928Y-143616876D01*
X154529593Y-143664450D01*
X154577302Y-143759643D01*
X154577529Y-143997738D01*
X154530000Y-144093021D01*
X154482426Y-144140685D01*
X154387234Y-144188395D01*
X154149138Y-144188621D01*
X154053855Y-144141093D01*
X154006191Y-144093519D01*
X155053900Y-144187761D02*
X155244376Y-144187580D01*
X155339569Y-144139870D01*
X155387143Y-144092206D01*
X155482245Y-143949258D01*
X155529683Y-143758737D01*
X155529321Y-143377785D01*
X155481611Y-143282592D01*
X155433947Y-143235018D01*
X155338663Y-143187490D01*
X155148187Y-143187671D01*
X155052994Y-143235381D01*
X155005421Y-143283045D01*
X154957892Y-143378328D01*
X154958119Y-143616423D01*
X155005828Y-143711616D01*
X155053492Y-143759190D01*
X155148776Y-143806718D01*
X155339252Y-143806537D01*
X155434445Y-143758828D01*
X155482018Y-143711163D01*
X155529547Y-143615880D01*
X156148187Y-143186720D02*
X156243425Y-143186630D01*
X156338708Y-143234158D01*
X156386372Y-143281732D01*
X156434082Y-143376925D01*
X156481882Y-143567356D01*
X156482109Y-143805451D01*
X156434671Y-143995972D01*
X156387142Y-144091255D01*
X156339568Y-144138920D01*
X156244376Y-144186629D01*
X156149138Y-144186720D01*
X156053854Y-144139191D01*
X156006190Y-144091618D01*
X155958480Y-143996425D01*
X155910680Y-143805994D01*
X155910454Y-143567899D01*
X155957892Y-143377377D01*
X156005420Y-143282094D01*
X156052994Y-143234430D01*
X156148187Y-143186720D01*
X157100567Y-143185815D02*
X157195805Y-143185724D01*
X157291089Y-143233253D01*
X157338753Y-143280826D01*
X157386463Y-143376019D01*
X157434263Y-143566450D01*
X157434489Y-143804545D01*
X157387051Y-143995067D01*
X157339523Y-144090350D01*
X157291949Y-144138014D01*
X157196756Y-144185724D01*
X157101518Y-144185814D01*
X157006235Y-144138286D01*
X156958570Y-144090712D01*
X156910861Y-143995519D01*
X156863061Y-143805088D01*
X156862834Y-143566993D01*
X156910272Y-143376472D01*
X156957801Y-143281189D01*
X157005375Y-143233524D01*
X157100567Y-143185815D01*
X158625327Y-144184366D02*
X158624693Y-143517699D01*
X158624784Y-143612937D02*
X158672357Y-143565273D01*
X158767550Y-143517563D01*
X158910407Y-143517428D01*
X159005691Y-143564956D01*
X159053400Y-143660149D01*
X159053898Y-144183958D01*
X159053400Y-143660149D02*
X159100929Y-143564865D01*
X159196121Y-143517156D01*
X159338978Y-143517020D01*
X159434262Y-143564549D01*
X159481971Y-143659741D01*
X159482469Y-144183551D01*
X159958660Y-144183098D02*
X159958026Y-143516432D01*
X159958116Y-143611670D02*
X160005690Y-143564005D01*
X160100883Y-143516296D01*
X160243740Y-143516160D01*
X160339023Y-143563688D01*
X160386733Y-143658881D01*
X160387231Y-144182690D01*
X160386733Y-143658881D02*
X160434261Y-143563598D01*
X160529454Y-143515888D01*
X160672311Y-143515752D01*
X160767595Y-143563281D01*
X160815304Y-143658474D01*
X160815802Y-144182283D01*
D10*
X129940475Y-134850000D02*
X129950596Y-145495668D01*
X182530475Y-134800000D02*
X182540596Y-145445668D01*
X129950039Y-144909248D02*
X182540039Y-144859248D01*
X129950039Y-144909248D02*
X182540039Y-144859248D01*
X129950039Y-144909248D02*
X131077100Y-145494597D01*
X129950039Y-144909248D02*
X131075985Y-144321757D01*
X182540039Y-144859248D02*
X181412978Y-144273899D01*
X182540039Y-144859248D02*
X181414093Y-145446739D01*
D11*
X118652036Y-93824900D02*
X118652129Y-94491567D01*
X117652069Y-94063135D01*
X117652255Y-95396469D02*
X117652176Y-94825040D01*
X117652215Y-95110754D02*
X118652215Y-95110615D01*
X118509345Y-95015397D01*
X118414094Y-94920172D01*
X118366461Y-94824940D01*
X117747553Y-95825027D02*
X117699941Y-95872652D01*
X117652315Y-95825040D01*
X117699928Y-95777414D01*
X117747553Y-95825027D01*
X117652315Y-95825040D01*
X118652442Y-96729662D02*
X118652415Y-96539186D01*
X118604783Y-96443955D01*
X118557157Y-96396342D01*
X118414286Y-96301124D01*
X118223804Y-96253532D01*
X117842851Y-96253585D01*
X117747620Y-96301217D01*
X117700007Y-96348843D01*
X117652402Y-96444088D01*
X117652428Y-96634564D01*
X117700061Y-96729795D01*
X117747686Y-96777408D01*
X117842931Y-96825013D01*
X118081026Y-96824980D01*
X118176258Y-96777348D01*
X118223870Y-96729722D01*
X118271476Y-96634477D01*
X118271449Y-96444001D01*
X118223817Y-96348770D01*
X118176191Y-96301157D01*
X118080946Y-96253552D01*
X118557270Y-97205866D02*
X118604896Y-97253478D01*
X118652528Y-97348710D01*
X118652561Y-97586805D01*
X118604955Y-97682050D01*
X118557343Y-97729676D01*
X118462112Y-97777308D01*
X118366874Y-97777321D01*
X118224010Y-97729722D01*
X117652501Y-97158373D01*
X117652588Y-97777421D01*
X118652674Y-98396329D02*
X118652688Y-98491567D01*
X118605082Y-98586812D01*
X118557469Y-98634437D01*
X118462238Y-98682070D01*
X118271768Y-98729715D01*
X118033673Y-98729749D01*
X117843190Y-98682156D01*
X117747946Y-98634551D01*
X117700320Y-98586938D01*
X117652688Y-98491707D01*
X117652674Y-98396469D01*
X117700280Y-98301224D01*
X117747892Y-98253598D01*
X117843124Y-98205966D01*
X118033593Y-98158320D01*
X118271689Y-98158287D01*
X118462171Y-98205879D01*
X118557416Y-98253485D01*
X118605042Y-98301097D01*
X118652674Y-98396329D01*
X118652807Y-99348710D02*
X118652821Y-99443948D01*
X118605215Y-99539193D01*
X118557602Y-99586818D01*
X118462371Y-99634451D01*
X118271901Y-99682096D01*
X118033806Y-99682130D01*
X117843323Y-99634537D01*
X117748079Y-99586931D01*
X117700453Y-99539319D01*
X117652821Y-99444088D01*
X117652807Y-99348850D01*
X117700413Y-99253605D01*
X117748025Y-99205979D01*
X117843257Y-99158347D01*
X118033726Y-99110701D01*
X118271822Y-99110668D01*
X118462304Y-99158260D01*
X118557549Y-99205866D01*
X118605175Y-99253478D01*
X118652807Y-99348710D01*
X117653020Y-100872659D02*
X118319687Y-100872566D01*
X118224449Y-100872579D02*
X118272074Y-100920192D01*
X118319707Y-101015423D01*
X118319727Y-101158280D01*
X118272121Y-101253525D01*
X118176889Y-101301157D01*
X117653080Y-101301230D01*
X118176889Y-101301157D02*
X118272134Y-101348763D01*
X118319766Y-101443995D01*
X118319786Y-101586852D01*
X118272181Y-101682096D01*
X118176949Y-101729729D01*
X117653140Y-101729802D01*
X117653206Y-102205992D02*
X118319873Y-102205899D01*
X118224635Y-102205913D02*
X118272260Y-102253525D01*
X118319893Y-102348756D01*
X118319913Y-102491614D01*
X118272307Y-102586858D01*
X118177076Y-102634491D01*
X117653266Y-102634564D01*
X118177076Y-102634491D02*
X118272320Y-102682096D01*
X118319953Y-102777328D01*
X118319973Y-102920185D01*
X118272367Y-103015430D01*
X118177135Y-103063062D01*
X117653326Y-103063135D01*
D10*
X129390000Y-134300070D02*
X116373649Y-134301887D01*
X129380000Y-62680070D02*
X116363649Y-62681887D01*
X116960069Y-134301805D02*
X116950069Y-62681805D01*
X116960069Y-134301805D02*
X116950069Y-62681805D01*
X116960069Y-134301805D02*
X117546332Y-133175219D01*
X116960069Y-134301805D02*
X116373491Y-133175383D01*
X116950069Y-62681805D02*
X116363806Y-63808391D01*
X116950069Y-62681805D02*
X117536647Y-63808227D01*
D11*
X195667095Y-128559162D02*
X195669145Y-129178206D01*
X195287091Y-128846136D01*
X195287564Y-128988992D01*
X195240260Y-129084388D01*
X195192799Y-129132164D01*
X195097719Y-129180098D01*
X194859625Y-129180887D01*
X194764230Y-129133583D01*
X194716454Y-129086122D01*
X194668519Y-128991042D01*
X194667573Y-128705330D01*
X194714877Y-128609934D01*
X194762338Y-128562158D01*
X194765807Y-129609771D02*
X194718346Y-129657548D01*
X194670569Y-129610087D01*
X194718030Y-129562310D01*
X194765807Y-129609771D01*
X194670569Y-129610087D01*
X195672771Y-130273438D02*
X195673087Y-130368676D01*
X195625783Y-130464071D01*
X195578322Y-130511848D01*
X195483242Y-130559782D01*
X195292925Y-130608031D01*
X195054831Y-130608820D01*
X194864198Y-130561832D01*
X194768803Y-130514528D01*
X194721026Y-130467067D01*
X194673092Y-130371987D01*
X194672777Y-130276750D01*
X194720080Y-130181354D01*
X194767541Y-130133578D01*
X194862621Y-130085644D01*
X195052939Y-130037394D01*
X195291033Y-130036606D01*
X195481665Y-130083594D01*
X195577061Y-130130897D01*
X195624837Y-130178358D01*
X195672771Y-130273438D01*
X195579899Y-130988035D02*
X195627675Y-131035497D01*
X195675609Y-131130576D01*
X195676398Y-131368670D01*
X195629094Y-131464066D01*
X195581633Y-131511842D01*
X195486553Y-131559776D01*
X195391316Y-131560092D01*
X195248302Y-131512946D01*
X194674984Y-130943413D01*
X194677034Y-131562457D01*
X195679078Y-132178190D02*
X195679394Y-132273427D01*
X195632090Y-132368823D01*
X195584629Y-132416599D01*
X195489549Y-132464533D01*
X195299232Y-132512783D01*
X195061138Y-132513571D01*
X194870505Y-132466583D01*
X194775110Y-132419280D01*
X194727333Y-132371818D01*
X194679399Y-132276739D01*
X194679084Y-132181501D01*
X194726387Y-132086106D01*
X194773848Y-132038329D01*
X194868928Y-131990395D01*
X195059246Y-131942146D01*
X195297340Y-131941357D01*
X195487973Y-131988345D01*
X195583368Y-132035649D01*
X195631144Y-132083110D01*
X195679078Y-132178190D01*
X195682232Y-133130565D02*
X195682547Y-133225803D01*
X195635244Y-133321198D01*
X195587783Y-133368975D01*
X195492703Y-133416909D01*
X195302385Y-133465158D01*
X195064291Y-133465947D01*
X194873659Y-133418959D01*
X194778263Y-133371655D01*
X194730487Y-133324194D01*
X194682553Y-133229114D01*
X194682237Y-133133877D01*
X194729541Y-133038481D01*
X194777002Y-132990705D01*
X194872082Y-132942771D01*
X195062399Y-132894521D01*
X195300493Y-132893733D01*
X195491126Y-132940721D01*
X195586521Y-132988024D01*
X195634298Y-133035486D01*
X195682232Y-133130565D01*
X194687283Y-134657678D02*
X195353946Y-134655470D01*
X195258709Y-134655786D02*
X195306485Y-134703247D01*
X195354419Y-134798327D01*
X195354892Y-134941183D01*
X195307589Y-135036578D01*
X195212509Y-135084513D01*
X194688702Y-135086247D01*
X195212509Y-135084513D02*
X195307904Y-135131816D01*
X195355838Y-135226896D01*
X195356311Y-135369752D01*
X195309008Y-135465147D01*
X195213928Y-135513082D01*
X194690121Y-135514816D01*
X194691698Y-135991004D02*
X195358361Y-135988796D01*
X195263124Y-135989112D02*
X195310900Y-136036573D01*
X195358834Y-136131653D01*
X195359307Y-136274509D01*
X195312004Y-136369904D01*
X195216924Y-136417839D01*
X194693117Y-136419573D01*
X195216924Y-136417839D02*
X195312319Y-136465142D01*
X195360253Y-136560222D01*
X195360726Y-136703078D01*
X195313423Y-136798473D01*
X195218343Y-136846408D01*
X194694536Y-136848142D01*
D10*
X187009997Y-134288344D02*
X194574778Y-134263295D01*
X186999997Y-131268344D02*
X194564778Y-131243295D01*
X193988361Y-134265237D02*
X193978361Y-131245237D01*
X193988361Y-134265237D02*
X193978361Y-131245237D01*
X193988361Y-134265237D02*
X194571048Y-133136798D01*
X193988361Y-134265237D02*
X193398213Y-133140681D01*
X193978361Y-131245237D02*
X193395674Y-132373676D01*
X193978361Y-131245237D02*
X194568509Y-132369793D01*
D11*
X154138908Y-57877840D02*
X153662717Y-57877924D01*
X153615182Y-58354123D01*
X153662793Y-58306495D01*
X153758023Y-58258859D01*
X153996118Y-58258817D01*
X154091364Y-58306419D01*
X154138992Y-58354030D01*
X154186628Y-58449260D01*
X154186670Y-58687355D01*
X154139068Y-58782602D01*
X154091457Y-58830229D01*
X153996227Y-58877865D01*
X153758132Y-58877907D01*
X153662886Y-58830305D01*
X153615258Y-58782694D01*
X155043670Y-57877680D02*
X154853193Y-57877713D01*
X154757964Y-57925349D01*
X154710353Y-57972977D01*
X154615140Y-58115851D01*
X154567555Y-58306335D01*
X154567622Y-58687288D01*
X154615258Y-58782517D01*
X154662886Y-58830128D01*
X154758132Y-58877730D01*
X154948608Y-58877696D01*
X155043838Y-58830061D01*
X155091449Y-58782433D01*
X155139051Y-58687187D01*
X155139009Y-58449091D01*
X155091373Y-58353862D01*
X155043745Y-58306251D01*
X154948499Y-58258649D01*
X154758023Y-58258683D01*
X154662793Y-58306318D01*
X154615182Y-58353946D01*
X154567580Y-58449192D01*
X155567639Y-58782349D02*
X155615266Y-58829960D01*
X155567656Y-58877587D01*
X155520028Y-58829976D01*
X155567639Y-58782349D01*
X155567656Y-58877587D01*
X156519860Y-57877419D02*
X156043670Y-57877503D01*
X155996135Y-58353702D01*
X156043745Y-58306074D01*
X156138975Y-58258438D01*
X156377070Y-58258396D01*
X156472317Y-58305998D01*
X156519944Y-58353609D01*
X156567580Y-58448839D01*
X156567622Y-58686934D01*
X156520020Y-58782180D01*
X156472409Y-58829808D01*
X156377180Y-58877444D01*
X156139084Y-58877486D01*
X156043838Y-58829884D01*
X155996210Y-58782273D01*
X157472241Y-57877250D02*
X156996050Y-57877334D01*
X156948516Y-58353533D01*
X156996126Y-58305906D01*
X157091356Y-58258270D01*
X157329451Y-58258228D01*
X157424698Y-58305830D01*
X157472325Y-58353441D01*
X157519961Y-58448670D01*
X157520003Y-58686766D01*
X157472401Y-58782012D01*
X157424790Y-58829640D01*
X157329561Y-58877275D01*
X157091465Y-58877318D01*
X156996219Y-58829715D01*
X156948591Y-58782105D01*
X158138908Y-57877132D02*
X158234146Y-57877115D01*
X158329392Y-57924718D01*
X158377020Y-57972328D01*
X158424656Y-58067558D01*
X158472308Y-58258026D01*
X158472350Y-58496121D01*
X158424765Y-58686606D01*
X158377163Y-58781852D01*
X158329552Y-58829480D01*
X158234322Y-58877115D01*
X158139084Y-58877132D01*
X158043838Y-58829530D01*
X157996210Y-58781919D01*
X157948575Y-58686690D01*
X157900922Y-58496222D01*
X157900880Y-58258127D01*
X157948465Y-58067642D01*
X157996067Y-57972396D01*
X158043678Y-57924768D01*
X158138908Y-57877132D01*
X159091289Y-57876964D02*
X159186527Y-57876947D01*
X159281773Y-57924549D01*
X159329401Y-57972160D01*
X159377036Y-58067390D01*
X159424689Y-58257857D01*
X159424731Y-58495953D01*
X159377146Y-58686437D01*
X159329544Y-58781684D01*
X159281933Y-58829311D01*
X159186703Y-58876947D01*
X159091465Y-58876964D01*
X158996219Y-58829362D01*
X158948591Y-58781751D01*
X158900955Y-58686521D01*
X158853303Y-58496054D01*
X158853261Y-58257958D01*
X158900846Y-58067474D01*
X158948448Y-57972227D01*
X158996059Y-57924600D01*
X159091289Y-57876964D01*
X160615275Y-58876694D02*
X160615157Y-58210028D01*
X160615174Y-58305266D02*
X160662784Y-58257638D01*
X160758014Y-58210002D01*
X160900871Y-58209977D01*
X160996118Y-58257579D01*
X161043754Y-58352809D01*
X161043846Y-58876619D01*
X161043754Y-58352809D02*
X161091356Y-58257563D01*
X161186586Y-58209927D01*
X161329443Y-58209901D01*
X161424689Y-58257504D01*
X161472325Y-58352733D01*
X161472418Y-58876543D01*
X161948608Y-58876459D02*
X161948490Y-58209792D01*
X161948507Y-58305030D02*
X161996118Y-58257403D01*
X162091347Y-58209767D01*
X162234205Y-58209741D01*
X162329451Y-58257344D01*
X162377087Y-58352573D01*
X162377180Y-58876383D01*
X162377087Y-58352573D02*
X162424689Y-58257327D01*
X162519919Y-58209691D01*
X162662776Y-58209666D01*
X162758022Y-58257268D01*
X162805658Y-58352498D01*
X162805751Y-58876307D01*
D10*
X129959912Y-62210000D02*
X129959343Y-58993315D01*
X186509912Y-62200000D02*
X186509343Y-58983315D01*
X129959446Y-59579735D02*
X186509446Y-59569735D01*
X129959446Y-59579735D02*
X186509446Y-59569735D01*
X129959446Y-59579735D02*
X131086053Y-60165957D01*
X129959446Y-59579735D02*
X131085846Y-58993115D01*
X186509446Y-59569735D02*
X185382839Y-58983513D01*
X186509446Y-59569735D02*
X185383046Y-60156355D01*
D11*
X123205185Y-96301104D02*
X123205072Y-96110628D01*
X123157397Y-96015418D01*
X123109750Y-95967827D01*
X122966836Y-95872674D01*
X122776332Y-95825167D01*
X122395380Y-95825392D01*
X122300170Y-95873068D01*
X122252579Y-95920715D01*
X122205016Y-96015981D01*
X122205129Y-96206457D01*
X122252804Y-96301667D01*
X122300451Y-96349258D01*
X122395718Y-96396821D01*
X122633813Y-96396680D01*
X122729023Y-96349005D01*
X122776614Y-96301358D01*
X122824176Y-96206091D01*
X122824064Y-96015615D01*
X122776388Y-95920405D01*
X122728741Y-95872815D01*
X122633475Y-95825252D01*
X123205438Y-96729676D02*
X123205832Y-97396342D01*
X122205579Y-96968362D01*
X122301296Y-97777829D02*
X122253705Y-97825477D01*
X122206058Y-97777886D01*
X122253648Y-97730238D01*
X122301296Y-97777829D01*
X122206058Y-97777886D01*
X123206592Y-98682056D02*
X123206480Y-98491580D01*
X123158804Y-98396370D01*
X123111157Y-98348779D01*
X122968244Y-98253626D01*
X122777739Y-98206119D01*
X122396787Y-98206344D01*
X122301577Y-98254020D01*
X122253986Y-98301667D01*
X122206423Y-98396933D01*
X122206536Y-98587409D01*
X122254211Y-98682619D01*
X122301859Y-98730210D01*
X122397125Y-98777773D01*
X122635220Y-98777632D01*
X122730430Y-98729957D01*
X122778021Y-98682310D01*
X122825584Y-98587043D01*
X122825471Y-98396567D01*
X122777796Y-98301357D01*
X122730148Y-98253766D01*
X122634882Y-98206204D01*
X122778415Y-99348976D02*
X122825978Y-99253710D01*
X122873568Y-99206063D01*
X122968778Y-99158388D01*
X123016397Y-99158359D01*
X123111664Y-99205922D01*
X123159311Y-99253513D01*
X123206986Y-99348723D01*
X123207099Y-99539199D01*
X123159536Y-99634465D01*
X123111945Y-99682113D01*
X123016735Y-99729788D01*
X122969116Y-99729816D01*
X122873850Y-99682253D01*
X122826203Y-99634662D01*
X122778527Y-99539452D01*
X122778415Y-99348976D01*
X122730739Y-99253766D01*
X122683092Y-99206175D01*
X122587826Y-99158613D01*
X122397350Y-99158725D01*
X122302140Y-99206401D01*
X122254549Y-99254048D01*
X122206986Y-99349314D01*
X122207099Y-99539790D01*
X122254774Y-99635000D01*
X122302421Y-99682591D01*
X122397688Y-99730154D01*
X122588164Y-99730041D01*
X122683374Y-99682366D01*
X122730965Y-99634719D01*
X122778527Y-99539452D01*
X123207577Y-100348723D02*
X123207633Y-100443961D01*
X123160071Y-100539227D01*
X123112480Y-100586874D01*
X123017270Y-100634550D01*
X122826822Y-100682281D01*
X122588727Y-100682422D01*
X122398222Y-100634915D01*
X122302956Y-100587353D01*
X122255309Y-100539762D01*
X122207634Y-100444552D01*
X122207577Y-100349314D01*
X122255140Y-100254048D01*
X122302731Y-100206400D01*
X122397941Y-100158725D01*
X122588389Y-100110993D01*
X122826484Y-100110853D01*
X123016988Y-100158359D01*
X123112255Y-100205922D01*
X123159902Y-100253513D01*
X123207577Y-100348723D01*
X123208140Y-101301104D02*
X123208196Y-101396342D01*
X123160634Y-101491608D01*
X123113043Y-101539255D01*
X123017833Y-101586930D01*
X122827385Y-101634662D01*
X122589290Y-101634803D01*
X122398785Y-101587296D01*
X122303519Y-101539733D01*
X122255872Y-101492143D01*
X122208196Y-101396933D01*
X122208140Y-101301695D01*
X122255703Y-101206428D01*
X122303294Y-101158781D01*
X122398504Y-101111106D01*
X122588952Y-101063374D01*
X122827047Y-101063234D01*
X123017551Y-101110740D01*
X123112818Y-101158303D01*
X123160465Y-101205894D01*
X123208140Y-101301104D01*
X122209041Y-102825504D02*
X122875707Y-102825110D01*
X122780469Y-102825166D02*
X122828116Y-102872757D01*
X122875792Y-102967967D01*
X122875876Y-103110824D01*
X122828313Y-103206090D01*
X122733104Y-103253766D01*
X122209294Y-103254075D01*
X122733104Y-103253766D02*
X122828370Y-103301328D01*
X122876045Y-103396538D01*
X122876130Y-103539395D01*
X122828567Y-103634662D01*
X122733357Y-103682337D01*
X122209547Y-103682647D01*
X122209829Y-104158837D02*
X122876495Y-104158443D01*
X122781257Y-104158499D02*
X122828904Y-104206090D01*
X122876580Y-104301300D01*
X122876664Y-104444157D01*
X122829101Y-104539423D01*
X122733892Y-104587099D01*
X122210082Y-104587408D01*
X122733892Y-104587099D02*
X122829158Y-104634661D01*
X122876833Y-104729871D01*
X122876918Y-104872729D01*
X122829355Y-104967995D01*
X122734145Y-105015670D01*
X122210335Y-105015980D01*
D10*
X129430000Y-134280296D02*
X120943595Y-134285312D01*
X129390000Y-66600296D02*
X120903595Y-66605312D01*
X121530015Y-134284965D02*
X121490015Y-66604965D01*
X121530015Y-134284965D02*
X121490015Y-66604965D01*
X121530015Y-134284965D02*
X122115770Y-133158115D01*
X121530015Y-134284965D02*
X120942929Y-133158808D01*
X121490015Y-66604965D02*
X120904260Y-67731815D01*
X121490015Y-66604965D02*
X122077101Y-67731122D01*
X126927142Y-124808571D02*
X126908095Y-124789523D01*
X126889047Y-124732380D01*
X126889047Y-124694285D01*
X126908095Y-124637142D01*
X126946190Y-124599047D01*
X126984285Y-124580000D01*
X127060476Y-124560952D01*
X127117619Y-124560952D01*
X127193809Y-124580000D01*
X127231904Y-124599047D01*
X127270000Y-124637142D01*
X127289047Y-124694285D01*
X127289047Y-124732380D01*
X127270000Y-124789523D01*
X127250952Y-124808571D01*
X126889047Y-125037142D02*
X126908095Y-124999047D01*
X126927142Y-124980000D01*
X126965238Y-124960952D01*
X127079523Y-124960952D01*
X127117619Y-124980000D01*
X127136666Y-124999047D01*
X127155714Y-125037142D01*
X127155714Y-125094285D01*
X127136666Y-125132380D01*
X127117619Y-125151428D01*
X127079523Y-125170476D01*
X126965238Y-125170476D01*
X126927142Y-125151428D01*
X126908095Y-125132380D01*
X126889047Y-125094285D01*
X126889047Y-125037142D01*
X127155714Y-125341904D02*
X126889047Y-125341904D01*
X127117619Y-125341904D02*
X127136666Y-125360952D01*
X127155714Y-125399047D01*
X127155714Y-125456190D01*
X127136666Y-125494285D01*
X127098571Y-125513333D01*
X126889047Y-125513333D01*
X127155714Y-125703809D02*
X126889047Y-125703809D01*
X127117619Y-125703809D02*
X127136666Y-125722857D01*
X127155714Y-125760952D01*
X127155714Y-125818095D01*
X127136666Y-125856190D01*
X127098571Y-125875238D01*
X126889047Y-125875238D01*
X126908095Y-126218095D02*
X126889047Y-126180000D01*
X126889047Y-126103809D01*
X126908095Y-126065714D01*
X126946190Y-126046666D01*
X127098571Y-126046666D01*
X127136666Y-126065714D01*
X127155714Y-126103809D01*
X127155714Y-126180000D01*
X127136666Y-126218095D01*
X127098571Y-126237142D01*
X127060476Y-126237142D01*
X127022380Y-126046666D01*
X126908095Y-126580000D02*
X126889047Y-126541904D01*
X126889047Y-126465714D01*
X126908095Y-126427619D01*
X126927142Y-126408571D01*
X126965238Y-126389523D01*
X127079523Y-126389523D01*
X127117619Y-126408571D01*
X127136666Y-126427619D01*
X127155714Y-126465714D01*
X127155714Y-126541904D01*
X127136666Y-126580000D01*
X127155714Y-126694285D02*
X127155714Y-126846666D01*
X127289047Y-126751428D02*
X126946190Y-126751428D01*
X126908095Y-126770476D01*
X126889047Y-126808571D01*
X126889047Y-126846666D01*
X126889047Y-127037142D02*
X126908095Y-126999047D01*
X126927142Y-126980000D01*
X126965238Y-126960952D01*
X127079523Y-126960952D01*
X127117619Y-126980000D01*
X127136666Y-126999047D01*
X127155714Y-127037142D01*
X127155714Y-127094285D01*
X127136666Y-127132380D01*
X127117619Y-127151428D01*
X127079523Y-127170476D01*
X126965238Y-127170476D01*
X126927142Y-127151428D01*
X126908095Y-127132380D01*
X126889047Y-127094285D01*
X126889047Y-127037142D01*
X126889047Y-127341904D02*
X127155714Y-127341904D01*
X127079523Y-127341904D02*
X127117619Y-127360952D01*
X127136666Y-127380000D01*
X127155714Y-127418095D01*
X127155714Y-127456190D01*
X127098571Y-128027619D02*
X127098571Y-127894285D01*
X126889047Y-127894285D02*
X127289047Y-127894285D01*
X127289047Y-128084761D01*
X126889047Y-128237142D02*
X127155714Y-128237142D01*
X127079523Y-128237142D02*
X127117619Y-128256190D01*
X127136666Y-128275238D01*
X127155714Y-128313333D01*
X127155714Y-128351428D01*
X126889047Y-128541904D02*
X126908095Y-128503809D01*
X126927142Y-128484761D01*
X126965238Y-128465714D01*
X127079523Y-128465714D01*
X127117619Y-128484761D01*
X127136666Y-128503809D01*
X127155714Y-128541904D01*
X127155714Y-128599047D01*
X127136666Y-128637142D01*
X127117619Y-128656190D01*
X127079523Y-128675238D01*
X126965238Y-128675238D01*
X126927142Y-128656190D01*
X126908095Y-128637142D01*
X126889047Y-128599047D01*
X126889047Y-128541904D01*
X127155714Y-128846666D02*
X126889047Y-128846666D01*
X127117619Y-128846666D02*
X127136666Y-128865714D01*
X127155714Y-128903809D01*
X127155714Y-128960952D01*
X127136666Y-128999047D01*
X127098571Y-129018095D01*
X126889047Y-129018095D01*
X127155714Y-129151428D02*
X127155714Y-129303809D01*
X127289047Y-129208571D02*
X126946190Y-129208571D01*
X126908095Y-129227619D01*
X126889047Y-129265714D01*
X126889047Y-129303809D01*
X127098571Y-129741904D02*
X127098571Y-129875238D01*
X126889047Y-129932380D02*
X126889047Y-129741904D01*
X127289047Y-129741904D01*
X127289047Y-129932380D01*
X126889047Y-130275238D02*
X127289047Y-130275238D01*
X126908095Y-130275238D02*
X126889047Y-130237142D01*
X126889047Y-130160952D01*
X126908095Y-130122857D01*
X126927142Y-130103809D01*
X126965238Y-130084761D01*
X127079523Y-130084761D01*
X127117619Y-130103809D01*
X127136666Y-130122857D01*
X127155714Y-130160952D01*
X127155714Y-130237142D01*
X127136666Y-130275238D01*
X127155714Y-130637142D02*
X126831904Y-130637142D01*
X126793809Y-130618095D01*
X126774761Y-130599047D01*
X126755714Y-130560952D01*
X126755714Y-130503809D01*
X126774761Y-130465714D01*
X126908095Y-130637142D02*
X126889047Y-130599047D01*
X126889047Y-130522857D01*
X126908095Y-130484761D01*
X126927142Y-130465714D01*
X126965238Y-130446666D01*
X127079523Y-130446666D01*
X127117619Y-130465714D01*
X127136666Y-130484761D01*
X127155714Y-130522857D01*
X127155714Y-130599047D01*
X127136666Y-130637142D01*
X126908095Y-130980000D02*
X126889047Y-130941904D01*
X126889047Y-130865714D01*
X126908095Y-130827619D01*
X126946190Y-130808571D01*
X127098571Y-130808571D01*
X127136666Y-130827619D01*
X127155714Y-130865714D01*
X127155714Y-130941904D01*
X127136666Y-130980000D01*
X127098571Y-130999047D01*
X127060476Y-130999047D01*
X127022380Y-130808571D01*
D12*
X127582500Y-124120000D02*
X126462500Y-124120000D01*
X127582500Y-117720000D02*
X127582500Y-130520000D01*
M02*
