%TF.GenerationSoftware,KiCad,Pcbnew,7.0.10*%
%TF.CreationDate,2025-01-07T15:59:30-07:00*%
%TF.ProjectId,HATA_ver_8.3.1,48415441-5f76-4657-925f-382e332e312e,8.3.1*%
%TF.SameCoordinates,Original*%
%TF.FileFunction,Copper,L3,Inr*%
%TF.FilePolarity,Positive*%
%FSLAX46Y46*%
G04 Gerber Fmt 4.6, Leading zero omitted, Abs format (unit mm)*
G04 Created by KiCad (PCBNEW 7.0.10) date 2025-01-07 15:59:30*
%MOMM*%
%LPD*%
G01*
G04 APERTURE LIST*
%TA.AperFunction,ComponentPad*%
%ADD10C,1.500000*%
%TD*%
%TA.AperFunction,ComponentPad*%
%ADD11R,1.700000X1.700000*%
%TD*%
%TA.AperFunction,ComponentPad*%
%ADD12O,1.700000X1.700000*%
%TD*%
%TA.AperFunction,ViaPad*%
%ADD13C,0.600000*%
%TD*%
G04 APERTURE END LIST*
D10*
%TO.N,Net-(C3-Pad1)*%
%TO.C,TP3*%
X239430000Y-151780000D03*
%TD*%
%TO.N,/Power control/AC_IN*%
%TO.C,TP5*%
X202040000Y-127380000D03*
%TD*%
%TO.N,/BBD_IPS_OUT*%
%TO.C,TP2*%
X239490000Y-146720000D03*
%TD*%
%TO.N,/5V_OUT*%
%TO.C,TP4*%
X239350000Y-171050000D03*
%TD*%
D11*
%TO.N,/5V_OUT*%
%TO.C,P7*%
X235200000Y-175320000D03*
%TD*%
%TO.N,/Power control/BATT+*%
%TO.C,J10*%
X236790000Y-122800000D03*
D12*
%TO.N,GND*%
X239330000Y-122800000D03*
%TO.N,/A_GND*%
X236790000Y-125340000D03*
%TO.N,GND*%
X239330000Y-125340000D03*
%TO.N,/5V_OUT*%
X236790000Y-127880000D03*
%TO.N,/BBD_IPS_OUT*%
X239330000Y-127880000D03*
%TO.N,/BBD_PA6*%
X236790000Y-130420000D03*
%TO.N,/BBD_CHG_LED*%
X239330000Y-130420000D03*
%TO.N,/BBD_PB1*%
X236790000Y-132960000D03*
%TO.N,/BBD_PB2*%
X239330000Y-132960000D03*
%TD*%
%TO.N,/5V_OUT*%
%TO.C,P2*%
X215930000Y-103390000D03*
%TD*%
D10*
%TO.N,GND*%
%TO.C,TP1*%
X202040000Y-119730000D03*
%TD*%
%TO.N,/Power control/BATT+*%
%TO.C,TP6*%
X239770000Y-112850000D03*
%TD*%
D13*
%TO.N,/Power control/AC_IN*%
X212526250Y-117403750D03*
%TO.N,GND*%
X206170000Y-136660000D03*
X227026250Y-122093750D03*
X220566250Y-109863750D03*
X211376250Y-110403750D03*
X232440000Y-154600000D03*
X207506250Y-110493750D03*
X226260000Y-130170000D03*
X208100000Y-106510000D03*
X233330000Y-154340000D03*
X237860000Y-160440000D03*
X225416250Y-130153750D03*
X206685000Y-136145000D03*
X224726250Y-130153750D03*
%TO.N,/3v3*%
X227300000Y-166860000D03*
X233960000Y-105290000D03*
%TO.N,/A_GND*%
X203630000Y-139290000D03*
X223870000Y-165230000D03*
X211266250Y-124313750D03*
X224836250Y-132153750D03*
X223370000Y-145890000D03*
X231530000Y-145960000D03*
X226416250Y-132163750D03*
X225606250Y-132153750D03*
X211590000Y-105890000D03*
X232970000Y-172450000D03*
X209510000Y-139850000D03*
X226210000Y-145960000D03*
%TO.N,Net-(C3-Pad1)*%
X232750000Y-159770000D03*
X232770000Y-155810000D03*
%TO.N,/5V_OUT*%
X206830000Y-138420000D03*
X227620000Y-149490000D03*
X238472411Y-119230000D03*
X227620000Y-154680000D03*
X238580000Y-106030000D03*
X219210000Y-134460000D03*
X227620000Y-152060000D03*
%TO.N,/Power control/BATT+*%
X217190000Y-112330000D03*
X237080000Y-114250000D03*
X236210000Y-114220000D03*
X217202700Y-113160000D03*
X235430000Y-114220000D03*
%TO.N,/BBD_IPS_OUT*%
X218920000Y-112970000D03*
X215585000Y-123715000D03*
X232980000Y-162020000D03*
X231810000Y-162020000D03*
X233990000Y-162020000D03*
X231860000Y-153520000D03*
X232650000Y-153310000D03*
X240094577Y-116703898D03*
X219810000Y-123860000D03*
X213136250Y-116533750D03*
X215893304Y-113566588D03*
X227036250Y-119273750D03*
%TO.N,Net-(C16-Pad2)*%
X215530000Y-112530000D03*
X210576250Y-112873750D03*
%TO.N,/Power control/EXT_EN*%
X221530000Y-147630000D03*
%TO.N,Net-(D2-Pad2)*%
X231660000Y-108250000D03*
%TO.N,/BBD_PB1*%
X221530000Y-113130000D03*
X238300000Y-102680000D03*
X237390000Y-112250000D03*
%TO.N,/BBD_PB2*%
X234820000Y-110330000D03*
%TO.N,/BBD_PA6*%
X224830000Y-142470000D03*
X240340000Y-136400000D03*
X235580000Y-142680000D03*
%TO.N,/BBD_CHG_LED*%
X212763566Y-115851617D03*
X240320000Y-115960000D03*
%TO.N,/SCL*%
X222600000Y-116570000D03*
X233104040Y-116720000D03*
X231833789Y-116736211D03*
%TO.N,/SDA*%
X223280000Y-108430000D03*
X232530000Y-116170000D03*
X222010000Y-116030000D03*
%TO.N,/USB2_D-*%
X213930000Y-131750000D03*
%TO.N,/USB2_D+*%
X214410000Y-132340000D03*
%TO.N,Net-(R18-Pad1)*%
X213986250Y-113993750D03*
X210556250Y-114233750D03*
%TD*%
%TA.AperFunction,Conductor*%
%TO.N,/Power control/BATT+*%
G36*
X219949072Y-110126034D02*
G01*
X220017093Y-110146368D01*
X220048417Y-110175328D01*
X220137965Y-110292029D01*
X220137966Y-110292030D01*
X220137968Y-110292032D01*
X220263409Y-110388286D01*
X220409488Y-110448794D01*
X220566250Y-110469432D01*
X220723012Y-110448794D01*
X220869091Y-110388286D01*
X220994532Y-110292032D01*
X221079463Y-110181347D01*
X221136800Y-110139480D01*
X221180035Y-110132053D01*
X234089013Y-110195178D01*
X234157030Y-110215511D01*
X234203260Y-110269394D01*
X234211004Y-110321742D01*
X234214318Y-110321742D01*
X234214318Y-110330001D01*
X234234955Y-110486760D01*
X234234956Y-110486762D01*
X234295464Y-110632841D01*
X234391718Y-110758282D01*
X234517159Y-110854536D01*
X234663238Y-110915044D01*
X234820000Y-110935682D01*
X234976762Y-110915044D01*
X235122841Y-110854536D01*
X235248282Y-110758282D01*
X235344536Y-110632841D01*
X235405044Y-110486762D01*
X235425682Y-110330000D01*
X235425682Y-110328331D01*
X235426080Y-110326974D01*
X235426760Y-110321812D01*
X235427565Y-110321917D01*
X235445684Y-110260210D01*
X235499340Y-110213717D01*
X235552293Y-110202333D01*
X241085159Y-110229389D01*
X241153180Y-110249723D01*
X241199410Y-110303606D01*
X241210541Y-110354840D01*
X241219602Y-112441843D01*
X241199896Y-112510050D01*
X241146442Y-112556775D01*
X241076213Y-112567184D01*
X241011505Y-112537972D01*
X240972862Y-112478413D01*
X240971896Y-112475000D01*
X240956650Y-112418099D01*
X240956647Y-112418092D01*
X240863619Y-112218594D01*
X240821199Y-112158011D01*
X240821197Y-112158011D01*
X240129210Y-112849999D01*
X240129210Y-112850001D01*
X240821196Y-113541987D01*
X240821197Y-113541987D01*
X240863622Y-113481399D01*
X240956647Y-113281907D01*
X240956650Y-113281900D01*
X240975379Y-113212001D01*
X241012330Y-113151378D01*
X241076190Y-113120356D01*
X241146685Y-113128784D01*
X241201432Y-113173986D01*
X241223050Y-113241611D01*
X241223085Y-113244064D01*
X241269455Y-123924604D01*
X241249749Y-123992811D01*
X241196295Y-124039536D01*
X241144608Y-124051146D01*
X239920705Y-124062340D01*
X239852405Y-124042962D01*
X239805423Y-123989733D01*
X239794677Y-123919555D01*
X239823578Y-123854707D01*
X239853217Y-123829221D01*
X240026302Y-123722052D01*
X240183872Y-123578407D01*
X240312366Y-123408255D01*
X240407405Y-123217389D01*
X240465756Y-123012310D01*
X240485429Y-122800000D01*
X240465756Y-122587690D01*
X240407405Y-122382611D01*
X240312366Y-122191745D01*
X240183872Y-122021593D01*
X240091066Y-121936988D01*
X240026300Y-121877946D01*
X240026298Y-121877945D01*
X239845025Y-121765705D01*
X239845021Y-121765703D01*
X239845019Y-121765702D01*
X239685837Y-121704035D01*
X239646199Y-121688679D01*
X239593801Y-121678884D01*
X239436610Y-121649500D01*
X239223390Y-121649500D01*
X239097637Y-121673007D01*
X239013800Y-121688679D01*
X238859754Y-121748356D01*
X238814981Y-121765702D01*
X238814980Y-121765702D01*
X238814979Y-121765703D01*
X238814974Y-121765705D01*
X238633701Y-121877945D01*
X238633699Y-121877946D01*
X238476129Y-122021591D01*
X238374550Y-122156103D01*
X238317535Y-122198410D01*
X238246699Y-122203177D01*
X238184530Y-122168890D01*
X238150768Y-122106435D01*
X238148000Y-122080170D01*
X238148000Y-121901414D01*
X238147999Y-121901402D01*
X238141494Y-121840906D01*
X238090444Y-121704035D01*
X238090444Y-121704034D01*
X238002904Y-121587095D01*
X237885965Y-121499555D01*
X237749093Y-121448505D01*
X237688597Y-121442000D01*
X237044000Y-121442000D01*
X237044000Y-122366325D01*
X236932315Y-122315320D01*
X236825763Y-122300000D01*
X236754237Y-122300000D01*
X236647685Y-122315320D01*
X236536000Y-122366325D01*
X236536000Y-121442000D01*
X235891402Y-121442000D01*
X235830906Y-121448505D01*
X235694035Y-121499555D01*
X235694034Y-121499555D01*
X235577095Y-121587095D01*
X235489555Y-121704034D01*
X235489555Y-121704035D01*
X235438505Y-121840906D01*
X235432000Y-121901402D01*
X235432000Y-122546000D01*
X236358884Y-122546000D01*
X236330507Y-122590156D01*
X236290000Y-122728111D01*
X236290000Y-122871889D01*
X236330507Y-123009844D01*
X236358884Y-123054000D01*
X235432000Y-123054000D01*
X235432000Y-123698597D01*
X235438505Y-123759093D01*
X235489555Y-123895964D01*
X235489556Y-123895966D01*
X235494247Y-123902232D01*
X235519060Y-123968751D01*
X235503970Y-124038126D01*
X235453769Y-124088329D01*
X235394533Y-124103738D01*
X234836871Y-124108839D01*
X234768571Y-124089461D01*
X234721589Y-124036232D01*
X234709719Y-123983126D01*
X234700000Y-119580000D01*
X234699999Y-119579998D01*
X234434726Y-119230000D01*
X237866729Y-119230000D01*
X237887366Y-119386760D01*
X237925577Y-119479008D01*
X237947875Y-119532841D01*
X238044129Y-119658282D01*
X238169570Y-119754536D01*
X238315649Y-119815044D01*
X238472411Y-119835682D01*
X238629173Y-119815044D01*
X238775252Y-119754536D01*
X238900693Y-119658282D01*
X238996947Y-119532841D01*
X239057455Y-119386762D01*
X239078093Y-119230000D01*
X239057455Y-119073238D01*
X238996947Y-118927159D01*
X238900693Y-118801718D01*
X238775252Y-118705464D01*
X238684971Y-118668068D01*
X238629171Y-118644955D01*
X238472411Y-118624318D01*
X238315650Y-118644955D01*
X238169571Y-118705463D01*
X238169568Y-118705465D01*
X238044129Y-118801718D01*
X237947876Y-118927157D01*
X237947874Y-118927160D01*
X237887366Y-119073239D01*
X237866729Y-119229999D01*
X237866729Y-119230000D01*
X234434726Y-119230000D01*
X233511749Y-118012236D01*
X233486543Y-117945865D01*
X233486219Y-117939781D01*
X233466807Y-117264345D01*
X233484844Y-117195682D01*
X233516051Y-117160766D01*
X233532322Y-117148282D01*
X233628576Y-117022841D01*
X233689084Y-116876762D01*
X233709722Y-116720000D01*
X233707602Y-116703898D01*
X239488895Y-116703898D01*
X239509532Y-116860658D01*
X239522918Y-116892973D01*
X239570041Y-117006739D01*
X239666295Y-117132180D01*
X239791736Y-117228434D01*
X239937815Y-117288942D01*
X240094577Y-117309580D01*
X240251339Y-117288942D01*
X240397418Y-117228434D01*
X240522859Y-117132180D01*
X240619113Y-117006739D01*
X240679621Y-116860660D01*
X240700259Y-116703898D01*
X240679621Y-116547136D01*
X240679617Y-116547126D01*
X240677814Y-116540395D01*
X240679504Y-116469418D01*
X240719298Y-116410622D01*
X240722776Y-116407852D01*
X240748282Y-116388282D01*
X240844536Y-116262841D01*
X240905044Y-116116762D01*
X240925682Y-115960000D01*
X240905044Y-115803238D01*
X240844536Y-115657159D01*
X240748282Y-115531718D01*
X240622841Y-115435464D01*
X240595933Y-115424318D01*
X240476760Y-115374955D01*
X240320000Y-115354318D01*
X240163239Y-115374955D01*
X240017160Y-115435463D01*
X240017157Y-115435465D01*
X239891718Y-115531718D01*
X239795465Y-115657157D01*
X239795463Y-115657160D01*
X239734955Y-115803239D01*
X239714318Y-115959999D01*
X239714318Y-115960000D01*
X239734956Y-116116766D01*
X239736762Y-116123505D01*
X239735071Y-116194481D01*
X239695275Y-116253276D01*
X239691761Y-116256074D01*
X239666296Y-116275614D01*
X239570042Y-116401055D01*
X239570040Y-116401058D01*
X239509532Y-116547137D01*
X239488895Y-116703897D01*
X239488895Y-116703898D01*
X233707602Y-116703898D01*
X233689084Y-116563238D01*
X233628576Y-116417159D01*
X233532322Y-116291718D01*
X233532321Y-116291717D01*
X233484269Y-116254845D01*
X233442402Y-116197506D01*
X233435026Y-116158503D01*
X233370152Y-113901198D01*
X239078011Y-113901198D01*
X239138597Y-113943621D01*
X239338092Y-114036647D01*
X239338096Y-114036649D01*
X239550712Y-114093619D01*
X239770000Y-114112804D01*
X239989287Y-114093619D01*
X240201903Y-114036649D01*
X240201907Y-114036647D01*
X240401399Y-113943622D01*
X240461987Y-113901197D01*
X240461987Y-113901196D01*
X239770001Y-113209210D01*
X239770000Y-113209210D01*
X239078011Y-113901197D01*
X239078011Y-113901198D01*
X233370152Y-113901198D01*
X233350000Y-113200000D01*
X233349999Y-113200000D01*
X233349999Y-113199999D01*
X222262371Y-113260587D01*
X222194141Y-113240958D01*
X222147356Y-113187557D01*
X222135682Y-113134589D01*
X222135682Y-113129999D01*
X222115044Y-112973239D01*
X222113703Y-112970000D01*
X222054536Y-112827159D01*
X221958282Y-112701718D01*
X221832841Y-112605464D01*
X221705801Y-112552842D01*
X221686760Y-112544955D01*
X221530000Y-112524318D01*
X221373239Y-112544955D01*
X221227160Y-112605463D01*
X221227157Y-112605465D01*
X221101718Y-112701718D01*
X221005465Y-112827157D01*
X221005463Y-112827160D01*
X220944955Y-112973239D01*
X220924318Y-113129998D01*
X220924318Y-113138258D01*
X220921921Y-113138258D01*
X220912865Y-113196296D01*
X220865732Y-113249390D01*
X220799576Y-113268581D01*
X220618623Y-113269570D01*
X220550394Y-113249941D01*
X220505060Y-113199566D01*
X220034016Y-112250000D01*
X236784318Y-112250000D01*
X236804955Y-112406760D01*
X236862198Y-112544955D01*
X236865464Y-112552841D01*
X236961718Y-112678282D01*
X237087159Y-112774536D01*
X237233238Y-112835044D01*
X237390000Y-112855682D01*
X237433159Y-112850000D01*
X238507195Y-112850000D01*
X238526380Y-113069287D01*
X238583350Y-113281903D01*
X238583352Y-113281907D01*
X238676379Y-113481403D01*
X238718800Y-113541987D01*
X239381487Y-112879302D01*
X239416372Y-112879302D01*
X239445047Y-112992538D01*
X239508936Y-113090327D01*
X239601115Y-113162072D01*
X239711595Y-113200000D01*
X239799005Y-113200000D01*
X239885216Y-113185614D01*
X239987947Y-113130019D01*
X240067060Y-113044079D01*
X240113982Y-112937108D01*
X240123628Y-112820698D01*
X240094953Y-112707462D01*
X240031064Y-112609673D01*
X239938885Y-112537928D01*
X239828405Y-112500000D01*
X239740995Y-112500000D01*
X239654784Y-112514386D01*
X239552053Y-112569981D01*
X239472940Y-112655921D01*
X239426018Y-112762892D01*
X239416372Y-112879302D01*
X239381487Y-112879302D01*
X239410790Y-112849999D01*
X238718801Y-112158010D01*
X238676378Y-112218598D01*
X238583352Y-112418092D01*
X238583350Y-112418096D01*
X238526380Y-112630712D01*
X238507195Y-112850000D01*
X237433159Y-112850000D01*
X237546762Y-112835044D01*
X237692841Y-112774536D01*
X237818282Y-112678282D01*
X237914536Y-112552841D01*
X237975044Y-112406762D01*
X237995682Y-112250000D01*
X237975044Y-112093238D01*
X237914536Y-111947159D01*
X237818282Y-111821718D01*
X237788416Y-111798801D01*
X239078010Y-111798801D01*
X239769999Y-112490790D01*
X239770000Y-112490790D01*
X240461987Y-111798800D01*
X240401403Y-111756379D01*
X240201907Y-111663352D01*
X240201903Y-111663350D01*
X239989287Y-111606380D01*
X239770000Y-111587195D01*
X239550712Y-111606380D01*
X239338096Y-111663350D01*
X239338092Y-111663352D01*
X239138598Y-111756378D01*
X239078010Y-111798801D01*
X237788416Y-111798801D01*
X237692841Y-111725464D01*
X237546762Y-111664956D01*
X237546760Y-111664955D01*
X237390000Y-111644318D01*
X237233239Y-111664955D01*
X237087160Y-111725463D01*
X237087157Y-111725465D01*
X236961718Y-111821718D01*
X236865465Y-111947157D01*
X236865463Y-111947160D01*
X236804955Y-112093239D01*
X236784318Y-112249999D01*
X236784318Y-112250000D01*
X220034016Y-112250000D01*
X219910000Y-112000000D01*
X219909999Y-112000000D01*
X219909999Y-111999999D01*
X218320000Y-112019999D01*
X217695709Y-113221286D01*
X217646548Y-113272508D01*
X217582565Y-113289176D01*
X216842708Y-113281305D01*
X216774804Y-113260579D01*
X216728884Y-113206432D01*
X216718064Y-113157302D01*
X216672028Y-110238610D01*
X216690953Y-110170185D01*
X216743869Y-110122852D01*
X216798623Y-110110628D01*
X219949072Y-110126034D01*
G37*
%TD.AperFunction*%
%TD*%
%TA.AperFunction,Conductor*%
%TO.N,/5V_OUT*%
G36*
X240763525Y-100619779D02*
G01*
X240831611Y-100639900D01*
X240878010Y-100693637D01*
X240889303Y-100746473D01*
X240840692Y-109574178D01*
X240820315Y-109642187D01*
X240766404Y-109688384D01*
X240714177Y-109699483D01*
X221196760Y-109619356D01*
X221128722Y-109599074D01*
X221097484Y-109566178D01*
X221095813Y-109567461D01*
X221090786Y-109560910D01*
X221090786Y-109560909D01*
X220994532Y-109435468D01*
X220869091Y-109339214D01*
X220723012Y-109278706D01*
X220723010Y-109278705D01*
X220566250Y-109258068D01*
X220409489Y-109278705D01*
X220263410Y-109339213D01*
X220263407Y-109339215D01*
X220137965Y-109435470D01*
X220038654Y-109564895D01*
X219981316Y-109606762D01*
X219938175Y-109614190D01*
X211610000Y-109580000D01*
X211609999Y-109580000D01*
X211609572Y-109685620D01*
X211589294Y-109753659D01*
X211535451Y-109799935D01*
X211467127Y-109810032D01*
X211376250Y-109798068D01*
X211219489Y-109818705D01*
X211073410Y-109879213D01*
X211073407Y-109879215D01*
X210947968Y-109975468D01*
X210851715Y-110100907D01*
X210851713Y-110100910D01*
X210791205Y-110246989D01*
X210770568Y-110403749D01*
X210770568Y-110403750D01*
X210791205Y-110560510D01*
X210791206Y-110560512D01*
X210851714Y-110706591D01*
X210947968Y-110832032D01*
X211073409Y-110928286D01*
X211219488Y-110988794D01*
X211376250Y-111009432D01*
X211461305Y-110998234D01*
X211531453Y-111009173D01*
X211584552Y-111056301D01*
X211603750Y-111123666D01*
X211553227Y-123602683D01*
X211532949Y-123670722D01*
X211479106Y-123716998D01*
X211410782Y-123727095D01*
X211266251Y-123708068D01*
X211266250Y-123708068D01*
X211109489Y-123728705D01*
X210963410Y-123789213D01*
X210963407Y-123789215D01*
X210837968Y-123885468D01*
X210741715Y-124010907D01*
X210741713Y-124010910D01*
X210681205Y-124156989D01*
X210660568Y-124313749D01*
X210660568Y-124313750D01*
X210681205Y-124470510D01*
X210681206Y-124470512D01*
X210741714Y-124616591D01*
X210837968Y-124742032D01*
X210963409Y-124838286D01*
X211109488Y-124898794D01*
X211266250Y-124919432D01*
X211405020Y-124901162D01*
X211475165Y-124912101D01*
X211528264Y-124959229D01*
X211547462Y-125026594D01*
X211539999Y-126869999D01*
X211540000Y-126870000D01*
X224129491Y-132768281D01*
X229567404Y-135315988D01*
X229620604Y-135363001D01*
X229639948Y-135430167D01*
X229638954Y-136976857D01*
X229618908Y-137044965D01*
X229602050Y-137065871D01*
X229490181Y-137177740D01*
X229394212Y-137330474D01*
X229394211Y-137330477D01*
X229394211Y-137330478D01*
X229334632Y-137500745D01*
X229314435Y-137680000D01*
X229334632Y-137859255D01*
X229334633Y-137859257D01*
X229394211Y-138029522D01*
X229394212Y-138029525D01*
X229490182Y-138182260D01*
X229490183Y-138182262D01*
X229601146Y-138293225D01*
X229635172Y-138355537D01*
X229638051Y-138382401D01*
X229637161Y-139768651D01*
X229617115Y-139836759D01*
X229600256Y-139857665D01*
X229490183Y-139967737D01*
X229490182Y-139967739D01*
X229394212Y-140120474D01*
X229394211Y-140120477D01*
X229382886Y-140152842D01*
X229334632Y-140290745D01*
X229314435Y-140470000D01*
X229334632Y-140649255D01*
X229334633Y-140649257D01*
X229394211Y-140819522D01*
X229394212Y-140819525D01*
X229490182Y-140972260D01*
X229490183Y-140972262D01*
X229599355Y-141081434D01*
X229633381Y-141143746D01*
X229636260Y-141170610D01*
X229619999Y-166479999D01*
X229620000Y-166479998D01*
X229620000Y-166480000D01*
X241063572Y-166450327D01*
X241131743Y-166470153D01*
X241178375Y-166523688D01*
X241189897Y-166576429D01*
X241180101Y-178694779D01*
X241160044Y-178762883D01*
X241106351Y-178809333D01*
X241054781Y-178820675D01*
X219076577Y-178939316D01*
X219008349Y-178919682D01*
X218961568Y-178866278D01*
X218949897Y-178813420D01*
X218949856Y-178762883D01*
X218947795Y-176218597D01*
X233842000Y-176218597D01*
X233848505Y-176279093D01*
X233899555Y-176415964D01*
X233899555Y-176415965D01*
X233987095Y-176532904D01*
X234104034Y-176620444D01*
X234240906Y-176671494D01*
X234301402Y-176677999D01*
X234301415Y-176678000D01*
X234946000Y-176678000D01*
X234946000Y-175753674D01*
X235057685Y-175804680D01*
X235164237Y-175820000D01*
X235235763Y-175820000D01*
X235342315Y-175804680D01*
X235454000Y-175753674D01*
X235454000Y-176678000D01*
X236098585Y-176678000D01*
X236098597Y-176677999D01*
X236159093Y-176671494D01*
X236295964Y-176620444D01*
X236295965Y-176620444D01*
X236412904Y-176532904D01*
X236500444Y-176415965D01*
X236500444Y-176415964D01*
X236551494Y-176279093D01*
X236557999Y-176218597D01*
X236558000Y-176218585D01*
X236558000Y-175830000D01*
X237694706Y-175830000D01*
X237713854Y-176073302D01*
X237770827Y-176310609D01*
X237857511Y-176519886D01*
X237864223Y-176536089D01*
X237981817Y-176727985D01*
X237991742Y-176744180D01*
X237991743Y-176744182D01*
X238150240Y-176929759D01*
X238289202Y-177048443D01*
X238335821Y-177088259D01*
X238543911Y-177215777D01*
X238769388Y-177309172D01*
X239006698Y-177366146D01*
X239250000Y-177385294D01*
X239493302Y-177366146D01*
X239730612Y-177309172D01*
X239956089Y-177215777D01*
X240164179Y-177088259D01*
X240349759Y-176929759D01*
X240508259Y-176744179D01*
X240635777Y-176536089D01*
X240729172Y-176310612D01*
X240786146Y-176073302D01*
X240805294Y-175830000D01*
X240786146Y-175586698D01*
X240729172Y-175349388D01*
X240635777Y-175123911D01*
X240508259Y-174915821D01*
X240508256Y-174915817D01*
X240349759Y-174730240D01*
X240164182Y-174571743D01*
X240164180Y-174571742D01*
X240164179Y-174571741D01*
X239956089Y-174444223D01*
X239917514Y-174428245D01*
X239841790Y-174396879D01*
X239730612Y-174350828D01*
X239730610Y-174350827D01*
X239730609Y-174350827D01*
X239568680Y-174311951D01*
X239493302Y-174293854D01*
X239493303Y-174293854D01*
X239250000Y-174274706D01*
X239006697Y-174293854D01*
X238769390Y-174350827D01*
X238543912Y-174444222D01*
X238335819Y-174571742D01*
X238335817Y-174571743D01*
X238150240Y-174730240D01*
X237991743Y-174915817D01*
X237991742Y-174915819D01*
X237864222Y-175123912D01*
X237770827Y-175349390D01*
X237713854Y-175586697D01*
X237694706Y-175830000D01*
X236558000Y-175830000D01*
X236558000Y-175574000D01*
X235631116Y-175574000D01*
X235659493Y-175529844D01*
X235700000Y-175391889D01*
X235700000Y-175248111D01*
X235659493Y-175110156D01*
X235631116Y-175066000D01*
X236558000Y-175066000D01*
X236558000Y-174421414D01*
X236557999Y-174421402D01*
X236551494Y-174360906D01*
X236500444Y-174224035D01*
X236500444Y-174224034D01*
X236412904Y-174107095D01*
X236295965Y-174019555D01*
X236159093Y-173968505D01*
X236098597Y-173962000D01*
X235454000Y-173962000D01*
X235454000Y-174886325D01*
X235342315Y-174835320D01*
X235235763Y-174820000D01*
X235164237Y-174820000D01*
X235057685Y-174835320D01*
X234946000Y-174886325D01*
X234946000Y-173962000D01*
X234301402Y-173962000D01*
X234240906Y-173968505D01*
X234104035Y-174019555D01*
X234104034Y-174019555D01*
X233987095Y-174107095D01*
X233899555Y-174224034D01*
X233899555Y-174224035D01*
X233848505Y-174360906D01*
X233842000Y-174421402D01*
X233842000Y-175066000D01*
X234768884Y-175066000D01*
X234740507Y-175110156D01*
X234700000Y-175248111D01*
X234700000Y-175391889D01*
X234740507Y-175529844D01*
X234768884Y-175574000D01*
X233842000Y-175574000D01*
X233842000Y-176218597D01*
X218947795Y-176218597D01*
X218947067Y-175320000D01*
X224234435Y-175320000D01*
X224254632Y-175499255D01*
X224283339Y-175581294D01*
X224314211Y-175669522D01*
X224314212Y-175669525D01*
X224410182Y-175822260D01*
X224410183Y-175822262D01*
X224537737Y-175949816D01*
X224537739Y-175949817D01*
X224690474Y-176045787D01*
X224690475Y-176045787D01*
X224690478Y-176045789D01*
X224860745Y-176105368D01*
X224995046Y-176120500D01*
X225084954Y-176120500D01*
X225219255Y-176105368D01*
X225389522Y-176045789D01*
X225542262Y-175949816D01*
X225669816Y-175822262D01*
X225765789Y-175669522D01*
X225825368Y-175499255D01*
X225845565Y-175320000D01*
X226774435Y-175320000D01*
X226794632Y-175499255D01*
X226823339Y-175581294D01*
X226854211Y-175669522D01*
X226854212Y-175669525D01*
X226950182Y-175822260D01*
X226950183Y-175822262D01*
X227077737Y-175949816D01*
X227077739Y-175949817D01*
X227230474Y-176045787D01*
X227230475Y-176045787D01*
X227230478Y-176045789D01*
X227400745Y-176105368D01*
X227535046Y-176120500D01*
X227624954Y-176120500D01*
X227759255Y-176105368D01*
X227929522Y-176045789D01*
X228082262Y-175949816D01*
X228209816Y-175822262D01*
X228305789Y-175669522D01*
X228365368Y-175499255D01*
X228385565Y-175320000D01*
X229314435Y-175320000D01*
X229334632Y-175499255D01*
X229363339Y-175581294D01*
X229394211Y-175669522D01*
X229394212Y-175669525D01*
X229490182Y-175822260D01*
X229490183Y-175822262D01*
X229617737Y-175949816D01*
X229617739Y-175949817D01*
X229770474Y-176045787D01*
X229770475Y-176045787D01*
X229770478Y-176045789D01*
X229940745Y-176105368D01*
X230075046Y-176120500D01*
X230164954Y-176120500D01*
X230299255Y-176105368D01*
X230469522Y-176045789D01*
X230622262Y-175949816D01*
X230749816Y-175822262D01*
X230845789Y-175669522D01*
X230905368Y-175499255D01*
X230925565Y-175320000D01*
X231854435Y-175320000D01*
X231874632Y-175499255D01*
X231903339Y-175581294D01*
X231934211Y-175669522D01*
X231934212Y-175669525D01*
X232030182Y-175822260D01*
X232030183Y-175822262D01*
X232157737Y-175949816D01*
X232157739Y-175949817D01*
X232310474Y-176045787D01*
X232310475Y-176045787D01*
X232310478Y-176045789D01*
X232480745Y-176105368D01*
X232615046Y-176120500D01*
X232704954Y-176120500D01*
X232839255Y-176105368D01*
X233009522Y-176045789D01*
X233162262Y-175949816D01*
X233289816Y-175822262D01*
X233385789Y-175669522D01*
X233445368Y-175499255D01*
X233465565Y-175320000D01*
X233445368Y-175140745D01*
X233385789Y-174970478D01*
X233385787Y-174970475D01*
X233385787Y-174970474D01*
X233289817Y-174817739D01*
X233289816Y-174817737D01*
X233162262Y-174690183D01*
X233162260Y-174690182D01*
X233009525Y-174594212D01*
X233009522Y-174594211D01*
X232945306Y-174571741D01*
X232839255Y-174534632D01*
X232704954Y-174519500D01*
X232615046Y-174519500D01*
X232480745Y-174534632D01*
X232480742Y-174534632D01*
X232480742Y-174534633D01*
X232310477Y-174594211D01*
X232310474Y-174594212D01*
X232157739Y-174690182D01*
X232157737Y-174690183D01*
X232030183Y-174817737D01*
X232030182Y-174817739D01*
X231934212Y-174970474D01*
X231934211Y-174970477D01*
X231880522Y-175123911D01*
X231874632Y-175140745D01*
X231854435Y-175320000D01*
X230925565Y-175320000D01*
X230905368Y-175140745D01*
X230845789Y-174970478D01*
X230845787Y-174970475D01*
X230845787Y-174970474D01*
X230749817Y-174817739D01*
X230749816Y-174817737D01*
X230622262Y-174690183D01*
X230622260Y-174690182D01*
X230469525Y-174594212D01*
X230469522Y-174594211D01*
X230405306Y-174571741D01*
X230299255Y-174534632D01*
X230164954Y-174519500D01*
X230075046Y-174519500D01*
X229940745Y-174534632D01*
X229940742Y-174534632D01*
X229940742Y-174534633D01*
X229770477Y-174594211D01*
X229770474Y-174594212D01*
X229617739Y-174690182D01*
X229617737Y-174690183D01*
X229490183Y-174817737D01*
X229490182Y-174817739D01*
X229394212Y-174970474D01*
X229394211Y-174970477D01*
X229340522Y-175123911D01*
X229334632Y-175140745D01*
X229314435Y-175320000D01*
X228385565Y-175320000D01*
X228365368Y-175140745D01*
X228305789Y-174970478D01*
X228305787Y-174970475D01*
X228305787Y-174970474D01*
X228209817Y-174817739D01*
X228209816Y-174817737D01*
X228082262Y-174690183D01*
X228082260Y-174690182D01*
X227929525Y-174594212D01*
X227929522Y-174594211D01*
X227865306Y-174571741D01*
X227759255Y-174534632D01*
X227624954Y-174519500D01*
X227535046Y-174519500D01*
X227400745Y-174534632D01*
X227400742Y-174534632D01*
X227400742Y-174534633D01*
X227230477Y-174594211D01*
X227230474Y-174594212D01*
X227077739Y-174690182D01*
X227077737Y-174690183D01*
X226950183Y-174817737D01*
X226950182Y-174817739D01*
X226854212Y-174970474D01*
X226854211Y-174970477D01*
X226800522Y-175123911D01*
X226794632Y-175140745D01*
X226774435Y-175320000D01*
X225845565Y-175320000D01*
X225825368Y-175140745D01*
X225765789Y-174970478D01*
X225765787Y-174970475D01*
X225765787Y-174970474D01*
X225669817Y-174817739D01*
X225669816Y-174817737D01*
X225542262Y-174690183D01*
X225542260Y-174690182D01*
X225389525Y-174594212D01*
X225389522Y-174594211D01*
X225325306Y-174571741D01*
X225219255Y-174534632D01*
X225084954Y-174519500D01*
X224995046Y-174519500D01*
X224860745Y-174534632D01*
X224860742Y-174534632D01*
X224860742Y-174534633D01*
X224690477Y-174594211D01*
X224690474Y-174594212D01*
X224537739Y-174690182D01*
X224537737Y-174690183D01*
X224410183Y-174817737D01*
X224410182Y-174817739D01*
X224314212Y-174970474D01*
X224314211Y-174970477D01*
X224260522Y-175123911D01*
X224254632Y-175140745D01*
X224234435Y-175320000D01*
X218947067Y-175320000D01*
X218944742Y-172450000D01*
X232364318Y-172450000D01*
X232384955Y-172606760D01*
X232384956Y-172606762D01*
X232445464Y-172752841D01*
X232541718Y-172878282D01*
X232667159Y-172974536D01*
X232813238Y-173035044D01*
X232970000Y-173055682D01*
X233126762Y-173035044D01*
X233272841Y-172974536D01*
X233398282Y-172878282D01*
X233494536Y-172752841D01*
X233555044Y-172606762D01*
X233575682Y-172450000D01*
X233555044Y-172293238D01*
X233494536Y-172147159D01*
X233459269Y-172101198D01*
X238658011Y-172101198D01*
X238718597Y-172143621D01*
X238918092Y-172236647D01*
X238918096Y-172236649D01*
X239130712Y-172293619D01*
X239350000Y-172312804D01*
X239569287Y-172293619D01*
X239781903Y-172236649D01*
X239781907Y-172236647D01*
X239981399Y-172143622D01*
X240041987Y-172101197D01*
X240041987Y-172101196D01*
X239350001Y-171409210D01*
X239350000Y-171409210D01*
X238658011Y-172101197D01*
X238658011Y-172101198D01*
X233459269Y-172101198D01*
X233398282Y-172021718D01*
X233272841Y-171925464D01*
X233126762Y-171864956D01*
X233126760Y-171864955D01*
X232970000Y-171844318D01*
X232813239Y-171864955D01*
X232667160Y-171925463D01*
X232667157Y-171925465D01*
X232541718Y-172021718D01*
X232445465Y-172147157D01*
X232445463Y-172147160D01*
X232384955Y-172293239D01*
X232364318Y-172449999D01*
X232364318Y-172450000D01*
X218944742Y-172450000D01*
X218943608Y-171050000D01*
X238087195Y-171050000D01*
X238106380Y-171269287D01*
X238163350Y-171481903D01*
X238163352Y-171481907D01*
X238256379Y-171681403D01*
X238298800Y-171741987D01*
X238961487Y-171079302D01*
X238996372Y-171079302D01*
X239025047Y-171192538D01*
X239088936Y-171290327D01*
X239181115Y-171362072D01*
X239291595Y-171400000D01*
X239379005Y-171400000D01*
X239465216Y-171385614D01*
X239567947Y-171330019D01*
X239647060Y-171244079D01*
X239693982Y-171137108D01*
X239701200Y-171050001D01*
X239709210Y-171050001D01*
X240401196Y-171741987D01*
X240401197Y-171741987D01*
X240443622Y-171681399D01*
X240536647Y-171481907D01*
X240536649Y-171481903D01*
X240593619Y-171269287D01*
X240612804Y-171050000D01*
X240593619Y-170830712D01*
X240536649Y-170618096D01*
X240536647Y-170618092D01*
X240443619Y-170418594D01*
X240401199Y-170358011D01*
X240401197Y-170358011D01*
X239709210Y-171049999D01*
X239709210Y-171050001D01*
X239701200Y-171050001D01*
X239703628Y-171020698D01*
X239674953Y-170907462D01*
X239611064Y-170809673D01*
X239518885Y-170737928D01*
X239408405Y-170700000D01*
X239320995Y-170700000D01*
X239234784Y-170714386D01*
X239132053Y-170769981D01*
X239052940Y-170855921D01*
X239006018Y-170962892D01*
X238996372Y-171079302D01*
X238961487Y-171079302D01*
X238990790Y-171049999D01*
X238298801Y-170358010D01*
X238256378Y-170418598D01*
X238163352Y-170618092D01*
X238163350Y-170618096D01*
X238106380Y-170830712D01*
X238087195Y-171050000D01*
X218943608Y-171050000D01*
X218942756Y-169998801D01*
X238658010Y-169998801D01*
X239349999Y-170690790D01*
X239350000Y-170690790D01*
X240041987Y-169998800D01*
X239981403Y-169956379D01*
X239781907Y-169863352D01*
X239781903Y-169863350D01*
X239569287Y-169806380D01*
X239350000Y-169787195D01*
X239130712Y-169806380D01*
X238918096Y-169863350D01*
X238918092Y-169863352D01*
X238718598Y-169956378D01*
X238658010Y-169998801D01*
X218942756Y-169998801D01*
X218940213Y-166860000D01*
X226694318Y-166860000D01*
X226714955Y-167016760D01*
X226714956Y-167016762D01*
X226775464Y-167162841D01*
X226871718Y-167288282D01*
X226997159Y-167384536D01*
X227143238Y-167445044D01*
X227300000Y-167465682D01*
X227456762Y-167445044D01*
X227602841Y-167384536D01*
X227728282Y-167288282D01*
X227824536Y-167162841D01*
X227885044Y-167016762D01*
X227905682Y-166860000D01*
X227885044Y-166703238D01*
X227824536Y-166557159D01*
X227728282Y-166431718D01*
X227602841Y-166335464D01*
X227456762Y-166274956D01*
X227456760Y-166274955D01*
X227300000Y-166254318D01*
X227143239Y-166274955D01*
X226997160Y-166335463D01*
X226997157Y-166335465D01*
X226871718Y-166431718D01*
X226775465Y-166557157D01*
X226775463Y-166557160D01*
X226714955Y-166703239D01*
X226694318Y-166859999D01*
X226694318Y-166860000D01*
X218940213Y-166860000D01*
X218938892Y-165230000D01*
X223264318Y-165230000D01*
X223284955Y-165386760D01*
X223284956Y-165386762D01*
X223345464Y-165532841D01*
X223441718Y-165658282D01*
X223567159Y-165754536D01*
X223713238Y-165815044D01*
X223870000Y-165835682D01*
X224026762Y-165815044D01*
X224172841Y-165754536D01*
X224298282Y-165658282D01*
X224394536Y-165532841D01*
X224455044Y-165386762D01*
X224475682Y-165230000D01*
X224455044Y-165073238D01*
X224394536Y-164927159D01*
X224298282Y-164801718D01*
X224172841Y-164705464D01*
X224026762Y-164644956D01*
X224026760Y-164644955D01*
X223870000Y-164624318D01*
X223713239Y-164644955D01*
X223567160Y-164705463D01*
X223567157Y-164705465D01*
X223441718Y-164801718D01*
X223345465Y-164927157D01*
X223345463Y-164927160D01*
X223284955Y-165073239D01*
X223264318Y-165229999D01*
X223264318Y-165230000D01*
X218938892Y-165230000D01*
X218924634Y-147630000D01*
X220924318Y-147630000D01*
X220944955Y-147786760D01*
X220944956Y-147786762D01*
X221005464Y-147932841D01*
X221101718Y-148058282D01*
X221227159Y-148154536D01*
X221373238Y-148215044D01*
X221530000Y-148235682D01*
X221686762Y-148215044D01*
X221832841Y-148154536D01*
X221958282Y-148058282D01*
X222054536Y-147932841D01*
X222115044Y-147786762D01*
X222135682Y-147630000D01*
X222115044Y-147473238D01*
X222054536Y-147327159D01*
X221958282Y-147201718D01*
X221832841Y-147105464D01*
X221686762Y-147044956D01*
X221686760Y-147044955D01*
X221530000Y-147024318D01*
X221373239Y-147044955D01*
X221227160Y-147105463D01*
X221227157Y-147105465D01*
X221101718Y-147201718D01*
X221005465Y-147327157D01*
X221005463Y-147327160D01*
X220944955Y-147473239D01*
X220924318Y-147629999D01*
X220924318Y-147630000D01*
X218924634Y-147630000D01*
X218923224Y-145890000D01*
X222764318Y-145890000D01*
X222784955Y-146046760D01*
X222784956Y-146046762D01*
X222845464Y-146192841D01*
X222941718Y-146318282D01*
X223067159Y-146414536D01*
X223213238Y-146475044D01*
X223370000Y-146495682D01*
X223526762Y-146475044D01*
X223672841Y-146414536D01*
X223798282Y-146318282D01*
X223894536Y-146192841D01*
X223955044Y-146046762D01*
X223966466Y-145960000D01*
X225604318Y-145960000D01*
X225624955Y-146116760D01*
X225624956Y-146116762D01*
X225685464Y-146262841D01*
X225781718Y-146388282D01*
X225907159Y-146484536D01*
X226053238Y-146545044D01*
X226210000Y-146565682D01*
X226366762Y-146545044D01*
X226512841Y-146484536D01*
X226638282Y-146388282D01*
X226734536Y-146262841D01*
X226795044Y-146116762D01*
X226815682Y-145960000D01*
X226795044Y-145803238D01*
X226734536Y-145657159D01*
X226638282Y-145531718D01*
X226512841Y-145435464D01*
X226366762Y-145374956D01*
X226366760Y-145374955D01*
X226210000Y-145354318D01*
X226053239Y-145374955D01*
X225907160Y-145435463D01*
X225907157Y-145435465D01*
X225781718Y-145531718D01*
X225685465Y-145657157D01*
X225685463Y-145657160D01*
X225624955Y-145803239D01*
X225604318Y-145959999D01*
X225604318Y-145960000D01*
X223966466Y-145960000D01*
X223975682Y-145890000D01*
X223955044Y-145733238D01*
X223894536Y-145587159D01*
X223798282Y-145461718D01*
X223672841Y-145365464D01*
X223645933Y-145354318D01*
X223526760Y-145304955D01*
X223370000Y-145284318D01*
X223213239Y-145304955D01*
X223067160Y-145365463D01*
X223067157Y-145365465D01*
X222941718Y-145461718D01*
X222845465Y-145587157D01*
X222845463Y-145587160D01*
X222784955Y-145733239D01*
X222764318Y-145889999D01*
X222764318Y-145890000D01*
X218923224Y-145890000D01*
X218920454Y-142470000D01*
X224224318Y-142470000D01*
X224244955Y-142626760D01*
X224244956Y-142626762D01*
X224305464Y-142772841D01*
X224401718Y-142898282D01*
X224527159Y-142994536D01*
X224673238Y-143055044D01*
X224830000Y-143075682D01*
X224986762Y-143055044D01*
X225132841Y-142994536D01*
X225258282Y-142898282D01*
X225354536Y-142772841D01*
X225415044Y-142626762D01*
X225435682Y-142470000D01*
X225415044Y-142313238D01*
X225354536Y-142167159D01*
X225258282Y-142041718D01*
X225132841Y-141945464D01*
X225047224Y-141910000D01*
X224986760Y-141884955D01*
X224830000Y-141864318D01*
X224673239Y-141884955D01*
X224527160Y-141945463D01*
X224527157Y-141945465D01*
X224401718Y-142041718D01*
X224305465Y-142167157D01*
X224305463Y-142167160D01*
X224244955Y-142313239D01*
X224224318Y-142469999D01*
X224224318Y-142470000D01*
X218920454Y-142470000D01*
X218920000Y-141910000D01*
X218920000Y-141909999D01*
X200816437Y-141890138D01*
X200748338Y-141870061D01*
X200701904Y-141816355D01*
X200690576Y-141763564D01*
X200696469Y-140470000D01*
X216614435Y-140470000D01*
X216634632Y-140649255D01*
X216634633Y-140649257D01*
X216694211Y-140819522D01*
X216694212Y-140819525D01*
X216790182Y-140972260D01*
X216790183Y-140972262D01*
X216917737Y-141099816D01*
X216917739Y-141099817D01*
X217070474Y-141195787D01*
X217070475Y-141195787D01*
X217070478Y-141195789D01*
X217240745Y-141255368D01*
X217375046Y-141270500D01*
X217464954Y-141270500D01*
X217599255Y-141255368D01*
X217769522Y-141195789D01*
X217922262Y-141099816D01*
X218049816Y-140972262D01*
X218145789Y-140819522D01*
X218205368Y-140649255D01*
X218225565Y-140470000D01*
X219154435Y-140470000D01*
X219174632Y-140649255D01*
X219174633Y-140649257D01*
X219234211Y-140819522D01*
X219234212Y-140819525D01*
X219330182Y-140972260D01*
X219330183Y-140972262D01*
X219457737Y-141099816D01*
X219457739Y-141099817D01*
X219610474Y-141195787D01*
X219610475Y-141195787D01*
X219610478Y-141195789D01*
X219780745Y-141255368D01*
X219915046Y-141270500D01*
X220004954Y-141270500D01*
X220139255Y-141255368D01*
X220309522Y-141195789D01*
X220462262Y-141099816D01*
X220589816Y-140972262D01*
X220685789Y-140819522D01*
X220745368Y-140649255D01*
X220765565Y-140470000D01*
X221694435Y-140470000D01*
X221714632Y-140649255D01*
X221714633Y-140649257D01*
X221774211Y-140819522D01*
X221774212Y-140819525D01*
X221870182Y-140972260D01*
X221870183Y-140972262D01*
X221997737Y-141099816D01*
X221997739Y-141099817D01*
X222150474Y-141195787D01*
X222150475Y-141195787D01*
X222150478Y-141195789D01*
X222320745Y-141255368D01*
X222455046Y-141270500D01*
X222544954Y-141270500D01*
X222679255Y-141255368D01*
X222849522Y-141195789D01*
X223002262Y-141099816D01*
X223129816Y-140972262D01*
X223225789Y-140819522D01*
X223285368Y-140649255D01*
X223305565Y-140470000D01*
X224234435Y-140470000D01*
X224254632Y-140649255D01*
X224254633Y-140649257D01*
X224314211Y-140819522D01*
X224314212Y-140819525D01*
X224410182Y-140972260D01*
X224410183Y-140972262D01*
X224537737Y-141099816D01*
X224537739Y-141099817D01*
X224690474Y-141195787D01*
X224690475Y-141195787D01*
X224690478Y-141195789D01*
X224860745Y-141255368D01*
X224995046Y-141270500D01*
X225084954Y-141270500D01*
X225219255Y-141255368D01*
X225389522Y-141195789D01*
X225542262Y-141099816D01*
X225669816Y-140972262D01*
X225765789Y-140819522D01*
X225825368Y-140649255D01*
X225845565Y-140470000D01*
X226774435Y-140470000D01*
X226794632Y-140649255D01*
X226794633Y-140649257D01*
X226854211Y-140819522D01*
X226854212Y-140819525D01*
X226950182Y-140972260D01*
X226950183Y-140972262D01*
X227077737Y-141099816D01*
X227077739Y-141099817D01*
X227230474Y-141195787D01*
X227230475Y-141195787D01*
X227230478Y-141195789D01*
X227400745Y-141255368D01*
X227535046Y-141270500D01*
X227624954Y-141270500D01*
X227759255Y-141255368D01*
X227929522Y-141195789D01*
X228082262Y-141099816D01*
X228209816Y-140972262D01*
X228305789Y-140819522D01*
X228365368Y-140649255D01*
X228385565Y-140470000D01*
X228365368Y-140290745D01*
X228305789Y-140120478D01*
X228305787Y-140120475D01*
X228305787Y-140120474D01*
X228209817Y-139967739D01*
X228209816Y-139967737D01*
X228082262Y-139840183D01*
X228082260Y-139840182D01*
X227929525Y-139744212D01*
X227929522Y-139744211D01*
X227783852Y-139693239D01*
X227759255Y-139684632D01*
X227624954Y-139669500D01*
X227535046Y-139669500D01*
X227400745Y-139684632D01*
X227400742Y-139684632D01*
X227400742Y-139684633D01*
X227230477Y-139744211D01*
X227230474Y-139744212D01*
X227077739Y-139840182D01*
X227077737Y-139840183D01*
X226950183Y-139967737D01*
X226950182Y-139967739D01*
X226854212Y-140120474D01*
X226854211Y-140120477D01*
X226842886Y-140152842D01*
X226794632Y-140290745D01*
X226774435Y-140470000D01*
X225845565Y-140470000D01*
X225825368Y-140290745D01*
X225765789Y-140120478D01*
X225765787Y-140120475D01*
X225765787Y-140120474D01*
X225669817Y-139967739D01*
X225669816Y-139967737D01*
X225542262Y-139840183D01*
X225542260Y-139840182D01*
X225389525Y-139744212D01*
X225389522Y-139744211D01*
X225243852Y-139693239D01*
X225219255Y-139684632D01*
X225084954Y-139669500D01*
X224995046Y-139669500D01*
X224860745Y-139684632D01*
X224860742Y-139684632D01*
X224860742Y-139684633D01*
X224690477Y-139744211D01*
X224690474Y-139744212D01*
X224537739Y-139840182D01*
X224537737Y-139840183D01*
X224410183Y-139967737D01*
X224410182Y-139967739D01*
X224314212Y-140120474D01*
X224314211Y-140120477D01*
X224302886Y-140152842D01*
X224254632Y-140290745D01*
X224234435Y-140470000D01*
X223305565Y-140470000D01*
X223285368Y-140290745D01*
X223225789Y-140120478D01*
X223225787Y-140120475D01*
X223225787Y-140120474D01*
X223129817Y-139967739D01*
X223129816Y-139967737D01*
X223002262Y-139840183D01*
X223002260Y-139840182D01*
X222849525Y-139744212D01*
X222849522Y-139744211D01*
X222703852Y-139693239D01*
X222679255Y-139684632D01*
X222544954Y-139669500D01*
X222455046Y-139669500D01*
X222320745Y-139684632D01*
X222320742Y-139684632D01*
X222320742Y-139684633D01*
X222150477Y-139744211D01*
X222150474Y-139744212D01*
X221997739Y-139840182D01*
X221997737Y-139840183D01*
X221870183Y-139967737D01*
X221870182Y-139967739D01*
X221774212Y-140120474D01*
X221774211Y-140120477D01*
X221762886Y-140152842D01*
X221714632Y-140290745D01*
X221694435Y-140470000D01*
X220765565Y-140470000D01*
X220745368Y-140290745D01*
X220685789Y-140120478D01*
X220685787Y-140120475D01*
X220685787Y-140120474D01*
X220589817Y-139967739D01*
X220589816Y-139967737D01*
X220462262Y-139840183D01*
X220462260Y-139840182D01*
X220309525Y-139744212D01*
X220309522Y-139744211D01*
X220163852Y-139693239D01*
X220139255Y-139684632D01*
X220004954Y-139669500D01*
X219915046Y-139669500D01*
X219780745Y-139684632D01*
X219780742Y-139684632D01*
X219780742Y-139684633D01*
X219610477Y-139744211D01*
X219610474Y-139744212D01*
X219457739Y-139840182D01*
X219457737Y-139840183D01*
X219330183Y-139967737D01*
X219330182Y-139967739D01*
X219234212Y-140120474D01*
X219234211Y-140120477D01*
X219222886Y-140152842D01*
X219174632Y-140290745D01*
X219154435Y-140470000D01*
X218225565Y-140470000D01*
X218205368Y-140290745D01*
X218145789Y-140120478D01*
X218145787Y-140120475D01*
X218145787Y-140120474D01*
X218049817Y-139967739D01*
X218049816Y-139967737D01*
X217922262Y-139840183D01*
X217922260Y-139840182D01*
X217769525Y-139744212D01*
X217769522Y-139744211D01*
X217623852Y-139693239D01*
X217599255Y-139684632D01*
X217464954Y-139669500D01*
X217375046Y-139669500D01*
X217240745Y-139684632D01*
X217240742Y-139684632D01*
X217240742Y-139684633D01*
X217070477Y-139744211D01*
X217070474Y-139744212D01*
X216917739Y-139840182D01*
X216917737Y-139840183D01*
X216790183Y-139967737D01*
X216790182Y-139967739D01*
X216694212Y-140120474D01*
X216694211Y-140120477D01*
X216682886Y-140152842D01*
X216634632Y-140290745D01*
X216614435Y-140470000D01*
X200696469Y-140470000D01*
X200696534Y-140455682D01*
X200701845Y-139290000D01*
X203024318Y-139290000D01*
X203044955Y-139446760D01*
X203044956Y-139446762D01*
X203105464Y-139592841D01*
X203201718Y-139718282D01*
X203327159Y-139814536D01*
X203473238Y-139875044D01*
X203630000Y-139895682D01*
X203786762Y-139875044D01*
X203847223Y-139850000D01*
X208904318Y-139850000D01*
X208924955Y-140006760D01*
X208924956Y-140006762D01*
X208985464Y-140152841D01*
X209081718Y-140278282D01*
X209207159Y-140374536D01*
X209353238Y-140435044D01*
X209510000Y-140455682D01*
X209666762Y-140435044D01*
X209812841Y-140374536D01*
X209938282Y-140278282D01*
X210034536Y-140152841D01*
X210095044Y-140006762D01*
X210115682Y-139850000D01*
X210114389Y-139840182D01*
X210095044Y-139693239D01*
X210091480Y-139684633D01*
X210034536Y-139547159D01*
X209938282Y-139421718D01*
X209812841Y-139325464D01*
X209727224Y-139290000D01*
X209666760Y-139264955D01*
X209510000Y-139244318D01*
X209353239Y-139264955D01*
X209207160Y-139325463D01*
X209207157Y-139325465D01*
X209081718Y-139421718D01*
X208985465Y-139547157D01*
X208985463Y-139547160D01*
X208924955Y-139693239D01*
X208904318Y-139849999D01*
X208904318Y-139850000D01*
X203847223Y-139850000D01*
X203932841Y-139814536D01*
X204058282Y-139718282D01*
X204154536Y-139592841D01*
X204215044Y-139446762D01*
X204235682Y-139290000D01*
X204215044Y-139133238D01*
X204154536Y-138987159D01*
X204058282Y-138861718D01*
X203932841Y-138765464D01*
X203786762Y-138704956D01*
X203786760Y-138704955D01*
X203630000Y-138684318D01*
X203473239Y-138704955D01*
X203327160Y-138765463D01*
X203327157Y-138765465D01*
X203201718Y-138861718D01*
X203105465Y-138987157D01*
X203105463Y-138987160D01*
X203044955Y-139133239D01*
X203024318Y-139289999D01*
X203024318Y-139290000D01*
X200701845Y-139290000D01*
X200709180Y-137680000D01*
X216614435Y-137680000D01*
X216634632Y-137859255D01*
X216634633Y-137859257D01*
X216694211Y-138029522D01*
X216694212Y-138029525D01*
X216790182Y-138182260D01*
X216790183Y-138182262D01*
X216917737Y-138309816D01*
X216917739Y-138309817D01*
X217070474Y-138405787D01*
X217070475Y-138405787D01*
X217070478Y-138405789D01*
X217240745Y-138465368D01*
X217375046Y-138480500D01*
X217464954Y-138480500D01*
X217599255Y-138465368D01*
X217769522Y-138405789D01*
X217922262Y-138309816D01*
X218049816Y-138182262D01*
X218145789Y-138029522D01*
X218205368Y-137859255D01*
X218225565Y-137680000D01*
X219154435Y-137680000D01*
X219174632Y-137859255D01*
X219174633Y-137859257D01*
X219234211Y-138029522D01*
X219234212Y-138029525D01*
X219330182Y-138182260D01*
X219330183Y-138182262D01*
X219457737Y-138309816D01*
X219457739Y-138309817D01*
X219610474Y-138405787D01*
X219610475Y-138405787D01*
X219610478Y-138405789D01*
X219780745Y-138465368D01*
X219915046Y-138480500D01*
X220004954Y-138480500D01*
X220139255Y-138465368D01*
X220309522Y-138405789D01*
X220462262Y-138309816D01*
X220589816Y-138182262D01*
X220685789Y-138029522D01*
X220745368Y-137859255D01*
X220765565Y-137680000D01*
X221694435Y-137680000D01*
X221714632Y-137859255D01*
X221714633Y-137859257D01*
X221774211Y-138029522D01*
X221774212Y-138029525D01*
X221870182Y-138182260D01*
X221870183Y-138182262D01*
X221997737Y-138309816D01*
X221997739Y-138309817D01*
X222150474Y-138405787D01*
X222150475Y-138405787D01*
X222150478Y-138405789D01*
X222320745Y-138465368D01*
X222455046Y-138480500D01*
X222544954Y-138480500D01*
X222679255Y-138465368D01*
X222849522Y-138405789D01*
X223002262Y-138309816D01*
X223129816Y-138182262D01*
X223225789Y-138029522D01*
X223285368Y-137859255D01*
X223305565Y-137680000D01*
X224234435Y-137680000D01*
X224254632Y-137859255D01*
X224254633Y-137859257D01*
X224314211Y-138029522D01*
X224314212Y-138029525D01*
X224410182Y-138182260D01*
X224410183Y-138182262D01*
X224537737Y-138309816D01*
X224537739Y-138309817D01*
X224690474Y-138405787D01*
X224690475Y-138405787D01*
X224690478Y-138405789D01*
X224860745Y-138465368D01*
X224995046Y-138480500D01*
X225084954Y-138480500D01*
X225219255Y-138465368D01*
X225389522Y-138405789D01*
X225542262Y-138309816D01*
X225669816Y-138182262D01*
X225765789Y-138029522D01*
X225825368Y-137859255D01*
X225845565Y-137680000D01*
X226774435Y-137680000D01*
X226794632Y-137859255D01*
X226794633Y-137859257D01*
X226854211Y-138029522D01*
X226854212Y-138029525D01*
X226950182Y-138182260D01*
X226950183Y-138182262D01*
X227077737Y-138309816D01*
X227077739Y-138309817D01*
X227230474Y-138405787D01*
X227230475Y-138405787D01*
X227230478Y-138405789D01*
X227400745Y-138465368D01*
X227535046Y-138480500D01*
X227624954Y-138480500D01*
X227759255Y-138465368D01*
X227929522Y-138405789D01*
X228082262Y-138309816D01*
X228209816Y-138182262D01*
X228305789Y-138029522D01*
X228365368Y-137859255D01*
X228385565Y-137680000D01*
X228365368Y-137500745D01*
X228305789Y-137330478D01*
X228305787Y-137330475D01*
X228305787Y-137330474D01*
X228209817Y-137177739D01*
X228209816Y-137177737D01*
X228082262Y-137050183D01*
X228082260Y-137050182D01*
X227929525Y-136954212D01*
X227929522Y-136954211D01*
X227759255Y-136894632D01*
X227624954Y-136879500D01*
X227535046Y-136879500D01*
X227400745Y-136894632D01*
X227400742Y-136894632D01*
X227400742Y-136894633D01*
X227230477Y-136954211D01*
X227230474Y-136954212D01*
X227077739Y-137050182D01*
X227077737Y-137050183D01*
X226950183Y-137177737D01*
X226950182Y-137177739D01*
X226854212Y-137330474D01*
X226854211Y-137330477D01*
X226854211Y-137330478D01*
X226794632Y-137500745D01*
X226774435Y-137680000D01*
X225845565Y-137680000D01*
X225825368Y-137500745D01*
X225765789Y-137330478D01*
X225765787Y-137330475D01*
X225765787Y-137330474D01*
X225669817Y-137177739D01*
X225669816Y-137177737D01*
X225542262Y-137050183D01*
X225542260Y-137050182D01*
X225389525Y-136954212D01*
X225389522Y-136954211D01*
X225219255Y-136894632D01*
X225084954Y-136879500D01*
X224995046Y-136879500D01*
X224860745Y-136894632D01*
X224860742Y-136894632D01*
X224860742Y-136894633D01*
X224690477Y-136954211D01*
X224690474Y-136954212D01*
X224537739Y-137050182D01*
X224537737Y-137050183D01*
X224410183Y-137177737D01*
X224410182Y-137177739D01*
X224314212Y-137330474D01*
X224314211Y-137330477D01*
X224314211Y-137330478D01*
X224254632Y-137500745D01*
X224234435Y-137680000D01*
X223305565Y-137680000D01*
X223285368Y-137500745D01*
X223225789Y-137330478D01*
X223225787Y-137330475D01*
X223225787Y-137330474D01*
X223129817Y-137177739D01*
X223129816Y-137177737D01*
X223002262Y-137050183D01*
X223002260Y-137050182D01*
X222849525Y-136954212D01*
X222849522Y-136954211D01*
X222679255Y-136894632D01*
X222544954Y-136879500D01*
X222455046Y-136879500D01*
X222320745Y-136894632D01*
X222320742Y-136894632D01*
X222320742Y-136894633D01*
X222150477Y-136954211D01*
X222150474Y-136954212D01*
X221997739Y-137050182D01*
X221997737Y-137050183D01*
X221870183Y-137177737D01*
X221870182Y-137177739D01*
X221774212Y-137330474D01*
X221774211Y-137330477D01*
X221774211Y-137330478D01*
X221714632Y-137500745D01*
X221694435Y-137680000D01*
X220765565Y-137680000D01*
X220745368Y-137500745D01*
X220685789Y-137330478D01*
X220685787Y-137330475D01*
X220685787Y-137330474D01*
X220589817Y-137177739D01*
X220589816Y-137177737D01*
X220462262Y-137050183D01*
X220462260Y-137050182D01*
X220309525Y-136954212D01*
X220309522Y-136954211D01*
X220139255Y-136894632D01*
X220004954Y-136879500D01*
X219915046Y-136879500D01*
X219780745Y-136894632D01*
X219780742Y-136894632D01*
X219780742Y-136894633D01*
X219610477Y-136954211D01*
X219610474Y-136954212D01*
X219457739Y-137050182D01*
X219457737Y-137050183D01*
X219330183Y-137177737D01*
X219330182Y-137177739D01*
X219234212Y-137330474D01*
X219234211Y-137330477D01*
X219234211Y-137330478D01*
X219174632Y-137500745D01*
X219154435Y-137680000D01*
X218225565Y-137680000D01*
X218205368Y-137500745D01*
X218145789Y-137330478D01*
X218145787Y-137330475D01*
X218145787Y-137330474D01*
X218049817Y-137177739D01*
X218049816Y-137177737D01*
X217922262Y-137050183D01*
X217922260Y-137050182D01*
X217769525Y-136954212D01*
X217769522Y-136954211D01*
X217599255Y-136894632D01*
X217464954Y-136879500D01*
X217375046Y-136879500D01*
X217240745Y-136894632D01*
X217240742Y-136894632D01*
X217240742Y-136894633D01*
X217070477Y-136954211D01*
X217070474Y-136954212D01*
X216917739Y-137050182D01*
X216917737Y-137050183D01*
X216790183Y-137177737D01*
X216790182Y-137177739D01*
X216694212Y-137330474D01*
X216694211Y-137330477D01*
X216694211Y-137330478D01*
X216634632Y-137500745D01*
X216614435Y-137680000D01*
X200709180Y-137680000D01*
X200713827Y-136660000D01*
X205564318Y-136660000D01*
X205584955Y-136816760D01*
X205629598Y-136924536D01*
X205645464Y-136962841D01*
X205741718Y-137088282D01*
X205867159Y-137184536D01*
X206013238Y-137245044D01*
X206170000Y-137265682D01*
X206326762Y-137245044D01*
X206472841Y-137184536D01*
X206598282Y-137088282D01*
X206694536Y-136962841D01*
X206755044Y-136816762D01*
X206755044Y-136816760D01*
X206758204Y-136809132D01*
X206759905Y-136809836D01*
X206791492Y-136758014D01*
X206834647Y-136734449D01*
X206834132Y-136733204D01*
X206841760Y-136730044D01*
X206841762Y-136730044D01*
X206987841Y-136669536D01*
X207113282Y-136573282D01*
X207209536Y-136447841D01*
X207270044Y-136301762D01*
X207290682Y-136145000D01*
X207289426Y-136135463D01*
X207270044Y-135988239D01*
X207209536Y-135842160D01*
X207209536Y-135842159D01*
X207113282Y-135716718D01*
X206987841Y-135620464D01*
X206841762Y-135559956D01*
X206841760Y-135559955D01*
X206685000Y-135539318D01*
X206528239Y-135559955D01*
X206382160Y-135620463D01*
X206382157Y-135620465D01*
X206256718Y-135716718D01*
X206160465Y-135842157D01*
X206160463Y-135842160D01*
X206096796Y-135995867D01*
X206095097Y-135995163D01*
X206063492Y-136046997D01*
X206020352Y-136070553D01*
X206020867Y-136071796D01*
X205867160Y-136135463D01*
X205867157Y-136135465D01*
X205741718Y-136231718D01*
X205645465Y-136357157D01*
X205645463Y-136357160D01*
X205584955Y-136503239D01*
X205564318Y-136659999D01*
X205564318Y-136660000D01*
X200713827Y-136660000D01*
X200736196Y-131750000D01*
X213324318Y-131750000D01*
X213344955Y-131906760D01*
X213354091Y-131928815D01*
X213405464Y-132052841D01*
X213501718Y-132178282D01*
X213627159Y-132274536D01*
X213738211Y-132320535D01*
X213793492Y-132365084D01*
X213814915Y-132420497D01*
X213824955Y-132496760D01*
X213874033Y-132615243D01*
X213885464Y-132642841D01*
X213981718Y-132768282D01*
X214107159Y-132864536D01*
X214253238Y-132925044D01*
X214410000Y-132945682D01*
X214566762Y-132925044D01*
X214712841Y-132864536D01*
X214838282Y-132768282D01*
X214934536Y-132642841D01*
X214995044Y-132496762D01*
X215015682Y-132340000D01*
X214995044Y-132183238D01*
X214934536Y-132037159D01*
X214838282Y-131911718D01*
X214712841Y-131815464D01*
X214601786Y-131769463D01*
X214546507Y-131724915D01*
X214525084Y-131669501D01*
X214520463Y-131634404D01*
X214515044Y-131593238D01*
X214454536Y-131447159D01*
X214358282Y-131321718D01*
X214232841Y-131225464D01*
X214086762Y-131164956D01*
X214086760Y-131164955D01*
X213930000Y-131144318D01*
X213773239Y-131164955D01*
X213627160Y-131225463D01*
X213627157Y-131225465D01*
X213501718Y-131321718D01*
X213405465Y-131447157D01*
X213405463Y-131447160D01*
X213344955Y-131593239D01*
X213324318Y-131749999D01*
X213324318Y-131750000D01*
X200736196Y-131750000D01*
X200755058Y-127609621D01*
X200775370Y-127541595D01*
X200829237Y-127495347D01*
X200899557Y-127485563D01*
X200964002Y-127515350D01*
X201002114Y-127575251D01*
X201004631Y-127585592D01*
X201004696Y-127585918D01*
X201004699Y-127585927D01*
X201004700Y-127585934D01*
X201064768Y-127783954D01*
X201162315Y-127966450D01*
X201293590Y-128126410D01*
X201453550Y-128257685D01*
X201636046Y-128355232D01*
X201834066Y-128415300D01*
X201834070Y-128415300D01*
X201834072Y-128415301D01*
X202039997Y-128435583D01*
X202040000Y-128435583D01*
X202040003Y-128435583D01*
X202245927Y-128415301D01*
X202245928Y-128415300D01*
X202245934Y-128415300D01*
X202443954Y-128355232D01*
X202626450Y-128257685D01*
X202786410Y-128126410D01*
X202917685Y-127966450D01*
X203015232Y-127783954D01*
X203075300Y-127585934D01*
X203076353Y-127575251D01*
X203095583Y-127380003D01*
X203095583Y-127379996D01*
X203075301Y-127174072D01*
X203075300Y-127174070D01*
X203075300Y-127174066D01*
X203015232Y-126976046D01*
X202917685Y-126793550D01*
X202786410Y-126633590D01*
X202626450Y-126502315D01*
X202626448Y-126502314D01*
X202626447Y-126502313D01*
X202443954Y-126404768D01*
X202245934Y-126344700D01*
X202245933Y-126344699D01*
X202245927Y-126344698D01*
X202040003Y-126324417D01*
X202039997Y-126324417D01*
X201834072Y-126344698D01*
X201636045Y-126404768D01*
X201453552Y-126502313D01*
X201293590Y-126633590D01*
X201162313Y-126793552D01*
X201064768Y-126976044D01*
X201003772Y-127177126D01*
X200964857Y-127236507D01*
X200900015Y-127265423D01*
X200829834Y-127254692D01*
X200776596Y-127207722D01*
X200757198Y-127139976D01*
X200758777Y-126793552D01*
X200789385Y-120074982D01*
X200809697Y-120006954D01*
X200863564Y-119960706D01*
X200933884Y-119950922D01*
X200998329Y-119980709D01*
X201035958Y-120038981D01*
X201064768Y-120133954D01*
X201162315Y-120316450D01*
X201293590Y-120476410D01*
X201453550Y-120607685D01*
X201636046Y-120705232D01*
X201834066Y-120765300D01*
X201834070Y-120765300D01*
X201834072Y-120765301D01*
X202039997Y-120785583D01*
X202040000Y-120785583D01*
X202040003Y-120785583D01*
X202245927Y-120765301D01*
X202245928Y-120765300D01*
X202245934Y-120765300D01*
X202443954Y-120705232D01*
X202626450Y-120607685D01*
X202786410Y-120476410D01*
X202917685Y-120316450D01*
X203015232Y-120133954D01*
X203075300Y-119935934D01*
X203088858Y-119798286D01*
X203095583Y-119730003D01*
X203095583Y-119729996D01*
X203075301Y-119524072D01*
X203075300Y-119524070D01*
X203075300Y-119524066D01*
X203015232Y-119326046D01*
X202917685Y-119143550D01*
X202786410Y-118983590D01*
X202626450Y-118852315D01*
X202626448Y-118852314D01*
X202626447Y-118852313D01*
X202443954Y-118754768D01*
X202245927Y-118694698D01*
X202040003Y-118674417D01*
X202039997Y-118674417D01*
X201834072Y-118694698D01*
X201636045Y-118754768D01*
X201453552Y-118852313D01*
X201293590Y-118983590D01*
X201162313Y-119143552D01*
X201064768Y-119326045D01*
X201039156Y-119410479D01*
X201000241Y-119469861D01*
X200935399Y-119498776D01*
X200865218Y-119488046D01*
X200811980Y-119441077D01*
X200792582Y-119373330D01*
X200805737Y-116485926D01*
X200826050Y-116417897D01*
X200879916Y-116371649D01*
X200931736Y-116360500D01*
X201131854Y-116360500D01*
X201131861Y-116360500D01*
X201249262Y-116345044D01*
X201395341Y-116284536D01*
X201520782Y-116188282D01*
X201617036Y-116062841D01*
X201677544Y-115916762D01*
X201698182Y-115760000D01*
X203716818Y-115760000D01*
X203737455Y-115916760D01*
X203761012Y-115973630D01*
X203797964Y-116062841D01*
X203894218Y-116188282D01*
X204019659Y-116284536D01*
X204165738Y-116345044D01*
X204283139Y-116360500D01*
X204283146Y-116360500D01*
X205461854Y-116360500D01*
X205461861Y-116360500D01*
X205579262Y-116345044D01*
X205725341Y-116284536D01*
X205850782Y-116188282D01*
X205947036Y-116062841D01*
X206007544Y-115916762D01*
X206028182Y-115760000D01*
X206007544Y-115603238D01*
X205947036Y-115457159D01*
X205850782Y-115331718D01*
X205725341Y-115235464D01*
X205579262Y-115174956D01*
X205579260Y-115174955D01*
X205461863Y-115159500D01*
X205461861Y-115159500D01*
X204283139Y-115159500D01*
X204283136Y-115159500D01*
X204165739Y-115174955D01*
X204019660Y-115235463D01*
X204019657Y-115235465D01*
X203894218Y-115331718D01*
X203797965Y-115457157D01*
X203797963Y-115457160D01*
X203737455Y-115603239D01*
X203716818Y-115759999D01*
X203716818Y-115760000D01*
X201698182Y-115760000D01*
X201677544Y-115603238D01*
X201617036Y-115457159D01*
X201520782Y-115331718D01*
X201395341Y-115235464D01*
X201249262Y-115174956D01*
X201249260Y-115174955D01*
X201131863Y-115159500D01*
X201131861Y-115159500D01*
X200938355Y-115159500D01*
X200870234Y-115139498D01*
X200823741Y-115085842D01*
X200812356Y-115032926D01*
X200815997Y-114233750D01*
X209950568Y-114233750D01*
X209971205Y-114390510D01*
X210026019Y-114522841D01*
X210031714Y-114536591D01*
X210127968Y-114662032D01*
X210253409Y-114758286D01*
X210399488Y-114818794D01*
X210556250Y-114839432D01*
X210713012Y-114818794D01*
X210859091Y-114758286D01*
X210984532Y-114662032D01*
X211080786Y-114536591D01*
X211141294Y-114390512D01*
X211161932Y-114233750D01*
X211141294Y-114076988D01*
X211080786Y-113930909D01*
X210984532Y-113805468D01*
X210859091Y-113709214D01*
X210774800Y-113674299D01*
X210719521Y-113629753D01*
X210697100Y-113562389D01*
X210714658Y-113493598D01*
X210766620Y-113445220D01*
X210774778Y-113441493D01*
X210879091Y-113398286D01*
X211004532Y-113302032D01*
X211100786Y-113176591D01*
X211161294Y-113030512D01*
X211181932Y-112873750D01*
X211173965Y-112813238D01*
X211161294Y-112716989D01*
X211131089Y-112644066D01*
X211100786Y-112570909D01*
X211004532Y-112445468D01*
X210879091Y-112349214D01*
X210832705Y-112330000D01*
X210733010Y-112288705D01*
X210576250Y-112268068D01*
X210419489Y-112288705D01*
X210273410Y-112349213D01*
X210273407Y-112349215D01*
X210147968Y-112445468D01*
X210051715Y-112570907D01*
X210051713Y-112570910D01*
X209991205Y-112716989D01*
X209970568Y-112873749D01*
X209970568Y-112873750D01*
X209991205Y-113030510D01*
X209991206Y-113030512D01*
X210051714Y-113176591D01*
X210147968Y-113302032D01*
X210273409Y-113398286D01*
X210357698Y-113433199D01*
X210412978Y-113477746D01*
X210435399Y-113545109D01*
X210417841Y-113613900D01*
X210365879Y-113662279D01*
X210357698Y-113666015D01*
X210253414Y-113709211D01*
X210253407Y-113709215D01*
X210127968Y-113805468D01*
X210031715Y-113930907D01*
X210031713Y-113930910D01*
X209971205Y-114076989D01*
X209950568Y-114233749D01*
X209950568Y-114233750D01*
X200815997Y-114233750D01*
X200833036Y-110493750D01*
X206900568Y-110493750D01*
X206921205Y-110650510D01*
X206921206Y-110650512D01*
X206981714Y-110796591D01*
X207077968Y-110922032D01*
X207203409Y-111018286D01*
X207349488Y-111078794D01*
X207506250Y-111099432D01*
X207663012Y-111078794D01*
X207809091Y-111018286D01*
X207934532Y-110922032D01*
X208030786Y-110796591D01*
X208091294Y-110650512D01*
X208111932Y-110493750D01*
X208108730Y-110469432D01*
X208091294Y-110336989D01*
X208072673Y-110292032D01*
X208030786Y-110190909D01*
X207934532Y-110065468D01*
X207809091Y-109969214D01*
X207663012Y-109908706D01*
X207663010Y-109908705D01*
X207506250Y-109888068D01*
X207349489Y-109908705D01*
X207203410Y-109969213D01*
X207203407Y-109969215D01*
X207077968Y-110065468D01*
X206981715Y-110190907D01*
X206981713Y-110190910D01*
X206921205Y-110336989D01*
X206900568Y-110493749D01*
X206900568Y-110493750D01*
X200833036Y-110493750D01*
X200842438Y-108430000D01*
X222674318Y-108430000D01*
X222694955Y-108586760D01*
X222694956Y-108586762D01*
X222755464Y-108732841D01*
X222851718Y-108858282D01*
X222977159Y-108954536D01*
X223123238Y-109015044D01*
X223280000Y-109035682D01*
X223436762Y-109015044D01*
X223582841Y-108954536D01*
X223708282Y-108858282D01*
X223804536Y-108732841D01*
X223865044Y-108586762D01*
X223885682Y-108430000D01*
X223882622Y-108406760D01*
X223865044Y-108273239D01*
X223855418Y-108250000D01*
X231054318Y-108250000D01*
X231074955Y-108406760D01*
X231084582Y-108430000D01*
X231135464Y-108552841D01*
X231231718Y-108678282D01*
X231357159Y-108774536D01*
X231503238Y-108835044D01*
X231660000Y-108855682D01*
X231816762Y-108835044D01*
X231962841Y-108774536D01*
X232088282Y-108678282D01*
X232184536Y-108552841D01*
X232245044Y-108406762D01*
X232265682Y-108250000D01*
X232245044Y-108093238D01*
X232184536Y-107947159D01*
X232088282Y-107821718D01*
X231962841Y-107725464D01*
X231950855Y-107720499D01*
X231816760Y-107664955D01*
X231660000Y-107644318D01*
X231503239Y-107664955D01*
X231357160Y-107725463D01*
X231357157Y-107725465D01*
X231231718Y-107821718D01*
X231135465Y-107947157D01*
X231135463Y-107947160D01*
X231074955Y-108093239D01*
X231054318Y-108249999D01*
X231054318Y-108250000D01*
X223855418Y-108250000D01*
X223804536Y-108127160D01*
X223804536Y-108127159D01*
X223708282Y-108001718D01*
X223582841Y-107905464D01*
X223436762Y-107844956D01*
X223436760Y-107844955D01*
X223280000Y-107824318D01*
X223123239Y-107844955D01*
X222977160Y-107905463D01*
X222977157Y-107905465D01*
X222851718Y-108001718D01*
X222755465Y-108127157D01*
X222755463Y-108127160D01*
X222694955Y-108273239D01*
X222674318Y-108429999D01*
X222674318Y-108430000D01*
X200842438Y-108430000D01*
X200845099Y-107845926D01*
X200865412Y-107777897D01*
X200919278Y-107731649D01*
X200971098Y-107720500D01*
X201131854Y-107720500D01*
X201131861Y-107720500D01*
X201249262Y-107705044D01*
X201395341Y-107644536D01*
X201520782Y-107548282D01*
X201617036Y-107422841D01*
X201677544Y-107276762D01*
X201698182Y-107120000D01*
X201677544Y-106963238D01*
X201669665Y-106944218D01*
X201662076Y-106873629D01*
X201693855Y-106810142D01*
X201754913Y-106773914D01*
X201786074Y-106770000D01*
X203628926Y-106770000D01*
X203697047Y-106790002D01*
X203743540Y-106843658D01*
X203753644Y-106913932D01*
X203745334Y-106944219D01*
X203737456Y-106963237D01*
X203716818Y-107119999D01*
X203716818Y-107120000D01*
X203737455Y-107276760D01*
X203737456Y-107276762D01*
X203797964Y-107422841D01*
X203894218Y-107548282D01*
X204019659Y-107644536D01*
X204165738Y-107705044D01*
X204283139Y-107720500D01*
X204283146Y-107720500D01*
X205461854Y-107720500D01*
X205461861Y-107720500D01*
X205579262Y-107705044D01*
X205725341Y-107644536D01*
X205850782Y-107548282D01*
X205947036Y-107422841D01*
X206007544Y-107276762D01*
X206028182Y-107120000D01*
X206007544Y-106963238D01*
X205999665Y-106944218D01*
X205992076Y-106873629D01*
X206023855Y-106810142D01*
X206084913Y-106773914D01*
X206116074Y-106770000D01*
X206439999Y-106770000D01*
X206440000Y-106770000D01*
X206443349Y-106510000D01*
X207494318Y-106510000D01*
X207514955Y-106666760D01*
X207557719Y-106770000D01*
X207575464Y-106812841D01*
X207671718Y-106938282D01*
X207797159Y-107034536D01*
X207943238Y-107095044D01*
X208100000Y-107115682D01*
X208256762Y-107095044D01*
X208402841Y-107034536D01*
X208528282Y-106938282D01*
X208624536Y-106812841D01*
X208685044Y-106666762D01*
X208705682Y-106510000D01*
X208685044Y-106353238D01*
X208624536Y-106207159D01*
X208528282Y-106081718D01*
X208402841Y-105985464D01*
X208256762Y-105924956D01*
X208256760Y-105924955D01*
X208100000Y-105904318D01*
X207943239Y-105924955D01*
X207797160Y-105985463D01*
X207797157Y-105985465D01*
X207671718Y-106081718D01*
X207575465Y-106207157D01*
X207575463Y-106207160D01*
X207514955Y-106353239D01*
X207494318Y-106509999D01*
X207494318Y-106510000D01*
X206443349Y-106510000D01*
X206451336Y-105890000D01*
X210984318Y-105890000D01*
X211004955Y-106046760D01*
X211004956Y-106046762D01*
X211065464Y-106192841D01*
X211161718Y-106318282D01*
X211287159Y-106414536D01*
X211433238Y-106475044D01*
X211590000Y-106495682D01*
X211746762Y-106475044D01*
X211892841Y-106414536D01*
X212018282Y-106318282D01*
X212114536Y-106192841D01*
X212175044Y-106046762D01*
X212195682Y-105890000D01*
X212175044Y-105733238D01*
X212114536Y-105587159D01*
X212018282Y-105461718D01*
X211892841Y-105365464D01*
X211746762Y-105304956D01*
X211746760Y-105304955D01*
X211633161Y-105290000D01*
X233354318Y-105290000D01*
X233374955Y-105446760D01*
X233433110Y-105587157D01*
X233435464Y-105592841D01*
X233531718Y-105718282D01*
X233657159Y-105814536D01*
X233803238Y-105875044D01*
X233960000Y-105895682D01*
X234116762Y-105875044D01*
X234262841Y-105814536D01*
X234388282Y-105718282D01*
X234484536Y-105592841D01*
X234545044Y-105446762D01*
X234565682Y-105290000D01*
X234545044Y-105133238D01*
X234484536Y-104987159D01*
X234388282Y-104861718D01*
X234262841Y-104765464D01*
X234163683Y-104724391D01*
X234116760Y-104704955D01*
X233960000Y-104684318D01*
X233803239Y-104704955D01*
X233657160Y-104765463D01*
X233657157Y-104765465D01*
X233531718Y-104861718D01*
X233435465Y-104987157D01*
X233435463Y-104987160D01*
X233374955Y-105133239D01*
X233354318Y-105289999D01*
X233354318Y-105290000D01*
X211633161Y-105290000D01*
X211590000Y-105284318D01*
X211433239Y-105304955D01*
X211287160Y-105365463D01*
X211287157Y-105365465D01*
X211161718Y-105461718D01*
X211065465Y-105587157D01*
X211065463Y-105587160D01*
X211004955Y-105733239D01*
X210984318Y-105889999D01*
X210984318Y-105890000D01*
X206451336Y-105890000D01*
X206483542Y-103390000D01*
X212584435Y-103390000D01*
X212604632Y-103569255D01*
X212657659Y-103720798D01*
X212664211Y-103739522D01*
X212664212Y-103739525D01*
X212760182Y-103892260D01*
X212760183Y-103892262D01*
X212887737Y-104019816D01*
X212887739Y-104019817D01*
X213040474Y-104115787D01*
X213040475Y-104115787D01*
X213040478Y-104115789D01*
X213210745Y-104175368D01*
X213345046Y-104190500D01*
X213434954Y-104190500D01*
X213569255Y-104175368D01*
X213739522Y-104115789D01*
X213892262Y-104019816D01*
X214019816Y-103892262D01*
X214115789Y-103739522D01*
X214149214Y-103644000D01*
X214593455Y-103644000D01*
X214641176Y-103832449D01*
X214641179Y-103832456D01*
X214731580Y-104038548D01*
X214854674Y-104226958D01*
X215007097Y-104392534D01*
X215184698Y-104530767D01*
X215184699Y-104530768D01*
X215382628Y-104637882D01*
X215382630Y-104637883D01*
X215595483Y-104710955D01*
X215595492Y-104710957D01*
X215676000Y-104724391D01*
X215676000Y-103823674D01*
X215787685Y-103874680D01*
X215894237Y-103890000D01*
X215965763Y-103890000D01*
X216072315Y-103874680D01*
X216184000Y-103823674D01*
X216184000Y-104724390D01*
X216264507Y-104710957D01*
X216264516Y-104710955D01*
X216477369Y-104637883D01*
X216477371Y-104637882D01*
X216675300Y-104530768D01*
X216675301Y-104530767D01*
X216852902Y-104392534D01*
X217005325Y-104226958D01*
X217128419Y-104038548D01*
X217218820Y-103832456D01*
X217218823Y-103832449D01*
X217266544Y-103644000D01*
X216361116Y-103644000D01*
X216389493Y-103599844D01*
X216430000Y-103461889D01*
X216430000Y-103390000D01*
X217664435Y-103390000D01*
X217684632Y-103569255D01*
X217737659Y-103720798D01*
X217744211Y-103739522D01*
X217744212Y-103739525D01*
X217840182Y-103892260D01*
X217840183Y-103892262D01*
X217967737Y-104019816D01*
X217967739Y-104019817D01*
X218120474Y-104115787D01*
X218120475Y-104115787D01*
X218120478Y-104115789D01*
X218290745Y-104175368D01*
X218425046Y-104190500D01*
X218514954Y-104190500D01*
X218649255Y-104175368D01*
X218819522Y-104115789D01*
X218972262Y-104019816D01*
X219099816Y-103892262D01*
X219195789Y-103739522D01*
X219255368Y-103569255D01*
X219275565Y-103390000D01*
X220204435Y-103390000D01*
X220224632Y-103569255D01*
X220277659Y-103720798D01*
X220284211Y-103739522D01*
X220284212Y-103739525D01*
X220380182Y-103892260D01*
X220380183Y-103892262D01*
X220507737Y-104019816D01*
X220507739Y-104019817D01*
X220660474Y-104115787D01*
X220660475Y-104115787D01*
X220660478Y-104115789D01*
X220830745Y-104175368D01*
X220965046Y-104190500D01*
X221054954Y-104190500D01*
X221189255Y-104175368D01*
X221359522Y-104115789D01*
X221512262Y-104019816D01*
X221639816Y-103892262D01*
X221735789Y-103739522D01*
X221795368Y-103569255D01*
X221815565Y-103390000D01*
X221795368Y-103210745D01*
X221735789Y-103040478D01*
X221735787Y-103040475D01*
X221735787Y-103040474D01*
X221639817Y-102887739D01*
X221639816Y-102887737D01*
X221512262Y-102760183D01*
X221512260Y-102760182D01*
X221384651Y-102680000D01*
X237694318Y-102680000D01*
X237714955Y-102836760D01*
X237736071Y-102887737D01*
X237775464Y-102982841D01*
X237871718Y-103108282D01*
X237997159Y-103204536D01*
X238143238Y-103265044D01*
X238300000Y-103285682D01*
X238456762Y-103265044D01*
X238602841Y-103204536D01*
X238728282Y-103108282D01*
X238824536Y-102982841D01*
X238885044Y-102836762D01*
X238905682Y-102680000D01*
X238903603Y-102664212D01*
X238895363Y-102601619D01*
X238885044Y-102523238D01*
X238824536Y-102377159D01*
X238728282Y-102251718D01*
X238602841Y-102155464D01*
X238597173Y-102153116D01*
X238456760Y-102094955D01*
X238300000Y-102074318D01*
X238143239Y-102094955D01*
X237997160Y-102155463D01*
X237997157Y-102155465D01*
X237871718Y-102251718D01*
X237775465Y-102377157D01*
X237775463Y-102377160D01*
X237714955Y-102523239D01*
X237694318Y-102679999D01*
X237694318Y-102680000D01*
X221384651Y-102680000D01*
X221359525Y-102664212D01*
X221359522Y-102664211D01*
X221189255Y-102604632D01*
X221054954Y-102589500D01*
X220965046Y-102589500D01*
X220830745Y-102604632D01*
X220830742Y-102604632D01*
X220830742Y-102604633D01*
X220660477Y-102664211D01*
X220660474Y-102664212D01*
X220507739Y-102760182D01*
X220507737Y-102760183D01*
X220380183Y-102887737D01*
X220380182Y-102887739D01*
X220284212Y-103040474D01*
X220284211Y-103040477D01*
X220226805Y-103204534D01*
X220224632Y-103210745D01*
X220204435Y-103390000D01*
X219275565Y-103390000D01*
X219255368Y-103210745D01*
X219195789Y-103040478D01*
X219195787Y-103040475D01*
X219195787Y-103040474D01*
X219099817Y-102887739D01*
X219099816Y-102887737D01*
X218972262Y-102760183D01*
X218972260Y-102760182D01*
X218819525Y-102664212D01*
X218819522Y-102664211D01*
X218649255Y-102604632D01*
X218514954Y-102589500D01*
X218425046Y-102589500D01*
X218290745Y-102604632D01*
X218290742Y-102604632D01*
X218290742Y-102604633D01*
X218120477Y-102664211D01*
X218120474Y-102664212D01*
X217967739Y-102760182D01*
X217967737Y-102760183D01*
X217840183Y-102887737D01*
X217840182Y-102887739D01*
X217744212Y-103040474D01*
X217744211Y-103040477D01*
X217686805Y-103204534D01*
X217684632Y-103210745D01*
X217664435Y-103390000D01*
X216430000Y-103390000D01*
X216430000Y-103318111D01*
X216389493Y-103180156D01*
X216361116Y-103136000D01*
X217266544Y-103136000D01*
X217266544Y-103135999D01*
X217218823Y-102947550D01*
X217218820Y-102947543D01*
X217128419Y-102741451D01*
X217005325Y-102553041D01*
X216852902Y-102387465D01*
X216675301Y-102249232D01*
X216675300Y-102249231D01*
X216477371Y-102142117D01*
X216477369Y-102142116D01*
X216264512Y-102069043D01*
X216264501Y-102069040D01*
X216184000Y-102055606D01*
X216184000Y-102956325D01*
X216072315Y-102905320D01*
X215965763Y-102890000D01*
X215894237Y-102890000D01*
X215787685Y-102905320D01*
X215676000Y-102956325D01*
X215676000Y-102055607D01*
X215675999Y-102055606D01*
X215595498Y-102069040D01*
X215595487Y-102069043D01*
X215382630Y-102142116D01*
X215382628Y-102142117D01*
X215184699Y-102249231D01*
X215184698Y-102249232D01*
X215007097Y-102387465D01*
X214854674Y-102553041D01*
X214731580Y-102741451D01*
X214641179Y-102947543D01*
X214641176Y-102947550D01*
X214593455Y-103135999D01*
X214593456Y-103136000D01*
X215498884Y-103136000D01*
X215470507Y-103180156D01*
X215430000Y-103318111D01*
X215430000Y-103461889D01*
X215470507Y-103599844D01*
X215498884Y-103644000D01*
X214593455Y-103644000D01*
X214149214Y-103644000D01*
X214175368Y-103569255D01*
X214195565Y-103390000D01*
X214175368Y-103210745D01*
X214115789Y-103040478D01*
X214115787Y-103040475D01*
X214115787Y-103040474D01*
X214019817Y-102887739D01*
X214019816Y-102887737D01*
X213892262Y-102760183D01*
X213892260Y-102760182D01*
X213739525Y-102664212D01*
X213739522Y-102664211D01*
X213569255Y-102604632D01*
X213434954Y-102589500D01*
X213345046Y-102589500D01*
X213210745Y-102604632D01*
X213210742Y-102604632D01*
X213210742Y-102604633D01*
X213040477Y-102664211D01*
X213040474Y-102664212D01*
X212887739Y-102760182D01*
X212887737Y-102760183D01*
X212760183Y-102887737D01*
X212760182Y-102887739D01*
X212664212Y-103040474D01*
X212664211Y-103040477D01*
X212606805Y-103204534D01*
X212604632Y-103210745D01*
X212584435Y-103390000D01*
X206483542Y-103390000D01*
X206518394Y-100684590D01*
X206539272Y-100616737D01*
X206593522Y-100570939D01*
X206644601Y-100560217D01*
X240763525Y-100619779D01*
G37*
%TD.AperFunction*%
%TD*%
%TA.AperFunction,Conductor*%
%TO.N,/BBD_IPS_OUT*%
G36*
X216070028Y-110118235D02*
G01*
X216137845Y-110139236D01*
X216183544Y-110193570D01*
X216194099Y-110239916D01*
X216258283Y-112117295D01*
X216240621Y-112186059D01*
X216188585Y-112234358D01*
X216118697Y-112246857D01*
X216053146Y-112219588D01*
X216032397Y-112198308D01*
X215958282Y-112101718D01*
X215832841Y-112005464D01*
X215752813Y-111972315D01*
X215686760Y-111944955D01*
X215530000Y-111924318D01*
X215373239Y-111944955D01*
X215227160Y-112005463D01*
X215227157Y-112005465D01*
X215101718Y-112101718D01*
X215005465Y-112227157D01*
X215005463Y-112227160D01*
X214944955Y-112373239D01*
X214924318Y-112529999D01*
X214924318Y-112530000D01*
X214944955Y-112686760D01*
X214998294Y-112815530D01*
X215005464Y-112832841D01*
X215101718Y-112958282D01*
X215227159Y-113054536D01*
X215373238Y-113115044D01*
X215530000Y-113135682D01*
X215686762Y-113115044D01*
X215832841Y-113054536D01*
X215958282Y-112958282D01*
X216054536Y-112832841D01*
X216054536Y-112832839D01*
X216059128Y-112826856D01*
X216116466Y-112784988D01*
X216187337Y-112780766D01*
X216249240Y-112815530D01*
X216282521Y-112878242D01*
X216285017Y-112899254D01*
X216309999Y-113629999D01*
X216310000Y-113630000D01*
X216791537Y-113633532D01*
X216859509Y-113654034D01*
X216867316Y-113659565D01*
X216899859Y-113684536D01*
X217045938Y-113745044D01*
X217202700Y-113765682D01*
X217359462Y-113745044D01*
X217505541Y-113684536D01*
X217530279Y-113665553D01*
X217596496Y-113639953D01*
X217607881Y-113639519D01*
X218059833Y-113642835D01*
X218059833Y-113642834D01*
X218063388Y-113633532D01*
X218519040Y-112441027D01*
X218562039Y-112384533D01*
X218628755Y-112360253D01*
X218636741Y-112360000D01*
X219474324Y-112360000D01*
X219542445Y-112380002D01*
X219588938Y-112433658D01*
X219591499Y-112439675D01*
X220069999Y-113649999D01*
X220070000Y-113650000D01*
X221214058Y-113659079D01*
X221261271Y-113668665D01*
X221373238Y-113715044D01*
X221530000Y-113735682D01*
X221686762Y-113715044D01*
X221786810Y-113673602D01*
X221836025Y-113664016D01*
X232550656Y-113749052D01*
X232618614Y-113769594D01*
X232664679Y-113823617D01*
X232675519Y-113869221D01*
X232748406Y-115443587D01*
X232731576Y-115512560D01*
X232680128Y-115561484D01*
X232610396Y-115574827D01*
X232606095Y-115574336D01*
X232530000Y-115564318D01*
X232373239Y-115584955D01*
X232227160Y-115645463D01*
X232227157Y-115645465D01*
X232101718Y-115741718D01*
X232005465Y-115867157D01*
X232005463Y-115867160D01*
X231944956Y-116013238D01*
X231943822Y-116021851D01*
X231915097Y-116086777D01*
X231855831Y-116125867D01*
X231835347Y-116130323D01*
X231677028Y-116151166D01*
X231530949Y-116211674D01*
X231530946Y-116211676D01*
X231405507Y-116307929D01*
X231309254Y-116433368D01*
X231309252Y-116433371D01*
X231248744Y-116579450D01*
X231228107Y-116736210D01*
X231228107Y-116736211D01*
X231248744Y-116892971D01*
X231306786Y-117033095D01*
X231309253Y-117039052D01*
X231405507Y-117164493D01*
X231530948Y-117260747D01*
X231677027Y-117321255D01*
X231833789Y-117341893D01*
X231990551Y-117321255D01*
X232136630Y-117260747D01*
X232262071Y-117164493D01*
X232358325Y-117039052D01*
X232358328Y-117039043D01*
X232362452Y-117031902D01*
X232364519Y-117033095D01*
X232401384Y-116987335D01*
X232468744Y-116964904D01*
X232537538Y-116982451D01*
X232572489Y-117017813D01*
X232574477Y-117016289D01*
X232579503Y-117022839D01*
X232579504Y-117022841D01*
X232669654Y-117140327D01*
X232675759Y-117148283D01*
X232711466Y-117175682D01*
X232780962Y-117229008D01*
X232786456Y-117233223D01*
X232828324Y-117290561D01*
X232835618Y-117327359D01*
X232869999Y-118069999D01*
X232870000Y-118070001D01*
X234192115Y-119695712D01*
X234219578Y-119761182D01*
X234220357Y-119774191D01*
X234258981Y-124544120D01*
X234260000Y-124670000D01*
X235632471Y-124675941D01*
X235700504Y-124696238D01*
X235746764Y-124750094D01*
X235756564Y-124820411D01*
X235744716Y-124858102D01*
X235712594Y-124922612D01*
X235712594Y-124922613D01*
X235654244Y-125127688D01*
X235634571Y-125340000D01*
X235654244Y-125552311D01*
X235712593Y-125757384D01*
X235712594Y-125757386D01*
X235712595Y-125757389D01*
X235807634Y-125948255D01*
X235900428Y-126071133D01*
X235936129Y-126118408D01*
X236093699Y-126262053D01*
X236093701Y-126262054D01*
X236274974Y-126374294D01*
X236274975Y-126374294D01*
X236274981Y-126374298D01*
X236473802Y-126451321D01*
X236660097Y-126486145D01*
X236723381Y-126518324D01*
X236759223Y-126579609D01*
X236756242Y-126650543D01*
X236715384Y-126708605D01*
X236660098Y-126733854D01*
X236547350Y-126754930D01*
X236473800Y-126768679D01*
X236319754Y-126828356D01*
X236274981Y-126845702D01*
X236274980Y-126845702D01*
X236274979Y-126845703D01*
X236274974Y-126845705D01*
X236093701Y-126957945D01*
X236093699Y-126957946D01*
X235936129Y-127101591D01*
X235887746Y-127165660D01*
X235807634Y-127271745D01*
X235807634Y-127271746D01*
X235712593Y-127462615D01*
X235654244Y-127667688D01*
X235634571Y-127880000D01*
X235654244Y-128092311D01*
X235712593Y-128297384D01*
X235712594Y-128297386D01*
X235712595Y-128297389D01*
X235807634Y-128488255D01*
X235936128Y-128658407D01*
X235936129Y-128658408D01*
X236093699Y-128802053D01*
X236093701Y-128802054D01*
X236274974Y-128914294D01*
X236274975Y-128914294D01*
X236274981Y-128914298D01*
X236473802Y-128991321D01*
X236660097Y-129026145D01*
X236723381Y-129058324D01*
X236759223Y-129119609D01*
X236756242Y-129190543D01*
X236715384Y-129248605D01*
X236660098Y-129273854D01*
X236547350Y-129294930D01*
X236473800Y-129308679D01*
X236319754Y-129368356D01*
X236274981Y-129385702D01*
X236274980Y-129385702D01*
X236274979Y-129385703D01*
X236274974Y-129385705D01*
X236093701Y-129497945D01*
X236093699Y-129497946D01*
X235936129Y-129641591D01*
X235895479Y-129695420D01*
X235807634Y-129811745D01*
X235780041Y-129867160D01*
X235712593Y-130002615D01*
X235654244Y-130207688D01*
X235634571Y-130420000D01*
X235654244Y-130632311D01*
X235712593Y-130837384D01*
X235712594Y-130837386D01*
X235712595Y-130837389D01*
X235807634Y-131028255D01*
X235895282Y-131144318D01*
X235936129Y-131198408D01*
X236093699Y-131342053D01*
X236093701Y-131342054D01*
X236274974Y-131454294D01*
X236274975Y-131454294D01*
X236274981Y-131454298D01*
X236473802Y-131531321D01*
X236660097Y-131566145D01*
X236723381Y-131598324D01*
X236759223Y-131659609D01*
X236756242Y-131730543D01*
X236715384Y-131788605D01*
X236660098Y-131813854D01*
X236547350Y-131834930D01*
X236473800Y-131848679D01*
X236323871Y-131906762D01*
X236274981Y-131925702D01*
X236274980Y-131925702D01*
X236274979Y-131925703D01*
X236274974Y-131925705D01*
X236093701Y-132037945D01*
X236093699Y-132037946D01*
X235936129Y-132181591D01*
X235892494Y-132239373D01*
X235807634Y-132351745D01*
X235750449Y-132466589D01*
X235712593Y-132542615D01*
X235654244Y-132747688D01*
X235634571Y-132960000D01*
X235654244Y-133172311D01*
X235712593Y-133377384D01*
X235712594Y-133377386D01*
X235712595Y-133377389D01*
X235807634Y-133568255D01*
X235915740Y-133711409D01*
X235936129Y-133738408D01*
X236093699Y-133882053D01*
X236093701Y-133882054D01*
X236274974Y-133994294D01*
X236274975Y-133994294D01*
X236274981Y-133994298D01*
X236473802Y-134071321D01*
X236683390Y-134110500D01*
X236683393Y-134110500D01*
X236896607Y-134110500D01*
X236896610Y-134110500D01*
X237106198Y-134071321D01*
X237305019Y-133994298D01*
X237486302Y-133882052D01*
X237643872Y-133738407D01*
X237772366Y-133568255D01*
X237867405Y-133377389D01*
X237925756Y-133172310D01*
X237934537Y-133077538D01*
X237960739Y-133011555D01*
X238018456Y-132970211D01*
X238089362Y-132966634D01*
X238150946Y-133001960D01*
X238183656Y-133064973D01*
X238185461Y-133077529D01*
X238192971Y-133158579D01*
X238194244Y-133172311D01*
X238252593Y-133377384D01*
X238252594Y-133377386D01*
X238252595Y-133377389D01*
X238347634Y-133568255D01*
X238455740Y-133711409D01*
X238476129Y-133738408D01*
X238633699Y-133882053D01*
X238633701Y-133882054D01*
X238814974Y-133994294D01*
X238814975Y-133994294D01*
X238814981Y-133994298D01*
X239013802Y-134071321D01*
X239223390Y-134110500D01*
X239223393Y-134110500D01*
X239436607Y-134110500D01*
X239436610Y-134110500D01*
X239646198Y-134071321D01*
X239845019Y-133994298D01*
X240026302Y-133882052D01*
X240183872Y-133738407D01*
X240312366Y-133568255D01*
X240407405Y-133377389D01*
X240465756Y-133172310D01*
X240485429Y-132960000D01*
X240465756Y-132747690D01*
X240407405Y-132542611D01*
X240312366Y-132351745D01*
X240183872Y-132181593D01*
X240140120Y-132141707D01*
X240026300Y-132037946D01*
X240026298Y-132037945D01*
X239845025Y-131925705D01*
X239845021Y-131925703D01*
X239845019Y-131925702D01*
X239646198Y-131848679D01*
X239459902Y-131813854D01*
X239396618Y-131781676D01*
X239360776Y-131720391D01*
X239363757Y-131649457D01*
X239404615Y-131591395D01*
X239459901Y-131566145D01*
X239646198Y-131531321D01*
X239845019Y-131454298D01*
X240026302Y-131342052D01*
X240183872Y-131198407D01*
X240312366Y-131028255D01*
X240407405Y-130837389D01*
X240465756Y-130632310D01*
X240485429Y-130420000D01*
X240465756Y-130207690D01*
X240407405Y-130002611D01*
X240312366Y-129811745D01*
X240183872Y-129641593D01*
X240170298Y-129629218D01*
X240026300Y-129497946D01*
X240026298Y-129497945D01*
X239845025Y-129385705D01*
X239845017Y-129385701D01*
X239839713Y-129383646D01*
X239829102Y-129379536D01*
X239772808Y-129336278D01*
X239748837Y-129269451D01*
X239764800Y-129200272D01*
X239815631Y-129150706D01*
X239833708Y-129142872D01*
X239877365Y-129127884D01*
X239877371Y-129127882D01*
X240075300Y-129020768D01*
X240075301Y-129020767D01*
X240252902Y-128882534D01*
X240405325Y-128716958D01*
X240528419Y-128528548D01*
X240618820Y-128322456D01*
X240618823Y-128322449D01*
X240666544Y-128134000D01*
X239761116Y-128134000D01*
X239789493Y-128089844D01*
X239830000Y-127951889D01*
X239830000Y-127808111D01*
X239789493Y-127670156D01*
X239761116Y-127626000D01*
X240666544Y-127626000D01*
X240666544Y-127625999D01*
X240618823Y-127437550D01*
X240618820Y-127437543D01*
X240528419Y-127231451D01*
X240405325Y-127043041D01*
X240252902Y-126877465D01*
X240075301Y-126739232D01*
X240075300Y-126739231D01*
X239877371Y-126632117D01*
X239877365Y-126632115D01*
X239833705Y-126617126D01*
X239775771Y-126576089D01*
X239749220Y-126510244D01*
X239762482Y-126440497D01*
X239811347Y-126388992D01*
X239829092Y-126380467D01*
X239845019Y-126374298D01*
X240026302Y-126262052D01*
X240183872Y-126118407D01*
X240312366Y-125948255D01*
X240407405Y-125757389D01*
X240465756Y-125552310D01*
X240485429Y-125340000D01*
X240465756Y-125127690D01*
X240407405Y-124922611D01*
X240385773Y-124879169D01*
X240373316Y-124809276D01*
X240400623Y-124743741D01*
X240459026Y-124703372D01*
X240499109Y-124697009D01*
X241064486Y-124699456D01*
X241132518Y-124719753D01*
X241178778Y-124773609D01*
X241189939Y-124825516D01*
X241184382Y-136290786D01*
X241164347Y-136358897D01*
X241114097Y-136402396D01*
X241152511Y-136426441D01*
X241182771Y-136490666D01*
X241184276Y-136510143D01*
X241170060Y-165844285D01*
X241150025Y-165912396D01*
X241096347Y-165958863D01*
X241044285Y-165970224D01*
X230086798Y-165989773D01*
X230018641Y-165969892D01*
X229972053Y-165916320D01*
X229960574Y-165863203D01*
X229983758Y-160742839D01*
X229985129Y-160440000D01*
X237254318Y-160440000D01*
X237274955Y-160596760D01*
X237274956Y-160596762D01*
X237335464Y-160742841D01*
X237431718Y-160868282D01*
X237557159Y-160964536D01*
X237703238Y-161025044D01*
X237860000Y-161045682D01*
X238016762Y-161025044D01*
X238162841Y-160964536D01*
X238288282Y-160868282D01*
X238384536Y-160742841D01*
X238445044Y-160596762D01*
X238465682Y-160440000D01*
X238445044Y-160283238D01*
X238384536Y-160137159D01*
X238288282Y-160011718D01*
X238162841Y-159915464D01*
X238016762Y-159854956D01*
X238016760Y-159854955D01*
X237860000Y-159834318D01*
X237703239Y-159854955D01*
X237557160Y-159915463D01*
X237557157Y-159915465D01*
X237431718Y-160011718D01*
X237335465Y-160137157D01*
X237335463Y-160137160D01*
X237274955Y-160283239D01*
X237254318Y-160439999D01*
X237254318Y-160440000D01*
X229985129Y-160440000D01*
X229988163Y-159770000D01*
X232144318Y-159770000D01*
X232164955Y-159926760D01*
X232164956Y-159926762D01*
X232225464Y-160072841D01*
X232321718Y-160198282D01*
X232447159Y-160294536D01*
X232593238Y-160355044D01*
X232750000Y-160375682D01*
X232906762Y-160355044D01*
X233052841Y-160294536D01*
X233178282Y-160198282D01*
X233274536Y-160072841D01*
X233335044Y-159926762D01*
X233355682Y-159770000D01*
X233335044Y-159613238D01*
X233274536Y-159467159D01*
X233178282Y-159341718D01*
X233052841Y-159245464D01*
X232906762Y-159184956D01*
X232906760Y-159184955D01*
X232750000Y-159164318D01*
X232593239Y-159184955D01*
X232447160Y-159245463D01*
X232447157Y-159245465D01*
X232321718Y-159341718D01*
X232225465Y-159467157D01*
X232225463Y-159467160D01*
X232164955Y-159613239D01*
X232144318Y-159769999D01*
X232144318Y-159770000D01*
X229988163Y-159770000D01*
X230011572Y-154600000D01*
X231834318Y-154600000D01*
X231854955Y-154756760D01*
X231909701Y-154888927D01*
X231915464Y-154902841D01*
X232011718Y-155028282D01*
X232137159Y-155124536D01*
X232283238Y-155185044D01*
X232283240Y-155185044D01*
X232290422Y-155188019D01*
X232345703Y-155232567D01*
X232368124Y-155299931D01*
X232350566Y-155368722D01*
X232342167Y-155381131D01*
X232245468Y-155507152D01*
X232245463Y-155507160D01*
X232184955Y-155653239D01*
X232164318Y-155809999D01*
X232164318Y-155810000D01*
X232184955Y-155966760D01*
X232184956Y-155966762D01*
X232245464Y-156112841D01*
X232341718Y-156238282D01*
X232467159Y-156334536D01*
X232613238Y-156395044D01*
X232770000Y-156415682D01*
X232926762Y-156395044D01*
X233072841Y-156334536D01*
X233198282Y-156238282D01*
X233294536Y-156112841D01*
X233355044Y-155966762D01*
X233375682Y-155810000D01*
X233355044Y-155653238D01*
X233294536Y-155507159D01*
X233198282Y-155381718D01*
X233072841Y-155285464D01*
X232926762Y-155224956D01*
X232926761Y-155224955D01*
X232919577Y-155221980D01*
X232864296Y-155177431D01*
X232841875Y-155110068D01*
X232859433Y-155041277D01*
X232867832Y-155028868D01*
X232868282Y-155028282D01*
X232943087Y-154930793D01*
X233000423Y-154888927D01*
X233071294Y-154884705D01*
X233091251Y-154891084D01*
X233173238Y-154925044D01*
X233330000Y-154945682D01*
X233486762Y-154925044D01*
X233632841Y-154864536D01*
X233758282Y-154768282D01*
X233854536Y-154642841D01*
X233915044Y-154496762D01*
X233935682Y-154340000D01*
X233915044Y-154183238D01*
X233854536Y-154037159D01*
X233758282Y-153911718D01*
X233632841Y-153815464D01*
X233486762Y-153754956D01*
X233486760Y-153754955D01*
X233330000Y-153734318D01*
X233173239Y-153754955D01*
X233027160Y-153815463D01*
X233027157Y-153815465D01*
X232901715Y-153911720D01*
X232826913Y-154009205D01*
X232769575Y-154051072D01*
X232698705Y-154055294D01*
X232678737Y-154048911D01*
X232596762Y-154014956D01*
X232596760Y-154014955D01*
X232440000Y-153994318D01*
X232283239Y-154014955D01*
X232137160Y-154075463D01*
X232137157Y-154075465D01*
X232011718Y-154171718D01*
X231915465Y-154297157D01*
X231915463Y-154297160D01*
X231854955Y-154443239D01*
X231834318Y-154599999D01*
X231834318Y-154600000D01*
X230011572Y-154600000D01*
X230024340Y-151780003D01*
X238374417Y-151780003D01*
X238394698Y-151985927D01*
X238394699Y-151985933D01*
X238394700Y-151985934D01*
X238454768Y-152183954D01*
X238552315Y-152366450D01*
X238683590Y-152526410D01*
X238843550Y-152657685D01*
X239026046Y-152755232D01*
X239224066Y-152815300D01*
X239224070Y-152815300D01*
X239224072Y-152815301D01*
X239429997Y-152835583D01*
X239430000Y-152835583D01*
X239430003Y-152835583D01*
X239635927Y-152815301D01*
X239635928Y-152815300D01*
X239635934Y-152815300D01*
X239833954Y-152755232D01*
X240016450Y-152657685D01*
X240176410Y-152526410D01*
X240307685Y-152366450D01*
X240405232Y-152183954D01*
X240465300Y-151985934D01*
X240485583Y-151780000D01*
X240485583Y-151779996D01*
X240465301Y-151574072D01*
X240465300Y-151574070D01*
X240465300Y-151574066D01*
X240405232Y-151376046D01*
X240307685Y-151193550D01*
X240176410Y-151033590D01*
X240016450Y-150902315D01*
X240016448Y-150902314D01*
X240016447Y-150902313D01*
X239833954Y-150804768D01*
X239635927Y-150744698D01*
X239430003Y-150724417D01*
X239429997Y-150724417D01*
X239224072Y-150744698D01*
X239026045Y-150804768D01*
X238843552Y-150902313D01*
X238683590Y-151033590D01*
X238552313Y-151193552D01*
X238454768Y-151376045D01*
X238394698Y-151574072D01*
X238374417Y-151779996D01*
X238374417Y-151780003D01*
X230024340Y-151780003D01*
X230042491Y-147771198D01*
X238798011Y-147771198D01*
X238858597Y-147813621D01*
X239058092Y-147906647D01*
X239058096Y-147906649D01*
X239270712Y-147963619D01*
X239490000Y-147982804D01*
X239709287Y-147963619D01*
X239921903Y-147906649D01*
X239921907Y-147906647D01*
X240121399Y-147813622D01*
X240181987Y-147771197D01*
X240181987Y-147771196D01*
X239490001Y-147079210D01*
X239490000Y-147079210D01*
X238798011Y-147771197D01*
X238798011Y-147771198D01*
X230042491Y-147771198D01*
X230047251Y-146720000D01*
X238227195Y-146720000D01*
X238246380Y-146939287D01*
X238303350Y-147151903D01*
X238303352Y-147151907D01*
X238396379Y-147351403D01*
X238438800Y-147411987D01*
X239101487Y-146749302D01*
X239136372Y-146749302D01*
X239165047Y-146862538D01*
X239228936Y-146960327D01*
X239321115Y-147032072D01*
X239431595Y-147070000D01*
X239519005Y-147070000D01*
X239605216Y-147055614D01*
X239707947Y-147000019D01*
X239787060Y-146914079D01*
X239833982Y-146807108D01*
X239841200Y-146720001D01*
X239849210Y-146720001D01*
X240541196Y-147411987D01*
X240541197Y-147411987D01*
X240583622Y-147351399D01*
X240676647Y-147151907D01*
X240676649Y-147151903D01*
X240733619Y-146939287D01*
X240752804Y-146720000D01*
X240733619Y-146500712D01*
X240676649Y-146288096D01*
X240676647Y-146288092D01*
X240583619Y-146088594D01*
X240541199Y-146028011D01*
X240541197Y-146028011D01*
X239849210Y-146719999D01*
X239849210Y-146720001D01*
X239841200Y-146720001D01*
X239843628Y-146690698D01*
X239814953Y-146577462D01*
X239751064Y-146479673D01*
X239658885Y-146407928D01*
X239548405Y-146370000D01*
X239460995Y-146370000D01*
X239374784Y-146384386D01*
X239272053Y-146439981D01*
X239192940Y-146525921D01*
X239146018Y-146632892D01*
X239136372Y-146749302D01*
X239101487Y-146749302D01*
X239130790Y-146719999D01*
X238438801Y-146028010D01*
X238396378Y-146088598D01*
X238303352Y-146288092D01*
X238303350Y-146288096D01*
X238246380Y-146500712D01*
X238227195Y-146720000D01*
X230047251Y-146720000D01*
X230050692Y-145960000D01*
X230924318Y-145960000D01*
X230944955Y-146116760D01*
X230944956Y-146116762D01*
X231005464Y-146262841D01*
X231101718Y-146388282D01*
X231227159Y-146484536D01*
X231373238Y-146545044D01*
X231530000Y-146565682D01*
X231686762Y-146545044D01*
X231832841Y-146484536D01*
X231958282Y-146388282D01*
X232054536Y-146262841D01*
X232115044Y-146116762D01*
X232135682Y-145960000D01*
X232115044Y-145803238D01*
X232059358Y-145668801D01*
X238798010Y-145668801D01*
X239489999Y-146360790D01*
X239490000Y-146360790D01*
X240181987Y-145668800D01*
X240121403Y-145626379D01*
X239921907Y-145533352D01*
X239921903Y-145533350D01*
X239709287Y-145476380D01*
X239490000Y-145457195D01*
X239270712Y-145476380D01*
X239058096Y-145533350D01*
X239058092Y-145533352D01*
X238858598Y-145626378D01*
X238798010Y-145668801D01*
X232059358Y-145668801D01*
X232054536Y-145657159D01*
X231958282Y-145531718D01*
X231832841Y-145435464D01*
X231686762Y-145374956D01*
X231686760Y-145374955D01*
X231530000Y-145354318D01*
X231373239Y-145374955D01*
X231227160Y-145435463D01*
X231227157Y-145435465D01*
X231101718Y-145531718D01*
X231005465Y-145657157D01*
X231005463Y-145657160D01*
X230944955Y-145803239D01*
X230924318Y-145959999D01*
X230924318Y-145960000D01*
X230050692Y-145960000D01*
X230065543Y-142680000D01*
X234974318Y-142680000D01*
X234994955Y-142836760D01*
X234994956Y-142836762D01*
X235055464Y-142982841D01*
X235151718Y-143108282D01*
X235277159Y-143204536D01*
X235423238Y-143265044D01*
X235580000Y-143285682D01*
X235736762Y-143265044D01*
X235882841Y-143204536D01*
X236008282Y-143108282D01*
X236104536Y-142982841D01*
X236165044Y-142836762D01*
X236185682Y-142680000D01*
X236165044Y-142523238D01*
X236104536Y-142377159D01*
X236008282Y-142251718D01*
X235882841Y-142155464D01*
X235736762Y-142094956D01*
X235736760Y-142094955D01*
X235580000Y-142074318D01*
X235423239Y-142094955D01*
X235277160Y-142155463D01*
X235277157Y-142155465D01*
X235151718Y-142251718D01*
X235055465Y-142377157D01*
X235055463Y-142377160D01*
X234994955Y-142523239D01*
X234974318Y-142679999D01*
X234974318Y-142680000D01*
X230065543Y-142680000D01*
X230071370Y-141393070D01*
X230091680Y-141325045D01*
X230145545Y-141278796D01*
X230183257Y-141268437D01*
X230299255Y-141255368D01*
X230469522Y-141195789D01*
X230622262Y-141099816D01*
X230749816Y-140972262D01*
X230845789Y-140819522D01*
X230905368Y-140649255D01*
X230925565Y-140470000D01*
X231854435Y-140470000D01*
X231874632Y-140649255D01*
X231874633Y-140649257D01*
X231934211Y-140819522D01*
X231934212Y-140819525D01*
X232030182Y-140972260D01*
X232030183Y-140972262D01*
X232157737Y-141099816D01*
X232157739Y-141099817D01*
X232310474Y-141195787D01*
X232310475Y-141195787D01*
X232310478Y-141195789D01*
X232480745Y-141255368D01*
X232615046Y-141270500D01*
X232704954Y-141270500D01*
X232839255Y-141255368D01*
X233009522Y-141195789D01*
X233162262Y-141099816D01*
X233289816Y-140972262D01*
X233385789Y-140819522D01*
X233445368Y-140649255D01*
X233465565Y-140470000D01*
X234394435Y-140470000D01*
X234414632Y-140649255D01*
X234414633Y-140649257D01*
X234474211Y-140819522D01*
X234474212Y-140819525D01*
X234570182Y-140972260D01*
X234570183Y-140972262D01*
X234697737Y-141099816D01*
X234697739Y-141099817D01*
X234850474Y-141195787D01*
X234850475Y-141195787D01*
X234850478Y-141195789D01*
X235020745Y-141255368D01*
X235155046Y-141270500D01*
X235244954Y-141270500D01*
X235379255Y-141255368D01*
X235549522Y-141195789D01*
X235702262Y-141099816D01*
X235829816Y-140972262D01*
X235925789Y-140819522D01*
X235985368Y-140649255D01*
X236005565Y-140470000D01*
X235985368Y-140290745D01*
X235925789Y-140120478D01*
X235925787Y-140120475D01*
X235925787Y-140120474D01*
X235829817Y-139967739D01*
X235829816Y-139967737D01*
X235702262Y-139840183D01*
X235702260Y-139840182D01*
X235549525Y-139744212D01*
X235549522Y-139744211D01*
X235379255Y-139684632D01*
X235244954Y-139669500D01*
X235155046Y-139669500D01*
X235020745Y-139684632D01*
X235020742Y-139684632D01*
X235020742Y-139684633D01*
X234850477Y-139744211D01*
X234850474Y-139744212D01*
X234697739Y-139840182D01*
X234697737Y-139840183D01*
X234570183Y-139967737D01*
X234570182Y-139967739D01*
X234474212Y-140120474D01*
X234474211Y-140120477D01*
X234474211Y-140120478D01*
X234414632Y-140290745D01*
X234394435Y-140470000D01*
X233465565Y-140470000D01*
X233445368Y-140290745D01*
X233385789Y-140120478D01*
X233385787Y-140120475D01*
X233385787Y-140120474D01*
X233289817Y-139967739D01*
X233289816Y-139967737D01*
X233162262Y-139840183D01*
X233162260Y-139840182D01*
X233009525Y-139744212D01*
X233009522Y-139744211D01*
X232839255Y-139684632D01*
X232704954Y-139669500D01*
X232615046Y-139669500D01*
X232480745Y-139684632D01*
X232480742Y-139684632D01*
X232480742Y-139684633D01*
X232310477Y-139744211D01*
X232310474Y-139744212D01*
X232157739Y-139840182D01*
X232157737Y-139840183D01*
X232030183Y-139967737D01*
X232030182Y-139967739D01*
X231934212Y-140120474D01*
X231934211Y-140120477D01*
X231934211Y-140120478D01*
X231874632Y-140290745D01*
X231854435Y-140470000D01*
X230925565Y-140470000D01*
X230905368Y-140290745D01*
X230845789Y-140120478D01*
X230845787Y-140120475D01*
X230845787Y-140120474D01*
X230749817Y-139967739D01*
X230749816Y-139967737D01*
X230622262Y-139840183D01*
X230622260Y-139840182D01*
X230469525Y-139744212D01*
X230469522Y-139744211D01*
X230299258Y-139684633D01*
X230299257Y-139684632D01*
X230299255Y-139684632D01*
X230232561Y-139677117D01*
X230191619Y-139672504D01*
X230126167Y-139644999D01*
X230085974Y-139586475D01*
X230079730Y-139546732D01*
X230084009Y-138601648D01*
X230104320Y-138533621D01*
X230158185Y-138487372D01*
X230195898Y-138477013D01*
X230299255Y-138465368D01*
X230469522Y-138405789D01*
X230622262Y-138309816D01*
X230749816Y-138182262D01*
X230845789Y-138029522D01*
X230905368Y-137859255D01*
X230925565Y-137680000D01*
X231854435Y-137680000D01*
X231874632Y-137859255D01*
X231874633Y-137859257D01*
X231934211Y-138029522D01*
X231934212Y-138029525D01*
X232030182Y-138182260D01*
X232030183Y-138182262D01*
X232157737Y-138309816D01*
X232157739Y-138309817D01*
X232310474Y-138405787D01*
X232310475Y-138405787D01*
X232310478Y-138405789D01*
X232480745Y-138465368D01*
X232615046Y-138480500D01*
X232704954Y-138480500D01*
X232839255Y-138465368D01*
X233009522Y-138405789D01*
X233162262Y-138309816D01*
X233289816Y-138182262D01*
X233385789Y-138029522D01*
X233445368Y-137859255D01*
X233465565Y-137680000D01*
X234394435Y-137680000D01*
X234414632Y-137859255D01*
X234414633Y-137859257D01*
X234474211Y-138029522D01*
X234474212Y-138029525D01*
X234570182Y-138182260D01*
X234570183Y-138182262D01*
X234697737Y-138309816D01*
X234697739Y-138309817D01*
X234850474Y-138405787D01*
X234850475Y-138405787D01*
X234850478Y-138405789D01*
X235020745Y-138465368D01*
X235155046Y-138480500D01*
X235244954Y-138480500D01*
X235379255Y-138465368D01*
X235549522Y-138405789D01*
X235702262Y-138309816D01*
X235829816Y-138182262D01*
X235925789Y-138029522D01*
X235985368Y-137859255D01*
X236005565Y-137680000D01*
X235985368Y-137500745D01*
X235925789Y-137330478D01*
X235925787Y-137330475D01*
X235925787Y-137330474D01*
X235829817Y-137177739D01*
X235829816Y-137177737D01*
X235702262Y-137050183D01*
X235702260Y-137050182D01*
X235549525Y-136954212D01*
X235549522Y-136954211D01*
X235379255Y-136894632D01*
X235244954Y-136879500D01*
X235155046Y-136879500D01*
X235020745Y-136894632D01*
X235020742Y-136894632D01*
X235020742Y-136894633D01*
X234850477Y-136954211D01*
X234850474Y-136954212D01*
X234697739Y-137050182D01*
X234697737Y-137050183D01*
X234570183Y-137177737D01*
X234570182Y-137177739D01*
X234474212Y-137330474D01*
X234474211Y-137330477D01*
X234474211Y-137330478D01*
X234414632Y-137500745D01*
X234394435Y-137680000D01*
X233465565Y-137680000D01*
X233445368Y-137500745D01*
X233385789Y-137330478D01*
X233385787Y-137330475D01*
X233385787Y-137330474D01*
X233289817Y-137177739D01*
X233289816Y-137177737D01*
X233162262Y-137050183D01*
X233162260Y-137050182D01*
X233009525Y-136954212D01*
X233009522Y-136954211D01*
X232839255Y-136894632D01*
X232704954Y-136879500D01*
X232615046Y-136879500D01*
X232480745Y-136894632D01*
X232480742Y-136894632D01*
X232480742Y-136894633D01*
X232310477Y-136954211D01*
X232310474Y-136954212D01*
X232157739Y-137050182D01*
X232157737Y-137050183D01*
X232030183Y-137177737D01*
X232030182Y-137177739D01*
X231934212Y-137330474D01*
X231934211Y-137330477D01*
X231934211Y-137330478D01*
X231874632Y-137500745D01*
X231854435Y-137680000D01*
X230925565Y-137680000D01*
X230905368Y-137500745D01*
X230845789Y-137330478D01*
X230845787Y-137330475D01*
X230845787Y-137330474D01*
X230749817Y-137177739D01*
X230749816Y-137177737D01*
X230622262Y-137050183D01*
X230622260Y-137050182D01*
X230469525Y-136954212D01*
X230469522Y-136954211D01*
X230299258Y-136894633D01*
X230299257Y-136894632D01*
X230299255Y-136894632D01*
X230218750Y-136885561D01*
X230204246Y-136883927D01*
X230138794Y-136856423D01*
X230098601Y-136797898D01*
X230092356Y-136758149D01*
X230093978Y-136400000D01*
X239734318Y-136400000D01*
X239754955Y-136556760D01*
X239754956Y-136556762D01*
X239815464Y-136702841D01*
X239911718Y-136828282D01*
X240037159Y-136924536D01*
X240183238Y-136985044D01*
X240340000Y-137005682D01*
X240496762Y-136985044D01*
X240642841Y-136924536D01*
X240768282Y-136828282D01*
X240864536Y-136702841D01*
X240925044Y-136556762D01*
X240933354Y-136493635D01*
X240962076Y-136428709D01*
X241006024Y-136399719D01*
X240975823Y-136385909D01*
X240937469Y-136326165D01*
X240933462Y-136307179D01*
X240925044Y-136243238D01*
X240864536Y-136097159D01*
X240768282Y-135971718D01*
X240642841Y-135875464D01*
X240496762Y-135814956D01*
X240496760Y-135814955D01*
X240340000Y-135794318D01*
X240183239Y-135814955D01*
X240037160Y-135875463D01*
X240037157Y-135875465D01*
X239911718Y-135971718D01*
X239815465Y-136097157D01*
X239815463Y-136097160D01*
X239754955Y-136243239D01*
X239734318Y-136399999D01*
X239734318Y-136400000D01*
X230093978Y-136400000D01*
X230100000Y-135070000D01*
X230099998Y-135069999D01*
X230099999Y-135069999D01*
X225753780Y-133035243D01*
X228998880Y-133035243D01*
X229021753Y-133172310D01*
X229038462Y-133272447D01*
X229038464Y-133272454D01*
X229116547Y-133499901D01*
X229116549Y-133499906D01*
X229153538Y-133568255D01*
X229231009Y-133711409D01*
X229378723Y-133901191D01*
X229555642Y-134064056D01*
X229555649Y-134064062D01*
X229756976Y-134195596D01*
X229977207Y-134292198D01*
X229977208Y-134292198D01*
X229977210Y-134292199D01*
X230210327Y-134351232D01*
X230210335Y-134351234D01*
X230389984Y-134366120D01*
X230389990Y-134366120D01*
X230510010Y-134366120D01*
X230510016Y-134366120D01*
X230689665Y-134351234D01*
X230922793Y-134292198D01*
X231143024Y-134195596D01*
X231344351Y-134064062D01*
X231432816Y-133982623D01*
X231521276Y-133901191D01*
X231521277Y-133901189D01*
X231521282Y-133901185D01*
X231668992Y-133711407D01*
X231783451Y-133499906D01*
X231861537Y-133272450D01*
X231901120Y-133035243D01*
X231901120Y-132794757D01*
X231861537Y-132557550D01*
X231783451Y-132330094D01*
X231668992Y-132118593D01*
X231521282Y-131928815D01*
X231521280Y-131928813D01*
X231521276Y-131928808D01*
X231344357Y-131765943D01*
X231344355Y-131765941D01*
X231344351Y-131765938D01*
X231143024Y-131634404D01*
X231143021Y-131634402D01*
X231143020Y-131634402D01*
X230922796Y-131537803D01*
X230922789Y-131537800D01*
X230689672Y-131478767D01*
X230689667Y-131478766D01*
X230689665Y-131478766D01*
X230576818Y-131469415D01*
X230510019Y-131463880D01*
X230510016Y-131463880D01*
X230389984Y-131463880D01*
X230389980Y-131463880D01*
X230300914Y-131471260D01*
X230210335Y-131478766D01*
X230210333Y-131478766D01*
X230210327Y-131478767D01*
X229977210Y-131537800D01*
X229977203Y-131537803D01*
X229756979Y-131634402D01*
X229756976Y-131634404D01*
X229555649Y-131765938D01*
X229555647Y-131765939D01*
X229555642Y-131765943D01*
X229378723Y-131928808D01*
X229231009Y-132118590D01*
X229116547Y-132330098D01*
X229038464Y-132557545D01*
X229038462Y-132557552D01*
X229024230Y-132642841D01*
X228998880Y-132794757D01*
X228998880Y-133035243D01*
X225753780Y-133035243D01*
X225651970Y-132987579D01*
X225598756Y-132940581D01*
X225579400Y-132872274D01*
X225600045Y-132804346D01*
X225654138Y-132758362D01*
X225688945Y-132748544D01*
X225763012Y-132738794D01*
X225909091Y-132678286D01*
X225928025Y-132663756D01*
X225994244Y-132638153D01*
X226063794Y-132652415D01*
X226081436Y-132663753D01*
X226113402Y-132688281D01*
X226113409Y-132688286D01*
X226259488Y-132748794D01*
X226416250Y-132769432D01*
X226573012Y-132748794D01*
X226719091Y-132688286D01*
X226844532Y-132592032D01*
X226940786Y-132466591D01*
X227001294Y-132320512D01*
X227021932Y-132163750D01*
X227020615Y-132153750D01*
X227005370Y-132037946D01*
X227001294Y-132006988D01*
X226940786Y-131860909D01*
X226844532Y-131735468D01*
X226719091Y-131639214D01*
X226705058Y-131633401D01*
X226573010Y-131578705D01*
X226416250Y-131558068D01*
X226259489Y-131578705D01*
X226113410Y-131639213D01*
X226113403Y-131639218D01*
X226094468Y-131653747D01*
X226028247Y-131679346D01*
X225958698Y-131665080D01*
X225941063Y-131653746D01*
X225909097Y-131629218D01*
X225909089Y-131629213D01*
X225763010Y-131568705D01*
X225606250Y-131548068D01*
X225449489Y-131568705D01*
X225303410Y-131629213D01*
X225303403Y-131629217D01*
X225297952Y-131633401D01*
X225231732Y-131659000D01*
X225162183Y-131644734D01*
X225144548Y-131633401D01*
X225139096Y-131629217D01*
X225139089Y-131629213D01*
X224993010Y-131568705D01*
X224836250Y-131548068D01*
X224679489Y-131568705D01*
X224533410Y-131629213D01*
X224533407Y-131629215D01*
X224407968Y-131725468D01*
X224311715Y-131850907D01*
X224311713Y-131850910D01*
X224251205Y-131996989D01*
X224232153Y-132141707D01*
X224203430Y-132206634D01*
X224144165Y-132245725D01*
X224073173Y-132246570D01*
X224053807Y-132239373D01*
X223845193Y-132141707D01*
X220078015Y-130378039D01*
X219598936Y-130153750D01*
X224120568Y-130153750D01*
X224141205Y-130310510D01*
X224182328Y-130409788D01*
X224201714Y-130456591D01*
X224297968Y-130582032D01*
X224423409Y-130678286D01*
X224569488Y-130738794D01*
X224726250Y-130759432D01*
X224883012Y-130738794D01*
X225023034Y-130680794D01*
X225093621Y-130673206D01*
X225119461Y-130680793D01*
X225259488Y-130738794D01*
X225416250Y-130759432D01*
X225573012Y-130738794D01*
X225719091Y-130678286D01*
X225750831Y-130653930D01*
X225817049Y-130628329D01*
X225886598Y-130642592D01*
X225904240Y-130653930D01*
X225935981Y-130678286D01*
X225957159Y-130694536D01*
X226103238Y-130755044D01*
X226260000Y-130775682D01*
X226416762Y-130755044D01*
X226562841Y-130694536D01*
X226688282Y-130598282D01*
X226784536Y-130472841D01*
X226845044Y-130326762D01*
X226865682Y-130170000D01*
X226845044Y-130013238D01*
X226784536Y-129867159D01*
X226767533Y-129845000D01*
X232354052Y-129845000D01*
X232374259Y-130024340D01*
X232374260Y-130024342D01*
X232433866Y-130194688D01*
X232433867Y-130194690D01*
X232529883Y-130347500D01*
X232657499Y-130475116D01*
X232736847Y-130524973D01*
X232810312Y-130571134D01*
X232980660Y-130630741D01*
X233106489Y-130644918D01*
X233115020Y-130645880D01*
X233115021Y-130645880D01*
X233204980Y-130645880D01*
X233213001Y-130644976D01*
X233339340Y-130630741D01*
X233509688Y-130571134D01*
X233662500Y-130475116D01*
X233790116Y-130347500D01*
X233886134Y-130194688D01*
X233945741Y-130024340D01*
X233965948Y-129845000D01*
X233945741Y-129665660D01*
X233886134Y-129495312D01*
X233871280Y-129471672D01*
X233790116Y-129342499D01*
X233662500Y-129214883D01*
X233509690Y-129118867D01*
X233509688Y-129118866D01*
X233482798Y-129109457D01*
X233339340Y-129059259D01*
X233222041Y-129046042D01*
X233204980Y-129044120D01*
X233204979Y-129044120D01*
X233115021Y-129044120D01*
X233115020Y-129044120D01*
X233095476Y-129046322D01*
X232980660Y-129059259D01*
X232980657Y-129059259D01*
X232980657Y-129059260D01*
X232810311Y-129118866D01*
X232810309Y-129118867D01*
X232657499Y-129214883D01*
X232529883Y-129342499D01*
X232433867Y-129495309D01*
X232433866Y-129495311D01*
X232385235Y-129634292D01*
X232374259Y-129665660D01*
X232354052Y-129845000D01*
X226767533Y-129845000D01*
X226688282Y-129741718D01*
X226562841Y-129645464D01*
X226535870Y-129634292D01*
X226416760Y-129584955D01*
X226260000Y-129564318D01*
X226103239Y-129584955D01*
X225957160Y-129645463D01*
X225957153Y-129645467D01*
X225925415Y-129669821D01*
X225859195Y-129695420D01*
X225789646Y-129681154D01*
X225772009Y-129669819D01*
X225719097Y-129629218D01*
X225719089Y-129629213D01*
X225573010Y-129568705D01*
X225416250Y-129548068D01*
X225259487Y-129568706D01*
X225119467Y-129626703D01*
X225048877Y-129634292D01*
X225023033Y-129626703D01*
X224883012Y-129568706D01*
X224726250Y-129548068D01*
X224569489Y-129568705D01*
X224423410Y-129629213D01*
X224423407Y-129629215D01*
X224297968Y-129725468D01*
X224201715Y-129850907D01*
X224201713Y-129850910D01*
X224141205Y-129996989D01*
X224120568Y-130153749D01*
X224120568Y-130153750D01*
X219598936Y-130153750D01*
X213599473Y-127345000D01*
X232354052Y-127345000D01*
X232374259Y-127524340D01*
X232374260Y-127524342D01*
X232433866Y-127694688D01*
X232433867Y-127694690D01*
X232529883Y-127847500D01*
X232657499Y-127975116D01*
X232786672Y-128056280D01*
X232810312Y-128071134D01*
X232980660Y-128130741D01*
X233106489Y-128144918D01*
X233115020Y-128145880D01*
X233115021Y-128145880D01*
X233204980Y-128145880D01*
X233213001Y-128144976D01*
X233339340Y-128130741D01*
X233509688Y-128071134D01*
X233662500Y-127975116D01*
X233790116Y-127847500D01*
X233886134Y-127694688D01*
X233945741Y-127524340D01*
X233965948Y-127345000D01*
X233945741Y-127165660D01*
X233886134Y-126995312D01*
X233792129Y-126845703D01*
X233790116Y-126842499D01*
X233662500Y-126714883D01*
X233509690Y-126618867D01*
X233509688Y-126618866D01*
X233397497Y-126579609D01*
X233339340Y-126559259D01*
X233222041Y-126546042D01*
X233204980Y-126544120D01*
X233204979Y-126544120D01*
X233115021Y-126544120D01*
X233115020Y-126544120D01*
X233095476Y-126546322D01*
X232980660Y-126559259D01*
X232980657Y-126559259D01*
X232980657Y-126559260D01*
X232810311Y-126618866D01*
X232810309Y-126618867D01*
X232657499Y-126714883D01*
X232529883Y-126842499D01*
X232433867Y-126995309D01*
X232433866Y-126995311D01*
X232396677Y-127101593D01*
X232374259Y-127165660D01*
X232354052Y-127345000D01*
X213599473Y-127345000D01*
X211953699Y-126574503D01*
X211900485Y-126527505D01*
X211881129Y-126459198D01*
X211881133Y-126458809D01*
X211896678Y-125345000D01*
X232354052Y-125345000D01*
X232374259Y-125524340D01*
X232433866Y-125694688D01*
X232433867Y-125694690D01*
X232529883Y-125847500D01*
X232657499Y-125975116D01*
X232786672Y-126056280D01*
X232810312Y-126071134D01*
X232980660Y-126130741D01*
X233106489Y-126144918D01*
X233115020Y-126145880D01*
X233115021Y-126145880D01*
X233204980Y-126145880D01*
X233213001Y-126144976D01*
X233339340Y-126130741D01*
X233509688Y-126071134D01*
X233662500Y-125975116D01*
X233790116Y-125847500D01*
X233886134Y-125694688D01*
X233945741Y-125524340D01*
X233965948Y-125345000D01*
X233945741Y-125165660D01*
X233886134Y-124995312D01*
X233840453Y-124922611D01*
X233790116Y-124842499D01*
X233662500Y-124714883D01*
X233509690Y-124618867D01*
X233509688Y-124618866D01*
X233339340Y-124559259D01*
X233222041Y-124546042D01*
X233204980Y-124544120D01*
X233204979Y-124544120D01*
X233115021Y-124544120D01*
X233115020Y-124544120D01*
X233095476Y-124546322D01*
X232980660Y-124559259D01*
X232980657Y-124559259D01*
X232980657Y-124559260D01*
X232810311Y-124618866D01*
X232810309Y-124618867D01*
X232657499Y-124714883D01*
X232529883Y-124842499D01*
X232433867Y-124995309D01*
X232433866Y-124995311D01*
X232433866Y-124995312D01*
X232374259Y-125165660D01*
X232354052Y-125345000D01*
X211896678Y-125345000D01*
X211931568Y-122845000D01*
X232354052Y-122845000D01*
X232374259Y-123024340D01*
X232374260Y-123024342D01*
X232433866Y-123194688D01*
X232433867Y-123194690D01*
X232529883Y-123347500D01*
X232657499Y-123475116D01*
X232786672Y-123556280D01*
X232810312Y-123571134D01*
X232980660Y-123630741D01*
X233106489Y-123644918D01*
X233115020Y-123645880D01*
X233115021Y-123645880D01*
X233204980Y-123645880D01*
X233213001Y-123644976D01*
X233339340Y-123630741D01*
X233509688Y-123571134D01*
X233662500Y-123475116D01*
X233790116Y-123347500D01*
X233886134Y-123194688D01*
X233945741Y-123024340D01*
X233965948Y-122845000D01*
X233945741Y-122665660D01*
X233886134Y-122495312D01*
X233871280Y-122471672D01*
X233790116Y-122342499D01*
X233662500Y-122214883D01*
X233509690Y-122118867D01*
X233509688Y-122118866D01*
X233437907Y-122093749D01*
X233339340Y-122059259D01*
X233222041Y-122046042D01*
X233204980Y-122044120D01*
X233204979Y-122044120D01*
X233115021Y-122044120D01*
X233115020Y-122044120D01*
X233095476Y-122046322D01*
X232980660Y-122059259D01*
X232980657Y-122059259D01*
X232980657Y-122059260D01*
X232810311Y-122118866D01*
X232810309Y-122118867D01*
X232657499Y-122214883D01*
X232529883Y-122342499D01*
X232433867Y-122495309D01*
X232433866Y-122495311D01*
X232424516Y-122522032D01*
X232374259Y-122665660D01*
X232354052Y-122845000D01*
X211931568Y-122845000D01*
X211942053Y-122093750D01*
X226420568Y-122093750D01*
X226441205Y-122250510D01*
X226441206Y-122250512D01*
X226501714Y-122396591D01*
X226597968Y-122522032D01*
X226723409Y-122618286D01*
X226869488Y-122678794D01*
X227026250Y-122699432D01*
X227183012Y-122678794D01*
X227329091Y-122618286D01*
X227454532Y-122522032D01*
X227550786Y-122396591D01*
X227611294Y-122250512D01*
X227631932Y-122093750D01*
X227611294Y-121936988D01*
X227550786Y-121790909D01*
X227454532Y-121665468D01*
X227329091Y-121569214D01*
X227183012Y-121508706D01*
X227183010Y-121508705D01*
X227026250Y-121488068D01*
X226869489Y-121508705D01*
X226723410Y-121569213D01*
X226723407Y-121569215D01*
X226597968Y-121665468D01*
X226501715Y-121790907D01*
X226501713Y-121790910D01*
X226441205Y-121936989D01*
X226420568Y-122093749D01*
X226420568Y-122093750D01*
X211942053Y-122093750D01*
X211972736Y-119895243D01*
X228998880Y-119895243D01*
X229038463Y-120132450D01*
X229116549Y-120359906D01*
X229219050Y-120549311D01*
X229231009Y-120571409D01*
X229378723Y-120761191D01*
X229555642Y-120924056D01*
X229555649Y-120924062D01*
X229756976Y-121055596D01*
X229977207Y-121152198D01*
X229977208Y-121152198D01*
X229977210Y-121152199D01*
X230210327Y-121211232D01*
X230210335Y-121211234D01*
X230389984Y-121226120D01*
X230389990Y-121226120D01*
X230510010Y-121226120D01*
X230510016Y-121226120D01*
X230689665Y-121211234D01*
X230922793Y-121152198D01*
X231143024Y-121055596D01*
X231344351Y-120924062D01*
X231432816Y-120842623D01*
X231521276Y-120761191D01*
X231521277Y-120761189D01*
X231521282Y-120761185D01*
X231668992Y-120571407D01*
X231783451Y-120359906D01*
X231861537Y-120132450D01*
X231901120Y-119895243D01*
X231901120Y-119654757D01*
X231861537Y-119417550D01*
X231783451Y-119190094D01*
X231668992Y-118978593D01*
X231521282Y-118788815D01*
X231521280Y-118788813D01*
X231521276Y-118788808D01*
X231344357Y-118625943D01*
X231344355Y-118625941D01*
X231344351Y-118625938D01*
X231143024Y-118494404D01*
X231143021Y-118494402D01*
X231143020Y-118494402D01*
X230922796Y-118397803D01*
X230922789Y-118397800D01*
X230689672Y-118338767D01*
X230689667Y-118338766D01*
X230689665Y-118338766D01*
X230576818Y-118329415D01*
X230510019Y-118323880D01*
X230510016Y-118323880D01*
X230389984Y-118323880D01*
X230389980Y-118323880D01*
X230300914Y-118331260D01*
X230210335Y-118338766D01*
X230210333Y-118338766D01*
X230210327Y-118338767D01*
X229977210Y-118397800D01*
X229977203Y-118397803D01*
X229756979Y-118494402D01*
X229756976Y-118494404D01*
X229555649Y-118625938D01*
X229555647Y-118625939D01*
X229555642Y-118625943D01*
X229378723Y-118788808D01*
X229231009Y-118978590D01*
X229116547Y-119190098D01*
X229038464Y-119417545D01*
X229038462Y-119417552D01*
X229032379Y-119454008D01*
X228998880Y-119654757D01*
X228998880Y-119895243D01*
X211972736Y-119895243D01*
X211998269Y-118065771D01*
X215978265Y-118065771D01*
X215988467Y-118201918D01*
X215988467Y-118201920D01*
X216016585Y-118273561D01*
X216038347Y-118329008D01*
X216038348Y-118329009D01*
X216123467Y-118435747D01*
X216123470Y-118435749D01*
X216236274Y-118512658D01*
X216361728Y-118551355D01*
X216420926Y-118590547D01*
X216449539Y-118655523D01*
X216438480Y-118725653D01*
X216391262Y-118778671D01*
X216379259Y-118785279D01*
X216251989Y-118846569D01*
X216151908Y-118939432D01*
X216083644Y-119057668D01*
X216053265Y-119190769D01*
X216053265Y-119190771D01*
X216053265Y-119190772D01*
X216061733Y-119303783D01*
X216063467Y-119326918D01*
X216063467Y-119326920D01*
X216091585Y-119398561D01*
X216113347Y-119454008D01*
X216113348Y-119454009D01*
X216198467Y-119560747D01*
X216198470Y-119560749D01*
X216311274Y-119637658D01*
X216441736Y-119677900D01*
X216441737Y-119677900D01*
X216543939Y-119677900D01*
X216543943Y-119677900D01*
X216645003Y-119662668D01*
X216768010Y-119603431D01*
X216868091Y-119510568D01*
X216936355Y-119392332D01*
X216936356Y-119392327D01*
X216939806Y-119383540D01*
X216942855Y-119384736D01*
X216969456Y-119337175D01*
X217032110Y-119303783D01*
X217102871Y-119309566D01*
X217159273Y-119352687D01*
X217174934Y-119381135D01*
X217213347Y-119479008D01*
X217213348Y-119479009D01*
X217298467Y-119585747D01*
X217298470Y-119585749D01*
X217411274Y-119662658D01*
X217541736Y-119702900D01*
X217541737Y-119702900D01*
X217643939Y-119702900D01*
X217643943Y-119702900D01*
X217745003Y-119687668D01*
X217868010Y-119628431D01*
X217968091Y-119535568D01*
X218036355Y-119417332D01*
X218051211Y-119352241D01*
X218085869Y-119290279D01*
X218148525Y-119256891D01*
X218219285Y-119262677D01*
X218275684Y-119305801D01*
X218291342Y-119334244D01*
X218338347Y-119454009D01*
X218423467Y-119560747D01*
X218423470Y-119560749D01*
X218536274Y-119637658D01*
X218666736Y-119677900D01*
X218666737Y-119677900D01*
X218768939Y-119677900D01*
X218768943Y-119677900D01*
X218870003Y-119662668D01*
X218993010Y-119603431D01*
X219093091Y-119510568D01*
X219161355Y-119392332D01*
X219191735Y-119259228D01*
X219181533Y-119123082D01*
X219131653Y-118995992D01*
X219066468Y-118914252D01*
X219046532Y-118889252D01*
X218970394Y-118837342D01*
X218933726Y-118812342D01*
X218933725Y-118812341D01*
X218933724Y-118812341D01*
X218821962Y-118777867D01*
X218762763Y-118738675D01*
X218734151Y-118673699D01*
X218745210Y-118603569D01*
X218792428Y-118550550D01*
X218811527Y-118541829D01*
X218811496Y-118541765D01*
X218871937Y-118512658D01*
X218943010Y-118478431D01*
X219043091Y-118385568D01*
X219111355Y-118267332D01*
X219141735Y-118134228D01*
X219131533Y-117998082D01*
X219081653Y-117870992D01*
X219060203Y-117844095D01*
X218996532Y-117764252D01*
X218883725Y-117687341D01*
X218849985Y-117676934D01*
X218790787Y-117637741D01*
X218762175Y-117572765D01*
X218773234Y-117502635D01*
X218820453Y-117449617D01*
X218836704Y-117442197D01*
X218836496Y-117441765D01*
X218896939Y-117412657D01*
X218968010Y-117378431D01*
X219068091Y-117285568D01*
X219136355Y-117167332D01*
X219166735Y-117034228D01*
X219156533Y-116898082D01*
X219106653Y-116770992D01*
X219066187Y-116720249D01*
X219021532Y-116664252D01*
X218949357Y-116615044D01*
X218908726Y-116587342D01*
X218908725Y-116587341D01*
X218908724Y-116587341D01*
X218827645Y-116562332D01*
X218778264Y-116547100D01*
X218676057Y-116547100D01*
X218574997Y-116562332D01*
X218574995Y-116562332D01*
X218574994Y-116562333D01*
X218451990Y-116621568D01*
X218351908Y-116714432D01*
X218283644Y-116832669D01*
X218283642Y-116832673D01*
X218281586Y-116841682D01*
X218246924Y-116903642D01*
X218184267Y-116937027D01*
X218113507Y-116931236D01*
X218057110Y-116888109D01*
X218041458Y-116859674D01*
X218006653Y-116770992D01*
X217978916Y-116736211D01*
X217921532Y-116664252D01*
X217849357Y-116615044D01*
X217808726Y-116587342D01*
X217808725Y-116587341D01*
X217808724Y-116587341D01*
X217727645Y-116562332D01*
X217678264Y-116547100D01*
X217576057Y-116547100D01*
X217474997Y-116562332D01*
X217474995Y-116562332D01*
X217474994Y-116562333D01*
X217351990Y-116621568D01*
X217251908Y-116714432D01*
X217183645Y-116832667D01*
X217172396Y-116881952D01*
X217137736Y-116943913D01*
X217075080Y-116977300D01*
X217004320Y-116971513D01*
X216947921Y-116928388D01*
X216932265Y-116899947D01*
X216921626Y-116872841D01*
X216881653Y-116770992D01*
X216841187Y-116720249D01*
X216796532Y-116664252D01*
X216724357Y-116615044D01*
X216683726Y-116587342D01*
X216683725Y-116587341D01*
X216683724Y-116587341D01*
X216602645Y-116562332D01*
X216553264Y-116547100D01*
X216451057Y-116547100D01*
X216349997Y-116562332D01*
X216349995Y-116562332D01*
X216349994Y-116562333D01*
X216226990Y-116621568D01*
X216126908Y-116714432D01*
X216058644Y-116832668D01*
X216028265Y-116965769D01*
X216028265Y-116965771D01*
X216028265Y-116965772D01*
X216032165Y-117017813D01*
X216038467Y-117101918D01*
X216038467Y-117101920D01*
X216066585Y-117173561D01*
X216088347Y-117229008D01*
X216088348Y-117229009D01*
X216173467Y-117335747D01*
X216173470Y-117335749D01*
X216286274Y-117412658D01*
X216307513Y-117419209D01*
X216366710Y-117458399D01*
X216395324Y-117523375D01*
X216384266Y-117593505D01*
X216337049Y-117646524D01*
X216307516Y-117660012D01*
X216299998Y-117662331D01*
X216176990Y-117721568D01*
X216076908Y-117814432D01*
X216008644Y-117932668D01*
X215978265Y-118065769D01*
X215978265Y-118065771D01*
X211998269Y-118065771D01*
X211999049Y-118009858D01*
X212019999Y-117942028D01*
X212074298Y-117896288D01*
X212144706Y-117887166D01*
X212201739Y-117911658D01*
X212223409Y-117928286D01*
X212369488Y-117988794D01*
X212526250Y-118009432D01*
X212683012Y-117988794D01*
X212829091Y-117928286D01*
X212954532Y-117832032D01*
X213050786Y-117706591D01*
X213111294Y-117560512D01*
X213131932Y-117403750D01*
X213111294Y-117246988D01*
X213050786Y-117100909D01*
X212954532Y-116975468D01*
X212829091Y-116879214D01*
X212823172Y-116876762D01*
X212683010Y-116818705D01*
X212526250Y-116798068D01*
X212369489Y-116818705D01*
X212223410Y-116879213D01*
X212223397Y-116879221D01*
X212218883Y-116882685D01*
X212152661Y-116908281D01*
X212083114Y-116894011D01*
X212032321Y-116844406D01*
X212016200Y-116780963D01*
X212023704Y-116243247D01*
X212044655Y-116175415D01*
X212098954Y-116129675D01*
X212169362Y-116120553D01*
X212233525Y-116150944D01*
X212249651Y-116168300D01*
X212335284Y-116279899D01*
X212460725Y-116376153D01*
X212606804Y-116436661D01*
X212763566Y-116457299D01*
X212920328Y-116436661D01*
X213066407Y-116376153D01*
X213191848Y-116279899D01*
X213288102Y-116154458D01*
X213339654Y-116030000D01*
X221404318Y-116030000D01*
X221424955Y-116186760D01*
X221463535Y-116279899D01*
X221485464Y-116332841D01*
X221581718Y-116458282D01*
X221707159Y-116554536D01*
X221853238Y-116615044D01*
X221906984Y-116622119D01*
X221971910Y-116650840D01*
X222011003Y-116710105D01*
X222013210Y-116720249D01*
X222014954Y-116726757D01*
X222014955Y-116726761D01*
X222014956Y-116726762D01*
X222018870Y-116736211D01*
X222053040Y-116818706D01*
X222075464Y-116872841D01*
X222171718Y-116998282D01*
X222297159Y-117094536D01*
X222443238Y-117155044D01*
X222600000Y-117175682D01*
X222756762Y-117155044D01*
X222902841Y-117094536D01*
X223028282Y-116998282D01*
X223124536Y-116872841D01*
X223185044Y-116726762D01*
X223205682Y-116570000D01*
X223204672Y-116562332D01*
X223195363Y-116491619D01*
X223185044Y-116413238D01*
X223124536Y-116267159D01*
X223028282Y-116141718D01*
X222902841Y-116045464D01*
X222756762Y-115984956D01*
X222742317Y-115983054D01*
X222703013Y-115977879D01*
X222638086Y-115949155D01*
X222598995Y-115889889D01*
X222596793Y-115879768D01*
X222595044Y-115873245D01*
X222595044Y-115873238D01*
X222534536Y-115727159D01*
X222438282Y-115601718D01*
X222312841Y-115505464D01*
X222224728Y-115468966D01*
X222166760Y-115444955D01*
X222010000Y-115424318D01*
X221853239Y-115444955D01*
X221707160Y-115505463D01*
X221707157Y-115505465D01*
X221581718Y-115601718D01*
X221485465Y-115727157D01*
X221485463Y-115727160D01*
X221424955Y-115873239D01*
X221404318Y-116029999D01*
X221404318Y-116030000D01*
X213339654Y-116030000D01*
X213348610Y-116008379D01*
X213369248Y-115851617D01*
X213348610Y-115694855D01*
X213288102Y-115548776D01*
X213191848Y-115423335D01*
X213066407Y-115327081D01*
X212920328Y-115266573D01*
X212920326Y-115266572D01*
X212763566Y-115245935D01*
X212606805Y-115266572D01*
X212460726Y-115327080D01*
X212460723Y-115327082D01*
X212335281Y-115423337D01*
X212260838Y-115520354D01*
X212203500Y-115562221D01*
X212132629Y-115566443D01*
X212070727Y-115531679D01*
X212037445Y-115468966D01*
X212034888Y-115441897D01*
X212055099Y-113993750D01*
X213380568Y-113993750D01*
X213401205Y-114150510D01*
X213401206Y-114150512D01*
X213461714Y-114296591D01*
X213557968Y-114422032D01*
X213683409Y-114518286D01*
X213829488Y-114578794D01*
X213986250Y-114599432D01*
X214143012Y-114578794D01*
X214289091Y-114518286D01*
X214414532Y-114422032D01*
X214510786Y-114296591D01*
X214571294Y-114150512D01*
X214591932Y-113993750D01*
X214571294Y-113836988D01*
X214510786Y-113690909D01*
X214414532Y-113565468D01*
X214289091Y-113469214D01*
X214273706Y-113462841D01*
X214143010Y-113408705D01*
X213986250Y-113388068D01*
X213829489Y-113408705D01*
X213683410Y-113469213D01*
X213683407Y-113469215D01*
X213557968Y-113565468D01*
X213461715Y-113690907D01*
X213461713Y-113690910D01*
X213401205Y-113836989D01*
X213380568Y-113993749D01*
X213380568Y-113993750D01*
X212055099Y-113993750D01*
X212108240Y-110186080D01*
X212129191Y-110118247D01*
X212183490Y-110072507D01*
X212236080Y-110061854D01*
X216070028Y-110118235D01*
G37*
%TD.AperFunction*%
%TD*%
M02*
