%TF.GenerationSoftware,KiCad,Pcbnew,7.0.10*%
%TF.CreationDate,2025-01-07T15:58:46-07:00*%
%TF.ProjectId,HATA_ver_8.3.1,48415441-5f76-4657-925f-382e332e312e,8.3.1*%
%TF.SameCoordinates,Original*%
%TF.FileFunction,Drillmap*%
%TF.FilePolarity,Positive*%
%FSLAX45Y45*%
G04 Gerber Fmt 4.5, Leading zero omitted, Abs format (unit mm)*
G04 Created by KiCad (PCBNEW 7.0.10) date 2025-01-07 15:58:46*
%MOMM*%
%LPD*%
G01*
G04 APERTURE LIST*
%ADD10C,0.100000*%
%ADD11C,0.200000*%
G04 APERTURE END LIST*
D10*
X20000000Y-17920000D02*
X20000000Y-17734000D01*
X20412987Y-10486997D02*
G75*
G03*
X20412000Y-10187000I-1017J149997D01*
G01*
X21822000Y-14241000D02*
X21822000Y-16791000D01*
X24075000Y-17583000D02*
G75*
G03*
X23775000Y-17583000I-150000J0D01*
G01*
X23775000Y-17583000D02*
G75*
G03*
X24075000Y-17583000I150000J0D01*
G01*
X20000000Y-14241000D02*
X21822000Y-14241000D01*
X20412000Y-17733003D02*
G75*
G03*
X20411000Y-17433000I20J150003D01*
G01*
X20412000Y-17433000D02*
X20000000Y-17433000D01*
X20413000Y-10187000D02*
X20000000Y-10187000D01*
X20412987Y-10486997D02*
X20000000Y-10487000D01*
X24158000Y-10000000D02*
X24158000Y-17920000D01*
X24158000Y-10000000D02*
X20000000Y-10000000D01*
X20412000Y-17733003D02*
X20000000Y-17734000D01*
X20000000Y-17920000D02*
X24158000Y-17920000D01*
X21822000Y-16791000D02*
X20000000Y-16791000D01*
X20000000Y-10487000D02*
X20000000Y-14241000D01*
X20000000Y-16791000D02*
X20000000Y-17433000D01*
X20000000Y-10000000D02*
X20000000Y-10187000D01*
D11*
D10*
X20404750Y-10822500D02*
X20469750Y-10887500D01*
X20469750Y-10822500D02*
X20404750Y-10887500D01*
X20404750Y-11400500D02*
X20469750Y-11465500D01*
X20469750Y-11400500D02*
X20404750Y-11465500D01*
D11*
X20255777Y-18236484D02*
X20255777Y-18036484D01*
X20255777Y-18036484D02*
X20303396Y-18036484D01*
X20303396Y-18036484D02*
X20331967Y-18046008D01*
X20331967Y-18046008D02*
X20351015Y-18065055D01*
X20351015Y-18065055D02*
X20360539Y-18084103D01*
X20360539Y-18084103D02*
X20370063Y-18122198D01*
X20370063Y-18122198D02*
X20370063Y-18150770D01*
X20370063Y-18150770D02*
X20360539Y-18188865D01*
X20360539Y-18188865D02*
X20351015Y-18207912D01*
X20351015Y-18207912D02*
X20331967Y-18226960D01*
X20331967Y-18226960D02*
X20303396Y-18236484D01*
X20303396Y-18236484D02*
X20255777Y-18236484D01*
X20455777Y-18236484D02*
X20455777Y-18103150D01*
X20455777Y-18141246D02*
X20465301Y-18122198D01*
X20465301Y-18122198D02*
X20474824Y-18112674D01*
X20474824Y-18112674D02*
X20493872Y-18103150D01*
X20493872Y-18103150D02*
X20512920Y-18103150D01*
X20579586Y-18236484D02*
X20579586Y-18103150D01*
X20579586Y-18036484D02*
X20570063Y-18046008D01*
X20570063Y-18046008D02*
X20579586Y-18055531D01*
X20579586Y-18055531D02*
X20589110Y-18046008D01*
X20589110Y-18046008D02*
X20579586Y-18036484D01*
X20579586Y-18036484D02*
X20579586Y-18055531D01*
X20703396Y-18236484D02*
X20684348Y-18226960D01*
X20684348Y-18226960D02*
X20674824Y-18207912D01*
X20674824Y-18207912D02*
X20674824Y-18036484D01*
X20808158Y-18236484D02*
X20789110Y-18226960D01*
X20789110Y-18226960D02*
X20779586Y-18207912D01*
X20779586Y-18207912D02*
X20779586Y-18036484D01*
X21036729Y-18236484D02*
X21036729Y-18036484D01*
X21036729Y-18036484D02*
X21103396Y-18179341D01*
X21103396Y-18179341D02*
X21170063Y-18036484D01*
X21170063Y-18036484D02*
X21170063Y-18236484D01*
X21351015Y-18236484D02*
X21351015Y-18131722D01*
X21351015Y-18131722D02*
X21341491Y-18112674D01*
X21341491Y-18112674D02*
X21322444Y-18103150D01*
X21322444Y-18103150D02*
X21284348Y-18103150D01*
X21284348Y-18103150D02*
X21265301Y-18112674D01*
X21351015Y-18226960D02*
X21331967Y-18236484D01*
X21331967Y-18236484D02*
X21284348Y-18236484D01*
X21284348Y-18236484D02*
X21265301Y-18226960D01*
X21265301Y-18226960D02*
X21255777Y-18207912D01*
X21255777Y-18207912D02*
X21255777Y-18188865D01*
X21255777Y-18188865D02*
X21265301Y-18169817D01*
X21265301Y-18169817D02*
X21284348Y-18160293D01*
X21284348Y-18160293D02*
X21331967Y-18160293D01*
X21331967Y-18160293D02*
X21351015Y-18150770D01*
X21446253Y-18103150D02*
X21446253Y-18303150D01*
X21446253Y-18112674D02*
X21465301Y-18103150D01*
X21465301Y-18103150D02*
X21503396Y-18103150D01*
X21503396Y-18103150D02*
X21522444Y-18112674D01*
X21522444Y-18112674D02*
X21531967Y-18122198D01*
X21531967Y-18122198D02*
X21541491Y-18141246D01*
X21541491Y-18141246D02*
X21541491Y-18198389D01*
X21541491Y-18198389D02*
X21531967Y-18217436D01*
X21531967Y-18217436D02*
X21522444Y-18226960D01*
X21522444Y-18226960D02*
X21503396Y-18236484D01*
X21503396Y-18236484D02*
X21465301Y-18236484D01*
X21465301Y-18236484D02*
X21446253Y-18226960D01*
X21627205Y-18217436D02*
X21636729Y-18226960D01*
X21636729Y-18226960D02*
X21627205Y-18236484D01*
X21627205Y-18236484D02*
X21617682Y-18226960D01*
X21617682Y-18226960D02*
X21627205Y-18217436D01*
X21627205Y-18217436D02*
X21627205Y-18236484D01*
X21627205Y-18112674D02*
X21636729Y-18122198D01*
X21636729Y-18122198D02*
X21627205Y-18131722D01*
X21627205Y-18131722D02*
X21617682Y-18122198D01*
X21617682Y-18122198D02*
X21627205Y-18112674D01*
X21627205Y-18112674D02*
X21627205Y-18131722D01*
D10*
X19930000Y-18532500D02*
X19995000Y-18597500D01*
X19995000Y-18532500D02*
X19930000Y-18597500D01*
D11*
X20293872Y-18456484D02*
X20312920Y-18456484D01*
X20312920Y-18456484D02*
X20331967Y-18466008D01*
X20331967Y-18466008D02*
X20341491Y-18475531D01*
X20341491Y-18475531D02*
X20351015Y-18494579D01*
X20351015Y-18494579D02*
X20360539Y-18532674D01*
X20360539Y-18532674D02*
X20360539Y-18580293D01*
X20360539Y-18580293D02*
X20351015Y-18618389D01*
X20351015Y-18618389D02*
X20341491Y-18637436D01*
X20341491Y-18637436D02*
X20331967Y-18646960D01*
X20331967Y-18646960D02*
X20312920Y-18656484D01*
X20312920Y-18656484D02*
X20293872Y-18656484D01*
X20293872Y-18656484D02*
X20274824Y-18646960D01*
X20274824Y-18646960D02*
X20265301Y-18637436D01*
X20265301Y-18637436D02*
X20255777Y-18618389D01*
X20255777Y-18618389D02*
X20246253Y-18580293D01*
X20246253Y-18580293D02*
X20246253Y-18532674D01*
X20246253Y-18532674D02*
X20255777Y-18494579D01*
X20255777Y-18494579D02*
X20265301Y-18475531D01*
X20265301Y-18475531D02*
X20274824Y-18466008D01*
X20274824Y-18466008D02*
X20293872Y-18456484D01*
X20446253Y-18637436D02*
X20455777Y-18646960D01*
X20455777Y-18646960D02*
X20446253Y-18656484D01*
X20446253Y-18656484D02*
X20436729Y-18646960D01*
X20436729Y-18646960D02*
X20446253Y-18637436D01*
X20446253Y-18637436D02*
X20446253Y-18656484D01*
X20627205Y-18456484D02*
X20589110Y-18456484D01*
X20589110Y-18456484D02*
X20570063Y-18466008D01*
X20570063Y-18466008D02*
X20560539Y-18475531D01*
X20560539Y-18475531D02*
X20541491Y-18504103D01*
X20541491Y-18504103D02*
X20531967Y-18542198D01*
X20531967Y-18542198D02*
X20531967Y-18618389D01*
X20531967Y-18618389D02*
X20541491Y-18637436D01*
X20541491Y-18637436D02*
X20551015Y-18646960D01*
X20551015Y-18646960D02*
X20570063Y-18656484D01*
X20570063Y-18656484D02*
X20608158Y-18656484D01*
X20608158Y-18656484D02*
X20627205Y-18646960D01*
X20627205Y-18646960D02*
X20636729Y-18637436D01*
X20636729Y-18637436D02*
X20646253Y-18618389D01*
X20646253Y-18618389D02*
X20646253Y-18570770D01*
X20646253Y-18570770D02*
X20636729Y-18551722D01*
X20636729Y-18551722D02*
X20627205Y-18542198D01*
X20627205Y-18542198D02*
X20608158Y-18532674D01*
X20608158Y-18532674D02*
X20570063Y-18532674D01*
X20570063Y-18532674D02*
X20551015Y-18542198D01*
X20551015Y-18542198D02*
X20541491Y-18551722D01*
X20541491Y-18551722D02*
X20531967Y-18570770D01*
X20827205Y-18456484D02*
X20731967Y-18456484D01*
X20731967Y-18456484D02*
X20722444Y-18551722D01*
X20722444Y-18551722D02*
X20731967Y-18542198D01*
X20731967Y-18542198D02*
X20751015Y-18532674D01*
X20751015Y-18532674D02*
X20798634Y-18532674D01*
X20798634Y-18532674D02*
X20817682Y-18542198D01*
X20817682Y-18542198D02*
X20827205Y-18551722D01*
X20827205Y-18551722D02*
X20836729Y-18570770D01*
X20836729Y-18570770D02*
X20836729Y-18618389D01*
X20836729Y-18618389D02*
X20827205Y-18637436D01*
X20827205Y-18637436D02*
X20817682Y-18646960D01*
X20817682Y-18646960D02*
X20798634Y-18656484D01*
X20798634Y-18656484D02*
X20751015Y-18656484D01*
X20751015Y-18656484D02*
X20731967Y-18646960D01*
X20731967Y-18646960D02*
X20722444Y-18637436D01*
X20960539Y-18456484D02*
X20979586Y-18456484D01*
X20979586Y-18456484D02*
X20998634Y-18466008D01*
X20998634Y-18466008D02*
X21008158Y-18475531D01*
X21008158Y-18475531D02*
X21017682Y-18494579D01*
X21017682Y-18494579D02*
X21027205Y-18532674D01*
X21027205Y-18532674D02*
X21027205Y-18580293D01*
X21027205Y-18580293D02*
X21017682Y-18618389D01*
X21017682Y-18618389D02*
X21008158Y-18637436D01*
X21008158Y-18637436D02*
X20998634Y-18646960D01*
X20998634Y-18646960D02*
X20979586Y-18656484D01*
X20979586Y-18656484D02*
X20960539Y-18656484D01*
X20960539Y-18656484D02*
X20941491Y-18646960D01*
X20941491Y-18646960D02*
X20931967Y-18637436D01*
X20931967Y-18637436D02*
X20922444Y-18618389D01*
X20922444Y-18618389D02*
X20912920Y-18580293D01*
X20912920Y-18580293D02*
X20912920Y-18532674D01*
X20912920Y-18532674D02*
X20922444Y-18494579D01*
X20922444Y-18494579D02*
X20931967Y-18475531D01*
X20931967Y-18475531D02*
X20941491Y-18466008D01*
X20941491Y-18466008D02*
X20960539Y-18456484D01*
X21112920Y-18656484D02*
X21112920Y-18523150D01*
X21112920Y-18542198D02*
X21122444Y-18532674D01*
X21122444Y-18532674D02*
X21141491Y-18523150D01*
X21141491Y-18523150D02*
X21170063Y-18523150D01*
X21170063Y-18523150D02*
X21189110Y-18532674D01*
X21189110Y-18532674D02*
X21198634Y-18551722D01*
X21198634Y-18551722D02*
X21198634Y-18656484D01*
X21198634Y-18551722D02*
X21208158Y-18532674D01*
X21208158Y-18532674D02*
X21227205Y-18523150D01*
X21227205Y-18523150D02*
X21255777Y-18523150D01*
X21255777Y-18523150D02*
X21274825Y-18532674D01*
X21274825Y-18532674D02*
X21284348Y-18551722D01*
X21284348Y-18551722D02*
X21284348Y-18656484D01*
X21379586Y-18656484D02*
X21379586Y-18523150D01*
X21379586Y-18542198D02*
X21389110Y-18532674D01*
X21389110Y-18532674D02*
X21408158Y-18523150D01*
X21408158Y-18523150D02*
X21436729Y-18523150D01*
X21436729Y-18523150D02*
X21455777Y-18532674D01*
X21455777Y-18532674D02*
X21465301Y-18551722D01*
X21465301Y-18551722D02*
X21465301Y-18656484D01*
X21465301Y-18551722D02*
X21474825Y-18532674D01*
X21474825Y-18532674D02*
X21493872Y-18523150D01*
X21493872Y-18523150D02*
X21522444Y-18523150D01*
X21522444Y-18523150D02*
X21541491Y-18532674D01*
X21541491Y-18532674D02*
X21551015Y-18551722D01*
X21551015Y-18551722D02*
X21551015Y-18656484D01*
X21941491Y-18446960D02*
X21770063Y-18704103D01*
X22198634Y-18456484D02*
X22217682Y-18456484D01*
X22217682Y-18456484D02*
X22236729Y-18466008D01*
X22236729Y-18466008D02*
X22246253Y-18475531D01*
X22246253Y-18475531D02*
X22255777Y-18494579D01*
X22255777Y-18494579D02*
X22265301Y-18532674D01*
X22265301Y-18532674D02*
X22265301Y-18580293D01*
X22265301Y-18580293D02*
X22255777Y-18618389D01*
X22255777Y-18618389D02*
X22246253Y-18637436D01*
X22246253Y-18637436D02*
X22236729Y-18646960D01*
X22236729Y-18646960D02*
X22217682Y-18656484D01*
X22217682Y-18656484D02*
X22198634Y-18656484D01*
X22198634Y-18656484D02*
X22179587Y-18646960D01*
X22179587Y-18646960D02*
X22170063Y-18637436D01*
X22170063Y-18637436D02*
X22160539Y-18618389D01*
X22160539Y-18618389D02*
X22151015Y-18580293D01*
X22151015Y-18580293D02*
X22151015Y-18532674D01*
X22151015Y-18532674D02*
X22160539Y-18494579D01*
X22160539Y-18494579D02*
X22170063Y-18475531D01*
X22170063Y-18475531D02*
X22179587Y-18466008D01*
X22179587Y-18466008D02*
X22198634Y-18456484D01*
X22351015Y-18637436D02*
X22360539Y-18646960D01*
X22360539Y-18646960D02*
X22351015Y-18656484D01*
X22351015Y-18656484D02*
X22341491Y-18646960D01*
X22341491Y-18646960D02*
X22351015Y-18637436D01*
X22351015Y-18637436D02*
X22351015Y-18656484D01*
X22484348Y-18456484D02*
X22503396Y-18456484D01*
X22503396Y-18456484D02*
X22522444Y-18466008D01*
X22522444Y-18466008D02*
X22531967Y-18475531D01*
X22531967Y-18475531D02*
X22541491Y-18494579D01*
X22541491Y-18494579D02*
X22551015Y-18532674D01*
X22551015Y-18532674D02*
X22551015Y-18580293D01*
X22551015Y-18580293D02*
X22541491Y-18618389D01*
X22541491Y-18618389D02*
X22531967Y-18637436D01*
X22531967Y-18637436D02*
X22522444Y-18646960D01*
X22522444Y-18646960D02*
X22503396Y-18656484D01*
X22503396Y-18656484D02*
X22484348Y-18656484D01*
X22484348Y-18656484D02*
X22465301Y-18646960D01*
X22465301Y-18646960D02*
X22455777Y-18637436D01*
X22455777Y-18637436D02*
X22446253Y-18618389D01*
X22446253Y-18618389D02*
X22436729Y-18580293D01*
X22436729Y-18580293D02*
X22436729Y-18532674D01*
X22436729Y-18532674D02*
X22446253Y-18494579D01*
X22446253Y-18494579D02*
X22455777Y-18475531D01*
X22455777Y-18475531D02*
X22465301Y-18466008D01*
X22465301Y-18466008D02*
X22484348Y-18456484D01*
X22627206Y-18475531D02*
X22636729Y-18466008D01*
X22636729Y-18466008D02*
X22655777Y-18456484D01*
X22655777Y-18456484D02*
X22703396Y-18456484D01*
X22703396Y-18456484D02*
X22722444Y-18466008D01*
X22722444Y-18466008D02*
X22731967Y-18475531D01*
X22731967Y-18475531D02*
X22741491Y-18494579D01*
X22741491Y-18494579D02*
X22741491Y-18513627D01*
X22741491Y-18513627D02*
X22731967Y-18542198D01*
X22731967Y-18542198D02*
X22617682Y-18656484D01*
X22617682Y-18656484D02*
X22741491Y-18656484D01*
X22922444Y-18456484D02*
X22827206Y-18456484D01*
X22827206Y-18456484D02*
X22817682Y-18551722D01*
X22817682Y-18551722D02*
X22827206Y-18542198D01*
X22827206Y-18542198D02*
X22846253Y-18532674D01*
X22846253Y-18532674D02*
X22893872Y-18532674D01*
X22893872Y-18532674D02*
X22912920Y-18542198D01*
X22912920Y-18542198D02*
X22922444Y-18551722D01*
X22922444Y-18551722D02*
X22931967Y-18570770D01*
X22931967Y-18570770D02*
X22931967Y-18618389D01*
X22931967Y-18618389D02*
X22922444Y-18637436D01*
X22922444Y-18637436D02*
X22912920Y-18646960D01*
X22912920Y-18646960D02*
X22893872Y-18656484D01*
X22893872Y-18656484D02*
X22846253Y-18656484D01*
X22846253Y-18656484D02*
X22827206Y-18646960D01*
X22827206Y-18646960D02*
X22817682Y-18637436D01*
X23103396Y-18456484D02*
X23065301Y-18456484D01*
X23065301Y-18456484D02*
X23046253Y-18466008D01*
X23046253Y-18466008D02*
X23036729Y-18475531D01*
X23036729Y-18475531D02*
X23017682Y-18504103D01*
X23017682Y-18504103D02*
X23008158Y-18542198D01*
X23008158Y-18542198D02*
X23008158Y-18618389D01*
X23008158Y-18618389D02*
X23017682Y-18637436D01*
X23017682Y-18637436D02*
X23027206Y-18646960D01*
X23027206Y-18646960D02*
X23046253Y-18656484D01*
X23046253Y-18656484D02*
X23084348Y-18656484D01*
X23084348Y-18656484D02*
X23103396Y-18646960D01*
X23103396Y-18646960D02*
X23112920Y-18637436D01*
X23112920Y-18637436D02*
X23122444Y-18618389D01*
X23122444Y-18618389D02*
X23122444Y-18570770D01*
X23122444Y-18570770D02*
X23112920Y-18551722D01*
X23112920Y-18551722D02*
X23103396Y-18542198D01*
X23103396Y-18542198D02*
X23084348Y-18532674D01*
X23084348Y-18532674D02*
X23046253Y-18532674D01*
X23046253Y-18532674D02*
X23027206Y-18542198D01*
X23027206Y-18542198D02*
X23017682Y-18551722D01*
X23017682Y-18551722D02*
X23008158Y-18570770D01*
X23198634Y-18456484D02*
X23198634Y-18494579D01*
X23274825Y-18456484D02*
X23274825Y-18494579D01*
X23570063Y-18732674D02*
X23560539Y-18723150D01*
X23560539Y-18723150D02*
X23541491Y-18694579D01*
X23541491Y-18694579D02*
X23531968Y-18675531D01*
X23531968Y-18675531D02*
X23522444Y-18646960D01*
X23522444Y-18646960D02*
X23512920Y-18599341D01*
X23512920Y-18599341D02*
X23512920Y-18561246D01*
X23512920Y-18561246D02*
X23522444Y-18513627D01*
X23522444Y-18513627D02*
X23531968Y-18485055D01*
X23531968Y-18485055D02*
X23541491Y-18466008D01*
X23541491Y-18466008D02*
X23560539Y-18437436D01*
X23560539Y-18437436D02*
X23570063Y-18427912D01*
X23636729Y-18475531D02*
X23646253Y-18466008D01*
X23646253Y-18466008D02*
X23665301Y-18456484D01*
X23665301Y-18456484D02*
X23712920Y-18456484D01*
X23712920Y-18456484D02*
X23731968Y-18466008D01*
X23731968Y-18466008D02*
X23741491Y-18475531D01*
X23741491Y-18475531D02*
X23751015Y-18494579D01*
X23751015Y-18494579D02*
X23751015Y-18513627D01*
X23751015Y-18513627D02*
X23741491Y-18542198D01*
X23741491Y-18542198D02*
X23627206Y-18656484D01*
X23627206Y-18656484D02*
X23751015Y-18656484D01*
X23989110Y-18656484D02*
X23989110Y-18456484D01*
X24074825Y-18656484D02*
X24074825Y-18551722D01*
X24074825Y-18551722D02*
X24065301Y-18532674D01*
X24065301Y-18532674D02*
X24046253Y-18523150D01*
X24046253Y-18523150D02*
X24017682Y-18523150D01*
X24017682Y-18523150D02*
X23998634Y-18532674D01*
X23998634Y-18532674D02*
X23989110Y-18542198D01*
X24198634Y-18656484D02*
X24179587Y-18646960D01*
X24179587Y-18646960D02*
X24170063Y-18637436D01*
X24170063Y-18637436D02*
X24160539Y-18618389D01*
X24160539Y-18618389D02*
X24160539Y-18561246D01*
X24160539Y-18561246D02*
X24170063Y-18542198D01*
X24170063Y-18542198D02*
X24179587Y-18532674D01*
X24179587Y-18532674D02*
X24198634Y-18523150D01*
X24198634Y-18523150D02*
X24227206Y-18523150D01*
X24227206Y-18523150D02*
X24246253Y-18532674D01*
X24246253Y-18532674D02*
X24255777Y-18542198D01*
X24255777Y-18542198D02*
X24265301Y-18561246D01*
X24265301Y-18561246D02*
X24265301Y-18618389D01*
X24265301Y-18618389D02*
X24255777Y-18637436D01*
X24255777Y-18637436D02*
X24246253Y-18646960D01*
X24246253Y-18646960D02*
X24227206Y-18656484D01*
X24227206Y-18656484D02*
X24198634Y-18656484D01*
X24379587Y-18656484D02*
X24360539Y-18646960D01*
X24360539Y-18646960D02*
X24351015Y-18627912D01*
X24351015Y-18627912D02*
X24351015Y-18456484D01*
X24531968Y-18646960D02*
X24512920Y-18656484D01*
X24512920Y-18656484D02*
X24474825Y-18656484D01*
X24474825Y-18656484D02*
X24455777Y-18646960D01*
X24455777Y-18646960D02*
X24446253Y-18627912D01*
X24446253Y-18627912D02*
X24446253Y-18551722D01*
X24446253Y-18551722D02*
X24455777Y-18532674D01*
X24455777Y-18532674D02*
X24474825Y-18523150D01*
X24474825Y-18523150D02*
X24512920Y-18523150D01*
X24512920Y-18523150D02*
X24531968Y-18532674D01*
X24531968Y-18532674D02*
X24541491Y-18551722D01*
X24541491Y-18551722D02*
X24541491Y-18570770D01*
X24541491Y-18570770D02*
X24446253Y-18589817D01*
X24617682Y-18646960D02*
X24636730Y-18656484D01*
X24636730Y-18656484D02*
X24674825Y-18656484D01*
X24674825Y-18656484D02*
X24693872Y-18646960D01*
X24693872Y-18646960D02*
X24703396Y-18627912D01*
X24703396Y-18627912D02*
X24703396Y-18618389D01*
X24703396Y-18618389D02*
X24693872Y-18599341D01*
X24693872Y-18599341D02*
X24674825Y-18589817D01*
X24674825Y-18589817D02*
X24646253Y-18589817D01*
X24646253Y-18589817D02*
X24627206Y-18580293D01*
X24627206Y-18580293D02*
X24617682Y-18561246D01*
X24617682Y-18561246D02*
X24617682Y-18551722D01*
X24617682Y-18551722D02*
X24627206Y-18532674D01*
X24627206Y-18532674D02*
X24646253Y-18523150D01*
X24646253Y-18523150D02*
X24674825Y-18523150D01*
X24674825Y-18523150D02*
X24693872Y-18532674D01*
X24770063Y-18732674D02*
X24779587Y-18723150D01*
X24779587Y-18723150D02*
X24798634Y-18694579D01*
X24798634Y-18694579D02*
X24808158Y-18675531D01*
X24808158Y-18675531D02*
X24817682Y-18646960D01*
X24817682Y-18646960D02*
X24827206Y-18599341D01*
X24827206Y-18599341D02*
X24827206Y-18561246D01*
X24827206Y-18561246D02*
X24817682Y-18513627D01*
X24817682Y-18513627D02*
X24808158Y-18485055D01*
X24808158Y-18485055D02*
X24798634Y-18466008D01*
X24798634Y-18466008D02*
X24779587Y-18437436D01*
X24779587Y-18437436D02*
X24770063Y-18427912D01*
X25131968Y-18732674D02*
X25122444Y-18723150D01*
X25122444Y-18723150D02*
X25103396Y-18694579D01*
X25103396Y-18694579D02*
X25093872Y-18675531D01*
X25093872Y-18675531D02*
X25084349Y-18646960D01*
X25084349Y-18646960D02*
X25074825Y-18599341D01*
X25074825Y-18599341D02*
X25074825Y-18561246D01*
X25074825Y-18561246D02*
X25084349Y-18513627D01*
X25084349Y-18513627D02*
X25093872Y-18485055D01*
X25093872Y-18485055D02*
X25103396Y-18466008D01*
X25103396Y-18466008D02*
X25122444Y-18437436D01*
X25122444Y-18437436D02*
X25131968Y-18427912D01*
X25208158Y-18523150D02*
X25208158Y-18656484D01*
X25208158Y-18542198D02*
X25217682Y-18532674D01*
X25217682Y-18532674D02*
X25236730Y-18523150D01*
X25236730Y-18523150D02*
X25265301Y-18523150D01*
X25265301Y-18523150D02*
X25284349Y-18532674D01*
X25284349Y-18532674D02*
X25293872Y-18551722D01*
X25293872Y-18551722D02*
X25293872Y-18656484D01*
X25417682Y-18656484D02*
X25398634Y-18646960D01*
X25398634Y-18646960D02*
X25389111Y-18637436D01*
X25389111Y-18637436D02*
X25379587Y-18618389D01*
X25379587Y-18618389D02*
X25379587Y-18561246D01*
X25379587Y-18561246D02*
X25389111Y-18542198D01*
X25389111Y-18542198D02*
X25398634Y-18532674D01*
X25398634Y-18532674D02*
X25417682Y-18523150D01*
X25417682Y-18523150D02*
X25446253Y-18523150D01*
X25446253Y-18523150D02*
X25465301Y-18532674D01*
X25465301Y-18532674D02*
X25474825Y-18542198D01*
X25474825Y-18542198D02*
X25484349Y-18561246D01*
X25484349Y-18561246D02*
X25484349Y-18618389D01*
X25484349Y-18618389D02*
X25474825Y-18637436D01*
X25474825Y-18637436D02*
X25465301Y-18646960D01*
X25465301Y-18646960D02*
X25446253Y-18656484D01*
X25446253Y-18656484D02*
X25417682Y-18656484D01*
X25541492Y-18523150D02*
X25617682Y-18523150D01*
X25570063Y-18456484D02*
X25570063Y-18627912D01*
X25570063Y-18627912D02*
X25579587Y-18646960D01*
X25579587Y-18646960D02*
X25598634Y-18656484D01*
X25598634Y-18656484D02*
X25617682Y-18656484D01*
X25836730Y-18523150D02*
X25836730Y-18723150D01*
X25836730Y-18532674D02*
X25855777Y-18523150D01*
X25855777Y-18523150D02*
X25893873Y-18523150D01*
X25893873Y-18523150D02*
X25912920Y-18532674D01*
X25912920Y-18532674D02*
X25922444Y-18542198D01*
X25922444Y-18542198D02*
X25931968Y-18561246D01*
X25931968Y-18561246D02*
X25931968Y-18618389D01*
X25931968Y-18618389D02*
X25922444Y-18637436D01*
X25922444Y-18637436D02*
X25912920Y-18646960D01*
X25912920Y-18646960D02*
X25893873Y-18656484D01*
X25893873Y-18656484D02*
X25855777Y-18656484D01*
X25855777Y-18656484D02*
X25836730Y-18646960D01*
X26046253Y-18656484D02*
X26027206Y-18646960D01*
X26027206Y-18646960D02*
X26017682Y-18627912D01*
X26017682Y-18627912D02*
X26017682Y-18456484D01*
X26208158Y-18656484D02*
X26208158Y-18551722D01*
X26208158Y-18551722D02*
X26198634Y-18532674D01*
X26198634Y-18532674D02*
X26179587Y-18523150D01*
X26179587Y-18523150D02*
X26141492Y-18523150D01*
X26141492Y-18523150D02*
X26122444Y-18532674D01*
X26208158Y-18646960D02*
X26189111Y-18656484D01*
X26189111Y-18656484D02*
X26141492Y-18656484D01*
X26141492Y-18656484D02*
X26122444Y-18646960D01*
X26122444Y-18646960D02*
X26112920Y-18627912D01*
X26112920Y-18627912D02*
X26112920Y-18608865D01*
X26112920Y-18608865D02*
X26122444Y-18589817D01*
X26122444Y-18589817D02*
X26141492Y-18580293D01*
X26141492Y-18580293D02*
X26189111Y-18580293D01*
X26189111Y-18580293D02*
X26208158Y-18570770D01*
X26274825Y-18523150D02*
X26351015Y-18523150D01*
X26303396Y-18456484D02*
X26303396Y-18627912D01*
X26303396Y-18627912D02*
X26312920Y-18646960D01*
X26312920Y-18646960D02*
X26331968Y-18656484D01*
X26331968Y-18656484D02*
X26351015Y-18656484D01*
X26493873Y-18646960D02*
X26474825Y-18656484D01*
X26474825Y-18656484D02*
X26436730Y-18656484D01*
X26436730Y-18656484D02*
X26417682Y-18646960D01*
X26417682Y-18646960D02*
X26408158Y-18627912D01*
X26408158Y-18627912D02*
X26408158Y-18551722D01*
X26408158Y-18551722D02*
X26417682Y-18532674D01*
X26417682Y-18532674D02*
X26436730Y-18523150D01*
X26436730Y-18523150D02*
X26474825Y-18523150D01*
X26474825Y-18523150D02*
X26493873Y-18532674D01*
X26493873Y-18532674D02*
X26503396Y-18551722D01*
X26503396Y-18551722D02*
X26503396Y-18570770D01*
X26503396Y-18570770D02*
X26408158Y-18589817D01*
X26674825Y-18656484D02*
X26674825Y-18456484D01*
X26674825Y-18646960D02*
X26655777Y-18656484D01*
X26655777Y-18656484D02*
X26617682Y-18656484D01*
X26617682Y-18656484D02*
X26598634Y-18646960D01*
X26598634Y-18646960D02*
X26589111Y-18637436D01*
X26589111Y-18637436D02*
X26579587Y-18618389D01*
X26579587Y-18618389D02*
X26579587Y-18561246D01*
X26579587Y-18561246D02*
X26589111Y-18542198D01*
X26589111Y-18542198D02*
X26598634Y-18532674D01*
X26598634Y-18532674D02*
X26617682Y-18523150D01*
X26617682Y-18523150D02*
X26655777Y-18523150D01*
X26655777Y-18523150D02*
X26674825Y-18532674D01*
X26751015Y-18732674D02*
X26760539Y-18723150D01*
X26760539Y-18723150D02*
X26779587Y-18694579D01*
X26779587Y-18694579D02*
X26789111Y-18675531D01*
X26789111Y-18675531D02*
X26798634Y-18646960D01*
X26798634Y-18646960D02*
X26808158Y-18599341D01*
X26808158Y-18599341D02*
X26808158Y-18561246D01*
X26808158Y-18561246D02*
X26798634Y-18513627D01*
X26798634Y-18513627D02*
X26789111Y-18485055D01*
X26789111Y-18485055D02*
X26779587Y-18466008D01*
X26779587Y-18466008D02*
X26760539Y-18437436D01*
X26760539Y-18437436D02*
X26751015Y-18427912D01*
M02*
