M48
; DRILL file {KiCad 7.0.10} date Tue Jan  7 15:58:44 2025
; FORMAT={-:-/ absolute / inch / decimal}
; #@! TF.CreationDate,2025-01-07T15:58:44-07:00
; #@! TF.GenerationSoftware,Kicad,Pcbnew,7.0.10
; #@! TF.FileFunction,Plated,1,4,PTH
FMAT,2
INCH
; #@! TA.AperFunction,Plated,PTH,ComponentDrill
T1C0.0120
; #@! TA.AperFunction,Plated,PTH,ViaDrill
T2C0.0157
; #@! TA.AperFunction,Plated,PTH,ComponentDrill
T3C0.0236
; #@! TA.AperFunction,Plated,PTH,ComponentDrill
T4C0.0276
; #@! TA.AperFunction,Plated,PTH,ComponentDrill
T5C0.0394
; #@! TA.AperFunction,Plated,PTH,ComponentDrill
T6C0.0394
; #@! TA.AperFunction,Plated,PTH,ComponentDrill
T7C0.0906
%
G90
G05
T1
X8.5211Y-4.6496
X8.523Y-4.6063
X8.524Y-4.6939
X8.5663Y-4.6496
X8.5673Y-4.6063
X8.5673Y-4.6949
X8.6096Y-4.6496
X8.6106Y-4.6063
X8.6116Y-4.6939
T2
X8.0169Y-5.4839
X8.1169Y-5.3803
X8.1372Y-5.36
X8.1429Y-5.4496
X8.1695Y-4.3501
X8.1929Y-4.1933
X8.2484Y-5.5059
X8.2896Y-4.4974
X8.2904Y-4.4438
X8.3176Y-4.8942
X8.3219Y-4.3466
X8.3303Y-4.1689
X8.3672Y-4.6222
X8.3765Y-4.5611
X8.3912Y-4.5879
X8.4224Y-5.187
X8.4247Y-4.4879
X8.4413Y-5.2102
X8.4854Y-4.4303
X8.4876Y-4.8707
X8.4997Y-4.4711
X8.5508Y-4.4224
X8.5513Y-4.4551
X8.6189Y-4.4476
X8.6303Y-5.2937
X8.6539Y-4.8764
X8.6837Y-4.3253
X8.7217Y-4.4539
X8.7217Y-5.8122
X8.7406Y-4.5681
X8.7638Y-4.5894
X8.7906Y-4.2689
X8.7941Y-5.7437
X8.8138Y-6.5051
X8.8475Y-5.1242
X8.8516Y-5.6091
X8.8518Y-5.2029
X8.8747Y-5.1242
X8.8821Y-5.2029
X8.9059Y-5.7465
X8.9079Y-5.1248
X8.914Y-5.2033
X8.938Y-4.8068
X8.9384Y-4.6958
X8.9488Y-6.5693
X8.9614Y-5.8854
X8.9614Y-5.9866
X8.9614Y-6.0898
X9.1154Y-5.7465
X9.1205Y-4.2618
X9.1264Y-6.3787
X9.1273Y-4.5959
X9.1283Y-6.0441
X9.1512Y-6.0866
X9.1547Y-4.5736
X9.1594Y-6.0358
X9.1634Y-6.2902
X9.1642Y-6.1343
X9.172Y-6.7894
X9.1724Y-6.3787
X9.1773Y-4.5953
X9.1862Y-6.0764
X9.211Y-4.1453
X9.2122Y-6.3787
X9.2449Y-4.3437
X9.2689Y-4.4969
X9.2748Y-5.6173
X9.2996Y-4.4969
X9.3339Y-4.498
X9.3461Y-4.4193
X9.3646Y-6.3165
X9.3819Y-4.0425
X9.3887Y-4.6941
X9.3929Y-4.1744
X9.4525Y-4.5946
X9.4614Y-4.5654
X9.4622Y-5.3701
T4
X7.9543Y-4.7138
X7.9543Y-5.015
X9.4232Y-6.7343
X9.4264Y-5.9756
X9.4287Y-5.7764
X9.4398Y-4.4429
T5
X8.4012Y-4.0705
X8.5012Y-4.0705
X8.5598Y-5.4205
X8.5598Y-5.5303
X8.6012Y-4.0705
X8.6598Y-5.4205
X8.6598Y-5.5303
X8.7012Y-4.0705
X8.7598Y-5.4205
X8.7598Y-5.5303
X8.8598Y-5.4205
X8.8598Y-5.5303
X8.8598Y-6.9024
X8.9598Y-5.4205
X8.9598Y-5.5303
X8.9598Y-6.9024
X9.0598Y-5.4205
X9.0598Y-5.5303
X9.0598Y-6.9024
X9.1598Y-5.4205
X9.1598Y-5.5303
X9.1598Y-6.9024
X9.2598Y-5.4205
X9.2598Y-5.5303
X9.2598Y-6.9024
X9.3224Y-4.8346
X9.3224Y-4.9346
X9.3224Y-5.0346
X9.3224Y-5.1346
X9.3224Y-5.2346
X9.4224Y-4.8346
X9.4224Y-4.9346
X9.4224Y-5.0346
X9.4224Y-5.1346
X9.4224Y-5.2346
T6
X9.1795Y-4.8364
X9.1795Y-4.9348
X9.1795Y-5.0136
X9.1795Y-5.112
T7
X9.0728Y-4.7156
X9.0728Y-5.2329
T3
G00X7.917Y-4.2173
M15
G01X7.8855Y-4.2173
M16
G05
G00X7.917Y-4.5575
M15
G01X7.8855Y-4.5575
M16
G05
G00X8.0875Y-4.2173
M15
G01X8.0442Y-4.2173
M16
G05
G00X8.0875Y-4.5575
M15
G01X8.0442Y-4.5575
M16
G05
M30
