%TF.GenerationSoftware,KiCad,Pcbnew,7.0.10*%
%TF.CreationDate,2025-01-07T15:59:30-07:00*%
%TF.ProjectId,HATA_ver_8.3.1,48415441-5f76-4657-925f-382e332e312e,8.3.1*%
%TF.SameCoordinates,Original*%
%TF.FileFunction,Legend,Top*%
%TF.FilePolarity,Positive*%
%FSLAX46Y46*%
G04 Gerber Fmt 4.6, Leading zero omitted, Abs format (unit mm)*
G04 Created by KiCad (PCBNEW 7.0.10) date 2025-01-07 15:59:30*
%MOMM*%
%LPD*%
G01*
G04 APERTURE LIST*
%ADD10C,0.100000*%
%ADD11C,0.120000*%
%ADD12C,0.150000*%
%ADD13C,0.237697*%
G04 APERTURE END LIST*
D10*
X240175847Y-110867143D02*
X240213942Y-110752857D01*
X240213942Y-110752857D02*
X240252038Y-110714762D01*
X240252038Y-110714762D02*
X240328228Y-110676666D01*
X240328228Y-110676666D02*
X240442514Y-110676666D01*
X240442514Y-110676666D02*
X240518704Y-110714762D01*
X240518704Y-110714762D02*
X240556800Y-110752857D01*
X240556800Y-110752857D02*
X240594895Y-110829047D01*
X240594895Y-110829047D02*
X240594895Y-111133809D01*
X240594895Y-111133809D02*
X239794895Y-111133809D01*
X239794895Y-111133809D02*
X239794895Y-110867143D01*
X239794895Y-110867143D02*
X239832990Y-110790952D01*
X239832990Y-110790952D02*
X239871085Y-110752857D01*
X239871085Y-110752857D02*
X239947276Y-110714762D01*
X239947276Y-110714762D02*
X240023466Y-110714762D01*
X240023466Y-110714762D02*
X240099657Y-110752857D01*
X240099657Y-110752857D02*
X240137752Y-110790952D01*
X240137752Y-110790952D02*
X240175847Y-110867143D01*
X240175847Y-110867143D02*
X240175847Y-111133809D01*
X240594895Y-109990952D02*
X240175847Y-109990952D01*
X240175847Y-109990952D02*
X240099657Y-110029047D01*
X240099657Y-110029047D02*
X240061561Y-110105238D01*
X240061561Y-110105238D02*
X240061561Y-110257619D01*
X240061561Y-110257619D02*
X240099657Y-110333809D01*
X240556800Y-109990952D02*
X240594895Y-110067143D01*
X240594895Y-110067143D02*
X240594895Y-110257619D01*
X240594895Y-110257619D02*
X240556800Y-110333809D01*
X240556800Y-110333809D02*
X240480609Y-110371905D01*
X240480609Y-110371905D02*
X240404419Y-110371905D01*
X240404419Y-110371905D02*
X240328228Y-110333809D01*
X240328228Y-110333809D02*
X240290133Y-110257619D01*
X240290133Y-110257619D02*
X240290133Y-110067143D01*
X240290133Y-110067143D02*
X240252038Y-109990952D01*
X240061561Y-109724285D02*
X240061561Y-109419523D01*
X239794895Y-109609999D02*
X240480609Y-109609999D01*
X240480609Y-109609999D02*
X240556800Y-109571904D01*
X240556800Y-109571904D02*
X240594895Y-109495714D01*
X240594895Y-109495714D02*
X240594895Y-109419523D01*
X240061561Y-109267142D02*
X240061561Y-108962380D01*
X239794895Y-109152856D02*
X240480609Y-109152856D01*
X240480609Y-109152856D02*
X240556800Y-109114761D01*
X240556800Y-109114761D02*
X240594895Y-109038571D01*
X240594895Y-109038571D02*
X240594895Y-108962380D01*
X240290133Y-108695713D02*
X240290133Y-108086190D01*
X240594895Y-108390951D02*
X239985371Y-108390951D01*
X201530476Y-121412990D02*
X201454286Y-121374895D01*
X201454286Y-121374895D02*
X201340000Y-121374895D01*
X201340000Y-121374895D02*
X201225714Y-121412990D01*
X201225714Y-121412990D02*
X201149524Y-121489180D01*
X201149524Y-121489180D02*
X201111429Y-121565371D01*
X201111429Y-121565371D02*
X201073333Y-121717752D01*
X201073333Y-121717752D02*
X201073333Y-121832038D01*
X201073333Y-121832038D02*
X201111429Y-121984419D01*
X201111429Y-121984419D02*
X201149524Y-122060609D01*
X201149524Y-122060609D02*
X201225714Y-122136800D01*
X201225714Y-122136800D02*
X201340000Y-122174895D01*
X201340000Y-122174895D02*
X201416191Y-122174895D01*
X201416191Y-122174895D02*
X201530476Y-122136800D01*
X201530476Y-122136800D02*
X201568572Y-122098704D01*
X201568572Y-122098704D02*
X201568572Y-121832038D01*
X201568572Y-121832038D02*
X201416191Y-121832038D01*
X201911429Y-122174895D02*
X201911429Y-121374895D01*
X201911429Y-121374895D02*
X202368572Y-122174895D01*
X202368572Y-122174895D02*
X202368572Y-121374895D01*
X202749524Y-122174895D02*
X202749524Y-121374895D01*
X202749524Y-121374895D02*
X202940000Y-121374895D01*
X202940000Y-121374895D02*
X203054286Y-121412990D01*
X203054286Y-121412990D02*
X203130476Y-121489180D01*
X203130476Y-121489180D02*
X203168571Y-121565371D01*
X203168571Y-121565371D02*
X203206667Y-121717752D01*
X203206667Y-121717752D02*
X203206667Y-121832038D01*
X203206667Y-121832038D02*
X203168571Y-121984419D01*
X203168571Y-121984419D02*
X203130476Y-122060609D01*
X203130476Y-122060609D02*
X203054286Y-122136800D01*
X203054286Y-122136800D02*
X202940000Y-122174895D01*
X202940000Y-122174895D02*
X202749524Y-122174895D01*
X238769048Y-144954895D02*
X238769048Y-144154895D01*
X239150000Y-144954895D02*
X239150000Y-144154895D01*
X239150000Y-144154895D02*
X239454762Y-144154895D01*
X239454762Y-144154895D02*
X239530952Y-144192990D01*
X239530952Y-144192990D02*
X239569047Y-144231085D01*
X239569047Y-144231085D02*
X239607143Y-144307276D01*
X239607143Y-144307276D02*
X239607143Y-144421561D01*
X239607143Y-144421561D02*
X239569047Y-144497752D01*
X239569047Y-144497752D02*
X239530952Y-144535847D01*
X239530952Y-144535847D02*
X239454762Y-144573942D01*
X239454762Y-144573942D02*
X239150000Y-144573942D01*
X239911904Y-144916800D02*
X240026190Y-144954895D01*
X240026190Y-144954895D02*
X240216666Y-144954895D01*
X240216666Y-144954895D02*
X240292857Y-144916800D01*
X240292857Y-144916800D02*
X240330952Y-144878704D01*
X240330952Y-144878704D02*
X240369047Y-144802514D01*
X240369047Y-144802514D02*
X240369047Y-144726323D01*
X240369047Y-144726323D02*
X240330952Y-144650133D01*
X240330952Y-144650133D02*
X240292857Y-144612038D01*
X240292857Y-144612038D02*
X240216666Y-144573942D01*
X240216666Y-144573942D02*
X240064285Y-144535847D01*
X240064285Y-144535847D02*
X239988095Y-144497752D01*
X239988095Y-144497752D02*
X239950000Y-144459657D01*
X239950000Y-144459657D02*
X239911904Y-144383466D01*
X239911904Y-144383466D02*
X239911904Y-144307276D01*
X239911904Y-144307276D02*
X239950000Y-144231085D01*
X239950000Y-144231085D02*
X239988095Y-144192990D01*
X239988095Y-144192990D02*
X240064285Y-144154895D01*
X240064285Y-144154895D02*
X240254762Y-144154895D01*
X240254762Y-144154895D02*
X240369047Y-144192990D01*
X238191429Y-169110133D02*
X238800953Y-169110133D01*
X238496191Y-169414895D02*
X238496191Y-168805371D01*
X239562857Y-168614895D02*
X239181905Y-168614895D01*
X239181905Y-168614895D02*
X239143809Y-168995847D01*
X239143809Y-168995847D02*
X239181905Y-168957752D01*
X239181905Y-168957752D02*
X239258095Y-168919657D01*
X239258095Y-168919657D02*
X239448571Y-168919657D01*
X239448571Y-168919657D02*
X239524762Y-168957752D01*
X239524762Y-168957752D02*
X239562857Y-168995847D01*
X239562857Y-168995847D02*
X239600952Y-169072038D01*
X239600952Y-169072038D02*
X239600952Y-169262514D01*
X239600952Y-169262514D02*
X239562857Y-169338704D01*
X239562857Y-169338704D02*
X239524762Y-169376800D01*
X239524762Y-169376800D02*
X239448571Y-169414895D01*
X239448571Y-169414895D02*
X239258095Y-169414895D01*
X239258095Y-169414895D02*
X239181905Y-169376800D01*
X239181905Y-169376800D02*
X239143809Y-169338704D01*
X239829524Y-168614895D02*
X240096191Y-169414895D01*
X240096191Y-169414895D02*
X240362857Y-168614895D01*
X200775238Y-125156323D02*
X201156191Y-125156323D01*
X200699048Y-125384895D02*
X200965715Y-124584895D01*
X200965715Y-124584895D02*
X201232381Y-125384895D01*
X201956191Y-125308704D02*
X201918095Y-125346800D01*
X201918095Y-125346800D02*
X201803810Y-125384895D01*
X201803810Y-125384895D02*
X201727619Y-125384895D01*
X201727619Y-125384895D02*
X201613333Y-125346800D01*
X201613333Y-125346800D02*
X201537143Y-125270609D01*
X201537143Y-125270609D02*
X201499048Y-125194419D01*
X201499048Y-125194419D02*
X201460952Y-125042038D01*
X201460952Y-125042038D02*
X201460952Y-124927752D01*
X201460952Y-124927752D02*
X201499048Y-124775371D01*
X201499048Y-124775371D02*
X201537143Y-124699180D01*
X201537143Y-124699180D02*
X201613333Y-124622990D01*
X201613333Y-124622990D02*
X201727619Y-124584895D01*
X201727619Y-124584895D02*
X201803810Y-124584895D01*
X201803810Y-124584895D02*
X201918095Y-124622990D01*
X201918095Y-124622990D02*
X201956191Y-124661085D01*
X202108572Y-125461085D02*
X202718095Y-125461085D01*
X202908572Y-125384895D02*
X202908572Y-124584895D01*
X203289524Y-125384895D02*
X203289524Y-124584895D01*
X203289524Y-124584895D02*
X203746667Y-125384895D01*
X203746667Y-125384895D02*
X203746667Y-124584895D01*
X239684895Y-157399047D02*
X238884895Y-157399047D01*
X238884895Y-157399047D02*
X238884895Y-157094285D01*
X238884895Y-157094285D02*
X238922990Y-157018095D01*
X238922990Y-157018095D02*
X238961085Y-156980000D01*
X238961085Y-156980000D02*
X239037276Y-156941904D01*
X239037276Y-156941904D02*
X239151561Y-156941904D01*
X239151561Y-156941904D02*
X239227752Y-156980000D01*
X239227752Y-156980000D02*
X239265847Y-157018095D01*
X239265847Y-157018095D02*
X239303942Y-157094285D01*
X239303942Y-157094285D02*
X239303942Y-157399047D01*
X239646800Y-156637143D02*
X239684895Y-156522857D01*
X239684895Y-156522857D02*
X239684895Y-156332381D01*
X239684895Y-156332381D02*
X239646800Y-156256190D01*
X239646800Y-156256190D02*
X239608704Y-156218095D01*
X239608704Y-156218095D02*
X239532514Y-156180000D01*
X239532514Y-156180000D02*
X239456323Y-156180000D01*
X239456323Y-156180000D02*
X239380133Y-156218095D01*
X239380133Y-156218095D02*
X239342038Y-156256190D01*
X239342038Y-156256190D02*
X239303942Y-156332381D01*
X239303942Y-156332381D02*
X239265847Y-156484762D01*
X239265847Y-156484762D02*
X239227752Y-156560952D01*
X239227752Y-156560952D02*
X239189657Y-156599047D01*
X239189657Y-156599047D02*
X239113466Y-156637143D01*
X239113466Y-156637143D02*
X239037276Y-156637143D01*
X239037276Y-156637143D02*
X238961085Y-156599047D01*
X238961085Y-156599047D02*
X238922990Y-156560952D01*
X238922990Y-156560952D02*
X238884895Y-156484762D01*
X238884895Y-156484762D02*
X238884895Y-156294285D01*
X238884895Y-156294285D02*
X238922990Y-156180000D01*
X239761085Y-156027619D02*
X239761085Y-155418095D01*
X239265847Y-155227618D02*
X239265847Y-154960952D01*
X239684895Y-154846666D02*
X239684895Y-155227618D01*
X239684895Y-155227618D02*
X238884895Y-155227618D01*
X238884895Y-155227618D02*
X238884895Y-154846666D01*
X239684895Y-154503808D02*
X238884895Y-154503808D01*
X238884895Y-154503808D02*
X239684895Y-154046665D01*
X239684895Y-154046665D02*
X238884895Y-154046665D01*
X239456323Y-153703809D02*
X239456323Y-153322856D01*
X239684895Y-153779999D02*
X238884895Y-153513332D01*
X238884895Y-153513332D02*
X239684895Y-153246666D01*
X219710000Y-156822371D02*
X219510000Y-156536657D01*
X219367143Y-156822371D02*
X219367143Y-156222371D01*
X219367143Y-156222371D02*
X219595714Y-156222371D01*
X219595714Y-156222371D02*
X219652857Y-156250942D01*
X219652857Y-156250942D02*
X219681428Y-156279514D01*
X219681428Y-156279514D02*
X219710000Y-156336657D01*
X219710000Y-156336657D02*
X219710000Y-156422371D01*
X219710000Y-156422371D02*
X219681428Y-156479514D01*
X219681428Y-156479514D02*
X219652857Y-156508085D01*
X219652857Y-156508085D02*
X219595714Y-156536657D01*
X219595714Y-156536657D02*
X219367143Y-156536657D01*
X220281428Y-156822371D02*
X219938571Y-156822371D01*
X220110000Y-156822371D02*
X220110000Y-156222371D01*
X220110000Y-156222371D02*
X220052857Y-156308085D01*
X220052857Y-156308085D02*
X219995714Y-156365228D01*
X219995714Y-156365228D02*
X219938571Y-156393800D01*
X223247143Y-148732371D02*
X223247143Y-148132371D01*
X223247143Y-148132371D02*
X223390000Y-148132371D01*
X223390000Y-148132371D02*
X223475714Y-148160942D01*
X223475714Y-148160942D02*
X223532857Y-148218085D01*
X223532857Y-148218085D02*
X223561428Y-148275228D01*
X223561428Y-148275228D02*
X223590000Y-148389514D01*
X223590000Y-148389514D02*
X223590000Y-148475228D01*
X223590000Y-148475228D02*
X223561428Y-148589514D01*
X223561428Y-148589514D02*
X223532857Y-148646657D01*
X223532857Y-148646657D02*
X223475714Y-148703800D01*
X223475714Y-148703800D02*
X223390000Y-148732371D01*
X223390000Y-148732371D02*
X223247143Y-148732371D01*
X224161428Y-148732371D02*
X223818571Y-148732371D01*
X223990000Y-148732371D02*
X223990000Y-148132371D01*
X223990000Y-148132371D02*
X223932857Y-148218085D01*
X223932857Y-148218085D02*
X223875714Y-148275228D01*
X223875714Y-148275228D02*
X223818571Y-148303800D01*
X234570000Y-163575228D02*
X234541428Y-163603800D01*
X234541428Y-163603800D02*
X234455714Y-163632371D01*
X234455714Y-163632371D02*
X234398571Y-163632371D01*
X234398571Y-163632371D02*
X234312857Y-163603800D01*
X234312857Y-163603800D02*
X234255714Y-163546657D01*
X234255714Y-163546657D02*
X234227143Y-163489514D01*
X234227143Y-163489514D02*
X234198571Y-163375228D01*
X234198571Y-163375228D02*
X234198571Y-163289514D01*
X234198571Y-163289514D02*
X234227143Y-163175228D01*
X234227143Y-163175228D02*
X234255714Y-163118085D01*
X234255714Y-163118085D02*
X234312857Y-163060942D01*
X234312857Y-163060942D02*
X234398571Y-163032371D01*
X234398571Y-163032371D02*
X234455714Y-163032371D01*
X234455714Y-163032371D02*
X234541428Y-163060942D01*
X234541428Y-163060942D02*
X234570000Y-163089514D01*
X235084286Y-163232371D02*
X235084286Y-163632371D01*
X234941428Y-163003800D02*
X234798571Y-163432371D01*
X234798571Y-163432371D02*
X235170000Y-163432371D01*
X209150000Y-109855228D02*
X209121428Y-109883800D01*
X209121428Y-109883800D02*
X209035714Y-109912371D01*
X209035714Y-109912371D02*
X208978571Y-109912371D01*
X208978571Y-109912371D02*
X208892857Y-109883800D01*
X208892857Y-109883800D02*
X208835714Y-109826657D01*
X208835714Y-109826657D02*
X208807143Y-109769514D01*
X208807143Y-109769514D02*
X208778571Y-109655228D01*
X208778571Y-109655228D02*
X208778571Y-109569514D01*
X208778571Y-109569514D02*
X208807143Y-109455228D01*
X208807143Y-109455228D02*
X208835714Y-109398085D01*
X208835714Y-109398085D02*
X208892857Y-109340942D01*
X208892857Y-109340942D02*
X208978571Y-109312371D01*
X208978571Y-109312371D02*
X209035714Y-109312371D01*
X209035714Y-109312371D02*
X209121428Y-109340942D01*
X209121428Y-109340942D02*
X209150000Y-109369514D01*
X209721428Y-109912371D02*
X209378571Y-109912371D01*
X209550000Y-109912371D02*
X209550000Y-109312371D01*
X209550000Y-109312371D02*
X209492857Y-109398085D01*
X209492857Y-109398085D02*
X209435714Y-109455228D01*
X209435714Y-109455228D02*
X209378571Y-109483800D01*
X224720000Y-107332371D02*
X224520000Y-107046657D01*
X224377143Y-107332371D02*
X224377143Y-106732371D01*
X224377143Y-106732371D02*
X224605714Y-106732371D01*
X224605714Y-106732371D02*
X224662857Y-106760942D01*
X224662857Y-106760942D02*
X224691428Y-106789514D01*
X224691428Y-106789514D02*
X224720000Y-106846657D01*
X224720000Y-106846657D02*
X224720000Y-106932371D01*
X224720000Y-106932371D02*
X224691428Y-106989514D01*
X224691428Y-106989514D02*
X224662857Y-107018085D01*
X224662857Y-107018085D02*
X224605714Y-107046657D01*
X224605714Y-107046657D02*
X224377143Y-107046657D01*
X224920000Y-106732371D02*
X225320000Y-106732371D01*
X225320000Y-106732371D02*
X225062857Y-107332371D01*
X224867143Y-135612371D02*
X224867143Y-135012371D01*
X224867143Y-135012371D02*
X225095714Y-135012371D01*
X225095714Y-135012371D02*
X225152857Y-135040942D01*
X225152857Y-135040942D02*
X225181428Y-135069514D01*
X225181428Y-135069514D02*
X225210000Y-135126657D01*
X225210000Y-135126657D02*
X225210000Y-135212371D01*
X225210000Y-135212371D02*
X225181428Y-135269514D01*
X225181428Y-135269514D02*
X225152857Y-135298085D01*
X225152857Y-135298085D02*
X225095714Y-135326657D01*
X225095714Y-135326657D02*
X224867143Y-135326657D01*
X225410000Y-135012371D02*
X225781428Y-135012371D01*
X225781428Y-135012371D02*
X225581428Y-135240942D01*
X225581428Y-135240942D02*
X225667143Y-135240942D01*
X225667143Y-135240942D02*
X225724286Y-135269514D01*
X225724286Y-135269514D02*
X225752857Y-135298085D01*
X225752857Y-135298085D02*
X225781428Y-135355228D01*
X225781428Y-135355228D02*
X225781428Y-135498085D01*
X225781428Y-135498085D02*
X225752857Y-135555228D01*
X225752857Y-135555228D02*
X225724286Y-135583800D01*
X225724286Y-135583800D02*
X225667143Y-135612371D01*
X225667143Y-135612371D02*
X225495714Y-135612371D01*
X225495714Y-135612371D02*
X225438571Y-135583800D01*
X225438571Y-135583800D02*
X225410000Y-135555228D01*
X234490000Y-109622371D02*
X234290000Y-109336657D01*
X234147143Y-109622371D02*
X234147143Y-109022371D01*
X234147143Y-109022371D02*
X234375714Y-109022371D01*
X234375714Y-109022371D02*
X234432857Y-109050942D01*
X234432857Y-109050942D02*
X234461428Y-109079514D01*
X234461428Y-109079514D02*
X234490000Y-109136657D01*
X234490000Y-109136657D02*
X234490000Y-109222371D01*
X234490000Y-109222371D02*
X234461428Y-109279514D01*
X234461428Y-109279514D02*
X234432857Y-109308085D01*
X234432857Y-109308085D02*
X234375714Y-109336657D01*
X234375714Y-109336657D02*
X234147143Y-109336657D01*
X235004286Y-109222371D02*
X235004286Y-109622371D01*
X234861428Y-108993800D02*
X234718571Y-109422371D01*
X234718571Y-109422371D02*
X235090000Y-109422371D01*
X237217143Y-137082371D02*
X237217143Y-136482371D01*
X237217143Y-136482371D02*
X237445714Y-136482371D01*
X237445714Y-136482371D02*
X237502857Y-136510942D01*
X237502857Y-136510942D02*
X237531428Y-136539514D01*
X237531428Y-136539514D02*
X237560000Y-136596657D01*
X237560000Y-136596657D02*
X237560000Y-136682371D01*
X237560000Y-136682371D02*
X237531428Y-136739514D01*
X237531428Y-136739514D02*
X237502857Y-136768085D01*
X237502857Y-136768085D02*
X237445714Y-136796657D01*
X237445714Y-136796657D02*
X237217143Y-136796657D01*
X238074286Y-136482371D02*
X237960000Y-136482371D01*
X237960000Y-136482371D02*
X237902857Y-136510942D01*
X237902857Y-136510942D02*
X237874286Y-136539514D01*
X237874286Y-136539514D02*
X237817143Y-136625228D01*
X237817143Y-136625228D02*
X237788571Y-136739514D01*
X237788571Y-136739514D02*
X237788571Y-136968085D01*
X237788571Y-136968085D02*
X237817143Y-137025228D01*
X237817143Y-137025228D02*
X237845714Y-137053800D01*
X237845714Y-137053800D02*
X237902857Y-137082371D01*
X237902857Y-137082371D02*
X238017143Y-137082371D01*
X238017143Y-137082371D02*
X238074286Y-137053800D01*
X238074286Y-137053800D02*
X238102857Y-137025228D01*
X238102857Y-137025228D02*
X238131428Y-136968085D01*
X238131428Y-136968085D02*
X238131428Y-136825228D01*
X238131428Y-136825228D02*
X238102857Y-136768085D01*
X238102857Y-136768085D02*
X238074286Y-136739514D01*
X238074286Y-136739514D02*
X238017143Y-136710942D01*
X238017143Y-136710942D02*
X237902857Y-136710942D01*
X237902857Y-136710942D02*
X237845714Y-136739514D01*
X237845714Y-136739514D02*
X237817143Y-136768085D01*
X237817143Y-136768085D02*
X237788571Y-136825228D01*
X208614285Y-138982371D02*
X208414285Y-138696657D01*
X208271428Y-138982371D02*
X208271428Y-138382371D01*
X208271428Y-138382371D02*
X208499999Y-138382371D01*
X208499999Y-138382371D02*
X208557142Y-138410942D01*
X208557142Y-138410942D02*
X208585713Y-138439514D01*
X208585713Y-138439514D02*
X208614285Y-138496657D01*
X208614285Y-138496657D02*
X208614285Y-138582371D01*
X208614285Y-138582371D02*
X208585713Y-138639514D01*
X208585713Y-138639514D02*
X208557142Y-138668085D01*
X208557142Y-138668085D02*
X208499999Y-138696657D01*
X208499999Y-138696657D02*
X208271428Y-138696657D01*
X209185713Y-138982371D02*
X208842856Y-138982371D01*
X209014285Y-138982371D02*
X209014285Y-138382371D01*
X209014285Y-138382371D02*
X208957142Y-138468085D01*
X208957142Y-138468085D02*
X208899999Y-138525228D01*
X208899999Y-138525228D02*
X208842856Y-138553800D01*
X209557142Y-138382371D02*
X209614285Y-138382371D01*
X209614285Y-138382371D02*
X209671428Y-138410942D01*
X209671428Y-138410942D02*
X209700000Y-138439514D01*
X209700000Y-138439514D02*
X209728571Y-138496657D01*
X209728571Y-138496657D02*
X209757142Y-138610942D01*
X209757142Y-138610942D02*
X209757142Y-138753800D01*
X209757142Y-138753800D02*
X209728571Y-138868085D01*
X209728571Y-138868085D02*
X209700000Y-138925228D01*
X209700000Y-138925228D02*
X209671428Y-138953800D01*
X209671428Y-138953800D02*
X209614285Y-138982371D01*
X209614285Y-138982371D02*
X209557142Y-138982371D01*
X209557142Y-138982371D02*
X209500000Y-138953800D01*
X209500000Y-138953800D02*
X209471428Y-138925228D01*
X209471428Y-138925228D02*
X209442857Y-138868085D01*
X209442857Y-138868085D02*
X209414285Y-138753800D01*
X209414285Y-138753800D02*
X209414285Y-138610942D01*
X209414285Y-138610942D02*
X209442857Y-138496657D01*
X209442857Y-138496657D02*
X209471428Y-138439514D01*
X209471428Y-138439514D02*
X209500000Y-138410942D01*
X209500000Y-138410942D02*
X209557142Y-138382371D01*
X229590000Y-151245228D02*
X229561428Y-151273800D01*
X229561428Y-151273800D02*
X229475714Y-151302371D01*
X229475714Y-151302371D02*
X229418571Y-151302371D01*
X229418571Y-151302371D02*
X229332857Y-151273800D01*
X229332857Y-151273800D02*
X229275714Y-151216657D01*
X229275714Y-151216657D02*
X229247143Y-151159514D01*
X229247143Y-151159514D02*
X229218571Y-151045228D01*
X229218571Y-151045228D02*
X229218571Y-150959514D01*
X229218571Y-150959514D02*
X229247143Y-150845228D01*
X229247143Y-150845228D02*
X229275714Y-150788085D01*
X229275714Y-150788085D02*
X229332857Y-150730942D01*
X229332857Y-150730942D02*
X229418571Y-150702371D01*
X229418571Y-150702371D02*
X229475714Y-150702371D01*
X229475714Y-150702371D02*
X229561428Y-150730942D01*
X229561428Y-150730942D02*
X229590000Y-150759514D01*
X229790000Y-150702371D02*
X230190000Y-150702371D01*
X230190000Y-150702371D02*
X229932857Y-151302371D01*
X237277143Y-173282371D02*
X237277143Y-172682371D01*
X237277143Y-172682371D02*
X237505714Y-172682371D01*
X237505714Y-172682371D02*
X237562857Y-172710942D01*
X237562857Y-172710942D02*
X237591428Y-172739514D01*
X237591428Y-172739514D02*
X237620000Y-172796657D01*
X237620000Y-172796657D02*
X237620000Y-172882371D01*
X237620000Y-172882371D02*
X237591428Y-172939514D01*
X237591428Y-172939514D02*
X237562857Y-172968085D01*
X237562857Y-172968085D02*
X237505714Y-172996657D01*
X237505714Y-172996657D02*
X237277143Y-172996657D01*
X237820000Y-172682371D02*
X238220000Y-172682371D01*
X238220000Y-172682371D02*
X237962857Y-173282371D01*
X228982857Y-152752371D02*
X228982857Y-153238085D01*
X228982857Y-153238085D02*
X229011428Y-153295228D01*
X229011428Y-153295228D02*
X229040000Y-153323800D01*
X229040000Y-153323800D02*
X229097142Y-153352371D01*
X229097142Y-153352371D02*
X229211428Y-153352371D01*
X229211428Y-153352371D02*
X229268571Y-153323800D01*
X229268571Y-153323800D02*
X229297142Y-153295228D01*
X229297142Y-153295228D02*
X229325714Y-153238085D01*
X229325714Y-153238085D02*
X229325714Y-152752371D01*
X229554285Y-152752371D02*
X229925713Y-152752371D01*
X229925713Y-152752371D02*
X229725713Y-152980942D01*
X229725713Y-152980942D02*
X229811428Y-152980942D01*
X229811428Y-152980942D02*
X229868571Y-153009514D01*
X229868571Y-153009514D02*
X229897142Y-153038085D01*
X229897142Y-153038085D02*
X229925713Y-153095228D01*
X229925713Y-153095228D02*
X229925713Y-153238085D01*
X229925713Y-153238085D02*
X229897142Y-153295228D01*
X229897142Y-153295228D02*
X229868571Y-153323800D01*
X229868571Y-153323800D02*
X229811428Y-153352371D01*
X229811428Y-153352371D02*
X229639999Y-153352371D01*
X229639999Y-153352371D02*
X229582856Y-153323800D01*
X229582856Y-153323800D02*
X229554285Y-153295228D01*
X235234285Y-154292371D02*
X235034285Y-154006657D01*
X234891428Y-154292371D02*
X234891428Y-153692371D01*
X234891428Y-153692371D02*
X235119999Y-153692371D01*
X235119999Y-153692371D02*
X235177142Y-153720942D01*
X235177142Y-153720942D02*
X235205713Y-153749514D01*
X235205713Y-153749514D02*
X235234285Y-153806657D01*
X235234285Y-153806657D02*
X235234285Y-153892371D01*
X235234285Y-153892371D02*
X235205713Y-153949514D01*
X235205713Y-153949514D02*
X235177142Y-153978085D01*
X235177142Y-153978085D02*
X235119999Y-154006657D01*
X235119999Y-154006657D02*
X234891428Y-154006657D01*
X235462856Y-153749514D02*
X235491428Y-153720942D01*
X235491428Y-153720942D02*
X235548571Y-153692371D01*
X235548571Y-153692371D02*
X235691428Y-153692371D01*
X235691428Y-153692371D02*
X235748571Y-153720942D01*
X235748571Y-153720942D02*
X235777142Y-153749514D01*
X235777142Y-153749514D02*
X235805713Y-153806657D01*
X235805713Y-153806657D02*
X235805713Y-153863800D01*
X235805713Y-153863800D02*
X235777142Y-153949514D01*
X235777142Y-153949514D02*
X235434285Y-154292371D01*
X235434285Y-154292371D02*
X235805713Y-154292371D01*
X236377142Y-154292371D02*
X236034285Y-154292371D01*
X236205714Y-154292371D02*
X236205714Y-153692371D01*
X236205714Y-153692371D02*
X236148571Y-153778085D01*
X236148571Y-153778085D02*
X236091428Y-153835228D01*
X236091428Y-153835228D02*
X236034285Y-153863800D01*
X237277143Y-140662371D02*
X237277143Y-140062371D01*
X237277143Y-140062371D02*
X237505714Y-140062371D01*
X237505714Y-140062371D02*
X237562857Y-140090942D01*
X237562857Y-140090942D02*
X237591428Y-140119514D01*
X237591428Y-140119514D02*
X237620000Y-140176657D01*
X237620000Y-140176657D02*
X237620000Y-140262371D01*
X237620000Y-140262371D02*
X237591428Y-140319514D01*
X237591428Y-140319514D02*
X237562857Y-140348085D01*
X237562857Y-140348085D02*
X237505714Y-140376657D01*
X237505714Y-140376657D02*
X237277143Y-140376657D01*
X238162857Y-140062371D02*
X237877143Y-140062371D01*
X237877143Y-140062371D02*
X237848571Y-140348085D01*
X237848571Y-140348085D02*
X237877143Y-140319514D01*
X237877143Y-140319514D02*
X237934286Y-140290942D01*
X237934286Y-140290942D02*
X238077143Y-140290942D01*
X238077143Y-140290942D02*
X238134286Y-140319514D01*
X238134286Y-140319514D02*
X238162857Y-140348085D01*
X238162857Y-140348085D02*
X238191428Y-140405228D01*
X238191428Y-140405228D02*
X238191428Y-140548085D01*
X238191428Y-140548085D02*
X238162857Y-140605228D01*
X238162857Y-140605228D02*
X238134286Y-140633800D01*
X238134286Y-140633800D02*
X238077143Y-140662371D01*
X238077143Y-140662371D02*
X237934286Y-140662371D01*
X237934286Y-140662371D02*
X237877143Y-140633800D01*
X237877143Y-140633800D02*
X237848571Y-140605228D01*
X203340000Y-140695228D02*
X203311428Y-140723800D01*
X203311428Y-140723800D02*
X203225714Y-140752371D01*
X203225714Y-140752371D02*
X203168571Y-140752371D01*
X203168571Y-140752371D02*
X203082857Y-140723800D01*
X203082857Y-140723800D02*
X203025714Y-140666657D01*
X203025714Y-140666657D02*
X202997143Y-140609514D01*
X202997143Y-140609514D02*
X202968571Y-140495228D01*
X202968571Y-140495228D02*
X202968571Y-140409514D01*
X202968571Y-140409514D02*
X202997143Y-140295228D01*
X202997143Y-140295228D02*
X203025714Y-140238085D01*
X203025714Y-140238085D02*
X203082857Y-140180942D01*
X203082857Y-140180942D02*
X203168571Y-140152371D01*
X203168571Y-140152371D02*
X203225714Y-140152371D01*
X203225714Y-140152371D02*
X203311428Y-140180942D01*
X203311428Y-140180942D02*
X203340000Y-140209514D01*
X203882857Y-140152371D02*
X203597143Y-140152371D01*
X203597143Y-140152371D02*
X203568571Y-140438085D01*
X203568571Y-140438085D02*
X203597143Y-140409514D01*
X203597143Y-140409514D02*
X203654286Y-140380942D01*
X203654286Y-140380942D02*
X203797143Y-140380942D01*
X203797143Y-140380942D02*
X203854286Y-140409514D01*
X203854286Y-140409514D02*
X203882857Y-140438085D01*
X203882857Y-140438085D02*
X203911428Y-140495228D01*
X203911428Y-140495228D02*
X203911428Y-140638085D01*
X203911428Y-140638085D02*
X203882857Y-140695228D01*
X203882857Y-140695228D02*
X203854286Y-140723800D01*
X203854286Y-140723800D02*
X203797143Y-140752371D01*
X203797143Y-140752371D02*
X203654286Y-140752371D01*
X203654286Y-140752371D02*
X203597143Y-140723800D01*
X203597143Y-140723800D02*
X203568571Y-140695228D01*
X229740000Y-148675228D02*
X229711428Y-148703800D01*
X229711428Y-148703800D02*
X229625714Y-148732371D01*
X229625714Y-148732371D02*
X229568571Y-148732371D01*
X229568571Y-148732371D02*
X229482857Y-148703800D01*
X229482857Y-148703800D02*
X229425714Y-148646657D01*
X229425714Y-148646657D02*
X229397143Y-148589514D01*
X229397143Y-148589514D02*
X229368571Y-148475228D01*
X229368571Y-148475228D02*
X229368571Y-148389514D01*
X229368571Y-148389514D02*
X229397143Y-148275228D01*
X229397143Y-148275228D02*
X229425714Y-148218085D01*
X229425714Y-148218085D02*
X229482857Y-148160942D01*
X229482857Y-148160942D02*
X229568571Y-148132371D01*
X229568571Y-148132371D02*
X229625714Y-148132371D01*
X229625714Y-148132371D02*
X229711428Y-148160942D01*
X229711428Y-148160942D02*
X229740000Y-148189514D01*
X230254286Y-148132371D02*
X230140000Y-148132371D01*
X230140000Y-148132371D02*
X230082857Y-148160942D01*
X230082857Y-148160942D02*
X230054286Y-148189514D01*
X230054286Y-148189514D02*
X229997143Y-148275228D01*
X229997143Y-148275228D02*
X229968571Y-148389514D01*
X229968571Y-148389514D02*
X229968571Y-148618085D01*
X229968571Y-148618085D02*
X229997143Y-148675228D01*
X229997143Y-148675228D02*
X230025714Y-148703800D01*
X230025714Y-148703800D02*
X230082857Y-148732371D01*
X230082857Y-148732371D02*
X230197143Y-148732371D01*
X230197143Y-148732371D02*
X230254286Y-148703800D01*
X230254286Y-148703800D02*
X230282857Y-148675228D01*
X230282857Y-148675228D02*
X230311428Y-148618085D01*
X230311428Y-148618085D02*
X230311428Y-148475228D01*
X230311428Y-148475228D02*
X230282857Y-148418085D01*
X230282857Y-148418085D02*
X230254286Y-148389514D01*
X230254286Y-148389514D02*
X230197143Y-148360942D01*
X230197143Y-148360942D02*
X230082857Y-148360942D01*
X230082857Y-148360942D02*
X230025714Y-148389514D01*
X230025714Y-148389514D02*
X229997143Y-148418085D01*
X229997143Y-148418085D02*
X229968571Y-148475228D01*
X234077143Y-103602371D02*
X234077143Y-103002371D01*
X234077143Y-103002371D02*
X234220000Y-103002371D01*
X234220000Y-103002371D02*
X234305714Y-103030942D01*
X234305714Y-103030942D02*
X234362857Y-103088085D01*
X234362857Y-103088085D02*
X234391428Y-103145228D01*
X234391428Y-103145228D02*
X234420000Y-103259514D01*
X234420000Y-103259514D02*
X234420000Y-103345228D01*
X234420000Y-103345228D02*
X234391428Y-103459514D01*
X234391428Y-103459514D02*
X234362857Y-103516657D01*
X234362857Y-103516657D02*
X234305714Y-103573800D01*
X234305714Y-103573800D02*
X234220000Y-103602371D01*
X234220000Y-103602371D02*
X234077143Y-103602371D01*
X234648571Y-103059514D02*
X234677143Y-103030942D01*
X234677143Y-103030942D02*
X234734286Y-103002371D01*
X234734286Y-103002371D02*
X234877143Y-103002371D01*
X234877143Y-103002371D02*
X234934286Y-103030942D01*
X234934286Y-103030942D02*
X234962857Y-103059514D01*
X234962857Y-103059514D02*
X234991428Y-103116657D01*
X234991428Y-103116657D02*
X234991428Y-103173800D01*
X234991428Y-103173800D02*
X234962857Y-103259514D01*
X234962857Y-103259514D02*
X234620000Y-103602371D01*
X234620000Y-103602371D02*
X234991428Y-103602371D01*
X235804285Y-119822371D02*
X235804285Y-120250942D01*
X235804285Y-120250942D02*
X235775714Y-120336657D01*
X235775714Y-120336657D02*
X235718571Y-120393800D01*
X235718571Y-120393800D02*
X235632857Y-120422371D01*
X235632857Y-120422371D02*
X235575714Y-120422371D01*
X236404285Y-120422371D02*
X236061428Y-120422371D01*
X236232857Y-120422371D02*
X236232857Y-119822371D01*
X236232857Y-119822371D02*
X236175714Y-119908085D01*
X236175714Y-119908085D02*
X236118571Y-119965228D01*
X236118571Y-119965228D02*
X236061428Y-119993800D01*
X236775714Y-119822371D02*
X236832857Y-119822371D01*
X236832857Y-119822371D02*
X236890000Y-119850942D01*
X236890000Y-119850942D02*
X236918572Y-119879514D01*
X236918572Y-119879514D02*
X236947143Y-119936657D01*
X236947143Y-119936657D02*
X236975714Y-120050942D01*
X236975714Y-120050942D02*
X236975714Y-120193800D01*
X236975714Y-120193800D02*
X236947143Y-120308085D01*
X236947143Y-120308085D02*
X236918572Y-120365228D01*
X236918572Y-120365228D02*
X236890000Y-120393800D01*
X236890000Y-120393800D02*
X236832857Y-120422371D01*
X236832857Y-120422371D02*
X236775714Y-120422371D01*
X236775714Y-120422371D02*
X236718572Y-120393800D01*
X236718572Y-120393800D02*
X236690000Y-120365228D01*
X236690000Y-120365228D02*
X236661429Y-120308085D01*
X236661429Y-120308085D02*
X236632857Y-120193800D01*
X236632857Y-120193800D02*
X236632857Y-120050942D01*
X236632857Y-120050942D02*
X236661429Y-119936657D01*
X236661429Y-119936657D02*
X236690000Y-119879514D01*
X236690000Y-119879514D02*
X236718572Y-119850942D01*
X236718572Y-119850942D02*
X236775714Y-119822371D01*
X209517143Y-103562371D02*
X209517143Y-102962371D01*
X209517143Y-102962371D02*
X209745714Y-102962371D01*
X209745714Y-102962371D02*
X209802857Y-102990942D01*
X209802857Y-102990942D02*
X209831428Y-103019514D01*
X209831428Y-103019514D02*
X209860000Y-103076657D01*
X209860000Y-103076657D02*
X209860000Y-103162371D01*
X209860000Y-103162371D02*
X209831428Y-103219514D01*
X209831428Y-103219514D02*
X209802857Y-103248085D01*
X209802857Y-103248085D02*
X209745714Y-103276657D01*
X209745714Y-103276657D02*
X209517143Y-103276657D01*
X210088571Y-103019514D02*
X210117143Y-102990942D01*
X210117143Y-102990942D02*
X210174286Y-102962371D01*
X210174286Y-102962371D02*
X210317143Y-102962371D01*
X210317143Y-102962371D02*
X210374286Y-102990942D01*
X210374286Y-102990942D02*
X210402857Y-103019514D01*
X210402857Y-103019514D02*
X210431428Y-103076657D01*
X210431428Y-103076657D02*
X210431428Y-103133800D01*
X210431428Y-103133800D02*
X210402857Y-103219514D01*
X210402857Y-103219514D02*
X210060000Y-103562371D01*
X210060000Y-103562371D02*
X210431428Y-103562371D01*
X239004285Y-159152371D02*
X238804285Y-158866657D01*
X238661428Y-159152371D02*
X238661428Y-158552371D01*
X238661428Y-158552371D02*
X238889999Y-158552371D01*
X238889999Y-158552371D02*
X238947142Y-158580942D01*
X238947142Y-158580942D02*
X238975713Y-158609514D01*
X238975713Y-158609514D02*
X239004285Y-158666657D01*
X239004285Y-158666657D02*
X239004285Y-158752371D01*
X239004285Y-158752371D02*
X238975713Y-158809514D01*
X238975713Y-158809514D02*
X238947142Y-158838085D01*
X238947142Y-158838085D02*
X238889999Y-158866657D01*
X238889999Y-158866657D02*
X238661428Y-158866657D01*
X239232856Y-158609514D02*
X239261428Y-158580942D01*
X239261428Y-158580942D02*
X239318571Y-158552371D01*
X239318571Y-158552371D02*
X239461428Y-158552371D01*
X239461428Y-158552371D02*
X239518571Y-158580942D01*
X239518571Y-158580942D02*
X239547142Y-158609514D01*
X239547142Y-158609514D02*
X239575713Y-158666657D01*
X239575713Y-158666657D02*
X239575713Y-158723800D01*
X239575713Y-158723800D02*
X239547142Y-158809514D01*
X239547142Y-158809514D02*
X239204285Y-159152371D01*
X239204285Y-159152371D02*
X239575713Y-159152371D01*
X239804285Y-158609514D02*
X239832857Y-158580942D01*
X239832857Y-158580942D02*
X239890000Y-158552371D01*
X239890000Y-158552371D02*
X240032857Y-158552371D01*
X240032857Y-158552371D02*
X240090000Y-158580942D01*
X240090000Y-158580942D02*
X240118571Y-158609514D01*
X240118571Y-158609514D02*
X240147142Y-158666657D01*
X240147142Y-158666657D02*
X240147142Y-158723800D01*
X240147142Y-158723800D02*
X240118571Y-158809514D01*
X240118571Y-158809514D02*
X239775714Y-159152371D01*
X239775714Y-159152371D02*
X240147142Y-159152371D01*
X211770000Y-107775228D02*
X211741428Y-107803800D01*
X211741428Y-107803800D02*
X211655714Y-107832371D01*
X211655714Y-107832371D02*
X211598571Y-107832371D01*
X211598571Y-107832371D02*
X211512857Y-107803800D01*
X211512857Y-107803800D02*
X211455714Y-107746657D01*
X211455714Y-107746657D02*
X211427143Y-107689514D01*
X211427143Y-107689514D02*
X211398571Y-107575228D01*
X211398571Y-107575228D02*
X211398571Y-107489514D01*
X211398571Y-107489514D02*
X211427143Y-107375228D01*
X211427143Y-107375228D02*
X211455714Y-107318085D01*
X211455714Y-107318085D02*
X211512857Y-107260942D01*
X211512857Y-107260942D02*
X211598571Y-107232371D01*
X211598571Y-107232371D02*
X211655714Y-107232371D01*
X211655714Y-107232371D02*
X211741428Y-107260942D01*
X211741428Y-107260942D02*
X211770000Y-107289514D01*
X212112857Y-107489514D02*
X212055714Y-107460942D01*
X212055714Y-107460942D02*
X212027143Y-107432371D01*
X212027143Y-107432371D02*
X211998571Y-107375228D01*
X211998571Y-107375228D02*
X211998571Y-107346657D01*
X211998571Y-107346657D02*
X212027143Y-107289514D01*
X212027143Y-107289514D02*
X212055714Y-107260942D01*
X212055714Y-107260942D02*
X212112857Y-107232371D01*
X212112857Y-107232371D02*
X212227143Y-107232371D01*
X212227143Y-107232371D02*
X212284286Y-107260942D01*
X212284286Y-107260942D02*
X212312857Y-107289514D01*
X212312857Y-107289514D02*
X212341428Y-107346657D01*
X212341428Y-107346657D02*
X212341428Y-107375228D01*
X212341428Y-107375228D02*
X212312857Y-107432371D01*
X212312857Y-107432371D02*
X212284286Y-107460942D01*
X212284286Y-107460942D02*
X212227143Y-107489514D01*
X212227143Y-107489514D02*
X212112857Y-107489514D01*
X212112857Y-107489514D02*
X212055714Y-107518085D01*
X212055714Y-107518085D02*
X212027143Y-107546657D01*
X212027143Y-107546657D02*
X211998571Y-107603800D01*
X211998571Y-107603800D02*
X211998571Y-107718085D01*
X211998571Y-107718085D02*
X212027143Y-107775228D01*
X212027143Y-107775228D02*
X212055714Y-107803800D01*
X212055714Y-107803800D02*
X212112857Y-107832371D01*
X212112857Y-107832371D02*
X212227143Y-107832371D01*
X212227143Y-107832371D02*
X212284286Y-107803800D01*
X212284286Y-107803800D02*
X212312857Y-107775228D01*
X212312857Y-107775228D02*
X212341428Y-107718085D01*
X212341428Y-107718085D02*
X212341428Y-107603800D01*
X212341428Y-107603800D02*
X212312857Y-107546657D01*
X212312857Y-107546657D02*
X212284286Y-107518085D01*
X212284286Y-107518085D02*
X212227143Y-107489514D01*
X225820000Y-156822371D02*
X225534286Y-156822371D01*
X225534286Y-156822371D02*
X225534286Y-156222371D01*
X226334285Y-156822371D02*
X225991428Y-156822371D01*
X226162857Y-156822371D02*
X226162857Y-156222371D01*
X226162857Y-156222371D02*
X226105714Y-156308085D01*
X226105714Y-156308085D02*
X226048571Y-156365228D01*
X226048571Y-156365228D02*
X225991428Y-156393800D01*
X208584285Y-137422371D02*
X208384285Y-137136657D01*
X208241428Y-137422371D02*
X208241428Y-136822371D01*
X208241428Y-136822371D02*
X208469999Y-136822371D01*
X208469999Y-136822371D02*
X208527142Y-136850942D01*
X208527142Y-136850942D02*
X208555713Y-136879514D01*
X208555713Y-136879514D02*
X208584285Y-136936657D01*
X208584285Y-136936657D02*
X208584285Y-137022371D01*
X208584285Y-137022371D02*
X208555713Y-137079514D01*
X208555713Y-137079514D02*
X208527142Y-137108085D01*
X208527142Y-137108085D02*
X208469999Y-137136657D01*
X208469999Y-137136657D02*
X208241428Y-137136657D01*
X209155713Y-137422371D02*
X208812856Y-137422371D01*
X208984285Y-137422371D02*
X208984285Y-136822371D01*
X208984285Y-136822371D02*
X208927142Y-136908085D01*
X208927142Y-136908085D02*
X208869999Y-136965228D01*
X208869999Y-136965228D02*
X208812856Y-136993800D01*
X209670000Y-137022371D02*
X209670000Y-137422371D01*
X209527142Y-136793800D02*
X209384285Y-137222371D01*
X209384285Y-137222371D02*
X209755714Y-137222371D01*
X234420000Y-107212371D02*
X234220000Y-106926657D01*
X234077143Y-107212371D02*
X234077143Y-106612371D01*
X234077143Y-106612371D02*
X234305714Y-106612371D01*
X234305714Y-106612371D02*
X234362857Y-106640942D01*
X234362857Y-106640942D02*
X234391428Y-106669514D01*
X234391428Y-106669514D02*
X234420000Y-106726657D01*
X234420000Y-106726657D02*
X234420000Y-106812371D01*
X234420000Y-106812371D02*
X234391428Y-106869514D01*
X234391428Y-106869514D02*
X234362857Y-106898085D01*
X234362857Y-106898085D02*
X234305714Y-106926657D01*
X234305714Y-106926657D02*
X234077143Y-106926657D01*
X234620000Y-106612371D02*
X234991428Y-106612371D01*
X234991428Y-106612371D02*
X234791428Y-106840942D01*
X234791428Y-106840942D02*
X234877143Y-106840942D01*
X234877143Y-106840942D02*
X234934286Y-106869514D01*
X234934286Y-106869514D02*
X234962857Y-106898085D01*
X234962857Y-106898085D02*
X234991428Y-106955228D01*
X234991428Y-106955228D02*
X234991428Y-107098085D01*
X234991428Y-107098085D02*
X234962857Y-107155228D01*
X234962857Y-107155228D02*
X234934286Y-107183800D01*
X234934286Y-107183800D02*
X234877143Y-107212371D01*
X234877143Y-107212371D02*
X234705714Y-107212371D01*
X234705714Y-107212371D02*
X234648571Y-107183800D01*
X234648571Y-107183800D02*
X234620000Y-107155228D01*
X202227143Y-117462371D02*
X202227143Y-116862371D01*
X202227143Y-116862371D02*
X202455714Y-116862371D01*
X202455714Y-116862371D02*
X202512857Y-116890942D01*
X202512857Y-116890942D02*
X202541428Y-116919514D01*
X202541428Y-116919514D02*
X202570000Y-116976657D01*
X202570000Y-116976657D02*
X202570000Y-117062371D01*
X202570000Y-117062371D02*
X202541428Y-117119514D01*
X202541428Y-117119514D02*
X202512857Y-117148085D01*
X202512857Y-117148085D02*
X202455714Y-117176657D01*
X202455714Y-117176657D02*
X202227143Y-117176657D01*
X203141428Y-117462371D02*
X202798571Y-117462371D01*
X202970000Y-117462371D02*
X202970000Y-116862371D01*
X202970000Y-116862371D02*
X202912857Y-116948085D01*
X202912857Y-116948085D02*
X202855714Y-117005228D01*
X202855714Y-117005228D02*
X202798571Y-117033800D01*
X222220000Y-167215228D02*
X222191428Y-167243800D01*
X222191428Y-167243800D02*
X222105714Y-167272371D01*
X222105714Y-167272371D02*
X222048571Y-167272371D01*
X222048571Y-167272371D02*
X221962857Y-167243800D01*
X221962857Y-167243800D02*
X221905714Y-167186657D01*
X221905714Y-167186657D02*
X221877143Y-167129514D01*
X221877143Y-167129514D02*
X221848571Y-167015228D01*
X221848571Y-167015228D02*
X221848571Y-166929514D01*
X221848571Y-166929514D02*
X221877143Y-166815228D01*
X221877143Y-166815228D02*
X221905714Y-166758085D01*
X221905714Y-166758085D02*
X221962857Y-166700942D01*
X221962857Y-166700942D02*
X222048571Y-166672371D01*
X222048571Y-166672371D02*
X222105714Y-166672371D01*
X222105714Y-166672371D02*
X222191428Y-166700942D01*
X222191428Y-166700942D02*
X222220000Y-166729514D01*
X222448571Y-166729514D02*
X222477143Y-166700942D01*
X222477143Y-166700942D02*
X222534286Y-166672371D01*
X222534286Y-166672371D02*
X222677143Y-166672371D01*
X222677143Y-166672371D02*
X222734286Y-166700942D01*
X222734286Y-166700942D02*
X222762857Y-166729514D01*
X222762857Y-166729514D02*
X222791428Y-166786657D01*
X222791428Y-166786657D02*
X222791428Y-166843800D01*
X222791428Y-166843800D02*
X222762857Y-166929514D01*
X222762857Y-166929514D02*
X222420000Y-167272371D01*
X222420000Y-167272371D02*
X222791428Y-167272371D01*
X219570000Y-154405228D02*
X219541428Y-154433800D01*
X219541428Y-154433800D02*
X219455714Y-154462371D01*
X219455714Y-154462371D02*
X219398571Y-154462371D01*
X219398571Y-154462371D02*
X219312857Y-154433800D01*
X219312857Y-154433800D02*
X219255714Y-154376657D01*
X219255714Y-154376657D02*
X219227143Y-154319514D01*
X219227143Y-154319514D02*
X219198571Y-154205228D01*
X219198571Y-154205228D02*
X219198571Y-154119514D01*
X219198571Y-154119514D02*
X219227143Y-154005228D01*
X219227143Y-154005228D02*
X219255714Y-153948085D01*
X219255714Y-153948085D02*
X219312857Y-153890942D01*
X219312857Y-153890942D02*
X219398571Y-153862371D01*
X219398571Y-153862371D02*
X219455714Y-153862371D01*
X219455714Y-153862371D02*
X219541428Y-153890942D01*
X219541428Y-153890942D02*
X219570000Y-153919514D01*
X219770000Y-153862371D02*
X220141428Y-153862371D01*
X220141428Y-153862371D02*
X219941428Y-154090942D01*
X219941428Y-154090942D02*
X220027143Y-154090942D01*
X220027143Y-154090942D02*
X220084286Y-154119514D01*
X220084286Y-154119514D02*
X220112857Y-154148085D01*
X220112857Y-154148085D02*
X220141428Y-154205228D01*
X220141428Y-154205228D02*
X220141428Y-154348085D01*
X220141428Y-154348085D02*
X220112857Y-154405228D01*
X220112857Y-154405228D02*
X220084286Y-154433800D01*
X220084286Y-154433800D02*
X220027143Y-154462371D01*
X220027143Y-154462371D02*
X219855714Y-154462371D01*
X219855714Y-154462371D02*
X219798571Y-154433800D01*
X219798571Y-154433800D02*
X219770000Y-154405228D01*
X219110000Y-109082371D02*
X218910000Y-108796657D01*
X218767143Y-109082371D02*
X218767143Y-108482371D01*
X218767143Y-108482371D02*
X218995714Y-108482371D01*
X218995714Y-108482371D02*
X219052857Y-108510942D01*
X219052857Y-108510942D02*
X219081428Y-108539514D01*
X219081428Y-108539514D02*
X219110000Y-108596657D01*
X219110000Y-108596657D02*
X219110000Y-108682371D01*
X219110000Y-108682371D02*
X219081428Y-108739514D01*
X219081428Y-108739514D02*
X219052857Y-108768085D01*
X219052857Y-108768085D02*
X218995714Y-108796657D01*
X218995714Y-108796657D02*
X218767143Y-108796657D01*
X219452857Y-108739514D02*
X219395714Y-108710942D01*
X219395714Y-108710942D02*
X219367143Y-108682371D01*
X219367143Y-108682371D02*
X219338571Y-108625228D01*
X219338571Y-108625228D02*
X219338571Y-108596657D01*
X219338571Y-108596657D02*
X219367143Y-108539514D01*
X219367143Y-108539514D02*
X219395714Y-108510942D01*
X219395714Y-108510942D02*
X219452857Y-108482371D01*
X219452857Y-108482371D02*
X219567143Y-108482371D01*
X219567143Y-108482371D02*
X219624286Y-108510942D01*
X219624286Y-108510942D02*
X219652857Y-108539514D01*
X219652857Y-108539514D02*
X219681428Y-108596657D01*
X219681428Y-108596657D02*
X219681428Y-108625228D01*
X219681428Y-108625228D02*
X219652857Y-108682371D01*
X219652857Y-108682371D02*
X219624286Y-108710942D01*
X219624286Y-108710942D02*
X219567143Y-108739514D01*
X219567143Y-108739514D02*
X219452857Y-108739514D01*
X219452857Y-108739514D02*
X219395714Y-108768085D01*
X219395714Y-108768085D02*
X219367143Y-108796657D01*
X219367143Y-108796657D02*
X219338571Y-108853800D01*
X219338571Y-108853800D02*
X219338571Y-108968085D01*
X219338571Y-108968085D02*
X219367143Y-109025228D01*
X219367143Y-109025228D02*
X219395714Y-109053800D01*
X219395714Y-109053800D02*
X219452857Y-109082371D01*
X219452857Y-109082371D02*
X219567143Y-109082371D01*
X219567143Y-109082371D02*
X219624286Y-109053800D01*
X219624286Y-109053800D02*
X219652857Y-109025228D01*
X219652857Y-109025228D02*
X219681428Y-108968085D01*
X219681428Y-108968085D02*
X219681428Y-108853800D01*
X219681428Y-108853800D02*
X219652857Y-108796657D01*
X219652857Y-108796657D02*
X219624286Y-108768085D01*
X219624286Y-108768085D02*
X219567143Y-108739514D01*
D11*
%TO.C,R1*%
X222667064Y-155965000D02*
X222212936Y-155965000D01*
X222667064Y-157435000D02*
X222212936Y-157435000D01*
%TO.C,TP3*%
X240380000Y-151780000D02*
G75*
G03*
X238480000Y-151780000I-950000J0D01*
G01*
X238480000Y-151780000D02*
G75*
G03*
X240380000Y-151780000I950000J0D01*
G01*
%TO.C,D1*%
X223280000Y-152380000D02*
X223280000Y-151450000D01*
X223280000Y-149220000D02*
X223280000Y-150150000D01*
X223280000Y-152380000D02*
X221820000Y-152380000D01*
X223280000Y-149220000D02*
X221120000Y-149220000D01*
%TO.C,C4*%
X236778748Y-162735000D02*
X237301252Y-162735000D01*
X236778748Y-161265000D02*
X237301252Y-161265000D01*
%TO.C,C1*%
X208628748Y-108575000D02*
X209151252Y-108575000D01*
X208628748Y-107105000D02*
X209151252Y-107105000D01*
%TO.C,R7*%
X222407064Y-107645000D02*
X221952936Y-107645000D01*
X222407064Y-106175000D02*
X221952936Y-106175000D01*
%TO.C,TP5*%
X202990000Y-127380000D02*
G75*
G03*
X201090000Y-127380000I-950000J0D01*
G01*
X201090000Y-127380000D02*
G75*
G03*
X202990000Y-127380000I950000J0D01*
G01*
D12*
%TO.C,P3*%
X220208121Y-117866600D02*
X234303000Y-117866600D01*
X234303000Y-134656000D02*
X220236500Y-134656000D01*
X234303000Y-134656000D02*
X234303000Y-117866600D01*
X220208121Y-134656000D02*
X220208121Y-117866600D01*
D11*
%TO.C,R4*%
X237022936Y-109095000D02*
X237477064Y-109095000D01*
X237022936Y-110565000D02*
X237477064Y-110565000D01*
%TO.C,P6*%
X233930000Y-136350000D02*
X216090000Y-136350000D01*
X233930000Y-139010000D02*
X216090000Y-139010000D01*
X235200000Y-136350000D02*
X236530000Y-136350000D01*
X236530000Y-136350000D02*
X236530000Y-137680000D01*
X216090000Y-136350000D02*
X216090000Y-139010000D01*
X233930000Y-136350000D02*
X233930000Y-139010000D01*
%TO.C,TP2*%
X240440000Y-146720000D02*
G75*
G03*
X238540000Y-146720000I-950000J0D01*
G01*
X238540000Y-146720000D02*
G75*
G03*
X240440000Y-146720000I950000J0D01*
G01*
%TO.C,R10*%
X211907064Y-140475000D02*
X211452936Y-140475000D01*
X211907064Y-139005000D02*
X211452936Y-139005000D01*
%TO.C,C7*%
X232338748Y-152625000D02*
X232861252Y-152625000D01*
X232338748Y-151155000D02*
X232861252Y-151155000D01*
%TO.C,TP4*%
X240300000Y-171050000D02*
G75*
G03*
X238400000Y-171050000I-950000J0D01*
G01*
X238400000Y-171050000D02*
G75*
G03*
X240300000Y-171050000I950000J0D01*
G01*
%TO.C,P7*%
X236530000Y-173990000D02*
X236530000Y-175320000D01*
X233930000Y-173990000D02*
X233930000Y-176650000D01*
X233930000Y-173990000D02*
X223710000Y-173990000D01*
X233930000Y-176650000D02*
X223710000Y-176650000D01*
X223710000Y-173990000D02*
X223710000Y-176650000D01*
X235200000Y-173990000D02*
X236530000Y-173990000D01*
D12*
%TO.C,U3*%
X228460000Y-153750000D02*
X231260000Y-153750000D01*
X231260000Y-153750000D02*
X231260000Y-155950000D01*
X231260000Y-155950000D02*
X228460000Y-155950000D01*
X228460000Y-155950000D02*
X228460000Y-153750000D01*
D13*
X228158848Y-154260000D02*
G75*
G03*
X227921152Y-154260000I-118848J0D01*
G01*
X227921152Y-154260000D02*
G75*
G03*
X228158848Y-154260000I118848J0D01*
G01*
D11*
%TO.C,R21*%
X236987064Y-156375000D02*
X236532936Y-156375000D01*
X236987064Y-154905000D02*
X236532936Y-154905000D01*
%TO.C,P5*%
X235200000Y-139140000D02*
X236530000Y-139140000D01*
X236530000Y-139140000D02*
X236530000Y-140470000D01*
X233930000Y-141800000D02*
X216090000Y-141800000D01*
X216090000Y-139140000D02*
X216090000Y-141800000D01*
X233930000Y-139140000D02*
X233930000Y-141800000D01*
X233930000Y-139140000D02*
X216090000Y-139140000D01*
%TO.C,C5*%
X206501252Y-139395000D02*
X205978748Y-139395000D01*
X206501252Y-140865000D02*
X205978748Y-140865000D01*
%TO.C,C6*%
X232288748Y-150125000D02*
X232811252Y-150125000D01*
X232288748Y-148655000D02*
X232811252Y-148655000D01*
%TO.C,D2*%
X238120000Y-105430000D02*
X236660000Y-105430000D01*
X238120000Y-102270000D02*
X235960000Y-102270000D01*
X238120000Y-102270000D02*
X238120000Y-103200000D01*
X238120000Y-105430000D02*
X238120000Y-104500000D01*
%TO.C,J10*%
X235460000Y-122800000D02*
X235460000Y-121470000D01*
X240660000Y-121470000D02*
X240660000Y-134290000D01*
X235460000Y-124070000D02*
X238060000Y-124070000D01*
X235460000Y-121470000D02*
X236790000Y-121470000D01*
X235460000Y-124070000D02*
X235460000Y-134290000D01*
X238060000Y-121470000D02*
X240660000Y-121470000D01*
X238060000Y-124070000D02*
X238060000Y-121470000D01*
X235460000Y-134290000D02*
X240660000Y-134290000D01*
%TO.C,P2*%
X214660000Y-104720000D02*
X222340000Y-104720000D01*
X222340000Y-104720000D02*
X222340000Y-102060000D01*
X212060000Y-104720000D02*
X212060000Y-103390000D01*
X214660000Y-104720000D02*
X214660000Y-102060000D01*
X213390000Y-104720000D02*
X212060000Y-104720000D01*
X214660000Y-102060000D02*
X222340000Y-102060000D01*
%TO.C,R22*%
X236452936Y-158165000D02*
X236907064Y-158165000D01*
X236452936Y-159635000D02*
X236907064Y-159635000D01*
%TO.C,TP1*%
X202990000Y-119730000D02*
G75*
G03*
X201090000Y-119730000I-950000J0D01*
G01*
X201090000Y-119730000D02*
G75*
G03*
X202990000Y-119730000I950000J0D01*
G01*
%TO.C,TP6*%
X240720000Y-112850000D02*
G75*
G03*
X238820000Y-112850000I-950000J0D01*
G01*
X238820000Y-112850000D02*
G75*
G03*
X240720000Y-112850000I950000J0D01*
G01*
%TO.C,C8*%
X214651252Y-107455000D02*
X214128748Y-107455000D01*
X214651252Y-105985000D02*
X214128748Y-105985000D01*
D12*
%TO.C,L1*%
X225160000Y-157440000D02*
X226560000Y-157440000D01*
X231360000Y-157440000D02*
X231360000Y-162840000D01*
X225160000Y-162840000D02*
X225160000Y-157440000D01*
X229960000Y-157440000D02*
X231360000Y-157440000D01*
X229960000Y-162840000D02*
X231360000Y-162840000D01*
X225160000Y-162840000D02*
X226560000Y-162840000D01*
D11*
%TO.C,R14*%
X211957064Y-137785000D02*
X211502936Y-137785000D01*
X211957064Y-136315000D02*
X211502936Y-136315000D01*
%TO.C,R3*%
X237052936Y-108275000D02*
X237507064Y-108275000D01*
X237052936Y-106805000D02*
X237507064Y-106805000D01*
D12*
%TO.C,P1*%
X206272500Y-116440000D02*
X199772500Y-116440000D01*
X206272500Y-106440000D02*
X206272500Y-116440000D01*
X206272500Y-106440000D02*
X199772500Y-106440000D01*
D11*
%TO.C,C2*%
X225071252Y-167565000D02*
X224548748Y-167565000D01*
X225071252Y-166095000D02*
X224548748Y-166095000D01*
%TO.C,C3*%
X222701252Y-153395000D02*
X222178748Y-153395000D01*
X222701252Y-154865000D02*
X222178748Y-154865000D01*
%TO.C,R8*%
X218022936Y-106115000D02*
X218477064Y-106115000D01*
X218022936Y-107585000D02*
X218477064Y-107585000D01*
D12*
%TO.C,JP1*%
X224216250Y-133253750D02*
X224216250Y-133753750D01*
X223616250Y-133753750D02*
X223616250Y-133253750D01*
X224216250Y-128753750D02*
X223616250Y-128753750D01*
X224216250Y-133753750D02*
X223616250Y-133753750D01*
X224216250Y-129153750D02*
X224216250Y-128753750D01*
X223616250Y-128753750D02*
X223616250Y-129153750D01*
%TD*%
M02*
