%TF.GenerationSoftware,KiCad,Pcbnew,7.0.10*%
%TF.CreationDate,2025-01-07T15:59:30-07:00*%
%TF.ProjectId,HATA_ver_8.3.1,48415441-5f76-4657-925f-382e332e312e,8.3.1*%
%TF.SameCoordinates,Original*%
%TF.FileFunction,Legend,Bot*%
%TF.FilePolarity,Positive*%
%FSLAX46Y46*%
G04 Gerber Fmt 4.6, Leading zero omitted, Abs format (unit mm)*
G04 Created by KiCad (PCBNEW 7.0.10) date 2025-01-07 15:59:30*
%MOMM*%
%LPD*%
G01*
G04 APERTURE LIST*
%ADD10C,0.100000*%
%ADD11C,0.150000*%
%ADD12C,0.120000*%
G04 APERTURE END LIST*
D10*
X240530951Y-144754895D02*
X240530951Y-143954895D01*
X240149999Y-144754895D02*
X240149999Y-143954895D01*
X240149999Y-143954895D02*
X239845237Y-143954895D01*
X239845237Y-143954895D02*
X239769047Y-143992990D01*
X239769047Y-143992990D02*
X239730952Y-144031085D01*
X239730952Y-144031085D02*
X239692856Y-144107276D01*
X239692856Y-144107276D02*
X239692856Y-144221561D01*
X239692856Y-144221561D02*
X239730952Y-144297752D01*
X239730952Y-144297752D02*
X239769047Y-144335847D01*
X239769047Y-144335847D02*
X239845237Y-144373942D01*
X239845237Y-144373942D02*
X240149999Y-144373942D01*
X239388095Y-144716800D02*
X239273809Y-144754895D01*
X239273809Y-144754895D02*
X239083333Y-144754895D01*
X239083333Y-144754895D02*
X239007142Y-144716800D01*
X239007142Y-144716800D02*
X238969047Y-144678704D01*
X238969047Y-144678704D02*
X238930952Y-144602514D01*
X238930952Y-144602514D02*
X238930952Y-144526323D01*
X238930952Y-144526323D02*
X238969047Y-144450133D01*
X238969047Y-144450133D02*
X239007142Y-144412038D01*
X239007142Y-144412038D02*
X239083333Y-144373942D01*
X239083333Y-144373942D02*
X239235714Y-144335847D01*
X239235714Y-144335847D02*
X239311904Y-144297752D01*
X239311904Y-144297752D02*
X239349999Y-144259657D01*
X239349999Y-144259657D02*
X239388095Y-144183466D01*
X239388095Y-144183466D02*
X239388095Y-144107276D01*
X239388095Y-144107276D02*
X239349999Y-144031085D01*
X239349999Y-144031085D02*
X239311904Y-143992990D01*
X239311904Y-143992990D02*
X239235714Y-143954895D01*
X239235714Y-143954895D02*
X239045237Y-143954895D01*
X239045237Y-143954895D02*
X238930952Y-143992990D01*
D11*
X217016667Y-171354819D02*
X217016667Y-170354819D01*
X217016667Y-170354819D02*
X216635715Y-170354819D01*
X216635715Y-170354819D02*
X216540477Y-170402438D01*
X216540477Y-170402438D02*
X216492858Y-170450057D01*
X216492858Y-170450057D02*
X216445239Y-170545295D01*
X216445239Y-170545295D02*
X216445239Y-170688152D01*
X216445239Y-170688152D02*
X216492858Y-170783390D01*
X216492858Y-170783390D02*
X216540477Y-170831009D01*
X216540477Y-170831009D02*
X216635715Y-170878628D01*
X216635715Y-170878628D02*
X217016667Y-170878628D01*
X216016667Y-171354819D02*
X216016667Y-170688152D01*
X216016667Y-170878628D02*
X215969048Y-170783390D01*
X215969048Y-170783390D02*
X215921429Y-170735771D01*
X215921429Y-170735771D02*
X215826191Y-170688152D01*
X215826191Y-170688152D02*
X215730953Y-170688152D01*
X215254762Y-171354819D02*
X215350000Y-171307200D01*
X215350000Y-171307200D02*
X215397619Y-171259580D01*
X215397619Y-171259580D02*
X215445238Y-171164342D01*
X215445238Y-171164342D02*
X215445238Y-170878628D01*
X215445238Y-170878628D02*
X215397619Y-170783390D01*
X215397619Y-170783390D02*
X215350000Y-170735771D01*
X215350000Y-170735771D02*
X215254762Y-170688152D01*
X215254762Y-170688152D02*
X215111905Y-170688152D01*
X215111905Y-170688152D02*
X215016667Y-170735771D01*
X215016667Y-170735771D02*
X214969048Y-170783390D01*
X214969048Y-170783390D02*
X214921429Y-170878628D01*
X214921429Y-170878628D02*
X214921429Y-171164342D01*
X214921429Y-171164342D02*
X214969048Y-171259580D01*
X214969048Y-171259580D02*
X215016667Y-171307200D01*
X215016667Y-171307200D02*
X215111905Y-171354819D01*
X215111905Y-171354819D02*
X215254762Y-171354819D01*
X214064286Y-171354819D02*
X214064286Y-170354819D01*
X214064286Y-171307200D02*
X214159524Y-171354819D01*
X214159524Y-171354819D02*
X214350000Y-171354819D01*
X214350000Y-171354819D02*
X214445238Y-171307200D01*
X214445238Y-171307200D02*
X214492857Y-171259580D01*
X214492857Y-171259580D02*
X214540476Y-171164342D01*
X214540476Y-171164342D02*
X214540476Y-170878628D01*
X214540476Y-170878628D02*
X214492857Y-170783390D01*
X214492857Y-170783390D02*
X214445238Y-170735771D01*
X214445238Y-170735771D02*
X214350000Y-170688152D01*
X214350000Y-170688152D02*
X214159524Y-170688152D01*
X214159524Y-170688152D02*
X214064286Y-170735771D01*
X213159524Y-170688152D02*
X213159524Y-171354819D01*
X213588095Y-170688152D02*
X213588095Y-171211961D01*
X213588095Y-171211961D02*
X213540476Y-171307200D01*
X213540476Y-171307200D02*
X213445238Y-171354819D01*
X213445238Y-171354819D02*
X213302381Y-171354819D01*
X213302381Y-171354819D02*
X213207143Y-171307200D01*
X213207143Y-171307200D02*
X213159524Y-171259580D01*
X212254762Y-171307200D02*
X212350000Y-171354819D01*
X212350000Y-171354819D02*
X212540476Y-171354819D01*
X212540476Y-171354819D02*
X212635714Y-171307200D01*
X212635714Y-171307200D02*
X212683333Y-171259580D01*
X212683333Y-171259580D02*
X212730952Y-171164342D01*
X212730952Y-171164342D02*
X212730952Y-170878628D01*
X212730952Y-170878628D02*
X212683333Y-170783390D01*
X212683333Y-170783390D02*
X212635714Y-170735771D01*
X212635714Y-170735771D02*
X212540476Y-170688152D01*
X212540476Y-170688152D02*
X212350000Y-170688152D01*
X212350000Y-170688152D02*
X212254762Y-170735771D01*
X211445238Y-171307200D02*
X211540476Y-171354819D01*
X211540476Y-171354819D02*
X211730952Y-171354819D01*
X211730952Y-171354819D02*
X211826190Y-171307200D01*
X211826190Y-171307200D02*
X211873809Y-171211961D01*
X211873809Y-171211961D02*
X211873809Y-170831009D01*
X211873809Y-170831009D02*
X211826190Y-170735771D01*
X211826190Y-170735771D02*
X211730952Y-170688152D01*
X211730952Y-170688152D02*
X211540476Y-170688152D01*
X211540476Y-170688152D02*
X211445238Y-170735771D01*
X211445238Y-170735771D02*
X211397619Y-170831009D01*
X211397619Y-170831009D02*
X211397619Y-170926247D01*
X211397619Y-170926247D02*
X211873809Y-171021485D01*
X210540476Y-171354819D02*
X210540476Y-170354819D01*
X210540476Y-171307200D02*
X210635714Y-171354819D01*
X210635714Y-171354819D02*
X210826190Y-171354819D01*
X210826190Y-171354819D02*
X210921428Y-171307200D01*
X210921428Y-171307200D02*
X210969047Y-171259580D01*
X210969047Y-171259580D02*
X211016666Y-171164342D01*
X211016666Y-171164342D02*
X211016666Y-170878628D01*
X211016666Y-170878628D02*
X210969047Y-170783390D01*
X210969047Y-170783390D02*
X210921428Y-170735771D01*
X210921428Y-170735771D02*
X210826190Y-170688152D01*
X210826190Y-170688152D02*
X210635714Y-170688152D01*
X210635714Y-170688152D02*
X210540476Y-170735771D01*
X209445237Y-170688152D02*
X209064285Y-170688152D01*
X209302380Y-171354819D02*
X209302380Y-170497676D01*
X209302380Y-170497676D02*
X209254761Y-170402438D01*
X209254761Y-170402438D02*
X209159523Y-170354819D01*
X209159523Y-170354819D02*
X209064285Y-170354819D01*
X208588094Y-171354819D02*
X208683332Y-171307200D01*
X208683332Y-171307200D02*
X208730951Y-171259580D01*
X208730951Y-171259580D02*
X208778570Y-171164342D01*
X208778570Y-171164342D02*
X208778570Y-170878628D01*
X208778570Y-170878628D02*
X208730951Y-170783390D01*
X208730951Y-170783390D02*
X208683332Y-170735771D01*
X208683332Y-170735771D02*
X208588094Y-170688152D01*
X208588094Y-170688152D02*
X208445237Y-170688152D01*
X208445237Y-170688152D02*
X208349999Y-170735771D01*
X208349999Y-170735771D02*
X208302380Y-170783390D01*
X208302380Y-170783390D02*
X208254761Y-170878628D01*
X208254761Y-170878628D02*
X208254761Y-171164342D01*
X208254761Y-171164342D02*
X208302380Y-171259580D01*
X208302380Y-171259580D02*
X208349999Y-171307200D01*
X208349999Y-171307200D02*
X208445237Y-171354819D01*
X208445237Y-171354819D02*
X208588094Y-171354819D01*
X207826189Y-171354819D02*
X207826189Y-170688152D01*
X207826189Y-170878628D02*
X207778570Y-170783390D01*
X207778570Y-170783390D02*
X207730951Y-170735771D01*
X207730951Y-170735771D02*
X207635713Y-170688152D01*
X207635713Y-170688152D02*
X207540475Y-170688152D01*
X220254763Y-172012438D02*
X220350001Y-171964819D01*
X220350001Y-171964819D02*
X220492858Y-171964819D01*
X220492858Y-171964819D02*
X220635715Y-172012438D01*
X220635715Y-172012438D02*
X220730953Y-172107676D01*
X220730953Y-172107676D02*
X220778572Y-172202914D01*
X220778572Y-172202914D02*
X220826191Y-172393390D01*
X220826191Y-172393390D02*
X220826191Y-172536247D01*
X220826191Y-172536247D02*
X220778572Y-172726723D01*
X220778572Y-172726723D02*
X220730953Y-172821961D01*
X220730953Y-172821961D02*
X220635715Y-172917200D01*
X220635715Y-172917200D02*
X220492858Y-172964819D01*
X220492858Y-172964819D02*
X220397620Y-172964819D01*
X220397620Y-172964819D02*
X220254763Y-172917200D01*
X220254763Y-172917200D02*
X220207144Y-172869580D01*
X220207144Y-172869580D02*
X220207144Y-172536247D01*
X220207144Y-172536247D02*
X220397620Y-172536247D01*
X219635715Y-172964819D02*
X219730953Y-172917200D01*
X219730953Y-172917200D02*
X219778572Y-172821961D01*
X219778572Y-172821961D02*
X219778572Y-171964819D01*
X219111905Y-172964819D02*
X219207143Y-172917200D01*
X219207143Y-172917200D02*
X219254762Y-172869580D01*
X219254762Y-172869580D02*
X219302381Y-172774342D01*
X219302381Y-172774342D02*
X219302381Y-172488628D01*
X219302381Y-172488628D02*
X219254762Y-172393390D01*
X219254762Y-172393390D02*
X219207143Y-172345771D01*
X219207143Y-172345771D02*
X219111905Y-172298152D01*
X219111905Y-172298152D02*
X218969048Y-172298152D01*
X218969048Y-172298152D02*
X218873810Y-172345771D01*
X218873810Y-172345771D02*
X218826191Y-172393390D01*
X218826191Y-172393390D02*
X218778572Y-172488628D01*
X218778572Y-172488628D02*
X218778572Y-172774342D01*
X218778572Y-172774342D02*
X218826191Y-172869580D01*
X218826191Y-172869580D02*
X218873810Y-172917200D01*
X218873810Y-172917200D02*
X218969048Y-172964819D01*
X218969048Y-172964819D02*
X219111905Y-172964819D01*
X218350000Y-172964819D02*
X218350000Y-171964819D01*
X218350000Y-172345771D02*
X218254762Y-172298152D01*
X218254762Y-172298152D02*
X218064286Y-172298152D01*
X218064286Y-172298152D02*
X217969048Y-172345771D01*
X217969048Y-172345771D02*
X217921429Y-172393390D01*
X217921429Y-172393390D02*
X217873810Y-172488628D01*
X217873810Y-172488628D02*
X217873810Y-172774342D01*
X217873810Y-172774342D02*
X217921429Y-172869580D01*
X217921429Y-172869580D02*
X217969048Y-172917200D01*
X217969048Y-172917200D02*
X218064286Y-172964819D01*
X218064286Y-172964819D02*
X218254762Y-172964819D01*
X218254762Y-172964819D02*
X218350000Y-172917200D01*
X217016667Y-172964819D02*
X217016667Y-172441009D01*
X217016667Y-172441009D02*
X217064286Y-172345771D01*
X217064286Y-172345771D02*
X217159524Y-172298152D01*
X217159524Y-172298152D02*
X217350000Y-172298152D01*
X217350000Y-172298152D02*
X217445238Y-172345771D01*
X217016667Y-172917200D02*
X217111905Y-172964819D01*
X217111905Y-172964819D02*
X217350000Y-172964819D01*
X217350000Y-172964819D02*
X217445238Y-172917200D01*
X217445238Y-172917200D02*
X217492857Y-172821961D01*
X217492857Y-172821961D02*
X217492857Y-172726723D01*
X217492857Y-172726723D02*
X217445238Y-172631485D01*
X217445238Y-172631485D02*
X217350000Y-172583866D01*
X217350000Y-172583866D02*
X217111905Y-172583866D01*
X217111905Y-172583866D02*
X217016667Y-172536247D01*
X216397619Y-172964819D02*
X216492857Y-172917200D01*
X216492857Y-172917200D02*
X216540476Y-172821961D01*
X216540476Y-172821961D02*
X216540476Y-171964819D01*
X215302380Y-172917200D02*
X215159523Y-172964819D01*
X215159523Y-172964819D02*
X214921428Y-172964819D01*
X214921428Y-172964819D02*
X214826190Y-172917200D01*
X214826190Y-172917200D02*
X214778571Y-172869580D01*
X214778571Y-172869580D02*
X214730952Y-172774342D01*
X214730952Y-172774342D02*
X214730952Y-172679104D01*
X214730952Y-172679104D02*
X214778571Y-172583866D01*
X214778571Y-172583866D02*
X214826190Y-172536247D01*
X214826190Y-172536247D02*
X214921428Y-172488628D01*
X214921428Y-172488628D02*
X215111904Y-172441009D01*
X215111904Y-172441009D02*
X215207142Y-172393390D01*
X215207142Y-172393390D02*
X215254761Y-172345771D01*
X215254761Y-172345771D02*
X215302380Y-172250533D01*
X215302380Y-172250533D02*
X215302380Y-172155295D01*
X215302380Y-172155295D02*
X215254761Y-172060057D01*
X215254761Y-172060057D02*
X215207142Y-172012438D01*
X215207142Y-172012438D02*
X215111904Y-171964819D01*
X215111904Y-171964819D02*
X214873809Y-171964819D01*
X214873809Y-171964819D02*
X214730952Y-172012438D01*
X214397618Y-172298152D02*
X214159523Y-172964819D01*
X213921428Y-172298152D02*
X214159523Y-172964819D01*
X214159523Y-172964819D02*
X214254761Y-173202914D01*
X214254761Y-173202914D02*
X214302380Y-173250533D01*
X214302380Y-173250533D02*
X214397618Y-173298152D01*
X213588094Y-172917200D02*
X213492856Y-172964819D01*
X213492856Y-172964819D02*
X213302380Y-172964819D01*
X213302380Y-172964819D02*
X213207142Y-172917200D01*
X213207142Y-172917200D02*
X213159523Y-172821961D01*
X213159523Y-172821961D02*
X213159523Y-172774342D01*
X213159523Y-172774342D02*
X213207142Y-172679104D01*
X213207142Y-172679104D02*
X213302380Y-172631485D01*
X213302380Y-172631485D02*
X213445237Y-172631485D01*
X213445237Y-172631485D02*
X213540475Y-172583866D01*
X213540475Y-172583866D02*
X213588094Y-172488628D01*
X213588094Y-172488628D02*
X213588094Y-172441009D01*
X213588094Y-172441009D02*
X213540475Y-172345771D01*
X213540475Y-172345771D02*
X213445237Y-172298152D01*
X213445237Y-172298152D02*
X213302380Y-172298152D01*
X213302380Y-172298152D02*
X213207142Y-172345771D01*
X212873808Y-172298152D02*
X212492856Y-172298152D01*
X212730951Y-171964819D02*
X212730951Y-172821961D01*
X212730951Y-172821961D02*
X212683332Y-172917200D01*
X212683332Y-172917200D02*
X212588094Y-172964819D01*
X212588094Y-172964819D02*
X212492856Y-172964819D01*
X211778570Y-172917200D02*
X211873808Y-172964819D01*
X211873808Y-172964819D02*
X212064284Y-172964819D01*
X212064284Y-172964819D02*
X212159522Y-172917200D01*
X212159522Y-172917200D02*
X212207141Y-172821961D01*
X212207141Y-172821961D02*
X212207141Y-172441009D01*
X212207141Y-172441009D02*
X212159522Y-172345771D01*
X212159522Y-172345771D02*
X212064284Y-172298152D01*
X212064284Y-172298152D02*
X211873808Y-172298152D01*
X211873808Y-172298152D02*
X211778570Y-172345771D01*
X211778570Y-172345771D02*
X211730951Y-172441009D01*
X211730951Y-172441009D02*
X211730951Y-172536247D01*
X211730951Y-172536247D02*
X212207141Y-172631485D01*
X211302379Y-172964819D02*
X211302379Y-172298152D01*
X211302379Y-172393390D02*
X211254760Y-172345771D01*
X211254760Y-172345771D02*
X211159522Y-172298152D01*
X211159522Y-172298152D02*
X211016665Y-172298152D01*
X211016665Y-172298152D02*
X210921427Y-172345771D01*
X210921427Y-172345771D02*
X210873808Y-172441009D01*
X210873808Y-172441009D02*
X210873808Y-172964819D01*
X210873808Y-172441009D02*
X210826189Y-172345771D01*
X210826189Y-172345771D02*
X210730951Y-172298152D01*
X210730951Y-172298152D02*
X210588094Y-172298152D01*
X210588094Y-172298152D02*
X210492855Y-172345771D01*
X210492855Y-172345771D02*
X210445236Y-172441009D01*
X210445236Y-172441009D02*
X210445236Y-172964819D01*
X210016665Y-172917200D02*
X209921427Y-172964819D01*
X209921427Y-172964819D02*
X209730951Y-172964819D01*
X209730951Y-172964819D02*
X209635713Y-172917200D01*
X209635713Y-172917200D02*
X209588094Y-172821961D01*
X209588094Y-172821961D02*
X209588094Y-172774342D01*
X209588094Y-172774342D02*
X209635713Y-172679104D01*
X209635713Y-172679104D02*
X209730951Y-172631485D01*
X209730951Y-172631485D02*
X209873808Y-172631485D01*
X209873808Y-172631485D02*
X209969046Y-172583866D01*
X209969046Y-172583866D02*
X210016665Y-172488628D01*
X210016665Y-172488628D02*
X210016665Y-172441009D01*
X210016665Y-172441009D02*
X209969046Y-172345771D01*
X209969046Y-172345771D02*
X209873808Y-172298152D01*
X209873808Y-172298152D02*
X209730951Y-172298152D01*
X209730951Y-172298152D02*
X209635713Y-172345771D01*
X208397617Y-172964819D02*
X208397617Y-171964819D01*
X208397617Y-171964819D02*
X208159522Y-171964819D01*
X208159522Y-171964819D02*
X208016665Y-172012438D01*
X208016665Y-172012438D02*
X207921427Y-172107676D01*
X207921427Y-172107676D02*
X207873808Y-172202914D01*
X207873808Y-172202914D02*
X207826189Y-172393390D01*
X207826189Y-172393390D02*
X207826189Y-172536247D01*
X207826189Y-172536247D02*
X207873808Y-172726723D01*
X207873808Y-172726723D02*
X207921427Y-172821961D01*
X207921427Y-172821961D02*
X208016665Y-172917200D01*
X208016665Y-172917200D02*
X208159522Y-172964819D01*
X208159522Y-172964819D02*
X208397617Y-172964819D01*
X207016665Y-172917200D02*
X207111903Y-172964819D01*
X207111903Y-172964819D02*
X207302379Y-172964819D01*
X207302379Y-172964819D02*
X207397617Y-172917200D01*
X207397617Y-172917200D02*
X207445236Y-172821961D01*
X207445236Y-172821961D02*
X207445236Y-172441009D01*
X207445236Y-172441009D02*
X207397617Y-172345771D01*
X207397617Y-172345771D02*
X207302379Y-172298152D01*
X207302379Y-172298152D02*
X207111903Y-172298152D01*
X207111903Y-172298152D02*
X207016665Y-172345771D01*
X207016665Y-172345771D02*
X206969046Y-172441009D01*
X206969046Y-172441009D02*
X206969046Y-172536247D01*
X206969046Y-172536247D02*
X207445236Y-172631485D01*
X206588093Y-172917200D02*
X206492855Y-172964819D01*
X206492855Y-172964819D02*
X206302379Y-172964819D01*
X206302379Y-172964819D02*
X206207141Y-172917200D01*
X206207141Y-172917200D02*
X206159522Y-172821961D01*
X206159522Y-172821961D02*
X206159522Y-172774342D01*
X206159522Y-172774342D02*
X206207141Y-172679104D01*
X206207141Y-172679104D02*
X206302379Y-172631485D01*
X206302379Y-172631485D02*
X206445236Y-172631485D01*
X206445236Y-172631485D02*
X206540474Y-172583866D01*
X206540474Y-172583866D02*
X206588093Y-172488628D01*
X206588093Y-172488628D02*
X206588093Y-172441009D01*
X206588093Y-172441009D02*
X206540474Y-172345771D01*
X206540474Y-172345771D02*
X206445236Y-172298152D01*
X206445236Y-172298152D02*
X206302379Y-172298152D01*
X206302379Y-172298152D02*
X206207141Y-172345771D01*
X205730950Y-172964819D02*
X205730950Y-172298152D01*
X205730950Y-171964819D02*
X205778569Y-172012438D01*
X205778569Y-172012438D02*
X205730950Y-172060057D01*
X205730950Y-172060057D02*
X205683331Y-172012438D01*
X205683331Y-172012438D02*
X205730950Y-171964819D01*
X205730950Y-171964819D02*
X205730950Y-172060057D01*
X204826189Y-172298152D02*
X204826189Y-173107676D01*
X204826189Y-173107676D02*
X204873808Y-173202914D01*
X204873808Y-173202914D02*
X204921427Y-173250533D01*
X204921427Y-173250533D02*
X205016665Y-173298152D01*
X205016665Y-173298152D02*
X205159522Y-173298152D01*
X205159522Y-173298152D02*
X205254760Y-173250533D01*
X204826189Y-172917200D02*
X204921427Y-172964819D01*
X204921427Y-172964819D02*
X205111903Y-172964819D01*
X205111903Y-172964819D02*
X205207141Y-172917200D01*
X205207141Y-172917200D02*
X205254760Y-172869580D01*
X205254760Y-172869580D02*
X205302379Y-172774342D01*
X205302379Y-172774342D02*
X205302379Y-172488628D01*
X205302379Y-172488628D02*
X205254760Y-172393390D01*
X205254760Y-172393390D02*
X205207141Y-172345771D01*
X205207141Y-172345771D02*
X205111903Y-172298152D01*
X205111903Y-172298152D02*
X204921427Y-172298152D01*
X204921427Y-172298152D02*
X204826189Y-172345771D01*
X204349998Y-172298152D02*
X204349998Y-172964819D01*
X204349998Y-172393390D02*
X204302379Y-172345771D01*
X204302379Y-172345771D02*
X204207141Y-172298152D01*
X204207141Y-172298152D02*
X204064284Y-172298152D01*
X204064284Y-172298152D02*
X203969046Y-172345771D01*
X203969046Y-172345771D02*
X203921427Y-172441009D01*
X203921427Y-172441009D02*
X203921427Y-172964819D01*
X216278572Y-174479580D02*
X216326191Y-174527200D01*
X216326191Y-174527200D02*
X216469048Y-174574819D01*
X216469048Y-174574819D02*
X216564286Y-174574819D01*
X216564286Y-174574819D02*
X216707143Y-174527200D01*
X216707143Y-174527200D02*
X216802381Y-174431961D01*
X216802381Y-174431961D02*
X216850000Y-174336723D01*
X216850000Y-174336723D02*
X216897619Y-174146247D01*
X216897619Y-174146247D02*
X216897619Y-174003390D01*
X216897619Y-174003390D02*
X216850000Y-173812914D01*
X216850000Y-173812914D02*
X216802381Y-173717676D01*
X216802381Y-173717676D02*
X216707143Y-173622438D01*
X216707143Y-173622438D02*
X216564286Y-173574819D01*
X216564286Y-173574819D02*
X216469048Y-173574819D01*
X216469048Y-173574819D02*
X216326191Y-173622438D01*
X216326191Y-173622438D02*
X216278572Y-173670057D01*
X215707143Y-174574819D02*
X215802381Y-174527200D01*
X215802381Y-174527200D02*
X215850000Y-174479580D01*
X215850000Y-174479580D02*
X215897619Y-174384342D01*
X215897619Y-174384342D02*
X215897619Y-174098628D01*
X215897619Y-174098628D02*
X215850000Y-174003390D01*
X215850000Y-174003390D02*
X215802381Y-173955771D01*
X215802381Y-173955771D02*
X215707143Y-173908152D01*
X215707143Y-173908152D02*
X215564286Y-173908152D01*
X215564286Y-173908152D02*
X215469048Y-173955771D01*
X215469048Y-173955771D02*
X215421429Y-174003390D01*
X215421429Y-174003390D02*
X215373810Y-174098628D01*
X215373810Y-174098628D02*
X215373810Y-174384342D01*
X215373810Y-174384342D02*
X215421429Y-174479580D01*
X215421429Y-174479580D02*
X215469048Y-174527200D01*
X215469048Y-174527200D02*
X215564286Y-174574819D01*
X215564286Y-174574819D02*
X215707143Y-174574819D01*
X214945238Y-173908152D02*
X214945238Y-174574819D01*
X214945238Y-174003390D02*
X214897619Y-173955771D01*
X214897619Y-173955771D02*
X214802381Y-173908152D01*
X214802381Y-173908152D02*
X214659524Y-173908152D01*
X214659524Y-173908152D02*
X214564286Y-173955771D01*
X214564286Y-173955771D02*
X214516667Y-174051009D01*
X214516667Y-174051009D02*
X214516667Y-174574819D01*
X214040476Y-173908152D02*
X214040476Y-174574819D01*
X214040476Y-174003390D02*
X213992857Y-173955771D01*
X213992857Y-173955771D02*
X213897619Y-173908152D01*
X213897619Y-173908152D02*
X213754762Y-173908152D01*
X213754762Y-173908152D02*
X213659524Y-173955771D01*
X213659524Y-173955771D02*
X213611905Y-174051009D01*
X213611905Y-174051009D02*
X213611905Y-174574819D01*
X212754762Y-174527200D02*
X212850000Y-174574819D01*
X212850000Y-174574819D02*
X213040476Y-174574819D01*
X213040476Y-174574819D02*
X213135714Y-174527200D01*
X213135714Y-174527200D02*
X213183333Y-174431961D01*
X213183333Y-174431961D02*
X213183333Y-174051009D01*
X213183333Y-174051009D02*
X213135714Y-173955771D01*
X213135714Y-173955771D02*
X213040476Y-173908152D01*
X213040476Y-173908152D02*
X212850000Y-173908152D01*
X212850000Y-173908152D02*
X212754762Y-173955771D01*
X212754762Y-173955771D02*
X212707143Y-174051009D01*
X212707143Y-174051009D02*
X212707143Y-174146247D01*
X212707143Y-174146247D02*
X213183333Y-174241485D01*
X211850000Y-174527200D02*
X211945238Y-174574819D01*
X211945238Y-174574819D02*
X212135714Y-174574819D01*
X212135714Y-174574819D02*
X212230952Y-174527200D01*
X212230952Y-174527200D02*
X212278571Y-174479580D01*
X212278571Y-174479580D02*
X212326190Y-174384342D01*
X212326190Y-174384342D02*
X212326190Y-174098628D01*
X212326190Y-174098628D02*
X212278571Y-174003390D01*
X212278571Y-174003390D02*
X212230952Y-173955771D01*
X212230952Y-173955771D02*
X212135714Y-173908152D01*
X212135714Y-173908152D02*
X211945238Y-173908152D01*
X211945238Y-173908152D02*
X211850000Y-173955771D01*
X211564285Y-173908152D02*
X211183333Y-173908152D01*
X211421428Y-173574819D02*
X211421428Y-174431961D01*
X211421428Y-174431961D02*
X211373809Y-174527200D01*
X211373809Y-174527200D02*
X211278571Y-174574819D01*
X211278571Y-174574819D02*
X211183333Y-174574819D01*
X210516666Y-174051009D02*
X210373809Y-174098628D01*
X210373809Y-174098628D02*
X210326190Y-174146247D01*
X210326190Y-174146247D02*
X210278571Y-174241485D01*
X210278571Y-174241485D02*
X210278571Y-174384342D01*
X210278571Y-174384342D02*
X210326190Y-174479580D01*
X210326190Y-174479580D02*
X210373809Y-174527200D01*
X210373809Y-174527200D02*
X210469047Y-174574819D01*
X210469047Y-174574819D02*
X210849999Y-174574819D01*
X210849999Y-174574819D02*
X210849999Y-173574819D01*
X210849999Y-173574819D02*
X210516666Y-173574819D01*
X210516666Y-173574819D02*
X210421428Y-173622438D01*
X210421428Y-173622438D02*
X210373809Y-173670057D01*
X210373809Y-173670057D02*
X210326190Y-173765295D01*
X210326190Y-173765295D02*
X210326190Y-173860533D01*
X210326190Y-173860533D02*
X210373809Y-173955771D01*
X210373809Y-173955771D02*
X210421428Y-174003390D01*
X210421428Y-174003390D02*
X210516666Y-174051009D01*
X210516666Y-174051009D02*
X210849999Y-174051009D01*
X209707142Y-174574819D02*
X209802380Y-174527200D01*
X209802380Y-174527200D02*
X209849999Y-174479580D01*
X209849999Y-174479580D02*
X209897618Y-174384342D01*
X209897618Y-174384342D02*
X209897618Y-174098628D01*
X209897618Y-174098628D02*
X209849999Y-174003390D01*
X209849999Y-174003390D02*
X209802380Y-173955771D01*
X209802380Y-173955771D02*
X209707142Y-173908152D01*
X209707142Y-173908152D02*
X209564285Y-173908152D01*
X209564285Y-173908152D02*
X209469047Y-173955771D01*
X209469047Y-173955771D02*
X209421428Y-174003390D01*
X209421428Y-174003390D02*
X209373809Y-174098628D01*
X209373809Y-174098628D02*
X209373809Y-174384342D01*
X209373809Y-174384342D02*
X209421428Y-174479580D01*
X209421428Y-174479580D02*
X209469047Y-174527200D01*
X209469047Y-174527200D02*
X209564285Y-174574819D01*
X209564285Y-174574819D02*
X209707142Y-174574819D01*
X209040475Y-174574819D02*
X208516666Y-173908152D01*
X209040475Y-173908152D02*
X208516666Y-174574819D01*
X217254761Y-175184819D02*
X216921428Y-176184819D01*
X216921428Y-176184819D02*
X216588095Y-175184819D01*
X215873809Y-176137200D02*
X215969047Y-176184819D01*
X215969047Y-176184819D02*
X216159523Y-176184819D01*
X216159523Y-176184819D02*
X216254761Y-176137200D01*
X216254761Y-176137200D02*
X216302380Y-176041961D01*
X216302380Y-176041961D02*
X216302380Y-175661009D01*
X216302380Y-175661009D02*
X216254761Y-175565771D01*
X216254761Y-175565771D02*
X216159523Y-175518152D01*
X216159523Y-175518152D02*
X215969047Y-175518152D01*
X215969047Y-175518152D02*
X215873809Y-175565771D01*
X215873809Y-175565771D02*
X215826190Y-175661009D01*
X215826190Y-175661009D02*
X215826190Y-175756247D01*
X215826190Y-175756247D02*
X216302380Y-175851485D01*
X215397618Y-176184819D02*
X215397618Y-175518152D01*
X215397618Y-175708628D02*
X215349999Y-175613390D01*
X215349999Y-175613390D02*
X215302380Y-175565771D01*
X215302380Y-175565771D02*
X215207142Y-175518152D01*
X215207142Y-175518152D02*
X215111904Y-175518152D01*
X214826189Y-176137200D02*
X214730951Y-176184819D01*
X214730951Y-176184819D02*
X214540475Y-176184819D01*
X214540475Y-176184819D02*
X214445237Y-176137200D01*
X214445237Y-176137200D02*
X214397618Y-176041961D01*
X214397618Y-176041961D02*
X214397618Y-175994342D01*
X214397618Y-175994342D02*
X214445237Y-175899104D01*
X214445237Y-175899104D02*
X214540475Y-175851485D01*
X214540475Y-175851485D02*
X214683332Y-175851485D01*
X214683332Y-175851485D02*
X214778570Y-175803866D01*
X214778570Y-175803866D02*
X214826189Y-175708628D01*
X214826189Y-175708628D02*
X214826189Y-175661009D01*
X214826189Y-175661009D02*
X214778570Y-175565771D01*
X214778570Y-175565771D02*
X214683332Y-175518152D01*
X214683332Y-175518152D02*
X214540475Y-175518152D01*
X214540475Y-175518152D02*
X214445237Y-175565771D01*
X213969046Y-176184819D02*
X213969046Y-175518152D01*
X213969046Y-175184819D02*
X214016665Y-175232438D01*
X214016665Y-175232438D02*
X213969046Y-175280057D01*
X213969046Y-175280057D02*
X213921427Y-175232438D01*
X213921427Y-175232438D02*
X213969046Y-175184819D01*
X213969046Y-175184819D02*
X213969046Y-175280057D01*
X213349999Y-176184819D02*
X213445237Y-176137200D01*
X213445237Y-176137200D02*
X213492856Y-176089580D01*
X213492856Y-176089580D02*
X213540475Y-175994342D01*
X213540475Y-175994342D02*
X213540475Y-175708628D01*
X213540475Y-175708628D02*
X213492856Y-175613390D01*
X213492856Y-175613390D02*
X213445237Y-175565771D01*
X213445237Y-175565771D02*
X213349999Y-175518152D01*
X213349999Y-175518152D02*
X213207142Y-175518152D01*
X213207142Y-175518152D02*
X213111904Y-175565771D01*
X213111904Y-175565771D02*
X213064285Y-175613390D01*
X213064285Y-175613390D02*
X213016666Y-175708628D01*
X213016666Y-175708628D02*
X213016666Y-175994342D01*
X213016666Y-175994342D02*
X213064285Y-176089580D01*
X213064285Y-176089580D02*
X213111904Y-176137200D01*
X213111904Y-176137200D02*
X213207142Y-176184819D01*
X213207142Y-176184819D02*
X213349999Y-176184819D01*
X212588094Y-175518152D02*
X212588094Y-176184819D01*
X212588094Y-175613390D02*
X212540475Y-175565771D01*
X212540475Y-175565771D02*
X212445237Y-175518152D01*
X212445237Y-175518152D02*
X212302380Y-175518152D01*
X212302380Y-175518152D02*
X212207142Y-175565771D01*
X212207142Y-175565771D02*
X212159523Y-175661009D01*
X212159523Y-175661009D02*
X212159523Y-176184819D01*
X210778570Y-175613390D02*
X210873808Y-175565771D01*
X210873808Y-175565771D02*
X210921427Y-175518152D01*
X210921427Y-175518152D02*
X210969046Y-175422914D01*
X210969046Y-175422914D02*
X210969046Y-175375295D01*
X210969046Y-175375295D02*
X210921427Y-175280057D01*
X210921427Y-175280057D02*
X210873808Y-175232438D01*
X210873808Y-175232438D02*
X210778570Y-175184819D01*
X210778570Y-175184819D02*
X210588094Y-175184819D01*
X210588094Y-175184819D02*
X210492856Y-175232438D01*
X210492856Y-175232438D02*
X210445237Y-175280057D01*
X210445237Y-175280057D02*
X210397618Y-175375295D01*
X210397618Y-175375295D02*
X210397618Y-175422914D01*
X210397618Y-175422914D02*
X210445237Y-175518152D01*
X210445237Y-175518152D02*
X210492856Y-175565771D01*
X210492856Y-175565771D02*
X210588094Y-175613390D01*
X210588094Y-175613390D02*
X210778570Y-175613390D01*
X210778570Y-175613390D02*
X210873808Y-175661009D01*
X210873808Y-175661009D02*
X210921427Y-175708628D01*
X210921427Y-175708628D02*
X210969046Y-175803866D01*
X210969046Y-175803866D02*
X210969046Y-175994342D01*
X210969046Y-175994342D02*
X210921427Y-176089580D01*
X210921427Y-176089580D02*
X210873808Y-176137200D01*
X210873808Y-176137200D02*
X210778570Y-176184819D01*
X210778570Y-176184819D02*
X210588094Y-176184819D01*
X210588094Y-176184819D02*
X210492856Y-176137200D01*
X210492856Y-176137200D02*
X210445237Y-176089580D01*
X210445237Y-176089580D02*
X210397618Y-175994342D01*
X210397618Y-175994342D02*
X210397618Y-175803866D01*
X210397618Y-175803866D02*
X210445237Y-175708628D01*
X210445237Y-175708628D02*
X210492856Y-175661009D01*
X210492856Y-175661009D02*
X210588094Y-175613390D01*
X209969046Y-176089580D02*
X209921427Y-176137200D01*
X209921427Y-176137200D02*
X209969046Y-176184819D01*
X209969046Y-176184819D02*
X210016665Y-176137200D01*
X210016665Y-176137200D02*
X209969046Y-176089580D01*
X209969046Y-176089580D02*
X209969046Y-176184819D01*
X209588094Y-175184819D02*
X208969047Y-175184819D01*
X208969047Y-175184819D02*
X209302380Y-175565771D01*
X209302380Y-175565771D02*
X209159523Y-175565771D01*
X209159523Y-175565771D02*
X209064285Y-175613390D01*
X209064285Y-175613390D02*
X209016666Y-175661009D01*
X209016666Y-175661009D02*
X208969047Y-175756247D01*
X208969047Y-175756247D02*
X208969047Y-175994342D01*
X208969047Y-175994342D02*
X209016666Y-176089580D01*
X209016666Y-176089580D02*
X209064285Y-176137200D01*
X209064285Y-176137200D02*
X209159523Y-176184819D01*
X209159523Y-176184819D02*
X209445237Y-176184819D01*
X209445237Y-176184819D02*
X209540475Y-176137200D01*
X209540475Y-176137200D02*
X209588094Y-176089580D01*
X208540475Y-176089580D02*
X208492856Y-176137200D01*
X208492856Y-176137200D02*
X208540475Y-176184819D01*
X208540475Y-176184819D02*
X208588094Y-176137200D01*
X208588094Y-176137200D02*
X208540475Y-176089580D01*
X208540475Y-176089580D02*
X208540475Y-176184819D01*
X207540476Y-176184819D02*
X208111904Y-176184819D01*
X207826190Y-176184819D02*
X207826190Y-175184819D01*
X207826190Y-175184819D02*
X207921428Y-175327676D01*
X207921428Y-175327676D02*
X208016666Y-175422914D01*
X208016666Y-175422914D02*
X208111904Y-175470533D01*
X214064285Y-178175771D02*
X214111904Y-178128152D01*
X214111904Y-178128152D02*
X214207142Y-177985295D01*
X214207142Y-177985295D02*
X214254761Y-177890057D01*
X214254761Y-177890057D02*
X214302380Y-177747200D01*
X214302380Y-177747200D02*
X214349999Y-177509104D01*
X214349999Y-177509104D02*
X214349999Y-177318628D01*
X214349999Y-177318628D02*
X214302380Y-177080533D01*
X214302380Y-177080533D02*
X214254761Y-176937676D01*
X214254761Y-176937676D02*
X214207142Y-176842438D01*
X214207142Y-176842438D02*
X214111904Y-176699580D01*
X214111904Y-176699580D02*
X214064285Y-176651961D01*
X213254761Y-177747200D02*
X213349999Y-177794819D01*
X213349999Y-177794819D02*
X213540475Y-177794819D01*
X213540475Y-177794819D02*
X213635713Y-177747200D01*
X213635713Y-177747200D02*
X213683332Y-177699580D01*
X213683332Y-177699580D02*
X213730951Y-177604342D01*
X213730951Y-177604342D02*
X213730951Y-177318628D01*
X213730951Y-177318628D02*
X213683332Y-177223390D01*
X213683332Y-177223390D02*
X213635713Y-177175771D01*
X213635713Y-177175771D02*
X213540475Y-177128152D01*
X213540475Y-177128152D02*
X213349999Y-177128152D01*
X213349999Y-177128152D02*
X213254761Y-177175771D01*
X212921427Y-178175771D02*
X212873808Y-178128152D01*
X212873808Y-178128152D02*
X212778570Y-177985295D01*
X212778570Y-177985295D02*
X212730951Y-177890057D01*
X212730951Y-177890057D02*
X212683332Y-177747200D01*
X212683332Y-177747200D02*
X212635713Y-177509104D01*
X212635713Y-177509104D02*
X212635713Y-177318628D01*
X212635713Y-177318628D02*
X212683332Y-177080533D01*
X212683332Y-177080533D02*
X212730951Y-176937676D01*
X212730951Y-176937676D02*
X212778570Y-176842438D01*
X212778570Y-176842438D02*
X212873808Y-176699580D01*
X212873808Y-176699580D02*
X212921427Y-176651961D01*
X212207141Y-176890057D02*
X212159522Y-176842438D01*
X212159522Y-176842438D02*
X212064284Y-176794819D01*
X212064284Y-176794819D02*
X211826189Y-176794819D01*
X211826189Y-176794819D02*
X211730951Y-176842438D01*
X211730951Y-176842438D02*
X211683332Y-176890057D01*
X211683332Y-176890057D02*
X211635713Y-176985295D01*
X211635713Y-176985295D02*
X211635713Y-177080533D01*
X211635713Y-177080533D02*
X211683332Y-177223390D01*
X211683332Y-177223390D02*
X212254760Y-177794819D01*
X212254760Y-177794819D02*
X211635713Y-177794819D01*
X211016665Y-176794819D02*
X210921427Y-176794819D01*
X210921427Y-176794819D02*
X210826189Y-176842438D01*
X210826189Y-176842438D02*
X210778570Y-176890057D01*
X210778570Y-176890057D02*
X210730951Y-176985295D01*
X210730951Y-176985295D02*
X210683332Y-177175771D01*
X210683332Y-177175771D02*
X210683332Y-177413866D01*
X210683332Y-177413866D02*
X210730951Y-177604342D01*
X210730951Y-177604342D02*
X210778570Y-177699580D01*
X210778570Y-177699580D02*
X210826189Y-177747200D01*
X210826189Y-177747200D02*
X210921427Y-177794819D01*
X210921427Y-177794819D02*
X211016665Y-177794819D01*
X211016665Y-177794819D02*
X211111903Y-177747200D01*
X211111903Y-177747200D02*
X211159522Y-177699580D01*
X211159522Y-177699580D02*
X211207141Y-177604342D01*
X211207141Y-177604342D02*
X211254760Y-177413866D01*
X211254760Y-177413866D02*
X211254760Y-177175771D01*
X211254760Y-177175771D02*
X211207141Y-176985295D01*
X211207141Y-176985295D02*
X211159522Y-176890057D01*
X211159522Y-176890057D02*
X211111903Y-176842438D01*
X211111903Y-176842438D02*
X211016665Y-176794819D01*
X210302379Y-176890057D02*
X210254760Y-176842438D01*
X210254760Y-176842438D02*
X210159522Y-176794819D01*
X210159522Y-176794819D02*
X209921427Y-176794819D01*
X209921427Y-176794819D02*
X209826189Y-176842438D01*
X209826189Y-176842438D02*
X209778570Y-176890057D01*
X209778570Y-176890057D02*
X209730951Y-176985295D01*
X209730951Y-176985295D02*
X209730951Y-177080533D01*
X209730951Y-177080533D02*
X209778570Y-177223390D01*
X209778570Y-177223390D02*
X210349998Y-177794819D01*
X210349998Y-177794819D02*
X209730951Y-177794819D01*
X209397617Y-176794819D02*
X208778570Y-176794819D01*
X208778570Y-176794819D02*
X209111903Y-177175771D01*
X209111903Y-177175771D02*
X208969046Y-177175771D01*
X208969046Y-177175771D02*
X208873808Y-177223390D01*
X208873808Y-177223390D02*
X208826189Y-177271009D01*
X208826189Y-177271009D02*
X208778570Y-177366247D01*
X208778570Y-177366247D02*
X208778570Y-177604342D01*
X208778570Y-177604342D02*
X208826189Y-177699580D01*
X208826189Y-177699580D02*
X208873808Y-177747200D01*
X208873808Y-177747200D02*
X208969046Y-177794819D01*
X208969046Y-177794819D02*
X209254760Y-177794819D01*
X209254760Y-177794819D02*
X209349998Y-177747200D01*
X209349998Y-177747200D02*
X209397617Y-177699580D01*
D10*
X203604761Y-125266323D02*
X203223808Y-125266323D01*
X203680951Y-125494895D02*
X203414284Y-124694895D01*
X203414284Y-124694895D02*
X203147618Y-125494895D01*
X202423808Y-125418704D02*
X202461904Y-125456800D01*
X202461904Y-125456800D02*
X202576189Y-125494895D01*
X202576189Y-125494895D02*
X202652380Y-125494895D01*
X202652380Y-125494895D02*
X202766666Y-125456800D01*
X202766666Y-125456800D02*
X202842856Y-125380609D01*
X202842856Y-125380609D02*
X202880951Y-125304419D01*
X202880951Y-125304419D02*
X202919047Y-125152038D01*
X202919047Y-125152038D02*
X202919047Y-125037752D01*
X202919047Y-125037752D02*
X202880951Y-124885371D01*
X202880951Y-124885371D02*
X202842856Y-124809180D01*
X202842856Y-124809180D02*
X202766666Y-124732990D01*
X202766666Y-124732990D02*
X202652380Y-124694895D01*
X202652380Y-124694895D02*
X202576189Y-124694895D01*
X202576189Y-124694895D02*
X202461904Y-124732990D01*
X202461904Y-124732990D02*
X202423808Y-124771085D01*
X202271428Y-125571085D02*
X201661904Y-125571085D01*
X201471427Y-125494895D02*
X201471427Y-124694895D01*
X201090475Y-125494895D02*
X201090475Y-124694895D01*
X201090475Y-124694895D02*
X200633332Y-125494895D01*
X200633332Y-125494895D02*
X200633332Y-124694895D01*
X240215847Y-108352856D02*
X240253942Y-108467142D01*
X240253942Y-108467142D02*
X240292038Y-108505237D01*
X240292038Y-108505237D02*
X240368228Y-108543333D01*
X240368228Y-108543333D02*
X240482514Y-108543333D01*
X240482514Y-108543333D02*
X240558704Y-108505237D01*
X240558704Y-108505237D02*
X240596800Y-108467142D01*
X240596800Y-108467142D02*
X240634895Y-108390952D01*
X240634895Y-108390952D02*
X240634895Y-108086190D01*
X240634895Y-108086190D02*
X239834895Y-108086190D01*
X239834895Y-108086190D02*
X239834895Y-108352856D01*
X239834895Y-108352856D02*
X239872990Y-108429047D01*
X239872990Y-108429047D02*
X239911085Y-108467142D01*
X239911085Y-108467142D02*
X239987276Y-108505237D01*
X239987276Y-108505237D02*
X240063466Y-108505237D01*
X240063466Y-108505237D02*
X240139657Y-108467142D01*
X240139657Y-108467142D02*
X240177752Y-108429047D01*
X240177752Y-108429047D02*
X240215847Y-108352856D01*
X240215847Y-108352856D02*
X240215847Y-108086190D01*
X240634895Y-109229047D02*
X240215847Y-109229047D01*
X240215847Y-109229047D02*
X240139657Y-109190952D01*
X240139657Y-109190952D02*
X240101561Y-109114761D01*
X240101561Y-109114761D02*
X240101561Y-108962380D01*
X240101561Y-108962380D02*
X240139657Y-108886190D01*
X240596800Y-109229047D02*
X240634895Y-109152856D01*
X240634895Y-109152856D02*
X240634895Y-108962380D01*
X240634895Y-108962380D02*
X240596800Y-108886190D01*
X240596800Y-108886190D02*
X240520609Y-108848094D01*
X240520609Y-108848094D02*
X240444419Y-108848094D01*
X240444419Y-108848094D02*
X240368228Y-108886190D01*
X240368228Y-108886190D02*
X240330133Y-108962380D01*
X240330133Y-108962380D02*
X240330133Y-109152856D01*
X240330133Y-109152856D02*
X240292038Y-109229047D01*
X240101561Y-109495714D02*
X240101561Y-109800476D01*
X239834895Y-109610000D02*
X240520609Y-109610000D01*
X240520609Y-109610000D02*
X240596800Y-109648095D01*
X240596800Y-109648095D02*
X240634895Y-109724285D01*
X240634895Y-109724285D02*
X240634895Y-109800476D01*
X240101561Y-109952857D02*
X240101561Y-110257619D01*
X239834895Y-110067143D02*
X240520609Y-110067143D01*
X240520609Y-110067143D02*
X240596800Y-110105238D01*
X240596800Y-110105238D02*
X240634895Y-110181428D01*
X240634895Y-110181428D02*
X240634895Y-110257619D01*
X240330133Y-110524286D02*
X240330133Y-111133810D01*
X240634895Y-110829048D02*
X240025371Y-110829048D01*
X239754895Y-153280952D02*
X238954895Y-153280952D01*
X238954895Y-153280952D02*
X238954895Y-153585714D01*
X238954895Y-153585714D02*
X238992990Y-153661904D01*
X238992990Y-153661904D02*
X239031085Y-153699999D01*
X239031085Y-153699999D02*
X239107276Y-153738095D01*
X239107276Y-153738095D02*
X239221561Y-153738095D01*
X239221561Y-153738095D02*
X239297752Y-153699999D01*
X239297752Y-153699999D02*
X239335847Y-153661904D01*
X239335847Y-153661904D02*
X239373942Y-153585714D01*
X239373942Y-153585714D02*
X239373942Y-153280952D01*
X239716800Y-154042856D02*
X239754895Y-154157142D01*
X239754895Y-154157142D02*
X239754895Y-154347618D01*
X239754895Y-154347618D02*
X239716800Y-154423809D01*
X239716800Y-154423809D02*
X239678704Y-154461904D01*
X239678704Y-154461904D02*
X239602514Y-154499999D01*
X239602514Y-154499999D02*
X239526323Y-154499999D01*
X239526323Y-154499999D02*
X239450133Y-154461904D01*
X239450133Y-154461904D02*
X239412038Y-154423809D01*
X239412038Y-154423809D02*
X239373942Y-154347618D01*
X239373942Y-154347618D02*
X239335847Y-154195237D01*
X239335847Y-154195237D02*
X239297752Y-154119047D01*
X239297752Y-154119047D02*
X239259657Y-154080952D01*
X239259657Y-154080952D02*
X239183466Y-154042856D01*
X239183466Y-154042856D02*
X239107276Y-154042856D01*
X239107276Y-154042856D02*
X239031085Y-154080952D01*
X239031085Y-154080952D02*
X238992990Y-154119047D01*
X238992990Y-154119047D02*
X238954895Y-154195237D01*
X238954895Y-154195237D02*
X238954895Y-154385714D01*
X238954895Y-154385714D02*
X238992990Y-154499999D01*
X239831085Y-154652381D02*
X239831085Y-155261904D01*
X239335847Y-155452381D02*
X239335847Y-155719047D01*
X239754895Y-155833333D02*
X239754895Y-155452381D01*
X239754895Y-155452381D02*
X238954895Y-155452381D01*
X238954895Y-155452381D02*
X238954895Y-155833333D01*
X239754895Y-156176191D02*
X238954895Y-156176191D01*
X238954895Y-156176191D02*
X239754895Y-156633334D01*
X239754895Y-156633334D02*
X238954895Y-156633334D01*
X239526323Y-156976190D02*
X239526323Y-157357143D01*
X239754895Y-156900000D02*
X238954895Y-157166667D01*
X238954895Y-157166667D02*
X239754895Y-157433333D01*
X202619523Y-121412990D02*
X202695713Y-121374895D01*
X202695713Y-121374895D02*
X202809999Y-121374895D01*
X202809999Y-121374895D02*
X202924285Y-121412990D01*
X202924285Y-121412990D02*
X203000475Y-121489180D01*
X203000475Y-121489180D02*
X203038570Y-121565371D01*
X203038570Y-121565371D02*
X203076666Y-121717752D01*
X203076666Y-121717752D02*
X203076666Y-121832038D01*
X203076666Y-121832038D02*
X203038570Y-121984419D01*
X203038570Y-121984419D02*
X203000475Y-122060609D01*
X203000475Y-122060609D02*
X202924285Y-122136800D01*
X202924285Y-122136800D02*
X202809999Y-122174895D01*
X202809999Y-122174895D02*
X202733808Y-122174895D01*
X202733808Y-122174895D02*
X202619523Y-122136800D01*
X202619523Y-122136800D02*
X202581427Y-122098704D01*
X202581427Y-122098704D02*
X202581427Y-121832038D01*
X202581427Y-121832038D02*
X202733808Y-121832038D01*
X202238570Y-122174895D02*
X202238570Y-121374895D01*
X202238570Y-121374895D02*
X201781427Y-122174895D01*
X201781427Y-122174895D02*
X201781427Y-121374895D01*
X201400475Y-122174895D02*
X201400475Y-121374895D01*
X201400475Y-121374895D02*
X201209999Y-121374895D01*
X201209999Y-121374895D02*
X201095713Y-121412990D01*
X201095713Y-121412990D02*
X201019523Y-121489180D01*
X201019523Y-121489180D02*
X200981428Y-121565371D01*
X200981428Y-121565371D02*
X200943332Y-121717752D01*
X200943332Y-121717752D02*
X200943332Y-121832038D01*
X200943332Y-121832038D02*
X200981428Y-121984419D01*
X200981428Y-121984419D02*
X201019523Y-122060609D01*
X201019523Y-122060609D02*
X201095713Y-122136800D01*
X201095713Y-122136800D02*
X201209999Y-122174895D01*
X201209999Y-122174895D02*
X201400475Y-122174895D01*
X240448570Y-169110133D02*
X239839047Y-169110133D01*
X240143808Y-169414895D02*
X240143808Y-168805371D01*
X239077142Y-168614895D02*
X239458094Y-168614895D01*
X239458094Y-168614895D02*
X239496190Y-168995847D01*
X239496190Y-168995847D02*
X239458094Y-168957752D01*
X239458094Y-168957752D02*
X239381904Y-168919657D01*
X239381904Y-168919657D02*
X239191428Y-168919657D01*
X239191428Y-168919657D02*
X239115237Y-168957752D01*
X239115237Y-168957752D02*
X239077142Y-168995847D01*
X239077142Y-168995847D02*
X239039047Y-169072038D01*
X239039047Y-169072038D02*
X239039047Y-169262514D01*
X239039047Y-169262514D02*
X239077142Y-169338704D01*
X239077142Y-169338704D02*
X239115237Y-169376800D01*
X239115237Y-169376800D02*
X239191428Y-169414895D01*
X239191428Y-169414895D02*
X239381904Y-169414895D01*
X239381904Y-169414895D02*
X239458094Y-169376800D01*
X239458094Y-169376800D02*
X239496190Y-169338704D01*
X238810475Y-168614895D02*
X238543808Y-169414895D01*
X238543808Y-169414895D02*
X238277142Y-168614895D01*
X222807142Y-114262371D02*
X222807142Y-114748085D01*
X222807142Y-114748085D02*
X222778571Y-114805228D01*
X222778571Y-114805228D02*
X222750000Y-114833800D01*
X222750000Y-114833800D02*
X222692857Y-114862371D01*
X222692857Y-114862371D02*
X222578571Y-114862371D01*
X222578571Y-114862371D02*
X222521428Y-114833800D01*
X222521428Y-114833800D02*
X222492857Y-114805228D01*
X222492857Y-114805228D02*
X222464285Y-114748085D01*
X222464285Y-114748085D02*
X222464285Y-114262371D01*
X221921429Y-114462371D02*
X221921429Y-114862371D01*
X222064286Y-114233800D02*
X222207143Y-114662371D01*
X222207143Y-114662371D02*
X221835714Y-114662371D01*
X205831964Y-121108978D02*
X205860536Y-121137550D01*
X205860536Y-121137550D02*
X205946250Y-121166121D01*
X205946250Y-121166121D02*
X206003393Y-121166121D01*
X206003393Y-121166121D02*
X206089107Y-121137550D01*
X206089107Y-121137550D02*
X206146250Y-121080407D01*
X206146250Y-121080407D02*
X206174821Y-121023264D01*
X206174821Y-121023264D02*
X206203393Y-120908978D01*
X206203393Y-120908978D02*
X206203393Y-120823264D01*
X206203393Y-120823264D02*
X206174821Y-120708978D01*
X206174821Y-120708978D02*
X206146250Y-120651835D01*
X206146250Y-120651835D02*
X206089107Y-120594692D01*
X206089107Y-120594692D02*
X206003393Y-120566121D01*
X206003393Y-120566121D02*
X205946250Y-120566121D01*
X205946250Y-120566121D02*
X205860536Y-120594692D01*
X205860536Y-120594692D02*
X205831964Y-120623264D01*
X205260536Y-121166121D02*
X205603393Y-121166121D01*
X205431964Y-121166121D02*
X205431964Y-120566121D01*
X205431964Y-120566121D02*
X205489107Y-120651835D01*
X205489107Y-120651835D02*
X205546250Y-120708978D01*
X205546250Y-120708978D02*
X205603393Y-120737550D01*
X204917678Y-120823264D02*
X204974821Y-120794692D01*
X204974821Y-120794692D02*
X205003392Y-120766121D01*
X205003392Y-120766121D02*
X205031964Y-120708978D01*
X205031964Y-120708978D02*
X205031964Y-120680407D01*
X205031964Y-120680407D02*
X205003392Y-120623264D01*
X205003392Y-120623264D02*
X204974821Y-120594692D01*
X204974821Y-120594692D02*
X204917678Y-120566121D01*
X204917678Y-120566121D02*
X204803392Y-120566121D01*
X204803392Y-120566121D02*
X204746250Y-120594692D01*
X204746250Y-120594692D02*
X204717678Y-120623264D01*
X204717678Y-120623264D02*
X204689107Y-120680407D01*
X204689107Y-120680407D02*
X204689107Y-120708978D01*
X204689107Y-120708978D02*
X204717678Y-120766121D01*
X204717678Y-120766121D02*
X204746250Y-120794692D01*
X204746250Y-120794692D02*
X204803392Y-120823264D01*
X204803392Y-120823264D02*
X204917678Y-120823264D01*
X204917678Y-120823264D02*
X204974821Y-120851835D01*
X204974821Y-120851835D02*
X205003392Y-120880407D01*
X205003392Y-120880407D02*
X205031964Y-120937550D01*
X205031964Y-120937550D02*
X205031964Y-121051835D01*
X205031964Y-121051835D02*
X205003392Y-121108978D01*
X205003392Y-121108978D02*
X204974821Y-121137550D01*
X204974821Y-121137550D02*
X204917678Y-121166121D01*
X204917678Y-121166121D02*
X204803392Y-121166121D01*
X204803392Y-121166121D02*
X204746250Y-121137550D01*
X204746250Y-121137550D02*
X204717678Y-121108978D01*
X204717678Y-121108978D02*
X204689107Y-121051835D01*
X204689107Y-121051835D02*
X204689107Y-120937550D01*
X204689107Y-120937550D02*
X204717678Y-120880407D01*
X204717678Y-120880407D02*
X204746250Y-120851835D01*
X204746250Y-120851835D02*
X204803392Y-120823264D01*
X225916250Y-130826121D02*
X225916250Y-131254692D01*
X225916250Y-131254692D02*
X225944821Y-131340407D01*
X225944821Y-131340407D02*
X226001964Y-131397550D01*
X226001964Y-131397550D02*
X226087678Y-131426121D01*
X226087678Y-131426121D02*
X226144821Y-131426121D01*
X225630535Y-131426121D02*
X225630535Y-130826121D01*
X225630535Y-130826121D02*
X225401964Y-130826121D01*
X225401964Y-130826121D02*
X225344821Y-130854692D01*
X225344821Y-130854692D02*
X225316250Y-130883264D01*
X225316250Y-130883264D02*
X225287678Y-130940407D01*
X225287678Y-130940407D02*
X225287678Y-131026121D01*
X225287678Y-131026121D02*
X225316250Y-131083264D01*
X225316250Y-131083264D02*
X225344821Y-131111835D01*
X225344821Y-131111835D02*
X225401964Y-131140407D01*
X225401964Y-131140407D02*
X225630535Y-131140407D01*
X224716250Y-131426121D02*
X225059107Y-131426121D01*
X224887678Y-131426121D02*
X224887678Y-130826121D01*
X224887678Y-130826121D02*
X224944821Y-130911835D01*
X224944821Y-130911835D02*
X225001964Y-130968978D01*
X225001964Y-130968978D02*
X225059107Y-130997550D01*
X210451964Y-126128978D02*
X210480536Y-126157550D01*
X210480536Y-126157550D02*
X210566250Y-126186121D01*
X210566250Y-126186121D02*
X210623393Y-126186121D01*
X210623393Y-126186121D02*
X210709107Y-126157550D01*
X210709107Y-126157550D02*
X210766250Y-126100407D01*
X210766250Y-126100407D02*
X210794821Y-126043264D01*
X210794821Y-126043264D02*
X210823393Y-125928978D01*
X210823393Y-125928978D02*
X210823393Y-125843264D01*
X210823393Y-125843264D02*
X210794821Y-125728978D01*
X210794821Y-125728978D02*
X210766250Y-125671835D01*
X210766250Y-125671835D02*
X210709107Y-125614692D01*
X210709107Y-125614692D02*
X210623393Y-125586121D01*
X210623393Y-125586121D02*
X210566250Y-125586121D01*
X210566250Y-125586121D02*
X210480536Y-125614692D01*
X210480536Y-125614692D02*
X210451964Y-125643264D01*
X209880536Y-126186121D02*
X210223393Y-126186121D01*
X210051964Y-126186121D02*
X210051964Y-125586121D01*
X210051964Y-125586121D02*
X210109107Y-125671835D01*
X210109107Y-125671835D02*
X210166250Y-125728978D01*
X210166250Y-125728978D02*
X210223393Y-125757550D01*
X209680535Y-125586121D02*
X209309107Y-125586121D01*
X209309107Y-125586121D02*
X209509107Y-125814692D01*
X209509107Y-125814692D02*
X209423392Y-125814692D01*
X209423392Y-125814692D02*
X209366250Y-125843264D01*
X209366250Y-125843264D02*
X209337678Y-125871835D01*
X209337678Y-125871835D02*
X209309107Y-125928978D01*
X209309107Y-125928978D02*
X209309107Y-126071835D01*
X209309107Y-126071835D02*
X209337678Y-126128978D01*
X209337678Y-126128978D02*
X209366250Y-126157550D01*
X209366250Y-126157550D02*
X209423392Y-126186121D01*
X209423392Y-126186121D02*
X209594821Y-126186121D01*
X209594821Y-126186121D02*
X209651964Y-126157550D01*
X209651964Y-126157550D02*
X209680535Y-126128978D01*
X221185714Y-134622371D02*
X221385714Y-134336657D01*
X221528571Y-134622371D02*
X221528571Y-134022371D01*
X221528571Y-134022371D02*
X221300000Y-134022371D01*
X221300000Y-134022371D02*
X221242857Y-134050942D01*
X221242857Y-134050942D02*
X221214286Y-134079514D01*
X221214286Y-134079514D02*
X221185714Y-134136657D01*
X221185714Y-134136657D02*
X221185714Y-134222371D01*
X221185714Y-134222371D02*
X221214286Y-134279514D01*
X221214286Y-134279514D02*
X221242857Y-134308085D01*
X221242857Y-134308085D02*
X221300000Y-134336657D01*
X221300000Y-134336657D02*
X221528571Y-134336657D01*
X220614286Y-134622371D02*
X220957143Y-134622371D01*
X220785714Y-134622371D02*
X220785714Y-134022371D01*
X220785714Y-134022371D02*
X220842857Y-134108085D01*
X220842857Y-134108085D02*
X220900000Y-134165228D01*
X220900000Y-134165228D02*
X220957143Y-134193800D01*
X220042857Y-134622371D02*
X220385714Y-134622371D01*
X220214285Y-134622371D02*
X220214285Y-134022371D01*
X220214285Y-134022371D02*
X220271428Y-134108085D01*
X220271428Y-134108085D02*
X220328571Y-134165228D01*
X220328571Y-134165228D02*
X220385714Y-134193800D01*
X217115714Y-110012371D02*
X217315714Y-109726657D01*
X217458571Y-110012371D02*
X217458571Y-109412371D01*
X217458571Y-109412371D02*
X217230000Y-109412371D01*
X217230000Y-109412371D02*
X217172857Y-109440942D01*
X217172857Y-109440942D02*
X217144286Y-109469514D01*
X217144286Y-109469514D02*
X217115714Y-109526657D01*
X217115714Y-109526657D02*
X217115714Y-109612371D01*
X217115714Y-109612371D02*
X217144286Y-109669514D01*
X217144286Y-109669514D02*
X217172857Y-109698085D01*
X217172857Y-109698085D02*
X217230000Y-109726657D01*
X217230000Y-109726657D02*
X217458571Y-109726657D01*
X216544286Y-110012371D02*
X216887143Y-110012371D01*
X216715714Y-110012371D02*
X216715714Y-109412371D01*
X216715714Y-109412371D02*
X216772857Y-109498085D01*
X216772857Y-109498085D02*
X216830000Y-109555228D01*
X216830000Y-109555228D02*
X216887143Y-109583800D01*
X216030000Y-109412371D02*
X216144285Y-109412371D01*
X216144285Y-109412371D02*
X216201428Y-109440942D01*
X216201428Y-109440942D02*
X216230000Y-109469514D01*
X216230000Y-109469514D02*
X216287142Y-109555228D01*
X216287142Y-109555228D02*
X216315714Y-109669514D01*
X216315714Y-109669514D02*
X216315714Y-109898085D01*
X216315714Y-109898085D02*
X216287142Y-109955228D01*
X216287142Y-109955228D02*
X216258571Y-109983800D01*
X216258571Y-109983800D02*
X216201428Y-110012371D01*
X216201428Y-110012371D02*
X216087142Y-110012371D01*
X216087142Y-110012371D02*
X216030000Y-109983800D01*
X216030000Y-109983800D02*
X216001428Y-109955228D01*
X216001428Y-109955228D02*
X215972857Y-109898085D01*
X215972857Y-109898085D02*
X215972857Y-109755228D01*
X215972857Y-109755228D02*
X216001428Y-109698085D01*
X216001428Y-109698085D02*
X216030000Y-109669514D01*
X216030000Y-109669514D02*
X216087142Y-109640942D01*
X216087142Y-109640942D02*
X216201428Y-109640942D01*
X216201428Y-109640942D02*
X216258571Y-109669514D01*
X216258571Y-109669514D02*
X216287142Y-109698085D01*
X216287142Y-109698085D02*
X216315714Y-109755228D01*
X205891964Y-112828978D02*
X205920536Y-112857550D01*
X205920536Y-112857550D02*
X206006250Y-112886121D01*
X206006250Y-112886121D02*
X206063393Y-112886121D01*
X206063393Y-112886121D02*
X206149107Y-112857550D01*
X206149107Y-112857550D02*
X206206250Y-112800407D01*
X206206250Y-112800407D02*
X206234821Y-112743264D01*
X206234821Y-112743264D02*
X206263393Y-112628978D01*
X206263393Y-112628978D02*
X206263393Y-112543264D01*
X206263393Y-112543264D02*
X206234821Y-112428978D01*
X206234821Y-112428978D02*
X206206250Y-112371835D01*
X206206250Y-112371835D02*
X206149107Y-112314692D01*
X206149107Y-112314692D02*
X206063393Y-112286121D01*
X206063393Y-112286121D02*
X206006250Y-112286121D01*
X206006250Y-112286121D02*
X205920536Y-112314692D01*
X205920536Y-112314692D02*
X205891964Y-112343264D01*
X205320536Y-112886121D02*
X205663393Y-112886121D01*
X205491964Y-112886121D02*
X205491964Y-112286121D01*
X205491964Y-112286121D02*
X205549107Y-112371835D01*
X205549107Y-112371835D02*
X205606250Y-112428978D01*
X205606250Y-112428978D02*
X205663393Y-112457550D01*
X204806250Y-112286121D02*
X204920535Y-112286121D01*
X204920535Y-112286121D02*
X204977678Y-112314692D01*
X204977678Y-112314692D02*
X205006250Y-112343264D01*
X205006250Y-112343264D02*
X205063392Y-112428978D01*
X205063392Y-112428978D02*
X205091964Y-112543264D01*
X205091964Y-112543264D02*
X205091964Y-112771835D01*
X205091964Y-112771835D02*
X205063392Y-112828978D01*
X205063392Y-112828978D02*
X205034821Y-112857550D01*
X205034821Y-112857550D02*
X204977678Y-112886121D01*
X204977678Y-112886121D02*
X204863392Y-112886121D01*
X204863392Y-112886121D02*
X204806250Y-112857550D01*
X204806250Y-112857550D02*
X204777678Y-112828978D01*
X204777678Y-112828978D02*
X204749107Y-112771835D01*
X204749107Y-112771835D02*
X204749107Y-112628978D01*
X204749107Y-112628978D02*
X204777678Y-112571835D01*
X204777678Y-112571835D02*
X204806250Y-112543264D01*
X204806250Y-112543264D02*
X204863392Y-112514692D01*
X204863392Y-112514692D02*
X204977678Y-112514692D01*
X204977678Y-112514692D02*
X205034821Y-112543264D01*
X205034821Y-112543264D02*
X205063392Y-112571835D01*
X205063392Y-112571835D02*
X205091964Y-112628978D01*
X221086249Y-128068978D02*
X221114821Y-128097550D01*
X221114821Y-128097550D02*
X221200535Y-128126121D01*
X221200535Y-128126121D02*
X221257678Y-128126121D01*
X221257678Y-128126121D02*
X221343392Y-128097550D01*
X221343392Y-128097550D02*
X221400535Y-128040407D01*
X221400535Y-128040407D02*
X221429106Y-127983264D01*
X221429106Y-127983264D02*
X221457678Y-127868978D01*
X221457678Y-127868978D02*
X221457678Y-127783264D01*
X221457678Y-127783264D02*
X221429106Y-127668978D01*
X221429106Y-127668978D02*
X221400535Y-127611835D01*
X221400535Y-127611835D02*
X221343392Y-127554692D01*
X221343392Y-127554692D02*
X221257678Y-127526121D01*
X221257678Y-127526121D02*
X221200535Y-127526121D01*
X221200535Y-127526121D02*
X221114821Y-127554692D01*
X221114821Y-127554692D02*
X221086249Y-127583264D01*
X220800535Y-128126121D02*
X220686249Y-128126121D01*
X220686249Y-128126121D02*
X220629106Y-128097550D01*
X220629106Y-128097550D02*
X220600535Y-128068978D01*
X220600535Y-128068978D02*
X220543392Y-127983264D01*
X220543392Y-127983264D02*
X220514821Y-127868978D01*
X220514821Y-127868978D02*
X220514821Y-127640407D01*
X220514821Y-127640407D02*
X220543392Y-127583264D01*
X220543392Y-127583264D02*
X220571964Y-127554692D01*
X220571964Y-127554692D02*
X220629106Y-127526121D01*
X220629106Y-127526121D02*
X220743392Y-127526121D01*
X220743392Y-127526121D02*
X220800535Y-127554692D01*
X220800535Y-127554692D02*
X220829106Y-127583264D01*
X220829106Y-127583264D02*
X220857678Y-127640407D01*
X220857678Y-127640407D02*
X220857678Y-127783264D01*
X220857678Y-127783264D02*
X220829106Y-127840407D01*
X220829106Y-127840407D02*
X220800535Y-127868978D01*
X220800535Y-127868978D02*
X220743392Y-127897550D01*
X220743392Y-127897550D02*
X220629106Y-127897550D01*
X220629106Y-127897550D02*
X220571964Y-127868978D01*
X220571964Y-127868978D02*
X220543392Y-127840407D01*
X220543392Y-127840407D02*
X220514821Y-127783264D01*
X220015714Y-106985228D02*
X220044286Y-107013800D01*
X220044286Y-107013800D02*
X220130000Y-107042371D01*
X220130000Y-107042371D02*
X220187143Y-107042371D01*
X220187143Y-107042371D02*
X220272857Y-107013800D01*
X220272857Y-107013800D02*
X220330000Y-106956657D01*
X220330000Y-106956657D02*
X220358571Y-106899514D01*
X220358571Y-106899514D02*
X220387143Y-106785228D01*
X220387143Y-106785228D02*
X220387143Y-106699514D01*
X220387143Y-106699514D02*
X220358571Y-106585228D01*
X220358571Y-106585228D02*
X220330000Y-106528085D01*
X220330000Y-106528085D02*
X220272857Y-106470942D01*
X220272857Y-106470942D02*
X220187143Y-106442371D01*
X220187143Y-106442371D02*
X220130000Y-106442371D01*
X220130000Y-106442371D02*
X220044286Y-106470942D01*
X220044286Y-106470942D02*
X220015714Y-106499514D01*
X219444286Y-107042371D02*
X219787143Y-107042371D01*
X219615714Y-107042371D02*
X219615714Y-106442371D01*
X219615714Y-106442371D02*
X219672857Y-106528085D01*
X219672857Y-106528085D02*
X219730000Y-106585228D01*
X219730000Y-106585228D02*
X219787143Y-106613800D01*
X218872857Y-107042371D02*
X219215714Y-107042371D01*
X219044285Y-107042371D02*
X219044285Y-106442371D01*
X219044285Y-106442371D02*
X219101428Y-106528085D01*
X219101428Y-106528085D02*
X219158571Y-106585228D01*
X219158571Y-106585228D02*
X219215714Y-106613800D01*
X215755714Y-130812371D02*
X215955714Y-130526657D01*
X216098571Y-130812371D02*
X216098571Y-130212371D01*
X216098571Y-130212371D02*
X215870000Y-130212371D01*
X215870000Y-130212371D02*
X215812857Y-130240942D01*
X215812857Y-130240942D02*
X215784286Y-130269514D01*
X215784286Y-130269514D02*
X215755714Y-130326657D01*
X215755714Y-130326657D02*
X215755714Y-130412371D01*
X215755714Y-130412371D02*
X215784286Y-130469514D01*
X215784286Y-130469514D02*
X215812857Y-130498085D01*
X215812857Y-130498085D02*
X215870000Y-130526657D01*
X215870000Y-130526657D02*
X216098571Y-130526657D01*
X215184286Y-130812371D02*
X215527143Y-130812371D01*
X215355714Y-130812371D02*
X215355714Y-130212371D01*
X215355714Y-130212371D02*
X215412857Y-130298085D01*
X215412857Y-130298085D02*
X215470000Y-130355228D01*
X215470000Y-130355228D02*
X215527143Y-130383800D01*
X214641428Y-130212371D02*
X214927142Y-130212371D01*
X214927142Y-130212371D02*
X214955714Y-130498085D01*
X214955714Y-130498085D02*
X214927142Y-130469514D01*
X214927142Y-130469514D02*
X214870000Y-130440942D01*
X214870000Y-130440942D02*
X214727142Y-130440942D01*
X214727142Y-130440942D02*
X214670000Y-130469514D01*
X214670000Y-130469514D02*
X214641428Y-130498085D01*
X214641428Y-130498085D02*
X214612857Y-130555228D01*
X214612857Y-130555228D02*
X214612857Y-130698085D01*
X214612857Y-130698085D02*
X214641428Y-130755228D01*
X214641428Y-130755228D02*
X214670000Y-130783800D01*
X214670000Y-130783800D02*
X214727142Y-130812371D01*
X214727142Y-130812371D02*
X214870000Y-130812371D01*
X214870000Y-130812371D02*
X214927142Y-130783800D01*
X214927142Y-130783800D02*
X214955714Y-130755228D01*
X226805714Y-125265228D02*
X226834286Y-125293800D01*
X226834286Y-125293800D02*
X226920000Y-125322371D01*
X226920000Y-125322371D02*
X226977143Y-125322371D01*
X226977143Y-125322371D02*
X227062857Y-125293800D01*
X227062857Y-125293800D02*
X227120000Y-125236657D01*
X227120000Y-125236657D02*
X227148571Y-125179514D01*
X227148571Y-125179514D02*
X227177143Y-125065228D01*
X227177143Y-125065228D02*
X227177143Y-124979514D01*
X227177143Y-124979514D02*
X227148571Y-124865228D01*
X227148571Y-124865228D02*
X227120000Y-124808085D01*
X227120000Y-124808085D02*
X227062857Y-124750942D01*
X227062857Y-124750942D02*
X226977143Y-124722371D01*
X226977143Y-124722371D02*
X226920000Y-124722371D01*
X226920000Y-124722371D02*
X226834286Y-124750942D01*
X226834286Y-124750942D02*
X226805714Y-124779514D01*
X226234286Y-125322371D02*
X226577143Y-125322371D01*
X226405714Y-125322371D02*
X226405714Y-124722371D01*
X226405714Y-124722371D02*
X226462857Y-124808085D01*
X226462857Y-124808085D02*
X226520000Y-124865228D01*
X226520000Y-124865228D02*
X226577143Y-124893800D01*
X225720000Y-124922371D02*
X225720000Y-125322371D01*
X225862857Y-124693800D02*
X226005714Y-125122371D01*
X226005714Y-125122371D02*
X225634285Y-125122371D01*
X223765714Y-120875228D02*
X223794286Y-120903800D01*
X223794286Y-120903800D02*
X223880000Y-120932371D01*
X223880000Y-120932371D02*
X223937143Y-120932371D01*
X223937143Y-120932371D02*
X224022857Y-120903800D01*
X224022857Y-120903800D02*
X224080000Y-120846657D01*
X224080000Y-120846657D02*
X224108571Y-120789514D01*
X224108571Y-120789514D02*
X224137143Y-120675228D01*
X224137143Y-120675228D02*
X224137143Y-120589514D01*
X224137143Y-120589514D02*
X224108571Y-120475228D01*
X224108571Y-120475228D02*
X224080000Y-120418085D01*
X224080000Y-120418085D02*
X224022857Y-120360942D01*
X224022857Y-120360942D02*
X223937143Y-120332371D01*
X223937143Y-120332371D02*
X223880000Y-120332371D01*
X223880000Y-120332371D02*
X223794286Y-120360942D01*
X223794286Y-120360942D02*
X223765714Y-120389514D01*
X223194286Y-120932371D02*
X223537143Y-120932371D01*
X223365714Y-120932371D02*
X223365714Y-120332371D01*
X223365714Y-120332371D02*
X223422857Y-120418085D01*
X223422857Y-120418085D02*
X223480000Y-120475228D01*
X223480000Y-120475228D02*
X223537143Y-120503800D01*
X222651428Y-120332371D02*
X222937142Y-120332371D01*
X222937142Y-120332371D02*
X222965714Y-120618085D01*
X222965714Y-120618085D02*
X222937142Y-120589514D01*
X222937142Y-120589514D02*
X222880000Y-120560942D01*
X222880000Y-120560942D02*
X222737142Y-120560942D01*
X222737142Y-120560942D02*
X222680000Y-120589514D01*
X222680000Y-120589514D02*
X222651428Y-120618085D01*
X222651428Y-120618085D02*
X222622857Y-120675228D01*
X222622857Y-120675228D02*
X222622857Y-120818085D01*
X222622857Y-120818085D02*
X222651428Y-120875228D01*
X222651428Y-120875228D02*
X222680000Y-120903800D01*
X222680000Y-120903800D02*
X222737142Y-120932371D01*
X222737142Y-120932371D02*
X222880000Y-120932371D01*
X222880000Y-120932371D02*
X222937142Y-120903800D01*
X222937142Y-120903800D02*
X222965714Y-120875228D01*
X207845714Y-116902371D02*
X208045714Y-116616657D01*
X208188571Y-116902371D02*
X208188571Y-116302371D01*
X208188571Y-116302371D02*
X207960000Y-116302371D01*
X207960000Y-116302371D02*
X207902857Y-116330942D01*
X207902857Y-116330942D02*
X207874286Y-116359514D01*
X207874286Y-116359514D02*
X207845714Y-116416657D01*
X207845714Y-116416657D02*
X207845714Y-116502371D01*
X207845714Y-116502371D02*
X207874286Y-116559514D01*
X207874286Y-116559514D02*
X207902857Y-116588085D01*
X207902857Y-116588085D02*
X207960000Y-116616657D01*
X207960000Y-116616657D02*
X208188571Y-116616657D01*
X207274286Y-116902371D02*
X207617143Y-116902371D01*
X207445714Y-116902371D02*
X207445714Y-116302371D01*
X207445714Y-116302371D02*
X207502857Y-116388085D01*
X207502857Y-116388085D02*
X207560000Y-116445228D01*
X207560000Y-116445228D02*
X207617143Y-116473800D01*
X206931428Y-116559514D02*
X206988571Y-116530942D01*
X206988571Y-116530942D02*
X207017142Y-116502371D01*
X207017142Y-116502371D02*
X207045714Y-116445228D01*
X207045714Y-116445228D02*
X207045714Y-116416657D01*
X207045714Y-116416657D02*
X207017142Y-116359514D01*
X207017142Y-116359514D02*
X206988571Y-116330942D01*
X206988571Y-116330942D02*
X206931428Y-116302371D01*
X206931428Y-116302371D02*
X206817142Y-116302371D01*
X206817142Y-116302371D02*
X206760000Y-116330942D01*
X206760000Y-116330942D02*
X206731428Y-116359514D01*
X206731428Y-116359514D02*
X206702857Y-116416657D01*
X206702857Y-116416657D02*
X206702857Y-116445228D01*
X206702857Y-116445228D02*
X206731428Y-116502371D01*
X206731428Y-116502371D02*
X206760000Y-116530942D01*
X206760000Y-116530942D02*
X206817142Y-116559514D01*
X206817142Y-116559514D02*
X206931428Y-116559514D01*
X206931428Y-116559514D02*
X206988571Y-116588085D01*
X206988571Y-116588085D02*
X207017142Y-116616657D01*
X207017142Y-116616657D02*
X207045714Y-116673800D01*
X207045714Y-116673800D02*
X207045714Y-116788085D01*
X207045714Y-116788085D02*
X207017142Y-116845228D01*
X207017142Y-116845228D02*
X206988571Y-116873800D01*
X206988571Y-116873800D02*
X206931428Y-116902371D01*
X206931428Y-116902371D02*
X206817142Y-116902371D01*
X206817142Y-116902371D02*
X206760000Y-116873800D01*
X206760000Y-116873800D02*
X206731428Y-116845228D01*
X206731428Y-116845228D02*
X206702857Y-116788085D01*
X206702857Y-116788085D02*
X206702857Y-116673800D01*
X206702857Y-116673800D02*
X206731428Y-116616657D01*
X206731428Y-116616657D02*
X206760000Y-116588085D01*
X206760000Y-116588085D02*
X206817142Y-116559514D01*
X226925714Y-116602371D02*
X227125714Y-116316657D01*
X227268571Y-116602371D02*
X227268571Y-116002371D01*
X227268571Y-116002371D02*
X227040000Y-116002371D01*
X227040000Y-116002371D02*
X226982857Y-116030942D01*
X226982857Y-116030942D02*
X226954286Y-116059514D01*
X226954286Y-116059514D02*
X226925714Y-116116657D01*
X226925714Y-116116657D02*
X226925714Y-116202371D01*
X226925714Y-116202371D02*
X226954286Y-116259514D01*
X226954286Y-116259514D02*
X226982857Y-116288085D01*
X226982857Y-116288085D02*
X227040000Y-116316657D01*
X227040000Y-116316657D02*
X227268571Y-116316657D01*
X226354286Y-116602371D02*
X226697143Y-116602371D01*
X226525714Y-116602371D02*
X226525714Y-116002371D01*
X226525714Y-116002371D02*
X226582857Y-116088085D01*
X226582857Y-116088085D02*
X226640000Y-116145228D01*
X226640000Y-116145228D02*
X226697143Y-116173800D01*
X226154285Y-116002371D02*
X225754285Y-116002371D01*
X225754285Y-116002371D02*
X226011428Y-116602371D01*
X227899999Y-106802371D02*
X228185713Y-106802371D01*
X228185713Y-106802371D02*
X228185713Y-106202371D01*
X227728571Y-106259514D02*
X227699999Y-106230942D01*
X227699999Y-106230942D02*
X227642857Y-106202371D01*
X227642857Y-106202371D02*
X227499999Y-106202371D01*
X227499999Y-106202371D02*
X227442857Y-106230942D01*
X227442857Y-106230942D02*
X227414285Y-106259514D01*
X227414285Y-106259514D02*
X227385714Y-106316657D01*
X227385714Y-106316657D02*
X227385714Y-106373800D01*
X227385714Y-106373800D02*
X227414285Y-106459514D01*
X227414285Y-106459514D02*
X227757142Y-106802371D01*
X227757142Y-106802371D02*
X227385714Y-106802371D01*
X205711964Y-118308978D02*
X205740536Y-118337550D01*
X205740536Y-118337550D02*
X205826250Y-118366121D01*
X205826250Y-118366121D02*
X205883393Y-118366121D01*
X205883393Y-118366121D02*
X205969107Y-118337550D01*
X205969107Y-118337550D02*
X206026250Y-118280407D01*
X206026250Y-118280407D02*
X206054821Y-118223264D01*
X206054821Y-118223264D02*
X206083393Y-118108978D01*
X206083393Y-118108978D02*
X206083393Y-118023264D01*
X206083393Y-118023264D02*
X206054821Y-117908978D01*
X206054821Y-117908978D02*
X206026250Y-117851835D01*
X206026250Y-117851835D02*
X205969107Y-117794692D01*
X205969107Y-117794692D02*
X205883393Y-117766121D01*
X205883393Y-117766121D02*
X205826250Y-117766121D01*
X205826250Y-117766121D02*
X205740536Y-117794692D01*
X205740536Y-117794692D02*
X205711964Y-117823264D01*
X205140536Y-118366121D02*
X205483393Y-118366121D01*
X205311964Y-118366121D02*
X205311964Y-117766121D01*
X205311964Y-117766121D02*
X205369107Y-117851835D01*
X205369107Y-117851835D02*
X205426250Y-117908978D01*
X205426250Y-117908978D02*
X205483393Y-117937550D01*
X204940535Y-117766121D02*
X204540535Y-117766121D01*
X204540535Y-117766121D02*
X204797678Y-118366121D01*
X221741964Y-125438978D02*
X221770536Y-125467550D01*
X221770536Y-125467550D02*
X221856250Y-125496121D01*
X221856250Y-125496121D02*
X221913393Y-125496121D01*
X221913393Y-125496121D02*
X221999107Y-125467550D01*
X221999107Y-125467550D02*
X222056250Y-125410407D01*
X222056250Y-125410407D02*
X222084821Y-125353264D01*
X222084821Y-125353264D02*
X222113393Y-125238978D01*
X222113393Y-125238978D02*
X222113393Y-125153264D01*
X222113393Y-125153264D02*
X222084821Y-125038978D01*
X222084821Y-125038978D02*
X222056250Y-124981835D01*
X222056250Y-124981835D02*
X221999107Y-124924692D01*
X221999107Y-124924692D02*
X221913393Y-124896121D01*
X221913393Y-124896121D02*
X221856250Y-124896121D01*
X221856250Y-124896121D02*
X221770536Y-124924692D01*
X221770536Y-124924692D02*
X221741964Y-124953264D01*
X221170536Y-125496121D02*
X221513393Y-125496121D01*
X221341964Y-125496121D02*
X221341964Y-124896121D01*
X221341964Y-124896121D02*
X221399107Y-124981835D01*
X221399107Y-124981835D02*
X221456250Y-125038978D01*
X221456250Y-125038978D02*
X221513393Y-125067550D01*
X220941964Y-124953264D02*
X220913392Y-124924692D01*
X220913392Y-124924692D02*
X220856250Y-124896121D01*
X220856250Y-124896121D02*
X220713392Y-124896121D01*
X220713392Y-124896121D02*
X220656250Y-124924692D01*
X220656250Y-124924692D02*
X220627678Y-124953264D01*
X220627678Y-124953264D02*
X220599107Y-125010407D01*
X220599107Y-125010407D02*
X220599107Y-125067550D01*
X220599107Y-125067550D02*
X220627678Y-125153264D01*
X220627678Y-125153264D02*
X220970535Y-125496121D01*
X220970535Y-125496121D02*
X220599107Y-125496121D01*
X205831964Y-123716121D02*
X206031964Y-123430407D01*
X206174821Y-123716121D02*
X206174821Y-123116121D01*
X206174821Y-123116121D02*
X205946250Y-123116121D01*
X205946250Y-123116121D02*
X205889107Y-123144692D01*
X205889107Y-123144692D02*
X205860536Y-123173264D01*
X205860536Y-123173264D02*
X205831964Y-123230407D01*
X205831964Y-123230407D02*
X205831964Y-123316121D01*
X205831964Y-123316121D02*
X205860536Y-123373264D01*
X205860536Y-123373264D02*
X205889107Y-123401835D01*
X205889107Y-123401835D02*
X205946250Y-123430407D01*
X205946250Y-123430407D02*
X206174821Y-123430407D01*
X205260536Y-123716121D02*
X205603393Y-123716121D01*
X205431964Y-123716121D02*
X205431964Y-123116121D01*
X205431964Y-123116121D02*
X205489107Y-123201835D01*
X205489107Y-123201835D02*
X205546250Y-123258978D01*
X205546250Y-123258978D02*
X205603393Y-123287550D01*
X204974821Y-123716121D02*
X204860535Y-123716121D01*
X204860535Y-123716121D02*
X204803392Y-123687550D01*
X204803392Y-123687550D02*
X204774821Y-123658978D01*
X204774821Y-123658978D02*
X204717678Y-123573264D01*
X204717678Y-123573264D02*
X204689107Y-123458978D01*
X204689107Y-123458978D02*
X204689107Y-123230407D01*
X204689107Y-123230407D02*
X204717678Y-123173264D01*
X204717678Y-123173264D02*
X204746250Y-123144692D01*
X204746250Y-123144692D02*
X204803392Y-123116121D01*
X204803392Y-123116121D02*
X204917678Y-123116121D01*
X204917678Y-123116121D02*
X204974821Y-123144692D01*
X204974821Y-123144692D02*
X205003392Y-123173264D01*
X205003392Y-123173264D02*
X205031964Y-123230407D01*
X205031964Y-123230407D02*
X205031964Y-123373264D01*
X205031964Y-123373264D02*
X205003392Y-123430407D01*
X205003392Y-123430407D02*
X204974821Y-123458978D01*
X204974821Y-123458978D02*
X204917678Y-123487550D01*
X204917678Y-123487550D02*
X204803392Y-123487550D01*
X204803392Y-123487550D02*
X204746250Y-123458978D01*
X204746250Y-123458978D02*
X204717678Y-123430407D01*
X204717678Y-123430407D02*
X204689107Y-123373264D01*
X213435714Y-109055228D02*
X213464286Y-109083800D01*
X213464286Y-109083800D02*
X213550000Y-109112371D01*
X213550000Y-109112371D02*
X213607143Y-109112371D01*
X213607143Y-109112371D02*
X213692857Y-109083800D01*
X213692857Y-109083800D02*
X213750000Y-109026657D01*
X213750000Y-109026657D02*
X213778571Y-108969514D01*
X213778571Y-108969514D02*
X213807143Y-108855228D01*
X213807143Y-108855228D02*
X213807143Y-108769514D01*
X213807143Y-108769514D02*
X213778571Y-108655228D01*
X213778571Y-108655228D02*
X213750000Y-108598085D01*
X213750000Y-108598085D02*
X213692857Y-108540942D01*
X213692857Y-108540942D02*
X213607143Y-108512371D01*
X213607143Y-108512371D02*
X213550000Y-108512371D01*
X213550000Y-108512371D02*
X213464286Y-108540942D01*
X213464286Y-108540942D02*
X213435714Y-108569514D01*
X212864286Y-109112371D02*
X213207143Y-109112371D01*
X213035714Y-109112371D02*
X213035714Y-108512371D01*
X213035714Y-108512371D02*
X213092857Y-108598085D01*
X213092857Y-108598085D02*
X213150000Y-108655228D01*
X213150000Y-108655228D02*
X213207143Y-108683800D01*
X212492857Y-108512371D02*
X212435714Y-108512371D01*
X212435714Y-108512371D02*
X212378571Y-108540942D01*
X212378571Y-108540942D02*
X212350000Y-108569514D01*
X212350000Y-108569514D02*
X212321428Y-108626657D01*
X212321428Y-108626657D02*
X212292857Y-108740942D01*
X212292857Y-108740942D02*
X212292857Y-108883800D01*
X212292857Y-108883800D02*
X212321428Y-108998085D01*
X212321428Y-108998085D02*
X212350000Y-109055228D01*
X212350000Y-109055228D02*
X212378571Y-109083800D01*
X212378571Y-109083800D02*
X212435714Y-109112371D01*
X212435714Y-109112371D02*
X212492857Y-109112371D01*
X212492857Y-109112371D02*
X212550000Y-109083800D01*
X212550000Y-109083800D02*
X212578571Y-109055228D01*
X212578571Y-109055228D02*
X212607142Y-108998085D01*
X212607142Y-108998085D02*
X212635714Y-108883800D01*
X212635714Y-108883800D02*
X212635714Y-108740942D01*
X212635714Y-108740942D02*
X212607142Y-108626657D01*
X212607142Y-108626657D02*
X212578571Y-108569514D01*
X212578571Y-108569514D02*
X212550000Y-108540942D01*
X212550000Y-108540942D02*
X212492857Y-108512371D01*
X219437142Y-169182371D02*
X219437142Y-169668085D01*
X219437142Y-169668085D02*
X219408571Y-169725228D01*
X219408571Y-169725228D02*
X219380000Y-169753800D01*
X219380000Y-169753800D02*
X219322857Y-169782371D01*
X219322857Y-169782371D02*
X219208571Y-169782371D01*
X219208571Y-169782371D02*
X219151428Y-169753800D01*
X219151428Y-169753800D02*
X219122857Y-169725228D01*
X219122857Y-169725228D02*
X219094285Y-169668085D01*
X219094285Y-169668085D02*
X219094285Y-169182371D01*
X218494286Y-169782371D02*
X218837143Y-169782371D01*
X218665714Y-169782371D02*
X218665714Y-169182371D01*
X218665714Y-169182371D02*
X218722857Y-169268085D01*
X218722857Y-169268085D02*
X218780000Y-169325228D01*
X218780000Y-169325228D02*
X218837143Y-169353800D01*
D11*
%TO.C,U4*%
X220735000Y-121225000D02*
X220135000Y-121225000D01*
X220735000Y-121225000D02*
X220735000Y-120625000D01*
X214485000Y-114975000D02*
X214485000Y-115575000D01*
X214485000Y-121225000D02*
X214485000Y-120625000D01*
X220735000Y-114975000D02*
X220135000Y-114975000D01*
X214485000Y-121225000D02*
X215085000Y-121225000D01*
X214485000Y-114975000D02*
X215085000Y-114975000D01*
D12*
%TO.C,C18*%
X207994998Y-121608750D02*
X208517502Y-121608750D01*
X207994998Y-120138750D02*
X208517502Y-120138750D01*
%TO.C,C13*%
X212704998Y-124958750D02*
X213227502Y-124958750D01*
X212704998Y-126428750D02*
X213227502Y-126428750D01*
%TO.C,R11*%
X218533314Y-133578750D02*
X218079186Y-133578750D01*
X218533314Y-132108750D02*
X218079186Y-132108750D01*
%TO.C,R16*%
X217209186Y-111918750D02*
X217663314Y-111918750D01*
X217209186Y-110448750D02*
X217663314Y-110448750D01*
%TO.C,C16*%
X208194998Y-111868750D02*
X208717502Y-111868750D01*
X208194998Y-113338750D02*
X208717502Y-113338750D01*
%TO.C,C9*%
X218114998Y-127148750D02*
X218637502Y-127148750D01*
X218114998Y-128618750D02*
X218637502Y-128618750D01*
%TO.C,C11*%
X219374998Y-109018750D02*
X219897502Y-109018750D01*
X219374998Y-107548750D02*
X219897502Y-107548750D01*
%TO.C,R15*%
X218076686Y-129888750D02*
X218530814Y-129888750D01*
X218076686Y-131358750D02*
X218530814Y-131358750D01*
%TO.C,C14*%
X226287502Y-124178750D02*
X225764998Y-124178750D01*
X226287502Y-122708750D02*
X225764998Y-122708750D01*
%TO.C,C15*%
X226337502Y-121358750D02*
X225814998Y-121358750D01*
X226337502Y-119888750D02*
X225814998Y-119888750D01*
%TO.C,R18*%
X208643314Y-115648750D02*
X208189186Y-115648750D01*
X208643314Y-114178750D02*
X208189186Y-114178750D01*
%TO.C,R17*%
X225899186Y-118568750D02*
X226353314Y-118568750D01*
X225899186Y-117098750D02*
X226353314Y-117098750D01*
%TO.C,C17*%
X208044998Y-118988750D02*
X208567502Y-118988750D01*
X208044998Y-117518750D02*
X208567502Y-117518750D01*
%TO.C,C12*%
X218687502Y-124398750D02*
X218164998Y-124398750D01*
X218687502Y-125868750D02*
X218164998Y-125868750D01*
%TO.C,R19*%
X207939186Y-124098750D02*
X208393314Y-124098750D01*
X207939186Y-122628750D02*
X208393314Y-122628750D01*
%TO.C,C10*%
X213617502Y-109668750D02*
X213094998Y-109668750D01*
X213617502Y-111138750D02*
X213094998Y-111138750D01*
D11*
%TO.C,U1*%
X237780010Y-157199990D02*
X237780010Y-143899990D01*
X219970010Y-170879990D02*
X222750010Y-170879990D01*
X230080010Y-143899990D02*
X227610010Y-143899990D01*
X237780010Y-170879990D02*
X234960010Y-170879990D01*
X219960010Y-143899990D02*
X221860010Y-143899990D01*
X237770010Y-143899990D02*
X235620010Y-143889990D01*
X219980010Y-143899990D02*
X219980010Y-170899990D01*
X237780010Y-170899990D02*
X237780010Y-157199990D01*
X222880010Y-145899990D02*
G75*
G03*
X220880010Y-145899990I-1000000J0D01*
G01*
X220880010Y-145899990D02*
G75*
G03*
X222880010Y-145899990I1000000J0D01*
G01*
X236880010Y-145899990D02*
G75*
G03*
X234880010Y-145899990I-1000000J0D01*
G01*
X234880010Y-145899990D02*
G75*
G03*
X236880010Y-145899990I1000000J0D01*
G01*
%TD*%
M02*
