%TF.GenerationSoftware,KiCad,Pcbnew,7.0.10*%
%TF.CreationDate,2025-01-07T15:59:30-07:00*%
%TF.ProjectId,HATA_ver_8.3.1,48415441-5f76-4657-925f-382e332e312e,8.3.1*%
%TF.SameCoordinates,Original*%
%TF.FileFunction,Copper,L2,Inr*%
%TF.FilePolarity,Positive*%
%FSLAX46Y46*%
G04 Gerber Fmt 4.6, Leading zero omitted, Abs format (unit mm)*
G04 Created by KiCad (PCBNEW 7.0.10) date 2025-01-07 15:59:30*
%MOMM*%
%LPD*%
G01*
G04 APERTURE LIST*
%TA.AperFunction,ComponentPad*%
%ADD10C,1.500000*%
%TD*%
%TA.AperFunction,ComponentPad*%
%ADD11O,1.700000X1.700000*%
%TD*%
%TA.AperFunction,ComponentPad*%
%ADD12R,1.700000X1.700000*%
%TD*%
%TA.AperFunction,ComponentPad*%
%ADD13O,1.800000X1.000000*%
%TD*%
%TA.AperFunction,ComponentPad*%
%ADD14O,2.100000X1.000000*%
%TD*%
%TA.AperFunction,ViaPad*%
%ADD15C,0.600000*%
%TD*%
G04 APERTURE END LIST*
D10*
%TO.N,Net-(C3-Pad1)*%
%TO.C,TP3*%
X239430000Y-151780000D03*
%TD*%
%TO.N,/Power control/AC_IN*%
%TO.C,TP5*%
X202040000Y-127380000D03*
%TD*%
D11*
%TO.N,GND*%
%TO.C,P6*%
X230120000Y-137680000D03*
%TD*%
D10*
%TO.N,/BBD_IPS_OUT*%
%TO.C,TP2*%
X239490000Y-146720000D03*
%TD*%
%TO.N,/5V_OUT*%
%TO.C,TP4*%
X239350000Y-171050000D03*
%TD*%
D11*
%TO.N,/A_GND*%
%TO.C,P5*%
X225040000Y-140470000D03*
%TD*%
D12*
%TO.N,/Power control/BATT+*%
%TO.C,J10*%
X236790000Y-122800000D03*
D11*
%TO.N,GND*%
X239330000Y-122800000D03*
%TO.N,/A_GND*%
X236790000Y-125340000D03*
%TO.N,GND*%
X239330000Y-125340000D03*
%TO.N,/5V_OUT*%
X236790000Y-127880000D03*
%TO.N,/BBD_IPS_OUT*%
X239330000Y-127880000D03*
%TO.N,/BBD_PA6*%
X236790000Y-130420000D03*
%TO.N,/BBD_CHG_LED*%
X239330000Y-130420000D03*
%TO.N,/BBD_PB1*%
X236790000Y-132960000D03*
%TO.N,/BBD_PB2*%
X239330000Y-132960000D03*
%TD*%
D10*
%TO.N,GND*%
%TO.C,TP1*%
X202040000Y-119730000D03*
%TD*%
%TO.N,/Power control/BATT+*%
%TO.C,TP6*%
X239770000Y-112850000D03*
%TD*%
D13*
%TO.N,GND*%
%TO.C,P1*%
X200692500Y-115760000D03*
X200692500Y-107120000D03*
D14*
X204872500Y-115760000D03*
X204872500Y-107120000D03*
%TD*%
D15*
%TO.N,/Power control/AC_IN*%
X212526250Y-117403750D03*
%TO.N,GND*%
X206170000Y-136660000D03*
X227026250Y-122093750D03*
X220566250Y-109863750D03*
X211376250Y-110403750D03*
X232440000Y-154600000D03*
X207506250Y-110493750D03*
X226260000Y-130170000D03*
X208100000Y-106510000D03*
X233330000Y-154340000D03*
X237860000Y-160440000D03*
X225416250Y-130153750D03*
X206685000Y-136145000D03*
X224726250Y-130153750D03*
%TO.N,/3v3*%
X227300000Y-166860000D03*
X233960000Y-105290000D03*
%TO.N,/A_GND*%
X203630000Y-139290000D03*
X223870000Y-165230000D03*
X211266250Y-124313750D03*
X224836250Y-132153750D03*
X223370000Y-145890000D03*
X231530000Y-145960000D03*
X226416250Y-132163750D03*
X225606250Y-132153750D03*
X211590000Y-105890000D03*
X232970000Y-172450000D03*
X209510000Y-139850000D03*
X226210000Y-145960000D03*
%TO.N,Net-(C3-Pad1)*%
X232750000Y-159770000D03*
X232770000Y-155810000D03*
%TO.N,/5V_OUT*%
X206830000Y-138420000D03*
X227620000Y-149490000D03*
X238472411Y-119230000D03*
X227620000Y-154680000D03*
X238580000Y-106030000D03*
X219210000Y-134460000D03*
X227620000Y-152060000D03*
%TO.N,/Power control/BATT+*%
X217190000Y-112330000D03*
X237080000Y-114250000D03*
X236210000Y-114220000D03*
X217202700Y-113160000D03*
X235430000Y-114220000D03*
%TO.N,/BBD_IPS_OUT*%
X218920000Y-112970000D03*
X215585000Y-123715000D03*
X232980000Y-162020000D03*
X231810000Y-162020000D03*
X233990000Y-162020000D03*
X231860000Y-153520000D03*
X232650000Y-153310000D03*
X240094577Y-116703898D03*
X219810000Y-123860000D03*
X213136250Y-116533750D03*
X215893304Y-113566588D03*
X227036250Y-119273750D03*
%TO.N,Net-(C16-Pad2)*%
X215530000Y-112530000D03*
X210576250Y-112873750D03*
%TO.N,/Power control/EXT_EN*%
X221530000Y-147630000D03*
%TO.N,Net-(D2-Pad2)*%
X231660000Y-108250000D03*
%TO.N,/BBD_PB1*%
X221530000Y-113130000D03*
X238300000Y-102680000D03*
X237390000Y-112250000D03*
%TO.N,/BBD_PB2*%
X234820000Y-110330000D03*
%TO.N,/BBD_PA6*%
X224830000Y-142470000D03*
X240340000Y-136400000D03*
X235580000Y-142680000D03*
%TO.N,/BBD_CHG_LED*%
X212763566Y-115851617D03*
X240320000Y-115960000D03*
%TO.N,/SCL*%
X222600000Y-116570000D03*
X233104040Y-116720000D03*
X231833789Y-116736211D03*
%TO.N,/SDA*%
X223280000Y-108430000D03*
X232530000Y-116170000D03*
X222010000Y-116030000D03*
%TO.N,/USB2_D-*%
X213930000Y-131750000D03*
%TO.N,/USB2_D+*%
X214410000Y-132340000D03*
%TO.N,Net-(R18-Pad1)*%
X213986250Y-113993750D03*
X210556250Y-114233750D03*
%TD*%
%TA.AperFunction,Conductor*%
%TO.N,/A_GND*%
G36*
X211795867Y-117290953D02*
G01*
X211863881Y-117311303D01*
X211910099Y-117365196D01*
X211920140Y-117400503D01*
X211941205Y-117560510D01*
X211989430Y-117676934D01*
X212001714Y-117706591D01*
X212097968Y-117832032D01*
X212223409Y-117928286D01*
X212369488Y-117988794D01*
X212526250Y-118009432D01*
X212683012Y-117988794D01*
X212829091Y-117928286D01*
X212954532Y-117832032D01*
X213050786Y-117706591D01*
X213111294Y-117560512D01*
X213131373Y-117407994D01*
X213160094Y-117343070D01*
X213219359Y-117303978D01*
X213256934Y-117298445D01*
X216101935Y-117313035D01*
X216169947Y-117333385D01*
X216172263Y-117334926D01*
X216173469Y-117335748D01*
X216173470Y-117335749D01*
X216286274Y-117412658D01*
X216307513Y-117419209D01*
X216366710Y-117458399D01*
X216395324Y-117523375D01*
X216384266Y-117593505D01*
X216337049Y-117646524D01*
X216307516Y-117660012D01*
X216299998Y-117662331D01*
X216176990Y-117721568D01*
X216076908Y-117814432D01*
X216008644Y-117932668D01*
X215978265Y-118065769D01*
X215978265Y-118065771D01*
X215988467Y-118201918D01*
X215988467Y-118201920D01*
X216016585Y-118273561D01*
X216038347Y-118329008D01*
X216038348Y-118329009D01*
X216123467Y-118435747D01*
X216123470Y-118435749D01*
X216236274Y-118512658D01*
X216361728Y-118551355D01*
X216420926Y-118590547D01*
X216449539Y-118655523D01*
X216438480Y-118725653D01*
X216391262Y-118778671D01*
X216379259Y-118785279D01*
X216251989Y-118846569D01*
X216151908Y-118939432D01*
X216083644Y-119057668D01*
X216053265Y-119190769D01*
X216053265Y-119190771D01*
X216053265Y-119190772D01*
X216061733Y-119303783D01*
X216063467Y-119326918D01*
X216063467Y-119326920D01*
X216091585Y-119398561D01*
X216113347Y-119454008D01*
X216113348Y-119454009D01*
X216198467Y-119560747D01*
X216198470Y-119560749D01*
X216311274Y-119637658D01*
X216441736Y-119677900D01*
X216441737Y-119677900D01*
X216543939Y-119677900D01*
X216543943Y-119677900D01*
X216645003Y-119662668D01*
X216768010Y-119603431D01*
X216868091Y-119510568D01*
X216936355Y-119392332D01*
X216936356Y-119392327D01*
X216939806Y-119383540D01*
X216942855Y-119384736D01*
X216969456Y-119337175D01*
X217032110Y-119303783D01*
X217102871Y-119309566D01*
X217159273Y-119352687D01*
X217174934Y-119381135D01*
X217213347Y-119479008D01*
X217213348Y-119479009D01*
X217298467Y-119585747D01*
X217298470Y-119585749D01*
X217411274Y-119662658D01*
X217541736Y-119702900D01*
X217541737Y-119702900D01*
X217643939Y-119702900D01*
X217643943Y-119702900D01*
X217745003Y-119687668D01*
X217868010Y-119628431D01*
X217968091Y-119535568D01*
X218036355Y-119417332D01*
X218051211Y-119352241D01*
X218085869Y-119290279D01*
X218148525Y-119256891D01*
X218219285Y-119262677D01*
X218275684Y-119305801D01*
X218291342Y-119334244D01*
X218338347Y-119454009D01*
X218423467Y-119560747D01*
X218423470Y-119560749D01*
X218536274Y-119637658D01*
X218666736Y-119677900D01*
X218666737Y-119677900D01*
X218768939Y-119677900D01*
X218768943Y-119677900D01*
X218870003Y-119662668D01*
X218993010Y-119603431D01*
X219093091Y-119510568D01*
X219161355Y-119392332D01*
X219191735Y-119259228D01*
X219181533Y-119123082D01*
X219131653Y-118995992D01*
X219066468Y-118914252D01*
X219046532Y-118889252D01*
X218970394Y-118837342D01*
X218933726Y-118812342D01*
X218933725Y-118812341D01*
X218933724Y-118812341D01*
X218821962Y-118777867D01*
X218762763Y-118738675D01*
X218734151Y-118673699D01*
X218745210Y-118603569D01*
X218792428Y-118550550D01*
X218811527Y-118541829D01*
X218811496Y-118541765D01*
X218871937Y-118512658D01*
X218943010Y-118478431D01*
X219043091Y-118385568D01*
X219111355Y-118267332D01*
X219141735Y-118134228D01*
X219131533Y-117998082D01*
X219081653Y-117870992D01*
X219060203Y-117844095D01*
X218996532Y-117764252D01*
X218883725Y-117687341D01*
X218849985Y-117676934D01*
X218790787Y-117637741D01*
X218762175Y-117572765D01*
X218773234Y-117502635D01*
X218820453Y-117449617D01*
X218836704Y-117442197D01*
X218836496Y-117441765D01*
X218896939Y-117412657D01*
X218968010Y-117378431D01*
X218985822Y-117361903D01*
X219049358Y-117330230D01*
X219072165Y-117328267D01*
X221235349Y-117339360D01*
X221303364Y-117359711D01*
X221349582Y-117413604D01*
X221360699Y-117464651D01*
X221439999Y-131589999D01*
X221440000Y-131590000D01*
X228134565Y-131609632D01*
X228202627Y-131629833D01*
X228248963Y-131683625D01*
X228260196Y-131735433D01*
X228268367Y-136938943D01*
X228248472Y-137007095D01*
X228194889Y-137053672D01*
X228124631Y-137063887D01*
X228075331Y-137045828D01*
X227929525Y-136954212D01*
X227929522Y-136954211D01*
X227759255Y-136894632D01*
X227624954Y-136879500D01*
X227535046Y-136879500D01*
X227400745Y-136894632D01*
X227400742Y-136894632D01*
X227400742Y-136894633D01*
X227230477Y-136954211D01*
X227230474Y-136954212D01*
X227077739Y-137050182D01*
X227077737Y-137050183D01*
X226950183Y-137177737D01*
X226950182Y-137177739D01*
X226854212Y-137330474D01*
X226854211Y-137330477D01*
X226854211Y-137330478D01*
X226794632Y-137500745D01*
X226774435Y-137680000D01*
X226794632Y-137859255D01*
X226807302Y-137895464D01*
X226854211Y-138029522D01*
X226854212Y-138029525D01*
X226950182Y-138182260D01*
X226950183Y-138182262D01*
X227077737Y-138309816D01*
X227077739Y-138309817D01*
X227230474Y-138405787D01*
X227230475Y-138405787D01*
X227230478Y-138405789D01*
X227400745Y-138465368D01*
X227535046Y-138480500D01*
X227624954Y-138480500D01*
X227759255Y-138465368D01*
X227929522Y-138405789D01*
X228077655Y-138312711D01*
X228145976Y-138293405D01*
X228213889Y-138314100D01*
X228259832Y-138368227D01*
X228270691Y-138419200D01*
X228272752Y-139731698D01*
X228252857Y-139799850D01*
X228199274Y-139846427D01*
X228129016Y-139856642D01*
X228079716Y-139838583D01*
X227929525Y-139744212D01*
X227929522Y-139744211D01*
X227893762Y-139731698D01*
X227759255Y-139684632D01*
X227624954Y-139669500D01*
X227535046Y-139669500D01*
X227400745Y-139684632D01*
X227400742Y-139684632D01*
X227400742Y-139684633D01*
X227230477Y-139744211D01*
X227230474Y-139744212D01*
X227077739Y-139840182D01*
X227077737Y-139840183D01*
X226950183Y-139967737D01*
X226950182Y-139967739D01*
X226854212Y-140120474D01*
X226854211Y-140120477D01*
X226794633Y-140290742D01*
X226794632Y-140290745D01*
X226774435Y-140470000D01*
X226794632Y-140649255D01*
X226847659Y-140800798D01*
X226854211Y-140819522D01*
X226854212Y-140819525D01*
X226950182Y-140972260D01*
X226950183Y-140972262D01*
X227077737Y-141099816D01*
X227077739Y-141099817D01*
X227230474Y-141195787D01*
X227230475Y-141195787D01*
X227230478Y-141195789D01*
X227400745Y-141255368D01*
X227535046Y-141270500D01*
X227624954Y-141270500D01*
X227759255Y-141255368D01*
X227929522Y-141195789D01*
X228022094Y-141137621D01*
X228082032Y-141099961D01*
X228150353Y-141080655D01*
X228218266Y-141101350D01*
X228264209Y-141155477D01*
X228275068Y-141206450D01*
X228287309Y-149001842D01*
X228267414Y-149069994D01*
X228213831Y-149116571D01*
X228143573Y-149126786D01*
X228078946Y-149097394D01*
X228061346Y-149078744D01*
X228054632Y-149069994D01*
X228048282Y-149061718D01*
X227922841Y-148965464D01*
X227776762Y-148904956D01*
X227776760Y-148904955D01*
X227620000Y-148884318D01*
X227463239Y-148904955D01*
X227317160Y-148965463D01*
X227317157Y-148965465D01*
X227191718Y-149061718D01*
X227095465Y-149187157D01*
X227095463Y-149187160D01*
X227034955Y-149333239D01*
X227014318Y-149489999D01*
X227014318Y-149490000D01*
X227034955Y-149646760D01*
X227034956Y-149646762D01*
X227095464Y-149792841D01*
X227191718Y-149918282D01*
X227317159Y-150014536D01*
X227463238Y-150075044D01*
X227620000Y-150095682D01*
X227776762Y-150075044D01*
X227922841Y-150014536D01*
X228048282Y-149918282D01*
X228062875Y-149899262D01*
X228120210Y-149857396D01*
X228191081Y-149853172D01*
X228252985Y-149887935D01*
X228286268Y-149950646D01*
X228288838Y-149975768D01*
X228291353Y-151577113D01*
X228271458Y-151645265D01*
X228217875Y-151691842D01*
X228147617Y-151702057D01*
X228082990Y-151672665D01*
X228065395Y-151654021D01*
X228048282Y-151631718D01*
X227922841Y-151535464D01*
X227776762Y-151474956D01*
X227776760Y-151474955D01*
X227620000Y-151454318D01*
X227463239Y-151474955D01*
X227317160Y-151535463D01*
X227317157Y-151535465D01*
X227191718Y-151631718D01*
X227095465Y-151757157D01*
X227095463Y-151757160D01*
X227034955Y-151903239D01*
X227014318Y-152059999D01*
X227014318Y-152060000D01*
X227034955Y-152216760D01*
X227034956Y-152216762D01*
X227095464Y-152362841D01*
X227191718Y-152488282D01*
X227317159Y-152584536D01*
X227463238Y-152645044D01*
X227620000Y-152665682D01*
X227776762Y-152645044D01*
X227922841Y-152584536D01*
X228048282Y-152488282D01*
X228066903Y-152464013D01*
X228124240Y-152422146D01*
X228195110Y-152417923D01*
X228257014Y-152452687D01*
X228290296Y-152515399D01*
X228292866Y-152540519D01*
X228295476Y-154202485D01*
X228275581Y-154270637D01*
X228221998Y-154317214D01*
X228151740Y-154327429D01*
X228087113Y-154298037D01*
X228069514Y-154279387D01*
X228048284Y-154251720D01*
X228048282Y-154251719D01*
X228048282Y-154251718D01*
X227922841Y-154155464D01*
X227776762Y-154094956D01*
X227776760Y-154094955D01*
X227620000Y-154074318D01*
X227463239Y-154094955D01*
X227317160Y-154155463D01*
X227317157Y-154155465D01*
X227191718Y-154251718D01*
X227095465Y-154377157D01*
X227095463Y-154377160D01*
X227034955Y-154523239D01*
X227014318Y-154679999D01*
X227014318Y-154680000D01*
X227034955Y-154836760D01*
X227071524Y-154925044D01*
X227095464Y-154982841D01*
X227191718Y-155108282D01*
X227317159Y-155204536D01*
X227463238Y-155265044D01*
X227620000Y-155285682D01*
X227776762Y-155265044D01*
X227922841Y-155204536D01*
X228048282Y-155108282D01*
X228071011Y-155078660D01*
X228128346Y-155036795D01*
X228199217Y-155032573D01*
X228261120Y-155067336D01*
X228294402Y-155130048D01*
X228296972Y-155155168D01*
X228316176Y-167384534D01*
X228320000Y-169820000D01*
X235104261Y-169849454D01*
X235172294Y-169869752D01*
X235218554Y-169923609D01*
X235229714Y-169975739D01*
X235219659Y-174399905D01*
X235199502Y-174467980D01*
X235145741Y-174514351D01*
X235107768Y-174524826D01*
X235020745Y-174534632D01*
X235020742Y-174534632D01*
X235020741Y-174534633D01*
X234850477Y-174594211D01*
X234850474Y-174594212D01*
X234697739Y-174690182D01*
X234697737Y-174690183D01*
X234570183Y-174817737D01*
X234570182Y-174817739D01*
X234474212Y-174970474D01*
X234474211Y-174970477D01*
X234474211Y-174970478D01*
X234414632Y-175140745D01*
X234394435Y-175320000D01*
X234414632Y-175499255D01*
X234414633Y-175499257D01*
X234474211Y-175669522D01*
X234474212Y-175669525D01*
X234570182Y-175822260D01*
X234570183Y-175822262D01*
X234697737Y-175949816D01*
X234697739Y-175949817D01*
X234850474Y-176045787D01*
X234850475Y-176045787D01*
X234850478Y-176045789D01*
X235020745Y-176105368D01*
X235103586Y-176114701D01*
X235169037Y-176142205D01*
X235209229Y-176200729D01*
X235215476Y-176240195D01*
X235210285Y-178524438D01*
X235190128Y-178592513D01*
X235136367Y-178638884D01*
X235084438Y-178650152D01*
X218855638Y-178669847D01*
X218787493Y-178649928D01*
X218740935Y-178596328D01*
X218729486Y-178544362D01*
X218720068Y-176240195D01*
X218716307Y-175320000D01*
X224234435Y-175320000D01*
X224254632Y-175499255D01*
X224254633Y-175499257D01*
X224314211Y-175669522D01*
X224314212Y-175669525D01*
X224410182Y-175822260D01*
X224410183Y-175822262D01*
X224537737Y-175949816D01*
X224537739Y-175949817D01*
X224690474Y-176045787D01*
X224690475Y-176045787D01*
X224690478Y-176045789D01*
X224860745Y-176105368D01*
X224995046Y-176120500D01*
X225084954Y-176120500D01*
X225219255Y-176105368D01*
X225389522Y-176045789D01*
X225542262Y-175949816D01*
X225669816Y-175822262D01*
X225765789Y-175669522D01*
X225825368Y-175499255D01*
X225845565Y-175320000D01*
X226774435Y-175320000D01*
X226794632Y-175499255D01*
X226794633Y-175499257D01*
X226854211Y-175669522D01*
X226854212Y-175669525D01*
X226950182Y-175822260D01*
X226950183Y-175822262D01*
X227077737Y-175949816D01*
X227077739Y-175949817D01*
X227230474Y-176045787D01*
X227230475Y-176045787D01*
X227230478Y-176045789D01*
X227400745Y-176105368D01*
X227535046Y-176120500D01*
X227624954Y-176120500D01*
X227759255Y-176105368D01*
X227929522Y-176045789D01*
X228082262Y-175949816D01*
X228209816Y-175822262D01*
X228305789Y-175669522D01*
X228365368Y-175499255D01*
X228385565Y-175320000D01*
X229314435Y-175320000D01*
X229334632Y-175499255D01*
X229334633Y-175499257D01*
X229394211Y-175669522D01*
X229394212Y-175669525D01*
X229490182Y-175822260D01*
X229490183Y-175822262D01*
X229617737Y-175949816D01*
X229617739Y-175949817D01*
X229770474Y-176045787D01*
X229770475Y-176045787D01*
X229770478Y-176045789D01*
X229940745Y-176105368D01*
X230075046Y-176120500D01*
X230164954Y-176120500D01*
X230299255Y-176105368D01*
X230469522Y-176045789D01*
X230622262Y-175949816D01*
X230749816Y-175822262D01*
X230845789Y-175669522D01*
X230905368Y-175499255D01*
X230925565Y-175320000D01*
X231854435Y-175320000D01*
X231874632Y-175499255D01*
X231874633Y-175499257D01*
X231934211Y-175669522D01*
X231934212Y-175669525D01*
X232030182Y-175822260D01*
X232030183Y-175822262D01*
X232157737Y-175949816D01*
X232157739Y-175949817D01*
X232310474Y-176045787D01*
X232310475Y-176045787D01*
X232310478Y-176045789D01*
X232480745Y-176105368D01*
X232615046Y-176120500D01*
X232704954Y-176120500D01*
X232839255Y-176105368D01*
X233009522Y-176045789D01*
X233162262Y-175949816D01*
X233289816Y-175822262D01*
X233385789Y-175669522D01*
X233445368Y-175499255D01*
X233465565Y-175320000D01*
X233445368Y-175140745D01*
X233385789Y-174970478D01*
X233385787Y-174970475D01*
X233385787Y-174970474D01*
X233289817Y-174817739D01*
X233289816Y-174817737D01*
X233162262Y-174690183D01*
X233162260Y-174690182D01*
X233009525Y-174594212D01*
X233009522Y-174594211D01*
X232839255Y-174534632D01*
X232704954Y-174519500D01*
X232615046Y-174519500D01*
X232480745Y-174534632D01*
X232480742Y-174534632D01*
X232480742Y-174534633D01*
X232310477Y-174594211D01*
X232310474Y-174594212D01*
X232157739Y-174690182D01*
X232157737Y-174690183D01*
X232030183Y-174817737D01*
X232030182Y-174817739D01*
X231934212Y-174970474D01*
X231934211Y-174970477D01*
X231934211Y-174970478D01*
X231874632Y-175140745D01*
X231854435Y-175320000D01*
X230925565Y-175320000D01*
X230905368Y-175140745D01*
X230845789Y-174970478D01*
X230845787Y-174970475D01*
X230845787Y-174970474D01*
X230749817Y-174817739D01*
X230749816Y-174817737D01*
X230622262Y-174690183D01*
X230622260Y-174690182D01*
X230469525Y-174594212D01*
X230469522Y-174594211D01*
X230299255Y-174534632D01*
X230164954Y-174519500D01*
X230075046Y-174519500D01*
X229940745Y-174534632D01*
X229940742Y-174534632D01*
X229940742Y-174534633D01*
X229770477Y-174594211D01*
X229770474Y-174594212D01*
X229617739Y-174690182D01*
X229617737Y-174690183D01*
X229490183Y-174817737D01*
X229490182Y-174817739D01*
X229394212Y-174970474D01*
X229394211Y-174970477D01*
X229394211Y-174970478D01*
X229334632Y-175140745D01*
X229314435Y-175320000D01*
X228385565Y-175320000D01*
X228365368Y-175140745D01*
X228305789Y-174970478D01*
X228305787Y-174970475D01*
X228305787Y-174970474D01*
X228209817Y-174817739D01*
X228209816Y-174817737D01*
X228082262Y-174690183D01*
X228082260Y-174690182D01*
X227929525Y-174594212D01*
X227929522Y-174594211D01*
X227759255Y-174534632D01*
X227624954Y-174519500D01*
X227535046Y-174519500D01*
X227400745Y-174534632D01*
X227400742Y-174534632D01*
X227400742Y-174534633D01*
X227230477Y-174594211D01*
X227230474Y-174594212D01*
X227077739Y-174690182D01*
X227077737Y-174690183D01*
X226950183Y-174817737D01*
X226950182Y-174817739D01*
X226854212Y-174970474D01*
X226854211Y-174970477D01*
X226854211Y-174970478D01*
X226794632Y-175140745D01*
X226774435Y-175320000D01*
X225845565Y-175320000D01*
X225825368Y-175140745D01*
X225765789Y-174970478D01*
X225765787Y-174970475D01*
X225765787Y-174970474D01*
X225669817Y-174817739D01*
X225669816Y-174817737D01*
X225542262Y-174690183D01*
X225542260Y-174690182D01*
X225389525Y-174594212D01*
X225389522Y-174594211D01*
X225219255Y-174534632D01*
X225084954Y-174519500D01*
X224995046Y-174519500D01*
X224860745Y-174534632D01*
X224860742Y-174534632D01*
X224860742Y-174534633D01*
X224690477Y-174594211D01*
X224690474Y-174594212D01*
X224537739Y-174690182D01*
X224537737Y-174690183D01*
X224410183Y-174817737D01*
X224410182Y-174817739D01*
X224314212Y-174970474D01*
X224314211Y-174970477D01*
X224314211Y-174970478D01*
X224254632Y-175140745D01*
X224234435Y-175320000D01*
X218716307Y-175320000D01*
X218681729Y-166860000D01*
X226694318Y-166860000D01*
X226714955Y-167016760D01*
X226714956Y-167016762D01*
X226775464Y-167162841D01*
X226871718Y-167288282D01*
X226997159Y-167384536D01*
X227143238Y-167445044D01*
X227300000Y-167465682D01*
X227456762Y-167445044D01*
X227602841Y-167384536D01*
X227728282Y-167288282D01*
X227824536Y-167162841D01*
X227885044Y-167016762D01*
X227905682Y-166860000D01*
X227885044Y-166703238D01*
X227824536Y-166557159D01*
X227728282Y-166431718D01*
X227602841Y-166335464D01*
X227456762Y-166274956D01*
X227456760Y-166274955D01*
X227300000Y-166254318D01*
X227143239Y-166274955D01*
X226997160Y-166335463D01*
X226997157Y-166335465D01*
X226871718Y-166431718D01*
X226775465Y-166557157D01*
X226775463Y-166557160D01*
X226714955Y-166703239D01*
X226694318Y-166859999D01*
X226694318Y-166860000D01*
X218681729Y-166860000D01*
X218603133Y-147630000D01*
X220924318Y-147630000D01*
X220944955Y-147786760D01*
X220944956Y-147786762D01*
X221005464Y-147932841D01*
X221101718Y-148058282D01*
X221227159Y-148154536D01*
X221373238Y-148215044D01*
X221530000Y-148235682D01*
X221686762Y-148215044D01*
X221832841Y-148154536D01*
X221958282Y-148058282D01*
X222054536Y-147932841D01*
X222115044Y-147786762D01*
X222135682Y-147630000D01*
X222115044Y-147473238D01*
X222054536Y-147327159D01*
X221958282Y-147201718D01*
X221832841Y-147105464D01*
X221686762Y-147044956D01*
X221686760Y-147044955D01*
X221530000Y-147024318D01*
X221373239Y-147044955D01*
X221227160Y-147105463D01*
X221227157Y-147105465D01*
X221101718Y-147201718D01*
X221005465Y-147327157D01*
X221005463Y-147327160D01*
X220944955Y-147473239D01*
X220924318Y-147629999D01*
X220924318Y-147630000D01*
X218603133Y-147630000D01*
X218580000Y-141970000D01*
X218580000Y-141969999D01*
X200554381Y-141910411D01*
X200486327Y-141890184D01*
X200440012Y-141836375D01*
X200428804Y-141785623D01*
X200416154Y-140470000D01*
X216614435Y-140470000D01*
X216634632Y-140649255D01*
X216687659Y-140800798D01*
X216694211Y-140819522D01*
X216694212Y-140819525D01*
X216790182Y-140972260D01*
X216790183Y-140972262D01*
X216917737Y-141099816D01*
X216917739Y-141099817D01*
X217070474Y-141195787D01*
X217070475Y-141195787D01*
X217070478Y-141195789D01*
X217240745Y-141255368D01*
X217375046Y-141270500D01*
X217464954Y-141270500D01*
X217599255Y-141255368D01*
X217769522Y-141195789D01*
X217922262Y-141099816D01*
X218049816Y-140972262D01*
X218145789Y-140819522D01*
X218205368Y-140649255D01*
X218225565Y-140470000D01*
X219154435Y-140470000D01*
X219174632Y-140649255D01*
X219227659Y-140800798D01*
X219234211Y-140819522D01*
X219234212Y-140819525D01*
X219330182Y-140972260D01*
X219330183Y-140972262D01*
X219457737Y-141099816D01*
X219457739Y-141099817D01*
X219610474Y-141195787D01*
X219610475Y-141195787D01*
X219610478Y-141195789D01*
X219780745Y-141255368D01*
X219915046Y-141270500D01*
X220004954Y-141270500D01*
X220139255Y-141255368D01*
X220309522Y-141195789D01*
X220462262Y-141099816D01*
X220589816Y-140972262D01*
X220685789Y-140819522D01*
X220745368Y-140649255D01*
X220765565Y-140470000D01*
X221694435Y-140470000D01*
X221714632Y-140649255D01*
X221767659Y-140800798D01*
X221774211Y-140819522D01*
X221774212Y-140819525D01*
X221870182Y-140972260D01*
X221870183Y-140972262D01*
X221997737Y-141099816D01*
X221997739Y-141099817D01*
X222150474Y-141195787D01*
X222150475Y-141195787D01*
X222150478Y-141195789D01*
X222320745Y-141255368D01*
X222455046Y-141270500D01*
X222544954Y-141270500D01*
X222679255Y-141255368D01*
X222849522Y-141195789D01*
X223002262Y-141099816D01*
X223129816Y-140972262D01*
X223225789Y-140819522D01*
X223259214Y-140724000D01*
X223703455Y-140724000D01*
X223751176Y-140912449D01*
X223751179Y-140912456D01*
X223841580Y-141118548D01*
X223964674Y-141306958D01*
X224117097Y-141472534D01*
X224294698Y-141610767D01*
X224294699Y-141610768D01*
X224492628Y-141717881D01*
X224499660Y-141720296D01*
X224557595Y-141761334D01*
X224584146Y-141827179D01*
X224570884Y-141896926D01*
X224531874Y-141938043D01*
X224533711Y-141940437D01*
X224527160Y-141945463D01*
X224527159Y-141945464D01*
X224495183Y-141970000D01*
X224401718Y-142041718D01*
X224305465Y-142167157D01*
X224305463Y-142167160D01*
X224244955Y-142313239D01*
X224224318Y-142469999D01*
X224224318Y-142470000D01*
X224244955Y-142626760D01*
X224244956Y-142626762D01*
X224305464Y-142772841D01*
X224401718Y-142898282D01*
X224527159Y-142994536D01*
X224673238Y-143055044D01*
X224830000Y-143075682D01*
X224986762Y-143055044D01*
X225132841Y-142994536D01*
X225258282Y-142898282D01*
X225354536Y-142772841D01*
X225415044Y-142626762D01*
X225435682Y-142470000D01*
X225415044Y-142313238D01*
X225354536Y-142167159D01*
X225258282Y-142041718D01*
X225258280Y-142041716D01*
X225258279Y-142041715D01*
X225240662Y-142028197D01*
X225198795Y-141970859D01*
X225194573Y-141899988D01*
X225229337Y-141838085D01*
X225292050Y-141804804D01*
X225296628Y-141803953D01*
X225374507Y-141790957D01*
X225374516Y-141790955D01*
X225587369Y-141717883D01*
X225587371Y-141717882D01*
X225785300Y-141610768D01*
X225785301Y-141610767D01*
X225962902Y-141472534D01*
X226115325Y-141306958D01*
X226238419Y-141118548D01*
X226328820Y-140912456D01*
X226328823Y-140912449D01*
X226376544Y-140724000D01*
X225471116Y-140724000D01*
X225499493Y-140679844D01*
X225540000Y-140541889D01*
X225540000Y-140398111D01*
X225499493Y-140260156D01*
X225471116Y-140216000D01*
X226376544Y-140216000D01*
X226376544Y-140215999D01*
X226328823Y-140027550D01*
X226328820Y-140027543D01*
X226238419Y-139821451D01*
X226115325Y-139633041D01*
X225962902Y-139467465D01*
X225785301Y-139329232D01*
X225785300Y-139329231D01*
X225587371Y-139222117D01*
X225587369Y-139222116D01*
X225374512Y-139149043D01*
X225374501Y-139149040D01*
X225294000Y-139135606D01*
X225294000Y-140036325D01*
X225182315Y-139985320D01*
X225075763Y-139970000D01*
X225004237Y-139970000D01*
X224897685Y-139985320D01*
X224786000Y-140036325D01*
X224786000Y-139135607D01*
X224785999Y-139135606D01*
X224705498Y-139149040D01*
X224705487Y-139149043D01*
X224492630Y-139222116D01*
X224492628Y-139222117D01*
X224294699Y-139329231D01*
X224294698Y-139329232D01*
X224117097Y-139467465D01*
X223964674Y-139633041D01*
X223841580Y-139821451D01*
X223751179Y-140027543D01*
X223751176Y-140027550D01*
X223703455Y-140215999D01*
X223703456Y-140216000D01*
X224608884Y-140216000D01*
X224580507Y-140260156D01*
X224540000Y-140398111D01*
X224540000Y-140541889D01*
X224580507Y-140679844D01*
X224608884Y-140724000D01*
X223703455Y-140724000D01*
X223259214Y-140724000D01*
X223285368Y-140649255D01*
X223305565Y-140470000D01*
X223285368Y-140290745D01*
X223225789Y-140120478D01*
X223225787Y-140120475D01*
X223225787Y-140120474D01*
X223129817Y-139967739D01*
X223129816Y-139967737D01*
X223002262Y-139840183D01*
X223002260Y-139840182D01*
X222849525Y-139744212D01*
X222849522Y-139744211D01*
X222813762Y-139731698D01*
X222679255Y-139684632D01*
X222544954Y-139669500D01*
X222455046Y-139669500D01*
X222320745Y-139684632D01*
X222320742Y-139684632D01*
X222320742Y-139684633D01*
X222150477Y-139744211D01*
X222150474Y-139744212D01*
X221997739Y-139840182D01*
X221997737Y-139840183D01*
X221870183Y-139967737D01*
X221870182Y-139967739D01*
X221774212Y-140120474D01*
X221774211Y-140120477D01*
X221714633Y-140290742D01*
X221714632Y-140290745D01*
X221694435Y-140470000D01*
X220765565Y-140470000D01*
X220745368Y-140290745D01*
X220685789Y-140120478D01*
X220685787Y-140120475D01*
X220685787Y-140120474D01*
X220589817Y-139967739D01*
X220589816Y-139967737D01*
X220462262Y-139840183D01*
X220462260Y-139840182D01*
X220309525Y-139744212D01*
X220309522Y-139744211D01*
X220273762Y-139731698D01*
X220139255Y-139684632D01*
X220004954Y-139669500D01*
X219915046Y-139669500D01*
X219780745Y-139684632D01*
X219780742Y-139684632D01*
X219780742Y-139684633D01*
X219610477Y-139744211D01*
X219610474Y-139744212D01*
X219457739Y-139840182D01*
X219457737Y-139840183D01*
X219330183Y-139967737D01*
X219330182Y-139967739D01*
X219234212Y-140120474D01*
X219234211Y-140120477D01*
X219174633Y-140290742D01*
X219174632Y-140290745D01*
X219154435Y-140470000D01*
X218225565Y-140470000D01*
X218205368Y-140290745D01*
X218145789Y-140120478D01*
X218145787Y-140120475D01*
X218145787Y-140120474D01*
X218049817Y-139967739D01*
X218049816Y-139967737D01*
X217922262Y-139840183D01*
X217922260Y-139840182D01*
X217769525Y-139744212D01*
X217769522Y-139744211D01*
X217733762Y-139731698D01*
X217599255Y-139684632D01*
X217464954Y-139669500D01*
X217375046Y-139669500D01*
X217240745Y-139684632D01*
X217240742Y-139684632D01*
X217240742Y-139684633D01*
X217070477Y-139744211D01*
X217070474Y-139744212D01*
X216917739Y-139840182D01*
X216917737Y-139840183D01*
X216790183Y-139967737D01*
X216790182Y-139967739D01*
X216694212Y-140120474D01*
X216694211Y-140120477D01*
X216634633Y-140290742D01*
X216634632Y-140290745D01*
X216614435Y-140470000D01*
X200416154Y-140470000D01*
X200401228Y-138917737D01*
X200420574Y-138849429D01*
X200473780Y-138802422D01*
X200527740Y-138790528D01*
X206316248Y-138814481D01*
X206384283Y-138834764D01*
X206395015Y-138843450D01*
X206395166Y-138843254D01*
X206401717Y-138848280D01*
X206401718Y-138848282D01*
X206527159Y-138944536D01*
X206673238Y-139005044D01*
X206830000Y-139025682D01*
X206986762Y-139005044D01*
X207132841Y-138944536D01*
X207258282Y-138848282D01*
X207258283Y-138848279D01*
X207262880Y-138844753D01*
X207329100Y-138819153D01*
X207340090Y-138818717D01*
X207650000Y-138820000D01*
X207653174Y-137680000D01*
X216614435Y-137680000D01*
X216634632Y-137859255D01*
X216647302Y-137895464D01*
X216694211Y-138029522D01*
X216694212Y-138029525D01*
X216790182Y-138182260D01*
X216790183Y-138182262D01*
X216917737Y-138309816D01*
X216917739Y-138309817D01*
X217070474Y-138405787D01*
X217070475Y-138405787D01*
X217070478Y-138405789D01*
X217240745Y-138465368D01*
X217375046Y-138480500D01*
X217464954Y-138480500D01*
X217599255Y-138465368D01*
X217769522Y-138405789D01*
X217922262Y-138309816D01*
X218049816Y-138182262D01*
X218145789Y-138029522D01*
X218205368Y-137859255D01*
X218225565Y-137680000D01*
X219154435Y-137680000D01*
X219174632Y-137859255D01*
X219187302Y-137895464D01*
X219234211Y-138029522D01*
X219234212Y-138029525D01*
X219330182Y-138182260D01*
X219330183Y-138182262D01*
X219457737Y-138309816D01*
X219457739Y-138309817D01*
X219610474Y-138405787D01*
X219610475Y-138405787D01*
X219610478Y-138405789D01*
X219780745Y-138465368D01*
X219915046Y-138480500D01*
X220004954Y-138480500D01*
X220139255Y-138465368D01*
X220309522Y-138405789D01*
X220462262Y-138309816D01*
X220589816Y-138182262D01*
X220685789Y-138029522D01*
X220745368Y-137859255D01*
X220765565Y-137680000D01*
X221694435Y-137680000D01*
X221714632Y-137859255D01*
X221727302Y-137895464D01*
X221774211Y-138029522D01*
X221774212Y-138029525D01*
X221870182Y-138182260D01*
X221870183Y-138182262D01*
X221997737Y-138309816D01*
X221997739Y-138309817D01*
X222150474Y-138405787D01*
X222150475Y-138405787D01*
X222150478Y-138405789D01*
X222320745Y-138465368D01*
X222455046Y-138480500D01*
X222544954Y-138480500D01*
X222679255Y-138465368D01*
X222849522Y-138405789D01*
X223002262Y-138309816D01*
X223129816Y-138182262D01*
X223225789Y-138029522D01*
X223285368Y-137859255D01*
X223305565Y-137680000D01*
X224234435Y-137680000D01*
X224254632Y-137859255D01*
X224267302Y-137895464D01*
X224314211Y-138029522D01*
X224314212Y-138029525D01*
X224410182Y-138182260D01*
X224410183Y-138182262D01*
X224537737Y-138309816D01*
X224537739Y-138309817D01*
X224690474Y-138405787D01*
X224690475Y-138405787D01*
X224690478Y-138405789D01*
X224860745Y-138465368D01*
X224995046Y-138480500D01*
X225084954Y-138480500D01*
X225219255Y-138465368D01*
X225389522Y-138405789D01*
X225542262Y-138309816D01*
X225669816Y-138182262D01*
X225765789Y-138029522D01*
X225825368Y-137859255D01*
X225845565Y-137680000D01*
X225825368Y-137500745D01*
X225765789Y-137330478D01*
X225765787Y-137330475D01*
X225765787Y-137330474D01*
X225669817Y-137177739D01*
X225669816Y-137177737D01*
X225542262Y-137050183D01*
X225542260Y-137050182D01*
X225389525Y-136954212D01*
X225389522Y-136954211D01*
X225219255Y-136894632D01*
X225084954Y-136879500D01*
X224995046Y-136879500D01*
X224860745Y-136894632D01*
X224860742Y-136894632D01*
X224860742Y-136894633D01*
X224690477Y-136954211D01*
X224690474Y-136954212D01*
X224537739Y-137050182D01*
X224537737Y-137050183D01*
X224410183Y-137177737D01*
X224410182Y-137177739D01*
X224314212Y-137330474D01*
X224314211Y-137330477D01*
X224314211Y-137330478D01*
X224254632Y-137500745D01*
X224234435Y-137680000D01*
X223305565Y-137680000D01*
X223285368Y-137500745D01*
X223225789Y-137330478D01*
X223225787Y-137330475D01*
X223225787Y-137330474D01*
X223129817Y-137177739D01*
X223129816Y-137177737D01*
X223002262Y-137050183D01*
X223002260Y-137050182D01*
X222849525Y-136954212D01*
X222849522Y-136954211D01*
X222679255Y-136894632D01*
X222544954Y-136879500D01*
X222455046Y-136879500D01*
X222320745Y-136894632D01*
X222320742Y-136894632D01*
X222320742Y-136894633D01*
X222150477Y-136954211D01*
X222150474Y-136954212D01*
X221997739Y-137050182D01*
X221997737Y-137050183D01*
X221870183Y-137177737D01*
X221870182Y-137177739D01*
X221774212Y-137330474D01*
X221774211Y-137330477D01*
X221774211Y-137330478D01*
X221714632Y-137500745D01*
X221694435Y-137680000D01*
X220765565Y-137680000D01*
X220745368Y-137500745D01*
X220685789Y-137330478D01*
X220685787Y-137330475D01*
X220685787Y-137330474D01*
X220589817Y-137177739D01*
X220589816Y-137177737D01*
X220462262Y-137050183D01*
X220462260Y-137050182D01*
X220309525Y-136954212D01*
X220309522Y-136954211D01*
X220139255Y-136894632D01*
X220004954Y-136879500D01*
X219915046Y-136879500D01*
X219780745Y-136894632D01*
X219780742Y-136894632D01*
X219780742Y-136894633D01*
X219610477Y-136954211D01*
X219610474Y-136954212D01*
X219457739Y-137050182D01*
X219457737Y-137050183D01*
X219330183Y-137177737D01*
X219330182Y-137177739D01*
X219234212Y-137330474D01*
X219234211Y-137330477D01*
X219234211Y-137330478D01*
X219174632Y-137500745D01*
X219154435Y-137680000D01*
X218225565Y-137680000D01*
X218205368Y-137500745D01*
X218145789Y-137330478D01*
X218145787Y-137330475D01*
X218145787Y-137330474D01*
X218049817Y-137177739D01*
X218049816Y-137177737D01*
X217922262Y-137050183D01*
X217922260Y-137050182D01*
X217769525Y-136954212D01*
X217769522Y-136954211D01*
X217599255Y-136894632D01*
X217464954Y-136879500D01*
X217375046Y-136879500D01*
X217240745Y-136894632D01*
X217240742Y-136894632D01*
X217240742Y-136894633D01*
X217070477Y-136954211D01*
X217070474Y-136954212D01*
X216917739Y-137050182D01*
X216917737Y-137050183D01*
X216790183Y-137177737D01*
X216790182Y-137177739D01*
X216694212Y-137330474D01*
X216694211Y-137330477D01*
X216694211Y-137330478D01*
X216634632Y-137500745D01*
X216614435Y-137680000D01*
X207653174Y-137680000D01*
X207662139Y-134460000D01*
X218604318Y-134460000D01*
X218624955Y-134616760D01*
X218624956Y-134616762D01*
X218685464Y-134762841D01*
X218781718Y-134888282D01*
X218907159Y-134984536D01*
X219053238Y-135045044D01*
X219210000Y-135065682D01*
X219366762Y-135045044D01*
X219512841Y-134984536D01*
X219638282Y-134888282D01*
X219734536Y-134762841D01*
X219795044Y-134616762D01*
X219815682Y-134460000D01*
X219795044Y-134303238D01*
X219734536Y-134157159D01*
X219638282Y-134031718D01*
X219512841Y-133935464D01*
X219430085Y-133901185D01*
X219366760Y-133874955D01*
X219210000Y-133854318D01*
X219053239Y-133874955D01*
X218907160Y-133935463D01*
X218907157Y-133935465D01*
X218781718Y-134031718D01*
X218685465Y-134157157D01*
X218685463Y-134157160D01*
X218624955Y-134303239D01*
X218604318Y-134459999D01*
X218604318Y-134460000D01*
X207662139Y-134460000D01*
X207669684Y-131750000D01*
X213324318Y-131750000D01*
X213344955Y-131906760D01*
X213354091Y-131928815D01*
X213405464Y-132052841D01*
X213501718Y-132178282D01*
X213627159Y-132274536D01*
X213738211Y-132320535D01*
X213793492Y-132365084D01*
X213814915Y-132420497D01*
X213824955Y-132496760D01*
X213824956Y-132496762D01*
X213885464Y-132642841D01*
X213981718Y-132768282D01*
X214107159Y-132864536D01*
X214253238Y-132925044D01*
X214410000Y-132945682D01*
X214566762Y-132925044D01*
X214712841Y-132864536D01*
X214838282Y-132768282D01*
X214934536Y-132642841D01*
X214995044Y-132496762D01*
X215015682Y-132340000D01*
X214995044Y-132183238D01*
X214934536Y-132037159D01*
X214838282Y-131911718D01*
X214712841Y-131815464D01*
X214601786Y-131769463D01*
X214546507Y-131724915D01*
X214525084Y-131669501D01*
X214520463Y-131634404D01*
X214515044Y-131593238D01*
X214454536Y-131447159D01*
X214358282Y-131321718D01*
X214232841Y-131225464D01*
X214086762Y-131164956D01*
X214086760Y-131164955D01*
X213930000Y-131144318D01*
X213773239Y-131164955D01*
X213627160Y-131225463D01*
X213627157Y-131225465D01*
X213501718Y-131321718D01*
X213405465Y-131447157D01*
X213405463Y-131447160D01*
X213344955Y-131593239D01*
X213324318Y-131749999D01*
X213324318Y-131750000D01*
X207669684Y-131750000D01*
X207692055Y-123715000D01*
X214979318Y-123715000D01*
X214999955Y-123871760D01*
X214999956Y-123871762D01*
X215060464Y-124017841D01*
X215156718Y-124143282D01*
X215282159Y-124239536D01*
X215428238Y-124300044D01*
X215585000Y-124320682D01*
X215741762Y-124300044D01*
X215887841Y-124239536D01*
X216013282Y-124143282D01*
X216109536Y-124017841D01*
X216170044Y-123871762D01*
X216171592Y-123860000D01*
X219204318Y-123860000D01*
X219224955Y-124016760D01*
X219224956Y-124016762D01*
X219285464Y-124162841D01*
X219381718Y-124288282D01*
X219507159Y-124384536D01*
X219653238Y-124445044D01*
X219810000Y-124465682D01*
X219966762Y-124445044D01*
X220112841Y-124384536D01*
X220238282Y-124288282D01*
X220334536Y-124162841D01*
X220395044Y-124016762D01*
X220415682Y-123860000D01*
X220395044Y-123703238D01*
X220334536Y-123557159D01*
X220238282Y-123431718D01*
X220112841Y-123335464D01*
X219966762Y-123274956D01*
X219966760Y-123274955D01*
X219810000Y-123254318D01*
X219653239Y-123274955D01*
X219507160Y-123335463D01*
X219507157Y-123335465D01*
X219381718Y-123431718D01*
X219285465Y-123557157D01*
X219285463Y-123557160D01*
X219224955Y-123703239D01*
X219204318Y-123859999D01*
X219204318Y-123860000D01*
X216171592Y-123860000D01*
X216190682Y-123715000D01*
X216170044Y-123558238D01*
X216109536Y-123412159D01*
X216013282Y-123286718D01*
X215887841Y-123190464D01*
X215741762Y-123129956D01*
X215741760Y-123129955D01*
X215585000Y-123109318D01*
X215428239Y-123129955D01*
X215282160Y-123190463D01*
X215282157Y-123190465D01*
X215156718Y-123286718D01*
X215060465Y-123412157D01*
X215060463Y-123412160D01*
X214999955Y-123558239D01*
X214979318Y-123714999D01*
X214979318Y-123715000D01*
X207692055Y-123715000D01*
X207709648Y-117396292D01*
X207729840Y-117328229D01*
X207783625Y-117281886D01*
X207836290Y-117270647D01*
X211795867Y-117290953D01*
G37*
%TD.AperFunction*%
%TD*%
%TA.AperFunction,Conductor*%
%TO.N,GND*%
G36*
X239584000Y-124906325D02*
G01*
X239472315Y-124855320D01*
X239365763Y-124840000D01*
X239294237Y-124840000D01*
X239187685Y-124855320D01*
X239076000Y-124906325D01*
X239076000Y-123233674D01*
X239187685Y-123284680D01*
X239294237Y-123300000D01*
X239365763Y-123300000D01*
X239472315Y-123284680D01*
X239584000Y-123233674D01*
X239584000Y-124906325D01*
G37*
%TD.AperFunction*%
%TA.AperFunction,Conductor*%
G36*
X240955314Y-100579021D02*
G01*
X241023276Y-100599557D01*
X241069346Y-100653576D01*
X241080325Y-100704688D01*
X241119472Y-115687142D01*
X241099648Y-115755315D01*
X241046114Y-115801947D01*
X240975866Y-115812235D01*
X240911209Y-115782911D01*
X240877064Y-115735690D01*
X240844536Y-115657159D01*
X240748282Y-115531718D01*
X240622841Y-115435464D01*
X240595933Y-115424318D01*
X240476760Y-115374955D01*
X240320000Y-115354318D01*
X240163239Y-115374955D01*
X240017160Y-115435463D01*
X240017157Y-115435465D01*
X239891718Y-115531718D01*
X239795465Y-115657157D01*
X239795463Y-115657160D01*
X239734955Y-115803239D01*
X239714318Y-115959999D01*
X239714318Y-115960000D01*
X239734956Y-116116766D01*
X239736762Y-116123505D01*
X239735071Y-116194481D01*
X239695275Y-116253276D01*
X239691761Y-116256074D01*
X239666296Y-116275614D01*
X239570042Y-116401055D01*
X239570040Y-116401058D01*
X239509532Y-116547137D01*
X239488895Y-116703897D01*
X239488895Y-116703898D01*
X239509532Y-116860658D01*
X239566538Y-116998281D01*
X239570041Y-117006739D01*
X239666295Y-117132180D01*
X239791736Y-117228434D01*
X239937815Y-117288942D01*
X240094577Y-117309580D01*
X240251339Y-117288942D01*
X240397418Y-117228434D01*
X240522859Y-117132180D01*
X240619113Y-117006739D01*
X240679621Y-116860660D01*
X240700259Y-116703898D01*
X240699189Y-116695774D01*
X240695544Y-116668084D01*
X240679621Y-116547136D01*
X240679617Y-116547126D01*
X240677814Y-116540395D01*
X240679504Y-116469418D01*
X240719298Y-116410622D01*
X240722776Y-116407852D01*
X240748282Y-116388282D01*
X240844536Y-116262841D01*
X240878480Y-116180892D01*
X240923027Y-116125613D01*
X240990391Y-116103192D01*
X241059182Y-116120750D01*
X241107560Y-116172712D01*
X241120888Y-116228783D01*
X241173100Y-136211603D01*
X241153276Y-136279776D01*
X241099742Y-136326408D01*
X241029494Y-136336696D01*
X240964837Y-136307372D01*
X240928291Y-136250831D01*
X240928204Y-136250868D01*
X240928006Y-136250390D01*
X240926297Y-136247746D01*
X240925393Y-136244542D01*
X240925044Y-136243245D01*
X240925044Y-136243238D01*
X240864536Y-136097159D01*
X240768282Y-135971718D01*
X240642841Y-135875464D01*
X240496762Y-135814956D01*
X240496760Y-135814955D01*
X240340000Y-135794318D01*
X240183239Y-135814955D01*
X240037160Y-135875463D01*
X240037157Y-135875465D01*
X239911718Y-135971718D01*
X239815465Y-136097157D01*
X239815463Y-136097160D01*
X239754955Y-136243239D01*
X239734318Y-136399999D01*
X239734318Y-136400000D01*
X239754955Y-136556760D01*
X239754956Y-136556762D01*
X239815464Y-136702841D01*
X239911718Y-136828282D01*
X240037159Y-136924536D01*
X240183238Y-136985044D01*
X240340000Y-137005682D01*
X240496762Y-136985044D01*
X240642841Y-136924536D01*
X240768282Y-136828282D01*
X240864536Y-136702841D01*
X240925044Y-136556762D01*
X240925045Y-136556749D01*
X240926364Y-136551830D01*
X240963312Y-136491205D01*
X241027171Y-136460180D01*
X241097666Y-136468604D01*
X241152416Y-136513804D01*
X241174037Y-136581428D01*
X241174073Y-136584105D01*
X241259670Y-169343970D01*
X241239846Y-169412143D01*
X241186312Y-169458775D01*
X241133970Y-169470299D01*
X228776300Y-169499699D01*
X228708132Y-169479859D01*
X228661511Y-169426314D01*
X228650000Y-169373699D01*
X228650000Y-162020000D01*
X231204318Y-162020000D01*
X231224955Y-162176760D01*
X231224956Y-162176762D01*
X231285464Y-162322841D01*
X231381718Y-162448282D01*
X231507159Y-162544536D01*
X231653238Y-162605044D01*
X231810000Y-162625682D01*
X231966762Y-162605044D01*
X232112841Y-162544536D01*
X232238282Y-162448282D01*
X232295037Y-162374316D01*
X232352375Y-162332449D01*
X232423246Y-162328227D01*
X232485149Y-162362991D01*
X232494963Y-162374317D01*
X232551709Y-162448271D01*
X232551718Y-162448282D01*
X232677159Y-162544536D01*
X232823238Y-162605044D01*
X232980000Y-162625682D01*
X233136762Y-162605044D01*
X233282841Y-162544536D01*
X233408282Y-162448282D01*
X233408284Y-162448280D01*
X233408296Y-162448271D01*
X233474516Y-162422670D01*
X233544065Y-162436935D01*
X233561704Y-162448271D01*
X233561716Y-162448280D01*
X233561718Y-162448282D01*
X233687159Y-162544536D01*
X233833238Y-162605044D01*
X233990000Y-162625682D01*
X234146762Y-162605044D01*
X234292841Y-162544536D01*
X234418282Y-162448282D01*
X234514536Y-162322841D01*
X234575044Y-162176762D01*
X234595682Y-162020000D01*
X234575044Y-161863238D01*
X234514536Y-161717159D01*
X234418282Y-161591718D01*
X234292841Y-161495464D01*
X234146762Y-161434956D01*
X234146760Y-161434955D01*
X233990000Y-161414318D01*
X233833239Y-161434955D01*
X233687160Y-161495463D01*
X233687157Y-161495465D01*
X233561704Y-161591729D01*
X233495483Y-161617329D01*
X233425935Y-161603064D01*
X233408296Y-161591729D01*
X233282842Y-161495465D01*
X233282841Y-161495464D01*
X233136762Y-161434956D01*
X233136760Y-161434955D01*
X232980000Y-161414318D01*
X232823239Y-161434955D01*
X232677160Y-161495463D01*
X232677157Y-161495465D01*
X232551715Y-161591720D01*
X232494962Y-161665683D01*
X232437624Y-161707550D01*
X232366753Y-161711772D01*
X232304851Y-161677008D01*
X232295038Y-161665683D01*
X232238284Y-161591720D01*
X232238282Y-161591719D01*
X232238282Y-161591718D01*
X232112841Y-161495464D01*
X231966762Y-161434956D01*
X231966760Y-161434955D01*
X231810000Y-161414318D01*
X231653239Y-161434955D01*
X231507160Y-161495463D01*
X231507157Y-161495465D01*
X231381718Y-161591718D01*
X231285465Y-161717157D01*
X231285463Y-161717160D01*
X231224955Y-161863239D01*
X231204318Y-162019999D01*
X231204318Y-162020000D01*
X228650000Y-162020000D01*
X228650000Y-159770000D01*
X232144318Y-159770000D01*
X232164955Y-159926760D01*
X232164956Y-159926762D01*
X232225464Y-160072841D01*
X232321718Y-160198282D01*
X232447159Y-160294536D01*
X232593238Y-160355044D01*
X232750000Y-160375682D01*
X232906762Y-160355044D01*
X233052841Y-160294536D01*
X233178282Y-160198282D01*
X233274536Y-160072841D01*
X233335044Y-159926762D01*
X233355682Y-159770000D01*
X233335044Y-159613238D01*
X233274536Y-159467159D01*
X233178282Y-159341718D01*
X233052841Y-159245464D01*
X232906762Y-159184956D01*
X232906760Y-159184955D01*
X232750000Y-159164318D01*
X232593239Y-159184955D01*
X232447160Y-159245463D01*
X232447157Y-159245465D01*
X232321718Y-159341718D01*
X232225465Y-159467157D01*
X232225463Y-159467160D01*
X232164955Y-159613239D01*
X232144318Y-159769999D01*
X232144318Y-159770000D01*
X228650000Y-159770000D01*
X228650000Y-155810000D01*
X232164318Y-155810000D01*
X232184955Y-155966760D01*
X232184956Y-155966762D01*
X232245464Y-156112841D01*
X232341718Y-156238282D01*
X232467159Y-156334536D01*
X232613238Y-156395044D01*
X232770000Y-156415682D01*
X232926762Y-156395044D01*
X233072841Y-156334536D01*
X233198282Y-156238282D01*
X233294536Y-156112841D01*
X233355044Y-155966762D01*
X233375682Y-155810000D01*
X233355044Y-155653238D01*
X233294536Y-155507159D01*
X233198282Y-155381718D01*
X233072841Y-155285464D01*
X232926762Y-155224956D01*
X232926760Y-155224955D01*
X232770000Y-155204318D01*
X232613239Y-155224955D01*
X232467160Y-155285463D01*
X232467157Y-155285465D01*
X232341718Y-155381718D01*
X232245465Y-155507157D01*
X232245463Y-155507160D01*
X232184955Y-155653239D01*
X232164318Y-155809999D01*
X232164318Y-155810000D01*
X228650000Y-155810000D01*
X228650000Y-153520000D01*
X231254318Y-153520000D01*
X231274955Y-153676760D01*
X231274956Y-153676762D01*
X231335464Y-153822841D01*
X231431718Y-153948282D01*
X231557159Y-154044536D01*
X231703238Y-154105044D01*
X231860000Y-154125682D01*
X232016762Y-154105044D01*
X232162841Y-154044536D01*
X232288282Y-153948282D01*
X232309854Y-153920168D01*
X232367190Y-153878301D01*
X232438061Y-153874077D01*
X232458031Y-153880460D01*
X232493238Y-153895044D01*
X232650000Y-153915682D01*
X232806762Y-153895044D01*
X232952841Y-153834536D01*
X233078282Y-153738282D01*
X233174536Y-153612841D01*
X233235044Y-153466762D01*
X233255682Y-153310000D01*
X233235044Y-153153238D01*
X233174536Y-153007159D01*
X233078282Y-152881718D01*
X232952841Y-152785464D01*
X232879853Y-152755231D01*
X232806760Y-152724955D01*
X232650000Y-152704318D01*
X232493239Y-152724955D01*
X232347160Y-152785463D01*
X232347157Y-152785465D01*
X232221714Y-152881720D01*
X232200143Y-152909833D01*
X232142805Y-152951700D01*
X232071934Y-152955921D01*
X232051965Y-152949537D01*
X232016762Y-152934956D01*
X231860000Y-152914318D01*
X231703239Y-152934955D01*
X231557160Y-152995463D01*
X231557157Y-152995465D01*
X231431718Y-153091718D01*
X231335465Y-153217157D01*
X231335463Y-153217160D01*
X231274955Y-153363239D01*
X231254318Y-153519999D01*
X231254318Y-153520000D01*
X228650000Y-153520000D01*
X228650000Y-151780003D01*
X238374417Y-151780003D01*
X238394698Y-151985927D01*
X238394699Y-151985933D01*
X238394700Y-151985934D01*
X238454768Y-152183954D01*
X238552315Y-152366450D01*
X238683590Y-152526410D01*
X238843550Y-152657685D01*
X239026046Y-152755232D01*
X239224066Y-152815300D01*
X239224070Y-152815300D01*
X239224072Y-152815301D01*
X239429997Y-152835583D01*
X239430000Y-152835583D01*
X239430003Y-152835583D01*
X239635927Y-152815301D01*
X239635928Y-152815300D01*
X239635934Y-152815300D01*
X239833954Y-152755232D01*
X240016450Y-152657685D01*
X240176410Y-152526410D01*
X240307685Y-152366450D01*
X240405232Y-152183954D01*
X240465300Y-151985934D01*
X240485583Y-151780000D01*
X240485583Y-151779996D01*
X240465301Y-151574072D01*
X240465300Y-151574070D01*
X240465300Y-151574066D01*
X240405232Y-151376046D01*
X240307685Y-151193550D01*
X240176410Y-151033590D01*
X240016450Y-150902315D01*
X240016448Y-150902314D01*
X240016447Y-150902313D01*
X239833954Y-150804768D01*
X239635927Y-150744698D01*
X239430003Y-150724417D01*
X239429997Y-150724417D01*
X239224072Y-150744698D01*
X239026045Y-150804768D01*
X238843552Y-150902313D01*
X238683590Y-151033590D01*
X238552313Y-151193552D01*
X238454768Y-151376045D01*
X238394698Y-151574072D01*
X238374417Y-151779996D01*
X238374417Y-151780003D01*
X228650000Y-151780003D01*
X228650000Y-146720003D01*
X238434417Y-146720003D01*
X238454698Y-146925927D01*
X238454699Y-146925933D01*
X238454700Y-146925934D01*
X238514768Y-147123954D01*
X238612315Y-147306450D01*
X238743590Y-147466410D01*
X238903550Y-147597685D01*
X239086046Y-147695232D01*
X239284066Y-147755300D01*
X239284070Y-147755300D01*
X239284072Y-147755301D01*
X239489997Y-147775583D01*
X239490000Y-147775583D01*
X239490003Y-147775583D01*
X239695927Y-147755301D01*
X239695928Y-147755300D01*
X239695934Y-147755300D01*
X239893954Y-147695232D01*
X240076450Y-147597685D01*
X240236410Y-147466410D01*
X240367685Y-147306450D01*
X240465232Y-147123954D01*
X240525300Y-146925934D01*
X240545583Y-146720000D01*
X240530384Y-146565682D01*
X240525301Y-146514072D01*
X240525300Y-146514070D01*
X240525300Y-146514066D01*
X240465232Y-146316046D01*
X240367685Y-146133550D01*
X240236410Y-145973590D01*
X240076450Y-145842315D01*
X240076448Y-145842314D01*
X240076447Y-145842313D01*
X239893954Y-145744768D01*
X239695927Y-145684698D01*
X239490003Y-145664417D01*
X239489997Y-145664417D01*
X239284072Y-145684698D01*
X239086045Y-145744768D01*
X238903552Y-145842313D01*
X238743590Y-145973590D01*
X238612313Y-146133552D01*
X238514768Y-146316045D01*
X238454698Y-146514072D01*
X238434417Y-146719996D01*
X238434417Y-146720003D01*
X228650000Y-146720003D01*
X228650000Y-145960000D01*
X230924318Y-145960000D01*
X230944955Y-146116760D01*
X230951911Y-146133552D01*
X231005464Y-146262841D01*
X231101718Y-146388282D01*
X231227159Y-146484536D01*
X231373238Y-146545044D01*
X231530000Y-146565682D01*
X231686762Y-146545044D01*
X231832841Y-146484536D01*
X231958282Y-146388282D01*
X232054536Y-146262841D01*
X232115044Y-146116762D01*
X232135682Y-145960000D01*
X232115044Y-145803238D01*
X232054536Y-145657159D01*
X231958282Y-145531718D01*
X231832841Y-145435464D01*
X231686762Y-145374956D01*
X231686760Y-145374955D01*
X231530000Y-145354318D01*
X231373239Y-145374955D01*
X231227160Y-145435463D01*
X231227157Y-145435465D01*
X231101718Y-145531718D01*
X231005465Y-145657157D01*
X231005463Y-145657160D01*
X230944955Y-145803239D01*
X230924318Y-145959999D01*
X230924318Y-145960000D01*
X228650000Y-145960000D01*
X228650000Y-142680000D01*
X234974318Y-142680000D01*
X234994955Y-142836760D01*
X234994956Y-142836762D01*
X235055464Y-142982841D01*
X235151718Y-143108282D01*
X235277159Y-143204536D01*
X235423238Y-143265044D01*
X235580000Y-143285682D01*
X235736762Y-143265044D01*
X235882841Y-143204536D01*
X236008282Y-143108282D01*
X236104536Y-142982841D01*
X236165044Y-142836762D01*
X236185682Y-142680000D01*
X236165044Y-142523238D01*
X236104536Y-142377159D01*
X236008282Y-142251718D01*
X235882841Y-142155464D01*
X235736762Y-142094956D01*
X235736760Y-142094955D01*
X235580000Y-142074318D01*
X235423239Y-142094955D01*
X235277160Y-142155463D01*
X235277157Y-142155465D01*
X235151718Y-142251718D01*
X235055465Y-142377157D01*
X235055463Y-142377160D01*
X234994955Y-142523239D01*
X234974318Y-142679999D01*
X234974318Y-142680000D01*
X228650000Y-142680000D01*
X228650000Y-140470000D01*
X229314435Y-140470000D01*
X229334632Y-140649255D01*
X229394211Y-140819522D01*
X229394212Y-140819525D01*
X229490182Y-140972260D01*
X229490183Y-140972262D01*
X229617737Y-141099816D01*
X229617739Y-141099817D01*
X229770474Y-141195787D01*
X229770475Y-141195787D01*
X229770478Y-141195789D01*
X229940745Y-141255368D01*
X230075046Y-141270500D01*
X230164954Y-141270500D01*
X230299255Y-141255368D01*
X230469522Y-141195789D01*
X230622262Y-141099816D01*
X230749816Y-140972262D01*
X230845789Y-140819522D01*
X230905368Y-140649255D01*
X230925565Y-140470000D01*
X231854435Y-140470000D01*
X231874632Y-140649255D01*
X231934211Y-140819522D01*
X231934212Y-140819525D01*
X232030182Y-140972260D01*
X232030183Y-140972262D01*
X232157737Y-141099816D01*
X232157739Y-141099817D01*
X232310474Y-141195787D01*
X232310475Y-141195787D01*
X232310478Y-141195789D01*
X232480745Y-141255368D01*
X232615046Y-141270500D01*
X232704954Y-141270500D01*
X232839255Y-141255368D01*
X233009522Y-141195789D01*
X233162262Y-141099816D01*
X233289816Y-140972262D01*
X233385789Y-140819522D01*
X233445368Y-140649255D01*
X233465565Y-140470000D01*
X234394435Y-140470000D01*
X234414632Y-140649255D01*
X234474211Y-140819522D01*
X234474212Y-140819525D01*
X234570182Y-140972260D01*
X234570183Y-140972262D01*
X234697737Y-141099816D01*
X234697739Y-141099817D01*
X234850474Y-141195787D01*
X234850475Y-141195787D01*
X234850478Y-141195789D01*
X235020745Y-141255368D01*
X235155046Y-141270500D01*
X235244954Y-141270500D01*
X235379255Y-141255368D01*
X235549522Y-141195789D01*
X235702262Y-141099816D01*
X235829816Y-140972262D01*
X235925789Y-140819522D01*
X235985368Y-140649255D01*
X236005565Y-140470000D01*
X235985368Y-140290745D01*
X235925789Y-140120478D01*
X235925787Y-140120475D01*
X235925787Y-140120474D01*
X235829817Y-139967739D01*
X235829816Y-139967737D01*
X235702262Y-139840183D01*
X235702260Y-139840182D01*
X235549525Y-139744212D01*
X235549522Y-139744211D01*
X235475421Y-139718282D01*
X235379255Y-139684632D01*
X235244954Y-139669500D01*
X235155046Y-139669500D01*
X235020745Y-139684632D01*
X235020742Y-139684632D01*
X235020742Y-139684633D01*
X234850477Y-139744211D01*
X234850474Y-139744212D01*
X234697739Y-139840182D01*
X234697737Y-139840183D01*
X234570183Y-139967737D01*
X234570182Y-139967739D01*
X234474212Y-140120474D01*
X234474211Y-140120477D01*
X234426198Y-140257690D01*
X234414632Y-140290745D01*
X234394435Y-140470000D01*
X233465565Y-140470000D01*
X233445368Y-140290745D01*
X233385789Y-140120478D01*
X233385787Y-140120475D01*
X233385787Y-140120474D01*
X233289817Y-139967739D01*
X233289816Y-139967737D01*
X233162262Y-139840183D01*
X233162260Y-139840182D01*
X233009525Y-139744212D01*
X233009522Y-139744211D01*
X232935421Y-139718282D01*
X232839255Y-139684632D01*
X232704954Y-139669500D01*
X232615046Y-139669500D01*
X232480745Y-139684632D01*
X232480742Y-139684632D01*
X232480742Y-139684633D01*
X232310477Y-139744211D01*
X232310474Y-139744212D01*
X232157739Y-139840182D01*
X232157737Y-139840183D01*
X232030183Y-139967737D01*
X232030182Y-139967739D01*
X231934212Y-140120474D01*
X231934211Y-140120477D01*
X231886198Y-140257690D01*
X231874632Y-140290745D01*
X231854435Y-140470000D01*
X230925565Y-140470000D01*
X230905368Y-140290745D01*
X230845789Y-140120478D01*
X230845787Y-140120475D01*
X230845787Y-140120474D01*
X230749817Y-139967739D01*
X230749816Y-139967737D01*
X230622262Y-139840183D01*
X230622260Y-139840182D01*
X230469525Y-139744212D01*
X230469522Y-139744211D01*
X230395421Y-139718282D01*
X230299255Y-139684632D01*
X230164954Y-139669500D01*
X230075046Y-139669500D01*
X229940745Y-139684632D01*
X229940742Y-139684632D01*
X229940742Y-139684633D01*
X229770477Y-139744211D01*
X229770474Y-139744212D01*
X229617739Y-139840182D01*
X229617737Y-139840183D01*
X229490183Y-139967737D01*
X229490182Y-139967739D01*
X229394212Y-140120474D01*
X229394211Y-140120477D01*
X229346198Y-140257690D01*
X229334632Y-140290745D01*
X229314435Y-140470000D01*
X228650000Y-140470000D01*
X228650000Y-138310329D01*
X228670002Y-138242208D01*
X228723658Y-138195715D01*
X228793932Y-138185611D01*
X228858512Y-138215105D01*
X228891387Y-138259715D01*
X228921580Y-138328548D01*
X229044674Y-138516958D01*
X229197097Y-138682534D01*
X229374698Y-138820767D01*
X229374699Y-138820768D01*
X229572628Y-138927882D01*
X229572630Y-138927883D01*
X229785483Y-139000955D01*
X229785492Y-139000957D01*
X229866000Y-139014391D01*
X229866000Y-138113674D01*
X229977685Y-138164680D01*
X230084237Y-138180000D01*
X230155763Y-138180000D01*
X230262315Y-138164680D01*
X230374000Y-138113674D01*
X230374000Y-139014390D01*
X230454507Y-139000957D01*
X230454516Y-139000955D01*
X230667369Y-138927883D01*
X230667371Y-138927882D01*
X230865300Y-138820768D01*
X230865301Y-138820767D01*
X231042902Y-138682534D01*
X231195325Y-138516958D01*
X231318419Y-138328548D01*
X231408820Y-138122456D01*
X231408823Y-138122449D01*
X231456544Y-137934000D01*
X230551116Y-137934000D01*
X230579493Y-137889844D01*
X230620000Y-137751889D01*
X230620000Y-137680000D01*
X231854435Y-137680000D01*
X231874632Y-137859255D01*
X231920983Y-137991718D01*
X231934211Y-138029522D01*
X231934212Y-138029525D01*
X232030182Y-138182260D01*
X232030183Y-138182262D01*
X232157737Y-138309816D01*
X232157739Y-138309817D01*
X232310474Y-138405787D01*
X232310475Y-138405787D01*
X232310478Y-138405789D01*
X232480745Y-138465368D01*
X232615046Y-138480500D01*
X232704954Y-138480500D01*
X232839255Y-138465368D01*
X233009522Y-138405789D01*
X233162262Y-138309816D01*
X233289816Y-138182262D01*
X233385789Y-138029522D01*
X233445368Y-137859255D01*
X233465565Y-137680000D01*
X234394435Y-137680000D01*
X234414632Y-137859255D01*
X234460983Y-137991718D01*
X234474211Y-138029522D01*
X234474212Y-138029525D01*
X234570182Y-138182260D01*
X234570183Y-138182262D01*
X234697737Y-138309816D01*
X234697739Y-138309817D01*
X234850474Y-138405787D01*
X234850475Y-138405787D01*
X234850478Y-138405789D01*
X235020745Y-138465368D01*
X235155046Y-138480500D01*
X235244954Y-138480500D01*
X235379255Y-138465368D01*
X235549522Y-138405789D01*
X235702262Y-138309816D01*
X235829816Y-138182262D01*
X235925789Y-138029522D01*
X235985368Y-137859255D01*
X236005565Y-137680000D01*
X235985368Y-137500745D01*
X235925789Y-137330478D01*
X235925787Y-137330475D01*
X235925787Y-137330474D01*
X235829817Y-137177739D01*
X235829816Y-137177737D01*
X235702262Y-137050183D01*
X235702260Y-137050182D01*
X235549525Y-136954212D01*
X235549522Y-136954211D01*
X235379255Y-136894632D01*
X235244954Y-136879500D01*
X235155046Y-136879500D01*
X235020745Y-136894632D01*
X235020742Y-136894632D01*
X235020742Y-136894633D01*
X234850477Y-136954211D01*
X234850474Y-136954212D01*
X234697739Y-137050182D01*
X234697737Y-137050183D01*
X234570183Y-137177737D01*
X234570182Y-137177739D01*
X234474212Y-137330474D01*
X234474211Y-137330477D01*
X234414633Y-137500742D01*
X234414632Y-137500745D01*
X234394435Y-137680000D01*
X233465565Y-137680000D01*
X233445368Y-137500745D01*
X233385789Y-137330478D01*
X233385787Y-137330475D01*
X233385787Y-137330474D01*
X233289817Y-137177739D01*
X233289816Y-137177737D01*
X233162262Y-137050183D01*
X233162260Y-137050182D01*
X233009525Y-136954212D01*
X233009522Y-136954211D01*
X232839255Y-136894632D01*
X232704954Y-136879500D01*
X232615046Y-136879500D01*
X232480745Y-136894632D01*
X232480742Y-136894632D01*
X232480742Y-136894633D01*
X232310477Y-136954211D01*
X232310474Y-136954212D01*
X232157739Y-137050182D01*
X232157737Y-137050183D01*
X232030183Y-137177737D01*
X232030182Y-137177739D01*
X231934212Y-137330474D01*
X231934211Y-137330477D01*
X231874633Y-137500742D01*
X231874632Y-137500745D01*
X231854435Y-137680000D01*
X230620000Y-137680000D01*
X230620000Y-137608111D01*
X230579493Y-137470156D01*
X230551116Y-137426000D01*
X231456544Y-137426000D01*
X231456544Y-137425999D01*
X231408823Y-137237550D01*
X231408820Y-137237543D01*
X231318419Y-137031451D01*
X231195325Y-136843041D01*
X231042902Y-136677465D01*
X230865301Y-136539232D01*
X230865300Y-136539231D01*
X230667371Y-136432117D01*
X230667369Y-136432116D01*
X230454512Y-136359043D01*
X230454501Y-136359040D01*
X230374000Y-136345606D01*
X230374000Y-137246325D01*
X230262315Y-137195320D01*
X230155763Y-137180000D01*
X230084237Y-137180000D01*
X229977685Y-137195320D01*
X229866000Y-137246325D01*
X229866000Y-136345607D01*
X229865999Y-136345606D01*
X229785498Y-136359040D01*
X229785487Y-136359043D01*
X229572630Y-136432116D01*
X229572628Y-136432117D01*
X229374699Y-136539231D01*
X229374698Y-136539232D01*
X229197097Y-136677465D01*
X229044674Y-136843041D01*
X228921580Y-137031451D01*
X228891387Y-137100284D01*
X228845706Y-137154632D01*
X228777893Y-137175656D01*
X228709480Y-137156679D01*
X228662186Y-137103728D01*
X228650000Y-137049670D01*
X228650000Y-133035243D01*
X228998880Y-133035243D01*
X229021753Y-133172310D01*
X229038462Y-133272447D01*
X229038464Y-133272454D01*
X229116547Y-133499901D01*
X229116549Y-133499906D01*
X229153538Y-133568255D01*
X229231009Y-133711409D01*
X229378723Y-133901191D01*
X229555642Y-134064056D01*
X229555649Y-134064062D01*
X229756976Y-134195596D01*
X229977207Y-134292198D01*
X229977208Y-134292198D01*
X229977210Y-134292199D01*
X230210327Y-134351232D01*
X230210335Y-134351234D01*
X230389984Y-134366120D01*
X230389990Y-134366120D01*
X230510010Y-134366120D01*
X230510016Y-134366120D01*
X230689665Y-134351234D01*
X230922793Y-134292198D01*
X231143024Y-134195596D01*
X231344351Y-134064062D01*
X231432816Y-133982623D01*
X231521276Y-133901191D01*
X231521277Y-133901189D01*
X231521282Y-133901185D01*
X231668992Y-133711407D01*
X231783451Y-133499906D01*
X231861537Y-133272450D01*
X231901120Y-133035243D01*
X231901120Y-132960000D01*
X235634571Y-132960000D01*
X235654244Y-133172311D01*
X235712593Y-133377384D01*
X235712594Y-133377386D01*
X235712595Y-133377389D01*
X235807634Y-133568255D01*
X235915740Y-133711409D01*
X235936129Y-133738408D01*
X236093699Y-133882053D01*
X236093701Y-133882054D01*
X236274974Y-133994294D01*
X236274975Y-133994294D01*
X236274981Y-133994298D01*
X236473802Y-134071321D01*
X236683390Y-134110500D01*
X236683393Y-134110500D01*
X236896607Y-134110500D01*
X236896610Y-134110500D01*
X237106198Y-134071321D01*
X237305019Y-133994298D01*
X237486302Y-133882052D01*
X237643872Y-133738407D01*
X237772366Y-133568255D01*
X237867405Y-133377389D01*
X237925756Y-133172310D01*
X237934537Y-133077538D01*
X237960739Y-133011555D01*
X238018456Y-132970211D01*
X238089362Y-132966634D01*
X238150946Y-133001960D01*
X238183656Y-133064973D01*
X238185461Y-133077529D01*
X238192971Y-133158579D01*
X238194244Y-133172311D01*
X238252593Y-133377384D01*
X238252594Y-133377386D01*
X238252595Y-133377389D01*
X238347634Y-133568255D01*
X238455740Y-133711409D01*
X238476129Y-133738408D01*
X238633699Y-133882053D01*
X238633701Y-133882054D01*
X238814974Y-133994294D01*
X238814975Y-133994294D01*
X238814981Y-133994298D01*
X239013802Y-134071321D01*
X239223390Y-134110500D01*
X239223393Y-134110500D01*
X239436607Y-134110500D01*
X239436610Y-134110500D01*
X239646198Y-134071321D01*
X239845019Y-133994298D01*
X240026302Y-133882052D01*
X240183872Y-133738407D01*
X240312366Y-133568255D01*
X240407405Y-133377389D01*
X240465756Y-133172310D01*
X240485429Y-132960000D01*
X240465756Y-132747690D01*
X240407405Y-132542611D01*
X240312366Y-132351745D01*
X240183872Y-132181593D01*
X240114762Y-132118590D01*
X240026300Y-132037946D01*
X240026298Y-132037945D01*
X239845025Y-131925705D01*
X239845021Y-131925703D01*
X239845019Y-131925702D01*
X239646198Y-131848679D01*
X239459902Y-131813854D01*
X239396618Y-131781676D01*
X239360776Y-131720391D01*
X239363757Y-131649457D01*
X239404615Y-131591395D01*
X239459901Y-131566145D01*
X239646198Y-131531321D01*
X239845019Y-131454298D01*
X240026302Y-131342052D01*
X240183872Y-131198407D01*
X240312366Y-131028255D01*
X240407405Y-130837389D01*
X240465756Y-130632310D01*
X240485429Y-130420000D01*
X240465756Y-130207690D01*
X240407405Y-130002611D01*
X240312366Y-129811745D01*
X240183872Y-129641593D01*
X240026302Y-129497948D01*
X240026300Y-129497946D01*
X240026298Y-129497945D01*
X239845025Y-129385705D01*
X239845021Y-129385703D01*
X239845019Y-129385702D01*
X239646198Y-129308679D01*
X239459902Y-129273854D01*
X239396618Y-129241676D01*
X239360776Y-129180391D01*
X239363757Y-129109457D01*
X239404615Y-129051395D01*
X239459901Y-129026145D01*
X239646198Y-128991321D01*
X239845019Y-128914298D01*
X240026302Y-128802052D01*
X240183872Y-128658407D01*
X240312366Y-128488255D01*
X240407405Y-128297389D01*
X240465756Y-128092310D01*
X240485429Y-127880000D01*
X240465756Y-127667690D01*
X240407405Y-127462611D01*
X240312366Y-127271745D01*
X240183872Y-127101593D01*
X240046155Y-126976046D01*
X240026300Y-126957946D01*
X240026298Y-126957945D01*
X239845025Y-126845705D01*
X239845017Y-126845701D01*
X239839713Y-126843646D01*
X239829102Y-126839536D01*
X239772808Y-126796278D01*
X239748837Y-126729451D01*
X239764800Y-126660272D01*
X239815631Y-126610706D01*
X239833708Y-126602872D01*
X239877365Y-126587884D01*
X239877371Y-126587882D01*
X240075300Y-126480768D01*
X240075301Y-126480767D01*
X240252902Y-126342534D01*
X240405325Y-126176958D01*
X240528419Y-125988548D01*
X240618820Y-125782456D01*
X240618823Y-125782449D01*
X240666544Y-125594000D01*
X239761116Y-125594000D01*
X239789493Y-125549844D01*
X239830000Y-125411889D01*
X239830000Y-125268111D01*
X239789493Y-125130156D01*
X239761116Y-125086000D01*
X240666544Y-125086000D01*
X240666544Y-125085999D01*
X240618823Y-124897550D01*
X240618820Y-124897543D01*
X240528419Y-124691451D01*
X240405325Y-124503041D01*
X240252902Y-124337465D01*
X240075301Y-124199232D01*
X240075300Y-124199231D01*
X240041267Y-124180814D01*
X239990876Y-124130801D01*
X239975524Y-124061484D01*
X240000085Y-123994871D01*
X240041267Y-123959186D01*
X240075300Y-123940768D01*
X240075301Y-123940767D01*
X240252902Y-123802534D01*
X240405325Y-123636958D01*
X240528419Y-123448548D01*
X240618820Y-123242456D01*
X240618823Y-123242449D01*
X240666544Y-123054000D01*
X239761116Y-123054000D01*
X239789493Y-123009844D01*
X239830000Y-122871889D01*
X239830000Y-122728111D01*
X239789493Y-122590156D01*
X239761116Y-122546000D01*
X240666544Y-122546000D01*
X240666544Y-122545999D01*
X240618823Y-122357550D01*
X240618820Y-122357543D01*
X240528419Y-122151451D01*
X240405325Y-121963041D01*
X240252902Y-121797465D01*
X240075301Y-121659232D01*
X240075300Y-121659231D01*
X239877371Y-121552117D01*
X239877369Y-121552116D01*
X239664512Y-121479043D01*
X239664501Y-121479040D01*
X239584000Y-121465606D01*
X239584000Y-122366325D01*
X239472315Y-122315320D01*
X239365763Y-122300000D01*
X239294237Y-122300000D01*
X239187685Y-122315320D01*
X239076000Y-122366325D01*
X239076000Y-121465607D01*
X239075999Y-121465606D01*
X238995498Y-121479040D01*
X238995487Y-121479043D01*
X238782630Y-121552116D01*
X238782628Y-121552117D01*
X238584699Y-121659231D01*
X238584698Y-121659232D01*
X238407097Y-121797465D01*
X238254674Y-121963042D01*
X238171982Y-122089611D01*
X238117978Y-122135699D01*
X238047630Y-122145274D01*
X237983273Y-122115296D01*
X237945339Y-122055283D01*
X237940499Y-122020695D01*
X237940499Y-121905140D01*
X237940499Y-121905136D01*
X237937585Y-121880009D01*
X237921872Y-121844422D01*
X237892206Y-121777234D01*
X237812767Y-121697795D01*
X237812765Y-121697794D01*
X237709989Y-121652414D01*
X237709990Y-121652414D01*
X237684868Y-121649500D01*
X235895140Y-121649500D01*
X235895133Y-121649501D01*
X235870009Y-121652414D01*
X235870005Y-121652416D01*
X235767234Y-121697793D01*
X235687795Y-121777232D01*
X235687794Y-121777234D01*
X235642414Y-121880009D01*
X235639500Y-121905129D01*
X235639500Y-123694859D01*
X235639501Y-123694866D01*
X235642414Y-123719990D01*
X235642416Y-123719994D01*
X235687793Y-123822765D01*
X235767232Y-123902204D01*
X235767234Y-123902205D01*
X235767235Y-123902206D01*
X235870009Y-123947585D01*
X235895135Y-123950500D01*
X236602175Y-123950499D01*
X236670294Y-123970501D01*
X236716787Y-124024157D01*
X236726891Y-124094430D01*
X236697398Y-124159011D01*
X236637671Y-124197395D01*
X236625326Y-124200353D01*
X236473805Y-124228677D01*
X236319948Y-124288282D01*
X236274981Y-124305702D01*
X236274980Y-124305702D01*
X236274979Y-124305703D01*
X236274974Y-124305705D01*
X236093701Y-124417945D01*
X236093699Y-124417946D01*
X235936129Y-124561591D01*
X235894595Y-124616591D01*
X235807634Y-124731745D01*
X235753730Y-124840000D01*
X235712593Y-124922615D01*
X235654244Y-125127688D01*
X235634571Y-125340000D01*
X235654244Y-125552311D01*
X235712593Y-125757384D01*
X235712594Y-125757386D01*
X235712595Y-125757389D01*
X235807634Y-125948255D01*
X235900428Y-126071133D01*
X235936129Y-126118408D01*
X236093699Y-126262053D01*
X236093701Y-126262054D01*
X236274974Y-126374294D01*
X236274975Y-126374294D01*
X236274981Y-126374298D01*
X236473802Y-126451321D01*
X236660097Y-126486145D01*
X236723381Y-126518324D01*
X236759223Y-126579609D01*
X236756242Y-126650543D01*
X236715384Y-126708605D01*
X236660098Y-126733854D01*
X236547350Y-126754930D01*
X236473800Y-126768679D01*
X236319754Y-126828356D01*
X236274981Y-126845702D01*
X236274980Y-126845702D01*
X236274979Y-126845703D01*
X236274974Y-126845705D01*
X236093701Y-126957945D01*
X236093699Y-126957946D01*
X235936129Y-127101591D01*
X235887746Y-127165660D01*
X235807634Y-127271745D01*
X235714130Y-127459526D01*
X235712593Y-127462615D01*
X235654244Y-127667688D01*
X235634571Y-127880000D01*
X235654244Y-128092311D01*
X235712593Y-128297384D01*
X235712594Y-128297386D01*
X235712595Y-128297389D01*
X235807634Y-128488255D01*
X235936128Y-128658407D01*
X235936129Y-128658408D01*
X236093699Y-128802053D01*
X236093701Y-128802054D01*
X236274974Y-128914294D01*
X236274975Y-128914294D01*
X236274981Y-128914298D01*
X236473802Y-128991321D01*
X236660097Y-129026145D01*
X236723381Y-129058324D01*
X236759223Y-129119609D01*
X236756242Y-129190543D01*
X236715384Y-129248605D01*
X236660098Y-129273854D01*
X236547350Y-129294930D01*
X236473800Y-129308679D01*
X236319754Y-129368356D01*
X236274981Y-129385702D01*
X236274980Y-129385702D01*
X236274979Y-129385703D01*
X236274974Y-129385705D01*
X236093701Y-129497945D01*
X236093699Y-129497946D01*
X235936129Y-129641591D01*
X235917953Y-129665660D01*
X235807634Y-129811745D01*
X235714130Y-129999526D01*
X235712593Y-130002615D01*
X235654244Y-130207688D01*
X235634571Y-130420000D01*
X235654244Y-130632311D01*
X235712593Y-130837384D01*
X235712594Y-130837386D01*
X235712595Y-130837389D01*
X235807634Y-131028255D01*
X235895282Y-131144318D01*
X235936129Y-131198408D01*
X236093699Y-131342053D01*
X236093701Y-131342054D01*
X236274974Y-131454294D01*
X236274975Y-131454294D01*
X236274981Y-131454298D01*
X236473802Y-131531321D01*
X236660097Y-131566145D01*
X236723381Y-131598324D01*
X236759223Y-131659609D01*
X236756242Y-131730543D01*
X236715384Y-131788605D01*
X236660098Y-131813854D01*
X236547350Y-131834930D01*
X236473800Y-131848679D01*
X236323871Y-131906762D01*
X236274981Y-131925702D01*
X236274980Y-131925702D01*
X236274979Y-131925703D01*
X236274974Y-131925705D01*
X236093701Y-132037945D01*
X236093699Y-132037946D01*
X235936129Y-132181591D01*
X235865940Y-132274536D01*
X235807634Y-132351745D01*
X235750448Y-132466591D01*
X235712593Y-132542615D01*
X235654244Y-132747688D01*
X235634571Y-132960000D01*
X231901120Y-132960000D01*
X231901120Y-132794757D01*
X231861537Y-132557550D01*
X231783451Y-132330094D01*
X231668992Y-132118593D01*
X231521282Y-131928815D01*
X231521280Y-131928813D01*
X231521276Y-131928808D01*
X231344357Y-131765943D01*
X231344355Y-131765941D01*
X231344351Y-131765938D01*
X231143024Y-131634404D01*
X231143021Y-131634402D01*
X231143020Y-131634402D01*
X230922796Y-131537803D01*
X230922789Y-131537800D01*
X230689672Y-131478767D01*
X230689667Y-131478766D01*
X230689665Y-131478766D01*
X230576818Y-131469415D01*
X230510019Y-131463880D01*
X230510016Y-131463880D01*
X230389984Y-131463880D01*
X230389980Y-131463880D01*
X230300914Y-131471260D01*
X230210335Y-131478766D01*
X230210333Y-131478766D01*
X230210327Y-131478767D01*
X229977210Y-131537800D01*
X229977203Y-131537803D01*
X229756979Y-131634402D01*
X229756976Y-131634404D01*
X229555649Y-131765938D01*
X229555647Y-131765939D01*
X229555642Y-131765943D01*
X229378723Y-131928808D01*
X229231009Y-132118590D01*
X229116547Y-132330098D01*
X229038464Y-132557545D01*
X229038462Y-132557552D01*
X229024230Y-132642841D01*
X228998880Y-132794757D01*
X228998880Y-133035243D01*
X228650000Y-133035243D01*
X228650000Y-131250000D01*
X221944919Y-131220548D01*
X221876886Y-131200247D01*
X221830630Y-131146387D01*
X221819473Y-131095080D01*
X221819191Y-131028255D01*
X221814202Y-129845000D01*
X232354052Y-129845000D01*
X232374259Y-130024340D01*
X232374260Y-130024342D01*
X232433866Y-130194688D01*
X232433867Y-130194690D01*
X232529883Y-130347500D01*
X232657499Y-130475116D01*
X232736847Y-130524973D01*
X232810312Y-130571134D01*
X232980660Y-130630741D01*
X233106489Y-130644918D01*
X233115020Y-130645880D01*
X233115021Y-130645880D01*
X233204980Y-130645880D01*
X233213001Y-130644976D01*
X233339340Y-130630741D01*
X233509688Y-130571134D01*
X233662500Y-130475116D01*
X233790116Y-130347500D01*
X233886134Y-130194688D01*
X233945741Y-130024340D01*
X233965948Y-129845000D01*
X233945741Y-129665660D01*
X233886134Y-129495312D01*
X233871280Y-129471672D01*
X233790116Y-129342499D01*
X233662500Y-129214883D01*
X233509690Y-129118867D01*
X233509688Y-129118866D01*
X233482798Y-129109457D01*
X233339340Y-129059259D01*
X233222041Y-129046042D01*
X233204980Y-129044120D01*
X233204979Y-129044120D01*
X233115021Y-129044120D01*
X233115020Y-129044120D01*
X233095476Y-129046322D01*
X232980660Y-129059259D01*
X232980657Y-129059259D01*
X232980657Y-129059260D01*
X232810311Y-129118866D01*
X232810309Y-129118867D01*
X232657499Y-129214883D01*
X232529883Y-129342499D01*
X232433867Y-129495309D01*
X232433866Y-129495311D01*
X232382681Y-129641591D01*
X232374259Y-129665660D01*
X232354052Y-129845000D01*
X221814202Y-129845000D01*
X221803661Y-127345000D01*
X232354052Y-127345000D01*
X232374259Y-127524340D01*
X232374260Y-127524342D01*
X232433866Y-127694688D01*
X232433867Y-127694690D01*
X232529883Y-127847500D01*
X232657499Y-127975116D01*
X232786672Y-128056280D01*
X232810312Y-128071134D01*
X232980660Y-128130741D01*
X233106489Y-128144918D01*
X233115020Y-128145880D01*
X233115021Y-128145880D01*
X233204980Y-128145880D01*
X233213001Y-128144976D01*
X233339340Y-128130741D01*
X233509688Y-128071134D01*
X233662500Y-127975116D01*
X233790116Y-127847500D01*
X233886134Y-127694688D01*
X233945741Y-127524340D01*
X233965948Y-127345000D01*
X233945741Y-127165660D01*
X233886134Y-126995312D01*
X233792129Y-126845703D01*
X233790116Y-126842499D01*
X233662500Y-126714883D01*
X233509690Y-126618867D01*
X233509688Y-126618866D01*
X233486368Y-126610706D01*
X233339340Y-126559259D01*
X233222041Y-126546042D01*
X233204980Y-126544120D01*
X233204979Y-126544120D01*
X233115021Y-126544120D01*
X233115020Y-126544120D01*
X233095476Y-126546322D01*
X232980660Y-126559259D01*
X232980657Y-126559259D01*
X232980657Y-126559260D01*
X232810311Y-126618866D01*
X232810309Y-126618867D01*
X232657499Y-126714883D01*
X232529883Y-126842499D01*
X232433867Y-126995309D01*
X232433866Y-126995311D01*
X232396677Y-127101593D01*
X232374259Y-127165660D01*
X232354052Y-127345000D01*
X221803661Y-127345000D01*
X221795228Y-125345000D01*
X232354052Y-125345000D01*
X232374259Y-125524340D01*
X232391635Y-125573998D01*
X232433866Y-125694688D01*
X232433867Y-125694690D01*
X232529883Y-125847500D01*
X232657499Y-125975116D01*
X232786672Y-126056280D01*
X232810312Y-126071134D01*
X232980660Y-126130741D01*
X233106489Y-126144918D01*
X233115020Y-126145880D01*
X233115021Y-126145880D01*
X233204980Y-126145880D01*
X233213001Y-126144976D01*
X233339340Y-126130741D01*
X233509688Y-126071134D01*
X233662500Y-125975116D01*
X233790116Y-125847500D01*
X233886134Y-125694688D01*
X233945741Y-125524340D01*
X233965948Y-125345000D01*
X233945741Y-125165660D01*
X233886134Y-124995312D01*
X233830159Y-124906228D01*
X233790116Y-124842499D01*
X233662500Y-124714883D01*
X233509690Y-124618867D01*
X233509688Y-124618866D01*
X233503186Y-124616591D01*
X233339340Y-124559259D01*
X233222041Y-124546042D01*
X233204980Y-124544120D01*
X233204979Y-124544120D01*
X233115021Y-124544120D01*
X233115020Y-124544120D01*
X233095476Y-124546322D01*
X232980660Y-124559259D01*
X232980657Y-124559259D01*
X232980657Y-124559260D01*
X232810311Y-124618866D01*
X232810309Y-124618867D01*
X232657499Y-124714883D01*
X232529883Y-124842499D01*
X232433867Y-124995309D01*
X232433866Y-124995311D01*
X232402133Y-125085999D01*
X232374259Y-125165660D01*
X232354052Y-125345000D01*
X221795228Y-125345000D01*
X221784687Y-122845000D01*
X232354052Y-122845000D01*
X232374259Y-123024340D01*
X232411510Y-123130798D01*
X232433866Y-123194688D01*
X232433867Y-123194690D01*
X232529883Y-123347500D01*
X232657499Y-123475116D01*
X232786672Y-123556280D01*
X232810312Y-123571134D01*
X232980660Y-123630741D01*
X233106489Y-123644918D01*
X233115020Y-123645880D01*
X233115021Y-123645880D01*
X233204980Y-123645880D01*
X233213001Y-123644976D01*
X233339340Y-123630741D01*
X233509688Y-123571134D01*
X233662500Y-123475116D01*
X233790116Y-123347500D01*
X233886134Y-123194688D01*
X233945741Y-123024340D01*
X233965948Y-122845000D01*
X233945741Y-122665660D01*
X233886134Y-122495312D01*
X233869728Y-122469202D01*
X233790116Y-122342499D01*
X233662500Y-122214883D01*
X233509690Y-122118867D01*
X233509688Y-122118866D01*
X233499485Y-122115296D01*
X233339340Y-122059259D01*
X233222041Y-122046042D01*
X233204980Y-122044120D01*
X233204979Y-122044120D01*
X233115021Y-122044120D01*
X233115020Y-122044120D01*
X233095476Y-122046322D01*
X232980660Y-122059259D01*
X232980657Y-122059259D01*
X232980657Y-122059260D01*
X232810311Y-122118866D01*
X232810309Y-122118867D01*
X232657499Y-122214883D01*
X232529883Y-122342499D01*
X232433867Y-122495309D01*
X232433866Y-122495311D01*
X232400679Y-122590156D01*
X232374259Y-122665660D01*
X232354052Y-122845000D01*
X221784687Y-122845000D01*
X221772249Y-119895243D01*
X228998880Y-119895243D01*
X229018033Y-120010019D01*
X229038462Y-120132447D01*
X229038464Y-120132454D01*
X229116547Y-120359901D01*
X229116549Y-120359906D01*
X229150146Y-120421987D01*
X229231009Y-120571409D01*
X229378723Y-120761191D01*
X229547594Y-120916647D01*
X229555649Y-120924062D01*
X229756976Y-121055596D01*
X229977207Y-121152198D01*
X229977208Y-121152198D01*
X229977210Y-121152199D01*
X230210327Y-121211232D01*
X230210335Y-121211234D01*
X230389984Y-121226120D01*
X230389990Y-121226120D01*
X230510010Y-121226120D01*
X230510016Y-121226120D01*
X230689665Y-121211234D01*
X230922793Y-121152198D01*
X231143024Y-121055596D01*
X231344351Y-120924062D01*
X231453459Y-120823621D01*
X231521276Y-120761191D01*
X231521277Y-120761189D01*
X231521282Y-120761185D01*
X231668992Y-120571407D01*
X231783451Y-120359906D01*
X231861537Y-120132450D01*
X231901120Y-119895243D01*
X231901120Y-119654757D01*
X231861537Y-119417550D01*
X231797151Y-119230000D01*
X237866729Y-119230000D01*
X237887366Y-119386760D01*
X237925577Y-119479008D01*
X237947875Y-119532841D01*
X238044129Y-119658282D01*
X238169570Y-119754536D01*
X238315649Y-119815044D01*
X238472411Y-119835682D01*
X238629173Y-119815044D01*
X238775252Y-119754536D01*
X238900693Y-119658282D01*
X238996947Y-119532841D01*
X239057455Y-119386762D01*
X239078093Y-119230000D01*
X239057455Y-119073238D01*
X238996947Y-118927159D01*
X238900693Y-118801718D01*
X238775252Y-118705464D01*
X238734793Y-118688705D01*
X238629171Y-118644955D01*
X238472411Y-118624318D01*
X238315650Y-118644955D01*
X238169571Y-118705463D01*
X238169568Y-118705465D01*
X238044129Y-118801718D01*
X237947876Y-118927157D01*
X237947874Y-118927160D01*
X237887366Y-119073239D01*
X237866729Y-119229999D01*
X237866729Y-119230000D01*
X231797151Y-119230000D01*
X231783451Y-119190094D01*
X231668992Y-118978593D01*
X231663011Y-118970909D01*
X231585692Y-118871569D01*
X231521282Y-118788815D01*
X231521280Y-118788813D01*
X231521276Y-118788808D01*
X231344357Y-118625943D01*
X231344355Y-118625941D01*
X231344351Y-118625938D01*
X231143024Y-118494404D01*
X231143021Y-118494402D01*
X231143020Y-118494402D01*
X230922796Y-118397803D01*
X230922789Y-118397800D01*
X230689672Y-118338767D01*
X230689667Y-118338766D01*
X230689665Y-118338766D01*
X230576818Y-118329415D01*
X230510019Y-118323880D01*
X230510016Y-118323880D01*
X230389984Y-118323880D01*
X230389980Y-118323880D01*
X230300914Y-118331260D01*
X230210335Y-118338766D01*
X230210333Y-118338766D01*
X230210327Y-118338767D01*
X229977210Y-118397800D01*
X229977203Y-118397803D01*
X229756979Y-118494402D01*
X229756976Y-118494404D01*
X229555649Y-118625938D01*
X229555647Y-118625939D01*
X229555642Y-118625943D01*
X229378723Y-118788808D01*
X229231009Y-118978590D01*
X229116547Y-119190098D01*
X229038464Y-119417545D01*
X229038462Y-119417552D01*
X229022941Y-119510568D01*
X228998880Y-119654757D01*
X228998880Y-119895243D01*
X221772249Y-119895243D01*
X221769629Y-119273750D01*
X226430568Y-119273750D01*
X226451205Y-119430510D01*
X226493593Y-119532842D01*
X226511714Y-119576591D01*
X226607968Y-119702032D01*
X226733409Y-119798286D01*
X226879488Y-119858794D01*
X227036250Y-119879432D01*
X227193012Y-119858794D01*
X227339091Y-119798286D01*
X227464532Y-119702032D01*
X227560786Y-119576591D01*
X227621294Y-119430512D01*
X227641932Y-119273750D01*
X227621294Y-119116988D01*
X227560786Y-118970909D01*
X227464532Y-118845468D01*
X227339091Y-118749214D01*
X227233470Y-118705464D01*
X227193010Y-118688705D01*
X227036250Y-118668068D01*
X226879489Y-118688705D01*
X226733410Y-118749213D01*
X226733407Y-118749215D01*
X226607968Y-118845468D01*
X226511715Y-118970907D01*
X226511713Y-118970910D01*
X226451205Y-119116989D01*
X226430568Y-119273749D01*
X226430568Y-119273750D01*
X221769629Y-119273750D01*
X221760000Y-116990000D01*
X221759999Y-116989999D01*
X219270145Y-116971110D01*
X219202178Y-116950592D01*
X219156094Y-116896585D01*
X219153819Y-116891168D01*
X219106653Y-116770992D01*
X219066187Y-116720249D01*
X219021532Y-116664252D01*
X218930482Y-116602175D01*
X218908726Y-116587342D01*
X218908725Y-116587341D01*
X218908724Y-116587341D01*
X218827645Y-116562332D01*
X218778264Y-116547100D01*
X218676057Y-116547100D01*
X218574997Y-116562332D01*
X218574995Y-116562332D01*
X218574994Y-116562333D01*
X218451990Y-116621568D01*
X218351908Y-116714432D01*
X218283644Y-116832669D01*
X218283642Y-116832673D01*
X218281586Y-116841682D01*
X218246924Y-116903642D01*
X218184267Y-116937027D01*
X218113507Y-116931236D01*
X218057110Y-116888109D01*
X218041458Y-116859674D01*
X218006653Y-116770992D01*
X217978916Y-116736211D01*
X217921532Y-116664252D01*
X217830482Y-116602175D01*
X217808726Y-116587342D01*
X217808725Y-116587341D01*
X217808724Y-116587341D01*
X217727645Y-116562332D01*
X217678264Y-116547100D01*
X217576057Y-116547100D01*
X217474997Y-116562332D01*
X217474995Y-116562332D01*
X217474994Y-116562333D01*
X217351990Y-116621568D01*
X217251908Y-116714432D01*
X217183643Y-116832669D01*
X217178239Y-116856347D01*
X217143578Y-116918307D01*
X217080921Y-116951693D01*
X217054443Y-116954301D01*
X217038501Y-116954180D01*
X216970534Y-116933662D01*
X216924449Y-116879655D01*
X216922167Y-116874218D01*
X216916845Y-116860658D01*
X216881653Y-116770992D01*
X216841187Y-116720249D01*
X216796532Y-116664252D01*
X216705482Y-116602175D01*
X216683726Y-116587342D01*
X216683725Y-116587341D01*
X216683724Y-116587341D01*
X216602645Y-116562332D01*
X216553264Y-116547100D01*
X216451057Y-116547100D01*
X216349997Y-116562332D01*
X216349995Y-116562332D01*
X216349994Y-116562333D01*
X216226990Y-116621568D01*
X216126908Y-116714432D01*
X216058644Y-116832669D01*
X216058643Y-116832670D01*
X216055184Y-116847827D01*
X216020523Y-116909788D01*
X215957866Y-116943174D01*
X215931388Y-116945782D01*
X213809838Y-116929688D01*
X213741871Y-116909170D01*
X213695787Y-116855163D01*
X213686216Y-116784815D01*
X213694382Y-116755482D01*
X213721294Y-116690512D01*
X213741932Y-116533750D01*
X213741931Y-116533746D01*
X213728717Y-116433370D01*
X213721294Y-116376988D01*
X213660786Y-116230909D01*
X213564532Y-116105468D01*
X213466180Y-116030000D01*
X221404318Y-116030000D01*
X221424955Y-116186760D01*
X221463535Y-116279899D01*
X221485464Y-116332841D01*
X221581718Y-116458282D01*
X221707159Y-116554536D01*
X221853238Y-116615044D01*
X221906984Y-116622119D01*
X221971910Y-116650840D01*
X222011003Y-116710105D01*
X222013210Y-116720249D01*
X222014954Y-116726757D01*
X222014955Y-116726761D01*
X222014956Y-116726762D01*
X222025996Y-116753414D01*
X222070417Y-116860658D01*
X222075464Y-116872841D01*
X222171718Y-116998282D01*
X222297159Y-117094536D01*
X222443238Y-117155044D01*
X222600000Y-117175682D01*
X222756762Y-117155044D01*
X222902841Y-117094536D01*
X223028282Y-116998282D01*
X223124536Y-116872841D01*
X223181130Y-116736211D01*
X231228107Y-116736211D01*
X231248744Y-116892971D01*
X231306786Y-117033095D01*
X231309253Y-117039052D01*
X231405507Y-117164493D01*
X231530948Y-117260747D01*
X231677027Y-117321255D01*
X231833789Y-117341893D01*
X231990551Y-117321255D01*
X232136630Y-117260747D01*
X232262071Y-117164493D01*
X232358325Y-117039052D01*
X232358328Y-117039043D01*
X232362452Y-117031902D01*
X232364519Y-117033095D01*
X232401384Y-116987335D01*
X232468744Y-116964904D01*
X232537538Y-116982451D01*
X232572489Y-117017813D01*
X232574477Y-117016289D01*
X232579503Y-117022839D01*
X232579504Y-117022841D01*
X232675758Y-117148282D01*
X232801199Y-117244536D01*
X232947278Y-117305044D01*
X233104040Y-117325682D01*
X233260802Y-117305044D01*
X233406881Y-117244536D01*
X233532322Y-117148282D01*
X233628576Y-117022841D01*
X233689084Y-116876762D01*
X233709722Y-116720000D01*
X233689084Y-116563238D01*
X233628576Y-116417159D01*
X233532322Y-116291718D01*
X233406881Y-116195464D01*
X233260802Y-116134956D01*
X233246434Y-116133064D01*
X233224634Y-116130194D01*
X233159707Y-116101470D01*
X233120616Y-116042205D01*
X233116160Y-116021715D01*
X233115044Y-116013240D01*
X233115044Y-116013238D01*
X233054536Y-115867159D01*
X232958282Y-115741718D01*
X232832841Y-115645464D01*
X232686762Y-115584956D01*
X232686760Y-115584955D01*
X232530000Y-115564318D01*
X232373239Y-115584955D01*
X232227160Y-115645463D01*
X232227157Y-115645465D01*
X232101718Y-115741718D01*
X232005465Y-115867157D01*
X232005463Y-115867160D01*
X231944956Y-116013238D01*
X231943822Y-116021851D01*
X231915097Y-116086777D01*
X231855831Y-116125867D01*
X231835347Y-116130323D01*
X231677028Y-116151166D01*
X231530949Y-116211674D01*
X231530946Y-116211676D01*
X231405507Y-116307929D01*
X231309254Y-116433368D01*
X231309252Y-116433371D01*
X231248744Y-116579450D01*
X231228107Y-116736210D01*
X231228107Y-116736211D01*
X223181130Y-116736211D01*
X223185044Y-116726762D01*
X223205682Y-116570000D01*
X223204672Y-116562332D01*
X223194706Y-116486632D01*
X223185044Y-116413238D01*
X223124536Y-116267159D01*
X223028282Y-116141718D01*
X222902841Y-116045464D01*
X222900726Y-116044588D01*
X222877776Y-116035081D01*
X222756762Y-115984956D01*
X222742317Y-115983054D01*
X222703013Y-115977879D01*
X222638086Y-115949155D01*
X222598995Y-115889889D01*
X222596793Y-115879768D01*
X222595044Y-115873245D01*
X222595044Y-115873238D01*
X222534536Y-115727159D01*
X222438282Y-115601718D01*
X222312841Y-115505464D01*
X222300896Y-115500516D01*
X222166760Y-115444955D01*
X222010000Y-115424318D01*
X221853239Y-115444955D01*
X221707160Y-115505463D01*
X221707157Y-115505465D01*
X221581718Y-115601718D01*
X221485465Y-115727157D01*
X221485463Y-115727160D01*
X221424955Y-115873239D01*
X221404318Y-116029999D01*
X221404318Y-116030000D01*
X213466180Y-116030000D01*
X213439091Y-116009214D01*
X213439088Y-116009212D01*
X213431941Y-116005087D01*
X213433110Y-116003061D01*
X213387214Y-115966061D01*
X213364805Y-115898694D01*
X213365804Y-115877772D01*
X213366401Y-115873238D01*
X213369248Y-115851617D01*
X213348610Y-115694855D01*
X213288102Y-115548776D01*
X213191848Y-115423335D01*
X213066407Y-115327081D01*
X212920328Y-115266573D01*
X212920326Y-115266572D01*
X212763566Y-115245935D01*
X212606805Y-115266572D01*
X212460726Y-115327080D01*
X212460723Y-115327082D01*
X212335284Y-115423335D01*
X212239031Y-115548774D01*
X212239029Y-115548777D01*
X212178521Y-115694856D01*
X212157884Y-115851616D01*
X212157884Y-115851617D01*
X212178521Y-116008377D01*
X212228980Y-116130194D01*
X212239030Y-116154458D01*
X212335284Y-116279899D01*
X212460725Y-116376153D01*
X212460726Y-116376153D01*
X212460731Y-116376157D01*
X212467880Y-116380285D01*
X212466706Y-116382316D01*
X212512578Y-116419271D01*
X212535008Y-116486632D01*
X212534011Y-116507590D01*
X212530568Y-116533746D01*
X212530568Y-116533750D01*
X212548253Y-116668084D01*
X212537314Y-116738233D01*
X212490185Y-116791331D01*
X212439778Y-116809452D01*
X212369489Y-116818705D01*
X212223410Y-116879213D01*
X212223399Y-116879220D01*
X212208155Y-116890917D01*
X212141934Y-116916515D01*
X212130499Y-116916948D01*
X207260000Y-116880000D01*
X207260000Y-137759563D01*
X207239998Y-137827684D01*
X207186342Y-137874177D01*
X207116068Y-137884281D01*
X207085785Y-137875972D01*
X206986762Y-137834956D01*
X206986760Y-137834955D01*
X206830000Y-137814318D01*
X206673239Y-137834955D01*
X206527160Y-137895463D01*
X206527157Y-137895465D01*
X206401718Y-137991718D01*
X206305465Y-138117157D01*
X206305463Y-138117160D01*
X206244956Y-138263238D01*
X206238744Y-138310418D01*
X206210020Y-138375344D01*
X206150754Y-138414435D01*
X206112720Y-138419964D01*
X200524636Y-138371090D01*
X200456693Y-138350493D01*
X200410671Y-138296433D01*
X200399738Y-138245359D01*
X200376930Y-127380003D01*
X200984417Y-127380003D01*
X201004698Y-127585927D01*
X201064768Y-127783954D01*
X201112559Y-127873365D01*
X201162315Y-127966450D01*
X201293590Y-128126410D01*
X201453550Y-128257685D01*
X201636046Y-128355232D01*
X201834066Y-128415300D01*
X201834070Y-128415300D01*
X201834072Y-128415301D01*
X202039997Y-128435583D01*
X202040000Y-128435583D01*
X202040003Y-128435583D01*
X202245927Y-128415301D01*
X202245928Y-128415300D01*
X202245934Y-128415300D01*
X202443954Y-128355232D01*
X202626450Y-128257685D01*
X202786410Y-128126410D01*
X202917685Y-127966450D01*
X203015232Y-127783954D01*
X203075300Y-127585934D01*
X203081367Y-127524342D01*
X203095583Y-127380003D01*
X203095583Y-127379996D01*
X203075301Y-127174072D01*
X203075300Y-127174070D01*
X203075300Y-127174066D01*
X203015232Y-126976046D01*
X202917685Y-126793550D01*
X202786410Y-126633590D01*
X202626450Y-126502315D01*
X202626448Y-126502314D01*
X202626447Y-126502313D01*
X202443954Y-126404768D01*
X202245934Y-126344700D01*
X202245933Y-126344699D01*
X202245927Y-126344698D01*
X202040003Y-126324417D01*
X202039997Y-126324417D01*
X201834072Y-126344698D01*
X201636045Y-126404768D01*
X201453552Y-126502313D01*
X201293590Y-126633590D01*
X201162313Y-126793552D01*
X201064768Y-126976045D01*
X201004698Y-127174072D01*
X200984417Y-127379996D01*
X200984417Y-127380003D01*
X200376930Y-127380003D01*
X200363078Y-120781198D01*
X201348011Y-120781198D01*
X201408597Y-120823621D01*
X201608092Y-120916647D01*
X201608096Y-120916649D01*
X201820712Y-120973619D01*
X202040000Y-120992804D01*
X202259287Y-120973619D01*
X202471903Y-120916649D01*
X202471907Y-120916647D01*
X202671399Y-120823622D01*
X202731987Y-120781197D01*
X202731987Y-120781196D01*
X202040001Y-120089210D01*
X202040000Y-120089210D01*
X201348011Y-120781197D01*
X201348011Y-120781198D01*
X200363078Y-120781198D01*
X200360871Y-119730000D01*
X200777195Y-119730000D01*
X200796380Y-119949287D01*
X200853350Y-120161903D01*
X200853352Y-120161907D01*
X200946379Y-120361403D01*
X200988800Y-120421987D01*
X201651487Y-119759302D01*
X201686372Y-119759302D01*
X201715047Y-119872538D01*
X201778936Y-119970327D01*
X201871115Y-120042072D01*
X201981595Y-120080000D01*
X202069005Y-120080000D01*
X202155216Y-120065614D01*
X202257947Y-120010019D01*
X202337060Y-119924079D01*
X202383982Y-119817108D01*
X202391200Y-119730001D01*
X202399210Y-119730001D01*
X203091196Y-120421987D01*
X203091197Y-120421987D01*
X203133622Y-120361399D01*
X203226647Y-120161907D01*
X203226649Y-120161903D01*
X203283619Y-119949287D01*
X203302804Y-119730000D01*
X203283619Y-119510712D01*
X203226649Y-119298096D01*
X203226647Y-119298092D01*
X203133619Y-119098594D01*
X203091199Y-119038011D01*
X203091197Y-119038011D01*
X202399210Y-119729999D01*
X202399210Y-119730001D01*
X202391200Y-119730001D01*
X202393628Y-119700698D01*
X202364953Y-119587462D01*
X202301064Y-119489673D01*
X202208885Y-119417928D01*
X202098405Y-119380000D01*
X202010995Y-119380000D01*
X201924784Y-119394386D01*
X201822053Y-119449981D01*
X201742940Y-119535921D01*
X201696018Y-119642892D01*
X201686372Y-119759302D01*
X201651487Y-119759302D01*
X201680790Y-119729999D01*
X200988801Y-119038010D01*
X200946378Y-119098598D01*
X200853352Y-119298092D01*
X200853350Y-119298096D01*
X200796380Y-119510712D01*
X200777195Y-119730000D01*
X200360871Y-119730000D01*
X200358664Y-118678801D01*
X201348010Y-118678801D01*
X202039999Y-119370790D01*
X202040000Y-119370790D01*
X202731987Y-118678800D01*
X202671403Y-118636379D01*
X202471907Y-118543352D01*
X202471903Y-118543350D01*
X202259287Y-118486380D01*
X202040000Y-118467195D01*
X201820712Y-118486380D01*
X201608096Y-118543350D01*
X201608092Y-118543352D01*
X201408598Y-118636378D01*
X201348010Y-118678801D01*
X200358664Y-118678801D01*
X200354918Y-116894262D01*
X200374777Y-116826102D01*
X200418088Y-116788412D01*
X200438500Y-116768001D01*
X200438500Y-116060000D01*
X200946500Y-116060000D01*
X200946500Y-116768000D01*
X201142009Y-116768000D01*
X201142026Y-116767999D01*
X201290094Y-116753416D01*
X201290106Y-116753414D01*
X201480099Y-116695780D01*
X201480114Y-116695774D01*
X201655224Y-116602175D01*
X201808711Y-116476211D01*
X201934675Y-116322724D01*
X202028275Y-116147612D01*
X202028276Y-116147610D01*
X202068807Y-116014000D01*
X201252151Y-116014000D01*
X201298110Y-115985543D01*
X201365701Y-115896038D01*
X201396395Y-115788160D01*
X201386046Y-115676479D01*
X201336052Y-115576078D01*
X201259182Y-115506000D01*
X202068807Y-115506000D01*
X202068807Y-115505999D01*
X203346192Y-115505999D01*
X203346193Y-115506000D01*
X204162849Y-115506000D01*
X204116890Y-115534457D01*
X204049299Y-115623962D01*
X204018605Y-115731840D01*
X204028954Y-115843521D01*
X204078948Y-115943922D01*
X204155818Y-116014000D01*
X203346193Y-116014000D01*
X203386723Y-116147610D01*
X203386724Y-116147612D01*
X203480324Y-116322724D01*
X203606288Y-116476211D01*
X203759775Y-116602175D01*
X203934885Y-116695774D01*
X203934900Y-116695780D01*
X204124893Y-116753414D01*
X204124905Y-116753416D01*
X204272973Y-116767999D01*
X204272991Y-116768000D01*
X204618500Y-116768000D01*
X204618500Y-116060000D01*
X205126500Y-116060000D01*
X205126500Y-116768000D01*
X205472009Y-116768000D01*
X205472026Y-116767999D01*
X205620094Y-116753416D01*
X205620106Y-116753414D01*
X205810099Y-116695780D01*
X205810114Y-116695774D01*
X205985224Y-116602175D01*
X206138711Y-116476211D01*
X206264675Y-116322724D01*
X206358275Y-116147612D01*
X206358276Y-116147610D01*
X206398807Y-116014000D01*
X205582151Y-116014000D01*
X205628110Y-115985543D01*
X205695701Y-115896038D01*
X205726395Y-115788160D01*
X205716046Y-115676479D01*
X205666052Y-115576078D01*
X205589182Y-115506000D01*
X206398807Y-115506000D01*
X206398807Y-115505999D01*
X206358276Y-115372389D01*
X206358275Y-115372387D01*
X206264675Y-115197275D01*
X206138711Y-115043788D01*
X205985224Y-114917824D01*
X205810114Y-114824225D01*
X205810099Y-114824219D01*
X205620106Y-114766585D01*
X205620094Y-114766583D01*
X205472026Y-114752000D01*
X205126500Y-114752000D01*
X205126500Y-115460000D01*
X204618500Y-115460000D01*
X204618500Y-114752000D01*
X204272973Y-114752000D01*
X204124905Y-114766583D01*
X204124893Y-114766585D01*
X203934900Y-114824219D01*
X203934885Y-114824225D01*
X203759775Y-114917824D01*
X203606288Y-115043788D01*
X203480324Y-115197275D01*
X203386724Y-115372387D01*
X203386723Y-115372389D01*
X203346192Y-115505999D01*
X202068807Y-115505999D01*
X202028276Y-115372389D01*
X202028275Y-115372387D01*
X201934675Y-115197275D01*
X201808711Y-115043788D01*
X201655224Y-114917824D01*
X201480114Y-114824225D01*
X201480099Y-114824219D01*
X201290106Y-114766585D01*
X201290094Y-114766583D01*
X201142026Y-114752000D01*
X200946500Y-114752000D01*
X200946500Y-115460000D01*
X200438500Y-115460000D01*
X200438500Y-114751999D01*
X200422848Y-114736347D01*
X200408036Y-114731998D01*
X200361543Y-114678342D01*
X200350157Y-114626264D01*
X200350057Y-114578794D01*
X200349333Y-114233750D01*
X209950568Y-114233750D01*
X209971205Y-114390510D01*
X210026019Y-114522841D01*
X210031714Y-114536591D01*
X210127968Y-114662032D01*
X210253409Y-114758286D01*
X210399488Y-114818794D01*
X210556250Y-114839432D01*
X210713012Y-114818794D01*
X210859091Y-114758286D01*
X210984532Y-114662032D01*
X211080786Y-114536591D01*
X211141294Y-114390512D01*
X211161932Y-114233750D01*
X211141294Y-114076988D01*
X211106816Y-113993750D01*
X213380568Y-113993750D01*
X213401205Y-114150510D01*
X213429989Y-114219999D01*
X213461714Y-114296591D01*
X213557968Y-114422032D01*
X213683409Y-114518286D01*
X213829488Y-114578794D01*
X213986250Y-114599432D01*
X214143012Y-114578794D01*
X214289091Y-114518286D01*
X214414532Y-114422032D01*
X214510786Y-114296591D01*
X214542511Y-114220000D01*
X234824318Y-114220000D01*
X234844955Y-114376760D01*
X234857382Y-114406760D01*
X234905464Y-114522841D01*
X235001718Y-114648282D01*
X235127159Y-114744536D01*
X235273238Y-114805044D01*
X235430000Y-114825682D01*
X235586762Y-114805044D01*
X235732841Y-114744536D01*
X235743293Y-114736515D01*
X235809511Y-114710912D01*
X235879061Y-114725174D01*
X235896703Y-114736512D01*
X235907159Y-114744536D01*
X236053238Y-114805044D01*
X236210000Y-114825682D01*
X236366762Y-114805044D01*
X236512841Y-114744536D01*
X236548748Y-114716983D01*
X236614966Y-114691383D01*
X236684515Y-114705647D01*
X236702150Y-114716980D01*
X236777159Y-114774536D01*
X236923238Y-114835044D01*
X237080000Y-114855682D01*
X237236762Y-114835044D01*
X237382841Y-114774536D01*
X237508282Y-114678282D01*
X237604536Y-114552841D01*
X237665044Y-114406762D01*
X237685682Y-114250000D01*
X237681732Y-114220000D01*
X237665044Y-114093239D01*
X237664168Y-114091122D01*
X237604536Y-113947159D01*
X237508282Y-113821718D01*
X237382841Y-113725464D01*
X237377738Y-113723350D01*
X237236760Y-113664955D01*
X237080000Y-113644318D01*
X236923239Y-113664955D01*
X236777160Y-113725463D01*
X236777157Y-113725465D01*
X236741251Y-113753017D01*
X236675030Y-113778616D01*
X236605481Y-113764350D01*
X236587844Y-113753016D01*
X236554833Y-113727686D01*
X236512841Y-113695464D01*
X236501845Y-113690909D01*
X236366760Y-113634955D01*
X236210000Y-113614318D01*
X236053239Y-113634955D01*
X235907160Y-113695463D01*
X235907149Y-113695470D01*
X235896700Y-113703488D01*
X235830479Y-113729086D01*
X235760931Y-113714819D01*
X235743300Y-113703488D01*
X235732850Y-113695470D01*
X235732839Y-113695463D01*
X235586760Y-113634955D01*
X235430000Y-113614318D01*
X235273239Y-113634955D01*
X235127160Y-113695463D01*
X235127157Y-113695465D01*
X235001718Y-113791718D01*
X234905465Y-113917157D01*
X234905463Y-113917160D01*
X234844955Y-114063239D01*
X234824318Y-114219999D01*
X234824318Y-114220000D01*
X214542511Y-114220000D01*
X214571294Y-114150512D01*
X214591932Y-113993750D01*
X214571294Y-113836988D01*
X214510786Y-113690909D01*
X214414532Y-113565468D01*
X214289091Y-113469214D01*
X214273706Y-113462841D01*
X214143010Y-113408705D01*
X213986250Y-113388068D01*
X213829489Y-113408705D01*
X213683410Y-113469213D01*
X213683407Y-113469215D01*
X213557968Y-113565468D01*
X213461715Y-113690907D01*
X213461713Y-113690910D01*
X213401205Y-113836989D01*
X213380568Y-113993749D01*
X213380568Y-113993750D01*
X211106816Y-113993750D01*
X211080786Y-113930909D01*
X210984532Y-113805468D01*
X210859091Y-113709214D01*
X210774800Y-113674299D01*
X210719521Y-113629753D01*
X210697100Y-113562389D01*
X210714658Y-113493598D01*
X210766620Y-113445220D01*
X210774778Y-113441493D01*
X210879091Y-113398286D01*
X211004532Y-113302032D01*
X211100786Y-113176591D01*
X211161294Y-113030512D01*
X211181932Y-112873750D01*
X211173965Y-112813238D01*
X211166071Y-112753275D01*
X211161294Y-112716988D01*
X211100786Y-112570909D01*
X211069396Y-112530000D01*
X214924318Y-112530000D01*
X214944955Y-112686760D01*
X215003110Y-112827157D01*
X215005464Y-112832841D01*
X215101718Y-112958282D01*
X215227159Y-113054536D01*
X215306178Y-113087266D01*
X215361457Y-113131813D01*
X215383878Y-113199176D01*
X215369919Y-113255284D01*
X215371929Y-113256117D01*
X215368769Y-113263745D01*
X215368768Y-113263747D01*
X215341229Y-113330231D01*
X215308259Y-113409827D01*
X215287622Y-113566587D01*
X215287622Y-113566588D01*
X215308259Y-113723348D01*
X215350461Y-113825231D01*
X215368768Y-113869429D01*
X215465022Y-113994870D01*
X215590463Y-114091124D01*
X215736542Y-114151632D01*
X215893304Y-114172270D01*
X216050066Y-114151632D01*
X216196145Y-114091124D01*
X216321586Y-113994870D01*
X216417840Y-113869429D01*
X216478348Y-113723350D01*
X216497179Y-113580308D01*
X216525901Y-113515383D01*
X216585166Y-113476291D01*
X216656158Y-113475446D01*
X216716337Y-113513116D01*
X216722055Y-113520042D01*
X216774418Y-113588282D01*
X216899859Y-113684536D01*
X217045938Y-113745044D01*
X217202700Y-113765682D01*
X217359462Y-113745044D01*
X217505541Y-113684536D01*
X217630982Y-113588282D01*
X217727236Y-113462841D01*
X217787744Y-113316762D01*
X217808382Y-113160000D01*
X217806575Y-113146278D01*
X217798063Y-113081619D01*
X217787744Y-113003238D01*
X217773976Y-112970000D01*
X218314318Y-112970000D01*
X218334955Y-113126760D01*
X218388192Y-113255284D01*
X218395464Y-113272841D01*
X218491718Y-113398282D01*
X218617159Y-113494536D01*
X218763238Y-113555044D01*
X218920000Y-113575682D01*
X219076762Y-113555044D01*
X219222841Y-113494536D01*
X219348282Y-113398282D01*
X219444536Y-113272841D01*
X219503703Y-113130000D01*
X220924318Y-113130000D01*
X220944955Y-113286760D01*
X220995467Y-113408705D01*
X221005464Y-113432841D01*
X221101718Y-113558282D01*
X221227159Y-113654536D01*
X221373238Y-113715044D01*
X221530000Y-113735682D01*
X221686762Y-113715044D01*
X221832841Y-113654536D01*
X221958282Y-113558282D01*
X222054536Y-113432841D01*
X222115044Y-113286762D01*
X222135682Y-113130000D01*
X222135255Y-113126760D01*
X222122584Y-113030510D01*
X222115044Y-112973238D01*
X222054536Y-112827159D01*
X221958282Y-112701718D01*
X221832841Y-112605464D01*
X221749421Y-112570910D01*
X221686760Y-112544955D01*
X221530000Y-112524318D01*
X221373239Y-112544955D01*
X221227160Y-112605463D01*
X221227157Y-112605465D01*
X221101718Y-112701718D01*
X221005465Y-112827157D01*
X221005463Y-112827160D01*
X220944955Y-112973239D01*
X220924318Y-113129999D01*
X220924318Y-113130000D01*
X219503703Y-113130000D01*
X219505044Y-113126762D01*
X219525682Y-112970000D01*
X219525395Y-112967823D01*
X219515363Y-112891619D01*
X219505044Y-112813238D01*
X219444536Y-112667159D01*
X219348282Y-112541718D01*
X219222841Y-112445464D01*
X219129407Y-112406762D01*
X219076760Y-112384955D01*
X218920000Y-112364318D01*
X218763239Y-112384955D01*
X218617160Y-112445463D01*
X218617157Y-112445465D01*
X218491718Y-112541718D01*
X218395465Y-112667157D01*
X218395463Y-112667160D01*
X218334955Y-112813239D01*
X218314318Y-112969999D01*
X218314318Y-112970000D01*
X217773976Y-112970000D01*
X217727236Y-112857159D01*
X217693679Y-112813426D01*
X217668079Y-112747208D01*
X217682343Y-112677660D01*
X217693675Y-112660027D01*
X217714536Y-112632841D01*
X217775044Y-112486762D01*
X217795682Y-112330000D01*
X217790245Y-112288705D01*
X217785150Y-112250000D01*
X236784318Y-112250000D01*
X236804955Y-112406760D01*
X236862198Y-112544955D01*
X236865464Y-112552841D01*
X236961718Y-112678282D01*
X237087159Y-112774536D01*
X237233238Y-112835044D01*
X237390000Y-112855682D01*
X237433137Y-112850003D01*
X238714417Y-112850003D01*
X238734698Y-113055927D01*
X238734699Y-113055933D01*
X238734700Y-113055934D01*
X238780384Y-113206535D01*
X238794768Y-113253954D01*
X238890576Y-113433198D01*
X238892315Y-113436450D01*
X239023590Y-113596410D01*
X239183550Y-113727685D01*
X239366046Y-113825232D01*
X239564066Y-113885300D01*
X239564070Y-113885300D01*
X239564072Y-113885301D01*
X239769997Y-113905583D01*
X239770000Y-113905583D01*
X239770003Y-113905583D01*
X239975927Y-113885301D01*
X239975928Y-113885300D01*
X239975934Y-113885300D01*
X240173954Y-113825232D01*
X240356450Y-113727685D01*
X240516410Y-113596410D01*
X240647685Y-113436450D01*
X240745232Y-113253954D01*
X240805300Y-113055934D01*
X240806668Y-113042052D01*
X240825583Y-112850003D01*
X240825583Y-112849996D01*
X240805301Y-112644072D01*
X240805300Y-112644070D01*
X240805300Y-112644066D01*
X240745232Y-112446046D01*
X240647685Y-112263550D01*
X240516410Y-112103590D01*
X240356450Y-111972315D01*
X240356448Y-111972314D01*
X240356447Y-111972313D01*
X240173954Y-111874768D01*
X239975934Y-111814700D01*
X239975933Y-111814699D01*
X239975927Y-111814698D01*
X239770003Y-111794417D01*
X239769997Y-111794417D01*
X239564072Y-111814698D01*
X239366045Y-111874768D01*
X239183552Y-111972313D01*
X239023590Y-112103590D01*
X238892313Y-112263552D01*
X238794768Y-112446045D01*
X238734698Y-112644072D01*
X238714417Y-112849996D01*
X238714417Y-112850003D01*
X237433137Y-112850003D01*
X237546762Y-112835044D01*
X237692841Y-112774536D01*
X237818282Y-112678282D01*
X237914536Y-112552841D01*
X237975044Y-112406762D01*
X237995682Y-112250000D01*
X237975044Y-112093238D01*
X237914536Y-111947159D01*
X237818282Y-111821718D01*
X237692841Y-111725464D01*
X237690075Y-111724318D01*
X237546760Y-111664955D01*
X237390000Y-111644318D01*
X237233239Y-111664955D01*
X237087160Y-111725463D01*
X237087157Y-111725465D01*
X236961718Y-111821718D01*
X236865465Y-111947157D01*
X236865463Y-111947160D01*
X236804955Y-112093239D01*
X236784318Y-112249999D01*
X236784318Y-112250000D01*
X217785150Y-112250000D01*
X217782143Y-112227159D01*
X217775044Y-112173238D01*
X217714536Y-112027159D01*
X217618282Y-111901718D01*
X217492841Y-111805464D01*
X217466172Y-111794417D01*
X217346760Y-111744955D01*
X217190000Y-111724318D01*
X217033239Y-111744955D01*
X216887160Y-111805463D01*
X216887157Y-111805465D01*
X216761718Y-111901718D01*
X216665465Y-112027157D01*
X216665463Y-112027160D01*
X216604955Y-112173239D01*
X216584318Y-112329999D01*
X216584318Y-112330000D01*
X216604955Y-112486760D01*
X216665463Y-112632839D01*
X216665468Y-112632847D01*
X216699019Y-112676572D01*
X216724619Y-112742793D01*
X216710354Y-112812341D01*
X216699021Y-112829976D01*
X216678167Y-112857154D01*
X216678163Y-112857160D01*
X216617655Y-113003239D01*
X216598824Y-113146278D01*
X216570101Y-113211205D01*
X216510836Y-113250296D01*
X216439844Y-113251141D01*
X216379666Y-113213470D01*
X216373950Y-113206548D01*
X216321586Y-113138306D01*
X216196145Y-113042052D01*
X216117126Y-113009321D01*
X216061846Y-112964773D01*
X216039425Y-112897410D01*
X216053391Y-112841306D01*
X216051375Y-112840471D01*
X216054534Y-112832842D01*
X216054536Y-112832841D01*
X216115044Y-112686762D01*
X216135682Y-112530000D01*
X216115044Y-112373238D01*
X216054536Y-112227159D01*
X215958282Y-112101718D01*
X215832841Y-112005464D01*
X215752813Y-111972315D01*
X215686760Y-111944955D01*
X215530000Y-111924318D01*
X215373239Y-111944955D01*
X215227160Y-112005463D01*
X215227157Y-112005465D01*
X215101718Y-112101718D01*
X215005465Y-112227157D01*
X215005463Y-112227160D01*
X214944955Y-112373239D01*
X214924318Y-112529999D01*
X214924318Y-112530000D01*
X211069396Y-112530000D01*
X211004532Y-112445468D01*
X210879091Y-112349214D01*
X210832705Y-112330000D01*
X210733010Y-112288705D01*
X210576250Y-112268068D01*
X210419489Y-112288705D01*
X210273410Y-112349213D01*
X210273407Y-112349215D01*
X210147968Y-112445468D01*
X210051715Y-112570907D01*
X210051713Y-112570910D01*
X209991205Y-112716989D01*
X209970568Y-112873749D01*
X209970568Y-112873750D01*
X209991205Y-113030510D01*
X209995986Y-113042051D01*
X210051714Y-113176591D01*
X210147968Y-113302032D01*
X210273409Y-113398286D01*
X210357698Y-113433199D01*
X210412978Y-113477746D01*
X210435399Y-113545109D01*
X210417841Y-113613900D01*
X210365879Y-113662279D01*
X210357698Y-113666015D01*
X210253414Y-113709211D01*
X210253407Y-113709215D01*
X210127968Y-113805468D01*
X210031715Y-113930907D01*
X210031713Y-113930910D01*
X209971205Y-114076989D01*
X209950568Y-114233749D01*
X209950568Y-114233750D01*
X200349333Y-114233750D01*
X200341138Y-110330000D01*
X234214318Y-110330000D01*
X234234955Y-110486760D01*
X234234956Y-110486762D01*
X234295464Y-110632841D01*
X234391718Y-110758282D01*
X234517159Y-110854536D01*
X234663238Y-110915044D01*
X234820000Y-110935682D01*
X234976762Y-110915044D01*
X235122841Y-110854536D01*
X235248282Y-110758282D01*
X235344536Y-110632841D01*
X235405044Y-110486762D01*
X235425682Y-110330000D01*
X235405044Y-110173238D01*
X235344536Y-110027159D01*
X235248282Y-109901718D01*
X235122841Y-109805464D01*
X234976762Y-109744956D01*
X234976760Y-109744955D01*
X234820000Y-109724318D01*
X234663239Y-109744955D01*
X234517160Y-109805463D01*
X234517157Y-109805465D01*
X234391718Y-109901718D01*
X234295465Y-110027157D01*
X234295463Y-110027160D01*
X234234955Y-110173239D01*
X234214318Y-110329999D01*
X234214318Y-110330000D01*
X200341138Y-110330000D01*
X200337150Y-108430000D01*
X222674318Y-108430000D01*
X222694955Y-108586760D01*
X222694956Y-108586762D01*
X222755464Y-108732841D01*
X222851718Y-108858282D01*
X222977159Y-108954536D01*
X223123238Y-109015044D01*
X223280000Y-109035682D01*
X223436762Y-109015044D01*
X223582841Y-108954536D01*
X223708282Y-108858282D01*
X223804536Y-108732841D01*
X223865044Y-108586762D01*
X223885682Y-108430000D01*
X223882622Y-108406760D01*
X223865044Y-108273239D01*
X223857184Y-108254262D01*
X223855419Y-108250000D01*
X231054318Y-108250000D01*
X231074955Y-108406760D01*
X231084582Y-108430000D01*
X231135464Y-108552841D01*
X231231718Y-108678282D01*
X231357159Y-108774536D01*
X231503238Y-108835044D01*
X231660000Y-108855682D01*
X231816762Y-108835044D01*
X231962841Y-108774536D01*
X232088282Y-108678282D01*
X232184536Y-108552841D01*
X232245044Y-108406762D01*
X232265682Y-108250000D01*
X232245044Y-108093238D01*
X232184536Y-107947159D01*
X232088282Y-107821718D01*
X231962841Y-107725464D01*
X231816762Y-107664956D01*
X231816760Y-107664955D01*
X231660000Y-107644318D01*
X231503239Y-107664955D01*
X231357160Y-107725463D01*
X231357157Y-107725465D01*
X231231718Y-107821718D01*
X231135465Y-107947157D01*
X231135463Y-107947160D01*
X231074955Y-108093239D01*
X231054318Y-108249999D01*
X231054318Y-108250000D01*
X223855419Y-108250000D01*
X223804536Y-108127159D01*
X223708282Y-108001718D01*
X223582841Y-107905464D01*
X223436762Y-107844956D01*
X223436760Y-107844955D01*
X223280000Y-107824318D01*
X223123239Y-107844955D01*
X222977160Y-107905463D01*
X222977157Y-107905465D01*
X222851718Y-108001718D01*
X222755465Y-108127157D01*
X222755463Y-108127160D01*
X222694955Y-108273239D01*
X222674318Y-108429999D01*
X222674318Y-108430000D01*
X200337150Y-108430000D01*
X200336781Y-108254262D01*
X200356640Y-108186102D01*
X200410198Y-108139496D01*
X200431707Y-108134793D01*
X200438500Y-108128001D01*
X200438500Y-107420000D01*
X200946500Y-107420000D01*
X200946500Y-108128000D01*
X201142009Y-108128000D01*
X201142026Y-108127999D01*
X201290094Y-108113416D01*
X201290106Y-108113414D01*
X201480099Y-108055780D01*
X201480114Y-108055774D01*
X201655224Y-107962175D01*
X201808711Y-107836211D01*
X201934675Y-107682724D01*
X202028275Y-107507612D01*
X202028276Y-107507610D01*
X202068807Y-107374000D01*
X201252151Y-107374000D01*
X201298110Y-107345543D01*
X201365701Y-107256038D01*
X201396395Y-107148160D01*
X201386046Y-107036479D01*
X201336052Y-106936078D01*
X201259182Y-106866000D01*
X202068807Y-106866000D01*
X202068807Y-106865999D01*
X203346192Y-106865999D01*
X203346193Y-106866000D01*
X204162849Y-106866000D01*
X204116890Y-106894457D01*
X204049299Y-106983962D01*
X204018605Y-107091840D01*
X204028954Y-107203521D01*
X204078948Y-107303922D01*
X204155818Y-107374000D01*
X203346193Y-107374000D01*
X203386723Y-107507610D01*
X203386724Y-107507612D01*
X203480324Y-107682724D01*
X203606288Y-107836211D01*
X203759775Y-107962175D01*
X203934885Y-108055774D01*
X203934900Y-108055780D01*
X204124893Y-108113414D01*
X204124905Y-108113416D01*
X204272973Y-108127999D01*
X204272991Y-108128000D01*
X204618500Y-108128000D01*
X204618500Y-107420000D01*
X205126500Y-107420000D01*
X205126500Y-108128000D01*
X205472009Y-108128000D01*
X205472026Y-108127999D01*
X205620094Y-108113416D01*
X205620106Y-108113414D01*
X205810099Y-108055780D01*
X205810114Y-108055774D01*
X205985224Y-107962175D01*
X206138711Y-107836211D01*
X206264675Y-107682724D01*
X206358275Y-107507612D01*
X206358276Y-107507610D01*
X206398807Y-107374000D01*
X205582151Y-107374000D01*
X205628110Y-107345543D01*
X205695701Y-107256038D01*
X205726395Y-107148160D01*
X205716046Y-107036479D01*
X205666052Y-106936078D01*
X205589182Y-106866000D01*
X206398807Y-106866000D01*
X206398807Y-106865999D01*
X206358276Y-106732389D01*
X206358275Y-106732387D01*
X206264675Y-106557275D01*
X206138711Y-106403788D01*
X205985224Y-106277824D01*
X205810114Y-106184225D01*
X205810099Y-106184219D01*
X205620106Y-106126585D01*
X205620094Y-106126583D01*
X205472026Y-106112000D01*
X205126500Y-106112000D01*
X205126500Y-106820000D01*
X204618500Y-106820000D01*
X204618500Y-106112000D01*
X204272973Y-106112000D01*
X204124905Y-106126583D01*
X204124893Y-106126585D01*
X203934900Y-106184219D01*
X203934885Y-106184225D01*
X203759775Y-106277824D01*
X203606288Y-106403788D01*
X203480324Y-106557275D01*
X203386724Y-106732387D01*
X203386723Y-106732389D01*
X203346192Y-106865999D01*
X202068807Y-106865999D01*
X202028276Y-106732389D01*
X202028275Y-106732387D01*
X201934675Y-106557275D01*
X201808711Y-106403788D01*
X201655224Y-106277824D01*
X201480114Y-106184225D01*
X201480099Y-106184219D01*
X201290106Y-106126585D01*
X201290094Y-106126583D01*
X201142026Y-106112000D01*
X200946500Y-106112000D01*
X200946500Y-106820000D01*
X200438500Y-106820000D01*
X200438500Y-106111999D01*
X200430387Y-106103886D01*
X200389899Y-106091998D01*
X200343406Y-106038342D01*
X200332020Y-105986265D01*
X200331818Y-105890000D01*
X210984318Y-105890000D01*
X211004955Y-106046760D01*
X211061893Y-106184219D01*
X211065464Y-106192841D01*
X211161718Y-106318282D01*
X211287159Y-106414536D01*
X211433238Y-106475044D01*
X211590000Y-106495682D01*
X211746762Y-106475044D01*
X211892841Y-106414536D01*
X212018282Y-106318282D01*
X212114536Y-106192841D01*
X212175044Y-106046762D01*
X212177251Y-106030000D01*
X237974318Y-106030000D01*
X237994955Y-106186760D01*
X237994956Y-106186762D01*
X238055464Y-106332841D01*
X238151718Y-106458282D01*
X238277159Y-106554536D01*
X238423238Y-106615044D01*
X238580000Y-106635682D01*
X238736762Y-106615044D01*
X238882841Y-106554536D01*
X239008282Y-106458282D01*
X239104536Y-106332841D01*
X239165044Y-106186762D01*
X239185682Y-106030000D01*
X239165044Y-105873238D01*
X239104536Y-105727159D01*
X239008282Y-105601718D01*
X238882841Y-105505464D01*
X238741118Y-105446760D01*
X238736760Y-105444955D01*
X238580000Y-105424318D01*
X238423239Y-105444955D01*
X238277160Y-105505463D01*
X238277157Y-105505465D01*
X238151718Y-105601718D01*
X238055465Y-105727157D01*
X238055463Y-105727160D01*
X237994955Y-105873239D01*
X237974318Y-106029999D01*
X237974318Y-106030000D01*
X212177251Y-106030000D01*
X212195682Y-105890000D01*
X212175044Y-105733238D01*
X212114536Y-105587159D01*
X212018282Y-105461718D01*
X211892841Y-105365464D01*
X211746762Y-105304956D01*
X211746760Y-105304955D01*
X211633161Y-105290000D01*
X233354318Y-105290000D01*
X233374955Y-105446760D01*
X233433110Y-105587157D01*
X233435464Y-105592841D01*
X233531718Y-105718282D01*
X233657159Y-105814536D01*
X233803238Y-105875044D01*
X233960000Y-105895682D01*
X234116762Y-105875044D01*
X234262841Y-105814536D01*
X234388282Y-105718282D01*
X234484536Y-105592841D01*
X234545044Y-105446762D01*
X234565682Y-105290000D01*
X234545044Y-105133238D01*
X234484536Y-104987159D01*
X234388282Y-104861718D01*
X234262841Y-104765464D01*
X234206115Y-104741967D01*
X234116760Y-104704955D01*
X233960000Y-104684318D01*
X233803239Y-104704955D01*
X233657160Y-104765463D01*
X233657157Y-104765465D01*
X233531718Y-104861718D01*
X233435465Y-104987157D01*
X233435463Y-104987160D01*
X233374955Y-105133239D01*
X233354318Y-105289999D01*
X233354318Y-105290000D01*
X211633161Y-105290000D01*
X211590000Y-105284318D01*
X211433239Y-105304955D01*
X211287160Y-105365463D01*
X211287157Y-105365465D01*
X211161718Y-105461718D01*
X211065465Y-105587157D01*
X211065463Y-105587160D01*
X211004955Y-105733239D01*
X210984318Y-105889999D01*
X210984318Y-105890000D01*
X200331818Y-105890000D01*
X200331818Y-105889999D01*
X200330048Y-105046755D01*
X200349906Y-104978597D01*
X200403464Y-104931992D01*
X200456041Y-104920495D01*
X204093976Y-104920468D01*
X204095490Y-104920702D01*
X204123403Y-104920513D01*
X204129607Y-104920470D01*
X204130460Y-104920468D01*
X204150923Y-104920468D01*
X204152385Y-104920316D01*
X204246144Y-104919698D01*
X204475199Y-104883662D01*
X204696348Y-104813963D01*
X204904673Y-104712151D01*
X204991144Y-104652503D01*
X205095533Y-104580496D01*
X205095535Y-104580493D01*
X205095541Y-104580490D01*
X205264706Y-104421909D01*
X205408407Y-104239934D01*
X205523448Y-104038613D01*
X205607271Y-103822421D01*
X205658011Y-103596168D01*
X205672745Y-103390000D01*
X212584435Y-103390000D01*
X212604632Y-103569255D01*
X212614052Y-103596175D01*
X212664211Y-103739522D01*
X212664212Y-103739525D01*
X212760182Y-103892260D01*
X212760183Y-103892262D01*
X212887737Y-104019816D01*
X212887739Y-104019817D01*
X213040474Y-104115787D01*
X213040475Y-104115787D01*
X213040478Y-104115789D01*
X213210745Y-104175368D01*
X213345046Y-104190500D01*
X213434954Y-104190500D01*
X213569255Y-104175368D01*
X213739522Y-104115789D01*
X213892262Y-104019816D01*
X214019816Y-103892262D01*
X214115789Y-103739522D01*
X214175368Y-103569255D01*
X214195565Y-103390000D01*
X215124435Y-103390000D01*
X215144632Y-103569255D01*
X215154052Y-103596175D01*
X215204211Y-103739522D01*
X215204212Y-103739525D01*
X215300182Y-103892260D01*
X215300183Y-103892262D01*
X215427737Y-104019816D01*
X215427739Y-104019817D01*
X215580474Y-104115787D01*
X215580475Y-104115787D01*
X215580478Y-104115789D01*
X215750745Y-104175368D01*
X215885046Y-104190500D01*
X215974954Y-104190500D01*
X216109255Y-104175368D01*
X216279522Y-104115789D01*
X216432262Y-104019816D01*
X216559816Y-103892262D01*
X216655789Y-103739522D01*
X216715368Y-103569255D01*
X216735565Y-103390000D01*
X217664435Y-103390000D01*
X217684632Y-103569255D01*
X217694052Y-103596175D01*
X217744211Y-103739522D01*
X217744212Y-103739525D01*
X217840182Y-103892260D01*
X217840183Y-103892262D01*
X217967737Y-104019816D01*
X217967739Y-104019817D01*
X218120474Y-104115787D01*
X218120475Y-104115787D01*
X218120478Y-104115789D01*
X218290745Y-104175368D01*
X218425046Y-104190500D01*
X218514954Y-104190500D01*
X218649255Y-104175368D01*
X218819522Y-104115789D01*
X218972262Y-104019816D01*
X219099816Y-103892262D01*
X219195789Y-103739522D01*
X219255368Y-103569255D01*
X219275565Y-103390000D01*
X220204435Y-103390000D01*
X220224632Y-103569255D01*
X220234052Y-103596175D01*
X220284211Y-103739522D01*
X220284212Y-103739525D01*
X220380182Y-103892260D01*
X220380183Y-103892262D01*
X220507737Y-104019816D01*
X220507739Y-104019817D01*
X220660474Y-104115787D01*
X220660475Y-104115787D01*
X220660478Y-104115789D01*
X220830745Y-104175368D01*
X220965046Y-104190500D01*
X221054954Y-104190500D01*
X221189255Y-104175368D01*
X221359522Y-104115789D01*
X221512262Y-104019816D01*
X221639816Y-103892262D01*
X221735789Y-103739522D01*
X221795368Y-103569255D01*
X221815565Y-103390000D01*
X221795368Y-103210745D01*
X221735789Y-103040478D01*
X221735787Y-103040475D01*
X221735787Y-103040474D01*
X221639817Y-102887739D01*
X221639816Y-102887737D01*
X221512262Y-102760183D01*
X221512260Y-102760182D01*
X221384651Y-102680000D01*
X237694318Y-102680000D01*
X237714955Y-102836760D01*
X237744381Y-102907799D01*
X237775464Y-102982841D01*
X237871718Y-103108282D01*
X237997159Y-103204536D01*
X238143238Y-103265044D01*
X238300000Y-103285682D01*
X238456762Y-103265044D01*
X238602841Y-103204536D01*
X238728282Y-103108282D01*
X238824536Y-102982841D01*
X238885044Y-102836762D01*
X238905682Y-102680000D01*
X238903603Y-102664212D01*
X238895363Y-102601619D01*
X238885044Y-102523238D01*
X238824536Y-102377159D01*
X238728282Y-102251718D01*
X238602841Y-102155464D01*
X238597173Y-102153116D01*
X238456760Y-102094955D01*
X238300000Y-102074318D01*
X238143239Y-102094955D01*
X237997160Y-102155463D01*
X237997157Y-102155465D01*
X237871718Y-102251718D01*
X237775465Y-102377157D01*
X237775463Y-102377160D01*
X237714955Y-102523239D01*
X237694318Y-102679999D01*
X237694318Y-102680000D01*
X221384651Y-102680000D01*
X221359525Y-102664212D01*
X221359522Y-102664211D01*
X221189255Y-102604632D01*
X221054954Y-102589500D01*
X220965046Y-102589500D01*
X220830745Y-102604632D01*
X220830742Y-102604632D01*
X220830742Y-102604633D01*
X220660477Y-102664211D01*
X220660474Y-102664212D01*
X220507739Y-102760182D01*
X220507737Y-102760183D01*
X220380183Y-102887737D01*
X220380182Y-102887739D01*
X220284212Y-103040474D01*
X220284211Y-103040477D01*
X220246271Y-103148904D01*
X220224632Y-103210745D01*
X220204435Y-103390000D01*
X219275565Y-103390000D01*
X219255368Y-103210745D01*
X219195789Y-103040478D01*
X219195787Y-103040475D01*
X219195787Y-103040474D01*
X219099817Y-102887739D01*
X219099816Y-102887737D01*
X218972262Y-102760183D01*
X218972260Y-102760182D01*
X218819525Y-102664212D01*
X218819522Y-102664211D01*
X218649255Y-102604632D01*
X218514954Y-102589500D01*
X218425046Y-102589500D01*
X218290745Y-102604632D01*
X218290742Y-102604632D01*
X218290742Y-102604633D01*
X218120477Y-102664211D01*
X218120474Y-102664212D01*
X217967739Y-102760182D01*
X217967737Y-102760183D01*
X217840183Y-102887737D01*
X217840182Y-102887739D01*
X217744212Y-103040474D01*
X217744211Y-103040477D01*
X217706271Y-103148904D01*
X217684632Y-103210745D01*
X217664435Y-103390000D01*
X216735565Y-103390000D01*
X216715368Y-103210745D01*
X216655789Y-103040478D01*
X216655787Y-103040475D01*
X216655787Y-103040474D01*
X216559817Y-102887739D01*
X216559816Y-102887737D01*
X216432262Y-102760183D01*
X216432260Y-102760182D01*
X216279525Y-102664212D01*
X216279522Y-102664211D01*
X216109255Y-102604632D01*
X215974954Y-102589500D01*
X215885046Y-102589500D01*
X215750745Y-102604632D01*
X215750742Y-102604632D01*
X215750742Y-102604633D01*
X215580477Y-102664211D01*
X215580474Y-102664212D01*
X215427739Y-102760182D01*
X215427737Y-102760183D01*
X215300183Y-102887737D01*
X215300182Y-102887739D01*
X215204212Y-103040474D01*
X215204211Y-103040477D01*
X215166271Y-103148904D01*
X215144632Y-103210745D01*
X215124435Y-103390000D01*
X214195565Y-103390000D01*
X214175368Y-103210745D01*
X214115789Y-103040478D01*
X214115787Y-103040475D01*
X214115787Y-103040474D01*
X214019817Y-102887739D01*
X214019816Y-102887737D01*
X213892262Y-102760183D01*
X213892260Y-102760182D01*
X213739525Y-102664212D01*
X213739522Y-102664211D01*
X213569255Y-102604632D01*
X213434954Y-102589500D01*
X213345046Y-102589500D01*
X213210745Y-102604632D01*
X213210742Y-102604632D01*
X213210742Y-102604633D01*
X213040477Y-102664211D01*
X213040474Y-102664212D01*
X212887739Y-102760182D01*
X212887737Y-102760183D01*
X212760183Y-102887737D01*
X212760182Y-102887739D01*
X212664212Y-103040474D01*
X212664211Y-103040477D01*
X212626271Y-103148904D01*
X212604632Y-103210745D01*
X212584435Y-103390000D01*
X205672745Y-103390000D01*
X205674540Y-103364891D01*
X205673797Y-103355370D01*
X205656490Y-103133717D01*
X205604262Y-102907802D01*
X205604261Y-102907799D01*
X205604262Y-102907799D01*
X205519023Y-102692176D01*
X205519016Y-102692161D01*
X205421572Y-102524210D01*
X205402656Y-102491607D01*
X205330208Y-102401094D01*
X205257762Y-102310582D01*
X205257761Y-102310581D01*
X205087556Y-102153116D01*
X205087553Y-102153114D01*
X205087550Y-102153111D01*
X204895829Y-102022715D01*
X204686835Y-101922274D01*
X204686823Y-101922270D01*
X204465243Y-101854034D01*
X204465223Y-101854029D01*
X204251311Y-101821817D01*
X204235946Y-101819504D01*
X204235943Y-101819503D01*
X204235935Y-101819503D01*
X204140052Y-101819500D01*
X204140046Y-101819500D01*
X204140045Y-101819500D01*
X204140044Y-101819500D01*
X204120010Y-101819500D01*
X204119983Y-101819499D01*
X204083194Y-101819493D01*
X204083151Y-101819500D01*
X200449010Y-101819500D01*
X200380889Y-101799498D01*
X200334396Y-101745842D01*
X200323010Y-101693765D01*
X200320267Y-100387260D01*
X200340126Y-100319097D01*
X200393684Y-100272492D01*
X200447255Y-100260999D01*
X240955314Y-100579021D01*
G37*
%TD.AperFunction*%
%TD*%
M02*
