%TF.GenerationSoftware,KiCad,Pcbnew,7.0.10*%
%TF.CreationDate,2025-01-07T15:59:30-07:00*%
%TF.ProjectId,HATA_ver_8.3.1,48415441-5f76-4657-925f-382e332e312e,8.3.1*%
%TF.SameCoordinates,Original*%
%TF.FileFunction,Soldermask,Top*%
%TF.FilePolarity,Negative*%
%FSLAX46Y46*%
G04 Gerber Fmt 4.6, Leading zero omitted, Abs format (unit mm)*
G04 Created by KiCad (PCBNEW 7.0.10) date 2025-01-07 15:59:30*
%MOMM*%
%LPD*%
G01*
G04 APERTURE LIST*
G04 Aperture macros list*
%AMRoundRect*
0 Rectangle with rounded corners*
0 $1 Rounding radius*
0 $2 $3 $4 $5 $6 $7 $8 $9 X,Y pos of 4 corners*
0 Add a 4 corners polygon primitive as box body*
4,1,4,$2,$3,$4,$5,$6,$7,$8,$9,$2,$3,0*
0 Add four circle primitives for the rounded corners*
1,1,$1+$1,$2,$3*
1,1,$1+$1,$4,$5*
1,1,$1+$1,$6,$7*
1,1,$1+$1,$8,$9*
0 Add four rect primitives between the rounded corners*
20,1,$1+$1,$2,$3,$4,$5,0*
20,1,$1+$1,$4,$5,$6,$7,0*
20,1,$1+$1,$6,$7,$8,$9,0*
20,1,$1+$1,$8,$9,$2,$3,0*%
G04 Aperture macros list end*
%ADD10RoundRect,0.250000X0.262500X0.450000X-0.262500X0.450000X-0.262500X-0.450000X0.262500X-0.450000X0*%
%ADD11C,1.500000*%
%ADD12R,0.900000X0.800000*%
%ADD13RoundRect,0.250000X-0.250000X-0.475000X0.250000X-0.475000X0.250000X0.475000X-0.250000X0.475000X0*%
%ADD14C,1.501140*%
%ADD15C,2.999740*%
%ADD16RoundRect,0.250000X-0.262500X-0.450000X0.262500X-0.450000X0.262500X0.450000X-0.262500X0.450000X0*%
%ADD17R,1.700000X1.700000*%
%ADD18O,1.700000X1.700000*%
%ADD19RoundRect,0.087500X-0.487500X-0.087500X0.487500X-0.087500X0.487500X0.087500X-0.487500X0.087500X0*%
%ADD20RoundRect,0.050000X-0.675000X-0.050000X0.675000X-0.050000X0.675000X0.050000X-0.675000X0.050000X0*%
%ADD21RoundRect,0.062500X-0.162500X-0.062500X0.162500X-0.062500X0.162500X0.062500X-0.162500X0.062500X0*%
%ADD22RoundRect,0.250000X0.250000X0.475000X-0.250000X0.475000X-0.250000X-0.475000X0.250000X-0.475000X0*%
%ADD23R,2.600000X2.150000*%
%ADD24C,0.650000*%
%ADD25O,1.800000X1.000000*%
%ADD26O,2.100000X1.000000*%
%ADD27R,1.150000X0.600000*%
%ADD28R,1.150000X0.300000*%
%ADD29C,0.508000*%
G04 APERTURE END LIST*
D10*
%TO.C,R1*%
X223352500Y-156700000D03*
X221527500Y-156700000D03*
%TD*%
D11*
%TO.C,TP3*%
X239430000Y-151780000D03*
%TD*%
D12*
%TO.C,D1*%
X221520000Y-151750000D03*
X223520000Y-150800000D03*
X221520000Y-149850000D03*
%TD*%
D13*
%TO.C,C4*%
X236090000Y-162000000D03*
X237990000Y-162000000D03*
%TD*%
%TO.C,C1*%
X207940000Y-107840000D03*
X209840000Y-107840000D03*
%TD*%
D10*
%TO.C,R7*%
X223092500Y-106910000D03*
X221267500Y-106910000D03*
%TD*%
D11*
%TO.C,TP5*%
X202040000Y-127380000D03*
%TD*%
D14*
%TO.C,P3*%
X233160000Y-122845000D03*
X233160000Y-125345000D03*
X233160000Y-127345000D03*
X233160000Y-129845000D03*
D15*
X230450000Y-119775000D03*
X230450000Y-132915000D03*
%TD*%
D16*
%TO.C,R4*%
X236337500Y-109830000D03*
X238162500Y-109830000D03*
%TD*%
D17*
%TO.C,P6*%
X235200000Y-137680000D03*
D18*
X232660000Y-137680000D03*
X230120000Y-137680000D03*
X227580000Y-137680000D03*
X225040000Y-137680000D03*
X222500000Y-137680000D03*
X219960000Y-137680000D03*
X217420000Y-137680000D03*
%TD*%
D11*
%TO.C,TP2*%
X239490000Y-146720000D03*
%TD*%
D10*
%TO.C,R10*%
X212592500Y-139740000D03*
X210767500Y-139740000D03*
%TD*%
D13*
%TO.C,C7*%
X231650000Y-151890000D03*
X233550000Y-151890000D03*
%TD*%
D11*
%TO.C,TP4*%
X239350000Y-171050000D03*
%TD*%
D17*
%TO.C,P7*%
X235200000Y-175320000D03*
D18*
X232660000Y-175320000D03*
X230120000Y-175320000D03*
X227580000Y-175320000D03*
X225040000Y-175320000D03*
%TD*%
D19*
%TO.C,U3*%
X229235000Y-154300000D03*
D20*
X229385000Y-154850000D03*
D19*
X229260000Y-155400000D03*
D21*
X230835000Y-155600000D03*
X230835000Y-155100000D03*
X230835000Y-154600000D03*
X230835000Y-154100000D03*
%TD*%
D10*
%TO.C,R21*%
X237672500Y-155640000D03*
X235847500Y-155640000D03*
%TD*%
D17*
%TO.C,P5*%
X235200000Y-140470000D03*
D18*
X232660000Y-140470000D03*
X230120000Y-140470000D03*
X227580000Y-140470000D03*
X225040000Y-140470000D03*
X222500000Y-140470000D03*
X219960000Y-140470000D03*
X217420000Y-140470000D03*
%TD*%
D22*
%TO.C,C5*%
X207190000Y-140130000D03*
X205290000Y-140130000D03*
%TD*%
D13*
%TO.C,C6*%
X231600000Y-149390000D03*
X233500000Y-149390000D03*
%TD*%
D12*
%TO.C,D2*%
X236360000Y-104800000D03*
X238360000Y-103850000D03*
X236360000Y-102900000D03*
%TD*%
D17*
%TO.C,J10*%
X236790000Y-122800000D03*
D18*
X239330000Y-122800000D03*
X236790000Y-125340000D03*
X239330000Y-125340000D03*
X236790000Y-127880000D03*
X239330000Y-127880000D03*
X236790000Y-130420000D03*
X239330000Y-130420000D03*
X236790000Y-132960000D03*
X239330000Y-132960000D03*
%TD*%
D17*
%TO.C,P2*%
X213390000Y-103390000D03*
D18*
X215930000Y-103390000D03*
X218470000Y-103390000D03*
X221010000Y-103390000D03*
%TD*%
D16*
%TO.C,R22*%
X235767500Y-158900000D03*
X237592500Y-158900000D03*
%TD*%
D11*
%TO.C,TP1*%
X202040000Y-119730000D03*
%TD*%
%TO.C,TP6*%
X239770000Y-112850000D03*
%TD*%
D22*
%TO.C,C8*%
X215340000Y-106720000D03*
X213440000Y-106720000D03*
%TD*%
D23*
%TO.C,L1*%
X228260000Y-162320000D03*
X228260000Y-157960000D03*
%TD*%
D10*
%TO.C,R14*%
X212642500Y-137050000D03*
X210817500Y-137050000D03*
%TD*%
D16*
%TO.C,R3*%
X236367500Y-107540000D03*
X238192500Y-107540000D03*
%TD*%
D24*
%TO.C,P1*%
X204372500Y-108550000D03*
X204372500Y-114330000D03*
D25*
X200692500Y-115760000D03*
X200692500Y-107120000D03*
D26*
X204872500Y-115760000D03*
X204872500Y-107120000D03*
D27*
X205447500Y-108240000D03*
X205447500Y-109040000D03*
D28*
X205447500Y-110190000D03*
X205447500Y-111190000D03*
X205447500Y-111690000D03*
X205447500Y-112690000D03*
D27*
X205447500Y-114640000D03*
X205447500Y-113840000D03*
D28*
X205447500Y-113190000D03*
X205447500Y-112190000D03*
X205447500Y-110690000D03*
X205447500Y-109690000D03*
%TD*%
D22*
%TO.C,C2*%
X225760000Y-166830000D03*
X223860000Y-166830000D03*
%TD*%
%TO.C,C3*%
X223390000Y-154130000D03*
X221490000Y-154130000D03*
%TD*%
D16*
%TO.C,R8*%
X217337500Y-106850000D03*
X219162500Y-106850000D03*
%TD*%
D29*
%TO.C,U4*%
X217610000Y-119250000D03*
X216435000Y-118100000D03*
X217610000Y-117000000D03*
X217585000Y-118100000D03*
X216485000Y-117000000D03*
X218735000Y-119225000D03*
X216510000Y-119225000D03*
X218685000Y-118100000D03*
X218710000Y-117000000D03*
%TD*%
M02*
