%TF.GenerationSoftware,KiCad,Pcbnew,7.0.10*%
%TF.CreationDate,2025-01-07T15:55:25-07:00*%
%TF.ProjectId,HATB_ver_8.3.1,48415442-5f76-4657-925f-382e332e312e,8.3.1*%
%TF.SameCoordinates,Original*%
%TF.FileFunction,Legend,Bot*%
%TF.FilePolarity,Positive*%
%FSLAX46Y46*%
G04 Gerber Fmt 4.6, Leading zero omitted, Abs format (unit mm)*
G04 Created by KiCad (PCBNEW 7.0.10) date 2025-01-07 15:55:25*
%MOMM*%
%LPD*%
G01*
G04 APERTURE LIST*
%ADD10C,0.150000*%
%ADD11C,0.200000*%
%ADD12C,0.100000*%
%ADD13C,0.120000*%
%ADD14C,0.499853*%
G04 APERTURE END LIST*
D10*
X193926667Y-83989819D02*
X193926667Y-82989819D01*
X193926667Y-82989819D02*
X193545715Y-82989819D01*
X193545715Y-82989819D02*
X193450477Y-83037438D01*
X193450477Y-83037438D02*
X193402858Y-83085057D01*
X193402858Y-83085057D02*
X193355239Y-83180295D01*
X193355239Y-83180295D02*
X193355239Y-83323152D01*
X193355239Y-83323152D02*
X193402858Y-83418390D01*
X193402858Y-83418390D02*
X193450477Y-83466009D01*
X193450477Y-83466009D02*
X193545715Y-83513628D01*
X193545715Y-83513628D02*
X193926667Y-83513628D01*
X192926667Y-83989819D02*
X192926667Y-83323152D01*
X192926667Y-83513628D02*
X192879048Y-83418390D01*
X192879048Y-83418390D02*
X192831429Y-83370771D01*
X192831429Y-83370771D02*
X192736191Y-83323152D01*
X192736191Y-83323152D02*
X192640953Y-83323152D01*
X192164762Y-83989819D02*
X192260000Y-83942200D01*
X192260000Y-83942200D02*
X192307619Y-83894580D01*
X192307619Y-83894580D02*
X192355238Y-83799342D01*
X192355238Y-83799342D02*
X192355238Y-83513628D01*
X192355238Y-83513628D02*
X192307619Y-83418390D01*
X192307619Y-83418390D02*
X192260000Y-83370771D01*
X192260000Y-83370771D02*
X192164762Y-83323152D01*
X192164762Y-83323152D02*
X192021905Y-83323152D01*
X192021905Y-83323152D02*
X191926667Y-83370771D01*
X191926667Y-83370771D02*
X191879048Y-83418390D01*
X191879048Y-83418390D02*
X191831429Y-83513628D01*
X191831429Y-83513628D02*
X191831429Y-83799342D01*
X191831429Y-83799342D02*
X191879048Y-83894580D01*
X191879048Y-83894580D02*
X191926667Y-83942200D01*
X191926667Y-83942200D02*
X192021905Y-83989819D01*
X192021905Y-83989819D02*
X192164762Y-83989819D01*
X190974286Y-83989819D02*
X190974286Y-82989819D01*
X190974286Y-83942200D02*
X191069524Y-83989819D01*
X191069524Y-83989819D02*
X191260000Y-83989819D01*
X191260000Y-83989819D02*
X191355238Y-83942200D01*
X191355238Y-83942200D02*
X191402857Y-83894580D01*
X191402857Y-83894580D02*
X191450476Y-83799342D01*
X191450476Y-83799342D02*
X191450476Y-83513628D01*
X191450476Y-83513628D02*
X191402857Y-83418390D01*
X191402857Y-83418390D02*
X191355238Y-83370771D01*
X191355238Y-83370771D02*
X191260000Y-83323152D01*
X191260000Y-83323152D02*
X191069524Y-83323152D01*
X191069524Y-83323152D02*
X190974286Y-83370771D01*
X190069524Y-83323152D02*
X190069524Y-83989819D01*
X190498095Y-83323152D02*
X190498095Y-83846961D01*
X190498095Y-83846961D02*
X190450476Y-83942200D01*
X190450476Y-83942200D02*
X190355238Y-83989819D01*
X190355238Y-83989819D02*
X190212381Y-83989819D01*
X190212381Y-83989819D02*
X190117143Y-83942200D01*
X190117143Y-83942200D02*
X190069524Y-83894580D01*
X189164762Y-83942200D02*
X189260000Y-83989819D01*
X189260000Y-83989819D02*
X189450476Y-83989819D01*
X189450476Y-83989819D02*
X189545714Y-83942200D01*
X189545714Y-83942200D02*
X189593333Y-83894580D01*
X189593333Y-83894580D02*
X189640952Y-83799342D01*
X189640952Y-83799342D02*
X189640952Y-83513628D01*
X189640952Y-83513628D02*
X189593333Y-83418390D01*
X189593333Y-83418390D02*
X189545714Y-83370771D01*
X189545714Y-83370771D02*
X189450476Y-83323152D01*
X189450476Y-83323152D02*
X189260000Y-83323152D01*
X189260000Y-83323152D02*
X189164762Y-83370771D01*
X188355238Y-83942200D02*
X188450476Y-83989819D01*
X188450476Y-83989819D02*
X188640952Y-83989819D01*
X188640952Y-83989819D02*
X188736190Y-83942200D01*
X188736190Y-83942200D02*
X188783809Y-83846961D01*
X188783809Y-83846961D02*
X188783809Y-83466009D01*
X188783809Y-83466009D02*
X188736190Y-83370771D01*
X188736190Y-83370771D02*
X188640952Y-83323152D01*
X188640952Y-83323152D02*
X188450476Y-83323152D01*
X188450476Y-83323152D02*
X188355238Y-83370771D01*
X188355238Y-83370771D02*
X188307619Y-83466009D01*
X188307619Y-83466009D02*
X188307619Y-83561247D01*
X188307619Y-83561247D02*
X188783809Y-83656485D01*
X187450476Y-83989819D02*
X187450476Y-82989819D01*
X187450476Y-83942200D02*
X187545714Y-83989819D01*
X187545714Y-83989819D02*
X187736190Y-83989819D01*
X187736190Y-83989819D02*
X187831428Y-83942200D01*
X187831428Y-83942200D02*
X187879047Y-83894580D01*
X187879047Y-83894580D02*
X187926666Y-83799342D01*
X187926666Y-83799342D02*
X187926666Y-83513628D01*
X187926666Y-83513628D02*
X187879047Y-83418390D01*
X187879047Y-83418390D02*
X187831428Y-83370771D01*
X187831428Y-83370771D02*
X187736190Y-83323152D01*
X187736190Y-83323152D02*
X187545714Y-83323152D01*
X187545714Y-83323152D02*
X187450476Y-83370771D01*
X186355237Y-83323152D02*
X185974285Y-83323152D01*
X186212380Y-83989819D02*
X186212380Y-83132676D01*
X186212380Y-83132676D02*
X186164761Y-83037438D01*
X186164761Y-83037438D02*
X186069523Y-82989819D01*
X186069523Y-82989819D02*
X185974285Y-82989819D01*
X185498094Y-83989819D02*
X185593332Y-83942200D01*
X185593332Y-83942200D02*
X185640951Y-83894580D01*
X185640951Y-83894580D02*
X185688570Y-83799342D01*
X185688570Y-83799342D02*
X185688570Y-83513628D01*
X185688570Y-83513628D02*
X185640951Y-83418390D01*
X185640951Y-83418390D02*
X185593332Y-83370771D01*
X185593332Y-83370771D02*
X185498094Y-83323152D01*
X185498094Y-83323152D02*
X185355237Y-83323152D01*
X185355237Y-83323152D02*
X185259999Y-83370771D01*
X185259999Y-83370771D02*
X185212380Y-83418390D01*
X185212380Y-83418390D02*
X185164761Y-83513628D01*
X185164761Y-83513628D02*
X185164761Y-83799342D01*
X185164761Y-83799342D02*
X185212380Y-83894580D01*
X185212380Y-83894580D02*
X185259999Y-83942200D01*
X185259999Y-83942200D02*
X185355237Y-83989819D01*
X185355237Y-83989819D02*
X185498094Y-83989819D01*
X184736189Y-83989819D02*
X184736189Y-83323152D01*
X184736189Y-83513628D02*
X184688570Y-83418390D01*
X184688570Y-83418390D02*
X184640951Y-83370771D01*
X184640951Y-83370771D02*
X184545713Y-83323152D01*
X184545713Y-83323152D02*
X184450475Y-83323152D01*
X197164763Y-84647438D02*
X197260001Y-84599819D01*
X197260001Y-84599819D02*
X197402858Y-84599819D01*
X197402858Y-84599819D02*
X197545715Y-84647438D01*
X197545715Y-84647438D02*
X197640953Y-84742676D01*
X197640953Y-84742676D02*
X197688572Y-84837914D01*
X197688572Y-84837914D02*
X197736191Y-85028390D01*
X197736191Y-85028390D02*
X197736191Y-85171247D01*
X197736191Y-85171247D02*
X197688572Y-85361723D01*
X197688572Y-85361723D02*
X197640953Y-85456961D01*
X197640953Y-85456961D02*
X197545715Y-85552200D01*
X197545715Y-85552200D02*
X197402858Y-85599819D01*
X197402858Y-85599819D02*
X197307620Y-85599819D01*
X197307620Y-85599819D02*
X197164763Y-85552200D01*
X197164763Y-85552200D02*
X197117144Y-85504580D01*
X197117144Y-85504580D02*
X197117144Y-85171247D01*
X197117144Y-85171247D02*
X197307620Y-85171247D01*
X196545715Y-85599819D02*
X196640953Y-85552200D01*
X196640953Y-85552200D02*
X196688572Y-85456961D01*
X196688572Y-85456961D02*
X196688572Y-84599819D01*
X196021905Y-85599819D02*
X196117143Y-85552200D01*
X196117143Y-85552200D02*
X196164762Y-85504580D01*
X196164762Y-85504580D02*
X196212381Y-85409342D01*
X196212381Y-85409342D02*
X196212381Y-85123628D01*
X196212381Y-85123628D02*
X196164762Y-85028390D01*
X196164762Y-85028390D02*
X196117143Y-84980771D01*
X196117143Y-84980771D02*
X196021905Y-84933152D01*
X196021905Y-84933152D02*
X195879048Y-84933152D01*
X195879048Y-84933152D02*
X195783810Y-84980771D01*
X195783810Y-84980771D02*
X195736191Y-85028390D01*
X195736191Y-85028390D02*
X195688572Y-85123628D01*
X195688572Y-85123628D02*
X195688572Y-85409342D01*
X195688572Y-85409342D02*
X195736191Y-85504580D01*
X195736191Y-85504580D02*
X195783810Y-85552200D01*
X195783810Y-85552200D02*
X195879048Y-85599819D01*
X195879048Y-85599819D02*
X196021905Y-85599819D01*
X195260000Y-85599819D02*
X195260000Y-84599819D01*
X195260000Y-84980771D02*
X195164762Y-84933152D01*
X195164762Y-84933152D02*
X194974286Y-84933152D01*
X194974286Y-84933152D02*
X194879048Y-84980771D01*
X194879048Y-84980771D02*
X194831429Y-85028390D01*
X194831429Y-85028390D02*
X194783810Y-85123628D01*
X194783810Y-85123628D02*
X194783810Y-85409342D01*
X194783810Y-85409342D02*
X194831429Y-85504580D01*
X194831429Y-85504580D02*
X194879048Y-85552200D01*
X194879048Y-85552200D02*
X194974286Y-85599819D01*
X194974286Y-85599819D02*
X195164762Y-85599819D01*
X195164762Y-85599819D02*
X195260000Y-85552200D01*
X193926667Y-85599819D02*
X193926667Y-85076009D01*
X193926667Y-85076009D02*
X193974286Y-84980771D01*
X193974286Y-84980771D02*
X194069524Y-84933152D01*
X194069524Y-84933152D02*
X194260000Y-84933152D01*
X194260000Y-84933152D02*
X194355238Y-84980771D01*
X193926667Y-85552200D02*
X194021905Y-85599819D01*
X194021905Y-85599819D02*
X194260000Y-85599819D01*
X194260000Y-85599819D02*
X194355238Y-85552200D01*
X194355238Y-85552200D02*
X194402857Y-85456961D01*
X194402857Y-85456961D02*
X194402857Y-85361723D01*
X194402857Y-85361723D02*
X194355238Y-85266485D01*
X194355238Y-85266485D02*
X194260000Y-85218866D01*
X194260000Y-85218866D02*
X194021905Y-85218866D01*
X194021905Y-85218866D02*
X193926667Y-85171247D01*
X193307619Y-85599819D02*
X193402857Y-85552200D01*
X193402857Y-85552200D02*
X193450476Y-85456961D01*
X193450476Y-85456961D02*
X193450476Y-84599819D01*
X192212380Y-85552200D02*
X192069523Y-85599819D01*
X192069523Y-85599819D02*
X191831428Y-85599819D01*
X191831428Y-85599819D02*
X191736190Y-85552200D01*
X191736190Y-85552200D02*
X191688571Y-85504580D01*
X191688571Y-85504580D02*
X191640952Y-85409342D01*
X191640952Y-85409342D02*
X191640952Y-85314104D01*
X191640952Y-85314104D02*
X191688571Y-85218866D01*
X191688571Y-85218866D02*
X191736190Y-85171247D01*
X191736190Y-85171247D02*
X191831428Y-85123628D01*
X191831428Y-85123628D02*
X192021904Y-85076009D01*
X192021904Y-85076009D02*
X192117142Y-85028390D01*
X192117142Y-85028390D02*
X192164761Y-84980771D01*
X192164761Y-84980771D02*
X192212380Y-84885533D01*
X192212380Y-84885533D02*
X192212380Y-84790295D01*
X192212380Y-84790295D02*
X192164761Y-84695057D01*
X192164761Y-84695057D02*
X192117142Y-84647438D01*
X192117142Y-84647438D02*
X192021904Y-84599819D01*
X192021904Y-84599819D02*
X191783809Y-84599819D01*
X191783809Y-84599819D02*
X191640952Y-84647438D01*
X191307618Y-84933152D02*
X191069523Y-85599819D01*
X190831428Y-84933152D02*
X191069523Y-85599819D01*
X191069523Y-85599819D02*
X191164761Y-85837914D01*
X191164761Y-85837914D02*
X191212380Y-85885533D01*
X191212380Y-85885533D02*
X191307618Y-85933152D01*
X190498094Y-85552200D02*
X190402856Y-85599819D01*
X190402856Y-85599819D02*
X190212380Y-85599819D01*
X190212380Y-85599819D02*
X190117142Y-85552200D01*
X190117142Y-85552200D02*
X190069523Y-85456961D01*
X190069523Y-85456961D02*
X190069523Y-85409342D01*
X190069523Y-85409342D02*
X190117142Y-85314104D01*
X190117142Y-85314104D02*
X190212380Y-85266485D01*
X190212380Y-85266485D02*
X190355237Y-85266485D01*
X190355237Y-85266485D02*
X190450475Y-85218866D01*
X190450475Y-85218866D02*
X190498094Y-85123628D01*
X190498094Y-85123628D02*
X190498094Y-85076009D01*
X190498094Y-85076009D02*
X190450475Y-84980771D01*
X190450475Y-84980771D02*
X190355237Y-84933152D01*
X190355237Y-84933152D02*
X190212380Y-84933152D01*
X190212380Y-84933152D02*
X190117142Y-84980771D01*
X189783808Y-84933152D02*
X189402856Y-84933152D01*
X189640951Y-84599819D02*
X189640951Y-85456961D01*
X189640951Y-85456961D02*
X189593332Y-85552200D01*
X189593332Y-85552200D02*
X189498094Y-85599819D01*
X189498094Y-85599819D02*
X189402856Y-85599819D01*
X188688570Y-85552200D02*
X188783808Y-85599819D01*
X188783808Y-85599819D02*
X188974284Y-85599819D01*
X188974284Y-85599819D02*
X189069522Y-85552200D01*
X189069522Y-85552200D02*
X189117141Y-85456961D01*
X189117141Y-85456961D02*
X189117141Y-85076009D01*
X189117141Y-85076009D02*
X189069522Y-84980771D01*
X189069522Y-84980771D02*
X188974284Y-84933152D01*
X188974284Y-84933152D02*
X188783808Y-84933152D01*
X188783808Y-84933152D02*
X188688570Y-84980771D01*
X188688570Y-84980771D02*
X188640951Y-85076009D01*
X188640951Y-85076009D02*
X188640951Y-85171247D01*
X188640951Y-85171247D02*
X189117141Y-85266485D01*
X188212379Y-85599819D02*
X188212379Y-84933152D01*
X188212379Y-85028390D02*
X188164760Y-84980771D01*
X188164760Y-84980771D02*
X188069522Y-84933152D01*
X188069522Y-84933152D02*
X187926665Y-84933152D01*
X187926665Y-84933152D02*
X187831427Y-84980771D01*
X187831427Y-84980771D02*
X187783808Y-85076009D01*
X187783808Y-85076009D02*
X187783808Y-85599819D01*
X187783808Y-85076009D02*
X187736189Y-84980771D01*
X187736189Y-84980771D02*
X187640951Y-84933152D01*
X187640951Y-84933152D02*
X187498094Y-84933152D01*
X187498094Y-84933152D02*
X187402855Y-84980771D01*
X187402855Y-84980771D02*
X187355236Y-85076009D01*
X187355236Y-85076009D02*
X187355236Y-85599819D01*
X186926665Y-85552200D02*
X186831427Y-85599819D01*
X186831427Y-85599819D02*
X186640951Y-85599819D01*
X186640951Y-85599819D02*
X186545713Y-85552200D01*
X186545713Y-85552200D02*
X186498094Y-85456961D01*
X186498094Y-85456961D02*
X186498094Y-85409342D01*
X186498094Y-85409342D02*
X186545713Y-85314104D01*
X186545713Y-85314104D02*
X186640951Y-85266485D01*
X186640951Y-85266485D02*
X186783808Y-85266485D01*
X186783808Y-85266485D02*
X186879046Y-85218866D01*
X186879046Y-85218866D02*
X186926665Y-85123628D01*
X186926665Y-85123628D02*
X186926665Y-85076009D01*
X186926665Y-85076009D02*
X186879046Y-84980771D01*
X186879046Y-84980771D02*
X186783808Y-84933152D01*
X186783808Y-84933152D02*
X186640951Y-84933152D01*
X186640951Y-84933152D02*
X186545713Y-84980771D01*
X185307617Y-85599819D02*
X185307617Y-84599819D01*
X185307617Y-84599819D02*
X185069522Y-84599819D01*
X185069522Y-84599819D02*
X184926665Y-84647438D01*
X184926665Y-84647438D02*
X184831427Y-84742676D01*
X184831427Y-84742676D02*
X184783808Y-84837914D01*
X184783808Y-84837914D02*
X184736189Y-85028390D01*
X184736189Y-85028390D02*
X184736189Y-85171247D01*
X184736189Y-85171247D02*
X184783808Y-85361723D01*
X184783808Y-85361723D02*
X184831427Y-85456961D01*
X184831427Y-85456961D02*
X184926665Y-85552200D01*
X184926665Y-85552200D02*
X185069522Y-85599819D01*
X185069522Y-85599819D02*
X185307617Y-85599819D01*
X183926665Y-85552200D02*
X184021903Y-85599819D01*
X184021903Y-85599819D02*
X184212379Y-85599819D01*
X184212379Y-85599819D02*
X184307617Y-85552200D01*
X184307617Y-85552200D02*
X184355236Y-85456961D01*
X184355236Y-85456961D02*
X184355236Y-85076009D01*
X184355236Y-85076009D02*
X184307617Y-84980771D01*
X184307617Y-84980771D02*
X184212379Y-84933152D01*
X184212379Y-84933152D02*
X184021903Y-84933152D01*
X184021903Y-84933152D02*
X183926665Y-84980771D01*
X183926665Y-84980771D02*
X183879046Y-85076009D01*
X183879046Y-85076009D02*
X183879046Y-85171247D01*
X183879046Y-85171247D02*
X184355236Y-85266485D01*
X183498093Y-85552200D02*
X183402855Y-85599819D01*
X183402855Y-85599819D02*
X183212379Y-85599819D01*
X183212379Y-85599819D02*
X183117141Y-85552200D01*
X183117141Y-85552200D02*
X183069522Y-85456961D01*
X183069522Y-85456961D02*
X183069522Y-85409342D01*
X183069522Y-85409342D02*
X183117141Y-85314104D01*
X183117141Y-85314104D02*
X183212379Y-85266485D01*
X183212379Y-85266485D02*
X183355236Y-85266485D01*
X183355236Y-85266485D02*
X183450474Y-85218866D01*
X183450474Y-85218866D02*
X183498093Y-85123628D01*
X183498093Y-85123628D02*
X183498093Y-85076009D01*
X183498093Y-85076009D02*
X183450474Y-84980771D01*
X183450474Y-84980771D02*
X183355236Y-84933152D01*
X183355236Y-84933152D02*
X183212379Y-84933152D01*
X183212379Y-84933152D02*
X183117141Y-84980771D01*
X182640950Y-85599819D02*
X182640950Y-84933152D01*
X182640950Y-84599819D02*
X182688569Y-84647438D01*
X182688569Y-84647438D02*
X182640950Y-84695057D01*
X182640950Y-84695057D02*
X182593331Y-84647438D01*
X182593331Y-84647438D02*
X182640950Y-84599819D01*
X182640950Y-84599819D02*
X182640950Y-84695057D01*
X181736189Y-84933152D02*
X181736189Y-85742676D01*
X181736189Y-85742676D02*
X181783808Y-85837914D01*
X181783808Y-85837914D02*
X181831427Y-85885533D01*
X181831427Y-85885533D02*
X181926665Y-85933152D01*
X181926665Y-85933152D02*
X182069522Y-85933152D01*
X182069522Y-85933152D02*
X182164760Y-85885533D01*
X181736189Y-85552200D02*
X181831427Y-85599819D01*
X181831427Y-85599819D02*
X182021903Y-85599819D01*
X182021903Y-85599819D02*
X182117141Y-85552200D01*
X182117141Y-85552200D02*
X182164760Y-85504580D01*
X182164760Y-85504580D02*
X182212379Y-85409342D01*
X182212379Y-85409342D02*
X182212379Y-85123628D01*
X182212379Y-85123628D02*
X182164760Y-85028390D01*
X182164760Y-85028390D02*
X182117141Y-84980771D01*
X182117141Y-84980771D02*
X182021903Y-84933152D01*
X182021903Y-84933152D02*
X181831427Y-84933152D01*
X181831427Y-84933152D02*
X181736189Y-84980771D01*
X181259998Y-84933152D02*
X181259998Y-85599819D01*
X181259998Y-85028390D02*
X181212379Y-84980771D01*
X181212379Y-84980771D02*
X181117141Y-84933152D01*
X181117141Y-84933152D02*
X180974284Y-84933152D01*
X180974284Y-84933152D02*
X180879046Y-84980771D01*
X180879046Y-84980771D02*
X180831427Y-85076009D01*
X180831427Y-85076009D02*
X180831427Y-85599819D01*
X199188572Y-87114580D02*
X199236191Y-87162200D01*
X199236191Y-87162200D02*
X199379048Y-87209819D01*
X199379048Y-87209819D02*
X199474286Y-87209819D01*
X199474286Y-87209819D02*
X199617143Y-87162200D01*
X199617143Y-87162200D02*
X199712381Y-87066961D01*
X199712381Y-87066961D02*
X199760000Y-86971723D01*
X199760000Y-86971723D02*
X199807619Y-86781247D01*
X199807619Y-86781247D02*
X199807619Y-86638390D01*
X199807619Y-86638390D02*
X199760000Y-86447914D01*
X199760000Y-86447914D02*
X199712381Y-86352676D01*
X199712381Y-86352676D02*
X199617143Y-86257438D01*
X199617143Y-86257438D02*
X199474286Y-86209819D01*
X199474286Y-86209819D02*
X199379048Y-86209819D01*
X199379048Y-86209819D02*
X199236191Y-86257438D01*
X199236191Y-86257438D02*
X199188572Y-86305057D01*
X198617143Y-87209819D02*
X198712381Y-87162200D01*
X198712381Y-87162200D02*
X198760000Y-87114580D01*
X198760000Y-87114580D02*
X198807619Y-87019342D01*
X198807619Y-87019342D02*
X198807619Y-86733628D01*
X198807619Y-86733628D02*
X198760000Y-86638390D01*
X198760000Y-86638390D02*
X198712381Y-86590771D01*
X198712381Y-86590771D02*
X198617143Y-86543152D01*
X198617143Y-86543152D02*
X198474286Y-86543152D01*
X198474286Y-86543152D02*
X198379048Y-86590771D01*
X198379048Y-86590771D02*
X198331429Y-86638390D01*
X198331429Y-86638390D02*
X198283810Y-86733628D01*
X198283810Y-86733628D02*
X198283810Y-87019342D01*
X198283810Y-87019342D02*
X198331429Y-87114580D01*
X198331429Y-87114580D02*
X198379048Y-87162200D01*
X198379048Y-87162200D02*
X198474286Y-87209819D01*
X198474286Y-87209819D02*
X198617143Y-87209819D01*
X197855238Y-86543152D02*
X197855238Y-87209819D01*
X197855238Y-86638390D02*
X197807619Y-86590771D01*
X197807619Y-86590771D02*
X197712381Y-86543152D01*
X197712381Y-86543152D02*
X197569524Y-86543152D01*
X197569524Y-86543152D02*
X197474286Y-86590771D01*
X197474286Y-86590771D02*
X197426667Y-86686009D01*
X197426667Y-86686009D02*
X197426667Y-87209819D01*
X196950476Y-86543152D02*
X196950476Y-87209819D01*
X196950476Y-86638390D02*
X196902857Y-86590771D01*
X196902857Y-86590771D02*
X196807619Y-86543152D01*
X196807619Y-86543152D02*
X196664762Y-86543152D01*
X196664762Y-86543152D02*
X196569524Y-86590771D01*
X196569524Y-86590771D02*
X196521905Y-86686009D01*
X196521905Y-86686009D02*
X196521905Y-87209819D01*
X195664762Y-87162200D02*
X195760000Y-87209819D01*
X195760000Y-87209819D02*
X195950476Y-87209819D01*
X195950476Y-87209819D02*
X196045714Y-87162200D01*
X196045714Y-87162200D02*
X196093333Y-87066961D01*
X196093333Y-87066961D02*
X196093333Y-86686009D01*
X196093333Y-86686009D02*
X196045714Y-86590771D01*
X196045714Y-86590771D02*
X195950476Y-86543152D01*
X195950476Y-86543152D02*
X195760000Y-86543152D01*
X195760000Y-86543152D02*
X195664762Y-86590771D01*
X195664762Y-86590771D02*
X195617143Y-86686009D01*
X195617143Y-86686009D02*
X195617143Y-86781247D01*
X195617143Y-86781247D02*
X196093333Y-86876485D01*
X194760000Y-87162200D02*
X194855238Y-87209819D01*
X194855238Y-87209819D02*
X195045714Y-87209819D01*
X195045714Y-87209819D02*
X195140952Y-87162200D01*
X195140952Y-87162200D02*
X195188571Y-87114580D01*
X195188571Y-87114580D02*
X195236190Y-87019342D01*
X195236190Y-87019342D02*
X195236190Y-86733628D01*
X195236190Y-86733628D02*
X195188571Y-86638390D01*
X195188571Y-86638390D02*
X195140952Y-86590771D01*
X195140952Y-86590771D02*
X195045714Y-86543152D01*
X195045714Y-86543152D02*
X194855238Y-86543152D01*
X194855238Y-86543152D02*
X194760000Y-86590771D01*
X194474285Y-86543152D02*
X194093333Y-86543152D01*
X194331428Y-86209819D02*
X194331428Y-87066961D01*
X194331428Y-87066961D02*
X194283809Y-87162200D01*
X194283809Y-87162200D02*
X194188571Y-87209819D01*
X194188571Y-87209819D02*
X194093333Y-87209819D01*
X193426666Y-86686009D02*
X193283809Y-86733628D01*
X193283809Y-86733628D02*
X193236190Y-86781247D01*
X193236190Y-86781247D02*
X193188571Y-86876485D01*
X193188571Y-86876485D02*
X193188571Y-87019342D01*
X193188571Y-87019342D02*
X193236190Y-87114580D01*
X193236190Y-87114580D02*
X193283809Y-87162200D01*
X193283809Y-87162200D02*
X193379047Y-87209819D01*
X193379047Y-87209819D02*
X193759999Y-87209819D01*
X193759999Y-87209819D02*
X193759999Y-86209819D01*
X193759999Y-86209819D02*
X193426666Y-86209819D01*
X193426666Y-86209819D02*
X193331428Y-86257438D01*
X193331428Y-86257438D02*
X193283809Y-86305057D01*
X193283809Y-86305057D02*
X193236190Y-86400295D01*
X193236190Y-86400295D02*
X193236190Y-86495533D01*
X193236190Y-86495533D02*
X193283809Y-86590771D01*
X193283809Y-86590771D02*
X193331428Y-86638390D01*
X193331428Y-86638390D02*
X193426666Y-86686009D01*
X193426666Y-86686009D02*
X193759999Y-86686009D01*
X192617142Y-87209819D02*
X192712380Y-87162200D01*
X192712380Y-87162200D02*
X192759999Y-87114580D01*
X192759999Y-87114580D02*
X192807618Y-87019342D01*
X192807618Y-87019342D02*
X192807618Y-86733628D01*
X192807618Y-86733628D02*
X192759999Y-86638390D01*
X192759999Y-86638390D02*
X192712380Y-86590771D01*
X192712380Y-86590771D02*
X192617142Y-86543152D01*
X192617142Y-86543152D02*
X192474285Y-86543152D01*
X192474285Y-86543152D02*
X192379047Y-86590771D01*
X192379047Y-86590771D02*
X192331428Y-86638390D01*
X192331428Y-86638390D02*
X192283809Y-86733628D01*
X192283809Y-86733628D02*
X192283809Y-87019342D01*
X192283809Y-87019342D02*
X192331428Y-87114580D01*
X192331428Y-87114580D02*
X192379047Y-87162200D01*
X192379047Y-87162200D02*
X192474285Y-87209819D01*
X192474285Y-87209819D02*
X192617142Y-87209819D01*
X191950475Y-87209819D02*
X191426666Y-86543152D01*
X191950475Y-86543152D02*
X191426666Y-87209819D01*
X190283808Y-86828866D02*
X189521904Y-86828866D01*
X188426665Y-86209819D02*
X188093332Y-87209819D01*
X188093332Y-87209819D02*
X187759999Y-86209819D01*
X187045713Y-87162200D02*
X187140951Y-87209819D01*
X187140951Y-87209819D02*
X187331427Y-87209819D01*
X187331427Y-87209819D02*
X187426665Y-87162200D01*
X187426665Y-87162200D02*
X187474284Y-87066961D01*
X187474284Y-87066961D02*
X187474284Y-86686009D01*
X187474284Y-86686009D02*
X187426665Y-86590771D01*
X187426665Y-86590771D02*
X187331427Y-86543152D01*
X187331427Y-86543152D02*
X187140951Y-86543152D01*
X187140951Y-86543152D02*
X187045713Y-86590771D01*
X187045713Y-86590771D02*
X186998094Y-86686009D01*
X186998094Y-86686009D02*
X186998094Y-86781247D01*
X186998094Y-86781247D02*
X187474284Y-86876485D01*
X186569522Y-87209819D02*
X186569522Y-86543152D01*
X186569522Y-86733628D02*
X186521903Y-86638390D01*
X186521903Y-86638390D02*
X186474284Y-86590771D01*
X186474284Y-86590771D02*
X186379046Y-86543152D01*
X186379046Y-86543152D02*
X186283808Y-86543152D01*
X185998093Y-87162200D02*
X185902855Y-87209819D01*
X185902855Y-87209819D02*
X185712379Y-87209819D01*
X185712379Y-87209819D02*
X185617141Y-87162200D01*
X185617141Y-87162200D02*
X185569522Y-87066961D01*
X185569522Y-87066961D02*
X185569522Y-87019342D01*
X185569522Y-87019342D02*
X185617141Y-86924104D01*
X185617141Y-86924104D02*
X185712379Y-86876485D01*
X185712379Y-86876485D02*
X185855236Y-86876485D01*
X185855236Y-86876485D02*
X185950474Y-86828866D01*
X185950474Y-86828866D02*
X185998093Y-86733628D01*
X185998093Y-86733628D02*
X185998093Y-86686009D01*
X185998093Y-86686009D02*
X185950474Y-86590771D01*
X185950474Y-86590771D02*
X185855236Y-86543152D01*
X185855236Y-86543152D02*
X185712379Y-86543152D01*
X185712379Y-86543152D02*
X185617141Y-86590771D01*
X185140950Y-87209819D02*
X185140950Y-86543152D01*
X185140950Y-86209819D02*
X185188569Y-86257438D01*
X185188569Y-86257438D02*
X185140950Y-86305057D01*
X185140950Y-86305057D02*
X185093331Y-86257438D01*
X185093331Y-86257438D02*
X185140950Y-86209819D01*
X185140950Y-86209819D02*
X185140950Y-86305057D01*
X184521903Y-87209819D02*
X184617141Y-87162200D01*
X184617141Y-87162200D02*
X184664760Y-87114580D01*
X184664760Y-87114580D02*
X184712379Y-87019342D01*
X184712379Y-87019342D02*
X184712379Y-86733628D01*
X184712379Y-86733628D02*
X184664760Y-86638390D01*
X184664760Y-86638390D02*
X184617141Y-86590771D01*
X184617141Y-86590771D02*
X184521903Y-86543152D01*
X184521903Y-86543152D02*
X184379046Y-86543152D01*
X184379046Y-86543152D02*
X184283808Y-86590771D01*
X184283808Y-86590771D02*
X184236189Y-86638390D01*
X184236189Y-86638390D02*
X184188570Y-86733628D01*
X184188570Y-86733628D02*
X184188570Y-87019342D01*
X184188570Y-87019342D02*
X184236189Y-87114580D01*
X184236189Y-87114580D02*
X184283808Y-87162200D01*
X184283808Y-87162200D02*
X184379046Y-87209819D01*
X184379046Y-87209819D02*
X184521903Y-87209819D01*
X183759998Y-86543152D02*
X183759998Y-87209819D01*
X183759998Y-86638390D02*
X183712379Y-86590771D01*
X183712379Y-86590771D02*
X183617141Y-86543152D01*
X183617141Y-86543152D02*
X183474284Y-86543152D01*
X183474284Y-86543152D02*
X183379046Y-86590771D01*
X183379046Y-86590771D02*
X183331427Y-86686009D01*
X183331427Y-86686009D02*
X183331427Y-87209819D01*
X181950474Y-86638390D02*
X182045712Y-86590771D01*
X182045712Y-86590771D02*
X182093331Y-86543152D01*
X182093331Y-86543152D02*
X182140950Y-86447914D01*
X182140950Y-86447914D02*
X182140950Y-86400295D01*
X182140950Y-86400295D02*
X182093331Y-86305057D01*
X182093331Y-86305057D02*
X182045712Y-86257438D01*
X182045712Y-86257438D02*
X181950474Y-86209819D01*
X181950474Y-86209819D02*
X181759998Y-86209819D01*
X181759998Y-86209819D02*
X181664760Y-86257438D01*
X181664760Y-86257438D02*
X181617141Y-86305057D01*
X181617141Y-86305057D02*
X181569522Y-86400295D01*
X181569522Y-86400295D02*
X181569522Y-86447914D01*
X181569522Y-86447914D02*
X181617141Y-86543152D01*
X181617141Y-86543152D02*
X181664760Y-86590771D01*
X181664760Y-86590771D02*
X181759998Y-86638390D01*
X181759998Y-86638390D02*
X181950474Y-86638390D01*
X181950474Y-86638390D02*
X182045712Y-86686009D01*
X182045712Y-86686009D02*
X182093331Y-86733628D01*
X182093331Y-86733628D02*
X182140950Y-86828866D01*
X182140950Y-86828866D02*
X182140950Y-87019342D01*
X182140950Y-87019342D02*
X182093331Y-87114580D01*
X182093331Y-87114580D02*
X182045712Y-87162200D01*
X182045712Y-87162200D02*
X181950474Y-87209819D01*
X181950474Y-87209819D02*
X181759998Y-87209819D01*
X181759998Y-87209819D02*
X181664760Y-87162200D01*
X181664760Y-87162200D02*
X181617141Y-87114580D01*
X181617141Y-87114580D02*
X181569522Y-87019342D01*
X181569522Y-87019342D02*
X181569522Y-86828866D01*
X181569522Y-86828866D02*
X181617141Y-86733628D01*
X181617141Y-86733628D02*
X181664760Y-86686009D01*
X181664760Y-86686009D02*
X181759998Y-86638390D01*
X181140950Y-87114580D02*
X181093331Y-87162200D01*
X181093331Y-87162200D02*
X181140950Y-87209819D01*
X181140950Y-87209819D02*
X181188569Y-87162200D01*
X181188569Y-87162200D02*
X181140950Y-87114580D01*
X181140950Y-87114580D02*
X181140950Y-87209819D01*
X180759998Y-86209819D02*
X180140951Y-86209819D01*
X180140951Y-86209819D02*
X180474284Y-86590771D01*
X180474284Y-86590771D02*
X180331427Y-86590771D01*
X180331427Y-86590771D02*
X180236189Y-86638390D01*
X180236189Y-86638390D02*
X180188570Y-86686009D01*
X180188570Y-86686009D02*
X180140951Y-86781247D01*
X180140951Y-86781247D02*
X180140951Y-87019342D01*
X180140951Y-87019342D02*
X180188570Y-87114580D01*
X180188570Y-87114580D02*
X180236189Y-87162200D01*
X180236189Y-87162200D02*
X180331427Y-87209819D01*
X180331427Y-87209819D02*
X180617141Y-87209819D01*
X180617141Y-87209819D02*
X180712379Y-87162200D01*
X180712379Y-87162200D02*
X180759998Y-87114580D01*
X179712379Y-87114580D02*
X179664760Y-87162200D01*
X179664760Y-87162200D02*
X179712379Y-87209819D01*
X179712379Y-87209819D02*
X179759998Y-87162200D01*
X179759998Y-87162200D02*
X179712379Y-87114580D01*
X179712379Y-87114580D02*
X179712379Y-87209819D01*
X178712380Y-87209819D02*
X179283808Y-87209819D01*
X178998094Y-87209819D02*
X178998094Y-86209819D01*
X178998094Y-86209819D02*
X179093332Y-86352676D01*
X179093332Y-86352676D02*
X179188570Y-86447914D01*
X179188570Y-86447914D02*
X179283808Y-86495533D01*
X190974285Y-89200771D02*
X191021904Y-89153152D01*
X191021904Y-89153152D02*
X191117142Y-89010295D01*
X191117142Y-89010295D02*
X191164761Y-88915057D01*
X191164761Y-88915057D02*
X191212380Y-88772200D01*
X191212380Y-88772200D02*
X191259999Y-88534104D01*
X191259999Y-88534104D02*
X191259999Y-88343628D01*
X191259999Y-88343628D02*
X191212380Y-88105533D01*
X191212380Y-88105533D02*
X191164761Y-87962676D01*
X191164761Y-87962676D02*
X191117142Y-87867438D01*
X191117142Y-87867438D02*
X191021904Y-87724580D01*
X191021904Y-87724580D02*
X190974285Y-87676961D01*
X190164761Y-88772200D02*
X190259999Y-88819819D01*
X190259999Y-88819819D02*
X190450475Y-88819819D01*
X190450475Y-88819819D02*
X190545713Y-88772200D01*
X190545713Y-88772200D02*
X190593332Y-88724580D01*
X190593332Y-88724580D02*
X190640951Y-88629342D01*
X190640951Y-88629342D02*
X190640951Y-88343628D01*
X190640951Y-88343628D02*
X190593332Y-88248390D01*
X190593332Y-88248390D02*
X190545713Y-88200771D01*
X190545713Y-88200771D02*
X190450475Y-88153152D01*
X190450475Y-88153152D02*
X190259999Y-88153152D01*
X190259999Y-88153152D02*
X190164761Y-88200771D01*
X189831427Y-89200771D02*
X189783808Y-89153152D01*
X189783808Y-89153152D02*
X189688570Y-89010295D01*
X189688570Y-89010295D02*
X189640951Y-88915057D01*
X189640951Y-88915057D02*
X189593332Y-88772200D01*
X189593332Y-88772200D02*
X189545713Y-88534104D01*
X189545713Y-88534104D02*
X189545713Y-88343628D01*
X189545713Y-88343628D02*
X189593332Y-88105533D01*
X189593332Y-88105533D02*
X189640951Y-87962676D01*
X189640951Y-87962676D02*
X189688570Y-87867438D01*
X189688570Y-87867438D02*
X189783808Y-87724580D01*
X189783808Y-87724580D02*
X189831427Y-87676961D01*
X189117141Y-87915057D02*
X189069522Y-87867438D01*
X189069522Y-87867438D02*
X188974284Y-87819819D01*
X188974284Y-87819819D02*
X188736189Y-87819819D01*
X188736189Y-87819819D02*
X188640951Y-87867438D01*
X188640951Y-87867438D02*
X188593332Y-87915057D01*
X188593332Y-87915057D02*
X188545713Y-88010295D01*
X188545713Y-88010295D02*
X188545713Y-88105533D01*
X188545713Y-88105533D02*
X188593332Y-88248390D01*
X188593332Y-88248390D02*
X189164760Y-88819819D01*
X189164760Y-88819819D02*
X188545713Y-88819819D01*
X187926665Y-87819819D02*
X187831427Y-87819819D01*
X187831427Y-87819819D02*
X187736189Y-87867438D01*
X187736189Y-87867438D02*
X187688570Y-87915057D01*
X187688570Y-87915057D02*
X187640951Y-88010295D01*
X187640951Y-88010295D02*
X187593332Y-88200771D01*
X187593332Y-88200771D02*
X187593332Y-88438866D01*
X187593332Y-88438866D02*
X187640951Y-88629342D01*
X187640951Y-88629342D02*
X187688570Y-88724580D01*
X187688570Y-88724580D02*
X187736189Y-88772200D01*
X187736189Y-88772200D02*
X187831427Y-88819819D01*
X187831427Y-88819819D02*
X187926665Y-88819819D01*
X187926665Y-88819819D02*
X188021903Y-88772200D01*
X188021903Y-88772200D02*
X188069522Y-88724580D01*
X188069522Y-88724580D02*
X188117141Y-88629342D01*
X188117141Y-88629342D02*
X188164760Y-88438866D01*
X188164760Y-88438866D02*
X188164760Y-88200771D01*
X188164760Y-88200771D02*
X188117141Y-88010295D01*
X188117141Y-88010295D02*
X188069522Y-87915057D01*
X188069522Y-87915057D02*
X188021903Y-87867438D01*
X188021903Y-87867438D02*
X187926665Y-87819819D01*
X187212379Y-87915057D02*
X187164760Y-87867438D01*
X187164760Y-87867438D02*
X187069522Y-87819819D01*
X187069522Y-87819819D02*
X186831427Y-87819819D01*
X186831427Y-87819819D02*
X186736189Y-87867438D01*
X186736189Y-87867438D02*
X186688570Y-87915057D01*
X186688570Y-87915057D02*
X186640951Y-88010295D01*
X186640951Y-88010295D02*
X186640951Y-88105533D01*
X186640951Y-88105533D02*
X186688570Y-88248390D01*
X186688570Y-88248390D02*
X187259998Y-88819819D01*
X187259998Y-88819819D02*
X186640951Y-88819819D01*
X186307617Y-87819819D02*
X185688570Y-87819819D01*
X185688570Y-87819819D02*
X186021903Y-88200771D01*
X186021903Y-88200771D02*
X185879046Y-88200771D01*
X185879046Y-88200771D02*
X185783808Y-88248390D01*
X185783808Y-88248390D02*
X185736189Y-88296009D01*
X185736189Y-88296009D02*
X185688570Y-88391247D01*
X185688570Y-88391247D02*
X185688570Y-88629342D01*
X185688570Y-88629342D02*
X185736189Y-88724580D01*
X185736189Y-88724580D02*
X185783808Y-88772200D01*
X185783808Y-88772200D02*
X185879046Y-88819819D01*
X185879046Y-88819819D02*
X186164760Y-88819819D01*
X186164760Y-88819819D02*
X186259998Y-88772200D01*
X186259998Y-88772200D02*
X186307617Y-88724580D01*
D11*
X168768095Y-113750161D02*
X168672857Y-113797780D01*
X168672857Y-113797780D02*
X168530000Y-113797780D01*
X168530000Y-113797780D02*
X168387143Y-113750161D01*
X168387143Y-113750161D02*
X168291905Y-113654923D01*
X168291905Y-113654923D02*
X168244286Y-113559685D01*
X168244286Y-113559685D02*
X168196667Y-113369209D01*
X168196667Y-113369209D02*
X168196667Y-113226352D01*
X168196667Y-113226352D02*
X168244286Y-113035876D01*
X168244286Y-113035876D02*
X168291905Y-112940638D01*
X168291905Y-112940638D02*
X168387143Y-112845400D01*
X168387143Y-112845400D02*
X168530000Y-112797780D01*
X168530000Y-112797780D02*
X168625238Y-112797780D01*
X168625238Y-112797780D02*
X168768095Y-112845400D01*
X168768095Y-112845400D02*
X168815714Y-112893019D01*
X168815714Y-112893019D02*
X168815714Y-113226352D01*
X168815714Y-113226352D02*
X168625238Y-113226352D01*
X169244286Y-112797780D02*
X169244286Y-113797780D01*
X169244286Y-113797780D02*
X169815714Y-112797780D01*
X169815714Y-112797780D02*
X169815714Y-113797780D01*
X170291905Y-112797780D02*
X170291905Y-113797780D01*
X170291905Y-113797780D02*
X170530000Y-113797780D01*
X170530000Y-113797780D02*
X170672857Y-113750161D01*
X170672857Y-113750161D02*
X170768095Y-113654923D01*
X170768095Y-113654923D02*
X170815714Y-113559685D01*
X170815714Y-113559685D02*
X170863333Y-113369209D01*
X170863333Y-113369209D02*
X170863333Y-113226352D01*
X170863333Y-113226352D02*
X170815714Y-113035876D01*
X170815714Y-113035876D02*
X170768095Y-112940638D01*
X170768095Y-112940638D02*
X170672857Y-112845400D01*
X170672857Y-112845400D02*
X170530000Y-112797780D01*
X170530000Y-112797780D02*
X170291905Y-112797780D01*
D12*
X180737142Y-118519514D02*
X180794285Y-118490942D01*
X180794285Y-118490942D02*
X180851428Y-118433800D01*
X180851428Y-118433800D02*
X180937142Y-118348085D01*
X180937142Y-118348085D02*
X180994285Y-118319514D01*
X180994285Y-118319514D02*
X181051428Y-118319514D01*
X181022857Y-118462371D02*
X181080000Y-118433800D01*
X181080000Y-118433800D02*
X181137142Y-118376657D01*
X181137142Y-118376657D02*
X181165714Y-118262371D01*
X181165714Y-118262371D02*
X181165714Y-118062371D01*
X181165714Y-118062371D02*
X181137142Y-117948085D01*
X181137142Y-117948085D02*
X181080000Y-117890942D01*
X181080000Y-117890942D02*
X181022857Y-117862371D01*
X181022857Y-117862371D02*
X180908571Y-117862371D01*
X180908571Y-117862371D02*
X180851428Y-117890942D01*
X180851428Y-117890942D02*
X180794285Y-117948085D01*
X180794285Y-117948085D02*
X180765714Y-118062371D01*
X180765714Y-118062371D02*
X180765714Y-118262371D01*
X180765714Y-118262371D02*
X180794285Y-118376657D01*
X180794285Y-118376657D02*
X180851428Y-118433800D01*
X180851428Y-118433800D02*
X180908571Y-118462371D01*
X180908571Y-118462371D02*
X181022857Y-118462371D01*
X180251429Y-118062371D02*
X180251429Y-118462371D01*
X180394286Y-117833800D02*
X180537143Y-118262371D01*
X180537143Y-118262371D02*
X180165714Y-118262371D01*
X218155714Y-53632371D02*
X218355714Y-53346657D01*
X218498571Y-53632371D02*
X218498571Y-53032371D01*
X218498571Y-53032371D02*
X218270000Y-53032371D01*
X218270000Y-53032371D02*
X218212857Y-53060942D01*
X218212857Y-53060942D02*
X218184286Y-53089514D01*
X218184286Y-53089514D02*
X218155714Y-53146657D01*
X218155714Y-53146657D02*
X218155714Y-53232371D01*
X218155714Y-53232371D02*
X218184286Y-53289514D01*
X218184286Y-53289514D02*
X218212857Y-53318085D01*
X218212857Y-53318085D02*
X218270000Y-53346657D01*
X218270000Y-53346657D02*
X218498571Y-53346657D01*
X217955714Y-53032371D02*
X217584286Y-53032371D01*
X217584286Y-53032371D02*
X217784286Y-53260942D01*
X217784286Y-53260942D02*
X217698571Y-53260942D01*
X217698571Y-53260942D02*
X217641429Y-53289514D01*
X217641429Y-53289514D02*
X217612857Y-53318085D01*
X217612857Y-53318085D02*
X217584286Y-53375228D01*
X217584286Y-53375228D02*
X217584286Y-53518085D01*
X217584286Y-53518085D02*
X217612857Y-53575228D01*
X217612857Y-53575228D02*
X217641429Y-53603800D01*
X217641429Y-53603800D02*
X217698571Y-53632371D01*
X217698571Y-53632371D02*
X217870000Y-53632371D01*
X217870000Y-53632371D02*
X217927143Y-53603800D01*
X217927143Y-53603800D02*
X217955714Y-53575228D01*
X217070000Y-53232371D02*
X217070000Y-53632371D01*
X217212857Y-53003800D02*
X217355714Y-53432371D01*
X217355714Y-53432371D02*
X216984285Y-53432371D01*
X209515714Y-113202371D02*
X209715714Y-112916657D01*
X209858571Y-113202371D02*
X209858571Y-112602371D01*
X209858571Y-112602371D02*
X209630000Y-112602371D01*
X209630000Y-112602371D02*
X209572857Y-112630942D01*
X209572857Y-112630942D02*
X209544286Y-112659514D01*
X209544286Y-112659514D02*
X209515714Y-112716657D01*
X209515714Y-112716657D02*
X209515714Y-112802371D01*
X209515714Y-112802371D02*
X209544286Y-112859514D01*
X209544286Y-112859514D02*
X209572857Y-112888085D01*
X209572857Y-112888085D02*
X209630000Y-112916657D01*
X209630000Y-112916657D02*
X209858571Y-112916657D01*
X209315714Y-112602371D02*
X208944286Y-112602371D01*
X208944286Y-112602371D02*
X209144286Y-112830942D01*
X209144286Y-112830942D02*
X209058571Y-112830942D01*
X209058571Y-112830942D02*
X209001429Y-112859514D01*
X209001429Y-112859514D02*
X208972857Y-112888085D01*
X208972857Y-112888085D02*
X208944286Y-112945228D01*
X208944286Y-112945228D02*
X208944286Y-113088085D01*
X208944286Y-113088085D02*
X208972857Y-113145228D01*
X208972857Y-113145228D02*
X209001429Y-113173800D01*
X209001429Y-113173800D02*
X209058571Y-113202371D01*
X209058571Y-113202371D02*
X209230000Y-113202371D01*
X209230000Y-113202371D02*
X209287143Y-113173800D01*
X209287143Y-113173800D02*
X209315714Y-113145228D01*
X208372857Y-113202371D02*
X208715714Y-113202371D01*
X208544285Y-113202371D02*
X208544285Y-112602371D01*
X208544285Y-112602371D02*
X208601428Y-112688085D01*
X208601428Y-112688085D02*
X208658571Y-112745228D01*
X208658571Y-112745228D02*
X208715714Y-112773800D01*
X201225714Y-108122371D02*
X201425714Y-107836657D01*
X201568571Y-108122371D02*
X201568571Y-107522371D01*
X201568571Y-107522371D02*
X201340000Y-107522371D01*
X201340000Y-107522371D02*
X201282857Y-107550942D01*
X201282857Y-107550942D02*
X201254286Y-107579514D01*
X201254286Y-107579514D02*
X201225714Y-107636657D01*
X201225714Y-107636657D02*
X201225714Y-107722371D01*
X201225714Y-107722371D02*
X201254286Y-107779514D01*
X201254286Y-107779514D02*
X201282857Y-107808085D01*
X201282857Y-107808085D02*
X201340000Y-107836657D01*
X201340000Y-107836657D02*
X201568571Y-107836657D01*
X200997143Y-107579514D02*
X200968571Y-107550942D01*
X200968571Y-107550942D02*
X200911429Y-107522371D01*
X200911429Y-107522371D02*
X200768571Y-107522371D01*
X200768571Y-107522371D02*
X200711429Y-107550942D01*
X200711429Y-107550942D02*
X200682857Y-107579514D01*
X200682857Y-107579514D02*
X200654286Y-107636657D01*
X200654286Y-107636657D02*
X200654286Y-107693800D01*
X200654286Y-107693800D02*
X200682857Y-107779514D01*
X200682857Y-107779514D02*
X201025714Y-108122371D01*
X201025714Y-108122371D02*
X200654286Y-108122371D01*
X200111428Y-107522371D02*
X200397142Y-107522371D01*
X200397142Y-107522371D02*
X200425714Y-107808085D01*
X200425714Y-107808085D02*
X200397142Y-107779514D01*
X200397142Y-107779514D02*
X200340000Y-107750942D01*
X200340000Y-107750942D02*
X200197142Y-107750942D01*
X200197142Y-107750942D02*
X200140000Y-107779514D01*
X200140000Y-107779514D02*
X200111428Y-107808085D01*
X200111428Y-107808085D02*
X200082857Y-107865228D01*
X200082857Y-107865228D02*
X200082857Y-108008085D01*
X200082857Y-108008085D02*
X200111428Y-108065228D01*
X200111428Y-108065228D02*
X200140000Y-108093800D01*
X200140000Y-108093800D02*
X200197142Y-108122371D01*
X200197142Y-108122371D02*
X200340000Y-108122371D01*
X200340000Y-108122371D02*
X200397142Y-108093800D01*
X200397142Y-108093800D02*
X200425714Y-108065228D01*
X204205714Y-117402371D02*
X204405714Y-117116657D01*
X204548571Y-117402371D02*
X204548571Y-116802371D01*
X204548571Y-116802371D02*
X204320000Y-116802371D01*
X204320000Y-116802371D02*
X204262857Y-116830942D01*
X204262857Y-116830942D02*
X204234286Y-116859514D01*
X204234286Y-116859514D02*
X204205714Y-116916657D01*
X204205714Y-116916657D02*
X204205714Y-117002371D01*
X204205714Y-117002371D02*
X204234286Y-117059514D01*
X204234286Y-117059514D02*
X204262857Y-117088085D01*
X204262857Y-117088085D02*
X204320000Y-117116657D01*
X204320000Y-117116657D02*
X204548571Y-117116657D01*
X203977143Y-116859514D02*
X203948571Y-116830942D01*
X203948571Y-116830942D02*
X203891429Y-116802371D01*
X203891429Y-116802371D02*
X203748571Y-116802371D01*
X203748571Y-116802371D02*
X203691429Y-116830942D01*
X203691429Y-116830942D02*
X203662857Y-116859514D01*
X203662857Y-116859514D02*
X203634286Y-116916657D01*
X203634286Y-116916657D02*
X203634286Y-116973800D01*
X203634286Y-116973800D02*
X203662857Y-117059514D01*
X203662857Y-117059514D02*
X204005714Y-117402371D01*
X204005714Y-117402371D02*
X203634286Y-117402371D01*
X203120000Y-116802371D02*
X203234285Y-116802371D01*
X203234285Y-116802371D02*
X203291428Y-116830942D01*
X203291428Y-116830942D02*
X203320000Y-116859514D01*
X203320000Y-116859514D02*
X203377142Y-116945228D01*
X203377142Y-116945228D02*
X203405714Y-117059514D01*
X203405714Y-117059514D02*
X203405714Y-117288085D01*
X203405714Y-117288085D02*
X203377142Y-117345228D01*
X203377142Y-117345228D02*
X203348571Y-117373800D01*
X203348571Y-117373800D02*
X203291428Y-117402371D01*
X203291428Y-117402371D02*
X203177142Y-117402371D01*
X203177142Y-117402371D02*
X203120000Y-117373800D01*
X203120000Y-117373800D02*
X203091428Y-117345228D01*
X203091428Y-117345228D02*
X203062857Y-117288085D01*
X203062857Y-117288085D02*
X203062857Y-117145228D01*
X203062857Y-117145228D02*
X203091428Y-117088085D01*
X203091428Y-117088085D02*
X203120000Y-117059514D01*
X203120000Y-117059514D02*
X203177142Y-117030942D01*
X203177142Y-117030942D02*
X203291428Y-117030942D01*
X203291428Y-117030942D02*
X203348571Y-117059514D01*
X203348571Y-117059514D02*
X203377142Y-117088085D01*
X203377142Y-117088085D02*
X203405714Y-117145228D01*
X182032856Y-110262371D02*
X182032856Y-109662371D01*
X182032856Y-109662371D02*
X181889999Y-109662371D01*
X181889999Y-109662371D02*
X181804285Y-109690942D01*
X181804285Y-109690942D02*
X181747142Y-109748085D01*
X181747142Y-109748085D02*
X181718571Y-109805228D01*
X181718571Y-109805228D02*
X181689999Y-109919514D01*
X181689999Y-109919514D02*
X181689999Y-110005228D01*
X181689999Y-110005228D02*
X181718571Y-110119514D01*
X181718571Y-110119514D02*
X181747142Y-110176657D01*
X181747142Y-110176657D02*
X181804285Y-110233800D01*
X181804285Y-110233800D02*
X181889999Y-110262371D01*
X181889999Y-110262371D02*
X182032856Y-110262371D01*
X181175714Y-109662371D02*
X181289999Y-109662371D01*
X181289999Y-109662371D02*
X181347142Y-109690942D01*
X181347142Y-109690942D02*
X181375714Y-109719514D01*
X181375714Y-109719514D02*
X181432856Y-109805228D01*
X181432856Y-109805228D02*
X181461428Y-109919514D01*
X181461428Y-109919514D02*
X181461428Y-110148085D01*
X181461428Y-110148085D02*
X181432856Y-110205228D01*
X181432856Y-110205228D02*
X181404285Y-110233800D01*
X181404285Y-110233800D02*
X181347142Y-110262371D01*
X181347142Y-110262371D02*
X181232856Y-110262371D01*
X181232856Y-110262371D02*
X181175714Y-110233800D01*
X181175714Y-110233800D02*
X181147142Y-110205228D01*
X181147142Y-110205228D02*
X181118571Y-110148085D01*
X181118571Y-110148085D02*
X181118571Y-110005228D01*
X181118571Y-110005228D02*
X181147142Y-109948085D01*
X181147142Y-109948085D02*
X181175714Y-109919514D01*
X181175714Y-109919514D02*
X181232856Y-109890942D01*
X181232856Y-109890942D02*
X181347142Y-109890942D01*
X181347142Y-109890942D02*
X181404285Y-109919514D01*
X181404285Y-109919514D02*
X181432856Y-109948085D01*
X181432856Y-109948085D02*
X181461428Y-110005228D01*
X199427142Y-118709514D02*
X199484285Y-118680942D01*
X199484285Y-118680942D02*
X199541428Y-118623800D01*
X199541428Y-118623800D02*
X199627142Y-118538085D01*
X199627142Y-118538085D02*
X199684285Y-118509514D01*
X199684285Y-118509514D02*
X199741428Y-118509514D01*
X199712857Y-118652371D02*
X199770000Y-118623800D01*
X199770000Y-118623800D02*
X199827142Y-118566657D01*
X199827142Y-118566657D02*
X199855714Y-118452371D01*
X199855714Y-118452371D02*
X199855714Y-118252371D01*
X199855714Y-118252371D02*
X199827142Y-118138085D01*
X199827142Y-118138085D02*
X199770000Y-118080942D01*
X199770000Y-118080942D02*
X199712857Y-118052371D01*
X199712857Y-118052371D02*
X199598571Y-118052371D01*
X199598571Y-118052371D02*
X199541428Y-118080942D01*
X199541428Y-118080942D02*
X199484285Y-118138085D01*
X199484285Y-118138085D02*
X199455714Y-118252371D01*
X199455714Y-118252371D02*
X199455714Y-118452371D01*
X199455714Y-118452371D02*
X199484285Y-118566657D01*
X199484285Y-118566657D02*
X199541428Y-118623800D01*
X199541428Y-118623800D02*
X199598571Y-118652371D01*
X199598571Y-118652371D02*
X199712857Y-118652371D01*
X199227143Y-118109514D02*
X199198571Y-118080942D01*
X199198571Y-118080942D02*
X199141429Y-118052371D01*
X199141429Y-118052371D02*
X198998571Y-118052371D01*
X198998571Y-118052371D02*
X198941429Y-118080942D01*
X198941429Y-118080942D02*
X198912857Y-118109514D01*
X198912857Y-118109514D02*
X198884286Y-118166657D01*
X198884286Y-118166657D02*
X198884286Y-118223800D01*
X198884286Y-118223800D02*
X198912857Y-118309514D01*
X198912857Y-118309514D02*
X199255714Y-118652371D01*
X199255714Y-118652371D02*
X198884286Y-118652371D01*
X211915714Y-60842371D02*
X212115714Y-60556657D01*
X212258571Y-60842371D02*
X212258571Y-60242371D01*
X212258571Y-60242371D02*
X212030000Y-60242371D01*
X212030000Y-60242371D02*
X211972857Y-60270942D01*
X211972857Y-60270942D02*
X211944286Y-60299514D01*
X211944286Y-60299514D02*
X211915714Y-60356657D01*
X211915714Y-60356657D02*
X211915714Y-60442371D01*
X211915714Y-60442371D02*
X211944286Y-60499514D01*
X211944286Y-60499514D02*
X211972857Y-60528085D01*
X211972857Y-60528085D02*
X212030000Y-60556657D01*
X212030000Y-60556657D02*
X212258571Y-60556657D01*
X211715714Y-60242371D02*
X211344286Y-60242371D01*
X211344286Y-60242371D02*
X211544286Y-60470942D01*
X211544286Y-60470942D02*
X211458571Y-60470942D01*
X211458571Y-60470942D02*
X211401429Y-60499514D01*
X211401429Y-60499514D02*
X211372857Y-60528085D01*
X211372857Y-60528085D02*
X211344286Y-60585228D01*
X211344286Y-60585228D02*
X211344286Y-60728085D01*
X211344286Y-60728085D02*
X211372857Y-60785228D01*
X211372857Y-60785228D02*
X211401429Y-60813800D01*
X211401429Y-60813800D02*
X211458571Y-60842371D01*
X211458571Y-60842371D02*
X211630000Y-60842371D01*
X211630000Y-60842371D02*
X211687143Y-60813800D01*
X211687143Y-60813800D02*
X211715714Y-60785228D01*
X210830000Y-60242371D02*
X210944285Y-60242371D01*
X210944285Y-60242371D02*
X211001428Y-60270942D01*
X211001428Y-60270942D02*
X211030000Y-60299514D01*
X211030000Y-60299514D02*
X211087142Y-60385228D01*
X211087142Y-60385228D02*
X211115714Y-60499514D01*
X211115714Y-60499514D02*
X211115714Y-60728085D01*
X211115714Y-60728085D02*
X211087142Y-60785228D01*
X211087142Y-60785228D02*
X211058571Y-60813800D01*
X211058571Y-60813800D02*
X211001428Y-60842371D01*
X211001428Y-60842371D02*
X210887142Y-60842371D01*
X210887142Y-60842371D02*
X210830000Y-60813800D01*
X210830000Y-60813800D02*
X210801428Y-60785228D01*
X210801428Y-60785228D02*
X210772857Y-60728085D01*
X210772857Y-60728085D02*
X210772857Y-60585228D01*
X210772857Y-60585228D02*
X210801428Y-60528085D01*
X210801428Y-60528085D02*
X210830000Y-60499514D01*
X210830000Y-60499514D02*
X210887142Y-60470942D01*
X210887142Y-60470942D02*
X211001428Y-60470942D01*
X211001428Y-60470942D02*
X211058571Y-60499514D01*
X211058571Y-60499514D02*
X211087142Y-60528085D01*
X211087142Y-60528085D02*
X211115714Y-60585228D01*
X213125714Y-58862371D02*
X213325714Y-58576657D01*
X213468571Y-58862371D02*
X213468571Y-58262371D01*
X213468571Y-58262371D02*
X213240000Y-58262371D01*
X213240000Y-58262371D02*
X213182857Y-58290942D01*
X213182857Y-58290942D02*
X213154286Y-58319514D01*
X213154286Y-58319514D02*
X213125714Y-58376657D01*
X213125714Y-58376657D02*
X213125714Y-58462371D01*
X213125714Y-58462371D02*
X213154286Y-58519514D01*
X213154286Y-58519514D02*
X213182857Y-58548085D01*
X213182857Y-58548085D02*
X213240000Y-58576657D01*
X213240000Y-58576657D02*
X213468571Y-58576657D01*
X212925714Y-58262371D02*
X212554286Y-58262371D01*
X212554286Y-58262371D02*
X212754286Y-58490942D01*
X212754286Y-58490942D02*
X212668571Y-58490942D01*
X212668571Y-58490942D02*
X212611429Y-58519514D01*
X212611429Y-58519514D02*
X212582857Y-58548085D01*
X212582857Y-58548085D02*
X212554286Y-58605228D01*
X212554286Y-58605228D02*
X212554286Y-58748085D01*
X212554286Y-58748085D02*
X212582857Y-58805228D01*
X212582857Y-58805228D02*
X212611429Y-58833800D01*
X212611429Y-58833800D02*
X212668571Y-58862371D01*
X212668571Y-58862371D02*
X212840000Y-58862371D01*
X212840000Y-58862371D02*
X212897143Y-58833800D01*
X212897143Y-58833800D02*
X212925714Y-58805228D01*
X212011428Y-58262371D02*
X212297142Y-58262371D01*
X212297142Y-58262371D02*
X212325714Y-58548085D01*
X212325714Y-58548085D02*
X212297142Y-58519514D01*
X212297142Y-58519514D02*
X212240000Y-58490942D01*
X212240000Y-58490942D02*
X212097142Y-58490942D01*
X212097142Y-58490942D02*
X212040000Y-58519514D01*
X212040000Y-58519514D02*
X212011428Y-58548085D01*
X212011428Y-58548085D02*
X211982857Y-58605228D01*
X211982857Y-58605228D02*
X211982857Y-58748085D01*
X211982857Y-58748085D02*
X212011428Y-58805228D01*
X212011428Y-58805228D02*
X212040000Y-58833800D01*
X212040000Y-58833800D02*
X212097142Y-58862371D01*
X212097142Y-58862371D02*
X212240000Y-58862371D01*
X212240000Y-58862371D02*
X212297142Y-58833800D01*
X212297142Y-58833800D02*
X212325714Y-58805228D01*
X177682856Y-110362371D02*
X177682856Y-109762371D01*
X177682856Y-109762371D02*
X177539999Y-109762371D01*
X177539999Y-109762371D02*
X177454285Y-109790942D01*
X177454285Y-109790942D02*
X177397142Y-109848085D01*
X177397142Y-109848085D02*
X177368571Y-109905228D01*
X177368571Y-109905228D02*
X177339999Y-110019514D01*
X177339999Y-110019514D02*
X177339999Y-110105228D01*
X177339999Y-110105228D02*
X177368571Y-110219514D01*
X177368571Y-110219514D02*
X177397142Y-110276657D01*
X177397142Y-110276657D02*
X177454285Y-110333800D01*
X177454285Y-110333800D02*
X177539999Y-110362371D01*
X177539999Y-110362371D02*
X177682856Y-110362371D01*
X177139999Y-109762371D02*
X176739999Y-109762371D01*
X176739999Y-109762371D02*
X176997142Y-110362371D01*
X212812856Y-65962371D02*
X212812856Y-65362371D01*
X212812856Y-65362371D02*
X212584285Y-65362371D01*
X212584285Y-65362371D02*
X212527142Y-65390942D01*
X212527142Y-65390942D02*
X212498571Y-65419514D01*
X212498571Y-65419514D02*
X212469999Y-65476657D01*
X212469999Y-65476657D02*
X212469999Y-65562371D01*
X212469999Y-65562371D02*
X212498571Y-65619514D01*
X212498571Y-65619514D02*
X212527142Y-65648085D01*
X212527142Y-65648085D02*
X212584285Y-65676657D01*
X212584285Y-65676657D02*
X212812856Y-65676657D01*
X212012856Y-65648085D02*
X211927142Y-65676657D01*
X211927142Y-65676657D02*
X211898571Y-65705228D01*
X211898571Y-65705228D02*
X211869999Y-65762371D01*
X211869999Y-65762371D02*
X211869999Y-65848085D01*
X211869999Y-65848085D02*
X211898571Y-65905228D01*
X211898571Y-65905228D02*
X211927142Y-65933800D01*
X211927142Y-65933800D02*
X211984285Y-65962371D01*
X211984285Y-65962371D02*
X212212856Y-65962371D01*
X212212856Y-65962371D02*
X212212856Y-65362371D01*
X212212856Y-65362371D02*
X212012856Y-65362371D01*
X212012856Y-65362371D02*
X211955714Y-65390942D01*
X211955714Y-65390942D02*
X211927142Y-65419514D01*
X211927142Y-65419514D02*
X211898571Y-65476657D01*
X211898571Y-65476657D02*
X211898571Y-65533800D01*
X211898571Y-65533800D02*
X211927142Y-65590942D01*
X211927142Y-65590942D02*
X211955714Y-65619514D01*
X211955714Y-65619514D02*
X212012856Y-65648085D01*
X212012856Y-65648085D02*
X212212856Y-65648085D01*
X211298571Y-65962371D02*
X211641428Y-65962371D01*
X211469999Y-65962371D02*
X211469999Y-65362371D01*
X211469999Y-65362371D02*
X211527142Y-65448085D01*
X211527142Y-65448085D02*
X211584285Y-65505228D01*
X211584285Y-65505228D02*
X211641428Y-65533800D01*
X186745714Y-109502371D02*
X186945714Y-109216657D01*
X187088571Y-109502371D02*
X187088571Y-108902371D01*
X187088571Y-108902371D02*
X186860000Y-108902371D01*
X186860000Y-108902371D02*
X186802857Y-108930942D01*
X186802857Y-108930942D02*
X186774286Y-108959514D01*
X186774286Y-108959514D02*
X186745714Y-109016657D01*
X186745714Y-109016657D02*
X186745714Y-109102371D01*
X186745714Y-109102371D02*
X186774286Y-109159514D01*
X186774286Y-109159514D02*
X186802857Y-109188085D01*
X186802857Y-109188085D02*
X186860000Y-109216657D01*
X186860000Y-109216657D02*
X187088571Y-109216657D01*
X186517143Y-108959514D02*
X186488571Y-108930942D01*
X186488571Y-108930942D02*
X186431429Y-108902371D01*
X186431429Y-108902371D02*
X186288571Y-108902371D01*
X186288571Y-108902371D02*
X186231429Y-108930942D01*
X186231429Y-108930942D02*
X186202857Y-108959514D01*
X186202857Y-108959514D02*
X186174286Y-109016657D01*
X186174286Y-109016657D02*
X186174286Y-109073800D01*
X186174286Y-109073800D02*
X186202857Y-109159514D01*
X186202857Y-109159514D02*
X186545714Y-109502371D01*
X186545714Y-109502371D02*
X186174286Y-109502371D01*
X185831428Y-109159514D02*
X185888571Y-109130942D01*
X185888571Y-109130942D02*
X185917142Y-109102371D01*
X185917142Y-109102371D02*
X185945714Y-109045228D01*
X185945714Y-109045228D02*
X185945714Y-109016657D01*
X185945714Y-109016657D02*
X185917142Y-108959514D01*
X185917142Y-108959514D02*
X185888571Y-108930942D01*
X185888571Y-108930942D02*
X185831428Y-108902371D01*
X185831428Y-108902371D02*
X185717142Y-108902371D01*
X185717142Y-108902371D02*
X185660000Y-108930942D01*
X185660000Y-108930942D02*
X185631428Y-108959514D01*
X185631428Y-108959514D02*
X185602857Y-109016657D01*
X185602857Y-109016657D02*
X185602857Y-109045228D01*
X185602857Y-109045228D02*
X185631428Y-109102371D01*
X185631428Y-109102371D02*
X185660000Y-109130942D01*
X185660000Y-109130942D02*
X185717142Y-109159514D01*
X185717142Y-109159514D02*
X185831428Y-109159514D01*
X185831428Y-109159514D02*
X185888571Y-109188085D01*
X185888571Y-109188085D02*
X185917142Y-109216657D01*
X185917142Y-109216657D02*
X185945714Y-109273800D01*
X185945714Y-109273800D02*
X185945714Y-109388085D01*
X185945714Y-109388085D02*
X185917142Y-109445228D01*
X185917142Y-109445228D02*
X185888571Y-109473800D01*
X185888571Y-109473800D02*
X185831428Y-109502371D01*
X185831428Y-109502371D02*
X185717142Y-109502371D01*
X185717142Y-109502371D02*
X185660000Y-109473800D01*
X185660000Y-109473800D02*
X185631428Y-109445228D01*
X185631428Y-109445228D02*
X185602857Y-109388085D01*
X185602857Y-109388085D02*
X185602857Y-109273800D01*
X185602857Y-109273800D02*
X185631428Y-109216657D01*
X185631428Y-109216657D02*
X185660000Y-109188085D01*
X185660000Y-109188085D02*
X185717142Y-109159514D01*
X203282856Y-114702371D02*
X203282856Y-114102371D01*
X203282856Y-114102371D02*
X203139999Y-114102371D01*
X203139999Y-114102371D02*
X203054285Y-114130942D01*
X203054285Y-114130942D02*
X202997142Y-114188085D01*
X202997142Y-114188085D02*
X202968571Y-114245228D01*
X202968571Y-114245228D02*
X202939999Y-114359514D01*
X202939999Y-114359514D02*
X202939999Y-114445228D01*
X202939999Y-114445228D02*
X202968571Y-114559514D01*
X202968571Y-114559514D02*
X202997142Y-114616657D01*
X202997142Y-114616657D02*
X203054285Y-114673800D01*
X203054285Y-114673800D02*
X203139999Y-114702371D01*
X203139999Y-114702371D02*
X203282856Y-114702371D01*
X202397142Y-114102371D02*
X202682856Y-114102371D01*
X202682856Y-114102371D02*
X202711428Y-114388085D01*
X202711428Y-114388085D02*
X202682856Y-114359514D01*
X202682856Y-114359514D02*
X202625714Y-114330942D01*
X202625714Y-114330942D02*
X202482856Y-114330942D01*
X202482856Y-114330942D02*
X202425714Y-114359514D01*
X202425714Y-114359514D02*
X202397142Y-114388085D01*
X202397142Y-114388085D02*
X202368571Y-114445228D01*
X202368571Y-114445228D02*
X202368571Y-114588085D01*
X202368571Y-114588085D02*
X202397142Y-114645228D01*
X202397142Y-114645228D02*
X202425714Y-114673800D01*
X202425714Y-114673800D02*
X202482856Y-114702371D01*
X202482856Y-114702371D02*
X202625714Y-114702371D01*
X202625714Y-114702371D02*
X202682856Y-114673800D01*
X202682856Y-114673800D02*
X202711428Y-114645228D01*
X187275714Y-116022371D02*
X187475714Y-115736657D01*
X187618571Y-116022371D02*
X187618571Y-115422371D01*
X187618571Y-115422371D02*
X187390000Y-115422371D01*
X187390000Y-115422371D02*
X187332857Y-115450942D01*
X187332857Y-115450942D02*
X187304286Y-115479514D01*
X187304286Y-115479514D02*
X187275714Y-115536657D01*
X187275714Y-115536657D02*
X187275714Y-115622371D01*
X187275714Y-115622371D02*
X187304286Y-115679514D01*
X187304286Y-115679514D02*
X187332857Y-115708085D01*
X187332857Y-115708085D02*
X187390000Y-115736657D01*
X187390000Y-115736657D02*
X187618571Y-115736657D01*
X187075714Y-115422371D02*
X186704286Y-115422371D01*
X186704286Y-115422371D02*
X186904286Y-115650942D01*
X186904286Y-115650942D02*
X186818571Y-115650942D01*
X186818571Y-115650942D02*
X186761429Y-115679514D01*
X186761429Y-115679514D02*
X186732857Y-115708085D01*
X186732857Y-115708085D02*
X186704286Y-115765228D01*
X186704286Y-115765228D02*
X186704286Y-115908085D01*
X186704286Y-115908085D02*
X186732857Y-115965228D01*
X186732857Y-115965228D02*
X186761429Y-115993800D01*
X186761429Y-115993800D02*
X186818571Y-116022371D01*
X186818571Y-116022371D02*
X186990000Y-116022371D01*
X186990000Y-116022371D02*
X187047143Y-115993800D01*
X187047143Y-115993800D02*
X187075714Y-115965228D01*
X186332857Y-115422371D02*
X186275714Y-115422371D01*
X186275714Y-115422371D02*
X186218571Y-115450942D01*
X186218571Y-115450942D02*
X186190000Y-115479514D01*
X186190000Y-115479514D02*
X186161428Y-115536657D01*
X186161428Y-115536657D02*
X186132857Y-115650942D01*
X186132857Y-115650942D02*
X186132857Y-115793800D01*
X186132857Y-115793800D02*
X186161428Y-115908085D01*
X186161428Y-115908085D02*
X186190000Y-115965228D01*
X186190000Y-115965228D02*
X186218571Y-115993800D01*
X186218571Y-115993800D02*
X186275714Y-116022371D01*
X186275714Y-116022371D02*
X186332857Y-116022371D01*
X186332857Y-116022371D02*
X186390000Y-115993800D01*
X186390000Y-115993800D02*
X186418571Y-115965228D01*
X186418571Y-115965228D02*
X186447142Y-115908085D01*
X186447142Y-115908085D02*
X186475714Y-115793800D01*
X186475714Y-115793800D02*
X186475714Y-115650942D01*
X186475714Y-115650942D02*
X186447142Y-115536657D01*
X186447142Y-115536657D02*
X186418571Y-115479514D01*
X186418571Y-115479514D02*
X186390000Y-115450942D01*
X186390000Y-115450942D02*
X186332857Y-115422371D01*
X175085714Y-102932371D02*
X175285714Y-102646657D01*
X175428571Y-102932371D02*
X175428571Y-102332371D01*
X175428571Y-102332371D02*
X175200000Y-102332371D01*
X175200000Y-102332371D02*
X175142857Y-102360942D01*
X175142857Y-102360942D02*
X175114286Y-102389514D01*
X175114286Y-102389514D02*
X175085714Y-102446657D01*
X175085714Y-102446657D02*
X175085714Y-102532371D01*
X175085714Y-102532371D02*
X175114286Y-102589514D01*
X175114286Y-102589514D02*
X175142857Y-102618085D01*
X175142857Y-102618085D02*
X175200000Y-102646657D01*
X175200000Y-102646657D02*
X175428571Y-102646657D01*
X174885714Y-102332371D02*
X174514286Y-102332371D01*
X174514286Y-102332371D02*
X174714286Y-102560942D01*
X174714286Y-102560942D02*
X174628571Y-102560942D01*
X174628571Y-102560942D02*
X174571429Y-102589514D01*
X174571429Y-102589514D02*
X174542857Y-102618085D01*
X174542857Y-102618085D02*
X174514286Y-102675228D01*
X174514286Y-102675228D02*
X174514286Y-102818085D01*
X174514286Y-102818085D02*
X174542857Y-102875228D01*
X174542857Y-102875228D02*
X174571429Y-102903800D01*
X174571429Y-102903800D02*
X174628571Y-102932371D01*
X174628571Y-102932371D02*
X174800000Y-102932371D01*
X174800000Y-102932371D02*
X174857143Y-102903800D01*
X174857143Y-102903800D02*
X174885714Y-102875228D01*
X174285714Y-102389514D02*
X174257142Y-102360942D01*
X174257142Y-102360942D02*
X174200000Y-102332371D01*
X174200000Y-102332371D02*
X174057142Y-102332371D01*
X174057142Y-102332371D02*
X174000000Y-102360942D01*
X174000000Y-102360942D02*
X173971428Y-102389514D01*
X173971428Y-102389514D02*
X173942857Y-102446657D01*
X173942857Y-102446657D02*
X173942857Y-102503800D01*
X173942857Y-102503800D02*
X173971428Y-102589514D01*
X173971428Y-102589514D02*
X174314285Y-102932371D01*
X174314285Y-102932371D02*
X173942857Y-102932371D01*
X179735714Y-116092371D02*
X179935714Y-115806657D01*
X180078571Y-116092371D02*
X180078571Y-115492371D01*
X180078571Y-115492371D02*
X179850000Y-115492371D01*
X179850000Y-115492371D02*
X179792857Y-115520942D01*
X179792857Y-115520942D02*
X179764286Y-115549514D01*
X179764286Y-115549514D02*
X179735714Y-115606657D01*
X179735714Y-115606657D02*
X179735714Y-115692371D01*
X179735714Y-115692371D02*
X179764286Y-115749514D01*
X179764286Y-115749514D02*
X179792857Y-115778085D01*
X179792857Y-115778085D02*
X179850000Y-115806657D01*
X179850000Y-115806657D02*
X180078571Y-115806657D01*
X179507143Y-115549514D02*
X179478571Y-115520942D01*
X179478571Y-115520942D02*
X179421429Y-115492371D01*
X179421429Y-115492371D02*
X179278571Y-115492371D01*
X179278571Y-115492371D02*
X179221429Y-115520942D01*
X179221429Y-115520942D02*
X179192857Y-115549514D01*
X179192857Y-115549514D02*
X179164286Y-115606657D01*
X179164286Y-115606657D02*
X179164286Y-115663800D01*
X179164286Y-115663800D02*
X179192857Y-115749514D01*
X179192857Y-115749514D02*
X179535714Y-116092371D01*
X179535714Y-116092371D02*
X179164286Y-116092371D01*
X178878571Y-116092371D02*
X178764285Y-116092371D01*
X178764285Y-116092371D02*
X178707142Y-116063800D01*
X178707142Y-116063800D02*
X178678571Y-116035228D01*
X178678571Y-116035228D02*
X178621428Y-115949514D01*
X178621428Y-115949514D02*
X178592857Y-115835228D01*
X178592857Y-115835228D02*
X178592857Y-115606657D01*
X178592857Y-115606657D02*
X178621428Y-115549514D01*
X178621428Y-115549514D02*
X178650000Y-115520942D01*
X178650000Y-115520942D02*
X178707142Y-115492371D01*
X178707142Y-115492371D02*
X178821428Y-115492371D01*
X178821428Y-115492371D02*
X178878571Y-115520942D01*
X178878571Y-115520942D02*
X178907142Y-115549514D01*
X178907142Y-115549514D02*
X178935714Y-115606657D01*
X178935714Y-115606657D02*
X178935714Y-115749514D01*
X178935714Y-115749514D02*
X178907142Y-115806657D01*
X178907142Y-115806657D02*
X178878571Y-115835228D01*
X178878571Y-115835228D02*
X178821428Y-115863800D01*
X178821428Y-115863800D02*
X178707142Y-115863800D01*
X178707142Y-115863800D02*
X178650000Y-115835228D01*
X178650000Y-115835228D02*
X178621428Y-115806657D01*
X178621428Y-115806657D02*
X178592857Y-115749514D01*
X199302856Y-65572371D02*
X199302856Y-64972371D01*
X199302856Y-64972371D02*
X199074285Y-64972371D01*
X199074285Y-64972371D02*
X199017142Y-65000942D01*
X199017142Y-65000942D02*
X198988571Y-65029514D01*
X198988571Y-65029514D02*
X198959999Y-65086657D01*
X198959999Y-65086657D02*
X198959999Y-65172371D01*
X198959999Y-65172371D02*
X198988571Y-65229514D01*
X198988571Y-65229514D02*
X199017142Y-65258085D01*
X199017142Y-65258085D02*
X199074285Y-65286657D01*
X199074285Y-65286657D02*
X199302856Y-65286657D01*
X198502856Y-65258085D02*
X198417142Y-65286657D01*
X198417142Y-65286657D02*
X198388571Y-65315228D01*
X198388571Y-65315228D02*
X198359999Y-65372371D01*
X198359999Y-65372371D02*
X198359999Y-65458085D01*
X198359999Y-65458085D02*
X198388571Y-65515228D01*
X198388571Y-65515228D02*
X198417142Y-65543800D01*
X198417142Y-65543800D02*
X198474285Y-65572371D01*
X198474285Y-65572371D02*
X198702856Y-65572371D01*
X198702856Y-65572371D02*
X198702856Y-64972371D01*
X198702856Y-64972371D02*
X198502856Y-64972371D01*
X198502856Y-64972371D02*
X198445714Y-65000942D01*
X198445714Y-65000942D02*
X198417142Y-65029514D01*
X198417142Y-65029514D02*
X198388571Y-65086657D01*
X198388571Y-65086657D02*
X198388571Y-65143800D01*
X198388571Y-65143800D02*
X198417142Y-65200942D01*
X198417142Y-65200942D02*
X198445714Y-65229514D01*
X198445714Y-65229514D02*
X198502856Y-65258085D01*
X198502856Y-65258085D02*
X198702856Y-65258085D01*
X198131428Y-65029514D02*
X198102856Y-65000942D01*
X198102856Y-65000942D02*
X198045714Y-64972371D01*
X198045714Y-64972371D02*
X197902856Y-64972371D01*
X197902856Y-64972371D02*
X197845714Y-65000942D01*
X197845714Y-65000942D02*
X197817142Y-65029514D01*
X197817142Y-65029514D02*
X197788571Y-65086657D01*
X197788571Y-65086657D02*
X197788571Y-65143800D01*
X197788571Y-65143800D02*
X197817142Y-65229514D01*
X197817142Y-65229514D02*
X198159999Y-65572371D01*
X198159999Y-65572371D02*
X197788571Y-65572371D01*
X208005714Y-65142371D02*
X208205714Y-64856657D01*
X208348571Y-65142371D02*
X208348571Y-64542371D01*
X208348571Y-64542371D02*
X208120000Y-64542371D01*
X208120000Y-64542371D02*
X208062857Y-64570942D01*
X208062857Y-64570942D02*
X208034286Y-64599514D01*
X208034286Y-64599514D02*
X208005714Y-64656657D01*
X208005714Y-64656657D02*
X208005714Y-64742371D01*
X208005714Y-64742371D02*
X208034286Y-64799514D01*
X208034286Y-64799514D02*
X208062857Y-64828085D01*
X208062857Y-64828085D02*
X208120000Y-64856657D01*
X208120000Y-64856657D02*
X208348571Y-64856657D01*
X207805714Y-64542371D02*
X207434286Y-64542371D01*
X207434286Y-64542371D02*
X207634286Y-64770942D01*
X207634286Y-64770942D02*
X207548571Y-64770942D01*
X207548571Y-64770942D02*
X207491429Y-64799514D01*
X207491429Y-64799514D02*
X207462857Y-64828085D01*
X207462857Y-64828085D02*
X207434286Y-64885228D01*
X207434286Y-64885228D02*
X207434286Y-65028085D01*
X207434286Y-65028085D02*
X207462857Y-65085228D01*
X207462857Y-65085228D02*
X207491429Y-65113800D01*
X207491429Y-65113800D02*
X207548571Y-65142371D01*
X207548571Y-65142371D02*
X207720000Y-65142371D01*
X207720000Y-65142371D02*
X207777143Y-65113800D01*
X207777143Y-65113800D02*
X207805714Y-65085228D01*
X207234285Y-64542371D02*
X206862857Y-64542371D01*
X206862857Y-64542371D02*
X207062857Y-64770942D01*
X207062857Y-64770942D02*
X206977142Y-64770942D01*
X206977142Y-64770942D02*
X206920000Y-64799514D01*
X206920000Y-64799514D02*
X206891428Y-64828085D01*
X206891428Y-64828085D02*
X206862857Y-64885228D01*
X206862857Y-64885228D02*
X206862857Y-65028085D01*
X206862857Y-65028085D02*
X206891428Y-65085228D01*
X206891428Y-65085228D02*
X206920000Y-65113800D01*
X206920000Y-65113800D02*
X206977142Y-65142371D01*
X206977142Y-65142371D02*
X207148571Y-65142371D01*
X207148571Y-65142371D02*
X207205714Y-65113800D01*
X207205714Y-65113800D02*
X207234285Y-65085228D01*
X198915714Y-124465228D02*
X198944286Y-124493800D01*
X198944286Y-124493800D02*
X199030000Y-124522371D01*
X199030000Y-124522371D02*
X199087143Y-124522371D01*
X199087143Y-124522371D02*
X199172857Y-124493800D01*
X199172857Y-124493800D02*
X199230000Y-124436657D01*
X199230000Y-124436657D02*
X199258571Y-124379514D01*
X199258571Y-124379514D02*
X199287143Y-124265228D01*
X199287143Y-124265228D02*
X199287143Y-124179514D01*
X199287143Y-124179514D02*
X199258571Y-124065228D01*
X199258571Y-124065228D02*
X199230000Y-124008085D01*
X199230000Y-124008085D02*
X199172857Y-123950942D01*
X199172857Y-123950942D02*
X199087143Y-123922371D01*
X199087143Y-123922371D02*
X199030000Y-123922371D01*
X199030000Y-123922371D02*
X198944286Y-123950942D01*
X198944286Y-123950942D02*
X198915714Y-123979514D01*
X198687143Y-123979514D02*
X198658571Y-123950942D01*
X198658571Y-123950942D02*
X198601429Y-123922371D01*
X198601429Y-123922371D02*
X198458571Y-123922371D01*
X198458571Y-123922371D02*
X198401429Y-123950942D01*
X198401429Y-123950942D02*
X198372857Y-123979514D01*
X198372857Y-123979514D02*
X198344286Y-124036657D01*
X198344286Y-124036657D02*
X198344286Y-124093800D01*
X198344286Y-124093800D02*
X198372857Y-124179514D01*
X198372857Y-124179514D02*
X198715714Y-124522371D01*
X198715714Y-124522371D02*
X198344286Y-124522371D01*
X197801428Y-123922371D02*
X198087142Y-123922371D01*
X198087142Y-123922371D02*
X198115714Y-124208085D01*
X198115714Y-124208085D02*
X198087142Y-124179514D01*
X198087142Y-124179514D02*
X198030000Y-124150942D01*
X198030000Y-124150942D02*
X197887142Y-124150942D01*
X197887142Y-124150942D02*
X197830000Y-124179514D01*
X197830000Y-124179514D02*
X197801428Y-124208085D01*
X197801428Y-124208085D02*
X197772857Y-124265228D01*
X197772857Y-124265228D02*
X197772857Y-124408085D01*
X197772857Y-124408085D02*
X197801428Y-124465228D01*
X197801428Y-124465228D02*
X197830000Y-124493800D01*
X197830000Y-124493800D02*
X197887142Y-124522371D01*
X197887142Y-124522371D02*
X198030000Y-124522371D01*
X198030000Y-124522371D02*
X198087142Y-124493800D01*
X198087142Y-124493800D02*
X198115714Y-124465228D01*
X208737142Y-108939514D02*
X208794285Y-108910942D01*
X208794285Y-108910942D02*
X208851428Y-108853800D01*
X208851428Y-108853800D02*
X208937142Y-108768085D01*
X208937142Y-108768085D02*
X208994285Y-108739514D01*
X208994285Y-108739514D02*
X209051428Y-108739514D01*
X209022857Y-108882371D02*
X209080000Y-108853800D01*
X209080000Y-108853800D02*
X209137142Y-108796657D01*
X209137142Y-108796657D02*
X209165714Y-108682371D01*
X209165714Y-108682371D02*
X209165714Y-108482371D01*
X209165714Y-108482371D02*
X209137142Y-108368085D01*
X209137142Y-108368085D02*
X209080000Y-108310942D01*
X209080000Y-108310942D02*
X209022857Y-108282371D01*
X209022857Y-108282371D02*
X208908571Y-108282371D01*
X208908571Y-108282371D02*
X208851428Y-108310942D01*
X208851428Y-108310942D02*
X208794285Y-108368085D01*
X208794285Y-108368085D02*
X208765714Y-108482371D01*
X208765714Y-108482371D02*
X208765714Y-108682371D01*
X208765714Y-108682371D02*
X208794285Y-108796657D01*
X208794285Y-108796657D02*
X208851428Y-108853800D01*
X208851428Y-108853800D02*
X208908571Y-108882371D01*
X208908571Y-108882371D02*
X209022857Y-108882371D01*
X208194286Y-108882371D02*
X208537143Y-108882371D01*
X208365714Y-108882371D02*
X208365714Y-108282371D01*
X208365714Y-108282371D02*
X208422857Y-108368085D01*
X208422857Y-108368085D02*
X208480000Y-108425228D01*
X208480000Y-108425228D02*
X208537143Y-108453800D01*
X209552371Y-52268571D02*
X209552371Y-51982857D01*
X209552371Y-51982857D02*
X208952371Y-51982857D01*
X209238085Y-52468571D02*
X209238085Y-52668571D01*
X209552371Y-52754285D02*
X209552371Y-52468571D01*
X209552371Y-52468571D02*
X208952371Y-52468571D01*
X208952371Y-52468571D02*
X208952371Y-52754285D01*
X209552371Y-53011428D02*
X208952371Y-53011428D01*
X208952371Y-53011428D02*
X208952371Y-53154285D01*
X208952371Y-53154285D02*
X208980942Y-53239999D01*
X208980942Y-53239999D02*
X209038085Y-53297142D01*
X209038085Y-53297142D02*
X209095228Y-53325713D01*
X209095228Y-53325713D02*
X209209514Y-53354285D01*
X209209514Y-53354285D02*
X209295228Y-53354285D01*
X209295228Y-53354285D02*
X209409514Y-53325713D01*
X209409514Y-53325713D02*
X209466657Y-53297142D01*
X209466657Y-53297142D02*
X209523800Y-53239999D01*
X209523800Y-53239999D02*
X209552371Y-53154285D01*
X209552371Y-53154285D02*
X209552371Y-53011428D01*
X209009514Y-53582856D02*
X208980942Y-53611428D01*
X208980942Y-53611428D02*
X208952371Y-53668571D01*
X208952371Y-53668571D02*
X208952371Y-53811428D01*
X208952371Y-53811428D02*
X208980942Y-53868571D01*
X208980942Y-53868571D02*
X209009514Y-53897142D01*
X209009514Y-53897142D02*
X209066657Y-53925713D01*
X209066657Y-53925713D02*
X209123800Y-53925713D01*
X209123800Y-53925713D02*
X209209514Y-53897142D01*
X209209514Y-53897142D02*
X209552371Y-53554285D01*
X209552371Y-53554285D02*
X209552371Y-53925713D01*
X182155714Y-124535228D02*
X182184286Y-124563800D01*
X182184286Y-124563800D02*
X182270000Y-124592371D01*
X182270000Y-124592371D02*
X182327143Y-124592371D01*
X182327143Y-124592371D02*
X182412857Y-124563800D01*
X182412857Y-124563800D02*
X182470000Y-124506657D01*
X182470000Y-124506657D02*
X182498571Y-124449514D01*
X182498571Y-124449514D02*
X182527143Y-124335228D01*
X182527143Y-124335228D02*
X182527143Y-124249514D01*
X182527143Y-124249514D02*
X182498571Y-124135228D01*
X182498571Y-124135228D02*
X182470000Y-124078085D01*
X182470000Y-124078085D02*
X182412857Y-124020942D01*
X182412857Y-124020942D02*
X182327143Y-123992371D01*
X182327143Y-123992371D02*
X182270000Y-123992371D01*
X182270000Y-123992371D02*
X182184286Y-124020942D01*
X182184286Y-124020942D02*
X182155714Y-124049514D01*
X181927143Y-124049514D02*
X181898571Y-124020942D01*
X181898571Y-124020942D02*
X181841429Y-123992371D01*
X181841429Y-123992371D02*
X181698571Y-123992371D01*
X181698571Y-123992371D02*
X181641429Y-124020942D01*
X181641429Y-124020942D02*
X181612857Y-124049514D01*
X181612857Y-124049514D02*
X181584286Y-124106657D01*
X181584286Y-124106657D02*
X181584286Y-124163800D01*
X181584286Y-124163800D02*
X181612857Y-124249514D01*
X181612857Y-124249514D02*
X181955714Y-124592371D01*
X181955714Y-124592371D02*
X181584286Y-124592371D01*
X181070000Y-123992371D02*
X181184285Y-123992371D01*
X181184285Y-123992371D02*
X181241428Y-124020942D01*
X181241428Y-124020942D02*
X181270000Y-124049514D01*
X181270000Y-124049514D02*
X181327142Y-124135228D01*
X181327142Y-124135228D02*
X181355714Y-124249514D01*
X181355714Y-124249514D02*
X181355714Y-124478085D01*
X181355714Y-124478085D02*
X181327142Y-124535228D01*
X181327142Y-124535228D02*
X181298571Y-124563800D01*
X181298571Y-124563800D02*
X181241428Y-124592371D01*
X181241428Y-124592371D02*
X181127142Y-124592371D01*
X181127142Y-124592371D02*
X181070000Y-124563800D01*
X181070000Y-124563800D02*
X181041428Y-124535228D01*
X181041428Y-124535228D02*
X181012857Y-124478085D01*
X181012857Y-124478085D02*
X181012857Y-124335228D01*
X181012857Y-124335228D02*
X181041428Y-124278085D01*
X181041428Y-124278085D02*
X181070000Y-124249514D01*
X181070000Y-124249514D02*
X181127142Y-124220942D01*
X181127142Y-124220942D02*
X181241428Y-124220942D01*
X181241428Y-124220942D02*
X181298571Y-124249514D01*
X181298571Y-124249514D02*
X181327142Y-124278085D01*
X181327142Y-124278085D02*
X181355714Y-124335228D01*
X199575714Y-116562371D02*
X199775714Y-116276657D01*
X199918571Y-116562371D02*
X199918571Y-115962371D01*
X199918571Y-115962371D02*
X199690000Y-115962371D01*
X199690000Y-115962371D02*
X199632857Y-115990942D01*
X199632857Y-115990942D02*
X199604286Y-116019514D01*
X199604286Y-116019514D02*
X199575714Y-116076657D01*
X199575714Y-116076657D02*
X199575714Y-116162371D01*
X199575714Y-116162371D02*
X199604286Y-116219514D01*
X199604286Y-116219514D02*
X199632857Y-116248085D01*
X199632857Y-116248085D02*
X199690000Y-116276657D01*
X199690000Y-116276657D02*
X199918571Y-116276657D01*
X199347143Y-116019514D02*
X199318571Y-115990942D01*
X199318571Y-115990942D02*
X199261429Y-115962371D01*
X199261429Y-115962371D02*
X199118571Y-115962371D01*
X199118571Y-115962371D02*
X199061429Y-115990942D01*
X199061429Y-115990942D02*
X199032857Y-116019514D01*
X199032857Y-116019514D02*
X199004286Y-116076657D01*
X199004286Y-116076657D02*
X199004286Y-116133800D01*
X199004286Y-116133800D02*
X199032857Y-116219514D01*
X199032857Y-116219514D02*
X199375714Y-116562371D01*
X199375714Y-116562371D02*
X199004286Y-116562371D01*
X198804285Y-115962371D02*
X198404285Y-115962371D01*
X198404285Y-115962371D02*
X198661428Y-116562371D01*
X212022371Y-52178571D02*
X212022371Y-51892857D01*
X212022371Y-51892857D02*
X211422371Y-51892857D01*
X211708085Y-52378571D02*
X211708085Y-52578571D01*
X212022371Y-52664285D02*
X212022371Y-52378571D01*
X212022371Y-52378571D02*
X211422371Y-52378571D01*
X211422371Y-52378571D02*
X211422371Y-52664285D01*
X212022371Y-52921428D02*
X211422371Y-52921428D01*
X211422371Y-52921428D02*
X211422371Y-53064285D01*
X211422371Y-53064285D02*
X211450942Y-53149999D01*
X211450942Y-53149999D02*
X211508085Y-53207142D01*
X211508085Y-53207142D02*
X211565228Y-53235713D01*
X211565228Y-53235713D02*
X211679514Y-53264285D01*
X211679514Y-53264285D02*
X211765228Y-53264285D01*
X211765228Y-53264285D02*
X211879514Y-53235713D01*
X211879514Y-53235713D02*
X211936657Y-53207142D01*
X211936657Y-53207142D02*
X211993800Y-53149999D01*
X211993800Y-53149999D02*
X212022371Y-53064285D01*
X212022371Y-53064285D02*
X212022371Y-52921428D01*
X212022371Y-53835713D02*
X212022371Y-53492856D01*
X212022371Y-53664285D02*
X211422371Y-53664285D01*
X211422371Y-53664285D02*
X211508085Y-53607142D01*
X211508085Y-53607142D02*
X211565228Y-53549999D01*
X211565228Y-53549999D02*
X211593800Y-53492856D01*
X196772856Y-114682371D02*
X196772856Y-114082371D01*
X196772856Y-114082371D02*
X196629999Y-114082371D01*
X196629999Y-114082371D02*
X196544285Y-114110942D01*
X196544285Y-114110942D02*
X196487142Y-114168085D01*
X196487142Y-114168085D02*
X196458571Y-114225228D01*
X196458571Y-114225228D02*
X196429999Y-114339514D01*
X196429999Y-114339514D02*
X196429999Y-114425228D01*
X196429999Y-114425228D02*
X196458571Y-114539514D01*
X196458571Y-114539514D02*
X196487142Y-114596657D01*
X196487142Y-114596657D02*
X196544285Y-114653800D01*
X196544285Y-114653800D02*
X196629999Y-114682371D01*
X196629999Y-114682371D02*
X196772856Y-114682371D01*
X195915714Y-114282371D02*
X195915714Y-114682371D01*
X196058571Y-114053800D02*
X196201428Y-114482371D01*
X196201428Y-114482371D02*
X195829999Y-114482371D01*
X207312371Y-52268571D02*
X207312371Y-51982857D01*
X207312371Y-51982857D02*
X206712371Y-51982857D01*
X206998085Y-52468571D02*
X206998085Y-52668571D01*
X207312371Y-52754285D02*
X207312371Y-52468571D01*
X207312371Y-52468571D02*
X206712371Y-52468571D01*
X206712371Y-52468571D02*
X206712371Y-52754285D01*
X207312371Y-53011428D02*
X206712371Y-53011428D01*
X206712371Y-53011428D02*
X206712371Y-53154285D01*
X206712371Y-53154285D02*
X206740942Y-53239999D01*
X206740942Y-53239999D02*
X206798085Y-53297142D01*
X206798085Y-53297142D02*
X206855228Y-53325713D01*
X206855228Y-53325713D02*
X206969514Y-53354285D01*
X206969514Y-53354285D02*
X207055228Y-53354285D01*
X207055228Y-53354285D02*
X207169514Y-53325713D01*
X207169514Y-53325713D02*
X207226657Y-53297142D01*
X207226657Y-53297142D02*
X207283800Y-53239999D01*
X207283800Y-53239999D02*
X207312371Y-53154285D01*
X207312371Y-53154285D02*
X207312371Y-53011428D01*
X206712371Y-53554285D02*
X206712371Y-53925713D01*
X206712371Y-53925713D02*
X206940942Y-53725713D01*
X206940942Y-53725713D02*
X206940942Y-53811428D01*
X206940942Y-53811428D02*
X206969514Y-53868571D01*
X206969514Y-53868571D02*
X206998085Y-53897142D01*
X206998085Y-53897142D02*
X207055228Y-53925713D01*
X207055228Y-53925713D02*
X207198085Y-53925713D01*
X207198085Y-53925713D02*
X207255228Y-53897142D01*
X207255228Y-53897142D02*
X207283800Y-53868571D01*
X207283800Y-53868571D02*
X207312371Y-53811428D01*
X207312371Y-53811428D02*
X207312371Y-53639999D01*
X207312371Y-53639999D02*
X207283800Y-53582856D01*
X207283800Y-53582856D02*
X207255228Y-53554285D01*
X172707142Y-109979514D02*
X172764285Y-109950942D01*
X172764285Y-109950942D02*
X172821428Y-109893800D01*
X172821428Y-109893800D02*
X172907142Y-109808085D01*
X172907142Y-109808085D02*
X172964285Y-109779514D01*
X172964285Y-109779514D02*
X173021428Y-109779514D01*
X172992857Y-109922371D02*
X173050000Y-109893800D01*
X173050000Y-109893800D02*
X173107142Y-109836657D01*
X173107142Y-109836657D02*
X173135714Y-109722371D01*
X173135714Y-109722371D02*
X173135714Y-109522371D01*
X173135714Y-109522371D02*
X173107142Y-109408085D01*
X173107142Y-109408085D02*
X173050000Y-109350942D01*
X173050000Y-109350942D02*
X172992857Y-109322371D01*
X172992857Y-109322371D02*
X172878571Y-109322371D01*
X172878571Y-109322371D02*
X172821428Y-109350942D01*
X172821428Y-109350942D02*
X172764285Y-109408085D01*
X172764285Y-109408085D02*
X172735714Y-109522371D01*
X172735714Y-109522371D02*
X172735714Y-109722371D01*
X172735714Y-109722371D02*
X172764285Y-109836657D01*
X172764285Y-109836657D02*
X172821428Y-109893800D01*
X172821428Y-109893800D02*
X172878571Y-109922371D01*
X172878571Y-109922371D02*
X172992857Y-109922371D01*
X172535714Y-109322371D02*
X172164286Y-109322371D01*
X172164286Y-109322371D02*
X172364286Y-109550942D01*
X172364286Y-109550942D02*
X172278571Y-109550942D01*
X172278571Y-109550942D02*
X172221429Y-109579514D01*
X172221429Y-109579514D02*
X172192857Y-109608085D01*
X172192857Y-109608085D02*
X172164286Y-109665228D01*
X172164286Y-109665228D02*
X172164286Y-109808085D01*
X172164286Y-109808085D02*
X172192857Y-109865228D01*
X172192857Y-109865228D02*
X172221429Y-109893800D01*
X172221429Y-109893800D02*
X172278571Y-109922371D01*
X172278571Y-109922371D02*
X172450000Y-109922371D01*
X172450000Y-109922371D02*
X172507143Y-109893800D01*
X172507143Y-109893800D02*
X172535714Y-109865228D01*
D13*
%TO.C,Q4*%
X181830003Y-122284400D02*
X184030003Y-122284400D01*
X181830003Y-119064400D02*
X179630003Y-119064400D01*
X181830003Y-119064400D02*
X184030003Y-119064400D01*
X181830003Y-122284400D02*
X178230003Y-122284400D01*
D14*
X177419929Y-122214400D02*
G75*
G03*
X176920077Y-122214400I-249926J0D01*
G01*
X176920077Y-122214400D02*
G75*
G03*
X177419929Y-122214400I249926J0D01*
G01*
D13*
%TO.C,R34*%
X215777064Y-54465000D02*
X215322936Y-54465000D01*
X215777064Y-55935000D02*
X215322936Y-55935000D01*
%TO.C,R31*%
X208857064Y-111925000D02*
X208402936Y-111925000D01*
X208857064Y-110455000D02*
X208402936Y-110455000D01*
%TO.C,R25*%
X197702936Y-107335000D02*
X198157064Y-107335000D01*
X197702936Y-108805000D02*
X198157064Y-108805000D01*
%TO.C,R26*%
X206272936Y-117865000D02*
X206727064Y-117865000D01*
X206272936Y-116395000D02*
X206727064Y-116395000D01*
%TO.C,D6*%
X182350000Y-109070000D02*
X180190000Y-109070000D01*
X182350000Y-109070000D02*
X182350000Y-108140000D01*
X182350000Y-105910000D02*
X182350000Y-106840000D01*
X182350000Y-105910000D02*
X180890000Y-105910000D01*
%TO.C,Q2*%
X200110002Y-119064400D02*
X197910002Y-119064400D01*
X200110002Y-122284400D02*
X196510002Y-122284400D01*
X200110002Y-122284400D02*
X202310002Y-122284400D01*
X200110002Y-119064400D02*
X202310002Y-119064400D01*
D14*
X195699928Y-122214400D02*
G75*
G03*
X195200076Y-122214400I-249926J0D01*
G01*
X195200076Y-122214400D02*
G75*
G03*
X195699928Y-122214400I249926J0D01*
G01*
D13*
%TO.C,R36*%
X209084564Y-59255000D02*
X208630436Y-59255000D01*
X209084564Y-60725000D02*
X208630436Y-60725000D01*
%TO.C,R35*%
X215777064Y-56755000D02*
X215322936Y-56755000D01*
X215777064Y-58225000D02*
X215322936Y-58225000D01*
%TO.C,D7*%
X178000000Y-109170000D02*
X175840000Y-109170000D01*
X178000000Y-109170000D02*
X178000000Y-108240000D01*
X178000000Y-106010000D02*
X178000000Y-106940000D01*
X178000000Y-106010000D02*
X176540000Y-106010000D01*
D10*
%TO.C,PB1*%
X219080000Y-62790000D02*
X214080000Y-62790000D01*
X219080000Y-67790000D02*
X219080000Y-62790000D01*
X214080000Y-62790000D02*
X214080000Y-67790000D01*
X214080000Y-67790000D02*
X219080000Y-67790000D01*
X218382776Y-65290000D02*
G75*
G03*
X214777224Y-65290000I-1802776J0D01*
G01*
X214777224Y-65290000D02*
G75*
G03*
X218382776Y-65290000I1802776J0D01*
G01*
D13*
%TO.C,R28*%
X186132936Y-106845000D02*
X186587064Y-106845000D01*
X186132936Y-108315000D02*
X186587064Y-108315000D01*
%TO.C,D5*%
X203600000Y-110350000D02*
X202140000Y-110350000D01*
X203600000Y-113510000D02*
X203600000Y-112580000D01*
X203600000Y-110350000D02*
X203600000Y-111280000D01*
X203600000Y-113510000D02*
X201440000Y-113510000D01*
%TO.C,R30*%
X184912936Y-118255000D02*
X185367064Y-118255000D01*
X184912936Y-116785000D02*
X185367064Y-116785000D01*
%TO.C,R32*%
X171937064Y-101955000D02*
X171482936Y-101955000D01*
X171937064Y-103425000D02*
X171482936Y-103425000D01*
%TO.C,R29*%
X176737064Y-116425000D02*
X176282936Y-116425000D01*
X176737064Y-114955000D02*
X176282936Y-114955000D01*
D10*
%TO.C,PB2*%
X200040000Y-67790000D02*
X205040000Y-67790000D01*
X205040000Y-62790000D02*
X200040000Y-62790000D01*
X200040000Y-62790000D02*
X200040000Y-67790000D01*
X205040000Y-67790000D02*
X205040000Y-62790000D01*
X204342776Y-65290000D02*
G75*
G03*
X200737224Y-65290000I-1802776J0D01*
G01*
X200737224Y-65290000D02*
G75*
G03*
X204342776Y-65290000I1802776J0D01*
G01*
D13*
%TO.C,GND1*%
X171510000Y-115480000D02*
G75*
G03*
X169610000Y-115480000I-950000J0D01*
G01*
X169610000Y-115480000D02*
G75*
G03*
X171510000Y-115480000I950000J0D01*
G01*
%TO.C,R33*%
X209027064Y-63995000D02*
X208572936Y-63995000D01*
X209027064Y-62525000D02*
X208572936Y-62525000D01*
%TO.C,C25*%
X195811252Y-123375000D02*
X195288748Y-123375000D01*
X195811252Y-124845000D02*
X195288748Y-124845000D01*
%TO.C,Q1*%
X208050000Y-105500000D02*
X209460000Y-105500000D01*
X209460000Y-106160000D02*
X209460000Y-105500000D01*
X209460000Y-107820000D02*
X207430000Y-107820000D01*
X209460000Y-107820000D02*
X209460000Y-107160000D01*
%TO.C,LED2*%
X208675000Y-56640000D02*
X208675000Y-54355000D01*
X208675000Y-54355000D02*
X210145000Y-54355000D01*
X210145000Y-54355000D02*
X210145000Y-56640000D01*
%TO.C,C26*%
X184268748Y-123155000D02*
X184791252Y-123155000D01*
X184268748Y-124625000D02*
X184791252Y-124625000D01*
%TO.C,R27*%
X196559564Y-116395000D02*
X196105436Y-116395000D01*
X196559564Y-117865000D02*
X196105436Y-117865000D01*
%TO.C,LED1*%
X212585000Y-54355000D02*
X212585000Y-56640000D01*
X211115000Y-54355000D02*
X212585000Y-54355000D01*
X211115000Y-56640000D02*
X211115000Y-54355000D01*
%TO.C,D4*%
X199040000Y-110420000D02*
X197580000Y-110420000D01*
X199040000Y-110420000D02*
X199040000Y-111350000D01*
X199040000Y-113580000D02*
X199040000Y-112650000D01*
X199040000Y-113580000D02*
X196880000Y-113580000D01*
%TO.C,LED3*%
X207735000Y-54355000D02*
X207735000Y-56640000D01*
X206265000Y-56640000D02*
X206265000Y-54355000D01*
X206265000Y-54355000D02*
X207735000Y-54355000D01*
%TO.C,Q3*%
X171650000Y-106390000D02*
X173060000Y-106390000D01*
X173060000Y-108710000D02*
X173060000Y-108050000D01*
X173060000Y-107050000D02*
X173060000Y-106390000D01*
X173060000Y-108710000D02*
X171030000Y-108710000D01*
%TD*%
M02*
