%TF.GenerationSoftware,KiCad,Pcbnew,7.0.10*%
%TF.CreationDate,2025-01-07T15:55:25-07:00*%
%TF.ProjectId,HATB_ver_8.3.1,48415442-5f76-4657-925f-382e332e312e,8.3.1*%
%TF.SameCoordinates,Original*%
%TF.FileFunction,Copper,L2,Bot*%
%TF.FilePolarity,Positive*%
%FSLAX46Y46*%
G04 Gerber Fmt 4.6, Leading zero omitted, Abs format (unit mm)*
G04 Created by KiCad (PCBNEW 7.0.10) date 2025-01-07 15:55:25*
%MOMM*%
%LPD*%
G01*
G04 APERTURE LIST*
G04 Aperture macros list*
%AMRoundRect*
0 Rectangle with rounded corners*
0 $1 Rounding radius*
0 $2 $3 $4 $5 $6 $7 $8 $9 X,Y pos of 4 corners*
0 Add a 4 corners polygon primitive as box body*
4,1,4,$2,$3,$4,$5,$6,$7,$8,$9,$2,$3,0*
0 Add four circle primitives for the rounded corners*
1,1,$1+$1,$2,$3*
1,1,$1+$1,$4,$5*
1,1,$1+$1,$6,$7*
1,1,$1+$1,$8,$9*
0 Add four rect primitives between the rounded corners*
20,1,$1+$1,$2,$3,$4,$5,0*
20,1,$1+$1,$4,$5,$6,$7,0*
20,1,$1+$1,$6,$7,$8,$9,0*
20,1,$1+$1,$8,$9,$2,$3,0*%
G04 Aperture macros list end*
%TA.AperFunction,ComponentPad*%
%ADD10R,1.700000X1.700000*%
%TD*%
%TA.AperFunction,ComponentPad*%
%ADD11O,1.700000X1.700000*%
%TD*%
%TA.AperFunction,ComponentPad*%
%ADD12O,8.000000X4.000000*%
%TD*%
%TA.AperFunction,SMDPad,CuDef*%
%ADD13RoundRect,0.100000X-0.637500X-0.100000X0.637500X-0.100000X0.637500X0.100000X-0.637500X0.100000X0*%
%TD*%
%TA.AperFunction,SMDPad,CuDef*%
%ADD14RoundRect,0.250000X0.262500X0.450000X-0.262500X0.450000X-0.262500X-0.450000X0.262500X-0.450000X0*%
%TD*%
%TA.AperFunction,SMDPad,CuDef*%
%ADD15RoundRect,0.250000X-0.262500X-0.450000X0.262500X-0.450000X0.262500X0.450000X-0.262500X0.450000X0*%
%TD*%
%TA.AperFunction,SMDPad,CuDef*%
%ADD16R,0.900000X0.800000*%
%TD*%
%TA.AperFunction,SMDPad,CuDef*%
%ADD17R,1.400000X1.600000*%
%TD*%
%TA.AperFunction,ComponentPad*%
%ADD18C,1.500000*%
%TD*%
%TA.AperFunction,SMDPad,CuDef*%
%ADD19RoundRect,0.250000X0.250000X0.475000X-0.250000X0.475000X-0.250000X-0.475000X0.250000X-0.475000X0*%
%TD*%
%TA.AperFunction,SMDPad,CuDef*%
%ADD20R,0.700000X0.450000*%
%TD*%
%TA.AperFunction,SMDPad,CuDef*%
%ADD21RoundRect,0.218750X-0.256250X0.218750X-0.256250X-0.218750X0.256250X-0.218750X0.256250X0.218750X0*%
%TD*%
%TA.AperFunction,SMDPad,CuDef*%
%ADD22RoundRect,0.250000X-0.250000X-0.475000X0.250000X-0.475000X0.250000X0.475000X-0.250000X0.475000X0*%
%TD*%
%TA.AperFunction,ViaPad*%
%ADD23C,0.600000*%
%TD*%
%TA.AperFunction,Conductor*%
%ADD24C,0.254000*%
%TD*%
%TA.AperFunction,Conductor*%
%ADD25C,3.810000*%
%TD*%
%TA.AperFunction,Conductor*%
%ADD26C,0.200000*%
%TD*%
%TA.AperFunction,Conductor*%
%ADD27C,0.508000*%
%TD*%
%TA.AperFunction,Conductor*%
%ADD28C,0.381000*%
%TD*%
G04 APERTURE END LIST*
D10*
%TO.P,P10,1,Pin_1*%
%TO.N,/BATT+*%
X217400000Y-73110000D03*
D11*
%TO.P,P10,2,Pin_2*%
%TO.N,/PWR_GND*%
X214860000Y-73110000D03*
%TO.P,P10,3,Pin_3*%
%TO.N,/BBD_AGND*%
X217400000Y-75650000D03*
%TO.P,P10,4,Pin_4*%
%TO.N,/BBD_GND*%
X214860000Y-75650000D03*
%TO.P,P10,5,Pin_5*%
%TO.N,/BBD_5V*%
X217400000Y-78190000D03*
%TO.P,P10,6,Pin_6*%
%TO.N,/BBD_IPS_OUT*%
X214860000Y-78190000D03*
%TO.P,P10,7,Pin_7*%
%TO.N,/BBD_PA6*%
X217400000Y-80730000D03*
%TO.P,P10,8,Pin_8*%
%TO.N,/BBD_CHG_LED*%
X214860000Y-80730000D03*
%TO.P,P10,9,Pin_9*%
%TO.N,/BBD_PB1*%
X217400000Y-83270000D03*
%TO.P,P10,10,Pin_10*%
%TO.N,/BBD_PB2*%
X214860000Y-83270000D03*
%TD*%
D12*
%TO.P,BT1,1*%
%TO.N,/BATT+*%
X202120000Y-51950000D03*
X198500000Y-51950000D03*
%TO.P,BT1,2*%
%TO.N,Net-(BT1-Pad2)*%
X198500000Y-128050000D03*
X202120000Y-128050000D03*
%TD*%
%TO.P,BT2,1*%
%TO.N,/BATT+*%
X180120000Y-51950000D03*
X176500000Y-51950000D03*
%TO.P,BT2,2*%
%TO.N,Net-(BT2-Pad2)*%
X180120000Y-128050000D03*
X176500000Y-128050000D03*
%TD*%
D13*
%TO.P,Q4,1,D*%
%TO.N,unconnected-(Q4-Pad1)*%
X178967503Y-121649400D03*
%TO.P,Q4,2,S1*%
%TO.N,Net-(BT2-Pad2)*%
X178967503Y-120999400D03*
%TO.P,Q4,3,S1*%
X178967503Y-120349400D03*
%TO.P,Q4,4,G1*%
%TO.N,Net-(D7-Pad1)*%
X178967503Y-119699400D03*
%TO.P,Q4,5,G2*%
%TO.N,Net-(D6-Pad1)*%
X184692503Y-119699400D03*
%TO.P,Q4,6,S2*%
%TO.N,/PWR_GND*%
X184692503Y-120349400D03*
%TO.P,Q4,7,S2*%
X184692503Y-120999400D03*
%TO.P,Q4,8,D*%
%TO.N,unconnected-(Q4-Pad8)*%
X184692503Y-121649400D03*
%TD*%
D14*
%TO.P,R34,1*%
%TO.N,/BBD_5V*%
X216462500Y-55200000D03*
%TO.P,R34,2*%
%TO.N,Net-(LED1-Pad2)*%
X214637500Y-55200000D03*
%TD*%
%TO.P,R31,1*%
%TO.N,/BATT+*%
X209542500Y-111190000D03*
%TO.P,R31,2*%
%TO.N,Net-(BT1-Pad2)*%
X207717500Y-111190000D03*
%TD*%
D15*
%TO.P,R25,1*%
%TO.N,Net-(D4-Pad2)*%
X197017500Y-108070000D03*
%TO.P,R25,2*%
%TO.N,/PWR_GND*%
X198842500Y-108070000D03*
%TD*%
%TO.P,R26,1*%
%TO.N,Net-(D5-Pad1)*%
X205587500Y-117130000D03*
%TO.P,R26,2*%
%TO.N,Net-(BT1-Pad2)*%
X207412500Y-117130000D03*
%TD*%
D16*
%TO.P,D6,*%
%TO.N,*%
X180590000Y-106540000D03*
%TO.P,D6,1,K*%
%TO.N,Net-(D6-Pad1)*%
X182590000Y-107490000D03*
%TO.P,D6,2,A*%
%TO.N,Net-(D6-Pad2)*%
X180590000Y-108440000D03*
%TD*%
D13*
%TO.P,Q2,1,D*%
%TO.N,unconnected-(Q2-Pad1)*%
X197247502Y-121649400D03*
%TO.P,Q2,2,S1*%
%TO.N,/PWR_GND*%
X197247502Y-120999400D03*
%TO.P,Q2,3,S1*%
X197247502Y-120349400D03*
%TO.P,Q2,4,G1*%
%TO.N,Net-(D4-Pad1)*%
X197247502Y-119699400D03*
%TO.P,Q2,5,G2*%
%TO.N,Net-(D5-Pad1)*%
X202972502Y-119699400D03*
%TO.P,Q2,6,S2*%
%TO.N,Net-(BT1-Pad2)*%
X202972502Y-120349400D03*
%TO.P,Q2,7,S2*%
X202972502Y-120999400D03*
%TO.P,Q2,8,D*%
%TO.N,unconnected-(Q2-Pad8)*%
X202972502Y-121649400D03*
%TD*%
D14*
%TO.P,R36,1*%
%TO.N,Net-(LED2-Pad2)*%
X209770000Y-59990000D03*
%TO.P,R36,2*%
%TO.N,/BBD_PA6*%
X207945000Y-59990000D03*
%TD*%
%TO.P,R35,1*%
%TO.N,/BBD_5V*%
X216462500Y-57490000D03*
%TO.P,R35,2*%
%TO.N,Net-(LED2-Pad2)*%
X214637500Y-57490000D03*
%TD*%
D16*
%TO.P,D7,*%
%TO.N,*%
X176240000Y-106640000D03*
%TO.P,D7,1,K*%
%TO.N,Net-(D7-Pad1)*%
X178240000Y-107590000D03*
%TO.P,D7,2,A*%
%TO.N,Net-(D6-Pad2)*%
X176240000Y-108540000D03*
%TD*%
D17*
%TO.P,PB1,1,1*%
%TO.N,/BBD_PB1*%
X215080000Y-61690000D03*
X215080000Y-68890000D03*
%TO.P,PB1,2,2*%
%TO.N,/BBD_AGND*%
X218080000Y-61690000D03*
X218080000Y-68890000D03*
%TD*%
D15*
%TO.P,R28,1*%
%TO.N,Net-(D6-Pad2)*%
X185447500Y-107580000D03*
%TO.P,R28,2*%
%TO.N,/PWR_GND*%
X187272500Y-107580000D03*
%TD*%
D16*
%TO.P,D5,*%
%TO.N,*%
X201840000Y-110980000D03*
%TO.P,D5,1,K*%
%TO.N,Net-(D5-Pad1)*%
X203840000Y-111930000D03*
%TO.P,D5,2,A*%
%TO.N,Net-(D4-Pad2)*%
X201840000Y-112880000D03*
%TD*%
D15*
%TO.P,R30,1*%
%TO.N,Net-(D6-Pad1)*%
X184227500Y-117520000D03*
%TO.P,R30,2*%
%TO.N,/PWR_GND*%
X186052500Y-117520000D03*
%TD*%
D14*
%TO.P,R32,1*%
%TO.N,/BATT+*%
X172622500Y-102690000D03*
%TO.P,R32,2*%
%TO.N,Net-(BT2-Pad2)*%
X170797500Y-102690000D03*
%TD*%
%TO.P,R29,1*%
%TO.N,Net-(D7-Pad1)*%
X177422500Y-115690000D03*
%TO.P,R29,2*%
%TO.N,Net-(BT2-Pad2)*%
X175597500Y-115690000D03*
%TD*%
D17*
%TO.P,PB2,1,1*%
%TO.N,/BBD_PB2*%
X201040000Y-61690000D03*
X201040000Y-68890000D03*
%TO.P,PB2,2,2*%
%TO.N,/BBD_AGND*%
X204040000Y-68890000D03*
X204040000Y-61690000D03*
%TD*%
D18*
%TO.P,GND1,1,1*%
%TO.N,/PWR_GND*%
X170560000Y-115480000D03*
%TD*%
D14*
%TO.P,R33,1*%
%TO.N,/BBD_IPS_OUT*%
X209712500Y-63260000D03*
%TO.P,R33,2*%
%TO.N,Net-(LED3-Pad2)*%
X207887500Y-63260000D03*
%TD*%
D19*
%TO.P,C25,1*%
%TO.N,Net-(BT1-Pad2)*%
X196500000Y-124110000D03*
%TO.P,C25,2*%
%TO.N,/PWR_GND*%
X194600000Y-124110000D03*
%TD*%
D20*
%TO.P,Q1,1,G*%
%TO.N,Net-(BT1-Pad2)*%
X207730000Y-107310000D03*
%TO.P,Q1,2,S*%
%TO.N,/BATT+*%
X207730000Y-106010000D03*
%TO.P,Q1,3,D*%
%TO.N,Net-(D4-Pad2)*%
X209730000Y-106660000D03*
%TD*%
D21*
%TO.P,LED2,1,K*%
%TO.N,/BBD_PA6*%
X209410000Y-55052500D03*
%TO.P,LED2,2,A*%
%TO.N,Net-(LED2-Pad2)*%
X209410000Y-56627500D03*
%TD*%
D22*
%TO.P,C26,1*%
%TO.N,Net-(BT2-Pad2)*%
X183580000Y-123890000D03*
%TO.P,C26,2*%
%TO.N,/PWR_GND*%
X185480000Y-123890000D03*
%TD*%
D14*
%TO.P,R27,1*%
%TO.N,Net-(D4-Pad1)*%
X197245000Y-117130000D03*
%TO.P,R27,2*%
%TO.N,/PWR_GND*%
X195420000Y-117130000D03*
%TD*%
D21*
%TO.P,LED1,1,K*%
%TO.N,/BBD_GND*%
X211850000Y-55052500D03*
%TO.P,LED1,2,A*%
%TO.N,Net-(LED1-Pad2)*%
X211850000Y-56627500D03*
%TD*%
D16*
%TO.P,D4,*%
%TO.N,*%
X197280000Y-111050000D03*
%TO.P,D4,1,K*%
%TO.N,Net-(D4-Pad1)*%
X199280000Y-112000000D03*
%TO.P,D4,2,A*%
%TO.N,Net-(D4-Pad2)*%
X197280000Y-112950000D03*
%TD*%
D21*
%TO.P,LED3,1,K*%
%TO.N,/BBD_CHG_LED*%
X207000000Y-55052500D03*
%TO.P,LED3,2,A*%
%TO.N,Net-(LED3-Pad2)*%
X207000000Y-56627500D03*
%TD*%
D20*
%TO.P,Q3,1,G*%
%TO.N,Net-(BT2-Pad2)*%
X171330000Y-108200000D03*
%TO.P,Q3,2,S*%
%TO.N,/BATT+*%
X171330000Y-106900000D03*
%TO.P,Q3,3,D*%
%TO.N,Net-(D6-Pad2)*%
X173330000Y-107550000D03*
%TD*%
D23*
%TO.N,/BATT+*%
X195040000Y-57630000D03*
X184440000Y-57630000D03*
X190150000Y-57630000D03*
X197380000Y-55290000D03*
X171040000Y-63340000D03*
X196980000Y-69350000D03*
X181700000Y-55520000D03*
%TO.N,Net-(BT1-Pad2)*%
X205445000Y-120995000D03*
X204225000Y-120995000D03*
X205905000Y-120535000D03*
X204875000Y-120345000D03*
X206710000Y-121340000D03*
%TO.N,Net-(BT2-Pad2)*%
X177325000Y-120985000D03*
X174760000Y-120980000D03*
X175560000Y-120180000D03*
X175995000Y-120985000D03*
X176800600Y-120349400D03*
%TO.N,/PWR_GND*%
X192325000Y-120345000D03*
X195845000Y-120345000D03*
X198140000Y-103670000D03*
X194225000Y-120345000D03*
X188330600Y-120999400D03*
X190489400Y-120349400D03*
X187650600Y-120349400D03*
X193530000Y-104390000D03*
X191190005Y-113699995D03*
X191450000Y-121310000D03*
X186960600Y-120999400D03*
X191190005Y-108759997D03*
X189050600Y-120349400D03*
X193345000Y-120995000D03*
X195005000Y-120995000D03*
%TO.N,/BBD_PA6*%
X211749511Y-79600489D03*
%TO.N,/BBD_5V*%
X216430000Y-59050000D03*
%TD*%
D24*
%TO.N,/BATT+*%
X170080000Y-98180000D02*
X170080000Y-64300000D01*
X172725000Y-102840000D02*
X172725000Y-100825000D01*
D25*
X184440000Y-57630000D02*
X190150000Y-57630000D01*
D26*
X207730000Y-106010000D02*
X207730000Y-104450000D01*
D25*
X181670000Y-54860000D02*
X184440000Y-57630000D01*
D24*
X170080000Y-64300000D02*
X171040000Y-63340000D01*
D26*
X211070000Y-109860000D02*
X209800000Y-111130000D01*
D24*
X171220000Y-106770000D02*
X171350000Y-106900000D01*
D26*
X210020000Y-104450000D02*
X211070000Y-105500000D01*
D25*
X195040000Y-57630000D02*
X197380000Y-55290000D01*
D26*
X207730000Y-80100000D02*
X196980000Y-69350000D01*
D25*
X179010000Y-52200000D02*
X181630000Y-54820000D01*
D26*
X207730000Y-104450000D02*
X207730000Y-80100000D01*
D24*
X172725000Y-100825000D02*
X170080000Y-98180000D01*
D25*
X190150000Y-57630000D02*
X195040000Y-57630000D01*
D24*
X172725000Y-103815000D02*
X171220000Y-105320000D01*
X172725000Y-102840000D02*
X172725000Y-103815000D01*
D25*
X197380000Y-55290000D02*
X200860000Y-51810000D01*
D26*
X207730000Y-104450000D02*
X210020000Y-104450000D01*
D24*
X171220000Y-105320000D02*
X171220000Y-106770000D01*
D25*
X182400000Y-55560000D02*
X182400000Y-55600000D01*
D26*
X211070000Y-105500000D02*
X211070000Y-109860000D01*
D25*
X182400000Y-55600000D02*
X182440000Y-55600000D01*
D27*
%TO.N,Net-(BT1-Pad2)*%
X205905000Y-120535000D02*
X205715000Y-120345000D01*
D25*
X206710000Y-121340000D02*
X206650000Y-121400000D01*
D24*
X207435000Y-120615000D02*
X207435000Y-116490000D01*
D27*
X206365000Y-120995000D02*
X205445000Y-120995000D01*
D24*
X207435000Y-116490000D02*
X207435000Y-111335000D01*
D27*
X205445000Y-120995000D02*
X204225000Y-120995000D01*
D26*
X207730000Y-111100000D02*
X207650000Y-111180000D01*
D25*
X206650000Y-121400000D02*
X206650000Y-124420000D01*
D24*
X206710000Y-121340000D02*
X207435000Y-120615000D01*
D25*
X206650000Y-124420000D02*
X202930000Y-128140000D01*
D28*
X196390000Y-123900000D02*
X196390000Y-125690000D01*
D27*
X205715000Y-120345000D02*
X204875000Y-120345000D01*
D26*
X207730000Y-107310000D02*
X207730000Y-111100000D01*
D27*
X206710000Y-121340000D02*
X205905000Y-120535000D01*
X204225000Y-120995000D02*
X202972500Y-120995000D01*
X204875000Y-120345000D02*
X202972500Y-120345000D01*
D28*
X196390000Y-125690000D02*
X197390000Y-126690000D01*
D27*
X206710000Y-121340000D02*
X206365000Y-120995000D01*
D24*
%TO.N,Net-(BT2-Pad2)*%
X170410000Y-108200000D02*
X170010000Y-107800000D01*
X171330000Y-111790000D02*
X175290000Y-115750000D01*
D27*
X176800600Y-120349400D02*
X178967503Y-120349400D01*
X174750000Y-120990000D02*
X174755000Y-120985000D01*
D24*
X174750000Y-120990000D02*
X174760000Y-120980000D01*
D28*
X183630000Y-123890000D02*
X183630000Y-125600000D01*
D27*
X175390600Y-120349400D02*
X176800600Y-120349400D01*
D24*
X174760000Y-120980000D02*
X175560000Y-120180000D01*
D25*
X174690000Y-123260000D02*
X174690000Y-121050000D01*
D28*
X183630000Y-125600000D02*
X182310000Y-126920000D01*
D27*
X174750000Y-120990000D02*
X175390600Y-120349400D01*
D24*
X171330000Y-108200000D02*
X171330000Y-111790000D01*
X171330000Y-108200000D02*
X170410000Y-108200000D01*
X175815000Y-119925000D02*
X175815000Y-115700000D01*
X175560000Y-120180000D02*
X175815000Y-119925000D01*
D25*
X174710000Y-123210000D02*
X174710000Y-123990000D01*
X174710000Y-123990000D02*
X178880000Y-128160000D01*
X174690000Y-121050000D02*
X174750000Y-120990000D01*
D27*
X177325000Y-120985000D02*
X178967500Y-120985000D01*
D25*
X174690000Y-123260000D02*
X174710000Y-123240000D01*
D24*
X170010000Y-107800000D02*
X170010000Y-103690000D01*
X170010000Y-103690000D02*
X170940000Y-102760000D01*
D27*
X175995000Y-120985000D02*
X177325000Y-120985000D01*
X174755000Y-120985000D02*
X175995000Y-120985000D01*
%TO.N,/PWR_GND*%
X195845000Y-120345000D02*
X194225000Y-120345000D01*
D25*
X191190005Y-113699995D02*
X191190005Y-116769988D01*
D27*
X194225000Y-120345000D02*
X192325000Y-120345000D01*
X193345000Y-120995000D02*
X191245000Y-120995000D01*
D25*
X198480000Y-103670000D02*
X198140000Y-103670000D01*
D27*
X197247500Y-120995000D02*
X195005000Y-120995000D01*
D28*
X185530000Y-123890000D02*
X186360000Y-123890000D01*
X190369995Y-121870000D02*
X191190005Y-121049990D01*
D24*
X191840000Y-117420000D02*
X191190000Y-116770000D01*
X198895000Y-104085000D02*
X198480000Y-103670000D01*
D27*
X189050600Y-120349400D02*
X190489400Y-120349400D01*
X188330600Y-120999400D02*
X191139400Y-120999400D01*
X192325000Y-120345000D02*
X191895000Y-120345000D01*
X197247500Y-120345000D02*
X195845000Y-120345000D01*
D28*
X188380000Y-121870000D02*
X190369995Y-121870000D01*
D25*
X191190005Y-108759997D02*
X191190005Y-113699995D01*
D24*
X187145000Y-107570000D02*
X190000000Y-107570000D01*
D25*
X194250000Y-103670000D02*
X193530000Y-104390000D01*
D24*
X185935000Y-117510000D02*
X190450000Y-117510000D01*
D27*
X191245000Y-120995000D02*
X191190000Y-121050000D01*
D24*
X191450000Y-121310000D02*
X191190000Y-121050000D01*
D27*
X184692503Y-120349400D02*
X187650600Y-120349400D01*
D24*
X198895000Y-108250000D02*
X198895000Y-104085000D01*
X195535000Y-117420000D02*
X191840000Y-117420000D01*
D25*
X193530000Y-104390000D02*
X191190000Y-106730000D01*
D24*
X191340000Y-108610000D02*
X191190000Y-108760000D01*
D27*
X184692503Y-120999400D02*
X186960600Y-120999400D01*
X187650600Y-120349400D02*
X189050600Y-120349400D01*
D25*
X191190000Y-106730000D02*
X191190000Y-108760000D01*
D27*
X186960600Y-120999400D02*
X188330600Y-120999400D01*
X190489400Y-120349400D02*
X191190000Y-121050000D01*
X195005000Y-120995000D02*
X193345000Y-120995000D01*
D25*
X198140000Y-103670000D02*
X194250000Y-103670000D01*
D24*
X190000000Y-107570000D02*
X191190000Y-108760000D01*
D27*
X191139400Y-120999400D02*
X191190000Y-121050000D01*
X191895000Y-120345000D02*
X191190000Y-121050000D01*
D25*
X191190005Y-116769988D02*
X191190005Y-121049990D01*
D28*
X194490000Y-123900000D02*
X191639990Y-121049990D01*
D24*
X190450000Y-117510000D02*
X191190000Y-116770000D01*
D28*
X191639990Y-121049990D02*
X191190005Y-121049990D01*
X186360000Y-123890000D02*
X188380000Y-121870000D01*
D24*
%TO.N,Net-(D4-Pad1)*%
X197220000Y-117420000D02*
X197220000Y-115490000D01*
X197247502Y-119699400D02*
X197247502Y-117447502D01*
X197220000Y-115490000D02*
X199250000Y-113460000D01*
X199250000Y-113460000D02*
X199250000Y-112000000D01*
D26*
%TO.N,Net-(D4-Pad2)*%
X200780000Y-110070000D02*
X200710000Y-110070000D01*
D24*
X198280000Y-109470000D02*
X200110000Y-109470000D01*
X197245000Y-108435000D02*
X198280000Y-109470000D01*
X195540000Y-112950000D02*
X194980000Y-112390000D01*
X200110000Y-109470000D02*
X200710000Y-110070000D01*
X194980000Y-112390000D02*
X194980000Y-109180000D01*
X195860000Y-108300000D02*
X197320000Y-108300000D01*
D26*
X204190000Y-106660000D02*
X200780000Y-110070000D01*
X209730000Y-106660000D02*
X204190000Y-106660000D01*
D24*
X197280000Y-112950000D02*
X195540000Y-112950000D01*
X200710000Y-110070000D02*
X200710000Y-111890000D01*
X200710000Y-111890000D02*
X201590000Y-112770000D01*
X194980000Y-109180000D02*
X195860000Y-108300000D01*
%TO.N,Net-(D5-Pad1)*%
X205785000Y-116490000D02*
X205785000Y-112875000D01*
X204810000Y-111900000D02*
X203890000Y-111900000D01*
X205780000Y-118410000D02*
X205780000Y-116590000D01*
X204410000Y-119780000D02*
X205780000Y-118410000D01*
X205785000Y-112875000D02*
X204810000Y-111900000D01*
X203053102Y-119780000D02*
X204410000Y-119780000D01*
X202972502Y-119699400D02*
X203053102Y-119780000D01*
%TO.N,Net-(D6-Pad1)*%
X182590000Y-119070000D02*
X183200000Y-119680000D01*
X184420000Y-119680000D02*
X183200000Y-119680000D01*
X182680000Y-117480000D02*
X182590000Y-117390000D01*
X182590000Y-107490000D02*
X182590000Y-117390000D01*
X182590000Y-117390000D02*
X182590000Y-119070000D01*
X184255000Y-117480000D02*
X182680000Y-117480000D01*
%TO.N,Net-(D6-Pad2)*%
X176250000Y-104630000D02*
X179160000Y-104630000D01*
X179330000Y-104800000D02*
X179160000Y-104630000D01*
X183950000Y-104640000D02*
X185480000Y-106170000D01*
X174270000Y-108520000D02*
X176180000Y-108520000D01*
X179330000Y-104800000D02*
X179330000Y-107210000D01*
X179330000Y-107210000D02*
X180600000Y-108480000D01*
X179170000Y-104640000D02*
X183950000Y-104640000D01*
X185480000Y-106170000D02*
X185480000Y-107690000D01*
X173330000Y-107550000D02*
X176250000Y-104630000D01*
X173330000Y-107580000D02*
X174270000Y-108520000D01*
%TO.N,Net-(D7-Pad1)*%
X177430000Y-113730000D02*
X177430000Y-115670000D01*
X178240000Y-112920000D02*
X177430000Y-113730000D01*
X178009400Y-119699400D02*
X177490000Y-119180000D01*
X177490000Y-119180000D02*
X177490000Y-115670000D01*
X178967503Y-119699400D02*
X178009400Y-119699400D01*
X178240000Y-107590000D02*
X178240000Y-112920000D01*
D26*
%TO.N,/BBD_GND*%
X214840000Y-53260000D02*
X213550000Y-53260000D01*
X215600000Y-54020000D02*
X214840000Y-53260000D01*
X215600000Y-59000000D02*
X215600000Y-54020000D01*
X213100000Y-73890000D02*
X213100000Y-61500000D01*
X213100000Y-61500000D02*
X215600000Y-59000000D01*
X213550000Y-53260000D02*
X211870000Y-54940000D01*
X214860000Y-75650000D02*
X213100000Y-73890000D01*
%TO.N,Net-(LED1-Pad2)*%
X214140000Y-55210000D02*
X212700000Y-56650000D01*
X214567500Y-55210000D02*
X214140000Y-55210000D01*
X212700000Y-56650000D02*
X211900000Y-56650000D01*
%TO.N,/BBD_PA6*%
X208679520Y-61639520D02*
X208679520Y-77219520D01*
X209197500Y-55052500D02*
X208020000Y-56230000D01*
X208020000Y-56230000D02*
X208020000Y-60040000D01*
X207945000Y-60905000D02*
X208679520Y-61639520D01*
X211060489Y-79600489D02*
X211749511Y-79600489D01*
X207945000Y-59990000D02*
X207945000Y-60905000D01*
X208679520Y-77219520D02*
X211060489Y-79600489D01*
X209410000Y-55052500D02*
X209197500Y-55052500D01*
%TO.N,Net-(LED2-Pad2)*%
X209500000Y-57460000D02*
X209500000Y-59580000D01*
X214637500Y-57490000D02*
X209530000Y-57490000D01*
X209500000Y-57460000D02*
X209500000Y-56790000D01*
X209500000Y-59580000D02*
X209780000Y-59860000D01*
X209530000Y-57490000D02*
X209500000Y-57460000D01*
%TO.N,/BBD_CHG_LED*%
X206647500Y-55052500D02*
X206245480Y-55454520D01*
X211290000Y-80730000D02*
X214980000Y-80730000D01*
X207000000Y-55052500D02*
X206647500Y-55052500D01*
X206245480Y-75685480D02*
X211290000Y-80730000D01*
X206245480Y-55454520D02*
X206245480Y-75685480D01*
%TO.N,Net-(LED3-Pad2)*%
X207000000Y-62440000D02*
X207810000Y-63250000D01*
X207000000Y-56627500D02*
X207000000Y-62440000D01*
%TO.N,/BBD_AGND*%
X218820000Y-75170000D02*
X218820000Y-69630000D01*
X217400000Y-75650000D02*
X218340000Y-75650000D01*
X218080000Y-61690000D02*
X218080000Y-68860000D01*
X204040000Y-61690000D02*
X204040000Y-68810000D01*
X218340000Y-75650000D02*
X218820000Y-75170000D01*
X215550000Y-52500000D02*
X208372840Y-52500000D01*
X218080000Y-61690000D02*
X218080000Y-55030000D01*
X218820000Y-69630000D02*
X218090000Y-68900000D01*
X204040000Y-68810000D02*
X203980000Y-68870000D01*
X218080000Y-55030000D02*
X215550000Y-52500000D01*
X205580000Y-55292840D02*
X205580000Y-60270000D01*
X205580000Y-60270000D02*
X204160000Y-61690000D01*
X218080000Y-68860000D02*
X218090000Y-68870000D01*
X208372840Y-52500000D02*
X205580000Y-55292840D01*
%TO.N,/BBD_5V*%
X216430000Y-59050000D02*
X216430000Y-57530000D01*
X216392500Y-55210000D02*
X216392500Y-57282500D01*
X216430000Y-57530000D02*
X216390000Y-57490000D01*
X216392500Y-57282500D02*
X216460000Y-57350000D01*
%TO.N,/BBD_IPS_OUT*%
X209712500Y-76832500D02*
X211170000Y-78290000D01*
X211170000Y-78290000D02*
X215000000Y-78290000D01*
X209712500Y-63260000D02*
X209712500Y-76832500D01*
%TO.N,/BBD_PB1*%
X216150000Y-82020000D02*
X216150000Y-69720000D01*
X217400000Y-83270000D02*
X216150000Y-82020000D01*
X216150000Y-69720000D02*
X215190000Y-68760000D01*
X215080000Y-61690000D02*
X215080000Y-68870000D01*
%TO.N,/BBD_PB2*%
X214860000Y-83270000D02*
X212700000Y-83270000D01*
X201020000Y-71590000D02*
X201020000Y-69020000D01*
X201040000Y-61690000D02*
X201040000Y-68800000D01*
X212700000Y-83270000D02*
X201020000Y-71590000D01*
X201040000Y-68800000D02*
X201030000Y-68810000D01*
%TD*%
M02*
