%TF.GenerationSoftware,KiCad,Pcbnew,7.0.10*%
%TF.CreationDate,2025-01-07T15:55:25-07:00*%
%TF.ProjectId,HATB_ver_8.3.1,48415442-5f76-4657-925f-382e332e312e,8.3.1*%
%TF.SameCoordinates,Original*%
%TF.FileFunction,Legend,Top*%
%TF.FilePolarity,Positive*%
%FSLAX46Y46*%
G04 Gerber Fmt 4.6, Leading zero omitted, Abs format (unit mm)*
G04 Created by KiCad (PCBNEW 7.0.10) date 2025-01-07 15:55:25*
%MOMM*%
%LPD*%
G01*
G04 APERTURE LIST*
%ADD10C,0.150000*%
%ADD11C,0.200000*%
%ADD12C,0.100000*%
%ADD13C,0.800000*%
%ADD14C,0.120000*%
G04 APERTURE END LIST*
D10*
X209580000Y-117710000D02*
X209570000Y-108040000D01*
X205160000Y-117710000D02*
X209580000Y-117710000D01*
X206030000Y-113460000D02*
X203540000Y-114890000D01*
X203540000Y-114290000D01*
X203560000Y-114280000D01*
X199660000Y-114290000D01*
X199670000Y-112660000D01*
X203580000Y-112660000D01*
X203580000Y-111980000D01*
X206030000Y-113460000D01*
G36*
X206030000Y-113460000D02*
G01*
X203540000Y-114890000D01*
X203540000Y-114290000D01*
X203560000Y-114280000D01*
X199660000Y-114290000D01*
X199670000Y-112660000D01*
X203580000Y-112660000D01*
X203580000Y-111980000D01*
X206030000Y-113460000D01*
G37*
X200340000Y-119080000D02*
X200330000Y-118350000D01*
X194540000Y-108050000D02*
X194540000Y-119070000D01*
X209570000Y-108040000D02*
X194540000Y-108050000D01*
X202120000Y-118350000D02*
X202120000Y-119060000D01*
X204100000Y-119070000D02*
X205160000Y-117710000D01*
X202120000Y-119060000D02*
X204100000Y-119070000D01*
X202120000Y-118350000D02*
X200330000Y-118350000D01*
X194540000Y-119070000D02*
X200340000Y-119080000D01*
X202120000Y-119060000D02*
X202120000Y-118350000D01*
D11*
X168768095Y-112749838D02*
X168672857Y-112702219D01*
X168672857Y-112702219D02*
X168530000Y-112702219D01*
X168530000Y-112702219D02*
X168387143Y-112749838D01*
X168387143Y-112749838D02*
X168291905Y-112845076D01*
X168291905Y-112845076D02*
X168244286Y-112940314D01*
X168244286Y-112940314D02*
X168196667Y-113130790D01*
X168196667Y-113130790D02*
X168196667Y-113273647D01*
X168196667Y-113273647D02*
X168244286Y-113464123D01*
X168244286Y-113464123D02*
X168291905Y-113559361D01*
X168291905Y-113559361D02*
X168387143Y-113654600D01*
X168387143Y-113654600D02*
X168530000Y-113702219D01*
X168530000Y-113702219D02*
X168625238Y-113702219D01*
X168625238Y-113702219D02*
X168768095Y-113654600D01*
X168768095Y-113654600D02*
X168815714Y-113606980D01*
X168815714Y-113606980D02*
X168815714Y-113273647D01*
X168815714Y-113273647D02*
X168625238Y-113273647D01*
X169244286Y-113702219D02*
X169244286Y-112702219D01*
X169244286Y-112702219D02*
X169815714Y-113702219D01*
X169815714Y-113702219D02*
X169815714Y-112702219D01*
X170291905Y-113702219D02*
X170291905Y-112702219D01*
X170291905Y-112702219D02*
X170530000Y-112702219D01*
X170530000Y-112702219D02*
X170672857Y-112749838D01*
X170672857Y-112749838D02*
X170768095Y-112845076D01*
X170768095Y-112845076D02*
X170815714Y-112940314D01*
X170815714Y-112940314D02*
X170863333Y-113130790D01*
X170863333Y-113130790D02*
X170863333Y-113273647D01*
X170863333Y-113273647D02*
X170815714Y-113464123D01*
X170815714Y-113464123D02*
X170768095Y-113559361D01*
X170768095Y-113559361D02*
X170672857Y-113654600D01*
X170672857Y-113654600D02*
X170530000Y-113702219D01*
X170530000Y-113702219D02*
X170291905Y-113702219D01*
D12*
X217751428Y-70912371D02*
X217751428Y-70312371D01*
X217751428Y-70312371D02*
X217979999Y-70312371D01*
X217979999Y-70312371D02*
X218037142Y-70340942D01*
X218037142Y-70340942D02*
X218065713Y-70369514D01*
X218065713Y-70369514D02*
X218094285Y-70426657D01*
X218094285Y-70426657D02*
X218094285Y-70512371D01*
X218094285Y-70512371D02*
X218065713Y-70569514D01*
X218065713Y-70569514D02*
X218037142Y-70598085D01*
X218037142Y-70598085D02*
X217979999Y-70626657D01*
X217979999Y-70626657D02*
X217751428Y-70626657D01*
X218665713Y-70912371D02*
X218322856Y-70912371D01*
X218494285Y-70912371D02*
X218494285Y-70312371D01*
X218494285Y-70312371D02*
X218437142Y-70398085D01*
X218437142Y-70398085D02*
X218379999Y-70455228D01*
X218379999Y-70455228D02*
X218322856Y-70483800D01*
X219037142Y-70312371D02*
X219094285Y-70312371D01*
X219094285Y-70312371D02*
X219151428Y-70340942D01*
X219151428Y-70340942D02*
X219180000Y-70369514D01*
X219180000Y-70369514D02*
X219208571Y-70426657D01*
X219208571Y-70426657D02*
X219237142Y-70540942D01*
X219237142Y-70540942D02*
X219237142Y-70683800D01*
X219237142Y-70683800D02*
X219208571Y-70798085D01*
X219208571Y-70798085D02*
X219180000Y-70855228D01*
X219180000Y-70855228D02*
X219151428Y-70883800D01*
X219151428Y-70883800D02*
X219094285Y-70912371D01*
X219094285Y-70912371D02*
X219037142Y-70912371D01*
X219037142Y-70912371D02*
X218980000Y-70883800D01*
X218980000Y-70883800D02*
X218951428Y-70855228D01*
X218951428Y-70855228D02*
X218922857Y-70798085D01*
X218922857Y-70798085D02*
X218894285Y-70683800D01*
X218894285Y-70683800D02*
X218894285Y-70540942D01*
X218894285Y-70540942D02*
X218922857Y-70426657D01*
X218922857Y-70426657D02*
X218951428Y-70369514D01*
X218951428Y-70369514D02*
X218980000Y-70340942D01*
X218980000Y-70340942D02*
X219037142Y-70312371D01*
X208338571Y-56448085D02*
X208424285Y-56476657D01*
X208424285Y-56476657D02*
X208452856Y-56505228D01*
X208452856Y-56505228D02*
X208481428Y-56562371D01*
X208481428Y-56562371D02*
X208481428Y-56648085D01*
X208481428Y-56648085D02*
X208452856Y-56705228D01*
X208452856Y-56705228D02*
X208424285Y-56733800D01*
X208424285Y-56733800D02*
X208367142Y-56762371D01*
X208367142Y-56762371D02*
X208138571Y-56762371D01*
X208138571Y-56762371D02*
X208138571Y-56162371D01*
X208138571Y-56162371D02*
X208338571Y-56162371D01*
X208338571Y-56162371D02*
X208395714Y-56190942D01*
X208395714Y-56190942D02*
X208424285Y-56219514D01*
X208424285Y-56219514D02*
X208452856Y-56276657D01*
X208452856Y-56276657D02*
X208452856Y-56333800D01*
X208452856Y-56333800D02*
X208424285Y-56390942D01*
X208424285Y-56390942D02*
X208395714Y-56419514D01*
X208395714Y-56419514D02*
X208338571Y-56448085D01*
X208338571Y-56448085D02*
X208138571Y-56448085D01*
X208652856Y-56162371D02*
X208995714Y-56162371D01*
X208824285Y-56762371D02*
X208824285Y-56162371D01*
X209509999Y-56762371D02*
X209167142Y-56762371D01*
X209338571Y-56762371D02*
X209338571Y-56162371D01*
X209338571Y-56162371D02*
X209281428Y-56248085D01*
X209281428Y-56248085D02*
X209224285Y-56305228D01*
X209224285Y-56305228D02*
X209167142Y-56333800D01*
D13*
X197132380Y-105431733D02*
X203227619Y-105431733D01*
X197522380Y-64331733D02*
X203617619Y-64331733D01*
X200569999Y-67379352D02*
X200569999Y-61284114D01*
D12*
X169648571Y-56908085D02*
X169734285Y-56936657D01*
X169734285Y-56936657D02*
X169762856Y-56965228D01*
X169762856Y-56965228D02*
X169791428Y-57022371D01*
X169791428Y-57022371D02*
X169791428Y-57108085D01*
X169791428Y-57108085D02*
X169762856Y-57165228D01*
X169762856Y-57165228D02*
X169734285Y-57193800D01*
X169734285Y-57193800D02*
X169677142Y-57222371D01*
X169677142Y-57222371D02*
X169448571Y-57222371D01*
X169448571Y-57222371D02*
X169448571Y-56622371D01*
X169448571Y-56622371D02*
X169648571Y-56622371D01*
X169648571Y-56622371D02*
X169705714Y-56650942D01*
X169705714Y-56650942D02*
X169734285Y-56679514D01*
X169734285Y-56679514D02*
X169762856Y-56736657D01*
X169762856Y-56736657D02*
X169762856Y-56793800D01*
X169762856Y-56793800D02*
X169734285Y-56850942D01*
X169734285Y-56850942D02*
X169705714Y-56879514D01*
X169705714Y-56879514D02*
X169648571Y-56908085D01*
X169648571Y-56908085D02*
X169448571Y-56908085D01*
X169962856Y-56622371D02*
X170305714Y-56622371D01*
X170134285Y-57222371D02*
X170134285Y-56622371D01*
X170477142Y-56679514D02*
X170505714Y-56650942D01*
X170505714Y-56650942D02*
X170562857Y-56622371D01*
X170562857Y-56622371D02*
X170705714Y-56622371D01*
X170705714Y-56622371D02*
X170762857Y-56650942D01*
X170762857Y-56650942D02*
X170791428Y-56679514D01*
X170791428Y-56679514D02*
X170819999Y-56736657D01*
X170819999Y-56736657D02*
X170819999Y-56793800D01*
X170819999Y-56793800D02*
X170791428Y-56879514D01*
X170791428Y-56879514D02*
X170448571Y-57222371D01*
X170448571Y-57222371D02*
X170819999Y-57222371D01*
D13*
X175522380Y-64331733D02*
X181617619Y-64331733D01*
X178569999Y-67379352D02*
X178569999Y-61284114D01*
X175102380Y-105921733D02*
X181197619Y-105921733D01*
D14*
%TO.C,P10*%
X213530000Y-84600000D02*
X218730000Y-84600000D01*
X218730000Y-74380000D02*
X218730000Y-84600000D01*
X216130000Y-74380000D02*
X218730000Y-74380000D01*
X216130000Y-71780000D02*
X216130000Y-74380000D01*
X217400000Y-71780000D02*
X218730000Y-71780000D01*
X213530000Y-71780000D02*
X213530000Y-84600000D01*
X213530000Y-71780000D02*
X216130000Y-71780000D01*
X218730000Y-71780000D02*
X218730000Y-73110000D01*
D10*
%TO.C,BT1*%
X189560000Y-54500000D02*
X189560000Y-125500000D01*
X211060000Y-54500000D02*
X208510000Y-54500000D01*
X189560000Y-125500000D02*
X192110000Y-125500000D01*
X211060000Y-125500000D02*
X208510000Y-125500000D01*
X189560000Y-54500000D02*
X192110000Y-54500000D01*
X211060000Y-54500000D02*
X211060000Y-125500000D01*
%TO.C,BT2*%
X167560000Y-54500000D02*
X170110000Y-54500000D01*
X167560000Y-54500000D02*
X167560000Y-125500000D01*
X189060000Y-54500000D02*
X189060000Y-125500000D01*
X167560000Y-125500000D02*
X170110000Y-125500000D01*
X189060000Y-125500000D02*
X186510000Y-125500000D01*
X189060000Y-54500000D02*
X186510000Y-54500000D01*
%TD*%
M02*
