M48
; DRILL file {KiCad 7.0.10} date Tue Jan  7 15:55:43 2025
; FORMAT={-:-/ absolute / inch / decimal}
; #@! TF.CreationDate,2025-01-07T15:55:43-07:00
; #@! TF.GenerationSoftware,Kicad,Pcbnew,7.0.10
; #@! TF.FileFunction,Plated,1,2,PTH
FMAT,2
INCH
; #@! TA.AperFunction,Plated,PTH,ViaDrill
T1C0.0157
; #@! TA.AperFunction,Plated,PTH,ComponentDrill
T2C0.0197
; #@! TA.AperFunction,Plated,PTH,ComponentDrill
T3C0.0276
; #@! TA.AperFunction,Plated,PTH,ComponentDrill
T4C0.0394
%
G90
G05
T1
X6.7339Y-2.4937
X6.8803Y-4.763
X6.9118Y-4.7315
X6.9289Y-4.7632
X6.9607Y-4.7382
X6.9813Y-4.7632
X7.1535Y-2.1858
X7.2614Y-2.2689
X7.3607Y-4.7638
X7.3878Y-4.7382
X7.4146Y-4.7638
X7.4429Y-4.7382
X7.4862Y-2.2689
X7.4996Y-4.7382
X7.5272Y-4.2819
X7.5272Y-4.4764
X7.5374Y-4.776
X7.5719Y-4.738
X7.612Y-4.7636
X7.6193Y-4.1098
X7.6467Y-4.738
X7.6774Y-4.7636
X7.6787Y-2.2689
X7.7104Y-4.738
X7.7551Y-2.7303
X7.7709Y-2.1768
X7.8008Y-4.0815
X8.0404Y-4.7636
X8.0659Y-4.738
X8.0884Y-4.7636
X8.1065Y-4.7455
X8.1382Y-4.7772
X8.3366Y-3.1339
X8.5209Y-2.3248
T3
X6.715Y-4.5465
T4
X8.4591Y-2.8783
X8.4591Y-2.9783
X8.4591Y-3.0783
X8.4591Y-3.1783
X8.4591Y-3.2783
X8.5591Y-2.8783
X8.5591Y-2.9783
X8.5591Y-3.0783
X8.5591Y-3.1783
X8.5591Y-3.2783
T2
G00X6.8868Y-2.0453
M15
G01X6.8533Y-2.0453
M16
G05
G00X6.8868Y-5.0413
M15
G01X6.8533Y-5.0413
M16
G05
G00X7.1868Y-2.0453
M15
G01X7.1533Y-2.0453
M16
G05
G00X7.1868Y-5.0413
M15
G01X7.1533Y-5.0413
M16
G05
G00X7.753Y-2.0453
M15
G01X7.7195Y-2.0453
M16
G05
G00X7.753Y-5.0413
M15
G01X7.7195Y-5.0413
M16
G05
G00X8.053Y-2.0453
M15
G01X8.0195Y-2.0453
M16
G05
G00X8.053Y-5.0413
M15
G01X8.0195Y-5.0413
M16
G05
M30
