%TF.GenerationSoftware,KiCad,Pcbnew,7.0.10*%
%TF.CreationDate,2025-01-07T15:55:44-07:00*%
%TF.ProjectId,HATB_ver_8.3.1,48415442-5f76-4657-925f-382e332e312e,8.3.1*%
%TF.SameCoordinates,Original*%
%TF.FileFunction,Drillmap*%
%TF.FilePolarity,Positive*%
%FSLAX45Y45*%
G04 Gerber Fmt 4.5, Leading zero omitted, Abs format (unit mm)*
G04 Created by KiCad (PCBNEW 7.0.10) date 2025-01-07 15:55:44*
%MOMM*%
%LPD*%
G01*
G04 APERTURE LIST*
%ADD10C,0.100000*%
%ADD11C,0.200000*%
G04 APERTURE END LIST*
D10*
X21944000Y-4980000D02*
X16714000Y-4980000D01*
X16844000Y-13020000D02*
X16844000Y-12040000D01*
X16714000Y-4980000D02*
X16714000Y-12040000D01*
X16714000Y-12040000D02*
X16844000Y-12040000D01*
X19064000Y-12680000D02*
G75*
G03*
X18764000Y-12680000I-150000J0D01*
G01*
X18764000Y-12680000D02*
G75*
G03*
X19064000Y-12680000I150000J0D01*
G01*
X21944000Y-8580000D02*
X21194000Y-8580000D01*
X21944000Y-4980000D02*
X21944000Y-8580000D01*
X16844000Y-13020000D02*
X21194000Y-13020000D01*
X21194000Y-13020000D02*
X21194000Y-8580000D01*
X19064000Y-5320000D02*
G75*
G03*
X18764000Y-5320000I-150000J0D01*
G01*
X18764000Y-5320000D02*
G75*
G03*
X19064000Y-5320000I150000J0D01*
G01*
D11*
D10*
X17084000Y-6314000D02*
X17124000Y-6354000D01*
X17124000Y-6314000D02*
X17084000Y-6354000D01*
X17456000Y-12078000D02*
X17496000Y-12118000D01*
X17496000Y-12078000D02*
X17456000Y-12118000D01*
X17536000Y-11998000D02*
X17576000Y-12038000D01*
X17576000Y-11998000D02*
X17536000Y-12038000D01*
X17579500Y-12078500D02*
X17619500Y-12118500D01*
X17619500Y-12078500D02*
X17579500Y-12118500D01*
X17660060Y-12014940D02*
X17700060Y-12054940D01*
X17700060Y-12014940D02*
X17660060Y-12054940D01*
X17712500Y-12078500D02*
X17752500Y-12118500D01*
X17752500Y-12078500D02*
X17712500Y-12118500D01*
X18150000Y-5532000D02*
X18190000Y-5572000D01*
X18190000Y-5532000D02*
X18150000Y-5572000D01*
X18424000Y-5743000D02*
X18464000Y-5783000D01*
X18464000Y-5743000D02*
X18424000Y-5783000D01*
X18676060Y-12079940D02*
X18716060Y-12119940D01*
X18716060Y-12079940D02*
X18676060Y-12119940D01*
X18745060Y-12014940D02*
X18785060Y-12054940D01*
X18785060Y-12014940D02*
X18745060Y-12054940D01*
X18813060Y-12079940D02*
X18853060Y-12119940D01*
X18853060Y-12079940D02*
X18813060Y-12119940D01*
X18885060Y-12014940D02*
X18925060Y-12054940D01*
X18925060Y-12014940D02*
X18885060Y-12054940D01*
X18995000Y-5743000D02*
X19035000Y-5783000D01*
X19035000Y-5743000D02*
X18995000Y-5783000D01*
X19028940Y-12014940D02*
X19068940Y-12054940D01*
X19068940Y-12014940D02*
X19028940Y-12054940D01*
X19099001Y-10856000D02*
X19139001Y-10896000D01*
X19139001Y-10856000D02*
X19099001Y-10896000D01*
X19099001Y-11349999D02*
X19139001Y-11389999D01*
X19139001Y-11349999D02*
X19099001Y-11389999D01*
X19125000Y-12111000D02*
X19165000Y-12151000D01*
X19165000Y-12111000D02*
X19125000Y-12151000D01*
X19212500Y-12014500D02*
X19252500Y-12054500D01*
X19252500Y-12014500D02*
X19212500Y-12054500D01*
X19314500Y-12079500D02*
X19354500Y-12119500D01*
X19354500Y-12079500D02*
X19314500Y-12119500D01*
X19333000Y-10419000D02*
X19373000Y-10459000D01*
X19373000Y-10419000D02*
X19333000Y-10459000D01*
X19402500Y-12014500D02*
X19442500Y-12054500D01*
X19442500Y-12014500D02*
X19402500Y-12054500D01*
X19480500Y-12079500D02*
X19520500Y-12119500D01*
X19520500Y-12079500D02*
X19480500Y-12119500D01*
X19484000Y-5743000D02*
X19524000Y-5783000D01*
X19524000Y-5743000D02*
X19484000Y-5783000D01*
X19564500Y-12014500D02*
X19604500Y-12054500D01*
X19604500Y-12014500D02*
X19564500Y-12054500D01*
X19678000Y-6915000D02*
X19718000Y-6955000D01*
X19718000Y-6915000D02*
X19678000Y-6955000D01*
X19718000Y-5509000D02*
X19758000Y-5549000D01*
X19758000Y-5509000D02*
X19718000Y-5549000D01*
X19794000Y-10347000D02*
X19834000Y-10387000D01*
X19834000Y-10347000D02*
X19794000Y-10387000D01*
X20402500Y-12079500D02*
X20442500Y-12119500D01*
X20442500Y-12079500D02*
X20402500Y-12119500D01*
X20467500Y-12014500D02*
X20507500Y-12054500D01*
X20507500Y-12014500D02*
X20467500Y-12054500D01*
X20524500Y-12079500D02*
X20564500Y-12119500D01*
X20564500Y-12079500D02*
X20524500Y-12119500D01*
X20570500Y-12033500D02*
X20610500Y-12073500D01*
X20610500Y-12033500D02*
X20570500Y-12073500D01*
X20651000Y-12114000D02*
X20691000Y-12154000D01*
X20691000Y-12114000D02*
X20651000Y-12154000D01*
X21154951Y-7940049D02*
X21194951Y-7980049D01*
X21194951Y-7940049D02*
X21154951Y-7980049D01*
X21623000Y-5885000D02*
X21663000Y-5925000D01*
X21663000Y-5885000D02*
X21623000Y-5925000D01*
X17475000Y-5195000D02*
G75*
G03*
X17425000Y-5195000I-25000J0D01*
G01*
X17425000Y-5195000D02*
G75*
G03*
X17475000Y-5195000I25000J0D01*
G01*
X17492500Y-5170000D02*
X17407500Y-5170000D01*
X17407500Y-5170000D02*
G75*
G03*
X17407500Y-5220000I0J-25000D01*
G01*
X17407500Y-5220000D02*
X17492500Y-5220000D01*
X17492500Y-5220000D02*
G75*
G03*
X17492500Y-5170000I0J25000D01*
G01*
X17475000Y-12805000D02*
G75*
G03*
X17425000Y-12805000I-25000J0D01*
G01*
X17425000Y-12805000D02*
G75*
G03*
X17475000Y-12805000I25000J0D01*
G01*
X17492500Y-12780000D02*
X17407500Y-12780000D01*
X17407500Y-12780000D02*
G75*
G03*
X17407500Y-12830000I0J-25000D01*
G01*
X17407500Y-12830000D02*
X17492500Y-12830000D01*
X17492500Y-12830000D02*
G75*
G03*
X17492500Y-12780000I0J25000D01*
G01*
X18237000Y-5195000D02*
G75*
G03*
X18187000Y-5195000I-25000J0D01*
G01*
X18187000Y-5195000D02*
G75*
G03*
X18237000Y-5195000I25000J0D01*
G01*
X18254500Y-5170000D02*
X18169500Y-5170000D01*
X18169500Y-5170000D02*
G75*
G03*
X18169500Y-5220000I0J-25000D01*
G01*
X18169500Y-5220000D02*
X18254500Y-5220000D01*
X18254500Y-5220000D02*
G75*
G03*
X18254500Y-5170000I0J25000D01*
G01*
X18237000Y-12805000D02*
G75*
G03*
X18187000Y-12805000I-25000J0D01*
G01*
X18187000Y-12805000D02*
G75*
G03*
X18237000Y-12805000I25000J0D01*
G01*
X18254500Y-12780000D02*
X18169500Y-12780000D01*
X18169500Y-12780000D02*
G75*
G03*
X18169500Y-12830000I0J-25000D01*
G01*
X18169500Y-12830000D02*
X18254500Y-12830000D01*
X18254500Y-12830000D02*
G75*
G03*
X18254500Y-12780000I0J25000D01*
G01*
X19675000Y-5195000D02*
G75*
G03*
X19625000Y-5195000I-25000J0D01*
G01*
X19625000Y-5195000D02*
G75*
G03*
X19675000Y-5195000I25000J0D01*
G01*
X19692500Y-5170000D02*
X19607500Y-5170000D01*
X19607500Y-5170000D02*
G75*
G03*
X19607500Y-5220000I0J-25000D01*
G01*
X19607500Y-5220000D02*
X19692500Y-5220000D01*
X19692500Y-5220000D02*
G75*
G03*
X19692500Y-5170000I0J25000D01*
G01*
X19675000Y-12805000D02*
G75*
G03*
X19625000Y-12805000I-25000J0D01*
G01*
X19625000Y-12805000D02*
G75*
G03*
X19675000Y-12805000I25000J0D01*
G01*
X19692500Y-12780000D02*
X19607500Y-12780000D01*
X19607500Y-12780000D02*
G75*
G03*
X19607500Y-12830000I0J-25000D01*
G01*
X19607500Y-12830000D02*
X19692500Y-12830000D01*
X19692500Y-12830000D02*
G75*
G03*
X19692500Y-12780000I0J25000D01*
G01*
X20437000Y-5195000D02*
G75*
G03*
X20387000Y-5195000I-25000J0D01*
G01*
X20387000Y-5195000D02*
G75*
G03*
X20437000Y-5195000I25000J0D01*
G01*
X20454500Y-5170000D02*
X20369500Y-5170000D01*
X20369500Y-5170000D02*
G75*
G03*
X20369500Y-5220000I0J-25000D01*
G01*
X20369500Y-5220000D02*
X20454500Y-5220000D01*
X20454500Y-5220000D02*
G75*
G03*
X20454500Y-5170000I0J25000D01*
G01*
X20437000Y-12805000D02*
G75*
G03*
X20387000Y-12805000I-25000J0D01*
G01*
X20387000Y-12805000D02*
G75*
G03*
X20437000Y-12805000I25000J0D01*
G01*
X20454500Y-12780000D02*
X20369500Y-12780000D01*
X20369500Y-12780000D02*
G75*
G03*
X20369500Y-12830000I0J-25000D01*
G01*
X20369500Y-12830000D02*
X20454500Y-12830000D01*
X20454500Y-12830000D02*
G75*
G03*
X20454500Y-12780000I0J25000D01*
G01*
X17056000Y-11513000D02*
X17056000Y-11583000D01*
X17021000Y-11548000D02*
X17091000Y-11548000D01*
X21521356Y-7346356D02*
X21521356Y-7275644D01*
X21450644Y-7275644D01*
X21450644Y-7346356D01*
X21521356Y-7346356D01*
X21521356Y-7600356D02*
X21521356Y-7529644D01*
X21450644Y-7529644D01*
X21450644Y-7600356D01*
X21521356Y-7600356D01*
X21521356Y-7854356D02*
X21521356Y-7783644D01*
X21450644Y-7783644D01*
X21450644Y-7854356D01*
X21521356Y-7854356D01*
X21521356Y-8108356D02*
X21521356Y-8037644D01*
X21450644Y-8037644D01*
X21450644Y-8108356D01*
X21521356Y-8108356D01*
X21521356Y-8362356D02*
X21521356Y-8291644D01*
X21450644Y-8291644D01*
X21450644Y-8362356D01*
X21521356Y-8362356D01*
X21775356Y-7346356D02*
X21775356Y-7275644D01*
X21704644Y-7275644D01*
X21704644Y-7346356D01*
X21775356Y-7346356D01*
X21775356Y-7600356D02*
X21775356Y-7529644D01*
X21704644Y-7529644D01*
X21704644Y-7600356D01*
X21775356Y-7600356D01*
X21775356Y-7854356D02*
X21775356Y-7783644D01*
X21704644Y-7783644D01*
X21704644Y-7854356D01*
X21775356Y-7854356D01*
X21775356Y-8108356D02*
X21775356Y-8037644D01*
X21704644Y-8037644D01*
X21704644Y-8108356D01*
X21775356Y-8108356D01*
X21775356Y-8362356D02*
X21775356Y-8291644D01*
X21704644Y-8291644D01*
X21704644Y-8362356D01*
X21775356Y-8362356D01*
D11*
X16969777Y-13336484D02*
X16969777Y-13136484D01*
X16969777Y-13136484D02*
X17017396Y-13136484D01*
X17017396Y-13136484D02*
X17045967Y-13146008D01*
X17045967Y-13146008D02*
X17065015Y-13165055D01*
X17065015Y-13165055D02*
X17074539Y-13184103D01*
X17074539Y-13184103D02*
X17084063Y-13222198D01*
X17084063Y-13222198D02*
X17084063Y-13250769D01*
X17084063Y-13250769D02*
X17074539Y-13288865D01*
X17074539Y-13288865D02*
X17065015Y-13307912D01*
X17065015Y-13307912D02*
X17045967Y-13326960D01*
X17045967Y-13326960D02*
X17017396Y-13336484D01*
X17017396Y-13336484D02*
X16969777Y-13336484D01*
X17169777Y-13336484D02*
X17169777Y-13203150D01*
X17169777Y-13241246D02*
X17179301Y-13222198D01*
X17179301Y-13222198D02*
X17188824Y-13212674D01*
X17188824Y-13212674D02*
X17207872Y-13203150D01*
X17207872Y-13203150D02*
X17226920Y-13203150D01*
X17293586Y-13336484D02*
X17293586Y-13203150D01*
X17293586Y-13136484D02*
X17284063Y-13146008D01*
X17284063Y-13146008D02*
X17293586Y-13155531D01*
X17293586Y-13155531D02*
X17303110Y-13146008D01*
X17303110Y-13146008D02*
X17293586Y-13136484D01*
X17293586Y-13136484D02*
X17293586Y-13155531D01*
X17417396Y-13336484D02*
X17398348Y-13326960D01*
X17398348Y-13326960D02*
X17388824Y-13307912D01*
X17388824Y-13307912D02*
X17388824Y-13136484D01*
X17522158Y-13336484D02*
X17503110Y-13326960D01*
X17503110Y-13326960D02*
X17493586Y-13307912D01*
X17493586Y-13307912D02*
X17493586Y-13136484D01*
X17750729Y-13336484D02*
X17750729Y-13136484D01*
X17750729Y-13136484D02*
X17817396Y-13279341D01*
X17817396Y-13279341D02*
X17884063Y-13136484D01*
X17884063Y-13136484D02*
X17884063Y-13336484D01*
X18065015Y-13336484D02*
X18065015Y-13231722D01*
X18065015Y-13231722D02*
X18055491Y-13212674D01*
X18055491Y-13212674D02*
X18036444Y-13203150D01*
X18036444Y-13203150D02*
X17998348Y-13203150D01*
X17998348Y-13203150D02*
X17979301Y-13212674D01*
X18065015Y-13326960D02*
X18045967Y-13336484D01*
X18045967Y-13336484D02*
X17998348Y-13336484D01*
X17998348Y-13336484D02*
X17979301Y-13326960D01*
X17979301Y-13326960D02*
X17969777Y-13307912D01*
X17969777Y-13307912D02*
X17969777Y-13288865D01*
X17969777Y-13288865D02*
X17979301Y-13269817D01*
X17979301Y-13269817D02*
X17998348Y-13260293D01*
X17998348Y-13260293D02*
X18045967Y-13260293D01*
X18045967Y-13260293D02*
X18065015Y-13250769D01*
X18160253Y-13203150D02*
X18160253Y-13403150D01*
X18160253Y-13212674D02*
X18179301Y-13203150D01*
X18179301Y-13203150D02*
X18217396Y-13203150D01*
X18217396Y-13203150D02*
X18236444Y-13212674D01*
X18236444Y-13212674D02*
X18245967Y-13222198D01*
X18245967Y-13222198D02*
X18255491Y-13241246D01*
X18255491Y-13241246D02*
X18255491Y-13298388D01*
X18255491Y-13298388D02*
X18245967Y-13317436D01*
X18245967Y-13317436D02*
X18236444Y-13326960D01*
X18236444Y-13326960D02*
X18217396Y-13336484D01*
X18217396Y-13336484D02*
X18179301Y-13336484D01*
X18179301Y-13336484D02*
X18160253Y-13326960D01*
X18341205Y-13317436D02*
X18350729Y-13326960D01*
X18350729Y-13326960D02*
X18341205Y-13336484D01*
X18341205Y-13336484D02*
X18331682Y-13326960D01*
X18331682Y-13326960D02*
X18341205Y-13317436D01*
X18341205Y-13317436D02*
X18341205Y-13336484D01*
X18341205Y-13212674D02*
X18350729Y-13222198D01*
X18350729Y-13222198D02*
X18341205Y-13231722D01*
X18341205Y-13231722D02*
X18331682Y-13222198D01*
X18331682Y-13222198D02*
X18341205Y-13212674D01*
X18341205Y-13212674D02*
X18341205Y-13231722D01*
D10*
X16669000Y-13645000D02*
X16709000Y-13685000D01*
X16709000Y-13645000D02*
X16669000Y-13685000D01*
D11*
X17007872Y-13556484D02*
X17026920Y-13556484D01*
X17026920Y-13556484D02*
X17045967Y-13566008D01*
X17045967Y-13566008D02*
X17055491Y-13575531D01*
X17055491Y-13575531D02*
X17065015Y-13594579D01*
X17065015Y-13594579D02*
X17074539Y-13632674D01*
X17074539Y-13632674D02*
X17074539Y-13680293D01*
X17074539Y-13680293D02*
X17065015Y-13718388D01*
X17065015Y-13718388D02*
X17055491Y-13737436D01*
X17055491Y-13737436D02*
X17045967Y-13746960D01*
X17045967Y-13746960D02*
X17026920Y-13756484D01*
X17026920Y-13756484D02*
X17007872Y-13756484D01*
X17007872Y-13756484D02*
X16988824Y-13746960D01*
X16988824Y-13746960D02*
X16979301Y-13737436D01*
X16979301Y-13737436D02*
X16969777Y-13718388D01*
X16969777Y-13718388D02*
X16960253Y-13680293D01*
X16960253Y-13680293D02*
X16960253Y-13632674D01*
X16960253Y-13632674D02*
X16969777Y-13594579D01*
X16969777Y-13594579D02*
X16979301Y-13575531D01*
X16979301Y-13575531D02*
X16988824Y-13566008D01*
X16988824Y-13566008D02*
X17007872Y-13556484D01*
X17160253Y-13737436D02*
X17169777Y-13746960D01*
X17169777Y-13746960D02*
X17160253Y-13756484D01*
X17160253Y-13756484D02*
X17150729Y-13746960D01*
X17150729Y-13746960D02*
X17160253Y-13737436D01*
X17160253Y-13737436D02*
X17160253Y-13756484D01*
X17341205Y-13623150D02*
X17341205Y-13756484D01*
X17293586Y-13546960D02*
X17245967Y-13689817D01*
X17245967Y-13689817D02*
X17369777Y-13689817D01*
X17484063Y-13556484D02*
X17503110Y-13556484D01*
X17503110Y-13556484D02*
X17522158Y-13566008D01*
X17522158Y-13566008D02*
X17531682Y-13575531D01*
X17531682Y-13575531D02*
X17541205Y-13594579D01*
X17541205Y-13594579D02*
X17550729Y-13632674D01*
X17550729Y-13632674D02*
X17550729Y-13680293D01*
X17550729Y-13680293D02*
X17541205Y-13718388D01*
X17541205Y-13718388D02*
X17531682Y-13737436D01*
X17531682Y-13737436D02*
X17522158Y-13746960D01*
X17522158Y-13746960D02*
X17503110Y-13756484D01*
X17503110Y-13756484D02*
X17484063Y-13756484D01*
X17484063Y-13756484D02*
X17465015Y-13746960D01*
X17465015Y-13746960D02*
X17455491Y-13737436D01*
X17455491Y-13737436D02*
X17445967Y-13718388D01*
X17445967Y-13718388D02*
X17436444Y-13680293D01*
X17436444Y-13680293D02*
X17436444Y-13632674D01*
X17436444Y-13632674D02*
X17445967Y-13594579D01*
X17445967Y-13594579D02*
X17455491Y-13575531D01*
X17455491Y-13575531D02*
X17465015Y-13566008D01*
X17465015Y-13566008D02*
X17484063Y-13556484D01*
X17674539Y-13556484D02*
X17693586Y-13556484D01*
X17693586Y-13556484D02*
X17712634Y-13566008D01*
X17712634Y-13566008D02*
X17722158Y-13575531D01*
X17722158Y-13575531D02*
X17731682Y-13594579D01*
X17731682Y-13594579D02*
X17741205Y-13632674D01*
X17741205Y-13632674D02*
X17741205Y-13680293D01*
X17741205Y-13680293D02*
X17731682Y-13718388D01*
X17731682Y-13718388D02*
X17722158Y-13737436D01*
X17722158Y-13737436D02*
X17712634Y-13746960D01*
X17712634Y-13746960D02*
X17693586Y-13756484D01*
X17693586Y-13756484D02*
X17674539Y-13756484D01*
X17674539Y-13756484D02*
X17655491Y-13746960D01*
X17655491Y-13746960D02*
X17645967Y-13737436D01*
X17645967Y-13737436D02*
X17636444Y-13718388D01*
X17636444Y-13718388D02*
X17626920Y-13680293D01*
X17626920Y-13680293D02*
X17626920Y-13632674D01*
X17626920Y-13632674D02*
X17636444Y-13594579D01*
X17636444Y-13594579D02*
X17645967Y-13575531D01*
X17645967Y-13575531D02*
X17655491Y-13566008D01*
X17655491Y-13566008D02*
X17674539Y-13556484D01*
X17826920Y-13756484D02*
X17826920Y-13623150D01*
X17826920Y-13642198D02*
X17836444Y-13632674D01*
X17836444Y-13632674D02*
X17855491Y-13623150D01*
X17855491Y-13623150D02*
X17884063Y-13623150D01*
X17884063Y-13623150D02*
X17903110Y-13632674D01*
X17903110Y-13632674D02*
X17912634Y-13651722D01*
X17912634Y-13651722D02*
X17912634Y-13756484D01*
X17912634Y-13651722D02*
X17922158Y-13632674D01*
X17922158Y-13632674D02*
X17941205Y-13623150D01*
X17941205Y-13623150D02*
X17969777Y-13623150D01*
X17969777Y-13623150D02*
X17988825Y-13632674D01*
X17988825Y-13632674D02*
X17998348Y-13651722D01*
X17998348Y-13651722D02*
X17998348Y-13756484D01*
X18093586Y-13756484D02*
X18093586Y-13623150D01*
X18093586Y-13642198D02*
X18103110Y-13632674D01*
X18103110Y-13632674D02*
X18122158Y-13623150D01*
X18122158Y-13623150D02*
X18150729Y-13623150D01*
X18150729Y-13623150D02*
X18169777Y-13632674D01*
X18169777Y-13632674D02*
X18179301Y-13651722D01*
X18179301Y-13651722D02*
X18179301Y-13756484D01*
X18179301Y-13651722D02*
X18188825Y-13632674D01*
X18188825Y-13632674D02*
X18207872Y-13623150D01*
X18207872Y-13623150D02*
X18236444Y-13623150D01*
X18236444Y-13623150D02*
X18255491Y-13632674D01*
X18255491Y-13632674D02*
X18265015Y-13651722D01*
X18265015Y-13651722D02*
X18265015Y-13756484D01*
X18655491Y-13546960D02*
X18484063Y-13804103D01*
X18912634Y-13556484D02*
X18931682Y-13556484D01*
X18931682Y-13556484D02*
X18950729Y-13566008D01*
X18950729Y-13566008D02*
X18960253Y-13575531D01*
X18960253Y-13575531D02*
X18969777Y-13594579D01*
X18969777Y-13594579D02*
X18979301Y-13632674D01*
X18979301Y-13632674D02*
X18979301Y-13680293D01*
X18979301Y-13680293D02*
X18969777Y-13718388D01*
X18969777Y-13718388D02*
X18960253Y-13737436D01*
X18960253Y-13737436D02*
X18950729Y-13746960D01*
X18950729Y-13746960D02*
X18931682Y-13756484D01*
X18931682Y-13756484D02*
X18912634Y-13756484D01*
X18912634Y-13756484D02*
X18893587Y-13746960D01*
X18893587Y-13746960D02*
X18884063Y-13737436D01*
X18884063Y-13737436D02*
X18874539Y-13718388D01*
X18874539Y-13718388D02*
X18865015Y-13680293D01*
X18865015Y-13680293D02*
X18865015Y-13632674D01*
X18865015Y-13632674D02*
X18874539Y-13594579D01*
X18874539Y-13594579D02*
X18884063Y-13575531D01*
X18884063Y-13575531D02*
X18893587Y-13566008D01*
X18893587Y-13566008D02*
X18912634Y-13556484D01*
X19065015Y-13737436D02*
X19074539Y-13746960D01*
X19074539Y-13746960D02*
X19065015Y-13756484D01*
X19065015Y-13756484D02*
X19055491Y-13746960D01*
X19055491Y-13746960D02*
X19065015Y-13737436D01*
X19065015Y-13737436D02*
X19065015Y-13756484D01*
X19198348Y-13556484D02*
X19217396Y-13556484D01*
X19217396Y-13556484D02*
X19236444Y-13566008D01*
X19236444Y-13566008D02*
X19245968Y-13575531D01*
X19245968Y-13575531D02*
X19255491Y-13594579D01*
X19255491Y-13594579D02*
X19265015Y-13632674D01*
X19265015Y-13632674D02*
X19265015Y-13680293D01*
X19265015Y-13680293D02*
X19255491Y-13718388D01*
X19255491Y-13718388D02*
X19245968Y-13737436D01*
X19245968Y-13737436D02*
X19236444Y-13746960D01*
X19236444Y-13746960D02*
X19217396Y-13756484D01*
X19217396Y-13756484D02*
X19198348Y-13756484D01*
X19198348Y-13756484D02*
X19179301Y-13746960D01*
X19179301Y-13746960D02*
X19169777Y-13737436D01*
X19169777Y-13737436D02*
X19160253Y-13718388D01*
X19160253Y-13718388D02*
X19150729Y-13680293D01*
X19150729Y-13680293D02*
X19150729Y-13632674D01*
X19150729Y-13632674D02*
X19160253Y-13594579D01*
X19160253Y-13594579D02*
X19169777Y-13575531D01*
X19169777Y-13575531D02*
X19179301Y-13566008D01*
X19179301Y-13566008D02*
X19198348Y-13556484D01*
X19455491Y-13756484D02*
X19341206Y-13756484D01*
X19398348Y-13756484D02*
X19398348Y-13556484D01*
X19398348Y-13556484D02*
X19379301Y-13585055D01*
X19379301Y-13585055D02*
X19360253Y-13604103D01*
X19360253Y-13604103D02*
X19341206Y-13613627D01*
X19636444Y-13556484D02*
X19541206Y-13556484D01*
X19541206Y-13556484D02*
X19531682Y-13651722D01*
X19531682Y-13651722D02*
X19541206Y-13642198D01*
X19541206Y-13642198D02*
X19560253Y-13632674D01*
X19560253Y-13632674D02*
X19607872Y-13632674D01*
X19607872Y-13632674D02*
X19626920Y-13642198D01*
X19626920Y-13642198D02*
X19636444Y-13651722D01*
X19636444Y-13651722D02*
X19645968Y-13670769D01*
X19645968Y-13670769D02*
X19645968Y-13718388D01*
X19645968Y-13718388D02*
X19636444Y-13737436D01*
X19636444Y-13737436D02*
X19626920Y-13746960D01*
X19626920Y-13746960D02*
X19607872Y-13756484D01*
X19607872Y-13756484D02*
X19560253Y-13756484D01*
X19560253Y-13756484D02*
X19541206Y-13746960D01*
X19541206Y-13746960D02*
X19531682Y-13737436D01*
X19712634Y-13556484D02*
X19845968Y-13556484D01*
X19845968Y-13556484D02*
X19760253Y-13756484D01*
X19912634Y-13556484D02*
X19912634Y-13594579D01*
X19988825Y-13556484D02*
X19988825Y-13594579D01*
X20284063Y-13832674D02*
X20274539Y-13823150D01*
X20274539Y-13823150D02*
X20255491Y-13794579D01*
X20255491Y-13794579D02*
X20245968Y-13775531D01*
X20245968Y-13775531D02*
X20236444Y-13746960D01*
X20236444Y-13746960D02*
X20226920Y-13699341D01*
X20226920Y-13699341D02*
X20226920Y-13661246D01*
X20226920Y-13661246D02*
X20236444Y-13613627D01*
X20236444Y-13613627D02*
X20245968Y-13585055D01*
X20245968Y-13585055D02*
X20255491Y-13566008D01*
X20255491Y-13566008D02*
X20274539Y-13537436D01*
X20274539Y-13537436D02*
X20284063Y-13527912D01*
X20341206Y-13556484D02*
X20465015Y-13556484D01*
X20465015Y-13556484D02*
X20398349Y-13632674D01*
X20398349Y-13632674D02*
X20426920Y-13632674D01*
X20426920Y-13632674D02*
X20445968Y-13642198D01*
X20445968Y-13642198D02*
X20455491Y-13651722D01*
X20455491Y-13651722D02*
X20465015Y-13670769D01*
X20465015Y-13670769D02*
X20465015Y-13718388D01*
X20465015Y-13718388D02*
X20455491Y-13737436D01*
X20455491Y-13737436D02*
X20445968Y-13746960D01*
X20445968Y-13746960D02*
X20426920Y-13756484D01*
X20426920Y-13756484D02*
X20369777Y-13756484D01*
X20369777Y-13756484D02*
X20350730Y-13746960D01*
X20350730Y-13746960D02*
X20341206Y-13737436D01*
X20636444Y-13623150D02*
X20636444Y-13756484D01*
X20588825Y-13546960D02*
X20541206Y-13689817D01*
X20541206Y-13689817D02*
X20665015Y-13689817D01*
X20893587Y-13756484D02*
X20893587Y-13556484D01*
X20979301Y-13756484D02*
X20979301Y-13651722D01*
X20979301Y-13651722D02*
X20969777Y-13632674D01*
X20969777Y-13632674D02*
X20950730Y-13623150D01*
X20950730Y-13623150D02*
X20922158Y-13623150D01*
X20922158Y-13623150D02*
X20903111Y-13632674D01*
X20903111Y-13632674D02*
X20893587Y-13642198D01*
X21103111Y-13756484D02*
X21084063Y-13746960D01*
X21084063Y-13746960D02*
X21074539Y-13737436D01*
X21074539Y-13737436D02*
X21065015Y-13718388D01*
X21065015Y-13718388D02*
X21065015Y-13661246D01*
X21065015Y-13661246D02*
X21074539Y-13642198D01*
X21074539Y-13642198D02*
X21084063Y-13632674D01*
X21084063Y-13632674D02*
X21103111Y-13623150D01*
X21103111Y-13623150D02*
X21131682Y-13623150D01*
X21131682Y-13623150D02*
X21150730Y-13632674D01*
X21150730Y-13632674D02*
X21160253Y-13642198D01*
X21160253Y-13642198D02*
X21169777Y-13661246D01*
X21169777Y-13661246D02*
X21169777Y-13718388D01*
X21169777Y-13718388D02*
X21160253Y-13737436D01*
X21160253Y-13737436D02*
X21150730Y-13746960D01*
X21150730Y-13746960D02*
X21131682Y-13756484D01*
X21131682Y-13756484D02*
X21103111Y-13756484D01*
X21284063Y-13756484D02*
X21265015Y-13746960D01*
X21265015Y-13746960D02*
X21255492Y-13727912D01*
X21255492Y-13727912D02*
X21255492Y-13556484D01*
X21436444Y-13746960D02*
X21417396Y-13756484D01*
X21417396Y-13756484D02*
X21379301Y-13756484D01*
X21379301Y-13756484D02*
X21360253Y-13746960D01*
X21360253Y-13746960D02*
X21350730Y-13727912D01*
X21350730Y-13727912D02*
X21350730Y-13651722D01*
X21350730Y-13651722D02*
X21360253Y-13632674D01*
X21360253Y-13632674D02*
X21379301Y-13623150D01*
X21379301Y-13623150D02*
X21417396Y-13623150D01*
X21417396Y-13623150D02*
X21436444Y-13632674D01*
X21436444Y-13632674D02*
X21445968Y-13651722D01*
X21445968Y-13651722D02*
X21445968Y-13670769D01*
X21445968Y-13670769D02*
X21350730Y-13689817D01*
X21522158Y-13746960D02*
X21541206Y-13756484D01*
X21541206Y-13756484D02*
X21579301Y-13756484D01*
X21579301Y-13756484D02*
X21598349Y-13746960D01*
X21598349Y-13746960D02*
X21607873Y-13727912D01*
X21607873Y-13727912D02*
X21607873Y-13718388D01*
X21607873Y-13718388D02*
X21598349Y-13699341D01*
X21598349Y-13699341D02*
X21579301Y-13689817D01*
X21579301Y-13689817D02*
X21550730Y-13689817D01*
X21550730Y-13689817D02*
X21531682Y-13680293D01*
X21531682Y-13680293D02*
X21522158Y-13661246D01*
X21522158Y-13661246D02*
X21522158Y-13651722D01*
X21522158Y-13651722D02*
X21531682Y-13632674D01*
X21531682Y-13632674D02*
X21550730Y-13623150D01*
X21550730Y-13623150D02*
X21579301Y-13623150D01*
X21579301Y-13623150D02*
X21598349Y-13632674D01*
X21674539Y-13832674D02*
X21684063Y-13823150D01*
X21684063Y-13823150D02*
X21703111Y-13794579D01*
X21703111Y-13794579D02*
X21712634Y-13775531D01*
X21712634Y-13775531D02*
X21722158Y-13746960D01*
X21722158Y-13746960D02*
X21731682Y-13699341D01*
X21731682Y-13699341D02*
X21731682Y-13661246D01*
X21731682Y-13661246D02*
X21722158Y-13613627D01*
X21722158Y-13613627D02*
X21712634Y-13585055D01*
X21712634Y-13585055D02*
X21703111Y-13566008D01*
X21703111Y-13566008D02*
X21684063Y-13537436D01*
X21684063Y-13537436D02*
X21674539Y-13527912D01*
D10*
X16709000Y-13929000D02*
G75*
G03*
X16659000Y-13929000I-25000J0D01*
G01*
X16659000Y-13929000D02*
G75*
G03*
X16709000Y-13929000I25000J0D01*
G01*
D11*
X17007872Y-13820484D02*
X17026920Y-13820484D01*
X17026920Y-13820484D02*
X17045967Y-13830008D01*
X17045967Y-13830008D02*
X17055491Y-13839531D01*
X17055491Y-13839531D02*
X17065015Y-13858579D01*
X17065015Y-13858579D02*
X17074539Y-13896674D01*
X17074539Y-13896674D02*
X17074539Y-13944293D01*
X17074539Y-13944293D02*
X17065015Y-13982388D01*
X17065015Y-13982388D02*
X17055491Y-14001436D01*
X17055491Y-14001436D02*
X17045967Y-14010960D01*
X17045967Y-14010960D02*
X17026920Y-14020484D01*
X17026920Y-14020484D02*
X17007872Y-14020484D01*
X17007872Y-14020484D02*
X16988824Y-14010960D01*
X16988824Y-14010960D02*
X16979301Y-14001436D01*
X16979301Y-14001436D02*
X16969777Y-13982388D01*
X16969777Y-13982388D02*
X16960253Y-13944293D01*
X16960253Y-13944293D02*
X16960253Y-13896674D01*
X16960253Y-13896674D02*
X16969777Y-13858579D01*
X16969777Y-13858579D02*
X16979301Y-13839531D01*
X16979301Y-13839531D02*
X16988824Y-13830008D01*
X16988824Y-13830008D02*
X17007872Y-13820484D01*
X17160253Y-14001436D02*
X17169777Y-14010960D01*
X17169777Y-14010960D02*
X17160253Y-14020484D01*
X17160253Y-14020484D02*
X17150729Y-14010960D01*
X17150729Y-14010960D02*
X17160253Y-14001436D01*
X17160253Y-14001436D02*
X17160253Y-14020484D01*
X17350729Y-13820484D02*
X17255491Y-13820484D01*
X17255491Y-13820484D02*
X17245967Y-13915722D01*
X17245967Y-13915722D02*
X17255491Y-13906198D01*
X17255491Y-13906198D02*
X17274539Y-13896674D01*
X17274539Y-13896674D02*
X17322158Y-13896674D01*
X17322158Y-13896674D02*
X17341205Y-13906198D01*
X17341205Y-13906198D02*
X17350729Y-13915722D01*
X17350729Y-13915722D02*
X17360253Y-13934769D01*
X17360253Y-13934769D02*
X17360253Y-13982388D01*
X17360253Y-13982388D02*
X17350729Y-14001436D01*
X17350729Y-14001436D02*
X17341205Y-14010960D01*
X17341205Y-14010960D02*
X17322158Y-14020484D01*
X17322158Y-14020484D02*
X17274539Y-14020484D01*
X17274539Y-14020484D02*
X17255491Y-14010960D01*
X17255491Y-14010960D02*
X17245967Y-14001436D01*
X17484063Y-13820484D02*
X17503110Y-13820484D01*
X17503110Y-13820484D02*
X17522158Y-13830008D01*
X17522158Y-13830008D02*
X17531682Y-13839531D01*
X17531682Y-13839531D02*
X17541205Y-13858579D01*
X17541205Y-13858579D02*
X17550729Y-13896674D01*
X17550729Y-13896674D02*
X17550729Y-13944293D01*
X17550729Y-13944293D02*
X17541205Y-13982388D01*
X17541205Y-13982388D02*
X17531682Y-14001436D01*
X17531682Y-14001436D02*
X17522158Y-14010960D01*
X17522158Y-14010960D02*
X17503110Y-14020484D01*
X17503110Y-14020484D02*
X17484063Y-14020484D01*
X17484063Y-14020484D02*
X17465015Y-14010960D01*
X17465015Y-14010960D02*
X17455491Y-14001436D01*
X17455491Y-14001436D02*
X17445967Y-13982388D01*
X17445967Y-13982388D02*
X17436444Y-13944293D01*
X17436444Y-13944293D02*
X17436444Y-13896674D01*
X17436444Y-13896674D02*
X17445967Y-13858579D01*
X17445967Y-13858579D02*
X17455491Y-13839531D01*
X17455491Y-13839531D02*
X17465015Y-13830008D01*
X17465015Y-13830008D02*
X17484063Y-13820484D01*
X17674539Y-13820484D02*
X17693586Y-13820484D01*
X17693586Y-13820484D02*
X17712634Y-13830008D01*
X17712634Y-13830008D02*
X17722158Y-13839531D01*
X17722158Y-13839531D02*
X17731682Y-13858579D01*
X17731682Y-13858579D02*
X17741205Y-13896674D01*
X17741205Y-13896674D02*
X17741205Y-13944293D01*
X17741205Y-13944293D02*
X17731682Y-13982388D01*
X17731682Y-13982388D02*
X17722158Y-14001436D01*
X17722158Y-14001436D02*
X17712634Y-14010960D01*
X17712634Y-14010960D02*
X17693586Y-14020484D01*
X17693586Y-14020484D02*
X17674539Y-14020484D01*
X17674539Y-14020484D02*
X17655491Y-14010960D01*
X17655491Y-14010960D02*
X17645967Y-14001436D01*
X17645967Y-14001436D02*
X17636444Y-13982388D01*
X17636444Y-13982388D02*
X17626920Y-13944293D01*
X17626920Y-13944293D02*
X17626920Y-13896674D01*
X17626920Y-13896674D02*
X17636444Y-13858579D01*
X17636444Y-13858579D02*
X17645967Y-13839531D01*
X17645967Y-13839531D02*
X17655491Y-13830008D01*
X17655491Y-13830008D02*
X17674539Y-13820484D01*
X17826920Y-14020484D02*
X17826920Y-13887150D01*
X17826920Y-13906198D02*
X17836444Y-13896674D01*
X17836444Y-13896674D02*
X17855491Y-13887150D01*
X17855491Y-13887150D02*
X17884063Y-13887150D01*
X17884063Y-13887150D02*
X17903110Y-13896674D01*
X17903110Y-13896674D02*
X17912634Y-13915722D01*
X17912634Y-13915722D02*
X17912634Y-14020484D01*
X17912634Y-13915722D02*
X17922158Y-13896674D01*
X17922158Y-13896674D02*
X17941205Y-13887150D01*
X17941205Y-13887150D02*
X17969777Y-13887150D01*
X17969777Y-13887150D02*
X17988825Y-13896674D01*
X17988825Y-13896674D02*
X17998348Y-13915722D01*
X17998348Y-13915722D02*
X17998348Y-14020484D01*
X18093586Y-14020484D02*
X18093586Y-13887150D01*
X18093586Y-13906198D02*
X18103110Y-13896674D01*
X18103110Y-13896674D02*
X18122158Y-13887150D01*
X18122158Y-13887150D02*
X18150729Y-13887150D01*
X18150729Y-13887150D02*
X18169777Y-13896674D01*
X18169777Y-13896674D02*
X18179301Y-13915722D01*
X18179301Y-13915722D02*
X18179301Y-14020484D01*
X18179301Y-13915722D02*
X18188825Y-13896674D01*
X18188825Y-13896674D02*
X18207872Y-13887150D01*
X18207872Y-13887150D02*
X18236444Y-13887150D01*
X18236444Y-13887150D02*
X18255491Y-13896674D01*
X18255491Y-13896674D02*
X18265015Y-13915722D01*
X18265015Y-13915722D02*
X18265015Y-14020484D01*
X18655491Y-13810960D02*
X18484063Y-14068103D01*
X18912634Y-13820484D02*
X18931682Y-13820484D01*
X18931682Y-13820484D02*
X18950729Y-13830008D01*
X18950729Y-13830008D02*
X18960253Y-13839531D01*
X18960253Y-13839531D02*
X18969777Y-13858579D01*
X18969777Y-13858579D02*
X18979301Y-13896674D01*
X18979301Y-13896674D02*
X18979301Y-13944293D01*
X18979301Y-13944293D02*
X18969777Y-13982388D01*
X18969777Y-13982388D02*
X18960253Y-14001436D01*
X18960253Y-14001436D02*
X18950729Y-14010960D01*
X18950729Y-14010960D02*
X18931682Y-14020484D01*
X18931682Y-14020484D02*
X18912634Y-14020484D01*
X18912634Y-14020484D02*
X18893587Y-14010960D01*
X18893587Y-14010960D02*
X18884063Y-14001436D01*
X18884063Y-14001436D02*
X18874539Y-13982388D01*
X18874539Y-13982388D02*
X18865015Y-13944293D01*
X18865015Y-13944293D02*
X18865015Y-13896674D01*
X18865015Y-13896674D02*
X18874539Y-13858579D01*
X18874539Y-13858579D02*
X18884063Y-13839531D01*
X18884063Y-13839531D02*
X18893587Y-13830008D01*
X18893587Y-13830008D02*
X18912634Y-13820484D01*
X19065015Y-14001436D02*
X19074539Y-14010960D01*
X19074539Y-14010960D02*
X19065015Y-14020484D01*
X19065015Y-14020484D02*
X19055491Y-14010960D01*
X19055491Y-14010960D02*
X19065015Y-14001436D01*
X19065015Y-14001436D02*
X19065015Y-14020484D01*
X19198348Y-13820484D02*
X19217396Y-13820484D01*
X19217396Y-13820484D02*
X19236444Y-13830008D01*
X19236444Y-13830008D02*
X19245968Y-13839531D01*
X19245968Y-13839531D02*
X19255491Y-13858579D01*
X19255491Y-13858579D02*
X19265015Y-13896674D01*
X19265015Y-13896674D02*
X19265015Y-13944293D01*
X19265015Y-13944293D02*
X19255491Y-13982388D01*
X19255491Y-13982388D02*
X19245968Y-14001436D01*
X19245968Y-14001436D02*
X19236444Y-14010960D01*
X19236444Y-14010960D02*
X19217396Y-14020484D01*
X19217396Y-14020484D02*
X19198348Y-14020484D01*
X19198348Y-14020484D02*
X19179301Y-14010960D01*
X19179301Y-14010960D02*
X19169777Y-14001436D01*
X19169777Y-14001436D02*
X19160253Y-13982388D01*
X19160253Y-13982388D02*
X19150729Y-13944293D01*
X19150729Y-13944293D02*
X19150729Y-13896674D01*
X19150729Y-13896674D02*
X19160253Y-13858579D01*
X19160253Y-13858579D02*
X19169777Y-13839531D01*
X19169777Y-13839531D02*
X19179301Y-13830008D01*
X19179301Y-13830008D02*
X19198348Y-13820484D01*
X19455491Y-14020484D02*
X19341206Y-14020484D01*
X19398348Y-14020484D02*
X19398348Y-13820484D01*
X19398348Y-13820484D02*
X19379301Y-13849055D01*
X19379301Y-13849055D02*
X19360253Y-13868103D01*
X19360253Y-13868103D02*
X19341206Y-13877627D01*
X19550729Y-14020484D02*
X19588825Y-14020484D01*
X19588825Y-14020484D02*
X19607872Y-14010960D01*
X19607872Y-14010960D02*
X19617396Y-14001436D01*
X19617396Y-14001436D02*
X19636444Y-13972865D01*
X19636444Y-13972865D02*
X19645968Y-13934769D01*
X19645968Y-13934769D02*
X19645968Y-13858579D01*
X19645968Y-13858579D02*
X19636444Y-13839531D01*
X19636444Y-13839531D02*
X19626920Y-13830008D01*
X19626920Y-13830008D02*
X19607872Y-13820484D01*
X19607872Y-13820484D02*
X19569777Y-13820484D01*
X19569777Y-13820484D02*
X19550729Y-13830008D01*
X19550729Y-13830008D02*
X19541206Y-13839531D01*
X19541206Y-13839531D02*
X19531682Y-13858579D01*
X19531682Y-13858579D02*
X19531682Y-13906198D01*
X19531682Y-13906198D02*
X19541206Y-13925246D01*
X19541206Y-13925246D02*
X19550729Y-13934769D01*
X19550729Y-13934769D02*
X19569777Y-13944293D01*
X19569777Y-13944293D02*
X19607872Y-13944293D01*
X19607872Y-13944293D02*
X19626920Y-13934769D01*
X19626920Y-13934769D02*
X19636444Y-13925246D01*
X19636444Y-13925246D02*
X19645968Y-13906198D01*
X19712634Y-13820484D02*
X19845968Y-13820484D01*
X19845968Y-13820484D02*
X19760253Y-14020484D01*
X19912634Y-13820484D02*
X19912634Y-13858579D01*
X19988825Y-13820484D02*
X19988825Y-13858579D01*
X20284063Y-14096674D02*
X20274539Y-14087150D01*
X20274539Y-14087150D02*
X20255491Y-14058579D01*
X20255491Y-14058579D02*
X20245968Y-14039531D01*
X20245968Y-14039531D02*
X20236444Y-14010960D01*
X20236444Y-14010960D02*
X20226920Y-13963341D01*
X20226920Y-13963341D02*
X20226920Y-13925246D01*
X20226920Y-13925246D02*
X20236444Y-13877627D01*
X20236444Y-13877627D02*
X20245968Y-13849055D01*
X20245968Y-13849055D02*
X20255491Y-13830008D01*
X20255491Y-13830008D02*
X20274539Y-13801436D01*
X20274539Y-13801436D02*
X20284063Y-13791912D01*
X20398349Y-13820484D02*
X20417396Y-13820484D01*
X20417396Y-13820484D02*
X20436444Y-13830008D01*
X20436444Y-13830008D02*
X20445968Y-13839531D01*
X20445968Y-13839531D02*
X20455491Y-13858579D01*
X20455491Y-13858579D02*
X20465015Y-13896674D01*
X20465015Y-13896674D02*
X20465015Y-13944293D01*
X20465015Y-13944293D02*
X20455491Y-13982388D01*
X20455491Y-13982388D02*
X20445968Y-14001436D01*
X20445968Y-14001436D02*
X20436444Y-14010960D01*
X20436444Y-14010960D02*
X20417396Y-14020484D01*
X20417396Y-14020484D02*
X20398349Y-14020484D01*
X20398349Y-14020484D02*
X20379301Y-14010960D01*
X20379301Y-14010960D02*
X20369777Y-14001436D01*
X20369777Y-14001436D02*
X20360253Y-13982388D01*
X20360253Y-13982388D02*
X20350730Y-13944293D01*
X20350730Y-13944293D02*
X20350730Y-13896674D01*
X20350730Y-13896674D02*
X20360253Y-13858579D01*
X20360253Y-13858579D02*
X20369777Y-13839531D01*
X20369777Y-13839531D02*
X20379301Y-13830008D01*
X20379301Y-13830008D02*
X20398349Y-13820484D01*
X20703111Y-14020484D02*
X20703111Y-13820484D01*
X20788825Y-14020484D02*
X20788825Y-13915722D01*
X20788825Y-13915722D02*
X20779301Y-13896674D01*
X20779301Y-13896674D02*
X20760253Y-13887150D01*
X20760253Y-13887150D02*
X20731682Y-13887150D01*
X20731682Y-13887150D02*
X20712634Y-13896674D01*
X20712634Y-13896674D02*
X20703111Y-13906198D01*
X20912634Y-14020484D02*
X20893587Y-14010960D01*
X20893587Y-14010960D02*
X20884063Y-14001436D01*
X20884063Y-14001436D02*
X20874539Y-13982388D01*
X20874539Y-13982388D02*
X20874539Y-13925246D01*
X20874539Y-13925246D02*
X20884063Y-13906198D01*
X20884063Y-13906198D02*
X20893587Y-13896674D01*
X20893587Y-13896674D02*
X20912634Y-13887150D01*
X20912634Y-13887150D02*
X20941206Y-13887150D01*
X20941206Y-13887150D02*
X20960253Y-13896674D01*
X20960253Y-13896674D02*
X20969777Y-13906198D01*
X20969777Y-13906198D02*
X20979301Y-13925246D01*
X20979301Y-13925246D02*
X20979301Y-13982388D01*
X20979301Y-13982388D02*
X20969777Y-14001436D01*
X20969777Y-14001436D02*
X20960253Y-14010960D01*
X20960253Y-14010960D02*
X20941206Y-14020484D01*
X20941206Y-14020484D02*
X20912634Y-14020484D01*
X21093587Y-14020484D02*
X21074539Y-14010960D01*
X21074539Y-14010960D02*
X21065015Y-13991912D01*
X21065015Y-13991912D02*
X21065015Y-13820484D01*
X21245968Y-14010960D02*
X21226920Y-14020484D01*
X21226920Y-14020484D02*
X21188825Y-14020484D01*
X21188825Y-14020484D02*
X21169777Y-14010960D01*
X21169777Y-14010960D02*
X21160253Y-13991912D01*
X21160253Y-13991912D02*
X21160253Y-13915722D01*
X21160253Y-13915722D02*
X21169777Y-13896674D01*
X21169777Y-13896674D02*
X21188825Y-13887150D01*
X21188825Y-13887150D02*
X21226920Y-13887150D01*
X21226920Y-13887150D02*
X21245968Y-13896674D01*
X21245968Y-13896674D02*
X21255492Y-13915722D01*
X21255492Y-13915722D02*
X21255492Y-13934769D01*
X21255492Y-13934769D02*
X21160253Y-13953817D01*
X21331682Y-14010960D02*
X21350730Y-14020484D01*
X21350730Y-14020484D02*
X21388825Y-14020484D01*
X21388825Y-14020484D02*
X21407873Y-14010960D01*
X21407873Y-14010960D02*
X21417396Y-13991912D01*
X21417396Y-13991912D02*
X21417396Y-13982388D01*
X21417396Y-13982388D02*
X21407873Y-13963341D01*
X21407873Y-13963341D02*
X21388825Y-13953817D01*
X21388825Y-13953817D02*
X21360253Y-13953817D01*
X21360253Y-13953817D02*
X21341206Y-13944293D01*
X21341206Y-13944293D02*
X21331682Y-13925246D01*
X21331682Y-13925246D02*
X21331682Y-13915722D01*
X21331682Y-13915722D02*
X21341206Y-13896674D01*
X21341206Y-13896674D02*
X21360253Y-13887150D01*
X21360253Y-13887150D02*
X21388825Y-13887150D01*
X21388825Y-13887150D02*
X21407873Y-13896674D01*
X21655492Y-13944293D02*
X21807873Y-13944293D01*
X21731682Y-14020484D02*
X21731682Y-13868103D01*
X22084063Y-13906198D02*
X22065015Y-13896674D01*
X22065015Y-13896674D02*
X22055492Y-13887150D01*
X22055492Y-13887150D02*
X22045968Y-13868103D01*
X22045968Y-13868103D02*
X22045968Y-13858579D01*
X22045968Y-13858579D02*
X22055492Y-13839531D01*
X22055492Y-13839531D02*
X22065015Y-13830008D01*
X22065015Y-13830008D02*
X22084063Y-13820484D01*
X22084063Y-13820484D02*
X22122158Y-13820484D01*
X22122158Y-13820484D02*
X22141206Y-13830008D01*
X22141206Y-13830008D02*
X22150730Y-13839531D01*
X22150730Y-13839531D02*
X22160254Y-13858579D01*
X22160254Y-13858579D02*
X22160254Y-13868103D01*
X22160254Y-13868103D02*
X22150730Y-13887150D01*
X22150730Y-13887150D02*
X22141206Y-13896674D01*
X22141206Y-13896674D02*
X22122158Y-13906198D01*
X22122158Y-13906198D02*
X22084063Y-13906198D01*
X22084063Y-13906198D02*
X22065015Y-13915722D01*
X22065015Y-13915722D02*
X22055492Y-13925246D01*
X22055492Y-13925246D02*
X22045968Y-13944293D01*
X22045968Y-13944293D02*
X22045968Y-13982388D01*
X22045968Y-13982388D02*
X22055492Y-14001436D01*
X22055492Y-14001436D02*
X22065015Y-14010960D01*
X22065015Y-14010960D02*
X22084063Y-14020484D01*
X22084063Y-14020484D02*
X22122158Y-14020484D01*
X22122158Y-14020484D02*
X22141206Y-14010960D01*
X22141206Y-14010960D02*
X22150730Y-14001436D01*
X22150730Y-14001436D02*
X22160254Y-13982388D01*
X22160254Y-13982388D02*
X22160254Y-13944293D01*
X22160254Y-13944293D02*
X22150730Y-13925246D01*
X22150730Y-13925246D02*
X22141206Y-13915722D01*
X22141206Y-13915722D02*
X22122158Y-13906198D01*
X22388825Y-14010960D02*
X22407873Y-14020484D01*
X22407873Y-14020484D02*
X22445968Y-14020484D01*
X22445968Y-14020484D02*
X22465015Y-14010960D01*
X22465015Y-14010960D02*
X22474539Y-13991912D01*
X22474539Y-13991912D02*
X22474539Y-13982388D01*
X22474539Y-13982388D02*
X22465015Y-13963341D01*
X22465015Y-13963341D02*
X22445968Y-13953817D01*
X22445968Y-13953817D02*
X22417396Y-13953817D01*
X22417396Y-13953817D02*
X22398349Y-13944293D01*
X22398349Y-13944293D02*
X22388825Y-13925246D01*
X22388825Y-13925246D02*
X22388825Y-13915722D01*
X22388825Y-13915722D02*
X22398349Y-13896674D01*
X22398349Y-13896674D02*
X22417396Y-13887150D01*
X22417396Y-13887150D02*
X22445968Y-13887150D01*
X22445968Y-13887150D02*
X22465015Y-13896674D01*
X22588825Y-14020484D02*
X22569777Y-14010960D01*
X22569777Y-14010960D02*
X22560254Y-13991912D01*
X22560254Y-13991912D02*
X22560254Y-13820484D01*
X22693587Y-14020484D02*
X22674539Y-14010960D01*
X22674539Y-14010960D02*
X22665015Y-14001436D01*
X22665015Y-14001436D02*
X22655492Y-13982388D01*
X22655492Y-13982388D02*
X22655492Y-13925246D01*
X22655492Y-13925246D02*
X22665015Y-13906198D01*
X22665015Y-13906198D02*
X22674539Y-13896674D01*
X22674539Y-13896674D02*
X22693587Y-13887150D01*
X22693587Y-13887150D02*
X22722158Y-13887150D01*
X22722158Y-13887150D02*
X22741206Y-13896674D01*
X22741206Y-13896674D02*
X22750730Y-13906198D01*
X22750730Y-13906198D02*
X22760254Y-13925246D01*
X22760254Y-13925246D02*
X22760254Y-13982388D01*
X22760254Y-13982388D02*
X22750730Y-14001436D01*
X22750730Y-14001436D02*
X22741206Y-14010960D01*
X22741206Y-14010960D02*
X22722158Y-14020484D01*
X22722158Y-14020484D02*
X22693587Y-14020484D01*
X22817396Y-13887150D02*
X22893587Y-13887150D01*
X22845968Y-13820484D02*
X22845968Y-13991912D01*
X22845968Y-13991912D02*
X22855492Y-14010960D01*
X22855492Y-14010960D02*
X22874539Y-14020484D01*
X22874539Y-14020484D02*
X22893587Y-14020484D01*
X22950730Y-14010960D02*
X22969777Y-14020484D01*
X22969777Y-14020484D02*
X23007873Y-14020484D01*
X23007873Y-14020484D02*
X23026920Y-14010960D01*
X23026920Y-14010960D02*
X23036444Y-13991912D01*
X23036444Y-13991912D02*
X23036444Y-13982388D01*
X23036444Y-13982388D02*
X23026920Y-13963341D01*
X23026920Y-13963341D02*
X23007873Y-13953817D01*
X23007873Y-13953817D02*
X22979301Y-13953817D01*
X22979301Y-13953817D02*
X22960254Y-13944293D01*
X22960254Y-13944293D02*
X22950730Y-13925246D01*
X22950730Y-13925246D02*
X22950730Y-13915722D01*
X22950730Y-13915722D02*
X22960254Y-13896674D01*
X22960254Y-13896674D02*
X22979301Y-13887150D01*
X22979301Y-13887150D02*
X23007873Y-13887150D01*
X23007873Y-13887150D02*
X23026920Y-13896674D01*
X23103111Y-14096674D02*
X23112635Y-14087150D01*
X23112635Y-14087150D02*
X23131682Y-14058579D01*
X23131682Y-14058579D02*
X23141206Y-14039531D01*
X23141206Y-14039531D02*
X23150730Y-14010960D01*
X23150730Y-14010960D02*
X23160254Y-13963341D01*
X23160254Y-13963341D02*
X23160254Y-13925246D01*
X23160254Y-13925246D02*
X23150730Y-13877627D01*
X23150730Y-13877627D02*
X23141206Y-13849055D01*
X23141206Y-13849055D02*
X23131682Y-13830008D01*
X23131682Y-13830008D02*
X23112635Y-13801436D01*
X23112635Y-13801436D02*
X23103111Y-13791912D01*
D10*
X16674000Y-14158000D02*
X16674000Y-14228000D01*
X16639000Y-14193000D02*
X16709000Y-14193000D01*
D11*
X17007872Y-14084484D02*
X17026920Y-14084484D01*
X17026920Y-14084484D02*
X17045967Y-14094008D01*
X17045967Y-14094008D02*
X17055491Y-14103531D01*
X17055491Y-14103531D02*
X17065015Y-14122579D01*
X17065015Y-14122579D02*
X17074539Y-14160674D01*
X17074539Y-14160674D02*
X17074539Y-14208293D01*
X17074539Y-14208293D02*
X17065015Y-14246388D01*
X17065015Y-14246388D02*
X17055491Y-14265436D01*
X17055491Y-14265436D02*
X17045967Y-14274960D01*
X17045967Y-14274960D02*
X17026920Y-14284484D01*
X17026920Y-14284484D02*
X17007872Y-14284484D01*
X17007872Y-14284484D02*
X16988824Y-14274960D01*
X16988824Y-14274960D02*
X16979301Y-14265436D01*
X16979301Y-14265436D02*
X16969777Y-14246388D01*
X16969777Y-14246388D02*
X16960253Y-14208293D01*
X16960253Y-14208293D02*
X16960253Y-14160674D01*
X16960253Y-14160674D02*
X16969777Y-14122579D01*
X16969777Y-14122579D02*
X16979301Y-14103531D01*
X16979301Y-14103531D02*
X16988824Y-14094008D01*
X16988824Y-14094008D02*
X17007872Y-14084484D01*
X17160253Y-14265436D02*
X17169777Y-14274960D01*
X17169777Y-14274960D02*
X17160253Y-14284484D01*
X17160253Y-14284484D02*
X17150729Y-14274960D01*
X17150729Y-14274960D02*
X17160253Y-14265436D01*
X17160253Y-14265436D02*
X17160253Y-14284484D01*
X17236444Y-14084484D02*
X17369777Y-14084484D01*
X17369777Y-14084484D02*
X17284063Y-14284484D01*
X17484063Y-14084484D02*
X17503110Y-14084484D01*
X17503110Y-14084484D02*
X17522158Y-14094008D01*
X17522158Y-14094008D02*
X17531682Y-14103531D01*
X17531682Y-14103531D02*
X17541205Y-14122579D01*
X17541205Y-14122579D02*
X17550729Y-14160674D01*
X17550729Y-14160674D02*
X17550729Y-14208293D01*
X17550729Y-14208293D02*
X17541205Y-14246388D01*
X17541205Y-14246388D02*
X17531682Y-14265436D01*
X17531682Y-14265436D02*
X17522158Y-14274960D01*
X17522158Y-14274960D02*
X17503110Y-14284484D01*
X17503110Y-14284484D02*
X17484063Y-14284484D01*
X17484063Y-14284484D02*
X17465015Y-14274960D01*
X17465015Y-14274960D02*
X17455491Y-14265436D01*
X17455491Y-14265436D02*
X17445967Y-14246388D01*
X17445967Y-14246388D02*
X17436444Y-14208293D01*
X17436444Y-14208293D02*
X17436444Y-14160674D01*
X17436444Y-14160674D02*
X17445967Y-14122579D01*
X17445967Y-14122579D02*
X17455491Y-14103531D01*
X17455491Y-14103531D02*
X17465015Y-14094008D01*
X17465015Y-14094008D02*
X17484063Y-14084484D01*
X17674539Y-14084484D02*
X17693586Y-14084484D01*
X17693586Y-14084484D02*
X17712634Y-14094008D01*
X17712634Y-14094008D02*
X17722158Y-14103531D01*
X17722158Y-14103531D02*
X17731682Y-14122579D01*
X17731682Y-14122579D02*
X17741205Y-14160674D01*
X17741205Y-14160674D02*
X17741205Y-14208293D01*
X17741205Y-14208293D02*
X17731682Y-14246388D01*
X17731682Y-14246388D02*
X17722158Y-14265436D01*
X17722158Y-14265436D02*
X17712634Y-14274960D01*
X17712634Y-14274960D02*
X17693586Y-14284484D01*
X17693586Y-14284484D02*
X17674539Y-14284484D01*
X17674539Y-14284484D02*
X17655491Y-14274960D01*
X17655491Y-14274960D02*
X17645967Y-14265436D01*
X17645967Y-14265436D02*
X17636444Y-14246388D01*
X17636444Y-14246388D02*
X17626920Y-14208293D01*
X17626920Y-14208293D02*
X17626920Y-14160674D01*
X17626920Y-14160674D02*
X17636444Y-14122579D01*
X17636444Y-14122579D02*
X17645967Y-14103531D01*
X17645967Y-14103531D02*
X17655491Y-14094008D01*
X17655491Y-14094008D02*
X17674539Y-14084484D01*
X17826920Y-14284484D02*
X17826920Y-14151150D01*
X17826920Y-14170198D02*
X17836444Y-14160674D01*
X17836444Y-14160674D02*
X17855491Y-14151150D01*
X17855491Y-14151150D02*
X17884063Y-14151150D01*
X17884063Y-14151150D02*
X17903110Y-14160674D01*
X17903110Y-14160674D02*
X17912634Y-14179722D01*
X17912634Y-14179722D02*
X17912634Y-14284484D01*
X17912634Y-14179722D02*
X17922158Y-14160674D01*
X17922158Y-14160674D02*
X17941205Y-14151150D01*
X17941205Y-14151150D02*
X17969777Y-14151150D01*
X17969777Y-14151150D02*
X17988825Y-14160674D01*
X17988825Y-14160674D02*
X17998348Y-14179722D01*
X17998348Y-14179722D02*
X17998348Y-14284484D01*
X18093586Y-14284484D02*
X18093586Y-14151150D01*
X18093586Y-14170198D02*
X18103110Y-14160674D01*
X18103110Y-14160674D02*
X18122158Y-14151150D01*
X18122158Y-14151150D02*
X18150729Y-14151150D01*
X18150729Y-14151150D02*
X18169777Y-14160674D01*
X18169777Y-14160674D02*
X18179301Y-14179722D01*
X18179301Y-14179722D02*
X18179301Y-14284484D01*
X18179301Y-14179722D02*
X18188825Y-14160674D01*
X18188825Y-14160674D02*
X18207872Y-14151150D01*
X18207872Y-14151150D02*
X18236444Y-14151150D01*
X18236444Y-14151150D02*
X18255491Y-14160674D01*
X18255491Y-14160674D02*
X18265015Y-14179722D01*
X18265015Y-14179722D02*
X18265015Y-14284484D01*
X18655491Y-14074960D02*
X18484063Y-14332103D01*
X18912634Y-14084484D02*
X18931682Y-14084484D01*
X18931682Y-14084484D02*
X18950729Y-14094008D01*
X18950729Y-14094008D02*
X18960253Y-14103531D01*
X18960253Y-14103531D02*
X18969777Y-14122579D01*
X18969777Y-14122579D02*
X18979301Y-14160674D01*
X18979301Y-14160674D02*
X18979301Y-14208293D01*
X18979301Y-14208293D02*
X18969777Y-14246388D01*
X18969777Y-14246388D02*
X18960253Y-14265436D01*
X18960253Y-14265436D02*
X18950729Y-14274960D01*
X18950729Y-14274960D02*
X18931682Y-14284484D01*
X18931682Y-14284484D02*
X18912634Y-14284484D01*
X18912634Y-14284484D02*
X18893587Y-14274960D01*
X18893587Y-14274960D02*
X18884063Y-14265436D01*
X18884063Y-14265436D02*
X18874539Y-14246388D01*
X18874539Y-14246388D02*
X18865015Y-14208293D01*
X18865015Y-14208293D02*
X18865015Y-14160674D01*
X18865015Y-14160674D02*
X18874539Y-14122579D01*
X18874539Y-14122579D02*
X18884063Y-14103531D01*
X18884063Y-14103531D02*
X18893587Y-14094008D01*
X18893587Y-14094008D02*
X18912634Y-14084484D01*
X19065015Y-14265436D02*
X19074539Y-14274960D01*
X19074539Y-14274960D02*
X19065015Y-14284484D01*
X19065015Y-14284484D02*
X19055491Y-14274960D01*
X19055491Y-14274960D02*
X19065015Y-14265436D01*
X19065015Y-14265436D02*
X19065015Y-14284484D01*
X19198348Y-14084484D02*
X19217396Y-14084484D01*
X19217396Y-14084484D02*
X19236444Y-14094008D01*
X19236444Y-14094008D02*
X19245968Y-14103531D01*
X19245968Y-14103531D02*
X19255491Y-14122579D01*
X19255491Y-14122579D02*
X19265015Y-14160674D01*
X19265015Y-14160674D02*
X19265015Y-14208293D01*
X19265015Y-14208293D02*
X19255491Y-14246388D01*
X19255491Y-14246388D02*
X19245968Y-14265436D01*
X19245968Y-14265436D02*
X19236444Y-14274960D01*
X19236444Y-14274960D02*
X19217396Y-14284484D01*
X19217396Y-14284484D02*
X19198348Y-14284484D01*
X19198348Y-14284484D02*
X19179301Y-14274960D01*
X19179301Y-14274960D02*
X19169777Y-14265436D01*
X19169777Y-14265436D02*
X19160253Y-14246388D01*
X19160253Y-14246388D02*
X19150729Y-14208293D01*
X19150729Y-14208293D02*
X19150729Y-14160674D01*
X19150729Y-14160674D02*
X19160253Y-14122579D01*
X19160253Y-14122579D02*
X19169777Y-14103531D01*
X19169777Y-14103531D02*
X19179301Y-14094008D01*
X19179301Y-14094008D02*
X19198348Y-14084484D01*
X19341206Y-14103531D02*
X19350729Y-14094008D01*
X19350729Y-14094008D02*
X19369777Y-14084484D01*
X19369777Y-14084484D02*
X19417396Y-14084484D01*
X19417396Y-14084484D02*
X19436444Y-14094008D01*
X19436444Y-14094008D02*
X19445968Y-14103531D01*
X19445968Y-14103531D02*
X19455491Y-14122579D01*
X19455491Y-14122579D02*
X19455491Y-14141627D01*
X19455491Y-14141627D02*
X19445968Y-14170198D01*
X19445968Y-14170198D02*
X19331682Y-14284484D01*
X19331682Y-14284484D02*
X19455491Y-14284484D01*
X19522158Y-14084484D02*
X19655491Y-14084484D01*
X19655491Y-14084484D02*
X19569777Y-14284484D01*
X19817396Y-14084484D02*
X19779301Y-14084484D01*
X19779301Y-14084484D02*
X19760253Y-14094008D01*
X19760253Y-14094008D02*
X19750729Y-14103531D01*
X19750729Y-14103531D02*
X19731682Y-14132103D01*
X19731682Y-14132103D02*
X19722158Y-14170198D01*
X19722158Y-14170198D02*
X19722158Y-14246388D01*
X19722158Y-14246388D02*
X19731682Y-14265436D01*
X19731682Y-14265436D02*
X19741206Y-14274960D01*
X19741206Y-14274960D02*
X19760253Y-14284484D01*
X19760253Y-14284484D02*
X19798349Y-14284484D01*
X19798349Y-14284484D02*
X19817396Y-14274960D01*
X19817396Y-14274960D02*
X19826920Y-14265436D01*
X19826920Y-14265436D02*
X19836444Y-14246388D01*
X19836444Y-14246388D02*
X19836444Y-14198769D01*
X19836444Y-14198769D02*
X19826920Y-14179722D01*
X19826920Y-14179722D02*
X19817396Y-14170198D01*
X19817396Y-14170198D02*
X19798349Y-14160674D01*
X19798349Y-14160674D02*
X19760253Y-14160674D01*
X19760253Y-14160674D02*
X19741206Y-14170198D01*
X19741206Y-14170198D02*
X19731682Y-14179722D01*
X19731682Y-14179722D02*
X19722158Y-14198769D01*
X19912634Y-14084484D02*
X19912634Y-14122579D01*
X19988825Y-14084484D02*
X19988825Y-14122579D01*
X20284063Y-14360674D02*
X20274539Y-14351150D01*
X20274539Y-14351150D02*
X20255491Y-14322579D01*
X20255491Y-14322579D02*
X20245968Y-14303531D01*
X20245968Y-14303531D02*
X20236444Y-14274960D01*
X20236444Y-14274960D02*
X20226920Y-14227341D01*
X20226920Y-14227341D02*
X20226920Y-14189246D01*
X20226920Y-14189246D02*
X20236444Y-14141627D01*
X20236444Y-14141627D02*
X20245968Y-14113055D01*
X20245968Y-14113055D02*
X20255491Y-14094008D01*
X20255491Y-14094008D02*
X20274539Y-14065436D01*
X20274539Y-14065436D02*
X20284063Y-14055912D01*
X20465015Y-14284484D02*
X20350730Y-14284484D01*
X20407872Y-14284484D02*
X20407872Y-14084484D01*
X20407872Y-14084484D02*
X20388825Y-14113055D01*
X20388825Y-14113055D02*
X20369777Y-14132103D01*
X20369777Y-14132103D02*
X20350730Y-14141627D01*
X20703111Y-14284484D02*
X20703111Y-14084484D01*
X20788825Y-14284484D02*
X20788825Y-14179722D01*
X20788825Y-14179722D02*
X20779301Y-14160674D01*
X20779301Y-14160674D02*
X20760253Y-14151150D01*
X20760253Y-14151150D02*
X20731682Y-14151150D01*
X20731682Y-14151150D02*
X20712634Y-14160674D01*
X20712634Y-14160674D02*
X20703111Y-14170198D01*
X20912634Y-14284484D02*
X20893587Y-14274960D01*
X20893587Y-14274960D02*
X20884063Y-14265436D01*
X20884063Y-14265436D02*
X20874539Y-14246388D01*
X20874539Y-14246388D02*
X20874539Y-14189246D01*
X20874539Y-14189246D02*
X20884063Y-14170198D01*
X20884063Y-14170198D02*
X20893587Y-14160674D01*
X20893587Y-14160674D02*
X20912634Y-14151150D01*
X20912634Y-14151150D02*
X20941206Y-14151150D01*
X20941206Y-14151150D02*
X20960253Y-14160674D01*
X20960253Y-14160674D02*
X20969777Y-14170198D01*
X20969777Y-14170198D02*
X20979301Y-14189246D01*
X20979301Y-14189246D02*
X20979301Y-14246388D01*
X20979301Y-14246388D02*
X20969777Y-14265436D01*
X20969777Y-14265436D02*
X20960253Y-14274960D01*
X20960253Y-14274960D02*
X20941206Y-14284484D01*
X20941206Y-14284484D02*
X20912634Y-14284484D01*
X21093587Y-14284484D02*
X21074539Y-14274960D01*
X21074539Y-14274960D02*
X21065015Y-14255912D01*
X21065015Y-14255912D02*
X21065015Y-14084484D01*
X21245968Y-14274960D02*
X21226920Y-14284484D01*
X21226920Y-14284484D02*
X21188825Y-14284484D01*
X21188825Y-14284484D02*
X21169777Y-14274960D01*
X21169777Y-14274960D02*
X21160253Y-14255912D01*
X21160253Y-14255912D02*
X21160253Y-14179722D01*
X21160253Y-14179722D02*
X21169777Y-14160674D01*
X21169777Y-14160674D02*
X21188825Y-14151150D01*
X21188825Y-14151150D02*
X21226920Y-14151150D01*
X21226920Y-14151150D02*
X21245968Y-14160674D01*
X21245968Y-14160674D02*
X21255492Y-14179722D01*
X21255492Y-14179722D02*
X21255492Y-14198769D01*
X21255492Y-14198769D02*
X21160253Y-14217817D01*
X21322158Y-14360674D02*
X21331682Y-14351150D01*
X21331682Y-14351150D02*
X21350730Y-14322579D01*
X21350730Y-14322579D02*
X21360253Y-14303531D01*
X21360253Y-14303531D02*
X21369777Y-14274960D01*
X21369777Y-14274960D02*
X21379301Y-14227341D01*
X21379301Y-14227341D02*
X21379301Y-14189246D01*
X21379301Y-14189246D02*
X21369777Y-14141627D01*
X21369777Y-14141627D02*
X21360253Y-14113055D01*
X21360253Y-14113055D02*
X21350730Y-14094008D01*
X21350730Y-14094008D02*
X21331682Y-14065436D01*
X21331682Y-14065436D02*
X21322158Y-14055912D01*
D10*
X16694356Y-14492356D02*
X16694356Y-14421644D01*
X16623644Y-14421644D01*
X16623644Y-14492356D01*
X16694356Y-14492356D01*
D11*
X17074539Y-14548484D02*
X16960253Y-14548484D01*
X17017396Y-14548484D02*
X17017396Y-14348484D01*
X17017396Y-14348484D02*
X16998348Y-14377055D01*
X16998348Y-14377055D02*
X16979301Y-14396103D01*
X16979301Y-14396103D02*
X16960253Y-14405627D01*
X17160253Y-14529436D02*
X17169777Y-14538960D01*
X17169777Y-14538960D02*
X17160253Y-14548484D01*
X17160253Y-14548484D02*
X17150729Y-14538960D01*
X17150729Y-14538960D02*
X17160253Y-14529436D01*
X17160253Y-14529436D02*
X17160253Y-14548484D01*
X17293586Y-14348484D02*
X17312634Y-14348484D01*
X17312634Y-14348484D02*
X17331682Y-14358008D01*
X17331682Y-14358008D02*
X17341205Y-14367531D01*
X17341205Y-14367531D02*
X17350729Y-14386579D01*
X17350729Y-14386579D02*
X17360253Y-14424674D01*
X17360253Y-14424674D02*
X17360253Y-14472293D01*
X17360253Y-14472293D02*
X17350729Y-14510388D01*
X17350729Y-14510388D02*
X17341205Y-14529436D01*
X17341205Y-14529436D02*
X17331682Y-14538960D01*
X17331682Y-14538960D02*
X17312634Y-14548484D01*
X17312634Y-14548484D02*
X17293586Y-14548484D01*
X17293586Y-14548484D02*
X17274539Y-14538960D01*
X17274539Y-14538960D02*
X17265015Y-14529436D01*
X17265015Y-14529436D02*
X17255491Y-14510388D01*
X17255491Y-14510388D02*
X17245967Y-14472293D01*
X17245967Y-14472293D02*
X17245967Y-14424674D01*
X17245967Y-14424674D02*
X17255491Y-14386579D01*
X17255491Y-14386579D02*
X17265015Y-14367531D01*
X17265015Y-14367531D02*
X17274539Y-14358008D01*
X17274539Y-14358008D02*
X17293586Y-14348484D01*
X17484063Y-14348484D02*
X17503110Y-14348484D01*
X17503110Y-14348484D02*
X17522158Y-14358008D01*
X17522158Y-14358008D02*
X17531682Y-14367531D01*
X17531682Y-14367531D02*
X17541205Y-14386579D01*
X17541205Y-14386579D02*
X17550729Y-14424674D01*
X17550729Y-14424674D02*
X17550729Y-14472293D01*
X17550729Y-14472293D02*
X17541205Y-14510388D01*
X17541205Y-14510388D02*
X17531682Y-14529436D01*
X17531682Y-14529436D02*
X17522158Y-14538960D01*
X17522158Y-14538960D02*
X17503110Y-14548484D01*
X17503110Y-14548484D02*
X17484063Y-14548484D01*
X17484063Y-14548484D02*
X17465015Y-14538960D01*
X17465015Y-14538960D02*
X17455491Y-14529436D01*
X17455491Y-14529436D02*
X17445967Y-14510388D01*
X17445967Y-14510388D02*
X17436444Y-14472293D01*
X17436444Y-14472293D02*
X17436444Y-14424674D01*
X17436444Y-14424674D02*
X17445967Y-14386579D01*
X17445967Y-14386579D02*
X17455491Y-14367531D01*
X17455491Y-14367531D02*
X17465015Y-14358008D01*
X17465015Y-14358008D02*
X17484063Y-14348484D01*
X17674539Y-14348484D02*
X17693586Y-14348484D01*
X17693586Y-14348484D02*
X17712634Y-14358008D01*
X17712634Y-14358008D02*
X17722158Y-14367531D01*
X17722158Y-14367531D02*
X17731682Y-14386579D01*
X17731682Y-14386579D02*
X17741205Y-14424674D01*
X17741205Y-14424674D02*
X17741205Y-14472293D01*
X17741205Y-14472293D02*
X17731682Y-14510388D01*
X17731682Y-14510388D02*
X17722158Y-14529436D01*
X17722158Y-14529436D02*
X17712634Y-14538960D01*
X17712634Y-14538960D02*
X17693586Y-14548484D01*
X17693586Y-14548484D02*
X17674539Y-14548484D01*
X17674539Y-14548484D02*
X17655491Y-14538960D01*
X17655491Y-14538960D02*
X17645967Y-14529436D01*
X17645967Y-14529436D02*
X17636444Y-14510388D01*
X17636444Y-14510388D02*
X17626920Y-14472293D01*
X17626920Y-14472293D02*
X17626920Y-14424674D01*
X17626920Y-14424674D02*
X17636444Y-14386579D01*
X17636444Y-14386579D02*
X17645967Y-14367531D01*
X17645967Y-14367531D02*
X17655491Y-14358008D01*
X17655491Y-14358008D02*
X17674539Y-14348484D01*
X17826920Y-14548484D02*
X17826920Y-14415150D01*
X17826920Y-14434198D02*
X17836444Y-14424674D01*
X17836444Y-14424674D02*
X17855491Y-14415150D01*
X17855491Y-14415150D02*
X17884063Y-14415150D01*
X17884063Y-14415150D02*
X17903110Y-14424674D01*
X17903110Y-14424674D02*
X17912634Y-14443722D01*
X17912634Y-14443722D02*
X17912634Y-14548484D01*
X17912634Y-14443722D02*
X17922158Y-14424674D01*
X17922158Y-14424674D02*
X17941205Y-14415150D01*
X17941205Y-14415150D02*
X17969777Y-14415150D01*
X17969777Y-14415150D02*
X17988825Y-14424674D01*
X17988825Y-14424674D02*
X17998348Y-14443722D01*
X17998348Y-14443722D02*
X17998348Y-14548484D01*
X18093586Y-14548484D02*
X18093586Y-14415150D01*
X18093586Y-14434198D02*
X18103110Y-14424674D01*
X18103110Y-14424674D02*
X18122158Y-14415150D01*
X18122158Y-14415150D02*
X18150729Y-14415150D01*
X18150729Y-14415150D02*
X18169777Y-14424674D01*
X18169777Y-14424674D02*
X18179301Y-14443722D01*
X18179301Y-14443722D02*
X18179301Y-14548484D01*
X18179301Y-14443722D02*
X18188825Y-14424674D01*
X18188825Y-14424674D02*
X18207872Y-14415150D01*
X18207872Y-14415150D02*
X18236444Y-14415150D01*
X18236444Y-14415150D02*
X18255491Y-14424674D01*
X18255491Y-14424674D02*
X18265015Y-14443722D01*
X18265015Y-14443722D02*
X18265015Y-14548484D01*
X18655491Y-14338960D02*
X18484063Y-14596103D01*
X18912634Y-14348484D02*
X18931682Y-14348484D01*
X18931682Y-14348484D02*
X18950729Y-14358008D01*
X18950729Y-14358008D02*
X18960253Y-14367531D01*
X18960253Y-14367531D02*
X18969777Y-14386579D01*
X18969777Y-14386579D02*
X18979301Y-14424674D01*
X18979301Y-14424674D02*
X18979301Y-14472293D01*
X18979301Y-14472293D02*
X18969777Y-14510388D01*
X18969777Y-14510388D02*
X18960253Y-14529436D01*
X18960253Y-14529436D02*
X18950729Y-14538960D01*
X18950729Y-14538960D02*
X18931682Y-14548484D01*
X18931682Y-14548484D02*
X18912634Y-14548484D01*
X18912634Y-14548484D02*
X18893587Y-14538960D01*
X18893587Y-14538960D02*
X18884063Y-14529436D01*
X18884063Y-14529436D02*
X18874539Y-14510388D01*
X18874539Y-14510388D02*
X18865015Y-14472293D01*
X18865015Y-14472293D02*
X18865015Y-14424674D01*
X18865015Y-14424674D02*
X18874539Y-14386579D01*
X18874539Y-14386579D02*
X18884063Y-14367531D01*
X18884063Y-14367531D02*
X18893587Y-14358008D01*
X18893587Y-14358008D02*
X18912634Y-14348484D01*
X19065015Y-14529436D02*
X19074539Y-14538960D01*
X19074539Y-14538960D02*
X19065015Y-14548484D01*
X19065015Y-14548484D02*
X19055491Y-14538960D01*
X19055491Y-14538960D02*
X19065015Y-14529436D01*
X19065015Y-14529436D02*
X19065015Y-14548484D01*
X19198348Y-14348484D02*
X19217396Y-14348484D01*
X19217396Y-14348484D02*
X19236444Y-14358008D01*
X19236444Y-14358008D02*
X19245968Y-14367531D01*
X19245968Y-14367531D02*
X19255491Y-14386579D01*
X19255491Y-14386579D02*
X19265015Y-14424674D01*
X19265015Y-14424674D02*
X19265015Y-14472293D01*
X19265015Y-14472293D02*
X19255491Y-14510388D01*
X19255491Y-14510388D02*
X19245968Y-14529436D01*
X19245968Y-14529436D02*
X19236444Y-14538960D01*
X19236444Y-14538960D02*
X19217396Y-14548484D01*
X19217396Y-14548484D02*
X19198348Y-14548484D01*
X19198348Y-14548484D02*
X19179301Y-14538960D01*
X19179301Y-14538960D02*
X19169777Y-14529436D01*
X19169777Y-14529436D02*
X19160253Y-14510388D01*
X19160253Y-14510388D02*
X19150729Y-14472293D01*
X19150729Y-14472293D02*
X19150729Y-14424674D01*
X19150729Y-14424674D02*
X19160253Y-14386579D01*
X19160253Y-14386579D02*
X19169777Y-14367531D01*
X19169777Y-14367531D02*
X19179301Y-14358008D01*
X19179301Y-14358008D02*
X19198348Y-14348484D01*
X19331682Y-14348484D02*
X19455491Y-14348484D01*
X19455491Y-14348484D02*
X19388825Y-14424674D01*
X19388825Y-14424674D02*
X19417396Y-14424674D01*
X19417396Y-14424674D02*
X19436444Y-14434198D01*
X19436444Y-14434198D02*
X19445968Y-14443722D01*
X19445968Y-14443722D02*
X19455491Y-14462769D01*
X19455491Y-14462769D02*
X19455491Y-14510388D01*
X19455491Y-14510388D02*
X19445968Y-14529436D01*
X19445968Y-14529436D02*
X19436444Y-14538960D01*
X19436444Y-14538960D02*
X19417396Y-14548484D01*
X19417396Y-14548484D02*
X19360253Y-14548484D01*
X19360253Y-14548484D02*
X19341206Y-14538960D01*
X19341206Y-14538960D02*
X19331682Y-14529436D01*
X19550729Y-14548484D02*
X19588825Y-14548484D01*
X19588825Y-14548484D02*
X19607872Y-14538960D01*
X19607872Y-14538960D02*
X19617396Y-14529436D01*
X19617396Y-14529436D02*
X19636444Y-14500865D01*
X19636444Y-14500865D02*
X19645968Y-14462769D01*
X19645968Y-14462769D02*
X19645968Y-14386579D01*
X19645968Y-14386579D02*
X19636444Y-14367531D01*
X19636444Y-14367531D02*
X19626920Y-14358008D01*
X19626920Y-14358008D02*
X19607872Y-14348484D01*
X19607872Y-14348484D02*
X19569777Y-14348484D01*
X19569777Y-14348484D02*
X19550729Y-14358008D01*
X19550729Y-14358008D02*
X19541206Y-14367531D01*
X19541206Y-14367531D02*
X19531682Y-14386579D01*
X19531682Y-14386579D02*
X19531682Y-14434198D01*
X19531682Y-14434198D02*
X19541206Y-14453246D01*
X19541206Y-14453246D02*
X19550729Y-14462769D01*
X19550729Y-14462769D02*
X19569777Y-14472293D01*
X19569777Y-14472293D02*
X19607872Y-14472293D01*
X19607872Y-14472293D02*
X19626920Y-14462769D01*
X19626920Y-14462769D02*
X19636444Y-14453246D01*
X19636444Y-14453246D02*
X19645968Y-14434198D01*
X19817396Y-14415150D02*
X19817396Y-14548484D01*
X19769777Y-14338960D02*
X19722158Y-14481817D01*
X19722158Y-14481817D02*
X19845968Y-14481817D01*
X19912634Y-14348484D02*
X19912634Y-14386579D01*
X19988825Y-14348484D02*
X19988825Y-14386579D01*
X20284063Y-14624674D02*
X20274539Y-14615150D01*
X20274539Y-14615150D02*
X20255491Y-14586579D01*
X20255491Y-14586579D02*
X20245968Y-14567531D01*
X20245968Y-14567531D02*
X20236444Y-14538960D01*
X20236444Y-14538960D02*
X20226920Y-14491341D01*
X20226920Y-14491341D02*
X20226920Y-14453246D01*
X20226920Y-14453246D02*
X20236444Y-14405627D01*
X20236444Y-14405627D02*
X20245968Y-14377055D01*
X20245968Y-14377055D02*
X20255491Y-14358008D01*
X20255491Y-14358008D02*
X20274539Y-14329436D01*
X20274539Y-14329436D02*
X20284063Y-14319912D01*
X20465015Y-14548484D02*
X20350730Y-14548484D01*
X20407872Y-14548484D02*
X20407872Y-14348484D01*
X20407872Y-14348484D02*
X20388825Y-14377055D01*
X20388825Y-14377055D02*
X20369777Y-14396103D01*
X20369777Y-14396103D02*
X20350730Y-14405627D01*
X20588825Y-14348484D02*
X20607872Y-14348484D01*
X20607872Y-14348484D02*
X20626920Y-14358008D01*
X20626920Y-14358008D02*
X20636444Y-14367531D01*
X20636444Y-14367531D02*
X20645968Y-14386579D01*
X20645968Y-14386579D02*
X20655491Y-14424674D01*
X20655491Y-14424674D02*
X20655491Y-14472293D01*
X20655491Y-14472293D02*
X20645968Y-14510388D01*
X20645968Y-14510388D02*
X20636444Y-14529436D01*
X20636444Y-14529436D02*
X20626920Y-14538960D01*
X20626920Y-14538960D02*
X20607872Y-14548484D01*
X20607872Y-14548484D02*
X20588825Y-14548484D01*
X20588825Y-14548484D02*
X20569777Y-14538960D01*
X20569777Y-14538960D02*
X20560253Y-14529436D01*
X20560253Y-14529436D02*
X20550730Y-14510388D01*
X20550730Y-14510388D02*
X20541206Y-14472293D01*
X20541206Y-14472293D02*
X20541206Y-14424674D01*
X20541206Y-14424674D02*
X20550730Y-14386579D01*
X20550730Y-14386579D02*
X20560253Y-14367531D01*
X20560253Y-14367531D02*
X20569777Y-14358008D01*
X20569777Y-14358008D02*
X20588825Y-14348484D01*
X20893587Y-14548484D02*
X20893587Y-14348484D01*
X20979301Y-14548484D02*
X20979301Y-14443722D01*
X20979301Y-14443722D02*
X20969777Y-14424674D01*
X20969777Y-14424674D02*
X20950730Y-14415150D01*
X20950730Y-14415150D02*
X20922158Y-14415150D01*
X20922158Y-14415150D02*
X20903111Y-14424674D01*
X20903111Y-14424674D02*
X20893587Y-14434198D01*
X21103111Y-14548484D02*
X21084063Y-14538960D01*
X21084063Y-14538960D02*
X21074539Y-14529436D01*
X21074539Y-14529436D02*
X21065015Y-14510388D01*
X21065015Y-14510388D02*
X21065015Y-14453246D01*
X21065015Y-14453246D02*
X21074539Y-14434198D01*
X21074539Y-14434198D02*
X21084063Y-14424674D01*
X21084063Y-14424674D02*
X21103111Y-14415150D01*
X21103111Y-14415150D02*
X21131682Y-14415150D01*
X21131682Y-14415150D02*
X21150730Y-14424674D01*
X21150730Y-14424674D02*
X21160253Y-14434198D01*
X21160253Y-14434198D02*
X21169777Y-14453246D01*
X21169777Y-14453246D02*
X21169777Y-14510388D01*
X21169777Y-14510388D02*
X21160253Y-14529436D01*
X21160253Y-14529436D02*
X21150730Y-14538960D01*
X21150730Y-14538960D02*
X21131682Y-14548484D01*
X21131682Y-14548484D02*
X21103111Y-14548484D01*
X21284063Y-14548484D02*
X21265015Y-14538960D01*
X21265015Y-14538960D02*
X21255492Y-14519912D01*
X21255492Y-14519912D02*
X21255492Y-14348484D01*
X21436444Y-14538960D02*
X21417396Y-14548484D01*
X21417396Y-14548484D02*
X21379301Y-14548484D01*
X21379301Y-14548484D02*
X21360253Y-14538960D01*
X21360253Y-14538960D02*
X21350730Y-14519912D01*
X21350730Y-14519912D02*
X21350730Y-14443722D01*
X21350730Y-14443722D02*
X21360253Y-14424674D01*
X21360253Y-14424674D02*
X21379301Y-14415150D01*
X21379301Y-14415150D02*
X21417396Y-14415150D01*
X21417396Y-14415150D02*
X21436444Y-14424674D01*
X21436444Y-14424674D02*
X21445968Y-14443722D01*
X21445968Y-14443722D02*
X21445968Y-14462769D01*
X21445968Y-14462769D02*
X21350730Y-14481817D01*
X21522158Y-14538960D02*
X21541206Y-14548484D01*
X21541206Y-14548484D02*
X21579301Y-14548484D01*
X21579301Y-14548484D02*
X21598349Y-14538960D01*
X21598349Y-14538960D02*
X21607873Y-14519912D01*
X21607873Y-14519912D02*
X21607873Y-14510388D01*
X21607873Y-14510388D02*
X21598349Y-14491341D01*
X21598349Y-14491341D02*
X21579301Y-14481817D01*
X21579301Y-14481817D02*
X21550730Y-14481817D01*
X21550730Y-14481817D02*
X21531682Y-14472293D01*
X21531682Y-14472293D02*
X21522158Y-14453246D01*
X21522158Y-14453246D02*
X21522158Y-14443722D01*
X21522158Y-14443722D02*
X21531682Y-14424674D01*
X21531682Y-14424674D02*
X21550730Y-14415150D01*
X21550730Y-14415150D02*
X21579301Y-14415150D01*
X21579301Y-14415150D02*
X21598349Y-14424674D01*
X21674539Y-14624674D02*
X21684063Y-14615150D01*
X21684063Y-14615150D02*
X21703111Y-14586579D01*
X21703111Y-14586579D02*
X21712634Y-14567531D01*
X21712634Y-14567531D02*
X21722158Y-14538960D01*
X21722158Y-14538960D02*
X21731682Y-14491341D01*
X21731682Y-14491341D02*
X21731682Y-14453246D01*
X21731682Y-14453246D02*
X21722158Y-14405627D01*
X21722158Y-14405627D02*
X21712634Y-14377055D01*
X21712634Y-14377055D02*
X21703111Y-14358008D01*
X21703111Y-14358008D02*
X21684063Y-14329436D01*
X21684063Y-14329436D02*
X21674539Y-14319912D01*
M02*
