M48
; DRILL file {KiCad (6.0.1-0)} date Saturday, April 09, 2022 at 05:35:48 PM
; FORMAT={-:-/ absolute / inch / decimal}
; #@! TF.CreationDate,2022-04-09T17:35:48-06:00
; #@! TF.GenerationSoftware,Kicad,Pcbnew,(6.0.1-0)
; #@! TF.FileFunction,Plated,1,6,PTH
FMAT,2
INCH
; #@! TA.AperFunction,Plated,PTH,ViaDrill
T1C0.0118
; #@! TA.AperFunction,Plated,PTH,ComponentDrill
T2C0.0120
; #@! TA.AperFunction,Plated,PTH,ComponentDrill
T3C0.0236
; #@! TA.AperFunction,Plated,PTH,ComponentDrill
T4C0.0276
; #@! TA.AperFunction,Plated,PTH,ComponentDrill
T5C0.0394
%
G90
G05
T1
X4.0067Y-7.1709
X4.0101Y-7.2236
X4.0101Y-7.2724
X4.0101Y-7.3224
X4.0669Y-6.9933
X4.0925Y-7.4984
X4.1567Y-6.863
X4.3169Y-6.5764
X4.3205Y-7.5469
X4.3278Y-7.3833
X4.3358Y-6.4902
X4.337Y-7.2232
X4.3455Y-7.5719
X4.3465Y-6.9398
X4.3476Y-7.4031
X4.348Y-6.6531
X4.3539Y-7.3106
X4.3614Y-7.4602
X4.3663Y-6.2813
X4.3681Y-6.7705
X4.3722Y-7.5986
X4.3839Y-7.3126
X4.3953Y-6.3472
X4.3969Y-6.7173
X4.3992Y-7.1004
X4.3992Y-7.1425
X4.4Y-7.178
X4.4051Y-7.2205
X4.4064Y-6.7436
X4.4264Y-7.3126
X4.4386Y-6.2224
X4.5689Y-6.5303
X4.5689Y-6.7586
X4.5913Y-7.8024
X4.6012Y-6.6335
X4.6024Y-6.8969
X4.648Y-7.4154
X4.6484Y-7.3583
X4.6484Y-7.3866
X4.6486Y-7.7522
X4.652Y-7.0114
X4.6772Y-7.7807
X4.6839Y-7.3366
X4.6894Y-7.1476
X4.7031Y-7.6114
X4.7031Y-7.8067
X4.7055Y-7.1646
X4.724Y-6.3217
X4.7516Y-6.5039
X4.7527Y-6.3217
X4.7567Y-6.4437
X4.7567Y-6.4701
X4.7807Y-7.6295
X4.784Y-7.081
X4.7842Y-6.3217
X4.7894Y-7.3902
X4.7909Y-7.139
X4.7972Y-6.6945
X4.8181Y-6.3217
X4.8217Y-7.0579
X4.8307Y-7.4685
X4.8362Y-7.4382
X4.8543Y-7.0406
X4.8636Y-6.9116
X4.8811Y-7.3803
X4.8902Y-6.9094
X4.8949Y-7.7169
X4.9205Y-6.8941
X4.9273Y-7.3488
X4.9281Y-6.9259
X4.9338Y-7.1898
X4.9469Y-6.1996
X4.947Y-6.6329
X4.9637Y-6.6537
X4.9917Y-7.7429
X4.9967Y-7.3588
X5.0043Y-7.0801
X5.0048Y-6.5858
X5.0053Y-6.6633
X5.0114Y-7.7126
X5.0219Y-6.9252
X5.0244Y-6.4902
X5.0289Y-6.6756
X5.0295Y-7.3955
X5.0409Y-7.7319
X5.0428Y-6.6984
X5.044Y-6.5942
X5.0535Y-6.7236
X5.0575Y-6.9023
X5.0646Y-6.8749
X5.0683Y-6.5154
X5.0804Y-6.928
X5.0821Y-6.7531
X5.0826Y-6.7248
X5.0941Y-7.3346
X5.1007Y-7.4271
X5.1122Y-7.3535
X5.1327Y-6.8858
X5.1353Y-7.4392
X5.139Y-7.7429
X5.1447Y-7.3793
X5.1457Y-7.798
X5.1488Y-7.0583
X5.1516Y-7.5051
X5.1535Y-7.2252
X5.1766Y-7.0545
X5.2335Y-6.2224
X5.237Y-7.3193
X5.2394Y-6.5213
X5.2394Y-6.9634
X5.2525Y-6.6101
X5.2705Y-7.8272
X5.2788Y-6.6295
X5.2945Y-6.5724
X5.2953Y-6.9409
X5.3268Y-7.1728
X5.3268Y-7.2035
X5.3276Y-6.9402
X5.348Y-7.7146
X5.3569Y-6.4648
X5.3909Y-6.574
X5.3925Y-7.7091
X5.4165Y-6.5358
X5.4224Y-6.8752
X5.4228Y-6.9921
X5.4362Y-7.565
X5.4406Y-7.2661
X5.488Y-6.577
X5.5398Y-6.4701
X5.5406Y-6.4449
X5.5465Y-7.602
X5.5591Y-7.1921
X5.5602Y-6.5138
X5.5603Y-7.1571
X5.5638Y-7.0043
X5.5689Y-6.9283
X5.572Y-7.5039
X5.5752Y-7.2307
X5.5807Y-7.3425
X5.5866Y-6.4039
X5.5866Y-6.5146
X5.6079Y-7.2587
X5.6413Y-7.5657
X5.6465Y-7.8179
X5.6574Y-6.9059
X5.6602Y-6.7337
X5.6657Y-7.8378
X5.6661Y-7.574
X5.704Y-6.4762
X5.7043Y-6.1953
X5.7232Y-6.5276
X5.7236Y-7.1335
X5.7319Y-7.3485
X5.7327Y-7.5693
X5.7544Y-6.7694
X5.7571Y-6.9953
X5.7573Y-7.751
X5.7921Y-6.4827
X5.7945Y-6.9945
X5.8886Y-7.2142
X5.8894Y-6.4122
X5.9559Y-6.5209
X6.0059Y-6.9492
X6.0165Y-6.2224
X6.0776Y-7.389
X6.0796Y-6.4697
X6.161Y-6.6059
X6.1673Y-7.2201
X6.1677Y-6.5205
X6.1827Y-7.1417
X6.1859Y-6.3978
X6.1996Y-7.6874
X6.2177Y-7.7913
X6.2181Y-7.1637
X6.2282Y-7.6721
X6.2453Y-7.7163
X6.2488Y-7.0458
X6.249Y-7.5608
X6.2524Y-7.6906
X6.2547Y-6.5929
X6.2594Y-7.0209
X6.2658Y-7.8022
X6.271Y-7.4797
X6.2912Y-7.8114
X6.2941Y-6.4894
X6.2953Y-7.4681
X6.3014Y-7.5085
X6.3031Y-7.6858
X6.3055Y-6.4728
X6.3056Y-6.9315
X6.3083Y-7.5878
X6.3252Y-6.974
X6.3259Y-7.8397
X6.3278Y-7.6719
X6.3383Y-7.0307
X6.3383Y-7.0583
X6.3394Y-7.2205
X6.3413Y-6.5444
X6.3525Y-7.8426
X6.3709Y-6.5339
X6.3917Y-6.1972
X6.4Y-6.7335
X6.4059Y-6.8028
X6.4075Y-6.9205
X6.4075Y-7.0827
X6.4157Y-6.2138
X6.4172Y-6.4594
X6.4291Y-7.0992
X6.4343Y-6.92
X6.4491Y-6.2448
X6.4606Y-6.5358
X6.4685Y-6.198
X6.4701Y-7.389
X6.487Y-7.2638
X6.4874Y-7.5291
X6.4933Y-6.1786
X6.4942Y-6.3978
X6.5201Y-7.7169
X6.5209Y-7.6795
X6.5222Y-6.222
X6.535Y-6.1906
X6.5386Y-6.92
X6.5634Y-6.2453
X6.576Y-6.7283
X6.5792Y-6.4015
X6.5815Y-6.8902
X6.5849Y-7.1767
X6.5929Y-7.2295
X6.6224Y-6.5252
X6.6422Y-6.4767
X6.6445Y-6.5472
X6.6592Y-6.8018
X6.6598Y-7.0182
X6.663Y-6.4963
X6.6634Y-7.1461
X6.6803Y-6.8169
X6.6839Y-7.1705
X6.6846Y-6.5153
X6.7106Y-6.8016
X6.7256Y-6.4697
X6.7307Y-7.6909
X6.7453Y-6.8122
X6.7488Y-7.5846
X6.7491Y-7.0106
X6.7491Y-7.1307
X6.7567Y-6.1583
X6.7622Y-6.615
X6.763Y-6.6418
X6.7835Y-7.6965
X6.7854Y-6.2417
X6.8083Y-7.3961
X6.8098Y-6.5883
X6.8185Y-7.4199
X6.8386Y-6.5906
X6.8554Y-6.2484
X6.8643Y-6.5977
X6.8779Y-7.3837
X6.8847Y-6.6149
X6.8881Y-6.2533
X6.889Y-7.5496
X6.9043Y-7.3802
X6.9165Y-6.2359
X6.9252Y-7.6026
X6.9256Y-7.6831
X6.9315Y-7.5764
X6.9406Y-6.6221
X6.9609Y-7.6839
X6.9705Y-6.6012
X6.9728Y-6.2664
X6.976Y-6.7815
X6.9817Y-7.7014
X6.9953Y-6.7311
X6.9965Y-6.6244
X7.0035Y-6.8984
X7.0071Y-7.3917
X7.0189Y-7.0469
X7.0205Y-7.2039
X7.0228Y-7.1728
X7.0386Y-7.852
X7.0445Y-7.8259
X7.0515Y-7.7111
X7.0535Y-7.6838
X7.0657Y-7.3858
X7.0917Y-6.4559
X7.146Y-6.4564
X7.1469Y-7.6602
X7.165Y-7.5618
X7.1685Y-6.7047
X7.1783Y-7.2094
X7.1819Y-6.7539
X7.183Y-6.5917
X7.183Y-6.6587
X7.1854Y-7.5402
X7.189Y-7.0469
X7.2035Y-6.4564
X7.2039Y-6.7752
X7.2039Y-6.9858
X7.2083Y-6.6835
X7.2098Y-7.2028
X7.2115Y-7.1508
X7.2193Y-7.8106
X7.222Y-7.2933
X7.2231Y-7.3906
X7.2399Y-6.5159
X7.2453Y-7.2295
X7.2475Y-6.687
X7.2484Y-7.0798
X7.2492Y-6.9441
X7.2723Y-7.329
X7.2724Y-7.4173
X7.2874Y-7.6961
X7.2934Y-6.7547
X7.2934Y-6.9411
X7.2957Y-7.5594
X7.3327Y-6.95
X7.3427Y-6.1839
X7.3441Y-6.6331
X7.365Y-7.6161
X7.376Y-6.5106
X7.3791Y-7.0728
X7.3909Y-7.214
X7.4004Y-6.5016
X7.4051Y-7.5634
X7.4102Y-7.461
X7.4216Y-7.2109
X7.4264Y-6.6765
X7.4327Y-5.0728
X7.4512Y-7.0959
X7.4531Y-6.7295
X7.4591Y-6.4119
X7.4685Y-7.0236
X7.4732Y-6.4654
X7.4736Y-6.6665
X7.4776Y-7.1711
X7.4823Y-6.7815
X7.4902Y-6.4917
X7.4906Y-7.115
X7.5098Y-7.198
X7.5393Y-5.4591
X7.5445Y-6.4083
X7.5445Y-7.2185
X7.5496Y-6.8949
X7.5571Y-4.8578
X7.5685Y-5.9394
X7.574Y-6.6803
X7.5752Y-6.7094
X7.5756Y-6.7386
X7.5762Y-6.1374
X7.5823Y-5.2165
X7.5835Y-5.9543
X7.5847Y-6.1744
X7.5909Y-5.3642
X7.5933Y-7.0432
X7.5969Y-7.2343
X7.6091Y-7.4358
X7.6256Y-5.6366
X7.6315Y-6.9244
X7.6315Y-7.3795
X7.6331Y-5.3933
X7.6406Y-5.3094
X7.6441Y-6.3126
X7.6496Y-5.2827
X7.6508Y-5.1406
X7.6513Y-5.4811
X7.678Y-6.987
X7.6787Y-6.7811
X7.7016Y-6.8539
X7.7035Y-6.1394
X7.7098Y-7.1256
X7.724Y-6.839
X7.7307Y-6.8965
X7.7307Y-7.096
X7.7525Y-6.8022
X7.7637Y-5.3795
X7.7732Y-6.8201
X7.7921Y-6.95
X7.7929Y-7.0435
X7.8Y-6.633
X7.8004Y-6.1818
X7.8008Y-6.8764
X7.8106Y-5.222
X7.8154Y-4.6343
X7.8201Y-5.4606
X7.8323Y-5.6358
X7.8358Y-7.1268
X7.8382Y-5.7976
X7.8665Y-4.5106
X7.8669Y-5.9543
X7.8827Y-4.6906
X7.8862Y-4.6016
X7.8866Y-5.8642
X7.889Y-5.1394
X7.8898Y-5.2823
X7.9009Y-7.0122
X7.9033Y-5.7
X7.9075Y-4.6177
X7.913Y-7.0358
X7.9177Y-5.3425
X7.9276Y-6.6181
X7.939Y-6.1622
X7.9496Y-4.6122
X7.9555Y-6.6697
X7.9594Y-7.2587
X7.9614Y-6.9969
X7.9626Y-6.3378
X7.9906Y-6.8039
X8.0035Y-7.0764
X8.0327Y-5.0878
X8.05Y-5.7654
X8.05Y-5.8598
X8.05Y-5.9496
X8.05Y-6.2008
X8.05Y-6.3941
T2
X4.9364Y-7.5963
X4.9374Y-7.5087
X4.9384Y-7.552
X4.9807Y-7.5087
X4.9807Y-7.5972
X4.9817Y-7.552
X5.024Y-7.5963
X5.025Y-7.5087
X5.027Y-7.552
T4
X3.9913Y-7.5035
X3.9925Y-6.1984
X3.9976Y-6.8972
X3.9988Y-6.7724
X4.9906Y-7.8197
X5.0921Y-7.8201
T5
X4.015Y-6.6531
X7.9654Y-5.3299
X7.9654Y-5.4299
X7.9654Y-5.5299
X7.9654Y-5.6299
T3
G00X4.485Y-6.1736
M15
G01X4.6504Y-6.1736
M16
G05
G00X5.2673Y-6.1736
M15
G01X5.4327Y-6.1736
M16
G05
G00X5.4695Y-7.6916
M15
G01X5.4695Y-7.6483
M16
G05
G00X5.4695Y-7.8503
M15
G01X5.4695Y-7.8188
M16
G05
G00X5.8096Y-7.6916
M15
G01X5.8096Y-7.6483
M16
G05
G00X5.8096Y-7.8503
M15
G01X5.8096Y-7.8188
M16
G05
G00X6.063Y-6.1736
M15
G01X6.2283Y-6.1736
M16
G05
G00X6.8449Y-6.1736
M15
G01X7.0102Y-6.1736
M16
G05
T0
M30
