%TF.GenerationSoftware,KiCad,Pcbnew,(6.0.1-0)*%
%TF.CreationDate,2022-04-09T17:35:36-06:00*%
%TF.ProjectId,HAT_CM4_183,4841545f-434d-4345-9f31-38332e6b6963,1.8.3*%
%TF.SameCoordinates,Original*%
%TF.FileFunction,Soldermask,Bot*%
%TF.FilePolarity,Negative*%
%FSLAX46Y46*%
G04 Gerber Fmt 4.6, Leading zero omitted, Abs format (unit mm)*
G04 Created by KiCad (PCBNEW (6.0.1-0)) date 2022-04-09 17:35:36*
%MOMM*%
%LPD*%
G01*
G04 APERTURE LIST*
G04 Aperture macros list*
%AMRoundRect*
0 Rectangle with rounded corners*
0 $1 Rounding radius*
0 $2 $3 $4 $5 $6 $7 $8 $9 X,Y pos of 4 corners*
0 Add a 4 corners polygon primitive as box body*
4,1,4,$2,$3,$4,$5,$6,$7,$8,$9,$2,$3,0*
0 Add four circle primitives for the rounded corners*
1,1,$1+$1,$2,$3*
1,1,$1+$1,$4,$5*
1,1,$1+$1,$6,$7*
1,1,$1+$1,$8,$9*
0 Add four rect primitives between the rounded corners*
20,1,$1+$1,$2,$3,$4,$5,0*
20,1,$1+$1,$4,$5,$6,$7,0*
20,1,$1+$1,$6,$7,$8,$9,0*
20,1,$1+$1,$8,$9,$2,$3,0*%
%AMRotRect*
0 Rectangle, with rotation*
0 The origin of the aperture is its center*
0 $1 length*
0 $2 width*
0 $3 Rotation angle, in degrees counterclockwise*
0 Add horizontal line*
21,1,$1,$2,0,0,$3*%
G04 Aperture macros list end*
%ADD10C,4.300000*%
%ADD11C,1.500000*%
%ADD12RoundRect,0.500000X-2.300000X-0.250000X2.300000X-0.250000X2.300000X0.250000X-2.300000X0.250000X0*%
%ADD13R,2.000000X2.000000*%
%ADD14C,0.508000*%
%ADD15R,1.700000X1.700000*%
%ADD16O,1.700000X1.700000*%
%ADD17C,2.500000*%
%ADD18R,0.900000X2.500000*%
%ADD19R,2.500000X5.150000*%
%ADD20RoundRect,0.225000X0.225000X0.250000X-0.225000X0.250000X-0.225000X-0.250000X0.225000X-0.250000X0*%
%ADD21RoundRect,0.225000X-0.250000X0.225000X-0.250000X-0.225000X0.250000X-0.225000X0.250000X0.225000X0*%
%ADD22RoundRect,0.250000X0.550000X-1.250000X0.550000X1.250000X-0.550000X1.250000X-0.550000X-1.250000X0*%
%ADD23RoundRect,0.200000X-0.275000X0.200000X-0.275000X-0.200000X0.275000X-0.200000X0.275000X0.200000X0*%
%ADD24R,1.060000X0.650000*%
%ADD25RoundRect,0.200000X0.275000X-0.200000X0.275000X0.200000X-0.275000X0.200000X-0.275000X-0.200000X0*%
%ADD26R,0.700000X0.450000*%
%ADD27C,3.429000*%
%ADD28R,1.140000X2.030000*%
%ADD29R,2.032000X3.048000*%
%ADD30R,1.270000X0.900000*%
%ADD31R,0.800000X1.450000*%
%ADD32RoundRect,0.200000X0.200000X0.275000X-0.200000X0.275000X-0.200000X-0.275000X0.200000X-0.275000X0*%
%ADD33RoundRect,0.200000X-0.200000X-0.275000X0.200000X-0.275000X0.200000X0.275000X-0.200000X0.275000X0*%
%ADD34RoundRect,0.218750X0.218750X0.256250X-0.218750X0.256250X-0.218750X-0.256250X0.218750X-0.256250X0*%
%ADD35RoundRect,0.100000X0.637500X0.100000X-0.637500X0.100000X-0.637500X-0.100000X0.637500X-0.100000X0*%
%ADD36R,0.700000X3.800000*%
%ADD37R,0.600000X2.000000*%
%ADD38O,2.000000X1.000000*%
%ADD39R,6.400000X6.400000*%
%ADD40RotRect,1.800000X1.800000X225.000000*%
%ADD41R,1.600000X0.550000*%
%ADD42R,0.550000X1.600000*%
%ADD43R,1.300000X1.400000*%
%ADD44R,1.300000X2.200000*%
%ADD45R,0.300000X2.600000*%
%ADD46C,1.700000*%
%ADD47R,1.500000X4.000000*%
%ADD48RoundRect,0.150000X0.850000X0.150000X-0.850000X0.150000X-0.850000X-0.150000X0.850000X-0.150000X0*%
%ADD49R,0.900000X0.800000*%
%ADD50R,1.500000X4.200000*%
%ADD51C,0.750000*%
%ADD52O,1.000000X1.800000*%
%ADD53O,1.000000X2.100000*%
%ADD54R,0.600000X1.150000*%
%ADD55R,0.300000X1.150000*%
%ADD56RoundRect,0.225000X-0.225000X-0.250000X0.225000X-0.250000X0.225000X0.250000X-0.225000X0.250000X0*%
%ADD57R,1.250000X1.220000*%
G04 APERTURE END LIST*
D10*
%TO.C,H2*%
X104920000Y-195520000D03*
%TD*%
D11*
%TO.C,TP6*%
X101570000Y-172020000D03*
%TD*%
D12*
%TO.C,BTM4*%
X175960000Y-156810000D03*
%TD*%
%TO.C,BTM1*%
X116020000Y-156810000D03*
%TD*%
%TO.C,BTM2*%
X135890000Y-156810000D03*
%TD*%
D11*
%TO.C,TP5*%
X101380000Y-190590000D03*
%TD*%
D10*
%TO.C,H3*%
X200570000Y-195090000D03*
%TD*%
D11*
%TO.C,TP2*%
X101540000Y-175190000D03*
%TD*%
D10*
%TO.C,H1*%
X104930000Y-162540000D03*
%TD*%
D11*
%TO.C,TP3*%
X101410000Y-157440000D03*
%TD*%
D13*
%TO.C,BTP1*%
X101980000Y-168990000D03*
%TD*%
D14*
%TO.C,U3*%
X125385000Y-192945000D03*
X126535000Y-191820000D03*
X127610000Y-192945000D03*
X125410000Y-190720000D03*
X125435000Y-191820000D03*
X127635000Y-190720000D03*
X127685000Y-191820000D03*
X126510000Y-190720000D03*
X126510000Y-192970000D03*
%TD*%
D12*
%TO.C,BTM3*%
X156100000Y-156810000D03*
%TD*%
D11*
%TO.C,TP4*%
X129340000Y-198630000D03*
%TD*%
D15*
%TO.C,P1*%
X202320000Y-135380000D03*
D16*
X202320000Y-137920000D03*
X202320000Y-140460000D03*
X202320000Y-143000000D03*
%TD*%
D11*
%TO.C,TP1*%
X126760000Y-198620000D03*
%TD*%
D17*
%TO.C,J4*%
X194320000Y-124225000D03*
X199320000Y-124225000D03*
D18*
X193320860Y-128307120D03*
X195820000Y-128305000D03*
X197820000Y-128305000D03*
X200320000Y-128305000D03*
D19*
X189570000Y-125625000D03*
X204070000Y-125625000D03*
%TD*%
D20*
%TO.C,C16*%
X106035000Y-189430000D03*
X104485000Y-189430000D03*
%TD*%
D21*
%TO.C,C40*%
X166330000Y-182695000D03*
X166330000Y-184245000D03*
%TD*%
D22*
%TO.C,C20*%
X114580000Y-182430000D03*
X114580000Y-178030000D03*
%TD*%
D23*
%TO.C,R2*%
X197900000Y-179925000D03*
X197900000Y-181575000D03*
%TD*%
D24*
%TO.C,U6*%
X199800000Y-135530000D03*
X199800000Y-136480000D03*
X199800000Y-137430000D03*
X197600000Y-137430000D03*
X197600000Y-135530000D03*
%TD*%
D25*
%TO.C,R28*%
X192150000Y-163545000D03*
X192150000Y-161895000D03*
%TD*%
%TO.C,R19*%
X179020000Y-174735000D03*
X179020000Y-173085000D03*
%TD*%
%TO.C,R3*%
X193480000Y-168595000D03*
X193480000Y-166945000D03*
%TD*%
D26*
%TO.C,Q16*%
X190530000Y-162180000D03*
X190530000Y-163480000D03*
X188530000Y-162830000D03*
%TD*%
D25*
%TO.C,R16*%
X144570000Y-165305000D03*
X144570000Y-163655000D03*
%TD*%
D27*
%TO.C,J6*%
X133240000Y-190950000D03*
X120540000Y-190950000D03*
D28*
X121810000Y-177361000D03*
X123842000Y-177361000D03*
X125874000Y-177361000D03*
X127906000Y-177361000D03*
X129938000Y-177361000D03*
X131970000Y-177361000D03*
D29*
X135843500Y-193490000D03*
X117936500Y-193490000D03*
%TD*%
D25*
%TO.C,R11*%
X168420000Y-183225000D03*
X168420000Y-181575000D03*
%TD*%
%TO.C,R12*%
X181190000Y-179035000D03*
X181190000Y-177385000D03*
%TD*%
D30*
%TO.C,PB1*%
X202085000Y-166034000D03*
X202085000Y-170234000D03*
D31*
X204320000Y-164759000D03*
X204320000Y-171509000D03*
%TD*%
D32*
%TO.C,R57*%
X199195000Y-187420000D03*
X197545000Y-187420000D03*
%TD*%
D23*
%TO.C,R27*%
X194830000Y-162430000D03*
X194830000Y-164080000D03*
%TD*%
D33*
%TO.C,R26*%
X167105000Y-157360000D03*
X168755000Y-157360000D03*
%TD*%
D34*
%TO.C,LED3*%
X152160000Y-157370000D03*
X150585000Y-157370000D03*
%TD*%
D33*
%TO.C,R8*%
X106805000Y-157190000D03*
X108455000Y-157190000D03*
%TD*%
D25*
%TO.C,R13*%
X179501822Y-178935000D03*
X179501822Y-177285000D03*
%TD*%
D35*
%TO.C,Q9*%
X138862500Y-163025000D03*
X138862500Y-163675000D03*
X138862500Y-164325000D03*
X138862500Y-164975000D03*
X133137500Y-164975000D03*
X133137500Y-164325000D03*
X133137500Y-163675000D03*
X133137500Y-163025000D03*
%TD*%
D20*
%TO.C,C39*%
X140815000Y-192130000D03*
X139265000Y-192130000D03*
%TD*%
D23*
%TO.C,R21*%
X163850000Y-163525000D03*
X163850000Y-165175000D03*
%TD*%
D22*
%TO.C,C15*%
X119920000Y-172850000D03*
X119920000Y-168450000D03*
%TD*%
D25*
%TO.C,R1*%
X193480000Y-173085000D03*
X193480000Y-171435000D03*
%TD*%
D34*
%TO.C,LED4*%
X172020000Y-157360000D03*
X170445000Y-157360000D03*
%TD*%
D25*
%TO.C,R9*%
X109860000Y-161195000D03*
X109860000Y-159545000D03*
%TD*%
D26*
%TO.C,Q12*%
X167560000Y-163590000D03*
X167560000Y-164890000D03*
X165560000Y-164240000D03*
%TD*%
%TO.C,Q11*%
X172610000Y-173290000D03*
X172610000Y-174590000D03*
X170610000Y-173940000D03*
%TD*%
D22*
%TO.C,C14*%
X113680000Y-172890000D03*
X113680000Y-168490000D03*
%TD*%
D25*
%TO.C,R23*%
X168080000Y-174955000D03*
X168080000Y-173305000D03*
%TD*%
D34*
%TO.C,LED2*%
X131997500Y-157380000D03*
X130422500Y-157380000D03*
%TD*%
D25*
%TO.C,R6*%
X181340000Y-183065000D03*
X181340000Y-181415000D03*
%TD*%
%TO.C,R17*%
X168321822Y-179505000D03*
X168321822Y-177855000D03*
%TD*%
D17*
%TO.C,J3*%
X156785098Y-191735000D03*
X161785098Y-191735000D03*
D18*
X162784238Y-187652880D03*
X160285098Y-187655000D03*
X158285098Y-187655000D03*
X155785098Y-187655000D03*
D19*
X166535098Y-190335000D03*
X152035098Y-190335000D03*
%TD*%
D25*
%TO.C,R24*%
X180850000Y-170790000D03*
X180850000Y-169140000D03*
%TD*%
D36*
%TO.C,J7*%
X125290000Y-171150000D03*
X130290000Y-171150000D03*
D37*
X126290000Y-173050000D03*
X127290000Y-173050000D03*
X128290000Y-173050000D03*
X129290000Y-173050000D03*
%TD*%
D38*
%TO.C,U15*%
X164790000Y-181000000D03*
X164790000Y-179000000D03*
X164790000Y-177000000D03*
X164790000Y-175000000D03*
X164790000Y-173000000D03*
X164790000Y-171000000D03*
X137790000Y-170350000D03*
X137790000Y-171850000D03*
X137790000Y-173350000D03*
X137790000Y-178650000D03*
X137790000Y-180150000D03*
X137790000Y-181650000D03*
D39*
X155290000Y-173700000D03*
D40*
X145740000Y-172300000D03*
X147490000Y-180200000D03*
%TD*%
D26*
%TO.C,Q3*%
X173110000Y-181560000D03*
X173110000Y-182860000D03*
X171110000Y-182210000D03*
%TD*%
D35*
%TO.C,Q17*%
X184172500Y-162795000D03*
X184172500Y-163445000D03*
X184172500Y-164095000D03*
X184172500Y-164745000D03*
X178447500Y-164745000D03*
X178447500Y-164095000D03*
X178447500Y-163445000D03*
X178447500Y-162795000D03*
%TD*%
D41*
%TO.C,U1*%
X194360000Y-178450000D03*
X194360000Y-179250000D03*
X194360000Y-180050000D03*
X194360000Y-180850000D03*
X194360000Y-181650000D03*
X194360000Y-182450000D03*
X194360000Y-183250000D03*
X194360000Y-184050000D03*
D42*
X192910000Y-185500000D03*
X192110000Y-185500000D03*
X191310000Y-185500000D03*
X190510000Y-185500000D03*
X189710000Y-185500000D03*
X188910000Y-185500000D03*
X188110000Y-185500000D03*
X187310000Y-185500000D03*
D41*
X185860000Y-184050000D03*
X185860000Y-183250000D03*
X185860000Y-182450000D03*
X185860000Y-181650000D03*
X185860000Y-180850000D03*
X185860000Y-180050000D03*
X185860000Y-179250000D03*
X185860000Y-178450000D03*
D42*
X187310000Y-177000000D03*
X188110000Y-177000000D03*
X188910000Y-177000000D03*
X189710000Y-177000000D03*
X190510000Y-177000000D03*
X191310000Y-177000000D03*
X192110000Y-177000000D03*
X192910000Y-177000000D03*
%TD*%
D43*
%TO.C,J2*%
X170821098Y-196463250D03*
X186921098Y-196463250D03*
D44*
X170821098Y-190503250D03*
X186921098Y-190503250D03*
D45*
X183371098Y-189743250D03*
X182871098Y-189743250D03*
X182371098Y-189743250D03*
X181871098Y-189743250D03*
X181371098Y-189743250D03*
X180871098Y-189743250D03*
X180371098Y-189743250D03*
X179871098Y-189743250D03*
X179371098Y-189743250D03*
X178871098Y-189743250D03*
X178371098Y-189743250D03*
X177871098Y-189743250D03*
X177371098Y-189743250D03*
X176871098Y-189743250D03*
X176371098Y-189743250D03*
X175871098Y-189743250D03*
X175371098Y-189743250D03*
X174871098Y-189743250D03*
X174371098Y-189743250D03*
D46*
X174371098Y-195703250D03*
X183371098Y-195703250D03*
%TD*%
D47*
%TO.C,L2*%
X109200000Y-170510000D03*
X105600000Y-170510000D03*
%TD*%
D25*
%TO.C,R41*%
X191120000Y-136775000D03*
X191120000Y-135125000D03*
%TD*%
D48*
%TO.C,U8*%
X108300000Y-178385000D03*
X108300000Y-179655000D03*
X108300000Y-180925000D03*
X108300000Y-182195000D03*
X108300000Y-183465000D03*
X108300000Y-184735000D03*
X108300000Y-186005000D03*
X108300000Y-187275000D03*
X103300000Y-187275000D03*
X103300000Y-186005000D03*
X103300000Y-184735000D03*
X103300000Y-183465000D03*
X103300000Y-182195000D03*
X103300000Y-180925000D03*
X103300000Y-179655000D03*
X103300000Y-178385000D03*
%TD*%
D25*
%TO.C,R4*%
X187490000Y-168605000D03*
X187490000Y-166955000D03*
%TD*%
D22*
%TO.C,C19*%
X114350000Y-191310000D03*
X114350000Y-186910000D03*
%TD*%
D33*
%TO.C,R14*%
X127095000Y-157380000D03*
X128745000Y-157380000D03*
%TD*%
D49*
%TO.C,D1*%
X187340000Y-173380000D03*
X185340000Y-172430000D03*
X187340000Y-171480000D03*
%TD*%
D25*
%TO.C,R22*%
X162140000Y-165145000D03*
X162140000Y-163495000D03*
%TD*%
D33*
%TO.C,R20*%
X147035000Y-157370000D03*
X148685000Y-157370000D03*
%TD*%
D26*
%TO.C,Q10*%
X177050000Y-173450000D03*
X177050000Y-174750000D03*
X175050000Y-174100000D03*
%TD*%
%TO.C,Q6*%
X177171822Y-177500000D03*
X177171822Y-178800000D03*
X175171822Y-178150000D03*
%TD*%
D25*
%TO.C,R50*%
X190830000Y-173005000D03*
X190830000Y-171355000D03*
%TD*%
D26*
%TO.C,Q4*%
X113630000Y-159760000D03*
X113630000Y-161060000D03*
X111630000Y-160410000D03*
%TD*%
D30*
%TO.C,PB2*%
X202185000Y-178914000D03*
X202185000Y-183114000D03*
D31*
X204420000Y-177639000D03*
X204420000Y-184389000D03*
%TD*%
D50*
%TO.C,L3*%
X111160000Y-196700000D03*
X114760000Y-196700000D03*
%TD*%
D26*
%TO.C,Q7*%
X172711822Y-177460000D03*
X172711822Y-178760000D03*
X170711822Y-178110000D03*
%TD*%
D51*
%TO.C,J5*%
X146135098Y-195317500D03*
X140355098Y-195317500D03*
D52*
X138925098Y-198997500D03*
D53*
X147565098Y-194817500D03*
X138925098Y-194817500D03*
D52*
X147565098Y-198997500D03*
D54*
X146445098Y-194242500D03*
X145645098Y-194242500D03*
D55*
X144495098Y-194242500D03*
X143495098Y-194242500D03*
X142995098Y-194242500D03*
X141995098Y-194242500D03*
D54*
X140045098Y-194242500D03*
X140845098Y-194242500D03*
D55*
X141495098Y-194242500D03*
X142495098Y-194242500D03*
X143995098Y-194242500D03*
X144995098Y-194242500D03*
%TD*%
D25*
%TO.C,R25*%
X178610000Y-170785000D03*
X178610000Y-169135000D03*
%TD*%
D26*
%TO.C,Q2*%
X177200000Y-181550000D03*
X177200000Y-182850000D03*
X175200000Y-182200000D03*
%TD*%
D25*
%TO.C,R29*%
X168122560Y-170936600D03*
X168122560Y-169286600D03*
%TD*%
D34*
%TO.C,LED1*%
X111697500Y-157210000D03*
X110122500Y-157210000D03*
%TD*%
D21*
%TO.C,C12*%
X193040000Y-133525000D03*
X193040000Y-135075000D03*
%TD*%
D34*
%TO.C,LED12*%
X199147500Y-185600000D03*
X197572500Y-185600000D03*
%TD*%
D25*
%TO.C,R18*%
X181230000Y-174715000D03*
X181230000Y-173065000D03*
%TD*%
D49*
%TO.C,Q1*%
X191510000Y-166900000D03*
X191510000Y-168800000D03*
X189510000Y-167850000D03*
%TD*%
D35*
%TO.C,Q5*%
X118982500Y-163025000D03*
X118982500Y-163675000D03*
X118982500Y-164325000D03*
X118982500Y-164975000D03*
X113257500Y-164975000D03*
X113257500Y-164325000D03*
X113257500Y-163675000D03*
X113257500Y-163025000D03*
%TD*%
D26*
%TO.C,Q15*%
X172622560Y-169111600D03*
X172622560Y-170411600D03*
X170622560Y-169761600D03*
%TD*%
D56*
%TO.C,C17*%
X107855000Y-189520000D03*
X109405000Y-189520000D03*
%TD*%
D25*
%TO.C,R5*%
X184660000Y-169075000D03*
X184660000Y-167425000D03*
%TD*%
D57*
%TO.C,D5*%
X107980000Y-176280000D03*
X104980000Y-176280000D03*
%TD*%
D25*
%TO.C,R7*%
X179350000Y-182995000D03*
X179350000Y-181345000D03*
%TD*%
%TO.C,R10*%
X111270000Y-164505000D03*
X111270000Y-162855000D03*
%TD*%
D32*
%TO.C,R45*%
X108015000Y-174380000D03*
X106365000Y-174380000D03*
%TD*%
D23*
%TO.C,R15*%
X142860000Y-163655000D03*
X142860000Y-165305000D03*
%TD*%
D35*
%TO.C,Q13*%
X158432500Y-163025000D03*
X158432500Y-163675000D03*
X158432500Y-164325000D03*
X158432500Y-164975000D03*
X152707500Y-164975000D03*
X152707500Y-164325000D03*
X152707500Y-163675000D03*
X152707500Y-163025000D03*
%TD*%
D26*
%TO.C,Q8*%
X148270000Y-163960000D03*
X148270000Y-165260000D03*
X146270000Y-164610000D03*
%TD*%
D21*
%TO.C,C18*%
X101150000Y-186755000D03*
X101150000Y-188305000D03*
%TD*%
D26*
%TO.C,Q14*%
X176692560Y-169211600D03*
X176692560Y-170511600D03*
X174692560Y-169861600D03*
%TD*%
M02*
