%TF.GenerationSoftware,KiCad,Pcbnew,(6.0.1-0)*%
%TF.CreationDate,2022-04-09T17:35:35-06:00*%
%TF.ProjectId,HAT_CM4_183,4841545f-434d-4345-9f31-38332e6b6963,1.8.3*%
%TF.SameCoordinates,Original*%
%TF.FileFunction,Legend,Top*%
%TF.FilePolarity,Positive*%
%FSLAX46Y46*%
G04 Gerber Fmt 4.6, Leading zero omitted, Abs format (unit mm)*
G04 Created by KiCad (PCBNEW (6.0.1-0)) date 2022-04-09 17:35:35*
%MOMM*%
%LPD*%
G01*
G04 APERTURE LIST*
%ADD10C,0.100000*%
%ADD11C,0.120000*%
%ADD12C,0.150000*%
G04 APERTURE END LIST*
D10*
X102904761Y-156681428D02*
X102961904Y-156700476D01*
X102980952Y-156719523D01*
X103000000Y-156757619D01*
X103000000Y-156814761D01*
X102980952Y-156852857D01*
X102961904Y-156871904D01*
X102923809Y-156890952D01*
X102771428Y-156890952D01*
X102771428Y-156490952D01*
X102904761Y-156490952D01*
X102942857Y-156510000D01*
X102961904Y-156529047D01*
X102980952Y-156567142D01*
X102980952Y-156605238D01*
X102961904Y-156643333D01*
X102942857Y-156662380D01*
X102904761Y-156681428D01*
X102771428Y-156681428D01*
X103152380Y-156776666D02*
X103342857Y-156776666D01*
X103114285Y-156890952D02*
X103247619Y-156490952D01*
X103380952Y-156890952D01*
X103457142Y-156490952D02*
X103685714Y-156490952D01*
X103571428Y-156890952D02*
X103571428Y-156490952D01*
X103761904Y-156490952D02*
X103990476Y-156490952D01*
X103876190Y-156890952D02*
X103876190Y-156490952D01*
X104123809Y-156738571D02*
X104428571Y-156738571D01*
X104276190Y-156890952D02*
X104276190Y-156586190D01*
X102105714Y-173418571D02*
X102410476Y-173418571D01*
X102258095Y-173570952D02*
X102258095Y-173266190D01*
X102791428Y-173170952D02*
X102600952Y-173170952D01*
X102581904Y-173361428D01*
X102600952Y-173342380D01*
X102639047Y-173323333D01*
X102734285Y-173323333D01*
X102772380Y-173342380D01*
X102791428Y-173361428D01*
X102810476Y-173399523D01*
X102810476Y-173494761D01*
X102791428Y-173532857D01*
X102772380Y-173551904D01*
X102734285Y-173570952D01*
X102639047Y-173570952D01*
X102600952Y-173551904D01*
X102581904Y-173532857D01*
X102924761Y-173170952D02*
X103058095Y-173570952D01*
X103191428Y-173170952D01*
X196077142Y-158417142D02*
X196162857Y-158445714D01*
X196191428Y-158474285D01*
X196220000Y-158531428D01*
X196220000Y-158617142D01*
X196191428Y-158674285D01*
X196162857Y-158702857D01*
X196105714Y-158731428D01*
X195877142Y-158731428D01*
X195877142Y-158131428D01*
X196077142Y-158131428D01*
X196134285Y-158160000D01*
X196162857Y-158188571D01*
X196191428Y-158245714D01*
X196191428Y-158302857D01*
X196162857Y-158360000D01*
X196134285Y-158388571D01*
X196077142Y-158417142D01*
X195877142Y-158417142D01*
X196562857Y-158731428D02*
X196505714Y-158702857D01*
X196477142Y-158645714D01*
X196477142Y-158131428D01*
X197048571Y-158331428D02*
X197048571Y-158731428D01*
X196791428Y-158331428D02*
X196791428Y-158645714D01*
X196820000Y-158702857D01*
X196877142Y-158731428D01*
X196962857Y-158731428D01*
X197020000Y-158702857D01*
X197048571Y-158674285D01*
X197562857Y-158702857D02*
X197505714Y-158731428D01*
X197391428Y-158731428D01*
X197334285Y-158702857D01*
X197305714Y-158645714D01*
X197305714Y-158417142D01*
X197334285Y-158360000D01*
X197391428Y-158331428D01*
X197505714Y-158331428D01*
X197562857Y-158360000D01*
X197591428Y-158417142D01*
X197591428Y-158474285D01*
X197305714Y-158531428D01*
X124976190Y-197276666D02*
X125166666Y-197276666D01*
X124938095Y-197390952D02*
X125071428Y-196990952D01*
X125204761Y-197390952D01*
X125566666Y-197352857D02*
X125547619Y-197371904D01*
X125490476Y-197390952D01*
X125452380Y-197390952D01*
X125395238Y-197371904D01*
X125357142Y-197333809D01*
X125338095Y-197295714D01*
X125319047Y-197219523D01*
X125319047Y-197162380D01*
X125338095Y-197086190D01*
X125357142Y-197048095D01*
X125395238Y-197010000D01*
X125452380Y-196990952D01*
X125490476Y-196990952D01*
X125547619Y-197010000D01*
X125566666Y-197029047D01*
X126042857Y-197390952D02*
X126042857Y-196990952D01*
X126233333Y-197124285D02*
X126233333Y-197390952D01*
X126233333Y-197162380D02*
X126252380Y-197143333D01*
X126290476Y-197124285D01*
X126347619Y-197124285D01*
X126385714Y-197143333D01*
X126404761Y-197181428D01*
X126404761Y-197390952D01*
D11*
X149086656Y-172493154D02*
X149319990Y-173193154D01*
X149553323Y-172493154D01*
X150053323Y-173159821D02*
X149986656Y-173193154D01*
X149853323Y-173193154D01*
X149786656Y-173159821D01*
X149753323Y-173093154D01*
X149753323Y-172826488D01*
X149786656Y-172759821D01*
X149853323Y-172726488D01*
X149986656Y-172726488D01*
X150053323Y-172759821D01*
X150086656Y-172826488D01*
X150086656Y-172893154D01*
X149753323Y-172959821D01*
X150386656Y-173193154D02*
X150386656Y-172726488D01*
X150386656Y-172859821D02*
X150419990Y-172793154D01*
X150453323Y-172759821D01*
X150519990Y-172726488D01*
X150586656Y-172726488D01*
X150786656Y-173159821D02*
X150853323Y-173193154D01*
X150986656Y-173193154D01*
X151053323Y-173159821D01*
X151086656Y-173093154D01*
X151086656Y-173059821D01*
X151053323Y-172993154D01*
X150986656Y-172959821D01*
X150886656Y-172959821D01*
X150819990Y-172926488D01*
X150786656Y-172859821D01*
X150786656Y-172826488D01*
X150819990Y-172759821D01*
X150886656Y-172726488D01*
X150986656Y-172726488D01*
X151053323Y-172759821D01*
X151386656Y-173193154D02*
X151386656Y-172726488D01*
X151386656Y-172493154D02*
X151353323Y-172526488D01*
X151386656Y-172559821D01*
X151419990Y-172526488D01*
X151386656Y-172493154D01*
X151386656Y-172559821D01*
X151819990Y-173193154D02*
X151753323Y-173159821D01*
X151719990Y-173126488D01*
X151686656Y-173059821D01*
X151686656Y-172859821D01*
X151719990Y-172793154D01*
X151753323Y-172759821D01*
X151819990Y-172726488D01*
X151919990Y-172726488D01*
X151986656Y-172759821D01*
X152019990Y-172793154D01*
X152053323Y-172859821D01*
X152053323Y-173059821D01*
X152019990Y-173126488D01*
X151986656Y-173159821D01*
X151919990Y-173193154D01*
X151819990Y-173193154D01*
X152353323Y-172726488D02*
X152353323Y-173193154D01*
X152353323Y-172793154D02*
X152386656Y-172759821D01*
X152453323Y-172726488D01*
X152553323Y-172726488D01*
X152619990Y-172759821D01*
X152653323Y-172826488D01*
X152653323Y-173193154D01*
X153886656Y-173193154D02*
X153486656Y-173193154D01*
X153686656Y-173193154D02*
X153686656Y-172493154D01*
X153619990Y-172593154D01*
X153553323Y-172659821D01*
X153486656Y-172693154D01*
X154186656Y-173126488D02*
X154219990Y-173159821D01*
X154186656Y-173193154D01*
X154153323Y-173159821D01*
X154186656Y-173126488D01*
X154186656Y-173193154D01*
X154619990Y-172793154D02*
X154553323Y-172759821D01*
X154519990Y-172726488D01*
X154486656Y-172659821D01*
X154486656Y-172626488D01*
X154519990Y-172559821D01*
X154553323Y-172526488D01*
X154619990Y-172493154D01*
X154753323Y-172493154D01*
X154819990Y-172526488D01*
X154853323Y-172559821D01*
X154886656Y-172626488D01*
X154886656Y-172659821D01*
X154853323Y-172726488D01*
X154819990Y-172759821D01*
X154753323Y-172793154D01*
X154619990Y-172793154D01*
X154553323Y-172826488D01*
X154519990Y-172859821D01*
X154486656Y-172926488D01*
X154486656Y-173059821D01*
X154519990Y-173126488D01*
X154553323Y-173159821D01*
X154619990Y-173193154D01*
X154753323Y-173193154D01*
X154819990Y-173159821D01*
X154853323Y-173126488D01*
X154886656Y-173059821D01*
X154886656Y-172926488D01*
X154853323Y-172859821D01*
X154819990Y-172826488D01*
X154753323Y-172793154D01*
X155186656Y-173126488D02*
X155219990Y-173159821D01*
X155186656Y-173193154D01*
X155153323Y-173159821D01*
X155186656Y-173126488D01*
X155186656Y-173193154D01*
X155453323Y-172493154D02*
X155886656Y-172493154D01*
X155653323Y-172759821D01*
X155753323Y-172759821D01*
X155819990Y-172793154D01*
X155853323Y-172826488D01*
X155886656Y-172893154D01*
X155886656Y-173059821D01*
X155853323Y-173126488D01*
X155819990Y-173159821D01*
X155753323Y-173193154D01*
X155553323Y-173193154D01*
X155486656Y-173159821D01*
X155453323Y-173126488D01*
X146536656Y-174253488D02*
X146503323Y-174286821D01*
X146403323Y-174320154D01*
X146336656Y-174320154D01*
X146236656Y-174286821D01*
X146169990Y-174220154D01*
X146136656Y-174153488D01*
X146103323Y-174020154D01*
X146103323Y-173920154D01*
X146136656Y-173786821D01*
X146169990Y-173720154D01*
X146236656Y-173653488D01*
X146336656Y-173620154D01*
X146403323Y-173620154D01*
X146503323Y-173653488D01*
X146536656Y-173686821D01*
X146936656Y-174320154D02*
X146869990Y-174286821D01*
X146836656Y-174253488D01*
X146803323Y-174186821D01*
X146803323Y-173986821D01*
X146836656Y-173920154D01*
X146869990Y-173886821D01*
X146936656Y-173853488D01*
X147036656Y-173853488D01*
X147103323Y-173886821D01*
X147136656Y-173920154D01*
X147169990Y-173986821D01*
X147169990Y-174186821D01*
X147136656Y-174253488D01*
X147103323Y-174286821D01*
X147036656Y-174320154D01*
X146936656Y-174320154D01*
X147469990Y-173853488D02*
X147469990Y-174320154D01*
X147469990Y-173920154D02*
X147503323Y-173886821D01*
X147569990Y-173853488D01*
X147669990Y-173853488D01*
X147736656Y-173886821D01*
X147769990Y-173953488D01*
X147769990Y-174320154D01*
X148103323Y-173853488D02*
X148103323Y-174320154D01*
X148103323Y-173920154D02*
X148136656Y-173886821D01*
X148203323Y-173853488D01*
X148303323Y-173853488D01*
X148369990Y-173886821D01*
X148403323Y-173953488D01*
X148403323Y-174320154D01*
X149003323Y-174286821D02*
X148936656Y-174320154D01*
X148803323Y-174320154D01*
X148736656Y-174286821D01*
X148703323Y-174220154D01*
X148703323Y-173953488D01*
X148736656Y-173886821D01*
X148803323Y-173853488D01*
X148936656Y-173853488D01*
X149003323Y-173886821D01*
X149036656Y-173953488D01*
X149036656Y-174020154D01*
X148703323Y-174086821D01*
X149636656Y-174286821D02*
X149569990Y-174320154D01*
X149436656Y-174320154D01*
X149369990Y-174286821D01*
X149336656Y-174253488D01*
X149303323Y-174186821D01*
X149303323Y-173986821D01*
X149336656Y-173920154D01*
X149369990Y-173886821D01*
X149436656Y-173853488D01*
X149569990Y-173853488D01*
X149636656Y-173886821D01*
X149836656Y-173853488D02*
X150103323Y-173853488D01*
X149936656Y-173620154D02*
X149936656Y-174220154D01*
X149969990Y-174286821D01*
X150036656Y-174320154D01*
X150103323Y-174320154D01*
X150569990Y-173953488D02*
X150669990Y-173986821D01*
X150703323Y-174020154D01*
X150736656Y-174086821D01*
X150736656Y-174186821D01*
X150703323Y-174253488D01*
X150669990Y-174286821D01*
X150603323Y-174320154D01*
X150336656Y-174320154D01*
X150336656Y-173620154D01*
X150569990Y-173620154D01*
X150636656Y-173653488D01*
X150669990Y-173686821D01*
X150703323Y-173753488D01*
X150703323Y-173820154D01*
X150669990Y-173886821D01*
X150636656Y-173920154D01*
X150569990Y-173953488D01*
X150336656Y-173953488D01*
X151136656Y-174320154D02*
X151069990Y-174286821D01*
X151036656Y-174253488D01*
X151003323Y-174186821D01*
X151003323Y-173986821D01*
X151036656Y-173920154D01*
X151069990Y-173886821D01*
X151136656Y-173853488D01*
X151236656Y-173853488D01*
X151303323Y-173886821D01*
X151336656Y-173920154D01*
X151369990Y-173986821D01*
X151369990Y-174186821D01*
X151336656Y-174253488D01*
X151303323Y-174286821D01*
X151236656Y-174320154D01*
X151136656Y-174320154D01*
X151603323Y-174320154D02*
X151969990Y-173853488D01*
X151603323Y-173853488D02*
X151969990Y-174320154D01*
X153169990Y-174320154D02*
X152936656Y-173986821D01*
X152769990Y-174320154D02*
X152769990Y-173620154D01*
X153036656Y-173620154D01*
X153103323Y-173653488D01*
X153136656Y-173686821D01*
X153169990Y-173753488D01*
X153169990Y-173853488D01*
X153136656Y-173920154D01*
X153103323Y-173953488D01*
X153036656Y-173986821D01*
X152769990Y-173986821D01*
X153469990Y-174320154D02*
X153469990Y-173620154D01*
X153736656Y-173620154D01*
X153803323Y-173653488D01*
X153836656Y-173686821D01*
X153869990Y-173753488D01*
X153869990Y-173853488D01*
X153836656Y-173920154D01*
X153803323Y-173953488D01*
X153736656Y-173986821D01*
X153469990Y-173986821D01*
X154169990Y-174320154D02*
X154169990Y-173853488D01*
X154169990Y-173620154D02*
X154136656Y-173653488D01*
X154169990Y-173686821D01*
X154203323Y-173653488D01*
X154169990Y-173620154D01*
X154169990Y-173686821D01*
X155236656Y-174586821D02*
X155203323Y-174553488D01*
X155136656Y-174453488D01*
X155103323Y-174386821D01*
X155069990Y-174286821D01*
X155036656Y-174120154D01*
X155036656Y-173986821D01*
X155069990Y-173820154D01*
X155103323Y-173720154D01*
X155136656Y-173653488D01*
X155203323Y-173553488D01*
X155236656Y-173520154D01*
X155803323Y-174286821D02*
X155736656Y-174320154D01*
X155603323Y-174320154D01*
X155536656Y-174286821D01*
X155503323Y-174253488D01*
X155469990Y-174186821D01*
X155469990Y-173986821D01*
X155503323Y-173920154D01*
X155536656Y-173886821D01*
X155603323Y-173853488D01*
X155736656Y-173853488D01*
X155803323Y-173886821D01*
X156036656Y-174586821D02*
X156069990Y-174553488D01*
X156136656Y-174453488D01*
X156169990Y-174386821D01*
X156203323Y-174286821D01*
X156236656Y-174120154D01*
X156236656Y-173986821D01*
X156203323Y-173820154D01*
X156169990Y-173720154D01*
X156136656Y-173653488D01*
X156069990Y-173553488D01*
X156036656Y-173520154D01*
X156536656Y-173686821D02*
X156569990Y-173653488D01*
X156636656Y-173620154D01*
X156803323Y-173620154D01*
X156869990Y-173653488D01*
X156903323Y-173686821D01*
X156936656Y-173753488D01*
X156936656Y-173820154D01*
X156903323Y-173920154D01*
X156503323Y-174320154D01*
X156936656Y-174320154D01*
X157369990Y-173620154D02*
X157436656Y-173620154D01*
X157503323Y-173653488D01*
X157536656Y-173686821D01*
X157569990Y-173753488D01*
X157603323Y-173886821D01*
X157603323Y-174053488D01*
X157569990Y-174186821D01*
X157536656Y-174253488D01*
X157503323Y-174286821D01*
X157436656Y-174320154D01*
X157369990Y-174320154D01*
X157303323Y-174286821D01*
X157269990Y-174253488D01*
X157236656Y-174186821D01*
X157203323Y-174053488D01*
X157203323Y-173886821D01*
X157236656Y-173753488D01*
X157269990Y-173686821D01*
X157303323Y-173653488D01*
X157369990Y-173620154D01*
X157869990Y-173686821D02*
X157903323Y-173653488D01*
X157969990Y-173620154D01*
X158136656Y-173620154D01*
X158203323Y-173653488D01*
X158236656Y-173686821D01*
X158269990Y-173753488D01*
X158269990Y-173820154D01*
X158236656Y-173920154D01*
X157836656Y-174320154D01*
X158269990Y-174320154D01*
X158536656Y-173686821D02*
X158569990Y-173653488D01*
X158636656Y-173620154D01*
X158803323Y-173620154D01*
X158869990Y-173653488D01*
X158903323Y-173686821D01*
X158936656Y-173753488D01*
X158936656Y-173820154D01*
X158903323Y-173920154D01*
X158503323Y-174320154D01*
X158936656Y-174320154D01*
D10*
X194945714Y-154170000D02*
X194888571Y-154141428D01*
X194802857Y-154141428D01*
X194717142Y-154170000D01*
X194660000Y-154227142D01*
X194631428Y-154284285D01*
X194602857Y-154398571D01*
X194602857Y-154484285D01*
X194631428Y-154598571D01*
X194660000Y-154655714D01*
X194717142Y-154712857D01*
X194802857Y-154741428D01*
X194860000Y-154741428D01*
X194945714Y-154712857D01*
X194974285Y-154684285D01*
X194974285Y-154484285D01*
X194860000Y-154484285D01*
X195231428Y-154741428D02*
X195231428Y-154341428D01*
X195231428Y-154455714D02*
X195260000Y-154398571D01*
X195288571Y-154370000D01*
X195345714Y-154341428D01*
X195402857Y-154341428D01*
X195831428Y-154712857D02*
X195774285Y-154741428D01*
X195660000Y-154741428D01*
X195602857Y-154712857D01*
X195574285Y-154655714D01*
X195574285Y-154427142D01*
X195602857Y-154370000D01*
X195660000Y-154341428D01*
X195774285Y-154341428D01*
X195831428Y-154370000D01*
X195860000Y-154427142D01*
X195860000Y-154484285D01*
X195574285Y-154541428D01*
X196345714Y-154712857D02*
X196288571Y-154741428D01*
X196174285Y-154741428D01*
X196117142Y-154712857D01*
X196088571Y-154655714D01*
X196088571Y-154427142D01*
X196117142Y-154370000D01*
X196174285Y-154341428D01*
X196288571Y-154341428D01*
X196345714Y-154370000D01*
X196374285Y-154427142D01*
X196374285Y-154484285D01*
X196088571Y-154541428D01*
X196631428Y-154341428D02*
X196631428Y-154741428D01*
X196631428Y-154398571D02*
X196660000Y-154370000D01*
X196717142Y-154341428D01*
X196802857Y-154341428D01*
X196860000Y-154370000D01*
X196888571Y-154427142D01*
X196888571Y-154741428D01*
X191894285Y-159360000D02*
X192180000Y-159360000D01*
X191837142Y-159531428D02*
X192037142Y-158931428D01*
X192237142Y-159531428D01*
X192694285Y-159502857D02*
X192637142Y-159531428D01*
X192522857Y-159531428D01*
X192465714Y-159502857D01*
X192437142Y-159474285D01*
X192408571Y-159417142D01*
X192408571Y-159245714D01*
X192437142Y-159188571D01*
X192465714Y-159160000D01*
X192522857Y-159131428D01*
X192637142Y-159131428D01*
X192694285Y-159160000D01*
X192865714Y-159131428D02*
X193094285Y-159131428D01*
X192951428Y-158931428D02*
X192951428Y-159445714D01*
X192980000Y-159502857D01*
X193037142Y-159531428D01*
X193094285Y-159531428D01*
X193294285Y-159531428D02*
X193294285Y-159131428D01*
X193294285Y-158931428D02*
X193265714Y-158960000D01*
X193294285Y-158988571D01*
X193322857Y-158960000D01*
X193294285Y-158931428D01*
X193294285Y-158988571D01*
X193522857Y-159131428D02*
X193665714Y-159531428D01*
X193808571Y-159131428D01*
X194037142Y-159531428D02*
X194037142Y-159131428D01*
X194037142Y-158931428D02*
X194008571Y-158960000D01*
X194037142Y-158988571D01*
X194065714Y-158960000D01*
X194037142Y-158931428D01*
X194037142Y-158988571D01*
X194237142Y-159131428D02*
X194465714Y-159131428D01*
X194322857Y-158931428D02*
X194322857Y-159445714D01*
X194351428Y-159502857D01*
X194408571Y-159531428D01*
X194465714Y-159531428D01*
X194608571Y-159131428D02*
X194751428Y-159531428D01*
X194894285Y-159131428D02*
X194751428Y-159531428D01*
X194694285Y-159674285D01*
X194665714Y-159702857D01*
X194608571Y-159731428D01*
X188107142Y-160017142D02*
X188192857Y-160045714D01*
X188221428Y-160074285D01*
X188250000Y-160131428D01*
X188250000Y-160217142D01*
X188221428Y-160274285D01*
X188192857Y-160302857D01*
X188135714Y-160331428D01*
X187907142Y-160331428D01*
X187907142Y-159731428D01*
X188107142Y-159731428D01*
X188164285Y-159760000D01*
X188192857Y-159788571D01*
X188221428Y-159845714D01*
X188221428Y-159902857D01*
X188192857Y-159960000D01*
X188164285Y-159988571D01*
X188107142Y-160017142D01*
X187907142Y-160017142D01*
X188592857Y-160331428D02*
X188535714Y-160302857D01*
X188507142Y-160245714D01*
X188507142Y-159731428D01*
X189078571Y-159931428D02*
X189078571Y-160331428D01*
X188821428Y-159931428D02*
X188821428Y-160245714D01*
X188850000Y-160302857D01*
X188907142Y-160331428D01*
X188992857Y-160331428D01*
X189050000Y-160302857D01*
X189078571Y-160274285D01*
X189592857Y-160302857D02*
X189535714Y-160331428D01*
X189421428Y-160331428D01*
X189364285Y-160302857D01*
X189335714Y-160245714D01*
X189335714Y-160017142D01*
X189364285Y-159960000D01*
X189421428Y-159931428D01*
X189535714Y-159931428D01*
X189592857Y-159960000D01*
X189621428Y-160017142D01*
X189621428Y-160074285D01*
X189335714Y-160131428D01*
D11*
X148873333Y-169509666D02*
X148873333Y-168809666D01*
X149140000Y-168809666D01*
X149206666Y-168843000D01*
X149240000Y-168876333D01*
X149273333Y-168943000D01*
X149273333Y-169043000D01*
X149240000Y-169109666D01*
X149206666Y-169143000D01*
X149140000Y-169176333D01*
X148873333Y-169176333D01*
X149573333Y-169509666D02*
X149573333Y-169043000D01*
X149573333Y-169176333D02*
X149606666Y-169109666D01*
X149640000Y-169076333D01*
X149706666Y-169043000D01*
X149773333Y-169043000D01*
X150106666Y-169509666D02*
X150040000Y-169476333D01*
X150006666Y-169443000D01*
X149973333Y-169376333D01*
X149973333Y-169176333D01*
X150006666Y-169109666D01*
X150040000Y-169076333D01*
X150106666Y-169043000D01*
X150206666Y-169043000D01*
X150273333Y-169076333D01*
X150306666Y-169109666D01*
X150340000Y-169176333D01*
X150340000Y-169376333D01*
X150306666Y-169443000D01*
X150273333Y-169476333D01*
X150206666Y-169509666D01*
X150106666Y-169509666D01*
X150940000Y-169509666D02*
X150940000Y-168809666D01*
X150940000Y-169476333D02*
X150873333Y-169509666D01*
X150740000Y-169509666D01*
X150673333Y-169476333D01*
X150640000Y-169443000D01*
X150606666Y-169376333D01*
X150606666Y-169176333D01*
X150640000Y-169109666D01*
X150673333Y-169076333D01*
X150740000Y-169043000D01*
X150873333Y-169043000D01*
X150940000Y-169076333D01*
X151573333Y-169043000D02*
X151573333Y-169509666D01*
X151273333Y-169043000D02*
X151273333Y-169409666D01*
X151306666Y-169476333D01*
X151373333Y-169509666D01*
X151473333Y-169509666D01*
X151540000Y-169476333D01*
X151573333Y-169443000D01*
X152206666Y-169476333D02*
X152140000Y-169509666D01*
X152006666Y-169509666D01*
X151940000Y-169476333D01*
X151906666Y-169443000D01*
X151873333Y-169376333D01*
X151873333Y-169176333D01*
X151906666Y-169109666D01*
X151940000Y-169076333D01*
X152006666Y-169043000D01*
X152140000Y-169043000D01*
X152206666Y-169076333D01*
X152773333Y-169476333D02*
X152706666Y-169509666D01*
X152573333Y-169509666D01*
X152506666Y-169476333D01*
X152473333Y-169409666D01*
X152473333Y-169143000D01*
X152506666Y-169076333D01*
X152573333Y-169043000D01*
X152706666Y-169043000D01*
X152773333Y-169076333D01*
X152806666Y-169143000D01*
X152806666Y-169209666D01*
X152473333Y-169276333D01*
X153406666Y-169509666D02*
X153406666Y-168809666D01*
X153406666Y-169476333D02*
X153340000Y-169509666D01*
X153206666Y-169509666D01*
X153140000Y-169476333D01*
X153106666Y-169443000D01*
X153073333Y-169376333D01*
X153073333Y-169176333D01*
X153106666Y-169109666D01*
X153140000Y-169076333D01*
X153206666Y-169043000D01*
X153340000Y-169043000D01*
X153406666Y-169076333D01*
X154173333Y-169043000D02*
X154440000Y-169043000D01*
X154273333Y-169509666D02*
X154273333Y-168909666D01*
X154306666Y-168843000D01*
X154373333Y-168809666D01*
X154440000Y-168809666D01*
X154773333Y-169509666D02*
X154706666Y-169476333D01*
X154673333Y-169443000D01*
X154640000Y-169376333D01*
X154640000Y-169176333D01*
X154673333Y-169109666D01*
X154706666Y-169076333D01*
X154773333Y-169043000D01*
X154873333Y-169043000D01*
X154940000Y-169076333D01*
X154973333Y-169109666D01*
X155006666Y-169176333D01*
X155006666Y-169376333D01*
X154973333Y-169443000D01*
X154940000Y-169476333D01*
X154873333Y-169509666D01*
X154773333Y-169509666D01*
X155306666Y-169509666D02*
X155306666Y-169043000D01*
X155306666Y-169176333D02*
X155340000Y-169109666D01*
X155373333Y-169076333D01*
X155440000Y-169043000D01*
X155506666Y-169043000D01*
X146606666Y-169970000D02*
X146540000Y-169936666D01*
X146440000Y-169936666D01*
X146340000Y-169970000D01*
X146273333Y-170036666D01*
X146240000Y-170103333D01*
X146206666Y-170236666D01*
X146206666Y-170336666D01*
X146240000Y-170470000D01*
X146273333Y-170536666D01*
X146340000Y-170603333D01*
X146440000Y-170636666D01*
X146506666Y-170636666D01*
X146606666Y-170603333D01*
X146640000Y-170570000D01*
X146640000Y-170336666D01*
X146506666Y-170336666D01*
X147040000Y-170636666D02*
X146973333Y-170603333D01*
X146940000Y-170536666D01*
X146940000Y-169936666D01*
X147406666Y-170636666D02*
X147340000Y-170603333D01*
X147306666Y-170570000D01*
X147273333Y-170503333D01*
X147273333Y-170303333D01*
X147306666Y-170236666D01*
X147340000Y-170203333D01*
X147406666Y-170170000D01*
X147506666Y-170170000D01*
X147573333Y-170203333D01*
X147606666Y-170236666D01*
X147640000Y-170303333D01*
X147640000Y-170503333D01*
X147606666Y-170570000D01*
X147573333Y-170603333D01*
X147506666Y-170636666D01*
X147406666Y-170636666D01*
X147940000Y-170636666D02*
X147940000Y-169936666D01*
X147940000Y-170203333D02*
X148006666Y-170170000D01*
X148140000Y-170170000D01*
X148206666Y-170203333D01*
X148240000Y-170236666D01*
X148273333Y-170303333D01*
X148273333Y-170503333D01*
X148240000Y-170570000D01*
X148206666Y-170603333D01*
X148140000Y-170636666D01*
X148006666Y-170636666D01*
X147940000Y-170603333D01*
X148873333Y-170636666D02*
X148873333Y-170270000D01*
X148840000Y-170203333D01*
X148773333Y-170170000D01*
X148640000Y-170170000D01*
X148573333Y-170203333D01*
X148873333Y-170603333D02*
X148806666Y-170636666D01*
X148640000Y-170636666D01*
X148573333Y-170603333D01*
X148540000Y-170536666D01*
X148540000Y-170470000D01*
X148573333Y-170403333D01*
X148640000Y-170370000D01*
X148806666Y-170370000D01*
X148873333Y-170336666D01*
X149306666Y-170636666D02*
X149240000Y-170603333D01*
X149206666Y-170536666D01*
X149206666Y-169936666D01*
X150073333Y-170603333D02*
X150173333Y-170636666D01*
X150340000Y-170636666D01*
X150406666Y-170603333D01*
X150440000Y-170570000D01*
X150473333Y-170503333D01*
X150473333Y-170436666D01*
X150440000Y-170370000D01*
X150406666Y-170336666D01*
X150340000Y-170303333D01*
X150206666Y-170270000D01*
X150140000Y-170236666D01*
X150106666Y-170203333D01*
X150073333Y-170136666D01*
X150073333Y-170070000D01*
X150106666Y-170003333D01*
X150140000Y-169970000D01*
X150206666Y-169936666D01*
X150373333Y-169936666D01*
X150473333Y-169970000D01*
X150706666Y-170170000D02*
X150873333Y-170636666D01*
X151040000Y-170170000D02*
X150873333Y-170636666D01*
X150806666Y-170803333D01*
X150773333Y-170836666D01*
X150706666Y-170870000D01*
X151273333Y-170603333D02*
X151340000Y-170636666D01*
X151473333Y-170636666D01*
X151540000Y-170603333D01*
X151573333Y-170536666D01*
X151573333Y-170503333D01*
X151540000Y-170436666D01*
X151473333Y-170403333D01*
X151373333Y-170403333D01*
X151306666Y-170370000D01*
X151273333Y-170303333D01*
X151273333Y-170270000D01*
X151306666Y-170203333D01*
X151373333Y-170170000D01*
X151473333Y-170170000D01*
X151540000Y-170203333D01*
X151773333Y-170170000D02*
X152040000Y-170170000D01*
X151873333Y-169936666D02*
X151873333Y-170536666D01*
X151906666Y-170603333D01*
X151973333Y-170636666D01*
X152040000Y-170636666D01*
X152540000Y-170603333D02*
X152473333Y-170636666D01*
X152340000Y-170636666D01*
X152273333Y-170603333D01*
X152240000Y-170536666D01*
X152240000Y-170270000D01*
X152273333Y-170203333D01*
X152340000Y-170170000D01*
X152473333Y-170170000D01*
X152540000Y-170203333D01*
X152573333Y-170270000D01*
X152573333Y-170336666D01*
X152240000Y-170403333D01*
X152873333Y-170636666D02*
X152873333Y-170170000D01*
X152873333Y-170236666D02*
X152906666Y-170203333D01*
X152973333Y-170170000D01*
X153073333Y-170170000D01*
X153140000Y-170203333D01*
X153173333Y-170270000D01*
X153173333Y-170636666D01*
X153173333Y-170270000D02*
X153206666Y-170203333D01*
X153273333Y-170170000D01*
X153373333Y-170170000D01*
X153440000Y-170203333D01*
X153473333Y-170270000D01*
X153473333Y-170636666D01*
X153773333Y-170603333D02*
X153840000Y-170636666D01*
X153973333Y-170636666D01*
X154040000Y-170603333D01*
X154073333Y-170536666D01*
X154073333Y-170503333D01*
X154040000Y-170436666D01*
X153973333Y-170403333D01*
X153873333Y-170403333D01*
X153806666Y-170370000D01*
X153773333Y-170303333D01*
X153773333Y-170270000D01*
X153806666Y-170203333D01*
X153873333Y-170170000D01*
X153973333Y-170170000D01*
X154040000Y-170203333D01*
X154906666Y-170636666D02*
X154906666Y-169936666D01*
X155073333Y-169936666D01*
X155173333Y-169970000D01*
X155240000Y-170036666D01*
X155273333Y-170103333D01*
X155306666Y-170236666D01*
X155306666Y-170336666D01*
X155273333Y-170470000D01*
X155240000Y-170536666D01*
X155173333Y-170603333D01*
X155073333Y-170636666D01*
X154906666Y-170636666D01*
X155873333Y-170603333D02*
X155806666Y-170636666D01*
X155673333Y-170636666D01*
X155606666Y-170603333D01*
X155573333Y-170536666D01*
X155573333Y-170270000D01*
X155606666Y-170203333D01*
X155673333Y-170170000D01*
X155806666Y-170170000D01*
X155873333Y-170203333D01*
X155906666Y-170270000D01*
X155906666Y-170336666D01*
X155573333Y-170403333D01*
X156173333Y-170603333D02*
X156240000Y-170636666D01*
X156373333Y-170636666D01*
X156440000Y-170603333D01*
X156473333Y-170536666D01*
X156473333Y-170503333D01*
X156440000Y-170436666D01*
X156373333Y-170403333D01*
X156273333Y-170403333D01*
X156206666Y-170370000D01*
X156173333Y-170303333D01*
X156173333Y-170270000D01*
X156206666Y-170203333D01*
X156273333Y-170170000D01*
X156373333Y-170170000D01*
X156440000Y-170203333D01*
X156773333Y-170636666D02*
X156773333Y-170170000D01*
X156773333Y-169936666D02*
X156740000Y-169970000D01*
X156773333Y-170003333D01*
X156806666Y-169970000D01*
X156773333Y-169936666D01*
X156773333Y-170003333D01*
X157406666Y-170170000D02*
X157406666Y-170736666D01*
X157373333Y-170803333D01*
X157340000Y-170836666D01*
X157273333Y-170870000D01*
X157173333Y-170870000D01*
X157106666Y-170836666D01*
X157406666Y-170603333D02*
X157340000Y-170636666D01*
X157206666Y-170636666D01*
X157140000Y-170603333D01*
X157106666Y-170570000D01*
X157073333Y-170503333D01*
X157073333Y-170303333D01*
X157106666Y-170236666D01*
X157140000Y-170203333D01*
X157206666Y-170170000D01*
X157340000Y-170170000D01*
X157406666Y-170203333D01*
X157740000Y-170170000D02*
X157740000Y-170636666D01*
X157740000Y-170236666D02*
X157773333Y-170203333D01*
X157840000Y-170170000D01*
X157940000Y-170170000D01*
X158006666Y-170203333D01*
X158040000Y-170270000D01*
X158040000Y-170636666D01*
X150140000Y-172030333D02*
X150106666Y-171997000D01*
X150040000Y-171897000D01*
X150006666Y-171830333D01*
X149973333Y-171730333D01*
X149940000Y-171563666D01*
X149940000Y-171430333D01*
X149973333Y-171263666D01*
X150006666Y-171163666D01*
X150040000Y-171097000D01*
X150106666Y-170997000D01*
X150140000Y-170963666D01*
X150706666Y-171730333D02*
X150640000Y-171763666D01*
X150506666Y-171763666D01*
X150440000Y-171730333D01*
X150406666Y-171697000D01*
X150373333Y-171630333D01*
X150373333Y-171430333D01*
X150406666Y-171363666D01*
X150440000Y-171330333D01*
X150506666Y-171297000D01*
X150640000Y-171297000D01*
X150706666Y-171330333D01*
X150940000Y-172030333D02*
X150973333Y-171997000D01*
X151040000Y-171897000D01*
X151073333Y-171830333D01*
X151106666Y-171730333D01*
X151140000Y-171563666D01*
X151140000Y-171430333D01*
X151106666Y-171263666D01*
X151073333Y-171163666D01*
X151040000Y-171097000D01*
X150973333Y-170997000D01*
X150940000Y-170963666D01*
X151973333Y-171130333D02*
X152006666Y-171097000D01*
X152073333Y-171063666D01*
X152240000Y-171063666D01*
X152306666Y-171097000D01*
X152340000Y-171130333D01*
X152373333Y-171197000D01*
X152373333Y-171263666D01*
X152340000Y-171363666D01*
X151940000Y-171763666D01*
X152373333Y-171763666D01*
X152806666Y-171063666D02*
X152873333Y-171063666D01*
X152940000Y-171097000D01*
X152973333Y-171130333D01*
X153006666Y-171197000D01*
X153040000Y-171330333D01*
X153040000Y-171497000D01*
X153006666Y-171630333D01*
X152973333Y-171697000D01*
X152940000Y-171730333D01*
X152873333Y-171763666D01*
X152806666Y-171763666D01*
X152740000Y-171730333D01*
X152706666Y-171697000D01*
X152673333Y-171630333D01*
X152640000Y-171497000D01*
X152640000Y-171330333D01*
X152673333Y-171197000D01*
X152706666Y-171130333D01*
X152740000Y-171097000D01*
X152806666Y-171063666D01*
X153306666Y-171130333D02*
X153340000Y-171097000D01*
X153406666Y-171063666D01*
X153573333Y-171063666D01*
X153640000Y-171097000D01*
X153673333Y-171130333D01*
X153706666Y-171197000D01*
X153706666Y-171263666D01*
X153673333Y-171363666D01*
X153273333Y-171763666D01*
X153706666Y-171763666D01*
X153973333Y-171130333D02*
X154006666Y-171097000D01*
X154073333Y-171063666D01*
X154240000Y-171063666D01*
X154306666Y-171097000D01*
X154340000Y-171130333D01*
X154373333Y-171197000D01*
X154373333Y-171263666D01*
X154340000Y-171363666D01*
X153940000Y-171763666D01*
X154373333Y-171763666D01*
D10*
X100367142Y-192560952D02*
X100367142Y-192160952D01*
X100557619Y-192560952D02*
X100557619Y-192160952D01*
X100710000Y-192160952D01*
X100748095Y-192180000D01*
X100767142Y-192199047D01*
X100786190Y-192237142D01*
X100786190Y-192294285D01*
X100767142Y-192332380D01*
X100748095Y-192351428D01*
X100710000Y-192370476D01*
X100557619Y-192370476D01*
X100938571Y-192541904D02*
X100995714Y-192560952D01*
X101090952Y-192560952D01*
X101129047Y-192541904D01*
X101148095Y-192522857D01*
X101167142Y-192484761D01*
X101167142Y-192446666D01*
X101148095Y-192408571D01*
X101129047Y-192389523D01*
X101090952Y-192370476D01*
X101014761Y-192351428D01*
X100976666Y-192332380D01*
X100957619Y-192313333D01*
X100938571Y-192275238D01*
X100938571Y-192237142D01*
X100957619Y-192199047D01*
X100976666Y-192180000D01*
X101014761Y-192160952D01*
X101110000Y-192160952D01*
X101167142Y-192180000D01*
X101624285Y-192541904D02*
X101681428Y-192560952D01*
X101776666Y-192560952D01*
X101814761Y-192541904D01*
X101833809Y-192522857D01*
X101852857Y-192484761D01*
X101852857Y-192446666D01*
X101833809Y-192408571D01*
X101814761Y-192389523D01*
X101776666Y-192370476D01*
X101700476Y-192351428D01*
X101662380Y-192332380D01*
X101643333Y-192313333D01*
X101624285Y-192275238D01*
X101624285Y-192237142D01*
X101643333Y-192199047D01*
X101662380Y-192180000D01*
X101700476Y-192160952D01*
X101795714Y-192160952D01*
X101852857Y-192180000D01*
X101986190Y-192294285D02*
X102062380Y-192560952D01*
X102138571Y-192370476D01*
X102214761Y-192560952D01*
X102290952Y-192294285D01*
X189507142Y-155001428D02*
X189307142Y-154715714D01*
X189164285Y-155001428D02*
X189164285Y-154401428D01*
X189392857Y-154401428D01*
X189450000Y-154430000D01*
X189478571Y-154458571D01*
X189507142Y-154515714D01*
X189507142Y-154601428D01*
X189478571Y-154658571D01*
X189450000Y-154687142D01*
X189392857Y-154715714D01*
X189164285Y-154715714D01*
X189992857Y-154972857D02*
X189935714Y-155001428D01*
X189821428Y-155001428D01*
X189764285Y-154972857D01*
X189735714Y-154915714D01*
X189735714Y-154687142D01*
X189764285Y-154630000D01*
X189821428Y-154601428D01*
X189935714Y-154601428D01*
X189992857Y-154630000D01*
X190021428Y-154687142D01*
X190021428Y-154744285D01*
X189735714Y-154801428D01*
X190535714Y-155001428D02*
X190535714Y-154401428D01*
X190535714Y-154972857D02*
X190478571Y-155001428D01*
X190364285Y-155001428D01*
X190307142Y-154972857D01*
X190278571Y-154944285D01*
X190250000Y-154887142D01*
X190250000Y-154715714D01*
X190278571Y-154658571D01*
X190307142Y-154630000D01*
X190364285Y-154601428D01*
X190478571Y-154601428D01*
X190535714Y-154630000D01*
X127412380Y-197330952D02*
X127412380Y-196930952D01*
X127602857Y-197330952D02*
X127602857Y-196930952D01*
X127755238Y-196930952D01*
X127793333Y-196950000D01*
X127812380Y-196969047D01*
X127831428Y-197007142D01*
X127831428Y-197064285D01*
X127812380Y-197102380D01*
X127793333Y-197121428D01*
X127755238Y-197140476D01*
X127602857Y-197140476D01*
X127983809Y-197311904D02*
X128040952Y-197330952D01*
X128136190Y-197330952D01*
X128174285Y-197311904D01*
X128193333Y-197292857D01*
X128212380Y-197254761D01*
X128212380Y-197216666D01*
X128193333Y-197178571D01*
X128174285Y-197159523D01*
X128136190Y-197140476D01*
X128060000Y-197121428D01*
X128021904Y-197102380D01*
X128002857Y-197083333D01*
X127983809Y-197045238D01*
X127983809Y-197007142D01*
X128002857Y-196969047D01*
X128021904Y-196950000D01*
X128060000Y-196930952D01*
X128155238Y-196930952D01*
X128212380Y-196950000D01*
X128764761Y-196930952D02*
X128840952Y-196930952D01*
X128879047Y-196950000D01*
X128917142Y-196988095D01*
X128936190Y-197064285D01*
X128936190Y-197197619D01*
X128917142Y-197273809D01*
X128879047Y-197311904D01*
X128840952Y-197330952D01*
X128764761Y-197330952D01*
X128726666Y-197311904D01*
X128688571Y-197273809D01*
X128669523Y-197197619D01*
X128669523Y-197064285D01*
X128688571Y-196988095D01*
X128726666Y-196950000D01*
X128764761Y-196930952D01*
X129279047Y-197064285D02*
X129279047Y-197330952D01*
X129107619Y-197064285D02*
X129107619Y-197273809D01*
X129126666Y-197311904D01*
X129164761Y-197330952D01*
X129221904Y-197330952D01*
X129260000Y-197311904D01*
X129279047Y-197292857D01*
X129412380Y-197064285D02*
X129564761Y-197064285D01*
X129469523Y-196930952D02*
X129469523Y-197273809D01*
X129488571Y-197311904D01*
X129526666Y-197330952D01*
X129564761Y-197330952D01*
X100577619Y-177130952D02*
X100577619Y-176730952D01*
X100730000Y-176730952D01*
X100768095Y-176750000D01*
X100787142Y-176769047D01*
X100806190Y-176807142D01*
X100806190Y-176864285D01*
X100787142Y-176902380D01*
X100768095Y-176921428D01*
X100730000Y-176940476D01*
X100577619Y-176940476D01*
X100939523Y-176864285D02*
X101015714Y-177130952D01*
X101091904Y-176940476D01*
X101168095Y-177130952D01*
X101244285Y-176864285D01*
X101396666Y-177130952D02*
X101396666Y-176864285D01*
X101396666Y-176940476D02*
X101415714Y-176902380D01*
X101434761Y-176883333D01*
X101472857Y-176864285D01*
X101510952Y-176864285D01*
X101549047Y-177169047D02*
X101853809Y-177169047D01*
X102158571Y-176750000D02*
X102120476Y-176730952D01*
X102063333Y-176730952D01*
X102006190Y-176750000D01*
X101968095Y-176788095D01*
X101949047Y-176826190D01*
X101930000Y-176902380D01*
X101930000Y-176959523D01*
X101949047Y-177035714D01*
X101968095Y-177073809D01*
X102006190Y-177111904D01*
X102063333Y-177130952D01*
X102101428Y-177130952D01*
X102158571Y-177111904D01*
X102177619Y-177092857D01*
X102177619Y-176959523D01*
X102101428Y-176959523D01*
X102349047Y-176864285D02*
X102349047Y-177130952D01*
X102349047Y-176902380D02*
X102368095Y-176883333D01*
X102406190Y-176864285D01*
X102463333Y-176864285D01*
X102501428Y-176883333D01*
X102520476Y-176921428D01*
X102520476Y-177130952D01*
X102882380Y-177130952D02*
X102882380Y-176730952D01*
X102882380Y-177111904D02*
X102844285Y-177130952D01*
X102768095Y-177130952D01*
X102730000Y-177111904D01*
X102710952Y-177092857D01*
X102691904Y-177054761D01*
X102691904Y-176940476D01*
X102710952Y-176902380D01*
X102730000Y-176883333D01*
X102768095Y-176864285D01*
X102844285Y-176864285D01*
X102882380Y-176883333D01*
%TO.C,R32*%
X134204285Y-188591428D02*
X134004285Y-188305714D01*
X133861428Y-188591428D02*
X133861428Y-187991428D01*
X134090000Y-187991428D01*
X134147142Y-188020000D01*
X134175714Y-188048571D01*
X134204285Y-188105714D01*
X134204285Y-188191428D01*
X134175714Y-188248571D01*
X134147142Y-188277142D01*
X134090000Y-188305714D01*
X133861428Y-188305714D01*
X134404285Y-187991428D02*
X134775714Y-187991428D01*
X134575714Y-188220000D01*
X134661428Y-188220000D01*
X134718571Y-188248571D01*
X134747142Y-188277142D01*
X134775714Y-188334285D01*
X134775714Y-188477142D01*
X134747142Y-188534285D01*
X134718571Y-188562857D01*
X134661428Y-188591428D01*
X134490000Y-188591428D01*
X134432857Y-188562857D01*
X134404285Y-188534285D01*
X135004285Y-188048571D02*
X135032857Y-188020000D01*
X135090000Y-187991428D01*
X135232857Y-187991428D01*
X135290000Y-188020000D01*
X135318571Y-188048571D01*
X135347142Y-188105714D01*
X135347142Y-188162857D01*
X135318571Y-188248571D01*
X134975714Y-188591428D01*
X135347142Y-188591428D01*
%TO.C,R34*%
X183594285Y-156841428D02*
X183394285Y-156555714D01*
X183251428Y-156841428D02*
X183251428Y-156241428D01*
X183480000Y-156241428D01*
X183537142Y-156270000D01*
X183565714Y-156298571D01*
X183594285Y-156355714D01*
X183594285Y-156441428D01*
X183565714Y-156498571D01*
X183537142Y-156527142D01*
X183480000Y-156555714D01*
X183251428Y-156555714D01*
X183794285Y-156241428D02*
X184165714Y-156241428D01*
X183965714Y-156470000D01*
X184051428Y-156470000D01*
X184108571Y-156498571D01*
X184137142Y-156527142D01*
X184165714Y-156584285D01*
X184165714Y-156727142D01*
X184137142Y-156784285D01*
X184108571Y-156812857D01*
X184051428Y-156841428D01*
X183880000Y-156841428D01*
X183822857Y-156812857D01*
X183794285Y-156784285D01*
X184680000Y-156441428D02*
X184680000Y-156841428D01*
X184537142Y-156212857D02*
X184394285Y-156641428D01*
X184765714Y-156641428D01*
%TO.C,C37*%
X139344285Y-176944285D02*
X139315714Y-176972857D01*
X139230000Y-177001428D01*
X139172857Y-177001428D01*
X139087142Y-176972857D01*
X139030000Y-176915714D01*
X139001428Y-176858571D01*
X138972857Y-176744285D01*
X138972857Y-176658571D01*
X139001428Y-176544285D01*
X139030000Y-176487142D01*
X139087142Y-176430000D01*
X139172857Y-176401428D01*
X139230000Y-176401428D01*
X139315714Y-176430000D01*
X139344285Y-176458571D01*
X139544285Y-176401428D02*
X139915714Y-176401428D01*
X139715714Y-176630000D01*
X139801428Y-176630000D01*
X139858571Y-176658571D01*
X139887142Y-176687142D01*
X139915714Y-176744285D01*
X139915714Y-176887142D01*
X139887142Y-176944285D01*
X139858571Y-176972857D01*
X139801428Y-177001428D01*
X139630000Y-177001428D01*
X139572857Y-176972857D01*
X139544285Y-176944285D01*
X140115714Y-176401428D02*
X140515714Y-176401428D01*
X140258571Y-177001428D01*
%TO.C,R51*%
X140904285Y-171321428D02*
X140704285Y-171035714D01*
X140561428Y-171321428D02*
X140561428Y-170721428D01*
X140790000Y-170721428D01*
X140847142Y-170750000D01*
X140875714Y-170778571D01*
X140904285Y-170835714D01*
X140904285Y-170921428D01*
X140875714Y-170978571D01*
X140847142Y-171007142D01*
X140790000Y-171035714D01*
X140561428Y-171035714D01*
X141447142Y-170721428D02*
X141161428Y-170721428D01*
X141132857Y-171007142D01*
X141161428Y-170978571D01*
X141218571Y-170950000D01*
X141361428Y-170950000D01*
X141418571Y-170978571D01*
X141447142Y-171007142D01*
X141475714Y-171064285D01*
X141475714Y-171207142D01*
X141447142Y-171264285D01*
X141418571Y-171292857D01*
X141361428Y-171321428D01*
X141218571Y-171321428D01*
X141161428Y-171292857D01*
X141132857Y-171264285D01*
X142047142Y-171321428D02*
X141704285Y-171321428D01*
X141875714Y-171321428D02*
X141875714Y-170721428D01*
X141818571Y-170807142D01*
X141761428Y-170864285D01*
X141704285Y-170892857D01*
%TO.C,R38*%
X198104285Y-167661428D02*
X197904285Y-167375714D01*
X197761428Y-167661428D02*
X197761428Y-167061428D01*
X197990000Y-167061428D01*
X198047142Y-167090000D01*
X198075714Y-167118571D01*
X198104285Y-167175714D01*
X198104285Y-167261428D01*
X198075714Y-167318571D01*
X198047142Y-167347142D01*
X197990000Y-167375714D01*
X197761428Y-167375714D01*
X198304285Y-167061428D02*
X198675714Y-167061428D01*
X198475714Y-167290000D01*
X198561428Y-167290000D01*
X198618571Y-167318571D01*
X198647142Y-167347142D01*
X198675714Y-167404285D01*
X198675714Y-167547142D01*
X198647142Y-167604285D01*
X198618571Y-167632857D01*
X198561428Y-167661428D01*
X198390000Y-167661428D01*
X198332857Y-167632857D01*
X198304285Y-167604285D01*
X199018571Y-167318571D02*
X198961428Y-167290000D01*
X198932857Y-167261428D01*
X198904285Y-167204285D01*
X198904285Y-167175714D01*
X198932857Y-167118571D01*
X198961428Y-167090000D01*
X199018571Y-167061428D01*
X199132857Y-167061428D01*
X199190000Y-167090000D01*
X199218571Y-167118571D01*
X199247142Y-167175714D01*
X199247142Y-167204285D01*
X199218571Y-167261428D01*
X199190000Y-167290000D01*
X199132857Y-167318571D01*
X199018571Y-167318571D01*
X198961428Y-167347142D01*
X198932857Y-167375714D01*
X198904285Y-167432857D01*
X198904285Y-167547142D01*
X198932857Y-167604285D01*
X198961428Y-167632857D01*
X199018571Y-167661428D01*
X199132857Y-167661428D01*
X199190000Y-167632857D01*
X199218571Y-167604285D01*
X199247142Y-167547142D01*
X199247142Y-167432857D01*
X199218571Y-167375714D01*
X199190000Y-167347142D01*
X199132857Y-167318571D01*
%TO.C,C8*%
X134710000Y-193594285D02*
X134681428Y-193622857D01*
X134595714Y-193651428D01*
X134538571Y-193651428D01*
X134452857Y-193622857D01*
X134395714Y-193565714D01*
X134367142Y-193508571D01*
X134338571Y-193394285D01*
X134338571Y-193308571D01*
X134367142Y-193194285D01*
X134395714Y-193137142D01*
X134452857Y-193080000D01*
X134538571Y-193051428D01*
X134595714Y-193051428D01*
X134681428Y-193080000D01*
X134710000Y-193108571D01*
X135052857Y-193308571D02*
X134995714Y-193280000D01*
X134967142Y-193251428D01*
X134938571Y-193194285D01*
X134938571Y-193165714D01*
X134967142Y-193108571D01*
X134995714Y-193080000D01*
X135052857Y-193051428D01*
X135167142Y-193051428D01*
X135224285Y-193080000D01*
X135252857Y-193108571D01*
X135281428Y-193165714D01*
X135281428Y-193194285D01*
X135252857Y-193251428D01*
X135224285Y-193280000D01*
X135167142Y-193308571D01*
X135052857Y-193308571D01*
X134995714Y-193337142D01*
X134967142Y-193365714D01*
X134938571Y-193422857D01*
X134938571Y-193537142D01*
X134967142Y-193594285D01*
X134995714Y-193622857D01*
X135052857Y-193651428D01*
X135167142Y-193651428D01*
X135224285Y-193622857D01*
X135252857Y-193594285D01*
X135281428Y-193537142D01*
X135281428Y-193422857D01*
X135252857Y-193365714D01*
X135224285Y-193337142D01*
X135167142Y-193308571D01*
%TO.C,C6*%
X118420000Y-196254285D02*
X118391428Y-196282857D01*
X118305714Y-196311428D01*
X118248571Y-196311428D01*
X118162857Y-196282857D01*
X118105714Y-196225714D01*
X118077142Y-196168571D01*
X118048571Y-196054285D01*
X118048571Y-195968571D01*
X118077142Y-195854285D01*
X118105714Y-195797142D01*
X118162857Y-195740000D01*
X118248571Y-195711428D01*
X118305714Y-195711428D01*
X118391428Y-195740000D01*
X118420000Y-195768571D01*
X118934285Y-195711428D02*
X118820000Y-195711428D01*
X118762857Y-195740000D01*
X118734285Y-195768571D01*
X118677142Y-195854285D01*
X118648571Y-195968571D01*
X118648571Y-196197142D01*
X118677142Y-196254285D01*
X118705714Y-196282857D01*
X118762857Y-196311428D01*
X118877142Y-196311428D01*
X118934285Y-196282857D01*
X118962857Y-196254285D01*
X118991428Y-196197142D01*
X118991428Y-196054285D01*
X118962857Y-195997142D01*
X118934285Y-195968571D01*
X118877142Y-195940000D01*
X118762857Y-195940000D01*
X118705714Y-195968571D01*
X118677142Y-195997142D01*
X118648571Y-196054285D01*
%TO.C,C32*%
X197444285Y-140134285D02*
X197415714Y-140162857D01*
X197330000Y-140191428D01*
X197272857Y-140191428D01*
X197187142Y-140162857D01*
X197130000Y-140105714D01*
X197101428Y-140048571D01*
X197072857Y-139934285D01*
X197072857Y-139848571D01*
X197101428Y-139734285D01*
X197130000Y-139677142D01*
X197187142Y-139620000D01*
X197272857Y-139591428D01*
X197330000Y-139591428D01*
X197415714Y-139620000D01*
X197444285Y-139648571D01*
X197644285Y-139591428D02*
X198015714Y-139591428D01*
X197815714Y-139820000D01*
X197901428Y-139820000D01*
X197958571Y-139848571D01*
X197987142Y-139877142D01*
X198015714Y-139934285D01*
X198015714Y-140077142D01*
X197987142Y-140134285D01*
X197958571Y-140162857D01*
X197901428Y-140191428D01*
X197730000Y-140191428D01*
X197672857Y-140162857D01*
X197644285Y-140134285D01*
X198244285Y-139648571D02*
X198272857Y-139620000D01*
X198330000Y-139591428D01*
X198472857Y-139591428D01*
X198530000Y-139620000D01*
X198558571Y-139648571D01*
X198587142Y-139705714D01*
X198587142Y-139762857D01*
X198558571Y-139848571D01*
X198215714Y-140191428D01*
X198587142Y-140191428D01*
%TO.C,C28*%
X139324285Y-161214285D02*
X139295714Y-161242857D01*
X139210000Y-161271428D01*
X139152857Y-161271428D01*
X139067142Y-161242857D01*
X139010000Y-161185714D01*
X138981428Y-161128571D01*
X138952857Y-161014285D01*
X138952857Y-160928571D01*
X138981428Y-160814285D01*
X139010000Y-160757142D01*
X139067142Y-160700000D01*
X139152857Y-160671428D01*
X139210000Y-160671428D01*
X139295714Y-160700000D01*
X139324285Y-160728571D01*
X139552857Y-160728571D02*
X139581428Y-160700000D01*
X139638571Y-160671428D01*
X139781428Y-160671428D01*
X139838571Y-160700000D01*
X139867142Y-160728571D01*
X139895714Y-160785714D01*
X139895714Y-160842857D01*
X139867142Y-160928571D01*
X139524285Y-161271428D01*
X139895714Y-161271428D01*
X140238571Y-160928571D02*
X140181428Y-160900000D01*
X140152857Y-160871428D01*
X140124285Y-160814285D01*
X140124285Y-160785714D01*
X140152857Y-160728571D01*
X140181428Y-160700000D01*
X140238571Y-160671428D01*
X140352857Y-160671428D01*
X140410000Y-160700000D01*
X140438571Y-160728571D01*
X140467142Y-160785714D01*
X140467142Y-160814285D01*
X140438571Y-160871428D01*
X140410000Y-160900000D01*
X140352857Y-160928571D01*
X140238571Y-160928571D01*
X140181428Y-160957142D01*
X140152857Y-160985714D01*
X140124285Y-161042857D01*
X140124285Y-161157142D01*
X140152857Y-161214285D01*
X140181428Y-161242857D01*
X140238571Y-161271428D01*
X140352857Y-161271428D01*
X140410000Y-161242857D01*
X140438571Y-161214285D01*
X140467142Y-161157142D01*
X140467142Y-161042857D01*
X140438571Y-160985714D01*
X140410000Y-160957142D01*
X140352857Y-160928571D01*
%TO.C,R49*%
X139974285Y-196771428D02*
X139774285Y-196485714D01*
X139631428Y-196771428D02*
X139631428Y-196171428D01*
X139860000Y-196171428D01*
X139917142Y-196200000D01*
X139945714Y-196228571D01*
X139974285Y-196285714D01*
X139974285Y-196371428D01*
X139945714Y-196428571D01*
X139917142Y-196457142D01*
X139860000Y-196485714D01*
X139631428Y-196485714D01*
X140488571Y-196371428D02*
X140488571Y-196771428D01*
X140345714Y-196142857D02*
X140202857Y-196571428D01*
X140574285Y-196571428D01*
X140831428Y-196771428D02*
X140945714Y-196771428D01*
X141002857Y-196742857D01*
X141031428Y-196714285D01*
X141088571Y-196628571D01*
X141117142Y-196514285D01*
X141117142Y-196285714D01*
X141088571Y-196228571D01*
X141060000Y-196200000D01*
X141002857Y-196171428D01*
X140888571Y-196171428D01*
X140831428Y-196200000D01*
X140802857Y-196228571D01*
X140774285Y-196285714D01*
X140774285Y-196428571D01*
X140802857Y-196485714D01*
X140831428Y-196514285D01*
X140888571Y-196542857D01*
X141002857Y-196542857D01*
X141060000Y-196514285D01*
X141088571Y-196485714D01*
X141117142Y-196428571D01*
%TO.C,C22*%
X186624285Y-189184285D02*
X186595714Y-189212857D01*
X186510000Y-189241428D01*
X186452857Y-189241428D01*
X186367142Y-189212857D01*
X186310000Y-189155714D01*
X186281428Y-189098571D01*
X186252857Y-188984285D01*
X186252857Y-188898571D01*
X186281428Y-188784285D01*
X186310000Y-188727142D01*
X186367142Y-188670000D01*
X186452857Y-188641428D01*
X186510000Y-188641428D01*
X186595714Y-188670000D01*
X186624285Y-188698571D01*
X186852857Y-188698571D02*
X186881428Y-188670000D01*
X186938571Y-188641428D01*
X187081428Y-188641428D01*
X187138571Y-188670000D01*
X187167142Y-188698571D01*
X187195714Y-188755714D01*
X187195714Y-188812857D01*
X187167142Y-188898571D01*
X186824285Y-189241428D01*
X187195714Y-189241428D01*
X187424285Y-188698571D02*
X187452857Y-188670000D01*
X187510000Y-188641428D01*
X187652857Y-188641428D01*
X187710000Y-188670000D01*
X187738571Y-188698571D01*
X187767142Y-188755714D01*
X187767142Y-188812857D01*
X187738571Y-188898571D01*
X187395714Y-189241428D01*
X187767142Y-189241428D01*
%TO.C,C2*%
X135370000Y-180364285D02*
X135341428Y-180392857D01*
X135255714Y-180421428D01*
X135198571Y-180421428D01*
X135112857Y-180392857D01*
X135055714Y-180335714D01*
X135027142Y-180278571D01*
X134998571Y-180164285D01*
X134998571Y-180078571D01*
X135027142Y-179964285D01*
X135055714Y-179907142D01*
X135112857Y-179850000D01*
X135198571Y-179821428D01*
X135255714Y-179821428D01*
X135341428Y-179850000D01*
X135370000Y-179878571D01*
X135598571Y-179878571D02*
X135627142Y-179850000D01*
X135684285Y-179821428D01*
X135827142Y-179821428D01*
X135884285Y-179850000D01*
X135912857Y-179878571D01*
X135941428Y-179935714D01*
X135941428Y-179992857D01*
X135912857Y-180078571D01*
X135570000Y-180421428D01*
X135941428Y-180421428D01*
%TO.C,C3*%
X116830000Y-188454285D02*
X116801428Y-188482857D01*
X116715714Y-188511428D01*
X116658571Y-188511428D01*
X116572857Y-188482857D01*
X116515714Y-188425714D01*
X116487142Y-188368571D01*
X116458571Y-188254285D01*
X116458571Y-188168571D01*
X116487142Y-188054285D01*
X116515714Y-187997142D01*
X116572857Y-187940000D01*
X116658571Y-187911428D01*
X116715714Y-187911428D01*
X116801428Y-187940000D01*
X116830000Y-187968571D01*
X117030000Y-187911428D02*
X117401428Y-187911428D01*
X117201428Y-188140000D01*
X117287142Y-188140000D01*
X117344285Y-188168571D01*
X117372857Y-188197142D01*
X117401428Y-188254285D01*
X117401428Y-188397142D01*
X117372857Y-188454285D01*
X117344285Y-188482857D01*
X117287142Y-188511428D01*
X117115714Y-188511428D01*
X117058571Y-188482857D01*
X117030000Y-188454285D01*
%TO.C,C38*%
X192264285Y-140364285D02*
X192235714Y-140392857D01*
X192150000Y-140421428D01*
X192092857Y-140421428D01*
X192007142Y-140392857D01*
X191950000Y-140335714D01*
X191921428Y-140278571D01*
X191892857Y-140164285D01*
X191892857Y-140078571D01*
X191921428Y-139964285D01*
X191950000Y-139907142D01*
X192007142Y-139850000D01*
X192092857Y-139821428D01*
X192150000Y-139821428D01*
X192235714Y-139850000D01*
X192264285Y-139878571D01*
X192464285Y-139821428D02*
X192835714Y-139821428D01*
X192635714Y-140050000D01*
X192721428Y-140050000D01*
X192778571Y-140078571D01*
X192807142Y-140107142D01*
X192835714Y-140164285D01*
X192835714Y-140307142D01*
X192807142Y-140364285D01*
X192778571Y-140392857D01*
X192721428Y-140421428D01*
X192550000Y-140421428D01*
X192492857Y-140392857D01*
X192464285Y-140364285D01*
X193178571Y-140078571D02*
X193121428Y-140050000D01*
X193092857Y-140021428D01*
X193064285Y-139964285D01*
X193064285Y-139935714D01*
X193092857Y-139878571D01*
X193121428Y-139850000D01*
X193178571Y-139821428D01*
X193292857Y-139821428D01*
X193350000Y-139850000D01*
X193378571Y-139878571D01*
X193407142Y-139935714D01*
X193407142Y-139964285D01*
X193378571Y-140021428D01*
X193350000Y-140050000D01*
X193292857Y-140078571D01*
X193178571Y-140078571D01*
X193121428Y-140107142D01*
X193092857Y-140135714D01*
X193064285Y-140192857D01*
X193064285Y-140307142D01*
X193092857Y-140364285D01*
X193121428Y-140392857D01*
X193178571Y-140421428D01*
X193292857Y-140421428D01*
X193350000Y-140392857D01*
X193378571Y-140364285D01*
X193407142Y-140307142D01*
X193407142Y-140192857D01*
X193378571Y-140135714D01*
X193350000Y-140107142D01*
X193292857Y-140078571D01*
%TO.C,U7*%
X117592857Y-182811428D02*
X117592857Y-183297142D01*
X117621428Y-183354285D01*
X117650000Y-183382857D01*
X117707142Y-183411428D01*
X117821428Y-183411428D01*
X117878571Y-183382857D01*
X117907142Y-183354285D01*
X117935714Y-183297142D01*
X117935714Y-182811428D01*
X118164285Y-182811428D02*
X118564285Y-182811428D01*
X118307142Y-183411428D01*
%TO.C,R54*%
X132534285Y-167051428D02*
X132334285Y-166765714D01*
X132191428Y-167051428D02*
X132191428Y-166451428D01*
X132420000Y-166451428D01*
X132477142Y-166480000D01*
X132505714Y-166508571D01*
X132534285Y-166565714D01*
X132534285Y-166651428D01*
X132505714Y-166708571D01*
X132477142Y-166737142D01*
X132420000Y-166765714D01*
X132191428Y-166765714D01*
X133077142Y-166451428D02*
X132791428Y-166451428D01*
X132762857Y-166737142D01*
X132791428Y-166708571D01*
X132848571Y-166680000D01*
X132991428Y-166680000D01*
X133048571Y-166708571D01*
X133077142Y-166737142D01*
X133105714Y-166794285D01*
X133105714Y-166937142D01*
X133077142Y-166994285D01*
X133048571Y-167022857D01*
X132991428Y-167051428D01*
X132848571Y-167051428D01*
X132791428Y-167022857D01*
X132762857Y-166994285D01*
X133620000Y-166651428D02*
X133620000Y-167051428D01*
X133477142Y-166422857D02*
X133334285Y-166851428D01*
X133705714Y-166851428D01*
%TO.C,R39*%
X199294285Y-175341428D02*
X199094285Y-175055714D01*
X198951428Y-175341428D02*
X198951428Y-174741428D01*
X199180000Y-174741428D01*
X199237142Y-174770000D01*
X199265714Y-174798571D01*
X199294285Y-174855714D01*
X199294285Y-174941428D01*
X199265714Y-174998571D01*
X199237142Y-175027142D01*
X199180000Y-175055714D01*
X198951428Y-175055714D01*
X199494285Y-174741428D02*
X199865714Y-174741428D01*
X199665714Y-174970000D01*
X199751428Y-174970000D01*
X199808571Y-174998571D01*
X199837142Y-175027142D01*
X199865714Y-175084285D01*
X199865714Y-175227142D01*
X199837142Y-175284285D01*
X199808571Y-175312857D01*
X199751428Y-175341428D01*
X199580000Y-175341428D01*
X199522857Y-175312857D01*
X199494285Y-175284285D01*
X200151428Y-175341428D02*
X200265714Y-175341428D01*
X200322857Y-175312857D01*
X200351428Y-175284285D01*
X200408571Y-175198571D01*
X200437142Y-175084285D01*
X200437142Y-174855714D01*
X200408571Y-174798571D01*
X200380000Y-174770000D01*
X200322857Y-174741428D01*
X200208571Y-174741428D01*
X200151428Y-174770000D01*
X200122857Y-174798571D01*
X200094285Y-174855714D01*
X200094285Y-174998571D01*
X200122857Y-175055714D01*
X200151428Y-175084285D01*
X200208571Y-175112857D01*
X200322857Y-175112857D01*
X200380000Y-175084285D01*
X200408571Y-175055714D01*
X200437142Y-174998571D01*
%TO.C,U13*%
X135907142Y-175951428D02*
X135907142Y-176437142D01*
X135935714Y-176494285D01*
X135964285Y-176522857D01*
X136021428Y-176551428D01*
X136135714Y-176551428D01*
X136192857Y-176522857D01*
X136221428Y-176494285D01*
X136250000Y-176437142D01*
X136250000Y-175951428D01*
X136850000Y-176551428D02*
X136507142Y-176551428D01*
X136678571Y-176551428D02*
X136678571Y-175951428D01*
X136621428Y-176037142D01*
X136564285Y-176094285D01*
X136507142Y-176122857D01*
X137050000Y-175951428D02*
X137421428Y-175951428D01*
X137221428Y-176180000D01*
X137307142Y-176180000D01*
X137364285Y-176208571D01*
X137392857Y-176237142D01*
X137421428Y-176294285D01*
X137421428Y-176437142D01*
X137392857Y-176494285D01*
X137364285Y-176522857D01*
X137307142Y-176551428D01*
X137135714Y-176551428D01*
X137078571Y-176522857D01*
X137050000Y-176494285D01*
%TO.C,BTM4*%
X179395714Y-156827142D02*
X179481428Y-156855714D01*
X179510000Y-156884285D01*
X179538571Y-156941428D01*
X179538571Y-157027142D01*
X179510000Y-157084285D01*
X179481428Y-157112857D01*
X179424285Y-157141428D01*
X179195714Y-157141428D01*
X179195714Y-156541428D01*
X179395714Y-156541428D01*
X179452857Y-156570000D01*
X179481428Y-156598571D01*
X179510000Y-156655714D01*
X179510000Y-156712857D01*
X179481428Y-156770000D01*
X179452857Y-156798571D01*
X179395714Y-156827142D01*
X179195714Y-156827142D01*
X179710000Y-156541428D02*
X180052857Y-156541428D01*
X179881428Y-157141428D02*
X179881428Y-156541428D01*
X180252857Y-157141428D02*
X180252857Y-156541428D01*
X180452857Y-156970000D01*
X180652857Y-156541428D01*
X180652857Y-157141428D01*
X181195714Y-156741428D02*
X181195714Y-157141428D01*
X181052857Y-156512857D02*
X180910000Y-156941428D01*
X181281428Y-156941428D01*
%TO.C,C7*%
X134460000Y-187024285D02*
X134431428Y-187052857D01*
X134345714Y-187081428D01*
X134288571Y-187081428D01*
X134202857Y-187052857D01*
X134145714Y-186995714D01*
X134117142Y-186938571D01*
X134088571Y-186824285D01*
X134088571Y-186738571D01*
X134117142Y-186624285D01*
X134145714Y-186567142D01*
X134202857Y-186510000D01*
X134288571Y-186481428D01*
X134345714Y-186481428D01*
X134431428Y-186510000D01*
X134460000Y-186538571D01*
X134660000Y-186481428D02*
X135060000Y-186481428D01*
X134802857Y-187081428D01*
%TO.C,C33*%
X136404285Y-178644285D02*
X136375714Y-178672857D01*
X136290000Y-178701428D01*
X136232857Y-178701428D01*
X136147142Y-178672857D01*
X136090000Y-178615714D01*
X136061428Y-178558571D01*
X136032857Y-178444285D01*
X136032857Y-178358571D01*
X136061428Y-178244285D01*
X136090000Y-178187142D01*
X136147142Y-178130000D01*
X136232857Y-178101428D01*
X136290000Y-178101428D01*
X136375714Y-178130000D01*
X136404285Y-178158571D01*
X136604285Y-178101428D02*
X136975714Y-178101428D01*
X136775714Y-178330000D01*
X136861428Y-178330000D01*
X136918571Y-178358571D01*
X136947142Y-178387142D01*
X136975714Y-178444285D01*
X136975714Y-178587142D01*
X136947142Y-178644285D01*
X136918571Y-178672857D01*
X136861428Y-178701428D01*
X136690000Y-178701428D01*
X136632857Y-178672857D01*
X136604285Y-178644285D01*
X137175714Y-178101428D02*
X137547142Y-178101428D01*
X137347142Y-178330000D01*
X137432857Y-178330000D01*
X137490000Y-178358571D01*
X137518571Y-178387142D01*
X137547142Y-178444285D01*
X137547142Y-178587142D01*
X137518571Y-178644285D01*
X137490000Y-178672857D01*
X137432857Y-178701428D01*
X137261428Y-178701428D01*
X137204285Y-178672857D01*
X137175714Y-178644285D01*
D12*
%TO.C,J1*%
X191026666Y-129202380D02*
X191026666Y-129916666D01*
X190979047Y-130059523D01*
X190883809Y-130154761D01*
X190740952Y-130202380D01*
X190645714Y-130202380D01*
X192026666Y-130202380D02*
X191455238Y-130202380D01*
X191740952Y-130202380D02*
X191740952Y-129202380D01*
X191645714Y-129345238D01*
X191550476Y-129440476D01*
X191455238Y-129488095D01*
D10*
%TO.C,LED11*%
X131462857Y-198171428D02*
X131177142Y-198171428D01*
X131177142Y-197571428D01*
X131662857Y-197857142D02*
X131862857Y-197857142D01*
X131948571Y-198171428D02*
X131662857Y-198171428D01*
X131662857Y-197571428D01*
X131948571Y-197571428D01*
X132205714Y-198171428D02*
X132205714Y-197571428D01*
X132348571Y-197571428D01*
X132434285Y-197600000D01*
X132491428Y-197657142D01*
X132520000Y-197714285D01*
X132548571Y-197828571D01*
X132548571Y-197914285D01*
X132520000Y-198028571D01*
X132491428Y-198085714D01*
X132434285Y-198142857D01*
X132348571Y-198171428D01*
X132205714Y-198171428D01*
X133120000Y-198171428D02*
X132777142Y-198171428D01*
X132948571Y-198171428D02*
X132948571Y-197571428D01*
X132891428Y-197657142D01*
X132834285Y-197714285D01*
X132777142Y-197742857D01*
X133691428Y-198171428D02*
X133348571Y-198171428D01*
X133520000Y-198171428D02*
X133520000Y-197571428D01*
X133462857Y-197657142D01*
X133405714Y-197714285D01*
X133348571Y-197742857D01*
%TO.C,BTM1*%
X119805714Y-157027142D02*
X119891428Y-157055714D01*
X119920000Y-157084285D01*
X119948571Y-157141428D01*
X119948571Y-157227142D01*
X119920000Y-157284285D01*
X119891428Y-157312857D01*
X119834285Y-157341428D01*
X119605714Y-157341428D01*
X119605714Y-156741428D01*
X119805714Y-156741428D01*
X119862857Y-156770000D01*
X119891428Y-156798571D01*
X119920000Y-156855714D01*
X119920000Y-156912857D01*
X119891428Y-156970000D01*
X119862857Y-156998571D01*
X119805714Y-157027142D01*
X119605714Y-157027142D01*
X120120000Y-156741428D02*
X120462857Y-156741428D01*
X120291428Y-157341428D02*
X120291428Y-156741428D01*
X120662857Y-157341428D02*
X120662857Y-156741428D01*
X120862857Y-157170000D01*
X121062857Y-156741428D01*
X121062857Y-157341428D01*
X121662857Y-157341428D02*
X121320000Y-157341428D01*
X121491428Y-157341428D02*
X121491428Y-156741428D01*
X121434285Y-156827142D01*
X121377142Y-156884285D01*
X121320000Y-156912857D01*
%TO.C,R44*%
X119004285Y-179131428D02*
X118804285Y-178845714D01*
X118661428Y-179131428D02*
X118661428Y-178531428D01*
X118890000Y-178531428D01*
X118947142Y-178560000D01*
X118975714Y-178588571D01*
X119004285Y-178645714D01*
X119004285Y-178731428D01*
X118975714Y-178788571D01*
X118947142Y-178817142D01*
X118890000Y-178845714D01*
X118661428Y-178845714D01*
X119518571Y-178731428D02*
X119518571Y-179131428D01*
X119375714Y-178502857D02*
X119232857Y-178931428D01*
X119604285Y-178931428D01*
X120090000Y-178731428D02*
X120090000Y-179131428D01*
X119947142Y-178502857D02*
X119804285Y-178931428D01*
X120175714Y-178931428D01*
%TO.C,L1*%
X126080000Y-178891428D02*
X125794285Y-178891428D01*
X125794285Y-178291428D01*
X126594285Y-178891428D02*
X126251428Y-178891428D01*
X126422857Y-178891428D02*
X126422857Y-178291428D01*
X126365714Y-178377142D01*
X126308571Y-178434285D01*
X126251428Y-178462857D01*
%TO.C,BTM2*%
X139445714Y-156847142D02*
X139531428Y-156875714D01*
X139560000Y-156904285D01*
X139588571Y-156961428D01*
X139588571Y-157047142D01*
X139560000Y-157104285D01*
X139531428Y-157132857D01*
X139474285Y-157161428D01*
X139245714Y-157161428D01*
X139245714Y-156561428D01*
X139445714Y-156561428D01*
X139502857Y-156590000D01*
X139531428Y-156618571D01*
X139560000Y-156675714D01*
X139560000Y-156732857D01*
X139531428Y-156790000D01*
X139502857Y-156818571D01*
X139445714Y-156847142D01*
X139245714Y-156847142D01*
X139760000Y-156561428D02*
X140102857Y-156561428D01*
X139931428Y-157161428D02*
X139931428Y-156561428D01*
X140302857Y-157161428D02*
X140302857Y-156561428D01*
X140502857Y-156990000D01*
X140702857Y-156561428D01*
X140702857Y-157161428D01*
X140960000Y-156618571D02*
X140988571Y-156590000D01*
X141045714Y-156561428D01*
X141188571Y-156561428D01*
X141245714Y-156590000D01*
X141274285Y-156618571D01*
X141302857Y-156675714D01*
X141302857Y-156732857D01*
X141274285Y-156818571D01*
X140931428Y-157161428D01*
X141302857Y-157161428D01*
%TO.C,LED8*%
X192428571Y-154741428D02*
X192142857Y-154741428D01*
X192142857Y-154141428D01*
X192628571Y-154427142D02*
X192828571Y-154427142D01*
X192914285Y-154741428D02*
X192628571Y-154741428D01*
X192628571Y-154141428D01*
X192914285Y-154141428D01*
X193171428Y-154741428D02*
X193171428Y-154141428D01*
X193314285Y-154141428D01*
X193400000Y-154170000D01*
X193457142Y-154227142D01*
X193485714Y-154284285D01*
X193514285Y-154398571D01*
X193514285Y-154484285D01*
X193485714Y-154598571D01*
X193457142Y-154655714D01*
X193400000Y-154712857D01*
X193314285Y-154741428D01*
X193171428Y-154741428D01*
X193857142Y-154398571D02*
X193800000Y-154370000D01*
X193771428Y-154341428D01*
X193742857Y-154284285D01*
X193742857Y-154255714D01*
X193771428Y-154198571D01*
X193800000Y-154170000D01*
X193857142Y-154141428D01*
X193971428Y-154141428D01*
X194028571Y-154170000D01*
X194057142Y-154198571D01*
X194085714Y-154255714D01*
X194085714Y-154284285D01*
X194057142Y-154341428D01*
X194028571Y-154370000D01*
X193971428Y-154398571D01*
X193857142Y-154398571D01*
X193800000Y-154427142D01*
X193771428Y-154455714D01*
X193742857Y-154512857D01*
X193742857Y-154627142D01*
X193771428Y-154684285D01*
X193800000Y-154712857D01*
X193857142Y-154741428D01*
X193971428Y-154741428D01*
X194028571Y-154712857D01*
X194057142Y-154684285D01*
X194085714Y-154627142D01*
X194085714Y-154512857D01*
X194057142Y-154455714D01*
X194028571Y-154427142D01*
X193971428Y-154398571D01*
%TO.C,LED10*%
X123212857Y-199411428D02*
X122927142Y-199411428D01*
X122927142Y-198811428D01*
X123412857Y-199097142D02*
X123612857Y-199097142D01*
X123698571Y-199411428D02*
X123412857Y-199411428D01*
X123412857Y-198811428D01*
X123698571Y-198811428D01*
X123955714Y-199411428D02*
X123955714Y-198811428D01*
X124098571Y-198811428D01*
X124184285Y-198840000D01*
X124241428Y-198897142D01*
X124270000Y-198954285D01*
X124298571Y-199068571D01*
X124298571Y-199154285D01*
X124270000Y-199268571D01*
X124241428Y-199325714D01*
X124184285Y-199382857D01*
X124098571Y-199411428D01*
X123955714Y-199411428D01*
X124870000Y-199411428D02*
X124527142Y-199411428D01*
X124698571Y-199411428D02*
X124698571Y-198811428D01*
X124641428Y-198897142D01*
X124584285Y-198954285D01*
X124527142Y-198982857D01*
X125241428Y-198811428D02*
X125298571Y-198811428D01*
X125355714Y-198840000D01*
X125384285Y-198868571D01*
X125412857Y-198925714D01*
X125441428Y-199040000D01*
X125441428Y-199182857D01*
X125412857Y-199297142D01*
X125384285Y-199354285D01*
X125355714Y-199382857D01*
X125298571Y-199411428D01*
X125241428Y-199411428D01*
X125184285Y-199382857D01*
X125155714Y-199354285D01*
X125127142Y-199297142D01*
X125098571Y-199182857D01*
X125098571Y-199040000D01*
X125127142Y-198925714D01*
X125155714Y-198868571D01*
X125184285Y-198840000D01*
X125241428Y-198811428D01*
%TO.C,R31*%
X116474285Y-194661428D02*
X116274285Y-194375714D01*
X116131428Y-194661428D02*
X116131428Y-194061428D01*
X116360000Y-194061428D01*
X116417142Y-194090000D01*
X116445714Y-194118571D01*
X116474285Y-194175714D01*
X116474285Y-194261428D01*
X116445714Y-194318571D01*
X116417142Y-194347142D01*
X116360000Y-194375714D01*
X116131428Y-194375714D01*
X116674285Y-194061428D02*
X117045714Y-194061428D01*
X116845714Y-194290000D01*
X116931428Y-194290000D01*
X116988571Y-194318571D01*
X117017142Y-194347142D01*
X117045714Y-194404285D01*
X117045714Y-194547142D01*
X117017142Y-194604285D01*
X116988571Y-194632857D01*
X116931428Y-194661428D01*
X116760000Y-194661428D01*
X116702857Y-194632857D01*
X116674285Y-194604285D01*
X117617142Y-194661428D02*
X117274285Y-194661428D01*
X117445714Y-194661428D02*
X117445714Y-194061428D01*
X117388571Y-194147142D01*
X117331428Y-194204285D01*
X117274285Y-194232857D01*
%TO.C,C5*%
X120250000Y-197714285D02*
X120221428Y-197742857D01*
X120135714Y-197771428D01*
X120078571Y-197771428D01*
X119992857Y-197742857D01*
X119935714Y-197685714D01*
X119907142Y-197628571D01*
X119878571Y-197514285D01*
X119878571Y-197428571D01*
X119907142Y-197314285D01*
X119935714Y-197257142D01*
X119992857Y-197200000D01*
X120078571Y-197171428D01*
X120135714Y-197171428D01*
X120221428Y-197200000D01*
X120250000Y-197228571D01*
X120792857Y-197171428D02*
X120507142Y-197171428D01*
X120478571Y-197457142D01*
X120507142Y-197428571D01*
X120564285Y-197400000D01*
X120707142Y-197400000D01*
X120764285Y-197428571D01*
X120792857Y-197457142D01*
X120821428Y-197514285D01*
X120821428Y-197657142D01*
X120792857Y-197714285D01*
X120764285Y-197742857D01*
X120707142Y-197771428D01*
X120564285Y-197771428D01*
X120507142Y-197742857D01*
X120478571Y-197714285D01*
%TO.C,LED5*%
X189208571Y-154241428D02*
X188922857Y-154241428D01*
X188922857Y-153641428D01*
X189408571Y-153927142D02*
X189608571Y-153927142D01*
X189694285Y-154241428D02*
X189408571Y-154241428D01*
X189408571Y-153641428D01*
X189694285Y-153641428D01*
X189951428Y-154241428D02*
X189951428Y-153641428D01*
X190094285Y-153641428D01*
X190180000Y-153670000D01*
X190237142Y-153727142D01*
X190265714Y-153784285D01*
X190294285Y-153898571D01*
X190294285Y-153984285D01*
X190265714Y-154098571D01*
X190237142Y-154155714D01*
X190180000Y-154212857D01*
X190094285Y-154241428D01*
X189951428Y-154241428D01*
X190837142Y-153641428D02*
X190551428Y-153641428D01*
X190522857Y-153927142D01*
X190551428Y-153898571D01*
X190608571Y-153870000D01*
X190751428Y-153870000D01*
X190808571Y-153898571D01*
X190837142Y-153927142D01*
X190865714Y-153984285D01*
X190865714Y-154127142D01*
X190837142Y-154184285D01*
X190808571Y-154212857D01*
X190751428Y-154241428D01*
X190608571Y-154241428D01*
X190551428Y-154212857D01*
X190522857Y-154184285D01*
%TO.C,R48*%
X114294285Y-199341428D02*
X114094285Y-199055714D01*
X113951428Y-199341428D02*
X113951428Y-198741428D01*
X114180000Y-198741428D01*
X114237142Y-198770000D01*
X114265714Y-198798571D01*
X114294285Y-198855714D01*
X114294285Y-198941428D01*
X114265714Y-198998571D01*
X114237142Y-199027142D01*
X114180000Y-199055714D01*
X113951428Y-199055714D01*
X114808571Y-198941428D02*
X114808571Y-199341428D01*
X114665714Y-198712857D02*
X114522857Y-199141428D01*
X114894285Y-199141428D01*
X115208571Y-198998571D02*
X115151428Y-198970000D01*
X115122857Y-198941428D01*
X115094285Y-198884285D01*
X115094285Y-198855714D01*
X115122857Y-198798571D01*
X115151428Y-198770000D01*
X115208571Y-198741428D01*
X115322857Y-198741428D01*
X115380000Y-198770000D01*
X115408571Y-198798571D01*
X115437142Y-198855714D01*
X115437142Y-198884285D01*
X115408571Y-198941428D01*
X115380000Y-198970000D01*
X115322857Y-198998571D01*
X115208571Y-198998571D01*
X115151428Y-199027142D01*
X115122857Y-199055714D01*
X115094285Y-199112857D01*
X115094285Y-199227142D01*
X115122857Y-199284285D01*
X115151428Y-199312857D01*
X115208571Y-199341428D01*
X115322857Y-199341428D01*
X115380000Y-199312857D01*
X115408571Y-199284285D01*
X115437142Y-199227142D01*
X115437142Y-199112857D01*
X115408571Y-199055714D01*
X115380000Y-199027142D01*
X115322857Y-198998571D01*
%TO.C,R35*%
X198984285Y-148501428D02*
X198784285Y-148215714D01*
X198641428Y-148501428D02*
X198641428Y-147901428D01*
X198870000Y-147901428D01*
X198927142Y-147930000D01*
X198955714Y-147958571D01*
X198984285Y-148015714D01*
X198984285Y-148101428D01*
X198955714Y-148158571D01*
X198927142Y-148187142D01*
X198870000Y-148215714D01*
X198641428Y-148215714D01*
X199184285Y-147901428D02*
X199555714Y-147901428D01*
X199355714Y-148130000D01*
X199441428Y-148130000D01*
X199498571Y-148158571D01*
X199527142Y-148187142D01*
X199555714Y-148244285D01*
X199555714Y-148387142D01*
X199527142Y-148444285D01*
X199498571Y-148472857D01*
X199441428Y-148501428D01*
X199270000Y-148501428D01*
X199212857Y-148472857D01*
X199184285Y-148444285D01*
X200098571Y-147901428D02*
X199812857Y-147901428D01*
X199784285Y-148187142D01*
X199812857Y-148158571D01*
X199870000Y-148130000D01*
X200012857Y-148130000D01*
X200070000Y-148158571D01*
X200098571Y-148187142D01*
X200127142Y-148244285D01*
X200127142Y-148387142D01*
X200098571Y-148444285D01*
X200070000Y-148472857D01*
X200012857Y-148501428D01*
X199870000Y-148501428D01*
X199812857Y-148472857D01*
X199784285Y-148444285D01*
%TO.C,C27*%
X128854285Y-164194285D02*
X128825714Y-164222857D01*
X128740000Y-164251428D01*
X128682857Y-164251428D01*
X128597142Y-164222857D01*
X128540000Y-164165714D01*
X128511428Y-164108571D01*
X128482857Y-163994285D01*
X128482857Y-163908571D01*
X128511428Y-163794285D01*
X128540000Y-163737142D01*
X128597142Y-163680000D01*
X128682857Y-163651428D01*
X128740000Y-163651428D01*
X128825714Y-163680000D01*
X128854285Y-163708571D01*
X129082857Y-163708571D02*
X129111428Y-163680000D01*
X129168571Y-163651428D01*
X129311428Y-163651428D01*
X129368571Y-163680000D01*
X129397142Y-163708571D01*
X129425714Y-163765714D01*
X129425714Y-163822857D01*
X129397142Y-163908571D01*
X129054285Y-164251428D01*
X129425714Y-164251428D01*
X129625714Y-163651428D02*
X130025714Y-163651428D01*
X129768571Y-164251428D01*
%TO.C,R37*%
X200564285Y-161671428D02*
X200364285Y-161385714D01*
X200221428Y-161671428D02*
X200221428Y-161071428D01*
X200450000Y-161071428D01*
X200507142Y-161100000D01*
X200535714Y-161128571D01*
X200564285Y-161185714D01*
X200564285Y-161271428D01*
X200535714Y-161328571D01*
X200507142Y-161357142D01*
X200450000Y-161385714D01*
X200221428Y-161385714D01*
X200764285Y-161071428D02*
X201135714Y-161071428D01*
X200935714Y-161300000D01*
X201021428Y-161300000D01*
X201078571Y-161328571D01*
X201107142Y-161357142D01*
X201135714Y-161414285D01*
X201135714Y-161557142D01*
X201107142Y-161614285D01*
X201078571Y-161642857D01*
X201021428Y-161671428D01*
X200850000Y-161671428D01*
X200792857Y-161642857D01*
X200764285Y-161614285D01*
X201335714Y-161071428D02*
X201735714Y-161071428D01*
X201478571Y-161671428D01*
%TO.C,R55*%
X141088571Y-167334285D02*
X141374285Y-167134285D01*
X141088571Y-166991428D02*
X141688571Y-166991428D01*
X141688571Y-167220000D01*
X141660000Y-167277142D01*
X141631428Y-167305714D01*
X141574285Y-167334285D01*
X141488571Y-167334285D01*
X141431428Y-167305714D01*
X141402857Y-167277142D01*
X141374285Y-167220000D01*
X141374285Y-166991428D01*
X141688571Y-167877142D02*
X141688571Y-167591428D01*
X141402857Y-167562857D01*
X141431428Y-167591428D01*
X141460000Y-167648571D01*
X141460000Y-167791428D01*
X141431428Y-167848571D01*
X141402857Y-167877142D01*
X141345714Y-167905714D01*
X141202857Y-167905714D01*
X141145714Y-167877142D01*
X141117142Y-167848571D01*
X141088571Y-167791428D01*
X141088571Y-167648571D01*
X141117142Y-167591428D01*
X141145714Y-167562857D01*
X141688571Y-168448571D02*
X141688571Y-168162857D01*
X141402857Y-168134285D01*
X141431428Y-168162857D01*
X141460000Y-168220000D01*
X141460000Y-168362857D01*
X141431428Y-168420000D01*
X141402857Y-168448571D01*
X141345714Y-168477142D01*
X141202857Y-168477142D01*
X141145714Y-168448571D01*
X141117142Y-168420000D01*
X141088571Y-168362857D01*
X141088571Y-168220000D01*
X141117142Y-168162857D01*
X141145714Y-168134285D01*
%TO.C,D3*%
X202957142Y-171641428D02*
X202957142Y-171041428D01*
X203100000Y-171041428D01*
X203185714Y-171070000D01*
X203242857Y-171127142D01*
X203271428Y-171184285D01*
X203300000Y-171298571D01*
X203300000Y-171384285D01*
X203271428Y-171498571D01*
X203242857Y-171555714D01*
X203185714Y-171612857D01*
X203100000Y-171641428D01*
X202957142Y-171641428D01*
X203500000Y-171041428D02*
X203871428Y-171041428D01*
X203671428Y-171270000D01*
X203757142Y-171270000D01*
X203814285Y-171298571D01*
X203842857Y-171327142D01*
X203871428Y-171384285D01*
X203871428Y-171527142D01*
X203842857Y-171584285D01*
X203814285Y-171612857D01*
X203757142Y-171641428D01*
X203585714Y-171641428D01*
X203528571Y-171612857D01*
X203500000Y-171584285D01*
%TO.C,U12*%
X197097142Y-135211428D02*
X197097142Y-135697142D01*
X197125714Y-135754285D01*
X197154285Y-135782857D01*
X197211428Y-135811428D01*
X197325714Y-135811428D01*
X197382857Y-135782857D01*
X197411428Y-135754285D01*
X197440000Y-135697142D01*
X197440000Y-135211428D01*
X198040000Y-135811428D02*
X197697142Y-135811428D01*
X197868571Y-135811428D02*
X197868571Y-135211428D01*
X197811428Y-135297142D01*
X197754285Y-135354285D01*
X197697142Y-135382857D01*
X198268571Y-135268571D02*
X198297142Y-135240000D01*
X198354285Y-135211428D01*
X198497142Y-135211428D01*
X198554285Y-135240000D01*
X198582857Y-135268571D01*
X198611428Y-135325714D01*
X198611428Y-135382857D01*
X198582857Y-135468571D01*
X198240000Y-135811428D01*
X198611428Y-135811428D01*
%TO.C,BTP1*%
X101208571Y-166949142D02*
X101294285Y-166977714D01*
X101322857Y-167006285D01*
X101351428Y-167063428D01*
X101351428Y-167149142D01*
X101322857Y-167206285D01*
X101294285Y-167234857D01*
X101237142Y-167263428D01*
X101008571Y-167263428D01*
X101008571Y-166663428D01*
X101208571Y-166663428D01*
X101265714Y-166692000D01*
X101294285Y-166720571D01*
X101322857Y-166777714D01*
X101322857Y-166834857D01*
X101294285Y-166892000D01*
X101265714Y-166920571D01*
X101208571Y-166949142D01*
X101008571Y-166949142D01*
X101522857Y-166663428D02*
X101865714Y-166663428D01*
X101694285Y-167263428D02*
X101694285Y-166663428D01*
X102065714Y-167263428D02*
X102065714Y-166663428D01*
X102294285Y-166663428D01*
X102351428Y-166692000D01*
X102380000Y-166720571D01*
X102408571Y-166777714D01*
X102408571Y-166863428D01*
X102380000Y-166920571D01*
X102351428Y-166949142D01*
X102294285Y-166977714D01*
X102065714Y-166977714D01*
X102980000Y-167263428D02*
X102637142Y-167263428D01*
X102808571Y-167263428D02*
X102808571Y-166663428D01*
X102751428Y-166749142D01*
X102694285Y-166806285D01*
X102637142Y-166834857D01*
%TO.C,R33*%
X134814285Y-198001428D02*
X134614285Y-197715714D01*
X134471428Y-198001428D02*
X134471428Y-197401428D01*
X134700000Y-197401428D01*
X134757142Y-197430000D01*
X134785714Y-197458571D01*
X134814285Y-197515714D01*
X134814285Y-197601428D01*
X134785714Y-197658571D01*
X134757142Y-197687142D01*
X134700000Y-197715714D01*
X134471428Y-197715714D01*
X135014285Y-197401428D02*
X135385714Y-197401428D01*
X135185714Y-197630000D01*
X135271428Y-197630000D01*
X135328571Y-197658571D01*
X135357142Y-197687142D01*
X135385714Y-197744285D01*
X135385714Y-197887142D01*
X135357142Y-197944285D01*
X135328571Y-197972857D01*
X135271428Y-198001428D01*
X135100000Y-198001428D01*
X135042857Y-197972857D01*
X135014285Y-197944285D01*
X135585714Y-197401428D02*
X135957142Y-197401428D01*
X135757142Y-197630000D01*
X135842857Y-197630000D01*
X135900000Y-197658571D01*
X135928571Y-197687142D01*
X135957142Y-197744285D01*
X135957142Y-197887142D01*
X135928571Y-197944285D01*
X135900000Y-197972857D01*
X135842857Y-198001428D01*
X135671428Y-198001428D01*
X135614285Y-197972857D01*
X135585714Y-197944285D01*
%TO.C,U3*%
X122422857Y-187311428D02*
X122422857Y-187797142D01*
X122451428Y-187854285D01*
X122480000Y-187882857D01*
X122537142Y-187911428D01*
X122651428Y-187911428D01*
X122708571Y-187882857D01*
X122737142Y-187854285D01*
X122765714Y-187797142D01*
X122765714Y-187311428D01*
X122994285Y-187311428D02*
X123365714Y-187311428D01*
X123165714Y-187540000D01*
X123251428Y-187540000D01*
X123308571Y-187568571D01*
X123337142Y-187597142D01*
X123365714Y-187654285D01*
X123365714Y-187797142D01*
X123337142Y-187854285D01*
X123308571Y-187882857D01*
X123251428Y-187911428D01*
X123080000Y-187911428D01*
X123022857Y-187882857D01*
X122994285Y-187854285D01*
%TO.C,C31*%
X129414285Y-178334285D02*
X129385714Y-178362857D01*
X129300000Y-178391428D01*
X129242857Y-178391428D01*
X129157142Y-178362857D01*
X129100000Y-178305714D01*
X129071428Y-178248571D01*
X129042857Y-178134285D01*
X129042857Y-178048571D01*
X129071428Y-177934285D01*
X129100000Y-177877142D01*
X129157142Y-177820000D01*
X129242857Y-177791428D01*
X129300000Y-177791428D01*
X129385714Y-177820000D01*
X129414285Y-177848571D01*
X129614285Y-177791428D02*
X129985714Y-177791428D01*
X129785714Y-178020000D01*
X129871428Y-178020000D01*
X129928571Y-178048571D01*
X129957142Y-178077142D01*
X129985714Y-178134285D01*
X129985714Y-178277142D01*
X129957142Y-178334285D01*
X129928571Y-178362857D01*
X129871428Y-178391428D01*
X129700000Y-178391428D01*
X129642857Y-178362857D01*
X129614285Y-178334285D01*
X130557142Y-178391428D02*
X130214285Y-178391428D01*
X130385714Y-178391428D02*
X130385714Y-177791428D01*
X130328571Y-177877142D01*
X130271428Y-177934285D01*
X130214285Y-177962857D01*
%TO.C,BTM3*%
X159655714Y-156727142D02*
X159741428Y-156755714D01*
X159770000Y-156784285D01*
X159798571Y-156841428D01*
X159798571Y-156927142D01*
X159770000Y-156984285D01*
X159741428Y-157012857D01*
X159684285Y-157041428D01*
X159455714Y-157041428D01*
X159455714Y-156441428D01*
X159655714Y-156441428D01*
X159712857Y-156470000D01*
X159741428Y-156498571D01*
X159770000Y-156555714D01*
X159770000Y-156612857D01*
X159741428Y-156670000D01*
X159712857Y-156698571D01*
X159655714Y-156727142D01*
X159455714Y-156727142D01*
X159970000Y-156441428D02*
X160312857Y-156441428D01*
X160141428Y-157041428D02*
X160141428Y-156441428D01*
X160512857Y-157041428D02*
X160512857Y-156441428D01*
X160712857Y-156870000D01*
X160912857Y-156441428D01*
X160912857Y-157041428D01*
X161141428Y-156441428D02*
X161512857Y-156441428D01*
X161312857Y-156670000D01*
X161398571Y-156670000D01*
X161455714Y-156698571D01*
X161484285Y-156727142D01*
X161512857Y-156784285D01*
X161512857Y-156927142D01*
X161484285Y-156984285D01*
X161455714Y-157012857D01*
X161398571Y-157041428D01*
X161227142Y-157041428D01*
X161170000Y-157012857D01*
X161141428Y-156984285D01*
%TO.C,C9*%
X134710000Y-194804285D02*
X134681428Y-194832857D01*
X134595714Y-194861428D01*
X134538571Y-194861428D01*
X134452857Y-194832857D01*
X134395714Y-194775714D01*
X134367142Y-194718571D01*
X134338571Y-194604285D01*
X134338571Y-194518571D01*
X134367142Y-194404285D01*
X134395714Y-194347142D01*
X134452857Y-194290000D01*
X134538571Y-194261428D01*
X134595714Y-194261428D01*
X134681428Y-194290000D01*
X134710000Y-194318571D01*
X134995714Y-194861428D02*
X135110000Y-194861428D01*
X135167142Y-194832857D01*
X135195714Y-194804285D01*
X135252857Y-194718571D01*
X135281428Y-194604285D01*
X135281428Y-194375714D01*
X135252857Y-194318571D01*
X135224285Y-194290000D01*
X135167142Y-194261428D01*
X135052857Y-194261428D01*
X134995714Y-194290000D01*
X134967142Y-194318571D01*
X134938571Y-194375714D01*
X134938571Y-194518571D01*
X134967142Y-194575714D01*
X134995714Y-194604285D01*
X135052857Y-194632857D01*
X135167142Y-194632857D01*
X135224285Y-194604285D01*
X135252857Y-194575714D01*
X135281428Y-194518571D01*
%TO.C,C29*%
X133894285Y-161624285D02*
X133865714Y-161652857D01*
X133780000Y-161681428D01*
X133722857Y-161681428D01*
X133637142Y-161652857D01*
X133580000Y-161595714D01*
X133551428Y-161538571D01*
X133522857Y-161424285D01*
X133522857Y-161338571D01*
X133551428Y-161224285D01*
X133580000Y-161167142D01*
X133637142Y-161110000D01*
X133722857Y-161081428D01*
X133780000Y-161081428D01*
X133865714Y-161110000D01*
X133894285Y-161138571D01*
X134122857Y-161138571D02*
X134151428Y-161110000D01*
X134208571Y-161081428D01*
X134351428Y-161081428D01*
X134408571Y-161110000D01*
X134437142Y-161138571D01*
X134465714Y-161195714D01*
X134465714Y-161252857D01*
X134437142Y-161338571D01*
X134094285Y-161681428D01*
X134465714Y-161681428D01*
X134751428Y-161681428D02*
X134865714Y-161681428D01*
X134922857Y-161652857D01*
X134951428Y-161624285D01*
X135008571Y-161538571D01*
X135037142Y-161424285D01*
X135037142Y-161195714D01*
X135008571Y-161138571D01*
X134980000Y-161110000D01*
X134922857Y-161081428D01*
X134808571Y-161081428D01*
X134751428Y-161110000D01*
X134722857Y-161138571D01*
X134694285Y-161195714D01*
X134694285Y-161338571D01*
X134722857Y-161395714D01*
X134751428Y-161424285D01*
X134808571Y-161452857D01*
X134922857Y-161452857D01*
X134980000Y-161424285D01*
X135008571Y-161395714D01*
X135037142Y-161338571D01*
%TO.C,LED6*%
X196078571Y-157921428D02*
X195792857Y-157921428D01*
X195792857Y-157321428D01*
X196278571Y-157607142D02*
X196478571Y-157607142D01*
X196564285Y-157921428D02*
X196278571Y-157921428D01*
X196278571Y-157321428D01*
X196564285Y-157321428D01*
X196821428Y-157921428D02*
X196821428Y-157321428D01*
X196964285Y-157321428D01*
X197050000Y-157350000D01*
X197107142Y-157407142D01*
X197135714Y-157464285D01*
X197164285Y-157578571D01*
X197164285Y-157664285D01*
X197135714Y-157778571D01*
X197107142Y-157835714D01*
X197050000Y-157892857D01*
X196964285Y-157921428D01*
X196821428Y-157921428D01*
X197678571Y-157321428D02*
X197564285Y-157321428D01*
X197507142Y-157350000D01*
X197478571Y-157378571D01*
X197421428Y-157464285D01*
X197392857Y-157578571D01*
X197392857Y-157807142D01*
X197421428Y-157864285D01*
X197450000Y-157892857D01*
X197507142Y-157921428D01*
X197621428Y-157921428D01*
X197678571Y-157892857D01*
X197707142Y-157864285D01*
X197735714Y-157807142D01*
X197735714Y-157664285D01*
X197707142Y-157607142D01*
X197678571Y-157578571D01*
X197621428Y-157550000D01*
X197507142Y-157550000D01*
X197450000Y-157578571D01*
X197421428Y-157607142D01*
X197392857Y-157664285D01*
%TO.C,R42*%
X138094285Y-181181428D02*
X137894285Y-180895714D01*
X137751428Y-181181428D02*
X137751428Y-180581428D01*
X137980000Y-180581428D01*
X138037142Y-180610000D01*
X138065714Y-180638571D01*
X138094285Y-180695714D01*
X138094285Y-180781428D01*
X138065714Y-180838571D01*
X138037142Y-180867142D01*
X137980000Y-180895714D01*
X137751428Y-180895714D01*
X138608571Y-180781428D02*
X138608571Y-181181428D01*
X138465714Y-180552857D02*
X138322857Y-180981428D01*
X138694285Y-180981428D01*
X138894285Y-180638571D02*
X138922857Y-180610000D01*
X138980000Y-180581428D01*
X139122857Y-180581428D01*
X139180000Y-180610000D01*
X139208571Y-180638571D01*
X139237142Y-180695714D01*
X139237142Y-180752857D01*
X139208571Y-180838571D01*
X138865714Y-181181428D01*
X139237142Y-181181428D01*
%TO.C,C25*%
X196544285Y-131604285D02*
X196515714Y-131632857D01*
X196430000Y-131661428D01*
X196372857Y-131661428D01*
X196287142Y-131632857D01*
X196230000Y-131575714D01*
X196201428Y-131518571D01*
X196172857Y-131404285D01*
X196172857Y-131318571D01*
X196201428Y-131204285D01*
X196230000Y-131147142D01*
X196287142Y-131090000D01*
X196372857Y-131061428D01*
X196430000Y-131061428D01*
X196515714Y-131090000D01*
X196544285Y-131118571D01*
X196772857Y-131118571D02*
X196801428Y-131090000D01*
X196858571Y-131061428D01*
X197001428Y-131061428D01*
X197058571Y-131090000D01*
X197087142Y-131118571D01*
X197115714Y-131175714D01*
X197115714Y-131232857D01*
X197087142Y-131318571D01*
X196744285Y-131661428D01*
X197115714Y-131661428D01*
X197658571Y-131061428D02*
X197372857Y-131061428D01*
X197344285Y-131347142D01*
X197372857Y-131318571D01*
X197430000Y-131290000D01*
X197572857Y-131290000D01*
X197630000Y-131318571D01*
X197658571Y-131347142D01*
X197687142Y-131404285D01*
X197687142Y-131547142D01*
X197658571Y-131604285D01*
X197630000Y-131632857D01*
X197572857Y-131661428D01*
X197430000Y-131661428D01*
X197372857Y-131632857D01*
X197344285Y-131604285D01*
%TO.C,C1*%
X135620000Y-185074285D02*
X135591428Y-185102857D01*
X135505714Y-185131428D01*
X135448571Y-185131428D01*
X135362857Y-185102857D01*
X135305714Y-185045714D01*
X135277142Y-184988571D01*
X135248571Y-184874285D01*
X135248571Y-184788571D01*
X135277142Y-184674285D01*
X135305714Y-184617142D01*
X135362857Y-184560000D01*
X135448571Y-184531428D01*
X135505714Y-184531428D01*
X135591428Y-184560000D01*
X135620000Y-184588571D01*
X136191428Y-185131428D02*
X135848571Y-185131428D01*
X136020000Y-185131428D02*
X136020000Y-184531428D01*
X135962857Y-184617142D01*
X135905714Y-184674285D01*
X135848571Y-184702857D01*
%TO.C,C10*%
X204014285Y-147524285D02*
X203985714Y-147552857D01*
X203900000Y-147581428D01*
X203842857Y-147581428D01*
X203757142Y-147552857D01*
X203700000Y-147495714D01*
X203671428Y-147438571D01*
X203642857Y-147324285D01*
X203642857Y-147238571D01*
X203671428Y-147124285D01*
X203700000Y-147067142D01*
X203757142Y-147010000D01*
X203842857Y-146981428D01*
X203900000Y-146981428D01*
X203985714Y-147010000D01*
X204014285Y-147038571D01*
X204585714Y-147581428D02*
X204242857Y-147581428D01*
X204414285Y-147581428D02*
X204414285Y-146981428D01*
X204357142Y-147067142D01*
X204300000Y-147124285D01*
X204242857Y-147152857D01*
X204957142Y-146981428D02*
X205014285Y-146981428D01*
X205071428Y-147010000D01*
X205100000Y-147038571D01*
X205128571Y-147095714D01*
X205157142Y-147210000D01*
X205157142Y-147352857D01*
X205128571Y-147467142D01*
X205100000Y-147524285D01*
X205071428Y-147552857D01*
X205014285Y-147581428D01*
X204957142Y-147581428D01*
X204900000Y-147552857D01*
X204871428Y-147524285D01*
X204842857Y-147467142D01*
X204814285Y-147352857D01*
X204814285Y-147210000D01*
X204842857Y-147095714D01*
X204871428Y-147038571D01*
X204900000Y-147010000D01*
X204957142Y-146981428D01*
%TO.C,C35*%
X140794285Y-174134285D02*
X140765714Y-174162857D01*
X140680000Y-174191428D01*
X140622857Y-174191428D01*
X140537142Y-174162857D01*
X140480000Y-174105714D01*
X140451428Y-174048571D01*
X140422857Y-173934285D01*
X140422857Y-173848571D01*
X140451428Y-173734285D01*
X140480000Y-173677142D01*
X140537142Y-173620000D01*
X140622857Y-173591428D01*
X140680000Y-173591428D01*
X140765714Y-173620000D01*
X140794285Y-173648571D01*
X140994285Y-173591428D02*
X141365714Y-173591428D01*
X141165714Y-173820000D01*
X141251428Y-173820000D01*
X141308571Y-173848571D01*
X141337142Y-173877142D01*
X141365714Y-173934285D01*
X141365714Y-174077142D01*
X141337142Y-174134285D01*
X141308571Y-174162857D01*
X141251428Y-174191428D01*
X141080000Y-174191428D01*
X141022857Y-174162857D01*
X140994285Y-174134285D01*
X141908571Y-173591428D02*
X141622857Y-173591428D01*
X141594285Y-173877142D01*
X141622857Y-173848571D01*
X141680000Y-173820000D01*
X141822857Y-173820000D01*
X141880000Y-173848571D01*
X141908571Y-173877142D01*
X141937142Y-173934285D01*
X141937142Y-174077142D01*
X141908571Y-174134285D01*
X141880000Y-174162857D01*
X141822857Y-174191428D01*
X141680000Y-174191428D01*
X141622857Y-174162857D01*
X141594285Y-174134285D01*
%TO.C,C36*%
X190674285Y-144734285D02*
X190645714Y-144762857D01*
X190560000Y-144791428D01*
X190502857Y-144791428D01*
X190417142Y-144762857D01*
X190360000Y-144705714D01*
X190331428Y-144648571D01*
X190302857Y-144534285D01*
X190302857Y-144448571D01*
X190331428Y-144334285D01*
X190360000Y-144277142D01*
X190417142Y-144220000D01*
X190502857Y-144191428D01*
X190560000Y-144191428D01*
X190645714Y-144220000D01*
X190674285Y-144248571D01*
X190874285Y-144191428D02*
X191245714Y-144191428D01*
X191045714Y-144420000D01*
X191131428Y-144420000D01*
X191188571Y-144448571D01*
X191217142Y-144477142D01*
X191245714Y-144534285D01*
X191245714Y-144677142D01*
X191217142Y-144734285D01*
X191188571Y-144762857D01*
X191131428Y-144791428D01*
X190960000Y-144791428D01*
X190902857Y-144762857D01*
X190874285Y-144734285D01*
X191760000Y-144191428D02*
X191645714Y-144191428D01*
X191588571Y-144220000D01*
X191560000Y-144248571D01*
X191502857Y-144334285D01*
X191474285Y-144448571D01*
X191474285Y-144677142D01*
X191502857Y-144734285D01*
X191531428Y-144762857D01*
X191588571Y-144791428D01*
X191702857Y-144791428D01*
X191760000Y-144762857D01*
X191788571Y-144734285D01*
X191817142Y-144677142D01*
X191817142Y-144534285D01*
X191788571Y-144477142D01*
X191760000Y-144448571D01*
X191702857Y-144420000D01*
X191588571Y-144420000D01*
X191531428Y-144448571D01*
X191502857Y-144477142D01*
X191474285Y-144534285D01*
%TO.C,C34*%
X195534285Y-144834285D02*
X195505714Y-144862857D01*
X195420000Y-144891428D01*
X195362857Y-144891428D01*
X195277142Y-144862857D01*
X195220000Y-144805714D01*
X195191428Y-144748571D01*
X195162857Y-144634285D01*
X195162857Y-144548571D01*
X195191428Y-144434285D01*
X195220000Y-144377142D01*
X195277142Y-144320000D01*
X195362857Y-144291428D01*
X195420000Y-144291428D01*
X195505714Y-144320000D01*
X195534285Y-144348571D01*
X195734285Y-144291428D02*
X196105714Y-144291428D01*
X195905714Y-144520000D01*
X195991428Y-144520000D01*
X196048571Y-144548571D01*
X196077142Y-144577142D01*
X196105714Y-144634285D01*
X196105714Y-144777142D01*
X196077142Y-144834285D01*
X196048571Y-144862857D01*
X195991428Y-144891428D01*
X195820000Y-144891428D01*
X195762857Y-144862857D01*
X195734285Y-144834285D01*
X196620000Y-144491428D02*
X196620000Y-144891428D01*
X196477142Y-144262857D02*
X196334285Y-144691428D01*
X196705714Y-144691428D01*
%TO.C,C30*%
X189414285Y-149334285D02*
X189385714Y-149362857D01*
X189300000Y-149391428D01*
X189242857Y-149391428D01*
X189157142Y-149362857D01*
X189100000Y-149305714D01*
X189071428Y-149248571D01*
X189042857Y-149134285D01*
X189042857Y-149048571D01*
X189071428Y-148934285D01*
X189100000Y-148877142D01*
X189157142Y-148820000D01*
X189242857Y-148791428D01*
X189300000Y-148791428D01*
X189385714Y-148820000D01*
X189414285Y-148848571D01*
X189614285Y-148791428D02*
X189985714Y-148791428D01*
X189785714Y-149020000D01*
X189871428Y-149020000D01*
X189928571Y-149048571D01*
X189957142Y-149077142D01*
X189985714Y-149134285D01*
X189985714Y-149277142D01*
X189957142Y-149334285D01*
X189928571Y-149362857D01*
X189871428Y-149391428D01*
X189700000Y-149391428D01*
X189642857Y-149362857D01*
X189614285Y-149334285D01*
X190357142Y-148791428D02*
X190414285Y-148791428D01*
X190471428Y-148820000D01*
X190500000Y-148848571D01*
X190528571Y-148905714D01*
X190557142Y-149020000D01*
X190557142Y-149162857D01*
X190528571Y-149277142D01*
X190500000Y-149334285D01*
X190471428Y-149362857D01*
X190414285Y-149391428D01*
X190357142Y-149391428D01*
X190300000Y-149362857D01*
X190271428Y-149334285D01*
X190242857Y-149277142D01*
X190214285Y-149162857D01*
X190214285Y-149020000D01*
X190242857Y-148905714D01*
X190271428Y-148848571D01*
X190300000Y-148820000D01*
X190357142Y-148791428D01*
%TO.C,U9*%
X190442857Y-188401428D02*
X190442857Y-188887142D01*
X190471428Y-188944285D01*
X190500000Y-188972857D01*
X190557142Y-189001428D01*
X190671428Y-189001428D01*
X190728571Y-188972857D01*
X190757142Y-188944285D01*
X190785714Y-188887142D01*
X190785714Y-188401428D01*
X191100000Y-189001428D02*
X191214285Y-189001428D01*
X191271428Y-188972857D01*
X191300000Y-188944285D01*
X191357142Y-188858571D01*
X191385714Y-188744285D01*
X191385714Y-188515714D01*
X191357142Y-188458571D01*
X191328571Y-188430000D01*
X191271428Y-188401428D01*
X191157142Y-188401428D01*
X191100000Y-188430000D01*
X191071428Y-188458571D01*
X191042857Y-188515714D01*
X191042857Y-188658571D01*
X191071428Y-188715714D01*
X191100000Y-188744285D01*
X191157142Y-188772857D01*
X191271428Y-188772857D01*
X191328571Y-188744285D01*
X191357142Y-188715714D01*
X191385714Y-188658571D01*
%TO.C,C21*%
X136964285Y-187864285D02*
X136935714Y-187892857D01*
X136850000Y-187921428D01*
X136792857Y-187921428D01*
X136707142Y-187892857D01*
X136650000Y-187835714D01*
X136621428Y-187778571D01*
X136592857Y-187664285D01*
X136592857Y-187578571D01*
X136621428Y-187464285D01*
X136650000Y-187407142D01*
X136707142Y-187350000D01*
X136792857Y-187321428D01*
X136850000Y-187321428D01*
X136935714Y-187350000D01*
X136964285Y-187378571D01*
X137192857Y-187378571D02*
X137221428Y-187350000D01*
X137278571Y-187321428D01*
X137421428Y-187321428D01*
X137478571Y-187350000D01*
X137507142Y-187378571D01*
X137535714Y-187435714D01*
X137535714Y-187492857D01*
X137507142Y-187578571D01*
X137164285Y-187921428D01*
X137535714Y-187921428D01*
X138107142Y-187921428D02*
X137764285Y-187921428D01*
X137935714Y-187921428D02*
X137935714Y-187321428D01*
X137878571Y-187407142D01*
X137821428Y-187464285D01*
X137764285Y-187492857D01*
%TO.C,R43*%
X139794285Y-185451428D02*
X139594285Y-185165714D01*
X139451428Y-185451428D02*
X139451428Y-184851428D01*
X139680000Y-184851428D01*
X139737142Y-184880000D01*
X139765714Y-184908571D01*
X139794285Y-184965714D01*
X139794285Y-185051428D01*
X139765714Y-185108571D01*
X139737142Y-185137142D01*
X139680000Y-185165714D01*
X139451428Y-185165714D01*
X140308571Y-185051428D02*
X140308571Y-185451428D01*
X140165714Y-184822857D02*
X140022857Y-185251428D01*
X140394285Y-185251428D01*
X140565714Y-184851428D02*
X140937142Y-184851428D01*
X140737142Y-185080000D01*
X140822857Y-185080000D01*
X140880000Y-185108571D01*
X140908571Y-185137142D01*
X140937142Y-185194285D01*
X140937142Y-185337142D01*
X140908571Y-185394285D01*
X140880000Y-185422857D01*
X140822857Y-185451428D01*
X140651428Y-185451428D01*
X140594285Y-185422857D01*
X140565714Y-185394285D01*
%TO.C,R47*%
X137034285Y-189711428D02*
X136834285Y-189425714D01*
X136691428Y-189711428D02*
X136691428Y-189111428D01*
X136920000Y-189111428D01*
X136977142Y-189140000D01*
X137005714Y-189168571D01*
X137034285Y-189225714D01*
X137034285Y-189311428D01*
X137005714Y-189368571D01*
X136977142Y-189397142D01*
X136920000Y-189425714D01*
X136691428Y-189425714D01*
X137548571Y-189311428D02*
X137548571Y-189711428D01*
X137405714Y-189082857D02*
X137262857Y-189511428D01*
X137634285Y-189511428D01*
X137805714Y-189111428D02*
X138205714Y-189111428D01*
X137948571Y-189711428D01*
%TO.C,C26*%
X133354285Y-164624285D02*
X133325714Y-164652857D01*
X133240000Y-164681428D01*
X133182857Y-164681428D01*
X133097142Y-164652857D01*
X133040000Y-164595714D01*
X133011428Y-164538571D01*
X132982857Y-164424285D01*
X132982857Y-164338571D01*
X133011428Y-164224285D01*
X133040000Y-164167142D01*
X133097142Y-164110000D01*
X133182857Y-164081428D01*
X133240000Y-164081428D01*
X133325714Y-164110000D01*
X133354285Y-164138571D01*
X133582857Y-164138571D02*
X133611428Y-164110000D01*
X133668571Y-164081428D01*
X133811428Y-164081428D01*
X133868571Y-164110000D01*
X133897142Y-164138571D01*
X133925714Y-164195714D01*
X133925714Y-164252857D01*
X133897142Y-164338571D01*
X133554285Y-164681428D01*
X133925714Y-164681428D01*
X134440000Y-164081428D02*
X134325714Y-164081428D01*
X134268571Y-164110000D01*
X134240000Y-164138571D01*
X134182857Y-164224285D01*
X134154285Y-164338571D01*
X134154285Y-164567142D01*
X134182857Y-164624285D01*
X134211428Y-164652857D01*
X134268571Y-164681428D01*
X134382857Y-164681428D01*
X134440000Y-164652857D01*
X134468571Y-164624285D01*
X134497142Y-164567142D01*
X134497142Y-164424285D01*
X134468571Y-164367142D01*
X134440000Y-164338571D01*
X134382857Y-164310000D01*
X134268571Y-164310000D01*
X134211428Y-164338571D01*
X134182857Y-164367142D01*
X134154285Y-164424285D01*
%TO.C,U5*%
X177082857Y-165671428D02*
X177082857Y-166157142D01*
X177111428Y-166214285D01*
X177140000Y-166242857D01*
X177197142Y-166271428D01*
X177311428Y-166271428D01*
X177368571Y-166242857D01*
X177397142Y-166214285D01*
X177425714Y-166157142D01*
X177425714Y-165671428D01*
X177997142Y-165671428D02*
X177711428Y-165671428D01*
X177682857Y-165957142D01*
X177711428Y-165928571D01*
X177768571Y-165900000D01*
X177911428Y-165900000D01*
X177968571Y-165928571D01*
X177997142Y-165957142D01*
X178025714Y-166014285D01*
X178025714Y-166157142D01*
X177997142Y-166214285D01*
X177968571Y-166242857D01*
X177911428Y-166271428D01*
X177768571Y-166271428D01*
X177711428Y-166242857D01*
X177682857Y-166214285D01*
%TO.C,Y1*%
X121694285Y-164885714D02*
X121694285Y-165171428D01*
X121494285Y-164571428D02*
X121694285Y-164885714D01*
X121894285Y-164571428D01*
X122408571Y-165171428D02*
X122065714Y-165171428D01*
X122237142Y-165171428D02*
X122237142Y-164571428D01*
X122180000Y-164657142D01*
X122122857Y-164714285D01*
X122065714Y-164742857D01*
%TO.C,P1*%
X201877142Y-133321428D02*
X201877142Y-132721428D01*
X202105714Y-132721428D01*
X202162857Y-132750000D01*
X202191428Y-132778571D01*
X202220000Y-132835714D01*
X202220000Y-132921428D01*
X202191428Y-132978571D01*
X202162857Y-133007142D01*
X202105714Y-133035714D01*
X201877142Y-133035714D01*
X202791428Y-133321428D02*
X202448571Y-133321428D01*
X202620000Y-133321428D02*
X202620000Y-132721428D01*
X202562857Y-132807142D01*
X202505714Y-132864285D01*
X202448571Y-132892857D01*
%TO.C,R36*%
X203004285Y-152621428D02*
X202804285Y-152335714D01*
X202661428Y-152621428D02*
X202661428Y-152021428D01*
X202890000Y-152021428D01*
X202947142Y-152050000D01*
X202975714Y-152078571D01*
X203004285Y-152135714D01*
X203004285Y-152221428D01*
X202975714Y-152278571D01*
X202947142Y-152307142D01*
X202890000Y-152335714D01*
X202661428Y-152335714D01*
X203204285Y-152021428D02*
X203575714Y-152021428D01*
X203375714Y-152250000D01*
X203461428Y-152250000D01*
X203518571Y-152278571D01*
X203547142Y-152307142D01*
X203575714Y-152364285D01*
X203575714Y-152507142D01*
X203547142Y-152564285D01*
X203518571Y-152592857D01*
X203461428Y-152621428D01*
X203290000Y-152621428D01*
X203232857Y-152592857D01*
X203204285Y-152564285D01*
X204090000Y-152021428D02*
X203975714Y-152021428D01*
X203918571Y-152050000D01*
X203890000Y-152078571D01*
X203832857Y-152164285D01*
X203804285Y-152278571D01*
X203804285Y-152507142D01*
X203832857Y-152564285D01*
X203861428Y-152592857D01*
X203918571Y-152621428D01*
X204032857Y-152621428D01*
X204090000Y-152592857D01*
X204118571Y-152564285D01*
X204147142Y-152507142D01*
X204147142Y-152364285D01*
X204118571Y-152307142D01*
X204090000Y-152278571D01*
X204032857Y-152250000D01*
X203918571Y-152250000D01*
X203861428Y-152278571D01*
X203832857Y-152307142D01*
X203804285Y-152364285D01*
%TO.C,C23*%
X119824285Y-170274285D02*
X119795714Y-170302857D01*
X119710000Y-170331428D01*
X119652857Y-170331428D01*
X119567142Y-170302857D01*
X119510000Y-170245714D01*
X119481428Y-170188571D01*
X119452857Y-170074285D01*
X119452857Y-169988571D01*
X119481428Y-169874285D01*
X119510000Y-169817142D01*
X119567142Y-169760000D01*
X119652857Y-169731428D01*
X119710000Y-169731428D01*
X119795714Y-169760000D01*
X119824285Y-169788571D01*
X120052857Y-169788571D02*
X120081428Y-169760000D01*
X120138571Y-169731428D01*
X120281428Y-169731428D01*
X120338571Y-169760000D01*
X120367142Y-169788571D01*
X120395714Y-169845714D01*
X120395714Y-169902857D01*
X120367142Y-169988571D01*
X120024285Y-170331428D01*
X120395714Y-170331428D01*
X120595714Y-169731428D02*
X120967142Y-169731428D01*
X120767142Y-169960000D01*
X120852857Y-169960000D01*
X120910000Y-169988571D01*
X120938571Y-170017142D01*
X120967142Y-170074285D01*
X120967142Y-170217142D01*
X120938571Y-170274285D01*
X120910000Y-170302857D01*
X120852857Y-170331428D01*
X120681428Y-170331428D01*
X120624285Y-170302857D01*
X120595714Y-170274285D01*
%TO.C,LED7*%
X188178571Y-159511428D02*
X187892857Y-159511428D01*
X187892857Y-158911428D01*
X188378571Y-159197142D02*
X188578571Y-159197142D01*
X188664285Y-159511428D02*
X188378571Y-159511428D01*
X188378571Y-158911428D01*
X188664285Y-158911428D01*
X188921428Y-159511428D02*
X188921428Y-158911428D01*
X189064285Y-158911428D01*
X189150000Y-158940000D01*
X189207142Y-158997142D01*
X189235714Y-159054285D01*
X189264285Y-159168571D01*
X189264285Y-159254285D01*
X189235714Y-159368571D01*
X189207142Y-159425714D01*
X189150000Y-159482857D01*
X189064285Y-159511428D01*
X188921428Y-159511428D01*
X189464285Y-158911428D02*
X189864285Y-158911428D01*
X189607142Y-159511428D01*
%TO.C,R52*%
X140834285Y-172961428D02*
X140634285Y-172675714D01*
X140491428Y-172961428D02*
X140491428Y-172361428D01*
X140720000Y-172361428D01*
X140777142Y-172390000D01*
X140805714Y-172418571D01*
X140834285Y-172475714D01*
X140834285Y-172561428D01*
X140805714Y-172618571D01*
X140777142Y-172647142D01*
X140720000Y-172675714D01*
X140491428Y-172675714D01*
X141377142Y-172361428D02*
X141091428Y-172361428D01*
X141062857Y-172647142D01*
X141091428Y-172618571D01*
X141148571Y-172590000D01*
X141291428Y-172590000D01*
X141348571Y-172618571D01*
X141377142Y-172647142D01*
X141405714Y-172704285D01*
X141405714Y-172847142D01*
X141377142Y-172904285D01*
X141348571Y-172932857D01*
X141291428Y-172961428D01*
X141148571Y-172961428D01*
X141091428Y-172932857D01*
X141062857Y-172904285D01*
X141634285Y-172418571D02*
X141662857Y-172390000D01*
X141720000Y-172361428D01*
X141862857Y-172361428D01*
X141920000Y-172390000D01*
X141948571Y-172418571D01*
X141977142Y-172475714D01*
X141977142Y-172532857D01*
X141948571Y-172618571D01*
X141605714Y-172961428D01*
X141977142Y-172961428D01*
%TO.C,R46*%
X201934285Y-155641428D02*
X201734285Y-155355714D01*
X201591428Y-155641428D02*
X201591428Y-155041428D01*
X201820000Y-155041428D01*
X201877142Y-155070000D01*
X201905714Y-155098571D01*
X201934285Y-155155714D01*
X201934285Y-155241428D01*
X201905714Y-155298571D01*
X201877142Y-155327142D01*
X201820000Y-155355714D01*
X201591428Y-155355714D01*
X202448571Y-155241428D02*
X202448571Y-155641428D01*
X202305714Y-155012857D02*
X202162857Y-155441428D01*
X202534285Y-155441428D01*
X203020000Y-155041428D02*
X202905714Y-155041428D01*
X202848571Y-155070000D01*
X202820000Y-155098571D01*
X202762857Y-155184285D01*
X202734285Y-155298571D01*
X202734285Y-155527142D01*
X202762857Y-155584285D01*
X202791428Y-155612857D01*
X202848571Y-155641428D01*
X202962857Y-155641428D01*
X203020000Y-155612857D01*
X203048571Y-155584285D01*
X203077142Y-155527142D01*
X203077142Y-155384285D01*
X203048571Y-155327142D01*
X203020000Y-155298571D01*
X202962857Y-155270000D01*
X202848571Y-155270000D01*
X202791428Y-155298571D01*
X202762857Y-155327142D01*
X202734285Y-155384285D01*
%TO.C,C24*%
X131584285Y-161304285D02*
X131555714Y-161332857D01*
X131470000Y-161361428D01*
X131412857Y-161361428D01*
X131327142Y-161332857D01*
X131270000Y-161275714D01*
X131241428Y-161218571D01*
X131212857Y-161104285D01*
X131212857Y-161018571D01*
X131241428Y-160904285D01*
X131270000Y-160847142D01*
X131327142Y-160790000D01*
X131412857Y-160761428D01*
X131470000Y-160761428D01*
X131555714Y-160790000D01*
X131584285Y-160818571D01*
X131812857Y-160818571D02*
X131841428Y-160790000D01*
X131898571Y-160761428D01*
X132041428Y-160761428D01*
X132098571Y-160790000D01*
X132127142Y-160818571D01*
X132155714Y-160875714D01*
X132155714Y-160932857D01*
X132127142Y-161018571D01*
X131784285Y-161361428D01*
X132155714Y-161361428D01*
X132670000Y-160961428D02*
X132670000Y-161361428D01*
X132527142Y-160732857D02*
X132384285Y-161161428D01*
X132755714Y-161161428D01*
%TO.C,R40*%
X203424285Y-158561428D02*
X203224285Y-158275714D01*
X203081428Y-158561428D02*
X203081428Y-157961428D01*
X203310000Y-157961428D01*
X203367142Y-157990000D01*
X203395714Y-158018571D01*
X203424285Y-158075714D01*
X203424285Y-158161428D01*
X203395714Y-158218571D01*
X203367142Y-158247142D01*
X203310000Y-158275714D01*
X203081428Y-158275714D01*
X203938571Y-158161428D02*
X203938571Y-158561428D01*
X203795714Y-157932857D02*
X203652857Y-158361428D01*
X204024285Y-158361428D01*
X204367142Y-157961428D02*
X204424285Y-157961428D01*
X204481428Y-157990000D01*
X204510000Y-158018571D01*
X204538571Y-158075714D01*
X204567142Y-158190000D01*
X204567142Y-158332857D01*
X204538571Y-158447142D01*
X204510000Y-158504285D01*
X204481428Y-158532857D01*
X204424285Y-158561428D01*
X204367142Y-158561428D01*
X204310000Y-158532857D01*
X204281428Y-158504285D01*
X204252857Y-158447142D01*
X204224285Y-158332857D01*
X204224285Y-158190000D01*
X204252857Y-158075714D01*
X204281428Y-158018571D01*
X204310000Y-157990000D01*
X204367142Y-157961428D01*
%TO.C,R53*%
X138994285Y-164501428D02*
X138794285Y-164215714D01*
X138651428Y-164501428D02*
X138651428Y-163901428D01*
X138880000Y-163901428D01*
X138937142Y-163930000D01*
X138965714Y-163958571D01*
X138994285Y-164015714D01*
X138994285Y-164101428D01*
X138965714Y-164158571D01*
X138937142Y-164187142D01*
X138880000Y-164215714D01*
X138651428Y-164215714D01*
X139537142Y-163901428D02*
X139251428Y-163901428D01*
X139222857Y-164187142D01*
X139251428Y-164158571D01*
X139308571Y-164130000D01*
X139451428Y-164130000D01*
X139508571Y-164158571D01*
X139537142Y-164187142D01*
X139565714Y-164244285D01*
X139565714Y-164387142D01*
X139537142Y-164444285D01*
X139508571Y-164472857D01*
X139451428Y-164501428D01*
X139308571Y-164501428D01*
X139251428Y-164472857D01*
X139222857Y-164444285D01*
X139765714Y-163901428D02*
X140137142Y-163901428D01*
X139937142Y-164130000D01*
X140022857Y-164130000D01*
X140080000Y-164158571D01*
X140108571Y-164187142D01*
X140137142Y-164244285D01*
X140137142Y-164387142D01*
X140108571Y-164444285D01*
X140080000Y-164472857D01*
X140022857Y-164501428D01*
X139851428Y-164501428D01*
X139794285Y-164472857D01*
X139765714Y-164444285D01*
%TO.C,R30*%
X136154285Y-183351428D02*
X135954285Y-183065714D01*
X135811428Y-183351428D02*
X135811428Y-182751428D01*
X136040000Y-182751428D01*
X136097142Y-182780000D01*
X136125714Y-182808571D01*
X136154285Y-182865714D01*
X136154285Y-182951428D01*
X136125714Y-183008571D01*
X136097142Y-183037142D01*
X136040000Y-183065714D01*
X135811428Y-183065714D01*
X136354285Y-182751428D02*
X136725714Y-182751428D01*
X136525714Y-182980000D01*
X136611428Y-182980000D01*
X136668571Y-183008571D01*
X136697142Y-183037142D01*
X136725714Y-183094285D01*
X136725714Y-183237142D01*
X136697142Y-183294285D01*
X136668571Y-183322857D01*
X136611428Y-183351428D01*
X136440000Y-183351428D01*
X136382857Y-183322857D01*
X136354285Y-183294285D01*
X137097142Y-182751428D02*
X137154285Y-182751428D01*
X137211428Y-182780000D01*
X137240000Y-182808571D01*
X137268571Y-182865714D01*
X137297142Y-182980000D01*
X137297142Y-183122857D01*
X137268571Y-183237142D01*
X137240000Y-183294285D01*
X137211428Y-183322857D01*
X137154285Y-183351428D01*
X137097142Y-183351428D01*
X137040000Y-183322857D01*
X137011428Y-183294285D01*
X136982857Y-183237142D01*
X136954285Y-183122857D01*
X136954285Y-182980000D01*
X136982857Y-182865714D01*
X137011428Y-182808571D01*
X137040000Y-182780000D01*
X137097142Y-182751428D01*
%TO.C,C4*%
X134650000Y-196384285D02*
X134621428Y-196412857D01*
X134535714Y-196441428D01*
X134478571Y-196441428D01*
X134392857Y-196412857D01*
X134335714Y-196355714D01*
X134307142Y-196298571D01*
X134278571Y-196184285D01*
X134278571Y-196098571D01*
X134307142Y-195984285D01*
X134335714Y-195927142D01*
X134392857Y-195870000D01*
X134478571Y-195841428D01*
X134535714Y-195841428D01*
X134621428Y-195870000D01*
X134650000Y-195898571D01*
X135164285Y-196041428D02*
X135164285Y-196441428D01*
X135021428Y-195812857D02*
X134878571Y-196241428D01*
X135250000Y-196241428D01*
D12*
%TO.C,R32*%
X131942742Y-188842500D02*
X132417258Y-188842500D01*
X131942742Y-187797500D02*
X132417258Y-187797500D01*
%TO.C,R34*%
X186252742Y-156497500D02*
X186727258Y-156497500D01*
X186252742Y-157542500D02*
X186727258Y-157542500D01*
%TO.C,C37*%
X139229420Y-178430000D02*
X139510580Y-178430000D01*
X139229420Y-177410000D02*
X139510580Y-177410000D01*
D11*
%TO.C,TP6*%
X102520000Y-172020000D02*
G75*
G03*
X102520000Y-172020000I-950000J0D01*
G01*
D12*
%TO.C,R51*%
X139132742Y-170252500D02*
X139607258Y-170252500D01*
X139132742Y-169207500D02*
X139607258Y-169207500D01*
%TO.C,R38*%
X200662500Y-168232258D02*
X200662500Y-167757742D01*
X199617500Y-168232258D02*
X199617500Y-167757742D01*
%TO.C,C8*%
X132800580Y-194120000D02*
X132519420Y-194120000D01*
X132800580Y-193100000D02*
X132519420Y-193100000D01*
%TO.C,C6*%
X120659420Y-195370000D02*
X120940580Y-195370000D01*
X120659420Y-196390000D02*
X120940580Y-196390000D01*
%TO.C,C32*%
X198230000Y-142169420D02*
X198230000Y-142450580D01*
X197210000Y-142169420D02*
X197210000Y-142450580D01*
%TO.C,C28*%
X139839420Y-161710000D02*
X140120580Y-161710000D01*
X139839420Y-162730000D02*
X140120580Y-162730000D01*
D11*
%TO.C,R49*%
X137977258Y-196497500D02*
X137502742Y-196497500D01*
X137977258Y-197542500D02*
X137502742Y-197542500D01*
D12*
%TO.C,C22*%
X187290580Y-190190000D02*
X187009420Y-190190000D01*
X187290580Y-191210000D02*
X187009420Y-191210000D01*
%TO.C,C2*%
X133149420Y-181130000D02*
X133430580Y-181130000D01*
X133149420Y-180110000D02*
X133430580Y-180110000D01*
%TO.C,C3*%
X119669420Y-187660000D02*
X119950580Y-187660000D01*
X119669420Y-188680000D02*
X119950580Y-188680000D01*
%TO.C,C38*%
X193150000Y-142169420D02*
X193150000Y-142450580D01*
X192130000Y-142169420D02*
X192130000Y-142450580D01*
%TO.C,U7*%
X118260000Y-186150000D02*
X121060000Y-186150000D01*
X118660000Y-183750000D02*
X121060000Y-183750000D01*
X118260000Y-186150000D02*
X118260000Y-184150000D01*
X121060000Y-183750000D02*
X121060000Y-186150000D01*
X118660000Y-183750000D02*
X118260000Y-184150000D01*
%TO.C,R54*%
X130842742Y-164977500D02*
X131317258Y-164977500D01*
X130842742Y-166022500D02*
X131317258Y-166022500D01*
%TO.C,R39*%
X200262500Y-177397258D02*
X200262500Y-176922742D01*
X199217500Y-177397258D02*
X199217500Y-176922742D01*
%TO.C,U13*%
X130050000Y-175220000D02*
X130050000Y-174495000D01*
X130775000Y-169000000D02*
X130050000Y-169000000D01*
X135545000Y-169000000D02*
X136270000Y-169000000D01*
X136270000Y-175220000D02*
X136270000Y-174495000D01*
X136270000Y-169000000D02*
X136270000Y-169725000D01*
X130775000Y-175220000D02*
X130050000Y-175220000D01*
X135545000Y-175220000D02*
X136270000Y-175220000D01*
%TO.C,C7*%
X132360580Y-187240000D02*
X132079420Y-187240000D01*
X132360580Y-186220000D02*
X132079420Y-186220000D01*
%TO.C,C33*%
X134299420Y-178730000D02*
X134580580Y-178730000D01*
X134299420Y-177710000D02*
X134580580Y-177710000D01*
%TO.C,J1*%
X190110000Y-122737500D02*
X190110000Y-124837500D01*
X197534000Y-128187500D02*
X202536000Y-128187500D01*
X190110000Y-114137500D02*
X203210000Y-114137500D01*
X190784000Y-128187500D02*
X191786000Y-128187500D01*
X190110000Y-116837500D02*
X190110000Y-119737500D01*
X194380000Y-113687500D02*
G75*
G03*
X194380000Y-113687500I-100000J0D01*
G01*
D11*
%TO.C,LED11*%
X133675000Y-199785000D02*
X133675000Y-198315000D01*
X133675000Y-198315000D02*
X131390000Y-198315000D01*
X131390000Y-199785000D02*
X133675000Y-199785000D01*
D12*
%TO.C,R44*%
X119222742Y-180692500D02*
X119697258Y-180692500D01*
X119222742Y-179647500D02*
X119697258Y-179647500D01*
D11*
%TO.C,TP5*%
X102330000Y-190590000D02*
G75*
G03*
X102330000Y-190590000I-950000J0D01*
G01*
D12*
%TO.C,LED8*%
X195556000Y-156640000D02*
X195556000Y-155170000D01*
X193271000Y-156640000D02*
X195556000Y-156640000D01*
X195556000Y-155170000D02*
X193271000Y-155170000D01*
D11*
%TO.C,LED10*%
X122665000Y-198335000D02*
X120380000Y-198335000D01*
X120380000Y-199805000D02*
X122665000Y-199805000D01*
X122665000Y-199805000D02*
X122665000Y-198335000D01*
D12*
%TO.C,R31*%
X119607258Y-193697500D02*
X119132742Y-193697500D01*
X119607258Y-194742500D02*
X119132742Y-194742500D01*
D11*
%TO.C,TP2*%
X102490000Y-175190000D02*
G75*
G03*
X102490000Y-175190000I-950000J0D01*
G01*
D12*
%TO.C,C5*%
X122479420Y-196960000D02*
X122760580Y-196960000D01*
X122479420Y-197980000D02*
X122760580Y-197980000D01*
%TO.C,LED5*%
X189175000Y-156640000D02*
X191460000Y-156640000D01*
X191460000Y-156640000D02*
X191460000Y-155170000D01*
X191460000Y-155170000D02*
X189175000Y-155170000D01*
D11*
%TO.C,R48*%
X117182742Y-199592500D02*
X117657258Y-199592500D01*
X117182742Y-198547500D02*
X117657258Y-198547500D01*
D12*
%TO.C,R35*%
X201712742Y-148267500D02*
X202187258Y-148267500D01*
X201712742Y-149312500D02*
X202187258Y-149312500D01*
%TO.C,C27*%
X130729420Y-162190000D02*
X131010580Y-162190000D01*
X130729420Y-163210000D02*
X131010580Y-163210000D01*
%TO.C,R37*%
X201697258Y-160372500D02*
X201222742Y-160372500D01*
X201697258Y-159327500D02*
X201222742Y-159327500D01*
%TO.C,R55*%
X139132742Y-168152500D02*
X139607258Y-168152500D01*
X139132742Y-167107500D02*
X139607258Y-167107500D01*
D11*
%TO.C,TP3*%
X102360000Y-157440000D02*
G75*
G03*
X102360000Y-157440000I-950000J0D01*
G01*
D12*
%TO.C,D3*%
X201700000Y-173440000D02*
X201700000Y-172510000D01*
X201700000Y-170280000D02*
X199540000Y-170280000D01*
X201700000Y-173440000D02*
X200240000Y-173440000D01*
X201700000Y-170280000D02*
X201700000Y-171210000D01*
%TO.C,U12*%
X193250000Y-136080000D02*
X193250000Y-137880000D01*
X196470000Y-137880000D02*
X196470000Y-135430000D01*
D11*
%TO.C,BTP1*%
X103180000Y-170190000D02*
X100780000Y-170190000D01*
X100780000Y-167790000D02*
X103180000Y-167790000D01*
X103180000Y-167790000D02*
X103180000Y-170190000D01*
X100780000Y-170190000D02*
X100780000Y-167790000D01*
D12*
%TO.C,R33*%
X135967258Y-198347500D02*
X135492742Y-198347500D01*
X135967258Y-199392500D02*
X135492742Y-199392500D01*
%TO.C,U3*%
X123385000Y-194945000D02*
X123385000Y-194345000D01*
X129635000Y-194945000D02*
X129035000Y-194945000D01*
X129635000Y-188695000D02*
X129035000Y-188695000D01*
X123385000Y-194945000D02*
X123985000Y-194945000D01*
X129635000Y-194945000D02*
X129635000Y-194345000D01*
X129635000Y-188695000D02*
X129635000Y-189295000D01*
X123385000Y-188695000D02*
X123985000Y-188695000D01*
%TO.C,C31*%
X130440580Y-176310000D02*
X130159420Y-176310000D01*
X130440580Y-177330000D02*
X130159420Y-177330000D01*
%TO.C,C9*%
X132780580Y-195630000D02*
X132499420Y-195630000D01*
X132780580Y-194610000D02*
X132499420Y-194610000D01*
%TO.C,C29*%
X135149420Y-162210000D02*
X135430580Y-162210000D01*
X135149420Y-163230000D02*
X135430580Y-163230000D01*
%TO.C,LED6*%
X195555000Y-158295000D02*
X195555000Y-156825000D01*
X193270000Y-158295000D02*
X195555000Y-158295000D01*
X195555000Y-156825000D02*
X193270000Y-156825000D01*
%TO.C,R42*%
X139687258Y-179097500D02*
X139212742Y-179097500D01*
X139687258Y-180142500D02*
X139212742Y-180142500D01*
%TO.C,C25*%
X195950580Y-132190000D02*
X195669420Y-132190000D01*
X195950580Y-133210000D02*
X195669420Y-133210000D01*
D11*
%TO.C,TP4*%
X130290000Y-198630000D02*
G75*
G03*
X130290000Y-198630000I-950000J0D01*
G01*
D12*
%TO.C,C1*%
X133229420Y-184340000D02*
X133510580Y-184340000D01*
X133229420Y-185360000D02*
X133510580Y-185360000D01*
%TO.C,C10*%
X202090580Y-146960000D02*
X201809420Y-146960000D01*
X202090580Y-145940000D02*
X201809420Y-145940000D01*
%TO.C,C35*%
X139314420Y-175620000D02*
X139595580Y-175620000D01*
X139314420Y-174600000D02*
X139595580Y-174600000D01*
%TO.C,C36*%
X191530000Y-142169420D02*
X191530000Y-142450580D01*
X190510000Y-142169420D02*
X190510000Y-142450580D01*
%TO.C,C34*%
X196380000Y-142174420D02*
X196380000Y-142455580D01*
X195360000Y-142174420D02*
X195360000Y-142455580D01*
D11*
%TO.C,C30*%
X196740000Y-147894437D02*
X196740000Y-152350000D01*
X195675563Y-146830000D02*
X196740000Y-147894437D01*
X191220000Y-147894437D02*
X191220000Y-152350000D01*
X195665000Y-145965000D02*
X195665000Y-146590000D01*
X192284437Y-146830000D02*
X191220000Y-147894437D01*
X191220000Y-152350000D02*
X192920000Y-152350000D01*
X195977500Y-146277500D02*
X195352500Y-146277500D01*
X196740000Y-152350000D02*
X195040000Y-152350000D01*
X195675563Y-146830000D02*
X195040000Y-146830000D01*
X192284437Y-146830000D02*
X192920000Y-146830000D01*
D12*
%TO.C,U9*%
X191800000Y-190020000D02*
X189350000Y-190020000D01*
X190000000Y-193240000D02*
X191800000Y-193240000D01*
%TO.C,C21*%
X140090580Y-187120000D02*
X139809420Y-187120000D01*
X140090580Y-188140000D02*
X139809420Y-188140000D01*
%TO.C,R43*%
X139412742Y-183207500D02*
X139887258Y-183207500D01*
X139412742Y-184252500D02*
X139887258Y-184252500D01*
%TO.C,R47*%
X139712742Y-189902500D02*
X140187258Y-189902500D01*
X139712742Y-188857500D02*
X140187258Y-188857500D01*
%TO.C,C26*%
X135149420Y-165080000D02*
X135430580Y-165080000D01*
X135149420Y-166100000D02*
X135430580Y-166100000D01*
%TO.C,U5*%
X173890000Y-166250000D02*
X173890000Y-165250000D01*
X176690000Y-166250000D02*
X176690000Y-164950000D01*
%TO.C,Y1*%
X122690000Y-174400000D02*
X127790000Y-174400000D01*
X127790000Y-174400000D02*
X127790000Y-161800000D01*
X122690000Y-161800000D02*
X122690000Y-174400000D01*
%TO.C,P1*%
X200990000Y-144330000D02*
X203650000Y-144330000D01*
X200990000Y-136650000D02*
X203650000Y-136650000D01*
X200990000Y-135380000D02*
X200990000Y-134050000D01*
X203650000Y-136650000D02*
X203650000Y-144330000D01*
X200990000Y-136650000D02*
X200990000Y-144330000D01*
X200990000Y-134050000D02*
X202320000Y-134050000D01*
%TO.C,R36*%
X201812742Y-151622500D02*
X202287258Y-151622500D01*
X201812742Y-150577500D02*
X202287258Y-150577500D01*
%TO.C,C23*%
X121330000Y-172040580D02*
X121330000Y-171759420D01*
X122350000Y-172040580D02*
X122350000Y-171759420D01*
D11*
%TO.C,LED7*%
X191465000Y-158315000D02*
X191465000Y-156845000D01*
X189180000Y-158315000D02*
X191465000Y-158315000D01*
X191465000Y-156845000D02*
X189180000Y-156845000D01*
D12*
%TO.C,R52*%
X138102742Y-172117500D02*
X138577258Y-172117500D01*
X138102742Y-173162500D02*
X138577258Y-173162500D01*
%TO.C,R46*%
X199917258Y-156462500D02*
X199442742Y-156462500D01*
X199917258Y-155417500D02*
X199442742Y-155417500D01*
%TO.C,C24*%
X129419420Y-160590000D02*
X129700580Y-160590000D01*
X129419420Y-161610000D02*
X129700580Y-161610000D01*
D11*
%TO.C,Module1*%
X178712993Y-193730001D02*
X177712993Y-193730001D01*
X155912993Y-159810001D02*
X156912993Y-159810001D01*
X178712993Y-193730001D02*
X178712993Y-197510001D01*
X155912993Y-193730001D02*
X156912993Y-193730001D01*
X142312993Y-162160001D02*
X142312993Y-195160001D01*
X197312993Y-195160001D02*
X197312993Y-162160001D01*
X145812993Y-198660001D02*
X193812993Y-198660001D01*
X155912993Y-163590001D02*
X156912993Y-163590001D01*
X178712993Y-197510001D02*
X177712993Y-197510001D01*
X155912993Y-193730001D02*
X155912993Y-197510001D01*
X155912993Y-197510001D02*
X156912993Y-197510001D01*
X178712993Y-159810001D02*
X178712993Y-163590001D01*
X155912993Y-159810001D02*
X155912993Y-163590001D01*
X193812993Y-158660001D02*
X145812993Y-158660001D01*
X142312993Y-195160001D02*
G75*
G03*
X145812993Y-198660001I3499999J-1D01*
G01*
X145812993Y-158660001D02*
G75*
G03*
X142312993Y-162160001I-1J-3499999D01*
G01*
X197312993Y-162160001D02*
G75*
G03*
X193812993Y-158660001I-3499999J1D01*
G01*
X193812993Y-198660001D02*
G75*
G03*
X197312993Y-195160001I1J3499999D01*
G01*
%TO.C,R40*%
X201647258Y-157037500D02*
X201172742Y-157037500D01*
X201647258Y-158082500D02*
X201172742Y-158082500D01*
D12*
%TO.C,R53*%
X139182742Y-164897500D02*
X139657258Y-164897500D01*
X139182742Y-165942500D02*
X139657258Y-165942500D01*
%TO.C,R30*%
X133162742Y-183622500D02*
X133637258Y-183622500D01*
X133162742Y-182577500D02*
X133637258Y-182577500D01*
%TO.C,C4*%
X132509420Y-197180000D02*
X132790580Y-197180000D01*
X132509420Y-196160000D02*
X132790580Y-196160000D01*
D11*
%TO.C,TP1*%
X127710000Y-198620000D02*
G75*
G03*
X127710000Y-198620000I-950000J0D01*
G01*
%TD*%
M02*
