%TF.GenerationSoftware,KiCad,Pcbnew,(6.0.1-0)*%
%TF.CreationDate,2022-04-09T17:35:34-06:00*%
%TF.ProjectId,HAT_CM4_183,4841545f-434d-4345-9f31-38332e6b6963,1.8.3*%
%TF.SameCoordinates,Original*%
%TF.FileFunction,Copper,L4,Inr*%
%TF.FilePolarity,Positive*%
%FSLAX46Y46*%
G04 Gerber Fmt 4.6, Leading zero omitted, Abs format (unit mm)*
G04 Created by KiCad (PCBNEW (6.0.1-0)) date 2022-04-09 17:35:34*
%MOMM*%
%LPD*%
G01*
G04 APERTURE LIST*
G04 Aperture macros list*
%AMRoundRect*
0 Rectangle with rounded corners*
0 $1 Rounding radius*
0 $2 $3 $4 $5 $6 $7 $8 $9 X,Y pos of 4 corners*
0 Add a 4 corners polygon primitive as box body*
4,1,4,$2,$3,$4,$5,$6,$7,$8,$9,$2,$3,0*
0 Add four circle primitives for the rounded corners*
1,1,$1+$1,$2,$3*
1,1,$1+$1,$4,$5*
1,1,$1+$1,$6,$7*
1,1,$1+$1,$8,$9*
0 Add four rect primitives between the rounded corners*
20,1,$1+$1,$2,$3,$4,$5,0*
20,1,$1+$1,$4,$5,$6,$7,0*
20,1,$1+$1,$6,$7,$8,$9,0*
20,1,$1+$1,$8,$9,$2,$3,0*%
G04 Aperture macros list end*
%TA.AperFunction,ComponentPad*%
%ADD10C,1.500000*%
%TD*%
%TA.AperFunction,ComponentPad*%
%ADD11RoundRect,0.500000X-2.300000X-0.250000X2.300000X-0.250000X2.300000X0.250000X-2.300000X0.250000X0*%
%TD*%
%TA.AperFunction,ComponentPad*%
%ADD12R,2.000000X2.000000*%
%TD*%
%TA.AperFunction,ComponentPad*%
%ADD13C,0.508000*%
%TD*%
%TA.AperFunction,ComponentPad*%
%ADD14R,1.700000X1.700000*%
%TD*%
%TA.AperFunction,ComponentPad*%
%ADD15O,1.700000X1.700000*%
%TD*%
%TA.AperFunction,ComponentPad*%
%ADD16O,1.000000X1.800000*%
%TD*%
%TA.AperFunction,ComponentPad*%
%ADD17O,1.000000X2.100000*%
%TD*%
%TA.AperFunction,ViaPad*%
%ADD18C,0.500000*%
%TD*%
%TA.AperFunction,Conductor*%
%ADD19C,0.241300*%
%TD*%
%TA.AperFunction,Conductor*%
%ADD20C,0.177800*%
%TD*%
%TA.AperFunction,Conductor*%
%ADD21C,0.254000*%
%TD*%
%TA.AperFunction,Conductor*%
%ADD22C,1.016000*%
%TD*%
%TA.AperFunction,Conductor*%
%ADD23C,0.195580*%
%TD*%
G04 APERTURE END LIST*
D10*
%TO.N,+5V*%
%TO.C,TP6*%
X101570000Y-172020000D03*
%TD*%
D11*
%TO.N,/Batteries/BT4-*%
%TO.C,BTM4*%
X175960000Y-156810000D03*
%TD*%
%TO.N,/Batteries/BT1-*%
%TO.C,BTM1*%
X116020000Y-156810000D03*
%TD*%
%TO.N,/Batteries/BT2-*%
%TO.C,BTM2*%
X135890000Y-156810000D03*
%TD*%
D10*
%TO.N,/Power/IPS_SW*%
%TO.C,TP5*%
X101380000Y-190590000D03*
%TD*%
%TO.N,PWR_GND*%
%TO.C,TP2*%
X101540000Y-175190000D03*
%TD*%
%TO.N,/Battery/BATT+*%
%TO.C,TP3*%
X101410000Y-157440000D03*
%TD*%
D12*
%TO.N,/Battery/BATT+*%
%TO.C,BTP1*%
X101980000Y-168990000D03*
%TD*%
D13*
%TO.N,PWR_GND*%
%TO.C,U3*%
X125385000Y-192945000D03*
X126535000Y-191820000D03*
X127610000Y-192945000D03*
X125410000Y-190720000D03*
X125435000Y-191820000D03*
X127635000Y-190720000D03*
X127685000Y-191820000D03*
X126510000Y-190720000D03*
X126510000Y-192970000D03*
%TD*%
D11*
%TO.N,/Batteries/BT3-*%
%TO.C,BTM3*%
X156100000Y-156810000D03*
%TD*%
D10*
%TO.N,/Charger/IPS_OUT*%
%TO.C,TP4*%
X129340000Y-198630000D03*
%TD*%
D14*
%TO.N,GND*%
%TO.C,P1*%
X202320000Y-135380000D03*
D15*
%TO.N,+3.3v*%
X202320000Y-137920000D03*
%TO.N,/Battery/I2C_SCL*%
X202320000Y-140460000D03*
%TO.N,/Battery/I2C_SDA*%
X202320000Y-143000000D03*
%TD*%
D10*
%TO.N,/AC_IN*%
%TO.C,TP1*%
X126760000Y-198620000D03*
%TD*%
D16*
%TO.N,GND*%
%TO.C,J5*%
X138925098Y-198997500D03*
D17*
X147565098Y-194817500D03*
X138925098Y-194817500D03*
D16*
X147565098Y-198997500D03*
%TD*%
D18*
%TO.N,/USB Hub/HD2_N*%
X131485753Y-179184940D03*
%TO.N,/Battery/BATT+*%
X143770000Y-171036960D03*
X109650000Y-167040000D03*
X190251600Y-164890000D03*
X130900000Y-183520000D03*
X178280000Y-178990000D03*
X177890000Y-175220000D03*
X162560000Y-171031600D03*
X129850000Y-186780000D03*
X112430000Y-185740000D03*
X129390000Y-186298400D03*
X164099363Y-166009980D03*
X184086811Y-169850000D03*
X141900000Y-165470000D03*
X110440000Y-168990000D03*
X110905000Y-159545000D03*
X189830000Y-169330000D03*
X111350000Y-185740000D03*
X177680000Y-170970000D03*
X178380000Y-182190000D03*
X110590000Y-185690000D03*
%TO.N,/Batteries/BT1-*%
X178320000Y-182980000D03*
X177190000Y-172249850D03*
X116050000Y-171668490D03*
X116050000Y-165870000D03*
%TO.N,/Batteries/BT2-*%
X140710000Y-164340000D03*
X140730000Y-163700000D03*
%TO.N,/Batteries/BT3-*%
X160160000Y-164410000D03*
X157121753Y-162503989D03*
X159870000Y-164830000D03*
%TO.N,PWR_GND*%
X119990494Y-160570494D03*
X111055000Y-193005000D03*
X101856500Y-183480000D03*
X135300000Y-182190000D03*
X101856500Y-184720000D03*
X119520000Y-181980000D03*
X183173189Y-181630000D03*
X116870000Y-168490000D03*
X109740000Y-191690000D03*
X195830000Y-180990000D03*
X182980000Y-177440000D03*
X111760000Y-182320000D03*
X156490000Y-167789850D03*
X111890000Y-183400000D03*
X180130000Y-163980000D03*
X111740000Y-181420000D03*
X195668920Y-155940000D03*
X111740000Y-180350000D03*
X101856500Y-185990000D03*
X122379506Y-160570494D03*
X121430000Y-193790000D03*
X101770000Y-182140000D03*
X169250000Y-181510000D03*
X120719506Y-160570494D03*
X110780000Y-189490000D03*
X110160000Y-183470000D03*
X110375000Y-192325000D03*
X109925000Y-187535000D03*
X182448400Y-169130000D03*
X110430000Y-188040000D03*
X169143250Y-172766649D03*
X133020000Y-185910000D03*
X121519506Y-160570494D03*
X119110000Y-181550000D03*
X120820000Y-163670000D03*
X182980000Y-172090000D03*
X169160000Y-178261600D03*
X103950000Y-190460000D03*
X120820000Y-164340000D03*
X182448400Y-167430000D03*
X156650000Y-183390000D03*
X135300000Y-182970000D03*
X121650000Y-187710000D03*
%TO.N,/Charger/IPS_OUT*%
X186505500Y-157070000D03*
X127290000Y-195900000D03*
X124330000Y-196010000D03*
X119460000Y-193330000D03*
X125153500Y-186660000D03*
X118060000Y-188350000D03*
X130435417Y-188955417D03*
X118070000Y-186900000D03*
X127750078Y-187845076D03*
X184715944Y-186155944D03*
X130530000Y-196670000D03*
X118070000Y-187620000D03*
%TO.N,GND*%
X201110000Y-135700000D03*
X136065000Y-164205000D03*
X158196666Y-194871313D03*
X193690000Y-143170000D03*
X200744280Y-144780000D03*
X172970000Y-167342189D03*
X138190000Y-184558920D03*
X130370000Y-174900000D03*
X118075000Y-196905000D03*
X146162577Y-171942577D03*
X165630000Y-195060000D03*
X200380000Y-130540000D03*
X202070000Y-169410000D03*
X182510000Y-191520000D03*
X204030000Y-129230000D03*
X152550000Y-176510000D03*
X166710000Y-158630000D03*
X192590000Y-132500000D03*
X141320000Y-177910000D03*
X146230000Y-177680000D03*
X177980000Y-187750000D03*
X179470000Y-187600000D03*
X187070000Y-193450000D03*
X192240000Y-150860000D03*
X141450000Y-175980000D03*
X141230000Y-165450000D03*
X141231600Y-181790000D03*
X162996170Y-164070000D03*
X138080000Y-192150000D03*
X119460000Y-198290000D03*
X128040000Y-196390000D03*
X172300000Y-195490000D03*
X167111418Y-162598582D03*
X198940000Y-143150000D03*
X175910000Y-195150000D03*
X135840000Y-195950000D03*
X157930000Y-197900000D03*
X160230000Y-192730000D03*
X174980000Y-191760000D03*
X202170000Y-184370000D03*
X170960000Y-195350000D03*
X161020000Y-183400000D03*
X121850000Y-170040000D03*
X172350000Y-158540000D03*
X156660000Y-165620000D03*
X194070000Y-134860000D03*
X133870000Y-198810000D03*
X137739505Y-177598815D03*
X177110000Y-159167111D03*
X162710000Y-172791600D03*
X128734663Y-165490118D03*
X188090000Y-192110000D03*
X141900000Y-162660000D03*
X135320000Y-176280000D03*
X188790000Y-128850000D03*
X137730000Y-174630150D03*
X154370000Y-187680000D03*
X118800000Y-197630000D03*
X192620000Y-151240000D03*
X164340000Y-187680000D03*
X199810000Y-114570000D03*
%TO.N,Net-(C7-Pad2)*%
X126915127Y-186912584D03*
X130676566Y-187434378D03*
%TO.N,/Power/IPS_SW*%
X110950000Y-171970000D03*
X121690000Y-181330000D03*
%TO.N,+5V*%
X185310000Y-192010000D03*
X198130000Y-157018400D03*
X186540000Y-168480000D03*
X116900000Y-175180000D03*
X198390000Y-132640000D03*
X198120000Y-168478400D03*
X110400000Y-176270000D03*
X141750011Y-186500000D03*
%TO.N,+3.3v*%
X136930000Y-166980000D03*
X160993209Y-179280000D03*
X139394831Y-167054831D03*
X128118400Y-167493040D03*
X160993209Y-178580000D03*
X197198400Y-136640000D03*
X204470000Y-151120000D03*
X204470000Y-162410000D03*
X204470000Y-157500000D03*
X204470000Y-148840000D03*
X192810000Y-136250000D03*
X158870000Y-167460000D03*
X134480000Y-166940000D03*
X204470000Y-146440000D03*
%TO.N,/CM4_GPIO/GPIO_IRQ*%
X141610000Y-183660000D03*
X149570000Y-183240000D03*
X149590000Y-162870000D03*
%TO.N,/CM4_GPIO/SD_PWR*%
X200400000Y-134170000D03*
X194300000Y-134180000D03*
%TO.N,/CM4_HighSpeed/HDMI_5v*%
X183466548Y-187720000D03*
%TO.N,/USB Hub/VBUS*%
X142440000Y-184370000D03*
X199090000Y-147260000D03*
X199030000Y-181020000D03*
X164770000Y-184500000D03*
X194330000Y-130570000D03*
%TO.N,/AC_IN*%
X145590000Y-186651600D03*
X145610000Y-192260000D03*
X146235098Y-196874902D03*
X130850000Y-190630000D03*
X192420000Y-171160000D03*
X140880000Y-193090000D03*
X191630000Y-183350000D03*
%TO.N,/Battery/5V_OVR*%
X193840000Y-187440000D03*
X118160000Y-178090000D03*
X185253189Y-176304288D03*
X118970000Y-186350000D03*
X185253189Y-171570000D03*
X193840000Y-175880000D03*
%TO.N,/CM4_GPIO/GPIO_PB1*%
X160161600Y-176060000D03*
X198140000Y-174660000D03*
%TO.N,/Battery/PB_IN*%
X123980000Y-187460000D03*
X202960000Y-172820000D03*
X125319502Y-182620500D03*
X184720000Y-188400000D03*
X183440000Y-185250000D03*
X203290000Y-179740000D03*
%TO.N,/CM4_GPIO/SD_DAT1*%
X201920000Y-117150000D03*
X163806787Y-158619189D03*
%TO.N,/CM4_GPIO/SD_DAT0*%
X164300000Y-157430000D03*
X200850000Y-117290000D03*
%TO.N,/CM4_GPIO/SD_CLK*%
X165662982Y-158040000D03*
X200309793Y-116881448D03*
%TO.N,/CM4_GPIO/SD_CMD*%
X200220000Y-119141800D03*
X164951532Y-162503989D03*
%TO.N,/CM4_GPIO/SD_DAT3*%
X198510000Y-117711100D03*
X164930000Y-156936200D03*
%TO.N,/CM4_GPIO/SD_DAT2*%
X162960000Y-157830000D03*
X191950459Y-123388989D03*
%TO.N,/CM4_HighSpeed/HDMI0_HOTPLUG*%
X164780000Y-191240000D03*
X185100000Y-195480000D03*
%TO.N,/CM4_HighSpeed/HDMI0_SDA*%
X181990000Y-192070000D03*
X158725000Y-192045000D03*
X160055000Y-190715000D03*
%TO.N,/CM4_HighSpeed/HDMI0_SCL*%
X181530000Y-194570000D03*
X157470000Y-195260000D03*
%TO.N,/CM4_HighSpeed/HDMI0_CEC*%
X183370000Y-198390000D03*
X165611400Y-196010000D03*
%TO.N,/CM4_HighSpeed/HDMI0_CK_N*%
X159151700Y-198175558D03*
X179107394Y-195863161D03*
%TO.N,/CM4_HighSpeed/HDMI0_CK_P*%
X159796793Y-198410000D03*
X179160000Y-195167789D03*
%TO.N,/CM4_HighSpeed/HDMI0_D0_N*%
X178929230Y-198779125D03*
X160678013Y-199128900D03*
%TO.N,/CM4_HighSpeed/HDMI0_D0_P*%
X178780000Y-199439988D03*
X161353443Y-199201448D03*
%TO.N,/CM4_HighSpeed/HDMI0_D1_N*%
X158630000Y-195993800D03*
X177334645Y-195614877D03*
%TO.N,/CM4_HighSpeed/HDMI0_D1_P*%
X176805745Y-195172045D03*
X158810782Y-195341070D03*
%TO.N,/CM4_HighSpeed/HDMI0_D2_N*%
X160100000Y-195220000D03*
X175370000Y-187456200D03*
%TO.N,/CM4_HighSpeed/HDMI0_D2_P*%
X174698541Y-187544982D03*
X160726078Y-194865460D03*
%TO.N,/USB Hub/HD4_N*%
X159900000Y-189690000D03*
X128640000Y-174622557D03*
X158990000Y-178330000D03*
%TO.N,/USB Hub/HD4_P*%
X158719457Y-178962711D03*
X128460903Y-175319096D03*
X159282402Y-189985207D03*
%TO.N,/USB Hub/HD3_N*%
X124980000Y-175110000D03*
X196912472Y-172775352D03*
%TO.N,/USB Hub/HD3_P*%
X197440000Y-173230000D03*
X125172795Y-175917205D03*
%TO.N,/CM4_GPIO/GPIO6*%
X170830000Y-164330767D03*
X189820000Y-164220000D03*
%TO.N,/CM4_GPIO/TRD1_P*%
X177050000Y-167670000D03*
X127135090Y-169246791D03*
X127556611Y-175900000D03*
%TO.N,/CM4_GPIO/TRD1_N*%
X129043046Y-175970441D03*
X127734897Y-169561386D03*
X176291295Y-168201295D03*
%TO.N,/CM4_GPIO/TRD0_N*%
X174352644Y-167581093D03*
X124210000Y-175500000D03*
X126077389Y-169004474D03*
%TO.N,/CM4_GPIO/TRD0_P*%
X173700000Y-167400000D03*
X125655009Y-168475009D03*
X123534943Y-175555107D03*
%TO.N,/CM4_GPIO/PI_nLED_Activity*%
X175680000Y-158391500D03*
X202250000Y-160980000D03*
X177710000Y-168260000D03*
X201361820Y-168100000D03*
%TO.N,/Battery/BT1_PRES*%
X111680000Y-170620000D03*
X182330000Y-183120000D03*
X111640000Y-161220000D03*
X182420000Y-171550000D03*
X191760000Y-175130000D03*
X192410000Y-170420000D03*
%TO.N,/Battery/{slash}BT2_ENA*%
X184110000Y-179825720D03*
X184130000Y-176380000D03*
%TO.N,/Battery/BT2_PRES*%
X147180000Y-177660000D03*
X192870000Y-178898400D03*
X147120000Y-164660000D03*
X182600000Y-178990000D03*
%TO.N,/CM4_GPIO/GPIO_PB2*%
X160660000Y-177140000D03*
X202220000Y-177720000D03*
%TO.N,/CM4_GPIO/SD_PWR_ON*%
X191498900Y-138660000D03*
X162350000Y-157410000D03*
X198630000Y-138700000D03*
%TO.N,/Battery/{slash}BT3_ENA*%
X196360000Y-175170000D03*
X196360000Y-180238400D03*
%TO.N,/Battery/BT3_PRES*%
X171330000Y-173030000D03*
X168210000Y-165740000D03*
%TO.N,/USB Hub/nEXTRST*%
X137580000Y-166010000D03*
X154421589Y-164330000D03*
%TO.N,/CM4_HighSpeed/USB2_N*%
X171760000Y-168020000D03*
X133412423Y-167897577D03*
X176060000Y-192440000D03*
%TO.N,/CM4_HighSpeed/USB2_P*%
X175899341Y-193107169D03*
X134081600Y-168390000D03*
X171780000Y-168701109D03*
%TO.N,Net-(Q2-Pad3)*%
X167460000Y-183630000D03*
X120690000Y-165200000D03*
X121513771Y-179856229D03*
%TO.N,Net-(Q3-Pad3)*%
X169770000Y-182130000D03*
X110130000Y-164850000D03*
X111923376Y-171286624D03*
X169680000Y-173149850D03*
%TO.N,Net-(Q6-Pad3)*%
X127110000Y-179835720D03*
X125650000Y-157470000D03*
X167257577Y-182287577D03*
X127620000Y-164850000D03*
%TO.N,Net-(Q7-Pad3)*%
X145380000Y-181190000D03*
X171426630Y-178070000D03*
X145369989Y-165800000D03*
%TO.N,Net-(Q10-Pad3)*%
X144882684Y-164496666D03*
X167170000Y-175010000D03*
X143699056Y-175409056D03*
X144890000Y-157360000D03*
X151280000Y-165630000D03*
%TO.N,Net-(Q11-Pad3)*%
X170450000Y-172760000D03*
X168770000Y-166300000D03*
%TO.N,Net-(Q14-Pad3)*%
X181508219Y-163993447D03*
X165990000Y-157240000D03*
X167030000Y-170900000D03*
X182080000Y-170300000D03*
%TO.N,Net-(Q15-Pad3)*%
X191630000Y-162770000D03*
X183090000Y-169760000D03*
X182970000Y-163993447D03*
X192380000Y-169680000D03*
%TO.N,/Battery/{slash}BT4_ENA*%
X189930000Y-182146500D03*
X188630000Y-169584280D03*
%TO.N,/Battery/BT4_PRES*%
X195020000Y-177470000D03*
X189460000Y-162861600D03*
X189310000Y-170930000D03*
X195040000Y-172240000D03*
%TO.N,/Battery/MOSI*%
X188507577Y-183157577D03*
X168712993Y-164507007D03*
X187970000Y-165140000D03*
%TO.N,/Battery/MISO*%
X187728060Y-183234434D03*
X187350000Y-165370000D03*
X169240000Y-165005407D03*
%TO.N,/Battery/SCL*%
X169790000Y-165488400D03*
X184030000Y-183630000D03*
X183894280Y-165503807D03*
%TO.N,/Battery/I2C_SDA*%
X200320000Y-148950000D03*
X189260000Y-180235869D03*
X157940000Y-181958400D03*
X122840000Y-188930000D03*
X122470000Y-179270000D03*
X200990000Y-178710000D03*
X161070000Y-166228400D03*
%TO.N,/Battery/I2C_SCL*%
X157040000Y-181400000D03*
X161820000Y-165960000D03*
X122700498Y-189700000D03*
X199820000Y-151240000D03*
X189700000Y-178400000D03*
X200681600Y-178110000D03*
X123300000Y-178830000D03*
%TO.N,/Battery/{slash}RESET*%
X166080000Y-175768389D03*
%TO.N,/USB Hub/nOCS1*%
X193880000Y-136990000D03*
X134500000Y-176300000D03*
X196189989Y-173710000D03*
%TO.N,/USB Hub/PWR1*%
X133080000Y-176870000D03*
X194343500Y-139220000D03*
X194160000Y-160340000D03*
X195620000Y-174090000D03*
%TO.N,/USB Hub/HD2_N*%
X129099189Y-170810796D03*
X162750000Y-179900000D03*
X162750000Y-175780000D03*
%TO.N,/USB Hub/HD2_P*%
X163430000Y-175768400D03*
X129085941Y-171528847D03*
X163300000Y-180320000D03*
X130780000Y-179280000D03*
%TO.N,Net-(R1-Pad1)*%
X197920000Y-176530000D03*
X186250000Y-176530000D03*
X197940000Y-178904280D03*
%TO.N,/CM4_GPIO/ETH_LEDY*%
X143920000Y-192380000D03*
X173191050Y-188465637D03*
X174957423Y-158832577D03*
X143910000Y-199080000D03*
%TO.N,/CM4_GPIO/ETH_LEDG*%
X143290000Y-192170000D03*
X174128400Y-158708400D03*
X143421600Y-198575686D03*
X172930000Y-187860000D03*
X116620000Y-198180000D03*
%TO.N,/Battery/PWR_IRQ*%
X183130000Y-182950000D03*
X192960000Y-183750000D03*
X141200000Y-182680000D03*
%TO.N,/Battery/AXP_EXTEN*%
X190050000Y-172249850D03*
X171426630Y-181120000D03*
X171419498Y-192650000D03*
X190260000Y-180720000D03*
X126790000Y-196670000D03*
%TO.N,/Battery/HEARTBEAT*%
X188220000Y-189510000D03*
X187430000Y-179650000D03*
%TO.N,Net-(R40-Pad2)*%
X201650000Y-156520000D03*
X192651467Y-156829702D03*
%TO.N,/USB Hub/HD1_N*%
X128086932Y-170140014D03*
%TO.N,/USB Hub/HD1_P*%
X128360000Y-170780000D03*
%TO.N,Net-(LED1-Pad1)*%
X152820000Y-158050000D03*
X174870366Y-168017788D03*
X112740000Y-158050000D03*
X132930000Y-158050000D03*
X171620000Y-156420000D03*
%TO.N,Net-(LED11-Pad2)*%
X130700000Y-198068389D03*
X136970000Y-195810000D03*
%TO.N,Net-(C18-Pad1)*%
X103300000Y-177630000D03*
X105580000Y-174320000D03*
%TO.N,Net-(LED5-Pad1)*%
X192436500Y-155890000D03*
X190750000Y-182830000D03*
X129557423Y-188647423D03*
%TO.N,Net-(R54-Pad2)*%
X127121600Y-167280000D03*
X133080000Y-165640000D03*
%TO.N,Net-(R47-Pad1)*%
X141530000Y-190600000D03*
X193270000Y-188870000D03*
%TD*%
D19*
%TO.N,/USB Hub/HD2_N*%
X162750000Y-179900000D02*
X162870000Y-179780000D01*
X162870000Y-179780000D02*
X162870000Y-175900000D01*
X162870000Y-175900000D02*
X162750000Y-175780000D01*
%TO.N,/USB Hub/HD2_P*%
X163263220Y-179602586D02*
X163300000Y-179639366D01*
X163300000Y-179639366D02*
X163300000Y-180320000D01*
%TO.N,/USB Hub/HD2_N*%
X131363220Y-179062407D02*
X131485753Y-179184940D01*
X131363220Y-172327124D02*
X131363220Y-179062407D01*
%TO.N,/USB Hub/HD2_P*%
X130780000Y-179280000D02*
X130970000Y-179090000D01*
X130970000Y-179090000D02*
X130970000Y-172490001D01*
X130079999Y-171600000D02*
X129157094Y-171600000D01*
X130970000Y-172490001D02*
X130079999Y-171600000D01*
X129157094Y-171600000D02*
X129085941Y-171528847D01*
%TO.N,/CM4_HighSpeed/USB2_N*%
X172350000Y-168420000D02*
X171950000Y-168020000D01*
X171950000Y-168020000D02*
X171760000Y-168020000D01*
D20*
%TO.N,/Battery/BT3_PRES*%
X171330000Y-173030000D02*
X171330000Y-172881258D01*
X171330000Y-172881258D02*
X170740000Y-172291258D01*
X170740000Y-167400000D02*
X169080000Y-165740000D01*
X170740000Y-172291258D02*
X170740000Y-167400000D01*
X169080000Y-165740000D02*
X168210000Y-165740000D01*
%TO.N,Net-(Q11-Pad3)*%
X168770000Y-166300000D02*
X170299990Y-167829990D01*
X170299990Y-167829990D02*
X170299990Y-172609990D01*
X170299990Y-172609990D02*
X170450000Y-172760000D01*
D19*
%TO.N,/CM4_HighSpeed/USB2_N*%
X172350000Y-192040000D02*
X172870000Y-192560000D01*
X172350000Y-168420000D02*
X172350000Y-192040000D01*
X172870000Y-192560000D02*
X175940000Y-192560000D01*
X175940000Y-192560000D02*
X176060000Y-192440000D01*
D20*
%TO.N,/Battery/BATT+*%
X109631589Y-160818411D02*
X110905000Y-159545000D01*
X177809502Y-178519502D02*
X178280000Y-178990000D01*
X109631589Y-167021589D02*
X109631589Y-160818411D01*
X177809502Y-171099502D02*
X177809502Y-178519502D01*
X177680000Y-170970000D02*
X177809502Y-171099502D01*
X110905000Y-158575000D02*
X109810000Y-157480000D01*
X190251600Y-168908400D02*
X190251600Y-164890000D01*
X162560000Y-167549343D02*
X164099363Y-166009980D01*
X109810000Y-157480000D02*
X101490000Y-157480000D01*
X178380000Y-182190000D02*
X178380000Y-179090000D01*
X189830000Y-169330000D02*
X190251600Y-168908400D01*
X178380000Y-179090000D02*
X178280000Y-178990000D01*
X162560000Y-171031600D02*
X162560000Y-167549343D01*
X110905000Y-159545000D02*
X110905000Y-158575000D01*
X109650000Y-167040000D02*
X109631589Y-167021589D01*
%TO.N,/Batteries/BT1-*%
X177190000Y-172249850D02*
X177202819Y-172262669D01*
X177202819Y-181862819D02*
X178320000Y-182980000D01*
X177202819Y-172262669D02*
X177202819Y-181862819D01*
X116050000Y-171668490D02*
X116050000Y-165870000D01*
%TO.N,PWR_GND*%
X156480000Y-167799850D02*
X156490000Y-167789850D01*
D21*
X180130000Y-163980000D02*
X180690000Y-163420000D01*
X180690000Y-163420000D02*
X181850000Y-163420000D01*
X182433489Y-164215678D02*
X182471589Y-164253778D01*
D20*
X156480000Y-183220000D02*
X156480000Y-167799850D01*
X156650000Y-183390000D02*
X156480000Y-183220000D01*
D21*
X182448400Y-169130000D02*
X182448400Y-169909658D01*
X182471589Y-167406811D02*
X182448400Y-167430000D01*
X182980000Y-172090000D02*
X182980000Y-177440000D01*
X182433489Y-164003489D02*
X182433489Y-164215678D01*
D20*
X169143477Y-178103479D02*
X169143477Y-172766876D01*
X169150000Y-178271600D02*
X169150000Y-181410000D01*
D21*
X182980000Y-170441258D02*
X182980000Y-172090000D01*
D20*
X169160000Y-178261600D02*
X169150000Y-178271600D01*
D21*
X183173189Y-181630000D02*
X183173189Y-177633189D01*
X182448400Y-169909658D02*
X182980000Y-170441258D01*
X182448400Y-169130000D02*
X182448400Y-167430000D01*
D20*
X169143477Y-172766876D02*
X169143250Y-172766649D01*
D21*
X183173189Y-177633189D02*
X182980000Y-177440000D01*
X181850000Y-163420000D02*
X182433489Y-164003489D01*
X182471589Y-164253778D02*
X182471589Y-167406811D01*
D20*
X169150000Y-181410000D02*
X169250000Y-181510000D01*
%TO.N,/Charger/IPS_OUT*%
X184730000Y-158845500D02*
X184730000Y-186141888D01*
X184730000Y-186141888D02*
X184715944Y-186155944D01*
X186505500Y-157070000D02*
X184730000Y-158845500D01*
%TO.N,/Power/IPS_SW*%
X110950000Y-180340000D02*
X101350000Y-189940000D01*
X110950000Y-171970000D02*
X110950000Y-180340000D01*
%TO.N,+5V*%
X185310000Y-192010000D02*
X185770000Y-191550000D01*
X185751589Y-176736450D02*
X185751589Y-169268411D01*
X198120000Y-168478400D02*
X198120000Y-157028400D01*
X185770000Y-176754861D02*
X185751589Y-176736450D01*
X185770000Y-191550000D02*
X185770000Y-176754861D01*
X198120000Y-157028400D02*
X198130000Y-157018400D01*
X185751589Y-169268411D02*
X186540000Y-168480000D01*
%TO.N,+3.3v*%
X197198400Y-136640000D02*
X198518400Y-137960000D01*
D22*
X158870000Y-176650000D02*
X158870000Y-167460000D01*
D20*
X196788400Y-136230000D02*
X197198400Y-136640000D01*
X198518400Y-137960000D02*
X202330000Y-137960000D01*
X192830000Y-136230000D02*
X196788400Y-136230000D01*
D22*
X160993209Y-178773209D02*
X158870000Y-176650000D01*
X160993209Y-179280000D02*
X160993209Y-178773209D01*
D20*
X192810000Y-136250000D02*
X192830000Y-136230000D01*
%TO.N,/CM4_GPIO/GPIO_IRQ*%
X149590000Y-183220000D02*
X149590000Y-162870000D01*
X149570000Y-183240000D02*
X149590000Y-183220000D01*
%TO.N,/CM4_GPIO/SD_PWR*%
X194300000Y-134180000D02*
X200390000Y-134180000D01*
X200390000Y-134180000D02*
X200400000Y-134170000D01*
%TO.N,/AC_IN*%
X145640000Y-186701600D02*
X145590000Y-186651600D01*
X192360000Y-182620000D02*
X191630000Y-183350000D01*
X192360000Y-171220000D02*
X192360000Y-182620000D01*
X145610000Y-192260000D02*
X145640000Y-192230000D01*
X192420000Y-171160000D02*
X192360000Y-171220000D01*
X145640000Y-192230000D02*
X145640000Y-186701600D01*
%TO.N,/Battery/5V_OVR*%
X185253189Y-176304288D02*
X185250000Y-176301099D01*
X185250000Y-171573189D02*
X185253189Y-171570000D01*
X118160000Y-185540000D02*
X118970000Y-186350000D01*
X193840000Y-175880000D02*
X193840000Y-187440000D01*
X118160000Y-178090000D02*
X118160000Y-185540000D01*
X185250000Y-176301099D02*
X185250000Y-171573189D01*
%TO.N,/Battery/PB_IN*%
X123980000Y-183960002D02*
X123980000Y-187460000D01*
X202960000Y-172820000D02*
X202971589Y-172831589D01*
X183440000Y-186988591D02*
X184720000Y-188268591D01*
X202971589Y-172831589D02*
X202971589Y-179421589D01*
X125319502Y-182620500D02*
X123980000Y-183960002D01*
X184720000Y-188400000D02*
X184720000Y-188268591D01*
X183440000Y-186988591D02*
X183440000Y-185250000D01*
X202971589Y-179421589D02*
X203290000Y-179740000D01*
D23*
%TO.N,/CM4_HighSpeed/HDMI0_HOTPLUG*%
X175075788Y-193355788D02*
X166895788Y-193355788D01*
X185100000Y-195480000D02*
X183330000Y-193710000D01*
X166895788Y-193355788D02*
X164780000Y-191240000D01*
X175430000Y-193710000D02*
X175075788Y-193355788D01*
X183330000Y-193710000D02*
X175430000Y-193710000D01*
%TO.N,/CM4_HighSpeed/HDMI0_SCL*%
X158380000Y-193940000D02*
X157470000Y-194850000D01*
X166952640Y-193940000D02*
X158380000Y-193940000D01*
X181042900Y-194082900D02*
X175262900Y-194082900D01*
X157470000Y-194850000D02*
X157470000Y-195260000D01*
X181530000Y-194570000D02*
X181042900Y-194082900D01*
X167163952Y-193728688D02*
X166952640Y-193940000D01*
X174908688Y-193728688D02*
X167163952Y-193728688D01*
X175262900Y-194082900D02*
X174908688Y-193728688D01*
D20*
%TO.N,/CM4_HighSpeed/HDMI0_CEC*%
X183370000Y-198390000D02*
X179426910Y-194446910D01*
X167174490Y-194446910D02*
X165611400Y-196010000D01*
X179426910Y-194446910D02*
X167174490Y-194446910D01*
D19*
%TO.N,/USB Hub/HD4_N*%
X159470000Y-178810000D02*
X159470000Y-189260000D01*
X158990000Y-178330000D02*
X159470000Y-178810000D01*
X159470000Y-189260000D02*
X159900000Y-189690000D01*
%TO.N,/USB Hub/HD4_P*%
X158812711Y-178962711D02*
X158719457Y-178962711D01*
X159282402Y-189985207D02*
X159076780Y-189779585D01*
X159076780Y-179226780D02*
X158812711Y-178962711D01*
X159076780Y-189779585D02*
X159076780Y-179226780D01*
D23*
%TO.N,/CM4_GPIO/TRD1_P*%
X127089180Y-175432569D02*
X127089180Y-169292701D01*
X127089180Y-169292701D02*
X127135090Y-169246791D01*
X127556611Y-175900000D02*
X127089180Y-175432569D01*
%TO.N,/CM4_GPIO/TRD1_N*%
X127462080Y-169834203D02*
X127462080Y-175062863D01*
X127462080Y-175062863D02*
X128369658Y-175970441D01*
X127734897Y-169561386D02*
X127462080Y-169834203D01*
X128369658Y-175970441D02*
X129043046Y-175970441D01*
%TO.N,/CM4_GPIO/TRD0_N*%
X124210000Y-175017360D02*
X125802900Y-173424460D01*
X124210000Y-175500000D02*
X124210000Y-175017360D01*
X125802900Y-169278963D02*
X126077389Y-169004474D01*
X125802900Y-173424460D02*
X125802900Y-169278963D01*
%TO.N,/CM4_GPIO/TRD0_P*%
X125430000Y-173270000D02*
X125430000Y-168700018D01*
X125430000Y-168700018D02*
X125655009Y-168475009D01*
X123534943Y-175165057D02*
X125430000Y-173270000D01*
X123534943Y-175555107D02*
X123534943Y-175165057D01*
D20*
%TO.N,/CM4_GPIO/PI_nLED_Activity*%
X177039250Y-158391500D02*
X177710000Y-159062250D01*
X175680000Y-158391500D02*
X177039250Y-158391500D01*
X177710000Y-159062250D02*
X177710000Y-168260000D01*
%TO.N,/Battery/BT1_PRES*%
X181980000Y-171990000D02*
X181980000Y-182770000D01*
X191760000Y-175130000D02*
X191760000Y-171070000D01*
X182420000Y-171550000D02*
X181980000Y-171990000D01*
X181980000Y-182770000D02*
X182330000Y-183120000D01*
X111640000Y-161220000D02*
X111640000Y-170580000D01*
X191760000Y-171070000D02*
X192410000Y-170420000D01*
X111640000Y-170580000D02*
X111680000Y-170620000D01*
%TO.N,/Battery/{slash}BT2_ENA*%
X184110000Y-179825720D02*
X184130000Y-179805720D01*
X184130000Y-179805720D02*
X184130000Y-176380000D01*
%TO.N,/Battery/BT2_PRES*%
X147180000Y-177660000D02*
X147180000Y-164720000D01*
X147180000Y-164720000D02*
X147120000Y-164660000D01*
%TO.N,/CM4_GPIO/SD_PWR_ON*%
X198530000Y-138600000D02*
X198630000Y-138700000D01*
X191558900Y-138600000D02*
X198530000Y-138600000D01*
X191498900Y-138660000D02*
X191558900Y-138600000D01*
%TO.N,/Battery/{slash}BT3_ENA*%
X196360000Y-175170000D02*
X196360000Y-180238400D01*
D19*
%TO.N,/CM4_HighSpeed/USB2_P*%
X175770000Y-192977828D02*
X175899341Y-193107169D01*
X171956780Y-192266780D02*
X172667828Y-192977828D01*
X172667828Y-192977828D02*
X175770000Y-192977828D01*
X171780000Y-168701109D02*
X171956780Y-168877889D01*
X171956780Y-168877889D02*
X171956780Y-192266780D01*
D20*
%TO.N,Net-(Q2-Pad3)*%
X120690000Y-179032458D02*
X120690000Y-165200000D01*
X121513771Y-179856229D02*
X120690000Y-179032458D01*
%TO.N,Net-(Q3-Pad3)*%
X169680000Y-180625139D02*
X169770000Y-180715139D01*
X111641763Y-171286624D02*
X111923376Y-171286624D01*
X169770000Y-180715139D02*
X169770000Y-182130000D01*
X111050000Y-165770000D02*
X111050000Y-170694861D01*
X169680000Y-173149850D02*
X169680000Y-180625139D01*
X111050000Y-170694861D02*
X111641763Y-171286624D01*
X110130000Y-164850000D02*
X111050000Y-165770000D01*
%TO.N,Net-(Q6-Pad3)*%
X127620000Y-164850000D02*
X127620000Y-167720000D01*
X126618879Y-179344599D02*
X127110000Y-179835720D01*
X125650000Y-162880000D02*
X127620000Y-164850000D01*
X125650000Y-157470000D02*
X125650000Y-162880000D01*
X127620000Y-167720000D02*
X126618879Y-168721121D01*
X126618879Y-168721121D02*
X126618879Y-179344599D01*
%TO.N,Net-(Q7-Pad3)*%
X145370000Y-165800011D02*
X145369989Y-165800000D01*
X145380000Y-181190000D02*
X145370000Y-181180000D01*
X145370000Y-181180000D02*
X145370000Y-165800011D01*
%TO.N,Net-(Q10-Pad3)*%
X143699056Y-175409056D02*
X144871589Y-174236523D01*
X144871589Y-164507761D02*
X144882684Y-164496666D01*
X144890000Y-164489350D02*
X144882684Y-164496666D01*
X144871589Y-174236523D02*
X144871589Y-164507761D01*
X144890000Y-157360000D02*
X144890000Y-164489350D01*
%TO.N,Net-(Q14-Pad3)*%
X167609829Y-170490171D02*
X167200000Y-170900000D01*
X166024861Y-157240000D02*
X167609829Y-158824968D01*
X181950000Y-164435228D02*
X181950000Y-170170000D01*
X181950000Y-170170000D02*
X182080000Y-170300000D01*
X167200000Y-170900000D02*
X167030000Y-170900000D01*
X167609829Y-158824968D02*
X167609829Y-170490171D01*
X181508219Y-163993447D02*
X181950000Y-164435228D01*
X165990000Y-157240000D02*
X166024861Y-157240000D01*
%TO.N,Net-(Q15-Pad3)*%
X192270000Y-163410000D02*
X191630000Y-162770000D01*
X182970000Y-163993447D02*
X183090000Y-164113447D01*
X183090000Y-164113447D02*
X183090000Y-169760000D01*
X192270000Y-169570000D02*
X192270000Y-163410000D01*
X192380000Y-169680000D02*
X192270000Y-169570000D01*
%TO.N,/Battery/{slash}BT4_ENA*%
X188811589Y-169765869D02*
X188811589Y-178216450D01*
X188630000Y-169584280D02*
X188811589Y-169765869D01*
X189761589Y-179166450D02*
X189761589Y-181978089D01*
X188811589Y-178216450D02*
X189761589Y-179166450D01*
X189761589Y-181978089D02*
X189930000Y-182146500D01*
%TO.N,/Battery/BT4_PRES*%
X189321589Y-170918411D02*
X189310000Y-170930000D01*
X195040000Y-172240000D02*
X195040000Y-177450000D01*
X189460000Y-162861600D02*
X189321589Y-163000011D01*
X189321589Y-163000011D02*
X189321589Y-170918411D01*
X195040000Y-177450000D02*
X195020000Y-177470000D01*
%TO.N,/Battery/MOSI*%
X188450000Y-170109141D02*
X187970000Y-169629141D01*
X188450000Y-183100000D02*
X188450000Y-170109141D01*
X188507577Y-183157577D02*
X188450000Y-183100000D01*
X187970000Y-169629141D02*
X187970000Y-165140000D01*
%TO.N,/Battery/MISO*%
X188110000Y-182852494D02*
X188110000Y-170246183D01*
X187728060Y-183234434D02*
X188110000Y-182852494D01*
X188110000Y-170246183D02*
X187632681Y-169768864D01*
X187632680Y-165652680D02*
X187350000Y-165370000D01*
X187632681Y-169768864D02*
X187632680Y-165652680D01*
%TO.N,/Battery/SCL*%
X184030000Y-181781950D02*
X184030000Y-183630000D01*
X183588400Y-165809687D02*
X183588400Y-181340350D01*
X183894280Y-165503807D02*
X183588400Y-165809687D01*
X183588400Y-181340350D02*
X184030000Y-181781950D01*
%TO.N,/Battery/I2C_SDA*%
X122840000Y-179640000D02*
X122840000Y-188930000D01*
X157593522Y-167413520D02*
X158939722Y-166067320D01*
X157940000Y-181958400D02*
X157593522Y-181611922D01*
X122470000Y-179270000D02*
X122840000Y-179640000D01*
X157593522Y-181611922D02*
X157593522Y-167413520D01*
X160908920Y-166067320D02*
X161070000Y-166228400D01*
X158939722Y-166067320D02*
X160908920Y-166067320D01*
%TO.N,/Battery/I2C_SCL*%
X161590000Y-165730000D02*
X161820000Y-165960000D01*
X122774861Y-189700000D02*
X122700498Y-189700000D01*
X157040000Y-181400000D02*
X157250000Y-181190000D01*
X123300000Y-178830000D02*
X123370000Y-178900000D01*
X157250000Y-181190000D02*
X157250000Y-167280000D01*
X123370000Y-189104861D02*
X122774861Y-189700000D01*
X123370000Y-178900000D02*
X123370000Y-189104861D01*
X157250000Y-167280000D02*
X158800000Y-165730000D01*
X158800000Y-165730000D02*
X161590000Y-165730000D01*
%TO.N,/USB Hub/PWR1*%
X194071589Y-169071589D02*
X195620000Y-170620000D01*
X194071589Y-160428411D02*
X194071589Y-169071589D01*
X195620000Y-170620000D02*
X195620000Y-174090000D01*
X194160000Y-160340000D02*
X194071589Y-160428411D01*
D19*
%TO.N,/USB Hub/HD2_N*%
X129846892Y-170810796D02*
X131363220Y-172327124D01*
X129099189Y-170810796D02*
X129846892Y-170810796D01*
%TO.N,/USB Hub/HD2_P*%
X163263220Y-175935180D02*
X163430000Y-175768400D01*
X163263220Y-179602586D02*
X163263220Y-175935180D01*
D20*
%TO.N,Net-(R1-Pad1)*%
X197940000Y-178904280D02*
X197940000Y-176550000D01*
X197940000Y-176550000D02*
X197920000Y-176530000D01*
%TO.N,/CM4_GPIO/ETH_LEDY*%
X173360000Y-186530000D02*
X173360000Y-187585139D01*
X173360000Y-187585139D02*
X173428411Y-187653550D01*
X173428411Y-187653550D02*
X173428411Y-188228276D01*
X143920000Y-199070000D02*
X143920000Y-192380000D01*
X143910000Y-199080000D02*
X143920000Y-199070000D01*
X174957423Y-158832577D02*
X175707319Y-159582473D01*
X174487320Y-172309722D02*
X174487319Y-185402681D01*
X174487319Y-185402681D02*
X173360000Y-186530000D01*
X173428411Y-188228276D02*
X173191050Y-188465637D01*
X175707319Y-159582473D02*
X175707319Y-171089723D01*
X175707319Y-171089723D02*
X174487320Y-172309722D01*
%TO.N,/CM4_GPIO/ETH_LEDG*%
X143290000Y-198444086D02*
X143421600Y-198575686D01*
X172930000Y-187860000D02*
X172930000Y-186310000D01*
X174150000Y-185090000D02*
X174150000Y-172170000D01*
X175370000Y-170950000D02*
X175370000Y-159950000D01*
X174150000Y-172170000D02*
X175370000Y-170950000D01*
X175370000Y-159950000D02*
X174128400Y-158708400D01*
X172930000Y-186310000D02*
X174150000Y-185090000D01*
X143290000Y-192170000D02*
X143290000Y-198444086D01*
%TO.N,/Battery/AXP_EXTEN*%
X190260000Y-180720000D02*
X190198411Y-180658411D01*
X171419498Y-192650000D02*
X171360000Y-192590502D01*
X171360000Y-181186630D02*
X171426630Y-181120000D01*
X190198411Y-180658411D02*
X190198411Y-172398261D01*
X190198411Y-172398261D02*
X190050000Y-172249850D01*
X171360000Y-192590502D02*
X171360000Y-181186630D01*
%TO.N,/Battery/HEARTBEAT*%
X188220000Y-189510000D02*
X188220000Y-185660000D01*
X186790000Y-184230000D02*
X186790000Y-180290000D01*
X186790000Y-180290000D02*
X187430000Y-179650000D01*
X188220000Y-185660000D02*
X186790000Y-184230000D01*
%TO.N,Net-(R40-Pad2)*%
X201650000Y-156520000D02*
X192961169Y-156520000D01*
X192961169Y-156520000D02*
X192651467Y-156829702D01*
%TO.N,Net-(LED1-Pad1)*%
X174870366Y-168017788D02*
X174870366Y-167368781D01*
X174870366Y-167368781D02*
X173630000Y-166128415D01*
X173630000Y-158430000D02*
X171620000Y-156420000D01*
X173630000Y-166128415D02*
X173630000Y-158430000D01*
%TO.N,Net-(LED5-Pad1)*%
X190900000Y-182680000D02*
X190750000Y-182830000D01*
X192436500Y-155890000D02*
X190900000Y-157426500D01*
X190900000Y-157426500D02*
X190900000Y-182680000D01*
%TD*%
M02*
