%TF.GenerationSoftware,KiCad,Pcbnew,(6.0.1-0)*%
%TF.CreationDate,2022-04-09T17:35:35-06:00*%
%TF.ProjectId,HAT_CM4_183,4841545f-434d-4345-9f31-38332e6b6963,1.8.3*%
%TF.SameCoordinates,Original*%
%TF.FileFunction,Legend,Bot*%
%TF.FilePolarity,Positive*%
%FSLAX46Y46*%
G04 Gerber Fmt 4.6, Leading zero omitted, Abs format (unit mm)*
G04 Created by KiCad (PCBNEW (6.0.1-0)) date 2022-04-09 17:35:35*
%MOMM*%
%LPD*%
G01*
G04 APERTURE LIST*
%ADD10C,0.100000*%
%ADD11C,0.150000*%
%ADD12C,0.120000*%
G04 APERTURE END LIST*
D10*
X132937619Y-199540952D02*
X132937619Y-199140952D01*
X132747142Y-199540952D02*
X132747142Y-199140952D01*
X132594761Y-199140952D01*
X132556666Y-199160000D01*
X132537619Y-199179047D01*
X132518571Y-199217142D01*
X132518571Y-199274285D01*
X132537619Y-199312380D01*
X132556666Y-199331428D01*
X132594761Y-199350476D01*
X132747142Y-199350476D01*
X132366190Y-199521904D02*
X132309047Y-199540952D01*
X132213809Y-199540952D01*
X132175714Y-199521904D01*
X132156666Y-199502857D01*
X132137619Y-199464761D01*
X132137619Y-199426666D01*
X132156666Y-199388571D01*
X132175714Y-199369523D01*
X132213809Y-199350476D01*
X132290000Y-199331428D01*
X132328095Y-199312380D01*
X132347142Y-199293333D01*
X132366190Y-199255238D01*
X132366190Y-199217142D01*
X132347142Y-199179047D01*
X132328095Y-199160000D01*
X132290000Y-199140952D01*
X132194761Y-199140952D01*
X132137619Y-199160000D01*
X131585238Y-199140952D02*
X131509047Y-199140952D01*
X131470952Y-199160000D01*
X131432857Y-199198095D01*
X131413809Y-199274285D01*
X131413809Y-199407619D01*
X131432857Y-199483809D01*
X131470952Y-199521904D01*
X131509047Y-199540952D01*
X131585238Y-199540952D01*
X131623333Y-199521904D01*
X131661428Y-199483809D01*
X131680476Y-199407619D01*
X131680476Y-199274285D01*
X131661428Y-199198095D01*
X131623333Y-199160000D01*
X131585238Y-199140952D01*
X131070952Y-199274285D02*
X131070952Y-199540952D01*
X131242380Y-199274285D02*
X131242380Y-199483809D01*
X131223333Y-199521904D01*
X131185238Y-199540952D01*
X131128095Y-199540952D01*
X131090000Y-199521904D01*
X131070952Y-199502857D01*
X130937619Y-199274285D02*
X130785238Y-199274285D01*
X130880476Y-199140952D02*
X130880476Y-199483809D01*
X130861428Y-199521904D01*
X130823333Y-199540952D01*
X130785238Y-199540952D01*
X125483809Y-199426666D02*
X125293333Y-199426666D01*
X125521904Y-199540952D02*
X125388571Y-199140952D01*
X125255238Y-199540952D01*
X124893333Y-199502857D02*
X124912380Y-199521904D01*
X124969523Y-199540952D01*
X125007619Y-199540952D01*
X125064761Y-199521904D01*
X125102857Y-199483809D01*
X125121904Y-199445714D01*
X125140952Y-199369523D01*
X125140952Y-199312380D01*
X125121904Y-199236190D01*
X125102857Y-199198095D01*
X125064761Y-199160000D01*
X125007619Y-199140952D01*
X124969523Y-199140952D01*
X124912380Y-199160000D01*
X124893333Y-199179047D01*
X124417142Y-199540952D02*
X124417142Y-199140952D01*
X124226666Y-199274285D02*
X124226666Y-199540952D01*
X124226666Y-199312380D02*
X124207619Y-199293333D01*
X124169523Y-199274285D01*
X124112380Y-199274285D01*
X124074285Y-199293333D01*
X124055238Y-199331428D01*
X124055238Y-199540952D01*
X104075249Y-156411426D02*
X104018106Y-156430474D01*
X103999058Y-156449521D01*
X103980011Y-156487617D01*
X103980011Y-156544759D01*
X103999058Y-156582855D01*
X104018106Y-156601902D01*
X104056201Y-156620950D01*
X104208582Y-156620950D01*
X104208582Y-156220950D01*
X104075249Y-156220950D01*
X104037153Y-156239998D01*
X104018106Y-156259045D01*
X103999058Y-156297140D01*
X103999058Y-156335236D01*
X104018106Y-156373331D01*
X104037153Y-156392378D01*
X104075249Y-156411426D01*
X104208582Y-156411426D01*
X103827630Y-156506664D02*
X103637153Y-156506664D01*
X103865725Y-156620950D02*
X103732391Y-156220950D01*
X103599058Y-156620950D01*
X103522868Y-156220950D02*
X103294296Y-156220950D01*
X103408582Y-156620950D02*
X103408582Y-156220950D01*
X103218106Y-156220950D02*
X102989534Y-156220950D01*
X103103820Y-156620950D02*
X103103820Y-156220950D01*
X102856201Y-156468569D02*
X102551439Y-156468569D01*
X102703820Y-156620950D02*
X102703820Y-156316188D01*
X102502380Y-176950952D02*
X102502380Y-176550952D01*
X102350000Y-176550952D01*
X102311904Y-176570000D01*
X102292857Y-176589047D01*
X102273809Y-176627142D01*
X102273809Y-176684285D01*
X102292857Y-176722380D01*
X102311904Y-176741428D01*
X102350000Y-176760476D01*
X102502380Y-176760476D01*
X102140476Y-176684285D02*
X102064285Y-176950952D01*
X101988095Y-176760476D01*
X101911904Y-176950952D01*
X101835714Y-176684285D01*
X101683333Y-176950952D02*
X101683333Y-176684285D01*
X101683333Y-176760476D02*
X101664285Y-176722380D01*
X101645238Y-176703333D01*
X101607142Y-176684285D01*
X101569047Y-176684285D01*
X101530952Y-176989047D02*
X101226190Y-176989047D01*
X100921428Y-176570000D02*
X100959523Y-176550952D01*
X101016666Y-176550952D01*
X101073809Y-176570000D01*
X101111904Y-176608095D01*
X101130952Y-176646190D01*
X101150000Y-176722380D01*
X101150000Y-176779523D01*
X101130952Y-176855714D01*
X101111904Y-176893809D01*
X101073809Y-176931904D01*
X101016666Y-176950952D01*
X100978571Y-176950952D01*
X100921428Y-176931904D01*
X100902380Y-176912857D01*
X100902380Y-176779523D01*
X100978571Y-176779523D01*
X100730952Y-176684285D02*
X100730952Y-176950952D01*
X100730952Y-176722380D02*
X100711904Y-176703333D01*
X100673809Y-176684285D01*
X100616666Y-176684285D01*
X100578571Y-176703333D01*
X100559523Y-176741428D01*
X100559523Y-176950952D01*
X100197619Y-176950952D02*
X100197619Y-176550952D01*
X100197619Y-176931904D02*
X100235714Y-176950952D01*
X100311904Y-176950952D01*
X100350000Y-176931904D01*
X100369047Y-176912857D01*
X100388095Y-176874761D01*
X100388095Y-176760476D01*
X100369047Y-176722380D01*
X100350000Y-176703333D01*
X100311904Y-176684285D01*
X100235714Y-176684285D01*
X100197619Y-176703333D01*
X102312857Y-192720952D02*
X102312857Y-192320952D01*
X102122380Y-192720952D02*
X102122380Y-192320952D01*
X101970000Y-192320952D01*
X101931904Y-192340000D01*
X101912857Y-192359047D01*
X101893809Y-192397142D01*
X101893809Y-192454285D01*
X101912857Y-192492380D01*
X101931904Y-192511428D01*
X101970000Y-192530476D01*
X102122380Y-192530476D01*
X101741428Y-192701904D02*
X101684285Y-192720952D01*
X101589047Y-192720952D01*
X101550952Y-192701904D01*
X101531904Y-192682857D01*
X101512857Y-192644761D01*
X101512857Y-192606666D01*
X101531904Y-192568571D01*
X101550952Y-192549523D01*
X101589047Y-192530476D01*
X101665238Y-192511428D01*
X101703333Y-192492380D01*
X101722380Y-192473333D01*
X101741428Y-192435238D01*
X101741428Y-192397142D01*
X101722380Y-192359047D01*
X101703333Y-192340000D01*
X101665238Y-192320952D01*
X101570000Y-192320952D01*
X101512857Y-192340000D01*
X101055714Y-192701904D02*
X100998571Y-192720952D01*
X100903333Y-192720952D01*
X100865238Y-192701904D01*
X100846190Y-192682857D01*
X100827142Y-192644761D01*
X100827142Y-192606666D01*
X100846190Y-192568571D01*
X100865238Y-192549523D01*
X100903333Y-192530476D01*
X100979523Y-192511428D01*
X101017619Y-192492380D01*
X101036666Y-192473333D01*
X101055714Y-192435238D01*
X101055714Y-192397142D01*
X101036666Y-192359047D01*
X101017619Y-192340000D01*
X100979523Y-192320952D01*
X100884285Y-192320952D01*
X100827142Y-192340000D01*
X100693809Y-192454285D02*
X100617619Y-192720952D01*
X100541428Y-192530476D01*
X100465238Y-192720952D01*
X100389047Y-192454285D01*
X101414285Y-173538571D02*
X101109523Y-173538571D01*
X101261904Y-173690952D02*
X101261904Y-173386190D01*
X100728571Y-173290952D02*
X100919047Y-173290952D01*
X100938095Y-173481428D01*
X100919047Y-173462380D01*
X100880952Y-173443333D01*
X100785714Y-173443333D01*
X100747619Y-173462380D01*
X100728571Y-173481428D01*
X100709523Y-173519523D01*
X100709523Y-173614761D01*
X100728571Y-173652857D01*
X100747619Y-173671904D01*
X100785714Y-173690952D01*
X100880952Y-173690952D01*
X100919047Y-173671904D01*
X100938095Y-173652857D01*
X100595238Y-173290952D02*
X100461904Y-173690952D01*
X100328571Y-173290952D01*
D11*
%TO.C,J4*%
X203233333Y-130842380D02*
X203233333Y-131556666D01*
X203280952Y-131699523D01*
X203376190Y-131794761D01*
X203519047Y-131842380D01*
X203614285Y-131842380D01*
X202328571Y-131175714D02*
X202328571Y-131842380D01*
X202566666Y-130794761D02*
X202804761Y-131509047D01*
X202185714Y-131509047D01*
D10*
%TO.C,C16*%
X106625714Y-190834285D02*
X106654285Y-190862857D01*
X106740000Y-190891428D01*
X106797142Y-190891428D01*
X106882857Y-190862857D01*
X106940000Y-190805714D01*
X106968571Y-190748571D01*
X106997142Y-190634285D01*
X106997142Y-190548571D01*
X106968571Y-190434285D01*
X106940000Y-190377142D01*
X106882857Y-190320000D01*
X106797142Y-190291428D01*
X106740000Y-190291428D01*
X106654285Y-190320000D01*
X106625714Y-190348571D01*
X106054285Y-190891428D02*
X106397142Y-190891428D01*
X106225714Y-190891428D02*
X106225714Y-190291428D01*
X106282857Y-190377142D01*
X106340000Y-190434285D01*
X106397142Y-190462857D01*
X105540000Y-190291428D02*
X105654285Y-190291428D01*
X105711428Y-190320000D01*
X105740000Y-190348571D01*
X105797142Y-190434285D01*
X105825714Y-190548571D01*
X105825714Y-190777142D01*
X105797142Y-190834285D01*
X105768571Y-190862857D01*
X105711428Y-190891428D01*
X105597142Y-190891428D01*
X105540000Y-190862857D01*
X105511428Y-190834285D01*
X105482857Y-190777142D01*
X105482857Y-190634285D01*
X105511428Y-190577142D01*
X105540000Y-190548571D01*
X105597142Y-190520000D01*
X105711428Y-190520000D01*
X105768571Y-190548571D01*
X105797142Y-190577142D01*
X105825714Y-190634285D01*
%TO.C,C40*%
X168345714Y-185414285D02*
X168374285Y-185442857D01*
X168460000Y-185471428D01*
X168517142Y-185471428D01*
X168602857Y-185442857D01*
X168660000Y-185385714D01*
X168688571Y-185328571D01*
X168717142Y-185214285D01*
X168717142Y-185128571D01*
X168688571Y-185014285D01*
X168660000Y-184957142D01*
X168602857Y-184900000D01*
X168517142Y-184871428D01*
X168460000Y-184871428D01*
X168374285Y-184900000D01*
X168345714Y-184928571D01*
X167831428Y-185071428D02*
X167831428Y-185471428D01*
X167974285Y-184842857D02*
X168117142Y-185271428D01*
X167745714Y-185271428D01*
X167402857Y-184871428D02*
X167345714Y-184871428D01*
X167288571Y-184900000D01*
X167260000Y-184928571D01*
X167231428Y-184985714D01*
X167202857Y-185100000D01*
X167202857Y-185242857D01*
X167231428Y-185357142D01*
X167260000Y-185414285D01*
X167288571Y-185442857D01*
X167345714Y-185471428D01*
X167402857Y-185471428D01*
X167460000Y-185442857D01*
X167488571Y-185414285D01*
X167517142Y-185357142D01*
X167545714Y-185242857D01*
X167545714Y-185100000D01*
X167517142Y-184985714D01*
X167488571Y-184928571D01*
X167460000Y-184900000D01*
X167402857Y-184871428D01*
%TO.C,C20*%
X114865714Y-175874285D02*
X114894285Y-175902857D01*
X114980000Y-175931428D01*
X115037142Y-175931428D01*
X115122857Y-175902857D01*
X115180000Y-175845714D01*
X115208571Y-175788571D01*
X115237142Y-175674285D01*
X115237142Y-175588571D01*
X115208571Y-175474285D01*
X115180000Y-175417142D01*
X115122857Y-175360000D01*
X115037142Y-175331428D01*
X114980000Y-175331428D01*
X114894285Y-175360000D01*
X114865714Y-175388571D01*
X114637142Y-175388571D02*
X114608571Y-175360000D01*
X114551428Y-175331428D01*
X114408571Y-175331428D01*
X114351428Y-175360000D01*
X114322857Y-175388571D01*
X114294285Y-175445714D01*
X114294285Y-175502857D01*
X114322857Y-175588571D01*
X114665714Y-175931428D01*
X114294285Y-175931428D01*
X113922857Y-175331428D02*
X113865714Y-175331428D01*
X113808571Y-175360000D01*
X113780000Y-175388571D01*
X113751428Y-175445714D01*
X113722857Y-175560000D01*
X113722857Y-175702857D01*
X113751428Y-175817142D01*
X113780000Y-175874285D01*
X113808571Y-175902857D01*
X113865714Y-175931428D01*
X113922857Y-175931428D01*
X113980000Y-175902857D01*
X114008571Y-175874285D01*
X114037142Y-175817142D01*
X114065714Y-175702857D01*
X114065714Y-175560000D01*
X114037142Y-175445714D01*
X114008571Y-175388571D01*
X113980000Y-175360000D01*
X113922857Y-175331428D01*
%TO.C,R2*%
X199500000Y-182281428D02*
X199700000Y-181995714D01*
X199842857Y-182281428D02*
X199842857Y-181681428D01*
X199614285Y-181681428D01*
X199557142Y-181710000D01*
X199528571Y-181738571D01*
X199500000Y-181795714D01*
X199500000Y-181881428D01*
X199528571Y-181938571D01*
X199557142Y-181967142D01*
X199614285Y-181995714D01*
X199842857Y-181995714D01*
X199271428Y-181738571D02*
X199242857Y-181710000D01*
X199185714Y-181681428D01*
X199042857Y-181681428D01*
X198985714Y-181710000D01*
X198957142Y-181738571D01*
X198928571Y-181795714D01*
X198928571Y-181852857D01*
X198957142Y-181938571D01*
X199300000Y-182281428D01*
X198928571Y-182281428D01*
%TO.C,U6*%
X198682044Y-133841428D02*
X198682044Y-134327142D01*
X198653473Y-134384285D01*
X198624902Y-134412857D01*
X198567759Y-134441428D01*
X198453473Y-134441428D01*
X198396330Y-134412857D01*
X198367759Y-134384285D01*
X198339187Y-134327142D01*
X198339187Y-133841428D01*
X197796330Y-133841428D02*
X197910616Y-133841428D01*
X197967759Y-133870000D01*
X197996330Y-133898571D01*
X198053473Y-133984285D01*
X198082044Y-134098571D01*
X198082044Y-134327142D01*
X198053473Y-134384285D01*
X198024902Y-134412857D01*
X197967759Y-134441428D01*
X197853473Y-134441428D01*
X197796330Y-134412857D01*
X197767759Y-134384285D01*
X197739187Y-134327142D01*
X197739187Y-134184285D01*
X197767759Y-134127142D01*
X197796330Y-134098571D01*
X197853473Y-134070000D01*
X197967759Y-134070000D01*
X198024902Y-134098571D01*
X198053473Y-134127142D01*
X198082044Y-134184285D01*
%TO.C,R28*%
X192525714Y-161001428D02*
X192725714Y-160715714D01*
X192868571Y-161001428D02*
X192868571Y-160401428D01*
X192640000Y-160401428D01*
X192582857Y-160430000D01*
X192554285Y-160458571D01*
X192525714Y-160515714D01*
X192525714Y-160601428D01*
X192554285Y-160658571D01*
X192582857Y-160687142D01*
X192640000Y-160715714D01*
X192868571Y-160715714D01*
X192297142Y-160458571D02*
X192268571Y-160430000D01*
X192211428Y-160401428D01*
X192068571Y-160401428D01*
X192011428Y-160430000D01*
X191982857Y-160458571D01*
X191954285Y-160515714D01*
X191954285Y-160572857D01*
X191982857Y-160658571D01*
X192325714Y-161001428D01*
X191954285Y-161001428D01*
X191611428Y-160658571D02*
X191668571Y-160630000D01*
X191697142Y-160601428D01*
X191725714Y-160544285D01*
X191725714Y-160515714D01*
X191697142Y-160458571D01*
X191668571Y-160430000D01*
X191611428Y-160401428D01*
X191497142Y-160401428D01*
X191440000Y-160430000D01*
X191411428Y-160458571D01*
X191382857Y-160515714D01*
X191382857Y-160544285D01*
X191411428Y-160601428D01*
X191440000Y-160630000D01*
X191497142Y-160658571D01*
X191611428Y-160658571D01*
X191668571Y-160687142D01*
X191697142Y-160715714D01*
X191725714Y-160772857D01*
X191725714Y-160887142D01*
X191697142Y-160944285D01*
X191668571Y-160972857D01*
X191611428Y-161001428D01*
X191497142Y-161001428D01*
X191440000Y-160972857D01*
X191411428Y-160944285D01*
X191382857Y-160887142D01*
X191382857Y-160772857D01*
X191411428Y-160715714D01*
X191440000Y-160687142D01*
X191497142Y-160658571D01*
%TO.C,R19*%
X179375714Y-172311428D02*
X179575714Y-172025714D01*
X179718571Y-172311428D02*
X179718571Y-171711428D01*
X179490000Y-171711428D01*
X179432857Y-171740000D01*
X179404285Y-171768571D01*
X179375714Y-171825714D01*
X179375714Y-171911428D01*
X179404285Y-171968571D01*
X179432857Y-171997142D01*
X179490000Y-172025714D01*
X179718571Y-172025714D01*
X178804285Y-172311428D02*
X179147142Y-172311428D01*
X178975714Y-172311428D02*
X178975714Y-171711428D01*
X179032857Y-171797142D01*
X179090000Y-171854285D01*
X179147142Y-171882857D01*
X178518571Y-172311428D02*
X178404285Y-172311428D01*
X178347142Y-172282857D01*
X178318571Y-172254285D01*
X178261428Y-172168571D01*
X178232857Y-172054285D01*
X178232857Y-171825714D01*
X178261428Y-171768571D01*
X178290000Y-171740000D01*
X178347142Y-171711428D01*
X178461428Y-171711428D01*
X178518571Y-171740000D01*
X178547142Y-171768571D01*
X178575714Y-171825714D01*
X178575714Y-171968571D01*
X178547142Y-172025714D01*
X178518571Y-172054285D01*
X178461428Y-172082857D01*
X178347142Y-172082857D01*
X178290000Y-172054285D01*
X178261428Y-172025714D01*
X178232857Y-171968571D01*
%TO.C,R3*%
X195070000Y-168991428D02*
X195270000Y-168705714D01*
X195412857Y-168991428D02*
X195412857Y-168391428D01*
X195184285Y-168391428D01*
X195127142Y-168420000D01*
X195098571Y-168448571D01*
X195070000Y-168505714D01*
X195070000Y-168591428D01*
X195098571Y-168648571D01*
X195127142Y-168677142D01*
X195184285Y-168705714D01*
X195412857Y-168705714D01*
X194870000Y-168391428D02*
X194498571Y-168391428D01*
X194698571Y-168620000D01*
X194612857Y-168620000D01*
X194555714Y-168648571D01*
X194527142Y-168677142D01*
X194498571Y-168734285D01*
X194498571Y-168877142D01*
X194527142Y-168934285D01*
X194555714Y-168962857D01*
X194612857Y-168991428D01*
X194784285Y-168991428D01*
X194841428Y-168962857D01*
X194870000Y-168934285D01*
%TO.C,Q16*%
X189922857Y-161208571D02*
X189980000Y-161180000D01*
X190037142Y-161122857D01*
X190122857Y-161037142D01*
X190180000Y-161008571D01*
X190237142Y-161008571D01*
X190208571Y-161151428D02*
X190265714Y-161122857D01*
X190322857Y-161065714D01*
X190351428Y-160951428D01*
X190351428Y-160751428D01*
X190322857Y-160637142D01*
X190265714Y-160580000D01*
X190208571Y-160551428D01*
X190094285Y-160551428D01*
X190037142Y-160580000D01*
X189980000Y-160637142D01*
X189951428Y-160751428D01*
X189951428Y-160951428D01*
X189980000Y-161065714D01*
X190037142Y-161122857D01*
X190094285Y-161151428D01*
X190208571Y-161151428D01*
X189380000Y-161151428D02*
X189722857Y-161151428D01*
X189551428Y-161151428D02*
X189551428Y-160551428D01*
X189608571Y-160637142D01*
X189665714Y-160694285D01*
X189722857Y-160722857D01*
X188865714Y-160551428D02*
X188980000Y-160551428D01*
X189037142Y-160580000D01*
X189065714Y-160608571D01*
X189122857Y-160694285D01*
X189151428Y-160808571D01*
X189151428Y-161037142D01*
X189122857Y-161094285D01*
X189094285Y-161122857D01*
X189037142Y-161151428D01*
X188922857Y-161151428D01*
X188865714Y-161122857D01*
X188837142Y-161094285D01*
X188808571Y-161037142D01*
X188808571Y-160894285D01*
X188837142Y-160837142D01*
X188865714Y-160808571D01*
X188922857Y-160780000D01*
X189037142Y-160780000D01*
X189094285Y-160808571D01*
X189122857Y-160837142D01*
X189151428Y-160894285D01*
%TO.C,R16*%
X144985714Y-162821428D02*
X145185714Y-162535714D01*
X145328571Y-162821428D02*
X145328571Y-162221428D01*
X145100000Y-162221428D01*
X145042857Y-162250000D01*
X145014285Y-162278571D01*
X144985714Y-162335714D01*
X144985714Y-162421428D01*
X145014285Y-162478571D01*
X145042857Y-162507142D01*
X145100000Y-162535714D01*
X145328571Y-162535714D01*
X144414285Y-162821428D02*
X144757142Y-162821428D01*
X144585714Y-162821428D02*
X144585714Y-162221428D01*
X144642857Y-162307142D01*
X144700000Y-162364285D01*
X144757142Y-162392857D01*
X143900000Y-162221428D02*
X144014285Y-162221428D01*
X144071428Y-162250000D01*
X144100000Y-162278571D01*
X144157142Y-162364285D01*
X144185714Y-162478571D01*
X144185714Y-162707142D01*
X144157142Y-162764285D01*
X144128571Y-162792857D01*
X144071428Y-162821428D01*
X143957142Y-162821428D01*
X143900000Y-162792857D01*
X143871428Y-162764285D01*
X143842857Y-162707142D01*
X143842857Y-162564285D01*
X143871428Y-162507142D01*
X143900000Y-162478571D01*
X143957142Y-162450000D01*
X144071428Y-162450000D01*
X144128571Y-162478571D01*
X144157142Y-162507142D01*
X144185714Y-162564285D01*
D11*
%TO.C,J6*%
X136613333Y-176572380D02*
X136613333Y-177286666D01*
X136660952Y-177429523D01*
X136756190Y-177524761D01*
X136899047Y-177572380D01*
X136994285Y-177572380D01*
X135708571Y-176572380D02*
X135899047Y-176572380D01*
X135994285Y-176620000D01*
X136041904Y-176667619D01*
X136137142Y-176810476D01*
X136184761Y-177000952D01*
X136184761Y-177381904D01*
X136137142Y-177477142D01*
X136089523Y-177524761D01*
X135994285Y-177572380D01*
X135803809Y-177572380D01*
X135708571Y-177524761D01*
X135660952Y-177477142D01*
X135613333Y-177381904D01*
X135613333Y-177143809D01*
X135660952Y-177048571D01*
X135708571Y-177000952D01*
X135803809Y-176953333D01*
X135994285Y-176953333D01*
X136089523Y-177000952D01*
X136137142Y-177048571D01*
X136184761Y-177143809D01*
D10*
%TO.C,R11*%
X170255714Y-184411428D02*
X170455714Y-184125714D01*
X170598571Y-184411428D02*
X170598571Y-183811428D01*
X170370000Y-183811428D01*
X170312857Y-183840000D01*
X170284285Y-183868571D01*
X170255714Y-183925714D01*
X170255714Y-184011428D01*
X170284285Y-184068571D01*
X170312857Y-184097142D01*
X170370000Y-184125714D01*
X170598571Y-184125714D01*
X169684285Y-184411428D02*
X170027142Y-184411428D01*
X169855714Y-184411428D02*
X169855714Y-183811428D01*
X169912857Y-183897142D01*
X169970000Y-183954285D01*
X170027142Y-183982857D01*
X169112857Y-184411428D02*
X169455714Y-184411428D01*
X169284285Y-184411428D02*
X169284285Y-183811428D01*
X169341428Y-183897142D01*
X169398571Y-183954285D01*
X169455714Y-183982857D01*
%TO.C,R12*%
X183315714Y-178431428D02*
X183515714Y-178145714D01*
X183658571Y-178431428D02*
X183658571Y-177831428D01*
X183430000Y-177831428D01*
X183372857Y-177860000D01*
X183344285Y-177888571D01*
X183315714Y-177945714D01*
X183315714Y-178031428D01*
X183344285Y-178088571D01*
X183372857Y-178117142D01*
X183430000Y-178145714D01*
X183658571Y-178145714D01*
X182744285Y-178431428D02*
X183087142Y-178431428D01*
X182915714Y-178431428D02*
X182915714Y-177831428D01*
X182972857Y-177917142D01*
X183030000Y-177974285D01*
X183087142Y-178002857D01*
X182515714Y-177888571D02*
X182487142Y-177860000D01*
X182430000Y-177831428D01*
X182287142Y-177831428D01*
X182230000Y-177860000D01*
X182201428Y-177888571D01*
X182172857Y-177945714D01*
X182172857Y-178002857D01*
X182201428Y-178088571D01*
X182544285Y-178431428D01*
X182172857Y-178431428D01*
%TO.C,PB1*%
X203332857Y-163421428D02*
X203332857Y-162821428D01*
X203104285Y-162821428D01*
X203047142Y-162850000D01*
X203018571Y-162878571D01*
X202990000Y-162935714D01*
X202990000Y-163021428D01*
X203018571Y-163078571D01*
X203047142Y-163107142D01*
X203104285Y-163135714D01*
X203332857Y-163135714D01*
X202532857Y-163107142D02*
X202447142Y-163135714D01*
X202418571Y-163164285D01*
X202390000Y-163221428D01*
X202390000Y-163307142D01*
X202418571Y-163364285D01*
X202447142Y-163392857D01*
X202504285Y-163421428D01*
X202732857Y-163421428D01*
X202732857Y-162821428D01*
X202532857Y-162821428D01*
X202475714Y-162850000D01*
X202447142Y-162878571D01*
X202418571Y-162935714D01*
X202418571Y-162992857D01*
X202447142Y-163050000D01*
X202475714Y-163078571D01*
X202532857Y-163107142D01*
X202732857Y-163107142D01*
X201818571Y-163421428D02*
X202161428Y-163421428D01*
X201990000Y-163421428D02*
X201990000Y-162821428D01*
X202047142Y-162907142D01*
X202104285Y-162964285D01*
X202161428Y-162992857D01*
%TO.C,R57*%
X198795714Y-189091428D02*
X198995714Y-188805714D01*
X199138571Y-189091428D02*
X199138571Y-188491428D01*
X198910000Y-188491428D01*
X198852857Y-188520000D01*
X198824285Y-188548571D01*
X198795714Y-188605714D01*
X198795714Y-188691428D01*
X198824285Y-188748571D01*
X198852857Y-188777142D01*
X198910000Y-188805714D01*
X199138571Y-188805714D01*
X198252857Y-188491428D02*
X198538571Y-188491428D01*
X198567142Y-188777142D01*
X198538571Y-188748571D01*
X198481428Y-188720000D01*
X198338571Y-188720000D01*
X198281428Y-188748571D01*
X198252857Y-188777142D01*
X198224285Y-188834285D01*
X198224285Y-188977142D01*
X198252857Y-189034285D01*
X198281428Y-189062857D01*
X198338571Y-189091428D01*
X198481428Y-189091428D01*
X198538571Y-189062857D01*
X198567142Y-189034285D01*
X198024285Y-188491428D02*
X197624285Y-188491428D01*
X197881428Y-189091428D01*
%TO.C,R27*%
X195125714Y-165651428D02*
X195325714Y-165365714D01*
X195468571Y-165651428D02*
X195468571Y-165051428D01*
X195240000Y-165051428D01*
X195182857Y-165080000D01*
X195154285Y-165108571D01*
X195125714Y-165165714D01*
X195125714Y-165251428D01*
X195154285Y-165308571D01*
X195182857Y-165337142D01*
X195240000Y-165365714D01*
X195468571Y-165365714D01*
X194897142Y-165108571D02*
X194868571Y-165080000D01*
X194811428Y-165051428D01*
X194668571Y-165051428D01*
X194611428Y-165080000D01*
X194582857Y-165108571D01*
X194554285Y-165165714D01*
X194554285Y-165222857D01*
X194582857Y-165308571D01*
X194925714Y-165651428D01*
X194554285Y-165651428D01*
X194354285Y-165051428D02*
X193954285Y-165051428D01*
X194211428Y-165651428D01*
%TO.C,R26*%
X168475714Y-158871428D02*
X168675714Y-158585714D01*
X168818571Y-158871428D02*
X168818571Y-158271428D01*
X168590000Y-158271428D01*
X168532857Y-158300000D01*
X168504285Y-158328571D01*
X168475714Y-158385714D01*
X168475714Y-158471428D01*
X168504285Y-158528571D01*
X168532857Y-158557142D01*
X168590000Y-158585714D01*
X168818571Y-158585714D01*
X168247142Y-158328571D02*
X168218571Y-158300000D01*
X168161428Y-158271428D01*
X168018571Y-158271428D01*
X167961428Y-158300000D01*
X167932857Y-158328571D01*
X167904285Y-158385714D01*
X167904285Y-158442857D01*
X167932857Y-158528571D01*
X168275714Y-158871428D01*
X167904285Y-158871428D01*
X167390000Y-158271428D02*
X167504285Y-158271428D01*
X167561428Y-158300000D01*
X167590000Y-158328571D01*
X167647142Y-158414285D01*
X167675714Y-158528571D01*
X167675714Y-158757142D01*
X167647142Y-158814285D01*
X167618571Y-158842857D01*
X167561428Y-158871428D01*
X167447142Y-158871428D01*
X167390000Y-158842857D01*
X167361428Y-158814285D01*
X167332857Y-158757142D01*
X167332857Y-158614285D01*
X167361428Y-158557142D01*
X167390000Y-158528571D01*
X167447142Y-158500000D01*
X167561428Y-158500000D01*
X167618571Y-158528571D01*
X167647142Y-158557142D01*
X167675714Y-158614285D01*
%TO.C,LED3*%
X155031428Y-158431428D02*
X155317142Y-158431428D01*
X155317142Y-157831428D01*
X154831428Y-158117142D02*
X154631428Y-158117142D01*
X154545714Y-158431428D02*
X154831428Y-158431428D01*
X154831428Y-157831428D01*
X154545714Y-157831428D01*
X154288571Y-158431428D02*
X154288571Y-157831428D01*
X154145714Y-157831428D01*
X154060000Y-157860000D01*
X154002857Y-157917142D01*
X153974285Y-157974285D01*
X153945714Y-158088571D01*
X153945714Y-158174285D01*
X153974285Y-158288571D01*
X154002857Y-158345714D01*
X154060000Y-158402857D01*
X154145714Y-158431428D01*
X154288571Y-158431428D01*
X153745714Y-157831428D02*
X153374285Y-157831428D01*
X153574285Y-158060000D01*
X153488571Y-158060000D01*
X153431428Y-158088571D01*
X153402857Y-158117142D01*
X153374285Y-158174285D01*
X153374285Y-158317142D01*
X153402857Y-158374285D01*
X153431428Y-158402857D01*
X153488571Y-158431428D01*
X153660000Y-158431428D01*
X153717142Y-158402857D01*
X153745714Y-158374285D01*
%TO.C,R8*%
X105440000Y-157541428D02*
X105640000Y-157255714D01*
X105782857Y-157541428D02*
X105782857Y-156941428D01*
X105554285Y-156941428D01*
X105497142Y-156970000D01*
X105468571Y-156998571D01*
X105440000Y-157055714D01*
X105440000Y-157141428D01*
X105468571Y-157198571D01*
X105497142Y-157227142D01*
X105554285Y-157255714D01*
X105782857Y-157255714D01*
X105097142Y-157198571D02*
X105154285Y-157170000D01*
X105182857Y-157141428D01*
X105211428Y-157084285D01*
X105211428Y-157055714D01*
X105182857Y-156998571D01*
X105154285Y-156970000D01*
X105097142Y-156941428D01*
X104982857Y-156941428D01*
X104925714Y-156970000D01*
X104897142Y-156998571D01*
X104868571Y-157055714D01*
X104868571Y-157084285D01*
X104897142Y-157141428D01*
X104925714Y-157170000D01*
X104982857Y-157198571D01*
X105097142Y-157198571D01*
X105154285Y-157227142D01*
X105182857Y-157255714D01*
X105211428Y-157312857D01*
X105211428Y-157427142D01*
X105182857Y-157484285D01*
X105154285Y-157512857D01*
X105097142Y-157541428D01*
X104982857Y-157541428D01*
X104925714Y-157512857D01*
X104897142Y-157484285D01*
X104868571Y-157427142D01*
X104868571Y-157312857D01*
X104897142Y-157255714D01*
X104925714Y-157227142D01*
X104982857Y-157198571D01*
%TO.C,R13*%
X179555714Y-176501428D02*
X179755714Y-176215714D01*
X179898571Y-176501428D02*
X179898571Y-175901428D01*
X179670000Y-175901428D01*
X179612857Y-175930000D01*
X179584285Y-175958571D01*
X179555714Y-176015714D01*
X179555714Y-176101428D01*
X179584285Y-176158571D01*
X179612857Y-176187142D01*
X179670000Y-176215714D01*
X179898571Y-176215714D01*
X178984285Y-176501428D02*
X179327142Y-176501428D01*
X179155714Y-176501428D02*
X179155714Y-175901428D01*
X179212857Y-175987142D01*
X179270000Y-176044285D01*
X179327142Y-176072857D01*
X178784285Y-175901428D02*
X178412857Y-175901428D01*
X178612857Y-176130000D01*
X178527142Y-176130000D01*
X178470000Y-176158571D01*
X178441428Y-176187142D01*
X178412857Y-176244285D01*
X178412857Y-176387142D01*
X178441428Y-176444285D01*
X178470000Y-176472857D01*
X178527142Y-176501428D01*
X178698571Y-176501428D01*
X178755714Y-176472857D01*
X178784285Y-176444285D01*
%TO.C,Q9*%
X132177142Y-162198571D02*
X132234285Y-162170000D01*
X132291428Y-162112857D01*
X132377142Y-162027142D01*
X132434285Y-161998571D01*
X132491428Y-161998571D01*
X132462857Y-162141428D02*
X132520000Y-162112857D01*
X132577142Y-162055714D01*
X132605714Y-161941428D01*
X132605714Y-161741428D01*
X132577142Y-161627142D01*
X132520000Y-161570000D01*
X132462857Y-161541428D01*
X132348571Y-161541428D01*
X132291428Y-161570000D01*
X132234285Y-161627142D01*
X132205714Y-161741428D01*
X132205714Y-161941428D01*
X132234285Y-162055714D01*
X132291428Y-162112857D01*
X132348571Y-162141428D01*
X132462857Y-162141428D01*
X131920000Y-162141428D02*
X131805714Y-162141428D01*
X131748571Y-162112857D01*
X131720000Y-162084285D01*
X131662857Y-161998571D01*
X131634285Y-161884285D01*
X131634285Y-161655714D01*
X131662857Y-161598571D01*
X131691428Y-161570000D01*
X131748571Y-161541428D01*
X131862857Y-161541428D01*
X131920000Y-161570000D01*
X131948571Y-161598571D01*
X131977142Y-161655714D01*
X131977142Y-161798571D01*
X131948571Y-161855714D01*
X131920000Y-161884285D01*
X131862857Y-161912857D01*
X131748571Y-161912857D01*
X131691428Y-161884285D01*
X131662857Y-161855714D01*
X131634285Y-161798571D01*
%TO.C,C39*%
X138075714Y-191254285D02*
X138104285Y-191282857D01*
X138190000Y-191311428D01*
X138247142Y-191311428D01*
X138332857Y-191282857D01*
X138390000Y-191225714D01*
X138418571Y-191168571D01*
X138447142Y-191054285D01*
X138447142Y-190968571D01*
X138418571Y-190854285D01*
X138390000Y-190797142D01*
X138332857Y-190740000D01*
X138247142Y-190711428D01*
X138190000Y-190711428D01*
X138104285Y-190740000D01*
X138075714Y-190768571D01*
X137875714Y-190711428D02*
X137504285Y-190711428D01*
X137704285Y-190940000D01*
X137618571Y-190940000D01*
X137561428Y-190968571D01*
X137532857Y-190997142D01*
X137504285Y-191054285D01*
X137504285Y-191197142D01*
X137532857Y-191254285D01*
X137561428Y-191282857D01*
X137618571Y-191311428D01*
X137790000Y-191311428D01*
X137847142Y-191282857D01*
X137875714Y-191254285D01*
X137218571Y-191311428D02*
X137104285Y-191311428D01*
X137047142Y-191282857D01*
X137018571Y-191254285D01*
X136961428Y-191168571D01*
X136932857Y-191054285D01*
X136932857Y-190825714D01*
X136961428Y-190768571D01*
X136990000Y-190740000D01*
X137047142Y-190711428D01*
X137161428Y-190711428D01*
X137218571Y-190740000D01*
X137247142Y-190768571D01*
X137275714Y-190825714D01*
X137275714Y-190968571D01*
X137247142Y-191025714D01*
X137218571Y-191054285D01*
X137161428Y-191082857D01*
X137047142Y-191082857D01*
X136990000Y-191054285D01*
X136961428Y-191025714D01*
X136932857Y-190968571D01*
%TO.C,R21*%
X165755714Y-166581428D02*
X165955714Y-166295714D01*
X166098571Y-166581428D02*
X166098571Y-165981428D01*
X165870000Y-165981428D01*
X165812857Y-166010000D01*
X165784285Y-166038571D01*
X165755714Y-166095714D01*
X165755714Y-166181428D01*
X165784285Y-166238571D01*
X165812857Y-166267142D01*
X165870000Y-166295714D01*
X166098571Y-166295714D01*
X165527142Y-166038571D02*
X165498571Y-166010000D01*
X165441428Y-165981428D01*
X165298571Y-165981428D01*
X165241428Y-166010000D01*
X165212857Y-166038571D01*
X165184285Y-166095714D01*
X165184285Y-166152857D01*
X165212857Y-166238571D01*
X165555714Y-166581428D01*
X165184285Y-166581428D01*
X164612857Y-166581428D02*
X164955714Y-166581428D01*
X164784285Y-166581428D02*
X164784285Y-165981428D01*
X164841428Y-166067142D01*
X164898571Y-166124285D01*
X164955714Y-166152857D01*
%TO.C,C15*%
X118045714Y-167304285D02*
X118074285Y-167332857D01*
X118160000Y-167361428D01*
X118217142Y-167361428D01*
X118302857Y-167332857D01*
X118360000Y-167275714D01*
X118388571Y-167218571D01*
X118417142Y-167104285D01*
X118417142Y-167018571D01*
X118388571Y-166904285D01*
X118360000Y-166847142D01*
X118302857Y-166790000D01*
X118217142Y-166761428D01*
X118160000Y-166761428D01*
X118074285Y-166790000D01*
X118045714Y-166818571D01*
X117474285Y-167361428D02*
X117817142Y-167361428D01*
X117645714Y-167361428D02*
X117645714Y-166761428D01*
X117702857Y-166847142D01*
X117760000Y-166904285D01*
X117817142Y-166932857D01*
X116931428Y-166761428D02*
X117217142Y-166761428D01*
X117245714Y-167047142D01*
X117217142Y-167018571D01*
X117160000Y-166990000D01*
X117017142Y-166990000D01*
X116960000Y-167018571D01*
X116931428Y-167047142D01*
X116902857Y-167104285D01*
X116902857Y-167247142D01*
X116931428Y-167304285D01*
X116960000Y-167332857D01*
X117017142Y-167361428D01*
X117160000Y-167361428D01*
X117217142Y-167332857D01*
X117245714Y-167304285D01*
%TO.C,R1*%
X194930000Y-171591428D02*
X195130000Y-171305714D01*
X195272857Y-171591428D02*
X195272857Y-170991428D01*
X195044285Y-170991428D01*
X194987142Y-171020000D01*
X194958571Y-171048571D01*
X194930000Y-171105714D01*
X194930000Y-171191428D01*
X194958571Y-171248571D01*
X194987142Y-171277142D01*
X195044285Y-171305714D01*
X195272857Y-171305714D01*
X194358571Y-171591428D02*
X194701428Y-171591428D01*
X194530000Y-171591428D02*
X194530000Y-170991428D01*
X194587142Y-171077142D01*
X194644285Y-171134285D01*
X194701428Y-171162857D01*
%TO.C,LED4*%
X171431428Y-158861428D02*
X171717142Y-158861428D01*
X171717142Y-158261428D01*
X171231428Y-158547142D02*
X171031428Y-158547142D01*
X170945714Y-158861428D02*
X171231428Y-158861428D01*
X171231428Y-158261428D01*
X170945714Y-158261428D01*
X170688571Y-158861428D02*
X170688571Y-158261428D01*
X170545714Y-158261428D01*
X170460000Y-158290000D01*
X170402857Y-158347142D01*
X170374285Y-158404285D01*
X170345714Y-158518571D01*
X170345714Y-158604285D01*
X170374285Y-158718571D01*
X170402857Y-158775714D01*
X170460000Y-158832857D01*
X170545714Y-158861428D01*
X170688571Y-158861428D01*
X169831428Y-158461428D02*
X169831428Y-158861428D01*
X169974285Y-158232857D02*
X170117142Y-158661428D01*
X169745714Y-158661428D01*
%TO.C,R9*%
X109950000Y-162751428D02*
X110150000Y-162465714D01*
X110292857Y-162751428D02*
X110292857Y-162151428D01*
X110064285Y-162151428D01*
X110007142Y-162180000D01*
X109978571Y-162208571D01*
X109950000Y-162265714D01*
X109950000Y-162351428D01*
X109978571Y-162408571D01*
X110007142Y-162437142D01*
X110064285Y-162465714D01*
X110292857Y-162465714D01*
X109664285Y-162751428D02*
X109550000Y-162751428D01*
X109492857Y-162722857D01*
X109464285Y-162694285D01*
X109407142Y-162608571D01*
X109378571Y-162494285D01*
X109378571Y-162265714D01*
X109407142Y-162208571D01*
X109435714Y-162180000D01*
X109492857Y-162151428D01*
X109607142Y-162151428D01*
X109664285Y-162180000D01*
X109692857Y-162208571D01*
X109721428Y-162265714D01*
X109721428Y-162408571D01*
X109692857Y-162465714D01*
X109664285Y-162494285D01*
X109607142Y-162522857D01*
X109492857Y-162522857D01*
X109435714Y-162494285D01*
X109407142Y-162465714D01*
X109378571Y-162408571D01*
%TO.C,Q12*%
X169622857Y-163458571D02*
X169680000Y-163430000D01*
X169737142Y-163372857D01*
X169822857Y-163287142D01*
X169880000Y-163258571D01*
X169937142Y-163258571D01*
X169908571Y-163401428D02*
X169965714Y-163372857D01*
X170022857Y-163315714D01*
X170051428Y-163201428D01*
X170051428Y-163001428D01*
X170022857Y-162887142D01*
X169965714Y-162830000D01*
X169908571Y-162801428D01*
X169794285Y-162801428D01*
X169737142Y-162830000D01*
X169680000Y-162887142D01*
X169651428Y-163001428D01*
X169651428Y-163201428D01*
X169680000Y-163315714D01*
X169737142Y-163372857D01*
X169794285Y-163401428D01*
X169908571Y-163401428D01*
X169080000Y-163401428D02*
X169422857Y-163401428D01*
X169251428Y-163401428D02*
X169251428Y-162801428D01*
X169308571Y-162887142D01*
X169365714Y-162944285D01*
X169422857Y-162972857D01*
X168851428Y-162858571D02*
X168822857Y-162830000D01*
X168765714Y-162801428D01*
X168622857Y-162801428D01*
X168565714Y-162830000D01*
X168537142Y-162858571D01*
X168508571Y-162915714D01*
X168508571Y-162972857D01*
X168537142Y-163058571D01*
X168880000Y-163401428D01*
X168508571Y-163401428D01*
%TO.C,Q11*%
X172002857Y-172318571D02*
X172060000Y-172290000D01*
X172117142Y-172232857D01*
X172202857Y-172147142D01*
X172260000Y-172118571D01*
X172317142Y-172118571D01*
X172288571Y-172261428D02*
X172345714Y-172232857D01*
X172402857Y-172175714D01*
X172431428Y-172061428D01*
X172431428Y-171861428D01*
X172402857Y-171747142D01*
X172345714Y-171690000D01*
X172288571Y-171661428D01*
X172174285Y-171661428D01*
X172117142Y-171690000D01*
X172060000Y-171747142D01*
X172031428Y-171861428D01*
X172031428Y-172061428D01*
X172060000Y-172175714D01*
X172117142Y-172232857D01*
X172174285Y-172261428D01*
X172288571Y-172261428D01*
X171460000Y-172261428D02*
X171802857Y-172261428D01*
X171631428Y-172261428D02*
X171631428Y-171661428D01*
X171688571Y-171747142D01*
X171745714Y-171804285D01*
X171802857Y-171832857D01*
X170888571Y-172261428D02*
X171231428Y-172261428D01*
X171060000Y-172261428D02*
X171060000Y-171661428D01*
X171117142Y-171747142D01*
X171174285Y-171804285D01*
X171231428Y-171832857D01*
%TO.C,C14*%
X118605714Y-170874285D02*
X118634285Y-170902857D01*
X118720000Y-170931428D01*
X118777142Y-170931428D01*
X118862857Y-170902857D01*
X118920000Y-170845714D01*
X118948571Y-170788571D01*
X118977142Y-170674285D01*
X118977142Y-170588571D01*
X118948571Y-170474285D01*
X118920000Y-170417142D01*
X118862857Y-170360000D01*
X118777142Y-170331428D01*
X118720000Y-170331428D01*
X118634285Y-170360000D01*
X118605714Y-170388571D01*
X118034285Y-170931428D02*
X118377142Y-170931428D01*
X118205714Y-170931428D02*
X118205714Y-170331428D01*
X118262857Y-170417142D01*
X118320000Y-170474285D01*
X118377142Y-170502857D01*
X117520000Y-170531428D02*
X117520000Y-170931428D01*
X117662857Y-170302857D02*
X117805714Y-170731428D01*
X117434285Y-170731428D01*
%TO.C,R23*%
X168535714Y-172471428D02*
X168735714Y-172185714D01*
X168878571Y-172471428D02*
X168878571Y-171871428D01*
X168650000Y-171871428D01*
X168592857Y-171900000D01*
X168564285Y-171928571D01*
X168535714Y-171985714D01*
X168535714Y-172071428D01*
X168564285Y-172128571D01*
X168592857Y-172157142D01*
X168650000Y-172185714D01*
X168878571Y-172185714D01*
X168307142Y-171928571D02*
X168278571Y-171900000D01*
X168221428Y-171871428D01*
X168078571Y-171871428D01*
X168021428Y-171900000D01*
X167992857Y-171928571D01*
X167964285Y-171985714D01*
X167964285Y-172042857D01*
X167992857Y-172128571D01*
X168335714Y-172471428D01*
X167964285Y-172471428D01*
X167764285Y-171871428D02*
X167392857Y-171871428D01*
X167592857Y-172100000D01*
X167507142Y-172100000D01*
X167450000Y-172128571D01*
X167421428Y-172157142D01*
X167392857Y-172214285D01*
X167392857Y-172357142D01*
X167421428Y-172414285D01*
X167450000Y-172442857D01*
X167507142Y-172471428D01*
X167678571Y-172471428D01*
X167735714Y-172442857D01*
X167764285Y-172414285D01*
%TO.C,LED2*%
X135271428Y-158601428D02*
X135557142Y-158601428D01*
X135557142Y-158001428D01*
X135071428Y-158287142D02*
X134871428Y-158287142D01*
X134785714Y-158601428D02*
X135071428Y-158601428D01*
X135071428Y-158001428D01*
X134785714Y-158001428D01*
X134528571Y-158601428D02*
X134528571Y-158001428D01*
X134385714Y-158001428D01*
X134300000Y-158030000D01*
X134242857Y-158087142D01*
X134214285Y-158144285D01*
X134185714Y-158258571D01*
X134185714Y-158344285D01*
X134214285Y-158458571D01*
X134242857Y-158515714D01*
X134300000Y-158572857D01*
X134385714Y-158601428D01*
X134528571Y-158601428D01*
X133957142Y-158058571D02*
X133928571Y-158030000D01*
X133871428Y-158001428D01*
X133728571Y-158001428D01*
X133671428Y-158030000D01*
X133642857Y-158058571D01*
X133614285Y-158115714D01*
X133614285Y-158172857D01*
X133642857Y-158258571D01*
X133985714Y-158601428D01*
X133614285Y-158601428D01*
%TO.C,R6*%
X181440000Y-180571428D02*
X181640000Y-180285714D01*
X181782857Y-180571428D02*
X181782857Y-179971428D01*
X181554285Y-179971428D01*
X181497142Y-180000000D01*
X181468571Y-180028571D01*
X181440000Y-180085714D01*
X181440000Y-180171428D01*
X181468571Y-180228571D01*
X181497142Y-180257142D01*
X181554285Y-180285714D01*
X181782857Y-180285714D01*
X180925714Y-179971428D02*
X181040000Y-179971428D01*
X181097142Y-180000000D01*
X181125714Y-180028571D01*
X181182857Y-180114285D01*
X181211428Y-180228571D01*
X181211428Y-180457142D01*
X181182857Y-180514285D01*
X181154285Y-180542857D01*
X181097142Y-180571428D01*
X180982857Y-180571428D01*
X180925714Y-180542857D01*
X180897142Y-180514285D01*
X180868571Y-180457142D01*
X180868571Y-180314285D01*
X180897142Y-180257142D01*
X180925714Y-180228571D01*
X180982857Y-180200000D01*
X181097142Y-180200000D01*
X181154285Y-180228571D01*
X181182857Y-180257142D01*
X181211428Y-180314285D01*
%TO.C,R17*%
X168627536Y-176961428D02*
X168827536Y-176675714D01*
X168970393Y-176961428D02*
X168970393Y-176361428D01*
X168741822Y-176361428D01*
X168684679Y-176390000D01*
X168656107Y-176418571D01*
X168627536Y-176475714D01*
X168627536Y-176561428D01*
X168656107Y-176618571D01*
X168684679Y-176647142D01*
X168741822Y-176675714D01*
X168970393Y-176675714D01*
X168056107Y-176961428D02*
X168398964Y-176961428D01*
X168227536Y-176961428D02*
X168227536Y-176361428D01*
X168284679Y-176447142D01*
X168341822Y-176504285D01*
X168398964Y-176532857D01*
X167856107Y-176361428D02*
X167456107Y-176361428D01*
X167713250Y-176961428D01*
D11*
%TO.C,J3*%
X149843333Y-189462380D02*
X149843333Y-190176666D01*
X149890952Y-190319523D01*
X149986190Y-190414761D01*
X150129047Y-190462380D01*
X150224285Y-190462380D01*
X149462380Y-189462380D02*
X148843333Y-189462380D01*
X149176666Y-189843333D01*
X149033809Y-189843333D01*
X148938571Y-189890952D01*
X148890952Y-189938571D01*
X148843333Y-190033809D01*
X148843333Y-190271904D01*
X148890952Y-190367142D01*
X148938571Y-190414761D01*
X149033809Y-190462380D01*
X149319523Y-190462380D01*
X149414761Y-190414761D01*
X149462380Y-190367142D01*
D10*
%TO.C,R24*%
X181355714Y-168101428D02*
X181555714Y-167815714D01*
X181698571Y-168101428D02*
X181698571Y-167501428D01*
X181470000Y-167501428D01*
X181412857Y-167530000D01*
X181384285Y-167558571D01*
X181355714Y-167615714D01*
X181355714Y-167701428D01*
X181384285Y-167758571D01*
X181412857Y-167787142D01*
X181470000Y-167815714D01*
X181698571Y-167815714D01*
X181127142Y-167558571D02*
X181098571Y-167530000D01*
X181041428Y-167501428D01*
X180898571Y-167501428D01*
X180841428Y-167530000D01*
X180812857Y-167558571D01*
X180784285Y-167615714D01*
X180784285Y-167672857D01*
X180812857Y-167758571D01*
X181155714Y-168101428D01*
X180784285Y-168101428D01*
X180270000Y-167701428D02*
X180270000Y-168101428D01*
X180412857Y-167472857D02*
X180555714Y-167901428D01*
X180184285Y-167901428D01*
D11*
%TO.C,J7*%
X124473333Y-165192380D02*
X124473333Y-165906666D01*
X124520952Y-166049523D01*
X124616190Y-166144761D01*
X124759047Y-166192380D01*
X124854285Y-166192380D01*
X124092380Y-165192380D02*
X123425714Y-165192380D01*
X123854285Y-166192380D01*
D10*
%TO.C,U15*%
X147842857Y-185311428D02*
X147842857Y-185797142D01*
X147814285Y-185854285D01*
X147785714Y-185882857D01*
X147728571Y-185911428D01*
X147614285Y-185911428D01*
X147557142Y-185882857D01*
X147528571Y-185854285D01*
X147500000Y-185797142D01*
X147500000Y-185311428D01*
X146900000Y-185911428D02*
X147242857Y-185911428D01*
X147071428Y-185911428D02*
X147071428Y-185311428D01*
X147128571Y-185397142D01*
X147185714Y-185454285D01*
X147242857Y-185482857D01*
X146357142Y-185311428D02*
X146642857Y-185311428D01*
X146671428Y-185597142D01*
X146642857Y-185568571D01*
X146585714Y-185540000D01*
X146442857Y-185540000D01*
X146385714Y-185568571D01*
X146357142Y-185597142D01*
X146328571Y-185654285D01*
X146328571Y-185797142D01*
X146357142Y-185854285D01*
X146385714Y-185882857D01*
X146442857Y-185911428D01*
X146585714Y-185911428D01*
X146642857Y-185882857D01*
X146671428Y-185854285D01*
%TO.C,Q3*%
X172217142Y-180588571D02*
X172274285Y-180560000D01*
X172331428Y-180502857D01*
X172417142Y-180417142D01*
X172474285Y-180388571D01*
X172531428Y-180388571D01*
X172502857Y-180531428D02*
X172560000Y-180502857D01*
X172617142Y-180445714D01*
X172645714Y-180331428D01*
X172645714Y-180131428D01*
X172617142Y-180017142D01*
X172560000Y-179960000D01*
X172502857Y-179931428D01*
X172388571Y-179931428D01*
X172331428Y-179960000D01*
X172274285Y-180017142D01*
X172245714Y-180131428D01*
X172245714Y-180331428D01*
X172274285Y-180445714D01*
X172331428Y-180502857D01*
X172388571Y-180531428D01*
X172502857Y-180531428D01*
X172045714Y-179931428D02*
X171674285Y-179931428D01*
X171874285Y-180160000D01*
X171788571Y-180160000D01*
X171731428Y-180188571D01*
X171702857Y-180217142D01*
X171674285Y-180274285D01*
X171674285Y-180417142D01*
X171702857Y-180474285D01*
X171731428Y-180502857D01*
X171788571Y-180531428D01*
X171960000Y-180531428D01*
X172017142Y-180502857D01*
X172045714Y-180474285D01*
%TO.C,Q17*%
X178662857Y-161808571D02*
X178720000Y-161780000D01*
X178777142Y-161722857D01*
X178862857Y-161637142D01*
X178920000Y-161608571D01*
X178977142Y-161608571D01*
X178948571Y-161751428D02*
X179005714Y-161722857D01*
X179062857Y-161665714D01*
X179091428Y-161551428D01*
X179091428Y-161351428D01*
X179062857Y-161237142D01*
X179005714Y-161180000D01*
X178948571Y-161151428D01*
X178834285Y-161151428D01*
X178777142Y-161180000D01*
X178720000Y-161237142D01*
X178691428Y-161351428D01*
X178691428Y-161551428D01*
X178720000Y-161665714D01*
X178777142Y-161722857D01*
X178834285Y-161751428D01*
X178948571Y-161751428D01*
X178120000Y-161751428D02*
X178462857Y-161751428D01*
X178291428Y-161751428D02*
X178291428Y-161151428D01*
X178348571Y-161237142D01*
X178405714Y-161294285D01*
X178462857Y-161322857D01*
X177920000Y-161151428D02*
X177520000Y-161151428D01*
X177777142Y-161751428D01*
%TO.C,U1*%
X196917142Y-177781428D02*
X196917142Y-178267142D01*
X196888571Y-178324285D01*
X196860000Y-178352857D01*
X196802857Y-178381428D01*
X196688571Y-178381428D01*
X196631428Y-178352857D01*
X196602857Y-178324285D01*
X196574285Y-178267142D01*
X196574285Y-177781428D01*
X195974285Y-178381428D02*
X196317142Y-178381428D01*
X196145714Y-178381428D02*
X196145714Y-177781428D01*
X196202857Y-177867142D01*
X196260000Y-177924285D01*
X196317142Y-177952857D01*
D11*
%TO.C,J2*%
X182203333Y-186872380D02*
X182203333Y-187586666D01*
X182250952Y-187729523D01*
X182346190Y-187824761D01*
X182489047Y-187872380D01*
X182584285Y-187872380D01*
X181774761Y-186967619D02*
X181727142Y-186920000D01*
X181631904Y-186872380D01*
X181393809Y-186872380D01*
X181298571Y-186920000D01*
X181250952Y-186967619D01*
X181203333Y-187062857D01*
X181203333Y-187158095D01*
X181250952Y-187300952D01*
X181822380Y-187872380D01*
X181203333Y-187872380D01*
D10*
%TO.C,L2*%
X107770000Y-167541428D02*
X108055714Y-167541428D01*
X108055714Y-166941428D01*
X107598571Y-166998571D02*
X107570000Y-166970000D01*
X107512857Y-166941428D01*
X107370000Y-166941428D01*
X107312857Y-166970000D01*
X107284285Y-166998571D01*
X107255714Y-167055714D01*
X107255714Y-167112857D01*
X107284285Y-167198571D01*
X107627142Y-167541428D01*
X107255714Y-167541428D01*
%TO.C,R41*%
X189775714Y-136231428D02*
X189975714Y-135945714D01*
X190118571Y-136231428D02*
X190118571Y-135631428D01*
X189890000Y-135631428D01*
X189832857Y-135660000D01*
X189804285Y-135688571D01*
X189775714Y-135745714D01*
X189775714Y-135831428D01*
X189804285Y-135888571D01*
X189832857Y-135917142D01*
X189890000Y-135945714D01*
X190118571Y-135945714D01*
X189261428Y-135831428D02*
X189261428Y-136231428D01*
X189404285Y-135602857D02*
X189547142Y-136031428D01*
X189175714Y-136031428D01*
X188632857Y-136231428D02*
X188975714Y-136231428D01*
X188804285Y-136231428D02*
X188804285Y-135631428D01*
X188861428Y-135717142D01*
X188918571Y-135774285D01*
X188975714Y-135802857D01*
%TO.C,U8*%
X110817142Y-179881428D02*
X110817142Y-180367142D01*
X110788571Y-180424285D01*
X110760000Y-180452857D01*
X110702857Y-180481428D01*
X110588571Y-180481428D01*
X110531428Y-180452857D01*
X110502857Y-180424285D01*
X110474285Y-180367142D01*
X110474285Y-179881428D01*
X110102857Y-180138571D02*
X110160000Y-180110000D01*
X110188571Y-180081428D01*
X110217142Y-180024285D01*
X110217142Y-179995714D01*
X110188571Y-179938571D01*
X110160000Y-179910000D01*
X110102857Y-179881428D01*
X109988571Y-179881428D01*
X109931428Y-179910000D01*
X109902857Y-179938571D01*
X109874285Y-179995714D01*
X109874285Y-180024285D01*
X109902857Y-180081428D01*
X109931428Y-180110000D01*
X109988571Y-180138571D01*
X110102857Y-180138571D01*
X110160000Y-180167142D01*
X110188571Y-180195714D01*
X110217142Y-180252857D01*
X110217142Y-180367142D01*
X110188571Y-180424285D01*
X110160000Y-180452857D01*
X110102857Y-180481428D01*
X109988571Y-180481428D01*
X109931428Y-180452857D01*
X109902857Y-180424285D01*
X109874285Y-180367142D01*
X109874285Y-180252857D01*
X109902857Y-180195714D01*
X109931428Y-180167142D01*
X109988571Y-180138571D01*
%TO.C,R4*%
X186160000Y-166601428D02*
X186360000Y-166315714D01*
X186502857Y-166601428D02*
X186502857Y-166001428D01*
X186274285Y-166001428D01*
X186217142Y-166030000D01*
X186188571Y-166058571D01*
X186160000Y-166115714D01*
X186160000Y-166201428D01*
X186188571Y-166258571D01*
X186217142Y-166287142D01*
X186274285Y-166315714D01*
X186502857Y-166315714D01*
X185645714Y-166201428D02*
X185645714Y-166601428D01*
X185788571Y-165972857D02*
X185931428Y-166401428D01*
X185560000Y-166401428D01*
%TO.C,C19*%
X117155714Y-185822285D02*
X117184285Y-185850857D01*
X117270000Y-185879428D01*
X117327142Y-185879428D01*
X117412857Y-185850857D01*
X117470000Y-185793714D01*
X117498571Y-185736571D01*
X117527142Y-185622285D01*
X117527142Y-185536571D01*
X117498571Y-185422285D01*
X117470000Y-185365142D01*
X117412857Y-185308000D01*
X117327142Y-185279428D01*
X117270000Y-185279428D01*
X117184285Y-185308000D01*
X117155714Y-185336571D01*
X116584285Y-185879428D02*
X116927142Y-185879428D01*
X116755714Y-185879428D02*
X116755714Y-185279428D01*
X116812857Y-185365142D01*
X116870000Y-185422285D01*
X116927142Y-185450857D01*
X116298571Y-185879428D02*
X116184285Y-185879428D01*
X116127142Y-185850857D01*
X116098571Y-185822285D01*
X116041428Y-185736571D01*
X116012857Y-185622285D01*
X116012857Y-185393714D01*
X116041428Y-185336571D01*
X116070000Y-185308000D01*
X116127142Y-185279428D01*
X116241428Y-185279428D01*
X116298571Y-185308000D01*
X116327142Y-185336571D01*
X116355714Y-185393714D01*
X116355714Y-185536571D01*
X116327142Y-185593714D01*
X116298571Y-185622285D01*
X116241428Y-185650857D01*
X116127142Y-185650857D01*
X116070000Y-185622285D01*
X116041428Y-185593714D01*
X116012857Y-185536571D01*
%TO.C,R14*%
X125165714Y-156891428D02*
X125365714Y-156605714D01*
X125508571Y-156891428D02*
X125508571Y-156291428D01*
X125280000Y-156291428D01*
X125222857Y-156320000D01*
X125194285Y-156348571D01*
X125165714Y-156405714D01*
X125165714Y-156491428D01*
X125194285Y-156548571D01*
X125222857Y-156577142D01*
X125280000Y-156605714D01*
X125508571Y-156605714D01*
X124594285Y-156891428D02*
X124937142Y-156891428D01*
X124765714Y-156891428D02*
X124765714Y-156291428D01*
X124822857Y-156377142D01*
X124880000Y-156434285D01*
X124937142Y-156462857D01*
X124080000Y-156491428D02*
X124080000Y-156891428D01*
X124222857Y-156262857D02*
X124365714Y-156691428D01*
X123994285Y-156691428D01*
%TO.C,D1*%
X184212857Y-172651428D02*
X184212857Y-172051428D01*
X184070000Y-172051428D01*
X183984285Y-172080000D01*
X183927142Y-172137142D01*
X183898571Y-172194285D01*
X183870000Y-172308571D01*
X183870000Y-172394285D01*
X183898571Y-172508571D01*
X183927142Y-172565714D01*
X183984285Y-172622857D01*
X184070000Y-172651428D01*
X184212857Y-172651428D01*
X183298571Y-172651428D02*
X183641428Y-172651428D01*
X183470000Y-172651428D02*
X183470000Y-172051428D01*
X183527142Y-172137142D01*
X183584285Y-172194285D01*
X183641428Y-172222857D01*
%TO.C,R22*%
X162605714Y-162711428D02*
X162805714Y-162425714D01*
X162948571Y-162711428D02*
X162948571Y-162111428D01*
X162720000Y-162111428D01*
X162662857Y-162140000D01*
X162634285Y-162168571D01*
X162605714Y-162225714D01*
X162605714Y-162311428D01*
X162634285Y-162368571D01*
X162662857Y-162397142D01*
X162720000Y-162425714D01*
X162948571Y-162425714D01*
X162377142Y-162168571D02*
X162348571Y-162140000D01*
X162291428Y-162111428D01*
X162148571Y-162111428D01*
X162091428Y-162140000D01*
X162062857Y-162168571D01*
X162034285Y-162225714D01*
X162034285Y-162282857D01*
X162062857Y-162368571D01*
X162405714Y-162711428D01*
X162034285Y-162711428D01*
X161805714Y-162168571D02*
X161777142Y-162140000D01*
X161720000Y-162111428D01*
X161577142Y-162111428D01*
X161520000Y-162140000D01*
X161491428Y-162168571D01*
X161462857Y-162225714D01*
X161462857Y-162282857D01*
X161491428Y-162368571D01*
X161834285Y-162711428D01*
X161462857Y-162711428D01*
%TO.C,R20*%
X145445714Y-156781428D02*
X145645714Y-156495714D01*
X145788571Y-156781428D02*
X145788571Y-156181428D01*
X145560000Y-156181428D01*
X145502857Y-156210000D01*
X145474285Y-156238571D01*
X145445714Y-156295714D01*
X145445714Y-156381428D01*
X145474285Y-156438571D01*
X145502857Y-156467142D01*
X145560000Y-156495714D01*
X145788571Y-156495714D01*
X145217142Y-156238571D02*
X145188571Y-156210000D01*
X145131428Y-156181428D01*
X144988571Y-156181428D01*
X144931428Y-156210000D01*
X144902857Y-156238571D01*
X144874285Y-156295714D01*
X144874285Y-156352857D01*
X144902857Y-156438571D01*
X145245714Y-156781428D01*
X144874285Y-156781428D01*
X144502857Y-156181428D02*
X144445714Y-156181428D01*
X144388571Y-156210000D01*
X144360000Y-156238571D01*
X144331428Y-156295714D01*
X144302857Y-156410000D01*
X144302857Y-156552857D01*
X144331428Y-156667142D01*
X144360000Y-156724285D01*
X144388571Y-156752857D01*
X144445714Y-156781428D01*
X144502857Y-156781428D01*
X144560000Y-156752857D01*
X144588571Y-156724285D01*
X144617142Y-156667142D01*
X144645714Y-156552857D01*
X144645714Y-156410000D01*
X144617142Y-156295714D01*
X144588571Y-156238571D01*
X144560000Y-156210000D01*
X144502857Y-156181428D01*
%TO.C,Q10*%
X176142857Y-172548571D02*
X176200000Y-172520000D01*
X176257142Y-172462857D01*
X176342857Y-172377142D01*
X176400000Y-172348571D01*
X176457142Y-172348571D01*
X176428571Y-172491428D02*
X176485714Y-172462857D01*
X176542857Y-172405714D01*
X176571428Y-172291428D01*
X176571428Y-172091428D01*
X176542857Y-171977142D01*
X176485714Y-171920000D01*
X176428571Y-171891428D01*
X176314285Y-171891428D01*
X176257142Y-171920000D01*
X176200000Y-171977142D01*
X176171428Y-172091428D01*
X176171428Y-172291428D01*
X176200000Y-172405714D01*
X176257142Y-172462857D01*
X176314285Y-172491428D01*
X176428571Y-172491428D01*
X175600000Y-172491428D02*
X175942857Y-172491428D01*
X175771428Y-172491428D02*
X175771428Y-171891428D01*
X175828571Y-171977142D01*
X175885714Y-172034285D01*
X175942857Y-172062857D01*
X175228571Y-171891428D02*
X175171428Y-171891428D01*
X175114285Y-171920000D01*
X175085714Y-171948571D01*
X175057142Y-172005714D01*
X175028571Y-172120000D01*
X175028571Y-172262857D01*
X175057142Y-172377142D01*
X175085714Y-172434285D01*
X175114285Y-172462857D01*
X175171428Y-172491428D01*
X175228571Y-172491428D01*
X175285714Y-172462857D01*
X175314285Y-172434285D01*
X175342857Y-172377142D01*
X175371428Y-172262857D01*
X175371428Y-172120000D01*
X175342857Y-172005714D01*
X175314285Y-171948571D01*
X175285714Y-171920000D01*
X175228571Y-171891428D01*
%TO.C,Q6*%
X176347142Y-176688571D02*
X176404285Y-176660000D01*
X176461428Y-176602857D01*
X176547142Y-176517142D01*
X176604285Y-176488571D01*
X176661428Y-176488571D01*
X176632857Y-176631428D02*
X176690000Y-176602857D01*
X176747142Y-176545714D01*
X176775714Y-176431428D01*
X176775714Y-176231428D01*
X176747142Y-176117142D01*
X176690000Y-176060000D01*
X176632857Y-176031428D01*
X176518571Y-176031428D01*
X176461428Y-176060000D01*
X176404285Y-176117142D01*
X176375714Y-176231428D01*
X176375714Y-176431428D01*
X176404285Y-176545714D01*
X176461428Y-176602857D01*
X176518571Y-176631428D01*
X176632857Y-176631428D01*
X175861428Y-176031428D02*
X175975714Y-176031428D01*
X176032857Y-176060000D01*
X176061428Y-176088571D01*
X176118571Y-176174285D01*
X176147142Y-176288571D01*
X176147142Y-176517142D01*
X176118571Y-176574285D01*
X176090000Y-176602857D01*
X176032857Y-176631428D01*
X175918571Y-176631428D01*
X175861428Y-176602857D01*
X175832857Y-176574285D01*
X175804285Y-176517142D01*
X175804285Y-176374285D01*
X175832857Y-176317142D01*
X175861428Y-176288571D01*
X175918571Y-176260000D01*
X176032857Y-176260000D01*
X176090000Y-176288571D01*
X176118571Y-176317142D01*
X176147142Y-176374285D01*
%TO.C,R50*%
X189505714Y-173371428D02*
X189705714Y-173085714D01*
X189848571Y-173371428D02*
X189848571Y-172771428D01*
X189620000Y-172771428D01*
X189562857Y-172800000D01*
X189534285Y-172828571D01*
X189505714Y-172885714D01*
X189505714Y-172971428D01*
X189534285Y-173028571D01*
X189562857Y-173057142D01*
X189620000Y-173085714D01*
X189848571Y-173085714D01*
X188962857Y-172771428D02*
X189248571Y-172771428D01*
X189277142Y-173057142D01*
X189248571Y-173028571D01*
X189191428Y-173000000D01*
X189048571Y-173000000D01*
X188991428Y-173028571D01*
X188962857Y-173057142D01*
X188934285Y-173114285D01*
X188934285Y-173257142D01*
X188962857Y-173314285D01*
X188991428Y-173342857D01*
X189048571Y-173371428D01*
X189191428Y-173371428D01*
X189248571Y-173342857D01*
X189277142Y-173314285D01*
X188562857Y-172771428D02*
X188505714Y-172771428D01*
X188448571Y-172800000D01*
X188420000Y-172828571D01*
X188391428Y-172885714D01*
X188362857Y-173000000D01*
X188362857Y-173142857D01*
X188391428Y-173257142D01*
X188420000Y-173314285D01*
X188448571Y-173342857D01*
X188505714Y-173371428D01*
X188562857Y-173371428D01*
X188620000Y-173342857D01*
X188648571Y-173314285D01*
X188677142Y-173257142D01*
X188705714Y-173142857D01*
X188705714Y-173000000D01*
X188677142Y-172885714D01*
X188648571Y-172828571D01*
X188620000Y-172800000D01*
X188562857Y-172771428D01*
%TO.C,Q4*%
X113887142Y-159008571D02*
X113944285Y-158980000D01*
X114001428Y-158922857D01*
X114087142Y-158837142D01*
X114144285Y-158808571D01*
X114201428Y-158808571D01*
X114172857Y-158951428D02*
X114230000Y-158922857D01*
X114287142Y-158865714D01*
X114315714Y-158751428D01*
X114315714Y-158551428D01*
X114287142Y-158437142D01*
X114230000Y-158380000D01*
X114172857Y-158351428D01*
X114058571Y-158351428D01*
X114001428Y-158380000D01*
X113944285Y-158437142D01*
X113915714Y-158551428D01*
X113915714Y-158751428D01*
X113944285Y-158865714D01*
X114001428Y-158922857D01*
X114058571Y-158951428D01*
X114172857Y-158951428D01*
X113401428Y-158551428D02*
X113401428Y-158951428D01*
X113544285Y-158322857D02*
X113687142Y-158751428D01*
X113315714Y-158751428D01*
%TO.C,PB2*%
X203762857Y-176179428D02*
X203762857Y-175579428D01*
X203534285Y-175579428D01*
X203477142Y-175608000D01*
X203448571Y-175636571D01*
X203420000Y-175693714D01*
X203420000Y-175779428D01*
X203448571Y-175836571D01*
X203477142Y-175865142D01*
X203534285Y-175893714D01*
X203762857Y-175893714D01*
X202962857Y-175865142D02*
X202877142Y-175893714D01*
X202848571Y-175922285D01*
X202820000Y-175979428D01*
X202820000Y-176065142D01*
X202848571Y-176122285D01*
X202877142Y-176150857D01*
X202934285Y-176179428D01*
X203162857Y-176179428D01*
X203162857Y-175579428D01*
X202962857Y-175579428D01*
X202905714Y-175608000D01*
X202877142Y-175636571D01*
X202848571Y-175693714D01*
X202848571Y-175750857D01*
X202877142Y-175808000D01*
X202905714Y-175836571D01*
X202962857Y-175865142D01*
X203162857Y-175865142D01*
X202591428Y-175636571D02*
X202562857Y-175608000D01*
X202505714Y-175579428D01*
X202362857Y-175579428D01*
X202305714Y-175608000D01*
X202277142Y-175636571D01*
X202248571Y-175693714D01*
X202248571Y-175750857D01*
X202277142Y-175836571D01*
X202620000Y-176179428D01*
X202248571Y-176179428D01*
%TO.C,L3*%
X109610000Y-198711428D02*
X109895714Y-198711428D01*
X109895714Y-198111428D01*
X109467142Y-198111428D02*
X109095714Y-198111428D01*
X109295714Y-198340000D01*
X109210000Y-198340000D01*
X109152857Y-198368571D01*
X109124285Y-198397142D01*
X109095714Y-198454285D01*
X109095714Y-198597142D01*
X109124285Y-198654285D01*
X109152857Y-198682857D01*
X109210000Y-198711428D01*
X109381428Y-198711428D01*
X109438571Y-198682857D01*
X109467142Y-198654285D01*
%TO.C,Q7*%
X171877142Y-176618571D02*
X171934285Y-176590000D01*
X171991428Y-176532857D01*
X172077142Y-176447142D01*
X172134285Y-176418571D01*
X172191428Y-176418571D01*
X172162857Y-176561428D02*
X172220000Y-176532857D01*
X172277142Y-176475714D01*
X172305714Y-176361428D01*
X172305714Y-176161428D01*
X172277142Y-176047142D01*
X172220000Y-175990000D01*
X172162857Y-175961428D01*
X172048571Y-175961428D01*
X171991428Y-175990000D01*
X171934285Y-176047142D01*
X171905714Y-176161428D01*
X171905714Y-176361428D01*
X171934285Y-176475714D01*
X171991428Y-176532857D01*
X172048571Y-176561428D01*
X172162857Y-176561428D01*
X171705714Y-175961428D02*
X171305714Y-175961428D01*
X171562857Y-176561428D01*
D11*
%TO.C,J5*%
X147693333Y-191982380D02*
X147693333Y-192696666D01*
X147740952Y-192839523D01*
X147836190Y-192934761D01*
X147979047Y-192982380D01*
X148074285Y-192982380D01*
X146740952Y-191982380D02*
X147217142Y-191982380D01*
X147264761Y-192458571D01*
X147217142Y-192410952D01*
X147121904Y-192363333D01*
X146883809Y-192363333D01*
X146788571Y-192410952D01*
X146740952Y-192458571D01*
X146693333Y-192553809D01*
X146693333Y-192791904D01*
X146740952Y-192887142D01*
X146788571Y-192934761D01*
X146883809Y-192982380D01*
X147121904Y-192982380D01*
X147217142Y-192934761D01*
X147264761Y-192887142D01*
D10*
%TO.C,R25*%
X178925714Y-167771428D02*
X179125714Y-167485714D01*
X179268571Y-167771428D02*
X179268571Y-167171428D01*
X179040000Y-167171428D01*
X178982857Y-167200000D01*
X178954285Y-167228571D01*
X178925714Y-167285714D01*
X178925714Y-167371428D01*
X178954285Y-167428571D01*
X178982857Y-167457142D01*
X179040000Y-167485714D01*
X179268571Y-167485714D01*
X178697142Y-167228571D02*
X178668571Y-167200000D01*
X178611428Y-167171428D01*
X178468571Y-167171428D01*
X178411428Y-167200000D01*
X178382857Y-167228571D01*
X178354285Y-167285714D01*
X178354285Y-167342857D01*
X178382857Y-167428571D01*
X178725714Y-167771428D01*
X178354285Y-167771428D01*
X177811428Y-167171428D02*
X178097142Y-167171428D01*
X178125714Y-167457142D01*
X178097142Y-167428571D01*
X178040000Y-167400000D01*
X177897142Y-167400000D01*
X177840000Y-167428571D01*
X177811428Y-167457142D01*
X177782857Y-167514285D01*
X177782857Y-167657142D01*
X177811428Y-167714285D01*
X177840000Y-167742857D01*
X177897142Y-167771428D01*
X178040000Y-167771428D01*
X178097142Y-167742857D01*
X178125714Y-167714285D01*
%TO.C,Q2*%
X176667142Y-180668571D02*
X176724285Y-180640000D01*
X176781428Y-180582857D01*
X176867142Y-180497142D01*
X176924285Y-180468571D01*
X176981428Y-180468571D01*
X176952857Y-180611428D02*
X177010000Y-180582857D01*
X177067142Y-180525714D01*
X177095714Y-180411428D01*
X177095714Y-180211428D01*
X177067142Y-180097142D01*
X177010000Y-180040000D01*
X176952857Y-180011428D01*
X176838571Y-180011428D01*
X176781428Y-180040000D01*
X176724285Y-180097142D01*
X176695714Y-180211428D01*
X176695714Y-180411428D01*
X176724285Y-180525714D01*
X176781428Y-180582857D01*
X176838571Y-180611428D01*
X176952857Y-180611428D01*
X176467142Y-180068571D02*
X176438571Y-180040000D01*
X176381428Y-180011428D01*
X176238571Y-180011428D01*
X176181428Y-180040000D01*
X176152857Y-180068571D01*
X176124285Y-180125714D01*
X176124285Y-180182857D01*
X176152857Y-180268571D01*
X176495714Y-180611428D01*
X176124285Y-180611428D01*
%TO.C,R29*%
X166815714Y-169751428D02*
X167015714Y-169465714D01*
X167158571Y-169751428D02*
X167158571Y-169151428D01*
X166930000Y-169151428D01*
X166872857Y-169180000D01*
X166844285Y-169208571D01*
X166815714Y-169265714D01*
X166815714Y-169351428D01*
X166844285Y-169408571D01*
X166872857Y-169437142D01*
X166930000Y-169465714D01*
X167158571Y-169465714D01*
X166587142Y-169208571D02*
X166558571Y-169180000D01*
X166501428Y-169151428D01*
X166358571Y-169151428D01*
X166301428Y-169180000D01*
X166272857Y-169208571D01*
X166244285Y-169265714D01*
X166244285Y-169322857D01*
X166272857Y-169408571D01*
X166615714Y-169751428D01*
X166244285Y-169751428D01*
X165958571Y-169751428D02*
X165844285Y-169751428D01*
X165787142Y-169722857D01*
X165758571Y-169694285D01*
X165701428Y-169608571D01*
X165672857Y-169494285D01*
X165672857Y-169265714D01*
X165701428Y-169208571D01*
X165730000Y-169180000D01*
X165787142Y-169151428D01*
X165901428Y-169151428D01*
X165958571Y-169180000D01*
X165987142Y-169208571D01*
X166015714Y-169265714D01*
X166015714Y-169408571D01*
X165987142Y-169465714D01*
X165958571Y-169494285D01*
X165901428Y-169522857D01*
X165787142Y-169522857D01*
X165730000Y-169494285D01*
X165701428Y-169465714D01*
X165672857Y-169408571D01*
%TO.C,LED1*%
X111721428Y-158721428D02*
X112007142Y-158721428D01*
X112007142Y-158121428D01*
X111521428Y-158407142D02*
X111321428Y-158407142D01*
X111235714Y-158721428D02*
X111521428Y-158721428D01*
X111521428Y-158121428D01*
X111235714Y-158121428D01*
X110978571Y-158721428D02*
X110978571Y-158121428D01*
X110835714Y-158121428D01*
X110750000Y-158150000D01*
X110692857Y-158207142D01*
X110664285Y-158264285D01*
X110635714Y-158378571D01*
X110635714Y-158464285D01*
X110664285Y-158578571D01*
X110692857Y-158635714D01*
X110750000Y-158692857D01*
X110835714Y-158721428D01*
X110978571Y-158721428D01*
X110064285Y-158721428D02*
X110407142Y-158721428D01*
X110235714Y-158721428D02*
X110235714Y-158121428D01*
X110292857Y-158207142D01*
X110350000Y-158264285D01*
X110407142Y-158292857D01*
%TO.C,C12*%
X191635714Y-133134285D02*
X191664285Y-133162857D01*
X191750000Y-133191428D01*
X191807142Y-133191428D01*
X191892857Y-133162857D01*
X191950000Y-133105714D01*
X191978571Y-133048571D01*
X192007142Y-132934285D01*
X192007142Y-132848571D01*
X191978571Y-132734285D01*
X191950000Y-132677142D01*
X191892857Y-132620000D01*
X191807142Y-132591428D01*
X191750000Y-132591428D01*
X191664285Y-132620000D01*
X191635714Y-132648571D01*
X191064285Y-133191428D02*
X191407142Y-133191428D01*
X191235714Y-133191428D02*
X191235714Y-132591428D01*
X191292857Y-132677142D01*
X191350000Y-132734285D01*
X191407142Y-132762857D01*
X190835714Y-132648571D02*
X190807142Y-132620000D01*
X190750000Y-132591428D01*
X190607142Y-132591428D01*
X190550000Y-132620000D01*
X190521428Y-132648571D01*
X190492857Y-132705714D01*
X190492857Y-132762857D01*
X190521428Y-132848571D01*
X190864285Y-133191428D01*
X190492857Y-133191428D01*
%TO.C,LED12*%
X202277142Y-186341428D02*
X202562857Y-186341428D01*
X202562857Y-185741428D01*
X202077142Y-186027142D02*
X201877142Y-186027142D01*
X201791428Y-186341428D02*
X202077142Y-186341428D01*
X202077142Y-185741428D01*
X201791428Y-185741428D01*
X201534285Y-186341428D02*
X201534285Y-185741428D01*
X201391428Y-185741428D01*
X201305714Y-185770000D01*
X201248571Y-185827142D01*
X201220000Y-185884285D01*
X201191428Y-185998571D01*
X201191428Y-186084285D01*
X201220000Y-186198571D01*
X201248571Y-186255714D01*
X201305714Y-186312857D01*
X201391428Y-186341428D01*
X201534285Y-186341428D01*
X200620000Y-186341428D02*
X200962857Y-186341428D01*
X200791428Y-186341428D02*
X200791428Y-185741428D01*
X200848571Y-185827142D01*
X200905714Y-185884285D01*
X200962857Y-185912857D01*
X200391428Y-185798571D02*
X200362857Y-185770000D01*
X200305714Y-185741428D01*
X200162857Y-185741428D01*
X200105714Y-185770000D01*
X200077142Y-185798571D01*
X200048571Y-185855714D01*
X200048571Y-185912857D01*
X200077142Y-185998571D01*
X200420000Y-186341428D01*
X200048571Y-186341428D01*
%TO.C,R18*%
X181585714Y-172281428D02*
X181785714Y-171995714D01*
X181928571Y-172281428D02*
X181928571Y-171681428D01*
X181700000Y-171681428D01*
X181642857Y-171710000D01*
X181614285Y-171738571D01*
X181585714Y-171795714D01*
X181585714Y-171881428D01*
X181614285Y-171938571D01*
X181642857Y-171967142D01*
X181700000Y-171995714D01*
X181928571Y-171995714D01*
X181014285Y-172281428D02*
X181357142Y-172281428D01*
X181185714Y-172281428D02*
X181185714Y-171681428D01*
X181242857Y-171767142D01*
X181300000Y-171824285D01*
X181357142Y-171852857D01*
X180671428Y-171938571D02*
X180728571Y-171910000D01*
X180757142Y-171881428D01*
X180785714Y-171824285D01*
X180785714Y-171795714D01*
X180757142Y-171738571D01*
X180728571Y-171710000D01*
X180671428Y-171681428D01*
X180557142Y-171681428D01*
X180500000Y-171710000D01*
X180471428Y-171738571D01*
X180442857Y-171795714D01*
X180442857Y-171824285D01*
X180471428Y-171881428D01*
X180500000Y-171910000D01*
X180557142Y-171938571D01*
X180671428Y-171938571D01*
X180728571Y-171967142D01*
X180757142Y-171995714D01*
X180785714Y-172052857D01*
X180785714Y-172167142D01*
X180757142Y-172224285D01*
X180728571Y-172252857D01*
X180671428Y-172281428D01*
X180557142Y-172281428D01*
X180500000Y-172252857D01*
X180471428Y-172224285D01*
X180442857Y-172167142D01*
X180442857Y-172052857D01*
X180471428Y-171995714D01*
X180500000Y-171967142D01*
X180557142Y-171938571D01*
%TO.C,Q1*%
X189377142Y-165988571D02*
X189434285Y-165960000D01*
X189491428Y-165902857D01*
X189577142Y-165817142D01*
X189634285Y-165788571D01*
X189691428Y-165788571D01*
X189662857Y-165931428D02*
X189720000Y-165902857D01*
X189777142Y-165845714D01*
X189805714Y-165731428D01*
X189805714Y-165531428D01*
X189777142Y-165417142D01*
X189720000Y-165360000D01*
X189662857Y-165331428D01*
X189548571Y-165331428D01*
X189491428Y-165360000D01*
X189434285Y-165417142D01*
X189405714Y-165531428D01*
X189405714Y-165731428D01*
X189434285Y-165845714D01*
X189491428Y-165902857D01*
X189548571Y-165931428D01*
X189662857Y-165931428D01*
X188834285Y-165931428D02*
X189177142Y-165931428D01*
X189005714Y-165931428D02*
X189005714Y-165331428D01*
X189062857Y-165417142D01*
X189120000Y-165474285D01*
X189177142Y-165502857D01*
%TO.C,Q5*%
X118087142Y-162128571D02*
X118144285Y-162100000D01*
X118201428Y-162042857D01*
X118287142Y-161957142D01*
X118344285Y-161928571D01*
X118401428Y-161928571D01*
X118372857Y-162071428D02*
X118430000Y-162042857D01*
X118487142Y-161985714D01*
X118515714Y-161871428D01*
X118515714Y-161671428D01*
X118487142Y-161557142D01*
X118430000Y-161500000D01*
X118372857Y-161471428D01*
X118258571Y-161471428D01*
X118201428Y-161500000D01*
X118144285Y-161557142D01*
X118115714Y-161671428D01*
X118115714Y-161871428D01*
X118144285Y-161985714D01*
X118201428Y-162042857D01*
X118258571Y-162071428D01*
X118372857Y-162071428D01*
X117572857Y-161471428D02*
X117858571Y-161471428D01*
X117887142Y-161757142D01*
X117858571Y-161728571D01*
X117801428Y-161700000D01*
X117658571Y-161700000D01*
X117601428Y-161728571D01*
X117572857Y-161757142D01*
X117544285Y-161814285D01*
X117544285Y-161957142D01*
X117572857Y-162014285D01*
X117601428Y-162042857D01*
X117658571Y-162071428D01*
X117801428Y-162071428D01*
X117858571Y-162042857D01*
X117887142Y-162014285D01*
%TO.C,Q15*%
X171182857Y-168348571D02*
X171240000Y-168320000D01*
X171297142Y-168262857D01*
X171382857Y-168177142D01*
X171440000Y-168148571D01*
X171497142Y-168148571D01*
X171468571Y-168291428D02*
X171525714Y-168262857D01*
X171582857Y-168205714D01*
X171611428Y-168091428D01*
X171611428Y-167891428D01*
X171582857Y-167777142D01*
X171525714Y-167720000D01*
X171468571Y-167691428D01*
X171354285Y-167691428D01*
X171297142Y-167720000D01*
X171240000Y-167777142D01*
X171211428Y-167891428D01*
X171211428Y-168091428D01*
X171240000Y-168205714D01*
X171297142Y-168262857D01*
X171354285Y-168291428D01*
X171468571Y-168291428D01*
X170640000Y-168291428D02*
X170982857Y-168291428D01*
X170811428Y-168291428D02*
X170811428Y-167691428D01*
X170868571Y-167777142D01*
X170925714Y-167834285D01*
X170982857Y-167862857D01*
X170097142Y-167691428D02*
X170382857Y-167691428D01*
X170411428Y-167977142D01*
X170382857Y-167948571D01*
X170325714Y-167920000D01*
X170182857Y-167920000D01*
X170125714Y-167948571D01*
X170097142Y-167977142D01*
X170068571Y-168034285D01*
X170068571Y-168177142D01*
X170097142Y-168234285D01*
X170125714Y-168262857D01*
X170182857Y-168291428D01*
X170325714Y-168291428D01*
X170382857Y-168262857D01*
X170411428Y-168234285D01*
%TO.C,C17*%
X109115714Y-190954285D02*
X109144285Y-190982857D01*
X109230000Y-191011428D01*
X109287142Y-191011428D01*
X109372857Y-190982857D01*
X109430000Y-190925714D01*
X109458571Y-190868571D01*
X109487142Y-190754285D01*
X109487142Y-190668571D01*
X109458571Y-190554285D01*
X109430000Y-190497142D01*
X109372857Y-190440000D01*
X109287142Y-190411428D01*
X109230000Y-190411428D01*
X109144285Y-190440000D01*
X109115714Y-190468571D01*
X108544285Y-191011428D02*
X108887142Y-191011428D01*
X108715714Y-191011428D02*
X108715714Y-190411428D01*
X108772857Y-190497142D01*
X108830000Y-190554285D01*
X108887142Y-190582857D01*
X108344285Y-190411428D02*
X107944285Y-190411428D01*
X108201428Y-191011428D01*
%TO.C,R5*%
X183680000Y-166641428D02*
X183880000Y-166355714D01*
X184022857Y-166641428D02*
X184022857Y-166041428D01*
X183794285Y-166041428D01*
X183737142Y-166070000D01*
X183708571Y-166098571D01*
X183680000Y-166155714D01*
X183680000Y-166241428D01*
X183708571Y-166298571D01*
X183737142Y-166327142D01*
X183794285Y-166355714D01*
X184022857Y-166355714D01*
X183137142Y-166041428D02*
X183422857Y-166041428D01*
X183451428Y-166327142D01*
X183422857Y-166298571D01*
X183365714Y-166270000D01*
X183222857Y-166270000D01*
X183165714Y-166298571D01*
X183137142Y-166327142D01*
X183108571Y-166384285D01*
X183108571Y-166527142D01*
X183137142Y-166584285D01*
X183165714Y-166612857D01*
X183222857Y-166641428D01*
X183365714Y-166641428D01*
X183422857Y-166612857D01*
X183451428Y-166584285D01*
%TO.C,D5*%
X103942857Y-176531428D02*
X103942857Y-175931428D01*
X103800000Y-175931428D01*
X103714285Y-175960000D01*
X103657142Y-176017142D01*
X103628571Y-176074285D01*
X103600000Y-176188571D01*
X103600000Y-176274285D01*
X103628571Y-176388571D01*
X103657142Y-176445714D01*
X103714285Y-176502857D01*
X103800000Y-176531428D01*
X103942857Y-176531428D01*
X103057142Y-175931428D02*
X103342857Y-175931428D01*
X103371428Y-176217142D01*
X103342857Y-176188571D01*
X103285714Y-176160000D01*
X103142857Y-176160000D01*
X103085714Y-176188571D01*
X103057142Y-176217142D01*
X103028571Y-176274285D01*
X103028571Y-176417142D01*
X103057142Y-176474285D01*
X103085714Y-176502857D01*
X103142857Y-176531428D01*
X103285714Y-176531428D01*
X103342857Y-176502857D01*
X103371428Y-176474285D01*
%TO.C,R7*%
X179390000Y-180521428D02*
X179590000Y-180235714D01*
X179732857Y-180521428D02*
X179732857Y-179921428D01*
X179504285Y-179921428D01*
X179447142Y-179950000D01*
X179418571Y-179978571D01*
X179390000Y-180035714D01*
X179390000Y-180121428D01*
X179418571Y-180178571D01*
X179447142Y-180207142D01*
X179504285Y-180235714D01*
X179732857Y-180235714D01*
X179190000Y-179921428D02*
X178790000Y-179921428D01*
X179047142Y-180521428D01*
%TO.C,R10*%
X111545714Y-166001428D02*
X111745714Y-165715714D01*
X111888571Y-166001428D02*
X111888571Y-165401428D01*
X111660000Y-165401428D01*
X111602857Y-165430000D01*
X111574285Y-165458571D01*
X111545714Y-165515714D01*
X111545714Y-165601428D01*
X111574285Y-165658571D01*
X111602857Y-165687142D01*
X111660000Y-165715714D01*
X111888571Y-165715714D01*
X110974285Y-166001428D02*
X111317142Y-166001428D01*
X111145714Y-166001428D02*
X111145714Y-165401428D01*
X111202857Y-165487142D01*
X111260000Y-165544285D01*
X111317142Y-165572857D01*
X110602857Y-165401428D02*
X110545714Y-165401428D01*
X110488571Y-165430000D01*
X110460000Y-165458571D01*
X110431428Y-165515714D01*
X110402857Y-165630000D01*
X110402857Y-165772857D01*
X110431428Y-165887142D01*
X110460000Y-165944285D01*
X110488571Y-165972857D01*
X110545714Y-166001428D01*
X110602857Y-166001428D01*
X110660000Y-165972857D01*
X110688571Y-165944285D01*
X110717142Y-165887142D01*
X110745714Y-165772857D01*
X110745714Y-165630000D01*
X110717142Y-165515714D01*
X110688571Y-165458571D01*
X110660000Y-165430000D01*
X110602857Y-165401428D01*
%TO.C,R45*%
X110125714Y-174651428D02*
X110325714Y-174365714D01*
X110468571Y-174651428D02*
X110468571Y-174051428D01*
X110240000Y-174051428D01*
X110182857Y-174080000D01*
X110154285Y-174108571D01*
X110125714Y-174165714D01*
X110125714Y-174251428D01*
X110154285Y-174308571D01*
X110182857Y-174337142D01*
X110240000Y-174365714D01*
X110468571Y-174365714D01*
X109611428Y-174251428D02*
X109611428Y-174651428D01*
X109754285Y-174022857D02*
X109897142Y-174451428D01*
X109525714Y-174451428D01*
X109011428Y-174051428D02*
X109297142Y-174051428D01*
X109325714Y-174337142D01*
X109297142Y-174308571D01*
X109240000Y-174280000D01*
X109097142Y-174280000D01*
X109040000Y-174308571D01*
X109011428Y-174337142D01*
X108982857Y-174394285D01*
X108982857Y-174537142D01*
X109011428Y-174594285D01*
X109040000Y-174622857D01*
X109097142Y-174651428D01*
X109240000Y-174651428D01*
X109297142Y-174622857D01*
X109325714Y-174594285D01*
%TO.C,R15*%
X143065714Y-166751428D02*
X143265714Y-166465714D01*
X143408571Y-166751428D02*
X143408571Y-166151428D01*
X143180000Y-166151428D01*
X143122857Y-166180000D01*
X143094285Y-166208571D01*
X143065714Y-166265714D01*
X143065714Y-166351428D01*
X143094285Y-166408571D01*
X143122857Y-166437142D01*
X143180000Y-166465714D01*
X143408571Y-166465714D01*
X142494285Y-166751428D02*
X142837142Y-166751428D01*
X142665714Y-166751428D02*
X142665714Y-166151428D01*
X142722857Y-166237142D01*
X142780000Y-166294285D01*
X142837142Y-166322857D01*
X141951428Y-166151428D02*
X142237142Y-166151428D01*
X142265714Y-166437142D01*
X142237142Y-166408571D01*
X142180000Y-166380000D01*
X142037142Y-166380000D01*
X141980000Y-166408571D01*
X141951428Y-166437142D01*
X141922857Y-166494285D01*
X141922857Y-166637142D01*
X141951428Y-166694285D01*
X141980000Y-166722857D01*
X142037142Y-166751428D01*
X142180000Y-166751428D01*
X142237142Y-166722857D01*
X142265714Y-166694285D01*
%TO.C,Q13*%
X154802857Y-166698571D02*
X154860000Y-166670000D01*
X154917142Y-166612857D01*
X155002857Y-166527142D01*
X155060000Y-166498571D01*
X155117142Y-166498571D01*
X155088571Y-166641428D02*
X155145714Y-166612857D01*
X155202857Y-166555714D01*
X155231428Y-166441428D01*
X155231428Y-166241428D01*
X155202857Y-166127142D01*
X155145714Y-166070000D01*
X155088571Y-166041428D01*
X154974285Y-166041428D01*
X154917142Y-166070000D01*
X154860000Y-166127142D01*
X154831428Y-166241428D01*
X154831428Y-166441428D01*
X154860000Y-166555714D01*
X154917142Y-166612857D01*
X154974285Y-166641428D01*
X155088571Y-166641428D01*
X154260000Y-166641428D02*
X154602857Y-166641428D01*
X154431428Y-166641428D02*
X154431428Y-166041428D01*
X154488571Y-166127142D01*
X154545714Y-166184285D01*
X154602857Y-166212857D01*
X154060000Y-166041428D02*
X153688571Y-166041428D01*
X153888571Y-166270000D01*
X153802857Y-166270000D01*
X153745714Y-166298571D01*
X153717142Y-166327142D01*
X153688571Y-166384285D01*
X153688571Y-166527142D01*
X153717142Y-166584285D01*
X153745714Y-166612857D01*
X153802857Y-166641428D01*
X153974285Y-166641428D01*
X154031428Y-166612857D01*
X154060000Y-166584285D01*
%TO.C,Q8*%
X147377142Y-162988571D02*
X147434285Y-162960000D01*
X147491428Y-162902857D01*
X147577142Y-162817142D01*
X147634285Y-162788571D01*
X147691428Y-162788571D01*
X147662857Y-162931428D02*
X147720000Y-162902857D01*
X147777142Y-162845714D01*
X147805714Y-162731428D01*
X147805714Y-162531428D01*
X147777142Y-162417142D01*
X147720000Y-162360000D01*
X147662857Y-162331428D01*
X147548571Y-162331428D01*
X147491428Y-162360000D01*
X147434285Y-162417142D01*
X147405714Y-162531428D01*
X147405714Y-162731428D01*
X147434285Y-162845714D01*
X147491428Y-162902857D01*
X147548571Y-162931428D01*
X147662857Y-162931428D01*
X147062857Y-162588571D02*
X147120000Y-162560000D01*
X147148571Y-162531428D01*
X147177142Y-162474285D01*
X147177142Y-162445714D01*
X147148571Y-162388571D01*
X147120000Y-162360000D01*
X147062857Y-162331428D01*
X146948571Y-162331428D01*
X146891428Y-162360000D01*
X146862857Y-162388571D01*
X146834285Y-162445714D01*
X146834285Y-162474285D01*
X146862857Y-162531428D01*
X146891428Y-162560000D01*
X146948571Y-162588571D01*
X147062857Y-162588571D01*
X147120000Y-162617142D01*
X147148571Y-162645714D01*
X147177142Y-162702857D01*
X147177142Y-162817142D01*
X147148571Y-162874285D01*
X147120000Y-162902857D01*
X147062857Y-162931428D01*
X146948571Y-162931428D01*
X146891428Y-162902857D01*
X146862857Y-162874285D01*
X146834285Y-162817142D01*
X146834285Y-162702857D01*
X146862857Y-162645714D01*
X146891428Y-162617142D01*
X146948571Y-162588571D01*
%TO.C,C18*%
X103175714Y-189324285D02*
X103204285Y-189352857D01*
X103290000Y-189381428D01*
X103347142Y-189381428D01*
X103432857Y-189352857D01*
X103490000Y-189295714D01*
X103518571Y-189238571D01*
X103547142Y-189124285D01*
X103547142Y-189038571D01*
X103518571Y-188924285D01*
X103490000Y-188867142D01*
X103432857Y-188810000D01*
X103347142Y-188781428D01*
X103290000Y-188781428D01*
X103204285Y-188810000D01*
X103175714Y-188838571D01*
X102604285Y-189381428D02*
X102947142Y-189381428D01*
X102775714Y-189381428D02*
X102775714Y-188781428D01*
X102832857Y-188867142D01*
X102890000Y-188924285D01*
X102947142Y-188952857D01*
X102261428Y-189038571D02*
X102318571Y-189010000D01*
X102347142Y-188981428D01*
X102375714Y-188924285D01*
X102375714Y-188895714D01*
X102347142Y-188838571D01*
X102318571Y-188810000D01*
X102261428Y-188781428D01*
X102147142Y-188781428D01*
X102090000Y-188810000D01*
X102061428Y-188838571D01*
X102032857Y-188895714D01*
X102032857Y-188924285D01*
X102061428Y-188981428D01*
X102090000Y-189010000D01*
X102147142Y-189038571D01*
X102261428Y-189038571D01*
X102318571Y-189067142D01*
X102347142Y-189095714D01*
X102375714Y-189152857D01*
X102375714Y-189267142D01*
X102347142Y-189324285D01*
X102318571Y-189352857D01*
X102261428Y-189381428D01*
X102147142Y-189381428D01*
X102090000Y-189352857D01*
X102061428Y-189324285D01*
X102032857Y-189267142D01*
X102032857Y-189152857D01*
X102061428Y-189095714D01*
X102090000Y-189067142D01*
X102147142Y-189038571D01*
%TO.C,Q14*%
X175782857Y-167228571D02*
X175840000Y-167200000D01*
X175897142Y-167142857D01*
X175982857Y-167057142D01*
X176040000Y-167028571D01*
X176097142Y-167028571D01*
X176068571Y-167171428D02*
X176125714Y-167142857D01*
X176182857Y-167085714D01*
X176211428Y-166971428D01*
X176211428Y-166771428D01*
X176182857Y-166657142D01*
X176125714Y-166600000D01*
X176068571Y-166571428D01*
X175954285Y-166571428D01*
X175897142Y-166600000D01*
X175840000Y-166657142D01*
X175811428Y-166771428D01*
X175811428Y-166971428D01*
X175840000Y-167085714D01*
X175897142Y-167142857D01*
X175954285Y-167171428D01*
X176068571Y-167171428D01*
X175240000Y-167171428D02*
X175582857Y-167171428D01*
X175411428Y-167171428D02*
X175411428Y-166571428D01*
X175468571Y-166657142D01*
X175525714Y-166714285D01*
X175582857Y-166742857D01*
X174725714Y-166771428D02*
X174725714Y-167171428D01*
X174868571Y-166542857D02*
X175011428Y-166971428D01*
X174640000Y-166971428D01*
D11*
%TO.C,J4*%
X204270000Y-130005000D02*
X189170140Y-130005000D01*
X204320000Y-122405000D02*
X204320000Y-114005000D01*
X189320000Y-114005000D02*
X189320000Y-122405000D01*
X204320000Y-114005000D02*
X189320000Y-114005000D01*
%TO.C,C16*%
X105400580Y-189940000D02*
X105119420Y-189940000D01*
X105400580Y-188920000D02*
X105119420Y-188920000D01*
%TO.C,C40*%
X166840000Y-183329420D02*
X166840000Y-183610580D01*
X165820000Y-183329420D02*
X165820000Y-183610580D01*
%TO.C,C20*%
X116275563Y-182990000D02*
X117340000Y-181925563D01*
X111820000Y-177470000D02*
X113520000Y-177470000D01*
X112884437Y-182990000D02*
X111820000Y-181925563D01*
X111820000Y-181925563D02*
X111820000Y-177470000D01*
X117340000Y-177470000D02*
X115640000Y-177470000D01*
X116265000Y-183855000D02*
X116265000Y-183230000D01*
X112884437Y-182990000D02*
X113520000Y-182990000D01*
X116577500Y-183542500D02*
X115952500Y-183542500D01*
X117340000Y-181925563D02*
X117340000Y-177470000D01*
X116275563Y-182990000D02*
X115640000Y-182990000D01*
%TO.C,R2*%
X198422500Y-180512742D02*
X198422500Y-180987258D01*
X197377500Y-180512742D02*
X197377500Y-180987258D01*
%TO.C,U6*%
X197800000Y-134870000D02*
X200250000Y-134870000D01*
X199600000Y-138090000D02*
X197800000Y-138090000D01*
%TO.C,R28*%
X191627500Y-162957258D02*
X191627500Y-162482742D01*
X192672500Y-162957258D02*
X192672500Y-162482742D01*
%TO.C,R19*%
X179542500Y-174147258D02*
X179542500Y-173672742D01*
X178497500Y-174147258D02*
X178497500Y-173672742D01*
%TO.C,R3*%
X192957500Y-168007258D02*
X192957500Y-167532742D01*
X194002500Y-168007258D02*
X194002500Y-167532742D01*
%TO.C,Q16*%
X188800000Y-161670000D02*
X190830000Y-161670000D01*
X190210000Y-163990000D02*
X188800000Y-163990000D01*
X188800000Y-161670000D02*
X188800000Y-162330000D01*
X188800000Y-163330000D02*
X188800000Y-163990000D01*
%TO.C,R16*%
X145092500Y-164717258D02*
X145092500Y-164242742D01*
X144047500Y-164717258D02*
X144047500Y-164242742D01*
%TO.C,J6*%
X118254000Y-177869000D02*
X120667000Y-177869000D01*
X135526000Y-177869000D02*
X135526000Y-191331000D01*
X118254000Y-177869000D02*
X118254000Y-191331000D01*
X133113000Y-177869000D02*
X135526000Y-177869000D01*
X118254000Y-201999000D02*
X135526000Y-201999000D01*
X118254000Y-195649000D02*
X118254000Y-201999000D01*
X135526000Y-195649000D02*
X135526000Y-201999000D01*
%TO.C,R11*%
X168942500Y-182637258D02*
X168942500Y-182162742D01*
X167897500Y-182637258D02*
X167897500Y-182162742D01*
%TO.C,R12*%
X180667500Y-178447258D02*
X180667500Y-177972742D01*
X181712500Y-178447258D02*
X181712500Y-177972742D01*
%TO.C,PB1*%
X204645000Y-170534000D02*
X204645000Y-165734000D01*
X204645000Y-163809000D02*
X201320000Y-163809000D01*
X201320000Y-172459000D02*
X204645000Y-172459000D01*
X201320000Y-163809000D02*
X201320000Y-172459000D01*
D12*
%TO.C,R57*%
X198607258Y-186897500D02*
X198132742Y-186897500D01*
X198607258Y-187942500D02*
X198132742Y-187942500D01*
D11*
%TO.C,R27*%
X195352500Y-163017742D02*
X195352500Y-163492258D01*
X194307500Y-163017742D02*
X194307500Y-163492258D01*
D12*
%TO.C,R26*%
X167692742Y-156837500D02*
X168167258Y-156837500D01*
X167692742Y-157882500D02*
X168167258Y-157882500D01*
%TO.C,LED3*%
X150572500Y-156635000D02*
X152857500Y-156635000D01*
X152857500Y-156635000D02*
X152857500Y-158105000D01*
X152857500Y-158105000D02*
X150572500Y-158105000D01*
%TO.C,R8*%
X107392742Y-157712500D02*
X107867258Y-157712500D01*
X107392742Y-156667500D02*
X107867258Y-156667500D01*
D11*
%TO.C,R13*%
X180024322Y-178347258D02*
X180024322Y-177872742D01*
X178979322Y-178347258D02*
X178979322Y-177872742D01*
%TO.C,Q9*%
X136000000Y-162390000D02*
X139600000Y-162390000D01*
X136000000Y-162390000D02*
X133800000Y-162390000D01*
X136000000Y-165610000D02*
X138200000Y-165610000D01*
X136000000Y-165610000D02*
X133800000Y-165610000D01*
%TO.C,C39*%
X140180580Y-191620000D02*
X139899420Y-191620000D01*
X140180580Y-192640000D02*
X139899420Y-192640000D01*
%TO.C,R21*%
X163327500Y-164112742D02*
X163327500Y-164587258D01*
X164372500Y-164112742D02*
X164372500Y-164587258D01*
%TO.C,C15*%
X118224437Y-173410000D02*
X117160000Y-172345563D01*
X121917500Y-173962500D02*
X121292500Y-173962500D01*
X117160000Y-172345563D02*
X117160000Y-167890000D01*
X121605000Y-174275000D02*
X121605000Y-173650000D01*
X121615563Y-173410000D02*
X120980000Y-173410000D01*
X122680000Y-172345563D02*
X122680000Y-167890000D01*
X117160000Y-167890000D02*
X118860000Y-167890000D01*
X118224437Y-173410000D02*
X118860000Y-173410000D01*
X121615563Y-173410000D02*
X122680000Y-172345563D01*
X122680000Y-167890000D02*
X120980000Y-167890000D01*
%TO.C,R1*%
X194002500Y-172497258D02*
X194002500Y-172022742D01*
X192957500Y-172497258D02*
X192957500Y-172022742D01*
D12*
%TO.C,LED4*%
X172717500Y-158095000D02*
X170432500Y-158095000D01*
X170432500Y-156625000D02*
X172717500Y-156625000D01*
X172717500Y-156625000D02*
X172717500Y-158095000D01*
D11*
%TO.C,R9*%
X110382500Y-160607258D02*
X110382500Y-160132742D01*
X109337500Y-160607258D02*
X109337500Y-160132742D01*
%TO.C,Q12*%
X167240000Y-165400000D02*
X165830000Y-165400000D01*
X165830000Y-164740000D02*
X165830000Y-165400000D01*
X165830000Y-163080000D02*
X165830000Y-163740000D01*
X165830000Y-163080000D02*
X167860000Y-163080000D01*
%TO.C,Q11*%
X170880000Y-172780000D02*
X172910000Y-172780000D01*
X170880000Y-172780000D02*
X170880000Y-173440000D01*
X172290000Y-175100000D02*
X170880000Y-175100000D01*
X170880000Y-174440000D02*
X170880000Y-175100000D01*
%TO.C,C14*%
X116440000Y-167930000D02*
X114740000Y-167930000D01*
X111984437Y-173450000D02*
X110920000Y-172385563D01*
X115375563Y-173450000D02*
X114740000Y-173450000D01*
X115677500Y-174002500D02*
X115052500Y-174002500D01*
X115365000Y-174315000D02*
X115365000Y-173690000D01*
X115375563Y-173450000D02*
X116440000Y-172385563D01*
X111984437Y-173450000D02*
X112620000Y-173450000D01*
X110920000Y-172385563D02*
X110920000Y-167930000D01*
X116440000Y-172385563D02*
X116440000Y-167930000D01*
X110920000Y-167930000D02*
X112620000Y-167930000D01*
%TO.C,R23*%
X167557500Y-174367258D02*
X167557500Y-173892742D01*
X168602500Y-174367258D02*
X168602500Y-173892742D01*
D12*
%TO.C,LED2*%
X130410000Y-156645000D02*
X132695000Y-156645000D01*
X132695000Y-158115000D02*
X130410000Y-158115000D01*
X132695000Y-156645000D02*
X132695000Y-158115000D01*
D11*
%TO.C,R6*%
X180817500Y-182477258D02*
X180817500Y-182002742D01*
X181862500Y-182477258D02*
X181862500Y-182002742D01*
%TO.C,R17*%
X168844322Y-178917258D02*
X168844322Y-178442742D01*
X167799322Y-178917258D02*
X167799322Y-178442742D01*
%TO.C,J3*%
X151785098Y-193555000D02*
X151785098Y-201955000D01*
X151835098Y-185955000D02*
X166934958Y-185955000D01*
X166785098Y-201955000D02*
X166785098Y-193555000D01*
X151785098Y-201955000D02*
X166785098Y-201955000D01*
%TO.C,R24*%
X181372500Y-170202258D02*
X181372500Y-169727742D01*
X180327500Y-170202258D02*
X180327500Y-169727742D01*
%TO.C,J7*%
X124290000Y-167050000D02*
X131290000Y-167050000D01*
X131290000Y-167050000D02*
X131290000Y-174050000D01*
X130290000Y-174050000D02*
X131290000Y-174050000D01*
X124290000Y-174050000D02*
X125290000Y-174050000D01*
X124290000Y-174050000D02*
X124290000Y-167050000D01*
%TO.C,U15*%
X151090000Y-167100000D02*
X137790000Y-167100000D01*
X164765000Y-182587500D02*
X164765000Y-184912500D01*
X137790000Y-167087500D02*
X137790000Y-169412500D01*
X164790000Y-167100000D02*
X151090000Y-167100000D01*
X137790000Y-184900000D02*
X164790000Y-184900000D01*
X164790000Y-167112500D02*
X164790000Y-169437500D01*
X137790000Y-182575000D02*
X137790000Y-184900000D01*
X140790000Y-169000000D02*
G75*
G03*
X140790000Y-169000000I-1000000J0D01*
G01*
X140790000Y-183000000D02*
G75*
G03*
X140790000Y-183000000I-1000000J0D01*
G01*
%TO.C,Q3*%
X171380000Y-181050000D02*
X173410000Y-181050000D01*
X172790000Y-183370000D02*
X171380000Y-183370000D01*
X171380000Y-182710000D02*
X171380000Y-183370000D01*
X171380000Y-181050000D02*
X171380000Y-181710000D01*
%TO.C,Q17*%
X181310000Y-165380000D02*
X179110000Y-165380000D01*
X181310000Y-165380000D02*
X183510000Y-165380000D01*
X181310000Y-162160000D02*
X179110000Y-162160000D01*
X181310000Y-162160000D02*
X184910000Y-162160000D01*
%TO.C,U1*%
X193735000Y-177850000D02*
X195160000Y-177850000D01*
X193735000Y-177625000D02*
X193410000Y-177625000D01*
X193735000Y-184875000D02*
X193410000Y-184875000D01*
X186485000Y-184875000D02*
X186810000Y-184875000D01*
X186485000Y-177625000D02*
X186810000Y-177625000D01*
X186485000Y-177625000D02*
X186485000Y-177950000D01*
X193735000Y-177625000D02*
X193735000Y-177850000D01*
X186485000Y-184875000D02*
X186485000Y-184550000D01*
X193735000Y-184875000D02*
X193735000Y-184550000D01*
%TO.C,J2*%
X173671098Y-187973250D02*
G75*
G03*
X173671098Y-187973250I-100000J0D01*
G01*
X186971098Y-200023250D02*
X170771098Y-200023250D01*
X185571098Y-188473250D02*
X184071098Y-188473250D01*
X186971098Y-200023250D02*
X186971098Y-197673250D01*
X170771098Y-197573250D02*
X170771098Y-200023250D01*
X186971098Y-195173250D02*
X186971098Y-192273250D01*
X173271098Y-188473250D02*
X172171098Y-188473250D01*
X170771098Y-192373250D02*
X170771098Y-195173250D01*
D12*
%TO.C,L2*%
X109950000Y-167960000D02*
X104850000Y-167960000D01*
X109950000Y-173060000D02*
X104850000Y-173060000D01*
D11*
%TO.C,R41*%
X190597500Y-136187258D02*
X190597500Y-135712742D01*
X191642500Y-136187258D02*
X191642500Y-135712742D01*
%TO.C,U8*%
X105800000Y-177770000D02*
X109300000Y-177770000D01*
X105800000Y-187890000D02*
X107750000Y-187890000D01*
X105800000Y-177770000D02*
X103850000Y-177770000D01*
X105800000Y-187890000D02*
X103850000Y-187890000D01*
%TO.C,R4*%
X188012500Y-168017258D02*
X188012500Y-167542742D01*
X186967500Y-168017258D02*
X186967500Y-167542742D01*
%TO.C,C19*%
X116045563Y-191870000D02*
X115410000Y-191870000D01*
X117110000Y-186350000D02*
X115410000Y-186350000D01*
X116035000Y-192735000D02*
X116035000Y-192110000D01*
X116045563Y-191870000D02*
X117110000Y-190805563D01*
X111590000Y-190805563D02*
X111590000Y-186350000D01*
X112654437Y-191870000D02*
X111590000Y-190805563D01*
X116347500Y-192422500D02*
X115722500Y-192422500D01*
X112654437Y-191870000D02*
X113290000Y-191870000D01*
X111590000Y-186350000D02*
X113290000Y-186350000D01*
X117110000Y-190805563D02*
X117110000Y-186350000D01*
D12*
%TO.C,R14*%
X127682742Y-156857500D02*
X128157258Y-156857500D01*
X127682742Y-157902500D02*
X128157258Y-157902500D01*
D11*
%TO.C,D1*%
X185580000Y-170850000D02*
X187740000Y-170850000D01*
X185580000Y-174010000D02*
X187040000Y-174010000D01*
X185580000Y-174010000D02*
X185580000Y-173080000D01*
X185580000Y-170850000D02*
X185580000Y-171780000D01*
%TO.C,R22*%
X161617500Y-164557258D02*
X161617500Y-164082742D01*
X162662500Y-164557258D02*
X162662500Y-164082742D01*
D12*
%TO.C,R20*%
X147622742Y-157892500D02*
X148097258Y-157892500D01*
X147622742Y-156847500D02*
X148097258Y-156847500D01*
D11*
%TO.C,Q10*%
X175320000Y-172940000D02*
X177350000Y-172940000D01*
X175320000Y-172940000D02*
X175320000Y-173600000D01*
X175320000Y-174600000D02*
X175320000Y-175260000D01*
X176730000Y-175260000D02*
X175320000Y-175260000D01*
%TO.C,Q6*%
X175441822Y-176990000D02*
X177471822Y-176990000D01*
X175441822Y-178650000D02*
X175441822Y-179310000D01*
X175441822Y-176990000D02*
X175441822Y-177650000D01*
X176851822Y-179310000D02*
X175441822Y-179310000D01*
D12*
%TO.C,R50*%
X190307500Y-172417258D02*
X190307500Y-171942742D01*
X191352500Y-172417258D02*
X191352500Y-171942742D01*
D11*
%TO.C,Q4*%
X111900000Y-159250000D02*
X113930000Y-159250000D01*
X111900000Y-159250000D02*
X111900000Y-159910000D01*
X111900000Y-160910000D02*
X111900000Y-161570000D01*
X113310000Y-161570000D02*
X111900000Y-161570000D01*
%TO.C,PB2*%
X201420000Y-185339000D02*
X204745000Y-185339000D01*
X204745000Y-183414000D02*
X204745000Y-178614000D01*
X204745000Y-176689000D02*
X201420000Y-176689000D01*
X201420000Y-176689000D02*
X201420000Y-185339000D01*
%TO.C,L3*%
X110410000Y-199250000D02*
X115510000Y-199250000D01*
X110410000Y-194150000D02*
X115510000Y-194150000D01*
%TO.C,Q7*%
X170981822Y-178610000D02*
X170981822Y-179270000D01*
X170981822Y-176950000D02*
X173011822Y-176950000D01*
X170981822Y-176950000D02*
X170981822Y-177610000D01*
X172391822Y-179270000D02*
X170981822Y-179270000D01*
%TO.C,J5*%
X148245098Y-193417500D02*
X148245098Y-199917500D01*
X138245098Y-193417500D02*
X138245098Y-199917500D01*
X148245098Y-193417500D02*
X138245098Y-193417500D01*
%TO.C,R25*%
X178087500Y-170197258D02*
X178087500Y-169722742D01*
X179132500Y-170197258D02*
X179132500Y-169722742D01*
%TO.C,Q2*%
X175470000Y-181040000D02*
X177500000Y-181040000D01*
X175470000Y-181040000D02*
X175470000Y-181700000D01*
X175470000Y-182700000D02*
X175470000Y-183360000D01*
X176880000Y-183360000D02*
X175470000Y-183360000D01*
%TO.C,R29*%
X168645060Y-170348858D02*
X168645060Y-169874342D01*
X167600060Y-170348858D02*
X167600060Y-169874342D01*
D12*
%TO.C,LED1*%
X112395000Y-156475000D02*
X112395000Y-157945000D01*
X110110000Y-156475000D02*
X112395000Y-156475000D01*
X112395000Y-157945000D02*
X110110000Y-157945000D01*
D11*
%TO.C,C12*%
X193550000Y-134159420D02*
X193550000Y-134440580D01*
X192530000Y-134159420D02*
X192530000Y-134440580D01*
D12*
%TO.C,LED12*%
X199845000Y-184865000D02*
X199845000Y-186335000D01*
X197560000Y-184865000D02*
X199845000Y-184865000D01*
X199845000Y-186335000D02*
X197560000Y-186335000D01*
D11*
%TO.C,R18*%
X180707500Y-174127258D02*
X180707500Y-173652742D01*
X181752500Y-174127258D02*
X181752500Y-173652742D01*
%TO.C,Q1*%
X189750000Y-166270000D02*
X191910000Y-166270000D01*
X189750000Y-169430000D02*
X189750000Y-168500000D01*
X189750000Y-166270000D02*
X189750000Y-167200000D01*
X189750000Y-169430000D02*
X191210000Y-169430000D01*
%TO.C,Q5*%
X116120000Y-165610000D02*
X113920000Y-165610000D01*
X116120000Y-165610000D02*
X118320000Y-165610000D01*
X116120000Y-162390000D02*
X119720000Y-162390000D01*
X116120000Y-162390000D02*
X113920000Y-162390000D01*
%TO.C,Q15*%
X170892560Y-170261600D02*
X170892560Y-170921600D01*
X170892560Y-168601600D02*
X170892560Y-169261600D01*
X172302560Y-170921600D02*
X170892560Y-170921600D01*
X170892560Y-168601600D02*
X172922560Y-168601600D01*
%TO.C,C17*%
X108489420Y-190030000D02*
X108770580Y-190030000D01*
X108489420Y-189010000D02*
X108770580Y-189010000D01*
%TO.C,R5*%
X184137500Y-168487258D02*
X184137500Y-168012742D01*
X185182500Y-168487258D02*
X185182500Y-168012742D01*
%TO.C,D5*%
X108980000Y-177080000D02*
X108980000Y-175480000D01*
X104180000Y-175480000D02*
X104180000Y-177080000D01*
X109280000Y-177080000D02*
X109280000Y-175480000D01*
X108880000Y-177080000D02*
X109280000Y-177080000D01*
X108880000Y-175480000D02*
X104180000Y-175480000D01*
X104180000Y-177080000D02*
X108880000Y-177080000D01*
X109280000Y-175480000D02*
X108880000Y-175480000D01*
%TO.C,R7*%
X178827500Y-182407258D02*
X178827500Y-181932742D01*
X179872500Y-182407258D02*
X179872500Y-181932742D01*
%TO.C,R10*%
X111792500Y-163917258D02*
X111792500Y-163442742D01*
X110747500Y-163917258D02*
X110747500Y-163442742D01*
%TO.C,R45*%
X107427258Y-173857500D02*
X106952742Y-173857500D01*
X107427258Y-174902500D02*
X106952742Y-174902500D01*
%TO.C,R15*%
X143382500Y-164242742D02*
X143382500Y-164717258D01*
X142337500Y-164242742D02*
X142337500Y-164717258D01*
%TO.C,Q13*%
X155570000Y-165610000D02*
X153370000Y-165610000D01*
X155570000Y-162390000D02*
X159170000Y-162390000D01*
X155570000Y-165610000D02*
X157770000Y-165610000D01*
X155570000Y-162390000D02*
X153370000Y-162390000D01*
%TO.C,Q8*%
X146540000Y-165110000D02*
X146540000Y-165770000D01*
X146540000Y-163450000D02*
X146540000Y-164110000D01*
X146540000Y-163450000D02*
X148570000Y-163450000D01*
X147950000Y-165770000D02*
X146540000Y-165770000D01*
%TO.C,C18*%
X101660000Y-187389420D02*
X101660000Y-187670580D01*
X100640000Y-187389420D02*
X100640000Y-187670580D01*
%TO.C,Q14*%
X174962560Y-168701600D02*
X176992560Y-168701600D01*
X176372560Y-171021600D02*
X174962560Y-171021600D01*
X174962560Y-170361600D02*
X174962560Y-171021600D01*
X174962560Y-168701600D02*
X174962560Y-169361600D01*
%TD*%
M02*
