%TF.GenerationSoftware,KiCad,Pcbnew,(6.0.1-0)*%
%TF.CreationDate,2022-04-09T17:35:35-06:00*%
%TF.ProjectId,HAT_CM4_183,4841545f-434d-4345-9f31-38332e6b6963,1.8.3*%
%TF.SameCoordinates,Original*%
%TF.FileFunction,Soldermask,Top*%
%TF.FilePolarity,Negative*%
%FSLAX46Y46*%
G04 Gerber Fmt 4.6, Leading zero omitted, Abs format (unit mm)*
G04 Created by KiCad (PCBNEW (6.0.1-0)) date 2022-04-09 17:35:35*
%MOMM*%
%LPD*%
G01*
G04 APERTURE LIST*
G04 Aperture macros list*
%AMRoundRect*
0 Rectangle with rounded corners*
0 $1 Rounding radius*
0 $2 $3 $4 $5 $6 $7 $8 $9 X,Y pos of 4 corners*
0 Add a 4 corners polygon primitive as box body*
4,1,4,$2,$3,$4,$5,$6,$7,$8,$9,$2,$3,0*
0 Add four circle primitives for the rounded corners*
1,1,$1+$1,$2,$3*
1,1,$1+$1,$4,$5*
1,1,$1+$1,$6,$7*
1,1,$1+$1,$8,$9*
0 Add four rect primitives between the rounded corners*
20,1,$1+$1,$2,$3,$4,$5,0*
20,1,$1+$1,$4,$5,$6,$7,0*
20,1,$1+$1,$6,$7,$8,$9,0*
20,1,$1+$1,$8,$9,$2,$3,0*%
%AMFreePoly0*
4,1,9,0.400000,-0.835000,-0.400000,-0.835000,-0.400000,-0.185000,-1.050000,-0.185000,-1.050000,0.185000,-0.400000,0.185000,-0.400000,0.835000,0.400000,0.835000,0.400000,-0.835000,0.400000,-0.835000,$1*%
G04 Aperture macros list end*
%ADD10RoundRect,0.200000X-0.200000X-0.275000X0.200000X-0.275000X0.200000X0.275000X-0.200000X0.275000X0*%
%ADD11RoundRect,0.225000X-0.225000X-0.250000X0.225000X-0.250000X0.225000X0.250000X-0.225000X0.250000X0*%
%ADD12C,4.300000*%
%ADD13C,1.500000*%
%ADD14RoundRect,0.200000X0.275000X-0.200000X0.275000X0.200000X-0.275000X0.200000X-0.275000X-0.200000X0*%
%ADD15RoundRect,0.225000X0.225000X0.250000X-0.225000X0.250000X-0.225000X-0.250000X0.225000X-0.250000X0*%
%ADD16RoundRect,0.225000X-0.250000X0.225000X-0.250000X-0.225000X0.250000X-0.225000X0.250000X0.225000X0*%
%ADD17RoundRect,0.200000X0.200000X0.275000X-0.200000X0.275000X-0.200000X-0.275000X0.200000X-0.275000X0*%
%ADD18R,0.450000X0.370000*%
%ADD19FreePoly0,0.000000*%
%ADD20RoundRect,0.062500X-0.350000X-0.062500X0.350000X-0.062500X0.350000X0.062500X-0.350000X0.062500X0*%
%ADD21RoundRect,0.062500X-0.062500X-0.350000X0.062500X-0.350000X0.062500X0.350000X-0.062500X0.350000X0*%
%ADD22R,3.700000X3.700000*%
%ADD23RoundRect,0.500000X-2.300000X-0.250000X2.300000X-0.250000X2.300000X0.250000X-2.300000X0.250000X0*%
%ADD24R,0.700000X1.100000*%
%ADD25R,0.900000X0.930000*%
%ADD26R,1.050000X0.780000*%
%ADD27R,0.700000X3.330000*%
%ADD28R,1.140000X1.830000*%
%ADD29R,0.860000X2.800000*%
%ADD30RoundRect,0.218750X0.218750X0.256250X-0.218750X0.256250X-0.218750X-0.256250X0.218750X-0.256250X0*%
%ADD31R,1.800000X5.700000*%
%ADD32R,0.900000X0.800000*%
%ADD33R,0.650000X1.060000*%
%ADD34R,2.000000X2.000000*%
%ADD35R,0.800000X0.200000*%
%ADD36R,0.200000X0.800000*%
%ADD37R,1.112500X1.112500*%
%ADD38C,0.508000*%
%ADD39RoundRect,0.250000X-0.550000X1.250000X-0.550000X-1.250000X0.550000X-1.250000X0.550000X1.250000X0*%
%ADD40R,1.060000X0.650000*%
%ADD41R,0.300000X0.550000*%
%ADD42R,2.000000X4.500000*%
%ADD43R,1.700000X1.700000*%
%ADD44O,1.700000X1.700000*%
%ADD45RoundRect,0.225000X0.250000X-0.225000X0.250000X0.225000X-0.250000X0.225000X-0.250000X-0.225000X0*%
%ADD46R,0.200000X0.700000*%
%ADD47C,2.500000*%
%ADD48C,3.429000*%
%ADD49C,1.700000*%
%ADD50C,0.750000*%
%ADD51O,1.000000X1.800000*%
%ADD52O,1.000000X2.100000*%
G04 APERTURE END LIST*
D10*
%TO.C,R32*%
X131355000Y-188320000D03*
X133005000Y-188320000D03*
%TD*%
%TO.C,R34*%
X185665000Y-157020000D03*
X187315000Y-157020000D03*
%TD*%
D11*
%TO.C,C37*%
X138595000Y-177920000D03*
X140145000Y-177920000D03*
%TD*%
D12*
%TO.C,H2*%
X104920000Y-195520000D03*
%TD*%
D13*
%TO.C,TP6*%
X101570000Y-172020000D03*
%TD*%
D10*
%TO.C,R51*%
X138545000Y-169730000D03*
X140195000Y-169730000D03*
%TD*%
D14*
%TO.C,R38*%
X200140000Y-168820000D03*
X200140000Y-167170000D03*
%TD*%
D15*
%TO.C,C8*%
X133435000Y-193610000D03*
X131885000Y-193610000D03*
%TD*%
D11*
%TO.C,C6*%
X120025000Y-195880000D03*
X121575000Y-195880000D03*
%TD*%
D16*
%TO.C,C32*%
X197720000Y-141535000D03*
X197720000Y-143085000D03*
%TD*%
D11*
%TO.C,C28*%
X139205000Y-162220000D03*
X140755000Y-162220000D03*
%TD*%
D17*
%TO.C,R49*%
X138565000Y-197020000D03*
X136915000Y-197020000D03*
%TD*%
D15*
%TO.C,C22*%
X187925000Y-190700000D03*
X186375000Y-190700000D03*
%TD*%
D11*
%TO.C,C2*%
X132515000Y-180620000D03*
X134065000Y-180620000D03*
%TD*%
%TO.C,C3*%
X119035000Y-188170000D03*
X120585000Y-188170000D03*
%TD*%
D16*
%TO.C,C38*%
X192640000Y-141535000D03*
X192640000Y-143085000D03*
%TD*%
D18*
%TO.C,U7*%
X118835000Y-184300000D03*
D19*
X119660000Y-184950000D03*
D18*
X118835000Y-185600000D03*
X120485000Y-185600000D03*
X120485000Y-184950000D03*
X120485000Y-184300000D03*
%TD*%
D10*
%TO.C,R54*%
X130255000Y-165500000D03*
X131905000Y-165500000D03*
%TD*%
D14*
%TO.C,R39*%
X199740000Y-177985000D03*
X199740000Y-176335000D03*
%TD*%
D20*
%TO.C,U13*%
X130222500Y-170110000D03*
X130222500Y-170610000D03*
X130222500Y-171110000D03*
X130222500Y-171610000D03*
X130222500Y-172110000D03*
X130222500Y-172610000D03*
X130222500Y-173110000D03*
X130222500Y-173610000D03*
X130222500Y-174110000D03*
D21*
X131160000Y-175047500D03*
X131660000Y-175047500D03*
X132160000Y-175047500D03*
X132660000Y-175047500D03*
X133160000Y-175047500D03*
X133660000Y-175047500D03*
X134160000Y-175047500D03*
X134660000Y-175047500D03*
X135160000Y-175047500D03*
D20*
X136097500Y-174110000D03*
X136097500Y-173610000D03*
X136097500Y-173110000D03*
X136097500Y-172610000D03*
X136097500Y-172110000D03*
X136097500Y-171610000D03*
X136097500Y-171110000D03*
X136097500Y-170610000D03*
X136097500Y-170110000D03*
D21*
X135160000Y-169172500D03*
X134660000Y-169172500D03*
X134160000Y-169172500D03*
X133660000Y-169172500D03*
X133160000Y-169172500D03*
X132660000Y-169172500D03*
X132160000Y-169172500D03*
X131660000Y-169172500D03*
X131160000Y-169172500D03*
D22*
X133160000Y-172110000D03*
%TD*%
D23*
%TO.C,BTM4*%
X175960000Y-156810000D03*
%TD*%
D15*
%TO.C,C7*%
X132995000Y-186730000D03*
X131445000Y-186730000D03*
%TD*%
D11*
%TO.C,C33*%
X133665000Y-178220000D03*
X135215000Y-178220000D03*
%TD*%
D24*
%TO.C,J1*%
X194280000Y-115537500D03*
X195380000Y-115537500D03*
X196480000Y-115537500D03*
X197580000Y-115537500D03*
X198680000Y-115537500D03*
X199780000Y-115537500D03*
X200880000Y-115537500D03*
X201980000Y-115537500D03*
D25*
X192490000Y-128002500D03*
D26*
X196755000Y-128077500D03*
D27*
X203140000Y-126802500D03*
D28*
X190400000Y-115552500D03*
D29*
X203060000Y-116037500D03*
D27*
X190180000Y-126802500D03*
%TD*%
D30*
%TO.C,LED11*%
X132977500Y-199050000D03*
X131402500Y-199050000D03*
%TD*%
D23*
%TO.C,BTM1*%
X116020000Y-156810000D03*
%TD*%
D10*
%TO.C,R44*%
X118635000Y-180170000D03*
X120285000Y-180170000D03*
%TD*%
D31*
%TO.C,L1*%
X128710000Y-182450000D03*
X124010000Y-182450000D03*
%TD*%
D23*
%TO.C,BTM2*%
X135890000Y-156810000D03*
%TD*%
D13*
%TO.C,TP5*%
X101380000Y-190590000D03*
%TD*%
D30*
%TO.C,LED8*%
X194858500Y-155905000D03*
X193283500Y-155905000D03*
%TD*%
D12*
%TO.C,H3*%
X200570000Y-195090000D03*
%TD*%
D30*
%TO.C,LED10*%
X121967500Y-199070000D03*
X120392500Y-199070000D03*
%TD*%
D17*
%TO.C,R31*%
X120195000Y-194220000D03*
X118545000Y-194220000D03*
%TD*%
D13*
%TO.C,TP2*%
X101540000Y-175190000D03*
%TD*%
D12*
%TO.C,H1*%
X104930000Y-162540000D03*
%TD*%
D11*
%TO.C,C5*%
X121845000Y-197470000D03*
X123395000Y-197470000D03*
%TD*%
D30*
%TO.C,LED5*%
X190762500Y-155905000D03*
X189187500Y-155905000D03*
%TD*%
D10*
%TO.C,R48*%
X116595000Y-199070000D03*
X118245000Y-199070000D03*
%TD*%
%TO.C,R35*%
X201125000Y-148790000D03*
X202775000Y-148790000D03*
%TD*%
D11*
%TO.C,C27*%
X130095000Y-162700000D03*
X131645000Y-162700000D03*
%TD*%
D17*
%TO.C,R37*%
X202285000Y-159850000D03*
X200635000Y-159850000D03*
%TD*%
D10*
%TO.C,R55*%
X138545000Y-167630000D03*
X140195000Y-167630000D03*
%TD*%
D13*
%TO.C,TP3*%
X101410000Y-157440000D03*
%TD*%
D32*
%TO.C,D3*%
X199940000Y-172810000D03*
X201940000Y-171860000D03*
X199940000Y-170910000D03*
%TD*%
D33*
%TO.C,U12*%
X195810000Y-135880000D03*
X194860000Y-135880000D03*
X193910000Y-135880000D03*
X193910000Y-138080000D03*
X195810000Y-138080000D03*
%TD*%
D34*
%TO.C,BTP1*%
X101980000Y-168990000D03*
%TD*%
D17*
%TO.C,R33*%
X136555000Y-198870000D03*
X134905000Y-198870000D03*
%TD*%
D35*
%TO.C,U3*%
X123510000Y-189620000D03*
X123510000Y-190020000D03*
X123510000Y-190420000D03*
X123510000Y-190820000D03*
X123510000Y-191220000D03*
X123510000Y-191620000D03*
X123510000Y-192020000D03*
X123510000Y-192420000D03*
X123510000Y-192820000D03*
X123510000Y-193220000D03*
X123510000Y-193620000D03*
X123510000Y-194020000D03*
D36*
X124310000Y-194820000D03*
X124710000Y-194820000D03*
X125110000Y-194820000D03*
X125510000Y-194820000D03*
X125910000Y-194820000D03*
X126310000Y-194820000D03*
X126710000Y-194820000D03*
X127110000Y-194820000D03*
X127510000Y-194820000D03*
X127910000Y-194820000D03*
X128310000Y-194820000D03*
X128710000Y-194820000D03*
D35*
X129510000Y-194020000D03*
X129510000Y-193620000D03*
X129510000Y-193220000D03*
X129510000Y-192820000D03*
X129510000Y-192420000D03*
X129510000Y-192020000D03*
X129510000Y-191620000D03*
X129510000Y-191220000D03*
X129510000Y-190820000D03*
X129510000Y-190420000D03*
X129510000Y-190020000D03*
X129510000Y-189620000D03*
D36*
X128710000Y-188820000D03*
X128310000Y-188820000D03*
X127910000Y-188820000D03*
X127510000Y-188820000D03*
X127110000Y-188820000D03*
X126710000Y-188820000D03*
X126310000Y-188820000D03*
X125910000Y-188820000D03*
X125510000Y-188820000D03*
X125110000Y-188820000D03*
X124710000Y-188820000D03*
X124310000Y-188820000D03*
D37*
X124841250Y-192376250D03*
X125953750Y-193488750D03*
X128178750Y-191263750D03*
X124841250Y-193488750D03*
D38*
X125385000Y-192945000D03*
X126535000Y-191820000D03*
D37*
X128178750Y-192376250D03*
X127066250Y-191263750D03*
D38*
X127610000Y-192945000D03*
D37*
X127066250Y-192376250D03*
D38*
X125410000Y-190720000D03*
D37*
X124841250Y-191263750D03*
D38*
X125435000Y-191820000D03*
D37*
X127066250Y-193488750D03*
X125953750Y-190151250D03*
D38*
X127635000Y-190720000D03*
X127685000Y-191820000D03*
D37*
X125953750Y-191263750D03*
D38*
X126510000Y-190720000D03*
D37*
X125953750Y-192376250D03*
X127066250Y-190151250D03*
X124841250Y-190151250D03*
X128178750Y-193488750D03*
X128178750Y-190151250D03*
D38*
X126510000Y-192970000D03*
%TD*%
D15*
%TO.C,C31*%
X131075000Y-176820000D03*
X129525000Y-176820000D03*
%TD*%
D23*
%TO.C,BTM3*%
X156100000Y-156810000D03*
%TD*%
D15*
%TO.C,C9*%
X133415000Y-195120000D03*
X131865000Y-195120000D03*
%TD*%
D11*
%TO.C,C29*%
X134515000Y-162720000D03*
X136065000Y-162720000D03*
%TD*%
D30*
%TO.C,LED6*%
X194857500Y-157560000D03*
X193282500Y-157560000D03*
%TD*%
D17*
%TO.C,R42*%
X140275000Y-179620000D03*
X138625000Y-179620000D03*
%TD*%
D15*
%TO.C,C25*%
X196585000Y-132700000D03*
X195035000Y-132700000D03*
%TD*%
D13*
%TO.C,TP4*%
X129340000Y-198630000D03*
%TD*%
D11*
%TO.C,C1*%
X132595000Y-184850000D03*
X134145000Y-184850000D03*
%TD*%
D15*
%TO.C,C10*%
X202725000Y-146450000D03*
X201175000Y-146450000D03*
%TD*%
D11*
%TO.C,C35*%
X138680000Y-175110000D03*
X140230000Y-175110000D03*
%TD*%
D16*
%TO.C,C36*%
X191020000Y-141535000D03*
X191020000Y-143085000D03*
%TD*%
%TO.C,C34*%
X195870000Y-141540000D03*
X195870000Y-143090000D03*
%TD*%
D39*
%TO.C,C30*%
X193980000Y-147390000D03*
X193980000Y-151790000D03*
%TD*%
D40*
%TO.C,U9*%
X189800000Y-190680000D03*
X189800000Y-191630000D03*
X189800000Y-192580000D03*
X192000000Y-192580000D03*
X192000000Y-190680000D03*
%TD*%
D15*
%TO.C,C21*%
X140725000Y-187630000D03*
X139175000Y-187630000D03*
%TD*%
D10*
%TO.C,R43*%
X138825000Y-183730000D03*
X140475000Y-183730000D03*
%TD*%
%TO.C,R47*%
X139125000Y-189380000D03*
X140775000Y-189380000D03*
%TD*%
D11*
%TO.C,C26*%
X134515000Y-165590000D03*
X136065000Y-165590000D03*
%TD*%
D41*
%TO.C,U5*%
X176290000Y-165365000D03*
X175790000Y-165365000D03*
X175290000Y-165365000D03*
X174790000Y-165365000D03*
X174290000Y-165365000D03*
X174290000Y-166135000D03*
X174790000Y-166135000D03*
X175290000Y-166135000D03*
X175790000Y-166135000D03*
X176290000Y-166135000D03*
%TD*%
D42*
%TO.C,Y1*%
X125240000Y-171950000D03*
X125240000Y-163450000D03*
%TD*%
D43*
%TO.C,P1*%
X202320000Y-135380000D03*
D44*
X202320000Y-137920000D03*
X202320000Y-140460000D03*
X202320000Y-143000000D03*
%TD*%
D10*
%TO.C,R36*%
X201225000Y-151100000D03*
X202875000Y-151100000D03*
%TD*%
D45*
%TO.C,C23*%
X121840000Y-172675000D03*
X121840000Y-171125000D03*
%TD*%
D30*
%TO.C,LED7*%
X190767500Y-157580000D03*
X189192500Y-157580000D03*
%TD*%
D10*
%TO.C,R52*%
X137515000Y-172640000D03*
X139165000Y-172640000D03*
%TD*%
D17*
%TO.C,R46*%
X200505000Y-155940000D03*
X198855000Y-155940000D03*
%TD*%
D11*
%TO.C,C24*%
X128785000Y-161100000D03*
X130335000Y-161100000D03*
%TD*%
D46*
%TO.C,Module1*%
X177112993Y-160160001D03*
X177112993Y-163240001D03*
X176712993Y-160160001D03*
X176712993Y-163240001D03*
X176312993Y-160160001D03*
X176312993Y-163240001D03*
X175912993Y-160160001D03*
X175912993Y-163240001D03*
X175512993Y-160160001D03*
X175512993Y-163240001D03*
X175112993Y-160160001D03*
X175112993Y-163240001D03*
X174712993Y-160160001D03*
X174712993Y-163240001D03*
X174312993Y-160160001D03*
X174312993Y-163240001D03*
X173912993Y-160160001D03*
X173912993Y-163240001D03*
X173512993Y-160160001D03*
X173512993Y-163240001D03*
X173112993Y-160160001D03*
X173112993Y-163240001D03*
X172712993Y-160160001D03*
X172712993Y-163240001D03*
X172312993Y-160160001D03*
X172312993Y-163240001D03*
X171912993Y-160160001D03*
X171912993Y-163240001D03*
X171512993Y-160160001D03*
X171512993Y-163240001D03*
X171112993Y-160160001D03*
X171112993Y-163240001D03*
X170712993Y-160160001D03*
X170712993Y-163240001D03*
X170312993Y-160160001D03*
X170312993Y-163240001D03*
X169912993Y-160160001D03*
X169912993Y-163240001D03*
X169512993Y-160160001D03*
X169512993Y-163240001D03*
X169112993Y-160160001D03*
X169112993Y-163240001D03*
X168712993Y-160160001D03*
X168712993Y-163240001D03*
X168312993Y-160160001D03*
X168312993Y-163240001D03*
X167912993Y-160160001D03*
X167912993Y-163240001D03*
X167512993Y-160160001D03*
X167512993Y-163240001D03*
X167112993Y-160160001D03*
X167112993Y-163240001D03*
X166712993Y-160160001D03*
X166712993Y-163240001D03*
X166312993Y-160160001D03*
X166312993Y-163240001D03*
X165912993Y-160160001D03*
X165912993Y-163240001D03*
X165512993Y-160160001D03*
X165512993Y-163240001D03*
X165112993Y-160160001D03*
X165112993Y-163240001D03*
X164712993Y-160160001D03*
X164712993Y-163240001D03*
X164312993Y-160160001D03*
X164312993Y-163240001D03*
X163912993Y-160160001D03*
X163912993Y-163240001D03*
X163512993Y-160160001D03*
X163512993Y-163240001D03*
X163112993Y-160160001D03*
X163112993Y-163240001D03*
X162712993Y-160160001D03*
X162712993Y-163240001D03*
X162312993Y-160160001D03*
X162312993Y-163240001D03*
X161912993Y-160160001D03*
X161912993Y-163240001D03*
X161512993Y-160160001D03*
X161512993Y-163240001D03*
X161112993Y-160160001D03*
X161112993Y-163240001D03*
X160712993Y-160160001D03*
X160712993Y-163240001D03*
X160312993Y-160160001D03*
X160312993Y-163240001D03*
X159912993Y-160160001D03*
X159912993Y-163240001D03*
X159512993Y-160160001D03*
X159512993Y-163240001D03*
X159112993Y-160160001D03*
X159112993Y-163240001D03*
X158712993Y-160160001D03*
X158712993Y-163240001D03*
X158312993Y-160160001D03*
X158312993Y-163240001D03*
X157912993Y-160160001D03*
X157912993Y-163240001D03*
X157512993Y-160160001D03*
X157512993Y-163240001D03*
X177112993Y-194080001D03*
X177112993Y-197160001D03*
X176712993Y-194080001D03*
X176712993Y-197160001D03*
X176312993Y-194080001D03*
X176312993Y-197160001D03*
X175912993Y-194080001D03*
X175912993Y-197160001D03*
X175512993Y-194080001D03*
X175512993Y-197160001D03*
X175112993Y-194080001D03*
X175112993Y-197160001D03*
X174712993Y-194080001D03*
X174712993Y-197160001D03*
X174312993Y-194080001D03*
X174312993Y-197160001D03*
X173912993Y-194080001D03*
X173912993Y-197160001D03*
X173512993Y-194080001D03*
X173512993Y-197160001D03*
X173112993Y-194080001D03*
X173112993Y-197160001D03*
X172712993Y-194080001D03*
X172712993Y-197160001D03*
X172312993Y-194080001D03*
X172312993Y-197160001D03*
X171912993Y-194080001D03*
X171912993Y-197160001D03*
X171512993Y-194080001D03*
X171512993Y-197160001D03*
X171112993Y-194080001D03*
X171112993Y-197160001D03*
X170712993Y-194080001D03*
X170712993Y-197160001D03*
X170312993Y-194080001D03*
X170312993Y-197160001D03*
X169912993Y-194080001D03*
X169912993Y-197160001D03*
X169512993Y-194080001D03*
X169512993Y-197160001D03*
X169112993Y-194080001D03*
X169112993Y-197160001D03*
X168712993Y-194080001D03*
X168712993Y-197160001D03*
X168312993Y-194080001D03*
X168312993Y-197160001D03*
X167912993Y-194080001D03*
X167912993Y-197160001D03*
X167512993Y-194080001D03*
X167512993Y-197160001D03*
X167112993Y-194080001D03*
X167112993Y-197160001D03*
X166712993Y-194080001D03*
X166712993Y-197160001D03*
X166312993Y-194080001D03*
X166312993Y-197160001D03*
X165912993Y-194080001D03*
X165912993Y-197160001D03*
X165512993Y-194080001D03*
X165512993Y-197160001D03*
X165112993Y-194080001D03*
X165112993Y-197160001D03*
X164712993Y-194080001D03*
X164712993Y-197160001D03*
X164312993Y-194080001D03*
X164312993Y-197160001D03*
X163912993Y-194080001D03*
X163912993Y-197160001D03*
X163512993Y-194080001D03*
X163512993Y-197160001D03*
X163112993Y-194080001D03*
X163112993Y-197160001D03*
X162712993Y-194080001D03*
X162712993Y-197160001D03*
X162312993Y-194080001D03*
X162312993Y-197160001D03*
X161912993Y-194080001D03*
X161912993Y-197160001D03*
X161512993Y-194080001D03*
X161512993Y-197160001D03*
X161112993Y-194080001D03*
X161112993Y-197160001D03*
X160712993Y-194080001D03*
X160712993Y-197160001D03*
X160312993Y-194080001D03*
X160312993Y-197160001D03*
X159912993Y-194080001D03*
X159912993Y-197160001D03*
X159512993Y-194080001D03*
X159512993Y-197160001D03*
X159112993Y-194080001D03*
X159112993Y-197160001D03*
X158712993Y-194080001D03*
X158712993Y-197160001D03*
X158312993Y-194080001D03*
X158312993Y-197160001D03*
X157912993Y-194080001D03*
X157912993Y-197160001D03*
X157512993Y-194080001D03*
X157512993Y-197160001D03*
%TD*%
D17*
%TO.C,R40*%
X202235000Y-157560000D03*
X200585000Y-157560000D03*
%TD*%
D10*
%TO.C,R53*%
X138595000Y-165420000D03*
X140245000Y-165420000D03*
%TD*%
%TO.C,R30*%
X132575000Y-183100000D03*
X134225000Y-183100000D03*
%TD*%
D11*
%TO.C,C4*%
X131875000Y-196670000D03*
X133425000Y-196670000D03*
%TD*%
D13*
%TO.C,TP1*%
X126760000Y-198620000D03*
%TD*%
D47*
%TO.C,J4*%
X194320000Y-124225000D03*
X199320000Y-124225000D03*
%TD*%
D48*
%TO.C,J6*%
X133240000Y-190950000D03*
X120540000Y-190950000D03*
%TD*%
D47*
%TO.C,J3*%
X156785098Y-191735000D03*
X161785098Y-191735000D03*
%TD*%
D49*
%TO.C,J2*%
X174371098Y-195703250D03*
X183371098Y-195703250D03*
%TD*%
D50*
%TO.C,J5*%
X146135098Y-195317500D03*
X140355098Y-195317500D03*
D51*
X138925098Y-198997500D03*
D52*
X147565098Y-194817500D03*
X138925098Y-194817500D03*
D51*
X147565098Y-198997500D03*
%TD*%
M02*
