%TF.GenerationSoftware,KiCad,Pcbnew,(6.0.1-0)*%
%TF.CreationDate,2022-04-09T17:35:34-06:00*%
%TF.ProjectId,HAT_CM4_183,4841545f-434d-4345-9f31-38332e6b6963,1.8.3*%
%TF.SameCoordinates,Original*%
%TF.FileFunction,Copper,L3,Inr*%
%TF.FilePolarity,Positive*%
%FSLAX46Y46*%
G04 Gerber Fmt 4.6, Leading zero omitted, Abs format (unit mm)*
G04 Created by KiCad (PCBNEW (6.0.1-0)) date 2022-04-09 17:35:34*
%MOMM*%
%LPD*%
G01*
G04 APERTURE LIST*
G04 Aperture macros list*
%AMRoundRect*
0 Rectangle with rounded corners*
0 $1 Rounding radius*
0 $2 $3 $4 $5 $6 $7 $8 $9 X,Y pos of 4 corners*
0 Add a 4 corners polygon primitive as box body*
4,1,4,$2,$3,$4,$5,$6,$7,$8,$9,$2,$3,0*
0 Add four circle primitives for the rounded corners*
1,1,$1+$1,$2,$3*
1,1,$1+$1,$4,$5*
1,1,$1+$1,$6,$7*
1,1,$1+$1,$8,$9*
0 Add four rect primitives between the rounded corners*
20,1,$1+$1,$2,$3,$4,$5,0*
20,1,$1+$1,$4,$5,$6,$7,0*
20,1,$1+$1,$6,$7,$8,$9,0*
20,1,$1+$1,$8,$9,$2,$3,0*%
G04 Aperture macros list end*
%TA.AperFunction,ComponentPad*%
%ADD10C,1.500000*%
%TD*%
%TA.AperFunction,ComponentPad*%
%ADD11RoundRect,0.500000X-2.300000X-0.250000X2.300000X-0.250000X2.300000X0.250000X-2.300000X0.250000X0*%
%TD*%
%TA.AperFunction,ComponentPad*%
%ADD12R,2.000000X2.000000*%
%TD*%
%TA.AperFunction,ComponentPad*%
%ADD13C,0.508000*%
%TD*%
%TA.AperFunction,ComponentPad*%
%ADD14R,1.700000X1.700000*%
%TD*%
%TA.AperFunction,ComponentPad*%
%ADD15O,1.700000X1.700000*%
%TD*%
%TA.AperFunction,ComponentPad*%
%ADD16O,1.000000X1.800000*%
%TD*%
%TA.AperFunction,ComponentPad*%
%ADD17O,1.000000X2.100000*%
%TD*%
%TA.AperFunction,ViaPad*%
%ADD18C,0.500000*%
%TD*%
%TA.AperFunction,Conductor*%
%ADD19C,0.195580*%
%TD*%
%TA.AperFunction,Conductor*%
%ADD20C,0.241300*%
%TD*%
%TA.AperFunction,Conductor*%
%ADD21C,1.016000*%
%TD*%
%TA.AperFunction,Conductor*%
%ADD22C,0.177800*%
%TD*%
%TA.AperFunction,Conductor*%
%ADD23C,2.032000*%
%TD*%
%TA.AperFunction,Conductor*%
%ADD24C,2.540000*%
%TD*%
%TA.AperFunction,Conductor*%
%ADD25C,0.254000*%
%TD*%
%TA.AperFunction,Conductor*%
%ADD26C,0.203200*%
%TD*%
G04 APERTURE END LIST*
D10*
%TO.N,+5V*%
%TO.C,TP6*%
X101570000Y-172020000D03*
%TD*%
D11*
%TO.N,/Batteries/BT4-*%
%TO.C,BTM4*%
X175960000Y-156810000D03*
%TD*%
%TO.N,/Batteries/BT1-*%
%TO.C,BTM1*%
X116020000Y-156810000D03*
%TD*%
%TO.N,/Batteries/BT2-*%
%TO.C,BTM2*%
X135890000Y-156810000D03*
%TD*%
D10*
%TO.N,/Power/IPS_SW*%
%TO.C,TP5*%
X101380000Y-190590000D03*
%TD*%
%TO.N,PWR_GND*%
%TO.C,TP2*%
X101540000Y-175190000D03*
%TD*%
%TO.N,/Battery/BATT+*%
%TO.C,TP3*%
X101410000Y-157440000D03*
%TD*%
D12*
%TO.N,/Battery/BATT+*%
%TO.C,BTP1*%
X101980000Y-168990000D03*
%TD*%
D13*
%TO.N,PWR_GND*%
%TO.C,U3*%
X125385000Y-192945000D03*
X126535000Y-191820000D03*
X127610000Y-192945000D03*
X125410000Y-190720000D03*
X125435000Y-191820000D03*
X127635000Y-190720000D03*
X127685000Y-191820000D03*
X126510000Y-190720000D03*
X126510000Y-192970000D03*
%TD*%
D11*
%TO.N,/Batteries/BT3-*%
%TO.C,BTM3*%
X156100000Y-156810000D03*
%TD*%
D10*
%TO.N,/Charger/IPS_OUT*%
%TO.C,TP4*%
X129340000Y-198630000D03*
%TD*%
D14*
%TO.N,GND*%
%TO.C,P1*%
X202320000Y-135380000D03*
D15*
%TO.N,+3.3v*%
X202320000Y-137920000D03*
%TO.N,/Battery/I2C_SCL*%
X202320000Y-140460000D03*
%TO.N,/Battery/I2C_SDA*%
X202320000Y-143000000D03*
%TD*%
D10*
%TO.N,/AC_IN*%
%TO.C,TP1*%
X126760000Y-198620000D03*
%TD*%
D16*
%TO.N,GND*%
%TO.C,J5*%
X138925098Y-198997500D03*
D17*
X147565098Y-194817500D03*
X138925098Y-194817500D03*
D16*
X147565098Y-198997500D03*
%TD*%
D18*
%TO.N,/USB Hub/HD2_N*%
X131485753Y-179184940D03*
%TO.N,/Battery/BATT+*%
X143770000Y-171036960D03*
X109650000Y-167040000D03*
X190251600Y-164890000D03*
X130900000Y-183520000D03*
X178280000Y-178990000D03*
X177890000Y-175220000D03*
X162560000Y-171031600D03*
X129850000Y-186780000D03*
X112430000Y-185740000D03*
X129390000Y-186298400D03*
X164099363Y-166009980D03*
X184086811Y-169850000D03*
X141900000Y-165470000D03*
X110440000Y-168990000D03*
X110905000Y-159545000D03*
X189830000Y-169330000D03*
X111350000Y-185740000D03*
X177680000Y-170970000D03*
X178380000Y-182190000D03*
X110590000Y-185690000D03*
%TO.N,/Batteries/BT1-*%
X178320000Y-182980000D03*
X177190000Y-172249850D03*
X116050000Y-171668490D03*
X116050000Y-165870000D03*
%TO.N,/Batteries/BT2-*%
X140710000Y-164340000D03*
X140730000Y-163700000D03*
%TO.N,/Batteries/BT3-*%
X160160000Y-164410000D03*
X157121753Y-162503989D03*
X159870000Y-164830000D03*
%TO.N,PWR_GND*%
X119990494Y-160570494D03*
X111055000Y-193005000D03*
X101856500Y-183480000D03*
X135300000Y-182190000D03*
X101856500Y-184720000D03*
X119520000Y-181980000D03*
X183173189Y-181630000D03*
X116870000Y-168490000D03*
X109740000Y-191690000D03*
X195830000Y-180990000D03*
X182980000Y-177440000D03*
X111760000Y-182320000D03*
X156490000Y-167789850D03*
X111890000Y-183400000D03*
X180130000Y-163980000D03*
X111740000Y-181420000D03*
X195668920Y-155940000D03*
X111740000Y-180350000D03*
X101856500Y-185990000D03*
X122379506Y-160570494D03*
X121430000Y-193790000D03*
X101770000Y-182140000D03*
X169250000Y-181510000D03*
X120719506Y-160570494D03*
X110780000Y-189490000D03*
X110160000Y-183470000D03*
X110375000Y-192325000D03*
X109925000Y-187535000D03*
X182448400Y-169130000D03*
X110430000Y-188040000D03*
X169143250Y-172766649D03*
X133020000Y-185910000D03*
X121519506Y-160570494D03*
X119110000Y-181550000D03*
X120820000Y-163670000D03*
X182980000Y-172090000D03*
X169160000Y-178261600D03*
X103950000Y-190460000D03*
X120820000Y-164340000D03*
X182448400Y-167430000D03*
X156650000Y-183390000D03*
X135300000Y-182970000D03*
X121650000Y-187710000D03*
%TO.N,/Charger/IPS_OUT*%
X186505500Y-157070000D03*
X127290000Y-195900000D03*
X124330000Y-196010000D03*
X119460000Y-193330000D03*
X125153500Y-186660000D03*
X118060000Y-188350000D03*
X130435417Y-188955417D03*
X118070000Y-186900000D03*
X127750078Y-187845076D03*
X184715944Y-186155944D03*
X130530000Y-196670000D03*
X118070000Y-187620000D03*
%TO.N,GND*%
X201110000Y-135700000D03*
X136065000Y-164205000D03*
X158196666Y-194871313D03*
X193690000Y-143170000D03*
X200744280Y-144780000D03*
X172970000Y-167342189D03*
X138190000Y-184558920D03*
X130370000Y-174900000D03*
X118075000Y-196905000D03*
X146162577Y-171942577D03*
X165630000Y-195060000D03*
X200380000Y-130540000D03*
X202070000Y-169410000D03*
X182510000Y-191520000D03*
X204030000Y-129230000D03*
X152550000Y-176510000D03*
X166710000Y-158630000D03*
X192590000Y-132500000D03*
X141320000Y-177910000D03*
X146230000Y-177680000D03*
X177980000Y-187750000D03*
X179470000Y-187600000D03*
X187070000Y-193450000D03*
X192240000Y-150860000D03*
X141450000Y-175980000D03*
X141230000Y-165450000D03*
X141231600Y-181790000D03*
X162996170Y-164070000D03*
X138080000Y-192150000D03*
X119460000Y-198290000D03*
X128040000Y-196390000D03*
X172300000Y-195490000D03*
X167111418Y-162598582D03*
X198940000Y-143150000D03*
X175910000Y-195150000D03*
X135840000Y-195950000D03*
X157930000Y-197900000D03*
X160230000Y-192730000D03*
X174980000Y-191760000D03*
X202170000Y-184370000D03*
X170960000Y-195350000D03*
X161020000Y-183400000D03*
X121850000Y-170040000D03*
X172350000Y-158540000D03*
X156660000Y-165620000D03*
X194070000Y-134860000D03*
X133870000Y-198810000D03*
X137739505Y-177598815D03*
X177110000Y-159167111D03*
X162710000Y-172791600D03*
X128734663Y-165490118D03*
X188090000Y-192110000D03*
X141900000Y-162660000D03*
X135320000Y-176280000D03*
X188790000Y-128850000D03*
X137730000Y-174630150D03*
X154370000Y-187680000D03*
X118800000Y-197630000D03*
X192620000Y-151240000D03*
X164340000Y-187680000D03*
X199810000Y-114570000D03*
%TO.N,Net-(C7-Pad2)*%
X126915127Y-186912584D03*
X130676566Y-187434378D03*
%TO.N,/Power/IPS_SW*%
X110950000Y-171970000D03*
X121690000Y-181330000D03*
%TO.N,+5V*%
X185310000Y-192010000D03*
X198130000Y-157018400D03*
X186540000Y-168480000D03*
X116900000Y-175180000D03*
X198390000Y-132640000D03*
X198120000Y-168478400D03*
X110400000Y-176270000D03*
X141750011Y-186500000D03*
%TO.N,+3.3v*%
X136930000Y-166980000D03*
X160993209Y-179280000D03*
X139394831Y-167054831D03*
X128118400Y-167493040D03*
X160993209Y-178580000D03*
X197198400Y-136640000D03*
X204470000Y-151120000D03*
X204470000Y-162410000D03*
X204470000Y-157500000D03*
X204470000Y-148840000D03*
X192810000Y-136250000D03*
X158870000Y-167460000D03*
X134480000Y-166940000D03*
X204470000Y-146440000D03*
%TO.N,/CM4_GPIO/GPIO_IRQ*%
X141610000Y-183660000D03*
X149570000Y-183240000D03*
X149590000Y-162870000D03*
%TO.N,/CM4_GPIO/SD_PWR*%
X200400000Y-134170000D03*
X194300000Y-134180000D03*
%TO.N,/CM4_HighSpeed/HDMI_5v*%
X183466548Y-187720000D03*
%TO.N,/USB Hub/VBUS*%
X142440000Y-184370000D03*
X199090000Y-147260000D03*
X199030000Y-181020000D03*
X164770000Y-184500000D03*
X194330000Y-130570000D03*
%TO.N,/AC_IN*%
X145590000Y-186651600D03*
X145610000Y-192260000D03*
X146235098Y-196874902D03*
X130850000Y-190630000D03*
X192420000Y-171160000D03*
X140880000Y-193090000D03*
X191630000Y-183350000D03*
%TO.N,/Battery/5V_OVR*%
X193840000Y-187440000D03*
X118160000Y-178090000D03*
X185253189Y-176304288D03*
X118970000Y-186350000D03*
X185253189Y-171570000D03*
X193840000Y-175880000D03*
%TO.N,/CM4_GPIO/GPIO_PB1*%
X160161600Y-176060000D03*
X198140000Y-174660000D03*
%TO.N,/Battery/PB_IN*%
X123980000Y-187460000D03*
X202960000Y-172820000D03*
X125319502Y-182620500D03*
X184720000Y-188400000D03*
X183440000Y-185250000D03*
X203290000Y-179740000D03*
%TO.N,/CM4_GPIO/SD_DAT1*%
X201920000Y-117150000D03*
X163806787Y-158619189D03*
%TO.N,/CM4_GPIO/SD_DAT0*%
X164300000Y-157430000D03*
X200850000Y-117290000D03*
%TO.N,/CM4_GPIO/SD_CLK*%
X165662982Y-158040000D03*
X200309793Y-116881448D03*
%TO.N,/CM4_GPIO/SD_CMD*%
X200220000Y-119141800D03*
X164951532Y-162503989D03*
%TO.N,/CM4_GPIO/SD_DAT3*%
X198510000Y-117711100D03*
X164930000Y-156936200D03*
%TO.N,/CM4_GPIO/SD_DAT2*%
X162960000Y-157830000D03*
X191950459Y-123388989D03*
%TO.N,/CM4_HighSpeed/HDMI0_HOTPLUG*%
X164780000Y-191240000D03*
X185100000Y-195480000D03*
%TO.N,/CM4_HighSpeed/HDMI0_SDA*%
X181990000Y-192070000D03*
X158725000Y-192045000D03*
X160055000Y-190715000D03*
%TO.N,/CM4_HighSpeed/HDMI0_SCL*%
X181530000Y-194570000D03*
X157470000Y-195260000D03*
%TO.N,/CM4_HighSpeed/HDMI0_CEC*%
X183370000Y-198390000D03*
X165611400Y-196010000D03*
%TO.N,/CM4_HighSpeed/HDMI0_CK_N*%
X159151700Y-198175558D03*
X179107394Y-195863161D03*
%TO.N,/CM4_HighSpeed/HDMI0_CK_P*%
X159796793Y-198410000D03*
X179160000Y-195167789D03*
%TO.N,/CM4_HighSpeed/HDMI0_D0_N*%
X178929230Y-198779125D03*
X160678013Y-199128900D03*
%TO.N,/CM4_HighSpeed/HDMI0_D0_P*%
X178780000Y-199439988D03*
X161353443Y-199201448D03*
%TO.N,/CM4_HighSpeed/HDMI0_D1_N*%
X158630000Y-195993800D03*
X177334645Y-195614877D03*
%TO.N,/CM4_HighSpeed/HDMI0_D1_P*%
X176805745Y-195172045D03*
X158810782Y-195341070D03*
%TO.N,/CM4_HighSpeed/HDMI0_D2_N*%
X160100000Y-195220000D03*
X175370000Y-187456200D03*
%TO.N,/CM4_HighSpeed/HDMI0_D2_P*%
X174698541Y-187544982D03*
X160726078Y-194865460D03*
%TO.N,/USB Hub/HD4_N*%
X159900000Y-189690000D03*
X128640000Y-174622557D03*
X158990000Y-178330000D03*
%TO.N,/USB Hub/HD4_P*%
X158719457Y-178962711D03*
X128460903Y-175319096D03*
X159282402Y-189985207D03*
%TO.N,/USB Hub/HD3_N*%
X124980000Y-175110000D03*
X196912472Y-172775352D03*
%TO.N,/USB Hub/HD3_P*%
X197440000Y-173230000D03*
X125172795Y-175917205D03*
%TO.N,/CM4_GPIO/GPIO6*%
X170830000Y-164330767D03*
X189820000Y-164220000D03*
%TO.N,/CM4_GPIO/TRD1_P*%
X177050000Y-167670000D03*
X127135090Y-169246791D03*
X127556611Y-175900000D03*
%TO.N,/CM4_GPIO/TRD1_N*%
X129043046Y-175970441D03*
X127734897Y-169561386D03*
X176291295Y-168201295D03*
%TO.N,/CM4_GPIO/TRD0_N*%
X174352644Y-167581093D03*
X124210000Y-175500000D03*
X126077389Y-169004474D03*
%TO.N,/CM4_GPIO/TRD0_P*%
X173700000Y-167400000D03*
X125655009Y-168475009D03*
X123534943Y-175555107D03*
%TO.N,/CM4_GPIO/PI_nLED_Activity*%
X175680000Y-158391500D03*
X202250000Y-160980000D03*
X177710000Y-168260000D03*
X201361820Y-168100000D03*
%TO.N,/Battery/BT1_PRES*%
X111680000Y-170620000D03*
X182330000Y-183120000D03*
X111640000Y-161220000D03*
X182420000Y-171550000D03*
X191760000Y-175130000D03*
X192410000Y-170420000D03*
%TO.N,/Battery/{slash}BT2_ENA*%
X184110000Y-179825720D03*
X184130000Y-176380000D03*
%TO.N,/Battery/BT2_PRES*%
X147180000Y-177660000D03*
X192870000Y-178898400D03*
X147120000Y-164660000D03*
X182600000Y-178990000D03*
%TO.N,/CM4_GPIO/GPIO_PB2*%
X160660000Y-177140000D03*
X202220000Y-177720000D03*
%TO.N,/CM4_GPIO/SD_PWR_ON*%
X191498900Y-138660000D03*
X162350000Y-157410000D03*
X198630000Y-138700000D03*
%TO.N,/Battery/{slash}BT3_ENA*%
X196360000Y-175170000D03*
X196360000Y-180238400D03*
%TO.N,/Battery/BT3_PRES*%
X171330000Y-173030000D03*
X168210000Y-165740000D03*
%TO.N,/USB Hub/nEXTRST*%
X137580000Y-166010000D03*
X154421589Y-164330000D03*
%TO.N,/CM4_HighSpeed/USB2_N*%
X171760000Y-168020000D03*
X133412423Y-167897577D03*
X176060000Y-192440000D03*
%TO.N,/CM4_HighSpeed/USB2_P*%
X175899341Y-193107169D03*
X134081600Y-168390000D03*
X171780000Y-168701109D03*
%TO.N,Net-(Q2-Pad3)*%
X167460000Y-183630000D03*
X120690000Y-165200000D03*
X121513771Y-179856229D03*
%TO.N,Net-(Q3-Pad3)*%
X169770000Y-182130000D03*
X110130000Y-164850000D03*
X111923376Y-171286624D03*
X169680000Y-173149850D03*
%TO.N,Net-(Q6-Pad3)*%
X127110000Y-179835720D03*
X125650000Y-157470000D03*
X167257577Y-182287577D03*
X127620000Y-164850000D03*
%TO.N,Net-(Q7-Pad3)*%
X145380000Y-181190000D03*
X171426630Y-178070000D03*
X145369989Y-165800000D03*
%TO.N,Net-(Q10-Pad3)*%
X144882684Y-164496666D03*
X167170000Y-175010000D03*
X143699056Y-175409056D03*
X144890000Y-157360000D03*
X151280000Y-165630000D03*
%TO.N,Net-(Q11-Pad3)*%
X170450000Y-172760000D03*
X168770000Y-166300000D03*
%TO.N,Net-(Q14-Pad3)*%
X181508219Y-163993447D03*
X165990000Y-157240000D03*
X167030000Y-170900000D03*
X182080000Y-170300000D03*
%TO.N,Net-(Q15-Pad3)*%
X191630000Y-162770000D03*
X183090000Y-169760000D03*
X182970000Y-163993447D03*
X192380000Y-169680000D03*
%TO.N,/Battery/{slash}BT4_ENA*%
X189930000Y-182146500D03*
X188630000Y-169584280D03*
%TO.N,/Battery/BT4_PRES*%
X195020000Y-177470000D03*
X189460000Y-162861600D03*
X189310000Y-170930000D03*
X195040000Y-172240000D03*
%TO.N,/Battery/MOSI*%
X188507577Y-183157577D03*
X168712993Y-164507007D03*
X187970000Y-165140000D03*
%TO.N,/Battery/MISO*%
X187728060Y-183234434D03*
X187350000Y-165370000D03*
X169240000Y-165005407D03*
%TO.N,/Battery/SCL*%
X169790000Y-165488400D03*
X184030000Y-183630000D03*
X183894280Y-165503807D03*
%TO.N,/Battery/I2C_SDA*%
X200320000Y-148950000D03*
X189260000Y-180235869D03*
X157940000Y-181958400D03*
X122840000Y-188930000D03*
X122470000Y-179270000D03*
X200990000Y-178710000D03*
X161070000Y-166228400D03*
%TO.N,/Battery/I2C_SCL*%
X157040000Y-181400000D03*
X161820000Y-165960000D03*
X122700498Y-189700000D03*
X199820000Y-151240000D03*
X189700000Y-178400000D03*
X200681600Y-178110000D03*
X123300000Y-178830000D03*
%TO.N,/Battery/{slash}RESET*%
X166080000Y-175768389D03*
%TO.N,/USB Hub/nOCS1*%
X193880000Y-136990000D03*
X134500000Y-176300000D03*
X196189989Y-173710000D03*
%TO.N,/USB Hub/PWR1*%
X133080000Y-176870000D03*
X194343500Y-139220000D03*
X194160000Y-160340000D03*
X195620000Y-174090000D03*
%TO.N,/USB Hub/HD2_N*%
X129099189Y-170810796D03*
X162750000Y-179900000D03*
X162750000Y-175780000D03*
%TO.N,/USB Hub/HD2_P*%
X163430000Y-175768400D03*
X129085941Y-171528847D03*
X163300000Y-180320000D03*
X130780000Y-179280000D03*
%TO.N,Net-(R1-Pad1)*%
X197920000Y-176530000D03*
X186250000Y-176530000D03*
X197940000Y-178904280D03*
%TO.N,/CM4_GPIO/ETH_LEDY*%
X143920000Y-192380000D03*
X173191050Y-188465637D03*
X174957423Y-158832577D03*
X143910000Y-199080000D03*
%TO.N,/CM4_GPIO/ETH_LEDG*%
X143290000Y-192170000D03*
X174128400Y-158708400D03*
X143421600Y-198575686D03*
X172930000Y-187860000D03*
X116620000Y-198180000D03*
%TO.N,/Battery/PWR_IRQ*%
X183130000Y-182950000D03*
X192960000Y-183750000D03*
X141200000Y-182680000D03*
%TO.N,/Battery/AXP_EXTEN*%
X190050000Y-172249850D03*
X171426630Y-181120000D03*
X171419498Y-192650000D03*
X190260000Y-180720000D03*
X126790000Y-196670000D03*
%TO.N,/Battery/HEARTBEAT*%
X188220000Y-189510000D03*
X187430000Y-179650000D03*
%TO.N,Net-(R40-Pad2)*%
X201650000Y-156520000D03*
X192651467Y-156829702D03*
%TO.N,/USB Hub/HD1_N*%
X128086932Y-170140014D03*
%TO.N,/USB Hub/HD1_P*%
X128360000Y-170780000D03*
%TO.N,Net-(LED1-Pad1)*%
X152820000Y-158050000D03*
X174870366Y-168017788D03*
X112740000Y-158050000D03*
X132930000Y-158050000D03*
X171620000Y-156420000D03*
%TO.N,Net-(LED11-Pad2)*%
X130700000Y-198068389D03*
X136970000Y-195810000D03*
%TO.N,Net-(C18-Pad1)*%
X103300000Y-177630000D03*
X105580000Y-174320000D03*
%TO.N,Net-(LED5-Pad1)*%
X192436500Y-155890000D03*
X190750000Y-182830000D03*
X129557423Y-188647423D03*
%TO.N,Net-(R54-Pad2)*%
X127121600Y-167280000D03*
X133080000Y-165640000D03*
%TO.N,Net-(R47-Pad1)*%
X141530000Y-190600000D03*
X193270000Y-188870000D03*
%TD*%
D19*
%TO.N,/CM4_GPIO/TRD1_P*%
X177050000Y-167670000D02*
X176080000Y-167670000D01*
X129507279Y-169971999D02*
X128557229Y-169021949D01*
X176080000Y-167670000D02*
X173778001Y-169971999D01*
X173778001Y-169971999D02*
X129507279Y-169971999D01*
X127359932Y-169021949D02*
X127135090Y-169246791D01*
X128557229Y-169021949D02*
X127359932Y-169021949D01*
D20*
%TO.N,/USB Hub/HD2_P*%
X163300000Y-180320000D02*
X163149070Y-180470930D01*
X163149070Y-180470930D02*
X131970930Y-180470930D01*
X131970930Y-180470930D02*
X130780000Y-179280000D01*
%TO.N,/USB Hub/HD2_N*%
X162572290Y-180077710D02*
X132133808Y-180077710D01*
X162750000Y-179900000D02*
X162572290Y-180077710D01*
X132133808Y-180077710D02*
X131485753Y-179429655D01*
X131485753Y-179429655D02*
X131485753Y-179184940D01*
%TO.N,/CM4_HighSpeed/USB2_N*%
X136611830Y-168320000D02*
X171290000Y-168320000D01*
X133541830Y-167768170D02*
X136060000Y-167768170D01*
X133412423Y-167897577D02*
X133541830Y-167768170D01*
X136060000Y-167768170D02*
X136611830Y-168320000D01*
X171590000Y-168020000D02*
X171760000Y-168020000D01*
X171290000Y-168320000D02*
X171590000Y-168020000D01*
D21*
%TO.N,+3.3v*%
X200362489Y-166557511D02*
X186647511Y-166557511D01*
X186514689Y-166424689D02*
X170025311Y-166424689D01*
X186647511Y-166557511D02*
X186514689Y-166424689D01*
X168950000Y-167500000D02*
X158910000Y-167500000D01*
X170025311Y-166424689D02*
X168950000Y-167500000D01*
X158282339Y-166872339D02*
X158910000Y-167500000D01*
D19*
%TO.N,/CM4_GPIO/TRD0_P*%
X125655009Y-168475009D02*
X125853869Y-168276149D01*
X125853869Y-168276149D02*
X128866149Y-168276149D01*
X128866149Y-168276149D02*
X129816199Y-169226199D01*
X172646441Y-169226199D02*
X173700000Y-168172640D01*
X129816199Y-169226199D02*
X172646441Y-169226199D01*
X173700000Y-168172640D02*
X173700000Y-167400000D01*
%TO.N,/CM4_GPIO/TRD0_N*%
X126077389Y-169004474D02*
X126432814Y-168649049D01*
X172800901Y-169599099D02*
X174345265Y-168054735D01*
X174345265Y-167588472D02*
X174352644Y-167581093D01*
X126432814Y-168649049D02*
X128711689Y-168649049D01*
X128711689Y-168649049D02*
X129661739Y-169599099D01*
X129661739Y-169599099D02*
X172800901Y-169599099D01*
X174345265Y-168054735D02*
X174345265Y-167588472D01*
D22*
%TO.N,/Battery/BATT+*%
X143883040Y-171150000D02*
X143770000Y-171036960D01*
X130296486Y-172275360D02*
X142531600Y-172275360D01*
X177680000Y-170970000D02*
X176164356Y-170970000D01*
X184086811Y-169850000D02*
X182936811Y-171000000D01*
X162518920Y-171072680D02*
X147260278Y-171072680D01*
D23*
X129599995Y-184820001D02*
X129599995Y-186500008D01*
D22*
X176164356Y-170970000D02*
X175728996Y-171405360D01*
X182936811Y-171000000D02*
X177710000Y-171000000D01*
D24*
X112440000Y-185690000D02*
X113830000Y-184300000D01*
D22*
X110460000Y-168970000D02*
X114533413Y-168970000D01*
X175728996Y-171405360D02*
X162933760Y-171405360D01*
X147182958Y-171150000D02*
X143883040Y-171150000D01*
X162560000Y-171031600D02*
X162518920Y-171072680D01*
X110440000Y-168990000D02*
X101980000Y-168990000D01*
X147260278Y-171072680D02*
X147182958Y-171150000D01*
X114533413Y-168970000D02*
X117671453Y-172108040D01*
D24*
X110590000Y-185690000D02*
X112440000Y-185690000D01*
D22*
X117671453Y-172108040D02*
X130129166Y-172108040D01*
X162933760Y-171405360D02*
X162560000Y-171031600D01*
D24*
X129080000Y-184300000D02*
X129600000Y-184820000D01*
D22*
X110440000Y-168990000D02*
X110460000Y-168970000D01*
X130129166Y-172108040D02*
X130296486Y-172275360D01*
X177710000Y-171000000D02*
X177680000Y-170970000D01*
D23*
X129599995Y-184820001D02*
X130899992Y-183520004D01*
D24*
X113830000Y-184300000D02*
X129080000Y-184300000D01*
D22*
X142531600Y-172275360D02*
X143770000Y-171036960D01*
%TO.N,/Batteries/BT1-*%
X147207042Y-172080000D02*
X146337043Y-172949999D01*
X177020150Y-172080000D02*
X147207042Y-172080000D01*
X117164190Y-172782680D02*
X116050000Y-171668490D01*
X129849722Y-172782680D02*
X117164190Y-172782680D01*
X130017042Y-172950000D02*
X129849722Y-172782680D01*
X177190000Y-172249850D02*
X177020150Y-172080000D01*
X146337043Y-172949999D02*
X130017042Y-172950000D01*
D25*
%TO.N,PWR_GND*%
X195210000Y-181610000D02*
X183193189Y-181610000D01*
X183193189Y-181610000D02*
X183173189Y-181630000D01*
X195830000Y-180990000D02*
X195210000Y-181610000D01*
D22*
%TO.N,/Charger/IPS_OUT*%
X130435417Y-188955417D02*
X130940834Y-188450000D01*
X184141960Y-186591960D02*
X184577976Y-186155944D01*
X184577976Y-186155944D02*
X184715944Y-186155944D01*
X130940834Y-188450000D02*
X145710000Y-188450000D01*
X145710000Y-188450000D02*
X147568040Y-186591960D01*
X147568040Y-186591960D02*
X184141960Y-186591960D01*
%TO.N,+5V*%
X106510000Y-172380000D02*
X110400000Y-176270000D01*
X186540000Y-168480000D02*
X198118400Y-168480000D01*
X198118400Y-168480000D02*
X198120000Y-168478400D01*
X101930000Y-172380000D02*
X106510000Y-172380000D01*
D21*
%TO.N,+3.3v*%
X128681440Y-166930000D02*
X134470000Y-166930000D01*
X134470000Y-166930000D02*
X134480000Y-166940000D01*
X145889758Y-167054831D02*
X145898169Y-167046420D01*
X145898169Y-167046420D02*
X155935872Y-167046420D01*
X134520000Y-166980000D02*
X134480000Y-166940000D01*
X139394831Y-167054831D02*
X145889758Y-167054831D01*
X155935872Y-167046420D02*
X156109953Y-166872339D01*
X137004831Y-167054831D02*
X139394831Y-167054831D01*
X156109953Y-166872339D02*
X158282339Y-166872339D01*
X128118400Y-167493040D02*
X128681440Y-166930000D01*
X136930000Y-166980000D02*
X137004831Y-167054831D01*
X136930000Y-166980000D02*
X134520000Y-166980000D01*
X204470000Y-162410000D02*
X200250000Y-166630000D01*
D22*
%TO.N,/CM4_GPIO/GPIO_IRQ*%
X141610000Y-183660000D02*
X142050000Y-183220000D01*
X149550000Y-183220000D02*
X149570000Y-183240000D01*
X142050000Y-183220000D02*
X149550000Y-183220000D01*
D21*
%TO.N,/AC_IN*%
X140880000Y-193090000D02*
X144759990Y-196969990D01*
D22*
X190410000Y-184570000D02*
X191630000Y-183350000D01*
X183912402Y-186254640D02*
X185597042Y-184570000D01*
X185597042Y-184570000D02*
X190410000Y-184570000D01*
X145590000Y-186651600D02*
X145986960Y-186254640D01*
X145986960Y-186254640D02*
X183912402Y-186254640D01*
D21*
X144759990Y-196969990D02*
X146139992Y-196969990D01*
D22*
%TO.N,/Battery/5V_OVR*%
X159350000Y-179490000D02*
X132880000Y-179490000D01*
X132880000Y-179490000D02*
X131480000Y-178090000D01*
X193820000Y-175860000D02*
X185697477Y-175860000D01*
X193840000Y-175880000D02*
X193820000Y-175860000D01*
X171914280Y-177255720D02*
X161584280Y-177255720D01*
X161584280Y-177255720D02*
X159350000Y-179490000D01*
X184830490Y-175881589D02*
X173288411Y-175881589D01*
X173288411Y-175881589D02*
X171914280Y-177255720D01*
X185253189Y-176304288D02*
X184830490Y-175881589D01*
X185697477Y-175860000D02*
X185253189Y-176304288D01*
X131480000Y-178090000D02*
X118160000Y-178090000D01*
%TO.N,/CM4_GPIO/GPIO_PB1*%
X162966723Y-176291805D02*
X162991728Y-176266800D01*
X162991728Y-176266800D02*
X170875087Y-176266800D01*
X193736930Y-174216930D02*
X194180000Y-174660000D01*
X194180000Y-174660000D02*
X198140000Y-174660000D01*
X170875087Y-176266800D02*
X172924957Y-174216930D01*
X160161600Y-176060000D02*
X160393405Y-176291805D01*
X172924957Y-174216930D02*
X193736930Y-174216930D01*
X160393405Y-176291805D02*
X162966723Y-176291805D01*
%TO.N,/Battery/PB_IN*%
X188924640Y-183895360D02*
X190488411Y-182331589D01*
X125684417Y-182255585D02*
X132817546Y-182255585D01*
X183440000Y-185250000D02*
X184794640Y-183895360D01*
X132817546Y-182255585D02*
X136141961Y-185580000D01*
X190488411Y-182331589D02*
X200698411Y-182331589D01*
X184794640Y-183895360D02*
X188924640Y-183895360D01*
X136141961Y-185580000D02*
X183110000Y-185580000D01*
X200698411Y-182331589D02*
X203290000Y-179740000D01*
X183110000Y-185580000D02*
X183440000Y-185250000D01*
X125319502Y-182620500D02*
X125684417Y-182255585D01*
D19*
%TO.N,/CM4_GPIO/SD_DAT1*%
X201920000Y-117640000D02*
X201920000Y-117150000D01*
X190593290Y-132285730D02*
X191417749Y-131461271D01*
X190593290Y-158186506D02*
X190593290Y-132285730D01*
X188109796Y-160670000D02*
X190593290Y-158186506D01*
X188099021Y-160670000D02*
X188109796Y-160670000D01*
X200943290Y-118616710D02*
X201920000Y-117640000D01*
X195973290Y-118616710D02*
X200943290Y-118616710D01*
X187935260Y-160833761D02*
X188099021Y-160670000D01*
X166021359Y-160833761D02*
X187935260Y-160833761D01*
X191417749Y-131461271D02*
X191417749Y-123172251D01*
X163806787Y-158619189D02*
X166021359Y-160833761D01*
X191417749Y-123172251D02*
X195973290Y-118616710D01*
D26*
%TO.N,/CM4_GPIO/SD_DAT0*%
X190111040Y-132235232D02*
X191041039Y-131305233D01*
X164335698Y-157465698D02*
X164335698Y-158539568D01*
X164335698Y-158539568D02*
X166253181Y-160457051D01*
X164300000Y-157430000D02*
X164335698Y-157465698D01*
X191041039Y-131305233D02*
X191041039Y-122918961D01*
X190111039Y-158125233D02*
X190111040Y-132235232D01*
X191041039Y-122918961D02*
X195720000Y-118240000D01*
X199900000Y-118240000D02*
X200850000Y-117290000D01*
X187779222Y-160457050D02*
X190111039Y-158125233D01*
X166253181Y-160457050D02*
X187779222Y-160457051D01*
X195720000Y-118240000D02*
X199900000Y-118240000D01*
%TO.N,/CM4_GPIO/SD_CLK*%
X189349999Y-131900001D02*
X189349999Y-157810001D01*
X192825189Y-119512910D02*
X192864940Y-119469081D01*
X193694999Y-118049266D02*
X193977842Y-118332109D01*
X190630000Y-121680000D02*
X190279999Y-122030001D01*
X194180000Y-117140000D02*
X193695000Y-117625000D01*
X165662982Y-158790580D02*
X165662982Y-158040000D01*
D19*
X190630000Y-121680000D02*
X190654021Y-121680000D01*
D26*
X192864940Y-119469081D02*
X192910174Y-119359878D01*
X192846471Y-118473530D02*
X192740405Y-118579595D01*
X192781360Y-119552661D02*
X192825189Y-119512910D01*
X192846472Y-118473531D02*
X192846471Y-118473530D01*
X192910174Y-119359878D02*
X192910174Y-119241678D01*
X193553578Y-118756373D02*
X193270736Y-118473531D01*
X200051241Y-117140000D02*
X194180000Y-117140000D01*
X200309793Y-116881448D02*
X200051241Y-117140000D01*
X189349999Y-157810001D02*
X187463989Y-159696011D01*
X190279999Y-122030001D02*
X190279999Y-130970001D01*
X192864940Y-119132475D02*
X192825189Y-119088646D01*
D19*
X190654021Y-121680000D02*
X192781360Y-119552661D01*
D26*
X166568413Y-159696011D02*
X165662982Y-158790580D01*
X192910174Y-119241678D02*
X192864940Y-119132475D01*
X190279999Y-130970001D02*
X189349999Y-131900001D01*
X192825189Y-119088646D02*
X192740404Y-119003861D01*
X187463989Y-159696011D02*
X166568413Y-159696011D01*
X193553579Y-118756372D02*
G75*
G03*
X193977841Y-118756372I212131J212131D01*
G01*
X192846473Y-118473532D02*
G75*
G02*
X193270735Y-118473532I212131J-212131D01*
G01*
X193695001Y-118049265D02*
G75*
G02*
X193695001Y-117625001I212130J212132D01*
G01*
X193977841Y-118756372D02*
G75*
G03*
X193977841Y-118332110I-212131J212131D01*
G01*
X192740406Y-119003860D02*
G75*
G02*
X192740406Y-118579596I212130J212132D01*
G01*
D22*
%TO.N,/CM4_GPIO/SD_CMD*%
X191690000Y-158619762D02*
X191690000Y-140660000D01*
X192466670Y-131483330D02*
X192466670Y-122683330D01*
X191690000Y-140660000D02*
X191997311Y-140352689D01*
X188498987Y-161800000D02*
X188509762Y-161800000D01*
X164951532Y-162503989D02*
X165539910Y-161915611D01*
X165539910Y-161915611D02*
X188383376Y-161915611D01*
X191997311Y-131952689D02*
X192466670Y-131483330D01*
X192466670Y-122683330D02*
X196008200Y-119141800D01*
X196008200Y-119141800D02*
X200220000Y-119141800D01*
X188383376Y-161915611D02*
X188498987Y-161800000D01*
X188509762Y-161800000D02*
X191690000Y-158619762D01*
X191997311Y-140352689D02*
X191997311Y-131952689D01*
D26*
%TO.N,/CM4_GPIO/SD_DAT3*%
X166410797Y-160076531D02*
X187621605Y-160076530D01*
X164930000Y-158595734D02*
X166410797Y-160076531D01*
X198467800Y-117668900D02*
X195752964Y-117668900D01*
X190660519Y-131147617D02*
X189730520Y-132077616D01*
X189730519Y-157967617D02*
X187621605Y-160076531D01*
X189730520Y-132077616D02*
X189730519Y-157967617D01*
X190660520Y-122761344D02*
X190660519Y-131147617D01*
X198510000Y-117711100D02*
X198467800Y-117668900D01*
X195752964Y-117668900D02*
X190660520Y-122761344D01*
X164930000Y-156936200D02*
X164930000Y-158595734D01*
%TO.N,/CM4_GPIO/SD_DAT2*%
X162960000Y-158850000D02*
X165320471Y-161210471D01*
X188261769Y-161040000D02*
X188272544Y-161040000D01*
X165320471Y-161210471D02*
X188091298Y-161210471D01*
X162960000Y-157830000D02*
X162960000Y-158850000D01*
X191802079Y-131620465D02*
X191802079Y-123537369D01*
X188272544Y-161040000D02*
X190970000Y-158342544D01*
X188091298Y-161210471D02*
X188261769Y-161040000D01*
X190970000Y-158342544D02*
X190970000Y-132452544D01*
X191802079Y-123537369D02*
X191950459Y-123388989D01*
X190970000Y-132452544D02*
X191802079Y-131620465D01*
D19*
%TO.N,/CM4_HighSpeed/HDMI0_CK_N*%
X163041906Y-197870000D02*
X159457258Y-197870000D01*
X176820507Y-198150048D02*
X163321954Y-198150048D01*
X159457258Y-197870000D02*
X159151700Y-198175558D01*
X179107394Y-195863161D02*
X176820507Y-198150048D01*
X163321954Y-198150048D02*
X163041906Y-197870000D01*
%TO.N,/CM4_HighSpeed/HDMI0_CK_P*%
X179324982Y-196388462D02*
X179636305Y-196077139D01*
X163167410Y-198523148D02*
X176975051Y-198523148D01*
X162887362Y-198243100D02*
X163167410Y-198523148D01*
X176975051Y-198523148D02*
X179109737Y-196388462D01*
X179636305Y-196077139D02*
X179636305Y-195644094D01*
X159796793Y-198410000D02*
X159963693Y-198243100D01*
X179636305Y-195644094D02*
X179160000Y-195167789D01*
X179109737Y-196388462D02*
X179324982Y-196388462D01*
X159963693Y-198243100D02*
X162887362Y-198243100D01*
%TO.N,/CM4_HighSpeed/HDMI0_D0_N*%
X162726674Y-198631040D02*
X161175873Y-198631040D01*
X178797267Y-198911088D02*
X163006722Y-198911088D01*
X161175873Y-198631040D02*
X160678013Y-199128900D01*
X178929230Y-198779125D02*
X178797267Y-198911088D01*
X163006722Y-198911088D02*
X162726674Y-198631040D01*
%TO.N,/CM4_HighSpeed/HDMI0_D0_P*%
X162852180Y-199284188D02*
X162572132Y-199004140D01*
X161550751Y-199004140D02*
X161353443Y-199201448D01*
X178624200Y-199284188D02*
X162852180Y-199284188D01*
X178780000Y-199439988D02*
X178624200Y-199284188D01*
X162572132Y-199004140D02*
X161550751Y-199004140D01*
%TO.N,/CM4_HighSpeed/HDMI0_D1_N*%
X158850350Y-195993800D02*
X159389130Y-196532580D01*
X176485534Y-197762109D02*
X177334645Y-196912998D01*
X177334645Y-196912998D02*
X177334645Y-195614877D01*
X158630000Y-195993800D02*
X158850350Y-195993800D01*
X159389130Y-196532580D02*
X162253114Y-196532580D01*
X163482644Y-197762109D02*
X176485534Y-197762109D01*
X162253114Y-196532580D02*
X163482644Y-197762109D01*
%TO.N,/CM4_HighSpeed/HDMI0_D1_P*%
X158810782Y-195426588D02*
X159543674Y-196159480D01*
X176330991Y-197389009D02*
X176805745Y-196914255D01*
X163637187Y-197389009D02*
X176330991Y-197389009D01*
X176805745Y-196914255D02*
X176805745Y-195172045D01*
X159543674Y-196159480D02*
X162407658Y-196159480D01*
X158810782Y-195341070D02*
X158810782Y-195426588D01*
X162407658Y-196159480D02*
X163637187Y-197389009D01*
%TO.N,/CM4_HighSpeed/HDMI0_D2_N*%
X164162853Y-195621681D02*
X165411434Y-194373100D01*
X176545708Y-187456200D02*
X175370000Y-187456200D01*
X160100000Y-195220000D02*
X160501681Y-195621681D01*
X160501681Y-195621681D02*
X164162853Y-195621681D01*
X176466408Y-194373100D02*
X178102580Y-192736927D01*
X165411434Y-194373100D02*
X176466408Y-194373100D01*
X178102580Y-192736927D02*
X178102580Y-189013072D01*
X178102580Y-189013072D02*
X176545708Y-187456200D01*
%TO.N,/CM4_HighSpeed/HDMI0_D2_P*%
X175135060Y-187981501D02*
X174698541Y-187544982D01*
X175739789Y-187829300D02*
X175587588Y-187981501D01*
X176391164Y-187829300D02*
X175739789Y-187829300D01*
X177729480Y-192390520D02*
X177729480Y-189167616D01*
X176120000Y-194000000D02*
X177729480Y-192390520D01*
X161100098Y-195239480D02*
X164017410Y-195239480D01*
X164017410Y-195239480D02*
X165256890Y-194000000D01*
X160726078Y-194865460D02*
X161100098Y-195239480D01*
X177729480Y-189167616D02*
X176391164Y-187829300D01*
X165256890Y-194000000D02*
X176120000Y-194000000D01*
X175587588Y-187981501D02*
X175135060Y-187981501D01*
D20*
%TO.N,/USB Hub/HD4_N*%
X158370161Y-178330000D02*
X158990000Y-178330000D01*
X128640000Y-174622557D02*
X129342557Y-174622557D01*
X158260000Y-178440161D02*
X158370161Y-178330000D01*
X133160161Y-178440161D02*
X158260000Y-178440161D01*
X129342557Y-174622557D02*
X133160161Y-178440161D01*
%TO.N,/USB Hub/HD4_P*%
X129482998Y-175319096D02*
X132997283Y-178833381D01*
X128460903Y-175319096D02*
X129482998Y-175319096D01*
X132997283Y-178833381D02*
X158590127Y-178833381D01*
X158590127Y-178833381D02*
X158719457Y-178962711D01*
%TO.N,/USB Hub/HD3_N*%
X125193902Y-175110000D02*
X126623902Y-173680000D01*
X171402982Y-173706780D02*
X172329762Y-172780000D01*
X196736577Y-172779992D02*
X196816584Y-172860000D01*
X196816584Y-172860000D02*
X196827824Y-172860000D01*
X196410823Y-172779992D02*
X196736577Y-172779992D01*
X196410815Y-172780000D02*
X196410823Y-172779992D01*
X124980000Y-175110000D02*
X125193902Y-175110000D01*
X172329762Y-172780000D02*
X196410815Y-172780000D01*
X196827824Y-172860000D02*
X196912472Y-172775352D01*
X129614828Y-173679993D02*
X129641615Y-173706780D01*
X129641615Y-173706780D02*
X171402982Y-173706780D01*
X126623902Y-173680000D02*
X129614829Y-173680000D01*
%TO.N,/USB Hub/HD3_P*%
X197440000Y-173230000D02*
X197284281Y-173385719D01*
X171565859Y-174100000D02*
X129478738Y-174100000D01*
X196786195Y-173385709D02*
X196573699Y-173173212D01*
X129319949Y-174073220D02*
X129293169Y-174100000D01*
X126759993Y-174100007D02*
X125172795Y-175687205D01*
X129478738Y-174100000D02*
X129451958Y-174073220D01*
X126759993Y-174100007D02*
X129293163Y-174100007D01*
X129451958Y-174073220D02*
X129319949Y-174073220D01*
X197284281Y-173385719D02*
X196786198Y-173385719D01*
X172492640Y-173173220D02*
X171565859Y-174100000D01*
X196573696Y-173173217D02*
X196573692Y-173173220D01*
X125172800Y-175917200D02*
X125172800Y-175687203D01*
X196573692Y-173173220D02*
X172492640Y-173173220D01*
D22*
%TO.N,/CM4_GPIO/GPIO6*%
X189770000Y-164270000D02*
X183469142Y-164270000D01*
X183247295Y-164491847D02*
X170991080Y-164491847D01*
X183469142Y-164270000D02*
X183247295Y-164491847D01*
X170991080Y-164491847D02*
X170830000Y-164330767D01*
X189820000Y-164220000D02*
X189770000Y-164270000D01*
D19*
%TO.N,/CM4_GPIO/TRD1_N*%
X129352819Y-170344899D02*
X128407920Y-169400000D01*
X128407920Y-169400000D02*
X127882556Y-169400000D01*
X127734897Y-169547659D02*
X127734897Y-169561386D01*
X127882556Y-169400000D02*
X127734897Y-169547659D01*
X176076065Y-168201295D02*
X173932461Y-170344899D01*
X176291295Y-168201295D02*
X176076065Y-168201295D01*
X173932461Y-170344899D02*
X129352819Y-170344899D01*
D22*
%TO.N,/CM4_GPIO/PI_nLED_Activity*%
X179661589Y-167998050D02*
X179661589Y-167980000D01*
X180366450Y-168290011D02*
X179953550Y-168290011D01*
X179953550Y-168290011D02*
X179661589Y-167998050D01*
X177990000Y-167980000D02*
X177710000Y-168260000D01*
X180658411Y-167980000D02*
X180658411Y-167998050D01*
X201241820Y-167980000D02*
X180658411Y-167980000D01*
X179661589Y-167980000D02*
X177990000Y-167980000D01*
X180658411Y-167998050D02*
X180366450Y-168290011D01*
X201361820Y-168100000D02*
X201241820Y-167980000D01*
%TO.N,/Battery/BT1_PRES*%
X117531731Y-172445360D02*
X115706371Y-170620000D01*
X129989444Y-172445360D02*
X117531731Y-172445360D01*
X192350000Y-170360000D02*
X184460000Y-170360000D01*
X146197320Y-172612680D02*
X130156764Y-172612680D01*
X115706371Y-170620000D02*
X111680000Y-170620000D01*
X192410000Y-170420000D02*
X192350000Y-170360000D01*
X182420000Y-171550000D02*
X182227320Y-171742680D01*
X183270000Y-171550000D02*
X182420000Y-171550000D01*
X184460000Y-170360000D02*
X183270000Y-171550000D01*
X182227320Y-171742680D02*
X147067320Y-171742680D01*
X130156764Y-172612680D02*
X129989444Y-172445360D01*
X147067320Y-171742680D02*
X146197320Y-172612680D01*
%TO.N,/Battery/BT2_PRES*%
X192778400Y-178990000D02*
X182600000Y-178990000D01*
X192870000Y-178898400D02*
X192778400Y-178990000D01*
%TO.N,/CM4_GPIO/GPIO_PB2*%
X161170875Y-176629125D02*
X170989804Y-176629125D01*
X200530000Y-176030000D02*
X202220000Y-177720000D01*
X173064679Y-174554250D02*
X193344250Y-174554250D01*
X160660000Y-177140000D02*
X161170875Y-176629125D01*
X193344250Y-174554250D02*
X194820000Y-176030000D01*
X194820000Y-176030000D02*
X200530000Y-176030000D01*
X170989804Y-176629125D02*
X173064679Y-174554250D01*
%TO.N,/CM4_GPIO/SD_PWR_ON*%
X191498900Y-138660000D02*
X191337820Y-138821080D01*
X191337820Y-138821080D02*
X191337820Y-158494900D01*
X188243654Y-161578291D02*
X165168115Y-161578291D01*
X165168115Y-161578291D02*
X162350000Y-158760176D01*
X188362720Y-161470000D02*
X188351945Y-161470000D01*
X162350000Y-158760176D02*
X162350000Y-157410000D01*
X191337820Y-158494900D02*
X188362720Y-161470000D01*
X188351945Y-161470000D02*
X188243654Y-161578291D01*
%TO.N,/USB Hub/nEXTRST*%
X152461589Y-166290000D02*
X154421589Y-164330000D01*
X137580000Y-166010000D02*
X137868411Y-166298411D01*
X137868411Y-166298411D02*
X145576439Y-166298411D01*
X145584850Y-166290000D02*
X152461589Y-166290000D01*
X145576439Y-166298411D02*
X145584850Y-166290000D01*
D20*
%TO.N,/CM4_HighSpeed/USB2_P*%
X134310210Y-168161390D02*
X134081600Y-168390000D01*
X136448952Y-168713220D02*
X135897122Y-168161390D01*
X135897122Y-168161390D02*
X134310210Y-168161390D01*
X171767889Y-168713220D02*
X136448952Y-168713220D01*
X171780000Y-168701109D02*
X171767889Y-168713220D01*
D22*
%TO.N,Net-(Q2-Pad3)*%
X132957268Y-181918265D02*
X123575807Y-181918265D01*
X164300000Y-183630000D02*
X162687320Y-185242680D01*
X136281683Y-185242680D02*
X132957268Y-181918265D01*
X162687320Y-185242680D02*
X136281683Y-185242680D01*
X123575807Y-181918265D02*
X121513771Y-179856229D01*
X167460000Y-183630000D02*
X164300000Y-183630000D01*
%TO.N,Net-(Q3-Pad3)*%
X129710000Y-173120000D02*
X113756752Y-173120000D01*
X113756752Y-173120000D02*
X111923376Y-171286624D01*
X169539850Y-173290000D02*
X129880000Y-173290000D01*
X169680000Y-173149850D02*
X169539850Y-173290000D01*
X129880000Y-173290000D02*
X129710000Y-173120000D01*
%TO.N,Net-(Q6-Pad3)*%
X128855225Y-181580945D02*
X127110000Y-179835720D01*
X162319779Y-184905360D02*
X139241301Y-184905360D01*
X164085139Y-183140000D02*
X162319779Y-184905360D01*
X135916886Y-181580945D02*
X128855225Y-181580945D01*
X167257577Y-182287577D02*
X166405154Y-183140000D01*
X166405154Y-183140000D02*
X164085139Y-183140000D01*
X139241301Y-184905360D02*
X135916886Y-181580945D01*
%TO.N,Net-(Q7-Pad3)*%
X170949670Y-177593040D02*
X171426630Y-178070000D01*
X145730000Y-180840000D02*
X164160000Y-180840000D01*
X164160000Y-180840000D02*
X167406960Y-177593040D01*
X167406960Y-177593040D02*
X170949670Y-177593040D01*
X145380000Y-181190000D02*
X145730000Y-180840000D01*
%TO.N,Net-(Q10-Pad3)*%
X146016018Y-165630000D02*
X151280000Y-165630000D01*
X167092669Y-174932669D02*
X144175443Y-174932669D01*
X167170000Y-175010000D02*
X167092669Y-174932669D01*
X144882684Y-164496666D02*
X146016018Y-165630000D01*
X144175443Y-174932669D02*
X143699056Y-175409056D01*
%TO.N,/Battery/MOSI*%
X183548108Y-164668076D02*
X184240453Y-164668077D01*
X184575056Y-165002680D02*
X187012459Y-165002680D01*
X168712993Y-164507007D02*
X170119147Y-164507007D01*
X183387017Y-164829167D02*
X183548108Y-164668076D01*
X184240453Y-164668077D02*
X184575056Y-165002680D01*
X170119147Y-164507007D02*
X170441307Y-164829167D01*
X187143550Y-164871589D02*
X187556450Y-164871589D01*
X187012459Y-165002680D02*
X187143550Y-164871589D01*
X187704861Y-165020000D02*
X187850000Y-165020000D01*
X187850000Y-165020000D02*
X187970000Y-165140000D01*
X187556450Y-164871589D02*
X187704861Y-165020000D01*
X170441307Y-164829167D02*
X183387017Y-164829167D01*
%TO.N,/Battery/MISO*%
X170301585Y-165166487D02*
X183526739Y-165166487D01*
X184392691Y-165297357D02*
X184392691Y-165340000D01*
X183687830Y-165005396D02*
X184100730Y-165005396D01*
X183526739Y-165166487D02*
X183687830Y-165005396D01*
X169255407Y-164990000D02*
X170125098Y-164990000D01*
X169240000Y-165005407D02*
X169255407Y-164990000D01*
X184100730Y-165005396D02*
X184392691Y-165297357D01*
X187320000Y-165340000D02*
X187350000Y-165370000D01*
X170125098Y-164990000D02*
X170301585Y-165166487D01*
X184392691Y-165340000D02*
X187320000Y-165340000D01*
%TO.N,/Battery/SCL*%
X169805407Y-165503807D02*
X183894280Y-165503807D01*
X169790000Y-165488400D02*
X169805407Y-165503807D01*
%TO.N,/Battery/I2C_SDA*%
X192121369Y-179771589D02*
X192490278Y-179402680D01*
X192490278Y-179402680D02*
X200297320Y-179402680D01*
X127316450Y-179337309D02*
X129222767Y-181243626D01*
X165574084Y-180380000D02*
X163995684Y-181958400D01*
X144720278Y-182057320D02*
X157841080Y-182057320D01*
X157841080Y-182057320D02*
X157940000Y-181958400D01*
X122470000Y-179270000D02*
X122537309Y-179337309D01*
X143906584Y-181243626D02*
X144720278Y-182057320D01*
X189115869Y-180380000D02*
X165574084Y-180380000D01*
X163995684Y-181958400D02*
X157940000Y-181958400D01*
X189260000Y-180235869D02*
X189115869Y-180380000D01*
X122537309Y-179337309D02*
X127316450Y-179337309D01*
X189724280Y-179771589D02*
X192121369Y-179771589D01*
X200297320Y-179402680D02*
X200990000Y-178710000D01*
X189260000Y-180235869D02*
X189724280Y-179771589D01*
X129222767Y-181243626D02*
X143906584Y-181243626D01*
%TO.N,/Battery/I2C_SCL*%
X157040000Y-181400000D02*
X156720000Y-181720000D01*
X127620000Y-178830000D02*
X123300000Y-178830000D01*
X144860000Y-181720000D02*
X144046306Y-180906306D01*
X157100000Y-181460000D02*
X164017042Y-181460000D01*
X177908097Y-178180000D02*
X189480000Y-178180000D01*
X144046306Y-180906306D02*
X129696306Y-180906306D01*
X129696306Y-180906306D02*
X127620000Y-178830000D01*
X156720000Y-181720000D02*
X144860000Y-181720000D01*
X157040000Y-181400000D02*
X157100000Y-181460000D01*
X177275416Y-178812681D02*
X177908097Y-178180000D01*
X164017042Y-181460000D02*
X166664361Y-178812681D01*
X166664361Y-178812681D02*
X177275416Y-178812681D01*
X200681600Y-178110000D02*
X200391600Y-178400000D01*
X189480000Y-178180000D02*
X189700000Y-178400000D01*
X200391600Y-178400000D02*
X189700000Y-178400000D01*
%TO.N,/USB Hub/nOCS1*%
X171707803Y-174480000D02*
X142658039Y-174480000D01*
X142658039Y-174480000D02*
X141656450Y-175481589D01*
X172645513Y-173542290D02*
X171707803Y-174480000D01*
X135318411Y-175481589D02*
X134500000Y-176300000D01*
X141656450Y-175481589D02*
X135318411Y-175481589D01*
X196022279Y-173542290D02*
X172645513Y-173542290D01*
X196189989Y-173710000D02*
X196022279Y-173542290D01*
%TO.N,/USB Hub/PWR1*%
X166963550Y-175508411D02*
X166725128Y-175269989D01*
X195620000Y-174090000D02*
X195409610Y-173879610D01*
X172785235Y-173879610D02*
X171156434Y-175508411D01*
X195409610Y-173879610D02*
X172785235Y-173879610D01*
X143420000Y-176870000D02*
X133080000Y-176870000D01*
X194160000Y-160340000D02*
X194343503Y-160156497D01*
X171156434Y-175508411D02*
X166963550Y-175508411D01*
X166725128Y-175269989D02*
X145020011Y-175269989D01*
X145020011Y-175269989D02*
X143420000Y-176870000D01*
X194343503Y-160156497D02*
X194343503Y-139219991D01*
%TO.N,Net-(R1-Pad1)*%
X197920000Y-176530000D02*
X186250000Y-176530000D01*
%TO.N,/CM4_GPIO/ETH_LEDY*%
X159693550Y-189191589D02*
X159665139Y-189220000D01*
X147080000Y-189220000D02*
X143920000Y-192380000D01*
X159665139Y-189220000D02*
X147080000Y-189220000D01*
X173191050Y-188465637D02*
X172465098Y-189191589D01*
X172465098Y-189191589D02*
X159693550Y-189191589D01*
%TO.N,/CM4_GPIO/ETH_LEDG*%
X117520000Y-198180000D02*
X116620000Y-198180000D01*
X119006450Y-197131589D02*
X118568411Y-197131589D01*
X139976023Y-198590000D02*
X138956012Y-197569989D01*
X146730000Y-188730000D02*
X143290000Y-192170000D01*
X118568411Y-197131589D02*
X117520000Y-198180000D01*
X143407286Y-198590000D02*
X139976023Y-198590000D01*
X172060000Y-188730000D02*
X146730000Y-188730000D01*
X119444850Y-197569989D02*
X119006450Y-197131589D01*
X138956012Y-197569989D02*
X119444850Y-197569989D01*
X143421600Y-198575686D02*
X143407286Y-198590000D01*
X172930000Y-187860000D02*
X172060000Y-188730000D01*
%TO.N,/Battery/PWR_IRQ*%
X170368411Y-183618411D02*
X168539166Y-181789166D01*
X164003189Y-182456811D02*
X141423189Y-182456811D01*
X168539166Y-181789166D02*
X164670834Y-181789166D01*
X182536450Y-183618411D02*
X170368411Y-183618411D01*
X141423189Y-182456811D02*
X141200000Y-182680000D01*
X183130000Y-182950000D02*
X183130000Y-183024861D01*
X164670834Y-181789166D02*
X164003189Y-182456811D01*
X183130000Y-183024861D02*
X182536450Y-183618411D01*
%TO.N,/Battery/AXP_EXTEN*%
X143159080Y-193519080D02*
X141780000Y-192140000D01*
X138900000Y-192140000D02*
X133830000Y-197210000D01*
X190245731Y-180734269D02*
X171812361Y-180734269D01*
X147875103Y-193519080D02*
X143159080Y-193519080D01*
X141780000Y-192140000D02*
X138900000Y-192140000D01*
X190260000Y-180720000D02*
X190245731Y-180734269D01*
X127330000Y-197210000D02*
X126790000Y-196670000D01*
X147886023Y-193530000D02*
X147875103Y-193519080D01*
X171419498Y-192650000D02*
X170539498Y-193530000D01*
X171812361Y-180734269D02*
X171426630Y-181120000D01*
X133830000Y-197210000D02*
X127330000Y-197210000D01*
X170539498Y-193530000D02*
X147886023Y-193530000D01*
%TO.N,Net-(LED1-Pad1)*%
X152820000Y-158050000D02*
X160020000Y-158050000D01*
X161650000Y-156420000D02*
X171620000Y-156420000D01*
X160020000Y-158050000D02*
X161650000Y-156420000D01*
X132930000Y-158050000D02*
X152820000Y-158050000D01*
X112740000Y-158050000D02*
X132930000Y-158050000D01*
%TO.N,Net-(LED5-Pad1)*%
X133859559Y-188060000D02*
X136002239Y-185917320D01*
X129557423Y-188647423D02*
X130144846Y-188060000D01*
X189837320Y-184232680D02*
X190750000Y-183320000D01*
X136002239Y-185917320D02*
X183772680Y-185917320D01*
X185457320Y-184232680D02*
X189837320Y-184232680D01*
X130144846Y-188060000D02*
X133859559Y-188060000D01*
X190750000Y-183320000D02*
X190750000Y-182830000D01*
X183772680Y-185917320D02*
X185457320Y-184232680D01*
%TO.N,Net-(R47-Pad1)*%
X147740720Y-186929280D02*
X192029280Y-186929280D01*
X144070000Y-190600000D02*
X147740720Y-186929280D01*
X193270000Y-188170000D02*
X193270000Y-188870000D01*
X141530000Y-190600000D02*
X144070000Y-190600000D01*
X192029280Y-186929280D02*
X193270000Y-188170000D01*
%TD*%
%TA.AperFunction,Conductor*%
%TO.N,/Charger/IPS_OUT*%
G36*
X126515535Y-185986893D02*
G01*
X126682218Y-186081402D01*
X126731610Y-186132400D01*
X126745589Y-186202007D01*
X126719717Y-186268121D01*
X126677860Y-186302974D01*
X126614635Y-186335607D01*
X126546806Y-186370616D01*
X126541084Y-186375608D01*
X126541082Y-186375609D01*
X126433886Y-186469122D01*
X126433883Y-186469125D01*
X126428161Y-186474117D01*
X126337628Y-186602932D01*
X126280436Y-186749623D01*
X126276005Y-186783282D01*
X126261126Y-186896297D01*
X126259885Y-186905722D01*
X126277162Y-187062217D01*
X126331270Y-187210074D01*
X126335507Y-187216380D01*
X126335509Y-187216383D01*
X126369212Y-187266538D01*
X126419085Y-187340756D01*
X126535537Y-187446719D01*
X126577675Y-187469598D01*
X126667226Y-187518221D01*
X126667228Y-187518222D01*
X126673903Y-187521846D01*
X126681252Y-187523774D01*
X126818846Y-187559871D01*
X126818848Y-187559871D01*
X126826196Y-187561799D01*
X126909507Y-187563108D01*
X126976025Y-187564153D01*
X126976028Y-187564153D01*
X126983622Y-187564272D01*
X127137095Y-187529122D01*
X127277752Y-187458379D01*
X127345698Y-187400348D01*
X127391701Y-187361058D01*
X127391703Y-187361055D01*
X127397475Y-187356126D01*
X127489351Y-187228267D01*
X127548077Y-187082182D01*
X127560159Y-186997287D01*
X127569680Y-186930391D01*
X127569680Y-186930388D01*
X127570261Y-186926307D01*
X127570329Y-186919838D01*
X127570362Y-186916718D01*
X127570362Y-186916712D01*
X127570405Y-186912584D01*
X127557844Y-186808787D01*
X127569518Y-186738758D01*
X127617200Y-186686156D01*
X127685751Y-186667684D01*
X127745077Y-186684044D01*
X128166559Y-186923025D01*
X128225250Y-186956303D01*
X128274643Y-187007302D01*
X128277982Y-187014153D01*
X128357822Y-187191393D01*
X128492072Y-187390801D01*
X128495751Y-187394658D01*
X128495753Y-187394660D01*
X128559794Y-187461792D01*
X128658000Y-187564739D01*
X128662280Y-187567924D01*
X128662283Y-187567926D01*
X128718340Y-187609633D01*
X128850864Y-187708233D01*
X129065147Y-187817181D01*
X129197503Y-187858278D01*
X129256627Y-187897581D01*
X129285118Y-187962610D01*
X129273928Y-188032720D01*
X129226611Y-188085650D01*
X129217927Y-188090577D01*
X129195853Y-188101970D01*
X129195850Y-188101972D01*
X129189102Y-188105455D01*
X129183380Y-188110447D01*
X129183378Y-188110448D01*
X129076182Y-188203961D01*
X129076179Y-188203964D01*
X129070457Y-188208956D01*
X129066090Y-188215170D01*
X128987819Y-188326538D01*
X128979924Y-188337771D01*
X128922732Y-188484462D01*
X128920983Y-188497747D01*
X128903910Y-188627430D01*
X128902181Y-188640561D01*
X128919458Y-188797056D01*
X128973566Y-188944913D01*
X128977803Y-188951219D01*
X128977805Y-188951222D01*
X129012587Y-189002982D01*
X129061381Y-189075595D01*
X129177833Y-189181558D01*
X129184508Y-189185182D01*
X129309522Y-189253060D01*
X129309524Y-189253061D01*
X129316199Y-189256685D01*
X129323548Y-189258613D01*
X129461142Y-189294710D01*
X129461144Y-189294710D01*
X129468492Y-189296638D01*
X129551803Y-189297947D01*
X129618321Y-189298992D01*
X129618324Y-189298992D01*
X129625918Y-189299111D01*
X129779391Y-189263961D01*
X129920048Y-189193218D01*
X129975016Y-189146271D01*
X130033997Y-189095897D01*
X130033999Y-189095894D01*
X130039771Y-189090965D01*
X130131647Y-188963106D01*
X130176898Y-188850541D01*
X130187540Y-188824069D01*
X130187541Y-188824067D01*
X130190373Y-188817021D01*
X130202775Y-188729880D01*
X130232176Y-188665258D01*
X130238423Y-188658539D01*
X130310657Y-188586305D01*
X130372969Y-188552279D01*
X130399752Y-188549400D01*
X131001704Y-188549400D01*
X131063850Y-188565793D01*
X131165801Y-188623599D01*
X131215193Y-188674597D01*
X131229652Y-188733799D01*
X131228541Y-188969272D01*
X131224187Y-189892280D01*
X131203863Y-189960306D01*
X131149989Y-190006545D01*
X131079668Y-190016318D01*
X131067493Y-190013890D01*
X130939498Y-189981740D01*
X130939496Y-189981740D01*
X130932128Y-189979889D01*
X130924530Y-189979849D01*
X130924528Y-189979849D01*
X130857319Y-189979497D01*
X130774684Y-189979065D01*
X130767305Y-189980837D01*
X130767301Y-189980837D01*
X130628967Y-190014048D01*
X130628963Y-190014049D01*
X130621588Y-190015820D01*
X130481679Y-190088032D01*
X130475957Y-190093024D01*
X130475955Y-190093025D01*
X130368759Y-190186538D01*
X130368756Y-190186541D01*
X130363034Y-190191533D01*
X130358667Y-190197747D01*
X130293654Y-190290251D01*
X130272501Y-190320348D01*
X130215309Y-190467039D01*
X130214318Y-190474568D01*
X130202711Y-190562733D01*
X130194758Y-190623138D01*
X130212035Y-190779633D01*
X130266143Y-190927490D01*
X130353958Y-191058172D01*
X130381367Y-191083112D01*
X130461380Y-191155918D01*
X130470410Y-191164135D01*
X130477085Y-191167759D01*
X130602099Y-191235637D01*
X130602101Y-191235638D01*
X130608776Y-191239262D01*
X130616125Y-191241190D01*
X130753719Y-191277287D01*
X130753721Y-191277287D01*
X130761069Y-191279215D01*
X130844380Y-191280524D01*
X130910898Y-191281569D01*
X130910901Y-191281569D01*
X130918495Y-191281688D01*
X130925899Y-191279992D01*
X130925901Y-191279992D01*
X131008620Y-191261047D01*
X131079487Y-191265336D01*
X131136785Y-191307258D01*
X131158965Y-191360866D01*
X131160474Y-191360562D01*
X131161322Y-191364765D01*
X131161882Y-191369022D01*
X131211739Y-191551267D01*
X131216202Y-191585099D01*
X131192657Y-196576668D01*
X131192570Y-196595194D01*
X131172246Y-196663220D01*
X131118372Y-196709459D01*
X131066571Y-196720600D01*
X128793071Y-196720600D01*
X128724950Y-196700598D01*
X128678457Y-196646942D01*
X128668353Y-196576668D01*
X128670714Y-196565160D01*
X128672950Y-196559598D01*
X128695134Y-196403723D01*
X128695278Y-196390000D01*
X128676363Y-196233694D01*
X128637906Y-196131919D01*
X128623394Y-196093514D01*
X128623393Y-196093511D01*
X128620710Y-196086412D01*
X128531531Y-195956657D01*
X128484971Y-195915174D01*
X128419648Y-195856972D01*
X128419645Y-195856970D01*
X128413976Y-195851919D01*
X128274831Y-195778245D01*
X128258122Y-195774048D01*
X128129498Y-195741740D01*
X128129496Y-195741740D01*
X128122128Y-195739889D01*
X128114530Y-195739849D01*
X128114528Y-195739849D01*
X128047319Y-195739497D01*
X127964684Y-195739065D01*
X127957305Y-195740837D01*
X127957301Y-195740837D01*
X127818967Y-195774048D01*
X127818963Y-195774049D01*
X127811588Y-195775820D01*
X127671679Y-195848032D01*
X127665957Y-195853024D01*
X127665955Y-195853025D01*
X127558759Y-195946538D01*
X127558756Y-195946541D01*
X127553034Y-195951533D01*
X127548667Y-195957747D01*
X127479336Y-196056395D01*
X127462501Y-196080348D01*
X127441963Y-196133025D01*
X127436468Y-196147120D01*
X127393088Y-196203322D01*
X127326209Y-196227149D01*
X127257065Y-196211036D01*
X127235260Y-196195431D01*
X127163976Y-196131919D01*
X127024831Y-196058245D01*
X127008122Y-196054048D01*
X126879498Y-196021740D01*
X126879496Y-196021740D01*
X126872128Y-196019889D01*
X126864530Y-196019849D01*
X126864528Y-196019849D01*
X126797319Y-196019497D01*
X126714684Y-196019065D01*
X126707305Y-196020837D01*
X126707301Y-196020837D01*
X126568967Y-196054048D01*
X126568963Y-196054049D01*
X126561588Y-196055820D01*
X126421679Y-196128032D01*
X126415957Y-196133024D01*
X126415955Y-196133025D01*
X126308759Y-196226538D01*
X126308756Y-196226541D01*
X126303034Y-196231533D01*
X126212501Y-196360348D01*
X126155309Y-196507039D01*
X126154318Y-196514568D01*
X126136107Y-196652894D01*
X126134758Y-196663138D01*
X126152035Y-196819633D01*
X126154645Y-196826765D01*
X126179834Y-196895598D01*
X126184460Y-196966444D01*
X126150050Y-197028544D01*
X126087529Y-197062183D01*
X126059663Y-197064885D01*
X121817582Y-197002776D01*
X119587460Y-196970124D01*
X119519640Y-196949127D01*
X119500210Y-196933233D01*
X119401256Y-196834279D01*
X119394008Y-196825208D01*
X119393588Y-196825565D01*
X119387770Y-196818729D01*
X119382980Y-196811137D01*
X119344248Y-196776931D01*
X119338562Y-196771585D01*
X119327658Y-196760681D01*
X119319763Y-196754764D01*
X119311920Y-196748379D01*
X119284635Y-196724282D01*
X119277905Y-196718338D01*
X119269774Y-196714521D01*
X119265657Y-196711816D01*
X119255376Y-196705638D01*
X119251066Y-196703278D01*
X119243888Y-196697899D01*
X119235488Y-196694750D01*
X119235486Y-196694749D01*
X119201398Y-196681971D01*
X119192095Y-196678051D01*
X119151008Y-196658760D01*
X119142142Y-196657379D01*
X119137453Y-196655946D01*
X119125821Y-196652894D01*
X119121023Y-196651839D01*
X119112622Y-196648690D01*
X119067372Y-196645327D01*
X119057333Y-196644175D01*
X119044578Y-196642189D01*
X119029822Y-196642189D01*
X119020484Y-196641843D01*
X119005574Y-196640735D01*
X118972821Y-196638301D01*
X118964045Y-196640174D01*
X118955088Y-196640785D01*
X118955085Y-196640735D01*
X118941308Y-196642189D01*
X118750028Y-196642189D01*
X118681907Y-196622187D01*
X118646189Y-196587557D01*
X118570838Y-196477922D01*
X118570833Y-196477916D01*
X118566531Y-196471657D01*
X118519971Y-196430174D01*
X118454648Y-196371972D01*
X118454645Y-196371970D01*
X118448976Y-196366919D01*
X118434940Y-196359487D01*
X118316543Y-196296799D01*
X118316544Y-196296799D01*
X118309831Y-196293245D01*
X118293122Y-196289048D01*
X118164498Y-196256740D01*
X118164496Y-196256740D01*
X118157128Y-196254889D01*
X118149530Y-196254849D01*
X118149528Y-196254849D01*
X118082319Y-196254497D01*
X117999684Y-196254065D01*
X117992305Y-196255837D01*
X117992301Y-196255837D01*
X117853967Y-196289048D01*
X117853963Y-196289049D01*
X117846588Y-196290820D01*
X117706679Y-196363032D01*
X117705278Y-196360318D01*
X117650995Y-196377760D01*
X117582390Y-196359487D01*
X117534555Y-196307024D01*
X117521817Y-196253301D01*
X117460206Y-191083112D01*
X118424241Y-191083112D01*
X118424800Y-191087356D01*
X118424800Y-191087360D01*
X118432323Y-191144500D01*
X118461882Y-191369022D01*
X118463015Y-191373162D01*
X118463015Y-191373164D01*
X118467829Y-191390761D01*
X118537977Y-191647178D01*
X118651118Y-191912434D01*
X118653321Y-191916115D01*
X118778709Y-192125623D01*
X118799211Y-192159880D01*
X118801889Y-192163223D01*
X118801892Y-192163227D01*
X118872056Y-192250805D01*
X118979517Y-192384938D01*
X119188698Y-192583443D01*
X119422884Y-192751723D01*
X119677742Y-192886663D01*
X119681765Y-192888135D01*
X119681769Y-192888137D01*
X119944524Y-192984292D01*
X119948555Y-192985767D01*
X120230312Y-193047200D01*
X120259015Y-193049459D01*
X120454024Y-193064807D01*
X120454031Y-193064807D01*
X120456480Y-193065000D01*
X120612492Y-193065000D01*
X120614628Y-193064854D01*
X120614639Y-193064854D01*
X120823432Y-193050620D01*
X120823438Y-193050619D01*
X120827709Y-193050328D01*
X120831904Y-193049459D01*
X120831906Y-193049459D01*
X120879329Y-193039638D01*
X120964688Y-193021961D01*
X121035448Y-193027733D01*
X121091856Y-193070846D01*
X121116001Y-193137611D01*
X121100217Y-193206831D01*
X121063157Y-193247269D01*
X121061679Y-193248032D01*
X121055957Y-193253024D01*
X120948759Y-193346538D01*
X120948756Y-193346541D01*
X120943034Y-193351533D01*
X120852501Y-193480348D01*
X120795309Y-193627039D01*
X120774758Y-193783138D01*
X120792035Y-193939633D01*
X120846143Y-194087490D01*
X120850380Y-194093796D01*
X120850382Y-194093799D01*
X120890709Y-194153811D01*
X120933958Y-194218172D01*
X121050410Y-194324135D01*
X121057085Y-194327759D01*
X121182099Y-194395637D01*
X121182101Y-194395638D01*
X121188776Y-194399262D01*
X121196125Y-194401190D01*
X121333719Y-194437287D01*
X121333721Y-194437287D01*
X121341069Y-194439215D01*
X121424380Y-194440524D01*
X121490898Y-194441569D01*
X121490901Y-194441569D01*
X121498495Y-194441688D01*
X121651968Y-194406538D01*
X121792625Y-194335795D01*
X121818869Y-194313381D01*
X121906574Y-194238474D01*
X121906576Y-194238471D01*
X121912348Y-194233542D01*
X122004224Y-194105683D01*
X122062950Y-193959598D01*
X122085134Y-193803723D01*
X122085278Y-193790000D01*
X122066363Y-193633694D01*
X122047938Y-193584934D01*
X122013394Y-193493514D01*
X122013393Y-193493511D01*
X122010710Y-193486412D01*
X121921531Y-193356657D01*
X121822921Y-193268798D01*
X121809648Y-193256972D01*
X121809645Y-193256970D01*
X121803976Y-193251919D01*
X121664831Y-193178245D01*
X121655177Y-193175820D01*
X121519498Y-193141740D01*
X121519496Y-193141740D01*
X121512128Y-193139889D01*
X121504529Y-193139849D01*
X121504527Y-193139849D01*
X121425462Y-193139435D01*
X121357447Y-193119077D01*
X121311236Y-193065178D01*
X121301500Y-192994852D01*
X121327780Y-192938096D01*
X124725729Y-192938096D01*
X124730829Y-192984292D01*
X124739724Y-193064854D01*
X124743113Y-193095553D01*
X124745723Y-193102684D01*
X124745723Y-193102686D01*
X124773374Y-193178245D01*
X124797553Y-193244319D01*
X124801789Y-193250622D01*
X124801789Y-193250623D01*
X124877248Y-193362917D01*
X124885908Y-193375805D01*
X124891527Y-193380918D01*
X124891528Y-193380919D01*
X124997460Y-193477309D01*
X125003076Y-193482419D01*
X125142293Y-193558008D01*
X125295522Y-193598207D01*
X125379477Y-193599526D01*
X125446319Y-193600576D01*
X125446322Y-193600576D01*
X125453916Y-193600695D01*
X125608332Y-193565329D01*
X125716271Y-193511042D01*
X125743072Y-193497563D01*
X125743075Y-193497561D01*
X125749855Y-193494151D01*
X125755626Y-193489222D01*
X125755629Y-193489220D01*
X125852962Y-193406089D01*
X125917752Y-193377058D01*
X125987952Y-193387663D01*
X126019590Y-193408705D01*
X126029690Y-193417895D01*
X126113495Y-193494151D01*
X126128076Y-193507419D01*
X126267293Y-193583008D01*
X126420522Y-193623207D01*
X126504477Y-193624526D01*
X126571319Y-193625576D01*
X126571322Y-193625576D01*
X126578916Y-193625695D01*
X126733332Y-193590329D01*
X126804799Y-193554385D01*
X126868072Y-193522563D01*
X126868075Y-193522561D01*
X126874855Y-193519151D01*
X126880626Y-193514222D01*
X126880629Y-193514220D01*
X126993410Y-193417895D01*
X127058200Y-193388864D01*
X127128400Y-193399469D01*
X127160040Y-193420512D01*
X127222460Y-193477309D01*
X127228076Y-193482419D01*
X127367293Y-193558008D01*
X127520522Y-193598207D01*
X127604477Y-193599526D01*
X127671319Y-193600576D01*
X127671322Y-193600576D01*
X127678916Y-193600695D01*
X127833332Y-193565329D01*
X127941271Y-193511042D01*
X127968072Y-193497563D01*
X127968075Y-193497561D01*
X127974855Y-193494151D01*
X127980626Y-193489222D01*
X127980629Y-193489220D01*
X128089536Y-193396204D01*
X128089536Y-193396203D01*
X128095314Y-193391269D01*
X128187755Y-193262624D01*
X128246842Y-193115641D01*
X128254070Y-193064854D01*
X128268581Y-192962891D01*
X128268581Y-192962888D01*
X128269162Y-192958807D01*
X128269307Y-192945000D01*
X128250276Y-192787733D01*
X128194280Y-192639546D01*
X128180907Y-192620088D01*
X128108855Y-192515251D01*
X128108854Y-192515249D01*
X128104553Y-192508992D01*
X128098885Y-192503942D01*
X128094677Y-192499169D01*
X128064633Y-192434843D01*
X128074136Y-192364485D01*
X128107363Y-192320035D01*
X128164532Y-192271208D01*
X128164535Y-192271205D01*
X128170314Y-192266269D01*
X128262755Y-192137624D01*
X128321842Y-191990641D01*
X128327965Y-191947615D01*
X128343581Y-191837891D01*
X128343581Y-191837888D01*
X128344162Y-191833807D01*
X128344307Y-191820000D01*
X128325276Y-191662733D01*
X128269280Y-191514546D01*
X128187044Y-191394891D01*
X128183855Y-191390251D01*
X128183854Y-191390249D01*
X128179553Y-191383992D01*
X128173882Y-191378940D01*
X128173880Y-191378937D01*
X128131830Y-191341472D01*
X128094274Y-191281222D01*
X128095253Y-191210232D01*
X128120451Y-191166368D01*
X128120314Y-191166269D01*
X128121281Y-191164923D01*
X128212755Y-191037624D01*
X128271842Y-190890641D01*
X128284879Y-190799035D01*
X128293581Y-190737891D01*
X128293581Y-190737888D01*
X128294162Y-190733807D01*
X128294307Y-190720000D01*
X128275276Y-190562733D01*
X128219280Y-190414546D01*
X128184860Y-190364464D01*
X128133855Y-190290251D01*
X128133854Y-190290249D01*
X128129553Y-190283992D01*
X128011275Y-190178611D01*
X128003889Y-190174700D01*
X127877988Y-190108039D01*
X127877989Y-190108039D01*
X127871274Y-190104484D01*
X127717633Y-190065892D01*
X127710034Y-190065852D01*
X127710033Y-190065852D01*
X127644181Y-190065507D01*
X127559221Y-190065062D01*
X127551841Y-190066834D01*
X127551839Y-190066834D01*
X127412563Y-190100271D01*
X127412560Y-190100272D01*
X127405184Y-190102043D01*
X127264414Y-190174700D01*
X127258697Y-190179687D01*
X127258690Y-190179692D01*
X127154840Y-190270287D01*
X127090358Y-190299995D01*
X127020051Y-190290126D01*
X126988192Y-190269415D01*
X126891946Y-190183664D01*
X126886275Y-190178611D01*
X126878889Y-190174700D01*
X126752988Y-190108039D01*
X126752989Y-190108039D01*
X126746274Y-190104484D01*
X126592633Y-190065892D01*
X126585034Y-190065852D01*
X126585033Y-190065852D01*
X126519181Y-190065507D01*
X126434221Y-190065062D01*
X126426841Y-190066834D01*
X126426839Y-190066834D01*
X126287563Y-190100271D01*
X126287560Y-190100272D01*
X126280184Y-190102043D01*
X126139414Y-190174700D01*
X126042472Y-190259269D01*
X125977991Y-190288976D01*
X125907684Y-190279107D01*
X125875824Y-190258396D01*
X125791946Y-190183664D01*
X125786275Y-190178611D01*
X125778889Y-190174700D01*
X125652988Y-190108039D01*
X125652989Y-190108039D01*
X125646274Y-190104484D01*
X125492633Y-190065892D01*
X125485034Y-190065852D01*
X125485033Y-190065852D01*
X125419181Y-190065507D01*
X125334221Y-190065062D01*
X125326841Y-190066834D01*
X125326839Y-190066834D01*
X125187563Y-190100271D01*
X125187560Y-190100272D01*
X125180184Y-190102043D01*
X125039414Y-190174700D01*
X124920039Y-190278838D01*
X124828950Y-190408444D01*
X124826190Y-190415524D01*
X124779517Y-190535234D01*
X124771406Y-190556037D01*
X124770414Y-190563570D01*
X124770414Y-190563571D01*
X124763564Y-190615607D01*
X124750729Y-190713096D01*
X124768113Y-190870553D01*
X124770723Y-190877684D01*
X124770723Y-190877686D01*
X124788949Y-190927490D01*
X124822553Y-191019319D01*
X124826789Y-191025622D01*
X124826789Y-191025623D01*
X124880304Y-191105261D01*
X124910908Y-191150805D01*
X124950959Y-191187248D01*
X124987882Y-191247888D01*
X124986159Y-191318863D01*
X124954511Y-191366997D01*
X124955846Y-191368199D01*
X124950762Y-191373845D01*
X124945039Y-191378838D01*
X124853950Y-191508444D01*
X124796406Y-191656037D01*
X124775729Y-191813096D01*
X124784421Y-191891825D01*
X124789279Y-191935823D01*
X124793113Y-191970553D01*
X124847553Y-192119319D01*
X124935908Y-192250805D01*
X124952903Y-192266269D01*
X124953278Y-192266610D01*
X124990200Y-192327251D01*
X124988475Y-192398227D01*
X124951307Y-192454752D01*
X124895039Y-192503838D01*
X124803950Y-192633444D01*
X124801190Y-192640524D01*
X124754273Y-192760860D01*
X124746406Y-192781037D01*
X124745414Y-192788570D01*
X124745414Y-192788571D01*
X124726739Y-192930427D01*
X124725729Y-192938096D01*
X121327780Y-192938096D01*
X121331331Y-192930427D01*
X121376084Y-192897799D01*
X121377888Y-192897018D01*
X121381930Y-192895587D01*
X121589270Y-192788571D01*
X121634380Y-192765288D01*
X121634381Y-192765288D01*
X121638187Y-192763323D01*
X121641688Y-192760862D01*
X121641692Y-192760860D01*
X121814303Y-192639546D01*
X121874123Y-192597504D01*
X121971467Y-192507046D01*
X122082228Y-192404121D01*
X122082231Y-192404118D01*
X122085371Y-192401200D01*
X122096270Y-192387885D01*
X122265308Y-192181360D01*
X122268024Y-192178042D01*
X122418700Y-191932161D01*
X122461875Y-191833807D01*
X122532889Y-191672033D01*
X122532890Y-191672029D01*
X122534613Y-191668105D01*
X122613616Y-191390761D01*
X122614580Y-191383992D01*
X122653644Y-191109512D01*
X122654249Y-191105261D01*
X122655759Y-190816888D01*
X122652284Y-190790488D01*
X122622409Y-190563571D01*
X122618118Y-190530978D01*
X122612489Y-190510402D01*
X122613807Y-190439418D01*
X122653292Y-190380414D01*
X122718409Y-190352125D01*
X122736001Y-190351170D01*
X122761395Y-190351569D01*
X122761398Y-190351569D01*
X122768993Y-190351688D01*
X122922466Y-190316538D01*
X123063123Y-190245795D01*
X123140520Y-190179692D01*
X123177072Y-190148474D01*
X123177074Y-190148471D01*
X123182846Y-190143542D01*
X123274722Y-190015683D01*
X123278396Y-190006545D01*
X123330612Y-189876652D01*
X123333448Y-189869598D01*
X123355632Y-189713723D01*
X123355776Y-189700000D01*
X123336861Y-189543694D01*
X123313603Y-189482143D01*
X123308235Y-189411352D01*
X123329147Y-189364081D01*
X123409790Y-189251855D01*
X123409793Y-189251849D01*
X123414224Y-189245683D01*
X123472950Y-189099598D01*
X123491498Y-188969272D01*
X123494553Y-188947807D01*
X123494553Y-188947804D01*
X123495134Y-188943723D01*
X123495278Y-188930000D01*
X123493549Y-188915708D01*
X123479190Y-188797056D01*
X123476363Y-188773694D01*
X123432850Y-188658539D01*
X123423394Y-188633514D01*
X123423393Y-188633511D01*
X123420710Y-188626412D01*
X123331531Y-188496657D01*
X123284971Y-188455174D01*
X123219648Y-188396972D01*
X123219645Y-188396970D01*
X123213976Y-188391919D01*
X123074831Y-188318245D01*
X123058122Y-188314048D01*
X122929498Y-188281740D01*
X122929496Y-188281740D01*
X122922128Y-188279889D01*
X122914530Y-188279849D01*
X122914528Y-188279849D01*
X122847319Y-188279497D01*
X122764684Y-188279065D01*
X122757305Y-188280837D01*
X122757301Y-188280837D01*
X122618967Y-188314048D01*
X122618963Y-188314049D01*
X122611588Y-188315820D01*
X122471679Y-188388032D01*
X122465957Y-188393024D01*
X122465955Y-188393025D01*
X122358759Y-188486538D01*
X122358756Y-188486541D01*
X122353034Y-188491533D01*
X122262501Y-188620348D01*
X122205309Y-188767039D01*
X122204318Y-188774568D01*
X122186051Y-188913319D01*
X122184758Y-188923138D01*
X122202035Y-189079633D01*
X122226421Y-189146271D01*
X122227108Y-189148148D01*
X122231734Y-189218993D01*
X122211870Y-189263898D01*
X122172783Y-189319513D01*
X122145344Y-189358555D01*
X122089809Y-189402786D01*
X122019177Y-189409972D01*
X121955525Y-189377501D01*
X121894418Y-189319513D01*
X121894410Y-189319506D01*
X121891302Y-189316557D01*
X121657116Y-189148277D01*
X121402258Y-189013337D01*
X121398235Y-189011865D01*
X121398231Y-189011863D01*
X121135476Y-188915708D01*
X121135474Y-188915707D01*
X121131445Y-188914233D01*
X120849688Y-188852800D01*
X120806233Y-188849380D01*
X120625976Y-188835193D01*
X120625969Y-188835193D01*
X120623520Y-188835000D01*
X120467508Y-188835000D01*
X120465372Y-188835146D01*
X120465361Y-188835146D01*
X120256568Y-188849380D01*
X120256562Y-188849381D01*
X120252291Y-188849672D01*
X120248096Y-188850541D01*
X120248094Y-188850541D01*
X120111098Y-188878912D01*
X119969906Y-188908151D01*
X119698070Y-189004413D01*
X119441813Y-189136677D01*
X119438312Y-189139138D01*
X119438308Y-189139140D01*
X119368385Y-189188283D01*
X119205877Y-189302496D01*
X119127126Y-189375676D01*
X119012551Y-189482146D01*
X118994629Y-189498800D01*
X118991915Y-189502115D01*
X118991912Y-189502119D01*
X118951712Y-189551234D01*
X118811976Y-189721958D01*
X118661300Y-189967839D01*
X118659573Y-189971773D01*
X118659572Y-189971775D01*
X118563105Y-190191533D01*
X118545387Y-190231895D01*
X118466384Y-190509239D01*
X118465780Y-190513481D01*
X118465779Y-190513487D01*
X118436973Y-190715892D01*
X118425751Y-190794739D01*
X118425635Y-190816888D01*
X118424345Y-191063282D01*
X118424241Y-191083112D01*
X117460206Y-191083112D01*
X117419928Y-187703138D01*
X120994758Y-187703138D01*
X121012035Y-187859633D01*
X121066143Y-188007490D01*
X121070380Y-188013796D01*
X121070382Y-188013799D01*
X121083097Y-188032720D01*
X121153958Y-188138172D01*
X121270410Y-188244135D01*
X121277085Y-188247759D01*
X121402099Y-188315637D01*
X121402101Y-188315638D01*
X121408776Y-188319262D01*
X121416125Y-188321190D01*
X121553719Y-188357287D01*
X121553721Y-188357287D01*
X121561069Y-188359215D01*
X121644380Y-188360524D01*
X121710898Y-188361569D01*
X121710901Y-188361569D01*
X121718495Y-188361688D01*
X121871968Y-188326538D01*
X122012625Y-188255795D01*
X122060191Y-188215170D01*
X122126574Y-188158474D01*
X122126576Y-188158471D01*
X122132348Y-188153542D01*
X122224224Y-188025683D01*
X122282950Y-187879598D01*
X122298742Y-187768636D01*
X122304553Y-187727807D01*
X122304553Y-187727804D01*
X122305134Y-187723723D01*
X122305278Y-187710000D01*
X122286363Y-187553694D01*
X122252521Y-187464134D01*
X122248366Y-187453138D01*
X123324758Y-187453138D01*
X123342035Y-187609633D01*
X123396143Y-187757490D01*
X123400380Y-187763796D01*
X123400382Y-187763799D01*
X123434629Y-187814763D01*
X123483958Y-187888172D01*
X123600410Y-187994135D01*
X123645535Y-188018636D01*
X123732099Y-188065637D01*
X123732101Y-188065638D01*
X123738776Y-188069262D01*
X123746125Y-188071190D01*
X123883719Y-188107287D01*
X123883721Y-188107287D01*
X123891069Y-188109215D01*
X123974380Y-188110524D01*
X124040898Y-188111569D01*
X124040901Y-188111569D01*
X124048495Y-188111688D01*
X124201968Y-188076538D01*
X124342625Y-188005795D01*
X124393188Y-187962610D01*
X124456574Y-187908474D01*
X124456576Y-187908471D01*
X124462348Y-187903542D01*
X124554224Y-187775683D01*
X124612950Y-187629598D01*
X124622731Y-187560874D01*
X124634553Y-187477807D01*
X124634553Y-187477804D01*
X124635134Y-187473723D01*
X124635278Y-187460000D01*
X124633053Y-187441609D01*
X124617275Y-187311234D01*
X124616363Y-187303694D01*
X124606681Y-187278072D01*
X124563394Y-187163514D01*
X124563393Y-187163511D01*
X124560710Y-187156412D01*
X124471531Y-187026657D01*
X124404055Y-186966538D01*
X124359648Y-186926972D01*
X124359645Y-186926970D01*
X124353976Y-186921919D01*
X124336346Y-186912584D01*
X124221543Y-186851799D01*
X124221544Y-186851799D01*
X124214831Y-186848245D01*
X124198122Y-186844048D01*
X124069498Y-186811740D01*
X124069496Y-186811740D01*
X124062128Y-186809889D01*
X124054530Y-186809849D01*
X124054528Y-186809849D01*
X123987319Y-186809497D01*
X123904684Y-186809065D01*
X123897305Y-186810837D01*
X123897301Y-186810837D01*
X123758967Y-186844048D01*
X123758963Y-186844049D01*
X123751588Y-186845820D01*
X123611679Y-186918032D01*
X123605957Y-186923024D01*
X123605955Y-186923025D01*
X123498759Y-187016538D01*
X123498756Y-187016541D01*
X123493034Y-187021533D01*
X123488667Y-187027747D01*
X123416247Y-187130790D01*
X123402501Y-187150348D01*
X123345309Y-187297039D01*
X123338881Y-187345866D01*
X123326276Y-187441609D01*
X123324758Y-187453138D01*
X122248366Y-187453138D01*
X122233394Y-187413514D01*
X122233393Y-187413511D01*
X122230710Y-187406412D01*
X122141531Y-187276657D01*
X122050809Y-187195826D01*
X122029648Y-187176972D01*
X122029645Y-187176970D01*
X122023976Y-187171919D01*
X121884831Y-187098245D01*
X121868122Y-187094048D01*
X121739498Y-187061740D01*
X121739496Y-187061740D01*
X121732128Y-187059889D01*
X121724530Y-187059849D01*
X121724528Y-187059849D01*
X121657319Y-187059497D01*
X121574684Y-187059065D01*
X121567305Y-187060837D01*
X121567301Y-187060837D01*
X121428967Y-187094048D01*
X121428963Y-187094049D01*
X121421588Y-187095820D01*
X121338037Y-187138944D01*
X121290433Y-187163514D01*
X121281679Y-187168032D01*
X121275957Y-187173024D01*
X121275955Y-187173025D01*
X121168759Y-187266538D01*
X121168756Y-187266541D01*
X121163034Y-187271533D01*
X121155033Y-187282917D01*
X121079211Y-187390801D01*
X121072501Y-187400348D01*
X121015309Y-187547039D01*
X120994758Y-187703138D01*
X117419928Y-187703138D01*
X117410623Y-186922256D01*
X117429812Y-186853902D01*
X117446546Y-186832643D01*
X118110974Y-186153463D01*
X118172909Y-186118756D01*
X118243776Y-186123043D01*
X118301075Y-186164963D01*
X118326615Y-186231207D01*
X118325964Y-186258021D01*
X118320046Y-186302974D01*
X118314758Y-186343138D01*
X118332035Y-186499633D01*
X118386143Y-186647490D01*
X118390380Y-186653796D01*
X118390382Y-186653799D01*
X118430709Y-186713811D01*
X118473958Y-186778172D01*
X118590410Y-186884135D01*
X118597085Y-186887759D01*
X118722099Y-186955637D01*
X118722101Y-186955638D01*
X118728776Y-186959262D01*
X118736125Y-186961190D01*
X118873719Y-186997287D01*
X118873721Y-186997287D01*
X118881069Y-186999215D01*
X118964380Y-187000524D01*
X119030898Y-187001569D01*
X119030901Y-187001569D01*
X119038495Y-187001688D01*
X119191968Y-186966538D01*
X119332625Y-186895795D01*
X119378828Y-186856334D01*
X119446574Y-186798474D01*
X119446576Y-186798471D01*
X119452348Y-186793542D01*
X119544224Y-186665683D01*
X119602950Y-186519598D01*
X119613690Y-186444135D01*
X119624553Y-186367807D01*
X119624553Y-186367804D01*
X119625134Y-186363723D01*
X119625278Y-186350000D01*
X119606363Y-186193694D01*
X119586466Y-186141038D01*
X119581098Y-186070244D01*
X119614856Y-186007787D01*
X119677022Y-185973495D01*
X119704332Y-185970500D01*
X126453389Y-185970500D01*
X126515535Y-185986893D01*
G37*
%TD.AperFunction*%
%TD*%
M02*
