G04 #@! TF.FileFunction,Legend,Bot*
%FSLAX46Y46*%
G04 Gerber Fmt 4.6, Leading zero omitted, Abs format (unit mm)*
G04 Created by KiCad (PCBNEW 4.0.6) date Monday, July 30, 2018 'PMt' 08:55:28 PM*
%MOMM*%
%LPD*%
G01*
G04 APERTURE LIST*
%ADD10C,0.100000*%
%ADD11C,0.125000*%
%ADD12C,0.200000*%
%ADD13C,0.150000*%
G04 APERTURE END LIST*
D10*
D11*
X173488161Y-130841733D02*
X173107209Y-130841733D01*
X173564352Y-131070305D02*
X173297685Y-130270305D01*
X173031018Y-131070305D01*
X172307209Y-130994114D02*
X172345304Y-131032210D01*
X172459590Y-131070305D01*
X172535780Y-131070305D01*
X172650066Y-131032210D01*
X172726257Y-130956019D01*
X172764352Y-130879829D01*
X172802447Y-130727448D01*
X172802447Y-130613162D01*
X172764352Y-130460781D01*
X172726257Y-130384590D01*
X172650066Y-130308400D01*
X172535780Y-130270305D01*
X172459590Y-130270305D01*
X172345304Y-130308400D01*
X172307209Y-130346495D01*
X172154828Y-131146495D02*
X171545304Y-131146495D01*
X171354828Y-131070305D02*
X171354828Y-130270305D01*
X170973876Y-131070305D02*
X170973876Y-130270305D01*
X170516733Y-131070305D01*
X170516733Y-130270305D01*
X149326399Y-101314305D02*
X149707352Y-101314305D01*
X149745447Y-101695257D01*
X149707352Y-101657162D01*
X149631161Y-101619067D01*
X149440685Y-101619067D01*
X149364495Y-101657162D01*
X149326399Y-101695257D01*
X149288304Y-101771448D01*
X149288304Y-101961924D01*
X149326399Y-102038114D01*
X149364495Y-102076210D01*
X149440685Y-102114305D01*
X149631161Y-102114305D01*
X149707352Y-102076210D01*
X149745447Y-102038114D01*
X149059733Y-101314305D02*
X148793066Y-102114305D01*
X148526399Y-101314305D01*
X147497828Y-101314305D02*
X147345447Y-101314305D01*
X147269256Y-101352400D01*
X147193066Y-101428590D01*
X147154971Y-101580971D01*
X147154971Y-101847638D01*
X147193066Y-102000019D01*
X147269256Y-102076210D01*
X147345447Y-102114305D01*
X147497828Y-102114305D01*
X147574018Y-102076210D01*
X147650209Y-102000019D01*
X147688304Y-101847638D01*
X147688304Y-101580971D01*
X147650209Y-101428590D01*
X147574018Y-101352400D01*
X147497828Y-101314305D01*
X146812114Y-101314305D02*
X146812114Y-101961924D01*
X146774019Y-102038114D01*
X146735923Y-102076210D01*
X146659733Y-102114305D01*
X146507352Y-102114305D01*
X146431161Y-102076210D01*
X146393066Y-102038114D01*
X146354971Y-101961924D01*
X146354971Y-101314305D01*
X146088305Y-101314305D02*
X145631162Y-101314305D01*
X145859733Y-102114305D02*
X145859733Y-101314305D01*
X162858171Y-124263105D02*
X162858171Y-123463105D01*
X162477219Y-124263105D02*
X162477219Y-123463105D01*
X162172457Y-123463105D01*
X162096266Y-123501200D01*
X162058171Y-123539295D01*
X162020076Y-123615486D01*
X162020076Y-123729771D01*
X162058171Y-123805962D01*
X162096266Y-123844057D01*
X162172457Y-123882152D01*
X162477219Y-123882152D01*
X161715314Y-124225010D02*
X161601028Y-124263105D01*
X161410552Y-124263105D01*
X161334362Y-124225010D01*
X161296266Y-124186914D01*
X161258171Y-124110724D01*
X161258171Y-124034533D01*
X161296266Y-123958343D01*
X161334362Y-123920248D01*
X161410552Y-123882152D01*
X161562933Y-123844057D01*
X161639124Y-123805962D01*
X161677219Y-123767867D01*
X161715314Y-123691676D01*
X161715314Y-123615486D01*
X161677219Y-123539295D01*
X161639124Y-123501200D01*
X161562933Y-123463105D01*
X161372457Y-123463105D01*
X161258171Y-123501200D01*
X161105790Y-124339295D02*
X160496266Y-124339295D01*
X160153409Y-123463105D02*
X160001028Y-123463105D01*
X159924837Y-123501200D01*
X159848647Y-123577390D01*
X159810552Y-123729771D01*
X159810552Y-123996438D01*
X159848647Y-124148819D01*
X159924837Y-124225010D01*
X160001028Y-124263105D01*
X160153409Y-124263105D01*
X160229599Y-124225010D01*
X160305790Y-124148819D01*
X160343885Y-123996438D01*
X160343885Y-123729771D01*
X160305790Y-123577390D01*
X160229599Y-123501200D01*
X160153409Y-123463105D01*
X159467695Y-123463105D02*
X159467695Y-124110724D01*
X159429600Y-124186914D01*
X159391504Y-124225010D01*
X159315314Y-124263105D01*
X159162933Y-124263105D01*
X159086742Y-124225010D01*
X159048647Y-124186914D01*
X159010552Y-124110724D01*
X159010552Y-123463105D01*
X158743886Y-123463105D02*
X158286743Y-123463105D01*
X158515314Y-124263105D02*
X158515314Y-123463105D01*
X163696514Y-69411857D02*
X163582228Y-69449952D01*
X163544133Y-69488048D01*
X163506038Y-69564238D01*
X163506038Y-69678524D01*
X163544133Y-69754714D01*
X163582228Y-69792810D01*
X163658419Y-69830905D01*
X163963181Y-69830905D01*
X163963181Y-69030905D01*
X163696514Y-69030905D01*
X163620324Y-69069000D01*
X163582228Y-69107095D01*
X163544133Y-69183286D01*
X163544133Y-69259476D01*
X163582228Y-69335667D01*
X163620324Y-69373762D01*
X163696514Y-69411857D01*
X163963181Y-69411857D01*
X163201276Y-69602333D02*
X162820324Y-69602333D01*
X163277467Y-69830905D02*
X163010800Y-69030905D01*
X162744133Y-69830905D01*
X162591753Y-69030905D02*
X162134610Y-69030905D01*
X162363181Y-69830905D02*
X162363181Y-69030905D01*
X161867943Y-69526143D02*
X161258419Y-69526143D01*
X161563181Y-69830905D02*
X161563181Y-69221381D01*
X160045323Y-130308400D02*
X160121514Y-130270305D01*
X160235799Y-130270305D01*
X160350085Y-130308400D01*
X160426276Y-130384590D01*
X160464371Y-130460781D01*
X160502466Y-130613162D01*
X160502466Y-130727448D01*
X160464371Y-130879829D01*
X160426276Y-130956019D01*
X160350085Y-131032210D01*
X160235799Y-131070305D01*
X160159609Y-131070305D01*
X160045323Y-131032210D01*
X160007228Y-130994114D01*
X160007228Y-130727448D01*
X160159609Y-130727448D01*
X159664371Y-131070305D02*
X159664371Y-130270305D01*
X159207228Y-131070305D01*
X159207228Y-130270305D01*
X158826276Y-131070305D02*
X158826276Y-130270305D01*
X158635800Y-130270305D01*
X158521514Y-130308400D01*
X158445323Y-130384590D01*
X158407228Y-130460781D01*
X158369133Y-130613162D01*
X158369133Y-130727448D01*
X158407228Y-130879829D01*
X158445323Y-130956019D01*
X158521514Y-131032210D01*
X158635800Y-131070305D01*
X158826276Y-131070305D01*
X153765305Y-89230401D02*
X153765305Y-88849448D01*
X154146257Y-88811353D01*
X154108162Y-88849448D01*
X154070067Y-88925639D01*
X154070067Y-89116115D01*
X154108162Y-89192305D01*
X154146257Y-89230401D01*
X154222448Y-89268496D01*
X154412924Y-89268496D01*
X154489114Y-89230401D01*
X154527210Y-89192305D01*
X154565305Y-89116115D01*
X154565305Y-88925639D01*
X154527210Y-88849448D01*
X154489114Y-88811353D01*
X153765305Y-89497067D02*
X154565305Y-89763734D01*
X153765305Y-90030401D01*
X153765305Y-91058972D02*
X153765305Y-91211353D01*
X153803400Y-91287544D01*
X153879590Y-91363734D01*
X154031971Y-91401829D01*
X154298638Y-91401829D01*
X154451019Y-91363734D01*
X154527210Y-91287544D01*
X154565305Y-91211353D01*
X154565305Y-91058972D01*
X154527210Y-90982782D01*
X154451019Y-90906591D01*
X154298638Y-90868496D01*
X154031971Y-90868496D01*
X153879590Y-90906591D01*
X153803400Y-90982782D01*
X153765305Y-91058972D01*
X153765305Y-91744686D02*
X154412924Y-91744686D01*
X154489114Y-91782781D01*
X154527210Y-91820877D01*
X154565305Y-91897067D01*
X154565305Y-92049448D01*
X154527210Y-92125639D01*
X154489114Y-92163734D01*
X154412924Y-92201829D01*
X153765305Y-92201829D01*
X153765305Y-92468495D02*
X153765305Y-92925638D01*
X154565305Y-92697067D02*
X153765305Y-92697067D01*
X172586657Y-72269657D02*
X172624752Y-72383943D01*
X172662848Y-72422038D01*
X172739038Y-72460133D01*
X172853324Y-72460133D01*
X172929514Y-72422038D01*
X172967610Y-72383943D01*
X173005705Y-72307752D01*
X173005705Y-72002990D01*
X172205705Y-72002990D01*
X172205705Y-72269657D01*
X172243800Y-72345847D01*
X172281895Y-72383943D01*
X172358086Y-72422038D01*
X172434276Y-72422038D01*
X172510467Y-72383943D01*
X172548562Y-72345847D01*
X172586657Y-72269657D01*
X172586657Y-72002990D01*
X173005705Y-73145847D02*
X172586657Y-73145847D01*
X172510467Y-73107752D01*
X172472371Y-73031562D01*
X172472371Y-72879181D01*
X172510467Y-72802990D01*
X172967610Y-73145847D02*
X173005705Y-73069657D01*
X173005705Y-72879181D01*
X172967610Y-72802990D01*
X172891419Y-72764895D01*
X172815229Y-72764895D01*
X172739038Y-72802990D01*
X172700943Y-72879181D01*
X172700943Y-73069657D01*
X172662848Y-73145847D01*
X172472371Y-73412514D02*
X172472371Y-73717276D01*
X172205705Y-73526800D02*
X172891419Y-73526800D01*
X172967610Y-73564895D01*
X173005705Y-73641086D01*
X173005705Y-73717276D01*
X172472371Y-73869657D02*
X172472371Y-74174419D01*
X172205705Y-73983943D02*
X172891419Y-73983943D01*
X172967610Y-74022038D01*
X173005705Y-74098229D01*
X173005705Y-74174419D01*
X172967610Y-74745848D02*
X173005705Y-74669658D01*
X173005705Y-74517277D01*
X172967610Y-74441086D01*
X172891419Y-74402991D01*
X172586657Y-74402991D01*
X172510467Y-74441086D01*
X172472371Y-74517277D01*
X172472371Y-74669658D01*
X172510467Y-74745848D01*
X172586657Y-74783943D01*
X172662848Y-74783943D01*
X172739038Y-74402991D01*
X173005705Y-75126800D02*
X172472371Y-75126800D01*
X172624752Y-75126800D02*
X172548562Y-75164895D01*
X172510467Y-75202991D01*
X172472371Y-75279181D01*
X172472371Y-75355372D01*
X172472371Y-75545848D02*
X173005705Y-75736324D01*
X172472371Y-75926800D02*
X173005705Y-75736324D01*
X173196181Y-75660133D01*
X173234276Y-75622038D01*
X173272371Y-75545848D01*
X172700943Y-76841086D02*
X172700943Y-77450610D01*
X160343857Y-74555657D02*
X160381952Y-74669943D01*
X160420048Y-74708038D01*
X160496238Y-74746133D01*
X160610524Y-74746133D01*
X160686714Y-74708038D01*
X160724810Y-74669943D01*
X160762905Y-74593752D01*
X160762905Y-74288990D01*
X159962905Y-74288990D01*
X159962905Y-74555657D01*
X160001000Y-74631847D01*
X160039095Y-74669943D01*
X160115286Y-74708038D01*
X160191476Y-74708038D01*
X160267667Y-74669943D01*
X160305762Y-74631847D01*
X160343857Y-74555657D01*
X160343857Y-74288990D01*
X160762905Y-75431847D02*
X160343857Y-75431847D01*
X160267667Y-75393752D01*
X160229571Y-75317562D01*
X160229571Y-75165181D01*
X160267667Y-75088990D01*
X160724810Y-75431847D02*
X160762905Y-75355657D01*
X160762905Y-75165181D01*
X160724810Y-75088990D01*
X160648619Y-75050895D01*
X160572429Y-75050895D01*
X160496238Y-75088990D01*
X160458143Y-75165181D01*
X160458143Y-75355657D01*
X160420048Y-75431847D01*
X160229571Y-75698514D02*
X160229571Y-76003276D01*
X159962905Y-75812800D02*
X160648619Y-75812800D01*
X160724810Y-75850895D01*
X160762905Y-75927086D01*
X160762905Y-76003276D01*
X160229571Y-76155657D02*
X160229571Y-76460419D01*
X159962905Y-76269943D02*
X160648619Y-76269943D01*
X160724810Y-76308038D01*
X160762905Y-76384229D01*
X160762905Y-76460419D01*
X160724810Y-77031848D02*
X160762905Y-76955658D01*
X160762905Y-76803277D01*
X160724810Y-76727086D01*
X160648619Y-76688991D01*
X160343857Y-76688991D01*
X160267667Y-76727086D01*
X160229571Y-76803277D01*
X160229571Y-76955658D01*
X160267667Y-77031848D01*
X160343857Y-77069943D01*
X160420048Y-77069943D01*
X160496238Y-76688991D01*
X160762905Y-77412800D02*
X160229571Y-77412800D01*
X160381952Y-77412800D02*
X160305762Y-77450895D01*
X160267667Y-77488991D01*
X160229571Y-77565181D01*
X160229571Y-77641372D01*
X160229571Y-77831848D02*
X160762905Y-78022324D01*
X160229571Y-78212800D02*
X160762905Y-78022324D01*
X160953381Y-77946133D01*
X160991476Y-77908038D01*
X161029571Y-77831848D01*
X160458143Y-79127086D02*
X160458143Y-79736610D01*
X160762905Y-79431848D02*
X160153381Y-79431848D01*
X137749981Y-120275305D02*
X137749981Y-119475305D01*
X137445219Y-119475305D01*
X137369028Y-119513400D01*
X137330933Y-119551495D01*
X137292838Y-119627686D01*
X137292838Y-119741971D01*
X137330933Y-119818162D01*
X137369028Y-119856257D01*
X137445219Y-119894352D01*
X137749981Y-119894352D01*
X136835695Y-120275305D02*
X136911886Y-120237210D01*
X136949981Y-120199114D01*
X136988076Y-120122924D01*
X136988076Y-119894352D01*
X136949981Y-119818162D01*
X136911886Y-119780067D01*
X136835695Y-119741971D01*
X136721409Y-119741971D01*
X136645219Y-119780067D01*
X136607124Y-119818162D01*
X136569028Y-119894352D01*
X136569028Y-120122924D01*
X136607124Y-120199114D01*
X136645219Y-120237210D01*
X136721409Y-120275305D01*
X136835695Y-120275305D01*
X136302361Y-119741971D02*
X136149980Y-120275305D01*
X135997599Y-119894352D01*
X135845218Y-120275305D01*
X135692837Y-119741971D01*
X135083314Y-120237210D02*
X135159504Y-120275305D01*
X135311885Y-120275305D01*
X135388076Y-120237210D01*
X135426171Y-120161019D01*
X135426171Y-119856257D01*
X135388076Y-119780067D01*
X135311885Y-119741971D01*
X135159504Y-119741971D01*
X135083314Y-119780067D01*
X135045219Y-119856257D01*
X135045219Y-119932448D01*
X135426171Y-120008638D01*
X134702362Y-120275305D02*
X134702362Y-119741971D01*
X134702362Y-119894352D02*
X134664267Y-119818162D01*
X134626171Y-119780067D01*
X134549981Y-119741971D01*
X134473790Y-119741971D01*
X133445219Y-119475305D02*
X133292838Y-119475305D01*
X133216647Y-119513400D01*
X133140457Y-119589590D01*
X133102362Y-119741971D01*
X133102362Y-120008638D01*
X133140457Y-120161019D01*
X133216647Y-120237210D01*
X133292838Y-120275305D01*
X133445219Y-120275305D01*
X133521409Y-120237210D01*
X133597600Y-120161019D01*
X133635695Y-120008638D01*
X133635695Y-119741971D01*
X133597600Y-119589590D01*
X133521409Y-119513400D01*
X133445219Y-119475305D01*
X132759505Y-119475305D02*
X132759505Y-120122924D01*
X132721410Y-120199114D01*
X132683314Y-120237210D01*
X132607124Y-120275305D01*
X132454743Y-120275305D01*
X132378552Y-120237210D01*
X132340457Y-120199114D01*
X132302362Y-120122924D01*
X132302362Y-119475305D01*
X132035696Y-119475305D02*
X131578553Y-119475305D01*
X131807124Y-120275305D02*
X131807124Y-119475305D01*
X130283314Y-119513400D02*
X130359505Y-119475305D01*
X130473790Y-119475305D01*
X130588076Y-119513400D01*
X130664267Y-119589590D01*
X130702362Y-119665781D01*
X130740457Y-119818162D01*
X130740457Y-119932448D01*
X130702362Y-120084829D01*
X130664267Y-120161019D01*
X130588076Y-120237210D01*
X130473790Y-120275305D01*
X130397600Y-120275305D01*
X130283314Y-120237210D01*
X130245219Y-120199114D01*
X130245219Y-119932448D01*
X130397600Y-119932448D01*
X129902362Y-120275305D02*
X129902362Y-119475305D01*
X129445219Y-120275305D01*
X129445219Y-119475305D01*
X129064267Y-120275305D02*
X129064267Y-119475305D01*
X128873791Y-119475305D01*
X128759505Y-119513400D01*
X128683314Y-119589590D01*
X128645219Y-119665781D01*
X128607124Y-119818162D01*
X128607124Y-119932448D01*
X128645219Y-120084829D01*
X128683314Y-120161019D01*
X128759505Y-120237210D01*
X128873791Y-120275305D01*
X129064267Y-120275305D01*
D12*
X150447476Y-111941143D02*
X150495095Y-111988762D01*
X150637952Y-112036381D01*
X150733190Y-112036381D01*
X150876048Y-111988762D01*
X150971286Y-111893524D01*
X151018905Y-111798286D01*
X151066524Y-111607810D01*
X151066524Y-111464952D01*
X151018905Y-111274476D01*
X150971286Y-111179238D01*
X150876048Y-111084000D01*
X150733190Y-111036381D01*
X150637952Y-111036381D01*
X150495095Y-111084000D01*
X150447476Y-111131619D01*
X149876048Y-112036381D02*
X149971286Y-111988762D01*
X150018905Y-111941143D01*
X150066524Y-111845905D01*
X150066524Y-111560190D01*
X150018905Y-111464952D01*
X149971286Y-111417333D01*
X149876048Y-111369714D01*
X149733190Y-111369714D01*
X149637952Y-111417333D01*
X149590333Y-111464952D01*
X149542714Y-111560190D01*
X149542714Y-111845905D01*
X149590333Y-111941143D01*
X149637952Y-111988762D01*
X149733190Y-112036381D01*
X149876048Y-112036381D01*
X149114143Y-111369714D02*
X149114143Y-112369714D01*
X149114143Y-111417333D02*
X149018905Y-111369714D01*
X148828428Y-111369714D01*
X148733190Y-111417333D01*
X148685571Y-111464952D01*
X148637952Y-111560190D01*
X148637952Y-111845905D01*
X148685571Y-111941143D01*
X148733190Y-111988762D01*
X148828428Y-112036381D01*
X149018905Y-112036381D01*
X149114143Y-111988762D01*
X148304619Y-111369714D02*
X148066524Y-112036381D01*
X147828428Y-111369714D02*
X148066524Y-112036381D01*
X148161762Y-112274476D01*
X148209381Y-112322095D01*
X148304619Y-112369714D01*
X147447476Y-112036381D02*
X147447476Y-111369714D01*
X147447476Y-111560190D02*
X147399857Y-111464952D01*
X147352238Y-111417333D01*
X147257000Y-111369714D01*
X147161761Y-111369714D01*
X146828428Y-112036381D02*
X146828428Y-111369714D01*
X146828428Y-111036381D02*
X146876047Y-111084000D01*
X146828428Y-111131619D01*
X146780809Y-111084000D01*
X146828428Y-111036381D01*
X146828428Y-111131619D01*
X145923666Y-111369714D02*
X145923666Y-112179238D01*
X145971285Y-112274476D01*
X146018904Y-112322095D01*
X146114143Y-112369714D01*
X146257000Y-112369714D01*
X146352238Y-112322095D01*
X145923666Y-111988762D02*
X146018904Y-112036381D01*
X146209381Y-112036381D01*
X146304619Y-111988762D01*
X146352238Y-111941143D01*
X146399857Y-111845905D01*
X146399857Y-111560190D01*
X146352238Y-111464952D01*
X146304619Y-111417333D01*
X146209381Y-111369714D01*
X146018904Y-111369714D01*
X145923666Y-111417333D01*
X145447476Y-112036381D02*
X145447476Y-111036381D01*
X145018904Y-112036381D02*
X145018904Y-111512571D01*
X145066523Y-111417333D01*
X145161761Y-111369714D01*
X145304619Y-111369714D01*
X145399857Y-111417333D01*
X145447476Y-111464952D01*
X144685571Y-111369714D02*
X144304619Y-111369714D01*
X144542714Y-111036381D02*
X144542714Y-111893524D01*
X144495095Y-111988762D01*
X144399857Y-112036381D01*
X144304619Y-112036381D01*
X143256999Y-111131619D02*
X143209380Y-111084000D01*
X143114142Y-111036381D01*
X142876046Y-111036381D01*
X142780808Y-111084000D01*
X142733189Y-111131619D01*
X142685570Y-111226857D01*
X142685570Y-111322095D01*
X142733189Y-111464952D01*
X143304618Y-112036381D01*
X142685570Y-112036381D01*
X142066523Y-111036381D02*
X141971284Y-111036381D01*
X141876046Y-111084000D01*
X141828427Y-111131619D01*
X141780808Y-111226857D01*
X141733189Y-111417333D01*
X141733189Y-111655429D01*
X141780808Y-111845905D01*
X141828427Y-111941143D01*
X141876046Y-111988762D01*
X141971284Y-112036381D01*
X142066523Y-112036381D01*
X142161761Y-111988762D01*
X142209380Y-111941143D01*
X142256999Y-111845905D01*
X142304618Y-111655429D01*
X142304618Y-111417333D01*
X142256999Y-111226857D01*
X142209380Y-111131619D01*
X142161761Y-111084000D01*
X142066523Y-111036381D01*
X140780808Y-112036381D02*
X141352237Y-112036381D01*
X141066523Y-112036381D02*
X141066523Y-111036381D01*
X141161761Y-111179238D01*
X141256999Y-111274476D01*
X141352237Y-111322095D01*
X140209380Y-111464952D02*
X140304618Y-111417333D01*
X140352237Y-111369714D01*
X140399856Y-111274476D01*
X140399856Y-111226857D01*
X140352237Y-111131619D01*
X140304618Y-111084000D01*
X140209380Y-111036381D01*
X140018903Y-111036381D01*
X139923665Y-111084000D01*
X139876046Y-111131619D01*
X139828427Y-111226857D01*
X139828427Y-111274476D01*
X139876046Y-111369714D01*
X139923665Y-111417333D01*
X140018903Y-111464952D01*
X140209380Y-111464952D01*
X140304618Y-111512571D01*
X140352237Y-111560190D01*
X140399856Y-111655429D01*
X140399856Y-111845905D01*
X140352237Y-111941143D01*
X140304618Y-111988762D01*
X140209380Y-112036381D01*
X140018903Y-112036381D01*
X139923665Y-111988762D01*
X139876046Y-111941143D01*
X139828427Y-111845905D01*
X139828427Y-111655429D01*
X139876046Y-111560190D01*
X139923665Y-111512571D01*
X140018903Y-111464952D01*
X139352237Y-111988762D02*
X139352237Y-112036381D01*
X139399856Y-112131619D01*
X139447475Y-112179238D01*
X137590332Y-111941143D02*
X137637951Y-111988762D01*
X137780808Y-112036381D01*
X137876046Y-112036381D01*
X138018904Y-111988762D01*
X138114142Y-111893524D01*
X138161761Y-111798286D01*
X138209380Y-111607810D01*
X138209380Y-111464952D01*
X138161761Y-111274476D01*
X138114142Y-111179238D01*
X138018904Y-111084000D01*
X137876046Y-111036381D01*
X137780808Y-111036381D01*
X137637951Y-111084000D01*
X137590332Y-111131619D01*
X137018904Y-112036381D02*
X137114142Y-111988762D01*
X137161761Y-111941143D01*
X137209380Y-111845905D01*
X137209380Y-111560190D01*
X137161761Y-111464952D01*
X137114142Y-111417333D01*
X137018904Y-111369714D01*
X136876046Y-111369714D01*
X136780808Y-111417333D01*
X136733189Y-111464952D01*
X136685570Y-111560190D01*
X136685570Y-111845905D01*
X136733189Y-111941143D01*
X136780808Y-111988762D01*
X136876046Y-112036381D01*
X137018904Y-112036381D01*
X136256999Y-111369714D02*
X136256999Y-112036381D01*
X136256999Y-111464952D02*
X136209380Y-111417333D01*
X136114142Y-111369714D01*
X135971284Y-111369714D01*
X135876046Y-111417333D01*
X135828427Y-111512571D01*
X135828427Y-112036381D01*
X135352237Y-111369714D02*
X135352237Y-112036381D01*
X135352237Y-111464952D02*
X135304618Y-111417333D01*
X135209380Y-111369714D01*
X135066522Y-111369714D01*
X134971284Y-111417333D01*
X134923665Y-111512571D01*
X134923665Y-112036381D01*
X134066522Y-111988762D02*
X134161760Y-112036381D01*
X134352237Y-112036381D01*
X134447475Y-111988762D01*
X134495094Y-111893524D01*
X134495094Y-111512571D01*
X134447475Y-111417333D01*
X134352237Y-111369714D01*
X134161760Y-111369714D01*
X134066522Y-111417333D01*
X134018903Y-111512571D01*
X134018903Y-111607810D01*
X134495094Y-111703048D01*
X133161760Y-111988762D02*
X133256998Y-112036381D01*
X133447475Y-112036381D01*
X133542713Y-111988762D01*
X133590332Y-111941143D01*
X133637951Y-111845905D01*
X133637951Y-111560190D01*
X133590332Y-111464952D01*
X133542713Y-111417333D01*
X133447475Y-111369714D01*
X133256998Y-111369714D01*
X133161760Y-111417333D01*
X132876046Y-111369714D02*
X132495094Y-111369714D01*
X132733189Y-111036381D02*
X132733189Y-111893524D01*
X132685570Y-111988762D01*
X132590332Y-112036381D01*
X132495094Y-112036381D01*
X131828426Y-111512571D02*
X131685569Y-111560190D01*
X131637950Y-111607810D01*
X131590331Y-111703048D01*
X131590331Y-111845905D01*
X131637950Y-111941143D01*
X131685569Y-111988762D01*
X131780807Y-112036381D01*
X132161760Y-112036381D01*
X132161760Y-111036381D01*
X131828426Y-111036381D01*
X131733188Y-111084000D01*
X131685569Y-111131619D01*
X131637950Y-111226857D01*
X131637950Y-111322095D01*
X131685569Y-111417333D01*
X131733188Y-111464952D01*
X131828426Y-111512571D01*
X132161760Y-111512571D01*
X131018903Y-112036381D02*
X131114141Y-111988762D01*
X131161760Y-111941143D01*
X131209379Y-111845905D01*
X131209379Y-111560190D01*
X131161760Y-111464952D01*
X131114141Y-111417333D01*
X131018903Y-111369714D01*
X130876045Y-111369714D01*
X130780807Y-111417333D01*
X130733188Y-111464952D01*
X130685569Y-111560190D01*
X130685569Y-111845905D01*
X130733188Y-111941143D01*
X130780807Y-111988762D01*
X130876045Y-112036381D01*
X131018903Y-112036381D01*
X130352236Y-112036381D02*
X129828426Y-111369714D01*
X130352236Y-111369714D02*
X129828426Y-112036381D01*
X128685569Y-112036381D02*
X128685569Y-111036381D01*
X128304616Y-111036381D01*
X128209378Y-111084000D01*
X128161759Y-111131619D01*
X128114140Y-111226857D01*
X128114140Y-111369714D01*
X128161759Y-111464952D01*
X128209378Y-111512571D01*
X128304616Y-111560190D01*
X128685569Y-111560190D01*
X127685569Y-112036381D02*
X127685569Y-111369714D01*
X127685569Y-111560190D02*
X127637950Y-111464952D01*
X127590331Y-111417333D01*
X127495093Y-111369714D01*
X127399854Y-111369714D01*
X126923664Y-112036381D02*
X127018902Y-111988762D01*
X127066521Y-111941143D01*
X127114140Y-111845905D01*
X127114140Y-111560190D01*
X127066521Y-111464952D01*
X127018902Y-111417333D01*
X126923664Y-111369714D01*
X126780806Y-111369714D01*
X126685568Y-111417333D01*
X126637949Y-111464952D01*
X126590330Y-111560190D01*
X126590330Y-111845905D01*
X126637949Y-111941143D01*
X126685568Y-111988762D01*
X126780806Y-112036381D01*
X126923664Y-112036381D01*
X126161759Y-111369714D02*
X126161759Y-112226857D01*
X126209378Y-112322095D01*
X126304616Y-112369714D01*
X126352235Y-112369714D01*
X126161759Y-111036381D02*
X126209378Y-111084000D01*
X126161759Y-111131619D01*
X126114140Y-111084000D01*
X126161759Y-111036381D01*
X126161759Y-111131619D01*
X125304616Y-111988762D02*
X125399854Y-112036381D01*
X125590331Y-112036381D01*
X125685569Y-111988762D01*
X125733188Y-111893524D01*
X125733188Y-111512571D01*
X125685569Y-111417333D01*
X125590331Y-111369714D01*
X125399854Y-111369714D01*
X125304616Y-111417333D01*
X125256997Y-111512571D01*
X125256997Y-111607810D01*
X125733188Y-111703048D01*
X124399854Y-111988762D02*
X124495092Y-112036381D01*
X124685569Y-112036381D01*
X124780807Y-111988762D01*
X124828426Y-111941143D01*
X124876045Y-111845905D01*
X124876045Y-111560190D01*
X124828426Y-111464952D01*
X124780807Y-111417333D01*
X124685569Y-111369714D01*
X124495092Y-111369714D01*
X124399854Y-111417333D01*
X124114140Y-111369714D02*
X123733188Y-111369714D01*
X123971283Y-111036381D02*
X123971283Y-111893524D01*
X123923664Y-111988762D01*
X123828426Y-112036381D01*
X123733188Y-112036381D01*
X151018905Y-113736381D02*
X151018905Y-112736381D01*
X150447476Y-113736381D01*
X150447476Y-112736381D01*
X149971286Y-113212571D02*
X149637952Y-113212571D01*
X149495095Y-113736381D02*
X149971286Y-113736381D01*
X149971286Y-112736381D01*
X149495095Y-112736381D01*
X148876048Y-112736381D02*
X148685571Y-112736381D01*
X148590333Y-112784000D01*
X148495095Y-112879238D01*
X148447476Y-113069714D01*
X148447476Y-113403048D01*
X148495095Y-113593524D01*
X148590333Y-113688762D01*
X148685571Y-113736381D01*
X148876048Y-113736381D01*
X148971286Y-113688762D01*
X149066524Y-113593524D01*
X149114143Y-113403048D01*
X149114143Y-113069714D01*
X149066524Y-112879238D01*
X148971286Y-112784000D01*
X148876048Y-112736381D01*
X147257000Y-112736381D02*
X147257000Y-113545905D01*
X147209381Y-113641143D01*
X147161762Y-113688762D01*
X147066524Y-113736381D01*
X146876047Y-113736381D01*
X146780809Y-113688762D01*
X146733190Y-113641143D01*
X146685571Y-113545905D01*
X146685571Y-112736381D01*
X146257000Y-113688762D02*
X146114143Y-113736381D01*
X145876047Y-113736381D01*
X145780809Y-113688762D01*
X145733190Y-113641143D01*
X145685571Y-113545905D01*
X145685571Y-113450667D01*
X145733190Y-113355429D01*
X145780809Y-113307810D01*
X145876047Y-113260190D01*
X146066524Y-113212571D01*
X146161762Y-113164952D01*
X146209381Y-113117333D01*
X146257000Y-113022095D01*
X146257000Y-112926857D01*
X146209381Y-112831619D01*
X146161762Y-112784000D01*
X146066524Y-112736381D01*
X145828428Y-112736381D01*
X145685571Y-112784000D01*
X144923666Y-113212571D02*
X144780809Y-113260190D01*
X144733190Y-113307810D01*
X144685571Y-113403048D01*
X144685571Y-113545905D01*
X144733190Y-113641143D01*
X144780809Y-113688762D01*
X144876047Y-113736381D01*
X145257000Y-113736381D01*
X145257000Y-112736381D01*
X144923666Y-112736381D01*
X144828428Y-112784000D01*
X144780809Y-112831619D01*
X144733190Y-112926857D01*
X144733190Y-113022095D01*
X144780809Y-113117333D01*
X144828428Y-113164952D01*
X144923666Y-113212571D01*
X145257000Y-113212571D01*
X143495095Y-113736381D02*
X143495095Y-112736381D01*
X143495095Y-113212571D02*
X142923666Y-113212571D01*
X142923666Y-113736381D02*
X142923666Y-112736381D01*
X142495095Y-113450667D02*
X142018904Y-113450667D01*
X142590333Y-113736381D02*
X142257000Y-112736381D01*
X141923666Y-113736381D01*
X141733190Y-112736381D02*
X141161761Y-112736381D01*
X141447476Y-113736381D02*
X141447476Y-112736381D01*
X140209380Y-112736381D02*
X139876047Y-113736381D01*
X139542713Y-112736381D01*
X138828427Y-113688762D02*
X138923665Y-113736381D01*
X139114142Y-113736381D01*
X139209380Y-113688762D01*
X139256999Y-113593524D01*
X139256999Y-113212571D01*
X139209380Y-113117333D01*
X139114142Y-113069714D01*
X138923665Y-113069714D01*
X138828427Y-113117333D01*
X138780808Y-113212571D01*
X138780808Y-113307810D01*
X139256999Y-113403048D01*
X138352237Y-113736381D02*
X138352237Y-113069714D01*
X138352237Y-113260190D02*
X138304618Y-113164952D01*
X138256999Y-113117333D01*
X138161761Y-113069714D01*
X138066522Y-113069714D01*
X137780808Y-113688762D02*
X137685570Y-113736381D01*
X137495094Y-113736381D01*
X137399855Y-113688762D01*
X137352236Y-113593524D01*
X137352236Y-113545905D01*
X137399855Y-113450667D01*
X137495094Y-113403048D01*
X137637951Y-113403048D01*
X137733189Y-113355429D01*
X137780808Y-113260190D01*
X137780808Y-113212571D01*
X137733189Y-113117333D01*
X137637951Y-113069714D01*
X137495094Y-113069714D01*
X137399855Y-113117333D01*
X136923665Y-113736381D02*
X136923665Y-113069714D01*
X136923665Y-112736381D02*
X136971284Y-112784000D01*
X136923665Y-112831619D01*
X136876046Y-112784000D01*
X136923665Y-112736381D01*
X136923665Y-112831619D01*
X136304618Y-113736381D02*
X136399856Y-113688762D01*
X136447475Y-113641143D01*
X136495094Y-113545905D01*
X136495094Y-113260190D01*
X136447475Y-113164952D01*
X136399856Y-113117333D01*
X136304618Y-113069714D01*
X136161760Y-113069714D01*
X136066522Y-113117333D01*
X136018903Y-113164952D01*
X135971284Y-113260190D01*
X135971284Y-113545905D01*
X136018903Y-113641143D01*
X136066522Y-113688762D01*
X136161760Y-113736381D01*
X136304618Y-113736381D01*
X135542713Y-113069714D02*
X135542713Y-113736381D01*
X135542713Y-113164952D02*
X135495094Y-113117333D01*
X135399856Y-113069714D01*
X135256998Y-113069714D01*
X135161760Y-113117333D01*
X135114141Y-113212571D01*
X135114141Y-113736381D01*
X133447474Y-113069714D02*
X133447474Y-113736381D01*
X133685570Y-112688762D02*
X133923665Y-113403048D01*
X133304617Y-113403048D01*
X132923665Y-113641143D02*
X132876046Y-113688762D01*
X132923665Y-113736381D01*
X132971284Y-113688762D01*
X132923665Y-113641143D01*
X132923665Y-113736381D01*
X132542713Y-112736381D02*
X131876046Y-112736381D01*
X132304618Y-113736381D01*
X131495094Y-113641143D02*
X131447475Y-113688762D01*
X131495094Y-113736381D01*
X131542713Y-113688762D01*
X131495094Y-113641143D01*
X131495094Y-113736381D01*
X131066523Y-112831619D02*
X131018904Y-112784000D01*
X130923666Y-112736381D01*
X130685570Y-112736381D01*
X130590332Y-112784000D01*
X130542713Y-112831619D01*
X130495094Y-112926857D01*
X130495094Y-113022095D01*
X130542713Y-113164952D01*
X131114142Y-113736381D01*
X130495094Y-113736381D01*
X151114143Y-114769714D02*
X150923667Y-115436381D01*
X150733190Y-114960190D01*
X150542714Y-115436381D01*
X150352238Y-114769714D01*
X150066524Y-114769714D02*
X149876048Y-115436381D01*
X149685571Y-114960190D01*
X149495095Y-115436381D01*
X149304619Y-114769714D01*
X149018905Y-114769714D02*
X148828429Y-115436381D01*
X148637952Y-114960190D01*
X148447476Y-115436381D01*
X148257000Y-114769714D01*
X147876048Y-115341143D02*
X147828429Y-115388762D01*
X147876048Y-115436381D01*
X147923667Y-115388762D01*
X147876048Y-115341143D01*
X147876048Y-115436381D01*
X146971286Y-115388762D02*
X147066524Y-115436381D01*
X147257001Y-115436381D01*
X147352239Y-115388762D01*
X147399858Y-115341143D01*
X147447477Y-115245905D01*
X147447477Y-114960190D01*
X147399858Y-114864952D01*
X147352239Y-114817333D01*
X147257001Y-114769714D01*
X147066524Y-114769714D01*
X146971286Y-114817333D01*
X146399858Y-115436381D02*
X146495096Y-115388762D01*
X146542715Y-115341143D01*
X146590334Y-115245905D01*
X146590334Y-114960190D01*
X146542715Y-114864952D01*
X146495096Y-114817333D01*
X146399858Y-114769714D01*
X146257000Y-114769714D01*
X146161762Y-114817333D01*
X146114143Y-114864952D01*
X146066524Y-114960190D01*
X146066524Y-115245905D01*
X146114143Y-115341143D01*
X146161762Y-115388762D01*
X146257000Y-115436381D01*
X146399858Y-115436381D01*
X145637953Y-114769714D02*
X145637953Y-115436381D01*
X145637953Y-114864952D02*
X145590334Y-114817333D01*
X145495096Y-114769714D01*
X145352238Y-114769714D01*
X145257000Y-114817333D01*
X145209381Y-114912571D01*
X145209381Y-115436381D01*
X144733191Y-114769714D02*
X144733191Y-115436381D01*
X144733191Y-114864952D02*
X144685572Y-114817333D01*
X144590334Y-114769714D01*
X144447476Y-114769714D01*
X144352238Y-114817333D01*
X144304619Y-114912571D01*
X144304619Y-115436381D01*
X143447476Y-115388762D02*
X143542714Y-115436381D01*
X143733191Y-115436381D01*
X143828429Y-115388762D01*
X143876048Y-115293524D01*
X143876048Y-114912571D01*
X143828429Y-114817333D01*
X143733191Y-114769714D01*
X143542714Y-114769714D01*
X143447476Y-114817333D01*
X143399857Y-114912571D01*
X143399857Y-115007810D01*
X143876048Y-115103048D01*
X142542714Y-115388762D02*
X142637952Y-115436381D01*
X142828429Y-115436381D01*
X142923667Y-115388762D01*
X142971286Y-115341143D01*
X143018905Y-115245905D01*
X143018905Y-114960190D01*
X142971286Y-114864952D01*
X142923667Y-114817333D01*
X142828429Y-114769714D01*
X142637952Y-114769714D01*
X142542714Y-114817333D01*
X142257000Y-114769714D02*
X141876048Y-114769714D01*
X142114143Y-114436381D02*
X142114143Y-115293524D01*
X142066524Y-115388762D01*
X141971286Y-115436381D01*
X141876048Y-115436381D01*
X141542714Y-115436381D02*
X141542714Y-114436381D01*
X141542714Y-114817333D02*
X141447476Y-114769714D01*
X141256999Y-114769714D01*
X141161761Y-114817333D01*
X141114142Y-114864952D01*
X141066523Y-114960190D01*
X141066523Y-115245905D01*
X141114142Y-115341143D01*
X141161761Y-115388762D01*
X141256999Y-115436381D01*
X141447476Y-115436381D01*
X141542714Y-115388762D01*
X140495095Y-115436381D02*
X140590333Y-115388762D01*
X140637952Y-115341143D01*
X140685571Y-115245905D01*
X140685571Y-114960190D01*
X140637952Y-114864952D01*
X140590333Y-114817333D01*
X140495095Y-114769714D01*
X140352237Y-114769714D01*
X140256999Y-114817333D01*
X140209380Y-114864952D01*
X140161761Y-114960190D01*
X140161761Y-115245905D01*
X140209380Y-115341143D01*
X140256999Y-115388762D01*
X140352237Y-115436381D01*
X140495095Y-115436381D01*
X139828428Y-115436381D02*
X139304618Y-114769714D01*
X139828428Y-114769714D02*
X139304618Y-115436381D01*
X138923666Y-115341143D02*
X138876047Y-115388762D01*
X138923666Y-115436381D01*
X138971285Y-115388762D01*
X138923666Y-115341143D01*
X138923666Y-115436381D01*
X138590333Y-114769714D02*
X138209381Y-114769714D01*
X138447476Y-114436381D02*
X138447476Y-115293524D01*
X138399857Y-115388762D01*
X138304619Y-115436381D01*
X138209381Y-115436381D01*
X137495094Y-115388762D02*
X137590332Y-115436381D01*
X137780809Y-115436381D01*
X137876047Y-115388762D01*
X137923666Y-115293524D01*
X137923666Y-114912571D01*
X137876047Y-114817333D01*
X137780809Y-114769714D01*
X137590332Y-114769714D01*
X137495094Y-114817333D01*
X137447475Y-114912571D01*
X137447475Y-115007810D01*
X137923666Y-115103048D01*
X136590332Y-115388762D02*
X136685570Y-115436381D01*
X136876047Y-115436381D01*
X136971285Y-115388762D01*
X137018904Y-115341143D01*
X137066523Y-115245905D01*
X137066523Y-114960190D01*
X137018904Y-114864952D01*
X136971285Y-114817333D01*
X136876047Y-114769714D01*
X136685570Y-114769714D01*
X136590332Y-114817333D01*
X136161761Y-115436381D02*
X136161761Y-114436381D01*
X135733189Y-115436381D02*
X135733189Y-114912571D01*
X135780808Y-114817333D01*
X135876046Y-114769714D01*
X136018904Y-114769714D01*
X136114142Y-114817333D01*
X136161761Y-114864952D01*
X135256999Y-114769714D02*
X135256999Y-115436381D01*
X135256999Y-114864952D02*
X135209380Y-114817333D01*
X135114142Y-114769714D01*
X134971284Y-114769714D01*
X134876046Y-114817333D01*
X134828427Y-114912571D01*
X134828427Y-115436381D01*
X134209380Y-115436381D02*
X134304618Y-115388762D01*
X134352237Y-115341143D01*
X134399856Y-115245905D01*
X134399856Y-114960190D01*
X134352237Y-114864952D01*
X134304618Y-114817333D01*
X134209380Y-114769714D01*
X134066522Y-114769714D01*
X133971284Y-114817333D01*
X133923665Y-114864952D01*
X133876046Y-114960190D01*
X133876046Y-115245905D01*
X133923665Y-115341143D01*
X133971284Y-115388762D01*
X134066522Y-115436381D01*
X134209380Y-115436381D01*
X133304618Y-115436381D02*
X133399856Y-115388762D01*
X133447475Y-115293524D01*
X133447475Y-114436381D01*
X132780808Y-115436381D02*
X132876046Y-115388762D01*
X132923665Y-115341143D01*
X132971284Y-115245905D01*
X132971284Y-114960190D01*
X132923665Y-114864952D01*
X132876046Y-114817333D01*
X132780808Y-114769714D01*
X132637950Y-114769714D01*
X132542712Y-114817333D01*
X132495093Y-114864952D01*
X132447474Y-114960190D01*
X132447474Y-115245905D01*
X132495093Y-115341143D01*
X132542712Y-115388762D01*
X132637950Y-115436381D01*
X132780808Y-115436381D01*
X131590331Y-114769714D02*
X131590331Y-115579238D01*
X131637950Y-115674476D01*
X131685569Y-115722095D01*
X131780808Y-115769714D01*
X131923665Y-115769714D01*
X132018903Y-115722095D01*
X131590331Y-115388762D02*
X131685569Y-115436381D01*
X131876046Y-115436381D01*
X131971284Y-115388762D01*
X132018903Y-115341143D01*
X132066522Y-115245905D01*
X132066522Y-114960190D01*
X132018903Y-114864952D01*
X131971284Y-114817333D01*
X131876046Y-114769714D01*
X131685569Y-114769714D01*
X131590331Y-114817333D01*
X131209379Y-114769714D02*
X130971284Y-115436381D01*
X130733188Y-114769714D02*
X130971284Y-115436381D01*
X131066522Y-115674476D01*
X131114141Y-115722095D01*
X131209379Y-115769714D01*
D13*
X149888400Y-103632000D02*
G75*
G03X149888400Y-103632000I-1400000J0D01*
G01*
X173764400Y-132740400D02*
G75*
G03X173764400Y-132740400I-1400000J0D01*
G01*
X164569600Y-67056000D02*
G75*
G03X164569600Y-67056000I-1400000J0D01*
G01*
X160810400Y-132740400D02*
G75*
G03X160810400Y-132740400I-1400000J0D01*
G01*
X159642000Y-121869200D02*
G75*
G03X159642000Y-121869200I-1400000J0D01*
G01*
M02*
