G04 #@! TF.FileFunction,Legend,Top*
%FSLAX46Y46*%
G04 Gerber Fmt 4.6, Leading zero omitted, Abs format (unit mm)*
G04 Created by KiCad (PCBNEW 4.0.6) date Monday, July 30, 2018 'PMt' 08:55:28 PM*
%MOMM*%
%LPD*%
G01*
G04 APERTURE LIST*
%ADD10C,0.100000*%
%ADD11C,0.150000*%
%ADD12C,0.500000*%
%ADD13C,0.200000*%
%ADD14C,0.300000*%
%ADD15C,0.254000*%
%ADD16C,0.120000*%
G04 APERTURE END LIST*
D10*
D11*
X153642857Y-59200000D02*
X153585714Y-59171429D01*
X153500000Y-59171429D01*
X153414285Y-59200000D01*
X153357143Y-59257143D01*
X153328571Y-59314286D01*
X153300000Y-59428571D01*
X153300000Y-59514286D01*
X153328571Y-59628571D01*
X153357143Y-59685714D01*
X153414285Y-59742857D01*
X153500000Y-59771429D01*
X153557143Y-59771429D01*
X153642857Y-59742857D01*
X153671428Y-59714286D01*
X153671428Y-59514286D01*
X153557143Y-59514286D01*
X153928571Y-59771429D02*
X153928571Y-59171429D01*
X154271428Y-59771429D01*
X154271428Y-59171429D01*
X154557142Y-59771429D02*
X154557142Y-59171429D01*
X154699999Y-59171429D01*
X154785714Y-59200000D01*
X154842856Y-59257143D01*
X154871428Y-59314286D01*
X154899999Y-59428571D01*
X154899999Y-59514286D01*
X154871428Y-59628571D01*
X154842856Y-59685714D01*
X154785714Y-59742857D01*
X154699999Y-59771429D01*
X154557142Y-59771429D01*
X155985714Y-59171429D02*
X156185714Y-59771429D01*
X156385714Y-59171429D01*
X156928571Y-59714286D02*
X156900000Y-59742857D01*
X156814286Y-59771429D01*
X156757143Y-59771429D01*
X156671428Y-59742857D01*
X156614286Y-59685714D01*
X156585714Y-59628571D01*
X156557143Y-59514286D01*
X156557143Y-59428571D01*
X156585714Y-59314286D01*
X156614286Y-59257143D01*
X156671428Y-59200000D01*
X156757143Y-59171429D01*
X156814286Y-59171429D01*
X156900000Y-59200000D01*
X156928571Y-59228571D01*
X157528571Y-59714286D02*
X157500000Y-59742857D01*
X157414286Y-59771429D01*
X157357143Y-59771429D01*
X157271428Y-59742857D01*
X157214286Y-59685714D01*
X157185714Y-59628571D01*
X157157143Y-59514286D01*
X157157143Y-59428571D01*
X157185714Y-59314286D01*
X157214286Y-59257143D01*
X157271428Y-59200000D01*
X157357143Y-59171429D01*
X157414286Y-59171429D01*
X157500000Y-59200000D01*
X157528571Y-59228571D01*
X158671429Y-59742857D02*
X158757143Y-59771429D01*
X158900000Y-59771429D01*
X158957143Y-59742857D01*
X158985714Y-59714286D01*
X159014286Y-59657143D01*
X159014286Y-59600000D01*
X158985714Y-59542857D01*
X158957143Y-59514286D01*
X158900000Y-59485714D01*
X158785714Y-59457143D01*
X158728572Y-59428571D01*
X158700000Y-59400000D01*
X158671429Y-59342857D01*
X158671429Y-59285714D01*
X158700000Y-59228571D01*
X158728572Y-59200000D01*
X158785714Y-59171429D01*
X158928572Y-59171429D01*
X159014286Y-59200000D01*
X159614286Y-59714286D02*
X159585715Y-59742857D01*
X159500001Y-59771429D01*
X159442858Y-59771429D01*
X159357143Y-59742857D01*
X159300001Y-59685714D01*
X159271429Y-59628571D01*
X159242858Y-59514286D01*
X159242858Y-59428571D01*
X159271429Y-59314286D01*
X159300001Y-59257143D01*
X159357143Y-59200000D01*
X159442858Y-59171429D01*
X159500001Y-59171429D01*
X159585715Y-59200000D01*
X159614286Y-59228571D01*
X160157143Y-59771429D02*
X159871429Y-59771429D01*
X159871429Y-59171429D01*
X161242858Y-59742857D02*
X161328572Y-59771429D01*
X161471429Y-59771429D01*
X161528572Y-59742857D01*
X161557143Y-59714286D01*
X161585715Y-59657143D01*
X161585715Y-59600000D01*
X161557143Y-59542857D01*
X161528572Y-59514286D01*
X161471429Y-59485714D01*
X161357143Y-59457143D01*
X161300001Y-59428571D01*
X161271429Y-59400000D01*
X161242858Y-59342857D01*
X161242858Y-59285714D01*
X161271429Y-59228571D01*
X161300001Y-59200000D01*
X161357143Y-59171429D01*
X161500001Y-59171429D01*
X161585715Y-59200000D01*
X161842858Y-59771429D02*
X161842858Y-59171429D01*
X161985715Y-59171429D01*
X162071430Y-59200000D01*
X162128572Y-59257143D01*
X162157144Y-59314286D01*
X162185715Y-59428571D01*
X162185715Y-59514286D01*
X162157144Y-59628571D01*
X162128572Y-59685714D01*
X162071430Y-59742857D01*
X161985715Y-59771429D01*
X161842858Y-59771429D01*
X162414287Y-59600000D02*
X162700001Y-59600000D01*
X162357144Y-59771429D02*
X162557144Y-59171429D01*
X162757144Y-59771429D01*
D12*
X119761000Y-96697800D02*
X110312200Y-96697800D01*
D13*
X110312200Y-96697800D02*
X110312200Y-93345000D01*
D12*
X110312200Y-93345000D02*
X119862600Y-93395800D01*
D13*
X119862600Y-93395800D02*
X119811800Y-96647000D01*
X119811800Y-96647000D02*
X119761000Y-96647000D01*
D12*
X119811800Y-96342200D02*
X110312200Y-96342200D01*
D13*
X110312200Y-96342200D02*
X110363000Y-96342200D01*
D12*
X110312200Y-95986600D02*
X119761000Y-95986600D01*
X119811800Y-95580200D02*
X110413800Y-95580200D01*
X110363000Y-95123000D02*
X119761000Y-95123000D01*
X119811800Y-94615000D02*
X110363000Y-94615000D01*
X110363000Y-94208600D02*
X119811800Y-94208600D01*
X119811800Y-93853000D02*
X110413800Y-93853000D01*
D13*
X110413800Y-93548200D02*
X119761000Y-93599000D01*
X119507000Y-93395800D02*
X119354600Y-93395800D01*
X119862600Y-94869000D02*
X110312200Y-94869000D01*
X110312200Y-94869000D02*
X118745000Y-96088200D01*
X119761000Y-96850200D02*
X119964200Y-96850200D01*
X119964200Y-96850200D02*
X120015000Y-93243400D01*
X120015000Y-93243400D02*
X110159800Y-93243400D01*
X110159800Y-93243400D02*
X110210600Y-96799400D01*
X110210600Y-96799400D02*
X110159800Y-96799400D01*
X110159800Y-96799400D02*
X110109000Y-93192600D01*
X110109000Y-93192600D02*
X111277400Y-93243400D01*
X111277400Y-93243400D02*
X111379000Y-94056200D01*
X111277400Y-93243400D02*
X111379000Y-94056200D01*
X110109000Y-93192600D02*
X111277400Y-93243400D01*
X110159800Y-96799400D02*
X110109000Y-93192600D01*
X110210600Y-96799400D02*
X110159800Y-96799400D01*
X110159800Y-93243400D02*
X110210600Y-96799400D01*
X120015000Y-93243400D02*
X110159800Y-93243400D01*
X119964200Y-96850200D02*
X120015000Y-93243400D01*
X119761000Y-96850200D02*
X119964200Y-96850200D01*
X110312200Y-94869000D02*
X118745000Y-96088200D01*
X119862600Y-94869000D02*
X110312200Y-94869000D01*
X119507000Y-93395800D02*
X119354600Y-93395800D01*
X110413800Y-93548200D02*
X119761000Y-93599000D01*
D12*
X119811800Y-93853000D02*
X110413800Y-93853000D01*
X110363000Y-94208600D02*
X119811800Y-94208600D01*
X119811800Y-94615000D02*
X110363000Y-94615000D01*
X110363000Y-95123000D02*
X119761000Y-95123000D01*
X119811800Y-95580200D02*
X110413800Y-95580200D01*
X110312200Y-95986600D02*
X119761000Y-95986600D01*
D13*
X110312200Y-96342200D02*
X110363000Y-96342200D01*
D12*
X119811800Y-96342200D02*
X110312200Y-96342200D01*
D13*
X119811800Y-96647000D02*
X119761000Y-96647000D01*
X119862600Y-93395800D02*
X119811800Y-96647000D01*
D12*
X110312200Y-93345000D02*
X119862600Y-93395800D01*
D13*
X110312200Y-96697800D02*
X110312200Y-93345000D01*
D12*
X119761000Y-96697800D02*
X110312200Y-96697800D01*
X110337600Y-96672400D02*
X119786400Y-96672400D01*
D13*
X119786400Y-96672400D02*
X119786400Y-100025200D01*
D12*
X119786400Y-100025200D02*
X110236000Y-99974400D01*
D13*
X110236000Y-99974400D02*
X110286800Y-96723200D01*
X110286800Y-96723200D02*
X110337600Y-96723200D01*
D12*
X110286800Y-97028000D02*
X119786400Y-97028000D01*
D13*
X119786400Y-97028000D02*
X119735600Y-97028000D01*
D12*
X119786400Y-97383600D02*
X110337600Y-97383600D01*
X110286800Y-97790000D02*
X119684800Y-97790000D01*
X119735600Y-98247200D02*
X110337600Y-98247200D01*
X110286800Y-98755200D02*
X119735600Y-98755200D01*
X119735600Y-99161600D02*
X110286800Y-99161600D01*
X110286800Y-99517200D02*
X119684800Y-99517200D01*
D13*
X119684800Y-99822000D02*
X110337600Y-99771200D01*
X110591600Y-99974400D02*
X110744000Y-99974400D01*
X110236000Y-98501200D02*
X119786400Y-98501200D01*
X119786400Y-98501200D02*
X111353600Y-97282000D01*
X110337600Y-96520000D02*
X110134400Y-96520000D01*
X110134400Y-96520000D02*
X110083600Y-100126800D01*
X110083600Y-100126800D02*
X119938800Y-100126800D01*
X119938800Y-100126800D02*
X119888000Y-96570800D01*
X119888000Y-96570800D02*
X119938800Y-96570800D01*
X119938800Y-96570800D02*
X119989600Y-100177600D01*
X119989600Y-100177600D02*
X118821200Y-100126800D01*
X118821200Y-100126800D02*
X118719600Y-99314000D01*
X118821200Y-100126800D02*
X118719600Y-99314000D01*
X119989600Y-100177600D02*
X118821200Y-100126800D01*
X119938800Y-96570800D02*
X119989600Y-100177600D01*
X119888000Y-96570800D02*
X119938800Y-96570800D01*
X119938800Y-100126800D02*
X119888000Y-96570800D01*
X110083600Y-100126800D02*
X119938800Y-100126800D01*
X110134400Y-96520000D02*
X110083600Y-100126800D01*
X110337600Y-96520000D02*
X110134400Y-96520000D01*
X119786400Y-98501200D02*
X111353600Y-97282000D01*
X110236000Y-98501200D02*
X119786400Y-98501200D01*
X110591600Y-99974400D02*
X110744000Y-99974400D01*
X119684800Y-99822000D02*
X110337600Y-99771200D01*
D12*
X110286800Y-99517200D02*
X119684800Y-99517200D01*
X119735600Y-99161600D02*
X110286800Y-99161600D01*
X110286800Y-98755200D02*
X119735600Y-98755200D01*
X119735600Y-98247200D02*
X110337600Y-98247200D01*
X110286800Y-97790000D02*
X119684800Y-97790000D01*
X119786400Y-97383600D02*
X110337600Y-97383600D01*
D13*
X119786400Y-97028000D02*
X119735600Y-97028000D01*
D12*
X110286800Y-97028000D02*
X119786400Y-97028000D01*
D13*
X110286800Y-96723200D02*
X110337600Y-96723200D01*
X110236000Y-99974400D02*
X110286800Y-96723200D01*
D12*
X119786400Y-100025200D02*
X110236000Y-99974400D01*
D13*
X119786400Y-96672400D02*
X119786400Y-100025200D01*
D12*
X110337600Y-96672400D02*
X119786400Y-96672400D01*
D14*
X170116572Y-64013543D02*
X171259429Y-64013543D01*
X165392172Y-64216743D02*
X166535029Y-64216743D01*
X165963600Y-64788171D02*
X165963600Y-63645314D01*
D15*
X112623600Y-134696200D02*
X112623600Y-139014200D01*
X110464600Y-136855200D02*
X114782600Y-136855200D01*
X114401600Y-136855200D02*
G75*
G03X114401600Y-136855200I-1778000J0D01*
G01*
X168605200Y-130632200D02*
X168605200Y-134950200D01*
X166446200Y-132791200D02*
X170764200Y-132791200D01*
X170383200Y-132791200D02*
G75*
G03X170383200Y-132791200I-1778000J0D01*
G01*
X168605200Y-68453000D02*
X168605200Y-72771000D01*
X166446200Y-70612000D02*
X170764200Y-70612000D01*
X170383200Y-70612000D02*
G75*
G03X170383200Y-70612000I-1778000J0D01*
G01*
D11*
X174359600Y-115385600D02*
X175059600Y-115385600D01*
X175059600Y-115385600D02*
X175059600Y-113385600D01*
X175059600Y-113385600D02*
X174459600Y-113385600D01*
X174359600Y-109385600D02*
X174359600Y-109285600D01*
X174359600Y-109285600D02*
X173459600Y-109285600D01*
X173559600Y-117485600D02*
X174359600Y-117485600D01*
X174359600Y-117485600D02*
X174359600Y-109385600D01*
X170659600Y-117485600D02*
X169759600Y-117485600D01*
X169759600Y-117485600D02*
X169859600Y-109385600D01*
X169859600Y-109385600D02*
X170659600Y-109385600D01*
X147278000Y-62450800D02*
X147278000Y-64350800D01*
X148378000Y-62450800D02*
X148378000Y-64350800D01*
X147828000Y-63350800D02*
X147828000Y-63800800D01*
X148078000Y-63300800D02*
X147578000Y-63300800D01*
X147828000Y-63300800D02*
X148078000Y-63550800D01*
X148078000Y-63550800D02*
X147578000Y-63550800D01*
X147578000Y-63550800D02*
X147828000Y-63300800D01*
X145124200Y-67960800D02*
X145124200Y-66760800D01*
X146874200Y-66760800D02*
X146874200Y-67960800D01*
X149716400Y-62450800D02*
X149716400Y-64350800D01*
X150816400Y-62450800D02*
X150816400Y-64350800D01*
X150266400Y-63350800D02*
X150266400Y-63800800D01*
X150516400Y-63300800D02*
X150016400Y-63300800D01*
X150266400Y-63300800D02*
X150516400Y-63550800D01*
X150516400Y-63550800D02*
X150016400Y-63550800D01*
X150016400Y-63550800D02*
X150266400Y-63300800D01*
X151243000Y-66760800D02*
X151243000Y-67960800D01*
X149493000Y-67960800D02*
X149493000Y-66760800D01*
X149160200Y-66760800D02*
X149160200Y-67960800D01*
X147410200Y-67960800D02*
X147410200Y-66760800D01*
X124332140Y-108942720D02*
X124332140Y-94845720D01*
X139318140Y-94845720D02*
X139318140Y-108942720D01*
X124332140Y-108942720D02*
X139318140Y-108942720D01*
X124332140Y-94845720D02*
X139318140Y-94845720D01*
D16*
X170492000Y-122298000D02*
X170492000Y-122808000D01*
X174682000Y-122298000D02*
X174942000Y-122298000D01*
X170492000Y-122298000D02*
X172402000Y-122298000D01*
X170492000Y-130178000D02*
X170492000Y-129668000D01*
X172402000Y-130178000D02*
X170492000Y-130178000D01*
X174942000Y-130178000D02*
X174682000Y-130178000D01*
D11*
X165076400Y-87836800D02*
X165076400Y-86836800D01*
X165076400Y-86836800D02*
X150876400Y-86836800D01*
X150876400Y-87836800D02*
X150876400Y-86836800D01*
X144326400Y-87836800D02*
X171576400Y-87836800D01*
X171576400Y-87836800D02*
X171576400Y-87736800D01*
X170576400Y-85786800D02*
G75*
G03X170576400Y-85786800I-1000000J0D01*
G01*
X147326400Y-85786800D02*
G75*
G03X147326400Y-85786800I-1000000J0D01*
G01*
X170626400Y-62036800D02*
G75*
G03X170626400Y-62036800I-1000000J0D01*
G01*
X147277649Y-61986800D02*
G75*
G03X147277649Y-61986800I-1001249J0D01*
G01*
X171626400Y-59986800D02*
X144326400Y-59986800D01*
X144326400Y-59986800D02*
X144326400Y-87836800D01*
X171576400Y-87736800D02*
X171626400Y-59986800D01*
X152776400Y-60686800D02*
X152776400Y-63286800D01*
X152776400Y-63286800D02*
X162976400Y-63286800D01*
X152776400Y-60686800D02*
X162976400Y-60686800D01*
X162986400Y-60716800D02*
X162986400Y-63256800D01*
X155346400Y-60716800D02*
X155346400Y-63256800D01*
X161375800Y-130163600D02*
X162575800Y-130163600D01*
X162575800Y-131913600D02*
X161375800Y-131913600D01*
X151916776Y-92227400D02*
G75*
G03X151916776Y-92227400I-1802776J0D01*
G01*
X147614000Y-94727400D02*
X147614000Y-89727400D01*
X147614000Y-89727400D02*
X152614000Y-89727400D01*
X152614000Y-89727400D02*
X152614000Y-94727400D01*
X152614000Y-94727400D02*
X147614000Y-94727400D01*
X159917776Y-92227400D02*
G75*
G03X159917776Y-92227400I-1802776J0D01*
G01*
X155615000Y-94727400D02*
X155615000Y-89727400D01*
X155615000Y-89727400D02*
X160615000Y-89727400D01*
X160615000Y-89727400D02*
X160615000Y-94727400D01*
X160615000Y-94727400D02*
X155615000Y-94727400D01*
X117144800Y-107289600D02*
X114604800Y-107289600D01*
X117144800Y-135229600D02*
X117144800Y-104749600D01*
X117144800Y-135229600D02*
X114604800Y-135229600D01*
X117144800Y-104749600D02*
X117144800Y-135229600D01*
X117144800Y-104749600D02*
X114604800Y-104749600D01*
X117144800Y-104749600D02*
X117144800Y-135229600D01*
X117144800Y-135229600D02*
X114604800Y-135229600D01*
X114604800Y-135229600D02*
X114604800Y-104749600D01*
X111515600Y-112764600D02*
X112715600Y-112764600D01*
X112715600Y-114514600D02*
X111515600Y-114514600D01*
X144839600Y-62450800D02*
X144839600Y-64350800D01*
X145939600Y-62450800D02*
X145939600Y-64350800D01*
X145389600Y-63350800D02*
X145389600Y-63800800D01*
X145639600Y-63300800D02*
X145139600Y-63300800D01*
X145389600Y-63300800D02*
X145639600Y-63550800D01*
X145639600Y-63550800D02*
X145139600Y-63550800D01*
X145139600Y-63550800D02*
X145389600Y-63300800D01*
X147534600Y-73796600D02*
X147534600Y-74996600D01*
X145784600Y-74996600D02*
X145784600Y-73796600D01*
X154736800Y-107289600D02*
X152196800Y-107289600D01*
X154736800Y-135229600D02*
X154736800Y-104749600D01*
X154736800Y-135229600D02*
X152196800Y-135229600D01*
X154736800Y-104749600D02*
X154736800Y-135229600D01*
X154736800Y-104749600D02*
X152196800Y-104749600D01*
X154736800Y-104749600D02*
X154736800Y-135229600D01*
X154736800Y-135229600D02*
X152196800Y-135229600D01*
X152196800Y-135229600D02*
X152196800Y-104749600D01*
X166235000Y-98870400D02*
X165235000Y-98870400D01*
X165235000Y-100570400D02*
X166235000Y-100570400D01*
X166235000Y-96990800D02*
X165235000Y-96990800D01*
X165235000Y-98690800D02*
X166235000Y-98690800D01*
X158025200Y-100068000D02*
X158025200Y-99068000D01*
X156325200Y-99068000D02*
X156325200Y-100068000D01*
X149619600Y-117533800D02*
X149619600Y-118533800D01*
X151319600Y-118533800D02*
X151319600Y-117533800D01*
X166784400Y-115505600D02*
X167784400Y-115505600D01*
X167784400Y-113805600D02*
X166784400Y-113805600D01*
X166784400Y-109054000D02*
X167784400Y-109054000D01*
X167784400Y-107354000D02*
X166784400Y-107354000D01*
X134327000Y-119575200D02*
X134327000Y-118575200D01*
X132627000Y-118575200D02*
X132627000Y-119575200D01*
X131863200Y-119524400D02*
X131863200Y-118524400D01*
X130163200Y-118524400D02*
X130163200Y-119524400D01*
X166835200Y-111289200D02*
X167835200Y-111289200D01*
X167835200Y-109589200D02*
X166835200Y-109589200D01*
X160029600Y-98235800D02*
X161229600Y-98235800D01*
X161229600Y-99985800D02*
X160029600Y-99985800D01*
X170526000Y-100951000D02*
X169326000Y-100951000D01*
X169326000Y-99201000D02*
X170526000Y-99201000D01*
X163312400Y-115556000D02*
X162112400Y-115556000D01*
X162112400Y-113806000D02*
X163312400Y-113806000D01*
X112766400Y-132345400D02*
X111566400Y-132345400D01*
X111566400Y-130595400D02*
X112766400Y-130595400D01*
X112766400Y-117105400D02*
X111566400Y-117105400D01*
X111566400Y-115355400D02*
X112766400Y-115355400D01*
X166735200Y-111697800D02*
X167935200Y-111697800D01*
X167935200Y-113447800D02*
X166735200Y-113447800D01*
X167884400Y-117816600D02*
X166684400Y-117816600D01*
X166684400Y-116066600D02*
X167884400Y-116066600D01*
X125363000Y-119624400D02*
X125363000Y-118424400D01*
X127113000Y-118424400D02*
X127113000Y-119624400D01*
X127699800Y-119649800D02*
X127699800Y-118449800D01*
X129449800Y-118449800D02*
X129449800Y-119649800D01*
X144450000Y-116210000D02*
X143950000Y-116810000D01*
X143950000Y-116210000D02*
X148150000Y-116210000D01*
X148150000Y-116210000D02*
X148150000Y-120010000D01*
X148150000Y-120010000D02*
X143950000Y-120010000D01*
X143950000Y-120010000D02*
X143950000Y-116210000D01*
X119634000Y-107289600D02*
X117094000Y-107289600D01*
X119634000Y-135229600D02*
X119634000Y-104749600D01*
X119634000Y-135229600D02*
X117094000Y-135229600D01*
X119634000Y-104749600D02*
X119634000Y-135229600D01*
X119634000Y-104749600D02*
X117094000Y-104749600D01*
X119634000Y-104749600D02*
X119634000Y-135229600D01*
X119634000Y-135229600D02*
X117094000Y-135229600D01*
X117094000Y-135229600D02*
X117094000Y-104749600D01*
X111617200Y-105144600D02*
X112817200Y-105144600D01*
X112817200Y-106894600D02*
X111617200Y-106894600D01*
X111617200Y-107227400D02*
X112817200Y-107227400D01*
X112817200Y-108977400D02*
X111617200Y-108977400D01*
X112666400Y-109335200D02*
X111666400Y-109335200D01*
X111666400Y-111035200D02*
X112666400Y-111035200D01*
X157869000Y-115531000D02*
X158869000Y-115531000D01*
X158869000Y-113831000D02*
X157869000Y-113831000D01*
X157869000Y-117436000D02*
X158869000Y-117436000D01*
X158869000Y-115736000D02*
X157869000Y-115736000D01*
X169426000Y-103008800D02*
X170426000Y-103008800D01*
X170426000Y-101308800D02*
X169426000Y-101308800D01*
X167776600Y-118936800D02*
X168976600Y-118936800D01*
X168976600Y-120686800D02*
X167776600Y-120686800D01*
X162661800Y-119334200D02*
X162161800Y-119934200D01*
X162161800Y-119334200D02*
X166361800Y-119334200D01*
X166361800Y-119334200D02*
X166361800Y-123134200D01*
X166361800Y-123134200D02*
X162161800Y-123134200D01*
X162161800Y-123134200D02*
X162161800Y-119334200D01*
X161304800Y-83286600D02*
G75*
G03X161304800Y-83286600I-2250000J0D01*
G01*
X150052600Y-124485400D02*
G75*
G03X150052600Y-124485400I-2250000J0D01*
G01*
X167893376Y-92227400D02*
G75*
G03X167893376Y-92227400I-1802776J0D01*
G01*
X163590600Y-94727400D02*
X163590600Y-89727400D01*
X163590600Y-89727400D02*
X168590600Y-89727400D01*
X168590600Y-89727400D02*
X168590600Y-94727400D01*
X168590600Y-94727400D02*
X163590600Y-94727400D01*
D16*
X162862800Y-129900800D02*
X162862800Y-128970800D01*
X162862800Y-126740800D02*
X162862800Y-127670800D01*
X162862800Y-126740800D02*
X160702800Y-126740800D01*
X162862800Y-129900800D02*
X161402800Y-129900800D01*
X166850600Y-129824600D02*
X166850600Y-128894600D01*
X166850600Y-126664600D02*
X166850600Y-127594600D01*
X166850600Y-126664600D02*
X164690600Y-126664600D01*
X166850600Y-129824600D02*
X165390600Y-129824600D01*
D11*
X170215000Y-94959200D02*
X171415000Y-94959200D01*
X171415000Y-96709200D02*
X170215000Y-96709200D01*
X112741000Y-124700000D02*
X111541000Y-124700000D01*
X111541000Y-122950000D02*
X112741000Y-122950000D01*
X159929800Y-124495000D02*
X159929800Y-125695000D01*
X158179800Y-125695000D02*
X158179800Y-124495000D01*
X158179800Y-128946200D02*
X158179800Y-127746200D01*
X159929800Y-127746200D02*
X159929800Y-128946200D01*
X131275200Y-111644800D02*
X132275200Y-111644800D01*
X132275200Y-109944800D02*
X131275200Y-109944800D01*
X137655600Y-118046400D02*
X137255600Y-118046400D01*
X137255600Y-118046400D02*
X137255600Y-116446400D01*
X137255600Y-116446400D02*
X137655600Y-116446400D01*
X137555600Y-118046400D02*
X137555600Y-116446400D01*
X142355600Y-118046400D02*
X137655600Y-118046400D01*
X137655600Y-116446400D02*
X142355600Y-116446400D01*
X142355600Y-116446400D02*
X142355600Y-118046400D01*
X163602200Y-103504200D02*
X163602200Y-104104200D01*
X157352200Y-109754200D02*
X157352200Y-109154200D01*
X163602200Y-109754200D02*
X163602200Y-109154200D01*
X157352200Y-103504200D02*
X157952200Y-103504200D01*
X157352200Y-109754200D02*
X157952200Y-109754200D01*
X163602200Y-109754200D02*
X163002200Y-109754200D01*
X163602200Y-103504200D02*
X163002200Y-103504200D01*
D10*
X116800457Y-136526629D02*
X117000457Y-137126629D01*
X117200457Y-136526629D01*
X117371886Y-136955200D02*
X117657600Y-136955200D01*
X117314743Y-137126629D02*
X117514743Y-136526629D01*
X117714743Y-137126629D01*
X118200457Y-137126629D02*
X117914743Y-137126629D01*
X117914743Y-136526629D01*
X118486171Y-136526629D02*
X118486171Y-136669486D01*
X118343314Y-136612343D02*
X118486171Y-136669486D01*
X118629029Y-136612343D01*
X118400457Y-136783771D02*
X118486171Y-136669486D01*
X118571886Y-136783771D01*
X118943314Y-136526629D02*
X118943314Y-136669486D01*
X118800457Y-136612343D02*
X118943314Y-136669486D01*
X119086172Y-136612343D01*
X118857600Y-136783771D02*
X118943314Y-136669486D01*
X119029029Y-136783771D01*
X172782057Y-132462629D02*
X172982057Y-133062629D01*
X173182057Y-132462629D01*
X173353486Y-132891200D02*
X173639200Y-132891200D01*
X173296343Y-133062629D02*
X173496343Y-132462629D01*
X173696343Y-133062629D01*
X174182057Y-133062629D02*
X173896343Y-133062629D01*
X173896343Y-132462629D01*
X174467771Y-132462629D02*
X174467771Y-132605486D01*
X174324914Y-132548343D02*
X174467771Y-132605486D01*
X174610629Y-132548343D01*
X174382057Y-132719771D02*
X174467771Y-132605486D01*
X174553486Y-132719771D01*
X174924914Y-132462629D02*
X174924914Y-132605486D01*
X174782057Y-132548343D02*
X174924914Y-132605486D01*
X175067772Y-132548343D01*
X174839200Y-132719771D02*
X174924914Y-132605486D01*
X175010629Y-132719771D01*
X172782057Y-70283429D02*
X172982057Y-70883429D01*
X173182057Y-70283429D01*
X173353486Y-70712000D02*
X173639200Y-70712000D01*
X173296343Y-70883429D02*
X173496343Y-70283429D01*
X173696343Y-70883429D01*
X174182057Y-70883429D02*
X173896343Y-70883429D01*
X173896343Y-70283429D01*
X174467771Y-70283429D02*
X174467771Y-70426286D01*
X174324914Y-70369143D02*
X174467771Y-70426286D01*
X174610629Y-70369143D01*
X174382057Y-70540571D02*
X174467771Y-70426286D01*
X174553486Y-70540571D01*
X174924914Y-70283429D02*
X174924914Y-70426286D01*
X174782057Y-70369143D02*
X174924914Y-70426286D01*
X175067772Y-70369143D01*
X174839200Y-70540571D02*
X174924914Y-70426286D01*
X175010629Y-70540571D01*
D11*
X166882915Y-66171771D02*
X167025772Y-66219390D01*
X167073391Y-66267010D01*
X167121010Y-66362248D01*
X167121010Y-66505105D01*
X167073391Y-66600343D01*
X167025772Y-66647962D01*
X166930534Y-66695581D01*
X166549581Y-66695581D01*
X166549581Y-65695581D01*
X166882915Y-65695581D01*
X166978153Y-65743200D01*
X167025772Y-65790819D01*
X167073391Y-65886057D01*
X167073391Y-65981295D01*
X167025772Y-66076533D01*
X166978153Y-66124152D01*
X166882915Y-66171771D01*
X166549581Y-66171771D01*
X167501962Y-66409867D02*
X167978153Y-66409867D01*
X167406724Y-66695581D02*
X167740057Y-65695581D01*
X168073391Y-66695581D01*
X168263867Y-65695581D02*
X168835296Y-65695581D01*
X168549581Y-66695581D02*
X168549581Y-65695581D01*
X169692439Y-66695581D02*
X169121010Y-66695581D01*
X169406724Y-66695581D02*
X169406724Y-65695581D01*
X169311486Y-65838438D01*
X169216248Y-65933676D01*
X169121010Y-65981295D01*
X170726267Y-107033962D02*
X170869124Y-107081581D01*
X171107220Y-107081581D01*
X171202458Y-107033962D01*
X171250077Y-106986343D01*
X171297696Y-106891105D01*
X171297696Y-106795867D01*
X171250077Y-106700629D01*
X171202458Y-106653010D01*
X171107220Y-106605390D01*
X170916743Y-106557771D01*
X170821505Y-106510152D01*
X170773886Y-106462533D01*
X170726267Y-106367295D01*
X170726267Y-106272057D01*
X170773886Y-106176819D01*
X170821505Y-106129200D01*
X170916743Y-106081581D01*
X171154839Y-106081581D01*
X171297696Y-106129200D01*
X171631029Y-106081581D02*
X171869124Y-107081581D01*
X172059601Y-106367295D01*
X172250077Y-107081581D01*
X172488172Y-106081581D01*
X173392934Y-107081581D02*
X172821505Y-107081581D01*
X173107219Y-107081581D02*
X173107219Y-106081581D01*
X173011981Y-106224438D01*
X172916743Y-106319676D01*
X172821505Y-106367295D01*
D10*
X147410571Y-59656629D02*
X147124857Y-59656629D01*
X147124857Y-59056629D01*
X147610571Y-59342343D02*
X147810571Y-59342343D01*
X147896285Y-59656629D02*
X147610571Y-59656629D01*
X147610571Y-59056629D01*
X147896285Y-59056629D01*
X148153428Y-59656629D02*
X148153428Y-59056629D01*
X148296285Y-59056629D01*
X148382000Y-59085200D01*
X148439142Y-59142343D01*
X148467714Y-59199486D01*
X148496285Y-59313771D01*
X148496285Y-59399486D01*
X148467714Y-59513771D01*
X148439142Y-59570914D01*
X148382000Y-59628057D01*
X148296285Y-59656629D01*
X148153428Y-59656629D01*
X148724857Y-59113771D02*
X148753428Y-59085200D01*
X148810571Y-59056629D01*
X148953428Y-59056629D01*
X149010571Y-59085200D01*
X149039142Y-59113771D01*
X149067714Y-59170914D01*
X149067714Y-59228057D01*
X149039142Y-59313771D01*
X148696285Y-59656629D01*
X149067714Y-59656629D01*
X145054685Y-69664229D02*
X144854685Y-69378514D01*
X144711828Y-69664229D02*
X144711828Y-69064229D01*
X144940400Y-69064229D01*
X144997542Y-69092800D01*
X145026114Y-69121371D01*
X145054685Y-69178514D01*
X145054685Y-69264229D01*
X145026114Y-69321371D01*
X144997542Y-69349943D01*
X144940400Y-69378514D01*
X144711828Y-69378514D01*
X145626114Y-69664229D02*
X145283257Y-69664229D01*
X145454685Y-69664229D02*
X145454685Y-69064229D01*
X145397542Y-69149943D01*
X145340400Y-69207086D01*
X145283257Y-69235657D01*
X145997543Y-69064229D02*
X146054686Y-69064229D01*
X146111829Y-69092800D01*
X146140400Y-69121371D01*
X146168971Y-69178514D01*
X146197543Y-69292800D01*
X146197543Y-69435657D01*
X146168971Y-69549943D01*
X146140400Y-69607086D01*
X146111829Y-69635657D01*
X146054686Y-69664229D01*
X145997543Y-69664229D01*
X145940400Y-69635657D01*
X145911829Y-69607086D01*
X145883257Y-69549943D01*
X145854686Y-69435657D01*
X145854686Y-69292800D01*
X145883257Y-69178514D01*
X145911829Y-69121371D01*
X145940400Y-69092800D01*
X145997543Y-69064229D01*
X150052171Y-59656629D02*
X149766457Y-59656629D01*
X149766457Y-59056629D01*
X150252171Y-59342343D02*
X150452171Y-59342343D01*
X150537885Y-59656629D02*
X150252171Y-59656629D01*
X150252171Y-59056629D01*
X150537885Y-59056629D01*
X150795028Y-59656629D02*
X150795028Y-59056629D01*
X150937885Y-59056629D01*
X151023600Y-59085200D01*
X151080742Y-59142343D01*
X151109314Y-59199486D01*
X151137885Y-59313771D01*
X151137885Y-59399486D01*
X151109314Y-59513771D01*
X151080742Y-59570914D01*
X151023600Y-59628057D01*
X150937885Y-59656629D01*
X150795028Y-59656629D01*
X151709314Y-59656629D02*
X151366457Y-59656629D01*
X151537885Y-59656629D02*
X151537885Y-59056629D01*
X151480742Y-59142343D01*
X151423600Y-59199486D01*
X151366457Y-59228057D01*
X151588800Y-69613429D02*
X151388800Y-69327714D01*
X151245943Y-69613429D02*
X151245943Y-69013429D01*
X151474515Y-69013429D01*
X151531657Y-69042000D01*
X151560229Y-69070571D01*
X151588800Y-69127714D01*
X151588800Y-69213429D01*
X151560229Y-69270571D01*
X151531657Y-69299143D01*
X151474515Y-69327714D01*
X151245943Y-69327714D01*
X152103086Y-69213429D02*
X152103086Y-69613429D01*
X151960229Y-68984857D02*
X151817372Y-69413429D01*
X152188800Y-69413429D01*
X147848685Y-69715029D02*
X147648685Y-69429314D01*
X147505828Y-69715029D02*
X147505828Y-69115029D01*
X147734400Y-69115029D01*
X147791542Y-69143600D01*
X147820114Y-69172171D01*
X147848685Y-69229314D01*
X147848685Y-69315029D01*
X147820114Y-69372171D01*
X147791542Y-69400743D01*
X147734400Y-69429314D01*
X147505828Y-69429314D01*
X148420114Y-69715029D02*
X148077257Y-69715029D01*
X148248685Y-69715029D02*
X148248685Y-69115029D01*
X148191542Y-69200743D01*
X148134400Y-69257886D01*
X148077257Y-69286457D01*
X148991543Y-69715029D02*
X148648686Y-69715029D01*
X148820114Y-69715029D02*
X148820114Y-69115029D01*
X148762971Y-69200743D01*
X148705829Y-69257886D01*
X148648686Y-69286457D01*
D11*
X139952505Y-102738181D02*
X139952505Y-101738181D01*
X140333458Y-101738181D01*
X140428696Y-101785800D01*
X140476315Y-101833419D01*
X140523934Y-101928657D01*
X140523934Y-102071514D01*
X140476315Y-102166752D01*
X140428696Y-102214371D01*
X140333458Y-102261990D01*
X139952505Y-102261990D01*
X141428696Y-101738181D02*
X140952505Y-101738181D01*
X140904886Y-102214371D01*
X140952505Y-102166752D01*
X141047743Y-102119133D01*
X141285839Y-102119133D01*
X141381077Y-102166752D01*
X141428696Y-102214371D01*
X141476315Y-102309610D01*
X141476315Y-102547705D01*
X141428696Y-102642943D01*
X141381077Y-102690562D01*
X141285839Y-102738181D01*
X141047743Y-102738181D01*
X140952505Y-102690562D01*
X140904886Y-102642943D01*
X171753305Y-121483381D02*
X171753305Y-120483381D01*
X172134258Y-120483381D01*
X172229496Y-120531000D01*
X172277115Y-120578619D01*
X172324734Y-120673857D01*
X172324734Y-120816714D01*
X172277115Y-120911952D01*
X172229496Y-120959571D01*
X172134258Y-121007190D01*
X171753305Y-121007190D01*
X173181877Y-120816714D02*
X173181877Y-121483381D01*
X172943781Y-120435762D02*
X172705686Y-121150048D01*
X173324734Y-121150048D01*
X157046705Y-65069981D02*
X157046705Y-64069981D01*
X157427658Y-64069981D01*
X157522896Y-64117600D01*
X157570515Y-64165219D01*
X157618134Y-64260457D01*
X157618134Y-64403314D01*
X157570515Y-64498552D01*
X157522896Y-64546171D01*
X157427658Y-64593790D01*
X157046705Y-64593790D01*
X157951467Y-64069981D02*
X158618134Y-64069981D01*
X158189562Y-65069981D01*
D10*
X164304629Y-130103515D02*
X164018914Y-130303515D01*
X164304629Y-130446372D02*
X163704629Y-130446372D01*
X163704629Y-130217800D01*
X163733200Y-130160658D01*
X163761771Y-130132086D01*
X163818914Y-130103515D01*
X163904629Y-130103515D01*
X163961771Y-130132086D01*
X163990343Y-130160658D01*
X164018914Y-130217800D01*
X164018914Y-130446372D01*
X164304629Y-129532086D02*
X164304629Y-129874943D01*
X164304629Y-129703515D02*
X163704629Y-129703515D01*
X163790343Y-129760658D01*
X163847486Y-129817800D01*
X163876057Y-129874943D01*
X163761771Y-129303514D02*
X163733200Y-129274943D01*
X163704629Y-129217800D01*
X163704629Y-129074943D01*
X163733200Y-129017800D01*
X163761771Y-128989229D01*
X163818914Y-128960657D01*
X163876057Y-128960657D01*
X163961771Y-128989229D01*
X164304629Y-129332086D01*
X164304629Y-128960657D01*
X145815143Y-92422629D02*
X145815143Y-91822629D01*
X146043715Y-91822629D01*
X146100857Y-91851200D01*
X146129429Y-91879771D01*
X146158000Y-91936914D01*
X146158000Y-92022629D01*
X146129429Y-92079771D01*
X146100857Y-92108343D01*
X146043715Y-92136914D01*
X145815143Y-92136914D01*
X146615143Y-92108343D02*
X146700857Y-92136914D01*
X146729429Y-92165486D01*
X146758000Y-92222629D01*
X146758000Y-92308343D01*
X146729429Y-92365486D01*
X146700857Y-92394057D01*
X146643715Y-92422629D01*
X146415143Y-92422629D01*
X146415143Y-91822629D01*
X146615143Y-91822629D01*
X146672286Y-91851200D01*
X146700857Y-91879771D01*
X146729429Y-91936914D01*
X146729429Y-91994057D01*
X146700857Y-92051200D01*
X146672286Y-92079771D01*
X146615143Y-92108343D01*
X146415143Y-92108343D01*
X147329429Y-92422629D02*
X146986572Y-92422629D01*
X147158000Y-92422629D02*
X147158000Y-91822629D01*
X147100857Y-91908343D01*
X147043715Y-91965486D01*
X146986572Y-91994057D01*
X153689143Y-92549629D02*
X153689143Y-91949629D01*
X153917715Y-91949629D01*
X153974857Y-91978200D01*
X154003429Y-92006771D01*
X154032000Y-92063914D01*
X154032000Y-92149629D01*
X154003429Y-92206771D01*
X153974857Y-92235343D01*
X153917715Y-92263914D01*
X153689143Y-92263914D01*
X154489143Y-92235343D02*
X154574857Y-92263914D01*
X154603429Y-92292486D01*
X154632000Y-92349629D01*
X154632000Y-92435343D01*
X154603429Y-92492486D01*
X154574857Y-92521057D01*
X154517715Y-92549629D01*
X154289143Y-92549629D01*
X154289143Y-91949629D01*
X154489143Y-91949629D01*
X154546286Y-91978200D01*
X154574857Y-92006771D01*
X154603429Y-92063914D01*
X154603429Y-92121057D01*
X154574857Y-92178200D01*
X154546286Y-92206771D01*
X154489143Y-92235343D01*
X154289143Y-92235343D01*
X154860572Y-92006771D02*
X154889143Y-91978200D01*
X154946286Y-91949629D01*
X155089143Y-91949629D01*
X155146286Y-91978200D01*
X155174857Y-92006771D01*
X155203429Y-92063914D01*
X155203429Y-92121057D01*
X155174857Y-92206771D01*
X154832000Y-92549629D01*
X155203429Y-92549629D01*
D11*
X113866705Y-104135181D02*
X113866705Y-103135181D01*
X114247658Y-103135181D01*
X114342896Y-103182800D01*
X114390515Y-103230419D01*
X114438134Y-103325657D01*
X114438134Y-103468514D01*
X114390515Y-103563752D01*
X114342896Y-103611371D01*
X114247658Y-103658990D01*
X113866705Y-103658990D01*
X115390515Y-104135181D02*
X114819086Y-104135181D01*
X115104800Y-104135181D02*
X115104800Y-103135181D01*
X115009562Y-103278038D01*
X114914324Y-103373276D01*
X114819086Y-103420895D01*
D10*
X109342285Y-113961829D02*
X109142285Y-113676114D01*
X108999428Y-113961829D02*
X108999428Y-113361829D01*
X109228000Y-113361829D01*
X109285142Y-113390400D01*
X109313714Y-113418971D01*
X109342285Y-113476114D01*
X109342285Y-113561829D01*
X109313714Y-113618971D01*
X109285142Y-113647543D01*
X109228000Y-113676114D01*
X108999428Y-113676114D01*
X109570857Y-113418971D02*
X109599428Y-113390400D01*
X109656571Y-113361829D01*
X109799428Y-113361829D01*
X109856571Y-113390400D01*
X109885142Y-113418971D01*
X109913714Y-113476114D01*
X109913714Y-113533257D01*
X109885142Y-113618971D01*
X109542285Y-113961829D01*
X109913714Y-113961829D01*
X110485143Y-113961829D02*
X110142286Y-113961829D01*
X110313714Y-113961829D02*
X110313714Y-113361829D01*
X110256571Y-113447543D01*
X110199429Y-113504686D01*
X110142286Y-113533257D01*
X144616571Y-59656629D02*
X144330857Y-59656629D01*
X144330857Y-59056629D01*
X144816571Y-59342343D02*
X145016571Y-59342343D01*
X145102285Y-59656629D02*
X144816571Y-59656629D01*
X144816571Y-59056629D01*
X145102285Y-59056629D01*
X145359428Y-59656629D02*
X145359428Y-59056629D01*
X145502285Y-59056629D01*
X145588000Y-59085200D01*
X145645142Y-59142343D01*
X145673714Y-59199486D01*
X145702285Y-59313771D01*
X145702285Y-59399486D01*
X145673714Y-59513771D01*
X145645142Y-59570914D01*
X145588000Y-59628057D01*
X145502285Y-59656629D01*
X145359428Y-59656629D01*
X145902285Y-59056629D02*
X146273714Y-59056629D01*
X146073714Y-59285200D01*
X146159428Y-59285200D01*
X146216571Y-59313771D01*
X146245142Y-59342343D01*
X146273714Y-59399486D01*
X146273714Y-59542343D01*
X146245142Y-59599486D01*
X146216571Y-59628057D01*
X146159428Y-59656629D01*
X145988000Y-59656629D01*
X145930857Y-59628057D01*
X145902285Y-59599486D01*
X146248485Y-76750829D02*
X146048485Y-76465114D01*
X145905628Y-76750829D02*
X145905628Y-76150829D01*
X146134200Y-76150829D01*
X146191342Y-76179400D01*
X146219914Y-76207971D01*
X146248485Y-76265114D01*
X146248485Y-76350829D01*
X146219914Y-76407971D01*
X146191342Y-76436543D01*
X146134200Y-76465114D01*
X145905628Y-76465114D01*
X146477057Y-76207971D02*
X146505628Y-76179400D01*
X146562771Y-76150829D01*
X146705628Y-76150829D01*
X146762771Y-76179400D01*
X146791342Y-76207971D01*
X146819914Y-76265114D01*
X146819914Y-76322257D01*
X146791342Y-76407971D01*
X146448485Y-76750829D01*
X146819914Y-76750829D01*
X147048486Y-76207971D02*
X147077057Y-76179400D01*
X147134200Y-76150829D01*
X147277057Y-76150829D01*
X147334200Y-76179400D01*
X147362771Y-76207971D01*
X147391343Y-76265114D01*
X147391343Y-76322257D01*
X147362771Y-76407971D01*
X147019914Y-76750829D01*
X147391343Y-76750829D01*
D11*
X152728705Y-104185981D02*
X152728705Y-103185981D01*
X153109658Y-103185981D01*
X153204896Y-103233600D01*
X153252515Y-103281219D01*
X153300134Y-103376457D01*
X153300134Y-103519314D01*
X153252515Y-103614552D01*
X153204896Y-103662171D01*
X153109658Y-103709790D01*
X152728705Y-103709790D01*
X153681086Y-103281219D02*
X153728705Y-103233600D01*
X153823943Y-103185981D01*
X154062039Y-103185981D01*
X154157277Y-103233600D01*
X154204896Y-103281219D01*
X154252515Y-103376457D01*
X154252515Y-103471695D01*
X154204896Y-103614552D01*
X153633467Y-104185981D01*
X154252515Y-104185981D01*
D10*
X163120400Y-100341086D02*
X163091829Y-100369657D01*
X163006115Y-100398229D01*
X162948972Y-100398229D01*
X162863257Y-100369657D01*
X162806115Y-100312514D01*
X162777543Y-100255371D01*
X162748972Y-100141086D01*
X162748972Y-100055371D01*
X162777543Y-99941086D01*
X162806115Y-99883943D01*
X162863257Y-99826800D01*
X162948972Y-99798229D01*
X163006115Y-99798229D01*
X163091829Y-99826800D01*
X163120400Y-99855371D01*
X163691829Y-100398229D02*
X163348972Y-100398229D01*
X163520400Y-100398229D02*
X163520400Y-99798229D01*
X163463257Y-99883943D01*
X163406115Y-99941086D01*
X163348972Y-99969657D01*
X162917200Y-98105886D02*
X162888629Y-98134457D01*
X162802915Y-98163029D01*
X162745772Y-98163029D01*
X162660057Y-98134457D01*
X162602915Y-98077314D01*
X162574343Y-98020171D01*
X162545772Y-97905886D01*
X162545772Y-97820171D01*
X162574343Y-97705886D01*
X162602915Y-97648743D01*
X162660057Y-97591600D01*
X162745772Y-97563029D01*
X162802915Y-97563029D01*
X162888629Y-97591600D01*
X162917200Y-97620171D01*
X163145772Y-97620171D02*
X163174343Y-97591600D01*
X163231486Y-97563029D01*
X163374343Y-97563029D01*
X163431486Y-97591600D01*
X163460057Y-97620171D01*
X163488629Y-97677314D01*
X163488629Y-97734457D01*
X163460057Y-97820171D01*
X163117200Y-98163029D01*
X163488629Y-98163029D01*
X157075200Y-102119086D02*
X157046629Y-102147657D01*
X156960915Y-102176229D01*
X156903772Y-102176229D01*
X156818057Y-102147657D01*
X156760915Y-102090514D01*
X156732343Y-102033371D01*
X156703772Y-101919086D01*
X156703772Y-101833371D01*
X156732343Y-101719086D01*
X156760915Y-101661943D01*
X156818057Y-101604800D01*
X156903772Y-101576229D01*
X156960915Y-101576229D01*
X157046629Y-101604800D01*
X157075200Y-101633371D01*
X157275200Y-101576229D02*
X157646629Y-101576229D01*
X157446629Y-101804800D01*
X157532343Y-101804800D01*
X157589486Y-101833371D01*
X157618057Y-101861943D01*
X157646629Y-101919086D01*
X157646629Y-102061943D01*
X157618057Y-102119086D01*
X157589486Y-102147657D01*
X157532343Y-102176229D01*
X157360915Y-102176229D01*
X157303772Y-102147657D01*
X157275200Y-102119086D01*
X149226600Y-116012886D02*
X149198029Y-116041457D01*
X149112315Y-116070029D01*
X149055172Y-116070029D01*
X148969457Y-116041457D01*
X148912315Y-115984314D01*
X148883743Y-115927171D01*
X148855172Y-115812886D01*
X148855172Y-115727171D01*
X148883743Y-115612886D01*
X148912315Y-115555743D01*
X148969457Y-115498600D01*
X149055172Y-115470029D01*
X149112315Y-115470029D01*
X149198029Y-115498600D01*
X149226600Y-115527171D01*
X149740886Y-115670029D02*
X149740886Y-116070029D01*
X149598029Y-115441457D02*
X149455172Y-115870029D01*
X149826600Y-115870029D01*
X164847600Y-114895286D02*
X164819029Y-114923857D01*
X164733315Y-114952429D01*
X164676172Y-114952429D01*
X164590457Y-114923857D01*
X164533315Y-114866714D01*
X164504743Y-114809571D01*
X164476172Y-114695286D01*
X164476172Y-114609571D01*
X164504743Y-114495286D01*
X164533315Y-114438143D01*
X164590457Y-114381000D01*
X164676172Y-114352429D01*
X164733315Y-114352429D01*
X164819029Y-114381000D01*
X164847600Y-114409571D01*
X165390457Y-114352429D02*
X165104743Y-114352429D01*
X165076172Y-114638143D01*
X165104743Y-114609571D01*
X165161886Y-114581000D01*
X165304743Y-114581000D01*
X165361886Y-114609571D01*
X165390457Y-114638143D01*
X165419029Y-114695286D01*
X165419029Y-114838143D01*
X165390457Y-114895286D01*
X165361886Y-114923857D01*
X165304743Y-114952429D01*
X165161886Y-114952429D01*
X165104743Y-114923857D01*
X165076172Y-114895286D01*
X169622800Y-108367486D02*
X169594229Y-108396057D01*
X169508515Y-108424629D01*
X169451372Y-108424629D01*
X169365657Y-108396057D01*
X169308515Y-108338914D01*
X169279943Y-108281771D01*
X169251372Y-108167486D01*
X169251372Y-108081771D01*
X169279943Y-107967486D01*
X169308515Y-107910343D01*
X169365657Y-107853200D01*
X169451372Y-107824629D01*
X169508515Y-107824629D01*
X169594229Y-107853200D01*
X169622800Y-107881771D01*
X170137086Y-107824629D02*
X170022800Y-107824629D01*
X169965657Y-107853200D01*
X169937086Y-107881771D01*
X169879943Y-107967486D01*
X169851372Y-108081771D01*
X169851372Y-108310343D01*
X169879943Y-108367486D01*
X169908515Y-108396057D01*
X169965657Y-108424629D01*
X170079943Y-108424629D01*
X170137086Y-108396057D01*
X170165657Y-108367486D01*
X170194229Y-108310343D01*
X170194229Y-108167486D01*
X170165657Y-108110343D01*
X170137086Y-108081771D01*
X170079943Y-108053200D01*
X169965657Y-108053200D01*
X169908515Y-108081771D01*
X169879943Y-108110343D01*
X169851372Y-108167486D01*
X133478600Y-116927286D02*
X133450029Y-116955857D01*
X133364315Y-116984429D01*
X133307172Y-116984429D01*
X133221457Y-116955857D01*
X133164315Y-116898714D01*
X133135743Y-116841571D01*
X133107172Y-116727286D01*
X133107172Y-116641571D01*
X133135743Y-116527286D01*
X133164315Y-116470143D01*
X133221457Y-116413000D01*
X133307172Y-116384429D01*
X133364315Y-116384429D01*
X133450029Y-116413000D01*
X133478600Y-116441571D01*
X133678600Y-116384429D02*
X134078600Y-116384429D01*
X133821457Y-116984429D01*
X130938600Y-116876486D02*
X130910029Y-116905057D01*
X130824315Y-116933629D01*
X130767172Y-116933629D01*
X130681457Y-116905057D01*
X130624315Y-116847914D01*
X130595743Y-116790771D01*
X130567172Y-116676486D01*
X130567172Y-116590771D01*
X130595743Y-116476486D01*
X130624315Y-116419343D01*
X130681457Y-116362200D01*
X130767172Y-116333629D01*
X130824315Y-116333629D01*
X130910029Y-116362200D01*
X130938600Y-116390771D01*
X131281457Y-116590771D02*
X131224315Y-116562200D01*
X131195743Y-116533629D01*
X131167172Y-116476486D01*
X131167172Y-116447914D01*
X131195743Y-116390771D01*
X131224315Y-116362200D01*
X131281457Y-116333629D01*
X131395743Y-116333629D01*
X131452886Y-116362200D01*
X131481457Y-116390771D01*
X131510029Y-116447914D01*
X131510029Y-116476486D01*
X131481457Y-116533629D01*
X131452886Y-116562200D01*
X131395743Y-116590771D01*
X131281457Y-116590771D01*
X131224315Y-116619343D01*
X131195743Y-116647914D01*
X131167172Y-116705057D01*
X131167172Y-116819343D01*
X131195743Y-116876486D01*
X131224315Y-116905057D01*
X131281457Y-116933629D01*
X131395743Y-116933629D01*
X131452886Y-116905057D01*
X131481457Y-116876486D01*
X131510029Y-116819343D01*
X131510029Y-116705057D01*
X131481457Y-116647914D01*
X131452886Y-116619343D01*
X131395743Y-116590771D01*
X164695200Y-110501086D02*
X164666629Y-110529657D01*
X164580915Y-110558229D01*
X164523772Y-110558229D01*
X164438057Y-110529657D01*
X164380915Y-110472514D01*
X164352343Y-110415371D01*
X164323772Y-110301086D01*
X164323772Y-110215371D01*
X164352343Y-110101086D01*
X164380915Y-110043943D01*
X164438057Y-109986800D01*
X164523772Y-109958229D01*
X164580915Y-109958229D01*
X164666629Y-109986800D01*
X164695200Y-110015371D01*
X164980915Y-110558229D02*
X165095200Y-110558229D01*
X165152343Y-110529657D01*
X165180915Y-110501086D01*
X165238057Y-110415371D01*
X165266629Y-110301086D01*
X165266629Y-110072514D01*
X165238057Y-110015371D01*
X165209486Y-109986800D01*
X165152343Y-109958229D01*
X165038057Y-109958229D01*
X164980915Y-109986800D01*
X164952343Y-110015371D01*
X164923772Y-110072514D01*
X164923772Y-110215371D01*
X164952343Y-110272514D01*
X164980915Y-110301086D01*
X165038057Y-110329657D01*
X165152343Y-110329657D01*
X165209486Y-110301086D01*
X165238057Y-110272514D01*
X165266629Y-110215371D01*
X160631200Y-97934429D02*
X160431200Y-97648714D01*
X160288343Y-97934429D02*
X160288343Y-97334429D01*
X160516915Y-97334429D01*
X160574057Y-97363000D01*
X160602629Y-97391571D01*
X160631200Y-97448714D01*
X160631200Y-97534429D01*
X160602629Y-97591571D01*
X160574057Y-97620143D01*
X160516915Y-97648714D01*
X160288343Y-97648714D01*
X160859772Y-97391571D02*
X160888343Y-97363000D01*
X160945486Y-97334429D01*
X161088343Y-97334429D01*
X161145486Y-97363000D01*
X161174057Y-97391571D01*
X161202629Y-97448714D01*
X161202629Y-97505857D01*
X161174057Y-97591571D01*
X160831200Y-97934429D01*
X161202629Y-97934429D01*
X172137400Y-99966429D02*
X171937400Y-99680714D01*
X171794543Y-99966429D02*
X171794543Y-99366429D01*
X172023115Y-99366429D01*
X172080257Y-99395000D01*
X172108829Y-99423571D01*
X172137400Y-99480714D01*
X172137400Y-99566429D01*
X172108829Y-99623571D01*
X172080257Y-99652143D01*
X172023115Y-99680714D01*
X171794543Y-99680714D01*
X172337400Y-99366429D02*
X172737400Y-99366429D01*
X172480257Y-99966429D01*
X161317000Y-113657029D02*
X161117000Y-113371314D01*
X160974143Y-113657029D02*
X160974143Y-113057029D01*
X161202715Y-113057029D01*
X161259857Y-113085600D01*
X161288429Y-113114171D01*
X161317000Y-113171314D01*
X161317000Y-113257029D01*
X161288429Y-113314171D01*
X161259857Y-113342743D01*
X161202715Y-113371314D01*
X160974143Y-113371314D01*
X161659857Y-113314171D02*
X161602715Y-113285600D01*
X161574143Y-113257029D01*
X161545572Y-113199886D01*
X161545572Y-113171314D01*
X161574143Y-113114171D01*
X161602715Y-113085600D01*
X161659857Y-113057029D01*
X161774143Y-113057029D01*
X161831286Y-113085600D01*
X161859857Y-113114171D01*
X161888429Y-113171314D01*
X161888429Y-113199886D01*
X161859857Y-113257029D01*
X161831286Y-113285600D01*
X161774143Y-113314171D01*
X161659857Y-113314171D01*
X161602715Y-113342743D01*
X161574143Y-113371314D01*
X161545572Y-113428457D01*
X161545572Y-113542743D01*
X161574143Y-113599886D01*
X161602715Y-113628457D01*
X161659857Y-113657029D01*
X161774143Y-113657029D01*
X161831286Y-113628457D01*
X161859857Y-113599886D01*
X161888429Y-113542743D01*
X161888429Y-113428457D01*
X161859857Y-113371314D01*
X161831286Y-113342743D01*
X161774143Y-113314171D01*
X111780685Y-130167029D02*
X111580685Y-129881314D01*
X111437828Y-130167029D02*
X111437828Y-129567029D01*
X111666400Y-129567029D01*
X111723542Y-129595600D01*
X111752114Y-129624171D01*
X111780685Y-129681314D01*
X111780685Y-129767029D01*
X111752114Y-129824171D01*
X111723542Y-129852743D01*
X111666400Y-129881314D01*
X111437828Y-129881314D01*
X112352114Y-130167029D02*
X112009257Y-130167029D01*
X112180685Y-130167029D02*
X112180685Y-129567029D01*
X112123542Y-129652743D01*
X112066400Y-129709886D01*
X112009257Y-129738457D01*
X112866400Y-129567029D02*
X112752114Y-129567029D01*
X112694971Y-129595600D01*
X112666400Y-129624171D01*
X112609257Y-129709886D01*
X112580686Y-129824171D01*
X112580686Y-130052743D01*
X112609257Y-130109886D01*
X112637829Y-130138457D01*
X112694971Y-130167029D01*
X112809257Y-130167029D01*
X112866400Y-130138457D01*
X112894971Y-130109886D01*
X112923543Y-130052743D01*
X112923543Y-129909886D01*
X112894971Y-129852743D01*
X112866400Y-129824171D01*
X112809257Y-129795600D01*
X112694971Y-129795600D01*
X112637829Y-129824171D01*
X112609257Y-129852743D01*
X112580686Y-129909886D01*
X109316885Y-116501829D02*
X109116885Y-116216114D01*
X108974028Y-116501829D02*
X108974028Y-115901829D01*
X109202600Y-115901829D01*
X109259742Y-115930400D01*
X109288314Y-115958971D01*
X109316885Y-116016114D01*
X109316885Y-116101829D01*
X109288314Y-116158971D01*
X109259742Y-116187543D01*
X109202600Y-116216114D01*
X108974028Y-116216114D01*
X109888314Y-116501829D02*
X109545457Y-116501829D01*
X109716885Y-116501829D02*
X109716885Y-115901829D01*
X109659742Y-115987543D01*
X109602600Y-116044686D01*
X109545457Y-116073257D01*
X110088314Y-115901829D02*
X110488314Y-115901829D01*
X110231171Y-116501829D01*
X164714285Y-112996629D02*
X164514285Y-112710914D01*
X164371428Y-112996629D02*
X164371428Y-112396629D01*
X164600000Y-112396629D01*
X164657142Y-112425200D01*
X164685714Y-112453771D01*
X164714285Y-112510914D01*
X164714285Y-112596629D01*
X164685714Y-112653771D01*
X164657142Y-112682343D01*
X164600000Y-112710914D01*
X164371428Y-112710914D01*
X164942857Y-112453771D02*
X164971428Y-112425200D01*
X165028571Y-112396629D01*
X165171428Y-112396629D01*
X165228571Y-112425200D01*
X165257142Y-112453771D01*
X165285714Y-112510914D01*
X165285714Y-112568057D01*
X165257142Y-112653771D01*
X164914285Y-112996629D01*
X165285714Y-112996629D01*
X165657143Y-112396629D02*
X165714286Y-112396629D01*
X165771429Y-112425200D01*
X165800000Y-112453771D01*
X165828571Y-112510914D01*
X165857143Y-112625200D01*
X165857143Y-112768057D01*
X165828571Y-112882343D01*
X165800000Y-112939486D01*
X165771429Y-112968057D01*
X165714286Y-112996629D01*
X165657143Y-112996629D01*
X165600000Y-112968057D01*
X165571429Y-112939486D01*
X165542857Y-112882343D01*
X165514286Y-112768057D01*
X165514286Y-112625200D01*
X165542857Y-112510914D01*
X165571429Y-112453771D01*
X165600000Y-112425200D01*
X165657143Y-112396629D01*
X164409485Y-117187629D02*
X164209485Y-116901914D01*
X164066628Y-117187629D02*
X164066628Y-116587629D01*
X164295200Y-116587629D01*
X164352342Y-116616200D01*
X164380914Y-116644771D01*
X164409485Y-116701914D01*
X164409485Y-116787629D01*
X164380914Y-116844771D01*
X164352342Y-116873343D01*
X164295200Y-116901914D01*
X164066628Y-116901914D01*
X164638057Y-116644771D02*
X164666628Y-116616200D01*
X164723771Y-116587629D01*
X164866628Y-116587629D01*
X164923771Y-116616200D01*
X164952342Y-116644771D01*
X164980914Y-116701914D01*
X164980914Y-116759057D01*
X164952342Y-116844771D01*
X164609485Y-117187629D01*
X164980914Y-117187629D01*
X165180914Y-116587629D02*
X165552343Y-116587629D01*
X165352343Y-116816200D01*
X165438057Y-116816200D01*
X165495200Y-116844771D01*
X165523771Y-116873343D01*
X165552343Y-116930486D01*
X165552343Y-117073343D01*
X165523771Y-117130486D01*
X165495200Y-117159057D01*
X165438057Y-117187629D01*
X165266629Y-117187629D01*
X165209486Y-117159057D01*
X165180914Y-117130486D01*
X125750685Y-117136829D02*
X125550685Y-116851114D01*
X125407828Y-117136829D02*
X125407828Y-116536829D01*
X125636400Y-116536829D01*
X125693542Y-116565400D01*
X125722114Y-116593971D01*
X125750685Y-116651114D01*
X125750685Y-116736829D01*
X125722114Y-116793971D01*
X125693542Y-116822543D01*
X125636400Y-116851114D01*
X125407828Y-116851114D01*
X125979257Y-116593971D02*
X126007828Y-116565400D01*
X126064971Y-116536829D01*
X126207828Y-116536829D01*
X126264971Y-116565400D01*
X126293542Y-116593971D01*
X126322114Y-116651114D01*
X126322114Y-116708257D01*
X126293542Y-116793971D01*
X125950685Y-117136829D01*
X126322114Y-117136829D01*
X126836400Y-116536829D02*
X126722114Y-116536829D01*
X126664971Y-116565400D01*
X126636400Y-116593971D01*
X126579257Y-116679686D01*
X126550686Y-116793971D01*
X126550686Y-117022543D01*
X126579257Y-117079686D01*
X126607829Y-117108257D01*
X126664971Y-117136829D01*
X126779257Y-117136829D01*
X126836400Y-117108257D01*
X126864971Y-117079686D01*
X126893543Y-117022543D01*
X126893543Y-116879686D01*
X126864971Y-116822543D01*
X126836400Y-116793971D01*
X126779257Y-116765400D01*
X126664971Y-116765400D01*
X126607829Y-116793971D01*
X126579257Y-116822543D01*
X126550686Y-116879686D01*
X128189085Y-117111429D02*
X127989085Y-116825714D01*
X127846228Y-117111429D02*
X127846228Y-116511429D01*
X128074800Y-116511429D01*
X128131942Y-116540000D01*
X128160514Y-116568571D01*
X128189085Y-116625714D01*
X128189085Y-116711429D01*
X128160514Y-116768571D01*
X128131942Y-116797143D01*
X128074800Y-116825714D01*
X127846228Y-116825714D01*
X128417657Y-116568571D02*
X128446228Y-116540000D01*
X128503371Y-116511429D01*
X128646228Y-116511429D01*
X128703371Y-116540000D01*
X128731942Y-116568571D01*
X128760514Y-116625714D01*
X128760514Y-116682857D01*
X128731942Y-116768571D01*
X128389085Y-117111429D01*
X128760514Y-117111429D01*
X128960514Y-116511429D02*
X129360514Y-116511429D01*
X129103371Y-117111429D01*
X146202457Y-115114429D02*
X146202457Y-115600143D01*
X146231029Y-115657286D01*
X146259600Y-115685857D01*
X146316743Y-115714429D01*
X146431029Y-115714429D01*
X146488171Y-115685857D01*
X146516743Y-115657286D01*
X146545314Y-115600143D01*
X146545314Y-115114429D01*
X146802457Y-115171571D02*
X146831028Y-115143000D01*
X146888171Y-115114429D01*
X147031028Y-115114429D01*
X147088171Y-115143000D01*
X147116742Y-115171571D01*
X147145314Y-115228714D01*
X147145314Y-115285857D01*
X147116742Y-115371571D01*
X146773885Y-115714429D01*
X147145314Y-115714429D01*
D11*
X118997505Y-104185981D02*
X118997505Y-103185981D01*
X119378458Y-103185981D01*
X119473696Y-103233600D01*
X119521315Y-103281219D01*
X119568934Y-103376457D01*
X119568934Y-103519314D01*
X119521315Y-103614552D01*
X119473696Y-103662171D01*
X119378458Y-103709790D01*
X118997505Y-103709790D01*
X120426077Y-103185981D02*
X120235600Y-103185981D01*
X120140362Y-103233600D01*
X120092743Y-103281219D01*
X119997505Y-103424076D01*
X119949886Y-103614552D01*
X119949886Y-103995505D01*
X119997505Y-104090743D01*
X120045124Y-104138362D01*
X120140362Y-104185981D01*
X120330839Y-104185981D01*
X120426077Y-104138362D01*
X120473696Y-104090743D01*
X120521315Y-103995505D01*
X120521315Y-103757410D01*
X120473696Y-103662171D01*
X120426077Y-103614552D01*
X120330839Y-103566933D01*
X120140362Y-103566933D01*
X120045124Y-103614552D01*
X119997505Y-103662171D01*
X119949886Y-103757410D01*
D10*
X109443885Y-108678629D02*
X109243885Y-108392914D01*
X109101028Y-108678629D02*
X109101028Y-108078629D01*
X109329600Y-108078629D01*
X109386742Y-108107200D01*
X109415314Y-108135771D01*
X109443885Y-108192914D01*
X109443885Y-108278629D01*
X109415314Y-108335771D01*
X109386742Y-108364343D01*
X109329600Y-108392914D01*
X109101028Y-108392914D01*
X110015314Y-108678629D02*
X109672457Y-108678629D01*
X109843885Y-108678629D02*
X109843885Y-108078629D01*
X109786742Y-108164343D01*
X109729600Y-108221486D01*
X109672457Y-108250057D01*
X110358171Y-108335771D02*
X110301029Y-108307200D01*
X110272457Y-108278629D01*
X110243886Y-108221486D01*
X110243886Y-108192914D01*
X110272457Y-108135771D01*
X110301029Y-108107200D01*
X110358171Y-108078629D01*
X110472457Y-108078629D01*
X110529600Y-108107200D01*
X110558171Y-108135771D01*
X110586743Y-108192914D01*
X110586743Y-108221486D01*
X110558171Y-108278629D01*
X110529600Y-108307200D01*
X110472457Y-108335771D01*
X110358171Y-108335771D01*
X110301029Y-108364343D01*
X110272457Y-108392914D01*
X110243886Y-108450057D01*
X110243886Y-108564343D01*
X110272457Y-108621486D01*
X110301029Y-108650057D01*
X110358171Y-108678629D01*
X110472457Y-108678629D01*
X110529600Y-108650057D01*
X110558171Y-108621486D01*
X110586743Y-108564343D01*
X110586743Y-108450057D01*
X110558171Y-108392914D01*
X110529600Y-108364343D01*
X110472457Y-108335771D01*
X109443885Y-106392629D02*
X109243885Y-106106914D01*
X109101028Y-106392629D02*
X109101028Y-105792629D01*
X109329600Y-105792629D01*
X109386742Y-105821200D01*
X109415314Y-105849771D01*
X109443885Y-105906914D01*
X109443885Y-105992629D01*
X109415314Y-106049771D01*
X109386742Y-106078343D01*
X109329600Y-106106914D01*
X109101028Y-106106914D01*
X110015314Y-106392629D02*
X109672457Y-106392629D01*
X109843885Y-106392629D02*
X109843885Y-105792629D01*
X109786742Y-105878343D01*
X109729600Y-105935486D01*
X109672457Y-105964057D01*
X110301029Y-106392629D02*
X110415314Y-106392629D01*
X110472457Y-106364057D01*
X110501029Y-106335486D01*
X110558171Y-106249771D01*
X110586743Y-106135486D01*
X110586743Y-105906914D01*
X110558171Y-105849771D01*
X110529600Y-105821200D01*
X110472457Y-105792629D01*
X110358171Y-105792629D01*
X110301029Y-105821200D01*
X110272457Y-105849771D01*
X110243886Y-105906914D01*
X110243886Y-106049771D01*
X110272457Y-106106914D01*
X110301029Y-106135486D01*
X110358171Y-106164057D01*
X110472457Y-106164057D01*
X110529600Y-106135486D01*
X110558171Y-106106914D01*
X110586743Y-106049771D01*
X109545485Y-111720286D02*
X109516914Y-111748857D01*
X109431200Y-111777429D01*
X109374057Y-111777429D01*
X109288342Y-111748857D01*
X109231200Y-111691714D01*
X109202628Y-111634571D01*
X109174057Y-111520286D01*
X109174057Y-111434571D01*
X109202628Y-111320286D01*
X109231200Y-111263143D01*
X109288342Y-111206000D01*
X109374057Y-111177429D01*
X109431200Y-111177429D01*
X109516914Y-111206000D01*
X109545485Y-111234571D01*
X110116914Y-111777429D02*
X109774057Y-111777429D01*
X109945485Y-111777429D02*
X109945485Y-111177429D01*
X109888342Y-111263143D01*
X109831200Y-111320286D01*
X109774057Y-111348857D01*
X110488343Y-111177429D02*
X110545486Y-111177429D01*
X110602629Y-111206000D01*
X110631200Y-111234571D01*
X110659771Y-111291714D01*
X110688343Y-111406000D01*
X110688343Y-111548857D01*
X110659771Y-111663143D01*
X110631200Y-111720286D01*
X110602629Y-111748857D01*
X110545486Y-111777429D01*
X110488343Y-111777429D01*
X110431200Y-111748857D01*
X110402629Y-111720286D01*
X110374057Y-111663143D01*
X110345486Y-111548857D01*
X110345486Y-111406000D01*
X110374057Y-111291714D01*
X110402629Y-111234571D01*
X110431200Y-111206000D01*
X110488343Y-111177429D01*
X156738685Y-113472886D02*
X156710114Y-113501457D01*
X156624400Y-113530029D01*
X156567257Y-113530029D01*
X156481542Y-113501457D01*
X156424400Y-113444314D01*
X156395828Y-113387171D01*
X156367257Y-113272886D01*
X156367257Y-113187171D01*
X156395828Y-113072886D01*
X156424400Y-113015743D01*
X156481542Y-112958600D01*
X156567257Y-112930029D01*
X156624400Y-112930029D01*
X156710114Y-112958600D01*
X156738685Y-112987171D01*
X157310114Y-113530029D02*
X156967257Y-113530029D01*
X157138685Y-113530029D02*
X157138685Y-112930029D01*
X157081542Y-113015743D01*
X157024400Y-113072886D01*
X156967257Y-113101457D01*
X157881543Y-113530029D02*
X157538686Y-113530029D01*
X157710114Y-113530029D02*
X157710114Y-112930029D01*
X157652971Y-113015743D01*
X157595829Y-113072886D01*
X157538686Y-113101457D01*
X157653085Y-118451286D02*
X157624514Y-118479857D01*
X157538800Y-118508429D01*
X157481657Y-118508429D01*
X157395942Y-118479857D01*
X157338800Y-118422714D01*
X157310228Y-118365571D01*
X157281657Y-118251286D01*
X157281657Y-118165571D01*
X157310228Y-118051286D01*
X157338800Y-117994143D01*
X157395942Y-117937000D01*
X157481657Y-117908429D01*
X157538800Y-117908429D01*
X157624514Y-117937000D01*
X157653085Y-117965571D01*
X158224514Y-118508429D02*
X157881657Y-118508429D01*
X158053085Y-118508429D02*
X158053085Y-117908429D01*
X157995942Y-117994143D01*
X157938800Y-118051286D01*
X157881657Y-118079857D01*
X158453086Y-117965571D02*
X158481657Y-117937000D01*
X158538800Y-117908429D01*
X158681657Y-117908429D01*
X158738800Y-117937000D01*
X158767371Y-117965571D01*
X158795943Y-118022714D01*
X158795943Y-118079857D01*
X158767371Y-118165571D01*
X158424514Y-118508429D01*
X158795943Y-118508429D01*
X172131085Y-102423886D02*
X172102514Y-102452457D01*
X172016800Y-102481029D01*
X171959657Y-102481029D01*
X171873942Y-102452457D01*
X171816800Y-102395314D01*
X171788228Y-102338171D01*
X171759657Y-102223886D01*
X171759657Y-102138171D01*
X171788228Y-102023886D01*
X171816800Y-101966743D01*
X171873942Y-101909600D01*
X171959657Y-101881029D01*
X172016800Y-101881029D01*
X172102514Y-101909600D01*
X172131085Y-101938171D01*
X172702514Y-102481029D02*
X172359657Y-102481029D01*
X172531085Y-102481029D02*
X172531085Y-101881029D01*
X172473942Y-101966743D01*
X172416800Y-102023886D01*
X172359657Y-102052457D01*
X172902514Y-101881029D02*
X173273943Y-101881029D01*
X173073943Y-102109600D01*
X173159657Y-102109600D01*
X173216800Y-102138171D01*
X173245371Y-102166743D01*
X173273943Y-102223886D01*
X173273943Y-102366743D01*
X173245371Y-102423886D01*
X173216800Y-102452457D01*
X173159657Y-102481029D01*
X172988229Y-102481029D01*
X172931086Y-102452457D01*
X172902514Y-102423886D01*
X168276600Y-121912029D02*
X168076600Y-121626314D01*
X167933743Y-121912029D02*
X167933743Y-121312029D01*
X168162315Y-121312029D01*
X168219457Y-121340600D01*
X168248029Y-121369171D01*
X168276600Y-121426314D01*
X168276600Y-121512029D01*
X168248029Y-121569171D01*
X168219457Y-121597743D01*
X168162315Y-121626314D01*
X167933743Y-121626314D01*
X168848029Y-121912029D02*
X168505172Y-121912029D01*
X168676600Y-121912029D02*
X168676600Y-121312029D01*
X168619457Y-121397743D01*
X168562315Y-121454886D01*
X168505172Y-121483457D01*
X162382257Y-118137029D02*
X162382257Y-118622743D01*
X162410829Y-118679886D01*
X162439400Y-118708457D01*
X162496543Y-118737029D01*
X162610829Y-118737029D01*
X162667971Y-118708457D01*
X162696543Y-118679886D01*
X162725114Y-118622743D01*
X162725114Y-118137029D01*
X162953685Y-118137029D02*
X163325114Y-118137029D01*
X163125114Y-118365600D01*
X163210828Y-118365600D01*
X163267971Y-118394171D01*
X163296542Y-118422743D01*
X163325114Y-118479886D01*
X163325114Y-118622743D01*
X163296542Y-118679886D01*
X163267971Y-118708457D01*
X163210828Y-118737029D01*
X163039400Y-118737029D01*
X162982257Y-118708457D01*
X162953685Y-118679886D01*
X154433600Y-83964429D02*
X154147886Y-83964429D01*
X154147886Y-83364429D01*
X154947886Y-83964429D02*
X154605029Y-83964429D01*
X154776457Y-83964429D02*
X154776457Y-83364429D01*
X154719314Y-83450143D01*
X154662172Y-83507286D01*
X154605029Y-83535857D01*
X148134400Y-120997629D02*
X147848686Y-120997629D01*
X147848686Y-120397629D01*
X148305829Y-120454771D02*
X148334400Y-120426200D01*
X148391543Y-120397629D01*
X148534400Y-120397629D01*
X148591543Y-120426200D01*
X148620114Y-120454771D01*
X148648686Y-120511914D01*
X148648686Y-120569057D01*
X148620114Y-120654771D01*
X148277257Y-120997629D01*
X148648686Y-120997629D01*
X161563143Y-92549629D02*
X161563143Y-91949629D01*
X161791715Y-91949629D01*
X161848857Y-91978200D01*
X161877429Y-92006771D01*
X161906000Y-92063914D01*
X161906000Y-92149629D01*
X161877429Y-92206771D01*
X161848857Y-92235343D01*
X161791715Y-92263914D01*
X161563143Y-92263914D01*
X162363143Y-92235343D02*
X162448857Y-92263914D01*
X162477429Y-92292486D01*
X162506000Y-92349629D01*
X162506000Y-92435343D01*
X162477429Y-92492486D01*
X162448857Y-92521057D01*
X162391715Y-92549629D01*
X162163143Y-92549629D01*
X162163143Y-91949629D01*
X162363143Y-91949629D01*
X162420286Y-91978200D01*
X162448857Y-92006771D01*
X162477429Y-92063914D01*
X162477429Y-92121057D01*
X162448857Y-92178200D01*
X162420286Y-92206771D01*
X162363143Y-92235343D01*
X162163143Y-92235343D01*
X162706000Y-91949629D02*
X163077429Y-91949629D01*
X162877429Y-92178200D01*
X162963143Y-92178200D01*
X163020286Y-92206771D01*
X163048857Y-92235343D01*
X163077429Y-92292486D01*
X163077429Y-92435343D01*
X163048857Y-92492486D01*
X163020286Y-92521057D01*
X162963143Y-92549629D01*
X162791715Y-92549629D01*
X162734572Y-92521057D01*
X162706000Y-92492486D01*
X162045657Y-126149371D02*
X161988514Y-126120800D01*
X161931371Y-126063657D01*
X161845657Y-125977943D01*
X161788514Y-125949371D01*
X161731371Y-125949371D01*
X161759943Y-126092229D02*
X161702800Y-126063657D01*
X161645657Y-126006514D01*
X161617086Y-125892229D01*
X161617086Y-125692229D01*
X161645657Y-125577943D01*
X161702800Y-125520800D01*
X161759943Y-125492229D01*
X161874229Y-125492229D01*
X161931371Y-125520800D01*
X161988514Y-125577943D01*
X162017086Y-125692229D01*
X162017086Y-125892229D01*
X161988514Y-126006514D01*
X161931371Y-126063657D01*
X161874229Y-126092229D01*
X161759943Y-126092229D01*
X162588514Y-126092229D02*
X162245657Y-126092229D01*
X162417085Y-126092229D02*
X162417085Y-125492229D01*
X162359942Y-125577943D01*
X162302800Y-125635086D01*
X162245657Y-125663657D01*
X166033457Y-126073171D02*
X165976314Y-126044600D01*
X165919171Y-125987457D01*
X165833457Y-125901743D01*
X165776314Y-125873171D01*
X165719171Y-125873171D01*
X165747743Y-126016029D02*
X165690600Y-125987457D01*
X165633457Y-125930314D01*
X165604886Y-125816029D01*
X165604886Y-125616029D01*
X165633457Y-125501743D01*
X165690600Y-125444600D01*
X165747743Y-125416029D01*
X165862029Y-125416029D01*
X165919171Y-125444600D01*
X165976314Y-125501743D01*
X166004886Y-125616029D01*
X166004886Y-125816029D01*
X165976314Y-125930314D01*
X165919171Y-125987457D01*
X165862029Y-126016029D01*
X165747743Y-126016029D01*
X166233457Y-125473171D02*
X166262028Y-125444600D01*
X166319171Y-125416029D01*
X166462028Y-125416029D01*
X166519171Y-125444600D01*
X166547742Y-125473171D01*
X166576314Y-125530314D01*
X166576314Y-125587457D01*
X166547742Y-125673171D01*
X166204885Y-126016029D01*
X166576314Y-126016029D01*
X169953000Y-94708629D02*
X169753000Y-94422914D01*
X169610143Y-94708629D02*
X169610143Y-94108629D01*
X169838715Y-94108629D01*
X169895857Y-94137200D01*
X169924429Y-94165771D01*
X169953000Y-94222914D01*
X169953000Y-94308629D01*
X169924429Y-94365771D01*
X169895857Y-94394343D01*
X169838715Y-94422914D01*
X169610143Y-94422914D01*
X170153000Y-94108629D02*
X170524429Y-94108629D01*
X170324429Y-94337200D01*
X170410143Y-94337200D01*
X170467286Y-94365771D01*
X170495857Y-94394343D01*
X170524429Y-94451486D01*
X170524429Y-94594343D01*
X170495857Y-94651486D01*
X170467286Y-94680057D01*
X170410143Y-94708629D01*
X170238715Y-94708629D01*
X170181572Y-94680057D01*
X170153000Y-94651486D01*
X109755000Y-124096429D02*
X109555000Y-123810714D01*
X109412143Y-124096429D02*
X109412143Y-123496429D01*
X109640715Y-123496429D01*
X109697857Y-123525000D01*
X109726429Y-123553571D01*
X109755000Y-123610714D01*
X109755000Y-123696429D01*
X109726429Y-123753571D01*
X109697857Y-123782143D01*
X109640715Y-123810714D01*
X109412143Y-123810714D01*
X110297857Y-123496429D02*
X110012143Y-123496429D01*
X109983572Y-123782143D01*
X110012143Y-123753571D01*
X110069286Y-123725000D01*
X110212143Y-123725000D01*
X110269286Y-123753571D01*
X110297857Y-123782143D01*
X110326429Y-123839286D01*
X110326429Y-123982143D01*
X110297857Y-124039286D01*
X110269286Y-124067857D01*
X110212143Y-124096429D01*
X110069286Y-124096429D01*
X110012143Y-124067857D01*
X109983572Y-124039286D01*
X157456200Y-124350429D02*
X157256200Y-124064714D01*
X157113343Y-124350429D02*
X157113343Y-123750429D01*
X157341915Y-123750429D01*
X157399057Y-123779000D01*
X157427629Y-123807571D01*
X157456200Y-123864714D01*
X157456200Y-123950429D01*
X157427629Y-124007571D01*
X157399057Y-124036143D01*
X157341915Y-124064714D01*
X157113343Y-124064714D01*
X157970486Y-123750429D02*
X157856200Y-123750429D01*
X157799057Y-123779000D01*
X157770486Y-123807571D01*
X157713343Y-123893286D01*
X157684772Y-124007571D01*
X157684772Y-124236143D01*
X157713343Y-124293286D01*
X157741915Y-124321857D01*
X157799057Y-124350429D01*
X157913343Y-124350429D01*
X157970486Y-124321857D01*
X157999057Y-124293286D01*
X158027629Y-124236143D01*
X158027629Y-124093286D01*
X157999057Y-124036143D01*
X157970486Y-124007571D01*
X157913343Y-123979000D01*
X157799057Y-123979000D01*
X157741915Y-124007571D01*
X157713343Y-124036143D01*
X157684772Y-124093286D01*
X157303800Y-128439829D02*
X157103800Y-128154114D01*
X156960943Y-128439829D02*
X156960943Y-127839829D01*
X157189515Y-127839829D01*
X157246657Y-127868400D01*
X157275229Y-127896971D01*
X157303800Y-127954114D01*
X157303800Y-128039829D01*
X157275229Y-128096971D01*
X157246657Y-128125543D01*
X157189515Y-128154114D01*
X156960943Y-128154114D01*
X157589515Y-128439829D02*
X157703800Y-128439829D01*
X157760943Y-128411257D01*
X157789515Y-128382686D01*
X157846657Y-128296971D01*
X157875229Y-128182686D01*
X157875229Y-127954114D01*
X157846657Y-127896971D01*
X157818086Y-127868400D01*
X157760943Y-127839829D01*
X157646657Y-127839829D01*
X157589515Y-127868400D01*
X157560943Y-127896971D01*
X157532372Y-127954114D01*
X157532372Y-128096971D01*
X157560943Y-128154114D01*
X157589515Y-128182686D01*
X157646657Y-128211257D01*
X157760943Y-128211257D01*
X157818086Y-128182686D01*
X157846657Y-128154114D01*
X157875229Y-128096971D01*
X131338685Y-112634686D02*
X131310114Y-112663257D01*
X131224400Y-112691829D01*
X131167257Y-112691829D01*
X131081542Y-112663257D01*
X131024400Y-112606114D01*
X130995828Y-112548971D01*
X130967257Y-112434686D01*
X130967257Y-112348971D01*
X130995828Y-112234686D01*
X131024400Y-112177543D01*
X131081542Y-112120400D01*
X131167257Y-112091829D01*
X131224400Y-112091829D01*
X131310114Y-112120400D01*
X131338685Y-112148971D01*
X131910114Y-112691829D02*
X131567257Y-112691829D01*
X131738685Y-112691829D02*
X131738685Y-112091829D01*
X131681542Y-112177543D01*
X131624400Y-112234686D01*
X131567257Y-112263257D01*
X132424400Y-112291829D02*
X132424400Y-112691829D01*
X132281543Y-112063257D02*
X132138686Y-112491829D01*
X132510114Y-112491829D01*
D11*
X139117505Y-119498781D02*
X139117505Y-118498781D01*
X139355600Y-118498781D01*
X139498458Y-118546400D01*
X139593696Y-118641638D01*
X139641315Y-118736876D01*
X139688934Y-118927352D01*
X139688934Y-119070210D01*
X139641315Y-119260686D01*
X139593696Y-119355924D01*
X139498458Y-119451162D01*
X139355600Y-119498781D01*
X139117505Y-119498781D01*
X140641315Y-119498781D02*
X140069886Y-119498781D01*
X140355600Y-119498781D02*
X140355600Y-118498781D01*
X140260362Y-118641638D01*
X140165124Y-118736876D01*
X140069886Y-118784495D01*
X159715295Y-101681581D02*
X159715295Y-102491105D01*
X159762914Y-102586343D01*
X159810533Y-102633962D01*
X159905771Y-102681581D01*
X160096248Y-102681581D01*
X160191486Y-102633962D01*
X160239105Y-102586343D01*
X160286724Y-102491105D01*
X160286724Y-101681581D01*
X161286724Y-102681581D02*
X160715295Y-102681581D01*
X161001009Y-102681581D02*
X161001009Y-101681581D01*
X160905771Y-101824438D01*
X160810533Y-101919676D01*
X160715295Y-101967295D01*
M02*
