G04 #@! TF.FileFunction,Profile,NP*
%FSLAX46Y46*%
G04 Gerber Fmt 4.6, Leading zero omitted, Abs format (unit mm)*
G04 Created by KiCad (PCBNEW 4.0.6) date Monday, July 30, 2018 'PMt' 08:55:28 PM*
%MOMM*%
%LPD*%
G01*
G04 APERTURE LIST*
%ADD10C,0.100000*%
G04 APERTURE END LIST*
D10*
X143713200Y-128295400D02*
X143738600Y-128295400D01*
X143713200Y-122275600D02*
X143713200Y-128295400D01*
X149758400Y-128295400D02*
X143687800Y-128295400D01*
X142392400Y-66751200D02*
X142392400Y-69951600D01*
X174599600Y-132334000D02*
X174599600Y-135331200D01*
X120350400Y-139852400D02*
X108559600Y-139852400D01*
X108559600Y-130708400D02*
X108559600Y-139801600D01*
X108562140Y-130741420D02*
X108562140Y-91899740D01*
X141922500Y-94805500D02*
X141904720Y-94805500D01*
X142379700Y-70000000D02*
X142379700Y-94754700D01*
X142394940Y-58280040D02*
X142394940Y-66794120D01*
X174599600Y-58264800D02*
X172567600Y-58264800D01*
X174599600Y-132331200D02*
X174599600Y-58264800D01*
X172618400Y-135331200D02*
X174599600Y-135331200D01*
X108559600Y-91897200D02*
X121005600Y-91897200D01*
X108559600Y-139852400D02*
X108559600Y-139801600D01*
X121094500Y-94805500D02*
X142350000Y-94805500D01*
X121031000Y-91884500D02*
X121031000Y-94805500D01*
X144576800Y-58264800D02*
X172618400Y-58264800D01*
X144576800Y-58264800D02*
X142400000Y-58264800D01*
X120345200Y-135636000D02*
X120345200Y-139877800D01*
X120345200Y-125298200D02*
X120345200Y-135636000D01*
X143713200Y-122275600D02*
X120321200Y-122275600D01*
X120345200Y-125323600D02*
X120345200Y-122275600D01*
X149758400Y-128320800D02*
X149758400Y-135331200D01*
X149758400Y-128320800D02*
X149758400Y-128625600D01*
X149758400Y-135331200D02*
X172618400Y-135331200D01*
M02*
