G04 #@! TF.FileFunction,Copper,L2,Bot,Signal*
%FSLAX46Y46*%
G04 Gerber Fmt 4.6, Leading zero omitted, Abs format (unit mm)*
G04 Created by KiCad (PCBNEW 4.0.6) date Monday, July 30, 2018 'PMt' 08:55:28 PM*
%MOMM*%
%LPD*%
G01*
G04 APERTURE LIST*
%ADD10C,0.100000*%
%ADD11C,2.999740*%
%ADD12C,1.500000*%
%ADD13C,2.000000*%
%ADD14C,1.501140*%
%ADD15R,1.270000X2.540000*%
%ADD16O,1.270000X2.540000*%
%ADD17R,2.000000X1.270000*%
%ADD18O,2.000000X1.270000*%
%ADD19R,2.540000X1.270000*%
%ADD20O,2.540000X1.270000*%
%ADD21C,2.500000*%
%ADD22C,0.600000*%
%ADD23C,0.250000*%
%ADD24C,0.180000*%
%ADD25C,1.000000*%
%ADD26C,0.500000*%
%ADD27C,0.400000*%
%ADD28C,0.600000*%
%ADD29C,0.254000*%
G04 APERTURE END LIST*
D10*
D11*
X112623600Y-136855200D03*
X168605200Y-132791200D03*
X168605200Y-70612000D03*
D12*
X172059600Y-115385600D03*
X172059600Y-113385600D03*
X172059600Y-111385600D03*
D13*
X172059600Y-117485600D03*
X172059600Y-109285600D03*
D14*
X128269140Y-107799720D03*
X130809140Y-107799720D03*
X132841140Y-107799720D03*
X135381140Y-107799720D03*
D11*
X125221140Y-105132720D03*
X138937140Y-105132720D03*
D15*
X154076400Y-61986800D03*
D16*
X156616400Y-61986800D03*
X159156400Y-61986800D03*
X161696400Y-61986800D03*
D17*
X115874800Y-106019600D03*
D18*
X115874800Y-108559600D03*
X115874800Y-111099600D03*
X115874800Y-113639600D03*
X115874800Y-116179600D03*
X115874800Y-118719600D03*
X115874800Y-121259600D03*
X115874800Y-123799600D03*
X115874800Y-126339600D03*
X115874800Y-128879600D03*
X115874800Y-131419600D03*
X115874800Y-133959600D03*
D19*
X153466800Y-106019600D03*
D20*
X153466800Y-108559600D03*
X153466800Y-111099600D03*
X153466800Y-113639600D03*
X153466800Y-116179600D03*
X153466800Y-118719600D03*
X153466800Y-121259600D03*
X153466800Y-123799600D03*
X153466800Y-126339600D03*
X153466800Y-128879600D03*
X153466800Y-131419600D03*
X153466800Y-133959600D03*
D17*
X118364000Y-106019600D03*
D18*
X118364000Y-108559600D03*
X118364000Y-111099600D03*
X118364000Y-113639600D03*
X118364000Y-116179600D03*
X118364000Y-118719600D03*
X118364000Y-121259600D03*
X118364000Y-123799600D03*
X118364000Y-126339600D03*
X118364000Y-128879600D03*
X118364000Y-131419600D03*
X118364000Y-133959600D03*
D21*
X148488400Y-103632000D03*
X172364400Y-132740400D03*
X163169600Y-67056000D03*
X159410400Y-132740400D03*
X158242000Y-121869200D03*
D22*
X153111200Y-94259400D03*
X133121400Y-101269800D03*
X164439600Y-101396800D03*
X165303200Y-64262000D03*
X122174000Y-101904800D03*
X125272800Y-98247200D03*
X144272000Y-91389200D03*
X146456400Y-70104000D03*
X147828000Y-61874400D03*
X121488200Y-103098600D03*
X127406400Y-101371400D03*
X149606000Y-101142800D03*
X154305000Y-100482400D03*
X112293400Y-120065800D03*
X122936000Y-101295200D03*
X127355600Y-99314000D03*
X149809200Y-98196400D03*
X155956000Y-97713800D03*
X150317200Y-99009200D03*
X155143200Y-98501200D03*
X155092400Y-96977200D03*
X143611600Y-119557800D03*
X126847600Y-121310400D03*
X163118800Y-98653600D03*
X162356800Y-99110800D03*
X162356800Y-98653600D03*
X165608000Y-66294000D03*
X128320800Y-114274600D03*
X146024600Y-120675400D03*
X150444200Y-115874800D03*
X134950200Y-120065800D03*
X172643800Y-68351400D03*
X159283400Y-119075200D03*
X159029400Y-131292600D03*
X172770800Y-88620600D03*
X159029397Y-77418921D03*
X158978600Y-87071200D03*
X151688800Y-86944200D03*
X152501600Y-77419200D03*
X172669200Y-77444600D03*
X172008800Y-100787200D03*
X162102800Y-107188000D03*
X159920950Y-107185450D03*
X160985200Y-108305600D03*
X161033450Y-107185450D03*
X158750000Y-108305600D03*
X161033450Y-104960450D03*
X162153600Y-108254800D03*
X159920950Y-106072950D03*
X158800800Y-106070400D03*
X158808450Y-107185450D03*
X159918400Y-108305600D03*
X158808450Y-104960450D03*
X159920950Y-104960450D03*
X133807200Y-115722400D03*
X162102800Y-106273600D03*
X170789600Y-66497200D03*
X167944800Y-98958400D03*
X162145950Y-104960450D03*
X169722800Y-124917200D03*
X167284400Y-118516400D03*
X158242000Y-112166400D03*
X161340800Y-117881400D03*
X164312600Y-128447800D03*
X165481000Y-102971600D03*
X167919400Y-106680000D03*
X161366200Y-120167400D03*
X160197800Y-68224400D03*
X157048200Y-97205800D03*
X159664400Y-101574600D03*
X161696400Y-102082600D03*
X169570400Y-104038400D03*
X136296400Y-112268000D03*
X125171200Y-112217200D03*
X156591000Y-73863200D03*
X111150400Y-111861600D03*
X169646600Y-127533400D03*
X173659800Y-104698800D03*
X166725600Y-102971600D03*
X156057600Y-105613200D03*
X161442400Y-101092000D03*
X166700200Y-102031800D03*
X145516600Y-78562200D03*
X111556800Y-121920000D03*
X172974000Y-98628200D03*
D23*
X151206200Y-96164400D02*
X151206200Y-96139000D01*
X151206200Y-96139000D02*
X151206200Y-96164400D01*
X153111200Y-94259400D02*
X153111200Y-94183200D01*
X153111200Y-94183200D02*
X152654000Y-93726000D01*
X152654000Y-93726000D02*
X146456400Y-93726000D01*
X146456400Y-93726000D02*
X144018000Y-96164400D01*
X144018000Y-96164400D02*
X141325600Y-98856800D01*
X141325600Y-98856800D02*
X132892800Y-98856800D01*
X132892800Y-98856800D02*
X130809140Y-100940460D01*
X130809140Y-100940460D02*
X130809140Y-107799720D01*
X132841140Y-101550060D02*
X132841140Y-107799720D01*
X133121400Y-101269800D02*
X132841140Y-101550060D01*
D24*
X164439600Y-101396800D02*
X164439600Y-89916000D01*
X166624000Y-65582800D02*
X165303200Y-64262000D01*
X166624000Y-66700400D02*
X166624000Y-65582800D01*
X163017200Y-70307200D02*
X166624000Y-66700400D01*
X163017200Y-88493600D02*
X163017200Y-70307200D01*
X164439600Y-89916000D02*
X163017200Y-88493600D01*
D23*
X122174000Y-101904800D02*
X122174000Y-99618800D01*
X122174000Y-99618800D02*
X123545600Y-98247200D01*
X123545600Y-98247200D02*
X125272800Y-98247200D01*
X144272000Y-91389200D02*
X144272000Y-71729600D01*
X144272000Y-71729600D02*
X145897600Y-70104000D01*
X145897600Y-70104000D02*
X146456400Y-70104000D01*
D24*
X146456400Y-62484000D02*
X146456400Y-70104000D01*
X147066000Y-61874400D02*
X146456400Y-62484000D01*
X147828000Y-61874400D02*
X147066000Y-61874400D01*
X121488200Y-103098600D02*
X121589800Y-102997000D01*
X121589800Y-102997000D02*
X122809000Y-102997000D01*
X122809000Y-102997000D02*
X124434600Y-101371400D01*
X124434600Y-101371400D02*
X127406400Y-101371400D01*
X153898600Y-100076000D02*
X154305000Y-100482400D01*
X150672800Y-100076000D02*
X153898600Y-100076000D01*
X149606000Y-101142800D02*
X150672800Y-100076000D01*
X154305000Y-100482400D02*
X154051000Y-100482400D01*
D23*
X112293400Y-120065800D02*
X112293400Y-129108200D01*
X115874800Y-131419600D02*
X114604800Y-131419600D01*
X114604800Y-131419600D02*
X112293400Y-129108200D01*
X123647200Y-99314000D02*
X122936000Y-100025200D01*
X122936000Y-100025200D02*
X122936000Y-101295200D01*
X123647200Y-99314000D02*
X127355600Y-99314000D01*
D24*
X149809200Y-98196400D02*
X154330400Y-98196400D01*
X155194000Y-97739200D02*
X155956000Y-97713800D01*
X154787600Y-97739200D02*
X155194000Y-97739200D01*
X154330400Y-98196400D02*
X154787600Y-97739200D01*
X161696400Y-65024000D02*
X161696400Y-61986800D01*
X155956000Y-97713800D02*
X156006800Y-97663000D01*
X156006800Y-97663000D02*
X156006800Y-80162400D01*
X156006800Y-80162400D02*
X157835600Y-78333600D01*
X157835600Y-78333600D02*
X157835600Y-68884800D01*
X157835600Y-68884800D02*
X161696400Y-65024000D01*
X150317200Y-99009200D02*
X154635200Y-99009200D01*
X154635200Y-99009200D02*
X155143200Y-98501200D01*
X159156400Y-65532000D02*
X159156400Y-61986800D01*
X157429200Y-67259200D02*
X159156400Y-65532000D01*
X157429200Y-77470000D02*
X157429200Y-67259200D01*
X155092400Y-79806800D02*
X157429200Y-77470000D01*
X155092400Y-96977200D02*
X155092400Y-79806800D01*
D23*
X143611600Y-119557800D02*
X143594667Y-119608600D01*
X143594667Y-119608600D02*
X137058400Y-119608600D01*
X137058400Y-119608600D02*
X135356600Y-121310400D01*
X135356600Y-121310400D02*
X126847600Y-121310400D01*
D25*
X162356800Y-98653600D02*
X163118800Y-98653600D01*
X160375600Y-97129600D02*
X161899600Y-98653600D01*
X160375600Y-97129600D02*
X160375600Y-69850000D01*
X163169600Y-67056000D02*
X160375600Y-69850000D01*
X161899600Y-98653600D02*
X162356800Y-98653600D01*
D23*
X162356800Y-98653600D02*
X162356800Y-99110800D01*
D26*
X163169600Y-67056000D02*
X164846000Y-67056000D01*
X164846000Y-67056000D02*
X165608000Y-66294000D01*
D27*
X127774700Y-114820700D02*
X124980700Y-114820700D01*
X128320800Y-114274600D02*
X127774700Y-114820700D01*
X146075400Y-120624600D02*
X146202400Y-120624600D01*
X146024600Y-120675400D02*
X146075400Y-120624600D01*
D28*
X150342600Y-115874800D02*
X150342600Y-115900200D01*
X150444200Y-115874800D02*
X150342600Y-115874800D01*
D23*
X134950200Y-120065800D02*
X135128000Y-120065800D01*
D27*
X172694600Y-68402200D02*
X172694600Y-68478400D01*
X172643800Y-68351400D02*
X172694600Y-68402200D01*
D23*
X159283400Y-119075200D02*
X159308800Y-119075200D01*
D24*
X159029400Y-131292600D02*
X159029400Y-131267200D01*
X159029400Y-131267200D02*
X159029400Y-131292600D01*
X159029400Y-131292600D02*
X159029400Y-131267200D01*
D25*
X172008800Y-103682800D02*
X172008800Y-104851200D01*
X169081200Y-111385600D02*
X167284400Y-113182400D01*
X167284400Y-118516400D02*
X167284400Y-113182400D01*
X172008800Y-103682800D02*
X172008800Y-100787200D01*
X169081200Y-107778800D02*
X169081200Y-111385600D01*
X172008800Y-104851200D02*
X169081200Y-107778800D01*
D23*
X172770800Y-88620600D02*
X172669200Y-88620600D01*
X172669200Y-88620600D02*
X172770800Y-88620600D01*
X172770800Y-88620600D02*
X172669200Y-88620600D01*
X159156400Y-86893400D02*
X158978600Y-87071200D01*
X159156400Y-77545924D02*
X159156400Y-86893400D01*
X159156400Y-77545924D02*
X159029397Y-77418921D01*
X152501600Y-77419200D02*
X152501600Y-86131400D01*
X152501600Y-86131400D02*
X151688800Y-86944200D01*
D27*
X154076400Y-61986800D02*
X154076400Y-73583800D01*
X152501600Y-75158600D02*
X152501600Y-77419200D01*
X154076400Y-73583800D02*
X152501600Y-75158600D01*
D25*
X170180000Y-98958400D02*
X172694600Y-96443800D01*
X172669200Y-92506800D02*
X172669200Y-88620600D01*
X172669200Y-88620600D02*
X172669200Y-77470000D01*
X172694600Y-92481400D02*
X172669200Y-92506800D01*
X172694600Y-96443800D02*
X172694600Y-92481400D01*
X167944800Y-98958400D02*
X170180000Y-98958400D01*
X170180000Y-98958400D02*
X172008800Y-100787200D01*
X157632400Y-131267200D02*
X159029400Y-131267200D01*
X159029400Y-131267200D02*
X161366200Y-131267200D01*
X167360600Y-127762000D02*
X167360600Y-124663200D01*
X164541200Y-130581400D02*
X167360600Y-127762000D01*
X162052000Y-130581400D02*
X164541200Y-130581400D01*
X161366200Y-131267200D02*
X162052000Y-130581400D01*
D28*
X172669200Y-77444600D02*
X172642940Y-77418340D01*
X172642940Y-77418340D02*
X172568460Y-77418340D01*
D27*
X172568460Y-77418340D02*
X172669200Y-77519080D01*
X172669200Y-77519080D02*
X172669200Y-77470000D01*
X118364000Y-116179600D02*
X118364000Y-115925600D01*
X118364000Y-115925600D02*
X119380000Y-114909600D01*
X119380000Y-114909600D02*
X119227600Y-114909600D01*
X119227600Y-114909600D02*
X119176800Y-114960400D01*
X119176800Y-114960400D02*
X119176800Y-114909600D01*
D26*
X113588800Y-114909600D02*
X119176800Y-114909600D01*
X119176800Y-114909600D02*
X120954800Y-114909600D01*
X122377200Y-113487200D02*
X122377200Y-112217200D01*
X120954800Y-114909600D02*
X122377200Y-113487200D01*
X115874800Y-111099600D02*
X115874800Y-111836200D01*
X120700800Y-112471200D02*
X121666000Y-111506000D01*
X116509800Y-112471200D02*
X120700800Y-112471200D01*
X115874800Y-111836200D02*
X116509800Y-112471200D01*
X120040400Y-109880400D02*
X116179600Y-109880400D01*
X115874800Y-110185200D02*
X115874800Y-111099600D01*
X116179600Y-109880400D02*
X115874800Y-110185200D01*
X158750000Y-108305600D02*
X158750000Y-108204000D01*
X149301200Y-113741200D02*
X149301200Y-114808000D01*
X150774400Y-112268000D02*
X149301200Y-113741200D01*
X154686000Y-112268000D02*
X150774400Y-112268000D01*
X158750000Y-108204000D02*
X154686000Y-112268000D01*
X158808450Y-107185450D02*
X157939750Y-107185450D01*
X150012400Y-109880400D02*
X149301200Y-109169200D01*
X155244800Y-109880400D02*
X150012400Y-109880400D01*
X157939750Y-107185450D02*
X155244800Y-109880400D01*
X158808450Y-104960450D02*
X158183550Y-104960450D01*
X158183550Y-104960450D02*
X155803600Y-107340400D01*
X155803600Y-107340400D02*
X150926800Y-107340400D01*
X150926800Y-107340400D02*
X149301200Y-108966000D01*
D23*
X149301200Y-108966000D02*
X149301200Y-109169200D01*
D25*
X149301200Y-114808000D02*
X148437600Y-115671600D01*
X148437600Y-115671600D02*
X145694400Y-115671600D01*
X145694400Y-115671600D02*
X142443200Y-115671600D01*
D23*
X149301200Y-109169200D02*
X149301200Y-114808000D01*
D27*
X162153600Y-108254800D02*
X162153600Y-107238800D01*
X162153600Y-107238800D02*
X162102800Y-107188000D01*
X159918400Y-108305600D02*
X159918400Y-107188000D01*
X159918400Y-107188000D02*
X159920950Y-107185450D01*
X160985200Y-108305600D02*
X160985200Y-108249700D01*
X160985200Y-108249700D02*
X159920950Y-107185450D01*
X162153600Y-108254800D02*
X161036000Y-108254800D01*
X161036000Y-108254800D02*
X160985200Y-108305600D01*
X161033450Y-107185450D02*
X159920950Y-107185450D01*
X159920950Y-107185450D02*
X159870150Y-107185450D01*
X159870150Y-107185450D02*
X158750000Y-108305600D01*
X162102800Y-106273600D02*
X162102800Y-107188000D01*
X159920950Y-106072950D02*
X158803350Y-106072950D01*
X158803350Y-106072950D02*
X158800800Y-106070400D01*
X158808450Y-107185450D02*
X159920950Y-107185450D01*
X159920950Y-107185450D02*
X159918400Y-107188000D01*
D25*
X161033450Y-104960450D02*
X159920950Y-106072950D01*
D23*
X158808450Y-104960450D02*
X158859250Y-104960450D01*
X158859250Y-104960450D02*
X159054800Y-105156000D01*
X159105600Y-105156000D02*
X159105600Y-105206800D01*
X159054800Y-105156000D02*
X159105600Y-105156000D01*
D25*
X158859250Y-104960450D02*
X159105600Y-105206800D01*
X159920950Y-104960450D02*
X158859250Y-104960450D01*
D23*
X161033450Y-104960450D02*
X159920950Y-104960450D01*
X159410400Y-132740400D02*
X157784800Y-131114800D01*
X157632400Y-131165600D02*
X157632400Y-131267200D01*
X157683200Y-131114800D02*
X157632400Y-131165600D01*
X157784800Y-131114800D02*
X157683200Y-131114800D01*
D25*
X115874800Y-121259600D02*
X114046000Y-121259600D01*
X114046000Y-121259600D02*
X113588800Y-121716800D01*
X115874800Y-111099600D02*
X114604800Y-111099600D01*
X114604800Y-111099600D02*
X113588800Y-112115600D01*
X113588800Y-112115600D02*
X113588800Y-114909600D01*
X113588800Y-114909600D02*
X113588800Y-121716800D01*
X114401600Y-128879600D02*
X115874800Y-128879600D01*
X113588800Y-128066800D02*
X114401600Y-128879600D01*
X113588800Y-121716800D02*
X113588800Y-128066800D01*
D27*
X134162800Y-115722400D02*
X134162800Y-115671600D01*
X134112000Y-115671600D02*
X134162800Y-115722400D01*
X133858000Y-115671600D02*
X134112000Y-115671600D01*
X133807200Y-115722400D02*
X133858000Y-115671600D01*
D25*
X142443200Y-115671600D02*
X134162800Y-115671600D01*
X134162800Y-115671600D02*
X132029200Y-115671600D01*
X132029200Y-115671600D02*
X131343400Y-116357400D01*
X126517400Y-116357400D02*
X131343400Y-116357400D01*
X122377200Y-112217200D02*
X124980700Y-114820700D01*
X124980700Y-114820700D02*
X126517400Y-116357400D01*
X121666000Y-111506000D02*
X122377200Y-112217200D01*
D27*
X115874800Y-111099600D02*
X115874800Y-110693200D01*
D25*
X120040400Y-109880400D02*
X121666000Y-111506000D01*
X162102800Y-106273600D02*
X162102800Y-105003600D01*
X162102800Y-105003600D02*
X162145950Y-104960450D01*
D26*
X153466800Y-133959600D02*
X154940000Y-133959600D01*
D25*
X154940000Y-133959600D02*
X157632400Y-131267200D01*
X167944800Y-104495600D02*
X166725600Y-104495600D01*
X164947600Y-106273600D02*
X162102800Y-106273600D01*
X166725600Y-104495600D02*
X164947600Y-106273600D01*
X170789600Y-66497200D02*
X172669200Y-68376800D01*
X172669200Y-68376800D02*
X172669200Y-77470000D01*
X162145950Y-104960450D02*
X161033450Y-104960450D01*
X159920950Y-107185450D02*
X162145950Y-104960450D01*
D23*
X167944800Y-98958400D02*
X167944800Y-99110800D01*
D25*
X167944800Y-104495600D02*
X167944800Y-99110800D01*
D23*
X169722800Y-124917200D02*
X169468800Y-124663200D01*
D25*
X169468800Y-124663200D02*
X167360600Y-124663200D01*
X167360600Y-124663200D02*
X167182800Y-124663200D01*
D23*
X167284400Y-124561600D02*
X167182800Y-124663200D01*
D25*
X167284400Y-118516400D02*
X167284400Y-124561600D01*
D24*
X159334200Y-113258600D02*
X161315400Y-113258600D01*
X158242000Y-112166400D02*
X159334200Y-113258600D01*
X161340800Y-117881400D02*
X161315400Y-117906800D01*
X161315400Y-117906800D02*
X161340800Y-117906800D01*
X161340800Y-117906800D02*
X161315400Y-117906800D01*
D25*
X160147000Y-126873000D02*
X160147000Y-121869200D01*
X161696400Y-128422400D02*
X160147000Y-126873000D01*
X164287200Y-128422400D02*
X161696400Y-128422400D01*
D28*
X164312600Y-128447800D02*
X164287200Y-128422400D01*
D27*
X161696400Y-102082600D02*
X161747200Y-102082600D01*
X162636200Y-102971600D02*
X165481000Y-102971600D01*
X161747200Y-102082600D02*
X162636200Y-102971600D01*
X167919400Y-106680000D02*
X167906700Y-106667300D01*
X167906700Y-106667300D02*
X167919400Y-106680000D01*
X167919400Y-106680000D02*
X167919400Y-106654600D01*
D25*
X161315400Y-116078000D02*
X161315400Y-113258600D01*
X161315400Y-113258600D02*
X167919400Y-106654600D01*
X161315400Y-117906800D02*
X161315400Y-116078000D01*
X161315400Y-120167400D02*
X161315400Y-117906800D01*
X167919400Y-106654600D02*
X169570400Y-105003600D01*
D27*
X161366200Y-120167400D02*
X161315400Y-120167400D01*
X161315400Y-120167400D02*
X161366200Y-120167400D01*
X161366200Y-120167400D02*
X161315400Y-120167400D01*
D24*
X157048200Y-97205800D02*
X157048200Y-81051400D01*
X158292800Y-70129400D02*
X160197800Y-68224400D01*
X158292800Y-79806800D02*
X158292800Y-70129400D01*
X157048200Y-81051400D02*
X158292800Y-79806800D01*
D27*
X159664400Y-101574600D02*
X157581600Y-101574600D01*
X157048200Y-101041200D02*
X157048200Y-97205800D01*
X157581600Y-101574600D02*
X157048200Y-101041200D01*
D23*
X159683289Y-101555711D02*
X159683289Y-101555238D01*
X159664400Y-101574600D02*
X159683289Y-101555711D01*
D28*
X161671000Y-102057200D02*
X160197800Y-102057200D01*
X160197800Y-102057200D02*
X159683289Y-101555238D01*
X161671000Y-102057200D02*
X161696400Y-102082600D01*
D24*
X161696400Y-102082600D02*
X161671000Y-102057200D01*
D25*
X169570400Y-104038400D02*
X169570400Y-105003600D01*
X161315400Y-120167400D02*
X161315400Y-120700800D01*
X161315400Y-120700800D02*
X160147000Y-121869200D01*
X160147000Y-121869200D02*
X158242000Y-121869200D01*
D24*
X158216600Y-121843800D02*
X158242000Y-121869200D01*
D25*
X153466800Y-106019600D02*
X146659600Y-106019600D01*
D28*
X146659600Y-106019600D02*
X146304000Y-105664000D01*
D27*
X148488400Y-103632000D02*
X146761200Y-103632000D01*
X146761200Y-103632000D02*
X146304000Y-104089200D01*
X136347200Y-112268000D02*
X136347200Y-112294801D01*
X136323201Y-112291999D02*
X136347200Y-112268000D01*
X136323201Y-112294801D02*
X136323201Y-112291999D01*
X136296400Y-112268000D02*
X136323201Y-112294801D01*
X125222765Y-112268765D02*
X125323436Y-112268765D01*
X125171200Y-112217200D02*
X125222765Y-112268765D01*
D28*
X146304000Y-100228400D02*
X146304000Y-104089200D01*
X146304000Y-104089200D02*
X146304000Y-105664000D01*
D25*
X146304000Y-105664000D02*
X146304000Y-108000800D01*
X146304000Y-108000800D02*
X142009999Y-112294801D01*
X142009999Y-112294801D02*
X136347200Y-112294801D01*
X136347200Y-112294801D02*
X135177399Y-112294801D01*
X135177399Y-112294801D02*
X135177399Y-112318282D01*
X135204200Y-112268000D02*
X135177399Y-112294801D01*
D23*
X156591000Y-73863200D02*
X156616400Y-73863200D01*
X156616400Y-73863200D02*
X156591000Y-73863200D01*
X156591000Y-73863200D02*
X156616400Y-73863200D01*
D28*
X154127200Y-79603600D02*
X154127200Y-79400400D01*
X154127200Y-95808800D02*
X154127200Y-84632800D01*
X154127200Y-79603600D02*
X154127200Y-84632800D01*
X156616400Y-76911200D02*
X156616400Y-73863200D01*
X154127200Y-79400400D02*
X156616400Y-76911200D01*
X156616400Y-73863200D02*
X156616400Y-61986800D01*
D25*
X115874800Y-106019600D02*
X115874800Y-108559600D01*
X120091200Y-104241600D02*
X116382800Y-104241600D01*
X116382800Y-104241600D02*
X115874800Y-104749600D01*
X115874800Y-104749600D02*
X115874800Y-106019600D01*
X135177399Y-112318282D02*
X125323436Y-112268765D01*
X125323436Y-112268765D02*
X125171200Y-112268000D01*
X122580400Y-109677200D02*
X125171200Y-112268000D01*
X122580400Y-106730800D02*
X122580400Y-109677200D01*
X120091200Y-104241600D02*
X122580400Y-106730800D01*
X135280400Y-112318800D02*
X135177399Y-112318282D01*
D28*
X152806400Y-97129600D02*
X154127200Y-95808800D01*
X152806400Y-97129600D02*
X149402800Y-97129600D01*
X149402800Y-97129600D02*
X146304000Y-100228400D01*
X146304000Y-100228400D02*
X146202400Y-100330000D01*
D27*
X115874800Y-106019600D02*
X115874800Y-105410000D01*
D23*
X115874800Y-108559600D02*
X115824000Y-108610400D01*
X115824000Y-108610400D02*
X112217200Y-108610400D01*
X112217200Y-108610400D02*
X111150400Y-109677200D01*
X111150400Y-109677200D02*
X111150400Y-111861600D01*
D24*
X172364400Y-132740400D02*
X172364400Y-130251200D01*
X172364400Y-130251200D02*
X169646600Y-127533400D01*
D23*
X172059600Y-113385600D02*
X172491400Y-113385600D01*
X172491400Y-113385600D02*
X173659800Y-112217200D01*
X173659800Y-112217200D02*
X173659800Y-104673400D01*
X173659800Y-104673400D02*
X173659800Y-104698800D01*
D24*
X165963600Y-103733600D02*
X166725600Y-102971600D01*
X156464000Y-103733600D02*
X165963600Y-103733600D01*
X156057600Y-104140000D02*
X156464000Y-103733600D01*
X156057600Y-105613200D02*
X156057600Y-104140000D01*
D23*
X161442400Y-101092000D02*
X161823400Y-101092000D01*
X162763200Y-102031800D02*
X166700200Y-102031800D01*
X161823400Y-101092000D02*
X162763200Y-102031800D01*
D24*
X110363000Y-117906800D02*
X110363000Y-120726200D01*
X145516600Y-78562200D02*
X145186400Y-78892400D01*
X145186400Y-78892400D02*
X145186400Y-93802200D01*
X145186400Y-93802200D02*
X141325600Y-97663000D01*
X141325600Y-97663000D02*
X123063000Y-97663000D01*
X123063000Y-97663000D02*
X117576600Y-103149400D01*
X117576600Y-103149400D02*
X111658400Y-103149400D01*
X111658400Y-103149400D02*
X110363000Y-104444800D01*
X110363000Y-104444800D02*
X110363000Y-117906800D01*
X110363000Y-120726200D02*
X111556800Y-121920000D01*
D23*
X172059600Y-111385600D02*
X171228000Y-111385600D01*
X172974000Y-105257600D02*
X172974000Y-98628200D01*
X170408600Y-107823000D02*
X172974000Y-105257600D01*
X170408600Y-110566200D02*
X170408600Y-107823000D01*
X171228000Y-111385600D02*
X170408600Y-110566200D01*
D29*
G36*
X151358600Y-107647006D02*
X151358600Y-132892800D01*
X151368606Y-132942210D01*
X151397047Y-132983835D01*
X151439441Y-133011115D01*
X151485600Y-133019800D01*
X152003811Y-133019800D01*
X151843972Y-133151377D01*
X151609872Y-133590925D01*
X151603591Y-133636488D01*
X151727831Y-133832600D01*
X152933400Y-133832600D01*
X152933400Y-134086600D01*
X151727831Y-134086600D01*
X151603591Y-134282712D01*
X151609872Y-134328275D01*
X151843972Y-134767823D01*
X151948903Y-134854200D01*
X150781806Y-134854200D01*
X150444200Y-134516594D01*
X150444200Y-127508000D01*
X150434194Y-127458590D01*
X150407003Y-127418197D01*
X144158603Y-121169797D01*
X144116589Y-121141934D01*
X144068800Y-121132600D01*
X136315046Y-121132600D01*
X137287046Y-120160600D01*
X143186112Y-120160600D01*
X143199250Y-120173761D01*
X143466356Y-120284674D01*
X143755575Y-120284926D01*
X144022875Y-120174480D01*
X144227561Y-119970150D01*
X144338474Y-119703044D01*
X144338726Y-119413825D01*
X144228280Y-119146525D01*
X144023950Y-118941839D01*
X143756844Y-118830926D01*
X143467625Y-118830674D01*
X143200325Y-118941120D01*
X143084644Y-119056600D01*
X137058400Y-119056600D01*
X136847158Y-119098618D01*
X136668077Y-119218277D01*
X135127954Y-120758400D01*
X127323800Y-120758400D01*
X127259950Y-120694439D01*
X126992844Y-120583526D01*
X126703625Y-120583274D01*
X126436325Y-120693720D01*
X126231639Y-120898050D01*
X126134245Y-121132600D01*
X122582206Y-121132600D01*
X120624600Y-119174994D01*
X120624600Y-111152206D01*
X121261406Y-110515400D01*
X121664194Y-110515400D01*
X124827397Y-113678603D01*
X124869411Y-113706466D01*
X124917200Y-113715800D01*
X148132800Y-113715800D01*
X148182210Y-113705794D01*
X148222603Y-113678603D01*
X148933803Y-112967403D01*
X148961666Y-112925389D01*
X148971000Y-112877600D01*
X148971000Y-107738333D01*
X149364700Y-107213400D01*
X150924994Y-107213400D01*
X151358600Y-107647006D01*
X151358600Y-107647006D01*
G37*
X151358600Y-107647006D02*
X151358600Y-132892800D01*
X151368606Y-132942210D01*
X151397047Y-132983835D01*
X151439441Y-133011115D01*
X151485600Y-133019800D01*
X152003811Y-133019800D01*
X151843972Y-133151377D01*
X151609872Y-133590925D01*
X151603591Y-133636488D01*
X151727831Y-133832600D01*
X152933400Y-133832600D01*
X152933400Y-134086600D01*
X151727831Y-134086600D01*
X151603591Y-134282712D01*
X151609872Y-134328275D01*
X151843972Y-134767823D01*
X151948903Y-134854200D01*
X150781806Y-134854200D01*
X150444200Y-134516594D01*
X150444200Y-127508000D01*
X150434194Y-127458590D01*
X150407003Y-127418197D01*
X144158603Y-121169797D01*
X144116589Y-121141934D01*
X144068800Y-121132600D01*
X136315046Y-121132600D01*
X137287046Y-120160600D01*
X143186112Y-120160600D01*
X143199250Y-120173761D01*
X143466356Y-120284674D01*
X143755575Y-120284926D01*
X144022875Y-120174480D01*
X144227561Y-119970150D01*
X144338474Y-119703044D01*
X144338726Y-119413825D01*
X144228280Y-119146525D01*
X144023950Y-118941839D01*
X143756844Y-118830926D01*
X143467625Y-118830674D01*
X143200325Y-118941120D01*
X143084644Y-119056600D01*
X137058400Y-119056600D01*
X136847158Y-119098618D01*
X136668077Y-119218277D01*
X135127954Y-120758400D01*
X127323800Y-120758400D01*
X127259950Y-120694439D01*
X126992844Y-120583526D01*
X126703625Y-120583274D01*
X126436325Y-120693720D01*
X126231639Y-120898050D01*
X126134245Y-121132600D01*
X122582206Y-121132600D01*
X120624600Y-119174994D01*
X120624600Y-111152206D01*
X121261406Y-110515400D01*
X121664194Y-110515400D01*
X124827397Y-113678603D01*
X124869411Y-113706466D01*
X124917200Y-113715800D01*
X148132800Y-113715800D01*
X148182210Y-113705794D01*
X148222603Y-113678603D01*
X148933803Y-112967403D01*
X148961666Y-112925389D01*
X148971000Y-112877600D01*
X148971000Y-107738333D01*
X149364700Y-107213400D01*
X150924994Y-107213400D01*
X151358600Y-107647006D01*
G36*
X147463933Y-102005877D02*
X147334685Y-102298680D01*
X148488400Y-103452395D01*
X149642115Y-102298680D01*
X149512867Y-102005877D01*
X149315321Y-101930200D01*
X151077394Y-101930200D01*
X152069800Y-102922606D01*
X152069800Y-104749886D01*
X151837101Y-104846273D01*
X151658473Y-105024902D01*
X151561800Y-105258291D01*
X151561800Y-105733850D01*
X151720550Y-105892600D01*
X152069800Y-105892600D01*
X152069800Y-106146600D01*
X151720550Y-106146600D01*
X151618950Y-106248200D01*
X149250400Y-106248200D01*
X149200990Y-106258206D01*
X149160597Y-106285397D01*
X147788997Y-107656997D01*
X147761134Y-107699011D01*
X147751800Y-107746800D01*
X147751800Y-111250194D01*
X146403794Y-112598200D01*
X124817406Y-112598200D01*
X119913400Y-107694194D01*
X119913400Y-105130600D01*
X119903394Y-105081190D01*
X119876203Y-105040797D01*
X119661206Y-104825800D01*
X119786400Y-104825800D01*
X119835810Y-104815794D01*
X119877435Y-104787353D01*
X119904715Y-104744959D01*
X119913400Y-104698800D01*
X119913400Y-103860600D01*
X120241794Y-103860600D01*
X125843397Y-109462203D01*
X125885411Y-109490066D01*
X125933200Y-109499400D01*
X141325600Y-109499400D01*
X141375010Y-109489394D01*
X141415403Y-109462203D01*
X142329803Y-108547803D01*
X142357666Y-108505789D01*
X142367000Y-108458000D01*
X142367000Y-104965320D01*
X147334685Y-104965320D01*
X147463933Y-105258123D01*
X148164206Y-105526388D01*
X148913835Y-105506250D01*
X149512867Y-105258123D01*
X149642115Y-104965320D01*
X148488400Y-103811605D01*
X147334685Y-104965320D01*
X142367000Y-104965320D01*
X142367000Y-104141806D01*
X143201000Y-103307806D01*
X146594012Y-103307806D01*
X146614150Y-104057435D01*
X146862277Y-104656467D01*
X147155080Y-104785715D01*
X148308795Y-103632000D01*
X148668005Y-103632000D01*
X149821720Y-104785715D01*
X150114523Y-104656467D01*
X150382788Y-103956194D01*
X150362650Y-103206565D01*
X150114523Y-102607533D01*
X149821720Y-102478285D01*
X148668005Y-103632000D01*
X148308795Y-103632000D01*
X147155080Y-102478285D01*
X146862277Y-102607533D01*
X146594012Y-103307806D01*
X143201000Y-103307806D01*
X144578606Y-101930200D01*
X147646634Y-101930200D01*
X147463933Y-102005877D01*
X147463933Y-102005877D01*
G37*
X147463933Y-102005877D02*
X147334685Y-102298680D01*
X148488400Y-103452395D01*
X149642115Y-102298680D01*
X149512867Y-102005877D01*
X149315321Y-101930200D01*
X151077394Y-101930200D01*
X152069800Y-102922606D01*
X152069800Y-104749886D01*
X151837101Y-104846273D01*
X151658473Y-105024902D01*
X151561800Y-105258291D01*
X151561800Y-105733850D01*
X151720550Y-105892600D01*
X152069800Y-105892600D01*
X152069800Y-106146600D01*
X151720550Y-106146600D01*
X151618950Y-106248200D01*
X149250400Y-106248200D01*
X149200990Y-106258206D01*
X149160597Y-106285397D01*
X147788997Y-107656997D01*
X147761134Y-107699011D01*
X147751800Y-107746800D01*
X147751800Y-111250194D01*
X146403794Y-112598200D01*
X124817406Y-112598200D01*
X119913400Y-107694194D01*
X119913400Y-105130600D01*
X119903394Y-105081190D01*
X119876203Y-105040797D01*
X119661206Y-104825800D01*
X119786400Y-104825800D01*
X119835810Y-104815794D01*
X119877435Y-104787353D01*
X119904715Y-104744959D01*
X119913400Y-104698800D01*
X119913400Y-103860600D01*
X120241794Y-103860600D01*
X125843397Y-109462203D01*
X125885411Y-109490066D01*
X125933200Y-109499400D01*
X141325600Y-109499400D01*
X141375010Y-109489394D01*
X141415403Y-109462203D01*
X142329803Y-108547803D01*
X142357666Y-108505789D01*
X142367000Y-108458000D01*
X142367000Y-104965320D01*
X147334685Y-104965320D01*
X147463933Y-105258123D01*
X148164206Y-105526388D01*
X148913835Y-105506250D01*
X149512867Y-105258123D01*
X149642115Y-104965320D01*
X148488400Y-103811605D01*
X147334685Y-104965320D01*
X142367000Y-104965320D01*
X142367000Y-104141806D01*
X143201000Y-103307806D01*
X146594012Y-103307806D01*
X146614150Y-104057435D01*
X146862277Y-104656467D01*
X147155080Y-104785715D01*
X148308795Y-103632000D01*
X148668005Y-103632000D01*
X149821720Y-104785715D01*
X150114523Y-104656467D01*
X150382788Y-103956194D01*
X150362650Y-103206565D01*
X150114523Y-102607533D01*
X149821720Y-102478285D01*
X148668005Y-103632000D01*
X148308795Y-103632000D01*
X147155080Y-102478285D01*
X146862277Y-102607533D01*
X146594012Y-103307806D01*
X143201000Y-103307806D01*
X144578606Y-101930200D01*
X147646634Y-101930200D01*
X147463933Y-102005877D01*
G36*
X162407600Y-69420006D02*
X162407600Y-97256600D01*
X162417606Y-97306010D01*
X162444797Y-97346403D01*
X163525200Y-98426806D01*
X163525200Y-99591594D01*
X163320194Y-99796600D01*
X160908258Y-99796600D01*
X159842200Y-98801612D01*
X159842200Y-69851806D01*
X160682206Y-69011800D01*
X161999394Y-69011800D01*
X162407600Y-69420006D01*
X162407600Y-69420006D01*
G37*
X162407600Y-69420006D02*
X162407600Y-97256600D01*
X162417606Y-97306010D01*
X162444797Y-97346403D01*
X163525200Y-98426806D01*
X163525200Y-99591594D01*
X163320194Y-99796600D01*
X160908258Y-99796600D01*
X159842200Y-98801612D01*
X159842200Y-69851806D01*
X160682206Y-69011800D01*
X161999394Y-69011800D01*
X162407600Y-69420006D01*
G36*
X165187997Y-109917597D02*
X165160134Y-109959611D01*
X165150800Y-110007400D01*
X165150800Y-128318994D01*
X164590194Y-128879600D01*
X158828006Y-128879600D01*
X157073600Y-127125194D01*
X157073600Y-123217208D01*
X157088286Y-123202522D01*
X157217533Y-123495323D01*
X157917806Y-123763588D01*
X158667435Y-123743450D01*
X159266467Y-123495323D01*
X159395715Y-123202520D01*
X158242000Y-122048805D01*
X158227858Y-122062948D01*
X158048253Y-121883343D01*
X158062395Y-121869200D01*
X158421605Y-121869200D01*
X159575320Y-123022915D01*
X159868123Y-122893667D01*
X160136388Y-122193394D01*
X160116250Y-121443765D01*
X159868123Y-120844733D01*
X159575320Y-120715485D01*
X158421605Y-121869200D01*
X158062395Y-121869200D01*
X158048253Y-121855058D01*
X158227858Y-121675453D01*
X158242000Y-121689595D01*
X159395715Y-120535880D01*
X159266467Y-120243077D01*
X158566194Y-119974812D01*
X157816565Y-119994950D01*
X157217533Y-120243077D01*
X157088286Y-120535878D01*
X157073600Y-120521192D01*
X157073600Y-119219175D01*
X158556274Y-119219175D01*
X158666720Y-119486475D01*
X158871050Y-119691161D01*
X159138156Y-119802074D01*
X159427375Y-119802326D01*
X159694675Y-119691880D01*
X159899361Y-119487550D01*
X160010274Y-119220444D01*
X160010526Y-118931225D01*
X159900080Y-118663925D01*
X159695750Y-118459239D01*
X159428644Y-118348326D01*
X159139425Y-118348074D01*
X158872125Y-118458520D01*
X158667439Y-118662850D01*
X158556526Y-118929956D01*
X158556274Y-119219175D01*
X157073600Y-119219175D01*
X157073600Y-112371406D01*
X157786606Y-111658400D01*
X161010600Y-111658400D01*
X161060010Y-111648394D01*
X161100403Y-111621203D01*
X167108406Y-105613200D01*
X168427400Y-105613200D01*
X168476810Y-105603194D01*
X168499340Y-105587800D01*
X169517794Y-105587800D01*
X165187997Y-109917597D01*
X165187997Y-109917597D01*
G37*
X165187997Y-109917597D02*
X165160134Y-109959611D01*
X165150800Y-110007400D01*
X165150800Y-128318994D01*
X164590194Y-128879600D01*
X158828006Y-128879600D01*
X157073600Y-127125194D01*
X157073600Y-123217208D01*
X157088286Y-123202522D01*
X157217533Y-123495323D01*
X157917806Y-123763588D01*
X158667435Y-123743450D01*
X159266467Y-123495323D01*
X159395715Y-123202520D01*
X158242000Y-122048805D01*
X158227858Y-122062948D01*
X158048253Y-121883343D01*
X158062395Y-121869200D01*
X158421605Y-121869200D01*
X159575320Y-123022915D01*
X159868123Y-122893667D01*
X160136388Y-122193394D01*
X160116250Y-121443765D01*
X159868123Y-120844733D01*
X159575320Y-120715485D01*
X158421605Y-121869200D01*
X158062395Y-121869200D01*
X158048253Y-121855058D01*
X158227858Y-121675453D01*
X158242000Y-121689595D01*
X159395715Y-120535880D01*
X159266467Y-120243077D01*
X158566194Y-119974812D01*
X157816565Y-119994950D01*
X157217533Y-120243077D01*
X157088286Y-120535878D01*
X157073600Y-120521192D01*
X157073600Y-119219175D01*
X158556274Y-119219175D01*
X158666720Y-119486475D01*
X158871050Y-119691161D01*
X159138156Y-119802074D01*
X159427375Y-119802326D01*
X159694675Y-119691880D01*
X159899361Y-119487550D01*
X160010274Y-119220444D01*
X160010526Y-118931225D01*
X159900080Y-118663925D01*
X159695750Y-118459239D01*
X159428644Y-118348326D01*
X159139425Y-118348074D01*
X158872125Y-118458520D01*
X158667439Y-118662850D01*
X158556526Y-118929956D01*
X158556274Y-119219175D01*
X157073600Y-119219175D01*
X157073600Y-112371406D01*
X157786606Y-111658400D01*
X161010600Y-111658400D01*
X161060010Y-111648394D01*
X161100403Y-111621203D01*
X167108406Y-105613200D01*
X168427400Y-105613200D01*
X168476810Y-105603194D01*
X168499340Y-105587800D01*
X169517794Y-105587800D01*
X165187997Y-109917597D01*
G36*
X173355000Y-67996666D02*
X173355000Y-96721394D01*
X171664997Y-98411397D01*
X171637134Y-98453411D01*
X171627800Y-98501200D01*
X171627800Y-99110800D01*
X171637806Y-99160210D01*
X171664997Y-99200603D01*
X172389800Y-99925406D01*
X172389800Y-102950265D01*
X172373085Y-102976241D01*
X172364400Y-103022400D01*
X172364400Y-105052594D01*
X169937797Y-107479197D01*
X169909934Y-107521211D01*
X169900600Y-107569000D01*
X169900600Y-107608792D01*
X169898618Y-107611758D01*
X169898618Y-107611759D01*
X169856600Y-107823000D01*
X169856600Y-110566200D01*
X169898618Y-110777442D01*
X169900600Y-110780408D01*
X169900600Y-125270994D01*
X168718597Y-126452997D01*
X168690734Y-126495011D01*
X168681400Y-126542800D01*
X168681400Y-129360394D01*
X163472594Y-134569200D01*
X159945561Y-134569200D01*
X160434867Y-134366523D01*
X160564115Y-134073720D01*
X159410400Y-132920005D01*
X158256685Y-134073720D01*
X158385933Y-134366523D01*
X158914997Y-134569200D01*
X155957806Y-134569200D01*
X155397200Y-134008594D01*
X155397200Y-132716806D01*
X155697800Y-132416206D01*
X157516012Y-132416206D01*
X157536150Y-133165835D01*
X157784277Y-133764867D01*
X158077080Y-133894115D01*
X159230795Y-132740400D01*
X159590005Y-132740400D01*
X160743720Y-133894115D01*
X161036523Y-133764867D01*
X161304788Y-133064594D01*
X161284650Y-132314965D01*
X161036523Y-131715933D01*
X160743720Y-131586685D01*
X159590005Y-132740400D01*
X159230795Y-132740400D01*
X158077080Y-131586685D01*
X157784277Y-131715933D01*
X157516012Y-132416206D01*
X155697800Y-132416206D01*
X156706926Y-131407080D01*
X158256685Y-131407080D01*
X159410400Y-132560795D01*
X160564115Y-131407080D01*
X160434867Y-131114277D01*
X159734594Y-130846012D01*
X158984965Y-130866150D01*
X158385933Y-131114277D01*
X158256685Y-131407080D01*
X156706926Y-131407080D01*
X158269206Y-129844800D01*
X164719000Y-129844800D01*
X164768410Y-129834794D01*
X164808803Y-129807603D01*
X165901003Y-128715403D01*
X165928866Y-128673389D01*
X165938200Y-128625600D01*
X165938200Y-110390206D01*
X170625403Y-105703003D01*
X170653266Y-105660989D01*
X170662600Y-105613200D01*
X170662600Y-103276400D01*
X170652594Y-103226990D01*
X170625403Y-103186597D01*
X170371403Y-102932597D01*
X170329389Y-102904734D01*
X170281600Y-102895400D01*
X168835606Y-102895400D01*
X167196403Y-101256197D01*
X167154389Y-101228334D01*
X167106600Y-101219000D01*
X165635206Y-101219000D01*
X165176200Y-100759994D01*
X165176200Y-89357200D01*
X165166194Y-89307790D01*
X165139003Y-89267397D01*
X164109400Y-88237794D01*
X164109400Y-71731406D01*
X164847209Y-70993597D01*
X166677996Y-70993597D01*
X166970726Y-71702058D01*
X167512291Y-72244569D01*
X168220240Y-72538535D01*
X168986797Y-72539204D01*
X169695258Y-72246474D01*
X170237769Y-71704909D01*
X170531735Y-70996960D01*
X170532404Y-70230403D01*
X170239674Y-69521942D01*
X169698109Y-68979431D01*
X168990160Y-68685465D01*
X168223603Y-68684796D01*
X167515142Y-68977526D01*
X166972631Y-69519091D01*
X166678665Y-70227040D01*
X166677996Y-70993597D01*
X164847209Y-70993597D01*
X169800806Y-66040000D01*
X171447250Y-66040000D01*
X173355000Y-67996666D01*
X173355000Y-67996666D01*
G37*
X173355000Y-67996666D02*
X173355000Y-96721394D01*
X171664997Y-98411397D01*
X171637134Y-98453411D01*
X171627800Y-98501200D01*
X171627800Y-99110800D01*
X171637806Y-99160210D01*
X171664997Y-99200603D01*
X172389800Y-99925406D01*
X172389800Y-102950265D01*
X172373085Y-102976241D01*
X172364400Y-103022400D01*
X172364400Y-105052594D01*
X169937797Y-107479197D01*
X169909934Y-107521211D01*
X169900600Y-107569000D01*
X169900600Y-107608792D01*
X169898618Y-107611758D01*
X169898618Y-107611759D01*
X169856600Y-107823000D01*
X169856600Y-110566200D01*
X169898618Y-110777442D01*
X169900600Y-110780408D01*
X169900600Y-125270994D01*
X168718597Y-126452997D01*
X168690734Y-126495011D01*
X168681400Y-126542800D01*
X168681400Y-129360394D01*
X163472594Y-134569200D01*
X159945561Y-134569200D01*
X160434867Y-134366523D01*
X160564115Y-134073720D01*
X159410400Y-132920005D01*
X158256685Y-134073720D01*
X158385933Y-134366523D01*
X158914997Y-134569200D01*
X155957806Y-134569200D01*
X155397200Y-134008594D01*
X155397200Y-132716806D01*
X155697800Y-132416206D01*
X157516012Y-132416206D01*
X157536150Y-133165835D01*
X157784277Y-133764867D01*
X158077080Y-133894115D01*
X159230795Y-132740400D01*
X159590005Y-132740400D01*
X160743720Y-133894115D01*
X161036523Y-133764867D01*
X161304788Y-133064594D01*
X161284650Y-132314965D01*
X161036523Y-131715933D01*
X160743720Y-131586685D01*
X159590005Y-132740400D01*
X159230795Y-132740400D01*
X158077080Y-131586685D01*
X157784277Y-131715933D01*
X157516012Y-132416206D01*
X155697800Y-132416206D01*
X156706926Y-131407080D01*
X158256685Y-131407080D01*
X159410400Y-132560795D01*
X160564115Y-131407080D01*
X160434867Y-131114277D01*
X159734594Y-130846012D01*
X158984965Y-130866150D01*
X158385933Y-131114277D01*
X158256685Y-131407080D01*
X156706926Y-131407080D01*
X158269206Y-129844800D01*
X164719000Y-129844800D01*
X164768410Y-129834794D01*
X164808803Y-129807603D01*
X165901003Y-128715403D01*
X165928866Y-128673389D01*
X165938200Y-128625600D01*
X165938200Y-110390206D01*
X170625403Y-105703003D01*
X170653266Y-105660989D01*
X170662600Y-105613200D01*
X170662600Y-103276400D01*
X170652594Y-103226990D01*
X170625403Y-103186597D01*
X170371403Y-102932597D01*
X170329389Y-102904734D01*
X170281600Y-102895400D01*
X168835606Y-102895400D01*
X167196403Y-101256197D01*
X167154389Y-101228334D01*
X167106600Y-101219000D01*
X165635206Y-101219000D01*
X165176200Y-100759994D01*
X165176200Y-89357200D01*
X165166194Y-89307790D01*
X165139003Y-89267397D01*
X164109400Y-88237794D01*
X164109400Y-71731406D01*
X164847209Y-70993597D01*
X166677996Y-70993597D01*
X166970726Y-71702058D01*
X167512291Y-72244569D01*
X168220240Y-72538535D01*
X168986797Y-72539204D01*
X169695258Y-72246474D01*
X170237769Y-71704909D01*
X170531735Y-70996960D01*
X170532404Y-70230403D01*
X170239674Y-69521942D01*
X169698109Y-68979431D01*
X168990160Y-68685465D01*
X168223603Y-68684796D01*
X167515142Y-68977526D01*
X166972631Y-69519091D01*
X166678665Y-70227040D01*
X166677996Y-70993597D01*
X164847209Y-70993597D01*
X169800806Y-66040000D01*
X171447250Y-66040000D01*
X173355000Y-67996666D01*
G36*
X167843200Y-104292400D02*
X167157400Y-104292400D01*
X167107990Y-104302406D01*
X167067597Y-104329597D01*
X166838997Y-104558197D01*
X166811134Y-104600211D01*
X166801800Y-104648000D01*
X166801800Y-104950994D01*
X160856394Y-110896400D01*
X157759400Y-110896400D01*
X157709990Y-110906406D01*
X157669597Y-110933597D01*
X156792394Y-111810800D01*
X155983206Y-111810800D01*
X155448000Y-111275594D01*
X155448000Y-107443806D01*
X158574006Y-104317800D01*
X166192200Y-104317800D01*
X166241610Y-104307794D01*
X166282003Y-104280603D01*
X166863885Y-103698721D01*
X166869575Y-103698726D01*
X167136875Y-103588280D01*
X167341561Y-103383950D01*
X167452474Y-103116844D01*
X167452480Y-103110126D01*
X167489406Y-103073200D01*
X167843200Y-103073200D01*
X167843200Y-104292400D01*
X167843200Y-104292400D01*
G37*
X167843200Y-104292400D02*
X167157400Y-104292400D01*
X167107990Y-104302406D01*
X167067597Y-104329597D01*
X166838997Y-104558197D01*
X166811134Y-104600211D01*
X166801800Y-104648000D01*
X166801800Y-104950994D01*
X160856394Y-110896400D01*
X157759400Y-110896400D01*
X157709990Y-110906406D01*
X157669597Y-110933597D01*
X156792394Y-111810800D01*
X155983206Y-111810800D01*
X155448000Y-111275594D01*
X155448000Y-107443806D01*
X158574006Y-104317800D01*
X166192200Y-104317800D01*
X166241610Y-104307794D01*
X166282003Y-104280603D01*
X166863885Y-103698721D01*
X166869575Y-103698726D01*
X167136875Y-103588280D01*
X167341561Y-103383950D01*
X167452474Y-103116844D01*
X167452480Y-103110126D01*
X167489406Y-103073200D01*
X167843200Y-103073200D01*
X167843200Y-104292400D01*
M02*
