G04 #@! TF.FileFunction,Soldermask,Bot*
%FSLAX46Y46*%
G04 Gerber Fmt 4.6, Leading zero omitted, Abs format (unit mm)*
G04 Created by KiCad (PCBNEW 4.0.6) date Monday, July 30, 2018 'PMt' 08:55:28 PM*
%MOMM*%
%LPD*%
G01*
G04 APERTURE LIST*
%ADD10C,0.100000*%
%ADD11C,1.500000*%
%ADD12C,2.000000*%
%ADD13C,1.501140*%
%ADD14C,2.999740*%
%ADD15R,1.270000X2.540000*%
%ADD16O,1.270000X2.540000*%
%ADD17R,2.000000X1.270000*%
%ADD18O,2.000000X1.270000*%
%ADD19R,2.540000X1.270000*%
%ADD20O,2.540000X1.270000*%
%ADD21C,2.500000*%
G04 APERTURE END LIST*
D10*
D11*
X172059600Y-115385600D03*
X172059600Y-113385600D03*
X172059600Y-111385600D03*
D12*
X172059600Y-117485600D03*
X172059600Y-109285600D03*
D13*
X128269140Y-107799720D03*
X130809140Y-107799720D03*
X132841140Y-107799720D03*
X135381140Y-107799720D03*
D14*
X125221140Y-105132720D03*
X138937140Y-105132720D03*
D15*
X154076400Y-61986800D03*
D16*
X156616400Y-61986800D03*
X159156400Y-61986800D03*
X161696400Y-61986800D03*
D17*
X115874800Y-106019600D03*
D18*
X115874800Y-108559600D03*
X115874800Y-111099600D03*
X115874800Y-113639600D03*
X115874800Y-116179600D03*
X115874800Y-118719600D03*
X115874800Y-121259600D03*
X115874800Y-123799600D03*
X115874800Y-126339600D03*
X115874800Y-128879600D03*
X115874800Y-131419600D03*
X115874800Y-133959600D03*
D19*
X153466800Y-106019600D03*
D20*
X153466800Y-108559600D03*
X153466800Y-111099600D03*
X153466800Y-113639600D03*
X153466800Y-116179600D03*
X153466800Y-118719600D03*
X153466800Y-121259600D03*
X153466800Y-123799600D03*
X153466800Y-126339600D03*
X153466800Y-128879600D03*
X153466800Y-131419600D03*
X153466800Y-133959600D03*
D17*
X118364000Y-106019600D03*
D18*
X118364000Y-108559600D03*
X118364000Y-111099600D03*
X118364000Y-113639600D03*
X118364000Y-116179600D03*
X118364000Y-118719600D03*
X118364000Y-121259600D03*
X118364000Y-123799600D03*
X118364000Y-126339600D03*
X118364000Y-128879600D03*
X118364000Y-131419600D03*
X118364000Y-133959600D03*
D21*
X148488400Y-103632000D03*
X172364400Y-132740400D03*
X163169600Y-67056000D03*
X159410400Y-132740400D03*
X158242000Y-121869200D03*
M02*
