G04 #@! TF.FileFunction,Copper,L1,Top,Signal*
%FSLAX46Y46*%
G04 Gerber Fmt 4.6, Leading zero omitted, Abs format (unit mm)*
G04 Created by KiCad (PCBNEW 4.0.6) date Monday, July 30, 2018 'PMt' 08:55:28 PM*
%MOMM*%
%LPD*%
G01*
G04 APERTURE LIST*
%ADD10C,0.100000*%
%ADD11C,2.999740*%
%ADD12R,0.800000X1.600000*%
%ADD13R,2.100000X3.000000*%
%ADD14C,1.500000*%
%ADD15C,2.000000*%
%ADD16R,0.797560X0.797560*%
%ADD17R,1.300000X0.700000*%
%ADD18C,1.501140*%
%ADD19R,1.380000X0.450000*%
%ADD20R,2.100000X1.475000*%
%ADD21R,1.900000X2.375000*%
%ADD22R,1.900000X1.175000*%
%ADD23R,1.270000X2.540000*%
%ADD24O,1.270000X2.540000*%
%ADD25R,0.700000X1.300000*%
%ADD26R,1.400000X1.600000*%
%ADD27R,2.000000X1.270000*%
%ADD28O,2.000000X1.270000*%
%ADD29R,2.540000X1.270000*%
%ADD30O,2.540000X1.270000*%
%ADD31R,1.000000X1.250000*%
%ADD32R,1.250000X1.000000*%
%ADD33R,1.200000X0.600000*%
%ADD34R,1.800000X5.700000*%
%ADD35R,0.900000X0.800000*%
%ADD36R,1.250000X1.220000*%
%ADD37R,0.800000X0.200000*%
%ADD38R,0.200000X0.800000*%
%ADD39R,1.112500X1.112500*%
%ADD40C,0.600000*%
%ADD41C,0.400000*%
%ADD42C,0.180000*%
%ADD43C,0.250000*%
%ADD44C,0.600000*%
%ADD45C,0.500000*%
%ADD46C,1.000000*%
%ADD47C,0.254000*%
G04 APERTURE END LIST*
D10*
D11*
X112623600Y-136855200D03*
X168605200Y-132791200D03*
X168605200Y-70612000D03*
D12*
X167624000Y-63671800D03*
D13*
X171434000Y-60750800D03*
X165084000Y-60750800D03*
D12*
X168894000Y-63671800D03*
D14*
X172059600Y-115385600D03*
X172059600Y-113385600D03*
X172059600Y-111385600D03*
D15*
X172059600Y-117485600D03*
X172059600Y-109285600D03*
D16*
X147828000Y-64300100D03*
X147828000Y-62801500D03*
D17*
X145999200Y-66410800D03*
X145999200Y-68310800D03*
D16*
X150266400Y-64300100D03*
X150266400Y-62801500D03*
D17*
X150368000Y-68310800D03*
X150368000Y-66410800D03*
X148285200Y-68310800D03*
X148285200Y-66410800D03*
D18*
X128269140Y-107799720D03*
X130809140Y-107799720D03*
X132841140Y-107799720D03*
X135381140Y-107799720D03*
D11*
X125221140Y-105132720D03*
X138937140Y-105132720D03*
D19*
X170882000Y-127538000D03*
X170882000Y-126888000D03*
X170882000Y-126238000D03*
X170882000Y-125588000D03*
X170882000Y-124938000D03*
D20*
X171242000Y-128700500D03*
X171242000Y-123775500D03*
D21*
X173542000Y-129148000D03*
X173542000Y-123328000D03*
D22*
X173542000Y-127078000D03*
X173542000Y-125398000D03*
D23*
X154076400Y-61986800D03*
D24*
X156616400Y-61986800D03*
X159156400Y-61986800D03*
X161696400Y-61986800D03*
D25*
X162925800Y-131038600D03*
X161025800Y-131038600D03*
D26*
X148614000Y-95827400D03*
X151614000Y-95827400D03*
X148614000Y-88627400D03*
X151614000Y-88627400D03*
X156615000Y-95827400D03*
X159615000Y-95827400D03*
X156615000Y-88627400D03*
X159615000Y-88627400D03*
D27*
X115874800Y-106019600D03*
D28*
X115874800Y-108559600D03*
X115874800Y-111099600D03*
X115874800Y-113639600D03*
X115874800Y-116179600D03*
X115874800Y-118719600D03*
X115874800Y-121259600D03*
X115874800Y-123799600D03*
X115874800Y-126339600D03*
X115874800Y-128879600D03*
X115874800Y-131419600D03*
X115874800Y-133959600D03*
D25*
X113065600Y-113639600D03*
X111165600Y-113639600D03*
D16*
X145389600Y-64300100D03*
X145389600Y-62801500D03*
D17*
X146659600Y-75346600D03*
X146659600Y-73446600D03*
D29*
X153466800Y-106019600D03*
D30*
X153466800Y-108559600D03*
X153466800Y-111099600D03*
X153466800Y-113639600D03*
X153466800Y-116179600D03*
X153466800Y-118719600D03*
X153466800Y-121259600D03*
X153466800Y-123799600D03*
X153466800Y-126339600D03*
X153466800Y-128879600D03*
X153466800Y-131419600D03*
X153466800Y-133959600D03*
D31*
X164735000Y-99720400D03*
X166735000Y-99720400D03*
X164735000Y-97840800D03*
X166735000Y-97840800D03*
D32*
X157175200Y-98568000D03*
X157175200Y-100568000D03*
X150469600Y-119033800D03*
X150469600Y-117033800D03*
D31*
X168284400Y-114655600D03*
X166284400Y-114655600D03*
X168284400Y-108204000D03*
X166284400Y-108204000D03*
D32*
X133477000Y-118075200D03*
X133477000Y-120075200D03*
X131013200Y-118024400D03*
X131013200Y-120024400D03*
D31*
X168335200Y-110439200D03*
X166335200Y-110439200D03*
D25*
X161579600Y-99110800D03*
X159679600Y-99110800D03*
X168976000Y-100076000D03*
X170876000Y-100076000D03*
X161762400Y-114681000D03*
X163662400Y-114681000D03*
X111216400Y-131470400D03*
X113116400Y-131470400D03*
X111216400Y-116230400D03*
X113116400Y-116230400D03*
X168285200Y-112572800D03*
X166385200Y-112572800D03*
X166334400Y-116941600D03*
X168234400Y-116941600D03*
D17*
X126238000Y-118074400D03*
X126238000Y-119974400D03*
X128574800Y-118099800D03*
X128574800Y-119999800D03*
D33*
X144750000Y-117160000D03*
X144750000Y-118110000D03*
X144750000Y-119060000D03*
X147350000Y-119060000D03*
X147350000Y-117160000D03*
X147350000Y-118110000D03*
D27*
X118364000Y-106019600D03*
D28*
X118364000Y-108559600D03*
X118364000Y-111099600D03*
X118364000Y-113639600D03*
X118364000Y-116179600D03*
X118364000Y-118719600D03*
X118364000Y-121259600D03*
X118364000Y-123799600D03*
X118364000Y-126339600D03*
X118364000Y-128879600D03*
X118364000Y-131419600D03*
X118364000Y-133959600D03*
D25*
X113167200Y-106019600D03*
X111267200Y-106019600D03*
X113167200Y-108102400D03*
X111267200Y-108102400D03*
D31*
X111166400Y-110185200D03*
X113166400Y-110185200D03*
X159369000Y-114681000D03*
X157369000Y-114681000D03*
X159369000Y-116586000D03*
X157369000Y-116586000D03*
X170926000Y-102158800D03*
X168926000Y-102158800D03*
D25*
X169326600Y-119811800D03*
X167426600Y-119811800D03*
D33*
X162961800Y-120284200D03*
X162961800Y-121234200D03*
X162961800Y-122184200D03*
X165561800Y-122184200D03*
X165561800Y-120284200D03*
X165561800Y-121234200D03*
D34*
X161404800Y-83286600D03*
X156704800Y-83286600D03*
X150152600Y-124485400D03*
X145452600Y-124485400D03*
D26*
X164590600Y-95827400D03*
X167590600Y-95827400D03*
X164590600Y-88627400D03*
X167590600Y-88627400D03*
D35*
X161102800Y-127370800D03*
X161102800Y-129270800D03*
X163102800Y-128320800D03*
X165090600Y-127294600D03*
X165090600Y-129194600D03*
X167090600Y-128244600D03*
D25*
X171765000Y-95834200D03*
X169865000Y-95834200D03*
X111191000Y-123825000D03*
X113091000Y-123825000D03*
D17*
X159054800Y-126045000D03*
X159054800Y-124145000D03*
X159054800Y-127396200D03*
X159054800Y-129296200D03*
D31*
X132775200Y-110794800D03*
X130775200Y-110794800D03*
D36*
X138555600Y-117246400D03*
X141555600Y-117246400D03*
D37*
X157477200Y-104429200D03*
X157477200Y-104829200D03*
X157477200Y-105229200D03*
X157477200Y-105629200D03*
X157477200Y-106029200D03*
X157477200Y-106429200D03*
X157477200Y-106829200D03*
X157477200Y-107229200D03*
X157477200Y-107629200D03*
X157477200Y-108029200D03*
X157477200Y-108429200D03*
X157477200Y-108829200D03*
D38*
X158277200Y-109629200D03*
X158677200Y-109629200D03*
X159077200Y-109629200D03*
X159477200Y-109629200D03*
X159877200Y-109629200D03*
X160277200Y-109629200D03*
X160677200Y-109629200D03*
X161077200Y-109629200D03*
X161477200Y-109629200D03*
X161877200Y-109629200D03*
X162277200Y-109629200D03*
X162677200Y-109629200D03*
D37*
X163477200Y-108829200D03*
X163477200Y-108429200D03*
X163477200Y-108029200D03*
X163477200Y-107629200D03*
X163477200Y-107229200D03*
X163477200Y-106829200D03*
X163477200Y-106429200D03*
X163477200Y-106029200D03*
X163477200Y-105629200D03*
X163477200Y-105229200D03*
X163477200Y-104829200D03*
X163477200Y-104429200D03*
D38*
X162677200Y-103629200D03*
X162277200Y-103629200D03*
X161877200Y-103629200D03*
X161477200Y-103629200D03*
X161077200Y-103629200D03*
X160677200Y-103629200D03*
X160277200Y-103629200D03*
X159877200Y-103629200D03*
X159477200Y-103629200D03*
X159077200Y-103629200D03*
X158677200Y-103629200D03*
X158277200Y-103629200D03*
D39*
X162145950Y-108297950D03*
X162145950Y-107185450D03*
X162145950Y-106072950D03*
X162145950Y-104960450D03*
X161033450Y-108297950D03*
X161033450Y-107185450D03*
X161033450Y-106072950D03*
X161033450Y-104960450D03*
X159920950Y-108297950D03*
X159920950Y-107185450D03*
X159920950Y-106072950D03*
X159920950Y-104960450D03*
X158808450Y-108297950D03*
X158808450Y-107185450D03*
X158808450Y-106072950D03*
X158808450Y-104960450D03*
D40*
X153111200Y-94259400D03*
X133121400Y-101269800D03*
X164439600Y-101396800D03*
X165303200Y-64262000D03*
X122174000Y-101904800D03*
X125272800Y-98247200D03*
X144272000Y-91389200D03*
X146456400Y-70104000D03*
X147828000Y-61874400D03*
X121488200Y-103098600D03*
X127406400Y-101371400D03*
X149606000Y-101142800D03*
X154305000Y-100482400D03*
X112293400Y-120065800D03*
X122936000Y-101295200D03*
X127355600Y-99314000D03*
X149809200Y-98196400D03*
X155956000Y-97713800D03*
X150317200Y-99009200D03*
X155143200Y-98501200D03*
X155092400Y-96977200D03*
X143611600Y-119557800D03*
X126847600Y-121310400D03*
X163118800Y-98653600D03*
X162356800Y-99110800D03*
X162356800Y-98653600D03*
X165608000Y-66294000D03*
X128320800Y-114274600D03*
X146024600Y-120675400D03*
X150444200Y-115874800D03*
X134950200Y-120065800D03*
X172643800Y-68351400D03*
X159283400Y-119075200D03*
X159029400Y-131292600D03*
X172770800Y-88620600D03*
X159029397Y-77418921D03*
X158978600Y-87071200D03*
X151688800Y-86944200D03*
X152501600Y-77419200D03*
X172669200Y-77444600D03*
X172008800Y-100787200D03*
X162102800Y-107188000D03*
X159920950Y-107185450D03*
X160985200Y-108305600D03*
X161033450Y-107185450D03*
X158750000Y-108305600D03*
X161033450Y-104960450D03*
X162153600Y-108254800D03*
X159920950Y-106072950D03*
X158800800Y-106070400D03*
X158808450Y-107185450D03*
X159918400Y-108305600D03*
X158808450Y-104960450D03*
X159920950Y-104960450D03*
X133807200Y-115722400D03*
X162102800Y-106273600D03*
X170789600Y-66497200D03*
X167944800Y-98958400D03*
X162145950Y-104960450D03*
X169722800Y-124917200D03*
X167284400Y-118516400D03*
X158242000Y-112166400D03*
X161340800Y-117881400D03*
X164312600Y-128447800D03*
X165481000Y-102971600D03*
X167919400Y-106680000D03*
X161366200Y-120167400D03*
X160197800Y-68224400D03*
X157048200Y-97205800D03*
X159664400Y-101574600D03*
X161696400Y-102082600D03*
X169570400Y-104038400D03*
X136296400Y-112268000D03*
X125171200Y-112217200D03*
X156591000Y-73863200D03*
X111150400Y-111861600D03*
X169646600Y-127533400D03*
X173659800Y-104698800D03*
X166725600Y-102971600D03*
X156057600Y-105613200D03*
X161442400Y-101092000D03*
X166700200Y-102031800D03*
X145516600Y-78562200D03*
X111556800Y-121920000D03*
X172974000Y-98628200D03*
D41*
X158419800Y-91008200D02*
X158419800Y-90220800D01*
X158191200Y-84226400D02*
X157251400Y-83286600D01*
X158191200Y-89992200D02*
X158191200Y-84226400D01*
X158419800Y-90220800D02*
X158191200Y-89992200D01*
X157251400Y-83286600D02*
X156704800Y-83286600D01*
D42*
X159477200Y-103629200D02*
X159477200Y-102403400D01*
X159477200Y-102403400D02*
X158927800Y-101854000D01*
X158927800Y-101854000D02*
X158927800Y-101168200D01*
D41*
X158927800Y-101168200D02*
X158419800Y-100660200D01*
X158419800Y-100660200D02*
X158419800Y-91008200D01*
X158419800Y-91008200D02*
X158419800Y-90982800D01*
D43*
X152908336Y-95961136D02*
X152908336Y-94462264D01*
X152908336Y-94462264D02*
X153111200Y-94259400D01*
X152958800Y-103581200D02*
X152908336Y-95961136D01*
X153466800Y-108559600D02*
X152044400Y-108559600D01*
X151638000Y-104902000D02*
X152958800Y-103581200D01*
X151638000Y-108153200D02*
X151638000Y-104902000D01*
X152044400Y-108559600D02*
X151638000Y-108153200D01*
D42*
X153466800Y-111099600D02*
X153187400Y-111099600D01*
D43*
X153187400Y-111099600D02*
X150799800Y-108712000D01*
X133172200Y-101320600D02*
X133121400Y-101269800D01*
X142748000Y-101320600D02*
X133172200Y-101320600D01*
X143941800Y-100126800D02*
X142748000Y-101320600D01*
X149936200Y-100126800D02*
X143941800Y-100126800D01*
X150774400Y-100965000D02*
X149936200Y-100126800D01*
X150774400Y-105054400D02*
X150774400Y-100965000D01*
X150799800Y-105079800D02*
X150774400Y-105054400D01*
X150799800Y-108712000D02*
X150799800Y-105079800D01*
D42*
X150266400Y-64300100D02*
X150266400Y-66309200D01*
X150266400Y-66309200D02*
X150368000Y-66410800D01*
X163477200Y-104429200D02*
X164099600Y-104429200D01*
X165303200Y-64262000D02*
X152298400Y-64262000D01*
X152298400Y-64262000D02*
X151028400Y-62992000D01*
X151028400Y-62992000D02*
X150456900Y-62992000D01*
X164439600Y-104089200D02*
X164439600Y-101396800D01*
X164099600Y-104429200D02*
X164439600Y-104089200D01*
X150456900Y-62992000D02*
X150266400Y-62801500D01*
X150164800Y-62699900D02*
X150266400Y-62801500D01*
X147828000Y-64300100D02*
X147828000Y-65227200D01*
X148285200Y-65684400D02*
X148285200Y-66410800D01*
X147828000Y-65227200D02*
X148285200Y-65684400D01*
X148285200Y-66410800D02*
X145999200Y-66410800D01*
D43*
X115874800Y-118719600D02*
X115874800Y-118211600D01*
X115874800Y-118211600D02*
X116586000Y-117500400D01*
X116586000Y-117500400D02*
X120345200Y-117500400D01*
X120345200Y-117500400D02*
X122174000Y-115671600D01*
X122174000Y-115671600D02*
X122174000Y-101904800D01*
X125272800Y-98247200D02*
X125374400Y-98348800D01*
X125374400Y-98348800D02*
X141782800Y-98348800D01*
X141782800Y-98348800D02*
X144272000Y-95859600D01*
X144272000Y-95859600D02*
X144272000Y-91389200D01*
D42*
X147828000Y-62801500D02*
X147828000Y-61874400D01*
X145999200Y-69646800D02*
X145999200Y-68310800D01*
X146456400Y-70104000D02*
X145999200Y-69646800D01*
D43*
X115874800Y-113639600D02*
X113065600Y-113639600D01*
D42*
X127406400Y-101371400D02*
X131343400Y-101371400D01*
X117043200Y-114884200D02*
X120319800Y-114884200D01*
X120319800Y-114884200D02*
X121488200Y-113715800D01*
X121488200Y-113715800D02*
X121488200Y-103098600D01*
X115874800Y-116052600D02*
X117043200Y-114884200D01*
X143967200Y-101142800D02*
X149606000Y-101142800D01*
X143052800Y-102057200D02*
X143967200Y-101142800D01*
X132029200Y-102057200D02*
X143052800Y-102057200D01*
X131343400Y-101371400D02*
X132029200Y-102057200D01*
X155302400Y-95827400D02*
X154305000Y-96824800D01*
X155302400Y-95827400D02*
X156615000Y-95827400D01*
X154305000Y-96824800D02*
X154305000Y-100482400D01*
X115874800Y-116179600D02*
X115874800Y-116052600D01*
D43*
X156615000Y-88627400D02*
X156615000Y-95827400D01*
X115874800Y-116179600D02*
X113167200Y-116179600D01*
X113167200Y-116179600D02*
X113116400Y-116230400D01*
D42*
X127355600Y-99314000D02*
X141859000Y-99314000D01*
X145345600Y-95827400D02*
X148614000Y-95827400D01*
X141859000Y-99314000D02*
X145345600Y-95827400D01*
D43*
X148614000Y-88627400D02*
X148614000Y-95827400D01*
X112293400Y-120065800D02*
X112928400Y-120040400D01*
X112928400Y-120040400D02*
X120142000Y-120040400D01*
X120142000Y-120040400D02*
X122936000Y-117246400D01*
X122936000Y-117246400D02*
X122936000Y-101295200D01*
X127304800Y-99263200D02*
X127355600Y-99314000D01*
X127406400Y-99263200D02*
X127304800Y-99263200D01*
X127355600Y-99314000D02*
X127406400Y-99263200D01*
X113116400Y-131470400D02*
X115824000Y-131470400D01*
X115824000Y-131470400D02*
X115874800Y-131419600D01*
D42*
X145389600Y-64300100D02*
X145389600Y-64516000D01*
X145389600Y-64516000D02*
X144475200Y-65430400D01*
X144475200Y-65430400D02*
X144475200Y-69951600D01*
X144475200Y-69951600D02*
X146761200Y-72237600D01*
X146761200Y-72237600D02*
X146761200Y-73472000D01*
D41*
X164735000Y-97840800D02*
X163652200Y-97840800D01*
X163372800Y-97561400D02*
X160578800Y-97561400D01*
X163652200Y-97840800D02*
X163372800Y-97561400D01*
X162941000Y-87631000D02*
X162941000Y-87604600D01*
X162941000Y-87631000D02*
X162941000Y-95199200D01*
X162941000Y-95199200D02*
X160578800Y-97561400D01*
X160578800Y-97561400D02*
X159679600Y-98460600D01*
X159679600Y-99110800D02*
X159679600Y-98460600D01*
X162941000Y-87604600D02*
X161404800Y-86068400D01*
X161404800Y-86068400D02*
X161404800Y-83286600D01*
D42*
X160277200Y-103629200D02*
X160277200Y-100433680D01*
X159679600Y-99836080D02*
X159679600Y-99110800D01*
X160277200Y-100433680D02*
X159679600Y-99836080D01*
D41*
X159730400Y-99060000D02*
X159679600Y-99110800D01*
D42*
X163477200Y-108029200D02*
X164360400Y-108029200D01*
X165252400Y-107848400D02*
X165608000Y-108204000D01*
X164541200Y-107848400D02*
X165252400Y-107848400D01*
X164360400Y-108029200D02*
X164541200Y-107848400D01*
X163477200Y-108429200D02*
X164570000Y-108429200D01*
D43*
X164795200Y-108204000D02*
X165608000Y-108204000D01*
X165608000Y-108204000D02*
X166284400Y-108204000D01*
X164570000Y-108429200D02*
X164795200Y-108204000D01*
D42*
X162677200Y-109629200D02*
X162677200Y-110266802D01*
D43*
X165455600Y-110439200D02*
X166335200Y-110439200D01*
X165150800Y-110744000D02*
X165455600Y-110439200D01*
X163154398Y-110744000D02*
X165150800Y-110744000D01*
D42*
X162677200Y-110266802D02*
X163154398Y-110744000D01*
D44*
X144750000Y-117160000D02*
X141836180Y-117160000D01*
D43*
X141836180Y-117160000D02*
X141749780Y-117246400D01*
D44*
X141749780Y-117246400D02*
X141749780Y-120413780D01*
X145452600Y-121500400D02*
X145452600Y-124485400D01*
D43*
X145389600Y-121437400D02*
X145452600Y-121500400D01*
D44*
X142773400Y-121437400D02*
X145389600Y-121437400D01*
X141749780Y-120413780D02*
X142773400Y-121437400D01*
D42*
X142443200Y-99974400D02*
X144221200Y-98196400D01*
X144221200Y-98196400D02*
X149809200Y-98196400D01*
X142443200Y-99974400D02*
X121361200Y-99974400D01*
X121361200Y-99974400D02*
X120396000Y-100939600D01*
X120396000Y-100939600D02*
X120396000Y-108153200D01*
X120396000Y-108153200D02*
X119989600Y-108559600D01*
X118364000Y-108559600D02*
X119989600Y-108559600D01*
X113167200Y-106019600D02*
X113588800Y-106019600D01*
X117144800Y-107340400D02*
X118364000Y-108559600D01*
X114554000Y-107340400D02*
X117144800Y-107340400D01*
X114147600Y-106934000D02*
X114554000Y-107340400D01*
X114147600Y-106578400D02*
X114147600Y-106934000D01*
X113588800Y-106019600D02*
X114147600Y-106578400D01*
X155956000Y-103530400D02*
X155956000Y-97713800D01*
X156854800Y-104429200D02*
X155956000Y-103530400D01*
X157477200Y-104429200D02*
X156854800Y-104429200D01*
X118364000Y-108559600D02*
X118364000Y-108204000D01*
X144373600Y-98856800D02*
X150164800Y-98856800D01*
X150164800Y-98856800D02*
X150317200Y-99009200D01*
X155143200Y-98653600D02*
X155143200Y-98501200D01*
X120294400Y-111099600D02*
X118364000Y-111099600D01*
X120802400Y-110591600D02*
X120294400Y-111099600D01*
X120802400Y-101396800D02*
X120802400Y-110591600D01*
X121615200Y-100584000D02*
X120802400Y-101396800D01*
X142646400Y-100584000D02*
X121615200Y-100584000D01*
X142646400Y-100584000D02*
X144373600Y-98856800D01*
X113167200Y-108102400D02*
X113944400Y-108102400D01*
X113944400Y-108102400D02*
X114249200Y-108407200D01*
X114249200Y-108407200D02*
X114249200Y-109270800D01*
X114249200Y-109270800D02*
X114808000Y-109829600D01*
X114808000Y-109829600D02*
X117094000Y-109829600D01*
X117094000Y-109829600D02*
X118364000Y-111099600D01*
X155143200Y-103581200D02*
X155143200Y-98653600D01*
X157477200Y-104829200D02*
X156391200Y-104829200D01*
X156391200Y-104829200D02*
X155143200Y-103581200D01*
X155143200Y-98653600D02*
X155143200Y-97028000D01*
X155143200Y-97028000D02*
X155092400Y-96977200D01*
X118364000Y-111099600D02*
X118364000Y-110845600D01*
X163830000Y-101193600D02*
X163830000Y-101092000D01*
X168452800Y-100076000D02*
X168976000Y-100076000D01*
X167843200Y-100685600D02*
X168452800Y-100076000D01*
X164236400Y-100685600D02*
X167843200Y-100685600D01*
X163830000Y-101092000D02*
X164236400Y-100685600D01*
X162677200Y-103629200D02*
X162677200Y-103108400D01*
X163830000Y-101955600D02*
X163830000Y-101193600D01*
X163830000Y-101193600D02*
X163830000Y-101168200D01*
X162677200Y-103108400D02*
X163830000Y-101955600D01*
X156057600Y-110896400D02*
X156057600Y-110896400D01*
X156714800Y-106429200D02*
X156057600Y-107086400D01*
X156057600Y-107086400D02*
X156057600Y-110896400D01*
X157477200Y-106429200D02*
X156714800Y-106429200D01*
X156057600Y-117195600D02*
X156730700Y-117868700D01*
X156057600Y-110896400D02*
X156057600Y-117195600D01*
X156730700Y-117868700D02*
X159880300Y-117868700D01*
X159880300Y-117868700D02*
X160782000Y-116967000D01*
X160782000Y-116967000D02*
X160782000Y-115189000D01*
X160782000Y-115189000D02*
X161290000Y-114681000D01*
X161290000Y-114681000D02*
X161762400Y-114681000D01*
D43*
X166385200Y-112572800D02*
X164011804Y-112572800D01*
D42*
X162277200Y-110838196D02*
X162277200Y-109629200D01*
D43*
X164011804Y-112572800D02*
X162277200Y-110838196D01*
X144750000Y-119060000D02*
X144465000Y-119060000D01*
X144465000Y-119060000D02*
X143611600Y-119557800D01*
X126847600Y-121310400D02*
X126238000Y-120700800D01*
X126238000Y-120700800D02*
X126238000Y-119974400D01*
X126238000Y-119974400D02*
X126238000Y-119710200D01*
X126238000Y-119710200D02*
X127848400Y-118099800D01*
X127848400Y-118099800D02*
X128574800Y-118099800D01*
D44*
X162356800Y-99110800D02*
X162661600Y-99110800D01*
X162661600Y-99110800D02*
X163118800Y-98653600D01*
X163118800Y-98653600D02*
X162356800Y-98653600D01*
D41*
X164735000Y-99720400D02*
X163449000Y-99720400D01*
X163449000Y-99720400D02*
X163118800Y-100050600D01*
D45*
X162277200Y-102746400D02*
X162277200Y-102670200D01*
X163118800Y-101828600D02*
X163118800Y-100050600D01*
X163118800Y-100050600D02*
X163118800Y-98653600D01*
X162277200Y-102670200D02*
X163118800Y-101828600D01*
D42*
X160677200Y-103629200D02*
X160677200Y-100485600D01*
X161579600Y-99938800D02*
X161579600Y-99110800D01*
X161340800Y-100177600D02*
X161579600Y-99938800D01*
X160985200Y-100177600D02*
X161340800Y-100177600D01*
X160677200Y-100485600D02*
X160985200Y-100177600D01*
X161877200Y-103629200D02*
X161877200Y-103146400D01*
X162277200Y-102746400D02*
X162277200Y-103629200D01*
X161877200Y-103146400D02*
X162277200Y-102746400D01*
D45*
X163068000Y-98704400D02*
X163118800Y-98653600D01*
D43*
X162356800Y-99110800D02*
X162356800Y-98653600D01*
D42*
X161579600Y-99735600D02*
X161579600Y-99110800D01*
D45*
X162356800Y-99110800D02*
X161579600Y-99110800D01*
D41*
X161681200Y-99212400D02*
X161579600Y-99110800D01*
X167624000Y-63671800D02*
X167624000Y-65446400D01*
D45*
X166776400Y-66294000D02*
X165608000Y-66294000D01*
X167624000Y-65446400D02*
X166776400Y-66294000D01*
D41*
X130775200Y-110794800D02*
X128726340Y-110794800D01*
X128726340Y-110794800D02*
X128269140Y-110337600D01*
X128269140Y-107799720D02*
X128269140Y-110337600D01*
X128269140Y-110337600D02*
X128269140Y-114222940D01*
X128269140Y-114222940D02*
X128320800Y-114274600D01*
X145592800Y-120370600D02*
X145719800Y-120370600D01*
X145719800Y-120370600D02*
X146024600Y-120675400D01*
X144750000Y-118110000D02*
X143891000Y-118110000D01*
X145567400Y-118110000D02*
X144750000Y-118110000D01*
X145999200Y-118541800D02*
X145567400Y-118110000D01*
X145999200Y-119964200D02*
X145999200Y-118541800D01*
X145262600Y-120700800D02*
X145592800Y-120370600D01*
X145592800Y-120370600D02*
X145999200Y-119964200D01*
X143179800Y-120700800D02*
X145262600Y-120700800D01*
X142773400Y-120294400D02*
X143179800Y-120700800D01*
X142773400Y-119227600D02*
X142773400Y-120294400D01*
X143891000Y-118110000D02*
X142773400Y-119227600D01*
D44*
X150469600Y-117033800D02*
X150469600Y-115900200D01*
X150469600Y-115900200D02*
X150444200Y-115874800D01*
D43*
X133477000Y-120075200D02*
X134940800Y-120075200D01*
X134940800Y-120075200D02*
X134950200Y-120065800D01*
X133477000Y-120075200D02*
X131064000Y-120075200D01*
X131064000Y-120075200D02*
X131013200Y-120024400D01*
X131013200Y-120024400D02*
X128599400Y-120024400D01*
X128599400Y-120024400D02*
X128574800Y-119999800D01*
D41*
X170789600Y-66497200D02*
X172643800Y-68351400D01*
D43*
X159054800Y-129296200D02*
X158099800Y-129296200D01*
X157657800Y-120700800D02*
X159283400Y-119075200D01*
X157657800Y-128854200D02*
X157657800Y-120700800D01*
X158099800Y-129296200D02*
X157657800Y-128854200D01*
D42*
X145389600Y-62801500D02*
X145389600Y-61976000D01*
X152029800Y-61986800D02*
X154076400Y-61986800D01*
X151206200Y-61163200D02*
X152029800Y-61986800D01*
X146202400Y-61163200D02*
X151206200Y-61163200D01*
X145389600Y-61976000D02*
X146202400Y-61163200D01*
X161102800Y-129270800D02*
X159080200Y-129270800D01*
X159080200Y-129270800D02*
X159054800Y-129296200D01*
X159054800Y-129296200D02*
X159054800Y-131267200D01*
X159054800Y-131267200D02*
X159029400Y-131292600D01*
D41*
X167590600Y-95827400D02*
X167590600Y-96902400D01*
X167944800Y-97256600D02*
X167944800Y-98094800D01*
X167590600Y-96902400D02*
X167944800Y-97256600D01*
X167944800Y-98958400D02*
X167944800Y-98094800D01*
X167767000Y-97917000D02*
X166811200Y-97917000D01*
X167944800Y-98094800D02*
X167767000Y-97917000D01*
X166811200Y-97917000D02*
X166735000Y-97840800D01*
X166735000Y-99720400D02*
X167182800Y-99720400D01*
X167182800Y-99720400D02*
X167944800Y-98958400D01*
D43*
X167590600Y-95827400D02*
X169858200Y-95827400D01*
X169858200Y-95827400D02*
X169865000Y-95834200D01*
D42*
X162961800Y-121234200D02*
X161925000Y-121234200D01*
X161467800Y-118465600D02*
X165303200Y-118465600D01*
X160756600Y-119176800D02*
X161467800Y-118465600D01*
X160756600Y-121005600D02*
X160756600Y-119176800D01*
X160985200Y-121234200D02*
X160756600Y-121005600D01*
X161925000Y-121234200D02*
X160985200Y-121234200D01*
D43*
X167284400Y-118516400D02*
X167284400Y-119669600D01*
X167284400Y-119669600D02*
X167426600Y-119811800D01*
X167590600Y-88627400D02*
X167590600Y-95827400D01*
X172764000Y-88627400D02*
X172770800Y-88620600D01*
X159615000Y-88627400D02*
X159615000Y-95827400D01*
X159615000Y-88627400D02*
X159615000Y-87707600D01*
X158978600Y-87071200D02*
X159615000Y-87707600D01*
X151614000Y-88627400D02*
X151614000Y-95827400D01*
X151614000Y-87019000D02*
X151614000Y-88627400D01*
X151688800Y-86944200D02*
X151614000Y-87019000D01*
D46*
X152501600Y-77419200D02*
X159029397Y-77418921D01*
X159029397Y-77418921D02*
X172642940Y-77418340D01*
D42*
X159077200Y-103629200D02*
X159077200Y-102638400D01*
D41*
X157175200Y-101600000D02*
X157175200Y-100568000D01*
X157607000Y-102031800D02*
X157175200Y-101600000D01*
X158470600Y-102031800D02*
X157607000Y-102031800D01*
D42*
X159077200Y-102638400D02*
X158470600Y-102031800D01*
D44*
X172642940Y-77418340D02*
X172669200Y-77444600D01*
D43*
X172008800Y-100482400D02*
X171602400Y-100076000D01*
X172008800Y-100787200D02*
X172008800Y-100482400D01*
X170876000Y-100076000D02*
X171602400Y-100076000D01*
D42*
X159369000Y-114681000D02*
X159369000Y-116535200D01*
X159369000Y-116535200D02*
X159419800Y-116586000D01*
X159477200Y-109629200D02*
X159477200Y-114572800D01*
X159477200Y-114572800D02*
X159369000Y-114681000D01*
X170876000Y-100076000D02*
X170876000Y-102108800D01*
X170876000Y-102108800D02*
X170926000Y-102158800D01*
X113166400Y-110185200D02*
X113690400Y-110185200D01*
X113690400Y-110185200D02*
X114604800Y-111099600D01*
X114604800Y-111099600D02*
X115874800Y-111099600D01*
D41*
X162102800Y-107188000D02*
X162100250Y-107185450D01*
X162100250Y-107185450D02*
X161033450Y-107185450D01*
X159920950Y-107185450D02*
X161033450Y-107185450D01*
X160985200Y-108305600D02*
X161033450Y-108257350D01*
X161033450Y-108257350D02*
X161033450Y-107185450D01*
X158750000Y-108305600D02*
X158757650Y-108297950D01*
X158757650Y-108297950D02*
X159920950Y-108297950D01*
X161033450Y-104960450D02*
X161033450Y-106072950D01*
X162153600Y-108254800D02*
X162110450Y-108297950D01*
X158800800Y-106070400D02*
X158808450Y-106078050D01*
X158808450Y-106078050D02*
X158808450Y-107185450D01*
X159918400Y-108305600D02*
X159920950Y-108303050D01*
X159920950Y-108303050D02*
X159920950Y-108297950D01*
D42*
X159077200Y-104691700D02*
X158808450Y-104960450D01*
D43*
X161033450Y-104960450D02*
X159920950Y-104960450D01*
D46*
X162102800Y-106273600D02*
X162145950Y-106230450D01*
X162145950Y-106230450D02*
X162145950Y-106072950D01*
D41*
X168894000Y-63671800D02*
X168894000Y-64601600D01*
D45*
X168894000Y-64601600D02*
X170789600Y-66497200D01*
D42*
X157477200Y-107629200D02*
X158364700Y-107629200D01*
X158364700Y-107629200D02*
X158808450Y-107185450D01*
X159477200Y-109629200D02*
X159477200Y-108741700D01*
X159477200Y-108741700D02*
X159920950Y-108297950D01*
X159077200Y-103629200D02*
X159077200Y-104691700D01*
D43*
X170882000Y-124938000D02*
X169743600Y-124938000D01*
X169743600Y-124938000D02*
X169722800Y-124917200D01*
X165354000Y-116941600D02*
X166334400Y-116941600D01*
X164896800Y-117398800D02*
X165354000Y-116941600D01*
X164896800Y-118059200D02*
X164896800Y-117398800D01*
X165354000Y-118516400D02*
X165303200Y-118465600D01*
X165303200Y-118465600D02*
X164896800Y-118059200D01*
X167284400Y-118516400D02*
X165354000Y-118516400D01*
X162925800Y-131038600D02*
X163677600Y-131038600D01*
X164607200Y-129194600D02*
X165090600Y-129194600D01*
X164109400Y-129692400D02*
X164607200Y-129194600D01*
X164109400Y-130606800D02*
X164109400Y-129692400D01*
X163677600Y-131038600D02*
X164109400Y-130606800D01*
D42*
X158277200Y-109629200D02*
X158277200Y-112131200D01*
X158277200Y-112131200D02*
X158242000Y-112166400D01*
X163662400Y-114681000D02*
X163662400Y-115559800D01*
X163662400Y-115559800D02*
X161340800Y-117881400D01*
D44*
X165090600Y-129194600D02*
X165059400Y-129194600D01*
X165059400Y-129194600D02*
X164312600Y-128447800D01*
D41*
X165506400Y-103073200D02*
X165455600Y-103073200D01*
X165455600Y-103022400D02*
X165506400Y-103073200D01*
X165455600Y-102997000D02*
X165455600Y-103022400D01*
X165481000Y-102971600D02*
X165455600Y-102997000D01*
X170103800Y-108305600D02*
X170103800Y-107873800D01*
X168910000Y-106680000D02*
X167919400Y-106680000D01*
X170103800Y-107873800D02*
X168910000Y-106680000D01*
X172059600Y-115385600D02*
X171291000Y-115385600D01*
X170103800Y-114198400D02*
X170103800Y-108305600D01*
X170103800Y-108305600D02*
X170103800Y-108254800D01*
X171291000Y-115385600D02*
X170103800Y-114198400D01*
X162961800Y-120284200D02*
X161483000Y-120284200D01*
X161483000Y-120284200D02*
X161366200Y-120167400D01*
D42*
X160111400Y-68310800D02*
X150368000Y-68310800D01*
X160197800Y-68224400D02*
X160111400Y-68310800D01*
D41*
X157175200Y-97332800D02*
X157175200Y-98568000D01*
X157048200Y-97205800D02*
X157175200Y-97332800D01*
D43*
X159863198Y-101752400D02*
X159842200Y-101752400D01*
X159842200Y-101752400D02*
X159664400Y-101574600D01*
D41*
X165455600Y-103073200D02*
X165455600Y-104038400D01*
D42*
X161477200Y-103629200D02*
X161477200Y-102301800D01*
X161477200Y-102301800D02*
X161696400Y-102082600D01*
D46*
X165455600Y-104038400D02*
X169570400Y-104038400D01*
D42*
X161477200Y-109629200D02*
X161477200Y-111439200D01*
X163662400Y-113624400D02*
X163662400Y-114681000D01*
X161477200Y-111439200D02*
X163662400Y-113624400D01*
X163662400Y-114681000D02*
X163687800Y-114655600D01*
X163687800Y-114655600D02*
X164388800Y-114655600D01*
X159877200Y-102297198D02*
X159863198Y-102311200D01*
X159863198Y-102311200D02*
X159863198Y-101752400D01*
X159877200Y-103629200D02*
X159877200Y-102297198D01*
D45*
X164236400Y-105054400D02*
X164439600Y-105054400D01*
X164439600Y-105054400D02*
X165455600Y-104038400D01*
D42*
X163477200Y-105229200D02*
X164163200Y-105229200D01*
X164236400Y-105156000D02*
X164236400Y-105054400D01*
X164236400Y-105054400D02*
X164236400Y-104829200D01*
X164163200Y-105229200D02*
X164236400Y-105156000D01*
X163477200Y-104829200D02*
X164236400Y-104829200D01*
D43*
X164388800Y-114655600D02*
X166284400Y-114655600D01*
D44*
X133477000Y-118075200D02*
X133477000Y-118033800D01*
D41*
X133477000Y-118033800D02*
X134264400Y-117246400D01*
X134264400Y-117246400D02*
X138555600Y-117246400D01*
X135381140Y-107799720D02*
X135434920Y-107799720D01*
X135434920Y-107799720D02*
X136296400Y-108661200D01*
X136296400Y-108661200D02*
X136296400Y-112268000D01*
X132775200Y-110794800D02*
X134061200Y-110794800D01*
X134721600Y-108459260D02*
X135381140Y-107799720D01*
X134721600Y-110134400D02*
X134721600Y-108459260D01*
X134061200Y-110794800D02*
X134721600Y-110134400D01*
X126238000Y-118074400D02*
X126238000Y-117856000D01*
X126238000Y-117856000D02*
X125171200Y-116789200D01*
X125171200Y-116789200D02*
X125171200Y-112217200D01*
D43*
X133477000Y-118075200D02*
X133477000Y-117932200D01*
D41*
X133477000Y-117932200D02*
X132689600Y-117144800D01*
X132689600Y-117144800D02*
X131892800Y-117144800D01*
X131892800Y-117144800D02*
X131013200Y-118024400D01*
D43*
X131013200Y-118024400D02*
X131013200Y-117652800D01*
D41*
X131013200Y-117652800D02*
X130454400Y-117094000D01*
X127218400Y-117094000D02*
X126238000Y-118074400D01*
X130454400Y-117094000D02*
X127218400Y-117094000D01*
D43*
X111191000Y-123825000D02*
X110210600Y-123825000D01*
X110210600Y-123825000D02*
X110032800Y-124002800D01*
X111216400Y-116230400D02*
X110972600Y-116230400D01*
X110972600Y-116230400D02*
X110032800Y-117170200D01*
X110032800Y-117170200D02*
X110032800Y-124002800D01*
X110490000Y-131470400D02*
X111216400Y-131470400D01*
X110032800Y-124002800D02*
X110032800Y-131013200D01*
X110032800Y-131013200D02*
X110490000Y-131470400D01*
D42*
X111216400Y-123799600D02*
X111191000Y-123825000D01*
D43*
X148285200Y-73863200D02*
X156591000Y-73863200D01*
X111165600Y-113639600D02*
X111165600Y-116179600D01*
X111165600Y-116179600D02*
X111216400Y-116230400D01*
X111150400Y-111861600D02*
X111165600Y-111876800D01*
X111165600Y-111876800D02*
X111165600Y-113639600D01*
X147508000Y-74625200D02*
X147523200Y-74625200D01*
X148285200Y-73863200D02*
X148285200Y-68310800D01*
X147523200Y-74625200D02*
X148285200Y-73863200D01*
X147508000Y-74625200D02*
X146761200Y-75372000D01*
D42*
X169646600Y-127533400D02*
X169651200Y-127538000D01*
D46*
X168681226Y-122834578D02*
X168681226Y-122783774D01*
X172618400Y-121158000D02*
X173786800Y-119989600D01*
X173786800Y-119989600D02*
X173786800Y-108585000D01*
X173786800Y-108585000D02*
X170865800Y-105664000D01*
X165430200Y-105841800D02*
X165608000Y-105664000D01*
X165608000Y-105664000D02*
X170865800Y-105664000D01*
D44*
X165430200Y-105841800D02*
X164820600Y-105841800D01*
D46*
X170307000Y-121158000D02*
X172618400Y-121158000D01*
X168681226Y-122783774D02*
X170307000Y-121158000D01*
D42*
X163477200Y-106029200D02*
X164633200Y-106029200D01*
X164633200Y-106029200D02*
X164820600Y-105841800D01*
X164820600Y-105841800D02*
X164846000Y-105816400D01*
X164658800Y-105629200D02*
X164846000Y-105816400D01*
X163477200Y-105629200D02*
X164658800Y-105629200D01*
D46*
X168656000Y-126542800D02*
X168681226Y-122834578D01*
X168681226Y-122834578D02*
X168681400Y-122809000D01*
X168656000Y-126542800D02*
X169240200Y-127127000D01*
X169240200Y-127127000D02*
X169651200Y-127538000D01*
D41*
X170882000Y-127538000D02*
X169651200Y-127538000D01*
D43*
X170882000Y-127538000D02*
X169651200Y-127538000D01*
D41*
X168284400Y-108204000D02*
X168859200Y-108204000D01*
X169418000Y-108762800D02*
X169418000Y-110693200D01*
X168859200Y-108204000D02*
X169418000Y-108762800D01*
D42*
X161877200Y-109629200D02*
X161877200Y-111229600D01*
D43*
X164338000Y-113690400D02*
X169418000Y-113690400D01*
X161877200Y-111229600D02*
X164338000Y-113690400D01*
D41*
X168285200Y-112572800D02*
X169418000Y-112572800D01*
X168284400Y-114655600D02*
X169418000Y-114655600D01*
X169468800Y-114604800D02*
X169418000Y-114604800D01*
X169418000Y-114655600D02*
X169468800Y-114604800D01*
X168335200Y-110439200D02*
X169164000Y-110439200D01*
X169062400Y-116941600D02*
X168234400Y-116941600D01*
X169418000Y-116586000D02*
X169062400Y-116941600D01*
X169418000Y-110693200D02*
X169418000Y-112572800D01*
X169418000Y-112572800D02*
X169418000Y-113690400D01*
X169418000Y-113690400D02*
X169418000Y-114604800D01*
X169418000Y-114604800D02*
X169418000Y-116586000D01*
X169164000Y-110439200D02*
X169418000Y-110693200D01*
D43*
X111277400Y-104571800D02*
X111607600Y-104241600D01*
X118364000Y-105054400D02*
X118364000Y-106019600D01*
X117551200Y-104241600D02*
X118364000Y-105054400D01*
X111607600Y-104241600D02*
X117551200Y-104241600D01*
X111277400Y-104571800D02*
X111277400Y-106009400D01*
D42*
X111277400Y-106009400D02*
X111267200Y-106019600D01*
X111267200Y-106019600D02*
X111267200Y-108102400D01*
X111267200Y-108102400D02*
X111166400Y-108203200D01*
X111166400Y-108203200D02*
X111166400Y-110185200D01*
X166725600Y-102971600D02*
X167741600Y-102971600D01*
X156073600Y-105629200D02*
X157477200Y-105629200D01*
X156073600Y-105629200D02*
X156057600Y-105613200D01*
X172212000Y-103225600D02*
X173659800Y-104698800D01*
X167995600Y-103225600D02*
X172212000Y-103225600D01*
X167741600Y-102971600D02*
X167995600Y-103225600D01*
X156921200Y-109067600D02*
X156921200Y-111455200D01*
X157369000Y-111903000D02*
X157369000Y-114681000D01*
X156921200Y-111455200D02*
X157369000Y-111903000D01*
X157477200Y-108829200D02*
X157159600Y-108829200D01*
X157159600Y-108829200D02*
X156921200Y-109067600D01*
X157477200Y-108829200D02*
X157312000Y-108829200D01*
X157477200Y-108429200D02*
X156929002Y-108429200D01*
X156510062Y-116005778D02*
X157419800Y-116586000D01*
X156514800Y-110956004D02*
X156510062Y-116005778D01*
X156514800Y-110956004D02*
X156514800Y-110956004D01*
X156514800Y-108843402D02*
X156514800Y-110956004D01*
X156929002Y-108429200D02*
X156514800Y-108843402D01*
X161077200Y-101457200D02*
X161442400Y-101092000D01*
X161077200Y-103629200D02*
X161077200Y-101457200D01*
D43*
X166827200Y-102158800D02*
X168926000Y-102158800D01*
X166700200Y-102031800D02*
X166827200Y-102158800D01*
D46*
X150469600Y-119033800D02*
X150469600Y-124168400D01*
X150469600Y-124168400D02*
X150152600Y-124485400D01*
D44*
X155854400Y-127635000D02*
X155854400Y-125653800D01*
X155295600Y-125095000D02*
X150762200Y-125095000D01*
X155854400Y-125653800D02*
X155295600Y-125095000D01*
X150762200Y-125095000D02*
X150152600Y-124485400D01*
X147350000Y-118110000D02*
X148437600Y-118110000D01*
X148564600Y-118237000D02*
X148564600Y-119060000D01*
X148437600Y-118110000D02*
X148564600Y-118237000D01*
X147350000Y-119060000D02*
X148564600Y-119060000D01*
X148564600Y-119060000D02*
X150443400Y-119060000D01*
X150443400Y-119060000D02*
X150469600Y-119033800D01*
X150774400Y-127635000D02*
X150774400Y-129489200D01*
X151561800Y-130276600D02*
X156057600Y-130276600D01*
X150774400Y-129489200D02*
X151561800Y-130276600D01*
D46*
X155092400Y-127635000D02*
X155854400Y-127635000D01*
D44*
X150774400Y-127635000D02*
X150774400Y-126923800D01*
X155092400Y-127635000D02*
X150774400Y-127635000D01*
D46*
X155854400Y-127635000D02*
X156057600Y-127838200D01*
X167090600Y-130191000D02*
X165709600Y-131572000D01*
X165709600Y-131572000D02*
X165709600Y-132740400D01*
X165709600Y-132740400D02*
X164592000Y-133858000D01*
X164592000Y-133858000D02*
X157759400Y-133858000D01*
X157759400Y-133858000D02*
X156286200Y-132384800D01*
X156286200Y-132384800D02*
X156286200Y-130987800D01*
X156286200Y-130987800D02*
X156057600Y-130759200D01*
D44*
X167090600Y-128244600D02*
X167090600Y-130191000D01*
D46*
X156057600Y-130759200D02*
X156057600Y-130276600D01*
X156057600Y-130276600D02*
X156057600Y-127838200D01*
D44*
X167090600Y-125917200D02*
X167090600Y-128244600D01*
D46*
X164261800Y-123444000D02*
X167090600Y-125917200D01*
D44*
X165561800Y-120284200D02*
X164500600Y-120284200D01*
X164261800Y-120523000D02*
X164236400Y-123418600D01*
X164500600Y-120284200D02*
X164261800Y-120523000D01*
D43*
X165561800Y-121234200D02*
X168249600Y-121234200D01*
X168249600Y-121234200D02*
X169326600Y-120157200D01*
X169326600Y-120157200D02*
X169326600Y-119811800D01*
D42*
X164590600Y-79449800D02*
X163703000Y-78562200D01*
X163703000Y-78562200D02*
X145516600Y-78562200D01*
X164590600Y-88627400D02*
X164590600Y-79449800D01*
X111556800Y-121920000D02*
X113091000Y-123454200D01*
X113091000Y-123454200D02*
X113091000Y-123825000D01*
X113091000Y-123825000D02*
X115849400Y-123825000D01*
X115849400Y-123825000D02*
X115874800Y-123799600D01*
D43*
X164590600Y-88627400D02*
X164590600Y-95827400D01*
D42*
X161102800Y-127370800D02*
X159080200Y-127370800D01*
X159080200Y-127370800D02*
X159054800Y-127396200D01*
X159054800Y-126045000D02*
X159054800Y-127396200D01*
D43*
X161025800Y-131038600D02*
X161569400Y-131038600D01*
X163102800Y-129048000D02*
X163102800Y-128320800D01*
X162128200Y-130022600D02*
X163102800Y-129048000D01*
X162128200Y-130479800D02*
X162128200Y-130022600D01*
X161569400Y-131038600D02*
X162128200Y-130479800D01*
D41*
X163102800Y-128320800D02*
X163102800Y-127778000D01*
X163102800Y-127778000D02*
X163586200Y-127294600D01*
X163586200Y-127294600D02*
X165090600Y-127294600D01*
X165090600Y-127294600D02*
X163586200Y-127294600D01*
X163586200Y-127294600D02*
X163102800Y-127778000D01*
D43*
X171765000Y-97419200D02*
X171765000Y-95834200D01*
X172974000Y-98628200D02*
X171765000Y-97419200D01*
D42*
X161391600Y-122184200D02*
X161391600Y-122199400D01*
X161391600Y-122199400D02*
X160426400Y-123164600D01*
X160426400Y-123164600D02*
X159410400Y-123164600D01*
X159410400Y-123164600D02*
X159054800Y-123520200D01*
X159054800Y-123520200D02*
X159054800Y-124145000D01*
X161077200Y-109629200D02*
X161077200Y-111699600D01*
X161376400Y-122184200D02*
X161391600Y-122184200D01*
X161391600Y-122184200D02*
X162961800Y-122184200D01*
X160274000Y-121081800D02*
X161376400Y-122184200D01*
X160274000Y-118084600D02*
X160274000Y-121081800D01*
X162687000Y-115671600D02*
X160274000Y-118084600D01*
X162687000Y-113309400D02*
X162687000Y-115671600D01*
X161077200Y-111699600D02*
X162687000Y-113309400D01*
D47*
G36*
X156972000Y-125325406D02*
X156972000Y-130733800D01*
X156982006Y-130783210D01*
X157009197Y-130823603D01*
X158355397Y-132169803D01*
X158397411Y-132197666D01*
X158445200Y-132207000D01*
X163830000Y-132207000D01*
X163879410Y-132196994D01*
X163919803Y-132169803D01*
X166854406Y-129235200D01*
X167331950Y-129235200D01*
X167376350Y-129279600D01*
X167530194Y-129279600D01*
X167665400Y-129414806D01*
X167665400Y-130452594D01*
X166254797Y-131863197D01*
X166226934Y-131905211D01*
X166217600Y-131953000D01*
X166217600Y-132967194D01*
X164412394Y-134772400D01*
X156059406Y-134772400D01*
X155448000Y-134160994D01*
X155448000Y-125198406D01*
X155856206Y-124790200D01*
X156436794Y-124790200D01*
X156972000Y-125325406D01*
X156972000Y-125325406D01*
G37*
X156972000Y-125325406D02*
X156972000Y-130733800D01*
X156982006Y-130783210D01*
X157009197Y-130823603D01*
X158355397Y-132169803D01*
X158397411Y-132197666D01*
X158445200Y-132207000D01*
X163830000Y-132207000D01*
X163879410Y-132196994D01*
X163919803Y-132169803D01*
X166854406Y-129235200D01*
X167331950Y-129235200D01*
X167376350Y-129279600D01*
X167530194Y-129279600D01*
X167665400Y-129414806D01*
X167665400Y-130452594D01*
X166254797Y-131863197D01*
X166226934Y-131905211D01*
X166217600Y-131953000D01*
X166217600Y-132967194D01*
X164412394Y-134772400D01*
X156059406Y-134772400D01*
X155448000Y-134160994D01*
X155448000Y-125198406D01*
X155856206Y-124790200D01*
X156436794Y-124790200D01*
X156972000Y-125325406D01*
M02*
