G04 #@! TF.FileFunction,Drawing*
%FSLAX46Y46*%
G04 Gerber Fmt 4.6, Leading zero omitted, Abs format (unit mm)*
G04 Created by KiCad (PCBNEW 4.0.6) date Monday, July 30, 2018 'PMt' 08:55:28 PM*
%MOMM*%
%LPD*%
G01*
G04 APERTURE LIST*
%ADD10C,0.100000*%
%ADD11C,0.300000*%
%ADD12C,0.200000*%
%ADD13C,0.150000*%
G04 APERTURE END LIST*
D10*
D11*
X152171848Y-54351521D02*
X153100414Y-54354459D01*
X152598608Y-54924303D01*
X152812893Y-54924981D01*
X152955524Y-54996862D01*
X153026726Y-55068516D01*
X153097702Y-55211598D01*
X153096572Y-55568739D01*
X153024692Y-55711369D01*
X152953037Y-55782572D01*
X152809955Y-55853548D01*
X152381385Y-55852191D01*
X152238755Y-55780312D01*
X152167553Y-55708657D01*
X153671387Y-54499125D02*
X153743042Y-54427922D01*
X153886124Y-54356946D01*
X154243266Y-54358076D01*
X154385896Y-54429957D01*
X154457098Y-54501611D01*
X154528074Y-54644694D01*
X154527622Y-54787550D01*
X154455516Y-55001609D01*
X153595665Y-55856034D01*
X154524231Y-55858972D01*
X155167537Y-55718151D02*
X155238739Y-55789805D01*
X155167085Y-55861007D01*
X155095882Y-55789353D01*
X155167537Y-55718151D01*
X155167085Y-55861007D01*
X156667078Y-55865754D02*
X155809939Y-55863041D01*
X156238509Y-55864397D02*
X156243256Y-54364405D01*
X156099721Y-54578238D01*
X155956412Y-54720642D01*
X155813329Y-54791619D01*
X157600391Y-54368700D02*
X157743247Y-54369152D01*
X157885877Y-54441032D01*
X157957080Y-54512687D01*
X158028056Y-54655769D01*
X158098580Y-54941708D01*
X158097450Y-55298849D01*
X158025118Y-55584336D01*
X157953237Y-55726966D01*
X157881583Y-55798169D01*
X157738500Y-55869144D01*
X157595644Y-55868692D01*
X157453014Y-55796812D01*
X157381811Y-55725158D01*
X157310836Y-55582075D01*
X157240311Y-55296137D01*
X157241441Y-54938996D01*
X157313774Y-54653509D01*
X157385654Y-54510879D01*
X157457308Y-54439676D01*
X157600391Y-54368700D01*
X159386096Y-54374351D02*
X159100383Y-54373446D01*
X158957301Y-54444423D01*
X158885646Y-54515626D01*
X158742112Y-54729457D01*
X158669779Y-55014945D01*
X158667971Y-55586370D01*
X158738947Y-55729452D01*
X158810149Y-55801107D01*
X158952780Y-55872987D01*
X159238493Y-55873891D01*
X159381575Y-55802915D01*
X159453230Y-55731713D01*
X159525109Y-55589083D01*
X159526240Y-55231941D01*
X159455264Y-55088859D01*
X159384061Y-55017205D01*
X159241431Y-54945325D01*
X158955719Y-54944421D01*
X158812635Y-55015397D01*
X158740982Y-55086599D01*
X158669101Y-55229229D01*
X161309910Y-55880446D02*
X161313075Y-54880451D01*
X161312623Y-55023308D02*
X161384276Y-54952106D01*
X161527360Y-54881129D01*
X161741644Y-54881807D01*
X161884274Y-54953688D01*
X161955251Y-55096770D01*
X161952764Y-55882480D01*
X161955251Y-55096770D02*
X162027131Y-54954140D01*
X162170214Y-54883164D01*
X162384498Y-54883842D01*
X162527129Y-54955722D01*
X162598104Y-55098805D01*
X162595618Y-55884515D01*
X163309900Y-55886775D02*
X163313065Y-54886780D01*
X163312613Y-55029638D02*
X163384266Y-54958435D01*
X163527350Y-54887458D01*
X163741634Y-54888136D01*
X163884264Y-54960017D01*
X163955241Y-55103100D01*
X163952754Y-55888810D01*
X163955241Y-55103100D02*
X164027121Y-54960469D01*
X164170204Y-54889493D01*
X164384487Y-54890171D01*
X164527119Y-54962052D01*
X164598094Y-55105134D01*
X164595608Y-55890844D01*
X142397858Y-56492030D02*
X174503458Y-56593630D01*
X142392400Y-58216800D02*
X142406402Y-53792044D01*
X174498000Y-58318400D02*
X174512002Y-53893644D01*
X174503458Y-56593630D02*
X173375104Y-57176483D01*
X174503458Y-56593630D02*
X173378816Y-56003647D01*
X142397858Y-56492030D02*
X143522500Y-57082013D01*
X142397858Y-56492030D02*
X143526212Y-55909177D01*
X185421775Y-90477589D02*
X185425084Y-91477584D01*
X183922965Y-90839694D01*
X185429102Y-92691862D02*
X185428157Y-92406150D01*
X185356255Y-92263530D01*
X185284590Y-92192338D01*
X185069834Y-92050190D01*
X184783884Y-91979707D01*
X184212459Y-91981598D01*
X184069839Y-92053500D01*
X183998647Y-92125163D01*
X183927692Y-92268257D01*
X183928637Y-92553969D01*
X184000538Y-92696589D01*
X184072203Y-92767782D01*
X184215295Y-92838736D01*
X184572436Y-92837555D01*
X184715056Y-92765654D01*
X184786247Y-92693989D01*
X184857203Y-92550897D01*
X184856258Y-92265184D01*
X184784357Y-92122564D01*
X184712693Y-92051372D01*
X184569600Y-91980416D01*
X184074566Y-93482063D02*
X184003374Y-93553727D01*
X183931710Y-93482535D01*
X184002901Y-93410870D01*
X184074566Y-93482063D01*
X183931710Y-93482535D01*
X185433593Y-94048998D02*
X185436902Y-95048992D01*
X183934783Y-94411102D01*
X185441156Y-96334699D02*
X185438793Y-95620417D01*
X184724274Y-95551352D01*
X184795938Y-95622544D01*
X184867840Y-95765164D01*
X184869021Y-96122305D01*
X184798065Y-96265398D01*
X184726874Y-96337063D01*
X184584254Y-96408963D01*
X184227113Y-96410145D01*
X184084021Y-96339190D01*
X184012356Y-96267998D01*
X183940455Y-96125378D01*
X183939274Y-95768237D01*
X184010229Y-95625144D01*
X184081421Y-95553479D01*
X183943765Y-97125371D02*
X183944710Y-97411085D01*
X184016610Y-97553705D01*
X184088275Y-97624896D01*
X184303032Y-97767044D01*
X184588982Y-97837526D01*
X185160406Y-97835635D01*
X185303026Y-97763735D01*
X185374219Y-97692070D01*
X185445174Y-97548978D01*
X185444229Y-97263265D01*
X185372328Y-97120644D01*
X185300663Y-97049453D01*
X185157570Y-96978497D01*
X184800429Y-96979679D01*
X184657809Y-97051580D01*
X184586618Y-97123244D01*
X184515662Y-97266338D01*
X184516608Y-97552050D01*
X184588509Y-97694670D01*
X184660173Y-97765862D01*
X184803265Y-97836817D01*
X183952037Y-99625358D02*
X184952032Y-99622049D01*
X184809174Y-99622521D02*
X184880839Y-99693713D01*
X184952741Y-99836334D01*
X184953450Y-100050617D01*
X184882494Y-100193710D01*
X184739874Y-100265611D01*
X183954164Y-100268211D01*
X184739874Y-100265611D02*
X184882967Y-100336567D01*
X184954868Y-100479187D01*
X184955577Y-100693471D01*
X184884621Y-100836564D01*
X184742001Y-100908465D01*
X183956292Y-100911065D01*
X183958655Y-101625347D02*
X184958650Y-101622038D01*
X184815793Y-101622511D02*
X184887458Y-101693702D01*
X184959359Y-101836323D01*
X184960068Y-102050606D01*
X184889112Y-102193699D01*
X184746492Y-102265600D01*
X183960782Y-102268200D01*
X184746492Y-102265600D02*
X184889585Y-102336556D01*
X184961486Y-102479176D01*
X184962195Y-102693460D01*
X184891239Y-102836553D01*
X184748619Y-102908454D01*
X183962910Y-102911054D01*
X183144158Y-58391053D02*
X183398158Y-135149853D01*
X174396400Y-58420000D02*
X185844143Y-58382119D01*
X174650400Y-135178800D02*
X186098143Y-135140919D01*
X183398158Y-135149853D02*
X182808013Y-134025296D01*
X183398158Y-135149853D02*
X183980848Y-134021415D01*
X183144158Y-58391053D02*
X182561468Y-59519491D01*
X183144158Y-58391053D02*
X183734303Y-59515610D01*
D12*
X133799772Y-128362971D02*
X133514058Y-128362971D01*
X133371201Y-128434400D01*
X133299772Y-128505829D01*
X133156915Y-128720114D01*
X133085486Y-129005829D01*
X133085486Y-129577257D01*
X133156915Y-129720114D01*
X133228343Y-129791543D01*
X133371201Y-129862971D01*
X133656915Y-129862971D01*
X133799772Y-129791543D01*
X133871201Y-129720114D01*
X133942629Y-129577257D01*
X133942629Y-129220114D01*
X133871201Y-129077257D01*
X133799772Y-129005829D01*
X133656915Y-128934400D01*
X133371201Y-128934400D01*
X133228343Y-129005829D01*
X133156915Y-129077257D01*
X133085486Y-129220114D01*
X134585486Y-129720114D02*
X134656914Y-129791543D01*
X134585486Y-129862971D01*
X134514057Y-129791543D01*
X134585486Y-129720114D01*
X134585486Y-129862971D01*
X135585486Y-128362971D02*
X135728343Y-128362971D01*
X135871200Y-128434400D01*
X135942629Y-128505829D01*
X136014058Y-128648686D01*
X136085486Y-128934400D01*
X136085486Y-129291543D01*
X136014058Y-129577257D01*
X135942629Y-129720114D01*
X135871200Y-129791543D01*
X135728343Y-129862971D01*
X135585486Y-129862971D01*
X135442629Y-129791543D01*
X135371200Y-129720114D01*
X135299772Y-129577257D01*
X135228343Y-129291543D01*
X135228343Y-128934400D01*
X135299772Y-128648686D01*
X135371200Y-128505829D01*
X135442629Y-128434400D01*
X135585486Y-128362971D01*
X137371200Y-128862971D02*
X137371200Y-129862971D01*
X137014057Y-128291543D02*
X136656914Y-129362971D01*
X137585486Y-129362971D01*
X139299771Y-129862971D02*
X139299771Y-128862971D01*
X139299771Y-129005829D02*
X139371199Y-128934400D01*
X139514057Y-128862971D01*
X139728342Y-128862971D01*
X139871199Y-128934400D01*
X139942628Y-129077257D01*
X139942628Y-129862971D01*
X139942628Y-129077257D02*
X140014057Y-128934400D01*
X140156914Y-128862971D01*
X140371199Y-128862971D01*
X140514057Y-128934400D01*
X140585485Y-129077257D01*
X140585485Y-129862971D01*
X141299771Y-129862971D02*
X141299771Y-128862971D01*
X141299771Y-129005829D02*
X141371199Y-128934400D01*
X141514057Y-128862971D01*
X141728342Y-128862971D01*
X141871199Y-128934400D01*
X141942628Y-129077257D01*
X141942628Y-129862971D01*
X141942628Y-129077257D02*
X142014057Y-128934400D01*
X142156914Y-128862971D01*
X142371199Y-128862971D01*
X142514057Y-128934400D01*
X142585485Y-129077257D01*
X142585485Y-129862971D01*
X149758400Y-129336800D02*
X143764000Y-129336800D01*
X149758400Y-128371600D02*
X149758400Y-132036800D01*
X143764000Y-128371600D02*
X143764000Y-132036800D01*
X143764000Y-129336800D02*
X144890504Y-128750379D01*
X143764000Y-129336800D02*
X144890504Y-129923221D01*
X149758400Y-129336800D02*
X148631896Y-128750379D01*
X149758400Y-129336800D02*
X148631896Y-129923221D01*
X143713200Y-122326400D02*
X143764000Y-131572000D01*
X129502332Y-140552234D02*
X129573638Y-140480682D01*
X129716371Y-140409006D01*
X130073514Y-140408389D01*
X130216494Y-140479572D01*
X130288046Y-140550877D01*
X130359721Y-140693611D01*
X130359967Y-140836467D01*
X130288910Y-141050876D01*
X129433248Y-141909497D01*
X130361818Y-141907894D01*
X131076102Y-141906660D02*
X131361816Y-141906167D01*
X131504550Y-141834492D01*
X131575854Y-141762940D01*
X131718342Y-141548408D01*
X131789276Y-141262570D01*
X131788290Y-140691143D01*
X131716615Y-140548410D01*
X131645063Y-140477104D01*
X131502083Y-140405922D01*
X131216369Y-140406416D01*
X131073635Y-140478091D01*
X131002330Y-140549643D01*
X130931148Y-140692624D01*
X130931765Y-141049766D01*
X131003440Y-141192500D01*
X131074992Y-141263804D01*
X131217973Y-141334986D01*
X131503686Y-141334493D01*
X131646420Y-141262817D01*
X131717725Y-141191266D01*
X131788906Y-141048286D01*
X132432996Y-141761459D02*
X132504547Y-141832765D01*
X132433243Y-141904316D01*
X132361691Y-141833012D01*
X132432996Y-141761459D01*
X132433243Y-141904316D01*
X133788657Y-140901974D02*
X133790384Y-141901972D01*
X133430527Y-140331163D02*
X133075235Y-141403207D01*
X134003806Y-141401603D01*
X135361809Y-141899258D02*
X134504668Y-141900739D01*
X134933239Y-141899998D02*
X134930648Y-140400001D01*
X134788162Y-140614533D01*
X134645551Y-140757637D01*
X134502817Y-140829312D01*
X137147521Y-141896174D02*
X137145794Y-140896176D01*
X137146040Y-141039033D02*
X137217345Y-140967481D01*
X137360079Y-140895805D01*
X137574364Y-140895435D01*
X137717344Y-140966617D01*
X137789020Y-141109351D01*
X137790377Y-141895064D01*
X137789020Y-141109351D02*
X137860202Y-140966371D01*
X138002935Y-140894695D01*
X138217220Y-140894325D01*
X138360201Y-140965507D01*
X138431876Y-141108241D01*
X138433233Y-141893953D01*
X139147518Y-141892720D02*
X139145791Y-140892721D01*
X139146037Y-141035579D02*
X139217342Y-140964027D01*
X139360076Y-140892351D01*
X139574361Y-140891981D01*
X139717341Y-140963163D01*
X139789017Y-141105897D01*
X139790374Y-141891610D01*
X139789017Y-141105897D02*
X139860199Y-140962917D01*
X140002932Y-140891241D01*
X140217217Y-140890871D01*
X140360198Y-140962053D01*
X140431873Y-141104786D01*
X140433230Y-141890499D01*
X120294564Y-139896707D02*
X149707764Y-139845907D01*
X120294400Y-139801600D02*
X120299227Y-142596703D01*
X149707600Y-139750800D02*
X149712427Y-142545903D01*
X149707764Y-139845907D02*
X148582275Y-140434272D01*
X149707764Y-139845907D02*
X148580249Y-139261433D01*
X120294564Y-139896707D02*
X121422079Y-140481181D01*
X120294564Y-139896707D02*
X121420053Y-139308342D01*
X125382477Y-135721507D02*
X125379999Y-136578646D01*
X125381238Y-136150076D02*
X123881244Y-136145741D01*
X124095116Y-136289216D01*
X124237560Y-136432487D01*
X124308576Y-136575550D01*
X123883928Y-135217174D02*
X123886818Y-134217178D01*
X125384954Y-134864367D01*
X125245607Y-133649675D02*
X125317242Y-133578453D01*
X125388463Y-133650087D01*
X125316829Y-133721310D01*
X125245607Y-133649675D01*
X125388463Y-133650087D01*
X123892598Y-132217186D02*
X123890534Y-132931469D01*
X124604611Y-133004962D01*
X124533389Y-132933327D01*
X124462373Y-132790264D01*
X124463406Y-132433123D01*
X124535247Y-132290473D01*
X124606881Y-132219251D01*
X124749944Y-132148236D01*
X125107086Y-132149268D01*
X125249736Y-132221109D01*
X125320958Y-132292744D01*
X125391973Y-132435807D01*
X125390941Y-132792948D01*
X125319100Y-132935598D01*
X125247465Y-133006820D01*
X124538137Y-131290477D02*
X124466296Y-131433128D01*
X124394661Y-131504349D01*
X124251598Y-131575365D01*
X124180170Y-131575159D01*
X124037520Y-131503317D01*
X123966298Y-131431683D01*
X123895282Y-131288619D01*
X123896108Y-131002906D01*
X123967949Y-130860256D01*
X124039585Y-130789034D01*
X124182647Y-130718019D01*
X124254075Y-130718226D01*
X124396725Y-130790066D01*
X124467947Y-130861701D01*
X124538963Y-131004764D01*
X124538137Y-131290477D01*
X124609152Y-131433541D01*
X124680375Y-131505175D01*
X124823024Y-131577017D01*
X125108737Y-131577842D01*
X125251800Y-131506827D01*
X125323435Y-131435605D01*
X125395276Y-131292954D01*
X125396102Y-131007241D01*
X125325087Y-130864179D01*
X125253865Y-130792543D01*
X125111215Y-130720703D01*
X124825502Y-130719877D01*
X124682439Y-130790892D01*
X124610804Y-130862114D01*
X124538963Y-131004764D01*
X125402088Y-128935822D02*
X124402093Y-128932932D01*
X124544950Y-128933345D02*
X124473728Y-128861711D01*
X124402712Y-128718647D01*
X124403331Y-128504363D01*
X124475173Y-128361713D01*
X124618236Y-128290697D01*
X125403946Y-128292968D01*
X124618236Y-128290697D02*
X124475586Y-128218855D01*
X124404570Y-128075793D01*
X124405189Y-127861508D01*
X124477031Y-127718857D01*
X124620094Y-127647843D01*
X125405804Y-127650113D01*
X125407869Y-126935830D02*
X124407873Y-126932940D01*
X124550730Y-126933353D02*
X124479508Y-126861719D01*
X124408492Y-126718655D01*
X124409112Y-126504371D01*
X124480953Y-126361721D01*
X124624016Y-126290705D01*
X125409727Y-126292976D01*
X124624016Y-126290705D02*
X124481366Y-126218864D01*
X124410350Y-126075801D01*
X124410969Y-125861517D01*
X124482811Y-125718866D01*
X124625874Y-125647851D01*
X125411585Y-125650122D01*
X123392733Y-122284408D02*
X123341933Y-139861208D01*
X120345200Y-122275600D02*
X126092722Y-122292211D01*
X120294400Y-139852400D02*
X126041922Y-139869011D01*
X123341933Y-139861208D02*
X122758770Y-138733014D01*
X123341933Y-139861208D02*
X123931607Y-138736404D01*
X123392733Y-122284408D02*
X122803059Y-123409212D01*
X123392733Y-122284408D02*
X123975896Y-123412602D01*
X109456912Y-151371377D02*
X108599777Y-151375071D01*
X109028345Y-151373224D02*
X109021880Y-149873238D01*
X108879947Y-150088138D01*
X108737707Y-150231609D01*
X108595159Y-150303653D01*
X110885470Y-151365219D02*
X110028335Y-151368914D01*
X110456903Y-151367067D02*
X110450437Y-149867080D01*
X110308505Y-150081980D01*
X110166264Y-150225452D01*
X110023716Y-150297496D01*
X111527705Y-151219593D02*
X111599440Y-151290713D01*
X111528321Y-151362448D01*
X111456585Y-151291329D01*
X111527705Y-151219593D01*
X111528321Y-151362448D01*
X112093279Y-149859999D02*
X113093270Y-149855689D01*
X112456884Y-151358446D01*
X113742585Y-151352904D02*
X114028298Y-151351673D01*
X114170845Y-151279629D01*
X114241965Y-151207893D01*
X114383898Y-150992994D01*
X114454094Y-150706974D01*
X114451631Y-150135552D01*
X114379587Y-149993004D01*
X114307851Y-149921883D01*
X114164688Y-149851071D01*
X113878976Y-149852302D01*
X113736428Y-149924346D01*
X113665308Y-149996083D01*
X113594496Y-150139246D01*
X113596035Y-150496386D01*
X113668079Y-150638934D01*
X113739814Y-150710053D01*
X113882979Y-150780866D01*
X114168690Y-150779634D01*
X114311238Y-150707590D01*
X114382358Y-150635855D01*
X114453170Y-150492691D01*
X116242562Y-151342128D02*
X116238252Y-150342138D01*
X116238867Y-150484994D02*
X116309987Y-150413258D01*
X116452536Y-150341214D01*
X116666819Y-150340290D01*
X116809982Y-150411103D01*
X116882026Y-150553651D01*
X116885413Y-151339357D01*
X116882026Y-150553651D02*
X116952839Y-150410487D01*
X117095387Y-150338443D01*
X117309670Y-150337519D01*
X117452834Y-150408332D01*
X117524877Y-150550880D01*
X117528264Y-151336587D01*
X118242543Y-151333508D02*
X118238233Y-150333517D01*
X118238849Y-150476374D02*
X118309968Y-150404637D01*
X118452517Y-150332593D01*
X118666800Y-150331670D01*
X118809964Y-150402482D01*
X118882008Y-150545030D01*
X118885394Y-151330737D01*
X118882008Y-150545030D02*
X118952820Y-150401867D01*
X119095368Y-150329822D01*
X119309651Y-150328899D01*
X119452816Y-150399711D01*
X119524859Y-150542259D01*
X119528245Y-151327966D01*
X108539228Y-146911716D02*
X120324828Y-146860916D01*
X108508800Y-139852400D02*
X108550866Y-149611691D01*
X120294400Y-139801600D02*
X120336466Y-149560891D01*
X120324828Y-146860916D02*
X119200862Y-147452187D01*
X120324828Y-146860916D02*
X119195807Y-146279356D01*
X108539228Y-146911716D02*
X109668249Y-147493276D01*
X108539228Y-146911716D02*
X109663194Y-146320445D01*
X104348758Y-111093572D02*
X103348759Y-111094632D01*
X104919808Y-110735824D02*
X103848002Y-110379816D01*
X103848985Y-111308388D01*
X104849439Y-111735899D02*
X104850498Y-112735899D01*
X103349818Y-112094631D01*
X103493961Y-113308764D02*
X103422608Y-113380268D01*
X103351104Y-113308915D01*
X103422457Y-113237411D01*
X103493961Y-113308764D01*
X103351104Y-113308915D01*
X103351937Y-114094629D02*
X103352239Y-114380344D01*
X103423819Y-114523125D01*
X103495323Y-114594477D01*
X103709760Y-114737108D01*
X103995550Y-114808233D01*
X104566978Y-114807628D01*
X104709759Y-114736049D01*
X104781112Y-114664544D01*
X104852390Y-114521612D01*
X104852087Y-114235898D01*
X104780507Y-114093116D01*
X104709002Y-114021763D01*
X104566070Y-113950486D01*
X104208927Y-113950864D01*
X104066146Y-114022444D01*
X103994793Y-114093948D01*
X103923516Y-114236881D01*
X103923818Y-114522595D01*
X103995399Y-114665377D01*
X104066902Y-114736730D01*
X104209835Y-114808006D01*
X104854055Y-116093039D02*
X104853752Y-115807325D01*
X104782172Y-115664544D01*
X104710667Y-115593190D01*
X104496231Y-115450560D01*
X104210440Y-115379434D01*
X103639013Y-115380039D01*
X103496231Y-115451620D01*
X103424878Y-115523123D01*
X103353601Y-115666057D01*
X103353904Y-115951771D01*
X103425483Y-116094552D01*
X103496988Y-116165905D01*
X103639921Y-116237182D01*
X103997063Y-116236804D01*
X104139845Y-116165224D01*
X104211197Y-116093720D01*
X104282475Y-115950787D01*
X104282172Y-115665073D01*
X104210592Y-115522291D01*
X104139088Y-115450939D01*
X103996155Y-115379661D01*
X103356098Y-118023198D02*
X104356098Y-118022138D01*
X104213240Y-118022290D02*
X104284745Y-118093642D01*
X104356325Y-118236424D01*
X104356552Y-118450709D01*
X104285274Y-118593642D01*
X104142493Y-118665222D01*
X103356779Y-118666054D01*
X104142493Y-118665222D02*
X104285425Y-118736500D01*
X104357006Y-118879281D01*
X104357233Y-119093566D01*
X104285955Y-119236499D01*
X104143174Y-119308079D01*
X103357460Y-119308911D01*
X103358217Y-120023197D02*
X104358216Y-120022137D01*
X104215359Y-120022289D02*
X104286863Y-120093641D01*
X104358443Y-120236423D01*
X104358670Y-120450708D01*
X104287393Y-120593641D01*
X104144612Y-120665221D01*
X103358898Y-120666053D01*
X104144612Y-120665221D02*
X104287544Y-120736498D01*
X104359124Y-120879280D01*
X104359351Y-121093565D01*
X104288074Y-121236498D01*
X104145293Y-121308077D01*
X103359579Y-121308910D01*
X105407798Y-139855793D02*
X105356998Y-91900593D01*
X108610400Y-139852400D02*
X102707800Y-139858653D01*
X108559600Y-91897200D02*
X102657000Y-91903453D01*
X105356998Y-91900593D02*
X105944612Y-93026475D01*
X105356998Y-91900593D02*
X104771771Y-93027717D01*
X105407798Y-139855793D02*
X105993025Y-138728669D01*
X105407798Y-139855793D02*
X104820184Y-138729911D01*
X126204068Y-89731830D02*
X126275667Y-89660571D01*
X126418693Y-89589481D01*
X126775835Y-89590330D01*
X126918522Y-89662098D01*
X126989781Y-89733696D01*
X127060870Y-89876722D01*
X127060530Y-90019579D01*
X126988593Y-90233695D01*
X126129417Y-91088798D01*
X127057985Y-91091004D01*
X128486552Y-91094397D02*
X127629412Y-91092361D01*
X128057982Y-91093379D02*
X128061545Y-89593383D01*
X127918180Y-89807330D01*
X127774983Y-89949847D01*
X127631957Y-90020936D01*
X129129747Y-90953068D02*
X129201005Y-91024666D01*
X129129407Y-91095924D01*
X129058148Y-91024327D01*
X129129747Y-90953068D01*
X129129407Y-91095924D01*
X129704398Y-89597286D02*
X130632966Y-89599491D01*
X130131610Y-90169731D01*
X130345896Y-90170240D01*
X130488583Y-90242008D01*
X130559842Y-90313606D01*
X130630930Y-90456632D01*
X130630082Y-90813774D01*
X130558315Y-90956461D01*
X130486716Y-91027720D01*
X130343690Y-91098808D01*
X129915119Y-91097790D01*
X129772432Y-91026023D01*
X129701174Y-90954425D01*
X131343686Y-91101184D02*
X131629400Y-91101862D01*
X131772427Y-91030774D01*
X131844024Y-90959515D01*
X131987391Y-90745570D01*
X132059497Y-90460025D01*
X132060854Y-89888599D01*
X131989766Y-89745573D01*
X131918507Y-89673974D01*
X131775820Y-89602206D01*
X131490107Y-89601527D01*
X131347079Y-89672617D01*
X131275482Y-89743876D01*
X131203714Y-89886563D01*
X131202866Y-90243705D01*
X131273955Y-90386731D01*
X131345213Y-90458329D01*
X131487901Y-90530097D01*
X131773614Y-90530775D01*
X131916641Y-90459686D01*
X131988239Y-90388428D01*
X132060006Y-90245741D01*
X133843679Y-91107122D02*
X133846054Y-90107125D01*
X133845715Y-90249982D02*
X133917313Y-90178723D01*
X134060340Y-90107634D01*
X134274624Y-90108143D01*
X134417311Y-90179911D01*
X134488401Y-90322937D01*
X134486534Y-91108649D01*
X134488401Y-90322937D02*
X134560169Y-90180250D01*
X134703195Y-90109161D01*
X134917479Y-90109670D01*
X135060167Y-90181438D01*
X135131256Y-90324464D01*
X135129390Y-91110176D01*
X135843674Y-91111873D02*
X135846049Y-90111875D01*
X135845709Y-90254733D02*
X135917307Y-90183474D01*
X136060334Y-90112384D01*
X136274619Y-90112893D01*
X136417306Y-90184661D01*
X136488395Y-90327688D01*
X136486529Y-91113400D01*
X136488395Y-90327688D02*
X136560163Y-90185001D01*
X136703189Y-90113911D01*
X136917474Y-90114420D01*
X137060162Y-90186188D01*
X137131250Y-90329215D01*
X137129384Y-91114927D01*
X121005834Y-91748059D02*
X142392634Y-91798859D01*
X121005600Y-91846400D02*
X121012247Y-89048067D01*
X142392400Y-91897200D02*
X142399047Y-89098867D01*
X142392634Y-91798859D02*
X141264741Y-92382602D01*
X142392634Y-91798859D02*
X141267526Y-91209764D01*
X121005834Y-91748059D02*
X122130942Y-92337154D01*
X121005834Y-91748059D02*
X122133727Y-91164316D01*
X97261944Y-90594571D02*
X96404801Y-90594571D01*
X96833373Y-90594571D02*
X96833373Y-89094571D01*
X96690516Y-89308857D01*
X96547658Y-89451714D01*
X96404801Y-89523143D01*
X97833372Y-89237429D02*
X97904801Y-89166000D01*
X98047658Y-89094571D01*
X98404801Y-89094571D01*
X98547658Y-89166000D01*
X98619087Y-89237429D01*
X98690515Y-89380286D01*
X98690515Y-89523143D01*
X98619087Y-89737429D01*
X97761944Y-90594571D01*
X98690515Y-90594571D01*
X99333372Y-90451714D02*
X99404800Y-90523143D01*
X99333372Y-90594571D01*
X99261943Y-90523143D01*
X99333372Y-90451714D01*
X99333372Y-90594571D01*
X100761944Y-89094571D02*
X100047658Y-89094571D01*
X99976229Y-89808857D01*
X100047658Y-89737429D01*
X100190515Y-89666000D01*
X100547658Y-89666000D01*
X100690515Y-89737429D01*
X100761944Y-89808857D01*
X100833372Y-89951714D01*
X100833372Y-90308857D01*
X100761944Y-90451714D01*
X100690515Y-90523143D01*
X100547658Y-90594571D01*
X100190515Y-90594571D01*
X100047658Y-90523143D01*
X99976229Y-90451714D01*
X101761943Y-89094571D02*
X101904800Y-89094571D01*
X102047657Y-89166000D01*
X102119086Y-89237429D01*
X102190515Y-89380286D01*
X102261943Y-89666000D01*
X102261943Y-90023143D01*
X102190515Y-90308857D01*
X102119086Y-90451714D01*
X102047657Y-90523143D01*
X101904800Y-90594571D01*
X101761943Y-90594571D01*
X101619086Y-90523143D01*
X101547657Y-90451714D01*
X101476229Y-90308857D01*
X101404800Y-90023143D01*
X101404800Y-89666000D01*
X101476229Y-89380286D01*
X101547657Y-89237429D01*
X101619086Y-89166000D01*
X101761943Y-89094571D01*
X104047657Y-90594571D02*
X104047657Y-89594571D01*
X104047657Y-89737429D02*
X104119085Y-89666000D01*
X104261943Y-89594571D01*
X104476228Y-89594571D01*
X104619085Y-89666000D01*
X104690514Y-89808857D01*
X104690514Y-90594571D01*
X104690514Y-89808857D02*
X104761943Y-89666000D01*
X104904800Y-89594571D01*
X105119085Y-89594571D01*
X105261943Y-89666000D01*
X105333371Y-89808857D01*
X105333371Y-90594571D01*
X106047657Y-90594571D02*
X106047657Y-89594571D01*
X106047657Y-89737429D02*
X106119085Y-89666000D01*
X106261943Y-89594571D01*
X106476228Y-89594571D01*
X106619085Y-89666000D01*
X106690514Y-89808857D01*
X106690514Y-90594571D01*
X106690514Y-89808857D02*
X106761943Y-89666000D01*
X106904800Y-89594571D01*
X107119085Y-89594571D01*
X107261943Y-89666000D01*
X107333371Y-89808857D01*
X107333371Y-90594571D01*
X108559600Y-90170000D02*
X121056400Y-90170000D01*
X108559600Y-91897200D02*
X108559600Y-87470000D01*
X121056400Y-91897200D02*
X121056400Y-87470000D01*
X121056400Y-90170000D02*
X119929896Y-90756421D01*
X121056400Y-90170000D02*
X119929896Y-89583579D01*
X108559600Y-90170000D02*
X109686104Y-90756421D01*
X108559600Y-90170000D02*
X109686104Y-89583579D01*
X136808601Y-143340171D02*
X136522888Y-143339511D01*
X136379866Y-143410610D01*
X136308272Y-143481874D01*
X136164921Y-143695828D01*
X136092832Y-143981377D01*
X136091512Y-144552804D01*
X136162611Y-144695825D01*
X136233874Y-144767419D01*
X136376567Y-144839177D01*
X136662280Y-144839837D01*
X136805302Y-144768739D01*
X136876895Y-144697475D01*
X136948653Y-144554783D01*
X136949478Y-144197641D01*
X136878380Y-144054620D01*
X136807116Y-143983027D01*
X136664425Y-143911268D01*
X136378711Y-143910608D01*
X136235689Y-143981707D01*
X136164096Y-144052970D01*
X136092337Y-144195662D01*
X138237168Y-143343470D02*
X137951455Y-143342810D01*
X137808433Y-143413909D01*
X137736839Y-143485173D01*
X137593488Y-143699127D01*
X137521399Y-143984677D01*
X137520080Y-144556103D01*
X137591178Y-144699125D01*
X137662441Y-144770718D01*
X137805134Y-144842476D01*
X138090847Y-144843136D01*
X138233869Y-144772038D01*
X138305463Y-144700774D01*
X138377220Y-144558083D01*
X138378045Y-144200941D01*
X138306947Y-144057919D01*
X138235683Y-143986326D01*
X138092992Y-143914568D01*
X137807278Y-143913908D01*
X137664256Y-143985007D01*
X137592663Y-144056269D01*
X137520904Y-144198961D01*
X139019746Y-144702424D02*
X139091008Y-144774018D01*
X139019416Y-144845281D01*
X138948152Y-144773688D01*
X139019746Y-144702424D01*
X139019416Y-144845281D01*
X140022877Y-143347594D02*
X140165734Y-143347924D01*
X140308426Y-143419683D01*
X140379689Y-143491276D01*
X140450788Y-143634298D01*
X140521556Y-143920176D01*
X140520731Y-144277318D01*
X140448644Y-144562867D01*
X140376885Y-144705558D01*
X140305291Y-144776822D01*
X140162270Y-144847920D01*
X140019413Y-144847590D01*
X139876721Y-144775832D01*
X139805458Y-144704239D01*
X139734360Y-144561217D01*
X139663591Y-144275339D01*
X139664416Y-143918197D01*
X139736504Y-143632648D01*
X139808262Y-143489957D01*
X139879856Y-143418693D01*
X140022877Y-143347594D01*
X141807432Y-143851717D02*
X141805122Y-144851714D01*
X141451609Y-143279465D02*
X141091993Y-144350066D01*
X142020562Y-144352210D01*
X143733688Y-144856168D02*
X143735998Y-143856171D01*
X143735668Y-143999028D02*
X143807260Y-143927764D01*
X143950283Y-143856666D01*
X144164567Y-143857160D01*
X144307259Y-143928919D01*
X144378358Y-144071941D01*
X144376543Y-144857653D01*
X144378358Y-144071941D02*
X144450117Y-143929249D01*
X144593138Y-143858150D01*
X144807423Y-143858645D01*
X144950115Y-143930404D01*
X145021213Y-144073425D01*
X145019399Y-144859137D01*
X145733683Y-144860787D02*
X145735992Y-143860790D01*
X145735662Y-144003647D02*
X145807255Y-143932383D01*
X145950278Y-143861285D01*
X146164562Y-143861779D01*
X146307254Y-143933538D01*
X146378353Y-144076560D01*
X146376538Y-144862272D01*
X146378353Y-144076560D02*
X146450111Y-143933868D01*
X146593133Y-143862769D01*
X146807417Y-143863264D01*
X146950110Y-143935023D01*
X147021208Y-144078044D01*
X147019393Y-144863756D01*
X174590122Y-142898854D02*
X108600922Y-142746454D01*
X174598800Y-139141200D02*
X174583886Y-145598847D01*
X108609600Y-138988800D02*
X108594686Y-145446447D01*
X108600922Y-142746454D02*
X109728777Y-142162636D01*
X108600922Y-142746454D02*
X109726068Y-143335475D01*
X174590122Y-142898854D02*
X173464976Y-142309833D01*
X174590122Y-142898854D02*
X173462267Y-143482672D01*
X156679001Y-137425029D02*
X156750430Y-137353600D01*
X156893287Y-137282171D01*
X157250430Y-137282171D01*
X157393287Y-137353600D01*
X157464716Y-137425029D01*
X157536144Y-137567886D01*
X157536144Y-137710743D01*
X157464716Y-137925029D01*
X156607573Y-138782171D01*
X157536144Y-138782171D01*
X158821858Y-137782171D02*
X158821858Y-138782171D01*
X158464715Y-137210743D02*
X158107572Y-138282171D01*
X159036144Y-138282171D01*
X159607572Y-138639314D02*
X159679000Y-138710743D01*
X159607572Y-138782171D01*
X159536143Y-138710743D01*
X159607572Y-138639314D01*
X159607572Y-138782171D01*
X160536144Y-137925029D02*
X160393286Y-137853600D01*
X160321858Y-137782171D01*
X160250429Y-137639314D01*
X160250429Y-137567886D01*
X160321858Y-137425029D01*
X160393286Y-137353600D01*
X160536144Y-137282171D01*
X160821858Y-137282171D01*
X160964715Y-137353600D01*
X161036144Y-137425029D01*
X161107572Y-137567886D01*
X161107572Y-137639314D01*
X161036144Y-137782171D01*
X160964715Y-137853600D01*
X160821858Y-137925029D01*
X160536144Y-137925029D01*
X160393286Y-137996457D01*
X160321858Y-138067886D01*
X160250429Y-138210743D01*
X160250429Y-138496457D01*
X160321858Y-138639314D01*
X160393286Y-138710743D01*
X160536144Y-138782171D01*
X160821858Y-138782171D01*
X160964715Y-138710743D01*
X161036144Y-138639314D01*
X161107572Y-138496457D01*
X161107572Y-138210743D01*
X161036144Y-138067886D01*
X160964715Y-137996457D01*
X160821858Y-137925029D01*
X162036143Y-137282171D02*
X162179000Y-137282171D01*
X162321857Y-137353600D01*
X162393286Y-137425029D01*
X162464715Y-137567886D01*
X162536143Y-137853600D01*
X162536143Y-138210743D01*
X162464715Y-138496457D01*
X162393286Y-138639314D01*
X162321857Y-138710743D01*
X162179000Y-138782171D01*
X162036143Y-138782171D01*
X161893286Y-138710743D01*
X161821857Y-138639314D01*
X161750429Y-138496457D01*
X161679000Y-138210743D01*
X161679000Y-137853600D01*
X161750429Y-137567886D01*
X161821857Y-137425029D01*
X161893286Y-137353600D01*
X162036143Y-137282171D01*
X164321857Y-138782171D02*
X164321857Y-137782171D01*
X164321857Y-137925029D02*
X164393285Y-137853600D01*
X164536143Y-137782171D01*
X164750428Y-137782171D01*
X164893285Y-137853600D01*
X164964714Y-137996457D01*
X164964714Y-138782171D01*
X164964714Y-137996457D02*
X165036143Y-137853600D01*
X165179000Y-137782171D01*
X165393285Y-137782171D01*
X165536143Y-137853600D01*
X165607571Y-137996457D01*
X165607571Y-138782171D01*
X166321857Y-138782171D02*
X166321857Y-137782171D01*
X166321857Y-137925029D02*
X166393285Y-137853600D01*
X166536143Y-137782171D01*
X166750428Y-137782171D01*
X166893285Y-137853600D01*
X166964714Y-137996457D01*
X166964714Y-138782171D01*
X166964714Y-137996457D02*
X167036143Y-137853600D01*
X167179000Y-137782171D01*
X167393285Y-137782171D01*
X167536143Y-137853600D01*
X167607571Y-137996457D01*
X167607571Y-138782171D01*
X174599600Y-136753600D02*
X149758400Y-136753600D01*
X174599600Y-135331200D02*
X174599600Y-139453600D01*
X149758400Y-135331200D02*
X149758400Y-139453600D01*
X149758400Y-136753600D02*
X150884904Y-136167179D01*
X149758400Y-136753600D02*
X150884904Y-137340021D01*
X174599600Y-136753600D02*
X173473096Y-136167179D01*
X174599600Y-136753600D02*
X173473096Y-137340021D01*
D13*
X174992000Y-131238000D02*
X174992000Y-121238000D01*
D10*
X175333429Y-122060857D02*
X174733429Y-122060857D01*
X174733429Y-121832285D01*
X174762000Y-121775143D01*
X174790571Y-121746571D01*
X174847714Y-121718000D01*
X174933429Y-121718000D01*
X174990571Y-121746571D01*
X175019143Y-121775143D01*
X175047714Y-121832285D01*
X175047714Y-122060857D01*
X175276286Y-121118000D02*
X175304857Y-121146571D01*
X175333429Y-121232285D01*
X175333429Y-121289428D01*
X175304857Y-121375143D01*
X175247714Y-121432285D01*
X175190571Y-121460857D01*
X175076286Y-121489428D01*
X174990571Y-121489428D01*
X174876286Y-121460857D01*
X174819143Y-121432285D01*
X174762000Y-121375143D01*
X174733429Y-121289428D01*
X174733429Y-121232285D01*
X174762000Y-121146571D01*
X174790571Y-121118000D01*
X175019143Y-120660857D02*
X175047714Y-120575143D01*
X175076286Y-120546571D01*
X175133429Y-120518000D01*
X175219143Y-120518000D01*
X175276286Y-120546571D01*
X175304857Y-120575143D01*
X175333429Y-120632285D01*
X175333429Y-120860857D01*
X174733429Y-120860857D01*
X174733429Y-120660857D01*
X174762000Y-120603714D01*
X174790571Y-120575143D01*
X174847714Y-120546571D01*
X174904857Y-120546571D01*
X174962000Y-120575143D01*
X174990571Y-120603714D01*
X175019143Y-120660857D01*
X175019143Y-120860857D01*
X175019143Y-119603714D02*
X175019143Y-119803714D01*
X175333429Y-119803714D02*
X174733429Y-119803714D01*
X174733429Y-119518000D01*
X175333429Y-119289428D02*
X174933429Y-119289428D01*
X175047714Y-119289428D02*
X174990571Y-119260856D01*
X174962000Y-119232285D01*
X174933429Y-119175142D01*
X174933429Y-119117999D01*
X175333429Y-118832285D02*
X175304857Y-118889427D01*
X175276286Y-118917999D01*
X175219143Y-118946570D01*
X175047714Y-118946570D01*
X174990571Y-118917999D01*
X174962000Y-118889427D01*
X174933429Y-118832285D01*
X174933429Y-118746570D01*
X174962000Y-118689427D01*
X174990571Y-118660856D01*
X175047714Y-118632285D01*
X175219143Y-118632285D01*
X175276286Y-118660856D01*
X175304857Y-118689427D01*
X175333429Y-118746570D01*
X175333429Y-118832285D01*
X174933429Y-118375142D02*
X175333429Y-118375142D01*
X174990571Y-118375142D02*
X174962000Y-118346570D01*
X174933429Y-118289428D01*
X174933429Y-118203713D01*
X174962000Y-118146570D01*
X175019143Y-118117999D01*
X175333429Y-118117999D01*
X174933429Y-117917999D02*
X174933429Y-117689428D01*
X174733429Y-117832285D02*
X175247714Y-117832285D01*
X175304857Y-117803713D01*
X175333429Y-117746571D01*
X175333429Y-117689428D01*
X175019143Y-117032285D02*
X175019143Y-116832285D01*
X175333429Y-116746571D02*
X175333429Y-117032285D01*
X174733429Y-117032285D01*
X174733429Y-116746571D01*
X175333429Y-116232285D02*
X174733429Y-116232285D01*
X175304857Y-116232285D02*
X175333429Y-116289428D01*
X175333429Y-116403714D01*
X175304857Y-116460856D01*
X175276286Y-116489428D01*
X175219143Y-116517999D01*
X175047714Y-116517999D01*
X174990571Y-116489428D01*
X174962000Y-116460856D01*
X174933429Y-116403714D01*
X174933429Y-116289428D01*
X174962000Y-116232285D01*
X174933429Y-115689428D02*
X175419143Y-115689428D01*
X175476286Y-115717999D01*
X175504857Y-115746571D01*
X175533429Y-115803714D01*
X175533429Y-115889428D01*
X175504857Y-115946571D01*
X175304857Y-115689428D02*
X175333429Y-115746571D01*
X175333429Y-115860857D01*
X175304857Y-115917999D01*
X175276286Y-115946571D01*
X175219143Y-115975142D01*
X175047714Y-115975142D01*
X174990571Y-115946571D01*
X174962000Y-115917999D01*
X174933429Y-115860857D01*
X174933429Y-115746571D01*
X174962000Y-115689428D01*
X175304857Y-115175142D02*
X175333429Y-115232285D01*
X175333429Y-115346571D01*
X175304857Y-115403714D01*
X175247714Y-115432285D01*
X175019143Y-115432285D01*
X174962000Y-115403714D01*
X174933429Y-115346571D01*
X174933429Y-115232285D01*
X174962000Y-115175142D01*
X175019143Y-115146571D01*
X175076286Y-115146571D01*
X175133429Y-115432285D01*
M02*
