%TF.GenerationSoftware,KiCad,Pcbnew,(6.0.1-0)*%
%TF.CreationDate,2022-04-09T17:35:34-06:00*%
%TF.ProjectId,HAT_CM4_183,4841545f-434d-4345-9f31-38332e6b6963,1.8.3*%
%TF.SameCoordinates,Original*%
%TF.FileFunction,Copper,L1,Top*%
%TF.FilePolarity,Positive*%
%FSLAX46Y46*%
G04 Gerber Fmt 4.6, Leading zero omitted, Abs format (unit mm)*
G04 Created by KiCad (PCBNEW (6.0.1-0)) date 2022-04-09 17:35:34*
%MOMM*%
%LPD*%
G01*
G04 APERTURE LIST*
G04 Aperture macros list*
%AMRoundRect*
0 Rectangle with rounded corners*
0 $1 Rounding radius*
0 $2 $3 $4 $5 $6 $7 $8 $9 X,Y pos of 4 corners*
0 Add a 4 corners polygon primitive as box body*
4,1,4,$2,$3,$4,$5,$6,$7,$8,$9,$2,$3,0*
0 Add four circle primitives for the rounded corners*
1,1,$1+$1,$2,$3*
1,1,$1+$1,$4,$5*
1,1,$1+$1,$6,$7*
1,1,$1+$1,$8,$9*
0 Add four rect primitives between the rounded corners*
20,1,$1+$1,$2,$3,$4,$5,0*
20,1,$1+$1,$4,$5,$6,$7,0*
20,1,$1+$1,$6,$7,$8,$9,0*
20,1,$1+$1,$8,$9,$2,$3,0*%
%AMFreePoly0*
4,1,9,0.400000,-0.835000,-0.400000,-0.835000,-0.400000,-0.185000,-1.050000,-0.185000,-1.050000,0.185000,-0.400000,0.185000,-0.400000,0.835000,0.400000,0.835000,0.400000,-0.835000,0.400000,-0.835000,$1*%
G04 Aperture macros list end*
%TA.AperFunction,SMDPad,CuDef*%
%ADD10RoundRect,0.200000X-0.200000X-0.275000X0.200000X-0.275000X0.200000X0.275000X-0.200000X0.275000X0*%
%TD*%
%TA.AperFunction,SMDPad,CuDef*%
%ADD11RoundRect,0.225000X-0.225000X-0.250000X0.225000X-0.250000X0.225000X0.250000X-0.225000X0.250000X0*%
%TD*%
%TA.AperFunction,ComponentPad*%
%ADD12C,1.500000*%
%TD*%
%TA.AperFunction,SMDPad,CuDef*%
%ADD13RoundRect,0.200000X0.275000X-0.200000X0.275000X0.200000X-0.275000X0.200000X-0.275000X-0.200000X0*%
%TD*%
%TA.AperFunction,SMDPad,CuDef*%
%ADD14RoundRect,0.225000X0.225000X0.250000X-0.225000X0.250000X-0.225000X-0.250000X0.225000X-0.250000X0*%
%TD*%
%TA.AperFunction,SMDPad,CuDef*%
%ADD15RoundRect,0.225000X-0.250000X0.225000X-0.250000X-0.225000X0.250000X-0.225000X0.250000X0.225000X0*%
%TD*%
%TA.AperFunction,SMDPad,CuDef*%
%ADD16RoundRect,0.200000X0.200000X0.275000X-0.200000X0.275000X-0.200000X-0.275000X0.200000X-0.275000X0*%
%TD*%
%TA.AperFunction,SMDPad,CuDef*%
%ADD17R,0.450000X0.370000*%
%TD*%
%TA.AperFunction,SMDPad,CuDef*%
%ADD18FreePoly0,0.000000*%
%TD*%
%TA.AperFunction,SMDPad,CuDef*%
%ADD19RoundRect,0.062500X-0.350000X-0.062500X0.350000X-0.062500X0.350000X0.062500X-0.350000X0.062500X0*%
%TD*%
%TA.AperFunction,SMDPad,CuDef*%
%ADD20RoundRect,0.062500X-0.062500X-0.350000X0.062500X-0.350000X0.062500X0.350000X-0.062500X0.350000X0*%
%TD*%
%TA.AperFunction,SMDPad,CuDef*%
%ADD21R,3.700000X3.700000*%
%TD*%
%TA.AperFunction,ComponentPad*%
%ADD22RoundRect,0.500000X-2.300000X-0.250000X2.300000X-0.250000X2.300000X0.250000X-2.300000X0.250000X0*%
%TD*%
%TA.AperFunction,SMDPad,CuDef*%
%ADD23R,0.700000X1.100000*%
%TD*%
%TA.AperFunction,SMDPad,CuDef*%
%ADD24R,0.900000X0.930000*%
%TD*%
%TA.AperFunction,SMDPad,CuDef*%
%ADD25R,1.050000X0.780000*%
%TD*%
%TA.AperFunction,SMDPad,CuDef*%
%ADD26R,0.700000X3.330000*%
%TD*%
%TA.AperFunction,SMDPad,CuDef*%
%ADD27R,1.140000X1.830000*%
%TD*%
%TA.AperFunction,SMDPad,CuDef*%
%ADD28R,0.860000X2.800000*%
%TD*%
%TA.AperFunction,SMDPad,CuDef*%
%ADD29RoundRect,0.218750X0.218750X0.256250X-0.218750X0.256250X-0.218750X-0.256250X0.218750X-0.256250X0*%
%TD*%
%TA.AperFunction,SMDPad,CuDef*%
%ADD30R,1.800000X5.700000*%
%TD*%
%TA.AperFunction,SMDPad,CuDef*%
%ADD31R,0.900000X0.800000*%
%TD*%
%TA.AperFunction,SMDPad,CuDef*%
%ADD32R,0.650000X1.060000*%
%TD*%
%TA.AperFunction,ComponentPad*%
%ADD33R,2.000000X2.000000*%
%TD*%
%TA.AperFunction,SMDPad,CuDef*%
%ADD34R,0.800000X0.200000*%
%TD*%
%TA.AperFunction,SMDPad,CuDef*%
%ADD35R,0.200000X0.800000*%
%TD*%
%TA.AperFunction,SMDPad,CuDef*%
%ADD36R,1.112500X1.112500*%
%TD*%
%TA.AperFunction,ComponentPad*%
%ADD37C,0.508000*%
%TD*%
%TA.AperFunction,SMDPad,CuDef*%
%ADD38RoundRect,0.250000X-0.550000X1.250000X-0.550000X-1.250000X0.550000X-1.250000X0.550000X1.250000X0*%
%TD*%
%TA.AperFunction,SMDPad,CuDef*%
%ADD39R,1.060000X0.650000*%
%TD*%
%TA.AperFunction,SMDPad,CuDef*%
%ADD40R,0.300000X0.550000*%
%TD*%
%TA.AperFunction,SMDPad,CuDef*%
%ADD41R,2.000000X4.500000*%
%TD*%
%TA.AperFunction,ComponentPad*%
%ADD42R,1.700000X1.700000*%
%TD*%
%TA.AperFunction,ComponentPad*%
%ADD43O,1.700000X1.700000*%
%TD*%
%TA.AperFunction,SMDPad,CuDef*%
%ADD44RoundRect,0.225000X0.250000X-0.225000X0.250000X0.225000X-0.250000X0.225000X-0.250000X-0.225000X0*%
%TD*%
%TA.AperFunction,SMDPad,CuDef*%
%ADD45R,0.200000X0.700000*%
%TD*%
%TA.AperFunction,ComponentPad*%
%ADD46O,1.000000X1.800000*%
%TD*%
%TA.AperFunction,ComponentPad*%
%ADD47O,1.000000X2.100000*%
%TD*%
%TA.AperFunction,ViaPad*%
%ADD48C,0.500000*%
%TD*%
%TA.AperFunction,Conductor*%
%ADD49C,0.195580*%
%TD*%
%TA.AperFunction,Conductor*%
%ADD50C,0.241300*%
%TD*%
%TA.AperFunction,Conductor*%
%ADD51C,0.177800*%
%TD*%
%TA.AperFunction,Conductor*%
%ADD52C,0.508000*%
%TD*%
%TA.AperFunction,Conductor*%
%ADD53C,0.762000*%
%TD*%
%TA.AperFunction,Conductor*%
%ADD54C,1.524000*%
%TD*%
%TA.AperFunction,Conductor*%
%ADD55C,0.635000*%
%TD*%
%TA.AperFunction,Conductor*%
%ADD56C,0.203200*%
%TD*%
%TA.AperFunction,Conductor*%
%ADD57C,0.381000*%
%TD*%
%TA.AperFunction,Conductor*%
%ADD58C,0.254000*%
%TD*%
%TA.AperFunction,Conductor*%
%ADD59C,1.016000*%
%TD*%
%TA.AperFunction,Conductor*%
%ADD60C,0.116840*%
%TD*%
%TA.AperFunction,Conductor*%
%ADD61C,0.142240*%
%TD*%
G04 APERTURE END LIST*
D10*
%TO.P,R32,1*%
%TO.N,Net-(R32-Pad1)*%
X131355000Y-188320000D03*
%TO.P,R32,2*%
%TO.N,PWR_GND*%
X133005000Y-188320000D03*
%TD*%
%TO.P,R34,1*%
%TO.N,/Charger/IPS_OUT*%
X185665000Y-157020000D03*
%TO.P,R34,2*%
%TO.N,Net-(LED5-Pad2)*%
X187315000Y-157020000D03*
%TD*%
D11*
%TO.P,C37,1*%
%TO.N,+3.3v*%
X138595000Y-177920000D03*
%TO.P,C37,2*%
%TO.N,GND*%
X140145000Y-177920000D03*
%TD*%
D12*
%TO.P,TP6,1,1*%
%TO.N,+5V*%
X101570000Y-172020000D03*
%TD*%
D10*
%TO.P,R51,1*%
%TO.N,Net-(R51-Pad1)*%
X138545000Y-169730000D03*
%TO.P,R51,2*%
%TO.N,GND*%
X140195000Y-169730000D03*
%TD*%
D13*
%TO.P,R38,1*%
%TO.N,/CM4_GPIO/GPIO_PB1*%
X200140000Y-168820000D03*
%TO.P,R38,2*%
%TO.N,+3.3v*%
X200140000Y-167170000D03*
%TD*%
D14*
%TO.P,C8,1*%
%TO.N,GND*%
X133435000Y-193610000D03*
%TO.P,C8,2*%
%TO.N,Net-(C8-Pad2)*%
X131885000Y-193610000D03*
%TD*%
D11*
%TO.P,C6,1*%
%TO.N,PWR_GND*%
X120025000Y-195880000D03*
%TO.P,C6,2*%
%TO.N,Net-(C6-Pad2)*%
X121575000Y-195880000D03*
%TD*%
D15*
%TO.P,C32,1*%
%TO.N,/USB Hub/VBUS*%
X197720000Y-141535000D03*
%TO.P,C32,2*%
%TO.N,GND*%
X197720000Y-143085000D03*
%TD*%
D11*
%TO.P,C28,1*%
%TO.N,+3.3v*%
X139205000Y-162220000D03*
%TO.P,C28,2*%
%TO.N,GND*%
X140755000Y-162220000D03*
%TD*%
D16*
%TO.P,R49,1*%
%TO.N,/CM4_GPIO/ETH_LEDY*%
X138565000Y-197020000D03*
%TO.P,R49,2*%
%TO.N,Net-(LED11-Pad2)*%
X136915000Y-197020000D03*
%TD*%
D14*
%TO.P,C22,1*%
%TO.N,/CM4_HighSpeed/HDMI_5v*%
X187925000Y-190700000D03*
%TO.P,C22,2*%
%TO.N,GND*%
X186375000Y-190700000D03*
%TD*%
D11*
%TO.P,C2,1*%
%TO.N,Net-(C2-Pad1)*%
X132515000Y-180620000D03*
%TO.P,C2,2*%
%TO.N,PWR_GND*%
X134065000Y-180620000D03*
%TD*%
%TO.P,C3,1*%
%TO.N,/Charger/IPS_OUT*%
X119035000Y-188170000D03*
%TO.P,C3,2*%
%TO.N,PWR_GND*%
X120585000Y-188170000D03*
%TD*%
D15*
%TO.P,C38,1*%
%TO.N,/USB Hub/VBUS*%
X192640000Y-141535000D03*
%TO.P,C38,2*%
%TO.N,GND*%
X192640000Y-143085000D03*
%TD*%
D17*
%TO.P,U7,1,Vin*%
%TO.N,/Charger/IPS_OUT*%
X118835000Y-184300000D03*
D18*
%TO.P,U7,2,GND*%
%TO.N,PWR_GND*%
X119660000Y-184950000D03*
D17*
%TO.P,U7,3,ENA*%
%TO.N,/Battery/5V_OVR*%
X118835000Y-185600000D03*
%TO.P,U7,4,/Flag*%
%TO.N,unconnected-(U7-Pad4)*%
X120485000Y-185600000D03*
%TO.P,U7,5,Vout*%
%TO.N,/Power/IPS_SW*%
X120485000Y-184950000D03*
%TO.P,U7,6,NC*%
%TO.N,unconnected-(U7-Pad6)*%
X120485000Y-184300000D03*
%TD*%
D10*
%TO.P,R54,1*%
%TO.N,GND*%
X130255000Y-165500000D03*
%TO.P,R54,2*%
%TO.N,Net-(R54-Pad2)*%
X131905000Y-165500000D03*
%TD*%
D13*
%TO.P,R39,1*%
%TO.N,/CM4_GPIO/GPIO_PB2*%
X199740000Y-177985000D03*
%TO.P,R39,2*%
%TO.N,+3.3v*%
X199740000Y-176335000D03*
%TD*%
D19*
%TO.P,U13,1,USBDM_DN1/PRT_DIS_M1*%
%TO.N,/USB Hub/HD1_N*%
X130222500Y-170110000D03*
%TO.P,U13,2,USBDP_DN1/PRT_DIS_P1*%
%TO.N,/USB Hub/HD1_P*%
X130222500Y-170610000D03*
%TO.P,U13,3,USBDM_DN2/PRT_DIS_M2*%
%TO.N,/USB Hub/HD2_N*%
X130222500Y-171110000D03*
%TO.P,U13,4,USBDP_DN2/PRT_DIS_P2*%
%TO.N,/USB Hub/HD2_P*%
X130222500Y-171610000D03*
%TO.P,U13,5,VDDA33*%
%TO.N,+3.3v*%
X130222500Y-172110000D03*
%TO.P,U13,6,USBDM_DN3/PRT_DIS_M3*%
%TO.N,/USB Hub/HD3_N*%
X130222500Y-172610000D03*
%TO.P,U13,7,USBDP_DN3/PRT_DIS_P3*%
%TO.N,/USB Hub/HD3_P*%
X130222500Y-173110000D03*
%TO.P,U13,8,USBDM_DN4/PRT_DIS_M4*%
%TO.N,/USB Hub/HD4_N*%
X130222500Y-173610000D03*
%TO.P,U13,9,USBDP_DN4/PRT_DIS_P4*%
%TO.N,/USB Hub/HD4_P*%
X130222500Y-174110000D03*
D20*
%TO.P,U13,10,VDDA33*%
%TO.N,+3.3v*%
X131160000Y-175047500D03*
%TO.P,U13,11,TEST*%
%TO.N,unconnected-(U13-Pad11)*%
X131660000Y-175047500D03*
%TO.P,U13,12,PRTPWR1/BC_EN1*%
%TO.N,/USB Hub/PWR1*%
X132160000Y-175047500D03*
%TO.P,U13,13,OCS_N1*%
%TO.N,/USB Hub/nOCS1*%
X132660000Y-175047500D03*
%TO.P,U13,14,CRFILT*%
%TO.N,unconnected-(U13-Pad14)*%
X133160000Y-175047500D03*
%TO.P,U13,15,VDD33*%
%TO.N,+3.3v*%
X133660000Y-175047500D03*
%TO.P,U13,16,PRTPWR2/BC_EN2*%
%TO.N,unconnected-(U13-Pad16)*%
X134160000Y-175047500D03*
%TO.P,U13,17,OCS_N2*%
%TO.N,/USB Hub/nOCS1*%
X134660000Y-175047500D03*
%TO.P,U13,18,PRTPWR3/BC_EN3*%
%TO.N,unconnected-(U13-Pad18)*%
X135160000Y-175047500D03*
D19*
%TO.P,U13,19,OCS_N3*%
%TO.N,/USB Hub/nOCS1*%
X136097500Y-174110000D03*
%TO.P,U13,20,PRTPWR4/BC_EN4*%
%TO.N,unconnected-(U13-Pad20)*%
X136097500Y-173610000D03*
%TO.P,U13,21,OCS_N4*%
%TO.N,/USB Hub/nOCS1*%
X136097500Y-173110000D03*
%TO.P,U13,22,SDA/SMBDATA/NON_REM1*%
%TO.N,Net-(R52-Pad1)*%
X136097500Y-172610000D03*
%TO.P,U13,23,VDD33*%
%TO.N,+3.3v*%
X136097500Y-172110000D03*
%TO.P,U13,24,SCL/SMBCLK/CFG_SEL0*%
%TO.N,Net-(R51-Pad1)*%
X136097500Y-171610000D03*
%TO.P,U13,25,HS_IND/CFG_SEL1*%
%TO.N,Net-(R55-Pad1)*%
X136097500Y-171110000D03*
%TO.P,U13,26,RESET_N*%
%TO.N,/USB Hub/nEXTRST*%
X136097500Y-170610000D03*
%TO.P,U13,27,VBUS_DET*%
%TO.N,+3.3v*%
X136097500Y-170110000D03*
D20*
%TO.P,U13,28,SUSP_IND/LOCAL_PWR/NON_REM0*%
%TO.N,Net-(R53-Pad1)*%
X135160000Y-169172500D03*
%TO.P,U13,29,VDDA33*%
%TO.N,+3.3v*%
X134660000Y-169172500D03*
%TO.P,U13,30,USBDM_UP*%
%TO.N,/CM4_HighSpeed/USB2_P*%
X134160000Y-169172500D03*
%TO.P,U13,31,USBDP_UP*%
%TO.N,/CM4_HighSpeed/USB2_N*%
X133660000Y-169172500D03*
%TO.P,U13,32,XTALOUT*%
%TO.N,Net-(C24-Pad1)*%
X133160000Y-169172500D03*
%TO.P,U13,33,XTALIN/CLKIN*%
%TO.N,Net-(C23-Pad1)*%
X132660000Y-169172500D03*
%TO.P,U13,34,PLLFILT*%
%TO.N,unconnected-(U13-Pad34)*%
X132160000Y-169172500D03*
%TO.P,U13,35,RBIAS*%
%TO.N,Net-(R54-Pad2)*%
X131660000Y-169172500D03*
%TO.P,U13,36,VDDA33*%
%TO.N,+3.3v*%
X131160000Y-169172500D03*
D21*
%TO.P,U13,37,VSS*%
%TO.N,GND*%
X133160000Y-172110000D03*
%TD*%
D22*
%TO.P,BTM4,1,Pin_1*%
%TO.N,/Batteries/BT4-*%
X175960000Y-156810000D03*
%TD*%
D14*
%TO.P,C7,1*%
%TO.N,PWR_GND*%
X132995000Y-186730000D03*
%TO.P,C7,2*%
%TO.N,Net-(C7-Pad2)*%
X131445000Y-186730000D03*
%TD*%
D11*
%TO.P,C33,1*%
%TO.N,+3.3v*%
X133665000Y-178220000D03*
%TO.P,C33,2*%
%TO.N,GND*%
X135215000Y-178220000D03*
%TD*%
D23*
%TO.P,J1,1,DAT2*%
%TO.N,/CM4_GPIO/SD_DAT2*%
X194280000Y-115537500D03*
%TO.P,J1,2,DAT3/CD*%
%TO.N,/CM4_GPIO/SD_DAT3*%
X195380000Y-115537500D03*
%TO.P,J1,3,CMD*%
%TO.N,/CM4_GPIO/SD_CMD*%
X196480000Y-115537500D03*
%TO.P,J1,4,VDD*%
%TO.N,/CM4_GPIO/SD_PWR*%
X197580000Y-115537500D03*
%TO.P,J1,5,CLK*%
%TO.N,/CM4_GPIO/SD_CLK*%
X198680000Y-115537500D03*
%TO.P,J1,6,VSS*%
%TO.N,GND*%
X199780000Y-115537500D03*
%TO.P,J1,7,DAT0*%
%TO.N,/CM4_GPIO/SD_DAT0*%
X200880000Y-115537500D03*
%TO.P,J1,8,DAT1*%
%TO.N,/CM4_GPIO/SD_DAT1*%
X201980000Y-115537500D03*
D24*
%TO.P,J1,9,SHIELD*%
%TO.N,unconnected-(J1-Pad9)*%
X192490000Y-128002500D03*
D25*
%TO.P,J1,10*%
%TO.N,N/C*%
X196755000Y-128077500D03*
D26*
%TO.P,J1,11*%
X203140000Y-126802500D03*
D27*
X190400000Y-115552500D03*
D28*
X203060000Y-116037500D03*
D26*
X190180000Y-126802500D03*
%TD*%
D29*
%TO.P,LED11,1,K*%
%TO.N,GND*%
X132977500Y-199050000D03*
%TO.P,LED11,2,A*%
%TO.N,Net-(LED11-Pad2)*%
X131402500Y-199050000D03*
%TD*%
D22*
%TO.P,BTM1,1,Pin_1*%
%TO.N,/Batteries/BT1-*%
X116020000Y-156810000D03*
%TD*%
D10*
%TO.P,R44,1*%
%TO.N,/Battery/5V_OVR*%
X118635000Y-180170000D03*
%TO.P,R44,2*%
%TO.N,PWR_GND*%
X120285000Y-180170000D03*
%TD*%
D30*
%TO.P,L1,1,1*%
%TO.N,Net-(C2-Pad1)*%
X128710000Y-182450000D03*
%TO.P,L1,2,2*%
%TO.N,Net-(L1-Pad2)*%
X124010000Y-182450000D03*
%TD*%
D22*
%TO.P,BTM2,1,Pin_1*%
%TO.N,/Batteries/BT2-*%
X135890000Y-156810000D03*
%TD*%
D12*
%TO.P,TP5,1,1*%
%TO.N,/Power/IPS_SW*%
X101380000Y-190590000D03*
%TD*%
D29*
%TO.P,LED8,1,K*%
%TO.N,PWR_GND*%
X194858500Y-155905000D03*
%TO.P,LED8,2,A*%
%TO.N,Net-(LED8-Pad2)*%
X193283500Y-155905000D03*
%TD*%
%TO.P,LED10,1,K*%
%TO.N,GND*%
X121967500Y-199070000D03*
%TO.P,LED10,2,A*%
%TO.N,Net-(LED10-Pad2)*%
X120392500Y-199070000D03*
%TD*%
D16*
%TO.P,R31,1*%
%TO.N,Net-(R31-Pad1)*%
X120195000Y-194220000D03*
%TO.P,R31,2*%
%TO.N,/Charger/IPS_OUT*%
X118545000Y-194220000D03*
%TD*%
D12*
%TO.P,TP2,1,1*%
%TO.N,PWR_GND*%
X101540000Y-175190000D03*
%TD*%
D11*
%TO.P,C5,1*%
%TO.N,PWR_GND*%
X121845000Y-197470000D03*
%TO.P,C5,2*%
%TO.N,Net-(C5-Pad2)*%
X123395000Y-197470000D03*
%TD*%
D29*
%TO.P,LED5,1,K*%
%TO.N,Net-(LED5-Pad1)*%
X190762500Y-155905000D03*
%TO.P,LED5,2,A*%
%TO.N,Net-(LED5-Pad2)*%
X189187500Y-155905000D03*
%TD*%
D10*
%TO.P,R48,1*%
%TO.N,/CM4_GPIO/ETH_LEDG*%
X116595000Y-199070000D03*
%TO.P,R48,2*%
%TO.N,Net-(LED10-Pad2)*%
X118245000Y-199070000D03*
%TD*%
%TO.P,R35,1*%
%TO.N,/Battery/I2C_SDA*%
X201125000Y-148790000D03*
%TO.P,R35,2*%
%TO.N,+3.3v*%
X202775000Y-148790000D03*
%TD*%
D11*
%TO.P,C27,1*%
%TO.N,+3.3v*%
X130095000Y-162700000D03*
%TO.P,C27,2*%
%TO.N,GND*%
X131645000Y-162700000D03*
%TD*%
D16*
%TO.P,R37,1*%
%TO.N,/CM4_GPIO/PI_nLED_Activity*%
X202285000Y-159850000D03*
%TO.P,R37,2*%
%TO.N,Net-(LED6-Pad1)*%
X200635000Y-159850000D03*
%TD*%
D10*
%TO.P,R55,1*%
%TO.N,Net-(R55-Pad1)*%
X138545000Y-167630000D03*
%TO.P,R55,2*%
%TO.N,GND*%
X140195000Y-167630000D03*
%TD*%
D12*
%TO.P,TP3,1,1*%
%TO.N,/Battery/BATT+*%
X101410000Y-157440000D03*
%TD*%
D31*
%TO.P,D3,*%
%TO.N,*%
X199940000Y-172810000D03*
%TO.P,D3,1,K*%
%TO.N,/Battery/PB_IN*%
X201940000Y-171860000D03*
%TO.P,D3,2,A*%
%TO.N,/CM4_GPIO/GPIO_PB1*%
X199940000Y-170910000D03*
%TD*%
D32*
%TO.P,U12,1,VOUT*%
%TO.N,/USB Hub/VBUS*%
X195810000Y-135880000D03*
%TO.P,U12,2,GND*%
%TO.N,GND*%
X194860000Y-135880000D03*
%TO.P,U12,3,/FLG*%
%TO.N,/USB Hub/nOCS1*%
X193910000Y-135880000D03*
%TO.P,U12,4,EN*%
%TO.N,/USB Hub/PWR1*%
X193910000Y-138080000D03*
%TO.P,U12,5,VIN*%
%TO.N,+5V*%
X195810000Y-138080000D03*
%TD*%
D33*
%TO.P,BTP1,1,Pin_1*%
%TO.N,/Battery/BATT+*%
X101980000Y-168990000D03*
%TD*%
D16*
%TO.P,R33,1*%
%TO.N,GND*%
X136555000Y-198870000D03*
%TO.P,R33,2*%
%TO.N,Net-(R33-Pad2)*%
X134905000Y-198870000D03*
%TD*%
D34*
%TO.P,U3,1,SDA*%
%TO.N,/Battery/I2C_SDA*%
X123510000Y-189620000D03*
%TO.P,U3,2,SCK*%
%TO.N,/Battery/I2C_SCL*%
X123510000Y-190020000D03*
%TO.P,U3,3,GPIO_3*%
%TO.N,unconnected-(U3-Pad3)*%
X123510000Y-190420000D03*
%TO.P,U3,4,N_OE*%
%TO.N,PWR_GND*%
X123510000Y-190820000D03*
%TO.P,U3,5,GPIO_2*%
%TO.N,unconnected-(U3-Pad5)*%
X123510000Y-191220000D03*
%TO.P,U3,6,N_VBus_En*%
%TO.N,Net-(R31-Pad1)*%
X123510000Y-191620000D03*
%TO.P,U3,7,Vin_2*%
%TO.N,unconnected-(U3-Pad7)*%
X123510000Y-192020000D03*
%TO.P,U3,8,LX2*%
%TO.N,unconnected-(U3-Pad8)*%
X123510000Y-192420000D03*
%TO.P,U3,9,PGnd_2*%
%TO.N,PWR_GND*%
X123510000Y-192820000D03*
%TO.P,U3,10,DCDC_2*%
%TO.N,unconnected-(U3-Pad10)*%
X123510000Y-193220000D03*
%TO.P,U3,11,LDO_4*%
%TO.N,Net-(C6-Pad2)*%
X123510000Y-193620000D03*
%TO.P,U3,12,LDO_2*%
%TO.N,Net-(C5-Pad2)*%
X123510000Y-194020000D03*
D35*
%TO.P,U3,13,LDO_24_In*%
%TO.N,/Charger/IPS_OUT*%
X124310000Y-194820000D03*
%TO.P,U3,14,Vin_3*%
%TO.N,unconnected-(U3-Pad14)*%
X124710000Y-194820000D03*
%TO.P,U3,15,LX3*%
%TO.N,unconnected-(U3-Pad15)*%
X125110000Y-194820000D03*
%TO.P,U3,16,PGnd_3*%
%TO.N,PWR_GND*%
X125510000Y-194820000D03*
%TO.P,U3,17,DCDC_3*%
%TO.N,unconnected-(U3-Pad17)*%
X125910000Y-194820000D03*
%TO.P,U3,18,GPIO_1*%
%TO.N,unconnected-(U3-Pad18)*%
X126310000Y-194820000D03*
%TO.P,U3,19,GPIO_0/LDO*%
%TO.N,unconnected-(U3-Pad19)*%
X126710000Y-194820000D03*
%TO.P,U3,20,EXTEN*%
%TO.N,/Battery/AXP_EXTEN*%
X127110000Y-194820000D03*
%TO.P,U3,21,APS*%
%TO.N,/Charger/IPS_OUT*%
X127510000Y-194820000D03*
%TO.P,U3,22,A_Gnd*%
%TO.N,GND*%
X127910000Y-194820000D03*
%TO.P,U3,23,Bias*%
%TO.N,Net-(R33-Pad2)*%
X128310000Y-194820000D03*
%TO.P,U3,24,V_Ref*%
%TO.N,Net-(C9-Pad2)*%
X128710000Y-194820000D03*
D34*
%TO.P,U3,25,PwrOK*%
%TO.N,unconnected-(U3-Pad25)*%
X129510000Y-194020000D03*
%TO.P,U3,26,V_Internal*%
%TO.N,Net-(C8-Pad2)*%
X129510000Y-193620000D03*
%TO.P,U3,27,LDO_1_Set*%
X129510000Y-193220000D03*
%TO.P,U3,28,LDO_1*%
%TO.N,unconnected-(U3-Pad28)*%
X129510000Y-192820000D03*
%TO.P,U3,29,DC3_Set*%
%TO.N,unconnected-(U3-Pad29)*%
X129510000Y-192420000D03*
%TO.P,U3,30,BackupBatt*%
%TO.N,unconnected-(U3-Pad30)*%
X129510000Y-192020000D03*
%TO.P,U3,31,VBUS*%
%TO.N,unconnected-(U3-Pad31)*%
X129510000Y-191620000D03*
%TO.P,U3,32,AC_IN*%
%TO.N,/AC_IN*%
X129510000Y-191220000D03*
%TO.P,U3,33,AC_IN*%
X129510000Y-190820000D03*
%TO.P,U3,34,IPS_Out*%
%TO.N,/Charger/IPS_OUT*%
X129510000Y-190420000D03*
%TO.P,U3,35,IPS_Out*%
X129510000Y-190020000D03*
%TO.P,U3,36,ChgLED*%
%TO.N,Net-(LED5-Pad1)*%
X129510000Y-189620000D03*
D35*
%TO.P,U3,37,TS*%
%TO.N,Net-(R32-Pad1)*%
X128710000Y-188820000D03*
%TO.P,U3,38,Batt*%
%TO.N,/Battery/BATT+*%
X128310000Y-188820000D03*
%TO.P,U3,39,Batt*%
X127910000Y-188820000D03*
%TO.P,U3,40,LDO_3_In*%
%TO.N,/Charger/IPS_OUT*%
X127510000Y-188820000D03*
%TO.P,U3,41,LDO_3*%
%TO.N,Net-(C7-Pad2)*%
X127110000Y-188820000D03*
%TO.P,U3,42,BatSense*%
%TO.N,/Battery/BATT+*%
X126710000Y-188820000D03*
%TO.P,U3,43,ChgSense*%
%TO.N,Net-(C2-Pad1)*%
X126310000Y-188820000D03*
%TO.P,U3,44,Vin_1*%
%TO.N,/Charger/IPS_OUT*%
X125910000Y-188820000D03*
%TO.P,U3,45,LX1*%
%TO.N,Net-(L1-Pad2)*%
X125510000Y-188820000D03*
%TO.P,U3,46,PGnd_1*%
%TO.N,PWR_GND*%
X125110000Y-188820000D03*
%TO.P,U3,47,PwrON*%
%TO.N,/Battery/PB_IN*%
X124710000Y-188820000D03*
%TO.P,U3,48,IRQ/WakeUp*%
%TO.N,unconnected-(U3-Pad48)*%
X124310000Y-188820000D03*
D36*
%TO.P,U3,49,GND_PAD*%
%TO.N,PWR_GND*%
X124841250Y-192376250D03*
X125953750Y-193488750D03*
X128178750Y-191263750D03*
X124841250Y-193488750D03*
D37*
X125385000Y-192945000D03*
X126535000Y-191820000D03*
D36*
X128178750Y-192376250D03*
X127066250Y-191263750D03*
D37*
X127610000Y-192945000D03*
D36*
X127066250Y-192376250D03*
D37*
X125410000Y-190720000D03*
D36*
X124841250Y-191263750D03*
D37*
X125435000Y-191820000D03*
D36*
X127066250Y-193488750D03*
X125953750Y-190151250D03*
D37*
X127635000Y-190720000D03*
X127685000Y-191820000D03*
D36*
X125953750Y-191263750D03*
D37*
X126510000Y-190720000D03*
D36*
X125953750Y-192376250D03*
X127066250Y-190151250D03*
X124841250Y-190151250D03*
X128178750Y-193488750D03*
X128178750Y-190151250D03*
D37*
X126510000Y-192970000D03*
%TD*%
D14*
%TO.P,C31,1*%
%TO.N,+3.3v*%
X131075000Y-176820000D03*
%TO.P,C31,2*%
%TO.N,GND*%
X129525000Y-176820000D03*
%TD*%
D22*
%TO.P,BTM3,1,Pin_1*%
%TO.N,/Batteries/BT3-*%
X156100000Y-156810000D03*
%TD*%
D14*
%TO.P,C9,1*%
%TO.N,GND*%
X133415000Y-195120000D03*
%TO.P,C9,2*%
%TO.N,Net-(C9-Pad2)*%
X131865000Y-195120000D03*
%TD*%
D11*
%TO.P,C29,1*%
%TO.N,+3.3v*%
X134515000Y-162720000D03*
%TO.P,C29,2*%
%TO.N,GND*%
X136065000Y-162720000D03*
%TD*%
D29*
%TO.P,LED6,1,K*%
%TO.N,Net-(LED6-Pad1)*%
X194857500Y-157560000D03*
%TO.P,LED6,2,A*%
%TO.N,+5V*%
X193282500Y-157560000D03*
%TD*%
D16*
%TO.P,R42,1*%
%TO.N,/Battery/PWR_IRQ*%
X140275000Y-179620000D03*
%TO.P,R42,2*%
%TO.N,/CM4_GPIO/GPIO_IRQ*%
X138625000Y-179620000D03*
%TD*%
D14*
%TO.P,C25,1*%
%TO.N,+5V*%
X196585000Y-132700000D03*
%TO.P,C25,2*%
%TO.N,GND*%
X195035000Y-132700000D03*
%TD*%
D12*
%TO.P,TP4,1,1*%
%TO.N,/Charger/IPS_OUT*%
X129340000Y-198630000D03*
%TD*%
D11*
%TO.P,C1,1*%
%TO.N,/Battery/BATT+*%
X132595000Y-184850000D03*
%TO.P,C1,2*%
%TO.N,PWR_GND*%
X134145000Y-184850000D03*
%TD*%
D14*
%TO.P,C10,1*%
%TO.N,+3.3v*%
X202725000Y-146450000D03*
%TO.P,C10,2*%
%TO.N,GND*%
X201175000Y-146450000D03*
%TD*%
D11*
%TO.P,C35,1*%
%TO.N,+3.3v*%
X138680000Y-175110000D03*
%TO.P,C35,2*%
%TO.N,GND*%
X140230000Y-175110000D03*
%TD*%
D15*
%TO.P,C36,1*%
%TO.N,/USB Hub/VBUS*%
X191020000Y-141535000D03*
%TO.P,C36,2*%
%TO.N,GND*%
X191020000Y-143085000D03*
%TD*%
%TO.P,C34,1*%
%TO.N,/USB Hub/VBUS*%
X195870000Y-141540000D03*
%TO.P,C34,2*%
%TO.N,GND*%
X195870000Y-143090000D03*
%TD*%
D38*
%TO.P,C30,1*%
%TO.N,/USB Hub/VBUS*%
X193980000Y-147390000D03*
%TO.P,C30,2*%
%TO.N,GND*%
X193980000Y-151790000D03*
%TD*%
D39*
%TO.P,U9,1,VOUT*%
%TO.N,/CM4_HighSpeed/HDMI_5v*%
X189800000Y-190680000D03*
%TO.P,U9,2,GND*%
%TO.N,GND*%
X189800000Y-191630000D03*
%TO.P,U9,3,/FLG*%
%TO.N,unconnected-(U9-Pad3)*%
X189800000Y-192580000D03*
%TO.P,U9,4,EN*%
%TO.N,Net-(R47-Pad1)*%
X192000000Y-192580000D03*
%TO.P,U9,5,VIN*%
%TO.N,+5V*%
X192000000Y-190680000D03*
%TD*%
D14*
%TO.P,C21,1*%
%TO.N,+5V*%
X140725000Y-187630000D03*
%TO.P,C21,2*%
%TO.N,GND*%
X139175000Y-187630000D03*
%TD*%
D10*
%TO.P,R43,1*%
%TO.N,GND*%
X138825000Y-183730000D03*
%TO.P,R43,2*%
%TO.N,/CM4_GPIO/GPIO_IRQ*%
X140475000Y-183730000D03*
%TD*%
%TO.P,R47,1*%
%TO.N,Net-(R47-Pad1)*%
X139125000Y-189380000D03*
%TO.P,R47,2*%
%TO.N,+5V*%
X140775000Y-189380000D03*
%TD*%
D11*
%TO.P,C26,1*%
%TO.N,+3.3v*%
X134515000Y-165590000D03*
%TO.P,C26,2*%
%TO.N,GND*%
X136065000Y-165590000D03*
%TD*%
D40*
%TO.P,U5,1,D1+*%
%TO.N,/CM4_GPIO/TRD1_P*%
X176290000Y-165365000D03*
%TO.P,U5,2,D1-*%
%TO.N,/CM4_GPIO/TRD1_N*%
X175790000Y-165365000D03*
%TO.P,U5,3,GND*%
%TO.N,GND*%
X175290000Y-165365000D03*
%TO.P,U5,4,D2+*%
%TO.N,/CM4_GPIO/TRD0_N*%
X174790000Y-165365000D03*
%TO.P,U5,5,D2-*%
%TO.N,/CM4_GPIO/TRD0_P*%
X174290000Y-165365000D03*
%TO.P,U5,6*%
X174290000Y-166135000D03*
%TO.P,U5,7*%
%TO.N,/CM4_GPIO/TRD0_N*%
X174790000Y-166135000D03*
%TO.P,U5,8,GND*%
%TO.N,GND*%
X175290000Y-166135000D03*
%TO.P,U5,9*%
%TO.N,/CM4_GPIO/TRD1_N*%
X175790000Y-166135000D03*
%TO.P,U5,10*%
%TO.N,/CM4_GPIO/TRD1_P*%
X176290000Y-166135000D03*
%TD*%
D41*
%TO.P,Y1,1,1*%
%TO.N,Net-(C23-Pad1)*%
X125240000Y-171950000D03*
%TO.P,Y1,2,2*%
%TO.N,Net-(C24-Pad1)*%
X125240000Y-163450000D03*
%TD*%
D42*
%TO.P,P1,1,Pin_1*%
%TO.N,GND*%
X202320000Y-135380000D03*
D43*
%TO.P,P1,2,Pin_2*%
%TO.N,+3.3v*%
X202320000Y-137920000D03*
%TO.P,P1,3,Pin_3*%
%TO.N,/Battery/I2C_SCL*%
X202320000Y-140460000D03*
%TO.P,P1,4,Pin_4*%
%TO.N,/Battery/I2C_SDA*%
X202320000Y-143000000D03*
%TD*%
D10*
%TO.P,R36,1*%
%TO.N,/Battery/I2C_SCL*%
X201225000Y-151100000D03*
%TO.P,R36,2*%
%TO.N,+3.3v*%
X202875000Y-151100000D03*
%TD*%
D44*
%TO.P,C23,1*%
%TO.N,Net-(C23-Pad1)*%
X121840000Y-172675000D03*
%TO.P,C23,2*%
%TO.N,GND*%
X121840000Y-171125000D03*
%TD*%
D29*
%TO.P,LED7,1,K*%
%TO.N,/CM4_GPIO/GPIO6*%
X190767500Y-157580000D03*
%TO.P,LED7,2,A*%
%TO.N,Net-(R40-Pad2)*%
X189192500Y-157580000D03*
%TD*%
D10*
%TO.P,R52,1*%
%TO.N,Net-(R52-Pad1)*%
X137515000Y-172640000D03*
%TO.P,R52,2*%
%TO.N,GND*%
X139165000Y-172640000D03*
%TD*%
D16*
%TO.P,R46,1*%
%TO.N,+5V*%
X200505000Y-155940000D03*
%TO.P,R46,2*%
%TO.N,Net-(LED8-Pad2)*%
X198855000Y-155940000D03*
%TD*%
D11*
%TO.P,C24,1*%
%TO.N,Net-(C24-Pad1)*%
X128785000Y-161100000D03*
%TO.P,C24,2*%
%TO.N,GND*%
X130335000Y-161100000D03*
%TD*%
D45*
%TO.P,Module1,1,GND*%
%TO.N,GND*%
X177112993Y-160160001D03*
%TO.P,Module1,2,GND*%
X177112993Y-163240001D03*
%TO.P,Module1,3,Ethernet_Pair3_P*%
%TO.N,/CM4_GPIO/TRD3_P*%
X176712993Y-160160001D03*
%TO.P,Module1,4,Ethernet_Pair1_P*%
%TO.N,/CM4_GPIO/TRD1_P*%
X176712993Y-163240001D03*
%TO.P,Module1,5,Ethernet_Pair3_N*%
%TO.N,/CM4_GPIO/TRD3_N*%
X176312993Y-160160001D03*
%TO.P,Module1,6,Ethernet_Pair1_N*%
%TO.N,/CM4_GPIO/TRD1_N*%
X176312993Y-163240001D03*
%TO.P,Module1,7,GND*%
%TO.N,GND*%
X175912993Y-160160001D03*
%TO.P,Module1,8,GND*%
X175912993Y-163240001D03*
%TO.P,Module1,9,Ethernet_Pair2_N*%
%TO.N,/CM4_GPIO/TRD2_N*%
X175512993Y-160160001D03*
%TO.P,Module1,10,Ethernet_Pair0_N*%
%TO.N,/CM4_GPIO/TRD0_N*%
X175512993Y-163240001D03*
%TO.P,Module1,11,Ethernet_Pair2_P*%
%TO.N,/CM4_GPIO/TRD2_P*%
X175112993Y-160160001D03*
%TO.P,Module1,12,Ethernet_Pair0_P*%
%TO.N,/CM4_GPIO/TRD0_P*%
X175112993Y-163240001D03*
%TO.P,Module1,13,GND*%
%TO.N,GND*%
X174712993Y-160160001D03*
%TO.P,Module1,14,GND*%
X174712993Y-163240001D03*
%TO.P,Module1,15,Ethernet_nLED3(3.3v)*%
%TO.N,/CM4_GPIO/ETH_LEDY*%
X174312993Y-160160001D03*
%TO.P,Module1,16,Ethernet_SYNC_IN(1.8v)*%
%TO.N,/CM4_GPIO/SYNC_IN*%
X174312993Y-163240001D03*
%TO.P,Module1,17,Ethernet_nLED2(3.3v)*%
%TO.N,/CM4_GPIO/ETH_LEDG*%
X173912993Y-160160001D03*
%TO.P,Module1,18,Ethernet_SYNC_OUT(1.8v)*%
%TO.N,/CM4_GPIO/SYNC_OUT*%
X173912993Y-163240001D03*
%TO.P,Module1,19,Ethernet_nLED1(3.3v)*%
%TO.N,unconnected-(Module1-Pad19)*%
X173512993Y-160160001D03*
%TO.P,Module1,20,EEPROM_nWP*%
%TO.N,/CM4_GPIO/EEPROM_nWP*%
X173512993Y-163240001D03*
%TO.P,Module1,21,PI_nLED_Activity*%
%TO.N,/CM4_GPIO/PI_nLED_Activity*%
X173112993Y-160160001D03*
%TO.P,Module1,22,GND*%
%TO.N,GND*%
X173112993Y-163240001D03*
%TO.P,Module1,23,GND*%
X172712993Y-160160001D03*
%TO.P,Module1,24,GPIO26*%
%TO.N,/CM4_GPIO/GPIO26*%
X172712993Y-163240001D03*
%TO.P,Module1,25,GPIO21*%
%TO.N,/CM4_GPIO/GPIO21*%
X172312993Y-160160001D03*
%TO.P,Module1,26,GPIO19*%
%TO.N,/CM4_GPIO/GPIO19*%
X172312993Y-163240001D03*
%TO.P,Module1,27,GPIO20*%
%TO.N,/CM4_GPIO/GPIO20*%
X171912993Y-160160001D03*
%TO.P,Module1,28,GPIO13*%
%TO.N,/CM4_GPIO/GPIO13*%
X171912993Y-163240001D03*
%TO.P,Module1,29,GPIO16*%
%TO.N,/CM4_GPIO/GPIO16*%
X171512993Y-160160001D03*
%TO.P,Module1,30,GPIO6*%
%TO.N,/CM4_GPIO/GPIO6*%
X171512993Y-163240001D03*
%TO.P,Module1,31,GPIO12*%
%TO.N,/CM4_GPIO/GPIO12*%
X171112993Y-160160001D03*
%TO.P,Module1,32,GND*%
%TO.N,GND*%
X171112993Y-163240001D03*
%TO.P,Module1,33,GND*%
X170712993Y-160160001D03*
%TO.P,Module1,34,GPIO5*%
%TO.N,/CM4_GPIO/GPIO5*%
X170712993Y-163240001D03*
%TO.P,Module1,35,ID_SC*%
%TO.N,/CM4_GPIO/ID_SC*%
X170312993Y-160160001D03*
%TO.P,Module1,36,ID_SD*%
%TO.N,/CM4_GPIO/ID_SD*%
X170312993Y-163240001D03*
%TO.P,Module1,37,GPIO7*%
%TO.N,/CM4_GPIO/GPIO7*%
X169912993Y-160160001D03*
%TO.P,Module1,38,GPIO11*%
%TO.N,/Battery/SCL*%
X169912993Y-163240001D03*
%TO.P,Module1,39,GPIO8*%
%TO.N,/CM4_GPIO/GPIO8*%
X169512993Y-160160001D03*
%TO.P,Module1,40,GPIO9*%
%TO.N,/Battery/MISO*%
X169512993Y-163240001D03*
%TO.P,Module1,41,GPIO25*%
%TO.N,/CM4_GPIO/GPIO25*%
X169112993Y-160160001D03*
%TO.P,Module1,42,GND*%
%TO.N,GND*%
X169112993Y-163240001D03*
%TO.P,Module1,43,GND*%
X168712993Y-160160001D03*
%TO.P,Module1,44,GPIO10*%
%TO.N,/Battery/MOSI*%
X168712993Y-163240001D03*
%TO.P,Module1,45,GPIO24*%
%TO.N,/CM4_GPIO/GPIO24*%
X168312993Y-160160001D03*
%TO.P,Module1,46,GPIO22*%
%TO.N,/Battery/{slash}RESET*%
X168312993Y-163240001D03*
%TO.P,Module1,47,GPIO23*%
%TO.N,/CM4_GPIO/GPIO23*%
X167912993Y-160160001D03*
%TO.P,Module1,48,GPIO27*%
%TO.N,/CM4_GPIO/GPIO27*%
X167912993Y-163240001D03*
%TO.P,Module1,49,GPIO18*%
%TO.N,/CM4_GPIO/GPIO18*%
X167512993Y-160160001D03*
%TO.P,Module1,50,GPIO17*%
%TO.N,/CM4_GPIO/GPIO17*%
X167512993Y-163240001D03*
%TO.P,Module1,51,GPIO15*%
%TO.N,/CM4_GPIO/GPIO_IRQ*%
X167112993Y-160160001D03*
%TO.P,Module1,52,GND*%
%TO.N,GND*%
X167112993Y-163240001D03*
%TO.P,Module1,53,GND*%
X166712993Y-160160001D03*
%TO.P,Module1,54,GPIO4*%
%TO.N,/CM4_GPIO/GPIO_PB2*%
X166712993Y-163240001D03*
%TO.P,Module1,55,GPIO14*%
%TO.N,/CM4_GPIO/GPIO14*%
X166312993Y-160160001D03*
%TO.P,Module1,56,GPIO3*%
%TO.N,/CM4_GPIO/GPIO_PB1*%
X166312993Y-163240001D03*
%TO.P,Module1,57,SD_CLK*%
%TO.N,/CM4_GPIO/SD_CLK*%
X165912993Y-160160001D03*
%TO.P,Module1,58,GPIO2*%
%TO.N,/CM4_GPIO/GPIO2*%
X165912993Y-163240001D03*
%TO.P,Module1,59,GND*%
%TO.N,GND*%
X165512993Y-160160001D03*
%TO.P,Module1,60,GND*%
X165512993Y-163240001D03*
%TO.P,Module1,61,SD_DAT3*%
%TO.N,/CM4_GPIO/SD_DAT3*%
X165112993Y-160160001D03*
%TO.P,Module1,62,SD_CMD*%
%TO.N,/CM4_GPIO/SD_CMD*%
X165112993Y-163240001D03*
%TO.P,Module1,63,SD_DAT0*%
%TO.N,/CM4_GPIO/SD_DAT0*%
X164712993Y-160160001D03*
%TO.P,Module1,64,SD_DAT5*%
%TO.N,unconnected-(Module1-Pad64)*%
X164712993Y-163240001D03*
%TO.P,Module1,65,GND*%
%TO.N,GND*%
X164312993Y-160160001D03*
%TO.P,Module1,66,GND*%
X164312993Y-163240001D03*
%TO.P,Module1,67,SD_DAT1*%
%TO.N,/CM4_GPIO/SD_DAT1*%
X163912993Y-160160001D03*
%TO.P,Module1,68,SD_DAT4*%
%TO.N,unconnected-(Module1-Pad68)*%
X163912993Y-163240001D03*
%TO.P,Module1,69,SD_DAT2*%
%TO.N,/CM4_GPIO/SD_DAT2*%
X163512993Y-160160001D03*
%TO.P,Module1,70,SD_DAT7*%
%TO.N,unconnected-(Module1-Pad70)*%
X163512993Y-163240001D03*
%TO.P,Module1,71,GND*%
%TO.N,GND*%
X163112993Y-160160001D03*
%TO.P,Module1,72,SD_DAT6*%
%TO.N,unconnected-(Module1-Pad72)*%
X163112993Y-163240001D03*
%TO.P,Module1,73,SD_VDD_Override*%
%TO.N,unconnected-(Module1-Pad73)*%
X162712993Y-160160001D03*
%TO.P,Module1,74,GND*%
%TO.N,GND*%
X162712993Y-163240001D03*
%TO.P,Module1,75,SD_PWR_ON*%
%TO.N,/CM4_GPIO/SD_PWR_ON*%
X162312993Y-160160001D03*
%TO.P,Module1,76,Reserved*%
%TO.N,/CM4_GPIO/Reserved*%
X162312993Y-163240001D03*
%TO.P,Module1,77,+5v_(Input)*%
%TO.N,+5V*%
X161912993Y-160160001D03*
%TO.P,Module1,78,GPIO_VREF(1.8v/3.3v_Input)*%
%TO.N,+3.3v*%
X161912993Y-163240001D03*
%TO.P,Module1,79,+5v_(Input)*%
%TO.N,+5V*%
X161512993Y-160160001D03*
%TO.P,Module1,80,SCL0*%
%TO.N,/Battery/I2C_SCL*%
X161512993Y-163240001D03*
%TO.P,Module1,81,+5v_(Input)*%
%TO.N,+5V*%
X161112993Y-160160001D03*
%TO.P,Module1,82,SDA0*%
%TO.N,/Battery/I2C_SDA*%
X161112993Y-163240001D03*
%TO.P,Module1,83,+5v_(Input)*%
%TO.N,+5V*%
X160712993Y-160160001D03*
%TO.P,Module1,84,+3.3v_(Output)*%
%TO.N,+3.3v*%
X160712993Y-163240001D03*
%TO.P,Module1,85,+5v_(Input)*%
%TO.N,+5V*%
X160312993Y-160160001D03*
%TO.P,Module1,86,+3.3v_(Output)*%
%TO.N,+3.3v*%
X160312993Y-163240001D03*
%TO.P,Module1,87,+5v_(Input)*%
%TO.N,+5V*%
X159912993Y-160160001D03*
%TO.P,Module1,88,+1.8v_(Output)*%
%TO.N,/CM4_GPIO/+1.8v*%
X159912993Y-163240001D03*
%TO.P,Module1,89,WiFi_nDisable*%
%TO.N,/CM4_GPIO/WL_nDis*%
X159512993Y-160160001D03*
%TO.P,Module1,90,+1.8v_(Output)*%
%TO.N,/CM4_GPIO/+1.8v*%
X159512993Y-163240001D03*
%TO.P,Module1,91,BT_nDisable*%
%TO.N,/CM4_GPIO/BT_nDis*%
X159112993Y-160160001D03*
%TO.P,Module1,92,RUN_PG*%
%TO.N,/CM4_GPIO/RUN_PG*%
X159112993Y-163240001D03*
%TO.P,Module1,93,nRPIBOOT*%
%TO.N,/CM4_GPIO/nRPIBOOT*%
X158712993Y-160160001D03*
%TO.P,Module1,94,AnalogIP1*%
%TO.N,/CM4_GPIO/AIN1*%
X158712993Y-163240001D03*
%TO.P,Module1,95,nPI_LED_PWR*%
%TO.N,/CM4_GPIO/nPWR_LED*%
X158312993Y-160160001D03*
%TO.P,Module1,96,AnalogIP0*%
%TO.N,/CM4_GPIO/AIN0*%
X158312993Y-163240001D03*
%TO.P,Module1,97,Camera_GPIO*%
%TO.N,/CM4_GPIO/Camera_GPIO*%
X157912993Y-160160001D03*
%TO.P,Module1,98,GND*%
%TO.N,GND*%
X157912993Y-163240001D03*
%TO.P,Module1,99,Global_EN*%
%TO.N,/CM4_GPIO/GLOBAL_EN*%
X157512993Y-160160001D03*
%TO.P,Module1,100,nEXTRST*%
%TO.N,/USB Hub/nEXTRST*%
X157512993Y-163240001D03*
%TO.P,Module1,101,USB_OTG_ID*%
%TO.N,unconnected-(Module1-Pad101)*%
X177112993Y-194080001D03*
%TO.P,Module1,102,PCIe_CLK_nREQ*%
%TO.N,/CM4_HighSpeed/PCIE_CLK_nREQ*%
X177112993Y-197160001D03*
%TO.P,Module1,103,USB2_N*%
%TO.N,/CM4_HighSpeed/USB2_N*%
X176712993Y-194080001D03*
%TO.P,Module1,104,Reserved*%
%TO.N,unconnected-(Module1-Pad104)*%
X176712993Y-197160001D03*
%TO.P,Module1,105,USB2_P*%
%TO.N,/CM4_HighSpeed/USB2_P*%
X176312993Y-194080001D03*
%TO.P,Module1,106,Reserved*%
%TO.N,unconnected-(Module1-Pad106)*%
X176312993Y-197160001D03*
%TO.P,Module1,107,GND*%
%TO.N,GND*%
X175912993Y-194080001D03*
%TO.P,Module1,108,GND*%
X175912993Y-197160001D03*
%TO.P,Module1,109,PCIe_nRST*%
%TO.N,/CM4_HighSpeed/PCIE_nRST*%
X175512993Y-194080001D03*
%TO.P,Module1,110,PCIe_CLK_P*%
%TO.N,/CM4_HighSpeed/PCIE_CLK_P*%
X175512993Y-197160001D03*
%TO.P,Module1,111,VDAC_COMP*%
%TO.N,/CM4_HighSpeed/TV_OUT*%
X175112993Y-194080001D03*
%TO.P,Module1,112,PCIe_CLK_N*%
%TO.N,/CM4_HighSpeed/PCIE_CLK_N*%
X175112993Y-197160001D03*
%TO.P,Module1,113,GND*%
%TO.N,GND*%
X174712993Y-194080001D03*
%TO.P,Module1,114,GND*%
X174712993Y-197160001D03*
%TO.P,Module1,115,CAM1_D0_N*%
%TO.N,/CM4_HighSpeed/CAM1_D0_N*%
X174312993Y-194080001D03*
%TO.P,Module1,116,PCIe_RX_P*%
%TO.N,/CM4_HighSpeed/PCIE_RX_P*%
X174312993Y-197160001D03*
%TO.P,Module1,117,CAM1_D0_P*%
%TO.N,/CM4_HighSpeed/CAM1_D0_P*%
X173912993Y-194080001D03*
%TO.P,Module1,118,PCIe_RX_N*%
%TO.N,/CM4_HighSpeed/PCIE_RX_N*%
X173912993Y-197160001D03*
%TO.P,Module1,119,GND*%
%TO.N,GND*%
X173512993Y-194080001D03*
%TO.P,Module1,120,GND*%
X173512993Y-197160001D03*
%TO.P,Module1,121,CAM1_D1_N*%
%TO.N,/CM4_HighSpeed/CAM1_D1_N*%
X173112993Y-194080001D03*
%TO.P,Module1,122,PCIe_TX_P*%
%TO.N,/CM4_HighSpeed/PCIE_TX_P*%
X173112993Y-197160001D03*
%TO.P,Module1,123,CAM1_D1_P*%
%TO.N,/CM4_HighSpeed/CAM1_D1_P*%
X172712993Y-194080001D03*
%TO.P,Module1,124,PCIe_TX_N*%
%TO.N,/CM4_HighSpeed/PCIE_TX_N*%
X172712993Y-197160001D03*
%TO.P,Module1,125,GND*%
%TO.N,GND*%
X172312993Y-194080001D03*
%TO.P,Module1,126,GND*%
X172312993Y-197160001D03*
%TO.P,Module1,127,CAM1_C_N*%
%TO.N,/CM4_HighSpeed/CAM1_C_N*%
X171912993Y-194080001D03*
%TO.P,Module1,128,CAM0_D0_N*%
%TO.N,/CM4_HighSpeed/CAM0_D0_N*%
X171912993Y-197160001D03*
%TO.P,Module1,129,CAM1_C_P*%
%TO.N,/CM4_HighSpeed/CAM1_C_P*%
X171512993Y-194080001D03*
%TO.P,Module1,130,CAM0_D0_P*%
%TO.N,/CM4_HighSpeed/CAM0_D0_P*%
X171512993Y-197160001D03*
%TO.P,Module1,131,GND*%
%TO.N,GND*%
X171112993Y-194080001D03*
%TO.P,Module1,132,GND*%
X171112993Y-197160001D03*
%TO.P,Module1,133,CAM1_D2_N*%
%TO.N,/CM4_HighSpeed/CAM1_D2_N*%
X170712993Y-194080001D03*
%TO.P,Module1,134,CAM0_D1_N*%
%TO.N,/CM4_HighSpeed/CAM0_D1_N*%
X170712993Y-197160001D03*
%TO.P,Module1,135,CAM1_D2_P*%
%TO.N,/CM4_HighSpeed/CAM1_D2_P*%
X170312993Y-194080001D03*
%TO.P,Module1,136,CAM0_D1_P*%
%TO.N,/CM4_HighSpeed/CAM0_D1_P*%
X170312993Y-197160001D03*
%TO.P,Module1,137,GND*%
%TO.N,GND*%
X169912993Y-194080001D03*
%TO.P,Module1,138,GND*%
X169912993Y-197160001D03*
%TO.P,Module1,139,CAM1_D3_N*%
%TO.N,/CM4_HighSpeed/CAM1_D3_N*%
X169512993Y-194080001D03*
%TO.P,Module1,140,CAM0_C_N*%
%TO.N,/CM4_HighSpeed/CAM0_C_N*%
X169512993Y-197160001D03*
%TO.P,Module1,141,CAM1_D3_P*%
%TO.N,/CM4_HighSpeed/CAM1_D3_P*%
X169112993Y-194080001D03*
%TO.P,Module1,142,CAM0_C_P*%
%TO.N,/CM4_HighSpeed/CAM0_C_P*%
X169112993Y-197160001D03*
%TO.P,Module1,143,HDMI1_HOTPLUG*%
%TO.N,/CM4_HighSpeed/HDMI1_HOTPLUG*%
X168712993Y-194080001D03*
%TO.P,Module1,144,GND*%
%TO.N,GND*%
X168712993Y-197160001D03*
%TO.P,Module1,145,HDMI1_SDA*%
%TO.N,/CM4_HighSpeed/HDMI1_SDA*%
X168312993Y-194080001D03*
%TO.P,Module1,146,HDMI1_TX2_P*%
%TO.N,/CM4_HighSpeed/HDMI1_D2_P*%
X168312993Y-197160001D03*
%TO.P,Module1,147,HDMI1_SCL*%
%TO.N,/CM4_HighSpeed/HDMI1_SCL*%
X167912993Y-194080001D03*
%TO.P,Module1,148,HDMI1_TX2_N*%
%TO.N,/CM4_HighSpeed/HDMI1_D2_N*%
X167912993Y-197160001D03*
%TO.P,Module1,149,HDMI1_CEC*%
%TO.N,/CM4_HighSpeed/HDMI1_CEC*%
X167512993Y-194080001D03*
%TO.P,Module1,150,GND*%
%TO.N,GND*%
X167512993Y-197160001D03*
%TO.P,Module1,151,HDMI0_CEC*%
%TO.N,/CM4_HighSpeed/HDMI0_CEC*%
X167112993Y-194080001D03*
%TO.P,Module1,152,HDMI1_TX1_P*%
%TO.N,/CM4_HighSpeed/HDMI1_D1_P*%
X167112993Y-197160001D03*
%TO.P,Module1,153,HDMI0_HOTPLUG*%
%TO.N,/CM4_HighSpeed/HDMI0_HOTPLUG*%
X166712993Y-194080001D03*
%TO.P,Module1,154,HDMI1_TX1_N*%
%TO.N,/CM4_HighSpeed/HDMI1_D1_N*%
X166712993Y-197160001D03*
%TO.P,Module1,155,GND*%
%TO.N,GND*%
X166312993Y-194080001D03*
%TO.P,Module1,156,GND*%
X166312993Y-197160001D03*
%TO.P,Module1,157,DSI0_D0_N*%
%TO.N,/CM4_HighSpeed/DSI0_D0_N*%
X165912993Y-194080001D03*
%TO.P,Module1,158,HDMI1_TX0_P*%
%TO.N,/CM4_HighSpeed/HDMI1_D0_P*%
X165912993Y-197160001D03*
%TO.P,Module1,159,DSI0_D0_P*%
%TO.N,/CM4_HighSpeed/DSI0_D0_P*%
X165512993Y-194080001D03*
%TO.P,Module1,160,HDMI1_TX0_N*%
%TO.N,/CM4_HighSpeed/HDMI1_D0_N*%
X165512993Y-197160001D03*
%TO.P,Module1,161,GND*%
%TO.N,GND*%
X165112993Y-194080001D03*
%TO.P,Module1,162,GND*%
X165112993Y-197160001D03*
%TO.P,Module1,163,DSI0_D1_N*%
%TO.N,/CM4_HighSpeed/DSI0_D1_N*%
X164712993Y-194080001D03*
%TO.P,Module1,164,HDMI1_CLK_P*%
%TO.N,/CM4_HighSpeed/HDMI1_CK_P*%
X164712993Y-197160001D03*
%TO.P,Module1,165,DSI0_D1_P*%
%TO.N,/CM4_HighSpeed/DSI0_D1_P*%
X164312993Y-194080001D03*
%TO.P,Module1,166,HDMI1_CLK_N*%
%TO.N,/CM4_HighSpeed/HDMI1_CK_N*%
X164312993Y-197160001D03*
%TO.P,Module1,167,GND*%
%TO.N,GND*%
X163912993Y-194080001D03*
%TO.P,Module1,168,GND*%
X163912993Y-197160001D03*
%TO.P,Module1,169,DSI0_C_N*%
%TO.N,/CM4_HighSpeed/DSI0_C_N*%
X163512993Y-194080001D03*
%TO.P,Module1,170,HDMI0_TX2_P*%
%TO.N,/CM4_HighSpeed/HDMI0_D2_P*%
X163512993Y-197160001D03*
%TO.P,Module1,171,DSI0_C_P*%
%TO.N,/CM4_HighSpeed/DSI0_C_P*%
X163112993Y-194080001D03*
%TO.P,Module1,172,HDMI0_TX2_N*%
%TO.N,/CM4_HighSpeed/HDMI0_D2_N*%
X163112993Y-197160001D03*
%TO.P,Module1,173,GND*%
%TO.N,GND*%
X162712993Y-194080001D03*
%TO.P,Module1,174,GND*%
X162712993Y-197160001D03*
%TO.P,Module1,175,DSI1_D0_N*%
%TO.N,/CM4_HighSpeed/DSI1_D0_N*%
X162312993Y-194080001D03*
%TO.P,Module1,176,HDMI0_TX1_P*%
%TO.N,/CM4_HighSpeed/HDMI0_D1_P*%
X162312993Y-197160001D03*
%TO.P,Module1,177,DSI1_D0_P*%
%TO.N,/CM4_HighSpeed/DSI1_D0_P*%
X161912993Y-194080001D03*
%TO.P,Module1,178,HDMI0_TX1_N*%
%TO.N,/CM4_HighSpeed/HDMI0_D1_N*%
X161912993Y-197160001D03*
%TO.P,Module1,179,GND*%
%TO.N,GND*%
X161512993Y-194080001D03*
%TO.P,Module1,180,GND*%
X161512993Y-197160001D03*
%TO.P,Module1,181,DSI1_D1_N*%
%TO.N,/CM4_HighSpeed/DSI1_D1_N*%
X161112993Y-194080001D03*
%TO.P,Module1,182,HDMI0_TX0_P*%
%TO.N,/CM4_HighSpeed/HDMI0_D0_P*%
X161112993Y-197160001D03*
%TO.P,Module1,183,DSI1_D1_P*%
%TO.N,/CM4_HighSpeed/DSI1_D1_P*%
X160712993Y-194080001D03*
%TO.P,Module1,184,HDMI0_TX0_N*%
%TO.N,/CM4_HighSpeed/HDMI0_D0_N*%
X160712993Y-197160001D03*
%TO.P,Module1,185,GND*%
%TO.N,GND*%
X160312993Y-194080001D03*
%TO.P,Module1,186,GND*%
X160312993Y-197160001D03*
%TO.P,Module1,187,DSI1_C_N*%
%TO.N,/CM4_HighSpeed/DSI1_C_N*%
X159912993Y-194080001D03*
%TO.P,Module1,188,HDMI0_CLK_P*%
%TO.N,/CM4_HighSpeed/HDMI0_CK_P*%
X159912993Y-197160001D03*
%TO.P,Module1,189,DSI1_C_P*%
%TO.N,/CM4_HighSpeed/DSI1_C_P*%
X159512993Y-194080001D03*
%TO.P,Module1,190,HDMI0_CLK_N*%
%TO.N,/CM4_HighSpeed/HDMI0_CK_N*%
X159512993Y-197160001D03*
%TO.P,Module1,191,GND*%
%TO.N,GND*%
X159112993Y-194080001D03*
%TO.P,Module1,192,GND*%
X159112993Y-197160001D03*
%TO.P,Module1,193,DSI1_D2_N*%
%TO.N,/CM4_HighSpeed/DSI1_D2_N*%
X158712993Y-194080001D03*
%TO.P,Module1,194,DSI1_D3_N*%
%TO.N,/CM4_HighSpeed/DSI1_D3_N*%
X158712993Y-197160001D03*
%TO.P,Module1,195,DSI1_D2_P*%
%TO.N,/CM4_HighSpeed/DSI1_D2_P*%
X158312993Y-194080001D03*
%TO.P,Module1,196,DSI1_D3_P*%
%TO.N,/CM4_HighSpeed/DSI1_D3_P*%
X158312993Y-197160001D03*
%TO.P,Module1,197,GND*%
%TO.N,GND*%
X157912993Y-194080001D03*
%TO.P,Module1,198,GND*%
X157912993Y-197160001D03*
%TO.P,Module1,199,HDMI0_SDA*%
%TO.N,/CM4_HighSpeed/HDMI0_SDA*%
X157512993Y-194080001D03*
%TO.P,Module1,200,HDMI0_SCL*%
%TO.N,/CM4_HighSpeed/HDMI0_SCL*%
X157512993Y-197160001D03*
%TD*%
D16*
%TO.P,R40,1*%
%TO.N,+3.3v*%
X202235000Y-157560000D03*
%TO.P,R40,2*%
%TO.N,Net-(R40-Pad2)*%
X200585000Y-157560000D03*
%TD*%
D10*
%TO.P,R53,1*%
%TO.N,Net-(R53-Pad1)*%
X138595000Y-165420000D03*
%TO.P,R53,2*%
%TO.N,GND*%
X140245000Y-165420000D03*
%TD*%
%TO.P,R30,1*%
%TO.N,/Battery/BATT+*%
X132575000Y-183100000D03*
%TO.P,R30,2*%
%TO.N,Net-(C2-Pad1)*%
X134225000Y-183100000D03*
%TD*%
D11*
%TO.P,C4,1*%
%TO.N,/Charger/IPS_OUT*%
X131875000Y-196670000D03*
%TO.P,C4,2*%
%TO.N,GND*%
X133425000Y-196670000D03*
%TD*%
D12*
%TO.P,TP1,1,1*%
%TO.N,/AC_IN*%
X126760000Y-198620000D03*
%TD*%
D46*
%TO.P,J5,1,Shell*%
%TO.N,GND*%
X138925098Y-198997500D03*
D47*
X147565098Y-194817500D03*
X138925098Y-194817500D03*
D46*
X147565098Y-198997500D03*
%TD*%
D48*
%TO.N,/USB Hub/HD2_N*%
X131485753Y-179184940D03*
%TO.N,/Battery/BATT+*%
X143770000Y-171036960D03*
X109650000Y-167040000D03*
X190251600Y-164890000D03*
X130900000Y-183520000D03*
X178280000Y-178990000D03*
X177890000Y-175220000D03*
X162560000Y-171031600D03*
X129850000Y-186780000D03*
X112430000Y-185740000D03*
X129390000Y-186298400D03*
X164099363Y-166009980D03*
X184086811Y-169850000D03*
X141900000Y-165470000D03*
X110440000Y-168990000D03*
X110905000Y-159545000D03*
X189830000Y-169330000D03*
X111350000Y-185740000D03*
X177680000Y-170970000D03*
X178380000Y-182190000D03*
X110590000Y-185690000D03*
%TO.N,/Batteries/BT1-*%
X178320000Y-182980000D03*
X177190000Y-172249850D03*
X116050000Y-171668490D03*
X116050000Y-165870000D03*
%TO.N,/Batteries/BT2-*%
X140710000Y-164340000D03*
X140730000Y-163700000D03*
%TO.N,/Batteries/BT3-*%
X160160000Y-164410000D03*
X157121753Y-162503989D03*
X159870000Y-164830000D03*
%TO.N,PWR_GND*%
X119990494Y-160570494D03*
X111055000Y-193005000D03*
X101856500Y-183480000D03*
X135300000Y-182190000D03*
X101856500Y-184720000D03*
X119520000Y-181980000D03*
X183173189Y-181630000D03*
X116870000Y-168490000D03*
X109740000Y-191690000D03*
X195830000Y-180990000D03*
X182980000Y-177440000D03*
X111760000Y-182320000D03*
X156490000Y-167789850D03*
X111890000Y-183400000D03*
X180130000Y-163980000D03*
X111740000Y-181420000D03*
X195668920Y-155940000D03*
X111740000Y-180350000D03*
X101856500Y-185990000D03*
X122379506Y-160570494D03*
X121430000Y-193790000D03*
X101770000Y-182140000D03*
X169250000Y-181510000D03*
X120719506Y-160570494D03*
X110780000Y-189490000D03*
X110160000Y-183470000D03*
X110375000Y-192325000D03*
X109925000Y-187535000D03*
X182448400Y-169130000D03*
X110430000Y-188040000D03*
X169143250Y-172766649D03*
X133020000Y-185910000D03*
X121519506Y-160570494D03*
X119110000Y-181550000D03*
X120820000Y-163670000D03*
X182980000Y-172090000D03*
X169160000Y-178261600D03*
X103950000Y-190460000D03*
X120820000Y-164340000D03*
X182448400Y-167430000D03*
X156650000Y-183390000D03*
X135300000Y-182970000D03*
X121650000Y-187710000D03*
%TO.N,/Charger/IPS_OUT*%
X186505500Y-157070000D03*
X127290000Y-195900000D03*
X124330000Y-196010000D03*
X119460000Y-193330000D03*
X125153500Y-186660000D03*
X118060000Y-188350000D03*
X130435417Y-188955417D03*
X118070000Y-186900000D03*
X127750078Y-187845076D03*
X184715944Y-186155944D03*
X130530000Y-196670000D03*
X118070000Y-187620000D03*
%TO.N,GND*%
X201110000Y-135700000D03*
X136065000Y-164205000D03*
X158196666Y-194871313D03*
X193690000Y-143170000D03*
X200744280Y-144780000D03*
X172970000Y-167342189D03*
X138190000Y-184558920D03*
X130370000Y-174900000D03*
X118075000Y-196905000D03*
X146162577Y-171942577D03*
X165630000Y-195060000D03*
X200380000Y-130540000D03*
X202070000Y-169410000D03*
X182510000Y-191520000D03*
X204030000Y-129230000D03*
X152550000Y-176510000D03*
X166710000Y-158630000D03*
X192590000Y-132500000D03*
X141320000Y-177910000D03*
X146230000Y-177680000D03*
X177980000Y-187750000D03*
X179470000Y-187600000D03*
X187070000Y-193450000D03*
X192240000Y-150860000D03*
X141450000Y-175980000D03*
X141230000Y-165450000D03*
X141231600Y-181790000D03*
X162996170Y-164070000D03*
X138080000Y-192150000D03*
X119460000Y-198290000D03*
X128040000Y-196390000D03*
X172300000Y-195490000D03*
X167111418Y-162598582D03*
X198940000Y-143150000D03*
X175910000Y-195150000D03*
X135840000Y-195950000D03*
X157930000Y-197900000D03*
X160230000Y-192730000D03*
X174980000Y-191760000D03*
X202170000Y-184370000D03*
X170960000Y-195350000D03*
X161020000Y-183400000D03*
X121850000Y-170040000D03*
X172350000Y-158540000D03*
X156660000Y-165620000D03*
X194070000Y-134860000D03*
X133870000Y-198810000D03*
X137739505Y-177598815D03*
X177110000Y-159167111D03*
X162710000Y-172791600D03*
X128734663Y-165490118D03*
X188090000Y-192110000D03*
X141900000Y-162660000D03*
X135320000Y-176280000D03*
X188790000Y-128850000D03*
X137730000Y-174630150D03*
X154370000Y-187680000D03*
X118800000Y-197630000D03*
X192620000Y-151240000D03*
X164340000Y-187680000D03*
X199810000Y-114570000D03*
%TO.N,Net-(C7-Pad2)*%
X126915127Y-186912584D03*
X130676566Y-187434378D03*
%TO.N,/Power/IPS_SW*%
X110950000Y-171970000D03*
X121690000Y-181330000D03*
%TO.N,+5V*%
X185310000Y-192010000D03*
X198130000Y-157018400D03*
X186540000Y-168480000D03*
X116900000Y-175180000D03*
X198390000Y-132640000D03*
X198120000Y-168478400D03*
X110400000Y-176270000D03*
X141750011Y-186500000D03*
%TO.N,+3.3v*%
X136930000Y-166980000D03*
X160993209Y-179280000D03*
X139394831Y-167054831D03*
X128118400Y-167493040D03*
X160993209Y-178580000D03*
X197198400Y-136640000D03*
X204470000Y-151120000D03*
X204470000Y-162410000D03*
X204470000Y-157500000D03*
X204470000Y-148840000D03*
X192810000Y-136250000D03*
X158870000Y-167460000D03*
X134480000Y-166940000D03*
X204470000Y-146440000D03*
%TO.N,/CM4_GPIO/GPIO_IRQ*%
X141610000Y-183660000D03*
X149570000Y-183240000D03*
X149590000Y-162870000D03*
%TO.N,/CM4_GPIO/SD_PWR*%
X200400000Y-134170000D03*
X194300000Y-134180000D03*
%TO.N,/CM4_HighSpeed/HDMI_5v*%
X183466548Y-187720000D03*
%TO.N,/USB Hub/VBUS*%
X142440000Y-184370000D03*
X199090000Y-147260000D03*
X199030000Y-181020000D03*
X164770000Y-184500000D03*
X194330000Y-130570000D03*
%TO.N,/AC_IN*%
X145590000Y-186651600D03*
X145610000Y-192260000D03*
X146235098Y-196874902D03*
X130850000Y-190630000D03*
X192420000Y-171160000D03*
X140880000Y-193090000D03*
X191630000Y-183350000D03*
%TO.N,/Battery/5V_OVR*%
X193840000Y-187440000D03*
X118160000Y-178090000D03*
X185253189Y-176304288D03*
X118970000Y-186350000D03*
X185253189Y-171570000D03*
X193840000Y-175880000D03*
%TO.N,/CM4_GPIO/GPIO_PB1*%
X160161600Y-176060000D03*
X198140000Y-174660000D03*
%TO.N,/Battery/PB_IN*%
X123980000Y-187460000D03*
X202960000Y-172820000D03*
X125319502Y-182620500D03*
X184720000Y-188400000D03*
X183440000Y-185250000D03*
X203290000Y-179740000D03*
%TO.N,/CM4_GPIO/SD_DAT1*%
X201920000Y-117150000D03*
X163806787Y-158619189D03*
%TO.N,/CM4_GPIO/SD_DAT0*%
X164300000Y-157430000D03*
X200850000Y-117290000D03*
%TO.N,/CM4_GPIO/SD_CLK*%
X165662982Y-158040000D03*
X200309793Y-116881448D03*
%TO.N,/CM4_GPIO/SD_CMD*%
X200220000Y-119141800D03*
X164951532Y-162503989D03*
%TO.N,/CM4_GPIO/SD_DAT3*%
X198510000Y-117711100D03*
X164930000Y-156936200D03*
%TO.N,/CM4_GPIO/SD_DAT2*%
X162960000Y-157830000D03*
X191950459Y-123388989D03*
%TO.N,/CM4_HighSpeed/HDMI0_HOTPLUG*%
X164780000Y-191240000D03*
X185100000Y-195480000D03*
%TO.N,/CM4_HighSpeed/HDMI0_SDA*%
X181990000Y-192070000D03*
X158725000Y-192045000D03*
X160055000Y-190715000D03*
%TO.N,/CM4_HighSpeed/HDMI0_SCL*%
X181530000Y-194570000D03*
X157470000Y-195260000D03*
%TO.N,/CM4_HighSpeed/HDMI0_CEC*%
X183370000Y-198390000D03*
X165611400Y-196010000D03*
%TO.N,/CM4_HighSpeed/HDMI0_CK_N*%
X159151700Y-198175558D03*
X179107394Y-195863161D03*
%TO.N,/CM4_HighSpeed/HDMI0_CK_P*%
X159796793Y-198410000D03*
X179160000Y-195167789D03*
%TO.N,/CM4_HighSpeed/HDMI0_D0_N*%
X178929230Y-198779125D03*
X160678013Y-199128900D03*
%TO.N,/CM4_HighSpeed/HDMI0_D0_P*%
X178780000Y-199439988D03*
X161353443Y-199201448D03*
%TO.N,/CM4_HighSpeed/HDMI0_D1_N*%
X158630000Y-195993800D03*
X177334645Y-195614877D03*
%TO.N,/CM4_HighSpeed/HDMI0_D1_P*%
X176805745Y-195172045D03*
X158810782Y-195341070D03*
%TO.N,/CM4_HighSpeed/HDMI0_D2_N*%
X160100000Y-195220000D03*
X175370000Y-187456200D03*
%TO.N,/CM4_HighSpeed/HDMI0_D2_P*%
X174698541Y-187544982D03*
X160726078Y-194865460D03*
%TO.N,/USB Hub/HD4_N*%
X159900000Y-189690000D03*
X128640000Y-174622557D03*
X158990000Y-178330000D03*
%TO.N,/USB Hub/HD4_P*%
X158719457Y-178962711D03*
X128460903Y-175319096D03*
X159282402Y-189985207D03*
%TO.N,/USB Hub/HD3_N*%
X124980000Y-175110000D03*
X196912472Y-172775352D03*
%TO.N,/USB Hub/HD3_P*%
X197440000Y-173230000D03*
X125172795Y-175917205D03*
%TO.N,/CM4_GPIO/GPIO6*%
X170830000Y-164330767D03*
X189820000Y-164220000D03*
%TO.N,/CM4_GPIO/TRD1_P*%
X177050000Y-167670000D03*
X127135090Y-169246791D03*
X127556611Y-175900000D03*
%TO.N,/CM4_GPIO/TRD1_N*%
X129043046Y-175970441D03*
X127734897Y-169561386D03*
X176291295Y-168201295D03*
%TO.N,/CM4_GPIO/TRD0_N*%
X174352644Y-167581093D03*
X124210000Y-175500000D03*
X126077389Y-169004474D03*
%TO.N,/CM4_GPIO/TRD0_P*%
X173700000Y-167400000D03*
X125655009Y-168475009D03*
X123534943Y-175555107D03*
%TO.N,/CM4_GPIO/PI_nLED_Activity*%
X175680000Y-158391500D03*
X202250000Y-160980000D03*
X177710000Y-168260000D03*
X201361820Y-168100000D03*
%TO.N,/Battery/BT1_PRES*%
X111680000Y-170620000D03*
X182330000Y-183120000D03*
X111640000Y-161220000D03*
X182420000Y-171550000D03*
X191760000Y-175130000D03*
X192410000Y-170420000D03*
%TO.N,/Battery/{slash}BT2_ENA*%
X184110000Y-179825720D03*
X184130000Y-176380000D03*
%TO.N,/Battery/BT2_PRES*%
X147180000Y-177660000D03*
X192870000Y-178898400D03*
X147120000Y-164660000D03*
X182600000Y-178990000D03*
%TO.N,/CM4_GPIO/GPIO_PB2*%
X160660000Y-177140000D03*
X202220000Y-177720000D03*
%TO.N,/CM4_GPIO/SD_PWR_ON*%
X191498900Y-138660000D03*
X162350000Y-157410000D03*
X198630000Y-138700000D03*
%TO.N,/Battery/{slash}BT3_ENA*%
X196360000Y-175170000D03*
X196360000Y-180238400D03*
%TO.N,/Battery/BT3_PRES*%
X171330000Y-173030000D03*
X168210000Y-165740000D03*
%TO.N,/USB Hub/nEXTRST*%
X137580000Y-166010000D03*
X154421589Y-164330000D03*
%TO.N,/CM4_HighSpeed/USB2_N*%
X171760000Y-168020000D03*
X133412423Y-167897577D03*
X176060000Y-192440000D03*
%TO.N,/CM4_HighSpeed/USB2_P*%
X175899341Y-193107169D03*
X134081600Y-168390000D03*
X171780000Y-168701109D03*
%TO.N,Net-(Q2-Pad3)*%
X167460000Y-183630000D03*
X120690000Y-165200000D03*
X121513771Y-179856229D03*
%TO.N,Net-(Q3-Pad3)*%
X169770000Y-182130000D03*
X110130000Y-164850000D03*
X111923376Y-171286624D03*
X169680000Y-173149850D03*
%TO.N,Net-(Q6-Pad3)*%
X127110000Y-179835720D03*
X125650000Y-157470000D03*
X167257577Y-182287577D03*
X127620000Y-164850000D03*
%TO.N,Net-(Q7-Pad3)*%
X145380000Y-181190000D03*
X171426630Y-178070000D03*
X145369989Y-165800000D03*
%TO.N,Net-(Q10-Pad3)*%
X144882684Y-164496666D03*
X167170000Y-175010000D03*
X143699056Y-175409056D03*
X144890000Y-157360000D03*
X151280000Y-165630000D03*
%TO.N,Net-(Q11-Pad3)*%
X170450000Y-172760000D03*
X168770000Y-166300000D03*
%TO.N,Net-(Q14-Pad3)*%
X181508219Y-163993447D03*
X165990000Y-157240000D03*
X167030000Y-170900000D03*
X182080000Y-170300000D03*
%TO.N,Net-(Q15-Pad3)*%
X191630000Y-162770000D03*
X183090000Y-169760000D03*
X182970000Y-163993447D03*
X192380000Y-169680000D03*
%TO.N,/Battery/{slash}BT4_ENA*%
X189930000Y-182146500D03*
X188630000Y-169584280D03*
%TO.N,/Battery/BT4_PRES*%
X195020000Y-177470000D03*
X189460000Y-162861600D03*
X189310000Y-170930000D03*
X195040000Y-172240000D03*
%TO.N,/Battery/MOSI*%
X188507577Y-183157577D03*
X168712993Y-164507007D03*
X187970000Y-165140000D03*
%TO.N,/Battery/MISO*%
X187728060Y-183234434D03*
X187350000Y-165370000D03*
X169240000Y-165005407D03*
%TO.N,/Battery/SCL*%
X169790000Y-165488400D03*
X184030000Y-183630000D03*
X183894280Y-165503807D03*
%TO.N,/Battery/I2C_SDA*%
X200320000Y-148950000D03*
X189260000Y-180235869D03*
X157940000Y-181958400D03*
X122840000Y-188930000D03*
X122470000Y-179270000D03*
X200990000Y-178710000D03*
X161070000Y-166228400D03*
%TO.N,/Battery/I2C_SCL*%
X157040000Y-181400000D03*
X161820000Y-165960000D03*
X122700498Y-189700000D03*
X199820000Y-151240000D03*
X189700000Y-178400000D03*
X200681600Y-178110000D03*
X123300000Y-178830000D03*
%TO.N,/Battery/{slash}RESET*%
X166080000Y-175768389D03*
%TO.N,/USB Hub/nOCS1*%
X193880000Y-136990000D03*
X134500000Y-176300000D03*
X196189989Y-173710000D03*
%TO.N,/USB Hub/PWR1*%
X133080000Y-176870000D03*
X194343500Y-139220000D03*
X194160000Y-160340000D03*
X195620000Y-174090000D03*
%TO.N,/USB Hub/HD2_N*%
X129099189Y-170810796D03*
X162750000Y-179900000D03*
X162750000Y-175780000D03*
%TO.N,/USB Hub/HD2_P*%
X163430000Y-175768400D03*
X129085941Y-171528847D03*
X163300000Y-180320000D03*
X130780000Y-179280000D03*
%TO.N,Net-(R1-Pad1)*%
X197920000Y-176530000D03*
X186250000Y-176530000D03*
X197940000Y-178904280D03*
%TO.N,/CM4_GPIO/ETH_LEDY*%
X143920000Y-192380000D03*
X173191050Y-188465637D03*
X174957423Y-158832577D03*
X143910000Y-199080000D03*
%TO.N,/CM4_GPIO/ETH_LEDG*%
X143290000Y-192170000D03*
X174128400Y-158708400D03*
X143421600Y-198575686D03*
X172930000Y-187860000D03*
X116620000Y-198180000D03*
%TO.N,/Battery/PWR_IRQ*%
X183130000Y-182950000D03*
X192960000Y-183750000D03*
X141200000Y-182680000D03*
%TO.N,/Battery/AXP_EXTEN*%
X190050000Y-172249850D03*
X171426630Y-181120000D03*
X171419498Y-192650000D03*
X190260000Y-180720000D03*
X126790000Y-196670000D03*
%TO.N,/Battery/HEARTBEAT*%
X188220000Y-189510000D03*
X187430000Y-179650000D03*
%TO.N,Net-(R40-Pad2)*%
X201650000Y-156520000D03*
X192651467Y-156829702D03*
%TO.N,/USB Hub/HD1_N*%
X128086932Y-170140014D03*
%TO.N,/USB Hub/HD1_P*%
X128360000Y-170780000D03*
%TO.N,Net-(LED1-Pad1)*%
X152820000Y-158050000D03*
X174870366Y-168017788D03*
X112740000Y-158050000D03*
X132930000Y-158050000D03*
X171620000Y-156420000D03*
%TO.N,Net-(LED11-Pad2)*%
X130700000Y-198068389D03*
X136970000Y-195810000D03*
%TO.N,Net-(C18-Pad1)*%
X103300000Y-177630000D03*
X105580000Y-174320000D03*
%TO.N,Net-(LED5-Pad1)*%
X192436500Y-155890000D03*
X190750000Y-182830000D03*
X129557423Y-188647423D03*
%TO.N,Net-(R54-Pad2)*%
X127121600Y-167280000D03*
X133080000Y-165640000D03*
%TO.N,Net-(R47-Pad1)*%
X141530000Y-190600000D03*
X193270000Y-188870000D03*
%TD*%
D49*
%TO.N,/CM4_GPIO/TRD1_P*%
X177050000Y-167670000D02*
X176530000Y-167670000D01*
X176290000Y-167430000D02*
X176290000Y-166135000D01*
X176530000Y-167670000D02*
X176290000Y-167430000D01*
D50*
%TO.N,/USB Hub/HD1_P*%
X130222500Y-170610000D02*
X129750000Y-170610000D01*
X129750000Y-170610000D02*
X129300000Y-170160000D01*
X129300000Y-170160000D02*
X128980000Y-170160000D01*
X128980000Y-170160000D02*
X128360000Y-170780000D01*
%TO.N,/USB Hub/HD1_N*%
X128086932Y-170140014D02*
X128496946Y-169730000D01*
X128496946Y-169730000D02*
X129842500Y-169730000D01*
X129842500Y-169730000D02*
X130222500Y-170110000D01*
%TO.N,/USB Hub/HD2_N*%
X129350000Y-170850000D02*
X129138393Y-170850000D01*
X129138393Y-170850000D02*
X129099189Y-170810796D01*
X130222500Y-171110000D02*
X129610000Y-171110000D01*
X129610000Y-171110000D02*
X129350000Y-170850000D01*
D51*
%TO.N,/Battery/BATT+*%
X109650000Y-167040000D02*
X109650000Y-168020000D01*
X143770000Y-171036960D02*
X143390000Y-170656960D01*
D52*
X129850000Y-186758400D02*
X129390000Y-186298400D01*
D51*
X126790000Y-186240000D02*
X126340000Y-186690000D01*
D52*
X129850000Y-186780000D02*
X129850000Y-186758400D01*
D53*
X132575000Y-183100000D02*
X131320000Y-183100000D01*
D54*
X107740000Y-174750000D02*
X101980000Y-168990000D01*
D51*
X110440000Y-168810000D02*
X110440000Y-168990000D01*
D53*
X131320000Y-183100000D02*
X130900000Y-183520000D01*
D52*
X126880000Y-186230000D02*
X126930000Y-186230000D01*
D51*
X128340000Y-186230000D02*
X128340000Y-187960000D01*
D54*
X110590000Y-185690000D02*
X107740000Y-182840000D01*
D51*
X143390000Y-166960000D02*
X141900000Y-165470000D01*
D54*
X111350000Y-185740000D02*
X111300000Y-185690000D01*
D51*
X126710000Y-187493542D02*
X126710000Y-188820000D01*
D52*
X126900000Y-186210000D02*
X126880000Y-186230000D01*
D54*
X111300000Y-185690000D02*
X110590000Y-185690000D01*
D52*
X129301600Y-186210000D02*
X126900000Y-186210000D01*
D53*
X132575000Y-183100000D02*
X132575000Y-184845000D01*
D51*
X109650000Y-168020000D02*
X110440000Y-168810000D01*
X126340000Y-186690000D02*
X126340000Y-187123542D01*
X126950000Y-186240000D02*
X126790000Y-186240000D01*
D52*
X129390000Y-186298400D02*
X129301600Y-186210000D01*
D51*
X126340000Y-187123542D02*
X126710000Y-187493542D01*
X128310000Y-187990000D02*
X128310000Y-188700000D01*
D52*
X126930000Y-186230000D02*
X126940000Y-186240000D01*
D54*
X112430000Y-185740000D02*
X111350000Y-185740000D01*
D51*
X127910000Y-188820000D02*
X127910000Y-188390000D01*
X143390000Y-170656960D02*
X143390000Y-166960000D01*
D54*
X107740000Y-182840000D02*
X107740000Y-174750000D01*
D51*
X127910000Y-188390000D02*
X128340000Y-187960000D01*
D55*
%TO.N,PWR_GND*%
X135300000Y-183780000D02*
X134220000Y-184860000D01*
D56*
X125510000Y-194820000D02*
X125510000Y-193830000D01*
X123510000Y-192820000D02*
X124750000Y-192820000D01*
D55*
X135300000Y-181610000D02*
X135300000Y-182190000D01*
D56*
X120025000Y-195880000D02*
X121150000Y-194755000D01*
X120025000Y-195905000D02*
X121810000Y-197690000D01*
D51*
X133020000Y-185910000D02*
X133005000Y-185925000D01*
D56*
X121150000Y-194070000D02*
X121430000Y-193790000D01*
D55*
X134310000Y-180620000D02*
X135300000Y-181610000D01*
X119520000Y-181960000D02*
X119110000Y-181550000D01*
D56*
X121190000Y-188170000D02*
X121650000Y-187710000D01*
D55*
X135300000Y-182190000D02*
X135300000Y-182970000D01*
D56*
X120585000Y-188170000D02*
X121190000Y-188170000D01*
D55*
X119520000Y-181980000D02*
X119520000Y-181960000D01*
X119660000Y-182120000D02*
X119520000Y-181980000D01*
D56*
X121150000Y-194755000D02*
X121150000Y-194070000D01*
D55*
X134065000Y-180620000D02*
X134310000Y-180620000D01*
X119660000Y-184950000D02*
X119660000Y-182120000D01*
X135300000Y-182970000D02*
X135300000Y-183780000D01*
D51*
X194858500Y-155905000D02*
X195633920Y-155905000D01*
D56*
X125110000Y-188820000D02*
X125110000Y-189890000D01*
X123510000Y-190820000D02*
X124560000Y-190820000D01*
D51*
X120285000Y-180375000D02*
X119110000Y-181550000D01*
X195633920Y-155905000D02*
X195668920Y-155940000D01*
X133005000Y-188320000D02*
X133005000Y-185925000D01*
D56*
%TO.N,Net-(C2-Pad1)*%
X126310000Y-187588546D02*
X125830000Y-187108546D01*
D55*
X132515000Y-181295000D02*
X134300000Y-183080000D01*
D52*
X127060000Y-184660000D02*
X128090000Y-184660000D01*
D55*
X132515000Y-180620000D02*
X132515000Y-181295000D01*
X129400000Y-180620000D02*
X128980000Y-181040000D01*
D56*
X125830000Y-185890000D02*
X125930000Y-185790000D01*
D55*
X132515000Y-180620000D02*
X129400000Y-180620000D01*
D56*
X125830000Y-187108546D02*
X125830000Y-185890000D01*
X126310000Y-188820000D02*
X126310000Y-187588546D01*
D52*
X125930000Y-185790000D02*
X127060000Y-184660000D01*
D53*
%TO.N,/Charger/IPS_OUT*%
X117650000Y-184300000D02*
X117180000Y-184770000D01*
D51*
X186505500Y-157070000D02*
X185715000Y-157070000D01*
D53*
X117740000Y-186900000D02*
X118070000Y-186900000D01*
D52*
X118834992Y-184300012D02*
X117650006Y-184300012D01*
D53*
X117180000Y-186340000D02*
X117740000Y-186900000D01*
D57*
X118070000Y-186900000D02*
X118070000Y-187620000D01*
D56*
X124310000Y-194820000D02*
X124310000Y-195990000D01*
X130530000Y-196670000D02*
X130565000Y-196705000D01*
X127750078Y-187845076D02*
X127510000Y-188085154D01*
X127290000Y-195900000D02*
X127290000Y-195662222D01*
X118605000Y-194185000D02*
X119460000Y-193330000D01*
X127510000Y-188085154D02*
X127510000Y-188820000D01*
D53*
X117180000Y-184770000D02*
X117180000Y-186340000D01*
D56*
X127510000Y-195442222D02*
X127510000Y-194820000D01*
X130565000Y-196705000D02*
X131815000Y-196705000D01*
X118069995Y-188340009D02*
X119060011Y-188340009D01*
X130435417Y-189716805D02*
X129732222Y-190420000D01*
X127290000Y-195662222D02*
X127510000Y-195442222D01*
X130435417Y-188955417D02*
X130435417Y-189716805D01*
X124310000Y-195990000D02*
X124330000Y-196010000D01*
X129732222Y-190420000D02*
X129510000Y-190420000D01*
X125153500Y-186945010D02*
X125910000Y-187701510D01*
X125153500Y-186660000D02*
X125153500Y-186945010D01*
D57*
X118070000Y-188340000D02*
X118060000Y-188350000D01*
D56*
X125910000Y-187701510D02*
X125910000Y-188820000D01*
D57*
X118070000Y-187620000D02*
X118070000Y-188340000D01*
D56*
X130132222Y-190020000D02*
X129510000Y-190020000D01*
D51*
%TO.N,GND*%
X170712993Y-159097007D02*
X170720000Y-159090000D01*
X173530000Y-196720000D02*
X172300000Y-195490000D01*
X175913000Y-197160000D02*
X175913000Y-197697000D01*
X171112993Y-162677007D02*
X171170000Y-162620000D01*
X171113000Y-194080000D02*
X171113000Y-194853000D01*
X174720000Y-197900000D02*
X174720000Y-197250000D01*
X159113000Y-194626816D02*
X159113000Y-194080000D01*
X162870570Y-197900000D02*
X163960000Y-197900000D01*
X119535000Y-198215000D02*
X121112500Y-198215000D01*
X158196666Y-194866666D02*
X157912993Y-194582993D01*
X162610000Y-193310000D02*
X163700000Y-193310000D01*
X165512993Y-160997007D02*
X165510000Y-161000000D01*
X173112993Y-163240001D02*
X173112993Y-162587007D01*
X165601418Y-162598582D02*
X167111418Y-162598582D01*
X165120000Y-195310000D02*
X165120000Y-195410011D01*
X175850000Y-162550000D02*
X177005414Y-162550000D01*
X162996170Y-164070000D02*
X164250000Y-164070000D01*
X199780000Y-114600000D02*
X199810000Y-114570000D01*
D58*
X130080000Y-161100000D02*
X128156511Y-163023489D01*
D51*
X159061404Y-194678412D02*
X159113000Y-194626816D01*
X133630000Y-199050000D02*
X133870000Y-198810000D01*
X173530000Y-197930000D02*
X173530000Y-196720000D01*
X165450000Y-164070000D02*
X165520000Y-164000000D01*
X173080000Y-162620000D02*
X173150000Y-162550000D01*
X170712993Y-160160001D02*
X170712993Y-159097007D01*
X165879816Y-195060000D02*
X166313000Y-194626816D01*
X166119822Y-197900000D02*
X165090000Y-197900000D01*
X158196666Y-194871313D02*
X158196666Y-194866666D01*
X158018410Y-196561590D02*
X157920000Y-196660000D01*
X140180000Y-167645000D02*
X140180000Y-169690000D01*
X186680000Y-190700000D02*
X188090000Y-192110000D01*
X175320000Y-164590000D02*
X175320000Y-165330000D01*
X162712993Y-194080001D02*
X162712993Y-193412993D01*
X175913000Y-197697000D02*
X175690000Y-197920000D01*
X175016210Y-159543790D02*
X175400000Y-159160000D01*
D58*
X194070000Y-134860000D02*
X194318022Y-134860000D01*
D51*
X162870570Y-197900000D02*
X162713000Y-197742430D01*
X172712993Y-159152993D02*
X172712993Y-160160001D01*
X157920000Y-196660000D02*
X157920000Y-197070000D01*
X159180000Y-199150000D02*
X157930000Y-197900000D01*
D58*
X128156511Y-163023489D02*
X128156511Y-164911966D01*
D51*
X172893166Y-164006650D02*
X173112993Y-163786823D01*
X172712993Y-158902993D02*
X172712993Y-159152993D01*
X135520000Y-196670000D02*
X136266580Y-197416580D01*
X175912993Y-162612993D02*
X175850000Y-162550000D01*
X165120000Y-195410011D02*
X165113000Y-195417011D01*
X172290000Y-194860000D02*
X173320000Y-194860000D01*
X163913000Y-197160000D02*
X163913000Y-197853000D01*
D58*
X191020000Y-143085000D02*
X192605000Y-143085000D01*
D51*
X173150000Y-162550000D02*
X174760000Y-162550000D01*
X165510000Y-161000000D02*
X166470000Y-161000000D01*
X169913000Y-194080000D02*
X169913000Y-194513000D01*
X168713000Y-198047000D02*
X168690000Y-198070000D01*
X140260000Y-169770000D02*
X140260000Y-171200000D01*
X169890000Y-196420000D02*
X170960000Y-195350000D01*
X133495000Y-195130000D02*
X133495000Y-193625000D01*
X172313000Y-197706822D02*
X172536178Y-197930000D01*
D58*
X128156511Y-164911966D02*
X128734663Y-165490118D01*
D51*
X141310000Y-177920000D02*
X141320000Y-177910000D01*
X166220000Y-193330000D02*
X166320000Y-193430000D01*
X138190000Y-184410000D02*
X138780000Y-183820000D01*
D58*
X130370000Y-174900000D02*
X132010000Y-173260000D01*
D51*
X174746782Y-159543790D02*
X175016210Y-159543790D01*
X172290000Y-195480000D02*
X172300000Y-195490000D01*
X133425000Y-196670000D02*
X133425000Y-195115000D01*
X164250000Y-164070000D02*
X165450000Y-164070000D01*
X167510000Y-197920000D02*
X167510000Y-197210000D01*
X157912993Y-194582993D02*
X157912993Y-194080001D01*
X175690000Y-197920000D02*
X174740000Y-197920000D01*
X160312993Y-198763886D02*
X159926879Y-199150000D01*
X165316178Y-193330000D02*
X166220000Y-193330000D01*
X169890000Y-198070000D02*
X169890000Y-196420000D01*
X172970000Y-167342189D02*
X172893166Y-167265355D01*
X141200000Y-165420000D02*
X140245000Y-165420000D01*
X163112993Y-160160001D02*
X163112993Y-160992993D01*
X174712993Y-163240001D02*
X174712993Y-162597007D01*
X162592579Y-193327421D02*
X162610000Y-193310000D01*
X139165000Y-172640000D02*
X140220000Y-172640000D01*
X159120000Y-197020000D02*
X159120000Y-196620186D01*
X176323461Y-159167111D02*
X175920000Y-159570572D01*
X167111418Y-162598582D02*
X169018396Y-162598582D01*
X159120000Y-196620186D02*
X159061404Y-196561590D01*
X157912993Y-164367007D02*
X156660000Y-165620000D01*
X160230000Y-192730000D02*
X160230000Y-192970000D01*
X136065000Y-164205000D02*
X136065000Y-162755000D01*
X165512993Y-160160001D02*
X165512993Y-160997007D01*
X140220000Y-172640000D02*
X140245000Y-172615000D01*
X173530000Y-197930000D02*
X172536178Y-197930000D01*
X135840000Y-195535000D02*
X135425000Y-195120000D01*
X167112993Y-163240001D02*
X167112993Y-162672993D01*
X163130000Y-161010000D02*
X164290000Y-161010000D01*
X161513000Y-193533186D02*
X161513000Y-194080000D01*
X140580000Y-175110000D02*
X141450000Y-175980000D01*
X167660000Y-198070000D02*
X167510000Y-197920000D01*
X174712993Y-160160001D02*
X174712993Y-159577579D01*
X160312993Y-193533179D02*
X160312993Y-194080001D01*
D52*
X192620000Y-151240000D02*
X192240000Y-150860000D01*
D51*
X165601418Y-162598582D02*
X165530000Y-162670000D01*
X168690000Y-198070000D02*
X167660000Y-198070000D01*
X160230000Y-192970000D02*
X160580000Y-193320000D01*
X165512993Y-163240001D02*
X165512993Y-164012993D01*
X164290000Y-160685986D02*
X164290000Y-161010000D01*
X172893166Y-167265355D02*
X172893166Y-164006650D01*
X165090000Y-197900000D02*
X163960000Y-197900000D01*
X172290000Y-194860000D02*
X172290000Y-195480000D01*
X140145000Y-177920000D02*
X141310000Y-177920000D01*
X175910000Y-194160000D02*
X175910000Y-195150000D01*
X130240000Y-174900000D02*
X129580000Y-175560000D01*
X158389567Y-194678412D02*
X159061404Y-194678412D01*
X166712993Y-158632993D02*
X166710000Y-158630000D01*
X141460000Y-162220000D02*
X140755000Y-162220000D01*
X166313000Y-194626816D02*
X166313000Y-194080000D01*
X140195000Y-167630000D02*
X140195000Y-165445000D01*
X133425000Y-196670000D02*
X135520000Y-196670000D01*
D58*
X194318022Y-134860000D02*
X194860000Y-135401978D01*
D51*
X165500000Y-161010000D02*
X165510000Y-161000000D01*
X157912993Y-197160001D02*
X157912993Y-197882993D01*
X174712993Y-194080001D02*
X174712993Y-192027007D01*
X162713000Y-197742430D02*
X162713000Y-197160000D01*
X174712993Y-162597007D02*
X174760000Y-162550000D01*
X136266580Y-198336580D02*
X136530000Y-198600000D01*
X173500000Y-194680000D02*
X173500000Y-194100000D01*
X165113000Y-193533178D02*
X165316178Y-193330000D01*
X136065000Y-165590000D02*
X136065000Y-164205000D01*
X128744545Y-165500000D02*
X128734663Y-165490118D01*
D58*
X197785000Y-143150000D02*
X198940000Y-143150000D01*
D51*
X174720000Y-197900000D02*
X174690000Y-197930000D01*
X130370000Y-174900000D02*
X130240000Y-174900000D01*
X160580000Y-193320000D02*
X161299814Y-193320000D01*
X139175000Y-187630000D02*
X139175000Y-185543920D01*
X161512993Y-197160001D02*
X161512993Y-197592993D01*
X170712993Y-159097007D02*
X172657007Y-159097007D01*
X165630000Y-195060000D02*
X165370000Y-195060000D01*
X135425000Y-195120000D02*
X133590000Y-195120000D01*
X171112993Y-163240001D02*
X171112993Y-162677007D01*
X166712993Y-160160001D02*
X166712993Y-158632993D01*
D58*
X193680000Y-143160000D02*
X193690000Y-143170000D01*
D51*
X188570000Y-191630000D02*
X188090000Y-192110000D01*
D58*
X192790000Y-132700000D02*
X195035000Y-132700000D01*
D51*
X177005414Y-162550000D02*
X177130000Y-162674586D01*
X163112993Y-160992993D02*
X163130000Y-161010000D01*
X164290000Y-161010000D02*
X165500000Y-161010000D01*
X119460000Y-198290000D02*
X119535000Y-198215000D01*
X199780000Y-115537500D02*
X199780000Y-114600000D01*
X201180000Y-145215720D02*
X200744280Y-144780000D01*
X169890000Y-198070000D02*
X168690000Y-198070000D01*
X164312993Y-163240001D02*
X164312993Y-164007007D01*
X174690000Y-197930000D02*
X173530000Y-197930000D01*
X161299814Y-193320000D02*
X161513000Y-193533186D01*
X171113000Y-197706822D02*
X170749822Y-198070000D01*
X165113000Y-194080000D02*
X165113000Y-193533178D01*
X164312993Y-160662993D02*
X164290000Y-160685986D01*
X138190000Y-184558920D02*
X138190000Y-184410000D01*
X174740000Y-197920000D02*
X174720000Y-197900000D01*
X165630000Y-195060000D02*
X165879816Y-195060000D01*
X168712993Y-159397007D02*
X169020000Y-159090000D01*
X161820000Y-197900000D02*
X162870570Y-197900000D01*
X160570000Y-193310000D02*
X160587421Y-193327421D01*
X169112993Y-163240001D02*
X169112993Y-162693179D01*
X157912993Y-163240001D02*
X157912993Y-164367007D01*
X135840000Y-195950000D02*
X135840000Y-195535000D01*
X159061404Y-196561590D02*
X158018410Y-196561590D01*
X166313000Y-197706822D02*
X166119822Y-197900000D01*
X159926879Y-199150000D02*
X159180000Y-199150000D01*
X139175000Y-185543920D02*
X138190000Y-184558920D01*
X169913000Y-194513000D02*
X170260000Y-194860000D01*
X201180000Y-146420000D02*
X201180000Y-145215720D01*
X175912993Y-163997007D02*
X175320000Y-164590000D01*
X177110000Y-159167111D02*
X177112993Y-159170104D01*
X177130000Y-162674586D02*
X177130000Y-163150000D01*
X165370000Y-195060000D02*
X165120000Y-195310000D01*
X174712993Y-159577579D02*
X174746782Y-159543790D01*
X174712993Y-192027007D02*
X174980000Y-191760000D01*
X136266580Y-197416580D02*
X136266580Y-198336580D01*
X163890000Y-193500000D02*
X163890000Y-194060000D01*
D58*
X194860000Y-135401978D02*
X194860000Y-135880000D01*
D51*
X166313000Y-197160000D02*
X166313000Y-197706822D01*
D56*
X127910000Y-196260000D02*
X127910000Y-194820000D01*
D51*
X173112993Y-163786823D02*
X173112993Y-163240001D01*
X163913000Y-197853000D02*
X163960000Y-197900000D01*
X162712993Y-163240001D02*
X162712993Y-163786823D01*
X172313000Y-197160000D02*
X172313000Y-197706822D01*
X175280000Y-166125000D02*
X175280000Y-165190000D01*
X189800000Y-191630000D02*
X188570000Y-191630000D01*
X121112500Y-198215000D02*
X121967500Y-199070000D01*
X166320000Y-193430000D02*
X166320000Y-194020000D01*
D56*
X128040000Y-196390000D02*
X127910000Y-196260000D01*
D51*
X171113000Y-197160000D02*
X171113000Y-197706822D01*
D52*
X193670000Y-152290000D02*
X192620000Y-151240000D01*
D51*
X177110000Y-159167111D02*
X176323461Y-159167111D01*
X169112993Y-162693179D02*
X169018396Y-162598582D01*
X172320000Y-194830000D02*
X172290000Y-194860000D01*
X135320000Y-176280000D02*
X135320000Y-178115000D01*
X129580000Y-175560000D02*
X129580000Y-176810000D01*
X170260000Y-194860000D02*
X171120000Y-194860000D01*
X121840000Y-171125000D02*
X121840000Y-170050000D01*
X140245000Y-172615000D02*
X140245000Y-175095000D01*
X168713000Y-197160000D02*
X168713000Y-198047000D01*
X173320000Y-194860000D02*
X173500000Y-194680000D01*
X166730000Y-160740000D02*
X166730000Y-160130000D01*
D58*
X197600000Y-143205000D02*
X195855000Y-143205000D01*
D51*
X175912993Y-163240001D02*
X175912993Y-163997007D01*
X175920000Y-159570572D02*
X175920000Y-160030000D01*
X174760000Y-162550000D02*
X175850000Y-162550000D01*
X175912993Y-163240001D02*
X175912993Y-162612993D01*
X163700000Y-193310000D02*
X163890000Y-193500000D01*
X164312993Y-160160001D02*
X164312993Y-160662993D01*
X164312993Y-164007007D02*
X164250000Y-164070000D01*
X165113000Y-197877000D02*
X165090000Y-197900000D01*
D58*
X192680000Y-143160000D02*
X193680000Y-143160000D01*
D51*
X171113000Y-194853000D02*
X171120000Y-194860000D01*
D58*
X192590000Y-132500000D02*
X192790000Y-132700000D01*
D51*
X140245000Y-171215000D02*
X140245000Y-172615000D01*
X160520000Y-193326172D02*
X160312993Y-193533179D01*
X172350000Y-158540000D02*
X172712993Y-158902993D01*
X132977500Y-199050000D02*
X133630000Y-199050000D01*
X175400000Y-159160000D02*
X176450000Y-159160000D01*
X165113000Y-195417011D02*
X165113000Y-197877000D01*
X130335000Y-161100000D02*
X131670000Y-162435000D01*
X162712993Y-163786823D02*
X162996170Y-164070000D01*
X162712993Y-193412993D02*
X162610000Y-193310000D01*
X140260000Y-171200000D02*
X140245000Y-171215000D01*
X170749822Y-198070000D02*
X169890000Y-198070000D01*
X165530000Y-162670000D02*
X165530000Y-163270000D01*
X130255000Y-165500000D02*
X128744545Y-165500000D01*
X172320000Y-194087000D02*
X172320000Y-194830000D01*
X169020000Y-159090000D02*
X170720000Y-159090000D01*
X158196666Y-194871313D02*
X158389567Y-194678412D01*
X141900000Y-162660000D02*
X141460000Y-162220000D01*
X168712993Y-160160001D02*
X168712993Y-159397007D01*
X177112993Y-159170104D02*
X177112993Y-160160001D01*
X160312993Y-197160001D02*
X160312993Y-198763886D01*
X141230000Y-165450000D02*
X141200000Y-165420000D01*
X157912993Y-197882993D02*
X157930000Y-197900000D01*
X171170000Y-162620000D02*
X173080000Y-162620000D01*
X166470000Y-161000000D02*
X166730000Y-160740000D01*
X121840000Y-170050000D02*
X121850000Y-170040000D01*
X172657007Y-159097007D02*
X172712993Y-159152993D01*
X160587421Y-193327421D02*
X162592579Y-193327421D01*
X161512993Y-197592993D02*
X161820000Y-197900000D01*
X171120000Y-194860000D02*
X172290000Y-194860000D01*
D56*
%TO.N,Net-(C5-Pad2)*%
X123510000Y-194020000D02*
X122670000Y-194860000D01*
X122670000Y-196900000D02*
X123430000Y-197660000D01*
X122670000Y-194860000D02*
X122670000Y-196900000D01*
%TO.N,Net-(C6-Pad2)*%
X122490000Y-193610000D02*
X123480000Y-193610000D01*
X121575000Y-195880000D02*
X121575000Y-194525000D01*
X121575000Y-194525000D02*
X122490000Y-193610000D01*
D51*
%TO.N,Net-(C7-Pad2)*%
X127110000Y-187107457D02*
X127110000Y-188820000D01*
X126915127Y-186912584D02*
X127110000Y-187107457D01*
X130676566Y-187434378D02*
X131360944Y-186750000D01*
%TO.N,Net-(C8-Pad2)*%
X129510000Y-193220000D02*
X130550000Y-193220000D01*
X130950000Y-193620000D02*
X131790000Y-193620000D01*
X130550000Y-193220000D02*
X130950000Y-193620000D01*
X129510000Y-193620000D02*
X130950000Y-193620000D01*
D56*
%TO.N,Net-(C9-Pad2)*%
X128710000Y-194820000D02*
X128710000Y-195260000D01*
X131510000Y-195720000D02*
X131920000Y-195310000D01*
X128710000Y-195260000D02*
X129170000Y-195720000D01*
X129170000Y-195720000D02*
X131510000Y-195720000D01*
D57*
%TO.N,/Power/IPS_SW*%
X120485002Y-184949998D02*
X121749998Y-184949998D01*
D59*
X121690000Y-181330000D02*
X121690000Y-184890001D01*
X121690000Y-184890001D02*
X121760005Y-184960006D01*
D51*
%TO.N,+5V*%
X141750011Y-186500000D02*
X141750011Y-186604989D01*
D54*
X116900000Y-175180000D02*
X116810000Y-175090000D01*
D59*
X142515922Y-185734089D02*
X141750011Y-186500000D01*
X117787511Y-174292489D02*
X117787511Y-160452489D01*
D51*
X160712993Y-160160001D02*
X160712993Y-159057007D01*
D59*
X185310000Y-191930000D02*
X179114089Y-185734089D01*
D54*
X116810000Y-175090000D02*
X111580000Y-175090000D01*
D51*
X160712993Y-159037007D02*
X160712993Y-159057007D01*
D59*
X117787511Y-160452489D02*
X119097510Y-159142490D01*
D51*
X161810000Y-158550000D02*
X161912993Y-158652993D01*
X160312993Y-160160001D02*
X160312993Y-159457007D01*
D59*
X156600000Y-158370000D02*
X161400000Y-158370000D01*
X185310000Y-192010000D02*
X185320000Y-192020000D01*
D51*
X140725000Y-187630000D02*
X140725000Y-189275000D01*
X195269758Y-156836580D02*
X194093420Y-156836580D01*
D59*
X194460000Y-193280000D02*
X194460000Y-191160000D01*
D52*
X193980000Y-190680000D02*
X194460000Y-191160000D01*
D51*
X161112993Y-160160001D02*
X161112993Y-158652993D01*
X195273178Y-156840000D02*
X195269758Y-156836580D01*
D59*
X179114089Y-185734089D02*
X142515922Y-185734089D01*
D54*
X111580000Y-175090000D02*
X110400000Y-176270000D01*
D51*
X161912993Y-158652993D02*
X161912993Y-160160001D01*
D59*
X192770000Y-194970000D02*
X194460000Y-193280000D01*
X119097510Y-159142490D02*
X155827510Y-159142490D01*
D51*
X141750011Y-186604989D02*
X140725000Y-187630000D01*
X159912993Y-159857007D02*
X160312993Y-159457007D01*
X161810000Y-158550000D02*
X161200000Y-158550000D01*
X196700000Y-137310000D02*
X196700000Y-132680000D01*
X198130000Y-157018400D02*
X199426600Y-157018400D01*
D59*
X186140000Y-194970000D02*
X192770000Y-194970000D01*
D51*
X194093420Y-156836580D02*
X193370000Y-157560000D01*
X198390000Y-132640000D02*
X198330000Y-132700000D01*
X197951600Y-156840000D02*
X195273178Y-156840000D01*
X195930000Y-138080000D02*
X196700000Y-137310000D01*
D59*
X185320000Y-192020000D02*
X185320000Y-194150000D01*
X116900000Y-175180000D02*
X117787511Y-174292489D01*
X155827510Y-159142490D02*
X156600000Y-158370000D01*
X185310000Y-192010000D02*
X185310000Y-191930000D01*
D52*
X192000000Y-190680000D02*
X193980000Y-190680000D01*
D51*
X161512993Y-160160001D02*
X161512993Y-158550000D01*
X161200000Y-158550000D02*
X160712993Y-159037007D01*
X198330000Y-132700000D02*
X196585000Y-132700000D01*
X160312993Y-159457007D02*
X160712993Y-159057007D01*
X159912993Y-160160001D02*
X159912993Y-159857007D01*
X198130000Y-157018400D02*
X197951600Y-156840000D01*
D59*
X185320000Y-194150000D02*
X186140000Y-194970000D01*
D51*
X199426600Y-157018400D02*
X200505000Y-155940000D01*
%TO.N,+3.3v*%
X160660000Y-163760000D02*
X160720000Y-163700000D01*
D58*
X138470000Y-171790000D02*
X138470000Y-174800000D01*
D51*
X200140000Y-167170000D02*
X200140000Y-163360000D01*
D58*
X131170000Y-168493882D02*
X131170000Y-169200000D01*
X137120924Y-171760000D02*
X136770924Y-172110000D01*
X134480000Y-166940000D02*
X134670000Y-167130000D01*
X134515000Y-166905000D02*
X134515000Y-165590000D01*
D51*
X202875000Y-151100000D02*
X204450000Y-151100000D01*
D58*
X130169158Y-167493040D02*
X130169158Y-169150570D01*
X134670000Y-167130000D02*
X134670000Y-169162500D01*
D51*
X134580000Y-162320000D02*
X134580000Y-162730000D01*
D58*
X131160012Y-175047504D02*
X131160012Y-177680012D01*
D51*
X160312993Y-163240001D02*
X160312993Y-163702993D01*
D58*
X160720000Y-165610000D02*
X158870000Y-167460000D01*
D51*
X134880000Y-164120000D02*
X134880000Y-165300000D01*
D58*
X134420000Y-179150000D02*
X137470000Y-179150000D01*
X136930000Y-166980000D02*
X136930000Y-169460000D01*
D51*
X204460000Y-146450000D02*
X204470000Y-146440000D01*
D57*
X139420000Y-170780000D02*
X139420000Y-167080000D01*
D51*
X200863420Y-167893420D02*
X200863420Y-175276580D01*
D57*
X139420000Y-167080000D02*
X139394831Y-167054831D01*
D58*
X134480000Y-166940000D02*
X134515000Y-166905000D01*
D51*
X161720000Y-162560000D02*
X161930000Y-162770000D01*
D58*
X133665000Y-178395000D02*
X134420000Y-179150000D01*
X137470000Y-179150000D02*
X138700000Y-177920000D01*
X128118400Y-167493040D02*
X130169158Y-167493040D01*
D51*
X160370000Y-163760000D02*
X160660000Y-163760000D01*
X160720000Y-165440000D02*
X160700000Y-165420000D01*
D58*
X130980000Y-169961412D02*
X130980000Y-171920000D01*
X136930000Y-169460000D02*
X136280000Y-170110000D01*
D51*
X161930000Y-162770000D02*
X161930000Y-163170000D01*
D58*
X136770924Y-172110000D02*
X136097500Y-172110000D01*
X138595000Y-177920000D02*
X138595000Y-175065000D01*
D51*
X160712993Y-162827007D02*
X160980000Y-162560000D01*
X200140000Y-163360000D02*
X201090000Y-162410000D01*
X139050000Y-162220000D02*
X138130000Y-161300000D01*
X200140000Y-167170000D02*
X200863420Y-167893420D01*
D58*
X131770000Y-178290000D02*
X133650000Y-178290000D01*
D51*
X204450000Y-151100000D02*
X204470000Y-151120000D01*
X133650000Y-176280000D02*
X133665000Y-176295000D01*
X202235000Y-157560000D02*
X204410000Y-157560000D01*
X201090000Y-162410000D02*
X204470000Y-162410000D01*
D58*
X160720000Y-165440000D02*
X160720000Y-165610000D01*
X130169158Y-169150570D02*
X130980000Y-169961412D01*
D51*
X135600000Y-161300000D02*
X134580000Y-162320000D01*
X134880000Y-165300000D02*
X134515000Y-165665000D01*
X133660000Y-176270000D02*
X133660000Y-175047500D01*
D58*
X131160012Y-177680012D02*
X131770000Y-178290000D01*
D51*
X133650000Y-176280000D02*
X133660000Y-176270000D01*
D58*
X138440000Y-171760000D02*
X137120924Y-171760000D01*
X134670000Y-169162500D02*
X134660000Y-169172500D01*
D51*
X134515000Y-163755000D02*
X134880000Y-164120000D01*
X130095000Y-162700000D02*
X130095000Y-163245000D01*
D57*
X138440000Y-171760000D02*
X139420000Y-170780000D01*
D51*
X130605000Y-163755000D02*
X134515000Y-163755000D01*
X200863420Y-175276580D02*
X199760000Y-176380000D01*
X160720000Y-163700000D02*
X160720000Y-163230000D01*
X160712993Y-163240001D02*
X160712993Y-162827007D01*
X160700000Y-165420000D02*
X160700000Y-163720000D01*
X204420000Y-148790000D02*
X204470000Y-148840000D01*
X202725000Y-146450000D02*
X204460000Y-146450000D01*
D58*
X130790000Y-172110000D02*
X130350000Y-172110000D01*
D51*
X138130000Y-161300000D02*
X135600000Y-161300000D01*
D58*
X130980000Y-171920000D02*
X130790000Y-172110000D01*
D51*
X160312993Y-163702993D02*
X160370000Y-163760000D01*
D58*
X130169158Y-167493040D02*
X131170000Y-168493882D01*
D51*
X202775000Y-148790000D02*
X204420000Y-148790000D01*
X134515000Y-162720000D02*
X134515000Y-163755000D01*
X133665000Y-176295000D02*
X133665000Y-178220000D01*
X204410000Y-157560000D02*
X204470000Y-157500000D01*
X160751589Y-165471589D02*
X160720000Y-165440000D01*
X130095000Y-163245000D02*
X130605000Y-163755000D01*
X160980000Y-162560000D02*
X161720000Y-162560000D01*
D58*
X138440000Y-171760000D02*
X138470000Y-171790000D01*
D51*
%TO.N,/CM4_GPIO/GPIO_IRQ*%
X150460000Y-162000000D02*
X165947042Y-162000000D01*
X139937680Y-183192680D02*
X139937680Y-180987680D01*
X141610000Y-183660000D02*
X141540000Y-183730000D01*
X167112993Y-160834049D02*
X165947042Y-162000000D01*
X139937680Y-180987680D02*
X138640000Y-179690000D01*
X167112993Y-160160001D02*
X167112993Y-160834049D01*
X150460000Y-162000000D02*
X149590000Y-162870000D01*
X140475000Y-183730000D02*
X139937680Y-183192680D01*
X141540000Y-183730000D02*
X140475000Y-183730000D01*
%TO.N,/CM4_GPIO/SD_PWR*%
X197580000Y-115776239D02*
X198380000Y-116576239D01*
X201140000Y-133430000D02*
X200400000Y-134170000D01*
X198380000Y-116576239D02*
X198627373Y-116576239D01*
X198627373Y-116576239D02*
X201140000Y-119088866D01*
X201140000Y-119088866D02*
X201140000Y-133430000D01*
D52*
%TO.N,/CM4_HighSpeed/HDMI_5v*%
X189810000Y-189680000D02*
X189810000Y-190630000D01*
X183466548Y-187720000D02*
X187850000Y-187720000D01*
X187850000Y-187720000D02*
X189810000Y-189680000D01*
D51*
X187925000Y-190700000D02*
X189720000Y-190700000D01*
%TO.N,Net-(C23-Pad1)*%
X132660000Y-169172500D02*
X132660000Y-168330000D01*
X124950000Y-168450000D02*
X124950000Y-170230000D01*
X130987320Y-166657320D02*
X126742680Y-166657320D01*
X122125000Y-172960000D02*
X124880000Y-172960000D01*
X132660000Y-168330000D02*
X130987320Y-166657320D01*
X126742680Y-166657320D02*
X124950000Y-168450000D01*
%TO.N,Net-(C24-Pad1)*%
X133140000Y-168330000D02*
X133140000Y-169090000D01*
X127280000Y-166320000D02*
X131130000Y-166320000D01*
X128830000Y-161080000D02*
X126940000Y-161080000D01*
X125240000Y-164280000D02*
X127280000Y-166320000D01*
X131130000Y-166320000D02*
X133140000Y-168330000D01*
X126940000Y-161080000D02*
X125440000Y-162580000D01*
D52*
%TO.N,/USB Hub/VBUS*%
X195550000Y-184500000D02*
X164770000Y-184500000D01*
D58*
X193655001Y-141540000D02*
X194360000Y-141540000D01*
D52*
X164770000Y-184500000D02*
X142570000Y-184500000D01*
D58*
X195100000Y-137068022D02*
X195890000Y-136278022D01*
X194330000Y-130570000D02*
X194490000Y-130570000D01*
X197600000Y-141655000D02*
X195955000Y-141655000D01*
X194360000Y-141540000D02*
X195824999Y-141540000D01*
X191020000Y-141535000D02*
X192695000Y-141535000D01*
D52*
X142570000Y-184500000D02*
X142440000Y-184370000D01*
X199030000Y-181020000D02*
X195550000Y-184500000D01*
D58*
X195100000Y-140770000D02*
X195100000Y-137068022D01*
X195870000Y-141540000D02*
X195100000Y-140770000D01*
X192640001Y-141534998D02*
X193664992Y-141534998D01*
X194490000Y-130570000D02*
X195810000Y-131890000D01*
X193980000Y-145030000D02*
X194360000Y-144650000D01*
X195810000Y-131890000D02*
X195810000Y-135880000D01*
X193980000Y-147390000D02*
X193980000Y-145030000D01*
D52*
X199090000Y-147260000D02*
X193940000Y-147260000D01*
D58*
X194360000Y-144650000D02*
X194360000Y-141540000D01*
D51*
%TO.N,/AC_IN*%
X130260000Y-191220000D02*
X130850000Y-190630000D01*
X129510000Y-190820000D02*
X130660000Y-190820000D01*
X130260000Y-191220000D02*
X129510000Y-191220000D01*
%TO.N,/Battery/5V_OVR*%
X118160000Y-178090000D02*
X118160000Y-179695000D01*
X118835000Y-185600000D02*
X118835000Y-186215000D01*
X118835000Y-186215000D02*
X118970000Y-186350000D01*
X118160000Y-179695000D02*
X118635000Y-180170000D01*
%TO.N,/CM4_GPIO/GPIO_PB1*%
X198280000Y-169390000D02*
X198850000Y-168820000D01*
X198280000Y-174520000D02*
X198280000Y-169390000D01*
X198850000Y-168820000D02*
X200140000Y-168820000D01*
X165400000Y-164680000D02*
X166312993Y-163767007D01*
X166312993Y-163767007D02*
X166312993Y-163240001D01*
X164080000Y-164680000D02*
X165400000Y-164680000D01*
X199940000Y-170910000D02*
X199940000Y-168880000D01*
X160161600Y-176060000D02*
X160310000Y-175911600D01*
X160310000Y-175911600D02*
X160310000Y-168450000D01*
X198140000Y-174660000D02*
X198280000Y-174520000D01*
X160310000Y-168450000D02*
X164080000Y-164680000D01*
%TO.N,/Battery/PB_IN*%
X124710000Y-188820000D02*
X124710000Y-188190000D01*
X124710000Y-188190000D02*
X123980000Y-187460000D01*
X202000000Y-171860000D02*
X202960000Y-172820000D01*
D49*
%TO.N,/CM4_GPIO/SD_DAT1*%
X201980000Y-115537500D02*
X201980000Y-117090000D01*
X201980000Y-117090000D02*
X201920000Y-117150000D01*
X163806787Y-158619189D02*
X163912993Y-158725395D01*
X163912993Y-158725395D02*
X163912993Y-160160001D01*
D56*
%TO.N,/CM4_GPIO/SD_DAT0*%
X164712993Y-158942993D02*
X164712993Y-160160001D01*
X164300000Y-157430000D02*
X164471817Y-157601817D01*
X164471817Y-158701817D02*
X164712993Y-158942993D01*
X164471817Y-157601817D02*
X164471817Y-158701817D01*
X200850000Y-117290000D02*
X200850000Y-115760000D01*
%TO.N,/CM4_GPIO/SD_CLK*%
X165662982Y-158040000D02*
X165912993Y-158290011D01*
X200309793Y-116881448D02*
X199666126Y-116881448D01*
X165912993Y-158290011D02*
X165912993Y-160160001D01*
X199666126Y-116881448D02*
X198730000Y-115945322D01*
D51*
%TO.N,/CM4_GPIO/SD_CMD*%
X200220000Y-118691066D02*
X198723823Y-117194889D01*
X165112993Y-162665450D02*
X165112993Y-163240001D01*
X164951532Y-162503989D02*
X165112993Y-162665450D01*
X198723823Y-117194889D02*
X197854889Y-117194889D01*
X197854889Y-117194889D02*
X196400000Y-115740000D01*
X200220000Y-119141800D02*
X200220000Y-118691066D01*
D56*
%TO.N,/CM4_GPIO/SD_DAT3*%
X164930000Y-156936200D02*
X164852337Y-157013863D01*
X198510000Y-117711100D02*
X197195778Y-117711100D01*
X197195778Y-117711100D02*
X195380000Y-115895322D01*
X164852337Y-157013863D02*
X164852337Y-158544201D01*
X164852337Y-158544201D02*
X165134082Y-158825946D01*
X165134082Y-158825946D02*
X165134082Y-160090000D01*
%TO.N,/CM4_GPIO/SD_DAT2*%
X162960000Y-157830000D02*
X162960000Y-158686849D01*
X162960000Y-158686849D02*
X163512993Y-159239842D01*
X192008628Y-116841421D02*
X192291470Y-117124263D01*
X194270000Y-115570000D02*
X193140000Y-116700000D01*
X191950459Y-119629541D02*
X191950459Y-123388989D01*
X191950459Y-119579541D02*
X191950459Y-119629541D01*
X191950459Y-117930459D02*
X191950459Y-118379541D01*
X163512993Y-159239842D02*
X163512993Y-160160001D01*
X191650459Y-118679541D02*
X191608981Y-118679541D01*
X191930000Y-117910000D02*
X192291471Y-117548527D01*
X192715735Y-116700000D02*
X192432892Y-116417157D01*
X191930000Y-117910000D02*
X191950459Y-117930459D01*
X191608981Y-119279541D02*
X191650459Y-119279541D01*
X192008629Y-116841420D02*
G75*
G02*
X192008629Y-116417158I212131J212131D01*
G01*
X192715734Y-116700000D02*
G75*
G03*
X193140000Y-116700000I212133J212134D01*
G01*
X191950459Y-119579541D02*
G75*
G03*
X191650459Y-119279541I-300000J0D01*
G01*
X191308981Y-118979541D02*
G75*
G02*
X191608981Y-118679541I300000J0D01*
G01*
X191608981Y-119279541D02*
G75*
G02*
X191308981Y-118979541I0J300000D01*
G01*
X192291469Y-117548526D02*
G75*
G03*
X192291469Y-117124264I-212131J212131D01*
G01*
X191650459Y-118679541D02*
G75*
G03*
X191950459Y-118379541I0J300000D01*
G01*
X192008629Y-116417158D02*
G75*
G02*
X192432891Y-116417158I212131J-212131D01*
G01*
D60*
%TO.N,/CM4_HighSpeed/HDMI0_HOTPLUG*%
X164780000Y-191240000D02*
X166730000Y-193190000D01*
X166730000Y-193190000D02*
X166730000Y-193821404D01*
D49*
%TO.N,/CM4_HighSpeed/HDMI0_SDA*%
X158725000Y-192045000D02*
X158725000Y-192059695D01*
X181984899Y-192064899D02*
X181984899Y-190124899D01*
X181990000Y-192070000D02*
X181984899Y-192064899D01*
X161270000Y-189500000D02*
X160055000Y-190715000D01*
X158725000Y-192059695D02*
X157510000Y-193274695D01*
X181360000Y-189500000D02*
X161270000Y-189500000D01*
X157510000Y-193274695D02*
X157510000Y-193942108D01*
X181984899Y-190124899D02*
X181360000Y-189500000D01*
D60*
%TO.N,/CM4_HighSpeed/HDMI0_SCL*%
X157470000Y-195260000D02*
X157500000Y-195290000D01*
X157500000Y-195290000D02*
X157500000Y-197150000D01*
%TO.N,/CM4_HighSpeed/HDMI0_CEC*%
X167120000Y-194501400D02*
X167120000Y-194120000D01*
X165611400Y-196010000D02*
X167120000Y-194501400D01*
%TO.N,/CM4_HighSpeed/HDMI0_CK_N*%
X159254442Y-198175558D02*
X159513000Y-197917000D01*
X159513000Y-197917000D02*
X159513000Y-197160000D01*
X159151700Y-198175558D02*
X159254442Y-198175558D01*
%TO.N,/CM4_HighSpeed/HDMI0_CK_P*%
X159796793Y-198410000D02*
X159807359Y-198399434D01*
X159807359Y-197745932D02*
X159913000Y-197640291D01*
X159913000Y-197640291D02*
X159913000Y-197160000D01*
X159807359Y-198399434D02*
X159807359Y-197745932D01*
%TO.N,/CM4_HighSpeed/HDMI0_D0_N*%
X160678013Y-199128900D02*
X160818640Y-198988273D01*
X160818640Y-198988273D02*
X160818640Y-197745932D01*
X160713000Y-197640292D02*
X160713000Y-197160000D01*
X160818640Y-197745932D02*
X160713000Y-197640292D01*
%TO.N,/CM4_HighSpeed/HDMI0_D0_P*%
X161113000Y-198735006D02*
X161113000Y-197160000D01*
X161353443Y-198975449D02*
X161113000Y-198735006D01*
X161353443Y-199201448D02*
X161353443Y-198975449D01*
%TO.N,/CM4_HighSpeed/HDMI0_D1_N*%
X159047224Y-195993800D02*
X159498365Y-196444941D01*
X158630000Y-195993800D02*
X159047224Y-195993800D01*
X161913000Y-196604770D02*
X161913000Y-197160000D01*
X159498365Y-196444941D02*
X161753171Y-196444941D01*
X161753171Y-196444941D02*
X161913000Y-196604770D01*
%TO.N,/CM4_HighSpeed/HDMI0_D1_P*%
X159620294Y-196150582D02*
X161875100Y-196150582D01*
X158810782Y-195341070D02*
X159620294Y-196150582D01*
X162313000Y-196588482D02*
X162313000Y-197160000D01*
X161875100Y-196150582D02*
X162313000Y-196588482D01*
%TO.N,/CM4_HighSpeed/HDMI0_D2_N*%
X160100000Y-195220000D02*
X160344160Y-195464160D01*
X162146818Y-195464151D02*
X163113009Y-196430341D01*
X163113000Y-196430338D02*
X163113000Y-197160000D01*
X160344160Y-195464160D02*
X162146822Y-195464160D01*
%TO.N,/CM4_HighSpeed/HDMI0_D2_P*%
X163513000Y-196414051D02*
X163513000Y-197160000D01*
X160726078Y-194865460D02*
X161030618Y-195170000D01*
X162268941Y-195169993D02*
X163513008Y-196414060D01*
X161030618Y-195170000D02*
X162268949Y-195170000D01*
D50*
%TO.N,/USB Hub/HD4_N*%
X129610000Y-173610000D02*
X129610000Y-173652557D01*
X129610000Y-173610000D02*
X130222500Y-173610000D01*
X129610000Y-173652557D02*
X128640000Y-174622557D01*
%TO.N,/USB Hub/HD4_P*%
X128840904Y-175319096D02*
X128460903Y-175319096D01*
X129162561Y-174715924D02*
X129162561Y-174997439D01*
X129970000Y-174130000D02*
X129748485Y-174130000D01*
X129162561Y-174997439D02*
X128840904Y-175319096D01*
X129748485Y-174130000D02*
X129162561Y-174715924D01*
D61*
%TO.N,/USB Hub/HD3_N*%
X128290000Y-172610000D02*
X129905337Y-172610000D01*
X125790000Y-175110000D02*
X128290000Y-172610000D01*
X124980000Y-175110000D02*
X125790000Y-175110000D01*
%TO.N,/USB Hub/HD3_P*%
X128241246Y-173074760D02*
X130187260Y-173074760D01*
X125911845Y-175404160D02*
X125685840Y-175404160D01*
X125911845Y-175404160D02*
X128241246Y-173074760D01*
X125685840Y-175404160D02*
X125172795Y-175917205D01*
D56*
%TO.N,Net-(L1-Pad2)*%
X125510000Y-188820000D02*
X125510000Y-188000000D01*
D52*
X125380000Y-187900000D02*
X124040000Y-186560000D01*
X124040000Y-186560000D02*
X124040000Y-184710000D01*
D56*
X125510000Y-188000000D02*
X125460000Y-187950000D01*
D51*
%TO.N,/CM4_GPIO/GPIO6*%
X190180000Y-163860000D02*
X190180000Y-158150000D01*
X171512993Y-163240001D02*
X171512993Y-163647774D01*
X189820000Y-164220000D02*
X190180000Y-163860000D01*
X171512993Y-163647774D02*
X170830000Y-164330767D01*
X190180000Y-158150000D02*
X190760000Y-157570000D01*
D56*
%TO.N,/CM4_GPIO/TRD1_P*%
X176712993Y-164527007D02*
X176270000Y-164970000D01*
X176270000Y-164970000D02*
X176270000Y-165280000D01*
X176280000Y-165375000D02*
X176280000Y-166040000D01*
X176712993Y-163240001D02*
X176712993Y-164527007D01*
%TO.N,/CM4_GPIO/TRD1_N*%
X176312993Y-164388871D02*
X175810000Y-164891864D01*
X175810000Y-164891864D02*
X175810000Y-165210000D01*
D49*
X176291295Y-167958655D02*
X175790000Y-167457360D01*
D56*
X176312993Y-163240001D02*
X176312993Y-164388871D01*
D49*
X175790000Y-167457360D02*
X175790000Y-166135000D01*
X176291295Y-168201295D02*
X176291295Y-167958655D01*
D56*
X175780000Y-165375000D02*
X175780000Y-165910000D01*
%TO.N,/CM4_GPIO/TRD0_N*%
X174790000Y-164570816D02*
X174790000Y-165910000D01*
X175512993Y-163240001D02*
X175512993Y-163847823D01*
D49*
X174790000Y-167143737D02*
X174790000Y-166135000D01*
X174352644Y-167581093D02*
X174790000Y-167143737D01*
D56*
X175512993Y-163847823D02*
X174790000Y-164570816D01*
D49*
%TO.N,/CM4_GPIO/TRD0_P*%
X173700000Y-167400000D02*
X174290000Y-166810000D01*
D56*
X174290000Y-164532680D02*
X174290000Y-165190000D01*
X174280000Y-165375000D02*
X174280000Y-165990000D01*
X175112993Y-163709687D02*
X174290000Y-164532680D01*
X175112993Y-163240001D02*
X175112993Y-163709687D01*
D49*
X174290000Y-166810000D02*
X174290000Y-166135000D01*
D51*
%TO.N,/CM4_GPIO/PI_nLED_Activity*%
X202285000Y-160945000D02*
X202250000Y-160980000D01*
X173570000Y-158210000D02*
X173112993Y-158667007D01*
X175498500Y-158210000D02*
X173570000Y-158210000D01*
X202285000Y-159850000D02*
X202285000Y-160945000D01*
X175680000Y-158391500D02*
X175498500Y-158210000D01*
X173112993Y-158667007D02*
X173112993Y-160160001D01*
%TO.N,/CM4_GPIO/GPIO_PB2*%
X165539723Y-165017319D02*
X166712993Y-163844049D01*
X202111589Y-177611589D02*
X200128411Y-177611589D01*
X166712993Y-163844049D02*
X166712993Y-163240001D01*
X160660000Y-177140000D02*
X160660000Y-168577042D01*
X202220000Y-177720000D02*
X202111589Y-177611589D01*
X160660000Y-168577042D02*
X164219722Y-165017320D01*
X164219722Y-165017320D02*
X165539723Y-165017319D01*
X200128411Y-177611589D02*
X199910000Y-177830000D01*
%TO.N,/CM4_GPIO/SD_PWR_ON*%
X162312993Y-157447007D02*
X162350000Y-157410000D01*
X162312993Y-160160001D02*
X162312993Y-157447007D01*
%TO.N,/CM4_GPIO/+1.8v*%
X159580000Y-163850000D02*
X159840000Y-163850000D01*
X159840000Y-163850000D02*
X159910000Y-163780000D01*
X159910000Y-163780000D02*
X159910000Y-163310000D01*
X159512993Y-163240001D02*
X159512993Y-163782993D01*
X159512993Y-163782993D02*
X159580000Y-163850000D01*
%TO.N,/USB Hub/nEXTRST*%
X157512993Y-163747007D02*
X157512993Y-163240001D01*
X137559260Y-167315601D02*
X137559260Y-169627782D01*
X137580000Y-166010000D02*
X137580000Y-167294861D01*
X137559260Y-169627782D02*
X136577042Y-170610000D01*
X156930000Y-164330000D02*
X157512993Y-163747007D01*
X154421589Y-164330000D02*
X156930000Y-164330000D01*
X137580000Y-167294861D02*
X137559260Y-167315601D01*
X136577042Y-170610000D02*
X136097500Y-170610000D01*
D50*
%TO.N,/CM4_HighSpeed/USB2_N*%
X176060000Y-192480000D02*
X176712993Y-193132993D01*
X133660000Y-168775392D02*
X133509070Y-168624462D01*
X176060000Y-192440000D02*
X176060000Y-192480000D01*
X133509070Y-167994224D02*
X133412423Y-167897577D01*
X133660000Y-169172500D02*
X133660000Y-168775392D01*
X133509070Y-168624462D02*
X133509070Y-167994224D01*
X176712993Y-193132993D02*
X176712993Y-194080001D01*
%TO.N,/CM4_HighSpeed/USB2_P*%
X134160000Y-169172500D02*
X134160000Y-168468400D01*
X176316143Y-193341041D02*
X176082271Y-193107169D01*
X176082271Y-193107169D02*
X175899341Y-193107169D01*
X134160000Y-168468400D02*
X134081600Y-168390000D01*
X176312993Y-193555000D02*
X176316143Y-193551850D01*
X176312993Y-194080001D02*
X176312993Y-193555000D01*
X176316143Y-193551850D02*
X176316143Y-193341041D01*
D51*
%TO.N,Net-(LED6-Pad1)*%
X200635000Y-159850000D02*
X196070000Y-159850000D01*
X194857500Y-157560000D02*
X194857500Y-158637500D01*
X196070000Y-159850000D02*
X194857500Y-158637500D01*
%TO.N,/Battery/MOSI*%
X168712993Y-163240001D02*
X168712993Y-164507007D01*
%TO.N,/Battery/MISO*%
X169240000Y-165005407D02*
X169512993Y-164732414D01*
X169512993Y-164732414D02*
X169512993Y-163240001D01*
%TO.N,/Battery/SCL*%
X169790000Y-165476822D02*
X169958411Y-165308411D01*
X169958411Y-165308411D02*
X169958411Y-163285419D01*
X169958411Y-163285419D02*
X169912993Y-163240001D01*
X169790000Y-165488400D02*
X169790000Y-165476822D01*
%TO.N,/Battery/I2C_SDA*%
X123510000Y-189620000D02*
X123510000Y-189600000D01*
X200480000Y-148790000D02*
X200320000Y-148950000D01*
X201125000Y-148790000D02*
X200480000Y-148790000D01*
X123510000Y-189600000D02*
X122840000Y-188930000D01*
X161112993Y-166185407D02*
X161112993Y-163240001D01*
X161070000Y-166228400D02*
X161112993Y-166185407D01*
%TO.N,/Battery/I2C_SCL*%
X123510000Y-190020000D02*
X123020498Y-190020000D01*
X199820000Y-151240000D02*
X201135000Y-151240000D01*
X161820000Y-165960000D02*
X161500000Y-165640000D01*
X161500000Y-165640000D02*
X161500000Y-163240000D01*
X123020498Y-190020000D02*
X122700498Y-189700000D01*
%TO.N,/Battery/{slash}RESET*%
X168307007Y-163882993D02*
X168312993Y-163882993D01*
X166210000Y-175638389D02*
X166210000Y-165980000D01*
X166210000Y-165980000D02*
X168307007Y-163882993D01*
X168312993Y-163882993D02*
X168312993Y-163240001D01*
X166080000Y-175768389D02*
X166210000Y-175638389D01*
%TO.N,/USB Hub/nOCS1*%
X135685001Y-173110000D02*
X135430000Y-173365001D01*
X135430000Y-173365001D02*
X135430000Y-174110000D01*
X135430000Y-174110000D02*
X135243562Y-174110000D01*
X134660000Y-176140000D02*
X134500000Y-176300000D01*
X132970000Y-174350000D02*
X134740000Y-174350000D01*
X134740000Y-174350000D02*
X134871781Y-174481781D01*
X136097500Y-173110000D02*
X135685001Y-173110000D01*
X134670000Y-174683562D02*
X134670000Y-174950000D01*
X132660000Y-175047500D02*
X132660000Y-174660000D01*
X136097500Y-174110000D02*
X135430000Y-174110000D01*
X134871781Y-174481781D02*
X134670000Y-174683562D01*
X134660000Y-175047500D02*
X134660000Y-176140000D01*
X132660000Y-174660000D02*
X132970000Y-174350000D01*
X135243562Y-174110000D02*
X134871781Y-174481781D01*
X193880000Y-136990000D02*
X193880000Y-135920000D01*
%TO.N,/USB Hub/PWR1*%
X193910000Y-138080000D02*
X193910000Y-138786500D01*
X132160000Y-175950000D02*
X133080000Y-176870000D01*
X193910000Y-138786500D02*
X194343500Y-139220000D01*
X132160000Y-175047500D02*
X132160000Y-175950000D01*
D50*
%TO.N,/USB Hub/HD2_P*%
X129167094Y-171610000D02*
X130222500Y-171610000D01*
X129085941Y-171528847D02*
X129167094Y-171610000D01*
D51*
%TO.N,/CM4_GPIO/ETH_LEDY*%
X174312993Y-160160001D02*
X174312993Y-159357007D01*
X174312993Y-159357007D02*
X174837423Y-158832577D01*
X141860000Y-199080000D02*
X139800000Y-197020000D01*
X143910000Y-199080000D02*
X141860000Y-199080000D01*
X174837423Y-158832577D02*
X174957423Y-158832577D01*
X139800000Y-197020000D02*
X138565000Y-197020000D01*
%TO.N,/CM4_GPIO/ETH_LEDG*%
X173912993Y-158923807D02*
X173912993Y-160160001D01*
X174128400Y-158708400D02*
X173912993Y-158923807D01*
X116595000Y-199070000D02*
X116595000Y-198205000D01*
X116595000Y-198205000D02*
X116620000Y-198180000D01*
%TO.N,/Battery/PWR_IRQ*%
X186550000Y-182880000D02*
X183200000Y-182880000D01*
X140275000Y-179620000D02*
X140275000Y-181755000D01*
X187667580Y-183997580D02*
X186550000Y-182880000D01*
X192960000Y-183750000D02*
X192712420Y-183997580D01*
X140275000Y-181755000D02*
X141200000Y-182680000D01*
X183200000Y-182880000D02*
X183130000Y-182950000D01*
X192712420Y-183997580D02*
X187667580Y-183997580D01*
%TO.N,/Battery/AXP_EXTEN*%
X127110000Y-194820000D02*
X127110000Y-195347218D01*
X127110000Y-195347218D02*
X126790000Y-195667218D01*
X126790000Y-195667218D02*
X126790000Y-196670000D01*
%TO.N,Net-(R40-Pad2)*%
X201650000Y-156520000D02*
X201610000Y-156520000D01*
X192651467Y-156829702D02*
X192624589Y-156856580D01*
X192624589Y-156856580D02*
X189943420Y-156856580D01*
X201610000Y-156520000D02*
X200585000Y-157545000D01*
X189943420Y-156856580D02*
X189370000Y-157430000D01*
%TO.N,Net-(LED10-Pad2)*%
X118245000Y-199070000D02*
X120160000Y-199070000D01*
%TO.N,Net-(LED11-Pad2)*%
X130700000Y-198068389D02*
X131359111Y-198727500D01*
X136915000Y-195865000D02*
X136970000Y-195810000D01*
X136915000Y-197020000D02*
X136915000Y-195865000D01*
%TO.N,Net-(LED5-Pad2)*%
X189187500Y-155982500D02*
X188110000Y-157060000D01*
X188110000Y-157060000D02*
X187390000Y-157060000D01*
D57*
%TO.N,Net-(C18-Pad1)*%
X103300000Y-177630000D02*
X105580000Y-175350000D01*
X105580000Y-175350000D02*
X105580000Y-174320000D01*
D51*
%TO.N,Net-(LED5-Pad1)*%
X129557423Y-188647423D02*
X129510000Y-188694846D01*
X192421500Y-155905000D02*
X190762500Y-155905000D01*
X129510000Y-188694846D02*
X129510000Y-189620000D01*
X192436500Y-155890000D02*
X192421500Y-155905000D01*
%TO.N,Net-(LED8-Pad2)*%
X193308500Y-155905000D02*
X194133500Y-155080000D01*
X194133500Y-155080000D02*
X198070000Y-155080000D01*
X198070000Y-155080000D02*
X198910000Y-155920000D01*
D56*
%TO.N,Net-(R31-Pad1)*%
X121361111Y-193278889D02*
X120881111Y-193278889D01*
X123020000Y-191620000D02*
X121361111Y-193278889D01*
X120881111Y-193278889D02*
X120300000Y-193860000D01*
X123510000Y-191620000D02*
X123020000Y-191620000D01*
D51*
%TO.N,Net-(R32-Pad1)*%
X129490000Y-188010000D02*
X128720000Y-188780000D01*
X131320000Y-188010000D02*
X129490000Y-188010000D01*
%TO.N,Net-(R33-Pad2)*%
X128310000Y-195400000D02*
X130303420Y-197393420D01*
X128310000Y-194820000D02*
X128310000Y-195400000D01*
X130303420Y-197393420D02*
X133523420Y-197393420D01*
X133523420Y-197393420D02*
X134870000Y-198740000D01*
%TO.N,Net-(R51-Pad1)*%
X136740000Y-171610000D02*
X136097500Y-171610000D01*
X138545000Y-169805000D02*
X136740000Y-171610000D01*
%TO.N,Net-(R53-Pad1)*%
X135160000Y-166720000D02*
X135566580Y-166313420D01*
X137309516Y-165490000D02*
X138630000Y-165490000D01*
X135160000Y-169172500D02*
X135160000Y-166720000D01*
X136486096Y-166313420D02*
X137309516Y-165490000D01*
X135566580Y-166313420D02*
X136486096Y-166313420D01*
%TO.N,Net-(R55-Pad1)*%
X136097500Y-171110000D02*
X136762958Y-171110000D01*
X136762958Y-171110000D02*
X137896580Y-169976378D01*
X137896580Y-169976378D02*
X137896580Y-168253420D01*
X137896580Y-168253420D02*
X138510000Y-167640000D01*
%TO.N,Net-(R54-Pad2)*%
X127121600Y-167280000D02*
X127406960Y-166994640D01*
X127406960Y-166994640D02*
X130201682Y-166994640D01*
X131660000Y-168452958D02*
X131660000Y-169172500D01*
X130201682Y-166994640D02*
X131660000Y-168452958D01*
X133080000Y-165640000D02*
X133024500Y-165584500D01*
X133024500Y-165584500D02*
X131989500Y-165584500D01*
%TO.N,Net-(R52-Pad1)*%
X137515000Y-172640000D02*
X136100000Y-172640000D01*
%TO.N,Net-(R47-Pad1)*%
X190820000Y-191400000D02*
X190820000Y-189560000D01*
X191510000Y-188870000D02*
X193270000Y-188870000D01*
X139125000Y-189380000D02*
X140345000Y-190600000D01*
X192000000Y-192580000D02*
X190820000Y-191400000D01*
X140345000Y-190600000D02*
X141530000Y-190600000D01*
X190820000Y-189560000D02*
X191510000Y-188870000D01*
%TD*%
M02*
